<?xml version="1.0" encoding="utf-8" standalone="no"?>
<!DOCTYPE svg PUBLIC "-//W3C//DTD SVG 1.1//EN"
  "http://www.w3.org/Graphics/SVG/1.1/DTD/svg11.dtd">
<svg xmlns:xlink="http://www.w3.org/1999/xlink" width="864pt" height="432pt" viewBox="0 0 864 432" xmlns="http://www.w3.org/2000/svg" version="1.1">
 <metadata>
  <rdf:RDF xmlns:dc="http://purl.org/dc/elements/1.1/" xmlns:cc="http://creativecommons.org/ns#" xmlns:rdf="http://www.w3.org/1999/02/22-rdf-syntax-ns#">
   <cc:Work>
    <dc:type rdf:resource="http://purl.org/dc/dcmitype/StillImage"/>
    <dc:date>2026-07-21T03:16:25.316138</dc:date>
    <dc:format>image/svg+xml</dc:format>
    <dc:creator>
     <cc:Agent>
      <dc:title>Matplotlib v3.7.5, https://matplotlib.org/</dc:title>
     </cc:Agent>
    </dc:creator>
   </cc:Work>
  </rdf:RDF>
 </metadata>
 <defs>
  <style type="text/css">*{stroke-linejoin: round; stroke-linecap: butt}</style>
 </defs>
 <g id="figure_1">
  <g id="patch_1">
   <path d="M 0 432 
L 864 432 
L 864 0 
L 0 0 
z
" style="fill: #ffffff"/>
  </g>
  <g id="axes_1">
   <g id="patch_2">
    <path d="M 108 384.48 
L 777.6 384.48 
L 777.6 51.84 
L 108 51.84 
z
" style="fill: #eaeaf2"/>
   </g>
   <g id="matplotlib.axis_1">
    <g id="xtick_1">
     <g id="line2d_1">
      <path d="M 148.667074 384.48 
L 148.667074 51.84 
" clip-path="url(#p68492b117f)" style="fill: none; stroke: #ffffff; stroke-opacity: 0.3; stroke-linecap: round"/>
     </g>
     <g id="line2d_2"/>
     <g id="text_1">
      <text style="fill: #262626; font: 10px 'Arial', 'Liberation Sans', 'DejaVu Sans', 'Bitstream Vera Sans', sans-serif; text-anchor: middle" x="148.667074" y="398.726875" transform="rotate(-0 148.667074 398.726875)">0</text>
     </g>
    </g>
    <g id="xtick_2">
     <g id="line2d_3">
      <path d="M 276.550955 384.48 
L 276.550955 51.84 
" clip-path="url(#p68492b117f)" style="fill: none; stroke: #ffffff; stroke-opacity: 0.3; stroke-linecap: round"/>
     </g>
     <g id="line2d_4"/>
     <g id="text_2">
      <text style="fill: #262626; font: 10px 'Arial', 'Liberation Sans', 'DejaVu Sans', 'Bitstream Vera Sans', sans-serif; text-anchor: middle" x="276.550955" y="398.726875" transform="rotate(-0 276.550955 398.726875)">5</text>
     </g>
    </g>
    <g id="xtick_3">
     <g id="line2d_5">
      <path d="M 404.434836 384.48 
L 404.434836 51.84 
" clip-path="url(#p68492b117f)" style="fill: none; stroke: #ffffff; stroke-opacity: 0.3; stroke-linecap: round"/>
     </g>
     <g id="line2d_6"/>
     <g id="text_3">
      <text style="fill: #262626; font: 10px 'Arial', 'Liberation Sans', 'DejaVu Sans', 'Bitstream Vera Sans', sans-serif; text-anchor: middle" x="404.434836" y="398.726875" transform="rotate(-0 404.434836 398.726875)">10</text>
     </g>
    </g>
    <g id="xtick_4">
     <g id="line2d_7">
      <path d="M 532.318717 384.48 
L 532.318717 51.84 
" clip-path="url(#p68492b117f)" style="fill: none; stroke: #ffffff; stroke-opacity: 0.3; stroke-linecap: round"/>
     </g>
     <g id="line2d_8"/>
     <g id="text_4">
      <text style="fill: #262626; font: 10px 'Arial', 'Liberation Sans', 'DejaVu Sans', 'Bitstream Vera Sans', sans-serif; text-anchor: middle" x="532.318717" y="398.726875" transform="rotate(-0 532.318717 398.726875)">15</text>
     </g>
    </g>
    <g id="xtick_5">
     <g id="line2d_9">
      <path d="M 660.202597 384.48 
L 660.202597 51.84 
" clip-path="url(#p68492b117f)" style="fill: none; stroke: #ffffff; stroke-opacity: 0.3; stroke-linecap: round"/>
     </g>
     <g id="line2d_10"/>
     <g id="text_5">
      <text style="fill: #262626; font: 10px 'Arial', 'Liberation Sans', 'DejaVu Sans', 'Bitstream Vera Sans', sans-serif; text-anchor: middle" x="660.202597" y="398.726875" transform="rotate(-0 660.202597 398.726875)">20</text>
     </g>
    </g>
    <g id="text_6">
     <text style="fill: #262626; font: 11px 'Arial', 'Liberation Sans', 'DejaVu Sans', 'Bitstream Vera Sans', sans-serif; text-anchor: middle" x="442.8" y="412.773438" transform="rotate(-0 442.8 412.773438)">Hour</text>
    </g>
   </g>
   <g id="matplotlib.axis_2">
    <g id="ytick_1">
     <g id="line2d_11">
      <path d="M 108 384.48 
L 777.6 384.48 
" clip-path="url(#p68492b117f)" style="fill: none; stroke: #ffffff; stroke-opacity: 0.3; stroke-linecap: round"/>
     </g>
     <g id="line2d_12"/>
     <g id="text_7">
      <text style="fill: #262626; font: 10px 'Arial', 'Liberation Sans', 'DejaVu Sans', 'Bitstream Vera Sans', sans-serif; text-anchor: end" x="101" y="388.103437" transform="rotate(-0 101 388.103437)">0</text>
     </g>
    </g>
    <g id="ytick_2">
     <g id="line2d_13">
      <path d="M 108 325.644454 
L 777.6 325.644454 
" clip-path="url(#p68492b117f)" style="fill: none; stroke: #ffffff; stroke-opacity: 0.3; stroke-linecap: round"/>
     </g>
     <g id="line2d_14"/>
     <g id="text_8">
      <text style="fill: #262626; font: 10px 'Arial', 'Liberation Sans', 'DejaVu Sans', 'Bitstream Vera Sans', sans-serif; text-anchor: end" x="101" y="329.267891" transform="rotate(-0 101 329.267891)">2000</text>
     </g>
    </g>
    <g id="ytick_3">
     <g id="line2d_15">
      <path d="M 108 266.808907 
L 777.6 266.808907 
" clip-path="url(#p68492b117f)" style="fill: none; stroke: #ffffff; stroke-opacity: 0.3; stroke-linecap: round"/>
     </g>
     <g id="line2d_16"/>
     <g id="text_9">
      <text style="fill: #262626; font: 10px 'Arial', 'Liberation Sans', 'DejaVu Sans', 'Bitstream Vera Sans', sans-serif; text-anchor: end" x="101" y="270.432345" transform="rotate(-0 101 270.432345)">4000</text>
     </g>
    </g>
    <g id="ytick_4">
     <g id="line2d_17">
      <path d="M 108 207.973361 
L 777.6 207.973361 
" clip-path="url(#p68492b117f)" style="fill: none; stroke: #ffffff; stroke-opacity: 0.3; stroke-linecap: round"/>
     </g>
     <g id="line2d_18"/>
     <g id="text_10">
      <text style="fill: #262626; font: 10px 'Arial', 'Liberation Sans', 'DejaVu Sans', 'Bitstream Vera Sans', sans-serif; text-anchor: end" x="101" y="211.596798" transform="rotate(-0 101 211.596798)">6000</text>
     </g>
    </g>
    <g id="ytick_5">
     <g id="line2d_19">
      <path d="M 108 149.137814 
L 777.6 149.137814 
" clip-path="url(#p68492b117f)" style="fill: none; stroke: #ffffff; stroke-opacity: 0.3; stroke-linecap: round"/>
     </g>
     <g id="line2d_20"/>
     <g id="text_11">
      <text style="fill: #262626; font: 10px 'Arial', 'Liberation Sans', 'DejaVu Sans', 'Bitstream Vera Sans', sans-serif; text-anchor: end" x="101" y="152.761252" transform="rotate(-0 101 152.761252)">8000</text>
     </g>
    </g>
    <g id="ytick_6">
     <g id="line2d_21">
      <path d="M 108 90.302268 
L 777.6 90.302268 
" clip-path="url(#p68492b117f)" style="fill: none; stroke: #ffffff; stroke-opacity: 0.3; stroke-linecap: round"/>
     </g>
     <g id="line2d_22"/>
     <g id="text_12">
      <text style="fill: #262626; font: 10px 'Arial', 'Liberation Sans', 'DejaVu Sans', 'Bitstream Vera Sans', sans-serif; text-anchor: end" x="101" y="93.925705" transform="rotate(-0 101 93.925705)">10000</text>
     </g>
    </g>
    <g id="text_13">
     <text style="fill: #262626; font: 11px 'Arial', 'Liberation Sans', 'DejaVu Sans', 'Bitstream Vera Sans', sans-serif; text-anchor: middle" x="66.912813" y="218.16" transform="rotate(-90 66.912813 218.16)">Number of Incidents</text>
    </g>
   </g>
   <g id="patch_3">
    <path d="M 138.436364 384.48 
L 158.897785 384.48 
L 158.897785 190.763963 
L 138.436364 190.763963 
z
" clip-path="url(#p68492b117f)" style="fill: #f77189; opacity: 0.7"/>
   </g>
   <g id="patch_4">
    <path d="M 164.01314 384.48 
L 184.474561 384.48 
L 184.474561 234.596445 
L 164.01314 234.596445 
z
" clip-path="url(#p68492b117f)" style="fill: #f77189; opacity: 0.7"/>
   </g>
   <g id="patch_5">
    <path d="M 189.589916 384.48 
L 210.051337 384.48 
L 210.051337 251.305741 
L 189.589916 251.305741 
z
" clip-path="url(#p68492b117f)" style="fill: #f77189; opacity: 0.7"/>
   </g>
   <g id="patch_6">
    <path d="M 215.166692 384.48 
L 235.628113 384.48 
L 235.628113 271.103902 
L 215.166692 271.103902 
z
" clip-path="url(#p68492b117f)" style="fill: #f77189; opacity: 0.7"/>
   </g>
   <g id="patch_7">
    <path d="M 240.743468 384.48 
L 261.204889 384.48 
L 261.204889 244.863248 
L 240.743468 244.863248 
z
" clip-path="url(#p68492b117f)" style="fill: #f77189; opacity: 0.7"/>
   </g>
   <g id="patch_8">
    <path d="M 266.320244 384.48 
L 286.781665 384.48 
L 286.781665 240.627089 
L 266.320244 240.627089 
z
" clip-path="url(#p68492b117f)" style="fill: #f77189; opacity: 0.7"/>
   </g>
   <g id="patch_9">
    <path d="M 291.897021 384.48 
L 312.358442 384.48 
L 312.358442 248.334545 
L 291.897021 248.334545 
z
" clip-path="url(#p68492b117f)" style="fill: #f77189; opacity: 0.7"/>
   </g>
   <g id="patch_10">
    <path d="M 317.473797 384.48 
L 337.935218 384.48 
L 337.935218 263.896547 
L 317.473797 263.896547 
z
" clip-path="url(#p68492b117f)" style="fill: #f77189; opacity: 0.7"/>
   </g>
   <g id="patch_11">
    <path d="M 343.050573 384.48 
L 363.511994 384.48 
L 363.511994 245.716364 
L 343.050573 245.716364 
z
" clip-path="url(#p68492b117f)" style="fill: #f77189; opacity: 0.7"/>
   </g>
   <g id="patch_12">
    <path d="M 368.627349 384.48 
L 389.08877 384.48 
L 389.08877 214.151093 
L 368.627349 214.151093 
z
" clip-path="url(#p68492b117f)" style="fill: #f77189; opacity: 0.7"/>
   </g>
   <g id="patch_13">
    <path d="M 394.204125 384.48 
L 414.665546 384.48 
L 414.665546 181.732707 
L 394.204125 181.732707 
z
" clip-path="url(#p68492b117f)" style="fill: #f77189; opacity: 0.7"/>
   </g>
   <g id="patch_14">
    <path d="M 419.780901 384.48 
L 440.242322 384.48 
L 440.242322 162.640572 
L 419.780901 162.640572 
z
" clip-path="url(#p68492b117f)" style="fill: #f77189; opacity: 0.7"/>
   </g>
   <g id="patch_15">
    <path d="M 445.357678 384.48 
L 465.819099 384.48 
L 465.819099 166.670807 
L 445.357678 166.670807 
z
" clip-path="url(#p68492b117f)" style="fill: #f77189; opacity: 0.7"/>
   </g>
   <g id="patch_16">
    <path d="M 470.934454 384.48 
L 491.395875 384.48 
L 491.395875 242.362737 
L 470.934454 242.362737 
z
" clip-path="url(#p68492b117f)" style="fill: #f77189; opacity: 0.7"/>
   </g>
   <g id="patch_17">
    <path d="M 496.51123 384.48 
L 516.972651 384.48 
L 516.972651 173.995832 
L 496.51123 173.995832 
z
" clip-path="url(#p68492b117f)" style="fill: #f77189; opacity: 0.7"/>
   </g>
   <g id="patch_18">
    <path d="M 522.088006 384.48 
L 542.549427 384.48 
L 542.549427 120.39665 
L 522.088006 120.39665 
z
" clip-path="url(#p68492b117f)" style="fill: #f77189; opacity: 0.7"/>
   </g>
   <g id="patch_19">
    <path d="M 547.664782 384.48 
L 568.126203 384.48 
L 568.126203 67.68 
L 547.664782 67.68 
z
" clip-path="url(#p68492b117f)" style="fill: #f77189; opacity: 0.7"/>
   </g>
   <g id="patch_20">
    <path d="M 573.241558 384.48 
L 593.702979 384.48 
L 593.702979 80.88858 
L 573.241558 80.88858 
z
" clip-path="url(#p68492b117f)" style="fill: #f77189; opacity: 0.7"/>
   </g>
   <g id="patch_21">
    <path d="M 598.818335 384.48 
L 619.279756 384.48 
L 619.279756 225.712278 
L 598.818335 225.712278 
z
" clip-path="url(#p68492b117f)" style="fill: #f77189; opacity: 0.7"/>
   </g>
   <g id="patch_22">
    <path d="M 624.395111 384.48 
L 644.856532 384.48 
L 644.856532 356.621369 
L 624.395111 356.621369 
z
" clip-path="url(#p68492b117f)" style="fill: #f77189; opacity: 0.7"/>
   </g>
   <g id="patch_23">
    <path d="M 649.971887 384.48 
L 670.433308 384.48 
L 670.433308 381.597058 
L 649.971887 381.597058 
z
" clip-path="url(#p68492b117f)" style="fill: #f77189; opacity: 0.7"/>
   </g>
   <g id="patch_24">
    <path d="M 675.548663 384.48 
L 696.010084 384.48 
L 696.010084 384.421164 
L 675.548663 384.421164 
z
" clip-path="url(#p68492b117f)" style="fill: #f77189; opacity: 0.7"/>
   </g>
   <g id="patch_25">
    <path d="M 726.702215 384.48 
L 747.163636 384.48 
L 747.163636 384.450582 
L 726.702215 384.450582 
z
" clip-path="url(#p68492b117f)" style="fill: #f77189; opacity: 0.7"/>
   </g>
   <g id="patch_26">
    <path d="M 108 384.48 
L 108 51.84 
" style="fill: none"/>
   </g>
   <g id="patch_27">
    <path d="M 777.6 384.48 
L 777.6 51.84 
" style="fill: none"/>
   </g>
   <g id="patch_28">
    <path d="M 108 384.48 
L 777.6 384.48 
" style="fill: none"/>
   </g>
   <g id="patch_29">
    <path d="M 108 51.84 
L 777.6 51.84 
" style="fill: none"/>
   </g>
   <g id="text_14">
    <text style="fill: #262626; font: 12px 'Arial', 'Liberation Sans', 'DejaVu Sans', 'Bitstream Vera Sans', sans-serif; text-anchor: middle" x="442.8" y="45.84" transform="rotate(-0 442.8 45.84)">Incidents by Hour of Day</text>
   </g>
  </g>
 </g>
 <defs>
  <clipPath id="p68492b117f">
   <rect x="108" y="51.84" width="669.6" height="332.64"/>
  </clipPath>
 </defs>
</svg>
