<?xml version="1.0" encoding="utf-8" standalone="no"?>
<!DOCTYPE svg PUBLIC "-//W3C//DTD SVG 1.1//EN"
  "http://www.w3.org/Graphics/SVG/1.1/DTD/svg11.dtd">
<svg xmlns:xlink="http://www.w3.org/1999/xlink" width="864pt" height="432pt" viewBox="0 0 864 432" xmlns="http://www.w3.org/2000/svg" version="1.1">
 <metadata>
  <rdf:RDF xmlns:dc="http://purl.org/dc/elements/1.1/" xmlns:cc="http://creativecommons.org/ns#" xmlns:rdf="http://www.w3.org/1999/02/22-rdf-syntax-ns#">
   <cc:Work>
    <dc:type rdf:resource="http://purl.org/dc/dcmitype/StillImage"/>
    <dc:date>2026-06-29T15:37:36.685539</dc:date>
    <dc:format>image/svg+xml</dc:format>
    <dc:creator>
     <cc:Agent>
      <dc:title>Matplotlib v3.7.5, https://matplotlib.org/</dc:title>
     </cc:Agent>
    </dc:creator>
   </cc:Work>
  </rdf:RDF>
 </metadata>
 <defs>
  <style type="text/css">*{stroke-linejoin: round; stroke-linecap: butt}</style>
 </defs>
 <g id="figure_1">
  <g id="patch_1">
   <path d="M 0 432 
L 864 432 
L 864 0 
L 0 0 
z
" style="fill: #ffffff"/>
  </g>
  <g id="axes_1">
   <g id="patch_2">
    <path d="M 108 384.48 
L 777.6 384.48 
L 777.6 51.84 
L 108 51.84 
z
" style="fill: #eaeaf2"/>
   </g>
   <g id="matplotlib.axis_1">
    <g id="xtick_1">
     <g id="line2d_1">
      <path d="M 148.667074 384.48 
L 148.667074 51.84 
" clip-path="url(#p3a65f428dd)" style="fill: none; stroke: #ffffff; stroke-opacity: 0.3; stroke-linecap: round"/>
     </g>
     <g id="line2d_2"/>
     <g id="text_1">
      <text style="fill: #262626; font: 10px 'Arial', 'Liberation Sans', 'DejaVu Sans', 'Bitstream Vera Sans', sans-serif; text-anchor: middle" x="148.667074" y="398.726875" transform="rotate(-0 148.667074 398.726875)">0</text>
     </g>
    </g>
    <g id="xtick_2">
     <g id="line2d_3">
      <path d="M 276.550955 384.48 
L 276.550955 51.84 
" clip-path="url(#p3a65f428dd)" style="fill: none; stroke: #ffffff; stroke-opacity: 0.3; stroke-linecap: round"/>
     </g>
     <g id="line2d_4"/>
     <g id="text_2">
      <text style="fill: #262626; font: 10px 'Arial', 'Liberation Sans', 'DejaVu Sans', 'Bitstream Vera Sans', sans-serif; text-anchor: middle" x="276.550955" y="398.726875" transform="rotate(-0 276.550955 398.726875)">5</text>
     </g>
    </g>
    <g id="xtick_3">
     <g id="line2d_5">
      <path d="M 404.434836 384.48 
L 404.434836 51.84 
" clip-path="url(#p3a65f428dd)" style="fill: none; stroke: #ffffff; stroke-opacity: 0.3; stroke-linecap: round"/>
     </g>
     <g id="line2d_6"/>
     <g id="text_3">
      <text style="fill: #262626; font: 10px 'Arial', 'Liberation Sans', 'DejaVu Sans', 'Bitstream Vera Sans', sans-serif; text-anchor: middle" x="404.434836" y="398.726875" transform="rotate(-0 404.434836 398.726875)">10</text>
     </g>
    </g>
    <g id="xtick_4">
     <g id="line2d_7">
      <path d="M 532.318717 384.48 
L 532.318717 51.84 
" clip-path="url(#p3a65f428dd)" style="fill: none; stroke: #ffffff; stroke-opacity: 0.3; stroke-linecap: round"/>
     </g>
     <g id="line2d_8"/>
     <g id="text_4">
      <text style="fill: #262626; font: 10px 'Arial', 'Liberation Sans', 'DejaVu Sans', 'Bitstream Vera Sans', sans-serif; text-anchor: middle" x="532.318717" y="398.726875" transform="rotate(-0 532.318717 398.726875)">15</text>
     </g>
    </g>
    <g id="xtick_5">
     <g id="line2d_9">
      <path d="M 660.202597 384.48 
L 660.202597 51.84 
" clip-path="url(#p3a65f428dd)" style="fill: none; stroke: #ffffff; stroke-opacity: 0.3; stroke-linecap: round"/>
     </g>
     <g id="line2d_10"/>
     <g id="text_5">
      <text style="fill: #262626; font: 10px 'Arial', 'Liberation Sans', 'DejaVu Sans', 'Bitstream Vera Sans', sans-serif; text-anchor: middle" x="660.202597" y="398.726875" transform="rotate(-0 660.202597 398.726875)">20</text>
     </g>
    </g>
    <g id="text_6">
     <text style="fill: #262626; font: 11px 'Arial', 'Liberation Sans', 'DejaVu Sans', 'Bitstream Vera Sans', sans-serif; text-anchor: middle" x="442.8" y="412.773438" transform="rotate(-0 442.8 412.773438)">Hour</text>
    </g>
   </g>
   <g id="matplotlib.axis_2">
    <g id="ytick_1">
     <g id="line2d_11">
      <path d="M 108 384.48 
L 777.6 384.48 
" clip-path="url(#p3a65f428dd)" style="fill: none; stroke: #ffffff; stroke-opacity: 0.3; stroke-linecap: round"/>
     </g>
     <g id="line2d_12"/>
     <g id="text_7">
      <text style="fill: #262626; font: 10px 'Arial', 'Liberation Sans', 'DejaVu Sans', 'Bitstream Vera Sans', sans-serif; text-anchor: end" x="101" y="388.103437" transform="rotate(-0 101 388.103437)">0</text>
     </g>
    </g>
    <g id="ytick_2">
     <g id="line2d_13">
      <path d="M 108 323.333503 
L 777.6 323.333503 
" clip-path="url(#p3a65f428dd)" style="fill: none; stroke: #ffffff; stroke-opacity: 0.3; stroke-linecap: round"/>
     </g>
     <g id="line2d_14"/>
     <g id="text_8">
      <text style="fill: #262626; font: 10px 'Arial', 'Liberation Sans', 'DejaVu Sans', 'Bitstream Vera Sans', sans-serif; text-anchor: end" x="101" y="326.956941" transform="rotate(-0 101 326.956941)">2000</text>
     </g>
    </g>
    <g id="ytick_3">
     <g id="line2d_15">
      <path d="M 108 262.187006 
L 777.6 262.187006 
" clip-path="url(#p3a65f428dd)" style="fill: none; stroke: #ffffff; stroke-opacity: 0.3; stroke-linecap: round"/>
     </g>
     <g id="line2d_16"/>
     <g id="text_9">
      <text style="fill: #262626; font: 10px 'Arial', 'Liberation Sans', 'DejaVu Sans', 'Bitstream Vera Sans', sans-serif; text-anchor: end" x="101" y="265.810444" transform="rotate(-0 101 265.810444)">4000</text>
     </g>
    </g>
    <g id="ytick_4">
     <g id="line2d_17">
      <path d="M 108 201.04051 
L 777.6 201.04051 
" clip-path="url(#p3a65f428dd)" style="fill: none; stroke: #ffffff; stroke-opacity: 0.3; stroke-linecap: round"/>
     </g>
     <g id="line2d_18"/>
     <g id="text_10">
      <text style="fill: #262626; font: 10px 'Arial', 'Liberation Sans', 'DejaVu Sans', 'Bitstream Vera Sans', sans-serif; text-anchor: end" x="101" y="204.663947" transform="rotate(-0 101 204.663947)">6000</text>
     </g>
    </g>
    <g id="ytick_5">
     <g id="line2d_19">
      <path d="M 108 139.894013 
L 777.6 139.894013 
" clip-path="url(#p3a65f428dd)" style="fill: none; stroke: #ffffff; stroke-opacity: 0.3; stroke-linecap: round"/>
     </g>
     <g id="line2d_20"/>
     <g id="text_11">
      <text style="fill: #262626; font: 10px 'Arial', 'Liberation Sans', 'DejaVu Sans', 'Bitstream Vera Sans', sans-serif; text-anchor: end" x="101" y="143.51745" transform="rotate(-0 101 143.51745)">8000</text>
     </g>
    </g>
    <g id="ytick_6">
     <g id="line2d_21">
      <path d="M 108 78.747516 
L 777.6 78.747516 
" clip-path="url(#p3a65f428dd)" style="fill: none; stroke: #ffffff; stroke-opacity: 0.3; stroke-linecap: round"/>
     </g>
     <g id="line2d_22"/>
     <g id="text_12">
      <text style="fill: #262626; font: 10px 'Arial', 'Liberation Sans', 'DejaVu Sans', 'Bitstream Vera Sans', sans-serif; text-anchor: end" x="101" y="82.370953" transform="rotate(-0 101 82.370953)">10000</text>
     </g>
    </g>
    <g id="text_13">
     <text style="fill: #262626; font: 11px 'Arial', 'Liberation Sans', 'DejaVu Sans', 'Bitstream Vera Sans', sans-serif; text-anchor: middle" x="66.912813" y="218.16" transform="rotate(-90 66.912813 218.16)">Number of Incidents</text>
    </g>
   </g>
   <g id="patch_3">
    <path d="M 138.436364 384.48 
L 158.897785 384.48 
L 158.897785 189.575541 
L 138.436364 189.575541 
z
" clip-path="url(#p3a65f428dd)" style="fill: #f77189; opacity: 0.7"/>
   </g>
   <g id="patch_4">
    <path d="M 164.01314 384.48 
L 184.474561 384.48 
L 184.474561 233.111847 
L 164.01314 233.111847 
z
" clip-path="url(#p3a65f428dd)" style="fill: #f77189; opacity: 0.7"/>
   </g>
   <g id="patch_5">
    <path d="M 189.589916 384.48 
L 210.051337 384.48 
L 210.051337 250.232866 
L 189.589916 250.232866 
z
" clip-path="url(#p3a65f428dd)" style="fill: #f77189; opacity: 0.7"/>
   </g>
   <g id="patch_6">
    <path d="M 215.166692 384.48 
L 235.628113 384.48 
L 235.628113 269.983185 
L 215.166692 269.983185 
z
" clip-path="url(#p3a65f428dd)" style="fill: #f77189; opacity: 0.7"/>
   </g>
   <g id="patch_7">
    <path d="M 240.743468 384.48 
L 261.204889 384.48 
L 261.204889 243.537325 
L 240.743468 243.537325 
z
" clip-path="url(#p3a65f428dd)" style="fill: #f77189; opacity: 0.7"/>
   </g>
   <g id="patch_8">
    <path d="M 266.320244 384.48 
L 286.781665 384.48 
L 286.781665 239.471083 
L 266.320244 239.471083 
z
" clip-path="url(#p3a65f428dd)" style="fill: #f77189; opacity: 0.7"/>
   </g>
   <g id="patch_9">
    <path d="M 291.897021 384.48 
L 312.358442 384.48 
L 312.358442 247.175541 
L 291.897021 247.175541 
z
" clip-path="url(#p3a65f428dd)" style="fill: #f77189; opacity: 0.7"/>
   </g>
   <g id="patch_10">
    <path d="M 317.473797 384.48 
L 337.935218 384.48 
L 337.935218 263.226497 
L 317.473797 263.226497 
z
" clip-path="url(#p3a65f428dd)" style="fill: #f77189; opacity: 0.7"/>
   </g>
   <g id="patch_11">
    <path d="M 343.050573 384.48 
L 363.511994 384.48 
L 363.511994 245.616306 
L 343.050573 245.616306 
z
" clip-path="url(#p3a65f428dd)" style="fill: #f77189; opacity: 0.7"/>
   </g>
   <g id="patch_12">
    <path d="M 368.627349 384.48 
L 389.08877 384.48 
L 389.08877 213.636688 
L 368.627349 213.636688 
z
" clip-path="url(#p3a65f428dd)" style="fill: #f77189; opacity: 0.7"/>
   </g>
   <g id="patch_13">
    <path d="M 394.204125 384.48 
L 414.665546 384.48 
L 414.665546 181.076178 
L 394.204125 181.076178 
z
" clip-path="url(#p3a65f428dd)" style="fill: #f77189; opacity: 0.7"/>
   </g>
   <g id="patch_14">
    <path d="M 419.780901 384.48 
L 440.242322 384.48 
L 440.242322 162.915669 
L 419.780901 162.915669 
z
" clip-path="url(#p3a65f428dd)" style="fill: #f77189; opacity: 0.7"/>
   </g>
   <g id="patch_15">
    <path d="M 445.357678 384.48 
L 465.819099 384.48 
L 465.819099 167.287643 
L 445.357678 167.287643 
z
" clip-path="url(#p3a65f428dd)" style="fill: #f77189; opacity: 0.7"/>
   </g>
   <g id="patch_16">
    <path d="M 470.934454 384.48 
L 491.395875 384.48 
L 491.395875 245.708025 
L 470.934454 245.708025 
z
" clip-path="url(#p3a65f428dd)" style="fill: #f77189; opacity: 0.7"/>
   </g>
   <g id="patch_17">
    <path d="M 496.51123 384.48 
L 516.972651 384.48 
L 516.972651 172.209936 
L 496.51123 172.209936 
z
" clip-path="url(#p3a65f428dd)" style="fill: #f77189; opacity: 0.7"/>
   </g>
   <g id="patch_18">
    <path d="M 522.088006 384.48 
L 542.549427 384.48 
L 542.549427 116.688917 
L 522.088006 116.688917 
z
" clip-path="url(#p3a65f428dd)" style="fill: #f77189; opacity: 0.7"/>
   </g>
   <g id="patch_19">
    <path d="M 547.664782 384.48 
L 568.126203 384.48 
L 568.126203 67.68 
L 547.664782 67.68 
z
" clip-path="url(#p3a65f428dd)" style="fill: #f77189; opacity: 0.7"/>
   </g>
   <g id="patch_20">
    <path d="M 573.241558 384.48 
L 593.702979 384.48 
L 593.702979 80.459618 
L 573.241558 80.459618 
z
" clip-path="url(#p3a65f428dd)" style="fill: #f77189; opacity: 0.7"/>
   </g>
   <g id="patch_21">
    <path d="M 598.818335 384.48 
L 619.279756 384.48 
L 619.279756 235.741146 
L 598.818335 235.741146 
z
" clip-path="url(#p3a65f428dd)" style="fill: #f77189; opacity: 0.7"/>
   </g>
   <g id="patch_22">
    <path d="M 624.395111 384.48 
L 644.856532 384.48 
L 644.856532 362.558981 
L 624.395111 362.558981 
z
" clip-path="url(#p3a65f428dd)" style="fill: #f77189; opacity: 0.7"/>
   </g>
   <g id="patch_23">
    <path d="M 649.971887 384.48 
L 670.433308 384.48 
L 670.433308 381.483822 
L 649.971887 381.483822 
z
" clip-path="url(#p3a65f428dd)" style="fill: #f77189; opacity: 0.7"/>
   </g>
   <g id="patch_24">
    <path d="M 675.548663 384.48 
L 696.010084 384.48 
L 696.010084 384.418854 
L 675.548663 384.418854 
z
" clip-path="url(#p3a65f428dd)" style="fill: #f77189; opacity: 0.7"/>
   </g>
   <g id="patch_25">
    <path d="M 726.702215 384.48 
L 747.163636 384.48 
L 747.163636 384.449427 
L 726.702215 384.449427 
z
" clip-path="url(#p3a65f428dd)" style="fill: #f77189; opacity: 0.7"/>
   </g>
   <g id="patch_26">
    <path d="M 108 384.48 
L 108 51.84 
" style="fill: none"/>
   </g>
   <g id="patch_27">
    <path d="M 777.6 384.48 
L 777.6 51.84 
" style="fill: none"/>
   </g>
   <g id="patch_28">
    <path d="M 108 384.48 
L 777.6 384.48 
" style="fill: none"/>
   </g>
   <g id="patch_29">
    <path d="M 108 51.84 
L 777.6 51.84 
" style="fill: none"/>
   </g>
   <g id="text_14">
    <text style="fill: #262626; font: 12px 'Arial', 'Liberation Sans', 'DejaVu Sans', 'Bitstream Vera Sans', sans-serif; text-anchor: middle" x="442.8" y="45.84" transform="rotate(-0 442.8 45.84)">Incidents by Hour of Day</text>
   </g>
  </g>
 </g>
 <defs>
  <clipPath id="p3a65f428dd">
   <rect x="108" y="51.84" width="669.6" height="332.64"/>
  </clipPath>
 </defs>
</svg>
