<?xml version="1.0" encoding="utf-8" standalone="no"?>
<!DOCTYPE svg PUBLIC "-//W3C//DTD SVG 1.1//EN"
  "http://www.w3.org/Graphics/SVG/1.1/DTD/svg11.dtd">
<svg xmlns:xlink="http://www.w3.org/1999/xlink" width="864pt" height="432pt" viewBox="0 0 864 432" xmlns="http://www.w3.org/2000/svg" version="1.1">
 <metadata>
  <rdf:RDF xmlns:dc="http://purl.org/dc/elements/1.1/" xmlns:cc="http://creativecommons.org/ns#" xmlns:rdf="http://www.w3.org/1999/02/22-rdf-syntax-ns#">
   <cc:Work>
    <dc:type rdf:resource="http://purl.org/dc/dcmitype/StillImage"/>
    <dc:date>2025-11-04T01:51:54.652460</dc:date>
    <dc:format>image/svg+xml</dc:format>
    <dc:creator>
     <cc:Agent>
      <dc:title>Matplotlib v3.7.5, https://matplotlib.org/</dc:title>
     </cc:Agent>
    </dc:creator>
   </cc:Work>
  </rdf:RDF>
 </metadata>
 <defs>
  <style type="text/css">*{stroke-linejoin: round; stroke-linecap: butt}</style>
 </defs>
 <g id="figure_1">
  <g id="patch_1">
   <path d="M 0 432 
L 864 432 
L 864 0 
L 0 0 
z
" style="fill: #ffffff"/>
  </g>
  <g id="axes_1">
   <g id="patch_2">
    <path d="M 108 384.48 
L 777.6 384.48 
L 777.6 51.84 
L 108 51.84 
z
" style="fill: #eaeaf2"/>
   </g>
   <g id="matplotlib.axis_1">
    <g id="xtick_1">
     <g id="line2d_1">
      <path d="M 148.667074 384.48 
L 148.667074 51.84 
" clip-path="url(#p41c2e123d0)" style="fill: none; stroke: #ffffff; stroke-opacity: 0.3; stroke-linecap: round"/>
     </g>
     <g id="line2d_2"/>
     <g id="text_1">
      <text style="fill: #262626; font: 10px 'Arial', 'Liberation Sans', 'DejaVu Sans', 'Bitstream Vera Sans', sans-serif; text-anchor: middle" x="148.667074" y="398.726875" transform="rotate(-0 148.667074 398.726875)">0</text>
     </g>
    </g>
    <g id="xtick_2">
     <g id="line2d_3">
      <path d="M 276.550955 384.48 
L 276.550955 51.84 
" clip-path="url(#p41c2e123d0)" style="fill: none; stroke: #ffffff; stroke-opacity: 0.3; stroke-linecap: round"/>
     </g>
     <g id="line2d_4"/>
     <g id="text_2">
      <text style="fill: #262626; font: 10px 'Arial', 'Liberation Sans', 'DejaVu Sans', 'Bitstream Vera Sans', sans-serif; text-anchor: middle" x="276.550955" y="398.726875" transform="rotate(-0 276.550955 398.726875)">5</text>
     </g>
    </g>
    <g id="xtick_3">
     <g id="line2d_5">
      <path d="M 404.434836 384.48 
L 404.434836 51.84 
" clip-path="url(#p41c2e123d0)" style="fill: none; stroke: #ffffff; stroke-opacity: 0.3; stroke-linecap: round"/>
     </g>
     <g id="line2d_6"/>
     <g id="text_3">
      <text style="fill: #262626; font: 10px 'Arial', 'Liberation Sans', 'DejaVu Sans', 'Bitstream Vera Sans', sans-serif; text-anchor: middle" x="404.434836" y="398.726875" transform="rotate(-0 404.434836 398.726875)">10</text>
     </g>
    </g>
    <g id="xtick_4">
     <g id="line2d_7">
      <path d="M 532.318717 384.48 
L 532.318717 51.84 
" clip-path="url(#p41c2e123d0)" style="fill: none; stroke: #ffffff; stroke-opacity: 0.3; stroke-linecap: round"/>
     </g>
     <g id="line2d_8"/>
     <g id="text_4">
      <text style="fill: #262626; font: 10px 'Arial', 'Liberation Sans', 'DejaVu Sans', 'Bitstream Vera Sans', sans-serif; text-anchor: middle" x="532.318717" y="398.726875" transform="rotate(-0 532.318717 398.726875)">15</text>
     </g>
    </g>
    <g id="xtick_5">
     <g id="line2d_9">
      <path d="M 660.202597 384.48 
L 660.202597 51.84 
" clip-path="url(#p41c2e123d0)" style="fill: none; stroke: #ffffff; stroke-opacity: 0.3; stroke-linecap: round"/>
     </g>
     <g id="line2d_10"/>
     <g id="text_5">
      <text style="fill: #262626; font: 10px 'Arial', 'Liberation Sans', 'DejaVu Sans', 'Bitstream Vera Sans', sans-serif; text-anchor: middle" x="660.202597" y="398.726875" transform="rotate(-0 660.202597 398.726875)">20</text>
     </g>
    </g>
    <g id="text_6">
     <text style="fill: #262626; font: 11px 'Arial', 'Liberation Sans', 'DejaVu Sans', 'Bitstream Vera Sans', sans-serif; text-anchor: middle" x="442.8" y="412.773438" transform="rotate(-0 442.8 412.773438)">Hour</text>
    </g>
   </g>
   <g id="matplotlib.axis_2">
    <g id="ytick_1">
     <g id="line2d_11">
      <path d="M 108 384.48 
L 777.6 384.48 
" clip-path="url(#p41c2e123d0)" style="fill: none; stroke: #ffffff; stroke-opacity: 0.3; stroke-linecap: round"/>
     </g>
     <g id="line2d_12"/>
     <g id="text_7">
      <text style="fill: #262626; font: 10px 'Arial', 'Liberation Sans', 'DejaVu Sans', 'Bitstream Vera Sans', sans-serif; text-anchor: end" x="101" y="388.103437" transform="rotate(-0 101 388.103437)">0</text>
     </g>
    </g>
    <g id="ytick_2">
     <g id="line2d_13">
      <path d="M 108 336.304818 
L 777.6 336.304818 
" clip-path="url(#p41c2e123d0)" style="fill: none; stroke: #ffffff; stroke-opacity: 0.3; stroke-linecap: round"/>
     </g>
     <g id="line2d_14"/>
     <g id="text_8">
      <text style="fill: #262626; font: 10px 'Arial', 'Liberation Sans', 'DejaVu Sans', 'Bitstream Vera Sans', sans-serif; text-anchor: end" x="101" y="339.928255" transform="rotate(-0 101 339.928255)">1000</text>
     </g>
    </g>
    <g id="ytick_3">
     <g id="line2d_15">
      <path d="M 108 288.129635 
L 777.6 288.129635 
" clip-path="url(#p41c2e123d0)" style="fill: none; stroke: #ffffff; stroke-opacity: 0.3; stroke-linecap: round"/>
     </g>
     <g id="line2d_16"/>
     <g id="text_9">
      <text style="fill: #262626; font: 10px 'Arial', 'Liberation Sans', 'DejaVu Sans', 'Bitstream Vera Sans', sans-serif; text-anchor: end" x="101" y="291.753073" transform="rotate(-0 101 291.753073)">2000</text>
     </g>
    </g>
    <g id="ytick_4">
     <g id="line2d_17">
      <path d="M 108 239.954453 
L 777.6 239.954453 
" clip-path="url(#p41c2e123d0)" style="fill: none; stroke: #ffffff; stroke-opacity: 0.3; stroke-linecap: round"/>
     </g>
     <g id="line2d_18"/>
     <g id="text_10">
      <text style="fill: #262626; font: 10px 'Arial', 'Liberation Sans', 'DejaVu Sans', 'Bitstream Vera Sans', sans-serif; text-anchor: end" x="101" y="243.57789" transform="rotate(-0 101 243.57789)">3000</text>
     </g>
    </g>
    <g id="ytick_5">
     <g id="line2d_19">
      <path d="M 108 191.77927 
L 777.6 191.77927 
" clip-path="url(#p41c2e123d0)" style="fill: none; stroke: #ffffff; stroke-opacity: 0.3; stroke-linecap: round"/>
     </g>
     <g id="line2d_20"/>
     <g id="text_11">
      <text style="fill: #262626; font: 10px 'Arial', 'Liberation Sans', 'DejaVu Sans', 'Bitstream Vera Sans', sans-serif; text-anchor: end" x="101" y="195.402708" transform="rotate(-0 101 195.402708)">4000</text>
     </g>
    </g>
    <g id="ytick_6">
     <g id="line2d_21">
      <path d="M 108 143.604088 
L 777.6 143.604088 
" clip-path="url(#p41c2e123d0)" style="fill: none; stroke: #ffffff; stroke-opacity: 0.3; stroke-linecap: round"/>
     </g>
     <g id="line2d_22"/>
     <g id="text_12">
      <text style="fill: #262626; font: 10px 'Arial', 'Liberation Sans', 'DejaVu Sans', 'Bitstream Vera Sans', sans-serif; text-anchor: end" x="101" y="147.227525" transform="rotate(-0 101 147.227525)">5000</text>
     </g>
    </g>
    <g id="ytick_7">
     <g id="line2d_23">
      <path d="M 108 95.428905 
L 777.6 95.428905 
" clip-path="url(#p41c2e123d0)" style="fill: none; stroke: #ffffff; stroke-opacity: 0.3; stroke-linecap: round"/>
     </g>
     <g id="line2d_24"/>
     <g id="text_13">
      <text style="fill: #262626; font: 10px 'Arial', 'Liberation Sans', 'DejaVu Sans', 'Bitstream Vera Sans', sans-serif; text-anchor: end" x="101" y="99.052343" transform="rotate(-0 101 99.052343)">6000</text>
     </g>
    </g>
    <g id="text_14">
     <text style="fill: #262626; font: 11px 'Arial', 'Liberation Sans', 'DejaVu Sans', 'Bitstream Vera Sans', sans-serif; text-anchor: middle" x="72.47375" y="218.16" transform="rotate(-90 72.47375 218.16)">Number of Incidents</text>
    </g>
   </g>
   <g id="patch_3">
    <path d="M 138.436364 384.48 
L 158.897785 384.48 
L 158.897785 208.88146 
L 138.436364 208.88146 
z
" clip-path="url(#p41c2e123d0)" style="fill: #f77189; opacity: 0.7"/>
   </g>
   <g id="patch_4">
    <path d="M 164.01314 384.48 
L 184.474561 384.48 
L 184.474561 240.821606 
L 164.01314 240.821606 
z
" clip-path="url(#p41c2e123d0)" style="fill: #f77189; opacity: 0.7"/>
   </g>
   <g id="patch_5">
    <path d="M 189.589916 384.48 
L 210.051337 384.48 
L 210.051337 255.274161 
L 189.589916 255.274161 
z
" clip-path="url(#p41c2e123d0)" style="fill: #f77189; opacity: 0.7"/>
   </g>
   <g id="patch_6">
    <path d="M 215.166692 384.48 
L 235.628113 384.48 
L 235.628113 278.253723 
L 215.166692 278.253723 
z
" clip-path="url(#p41c2e123d0)" style="fill: #f77189; opacity: 0.7"/>
   </g>
   <g id="patch_7">
    <path d="M 240.743468 384.48 
L 261.204889 384.48 
L 261.204889 242.218686 
L 240.743468 242.218686 
z
" clip-path="url(#p41c2e123d0)" style="fill: #f77189; opacity: 0.7"/>
   </g>
   <g id="patch_8">
    <path d="M 266.320244 384.48 
L 286.781665 384.48 
L 286.781665 244.820146 
L 266.320244 244.820146 
z
" clip-path="url(#p41c2e123d0)" style="fill: #f77189; opacity: 0.7"/>
   </g>
   <g id="patch_9">
    <path d="M 291.897021 384.48 
L 312.358442 384.48 
L 312.358442 257.008467 
L 291.897021 257.008467 
z
" clip-path="url(#p41c2e123d0)" style="fill: #f77189; opacity: 0.7"/>
   </g>
   <g id="patch_10">
    <path d="M 317.473797 384.48 
L 337.935218 384.48 
L 337.935218 268.570511 
L 317.473797 268.570511 
z
" clip-path="url(#p41c2e123d0)" style="fill: #f77189; opacity: 0.7"/>
   </g>
   <g id="patch_11">
    <path d="M 343.050573 384.48 
L 363.511994 384.48 
L 363.511994 244.627445 
L 343.050573 244.627445 
z
" clip-path="url(#p41c2e123d0)" style="fill: #f77189; opacity: 0.7"/>
   </g>
   <g id="patch_12">
    <path d="M 368.627349 384.48 
L 389.08877 384.48 
L 389.08877 209.652263 
L 368.627349 209.652263 
z
" clip-path="url(#p41c2e123d0)" style="fill: #f77189; opacity: 0.7"/>
   </g>
   <g id="patch_13">
    <path d="M 394.204125 384.48 
L 414.665546 384.48 
L 414.665546 180.313577 
L 394.204125 180.313577 
z
" clip-path="url(#p41c2e123d0)" style="fill: #f77189; opacity: 0.7"/>
   </g>
   <g id="patch_14">
    <path d="M 419.780901 384.48 
L 440.242322 384.48 
L 440.242322 169.811387 
L 419.780901 169.811387 
z
" clip-path="url(#p41c2e123d0)" style="fill: #f77189; opacity: 0.7"/>
   </g>
   <g id="patch_15">
    <path d="M 445.357678 384.48 
L 465.819099 384.48 
L 465.819099 180.409927 
L 445.357678 180.409927 
z
" clip-path="url(#p41c2e123d0)" style="fill: #f77189; opacity: 0.7"/>
   </g>
   <g id="patch_16">
    <path d="M 470.934454 384.48 
L 491.395875 384.48 
L 491.395875 274.255182 
L 470.934454 274.255182 
z
" clip-path="url(#p41c2e123d0)" style="fill: #f77189; opacity: 0.7"/>
   </g>
   <g id="patch_17">
    <path d="M 496.51123 384.48 
L 516.972651 384.48 
L 516.972651 186.720876 
L 496.51123 186.720876 
z
" clip-path="url(#p41c2e123d0)" style="fill: #f77189; opacity: 0.7"/>
   </g>
   <g id="patch_18">
    <path d="M 522.088006 384.48 
L 542.549427 384.48 
L 542.549427 125.77927 
L 522.088006 125.77927 
z
" clip-path="url(#p41c2e123d0)" style="fill: #f77189; opacity: 0.7"/>
   </g>
   <g id="patch_19">
    <path d="M 547.664782 384.48 
L 568.126203 384.48 
L 568.126203 67.68 
L 547.664782 67.68 
z
" clip-path="url(#p41c2e123d0)" style="fill: #f77189; opacity: 0.7"/>
   </g>
   <g id="patch_20">
    <path d="M 573.241558 384.48 
L 593.702979 384.48 
L 593.702979 88.009927 
L 573.241558 88.009927 
z
" clip-path="url(#p41c2e123d0)" style="fill: #f77189; opacity: 0.7"/>
   </g>
   <g id="patch_21">
    <path d="M 598.818335 384.48 
L 619.279756 384.48 
L 619.279756 282.444964 
L 598.818335 282.444964 
z
" clip-path="url(#p41c2e123d0)" style="fill: #f77189; opacity: 0.7"/>
   </g>
   <g id="patch_22">
    <path d="M 726.702215 384.48 
L 747.163636 384.48 
L 747.163636 384.431825 
L 726.702215 384.431825 
z
" clip-path="url(#p41c2e123d0)" style="fill: #f77189; opacity: 0.7"/>
   </g>
   <g id="patch_23">
    <path d="M 108 384.48 
L 108 51.84 
" style="fill: none"/>
   </g>
   <g id="patch_24">
    <path d="M 777.6 384.48 
L 777.6 51.84 
" style="fill: none"/>
   </g>
   <g id="patch_25">
    <path d="M 108 384.48 
L 777.6 384.48 
" style="fill: none"/>
   </g>
   <g id="patch_26">
    <path d="M 108 51.84 
L 777.6 51.84 
" style="fill: none"/>
   </g>
   <g id="text_15">
    <text style="fill: #262626; font: 12px 'Arial', 'Liberation Sans', 'DejaVu Sans', 'Bitstream Vera Sans', sans-serif; text-anchor: middle" x="442.8" y="45.84" transform="rotate(-0 442.8 45.84)">Incidents by Hour of Day</text>
   </g>
  </g>
 </g>
 <defs>
  <clipPath id="p41c2e123d0">
   <rect x="108" y="51.84" width="669.6" height="332.64"/>
  </clipPath>
 </defs>
</svg>
