<?xml version="1.0" encoding="utf-8" standalone="no"?>
<!DOCTYPE svg PUBLIC "-//W3C//DTD SVG 1.1//EN"
  "http://www.w3.org/Graphics/SVG/1.1/DTD/svg11.dtd">
<svg xmlns:xlink="http://www.w3.org/1999/xlink" width="864pt" height="432pt" viewBox="0 0 864 432" xmlns="http://www.w3.org/2000/svg" version="1.1">
 <metadata>
  <rdf:RDF xmlns:dc="http://purl.org/dc/elements/1.1/" xmlns:cc="http://creativecommons.org/ns#" xmlns:rdf="http://www.w3.org/1999/02/22-rdf-syntax-ns#">
   <cc:Work>
    <dc:type rdf:resource="http://purl.org/dc/dcmitype/StillImage"/>
    <dc:date>2025-08-04T18:22:45.927525</dc:date>
    <dc:format>image/svg+xml</dc:format>
    <dc:creator>
     <cc:Agent>
      <dc:title>Matplotlib v3.7.5, https://matplotlib.org/</dc:title>
     </cc:Agent>
    </dc:creator>
   </cc:Work>
  </rdf:RDF>
 </metadata>
 <defs>
  <style type="text/css">*{stroke-linejoin: round; stroke-linecap: butt}</style>
 </defs>
 <g id="figure_1">
  <g id="patch_1">
   <path d="M 0 432 
L 864 432 
L 864 0 
L 0 0 
z
" style="fill: #ffffff"/>
  </g>
  <g id="axes_1">
   <g id="patch_2">
    <path d="M 108 384.48 
L 777.6 384.48 
L 777.6 51.84 
L 108 51.84 
z
" style="fill: #eaeaf2"/>
   </g>
   <g id="matplotlib.axis_1">
    <g id="xtick_1">
     <g id="line2d_1">
      <path d="M 148.667074 384.48 
L 148.667074 51.84 
" clip-path="url(#pe2ebf83ce2)" style="fill: none; stroke: #ffffff; stroke-opacity: 0.3; stroke-linecap: round"/>
     </g>
     <g id="line2d_2"/>
     <g id="text_1">
      <text style="fill: #262626; font: 10px 'Arial', 'Liberation Sans', 'DejaVu Sans', 'Bitstream Vera Sans', sans-serif; text-anchor: middle" x="148.667074" y="398.726875" transform="rotate(-0 148.667074 398.726875)">0</text>
     </g>
    </g>
    <g id="xtick_2">
     <g id="line2d_3">
      <path d="M 276.550955 384.48 
L 276.550955 51.84 
" clip-path="url(#pe2ebf83ce2)" style="fill: none; stroke: #ffffff; stroke-opacity: 0.3; stroke-linecap: round"/>
     </g>
     <g id="line2d_4"/>
     <g id="text_2">
      <text style="fill: #262626; font: 10px 'Arial', 'Liberation Sans', 'DejaVu Sans', 'Bitstream Vera Sans', sans-serif; text-anchor: middle" x="276.550955" y="398.726875" transform="rotate(-0 276.550955 398.726875)">5</text>
     </g>
    </g>
    <g id="xtick_3">
     <g id="line2d_5">
      <path d="M 404.434836 384.48 
L 404.434836 51.84 
" clip-path="url(#pe2ebf83ce2)" style="fill: none; stroke: #ffffff; stroke-opacity: 0.3; stroke-linecap: round"/>
     </g>
     <g id="line2d_6"/>
     <g id="text_3">
      <text style="fill: #262626; font: 10px 'Arial', 'Liberation Sans', 'DejaVu Sans', 'Bitstream Vera Sans', sans-serif; text-anchor: middle" x="404.434836" y="398.726875" transform="rotate(-0 404.434836 398.726875)">10</text>
     </g>
    </g>
    <g id="xtick_4">
     <g id="line2d_7">
      <path d="M 532.318717 384.48 
L 532.318717 51.84 
" clip-path="url(#pe2ebf83ce2)" style="fill: none; stroke: #ffffff; stroke-opacity: 0.3; stroke-linecap: round"/>
     </g>
     <g id="line2d_8"/>
     <g id="text_4">
      <text style="fill: #262626; font: 10px 'Arial', 'Liberation Sans', 'DejaVu Sans', 'Bitstream Vera Sans', sans-serif; text-anchor: middle" x="532.318717" y="398.726875" transform="rotate(-0 532.318717 398.726875)">15</text>
     </g>
    </g>
    <g id="xtick_5">
     <g id="line2d_9">
      <path d="M 660.202597 384.48 
L 660.202597 51.84 
" clip-path="url(#pe2ebf83ce2)" style="fill: none; stroke: #ffffff; stroke-opacity: 0.3; stroke-linecap: round"/>
     </g>
     <g id="line2d_10"/>
     <g id="text_5">
      <text style="fill: #262626; font: 10px 'Arial', 'Liberation Sans', 'DejaVu Sans', 'Bitstream Vera Sans', sans-serif; text-anchor: middle" x="660.202597" y="398.726875" transform="rotate(-0 660.202597 398.726875)">20</text>
     </g>
    </g>
    <g id="text_6">
     <text style="fill: #262626; font: 11px 'Arial', 'Liberation Sans', 'DejaVu Sans', 'Bitstream Vera Sans', sans-serif; text-anchor: middle" x="442.8" y="412.773438" transform="rotate(-0 442.8 412.773438)">Hour</text>
    </g>
   </g>
   <g id="matplotlib.axis_2">
    <g id="ytick_1">
     <g id="line2d_11">
      <path d="M 108 384.48 
L 777.6 384.48 
" clip-path="url(#pe2ebf83ce2)" style="fill: none; stroke: #ffffff; stroke-opacity: 0.3; stroke-linecap: round"/>
     </g>
     <g id="line2d_12"/>
     <g id="text_7">
      <text style="fill: #262626; font: 10px 'Arial', 'Liberation Sans', 'DejaVu Sans', 'Bitstream Vera Sans', sans-serif; text-anchor: end" x="101" y="388.103437" transform="rotate(-0 101 388.103437)">0</text>
     </g>
    </g>
    <g id="ytick_2">
     <g id="line2d_13">
      <path d="M 108 314.142522 
L 777.6 314.142522 
" clip-path="url(#pe2ebf83ce2)" style="fill: none; stroke: #ffffff; stroke-opacity: 0.3; stroke-linecap: round"/>
     </g>
     <g id="line2d_14"/>
     <g id="text_8">
      <text style="fill: #262626; font: 10px 'Arial', 'Liberation Sans', 'DejaVu Sans', 'Bitstream Vera Sans', sans-serif; text-anchor: end" x="101" y="317.76596" transform="rotate(-0 101 317.76596)">1000</text>
     </g>
    </g>
    <g id="ytick_3">
     <g id="line2d_15">
      <path d="M 108 243.805044 
L 777.6 243.805044 
" clip-path="url(#pe2ebf83ce2)" style="fill: none; stroke: #ffffff; stroke-opacity: 0.3; stroke-linecap: round"/>
     </g>
     <g id="line2d_16"/>
     <g id="text_9">
      <text style="fill: #262626; font: 10px 'Arial', 'Liberation Sans', 'DejaVu Sans', 'Bitstream Vera Sans', sans-serif; text-anchor: end" x="101" y="247.428482" transform="rotate(-0 101 247.428482)">2000</text>
     </g>
    </g>
    <g id="ytick_4">
     <g id="line2d_17">
      <path d="M 108 173.467567 
L 777.6 173.467567 
" clip-path="url(#pe2ebf83ce2)" style="fill: none; stroke: #ffffff; stroke-opacity: 0.3; stroke-linecap: round"/>
     </g>
     <g id="line2d_18"/>
     <g id="text_10">
      <text style="fill: #262626; font: 10px 'Arial', 'Liberation Sans', 'DejaVu Sans', 'Bitstream Vera Sans', sans-serif; text-anchor: end" x="101" y="177.091004" transform="rotate(-0 101 177.091004)">3000</text>
     </g>
    </g>
    <g id="ytick_5">
     <g id="line2d_19">
      <path d="M 108 103.130089 
L 777.6 103.130089 
" clip-path="url(#pe2ebf83ce2)" style="fill: none; stroke: #ffffff; stroke-opacity: 0.3; stroke-linecap: round"/>
     </g>
     <g id="line2d_20"/>
     <g id="text_11">
      <text style="fill: #262626; font: 10px 'Arial', 'Liberation Sans', 'DejaVu Sans', 'Bitstream Vera Sans', sans-serif; text-anchor: end" x="101" y="106.753526" transform="rotate(-0 101 106.753526)">4000</text>
     </g>
    </g>
    <g id="text_12">
     <text style="fill: #262626; font: 11px 'Arial', 'Liberation Sans', 'DejaVu Sans', 'Bitstream Vera Sans', sans-serif; text-anchor: middle" x="72.47375" y="218.16" transform="rotate(-90 72.47375 218.16)">Number of Incidents</text>
    </g>
   </g>
   <g id="patch_3">
    <path d="M 138.436364 384.48 
L 158.897785 384.48 
L 158.897785 197.945009 
L 138.436364 197.945009 
z
" clip-path="url(#pe2ebf83ce2)" style="fill: #f77189; opacity: 0.7"/>
   </g>
   <g id="patch_4">
    <path d="M 164.01314 384.48 
L 184.474561 384.48 
L 184.474561 236.911972 
L 164.01314 236.911972 
z
" clip-path="url(#pe2ebf83ce2)" style="fill: #f77189; opacity: 0.7"/>
   </g>
   <g id="patch_5">
    <path d="M 189.589916 384.48 
L 210.051337 384.48 
L 210.051337 247.884618 
L 189.589916 247.884618 
z
" clip-path="url(#pe2ebf83ce2)" style="fill: #f77189; opacity: 0.7"/>
   </g>
   <g id="patch_6">
    <path d="M 215.166692 384.48 
L 235.628113 384.48 
L 235.628113 271.658686 
L 215.166692 271.658686 
z
" clip-path="url(#pe2ebf83ce2)" style="fill: #f77189; opacity: 0.7"/>
   </g>
   <g id="patch_7">
    <path d="M 240.743468 384.48 
L 261.204889 384.48 
L 261.204889 243.242345 
L 240.743468 243.242345 
z
" clip-path="url(#pe2ebf83ce2)" style="fill: #f77189; opacity: 0.7"/>
   </g>
   <g id="patch_8">
    <path d="M 266.320244 384.48 
L 286.781665 384.48 
L 286.781665 234.16881 
L 266.320244 234.16881 
z
" clip-path="url(#pe2ebf83ce2)" style="fill: #f77189; opacity: 0.7"/>
   </g>
   <g id="patch_9">
    <path d="M 291.897021 384.48 
L 312.358442 384.48 
L 312.358442 246.477869 
L 291.897021 246.477869 
z
" clip-path="url(#pe2ebf83ce2)" style="fill: #f77189; opacity: 0.7"/>
   </g>
   <g id="patch_10">
    <path d="M 317.473797 384.48 
L 337.935218 384.48 
L 337.935218 256.74714 
L 317.473797 256.74714 
z
" clip-path="url(#pe2ebf83ce2)" style="fill: #f77189; opacity: 0.7"/>
   </g>
   <g id="patch_11">
    <path d="M 343.050573 384.48 
L 363.511994 384.48 
L 363.511994 234.028135 
L 343.050573 234.028135 
z
" clip-path="url(#pe2ebf83ce2)" style="fill: #f77189; opacity: 0.7"/>
   </g>
   <g id="patch_12">
    <path d="M 368.627349 384.48 
L 389.08877 384.48 
L 389.08877 202.024583 
L 368.627349 202.024583 
z
" clip-path="url(#pe2ebf83ce2)" style="fill: #f77189; opacity: 0.7"/>
   </g>
   <g id="patch_13">
    <path d="M 394.204125 384.48 
L 414.665546 384.48 
L 414.665546 178.67254 
L 394.204125 178.67254 
z
" clip-path="url(#pe2ebf83ce2)" style="fill: #f77189; opacity: 0.7"/>
   </g>
   <g id="patch_14">
    <path d="M 419.780901 384.48 
L 440.242322 384.48 
L 440.242322 160.033108 
L 419.780901 160.033108 
z
" clip-path="url(#pe2ebf83ce2)" style="fill: #f77189; opacity: 0.7"/>
   </g>
   <g id="patch_15">
    <path d="M 445.357678 384.48 
L 465.819099 384.48 
L 465.819099 177.687815 
L 445.357678 177.687815 
z
" clip-path="url(#pe2ebf83ce2)" style="fill: #f77189; opacity: 0.7"/>
   </g>
   <g id="patch_16">
    <path d="M 470.934454 384.48 
L 491.395875 384.48 
L 491.395875 257.450515 
L 470.934454 257.450515 
z
" clip-path="url(#pe2ebf83ce2)" style="fill: #f77189; opacity: 0.7"/>
   </g>
   <g id="patch_17">
    <path d="M 496.51123 384.48 
L 516.972651 384.48 
L 516.972651 164.745719 
L 496.51123 164.745719 
z
" clip-path="url(#pe2ebf83ce2)" style="fill: #f77189; opacity: 0.7"/>
   </g>
   <g id="patch_18">
    <path d="M 522.088006 384.48 
L 542.549427 384.48 
L 542.549427 120.222096 
L 522.088006 120.222096 
z
" clip-path="url(#pe2ebf83ce2)" style="fill: #f77189; opacity: 0.7"/>
   </g>
   <g id="patch_19">
    <path d="M 547.664782 384.48 
L 568.126203 384.48 
L 568.126203 67.68 
L 547.664782 67.68 
z
" clip-path="url(#pe2ebf83ce2)" style="fill: #f77189; opacity: 0.7"/>
   </g>
   <g id="patch_20">
    <path d="M 573.241558 384.48 
L 593.702979 384.48 
L 593.702979 83.01357 
L 573.241558 83.01357 
z
" clip-path="url(#pe2ebf83ce2)" style="fill: #f77189; opacity: 0.7"/>
   </g>
   <g id="patch_21">
    <path d="M 598.818335 384.48 
L 619.279756 384.48 
L 619.279756 283.756732 
L 598.818335 283.756732 
z
" clip-path="url(#pe2ebf83ce2)" style="fill: #f77189; opacity: 0.7"/>
   </g>
   <g id="patch_22">
    <path d="M 726.702215 384.48 
L 747.163636 384.48 
L 747.163636 384.409663 
L 726.702215 384.409663 
z
" clip-path="url(#pe2ebf83ce2)" style="fill: #f77189; opacity: 0.7"/>
   </g>
   <g id="patch_23">
    <path d="M 108 384.48 
L 108 51.84 
" style="fill: none"/>
   </g>
   <g id="patch_24">
    <path d="M 777.6 384.48 
L 777.6 51.84 
" style="fill: none"/>
   </g>
   <g id="patch_25">
    <path d="M 108 384.48 
L 777.6 384.48 
" style="fill: none"/>
   </g>
   <g id="patch_26">
    <path d="M 108 51.84 
L 777.6 51.84 
" style="fill: none"/>
   </g>
   <g id="text_13">
    <text style="fill: #262626; font: 12px 'Arial', 'Liberation Sans', 'DejaVu Sans', 'Bitstream Vera Sans', sans-serif; text-anchor: middle" x="442.8" y="45.84" transform="rotate(-0 442.8 45.84)">Incidents by Hour of Day</text>
   </g>
  </g>
 </g>
 <defs>
  <clipPath id="pe2ebf83ce2">
   <rect x="108" y="51.84" width="669.6" height="332.64"/>
  </clipPath>
 </defs>
</svg>
