<?xml version="1.0" encoding="utf-8" standalone="no"?>
<!DOCTYPE svg PUBLIC "-//W3C//DTD SVG 1.1//EN"
  "http://www.w3.org/Graphics/SVG/1.1/DTD/svg11.dtd">
<svg xmlns:xlink="http://www.w3.org/1999/xlink" width="720pt" height="432pt" viewBox="0 0 720 432" xmlns="http://www.w3.org/2000/svg" version="1.1">
 <metadata>
  <rdf:RDF xmlns:dc="http://purl.org/dc/elements/1.1/" xmlns:cc="http://creativecommons.org/ns#" xmlns:rdf="http://www.w3.org/1999/02/22-rdf-syntax-ns#">
   <cc:Work>
    <dc:type rdf:resource="http://purl.org/dc/dcmitype/StillImage"/>
    <dc:date>2026-03-29T13:07:22.010297</dc:date>
    <dc:format>image/svg+xml</dc:format>
    <dc:creator>
     <cc:Agent>
      <dc:title>Matplotlib v3.7.5, https://matplotlib.org/</dc:title>
     </cc:Agent>
    </dc:creator>
   </cc:Work>
  </rdf:RDF>
 </metadata>
 <defs>
  <style type="text/css">*{stroke-linejoin: round; stroke-linecap: butt}</style>
 </defs>
 <g id="figure_1">
  <g id="patch_1">
   <path d="M 0 432 
L 720 432 
L 720 0 
L 0 0 
z
" style="fill: #ffffff"/>
  </g>
  <g id="axes_1">
   <g id="matplotlib.axis_1"/>
   <g id="matplotlib.axis_2"/>
   <g id="patch_2">
    <path d="M 502.056 218.16 
C 502.056 200.705668 498.621502 183.420699 491.948653 167.292252 
C 485.275805 151.163806 475.494101 136.504876 463.162185 124.152649 
C 450.830268 111.800421 436.187456 101.994607 420.070012 95.295225 
C 403.952569 88.595843 386.673275 85.132904 369.218967 85.10418 
C 351.764659 85.075456 334.474061 88.481504 318.334655 95.127801 
C 302.195249 101.774099 287.520242 111.531665 275.147736 123.843237 
C 262.775231 136.154809 252.945333 150.781464 246.219436 166.887861 
C 239.493539 182.994258 236.002169 200.267829 235.944721 217.722066 
C 235.887272 235.176304 239.264861 252.472483 245.884589 268.622805 
C 252.504317 284.773127 262.23772 299.464172 274.528914 311.856922 
C 286.820109 324.249671 301.430567 334.103627 317.525873 340.85602 
C 333.621179 347.608414 350.888982 351.128206 368.343101 351.214378 
C 385.79722 351.300551 403.098935 347.951431 419.260129 341.35829 
C 435.421323 334.765149 450.128366 325.055936 462.541326 312.785153 
C 474.954286 300.514369 484.832272 285.920147 491.611144 269.835975 
C 498.390017 253.751803 501.938221 236.489816 502.053117 219.035863 
L 369 218.16 
z
" style="fill: #f77189"/>
   </g>
   <g id="patch_3">
    <path d="M 502.053117 219.035863 
C 502.054069 218.891333 502.054785 218.746801 502.055265 218.602268 
C 502.055745 218.457736 502.05599 218.313202 502.056 218.168669 
L 369 218.16 
z
" style="fill: #bb9832"/>
   </g>
   <g id="patch_4">
    <path d="M 502.056 218.168669 
C 502.056 218.167224 502.056 218.165778 502.056 218.164333 
C 502.056 218.162888 502.056 218.161442 502.056 218.159997 
L 369 218.16 
z
" style="fill: #50b131"/>
   </g>
   <g id="text_1">
    <text style="fill: #262626; font: 10px 'Arial', 'Liberation Sans', 'DejaVu Sans', 'Bitstream Vera Sans', sans-serif; text-anchor: end" x="222.639193" y="220.26421" transform="rotate(-0 222.639193 220.26421)">newsapi</text>
   </g>
   <g id="text_2">
    <text style="fill: #262626; font: 10px 'Arial', 'Liberation Sans', 'DejaVu Sans', 'Bitstream Vera Sans', sans-serif; text-anchor: middle" x="289.166832" y="220.483177" transform="rotate(-0 289.166832 220.483177)">99.9%</text>
   </g>
   <g id="text_3">
    <text style="fill: #262626; font: 10px 'Arial', 'Liberation Sans', 'DejaVu Sans', 'Bitstream Vera Sans', sans-serif; text-anchor: start" x="515.360791" y="221.232433" transform="rotate(-0 515.360791 221.232433)">chicago_pd</text>
   </g>
   <g id="text_4">
    <text style="fill: #262626; font: 10px 'Arial', 'Liberation Sans', 'DejaVu Sans', 'Bitstream Vera Sans', sans-serif; text-anchor: middle" x="448.833159" y="221.011298" transform="rotate(-0 448.833159 221.011298)">0.1%</text>
   </g>
   <g id="text_5">
    <text style="fill: #262626; font: 10px 'Arial', 'Liberation Sans', 'DejaVu Sans', 'Bitstream Vera Sans', sans-serif; text-anchor: start" x="515.3616" y="220.750704" transform="rotate(-0 515.3616 220.750704)">chicago_police</text>
   </g>
   <g id="text_6">
    <text style="fill: #262626; font: 10px 'Arial', 'Liberation Sans', 'DejaVu Sans', 'Bitstream Vera Sans', sans-serif; text-anchor: middle" x="448.8336" y="220.748537" transform="rotate(-0 448.8336 220.748537)">0.0%</text>
   </g>
   <g id="text_7">
    <text style="fill: #262626; font: 12px 'Arial', 'Liberation Sans', 'DejaVu Sans', 'Bitstream Vera Sans', sans-serif; text-anchor: middle" x="369" y="45.84" transform="rotate(-0 369 45.84)">Incidents by Source</text>
   </g>
  </g>
 </g>
</svg>
