<?xml version="1.0" encoding="utf-8" standalone="no"?>
<!DOCTYPE svg PUBLIC "-//W3C//DTD SVG 1.1//EN"
  "http://www.w3.org/Graphics/SVG/1.1/DTD/svg11.dtd">
<svg xmlns:xlink="http://www.w3.org/1999/xlink" width="720pt" height="432pt" viewBox="0 0 720 432" xmlns="http://www.w3.org/2000/svg" version="1.1">
 <metadata>
  <rdf:RDF xmlns:dc="http://purl.org/dc/elements/1.1/" xmlns:cc="http://creativecommons.org/ns#" xmlns:rdf="http://www.w3.org/1999/02/22-rdf-syntax-ns#">
   <cc:Work>
    <dc:type rdf:resource="http://purl.org/dc/dcmitype/StillImage"/>
    <dc:date>2025-02-18T12:24:15.296302</dc:date>
    <dc:format>image/svg+xml</dc:format>
    <dc:creator>
     <cc:Agent>
      <dc:title>Matplotlib v3.7.5, https://matplotlib.org/</dc:title>
     </cc:Agent>
    </dc:creator>
   </cc:Work>
  </rdf:RDF>
 </metadata>
 <defs>
  <style type="text/css">*{stroke-linejoin: round; stroke-linecap: butt}</style>
 </defs>
 <g id="figure_1">
  <g id="patch_1">
   <path d="M 0 432 
L 720 432 
L 720 0 
L 0 0 
z
" style="fill: #ffffff"/>
  </g>
  <g id="axes_1">
   <g id="matplotlib.axis_1"/>
   <g id="matplotlib.axis_2"/>
   <g id="patch_2">
    <path d="M 502.056 218.16 
C 502.056 200.801516 498.659118 183.609615 492.057265 167.555566 
C 485.455411 151.501516 475.775296 136.893449 463.563805 124.556656 
C 451.352313 112.219863 436.843825 102.391129 420.858006 95.625734 
C 404.872187 88.860339 387.715858 85.288134 370.358279 85.110933 
C 353.000699 84.933732 335.775017 88.154936 319.654411 94.592561 
C 303.533804 101.030186 288.82768 110.560673 276.366871 122.64559 
C 263.906062 134.730507 253.929733 149.137904 247.001502 165.053827 
C 240.073271 180.96975 236.326115 198.088718 235.971731 215.443584 
C 235.617348 232.798451 238.662539 250.056118 244.935264 266.241602 
C 251.207989 282.427086 260.587854 297.229734 272.544938 309.81326 
C 284.502021 322.396787 298.806826 332.519672 314.651194 339.610016 
C 330.495562 346.700361 347.575386 350.622078 364.92573 351.153607 
C 382.276075 351.685136 399.563929 348.816276 415.812604 342.709104 
C 432.061278 336.601932 446.958908 327.373666 459.66384 315.545662 
C 472.368773 303.717659 482.637158 289.516937 489.888878 273.745775 
C 497.140597 257.974613 501.236466 240.935713 501.945086 223.591699 
L 369 218.16 
z
" style="fill: #f77189"/>
   </g>
   <g id="patch_3">
    <path d="M 501.945086 223.591699 
C 501.981686 222.695869 502.009231 221.799692 502.027717 220.903305 
C 502.046202 220.006918 502.055627 219.110367 502.055989 218.21379 
L 369 218.16 
z
" style="fill: #bb9832"/>
   </g>
   <g id="patch_4">
    <path d="M 502.055989 218.21379 
C 502.055993 218.204824 502.055995 218.195858 502.055997 218.186892 
C 502.055999 218.177927 502.056 218.168961 502.056 218.159995 
L 369 218.16 
z
" style="fill: #50b131"/>
   </g>
   <g id="text_1">
    <text style="fill: #262626; font: 10px 'Arial', 'Liberation Sans', 'DejaVu Sans', 'Bitstream Vera Sans', sans-serif; text-anchor: end" x="222.668905" y="217.75788" transform="rotate(-0 222.668905 217.75788)">newsapi</text>
   </g>
   <g id="text_2">
    <text style="fill: #262626; font: 10px 'Arial', 'Liberation Sans', 'DejaVu Sans', 'Bitstream Vera Sans', sans-serif; text-anchor: middle" x="289.183039" y="219.116088" transform="rotate(-0 289.183039 219.116088)">99.4%</text>
   </g>
   <g id="text_3">
    <text style="fill: #262626; font: 10px 'Arial', 'Liberation Sans', 'DejaVu Sans', 'Bitstream Vera Sans', sans-serif; text-anchor: start" x="515.330488" y="223.763573" transform="rotate(-0 515.330488 223.763573)">chicago_pd</text>
   </g>
   <g id="text_4">
    <text style="fill: #262626; font: 10px 'Arial', 'Liberation Sans', 'DejaVu Sans', 'Bitstream Vera Sans', sans-serif; text-anchor: middle" x="448.81663" y="222.39192" transform="rotate(-0 448.81663 222.39192)">0.6%</text>
   </g>
   <g id="text_5">
    <text style="fill: #262626; font: 10px 'Arial', 'Liberation Sans', 'DejaVu Sans', 'Bitstream Vera Sans', sans-serif; text-anchor: start" x="515.361597" y="220.775519" transform="rotate(-0 515.361597 220.775519)">chicago_police</text>
   </g>
   <g id="text_6">
    <text style="fill: #262626; font: 10px 'Arial', 'Liberation Sans', 'DejaVu Sans', 'Bitstream Vera Sans', sans-serif; text-anchor: middle" x="448.833598" y="220.762073" transform="rotate(-0 448.833598 220.762073)">0.0%</text>
   </g>
   <g id="text_7">
    <text style="fill: #262626; font: 12px 'Arial', 'Liberation Sans', 'DejaVu Sans', 'Bitstream Vera Sans', sans-serif; text-anchor: middle" x="369" y="45.84" transform="rotate(-0 369 45.84)">Incidents by Source</text>
   </g>
  </g>
 </g>
</svg>
