<?xml version="1.0" encoding="utf-8" standalone="no"?>
<!DOCTYPE svg PUBLIC "-//W3C//DTD SVG 1.1//EN"
  "http://www.w3.org/Graphics/SVG/1.1/DTD/svg11.dtd">
<svg xmlns:xlink="http://www.w3.org/1999/xlink" width="720pt" height="432pt" viewBox="0 0 720 432" xmlns="http://www.w3.org/2000/svg" version="1.1">
 <metadata>
  <rdf:RDF xmlns:dc="http://purl.org/dc/elements/1.1/" xmlns:cc="http://creativecommons.org/ns#" xmlns:rdf="http://www.w3.org/1999/02/22-rdf-syntax-ns#">
   <cc:Work>
    <dc:type rdf:resource="http://purl.org/dc/dcmitype/StillImage"/>
    <dc:date>2025-10-22T01:52:26.970322</dc:date>
    <dc:format>image/svg+xml</dc:format>
    <dc:creator>
     <cc:Agent>
      <dc:title>Matplotlib v3.7.5, https://matplotlib.org/</dc:title>
     </cc:Agent>
    </dc:creator>
   </cc:Work>
  </rdf:RDF>
 </metadata>
 <defs>
  <style type="text/css">*{stroke-linejoin: round; stroke-linecap: butt}</style>
 </defs>
 <g id="figure_1">
  <g id="patch_1">
   <path d="M 0 432 
L 720 432 
L 720 0 
L 0 0 
z
" style="fill: #ffffff"/>
  </g>
  <g id="axes_1">
   <g id="matplotlib.axis_1"/>
   <g id="matplotlib.axis_2"/>
   <g id="patch_2">
    <path d="M 502.056 218.16 
C 502.056 200.714176 498.62485 183.437467 491.958317 167.315615 
C 485.291784 151.193764 475.519116 136.53933 463.197904 124.18844 
C 450.876691 111.83755 436.24581 102.029655 420.140043 95.324357 
C 404.034275 88.619059 386.765871 85.146355 369.320098 85.104385 
C 351.874324 85.062415 334.589411 88.451992 318.451568 95.079721 
C 302.313725 101.707449 287.635823 111.444834 275.255327 123.736298 
C 262.874831 136.027762 253.031767 150.635005 246.287742 166.724595 
C 239.543717 182.814184 236.02948 200.074184 235.94554 217.519806 
C 235.8616 234.965428 239.209585 252.258446 245.798471 268.412187 
C 252.387356 284.565928 262.089402 299.267213 274.351046 311.677243 
C 286.612691 324.087273 301.196212 333.96545 317.26953 340.748163 
C 333.342849 347.530876 350.594345 351.086625 368.039714 351.212535 
C 385.485084 351.338444 402.786106 348.032072 418.955651 341.482066 
C 435.125196 334.932061 449.849779 325.265411 462.289272 313.033658 
C 474.728764 300.801904 484.641997 286.24219 491.463358 270.185235 
C 498.28472 254.12828 501.881962 236.885389 502.049839 219.440373 
L 369 218.16 
z
" style="fill: #f77189"/>
   </g>
   <g id="patch_3">
    <path d="M 502.049839 219.440373 
C 502.051873 219.229098 502.053403 219.017818 502.054429 218.806536 
C 502.055456 218.595253 502.055979 218.383969 502.055999 218.172684 
L 369 218.16 
z
" style="fill: #bb9832"/>
   </g>
   <g id="patch_4">
    <path d="M 502.055999 218.172684 
C 502.056 218.170571 502.056 218.168458 502.056 218.166346 
C 502.056 218.164233 502.056 218.16212 502.056 218.160007 
L 369 218.16 
z
" style="fill: #50b131"/>
   </g>
   <g id="text_1">
    <text style="fill: #262626; font: 10px 'Arial', 'Liberation Sans', 'DejaVu Sans', 'Bitstream Vera Sans', sans-serif; text-anchor: end" x="222.640094" y="220.041724" transform="rotate(-0 222.640094 220.041724)">newsapi</text>
   </g>
   <g id="text_2">
    <text style="fill: #262626; font: 10px 'Arial', 'Liberation Sans', 'DejaVu Sans', 'Bitstream Vera Sans', sans-serif; text-anchor: middle" x="289.167324" y="220.361821" transform="rotate(-0 289.167324 220.361821)">99.8%</text>
   </g>
   <g id="text_3">
    <text style="fill: #262626; font: 10px 'Arial', 'Liberation Sans', 'DejaVu Sans', 'Bitstream Vera Sans', sans-serif; text-anchor: start" x="515.359872" y="221.457127" transform="rotate(-0 515.359872 221.457127)">chicago_pd</text>
   </g>
   <g id="text_4">
    <text style="fill: #262626; font: 10px 'Arial', 'Liberation Sans', 'DejaVu Sans', 'Bitstream Vera Sans', sans-serif; text-anchor: middle" x="448.832658" y="221.133859" transform="rotate(-0 448.832658 221.133859)">0.2%</text>
   </g>
   <g id="text_5">
    <text style="fill: #262626; font: 10px 'Arial', 'Liberation Sans', 'DejaVu Sans', 'Bitstream Vera Sans', sans-serif; text-anchor: start" x="515.3616" y="220.752918" transform="rotate(-0 515.3616 220.752918)">chicago_police</text>
   </g>
   <g id="text_6">
    <text style="fill: #262626; font: 10px 'Arial', 'Liberation Sans', 'DejaVu Sans', 'Bitstream Vera Sans', sans-serif; text-anchor: middle" x="448.8336" y="220.749745" transform="rotate(-0 448.8336 220.749745)">0.0%</text>
   </g>
   <g id="text_7">
    <text style="fill: #262626; font: 12px 'Arial', 'Liberation Sans', 'DejaVu Sans', 'Bitstream Vera Sans', sans-serif; text-anchor: middle" x="369" y="45.84" transform="rotate(-0 369 45.84)">Incidents by Source</text>
   </g>
  </g>
 </g>
</svg>
