<?xml version="1.0" encoding="utf-8" standalone="no"?>
<!DOCTYPE svg PUBLIC "-//W3C//DTD SVG 1.1//EN"
  "http://www.w3.org/Graphics/SVG/1.1/DTD/svg11.dtd">
<svg xmlns:xlink="http://www.w3.org/1999/xlink" width="720pt" height="432pt" viewBox="0 0 720 432" xmlns="http://www.w3.org/2000/svg" version="1.1">
 <metadata>
  <rdf:RDF xmlns:dc="http://purl.org/dc/elements/1.1/" xmlns:cc="http://creativecommons.org/ns#" xmlns:rdf="http://www.w3.org/1999/02/22-rdf-syntax-ns#">
   <cc:Work>
    <dc:type rdf:resource="http://purl.org/dc/dcmitype/StillImage"/>
    <dc:date>2026-02-25T02:37:10.487202</dc:date>
    <dc:format>image/svg+xml</dc:format>
    <dc:creator>
     <cc:Agent>
      <dc:title>Matplotlib v3.7.5, https://matplotlib.org/</dc:title>
     </cc:Agent>
    </dc:creator>
   </cc:Work>
  </rdf:RDF>
 </metadata>
 <defs>
  <style type="text/css">*{stroke-linejoin: round; stroke-linecap: butt}</style>
 </defs>
 <g id="figure_1">
  <g id="patch_1">
   <path d="M 0 432 
L 720 432 
L 720 0 
L 0 0 
z
" style="fill: #ffffff"/>
  </g>
  <g id="axes_1">
   <g id="matplotlib.axis_1"/>
   <g id="matplotlib.axis_2"/>
   <g id="patch_2">
    <path d="M 502.056 218.16 
C 502.056 200.706733 498.621921 183.422798 491.949863 167.295176 
C 485.277805 151.167555 475.497233 136.509188 463.166656 124.157127 
C 450.836079 111.805067 436.19476 101.998992 420.078778 95.298869 
C 403.962796 88.598746 386.684865 85.134584 369.231624 85.104202 
C 351.778383 85.073819 334.488496 88.477805 318.349285 95.121778 
C 302.210073 101.765751 287.534702 111.520791 275.161195 123.829847 
C 262.787688 136.138902 252.95614 150.763128 246.227973 166.867423 
C 239.499805 182.971717 236.005572 200.243591 235.944806 217.696753 
C 235.884041 235.149914 239.257924 252.4457 245.873791 268.596454 
C 252.489659 284.747207 262.219138 299.439537 274.506635 311.834453 
C 286.794132 324.229369 301.401221 334.086359 317.493779 340.842551 
C 333.586336 347.598743 350.852102 351.123038 368.305131 351.214186 
C 385.75816 351.305333 403.059793 347.961565 419.222039 341.373822 
C 435.384284 334.78608 450.093529 325.082192 462.509816 312.816291 
C 474.926104 300.550389 484.808508 285.960481 491.592703 269.879709 
C 498.376898 253.798937 501.931245 236.539333 502.052774 219.086489 
L 369 218.16 
z
" style="fill: #f77189"/>
   </g>
   <g id="patch_3">
    <path d="M 502.052774 219.086489 
C 502.053839 218.933608 502.05464 218.780726 502.055178 218.627842 
C 502.055715 218.474959 502.055989 218.322074 502.056 218.16919 
L 369 218.16 
z
" style="fill: #bb9832"/>
   </g>
   <g id="patch_4">
    <path d="M 502.056 218.16919 
C 502.056 218.167661 502.056 218.166132 502.056 218.164603 
C 502.056 218.163074 502.056 218.161545 502.056 218.160016 
L 369 218.16 
z
" style="fill: #50b131"/>
   </g>
   <g id="text_1">
    <text style="fill: #262626; font: 10px 'Arial', 'Liberation Sans', 'DejaVu Sans', 'Bitstream Vera Sans', sans-serif; text-anchor: end" x="222.639287" y="220.236365" transform="rotate(-0 222.639287 220.236365)">newsapi</text>
   </g>
   <g id="text_2">
    <text style="fill: #262626; font: 10px 'Arial', 'Liberation Sans', 'DejaVu Sans', 'Bitstream Vera Sans', sans-serif; text-anchor: middle" x="289.166884" y="220.467989" transform="rotate(-0 289.166884 220.467989)">99.9%</text>
   </g>
   <g id="text_3">
    <text style="fill: #262626; font: 10px 'Arial', 'Liberation Sans', 'DejaVu Sans', 'Bitstream Vera Sans', sans-serif; text-anchor: start" x="515.360695" y="221.260564" transform="rotate(-0 515.360695 221.260564)">chicago_pd</text>
   </g>
   <g id="text_4">
    <text style="fill: #262626; font: 10px 'Arial', 'Liberation Sans', 'DejaVu Sans', 'Bitstream Vera Sans', sans-serif; text-anchor: middle" x="448.833107" y="221.026643" transform="rotate(-0 448.833107 221.026643)">0.1%</text>
   </g>
   <g id="text_5">
    <text style="fill: #262626; font: 10px 'Arial', 'Liberation Sans', 'DejaVu Sans', 'Bitstream Vera Sans', sans-serif; text-anchor: start" x="515.3616" y="220.751001" transform="rotate(-0 515.3616 220.751001)">chicago_police</text>
   </g>
   <g id="text_6">
    <text style="fill: #262626; font: 10px 'Arial', 'Liberation Sans', 'DejaVu Sans', 'Bitstream Vera Sans', sans-serif; text-anchor: middle" x="448.8336" y="220.748699" transform="rotate(-0 448.8336 220.748699)">0.0%</text>
   </g>
   <g id="text_7">
    <text style="fill: #262626; font: 12px 'Arial', 'Liberation Sans', 'DejaVu Sans', 'Bitstream Vera Sans', sans-serif; text-anchor: middle" x="369" y="45.84" transform="rotate(-0 369 45.84)">Incidents by Source</text>
   </g>
  </g>
 </g>
</svg>
