<?xml version="1.0" encoding="utf-8" standalone="no"?>
<!DOCTYPE svg PUBLIC "-//W3C//DTD SVG 1.1//EN"
  "http://www.w3.org/Graphics/SVG/1.1/DTD/svg11.dtd">
<svg xmlns:xlink="http://www.w3.org/1999/xlink" width="720pt" height="432pt" viewBox="0 0 720 432" xmlns="http://www.w3.org/2000/svg" version="1.1">
 <metadata>
  <rdf:RDF xmlns:dc="http://purl.org/dc/elements/1.1/" xmlns:cc="http://creativecommons.org/ns#" xmlns:rdf="http://www.w3.org/1999/02/22-rdf-syntax-ns#">
   <cc:Work>
    <dc:type rdf:resource="http://purl.org/dc/dcmitype/StillImage"/>
    <dc:date>2026-02-18T18:44:48.199586</dc:date>
    <dc:format>image/svg+xml</dc:format>
    <dc:creator>
     <cc:Agent>
      <dc:title>Matplotlib v3.7.5, https://matplotlib.org/</dc:title>
     </cc:Agent>
    </dc:creator>
   </cc:Work>
  </rdf:RDF>
 </metadata>
 <defs>
  <style type="text/css">*{stroke-linejoin: round; stroke-linecap: butt}</style>
 </defs>
 <g id="figure_1">
  <g id="patch_1">
   <path d="M 0 432 
L 720 432 
L 720 0 
L 0 0 
z
" style="fill: #ffffff"/>
  </g>
  <g id="axes_1">
   <g id="matplotlib.axis_1"/>
   <g id="matplotlib.axis_2"/>
   <g id="patch_2">
    <path d="M 502.056 218.16 
C 502.056 200.706997 498.622025 183.423318 491.950163 167.295901 
C 485.278301 151.168485 475.498009 136.510257 463.167765 124.158238 
C 450.83752 111.806219 436.196572 102.000079 420.080952 95.299773 
C 403.965332 88.599466 386.687739 85.135001 369.234763 85.104207 
C 351.781788 85.073413 334.492077 88.476887 318.352913 95.120284 
C 302.21375 101.76368 287.538289 111.518094 275.164534 123.826526 
C 262.790778 136.134957 252.958821 150.758581 246.230091 166.862353 
C 239.50136 182.966126 236.006416 200.23758 235.944828 217.690474 
C 235.883241 235.143368 239.256204 252.439057 245.871114 268.589917 
C 252.486024 284.740777 262.214529 299.433426 274.50111 311.828879 
C 286.78769 324.224332 301.393943 334.082075 317.485819 340.839209 
C 333.577694 347.596342 350.842954 351.121754 368.295713 351.214136 
C 385.748471 351.306518 403.050085 347.964076 419.212591 341.377673 
C 435.375097 334.791269 450.084887 325.088703 462.502 312.824012 
C 474.919112 300.559322 484.802611 285.970484 491.588126 269.890556 
C 498.373642 253.810628 501.929511 236.551615 502.052686 219.099046 
L 369 218.16 
z
" style="fill: #f77189"/>
   </g>
   <g id="patch_3">
    <path d="M 502.052686 219.099046 
C 502.05378 218.944089 502.054603 218.789131 502.055155 218.634171 
C 502.055707 218.479212 502.055989 218.324251 502.056 218.16929 
L 369 218.16 
z
" style="fill: #bb9832"/>
   </g>
   <g id="patch_4">
    <path d="M 502.056 218.16929 
C 502.056 218.167741 502.056 218.166191 502.056 218.164642 
C 502.056 218.163092 502.056 218.161542 502.056 218.159993 
L 369 218.16 
z
" style="fill: #50b131"/>
   </g>
   <g id="text_1">
    <text style="fill: #262626; font: 10px 'Arial', 'Liberation Sans', 'DejaVu Sans', 'Bitstream Vera Sans', sans-serif; text-anchor: end" x="222.639311" y="220.229459" transform="rotate(-0 222.639311 220.229459)">newsapi</text>
   </g>
   <g id="text_2">
    <text style="fill: #262626; font: 10px 'Arial', 'Liberation Sans', 'DejaVu Sans', 'Bitstream Vera Sans', sans-serif; text-anchor: middle" x="289.166897" y="220.464222" transform="rotate(-0 289.166897 220.464222)">99.9%</text>
   </g>
   <g id="text_3">
    <text style="fill: #262626; font: 10px 'Arial', 'Liberation Sans', 'DejaVu Sans', 'Bitstream Vera Sans', sans-serif; text-anchor: start" x="515.360671" y="221.267526" transform="rotate(-0 515.360671 221.267526)">chicago_pd</text>
   </g>
   <g id="text_4">
    <text style="fill: #262626; font: 10px 'Arial', 'Liberation Sans', 'DejaVu Sans', 'Bitstream Vera Sans', sans-serif; text-anchor: middle" x="448.833093" y="221.03044" transform="rotate(-0 448.833093 221.03044)">0.1%</text>
   </g>
   <g id="text_5">
    <text style="fill: #262626; font: 10px 'Arial', 'Liberation Sans', 'DejaVu Sans', 'Bitstream Vera Sans', sans-serif; text-anchor: start" x="515.3616" y="220.751043" transform="rotate(-0 515.3616 220.751043)">chicago_police</text>
   </g>
   <g id="text_6">
    <text style="fill: #262626; font: 10px 'Arial', 'Liberation Sans', 'DejaVu Sans', 'Bitstream Vera Sans', sans-serif; text-anchor: middle" x="448.8336" y="220.748722" transform="rotate(-0 448.8336 220.748722)">0.0%</text>
   </g>
   <g id="text_7">
    <text style="fill: #262626; font: 12px 'Arial', 'Liberation Sans', 'DejaVu Sans', 'Bitstream Vera Sans', sans-serif; text-anchor: middle" x="369" y="45.84" transform="rotate(-0 369 45.84)">Incidents by Source</text>
   </g>
  </g>
 </g>
</svg>
