<?xml version="1.0" encoding="utf-8" standalone="no"?>
<!DOCTYPE svg PUBLIC "-//W3C//DTD SVG 1.1//EN"
  "http://www.w3.org/Graphics/SVG/1.1/DTD/svg11.dtd">
<svg xmlns:xlink="http://www.w3.org/1999/xlink" width="720pt" height="432pt" viewBox="0 0 720 432" xmlns="http://www.w3.org/2000/svg" version="1.1">
 <metadata>
  <rdf:RDF xmlns:dc="http://purl.org/dc/elements/1.1/" xmlns:cc="http://creativecommons.org/ns#" xmlns:rdf="http://www.w3.org/1999/02/22-rdf-syntax-ns#">
   <cc:Work>
    <dc:type rdf:resource="http://purl.org/dc/dcmitype/StillImage"/>
    <dc:date>2026-03-17T02:34:44.316772</dc:date>
    <dc:format>image/svg+xml</dc:format>
    <dc:creator>
     <cc:Agent>
      <dc:title>Matplotlib v3.7.5, https://matplotlib.org/</dc:title>
     </cc:Agent>
    </dc:creator>
   </cc:Work>
  </rdf:RDF>
 </metadata>
 <defs>
  <style type="text/css">*{stroke-linejoin: round; stroke-linecap: butt}</style>
 </defs>
 <g id="figure_1">
  <g id="patch_1">
   <path d="M 0 432 
L 720 432 
L 720 0 
L 0 0 
z
" style="fill: #ffffff"/>
  </g>
  <g id="axes_1">
   <g id="matplotlib.axis_1"/>
   <g id="matplotlib.axis_2"/>
   <g id="patch_2">
    <path d="M 502.056 218.16 
C 502.056 200.706071 498.62166 183.421492 491.949111 167.293357 
C 485.276561 151.165223 475.495285 136.506506 463.163875 124.154341 
C 450.832464 111.802177 436.190217 101.996264 420.073325 95.296602 
C 403.956434 88.59694 386.677656 85.133539 369.223751 85.104188 
C 351.769846 85.074837 334.479517 88.480105 318.340184 95.125524 
C 302.200851 101.770943 287.525707 111.527555 275.152823 123.838176 
C 262.779939 136.148797 252.949417 150.774534 246.222662 166.880136 
C 239.495907 182.985738 236.003455 200.258668 235.944753 217.712499 
C 235.886051 235.16633 239.262238 252.462361 245.880507 268.612846 
C 252.498776 284.763331 262.230696 299.454862 274.520493 311.84843 
C 286.81029 324.241998 301.419475 334.097101 317.513743 340.850931 
C 333.60801 347.60476 350.875043 351.126254 368.32875 351.214307 
C 385.782457 351.30236 403.084141 347.955262 419.245733 341.364162 
C 435.407325 334.773061 450.1152 325.065861 462.529418 312.796923 
C 474.943636 300.527984 484.823292 285.935392 491.604176 269.852505 
C 498.385061 253.769618 501.935587 236.508532 502.05299 219.054997 
L 369 218.16 
z
" style="fill: #f77189"/>
   </g>
   <g id="patch_3">
    <path d="M 502.05299 219.054997 
C 502.053983 218.907311 502.054731 218.759624 502.055232 218.611935 
C 502.055734 218.464247 502.05599 218.316558 502.056 218.168869 
L 369 218.16 
z
" style="fill: #bb9832"/>
   </g>
   <g id="patch_4">
    <path d="M 502.056 218.168869 
C 502.056 218.167392 502.056 218.165915 502.056 218.164438 
C 502.056 218.162961 502.056 218.161484 502.056 218.160007 
L 369 218.16 
z
" style="fill: #50b131"/>
   </g>
   <g id="text_1">
    <text style="fill: #262626; font: 10px 'Arial', 'Liberation Sans', 'DejaVu Sans', 'Bitstream Vera Sans', sans-serif; text-anchor: end" x="222.639228" y="220.253686" transform="rotate(-0 222.639228 220.253686)">newsapi</text>
   </g>
   <g id="text_2">
    <text style="fill: #262626; font: 10px 'Arial', 'Liberation Sans', 'DejaVu Sans', 'Bitstream Vera Sans', sans-serif; text-anchor: middle" x="289.166852" y="220.477437" transform="rotate(-0 289.166852 220.477437)">99.9%</text>
   </g>
   <g id="text_3">
    <text style="fill: #262626; font: 10px 'Arial', 'Liberation Sans', 'DejaVu Sans', 'Bitstream Vera Sans', sans-serif; text-anchor: start" x="515.360756" y="221.243066" transform="rotate(-0 515.360756 221.243066)">chicago_pd</text>
   </g>
   <g id="text_4">
    <text style="fill: #262626; font: 10px 'Arial', 'Liberation Sans', 'DejaVu Sans', 'Bitstream Vera Sans', sans-serif; text-anchor: middle" x="448.833139" y="221.017099" transform="rotate(-0 448.833139 221.017099)">0.1%</text>
   </g>
   <g id="text_5">
    <text style="fill: #262626; font: 10px 'Arial', 'Liberation Sans', 'DejaVu Sans', 'Bitstream Vera Sans', sans-serif; text-anchor: start" x="515.3616" y="220.750819" transform="rotate(-0 515.3616 220.750819)">chicago_police</text>
   </g>
   <g id="text_6">
    <text style="fill: #262626; font: 10px 'Arial', 'Liberation Sans', 'DejaVu Sans', 'Bitstream Vera Sans', sans-serif; text-anchor: middle" x="448.8336" y="220.7486" transform="rotate(-0 448.8336 220.7486)">0.0%</text>
   </g>
   <g id="text_7">
    <text style="fill: #262626; font: 12px 'Arial', 'Liberation Sans', 'DejaVu Sans', 'Bitstream Vera Sans', sans-serif; text-anchor: middle" x="369" y="45.84" transform="rotate(-0 369 45.84)">Incidents by Source</text>
   </g>
  </g>
 </g>
</svg>
