<?xml version="1.0" encoding="utf-8" standalone="no"?>
<!DOCTYPE svg PUBLIC "-//W3C//DTD SVG 1.1//EN"
  "http://www.w3.org/Graphics/SVG/1.1/DTD/svg11.dtd">
<svg xmlns:xlink="http://www.w3.org/1999/xlink" width="720pt" height="432pt" viewBox="0 0 720 432" xmlns="http://www.w3.org/2000/svg" version="1.1">
 <metadata>
  <rdf:RDF xmlns:dc="http://purl.org/dc/elements/1.1/" xmlns:cc="http://creativecommons.org/ns#" xmlns:rdf="http://www.w3.org/1999/02/22-rdf-syntax-ns#">
   <cc:Work>
    <dc:type rdf:resource="http://purl.org/dc/dcmitype/StillImage"/>
    <dc:date>2025-10-08T12:29:25.501128</dc:date>
    <dc:format>image/svg+xml</dc:format>
    <dc:creator>
     <cc:Agent>
      <dc:title>Matplotlib v3.7.5, https://matplotlib.org/</dc:title>
     </cc:Agent>
    </dc:creator>
   </cc:Work>
  </rdf:RDF>
 </metadata>
 <defs>
  <style type="text/css">*{stroke-linejoin: round; stroke-linecap: butt}</style>
 </defs>
 <g id="figure_1">
  <g id="patch_1">
   <path d="M 0 432 
L 720 432 
L 720 0 
L 0 0 
z
" style="fill: #ffffff"/>
  </g>
  <g id="axes_1">
   <g id="matplotlib.axis_1"/>
   <g id="matplotlib.axis_2"/>
   <g id="patch_2">
    <path d="M 502.056 218.16 
C 502.056 200.715323 498.625301 183.439727 491.959619 167.318764 
C 485.293937 151.197801 475.522486 136.543974 463.202716 124.193264 
C 450.882946 111.842555 436.253673 102.034381 420.149479 95.328286 
C 404.045285 88.622191 386.778349 85.148173 369.333726 85.104419 
C 351.889104 85.060664 334.604958 88.448023 318.467327 95.07325 
C 302.329696 101.698476 287.651406 111.433142 275.269836 123.721896 
C 262.888265 136.01065 253.043429 150.615277 246.296964 166.7026 
C 239.550498 182.789923 236.033182 200.048092 235.945674 217.492549 
C 235.858166 234.937007 239.202163 252.229595 245.786893 268.383792 
C 252.371623 284.53799 262.069442 299.240649 274.327103 311.653003 
C 286.584763 324.065357 301.164651 333.946793 317.235002 340.733587 
C 333.305353 347.520381 350.554646 351.080972 367.998829 351.212233 
C 385.443013 351.343495 402.743933 348.042881 418.914596 341.498689 
C 435.085258 334.954497 449.812195 325.293585 462.255254 313.067095 
C 474.698313 300.840606 484.616286 286.285548 491.443366 270.23227 
C 498.270446 254.178991 501.87429 236.938684 502.049304 219.494884 
L 369 218.16 
z
" style="fill: #f77189"/>
   </g>
   <g id="patch_3">
    <path d="M 502.049304 219.494884 
C 502.051514 219.274615 502.053177 219.054341 502.054293 218.834064 
C 502.055409 218.613787 502.055977 218.393507 502.055999 218.173227 
L 369 218.16 
z
" style="fill: #bb9832"/>
   </g>
   <g id="patch_4">
    <path d="M 502.055999 218.173227 
C 502.056 218.171024 502.056 218.168821 502.056 218.166618 
C 502.056 218.164416 502.056 218.162213 502.056 218.16001 
L 369 218.16 
z
" style="fill: #50b131"/>
   </g>
   <g id="text_1">
    <text style="fill: #262626; font: 10px 'Arial', 'Liberation Sans', 'DejaVu Sans', 'Bitstream Vera Sans', sans-serif; text-anchor: end" x="222.640241" y="220.011742" transform="rotate(-0 222.640241 220.011742)">newsapi</text>
   </g>
   <g id="text_2">
    <text style="fill: #262626; font: 10px 'Arial', 'Liberation Sans', 'DejaVu Sans', 'Bitstream Vera Sans', sans-serif; text-anchor: middle" x="289.167404" y="220.345467" transform="rotate(-0 289.167404 220.345467)">99.8%</text>
   </g>
   <g id="text_3">
    <text style="fill: #262626; font: 10px 'Arial', 'Liberation Sans', 'DejaVu Sans', 'Bitstream Vera Sans', sans-serif; text-anchor: start" x="515.359722" y="221.487408" transform="rotate(-0 515.359722 221.487408)">chicago_pd</text>
   </g>
   <g id="text_4">
    <text style="fill: #262626; font: 10px 'Arial', 'Liberation Sans', 'DejaVu Sans', 'Bitstream Vera Sans', sans-serif; text-anchor: middle" x="448.832576" y="221.150376" transform="rotate(-0 448.832576 221.150376)">0.2%</text>
   </g>
   <g id="text_5">
    <text style="fill: #262626; font: 10px 'Arial', 'Liberation Sans', 'DejaVu Sans', 'Bitstream Vera Sans', sans-serif; text-anchor: start" x="515.3616" y="220.753218" transform="rotate(-0 515.3616 220.753218)">chicago_police</text>
   </g>
   <g id="text_6">
    <text style="fill: #262626; font: 10px 'Arial', 'Liberation Sans', 'DejaVu Sans', 'Bitstream Vera Sans', sans-serif; text-anchor: middle" x="448.8336" y="220.749909" transform="rotate(-0 448.8336 220.749909)">0.0%</text>
   </g>
   <g id="text_7">
    <text style="fill: #262626; font: 12px 'Arial', 'Liberation Sans', 'DejaVu Sans', 'Bitstream Vera Sans', sans-serif; text-anchor: middle" x="369" y="45.84" transform="rotate(-0 369 45.84)">Incidents by Source</text>
   </g>
  </g>
 </g>
</svg>
