<?xml version="1.0" encoding="utf-8" standalone="no"?>
<!DOCTYPE svg PUBLIC "-//W3C//DTD SVG 1.1//EN"
  "http://www.w3.org/Graphics/SVG/1.1/DTD/svg11.dtd">
<svg xmlns:xlink="http://www.w3.org/1999/xlink" width="720pt" height="432pt" viewBox="0 0 720 432" xmlns="http://www.w3.org/2000/svg" version="1.1">
 <metadata>
  <rdf:RDF xmlns:dc="http://purl.org/dc/elements/1.1/" xmlns:cc="http://creativecommons.org/ns#" xmlns:rdf="http://www.w3.org/1999/02/22-rdf-syntax-ns#">
   <cc:Work>
    <dc:type rdf:resource="http://purl.org/dc/dcmitype/StillImage"/>
    <dc:date>2026-02-03T18:49:05.646835</dc:date>
    <dc:format>image/svg+xml</dc:format>
    <dc:creator>
     <cc:Agent>
      <dc:title>Matplotlib v3.7.5, https://matplotlib.org/</dc:title>
     </cc:Agent>
    </dc:creator>
   </cc:Work>
  </rdf:RDF>
 </metadata>
 <defs>
  <style type="text/css">*{stroke-linejoin: round; stroke-linecap: butt}</style>
 </defs>
 <g id="figure_1">
  <g id="patch_1">
   <path d="M 0 432 
L 720 432 
L 720 0 
L 0 0 
z
" style="fill: #ffffff"/>
  </g>
  <g id="axes_1">
   <g id="matplotlib.axis_1"/>
   <g id="matplotlib.axis_2"/>
   <g id="patch_2">
    <path d="M 502.056 218.16 
C 502.056 200.707715 498.622308 183.424733 491.950979 167.297873 
C 485.27965 151.171013 475.50012 136.513164 463.170779 124.161258 
C 450.841438 111.809351 436.201496 102.003036 420.086862 95.30223 
C 403.972227 88.601424 386.695553 85.136134 369.243297 85.104222 
C 351.791041 85.07231 334.501809 88.474395 318.362777 95.116224 
C 302.223745 101.758053 287.54804 111.510764 275.173609 123.817499 
C 262.799179 136.124234 252.96611 150.74622 246.235849 166.848575 
C 239.505588 182.95093 236.008714 200.221239 235.94489 217.673407 
C 235.881066 235.125575 239.25153 252.420999 245.863838 268.572149 
C 252.476146 284.723299 262.202005 299.416813 274.486092 311.813726 
C 286.77018 324.210639 301.374161 334.070428 317.464183 340.830121 
C 333.554204 347.589815 350.81809 351.118262 368.270113 351.213998 
C 385.722135 351.309734 403.023693 347.9709 419.186906 341.388136 
C 435.35012 334.805373 450.061394 325.106397 462.480748 312.844998 
C 474.900102 300.5836 484.786578 285.997672 491.575681 269.920037 
C 498.364785 253.842403 501.924794 236.584997 502.052441 219.133179 
L 369 218.16 
z
" style="fill: #f77189"/>
   </g>
   <g id="patch_3">
    <path d="M 502.052441 219.133179 
C 502.053616 218.97259 502.054499 218.811998 502.055093 218.651406 
C 502.055686 218.490813 502.055988 218.330219 502.056 218.169626 
L 369 218.16 
z
" style="fill: #bb9832"/>
   </g>
   <g id="patch_4">
    <path d="M 502.056 218.169626 
C 502.056 218.16802 502.056 218.166414 502.056 218.164808 
C 502.056 218.163202 502.056 218.161596 502.056 218.15999 
L 369 218.16 
z
" style="fill: #50b131"/>
   </g>
   <g id="text_1">
    <text style="fill: #262626; font: 10px 'Arial', 'Liberation Sans', 'DejaVu Sans', 'Bitstream Vera Sans', sans-serif; text-anchor: end" x="222.639379" y="220.210685" transform="rotate(-0 222.639379 220.210685)">newsapi</text>
   </g>
   <g id="text_2">
    <text style="fill: #262626; font: 10px 'Arial', 'Liberation Sans', 'DejaVu Sans', 'Bitstream Vera Sans', sans-serif; text-anchor: middle" x="289.166934" y="220.453982" transform="rotate(-0 289.166934 220.453982)">99.9%</text>
   </g>
   <g id="text_3">
    <text style="fill: #262626; font: 10px 'Arial', 'Liberation Sans', 'DejaVu Sans', 'Bitstream Vera Sans', sans-serif; text-anchor: start" x="515.360602" y="221.286484" transform="rotate(-0 515.360602 221.286484)">chicago_pd</text>
   </g>
   <g id="text_4">
    <text style="fill: #262626; font: 10px 'Arial', 'Liberation Sans', 'DejaVu Sans', 'Bitstream Vera Sans', sans-serif; text-anchor: middle" x="448.833056" y="221.040781" transform="rotate(-0 448.833056 221.040781)">0.1%</text>
   </g>
   <g id="text_5">
    <text style="fill: #262626; font: 10px 'Arial', 'Liberation Sans', 'DejaVu Sans', 'Bitstream Vera Sans', sans-serif; text-anchor: start" x="515.3616" y="220.751226" transform="rotate(-0 515.3616 220.751226)">chicago_police</text>
   </g>
   <g id="text_6">
    <text style="fill: #262626; font: 10px 'Arial', 'Liberation Sans', 'DejaVu Sans', 'Bitstream Vera Sans', sans-serif; text-anchor: middle" x="448.8336" y="220.748822" transform="rotate(-0 448.8336 220.748822)">0.0%</text>
   </g>
   <g id="text_7">
    <text style="fill: #262626; font: 12px 'Arial', 'Liberation Sans', 'DejaVu Sans', 'Bitstream Vera Sans', sans-serif; text-anchor: middle" x="369" y="45.84" transform="rotate(-0 369 45.84)">Incidents by Source</text>
   </g>
  </g>
 </g>
</svg>
