<?xml version="1.0" encoding="utf-8" standalone="no"?>
<!DOCTYPE svg PUBLIC "-//W3C//DTD SVG 1.1//EN"
  "http://www.w3.org/Graphics/SVG/1.1/DTD/svg11.dtd">
<svg xmlns:xlink="http://www.w3.org/1999/xlink" width="720pt" height="432pt" viewBox="0 0 720 432" xmlns="http://www.w3.org/2000/svg" version="1.1">
 <metadata>
  <rdf:RDF xmlns:dc="http://purl.org/dc/elements/1.1/" xmlns:cc="http://creativecommons.org/ns#" xmlns:rdf="http://www.w3.org/1999/02/22-rdf-syntax-ns#">
   <cc:Work>
    <dc:type rdf:resource="http://purl.org/dc/dcmitype/StillImage"/>
    <dc:date>2025-06-17T01:10:20.373950</dc:date>
    <dc:format>image/svg+xml</dc:format>
    <dc:creator>
     <cc:Agent>
      <dc:title>Matplotlib v3.7.5, https://matplotlib.org/</dc:title>
     </cc:Agent>
    </dc:creator>
   </cc:Work>
  </rdf:RDF>
 </metadata>
 <defs>
  <style type="text/css">*{stroke-linejoin: round; stroke-linecap: butt}</style>
 </defs>
 <g id="figure_1">
  <g id="patch_1">
   <path d="M 0 432 
L 720 432 
L 720 0 
L 0 0 
z
" style="fill: #ffffff"/>
  </g>
  <g id="axes_1">
   <g id="matplotlib.axis_1"/>
   <g id="matplotlib.axis_2"/>
   <g id="patch_2">
    <path d="M 502.056 218.16 
C 502.056 200.732683 498.632125 183.473941 491.979321 167.36644 
C 485.326517 151.258939 475.573491 136.614297 463.275551 124.266339 
C 450.977612 111.91838 436.372678 102.105992 420.292313 95.387862 
C 404.211948 88.669733 386.967247 85.175833 369.540073 85.105096 
C 352.112899 85.034359 334.840403 88.388152 318.706031 94.975521 
C 302.571658 101.56289 287.88755 111.256394 275.489776 123.504112 
C 263.092002 135.75183 253.220413 150.316815 246.437069 166.369779 
C 239.653725 182.422742 236.089858 199.65312 235.948384 217.079863 
C 235.806911 234.506606 239.090568 251.792573 245.612393 267.953551 
C 252.134219 284.114528 261.76804 298.837861 273.965335 311.285247 
C 286.162629 323.732632 300.687426 333.663259 316.712724 340.511706 
C 332.738021 347.360153 349.953791 350.993928 367.379817 351.206135 
C 384.805842 351.418343 402.104995 348.204876 418.292311 341.748702 
C 434.479628 335.292527 449.241943 325.718547 461.738735 313.571877 
C 474.235526 301.425206 484.225027 286.940838 491.138464 270.94347 
C 498.051901 254.946102 501.755526 237.745223 502.038463 220.320203 
L 369 218.16 
z
" style="fill: #f77189"/>
   </g>
   <g id="patch_3">
    <path d="M 502.038463 220.320203 
C 502.044251 219.963764 502.048606 219.607303 502.051528 219.250829 
C 502.054451 218.894355 502.055941 218.537871 502.055998 218.181385 
L 369 218.16 
z
" style="fill: #bb9832"/>
   </g>
   <g id="patch_4">
    <path d="M 502.055998 218.181385 
C 502.055999 218.17782 502.055999 218.174255 502.056 218.17069 
C 502.056 218.167125 502.056 218.16356 502.056 218.159996 
L 369 218.16 
z
" style="fill: #50b131"/>
   </g>
   <g id="text_1">
    <text style="fill: #262626; font: 10px 'Arial', 'Liberation Sans', 'DejaVu Sans', 'Bitstream Vera Sans', sans-serif; text-anchor: end" x="222.643223" y="219.557787" transform="rotate(-0 222.643223 219.557787)">newsapi</text>
   </g>
   <g id="text_2">
    <text style="fill: #262626; font: 10px 'Arial', 'Liberation Sans', 'DejaVu Sans', 'Bitstream Vera Sans', sans-serif; text-anchor: middle" x="289.169031" y="220.097855" transform="rotate(-0 289.169031 220.097855)">99.7%</text>
   </g>
   <g id="text_3">
    <text style="fill: #262626; font: 10px 'Arial', 'Liberation Sans', 'DejaVu Sans', 'Bitstream Vera Sans', sans-serif; text-anchor: start" x="515.356681" y="221.945849" transform="rotate(-0 515.356681 221.945849)">chicago_pd</text>
   </g>
   <g id="text_4">
    <text style="fill: #262626; font: 10px 'Arial', 'Liberation Sans', 'DejaVu Sans', 'Bitstream Vera Sans', sans-serif; text-anchor: middle" x="448.830917" y="221.400435" transform="rotate(-0 448.830917 221.400435)">0.3%</text>
   </g>
   <g id="text_5">
    <text style="fill: #262626; font: 10px 'Arial', 'Liberation Sans', 'DejaVu Sans', 'Bitstream Vera Sans', sans-serif; text-anchor: start" x="515.3616" y="220.757697" transform="rotate(-0 515.3616 220.757697)">chicago_police</text>
   </g>
   <g id="text_6">
    <text style="fill: #262626; font: 10px 'Arial', 'Liberation Sans', 'DejaVu Sans', 'Bitstream Vera Sans', sans-serif; text-anchor: middle" x="448.8336" y="220.752352" transform="rotate(-0 448.8336 220.752352)">0.0%</text>
   </g>
   <g id="text_7">
    <text style="fill: #262626; font: 12px 'Arial', 'Liberation Sans', 'DejaVu Sans', 'Bitstream Vera Sans', sans-serif; text-anchor: middle" x="369" y="45.84" transform="rotate(-0 369 45.84)">Incidents by Source</text>
   </g>
  </g>
 </g>
</svg>
