<?xml version="1.0" encoding="utf-8" standalone="no"?>
<!DOCTYPE svg PUBLIC "-//W3C//DTD SVG 1.1//EN"
  "http://www.w3.org/Graphics/SVG/1.1/DTD/svg11.dtd">
<svg xmlns:xlink="http://www.w3.org/1999/xlink" width="720pt" height="432pt" viewBox="0 0 720 432" xmlns="http://www.w3.org/2000/svg" version="1.1">
 <metadata>
  <rdf:RDF xmlns:dc="http://purl.org/dc/elements/1.1/" xmlns:cc="http://creativecommons.org/ns#" xmlns:rdf="http://www.w3.org/1999/02/22-rdf-syntax-ns#">
   <cc:Work>
    <dc:type rdf:resource="http://purl.org/dc/dcmitype/StillImage"/>
    <dc:date>2025-09-25T01:03:44.270979</dc:date>
    <dc:format>image/svg+xml</dc:format>
    <dc:creator>
     <cc:Agent>
      <dc:title>Matplotlib v3.7.5, https://matplotlib.org/</dc:title>
     </cc:Agent>
    </dc:creator>
   </cc:Work>
  </rdf:RDF>
 </metadata>
 <defs>
  <style type="text/css">*{stroke-linejoin: round; stroke-linecap: butt}</style>
 </defs>
 <g id="figure_1">
  <g id="patch_1">
   <path d="M 0 432 
L 720 432 
L 720 0 
L 0 0 
z
" style="fill: #ffffff"/>
  </g>
  <g id="axes_1">
   <g id="matplotlib.axis_1"/>
   <g id="matplotlib.axis_2"/>
   <g id="patch_2">
    <path d="M 502.056 218.16 
C 502.056 200.716632 498.625815 183.442307 491.961105 167.322359 
C 485.296395 151.202411 475.526334 136.549275 463.20821 124.198772 
C 450.890086 111.84827 436.262649 102.039777 420.160252 95.332773 
C 404.057855 88.625769 386.792594 85.150249 369.349286 85.104458 
C 351.905978 85.058668 334.622708 88.443494 318.48532 95.065864 
C 302.347931 101.688235 287.669199 111.419796 275.286403 123.705456 
C 262.903606 135.991117 253.056748 150.592755 246.307497 166.67749 
C 239.558246 182.762225 236.037415 200.018303 235.945834 217.461431 
C 235.854253 234.904559 239.193697 252.196654 245.773682 268.351371 
C 252.353668 284.506088 262.046662 299.210317 274.299774 311.625322 
C 286.552886 324.040327 301.128625 333.925481 317.195587 340.716933 
C 333.262549 347.508386 350.509325 351.074503 367.952152 351.211874 
C 385.394979 351.349245 402.695782 348.055206 418.867717 341.517651 
C 435.039651 334.980096 449.769274 325.325735 462.216402 313.105256 
C 474.663529 300.884777 484.586913 286.335038 491.420519 270.285959 
C 498.254125 254.236881 501.865505 236.999526 502.048665 219.557119 
L 369 218.16 
z
" style="fill: #f77189"/>
   </g>
   <g id="patch_3">
    <path d="M 502.048665 219.557119 
C 502.051086 219.326577 502.052907 219.096029 502.05413 218.865477 
C 502.055352 218.634925 502.055975 218.40437 502.055999 218.173815 
L 369 218.16 
z
" style="fill: #bb9832"/>
   </g>
   <g id="patch_4">
    <path d="M 502.055999 218.173815 
C 502.056 218.171509 502.056 218.169204 502.056 218.166898 
C 502.056 218.164593 502.056 218.162287 502.056 218.159982 
L 369 218.16 
z
" style="fill: #50b131"/>
   </g>
   <g id="text_1">
    <text style="fill: #262626; font: 10px 'Arial', 'Liberation Sans', 'DejaVu Sans', 'Bitstream Vera Sans', sans-serif; text-anchor: end" x="222.640417" y="219.977511" transform="rotate(-0 222.640417 219.977511)">newsapi</text>
   </g>
   <g id="text_2">
    <text style="fill: #262626; font: 10px 'Arial', 'Liberation Sans', 'DejaVu Sans', 'Bitstream Vera Sans', sans-serif; text-anchor: middle" x="289.1675" y="220.326796" transform="rotate(-0 289.1675 220.326796)">99.8%</text>
   </g>
   <g id="text_3">
    <text style="fill: #262626; font: 10px 'Arial', 'Liberation Sans', 'DejaVu Sans', 'Bitstream Vera Sans', sans-serif; text-anchor: start" x="515.359543" y="221.521962" transform="rotate(-0 515.359543 221.521962)">chicago_pd</text>
   </g>
   <g id="text_4">
    <text style="fill: #262626; font: 10px 'Arial', 'Liberation Sans', 'DejaVu Sans', 'Bitstream Vera Sans', sans-serif; text-anchor: middle" x="448.832478" y="221.169223" transform="rotate(-0 448.832478 221.169223)">0.2%</text>
   </g>
   <g id="text_5">
    <text style="fill: #262626; font: 10px 'Arial', 'Liberation Sans', 'DejaVu Sans', 'Bitstream Vera Sans', sans-serif; text-anchor: start" x="515.3616" y="220.753526" transform="rotate(-0 515.3616 220.753526)">chicago_police</text>
   </g>
   <g id="text_6">
    <text style="fill: #262626; font: 10px 'Arial', 'Liberation Sans', 'DejaVu Sans', 'Bitstream Vera Sans', sans-serif; text-anchor: middle" x="448.8336" y="220.750076" transform="rotate(-0 448.8336 220.750076)">0.0%</text>
   </g>
   <g id="text_7">
    <text style="fill: #262626; font: 12px 'Arial', 'Liberation Sans', 'DejaVu Sans', 'Bitstream Vera Sans', sans-serif; text-anchor: middle" x="369" y="45.84" transform="rotate(-0 369 45.84)">Incidents by Source</text>
   </g>
  </g>
 </g>
</svg>
