<?xml version="1.0" encoding="utf-8" standalone="no"?>
<!DOCTYPE svg PUBLIC "-//W3C//DTD SVG 1.1//EN"
  "http://www.w3.org/Graphics/SVG/1.1/DTD/svg11.dtd">
<svg xmlns:xlink="http://www.w3.org/1999/xlink" width="720pt" height="432pt" viewBox="0 0 720 432" xmlns="http://www.w3.org/2000/svg" version="1.1">
 <metadata>
  <rdf:RDF xmlns:dc="http://purl.org/dc/elements/1.1/" xmlns:cc="http://creativecommons.org/ns#" xmlns:rdf="http://www.w3.org/1999/02/22-rdf-syntax-ns#">
   <cc:Work>
    <dc:type rdf:resource="http://purl.org/dc/dcmitype/StillImage"/>
    <dc:date>2025-05-24T12:41:42.400540</dc:date>
    <dc:format>image/svg+xml</dc:format>
    <dc:creator>
     <cc:Agent>
      <dc:title>Matplotlib v3.7.5, https://matplotlib.org/</dc:title>
     </cc:Agent>
    </dc:creator>
   </cc:Work>
  </rdf:RDF>
 </metadata>
 <defs>
  <style type="text/css">*{stroke-linejoin: round; stroke-linecap: butt}</style>
 </defs>
 <g id="figure_1">
  <g id="patch_1">
   <path d="M 0 432 
L 720 432 
L 720 0 
L 0 0 
z
" style="fill: #ffffff"/>
  </g>
  <g id="axes_1">
   <g id="matplotlib.axis_1"/>
   <g id="matplotlib.axis_2"/>
   <g id="patch_2">
    <path d="M 502.056 218.16 
C 502.056 200.73914 498.634662 183.48667 491.986646 167.384178 
C 485.33863 151.281687 475.592453 136.640466 463.302632 124.293538 
C 451.012811 111.946609 436.41693 102.132662 420.345431 95.410068 
C 404.273933 88.687473 387.037508 85.186191 369.616836 85.10543 
C 352.196164 85.024668 334.928017 88.365988 318.794879 94.939283 
C 302.661741 101.512579 287.975496 111.190775 275.571725 123.423225 
C 263.167955 135.655674 253.286448 150.205902 246.48942 166.246063 
C 239.692391 182.286223 236.111241 199.506231 235.949719 216.926341 
C 235.788198 234.346452 239.049428 251.629903 245.547861 267.793341 
C 252.046294 283.956778 261.656302 298.687734 273.831117 311.148079 
C 286.005933 323.608425 300.510194 333.557279 316.518672 340.428595 
C 332.52715 347.299911 349.73037 350.960854 367.149545 351.203132 
C 384.56872 351.44541 401.867104 348.264339 418.060494 341.840908 
C 434.253884 335.417478 449.029232 325.875864 461.545886 313.758945 
C 474.062539 301.642025 484.078526 287.184041 491.023982 271.20759 
C 497.969439 255.231139 501.710095 238.045076 502.033124 220.627211 
L 369 218.16 
z
" style="fill: #f77189"/>
   </g>
   <g id="patch_3">
    <path d="M 502.033124 220.627211 
C 502.040673 220.220127 502.046355 219.813011 502.050167 219.405875 
C 502.053979 218.998739 502.055923 218.591588 502.055998 218.184434 
L 369 218.16 
z
" style="fill: #bb9832"/>
   </g>
   <g id="patch_4">
    <path d="M 502.055998 218.184434 
C 502.055999 218.180363 502.055999 218.176291 502.055999 218.17222 
C 502.056 218.168148 502.056 218.164077 502.056 218.160005 
L 369 218.16 
z
" style="fill: #50b131"/>
   </g>
   <g id="text_1">
    <text style="fill: #262626; font: 10px 'Arial', 'Liberation Sans', 'DejaVu Sans', 'Bitstream Vera Sans', sans-serif; text-anchor: end" x="222.644691" y="219.388913" transform="rotate(-0 222.644691 219.388913)">newsapi</text>
   </g>
   <g id="text_2">
    <text style="fill: #262626; font: 10px 'Arial', 'Liberation Sans', 'DejaVu Sans', 'Bitstream Vera Sans', sans-serif; text-anchor: middle" x="289.169832" y="220.005742" transform="rotate(-0 289.169832 220.005742)">99.7%</text>
   </g>
   <g id="text_3">
    <text style="fill: #262626; font: 10px 'Arial', 'Liberation Sans', 'DejaVu Sans', 'Bitstream Vera Sans', sans-serif; text-anchor: start" x="515.355184" y="222.1164" transform="rotate(-0 515.355184 222.1164)">chicago_pd</text>
   </g>
   <g id="text_4">
    <text style="fill: #262626; font: 10px 'Arial', 'Liberation Sans', 'DejaVu Sans', 'Bitstream Vera Sans', sans-serif; text-anchor: middle" x="448.8301" y="221.493463" transform="rotate(-0 448.8301 221.493463)">0.3%</text>
   </g>
   <g id="text_5">
    <text style="fill: #262626; font: 10px 'Arial', 'Liberation Sans', 'DejaVu Sans', 'Bitstream Vera Sans', sans-serif; text-anchor: start" x="515.361599" y="220.759379" transform="rotate(-0 515.361599 220.759379)">chicago_police</text>
   </g>
   <g id="text_6">
    <text style="fill: #262626; font: 10px 'Arial', 'Liberation Sans', 'DejaVu Sans', 'Bitstream Vera Sans', sans-serif; text-anchor: middle" x="448.8336" y="220.753269" transform="rotate(-0 448.8336 220.753269)">0.0%</text>
   </g>
   <g id="text_7">
    <text style="fill: #262626; font: 12px 'Arial', 'Liberation Sans', 'DejaVu Sans', 'Bitstream Vera Sans', sans-serif; text-anchor: middle" x="369" y="45.84" transform="rotate(-0 369 45.84)">Incidents by Source</text>
   </g>
  </g>
 </g>
</svg>
