<?xml version="1.0" encoding="utf-8" standalone="no"?>
<!DOCTYPE svg PUBLIC "-//W3C//DTD SVG 1.1//EN"
  "http://www.w3.org/Graphics/SVG/1.1/DTD/svg11.dtd">
<svg xmlns:xlink="http://www.w3.org/1999/xlink" width="720pt" height="432pt" viewBox="0 0 720 432" xmlns="http://www.w3.org/2000/svg" version="1.1">
 <metadata>
  <rdf:RDF xmlns:dc="http://purl.org/dc/elements/1.1/" xmlns:cc="http://creativecommons.org/ns#" xmlns:rdf="http://www.w3.org/1999/02/22-rdf-syntax-ns#">
   <cc:Work>
    <dc:type rdf:resource="http://purl.org/dc/dcmitype/StillImage"/>
    <dc:date>2025-11-26T06:23:32.553666</dc:date>
    <dc:format>image/svg+xml</dc:format>
    <dc:creator>
     <cc:Agent>
      <dc:title>Matplotlib v3.7.5, https://matplotlib.org/</dc:title>
     </cc:Agent>
    </dc:creator>
   </cc:Work>
  </rdf:RDF>
 </metadata>
 <defs>
  <style type="text/css">*{stroke-linejoin: round; stroke-linecap: butt}</style>
 </defs>
 <g id="figure_1">
  <g id="patch_1">
   <path d="M 0 432 
L 720 432 
L 720 0 
L 0 0 
z
" style="fill: #ffffff"/>
  </g>
  <g id="axes_1">
   <g id="matplotlib.axis_1"/>
   <g id="matplotlib.axis_2"/>
   <g id="patch_2">
    <path d="M 502.056 218.16 
C 502.056 200.71169 498.623872 183.432568 491.955494 167.308789 
C 485.287116 151.18501 475.511808 136.529262 463.187468 124.177981 
C 450.863128 111.826699 436.228761 102.019412 420.119582 95.315841 
C 404.010403 88.61227 386.738817 85.142418 369.290548 85.104317 
C 351.84228 85.066216 334.555704 88.460605 318.417402 95.093758 
C 302.2791 101.726911 287.602042 111.470192 275.223878 123.767532 
C 262.845713 136.064872 253.006493 150.677788 246.267761 166.77229 
C 239.52903 182.866793 236.021471 200.130761 235.945269 217.578905 
C 235.869067 235.027048 239.225699 252.320995 245.823596 268.473743 
C 252.421493 284.626491 262.132702 299.32479 274.402982 311.729778 
C 286.673263 324.134766 301.264659 334.005873 317.344408 340.779733 
C 333.424157 347.553593 350.680425 351.098842 368.12836 351.213145 
C 385.576296 351.327447 402.877531 348.008587 419.044648 341.445978 
C 435.211765 334.883369 449.931235 325.20428 462.362988 312.961116 
C 474.79474 300.717953 484.697686 286.148147 491.506643 270.083228 
C 498.3156 254.018309 501.898522 236.769824 502.050924 219.32218 
L 369 218.16 
z
" style="fill: #f77189"/>
   </g>
   <g id="patch_3">
    <path d="M 502.050924 219.32218 
C 502.052599 219.130404 502.05386 218.938625 502.054706 218.746844 
C 502.055552 218.555063 502.055983 218.363281 502.056 218.171498 
L 369 218.16 
z
" style="fill: #bb9832"/>
   </g>
   <g id="patch_4">
    <path d="M 502.056 218.171498 
C 502.056 218.16958 502.056 218.167662 502.056 218.165745 
C 502.056 218.163827 502.056 218.161909 502.056 218.159991 
L 369 218.16 
z
" style="fill: #50b131"/>
   </g>
   <g id="text_1">
    <text style="fill: #262626; font: 10px 'Arial', 'Liberation Sans', 'DejaVu Sans', 'Bitstream Vera Sans', sans-serif; text-anchor: end" x="222.639796" y="220.106733" transform="rotate(-0 222.639796 220.106733)">newsapi</text>
   </g>
   <g id="text_2">
    <text style="fill: #262626; font: 10px 'Arial', 'Liberation Sans', 'DejaVu Sans', 'Bitstream Vera Sans', sans-serif; text-anchor: middle" x="289.167161" y="220.39728" transform="rotate(-0 289.167161 220.39728)">99.9%</text>
   </g>
   <g id="text_3">
    <text style="fill: #262626; font: 10px 'Arial', 'Liberation Sans', 'DejaVu Sans', 'Bitstream Vera Sans', sans-serif; text-anchor: start" x="515.360176" y="221.391466" transform="rotate(-0 515.360176 221.391466)">chicago_pd</text>
   </g>
   <g id="text_4">
    <text style="fill: #262626; font: 10px 'Arial', 'Liberation Sans', 'DejaVu Sans', 'Bitstream Vera Sans', sans-serif; text-anchor: middle" x="448.832824" y="221.098044" transform="rotate(-0 448.832824 221.098044)">0.1%</text>
   </g>
   <g id="text_5">
    <text style="fill: #262626; font: 10px 'Arial', 'Liberation Sans', 'DejaVu Sans', 'Bitstream Vera Sans', sans-serif; text-anchor: start" x="515.3616" y="220.752257" transform="rotate(-0 515.3616 220.752257)">chicago_police</text>
   </g>
   <g id="text_6">
    <text style="fill: #262626; font: 10px 'Arial', 'Liberation Sans', 'DejaVu Sans', 'Bitstream Vera Sans', sans-serif; text-anchor: middle" x="448.8336" y="220.749384" transform="rotate(-0 448.8336 220.749384)">0.0%</text>
   </g>
   <g id="text_7">
    <text style="fill: #262626; font: 12px 'Arial', 'Liberation Sans', 'DejaVu Sans', 'Bitstream Vera Sans', sans-serif; text-anchor: middle" x="369" y="45.84" transform="rotate(-0 369 45.84)">Incidents by Source</text>
   </g>
  </g>
 </g>
</svg>
