<?xml version="1.0" encoding="utf-8" standalone="no"?>
<!DOCTYPE svg PUBLIC "-//W3C//DTD SVG 1.1//EN"
  "http://www.w3.org/Graphics/SVG/1.1/DTD/svg11.dtd">
<svg xmlns:xlink="http://www.w3.org/1999/xlink" width="720pt" height="432pt" viewBox="0 0 720 432" xmlns="http://www.w3.org/2000/svg" version="1.1">
 <metadata>
  <rdf:RDF xmlns:dc="http://purl.org/dc/elements/1.1/" xmlns:cc="http://creativecommons.org/ns#" xmlns:rdf="http://www.w3.org/1999/02/22-rdf-syntax-ns#">
   <cc:Work>
    <dc:type rdf:resource="http://purl.org/dc/dcmitype/StillImage"/>
    <dc:date>2025-02-09T06:15:51.418522</dc:date>
    <dc:format>image/svg+xml</dc:format>
    <dc:creator>
     <cc:Agent>
      <dc:title>Matplotlib v3.7.5, https://matplotlib.org/</dc:title>
     </cc:Agent>
    </dc:creator>
   </cc:Work>
  </rdf:RDF>
 </metadata>
 <defs>
  <style type="text/css">*{stroke-linejoin: round; stroke-linecap: butt}</style>
 </defs>
 <g id="figure_1">
  <g id="patch_1">
   <path d="M 0 432 
L 720 432 
L 720 0 
L 0 0 
z
" style="fill: #ffffff"/>
  </g>
  <g id="axes_1">
   <g id="matplotlib.axis_1"/>
   <g id="matplotlib.axis_2"/>
   <g id="patch_2">
    <path d="M 502.056 218.16 
C 502.056 200.814758 498.664299 183.635717 492.072226 167.591964 
C 485.480153 151.548211 475.814039 136.947208 463.619158 124.61261 
C 451.424276 112.278012 436.93433 102.4462 420.96671 95.671796 
C 404.999091 88.897391 387.859801 85.310218 370.515684 85.112633 
C 353.171567 84.915048 335.955005 88.110837 319.8372 94.519722 
C 303.719396 100.928608 289.00923 110.42777 276.536517 122.481353 
C 264.063804 134.534936 254.06757 148.911945 247.111713 164.801359 
C 240.155855 180.690773 236.373676 197.788088 235.978531 215.128829 
C 235.583386 232.46957 238.582849 249.721419 244.807715 265.911184 
C 251.032582 282.100948 260.36356 296.918367 272.27428 309.527578 
C 284.185 322.136788 298.447206 332.296146 314.256353 339.432553 
C 330.065499 346.568961 347.118621 350.545656 364.453736 351.138309 
C 381.78885 351.730962 399.073748 348.928216 415.333371 342.888176 
C 431.592995 336.848136 446.515745 327.686553 459.259816 315.920242 
C 472.003886 304.15393 482.325051 290.008378 489.641082 274.28155 
C 496.957114 258.554722 501.127808 241.548007 501.917893 224.220768 
L 369 218.16 
z
" style="fill: #f77189"/>
   </g>
   <g id="patch_3">
    <path d="M 501.917893 224.220768 
C 501.963465 223.221322 501.997764 222.221395 502.020782 221.221176 
C 502.043799 220.220956 502.055535 219.22051 502.055986 218.220026 
L 369 218.16 
z
" style="fill: #bb9832"/>
   </g>
   <g id="patch_4">
    <path d="M 502.055986 218.220026 
C 502.055991 218.210021 502.055994 218.200016 502.055997 218.190012 
C 502.055999 218.180007 502.056 218.170002 502.056 218.159997 
L 369 218.16 
z
" style="fill: #50b131"/>
   </g>
   <g id="text_1">
    <text style="fill: #262626; font: 10px 'Arial', 'Liberation Sans', 'DejaVu Sans', 'Bitstream Vera Sans', sans-serif; text-anchor: end" x="222.676384" y="217.41165" transform="rotate(-0 222.676384 217.41165)">newsapi</text>
   </g>
   <g id="text_2">
    <text style="fill: #262626; font: 10px 'Arial', 'Liberation Sans', 'DejaVu Sans', 'Bitstream Vera Sans', sans-serif; text-anchor: middle" x="289.187119" y="218.927235" transform="rotate(-0 289.187119 218.927235)">99.3%</text>
   </g>
   <g id="text_3">
    <text style="fill: #262626; font: 10px 'Arial', 'Liberation Sans', 'DejaVu Sans', 'Bitstream Vera Sans', sans-serif; text-anchor: start" x="515.32286" y="224.113231" transform="rotate(-0 515.32286 224.113231)">chicago_pd</text>
   </g>
   <g id="text_4">
    <text style="fill: #262626; font: 10px 'Arial', 'Liberation Sans', 'DejaVu Sans', 'Bitstream Vera Sans', sans-serif; text-anchor: middle" x="448.812469" y="222.582643" transform="rotate(-0 448.812469 222.582643)">0.7%</text>
   </g>
   <g id="text_5">
    <text style="fill: #262626; font: 10px 'Arial', 'Liberation Sans', 'DejaVu Sans', 'Bitstream Vera Sans', sans-serif; text-anchor: start" x="515.361596" y="220.77895" transform="rotate(-0 515.361596 220.77895)">chicago_police</text>
   </g>
   <g id="text_6">
    <text style="fill: #262626; font: 10px 'Arial', 'Liberation Sans', 'DejaVu Sans', 'Bitstream Vera Sans', sans-serif; text-anchor: middle" x="448.833598" y="220.763944" transform="rotate(-0 448.833598 220.763944)">0.0%</text>
   </g>
   <g id="text_7">
    <text style="fill: #262626; font: 12px 'Arial', 'Liberation Sans', 'DejaVu Sans', 'Bitstream Vera Sans', sans-serif; text-anchor: middle" x="369" y="45.84" transform="rotate(-0 369 45.84)">Incidents by Source</text>
   </g>
  </g>
 </g>
</svg>
