<?xml version="1.0" encoding="utf-8" standalone="no"?>
<!DOCTYPE svg PUBLIC "-//W3C//DTD SVG 1.1//EN"
  "http://www.w3.org/Graphics/SVG/1.1/DTD/svg11.dtd">
<svg xmlns:xlink="http://www.w3.org/1999/xlink" width="720pt" height="432pt" viewBox="0 0 720 432" xmlns="http://www.w3.org/2000/svg" version="1.1">
 <metadata>
  <rdf:RDF xmlns:dc="http://purl.org/dc/elements/1.1/" xmlns:cc="http://creativecommons.org/ns#" xmlns:rdf="http://www.w3.org/1999/02/22-rdf-syntax-ns#">
   <cc:Work>
    <dc:type rdf:resource="http://purl.org/dc/dcmitype/StillImage"/>
    <dc:date>2026-05-03T12:57:47.153841</dc:date>
    <dc:format>image/svg+xml</dc:format>
    <dc:creator>
     <cc:Agent>
      <dc:title>Matplotlib v3.7.5, https://matplotlib.org/</dc:title>
     </cc:Agent>
    </dc:creator>
   </cc:Work>
  </rdf:RDF>
 </metadata>
 <defs>
  <style type="text/css">*{stroke-linejoin: round; stroke-linecap: butt}</style>
 </defs>
 <g id="figure_1">
  <g id="patch_1">
   <path d="M 0 432 
L 720 432 
L 720 0 
L 0 0 
z
" style="fill: #ffffff"/>
  </g>
  <g id="axes_1">
   <g id="matplotlib.axis_1"/>
   <g id="matplotlib.axis_2"/>
   <g id="patch_2">
    <path d="M 502.056 218.16 
C 502.056 200.704536 498.621057 183.418468 491.947368 167.289144 
C 485.273678 151.15982 475.490773 136.500293 463.157432 124.147888 
C 450.824091 111.795483 436.179691 101.989946 420.060695 95.291352 
C 403.941698 88.592758 386.660956 85.13112 369.205513 85.104159 
C 351.75007 85.077198 334.458717 88.485438 318.319105 95.134206 
C 302.179492 101.782974 287.504872 111.543226 275.133432 123.857473 
C 262.761992 136.171721 252.933848 150.800957 246.210365 166.909588 
C 239.486882 183.018219 235.998557 200.293594 235.944635 217.748975 
C 235.890713 235.204355 239.272241 252.500951 245.896073 268.650814 
C 252.519905 284.800677 262.257479 299.490355 274.552603 311.8808 
C 286.847727 324.271246 301.461766 334.121974 317.559994 340.870329 
C 333.658221 347.618684 350.928187 351.133689 368.383463 351.214572 
C 385.838739 351.295454 403.140538 347.940646 419.300613 341.341766 
C 435.460687 334.742887 450.165387 325.028013 462.574809 312.752041 
C 474.98423 300.47607 484.857519 285.877263 491.630731 269.789479 
C 498.403943 253.701694 501.945617 236.437178 502.053461 218.982047 
L 369 218.16 
z
" style="fill: #f77189"/>
   </g>
   <g id="patch_3">
    <path d="M 502.053461 218.982047 
C 502.054299 218.846395 502.054929 218.710742 502.055353 218.575089 
C 502.055776 218.439435 502.055991 218.303781 502.056 218.168127 
L 369 218.16 
z
" style="fill: #bb9832"/>
   </g>
   <g id="patch_4">
    <path d="M 502.056 218.168127 
C 502.056 218.16677 502.056 218.165414 502.056 218.164057 
C 502.056 218.1627 502.056 218.161344 502.056 218.159987 
L 369 218.16 
z
" style="fill: #50b131"/>
   </g>
   <g id="text_1">
    <text style="fill: #262626; font: 10px 'Arial', 'Liberation Sans', 'DejaVu Sans', 'Bitstream Vera Sans', sans-serif; text-anchor: end" x="222.639098" y="220.293809" transform="rotate(-0 222.639098 220.293809)">newsapi</text>
   </g>
   <g id="text_2">
    <text style="fill: #262626; font: 10px 'Arial', 'Liberation Sans', 'DejaVu Sans', 'Bitstream Vera Sans', sans-serif; text-anchor: middle" x="289.166781" y="220.499322" transform="rotate(-0 289.166781 220.499322)">99.9%</text>
   </g>
   <g id="text_3">
    <text style="fill: #262626; font: 10px 'Arial', 'Liberation Sans', 'DejaVu Sans', 'Bitstream Vera Sans', sans-serif; text-anchor: start" x="515.360888" y="221.202535" transform="rotate(-0 515.360888 221.202535)">chicago_pd</text>
   </g>
   <g id="text_4">
    <text style="fill: #262626; font: 10px 'Arial', 'Liberation Sans', 'DejaVu Sans', 'Bitstream Vera Sans', sans-serif; text-anchor: middle" x="448.833212" y="220.994991" transform="rotate(-0 448.833212 220.994991)">0.1%</text>
   </g>
   <g id="text_5">
    <text style="fill: #262626; font: 10px 'Arial', 'Liberation Sans', 'DejaVu Sans', 'Bitstream Vera Sans', sans-serif; text-anchor: start" x="515.3616" y="220.7504" transform="rotate(-0 515.3616 220.7504)">chicago_police</text>
   </g>
   <g id="text_6">
    <text style="fill: #262626; font: 10px 'Arial', 'Liberation Sans', 'DejaVu Sans', 'Bitstream Vera Sans', sans-serif; text-anchor: middle" x="448.8336" y="220.748372" transform="rotate(-0 448.8336 220.748372)">0.0%</text>
   </g>
   <g id="text_7">
    <text style="fill: #262626; font: 12px 'Arial', 'Liberation Sans', 'DejaVu Sans', 'Bitstream Vera Sans', sans-serif; text-anchor: middle" x="369" y="45.84" transform="rotate(-0 369 45.84)">Incidents by Source</text>
   </g>
  </g>
 </g>
</svg>
