<?xml version="1.0" encoding="utf-8" standalone="no"?>
<!DOCTYPE svg PUBLIC "-//W3C//DTD SVG 1.1//EN"
  "http://www.w3.org/Graphics/SVG/1.1/DTD/svg11.dtd">
<svg xmlns:xlink="http://www.w3.org/1999/xlink" width="720pt" height="432pt" viewBox="0 0 720 432" xmlns="http://www.w3.org/2000/svg" version="1.1">
 <metadata>
  <rdf:RDF xmlns:dc="http://purl.org/dc/elements/1.1/" xmlns:cc="http://creativecommons.org/ns#" xmlns:rdf="http://www.w3.org/1999/02/22-rdf-syntax-ns#">
   <cc:Work>
    <dc:type rdf:resource="http://purl.org/dc/dcmitype/StillImage"/>
    <dc:date>2024-12-10T12:44:38.135257</dc:date>
    <dc:format>image/svg+xml</dc:format>
    <dc:creator>
     <cc:Agent>
      <dc:title>Matplotlib v3.7.5, https://matplotlib.org/</dc:title>
     </cc:Agent>
    </dc:creator>
   </cc:Work>
  </rdf:RDF>
 </metadata>
 <defs>
  <style type="text/css">*{stroke-linejoin: round; stroke-linecap: butt}</style>
 </defs>
 <g id="figure_1">
  <g id="patch_1">
   <path d="M 0 432 
L 720 432 
L 720 0 
L 0 0 
z
" style="fill: #ffffff"/>
  </g>
  <g id="axes_1">
   <g id="matplotlib.axis_1"/>
   <g id="matplotlib.axis_2"/>
   <g id="patch_2">
    <path d="M 502.056 218.16 
C 502.056 203.613537 499.670543 189.165036 494.994736 175.390551 
C 490.318928 161.616067 483.415749 148.701126 474.560423 137.160641 
C 465.705098 125.620156 455.016897 115.609563 442.921956 107.527981 
C 430.827014 99.446399 417.488235 93.402676 403.437431 89.637774 
C 389.386627 85.872872 374.813044 84.437499 360.297726 85.388883 
C 345.782408 86.340266 331.520859 89.665593 318.081679 95.232283 
C 304.642499 100.798972 292.206699 108.532049 281.270089 118.123198 
C 270.333478 127.714347 261.04336 139.034387 253.770128 151.631993 
C 246.496896 164.229599 241.338511 177.935096 238.500636 192.202053 
C 235.66276 206.46901 235.183618 221.105266 237.082311 235.527283 
C 238.981004 249.949299 243.23196 263.962827 249.665695 277.009154 
C 256.09943 290.055481 264.62929 301.958887 274.915191 312.244791 
C 285.201093 322.530695 297.104498 331.060556 310.150824 337.494294 
C 323.19715 343.928031 337.210677 348.17899 351.632693 350.077686 
C 366.054708 351.976382 380.690965 351.497242 394.957923 348.659369 
C 409.22488 345.821497 422.930378 340.663114 435.527986 333.389884 
L 369 218.16 
z
" style="fill: #f77189"/>
   </g>
   <g id="patch_3">
    <path d="M 435.527986 333.389884 
C 455.75355 321.712653 472.552633 304.913574 484.229869 284.688013 
C 495.907105 264.462451 502.055998 241.514481 502.056 218.160012 
L 369 218.16 
z
" style="fill: #bb9832"/>
   </g>
   <g id="text_1">
    <text style="fill: #262626; font: 10px 'Arial', 'Liberation Sans', 'DejaVu Sans', 'Bitstream Vera Sans', sans-serif; text-anchor: end" x="242.247141" y="147.56513" transform="rotate(-0 242.247141 147.56513)">newsapi</text>
   </g>
   <g id="text_2">
    <text style="fill: #262626; font: 10px 'Arial', 'Liberation Sans', 'DejaVu Sans', 'Bitstream Vera Sans', sans-serif; text-anchor: middle" x="299.862077" y="180.829133" transform="rotate(-0 299.862077 180.829133)">83.3%</text>
   </g>
   <g id="text_3">
    <text style="fill: #262626; font: 10px 'Arial', 'Liberation Sans', 'DejaVu Sans', 'Bitstream Vera Sans', sans-serif; text-anchor: start" x="495.752856" y="293.926751" transform="rotate(-0 495.752856 293.926751)">chicago_pd</text>
   </g>
   <g id="text_4">
    <text style="fill: #262626; font: 10px 'Arial', 'Liberation Sans', 'DejaVu Sans', 'Bitstream Vera Sans', sans-serif; text-anchor: middle" x="438.137921" y="260.662745" transform="rotate(-0 438.137921 260.662745)">16.7%</text>
   </g>
   <g id="text_5">
    <text style="fill: #262626; font: 12px 'Arial', 'Liberation Sans', 'DejaVu Sans', 'Bitstream Vera Sans', sans-serif; text-anchor: middle" x="369" y="45.84" transform="rotate(-0 369 45.84)">Incidents by Source</text>
   </g>
  </g>
 </g>
</svg>
