<?xml version="1.0" encoding="utf-8" standalone="no"?>
<!DOCTYPE svg PUBLIC "-//W3C//DTD SVG 1.1//EN"
  "http://www.w3.org/Graphics/SVG/1.1/DTD/svg11.dtd">
<svg xmlns:xlink="http://www.w3.org/1999/xlink" width="720pt" height="432pt" viewBox="0 0 720 432" xmlns="http://www.w3.org/2000/svg" version="1.1">
 <metadata>
  <rdf:RDF xmlns:dc="http://purl.org/dc/elements/1.1/" xmlns:cc="http://creativecommons.org/ns#" xmlns:rdf="http://www.w3.org/1999/02/22-rdf-syntax-ns#">
   <cc:Work>
    <dc:type rdf:resource="http://purl.org/dc/dcmitype/StillImage"/>
    <dc:date>2026-02-08T06:42:40.870960</dc:date>
    <dc:format>image/svg+xml</dc:format>
    <dc:creator>
     <cc:Agent>
      <dc:title>Matplotlib v3.7.5, https://matplotlib.org/</dc:title>
     </cc:Agent>
    </dc:creator>
   </cc:Work>
  </rdf:RDF>
 </metadata>
 <defs>
  <style type="text/css">*{stroke-linejoin: round; stroke-linecap: butt}</style>
 </defs>
 <g id="figure_1">
  <g id="patch_1">
   <path d="M 0 432 
L 720 432 
L 720 0 
L 0 0 
z
" style="fill: #ffffff"/>
  </g>
  <g id="axes_1">
   <g id="matplotlib.axis_1"/>
   <g id="matplotlib.axis_2"/>
   <g id="patch_2">
    <path d="M 502.056 218.16 
C 502.056 200.707496 498.622221 183.424301 491.95073 167.297271 
C 485.279238 151.170241 475.499476 136.512277 463.169859 124.160337 
C 450.840242 111.808396 436.199994 102.002134 420.085059 95.30148 
C 403.970123 88.600826 386.693169 85.135789 369.240693 85.104218 
C 351.788218 85.072647 334.49884 88.475155 318.359768 95.117463 
C 302.220696 101.75977 287.545065 111.513 275.17084 123.820253 
C 262.796615 136.127506 252.963886 150.749991 246.234092 166.852779 
C 239.504298 182.955566 236.008013 200.226225 235.944871 217.678614 
C 235.881729 235.131004 239.252956 252.426509 245.866058 268.57757 
C 252.479159 284.728632 262.205826 299.421882 274.490674 311.81835 
C 286.775522 324.214817 301.380196 334.073982 317.470784 340.832894 
C 333.561371 347.591807 350.825677 351.119328 368.277924 351.214041 
C 385.730171 351.308753 403.031745 347.968818 419.194743 341.384944 
C 435.357741 334.80107 450.068562 325.100999 462.487233 312.838596 
C 474.905903 300.576193 484.791471 285.989377 491.579479 269.911042 
C 498.367488 253.832708 501.926234 236.574812 502.052517 219.122765 
L 369 218.16 
z
" style="fill: #f77189"/>
   </g>
   <g id="patch_3">
    <path d="M 502.052517 219.122765 
C 502.053666 218.963897 502.054531 218.805026 502.055112 218.646155 
C 502.055692 218.487283 502.055988 218.328411 502.056 218.169539 
L 369 218.16 
z
" style="fill: #bb9832"/>
   </g>
   <g id="patch_4">
    <path d="M 502.056 218.169539 
C 502.056 218.16795 502.056 218.166361 502.056 218.164772 
C 502.056 218.163184 502.056 218.161595 502.056 218.160006 
L 369 218.16 
z
" style="fill: #50b131"/>
   </g>
   <g id="text_1">
    <text style="fill: #262626; font: 10px 'Arial', 'Liberation Sans', 'DejaVu Sans', 'Bitstream Vera Sans', sans-serif; text-anchor: end" x="222.639358" y="220.216413" transform="rotate(-0 222.639358 220.216413)">newsapi</text>
   </g>
   <g id="text_2">
    <text style="fill: #262626; font: 10px 'Arial', 'Liberation Sans', 'DejaVu Sans', 'Bitstream Vera Sans', sans-serif; text-anchor: middle" x="289.166922" y="220.457106" transform="rotate(-0 289.166922 220.457106)">99.9%</text>
   </g>
   <g id="text_3">
    <text style="fill: #262626; font: 10px 'Arial', 'Liberation Sans', 'DejaVu Sans', 'Bitstream Vera Sans', sans-serif; text-anchor: start" x="515.360623" y="221.280708" transform="rotate(-0 515.360623 221.280708)">chicago_pd</text>
   </g>
   <g id="text_4">
    <text style="fill: #262626; font: 10px 'Arial', 'Liberation Sans', 'DejaVu Sans', 'Bitstream Vera Sans', sans-serif; text-anchor: middle" x="448.833067" y="221.03763" transform="rotate(-0 448.833067 221.03763)">0.1%</text>
   </g>
   <g id="text_5">
    <text style="fill: #262626; font: 10px 'Arial', 'Liberation Sans', 'DejaVu Sans', 'Bitstream Vera Sans', sans-serif; text-anchor: start" x="515.3616" y="220.751187" transform="rotate(-0 515.3616 220.751187)">chicago_police</text>
   </g>
   <g id="text_6">
    <text style="fill: #262626; font: 10px 'Arial', 'Liberation Sans', 'DejaVu Sans', 'Bitstream Vera Sans', sans-serif; text-anchor: middle" x="448.8336" y="220.748801" transform="rotate(-0 448.8336 220.748801)">0.0%</text>
   </g>
   <g id="text_7">
    <text style="fill: #262626; font: 12px 'Arial', 'Liberation Sans', 'DejaVu Sans', 'Bitstream Vera Sans', sans-serif; text-anchor: middle" x="369" y="45.84" transform="rotate(-0 369 45.84)">Incidents by Source</text>
   </g>
  </g>
 </g>
</svg>
