<?xml version="1.0" encoding="utf-8" standalone="no"?>
<!DOCTYPE svg PUBLIC "-//W3C//DTD SVG 1.1//EN"
  "http://www.w3.org/Graphics/SVG/1.1/DTD/svg11.dtd">
<svg xmlns:xlink="http://www.w3.org/1999/xlink" width="720pt" height="432pt" viewBox="0 0 720 432" xmlns="http://www.w3.org/2000/svg" version="1.1">
 <metadata>
  <rdf:RDF xmlns:dc="http://purl.org/dc/elements/1.1/" xmlns:cc="http://creativecommons.org/ns#" xmlns:rdf="http://www.w3.org/1999/02/22-rdf-syntax-ns#">
   <cc:Work>
    <dc:type rdf:resource="http://purl.org/dc/dcmitype/StillImage"/>
    <dc:date>2025-02-02T01:39:21.961945</dc:date>
    <dc:format>image/svg+xml</dc:format>
    <dc:creator>
     <cc:Agent>
      <dc:title>Matplotlib v3.7.5, https://matplotlib.org/</dc:title>
     </cc:Agent>
    </dc:creator>
   </cc:Work>
  </rdf:RDF>
 </metadata>
 <defs>
  <style type="text/css">*{stroke-linejoin: round; stroke-linecap: butt}</style>
 </defs>
 <g id="figure_1">
  <g id="patch_1">
   <path d="M 0 432 
L 720 432 
L 720 0 
L 0 0 
z
" style="fill: #ffffff"/>
  </g>
  <g id="axes_1">
   <g id="matplotlib.axis_1"/>
   <g id="matplotlib.axis_2"/>
   <g id="patch_2">
    <path d="M 502.056 218.16 
C 502.056 200.828007 498.669479 183.661834 492.087186 167.628387 
C 485.504892 151.59494 475.852778 137.001014 463.674508 124.668628 
C 451.496238 112.336242 437.024841 102.501372 421.075434 95.71798 
C 405.126027 88.934587 388.003797 85.33247 370.673174 85.11452 
C 353.342551 84.896571 336.13515 88.066961 320.020199 94.447114 
C 303.905248 100.827266 289.1911 110.2951 276.706548 122.317327 
C 264.221996 134.339555 254.205927 148.686135 247.222507 164.54898 
C 240.239088 180.411825 236.421944 197.487405 235.98608 214.813917 
C 235.550216 232.140429 238.503973 249.386337 244.680976 265.580244 
C 250.85798 281.774151 260.140035 296.606193 272.004319 309.240937 
C 283.868603 321.875681 298.088098 332.071366 313.861872 339.253708 
C 329.635647 346.436049 346.661876 350.467616 363.981537 351.121326 
C 381.301198 351.775035 398.582886 349.038379 414.853188 343.065502 
C 431.12349 337.092624 446.07108 327.997815 458.854018 316.293351 
C 471.636956 304.588886 482.010645 290.498726 489.390773 274.816517 
C 496.770902 259.134307 501.016254 242.160121 501.887706 224.850049 
L 369 218.16 
z
" style="fill: #f77189"/>
   </g>
   <g id="patch_3">
    <path d="M 501.887706 224.850049 
C 501.943238 223.746994 501.985033 222.64329 502.013083 221.539194 
C 502.041132 220.435097 502.055434 219.330695 502.055984 218.226243 
L 369 218.16 
z
" style="fill: #bb9832"/>
   </g>
   <g id="patch_4">
    <path d="M 502.055984 218.226243 
C 502.055989 218.215198 502.055993 218.204154 502.055996 218.193109 
C 502.055999 218.182065 502.056 218.171021 502.056 218.159976 
L 369 218.16 
z
" style="fill: #50b131"/>
   </g>
   <g id="text_1">
    <text style="fill: #262626; font: 10px 'Arial', 'Liberation Sans', 'DejaVu Sans', 'Bitstream Vera Sans', sans-serif; text-anchor: end" x="222.684688" y="217.065246" transform="rotate(-0 222.684688 217.065246)">newsapi</text>
   </g>
   <g id="text_2">
    <text style="fill: #262626; font: 10px 'Arial', 'Liberation Sans', 'DejaVu Sans', 'Bitstream Vera Sans', sans-serif; text-anchor: middle" x="289.191648" y="218.738288" transform="rotate(-0 289.191648 218.738288)">99.2%</text>
   </g>
   <g id="text_3">
    <text style="fill: #262626; font: 10px 'Arial', 'Liberation Sans', 'DejaVu Sans', 'Bitstream Vera Sans', sans-serif; text-anchor: start" x="515.314391" y="224.46305" transform="rotate(-0 515.314391 224.46305)">chicago_pd</text>
   </g>
   <g id="text_4">
    <text style="fill: #262626; font: 10px 'Arial', 'Liberation Sans', 'DejaVu Sans', 'Bitstream Vera Sans', sans-serif; text-anchor: middle" x="448.80785" y="222.773454" transform="rotate(-0 448.80785 222.773454)">0.8%</text>
   </g>
   <g id="text_5">
    <text style="fill: #262626; font: 10px 'Arial', 'Liberation Sans', 'DejaVu Sans', 'Bitstream Vera Sans', sans-serif; text-anchor: start" x="515.361595" y="220.782358" transform="rotate(-0 515.361595 220.782358)">chicago_police</text>
   </g>
   <g id="text_6">
    <text style="fill: #262626; font: 10px 'Arial', 'Liberation Sans', 'DejaVu Sans', 'Bitstream Vera Sans', sans-serif; text-anchor: middle" x="448.833598" y="220.765803" transform="rotate(-0 448.833598 220.765803)">0.0%</text>
   </g>
   <g id="text_7">
    <text style="fill: #262626; font: 12px 'Arial', 'Liberation Sans', 'DejaVu Sans', 'Bitstream Vera Sans', sans-serif; text-anchor: middle" x="369" y="45.84" transform="rotate(-0 369 45.84)">Incidents by Source</text>
   </g>
  </g>
 </g>
</svg>
