<?xml version="1.0" encoding="utf-8" standalone="no"?>
<!DOCTYPE svg PUBLIC "-//W3C//DTD SVG 1.1//EN"
  "http://www.w3.org/Graphics/SVG/1.1/DTD/svg11.dtd">
<svg xmlns:xlink="http://www.w3.org/1999/xlink" width="720pt" height="432pt" viewBox="0 0 720 432" xmlns="http://www.w3.org/2000/svg" version="1.1">
 <metadata>
  <rdf:RDF xmlns:dc="http://purl.org/dc/elements/1.1/" xmlns:cc="http://creativecommons.org/ns#" xmlns:rdf="http://www.w3.org/1999/02/22-rdf-syntax-ns#">
   <cc:Work>
    <dc:type rdf:resource="http://purl.org/dc/dcmitype/StillImage"/>
    <dc:date>2026-04-12T13:12:49.477739</dc:date>
    <dc:format>image/svg+xml</dc:format>
    <dc:creator>
     <cc:Agent>
      <dc:title>Matplotlib v3.7.5, https://matplotlib.org/</dc:title>
     </cc:Agent>
    </dc:creator>
   </cc:Work>
  </rdf:RDF>
 </metadata>
 <defs>
  <style type="text/css">*{stroke-linejoin: round; stroke-linecap: butt}</style>
 </defs>
 <g id="figure_1">
  <g id="patch_1">
   <path d="M 0 432 
L 720 432 
L 720 0 
L 0 0 
z
" style="fill: #ffffff"/>
  </g>
  <g id="axes_1">
   <g id="matplotlib.axis_1"/>
   <g id="matplotlib.axis_2"/>
   <g id="patch_2">
    <path d="M 502.056 218.16 
C 502.056 200.70528 498.621349 183.419935 491.948213 167.291188 
C 485.275076 151.16244 475.492961 136.503306 463.160556 124.151018 
C 450.828152 111.798729 436.184796 101.99301 420.06682 95.293898 
C 403.948845 88.594786 386.669055 85.132293 369.214358 85.104173 
C 351.759661 85.076053 334.468804 88.482851 318.329327 95.129995 
C 302.189851 101.777139 287.514976 111.535625 275.142836 123.848114 
C 262.770695 136.160603 252.941398 150.788142 246.216328 166.895304 
C 239.491258 183.002467 236.000931 200.276656 235.944691 217.731285 
C 235.88845 235.185914 239.267389 252.482236 245.888523 268.632401 
C 252.509657 284.782566 262.244489 299.473143 274.537029 311.865103 
C 286.82957 324.257063 301.441255 334.109913 317.537562 340.860924 
C 333.633869 347.611934 350.902413 351.130086 368.356929 351.214446 
C 385.811444 351.298806 403.113188 347.947737 419.273999 341.35263 
C 435.434809 334.757523 450.14105 325.046371 462.552798 312.77381 
C 474.964546 300.501249 484.840923 285.905457 491.617856 269.820047 
C 498.39479 253.734637 501.940757 236.471783 502.053237 219.017426 
L 369 218.16 
z
" style="fill: #f77189"/>
   </g>
   <g id="patch_3">
    <path d="M 502.053237 219.017426 
C 502.054149 218.875935 502.054835 218.734443 502.055296 218.59295 
C 502.055756 218.451457 502.055991 218.309963 502.056 218.16847 
L 369 218.16 
z
" style="fill: #bb9832"/>
   </g>
   <g id="patch_4">
    <path d="M 502.056 218.16847 
C 502.056 218.167055 502.056 218.16564 502.056 218.164225 
C 502.056 218.16281 502.056 218.161395 502.056 218.15998 
L 369 218.16 
z
" style="fill: #50b131"/>
   </g>
   <g id="text_1">
    <text style="fill: #262626; font: 10px 'Arial', 'Liberation Sans', 'DejaVu Sans', 'Bitstream Vera Sans', sans-serif; text-anchor: end" x="222.63916" y="220.274351" transform="rotate(-0 222.63916 220.274351)">newsapi</text>
   </g>
   <g id="text_2">
    <text style="fill: #262626; font: 10px 'Arial', 'Liberation Sans', 'DejaVu Sans', 'Bitstream Vera Sans', sans-serif; text-anchor: middle" x="289.166814" y="220.488708" transform="rotate(-0 289.166814 220.488708)">99.9%</text>
   </g>
   <g id="text_3">
    <text style="fill: #262626; font: 10px 'Arial', 'Liberation Sans', 'DejaVu Sans', 'Bitstream Vera Sans', sans-serif; text-anchor: start" x="515.360825" y="221.222182" transform="rotate(-0 515.360825 221.222182)">chicago_pd</text>
   </g>
   <g id="text_4">
    <text style="fill: #262626; font: 10px 'Arial', 'Liberation Sans', 'DejaVu Sans', 'Bitstream Vera Sans', sans-serif; text-anchor: middle" x="448.833177" y="221.005707" transform="rotate(-0 448.833177 221.005707)">0.1%</text>
   </g>
   <g id="text_5">
    <text style="fill: #262626; font: 10px 'Arial', 'Liberation Sans', 'DejaVu Sans', 'Bitstream Vera Sans', sans-serif; text-anchor: start" x="515.3616" y="220.750585" transform="rotate(-0 515.3616 220.750585)">chicago_police</text>
   </g>
   <g id="text_6">
    <text style="fill: #262626; font: 10px 'Arial', 'Liberation Sans', 'DejaVu Sans', 'Bitstream Vera Sans', sans-serif; text-anchor: middle" x="448.8336" y="220.748472" transform="rotate(-0 448.8336 220.748472)">0.0%</text>
   </g>
   <g id="text_7">
    <text style="fill: #262626; font: 12px 'Arial', 'Liberation Sans', 'DejaVu Sans', 'Bitstream Vera Sans', sans-serif; text-anchor: middle" x="369" y="45.84" transform="rotate(-0 369 45.84)">Incidents by Source</text>
   </g>
  </g>
 </g>
</svg>
