<?xml version="1.0" encoding="utf-8" standalone="no"?>
<!DOCTYPE svg PUBLIC "-//W3C//DTD SVG 1.1//EN"
  "http://www.w3.org/Graphics/SVG/1.1/DTD/svg11.dtd">
<svg xmlns:xlink="http://www.w3.org/1999/xlink" width="720pt" height="432pt" viewBox="0 0 720 432" xmlns="http://www.w3.org/2000/svg" version="1.1">
 <metadata>
  <rdf:RDF xmlns:dc="http://purl.org/dc/elements/1.1/" xmlns:cc="http://creativecommons.org/ns#" xmlns:rdf="http://www.w3.org/1999/02/22-rdf-syntax-ns#">
   <cc:Work>
    <dc:type rdf:resource="http://purl.org/dc/dcmitype/StillImage"/>
    <dc:date>2025-07-27T02:20:18.336248</dc:date>
    <dc:format>image/svg+xml</dc:format>
    <dc:creator>
     <cc:Agent>
      <dc:title>Matplotlib v3.7.5, https://matplotlib.org/</dc:title>
     </cc:Agent>
    </dc:creator>
   </cc:Work>
  </rdf:RDF>
 </metadata>
 <defs>
  <style type="text/css">*{stroke-linejoin: round; stroke-linecap: butt}</style>
 </defs>
 <g id="figure_1">
  <g id="patch_1">
   <path d="M 0 432 
L 720 432 
L 720 0 
L 0 0 
z
" style="fill: #ffffff"/>
  </g>
  <g id="axes_1">
   <g id="matplotlib.axis_1"/>
   <g id="matplotlib.axis_2"/>
   <g id="patch_2">
    <path d="M 502.056 218.16 
C 502.056 200.724981 498.629098 183.458761 491.970582 167.345287 
C 485.312066 151.231812 475.550867 136.583093 463.243243 124.233911 
C 450.935619 111.884729 436.319888 102.074205 420.22895 95.36141 
C 404.138012 88.648614 386.883443 85.163528 369.448523 85.104756 
C 352.013602 85.045984 334.735929 88.414663 318.600101 95.018824 
C 302.464272 101.622985 287.782732 111.334748 275.392132 123.600674 
C 263.001532 135.8666 253.141795 150.449178 246.374797 166.517395 
C 239.607798 182.585613 236.064568 199.828337 235.947024 217.26296 
C 235.82948 234.697583 239.139898 251.986513 245.689629 268.144512 
C 252.239359 284.302511 261.901577 299.016706 274.125665 311.448583 
C 286.349754 323.880461 300.899012 333.789298 316.944328 340.610423 
C 332.989643 347.431548 350.220325 351.032882 367.654452 351.209196 
C 385.08858 351.38551 402.388572 348.133391 418.568558 341.638165 
C 434.748544 335.142939 449.495225 325.530377 461.968238 313.348265 
C 474.441252 301.166153 484.399077 286.650379 491.274251 270.628148 
C 498.149426 254.605918 501.808822 237.387474 502.043905 219.95404 
L 369 218.16 
z
" style="fill: #f77189"/>
   </g>
   <g id="patch_3">
    <path d="M 502.043905 219.95404 
C 502.047896 219.65801 502.0509 219.361968 502.052916 219.065918 
C 502.054932 218.769868 502.055959 218.473813 502.055999 218.177756 
L 369 218.16 
z
" style="fill: #bb9832"/>
   </g>
   <g id="patch_4">
    <path d="M 502.055999 218.177756 
C 502.055999 218.174796 502.056 218.171835 502.056 218.168875 
C 502.056 218.165914 502.056 218.162954 502.056 218.159993 
L 369 218.16 
z
" style="fill: #50b131"/>
   </g>
   <g id="text_1">
    <text style="fill: #262626; font: 10px 'Arial', 'Liberation Sans', 'DejaVu Sans', 'Bitstream Vera Sans', sans-serif; text-anchor: end" x="222.641726" y="219.759193" transform="rotate(-0 222.641726 219.759193)">newsapi</text>
   </g>
   <g id="text_2">
    <text style="fill: #262626; font: 10px 'Arial', 'Liberation Sans', 'DejaVu Sans', 'Bitstream Vera Sans', sans-serif; text-anchor: middle" x="289.168214" y="220.207713" transform="rotate(-0 289.168214 220.207713)">99.8%</text>
   </g>
   <g id="text_3">
    <text style="fill: #262626; font: 10px 'Arial', 'Liberation Sans', 'DejaVu Sans', 'Bitstream Vera Sans', sans-serif; text-anchor: start" x="515.358208" y="221.742447" transform="rotate(-0 515.358208 221.742447)">chicago_pd</text>
   </g>
   <g id="text_4">
    <text style="fill: #262626; font: 10px 'Arial', 'Liberation Sans', 'DejaVu Sans', 'Bitstream Vera Sans', sans-serif; text-anchor: middle" x="448.83175" y="221.289488" transform="rotate(-0 448.83175 221.289488)">0.2%</text>
   </g>
   <g id="text_5">
    <text style="fill: #262626; font: 10px 'Arial', 'Liberation Sans', 'DejaVu Sans', 'Bitstream Vera Sans', sans-serif; text-anchor: start" x="515.3616" y="220.7557" transform="rotate(-0 515.3616 220.7557)">chicago_police</text>
   </g>
   <g id="text_6">
    <text style="fill: #262626; font: 10px 'Arial', 'Liberation Sans', 'DejaVu Sans', 'Bitstream Vera Sans', sans-serif; text-anchor: middle" x="448.8336" y="220.751262" transform="rotate(-0 448.8336 220.751262)">0.0%</text>
   </g>
   <g id="text_7">
    <text style="fill: #262626; font: 12px 'Arial', 'Liberation Sans', 'DejaVu Sans', 'Bitstream Vera Sans', sans-serif; text-anchor: middle" x="369" y="45.84" transform="rotate(-0 369 45.84)">Incidents by Source</text>
   </g>
  </g>
 </g>
</svg>
