<?xml version="1.0" encoding="utf-8" standalone="no"?>
<!DOCTYPE svg PUBLIC "-//W3C//DTD SVG 1.1//EN"
  "http://www.w3.org/Graphics/SVG/1.1/DTD/svg11.dtd">
<svg xmlns:xlink="http://www.w3.org/1999/xlink" width="720pt" height="432pt" viewBox="0 0 720 432" xmlns="http://www.w3.org/2000/svg" version="1.1">
 <metadata>
  <rdf:RDF xmlns:dc="http://purl.org/dc/elements/1.1/" xmlns:cc="http://creativecommons.org/ns#" xmlns:rdf="http://www.w3.org/1999/02/22-rdf-syntax-ns#">
   <cc:Work>
    <dc:type rdf:resource="http://purl.org/dc/dcmitype/StillImage"/>
    <dc:date>2025-05-11T01:11:36.182452</dc:date>
    <dc:format>image/svg+xml</dc:format>
    <dc:creator>
     <cc:Agent>
      <dc:title>Matplotlib v3.7.5, https://matplotlib.org/</dc:title>
     </cc:Agent>
    </dc:creator>
   </cc:Work>
  </rdf:RDF>
 </metadata>
 <defs>
  <style type="text/css">*{stroke-linejoin: round; stroke-linecap: butt}</style>
 </defs>
 <g id="figure_1">
  <g id="patch_1">
   <path d="M 0 432 
L 720 432 
L 720 0 
L 0 0 
z
" style="fill: #ffffff"/>
  </g>
  <g id="axes_1">
   <g id="matplotlib.axis_1"/>
   <g id="matplotlib.axis_2"/>
   <g id="patch_2">
    <path d="M 502.056 218.16 
C 502.056 200.74353 498.636386 183.49532 491.991623 167.396235 
C 485.34686 151.297149 475.605338 136.658254 463.321033 124.312028 
C 451.036729 111.965802 436.447 102.150799 420.381528 95.425173 
C 404.316055 88.699547 387.085258 85.193252 369.669008 85.105682 
C 352.252758 85.018112 334.987573 88.350958 318.85528 94.914691 
C 302.722988 101.478424 288.035298 111.146218 275.627462 123.36829 
C 263.219626 135.590362 253.33139 150.130557 246.525072 166.162009 
C 239.718753 182.193462 236.125866 199.406412 235.950728 216.822001 
C 235.775589 234.237591 239.021584 251.519315 245.50412 267.684406 
C 251.986657 283.849497 261.580478 298.585611 273.740009 311.054743 
C 285.89954 323.523875 300.389833 333.485095 316.386861 340.371934 
C 332.383888 347.258772 349.578555 350.938161 366.993044 351.200863 
C 384.407533 351.463565 401.70536 348.304504 417.902841 341.903328 
C 434.100322 335.502152 448.884488 325.982545 461.4146 313.885863 
C 473.944713 301.789181 483.978664 287.349156 490.945849 271.386958 
C 497.913034 255.42476 501.678831 238.24881 502.02909 220.835862 
L 369 218.16 
z
" style="fill: #f77189"/>
   </g>
   <g id="patch_3">
    <path d="M 502.02909 220.835862 
C 502.037971 220.394357 502.044654 219.952811 502.049139 219.511239 
C 502.053623 219.069668 502.055909 218.628077 502.055997 218.186483 
L 369 218.16 
z
" style="fill: #bb9832"/>
   </g>
   <g id="patch_4">
    <path d="M 502.055997 218.186483 
C 502.055998 218.182067 502.055999 218.177651 502.055999 218.173235 
C 502.056 218.168819 502.056 218.164403 502.056 218.159987 
L 369 218.16 
z
" style="fill: #50b131"/>
   </g>
   <g id="text_1">
    <text style="fill: #262626; font: 10px 'Arial', 'Liberation Sans', 'DejaVu Sans', 'Bitstream Vera Sans', sans-serif; text-anchor: end" x="222.6458" y="219.274139" transform="rotate(-0 222.6458 219.274139)">newsapi</text>
   </g>
   <g id="text_2">
    <text style="fill: #262626; font: 10px 'Arial', 'Liberation Sans', 'DejaVu Sans', 'Bitstream Vera Sans', sans-serif; text-anchor: middle" x="289.170437" y="219.943138" transform="rotate(-0 289.170437 219.943138)">99.7%</text>
   </g>
   <g id="text_3">
    <text style="fill: #262626; font: 10px 'Arial', 'Liberation Sans', 'DejaVu Sans', 'Bitstream Vera Sans', sans-serif; text-anchor: start" x="515.354052" y="222.232301" transform="rotate(-0 515.354052 222.232301)">chicago_pd</text>
   </g>
   <g id="text_4">
    <text style="fill: #262626; font: 10px 'Arial', 'Liberation Sans', 'DejaVu Sans', 'Bitstream Vera Sans', sans-serif; text-anchor: middle" x="448.829483" y="221.556681" transform="rotate(-0 448.829483 221.556681)">0.3%</text>
   </g>
   <g id="text_5">
    <text style="fill: #262626; font: 10px 'Arial', 'Liberation Sans', 'DejaVu Sans', 'Bitstream Vera Sans', sans-serif; text-anchor: start" x="515.361599" y="220.760496" transform="rotate(-0 515.361599 220.760496)">chicago_police</text>
   </g>
   <g id="text_6">
    <text style="fill: #262626; font: 10px 'Arial', 'Liberation Sans', 'DejaVu Sans', 'Bitstream Vera Sans', sans-serif; text-anchor: middle" x="448.8336" y="220.753879" transform="rotate(-0 448.8336 220.753879)">0.0%</text>
   </g>
   <g id="text_7">
    <text style="fill: #262626; font: 12px 'Arial', 'Liberation Sans', 'DejaVu Sans', 'Bitstream Vera Sans', sans-serif; text-anchor: middle" x="369" y="45.84" transform="rotate(-0 369 45.84)">Incidents by Source</text>
   </g>
  </g>
 </g>
</svg>
