<?xml version="1.0" encoding="utf-8" standalone="no"?>
<!DOCTYPE svg PUBLIC "-//W3C//DTD SVG 1.1//EN"
  "http://www.w3.org/Graphics/SVG/1.1/DTD/svg11.dtd">
<svg xmlns:xlink="http://www.w3.org/1999/xlink" width="720pt" height="432pt" viewBox="0 0 720 432" xmlns="http://www.w3.org/2000/svg" version="1.1">
 <metadata>
  <rdf:RDF xmlns:dc="http://purl.org/dc/elements/1.1/" xmlns:cc="http://creativecommons.org/ns#" xmlns:rdf="http://www.w3.org/1999/02/22-rdf-syntax-ns#">
   <cc:Work>
    <dc:type rdf:resource="http://purl.org/dc/dcmitype/StillImage"/>
    <dc:date>2025-06-15T18:18:15.442841</dc:date>
    <dc:format>image/svg+xml</dc:format>
    <dc:creator>
     <cc:Agent>
      <dc:title>Matplotlib v3.7.5, https://matplotlib.org/</dc:title>
     </cc:Agent>
    </dc:creator>
   </cc:Work>
  </rdf:RDF>
 </metadata>
 <defs>
  <style type="text/css">*{stroke-linejoin: round; stroke-linecap: butt}</style>
 </defs>
 <g id="figure_1">
  <g id="patch_1">
   <path d="M 0 432 
L 720 432 
L 720 0 
L 0 0 
z
" style="fill: #ffffff"/>
  </g>
  <g id="axes_1">
   <g id="matplotlib.axis_1"/>
   <g id="matplotlib.axis_2"/>
   <g id="patch_2">
    <path d="M 502.056 218.16 
C 502.056 200.732926 498.632221 183.474421 491.979597 167.367108 
C 485.326973 151.259796 475.574205 136.615283 463.276571 124.267363 
C 450.978937 111.919443 436.374344 102.106996 420.294313 95.388698 
C 404.214282 88.6704 386.969892 85.176223 369.542963 85.105108 
C 352.116034 85.033993 334.843701 88.387317 318.709375 94.974156 
C 302.575049 101.560995 287.89086 111.253922 275.49286 123.501065 
C 263.09486 135.748209 253.222897 150.312638 246.439038 166.36512 
C 239.655178 182.417601 236.09066 199.647589 235.948431 217.074083 
C 235.806203 234.500577 239.089015 251.78645 245.60996 267.94752 
C 252.130905 284.108591 261.763829 298.832212 273.960278 311.280086 
C 286.156726 323.72796 300.68075 333.659273 316.705415 340.508582 
C 332.73008 347.357891 349.945379 350.99269 367.371147 351.20603 
C 384.796915 351.419369 402.096041 348.207123 418.283587 341.752181 
C 434.471133 335.297239 449.23394 325.724478 461.731481 313.578927 
C 474.229021 301.433376 484.219521 286.95 491.134164 270.953419 
C 498.048808 254.956837 501.753827 237.756515 502.038275 220.331762 
L 369 218.16 
z
" style="fill: #f77189"/>
   </g>
   <g id="patch_3">
    <path d="M 502.038275 220.331762 
C 502.044125 219.973416 502.048527 219.615049 502.05148 219.256668 
C 502.054434 218.898287 502.05594 218.539895 502.055998 218.181502 
L 369 218.16 
z
" style="fill: #bb9832"/>
   </g>
   <g id="patch_4">
    <path d="M 502.055998 218.181502 
C 502.055999 218.177918 502.055999 218.174334 502.056 218.17075 
C 502.056 218.167166 502.056 218.163582 502.056 218.159998 
L 369 218.16 
z
" style="fill: #50b131"/>
   </g>
   <g id="text_1">
    <text style="fill: #262626; font: 10px 'Arial', 'Liberation Sans', 'DejaVu Sans', 'Bitstream Vera Sans', sans-serif; text-anchor: end" x="222.643274" y="219.551429" transform="rotate(-0 222.643274 219.551429)">newsapi</text>
   </g>
   <g id="text_2">
    <text style="fill: #262626; font: 10px 'Arial', 'Liberation Sans', 'DejaVu Sans', 'Bitstream Vera Sans', sans-serif; text-anchor: middle" x="289.169059" y="220.094387" transform="rotate(-0 289.169059 220.094387)">99.7%</text>
   </g>
   <g id="text_3">
    <text style="fill: #262626; font: 10px 'Arial', 'Liberation Sans', 'DejaVu Sans', 'Bitstream Vera Sans', sans-serif; text-anchor: start" x="515.356629" y="221.952272" transform="rotate(-0 515.356629 221.952272)">chicago_pd</text>
   </g>
   <g id="text_4">
    <text style="fill: #262626; font: 10px 'Arial', 'Liberation Sans', 'DejaVu Sans', 'Bitstream Vera Sans', sans-serif; text-anchor: middle" x="448.830888" y="221.403938" transform="rotate(-0 448.830888 221.403938)">0.3%</text>
   </g>
   <g id="text_5">
    <text style="fill: #262626; font: 10px 'Arial', 'Liberation Sans', 'DejaVu Sans', 'Bitstream Vera Sans', sans-serif; text-anchor: start" x="515.3616" y="220.757763" transform="rotate(-0 515.3616 220.757763)">chicago_police</text>
   </g>
   <g id="text_6">
    <text style="fill: #262626; font: 10px 'Arial', 'Liberation Sans', 'DejaVu Sans', 'Bitstream Vera Sans', sans-serif; text-anchor: middle" x="448.8336" y="220.752388" transform="rotate(-0 448.8336 220.752388)">0.0%</text>
   </g>
   <g id="text_7">
    <text style="fill: #262626; font: 12px 'Arial', 'Liberation Sans', 'DejaVu Sans', 'Bitstream Vera Sans', sans-serif; text-anchor: middle" x="369" y="45.84" transform="rotate(-0 369 45.84)">Incidents by Source</text>
   </g>
  </g>
 </g>
</svg>
