<?xml version="1.0" encoding="utf-8" standalone="no"?>
<!DOCTYPE svg PUBLIC "-//W3C//DTD SVG 1.1//EN"
  "http://www.w3.org/Graphics/SVG/1.1/DTD/svg11.dtd">
<svg xmlns:xlink="http://www.w3.org/1999/xlink" width="720pt" height="432pt" viewBox="0 0 720 432" xmlns="http://www.w3.org/2000/svg" version="1.1">
 <metadata>
  <rdf:RDF xmlns:dc="http://purl.org/dc/elements/1.1/" xmlns:cc="http://creativecommons.org/ns#" xmlns:rdf="http://www.w3.org/1999/02/22-rdf-syntax-ns#">
   <cc:Work>
    <dc:type rdf:resource="http://purl.org/dc/dcmitype/StillImage"/>
    <dc:date>2025-05-28T01:54:24.080933</dc:date>
    <dc:format>image/svg+xml</dc:format>
    <dc:creator>
     <cc:Agent>
      <dc:title>Matplotlib v3.7.5, https://matplotlib.org/</dc:title>
     </cc:Agent>
    </dc:creator>
   </cc:Work>
  </rdf:RDF>
 </metadata>
 <defs>
  <style type="text/css">*{stroke-linejoin: round; stroke-linecap: butt}</style>
 </defs>
 <g id="figure_1">
  <g id="patch_1">
   <path d="M 0 432 
L 720 432 
L 720 0 
L 0 0 
z
" style="fill: #ffffff"/>
  </g>
  <g id="axes_1">
   <g id="matplotlib.axis_1"/>
   <g id="matplotlib.axis_2"/>
   <g id="patch_2">
    <path d="M 502.056 218.16 
C 502.056 200.738196 498.634291 183.484809 491.985575 167.381585 
C 485.336859 151.278361 475.589681 136.63664 463.298673 124.28956 
C 451.007665 111.942481 436.41046 102.128762 420.337665 95.40682 
C 404.26487 88.684878 387.027235 85.184675 369.605612 85.105378 
C 352.183988 85.026082 334.915205 88.369225 318.781886 94.944578 
C 302.648567 101.519931 287.962633 111.200365 275.559738 123.435047 
C 263.156844 135.66973 253.276786 150.222116 246.481757 166.264149 
C 239.686729 182.306182 236.108104 199.527707 235.949513 216.948789 
C 235.790922 234.369871 239.055431 251.653692 245.557284 267.816772 
C 252.059137 283.979852 261.672627 298.709695 273.85073 311.168148 
C 286.028833 323.626601 300.536099 333.572792 316.547038 340.440767 
C 332.557977 347.308741 349.763035 350.965714 367.183215 351.203596 
C 384.603395 351.441478 401.901895 348.255671 418.094401 341.827453 
C 434.286907 335.399235 449.060354 325.852888 461.574107 313.731616 
C 474.08786 301.610344 484.099979 287.1485 491.040757 271.168986 
C 497.981536 255.189473 501.71678 238.001238 502.033949 220.582322 
L 369 218.16 
z
" style="fill: #f77189"/>
   </g>
   <g id="patch_3">
    <path d="M 502.033949 220.582322 
C 502.041226 220.18264 502.046702 219.782927 502.050377 219.383196 
C 502.054052 218.983465 502.055926 218.58372 502.055998 218.183972 
L 369 218.16 
z
" style="fill: #bb9832"/>
   </g>
   <g id="patch_4">
    <path d="M 502.055998 218.183972 
C 502.055999 218.179974 502.055999 218.175977 502.055999 218.171979 
C 502.056 218.167982 502.056 218.163984 502.056 218.159987 
L 369 218.16 
z
" style="fill: #50b131"/>
   </g>
   <g id="text_1">
    <text style="fill: #262626; font: 10px 'Arial', 'Liberation Sans', 'DejaVu Sans', 'Bitstream Vera Sans', sans-serif; text-anchor: end" x="222.644464" y="219.413605" transform="rotate(-0 222.644464 219.413605)">newsapi</text>
   </g>
   <g id="text_2">
    <text style="fill: #262626; font: 10px 'Arial', 'Liberation Sans', 'DejaVu Sans', 'Bitstream Vera Sans', sans-serif; text-anchor: middle" x="289.169708" y="220.019211" transform="rotate(-0 289.169708 220.019211)">99.7%</text>
   </g>
   <g id="text_3">
    <text style="fill: #262626; font: 10px 'Arial', 'Liberation Sans', 'DejaVu Sans', 'Bitstream Vera Sans', sans-serif; text-anchor: start" x="515.355415" y="222.091453" transform="rotate(-0 515.355415 222.091453)">chicago_pd</text>
   </g>
   <g id="text_4">
    <text style="fill: #262626; font: 10px 'Arial', 'Liberation Sans', 'DejaVu Sans', 'Bitstream Vera Sans', sans-serif; text-anchor: middle" x="448.830226" y="221.479855" transform="rotate(-0 448.830226 221.479855)">0.3%</text>
   </g>
   <g id="text_5">
    <text style="fill: #262626; font: 10px 'Arial', 'Liberation Sans', 'DejaVu Sans', 'Bitstream Vera Sans', sans-serif; text-anchor: start" x="515.361599" y="220.759115" transform="rotate(-0 515.361599 220.759115)">chicago_police</text>
   </g>
   <g id="text_6">
    <text style="fill: #262626; font: 10px 'Arial', 'Liberation Sans', 'DejaVu Sans', 'Bitstream Vera Sans', sans-serif; text-anchor: middle" x="448.8336" y="220.753125" transform="rotate(-0 448.8336 220.753125)">0.0%</text>
   </g>
   <g id="text_7">
    <text style="fill: #262626; font: 12px 'Arial', 'Liberation Sans', 'DejaVu Sans', 'Bitstream Vera Sans', sans-serif; text-anchor: middle" x="369" y="45.84" transform="rotate(-0 369 45.84)">Incidents by Source</text>
   </g>
  </g>
 </g>
</svg>
