<?xml version="1.0" encoding="utf-8" standalone="no"?>
<!DOCTYPE svg PUBLIC "-//W3C//DTD SVG 1.1//EN"
  "http://www.w3.org/Graphics/SVG/1.1/DTD/svg11.dtd">
<svg xmlns:xlink="http://www.w3.org/1999/xlink" width="720pt" height="432pt" viewBox="0 0 720 432" xmlns="http://www.w3.org/2000/svg" version="1.1">
 <metadata>
  <rdf:RDF xmlns:dc="http://purl.org/dc/elements/1.1/" xmlns:cc="http://creativecommons.org/ns#" xmlns:rdf="http://www.w3.org/1999/02/22-rdf-syntax-ns#">
   <cc:Work>
    <dc:type rdf:resource="http://purl.org/dc/dcmitype/StillImage"/>
    <dc:date>2025-08-16T12:45:45.062404</dc:date>
    <dc:format>image/svg+xml</dc:format>
    <dc:creator>
     <cc:Agent>
      <dc:title>Matplotlib v3.7.5, https://matplotlib.org/</dc:title>
     </cc:Agent>
    </dc:creator>
   </cc:Work>
  </rdf:RDF>
 </metadata>
 <defs>
  <style type="text/css">*{stroke-linejoin: round; stroke-linecap: butt}</style>
 </defs>
 <g id="figure_1">
  <g id="patch_1">
   <path d="M 0 432 
L 720 432 
L 720 0 
L 0 0 
z
" style="fill: #ffffff"/>
  </g>
  <g id="axes_1">
   <g id="matplotlib.axis_1"/>
   <g id="matplotlib.axis_2"/>
   <g id="patch_2">
    <path d="M 502.056 218.16 
C 502.056 200.721628 498.62778 183.452154 491.966777 167.336079 
C 485.305774 151.220005 475.541016 136.569511 463.229176 124.219798 
C 450.917336 111.870085 436.296904 102.060376 420.201364 95.349905 
C 404.105824 88.639434 386.846961 85.158188 369.408671 85.104628 
C 351.970381 85.051067 334.690459 88.426229 318.554002 95.037702 
C 302.417544 101.649174 287.737129 111.368888 275.349659 123.642738 
C 262.962189 135.916589 253.107621 150.506823 246.347745 166.581676 
C 239.587869 182.656529 236.053631 199.904619 235.94651 217.342662 
C 235.83939 234.780705 239.161462 252.070912 245.723341 268.2276 
C 252.285221 284.384288 261.959799 299.094488 274.195545 311.519597 
C 286.43129 323.944707 300.991188 333.844041 317.045203 340.653258 
C 333.099218 347.462474 350.336371 351.049672 367.774002 351.210352 
C 385.211634 351.371031 402.511964 348.10208 418.688729 341.589856 
C 434.865495 335.077631 449.60534 325.44828 462.067972 313.250755 
C 474.530604 301.053229 484.474612 286.523806 491.333105 270.490781 
C 498.191598 254.457755 501.831721 237.231701 502.045958 219.794645 
L 369 218.16 
z
" style="fill: #f77189"/>
   </g>
   <g id="patch_3">
    <path d="M 502.045958 219.794645 
C 502.049273 219.524912 502.051766 219.255169 502.05344 218.98542 
C 502.055113 218.715671 502.055966 218.445918 502.055999 218.176164 
L 369 218.16 
z
" style="fill: #bb9832"/>
   </g>
   <g id="patch_4">
    <path d="M 502.055999 218.176164 
C 502.055999 218.173466 502.056 218.170769 502.056 218.168071 
C 502.056 218.165374 502.056 218.162676 502.056 218.159979 
L 369 218.16 
z
" style="fill: #50b131"/>
   </g>
   <g id="text_1">
    <text style="fill: #262626; font: 10px 'Arial', 'Liberation Sans', 'DejaVu Sans', 'Bitstream Vera Sans', sans-serif; text-anchor: end" x="222.641161" y="219.846866" transform="rotate(-0 222.641161 219.846866)">newsapi</text>
   </g>
   <g id="text_2">
    <text style="fill: #262626; font: 10px 'Arial', 'Liberation Sans', 'DejaVu Sans', 'Bitstream Vera Sans', sans-serif; text-anchor: middle" x="289.167906" y="220.255535" transform="rotate(-0 289.167906 220.255535)">99.8%</text>
   </g>
   <g id="text_3">
    <text style="fill: #262626; font: 10px 'Arial', 'Liberation Sans', 'DejaVu Sans', 'Bitstream Vera Sans', sans-serif; text-anchor: start" x="515.358784" y="221.653899" transform="rotate(-0 515.358784 221.653899)">chicago_pd</text>
   </g>
   <g id="text_4">
    <text style="fill: #262626; font: 10px 'Arial', 'Liberation Sans', 'DejaVu Sans', 'Bitstream Vera Sans', sans-serif; text-anchor: middle" x="448.832064" y="221.241189" transform="rotate(-0 448.832064 221.241189)">0.2%</text>
   </g>
   <g id="text_5">
    <text style="fill: #262626; font: 10px 'Arial', 'Liberation Sans', 'DejaVu Sans', 'Bitstream Vera Sans', sans-serif; text-anchor: start" x="515.3616" y="220.754816" transform="rotate(-0 515.3616 220.754816)">chicago_police</text>
   </g>
   <g id="text_6">
    <text style="fill: #262626; font: 10px 'Arial', 'Liberation Sans', 'DejaVu Sans', 'Bitstream Vera Sans', sans-serif; text-anchor: middle" x="448.8336" y="220.75078" transform="rotate(-0 448.8336 220.75078)">0.0%</text>
   </g>
   <g id="text_7">
    <text style="fill: #262626; font: 12px 'Arial', 'Liberation Sans', 'DejaVu Sans', 'Bitstream Vera Sans', sans-serif; text-anchor: middle" x="369" y="45.84" transform="rotate(-0 369 45.84)">Incidents by Source</text>
   </g>
  </g>
 </g>
</svg>
