<?xml version="1.0" encoding="utf-8" standalone="no"?>
<!DOCTYPE svg PUBLIC "-//W3C//DTD SVG 1.1//EN"
  "http://www.w3.org/Graphics/SVG/1.1/DTD/svg11.dtd">
<svg xmlns:xlink="http://www.w3.org/1999/xlink" width="720pt" height="432pt" viewBox="0 0 720 432" xmlns="http://www.w3.org/2000/svg" version="1.1">
 <metadata>
  <rdf:RDF xmlns:dc="http://purl.org/dc/elements/1.1/" xmlns:cc="http://creativecommons.org/ns#" xmlns:rdf="http://www.w3.org/1999/02/22-rdf-syntax-ns#">
   <cc:Work>
    <dc:type rdf:resource="http://purl.org/dc/dcmitype/StillImage"/>
    <dc:date>2025-06-17T18:20:26.337754</dc:date>
    <dc:format>image/svg+xml</dc:format>
    <dc:creator>
     <cc:Agent>
      <dc:title>Matplotlib v3.7.5, https://matplotlib.org/</dc:title>
     </cc:Agent>
    </dc:creator>
   </cc:Work>
  </rdf:RDF>
 </metadata>
 <defs>
  <style type="text/css">*{stroke-linejoin: round; stroke-linecap: butt}</style>
 </defs>
 <g id="figure_1">
  <g id="patch_1">
   <path d="M 0 432 
L 720 432 
L 720 0 
L 0 0 
z
" style="fill: #ffffff"/>
  </g>
  <g id="axes_1">
   <g id="matplotlib.axis_1"/>
   <g id="matplotlib.axis_2"/>
   <g id="patch_2">
    <path d="M 502.056 218.16 
C 502.056 200.732361 498.631999 183.473307 491.978956 167.365557 
C 485.325914 151.257806 475.572546 136.612994 463.274202 124.264984 
C 450.975858 111.916974 436.370473 102.104663 420.289666 95.386757 
C 404.20886 88.66885 386.963746 85.175318 369.536248 85.105081 
C 352.108751 85.034843 334.836038 88.389258 318.701605 94.977328 
C 302.567171 101.565399 287.88317 111.259665 275.485695 123.508144 
C 263.08822 135.756623 253.217126 150.322343 246.434464 166.375944 
C 239.651802 182.429545 236.088797 199.660439 235.948322 217.087512 
C 235.807848 234.514585 239.092623 251.800677 245.615614 267.96153 
C 252.138605 284.122384 261.773613 298.845337 273.972027 311.292075 
C 286.170441 323.738814 300.69626 333.668532 316.722395 340.515838 
C 332.74853 347.363145 349.964924 350.995566 367.391289 351.206275 
C 384.817655 351.416983 402.116845 348.201902 418.303856 341.744096 
C 434.490868 335.286291 449.252533 325.710698 461.748333 313.562547 
C 474.244133 301.414395 484.232313 286.928713 491.144153 270.930305 
C 498.055993 254.931896 501.757771 237.730281 502.038711 220.304907 
L 369 218.16 
z
" style="fill: #f77189"/>
   </g>
   <g id="patch_3">
    <path d="M 502.038711 220.304907 
C 502.044417 219.950993 502.04871 219.597059 502.051592 219.243111 
C 502.054473 218.889163 502.055942 218.535206 502.055998 218.181246 
L 369 218.16 
z
" style="fill: #bb9832"/>
   </g>
   <g id="patch_4">
    <path d="M 502.055998 218.181246 
C 502.055999 218.177707 502.055999 218.174167 502.056 218.170628 
C 502.056 218.167088 502.056 218.163548 502.056 218.160009 
L 369 218.16 
z
" style="fill: #50b131"/>
   </g>
   <g id="text_1">
    <text style="fill: #262626; font: 10px 'Arial', 'Liberation Sans', 'DejaVu Sans', 'Bitstream Vera Sans', sans-serif; text-anchor: end" x="222.643155" y="219.5662" transform="rotate(-0 222.643155 219.5662)">newsapi</text>
   </g>
   <g id="text_2">
    <text style="fill: #262626; font: 10px 'Arial', 'Liberation Sans', 'DejaVu Sans', 'Bitstream Vera Sans', sans-serif; text-anchor: middle" x="289.168993" y="220.102445" transform="rotate(-0 289.168993 220.102445)">99.7%</text>
   </g>
   <g id="text_3">
    <text style="fill: #262626; font: 10px 'Arial', 'Liberation Sans', 'DejaVu Sans', 'Bitstream Vera Sans', sans-serif; text-anchor: start" x="515.356751" y="221.93736" transform="rotate(-0 515.356751 221.93736)">chicago_pd</text>
   </g>
   <g id="text_4">
    <text style="fill: #262626; font: 10px 'Arial', 'Liberation Sans', 'DejaVu Sans', 'Bitstream Vera Sans', sans-serif; text-anchor: middle" x="448.830955" y="221.395804" transform="rotate(-0 448.830955 221.395804)">0.3%</text>
   </g>
   <g id="text_5">
    <text style="fill: #262626; font: 10px 'Arial', 'Liberation Sans', 'DejaVu Sans', 'Bitstream Vera Sans', sans-serif; text-anchor: start" x="515.3616" y="220.757628" transform="rotate(-0 515.3616 220.757628)">chicago_police</text>
   </g>
   <g id="text_6">
    <text style="fill: #262626; font: 10px 'Arial', 'Liberation Sans', 'DejaVu Sans', 'Bitstream Vera Sans', sans-serif; text-anchor: middle" x="448.8336" y="220.752314" transform="rotate(-0 448.8336 220.752314)">0.0%</text>
   </g>
   <g id="text_7">
    <text style="fill: #262626; font: 12px 'Arial', 'Liberation Sans', 'DejaVu Sans', 'Bitstream Vera Sans', sans-serif; text-anchor: middle" x="369" y="45.84" transform="rotate(-0 369 45.84)">Incidents by Source</text>
   </g>
  </g>
 </g>
</svg>
