<?xml version="1.0" encoding="utf-8" standalone="no"?>
<!DOCTYPE svg PUBLIC "-//W3C//DTD SVG 1.1//EN"
  "http://www.w3.org/Graphics/SVG/1.1/DTD/svg11.dtd">
<svg xmlns:xlink="http://www.w3.org/1999/xlink" width="720pt" height="432pt" viewBox="0 0 720 432" xmlns="http://www.w3.org/2000/svg" version="1.1">
 <metadata>
  <rdf:RDF xmlns:dc="http://purl.org/dc/elements/1.1/" xmlns:cc="http://creativecommons.org/ns#" xmlns:rdf="http://www.w3.org/1999/02/22-rdf-syntax-ns#">
   <cc:Work>
    <dc:type rdf:resource="http://purl.org/dc/dcmitype/StillImage"/>
    <dc:date>2026-06-05T02:50:25.755974</dc:date>
    <dc:format>image/svg+xml</dc:format>
    <dc:creator>
     <cc:Agent>
      <dc:title>Matplotlib v3.7.5, https://matplotlib.org/</dc:title>
     </cc:Agent>
    </dc:creator>
   </cc:Work>
  </rdf:RDF>
 </metadata>
 <defs>
  <style type="text/css">*{stroke-linejoin: round; stroke-linecap: butt}</style>
 </defs>
 <g id="figure_1">
  <g id="patch_1">
   <path d="M 0 432 
L 720 432 
L 720 0 
L 0 0 
z
" style="fill: #ffffff"/>
  </g>
  <g id="axes_1">
   <g id="matplotlib.axis_1"/>
   <g id="matplotlib.axis_2"/>
   <g id="patch_2">
    <path d="M 502.056 218.16 
C 502.056 200.703516 498.620655 183.416458 491.946209 167.286344 
C 485.271763 151.15623 475.487774 136.496164 463.153149 124.143599 
C 450.818525 111.791034 436.172696 101.985748 420.0523 95.287864 
C 403.931903 88.58998 386.649857 85.129513 369.193392 85.104141 
C 351.736927 85.078768 334.444894 88.488983 318.305096 95.139978 
C 302.165297 101.790973 287.491027 111.553644 275.120547 123.870301 
C 262.750067 136.186958 252.923503 150.818521 246.202196 166.929164 
C 239.480889 183.039808 235.995307 200.316807 235.944562 217.773217 
C 235.893818 235.229627 239.278896 252.526598 245.906425 268.676046 
C 252.533954 284.825494 262.275286 299.513939 274.57395 311.902308 
C 286.872614 324.290677 301.489879 334.138496 317.590737 340.883212 
C 333.691595 347.627928 350.963509 351.138618 368.419826 351.214735 
C 385.876144 351.290852 403.178017 347.930918 419.337081 341.326868 
C 435.496145 334.722819 450.198733 325.002846 462.604964 312.722201 
C 475.011195 300.441556 484.88025 285.83862 491.648361 269.747582 
C 498.416472 253.656545 501.952263 236.389751 502.053751 218.933563 
L 369 218.16 
z
" style="fill: #f77189"/>
   </g>
   <g id="patch_3">
    <path d="M 502.053751 218.933563 
C 502.054493 218.805915 502.055052 218.678267 502.055427 218.550618 
C 502.055801 218.422969 502.055992 218.295319 502.056 218.16767 
L 369 218.16 
z
" style="fill: #bb9832"/>
   </g>
   <g id="patch_4">
    <path d="M 502.056 218.16767 
C 502.056 218.166393 502.056 218.165117 502.056 218.16384 
C 502.056 218.162564 502.056 218.161287 502.056 218.160011 
L 369 218.16 
z
" style="fill: #50b131"/>
   </g>
   <g id="text_1">
    <text style="fill: #262626; font: 10px 'Arial', 'Liberation Sans', 'DejaVu Sans', 'Bitstream Vera Sans', sans-serif; text-anchor: end" x="222.639018" y="220.320476" transform="rotate(-0 222.639018 220.320476)">newsapi</text>
   </g>
   <g id="text_2">
    <text style="fill: #262626; font: 10px 'Arial', 'Liberation Sans', 'DejaVu Sans', 'Bitstream Vera Sans', sans-serif; text-anchor: middle" x="289.166737" y="220.513868" transform="rotate(-0 289.166737 220.513868)">99.9%</text>
   </g>
   <g id="text_3">
    <text style="fill: #262626; font: 10px 'Arial', 'Liberation Sans', 'DejaVu Sans', 'Bitstream Vera Sans', sans-serif; text-anchor: start" x="515.360969" y="221.175617" transform="rotate(-0 515.360969 221.175617)">chicago_pd</text>
   </g>
   <g id="text_4">
    <text style="fill: #262626; font: 10px 'Arial', 'Liberation Sans', 'DejaVu Sans', 'Bitstream Vera Sans', sans-serif; text-anchor: middle" x="448.833256" y="220.980308" transform="rotate(-0 448.833256 220.980308)">0.1%</text>
   </g>
   <g id="text_5">
    <text style="fill: #262626; font: 10px 'Arial', 'Liberation Sans', 'DejaVu Sans', 'Bitstream Vera Sans', sans-serif; text-anchor: start" x="515.3616" y="220.750162" transform="rotate(-0 515.3616 220.750162)">chicago_police</text>
   </g>
   <g id="text_6">
    <text style="fill: #262626; font: 10px 'Arial', 'Liberation Sans', 'DejaVu Sans', 'Bitstream Vera Sans', sans-serif; text-anchor: middle" x="448.8336" y="220.748242" transform="rotate(-0 448.8336 220.748242)">0.0%</text>
   </g>
   <g id="text_7">
    <text style="fill: #262626; font: 12px 'Arial', 'Liberation Sans', 'DejaVu Sans', 'Bitstream Vera Sans', sans-serif; text-anchor: middle" x="369" y="45.84" transform="rotate(-0 369 45.84)">Incidents by Source</text>
   </g>
  </g>
 </g>
</svg>
