<?xml version="1.0" encoding="utf-8" standalone="no"?>
<!DOCTYPE svg PUBLIC "-//W3C//DTD SVG 1.1//EN"
  "http://www.w3.org/Graphics/SVG/1.1/DTD/svg11.dtd">
<svg xmlns:xlink="http://www.w3.org/1999/xlink" width="720pt" height="432pt" viewBox="0 0 720 432" xmlns="http://www.w3.org/2000/svg" version="1.1">
 <metadata>
  <rdf:RDF xmlns:dc="http://purl.org/dc/elements/1.1/" xmlns:cc="http://creativecommons.org/ns#" xmlns:rdf="http://www.w3.org/1999/02/22-rdf-syntax-ns#">
   <cc:Work>
    <dc:type rdf:resource="http://purl.org/dc/dcmitype/StillImage"/>
    <dc:date>2025-07-25T18:21:38.776357</dc:date>
    <dc:format>image/svg+xml</dc:format>
    <dc:creator>
     <cc:Agent>
      <dc:title>Matplotlib v3.7.5, https://matplotlib.org/</dc:title>
     </cc:Agent>
    </dc:creator>
   </cc:Work>
  </rdf:RDF>
 </metadata>
 <defs>
  <style type="text/css">*{stroke-linejoin: round; stroke-linecap: butt}</style>
 </defs>
 <g id="figure_1">
  <g id="patch_1">
   <path d="M 0 432 
L 720 432 
L 720 0 
L 0 0 
z
" style="fill: #ffffff"/>
  </g>
  <g id="axes_1">
   <g id="matplotlib.axis_1"/>
   <g id="matplotlib.axis_2"/>
   <g id="patch_2">
    <path d="M 502.056 218.16 
C 502.056 200.725178 498.629176 183.45915 491.970806 167.345828 
C 485.312436 151.232506 475.551446 136.583891 463.24407 124.23474 
C 450.936694 111.885589 436.321238 102.075018 420.230571 95.362086 
C 404.139904 88.649154 386.885587 85.163842 369.450865 85.104764 
C 352.016142 85.045685 334.738602 88.413984 318.60281 95.017715 
C 302.467019 101.621446 287.785412 111.332743 275.394629 123.598202 
C 263.003845 135.863662 253.143805 150.44579 246.376387 166.513618 
C 239.60897 182.581446 236.065212 199.823854 235.947056 217.258276 
C 235.828899 234.692698 239.138633 251.981553 245.687649 268.139629 
C 252.236666 284.297705 261.898158 299.012134 274.12156 311.444408 
C 286.344963 323.876683 300.893597 333.786078 316.938401 340.607903 
C 332.983205 347.429728 350.213505 351.031892 367.647427 351.209125 
C 385.081348 351.386358 402.381319 348.135227 418.561494 341.641 
C 434.741668 335.146774 449.488751 325.535198 461.962374 313.353992 
C 474.435997 301.172787 484.394634 286.657815 491.270788 270.636219 
C 498.146942 254.614623 501.807471 237.396628 502.043778 219.963407 
L 369 218.16 
z
" style="fill: #f77189"/>
   </g>
   <g id="patch_3">
    <path d="M 502.043778 219.963407 
C 502.047812 219.665835 502.050847 219.36825 502.052884 219.070658 
C 502.05492 218.773065 502.055959 218.475467 502.055999 218.177867 
L 369 218.16 
z
" style="fill: #bb9832"/>
   </g>
   <g id="patch_4">
    <path d="M 502.055999 218.177867 
C 502.055999 218.174891 502.055999 218.171915 502.056 218.168939 
C 502.056 218.165963 502.056 218.162987 502.056 218.160011 
L 369 218.16 
z
" style="fill: #50b131"/>
   </g>
   <g id="text_1">
    <text style="fill: #262626; font: 10px 'Arial', 'Liberation Sans', 'DejaVu Sans', 'Bitstream Vera Sans', sans-serif; text-anchor: end" x="222.641761" y="219.754041" transform="rotate(-0 222.641761 219.754041)">newsapi</text>
   </g>
   <g id="text_2">
    <text style="fill: #262626; font: 10px 'Arial', 'Liberation Sans', 'DejaVu Sans', 'Bitstream Vera Sans', sans-serif; text-anchor: middle" x="289.168233" y="220.204903" transform="rotate(-0 289.168233 220.204903)">99.8%</text>
   </g>
   <g id="text_3">
    <text style="fill: #262626; font: 10px 'Arial', 'Liberation Sans', 'DejaVu Sans', 'Bitstream Vera Sans', sans-serif; text-anchor: start" x="515.358172" y="221.747661" transform="rotate(-0 515.358172 221.747661)">chicago_pd</text>
   </g>
   <g id="text_4">
    <text style="fill: #262626; font: 10px 'Arial', 'Liberation Sans', 'DejaVu Sans', 'Bitstream Vera Sans', sans-serif; text-anchor: middle" x="448.83173" y="221.292332" transform="rotate(-0 448.83173 221.292332)">0.2%</text>
   </g>
   <g id="text_5">
    <text style="fill: #262626; font: 10px 'Arial', 'Liberation Sans', 'DejaVu Sans', 'Bitstream Vera Sans', sans-serif; text-anchor: start" x="515.3616" y="220.755771" transform="rotate(-0 515.3616 220.755771)">chicago_police</text>
   </g>
   <g id="text_6">
    <text style="fill: #262626; font: 10px 'Arial', 'Liberation Sans', 'DejaVu Sans', 'Bitstream Vera Sans', sans-serif; text-anchor: middle" x="448.8336" y="220.751301" transform="rotate(-0 448.8336 220.751301)">0.0%</text>
   </g>
   <g id="text_7">
    <text style="fill: #262626; font: 12px 'Arial', 'Liberation Sans', 'DejaVu Sans', 'Bitstream Vera Sans', sans-serif; text-anchor: middle" x="369" y="45.84" transform="rotate(-0 369 45.84)">Incidents by Source</text>
   </g>
  </g>
 </g>
</svg>
