<?xml version="1.0" encoding="utf-8" standalone="no"?>
<!DOCTYPE svg PUBLIC "-//W3C//DTD SVG 1.1//EN"
  "http://www.w3.org/Graphics/SVG/1.1/DTD/svg11.dtd">
<svg xmlns:xlink="http://www.w3.org/1999/xlink" width="720pt" height="432pt" viewBox="0 0 720 432" xmlns="http://www.w3.org/2000/svg" version="1.1">
 <metadata>
  <rdf:RDF xmlns:dc="http://purl.org/dc/elements/1.1/" xmlns:cc="http://creativecommons.org/ns#" xmlns:rdf="http://www.w3.org/1999/02/22-rdf-syntax-ns#">
   <cc:Work>
    <dc:type rdf:resource="http://purl.org/dc/dcmitype/StillImage"/>
    <dc:date>2026-06-24T19:31:27.126813</dc:date>
    <dc:format>image/svg+xml</dc:format>
    <dc:creator>
     <cc:Agent>
      <dc:title>Matplotlib v3.7.5, https://matplotlib.org/</dc:title>
     </cc:Agent>
    </dc:creator>
   </cc:Work>
  </rdf:RDF>
 </metadata>
 <defs>
  <style type="text/css">*{stroke-linejoin: round; stroke-linecap: butt}</style>
 </defs>
 <g id="figure_1">
  <g id="patch_1">
   <path d="M 0 432 
L 720 432 
L 720 0 
L 0 0 
z
" style="fill: #ffffff"/>
  </g>
  <g id="axes_1">
   <g id="matplotlib.axis_1"/>
   <g id="matplotlib.axis_2"/>
   <g id="patch_2">
    <path d="M 502.056 218.16 
C 502.056 200.702872 498.620402 183.415188 491.945477 167.284574 
C 485.270552 151.153961 475.485878 136.493555 463.150443 124.140889 
C 450.815007 111.788223 436.168274 101.983094 420.046993 95.285659 
C 403.925713 88.588224 386.642841 85.128498 369.18573 85.10413 
C 351.728619 85.079762 334.436157 88.491225 318.296241 95.143627 
C 302.156326 101.796029 287.482276 111.560229 275.112403 123.87841 
C 262.74253 136.19659 252.916966 150.829623 246.197034 166.941539 
C 239.477103 183.053455 235.993255 200.33148 235.944519 217.78854 
C 235.895782 235.2456 239.283104 252.542808 245.912971 268.691993 
C 252.542837 284.841179 262.286544 299.528844 274.587446 311.9159 
C 286.888347 324.302955 301.50765 334.148935 317.61017 340.891351 
C 333.71269 347.633767 350.985835 351.141729 368.44281 351.214833 
C 385.899786 351.287937 403.201705 347.924764 419.360129 341.317446 
C 435.518553 334.710129 450.219806 324.986933 462.62402 312.703334 
C 475.028234 300.419736 484.894611 285.814191 491.659497 269.721098 
C 498.424384 253.628005 501.956454 236.359774 502.053926 218.902918 
L 369 218.16 
z
" style="fill: #f77189"/>
   </g>
   <g id="patch_3">
    <path d="M 502.053926 218.902918 
C 502.05461 218.780326 502.055126 218.657734 502.055471 218.535141 
C 502.055817 218.412548 502.055993 218.289955 502.056 218.167361 
L 369 218.16 
z
" style="fill: #bb9832"/>
   </g>
   <g id="patch_4">
    <path d="M 502.056 218.167361 
C 502.056 218.166136 502.056 218.16491 502.056 218.163684 
C 502.056 218.162458 502.056 218.161232 502.056 218.160006 
L 369 218.16 
z
" style="fill: #50b131"/>
   </g>
   <g id="text_1">
    <text style="fill: #262626; font: 10px 'Arial', 'Liberation Sans', 'DejaVu Sans', 'Bitstream Vera Sans', sans-serif; text-anchor: end" x="222.63897" y="220.337331" transform="rotate(-0 222.63897 220.337331)">newsapi</text>
   </g>
   <g id="text_2">
    <text style="fill: #262626; font: 10px 'Arial', 'Liberation Sans', 'DejaVu Sans', 'Bitstream Vera Sans', sans-serif; text-anchor: middle" x="289.166711" y="220.523061" transform="rotate(-0 289.166711 220.523061)">99.9%</text>
   </g>
   <g id="text_3">
    <text style="fill: #262626; font: 10px 'Arial', 'Liberation Sans', 'DejaVu Sans', 'Bitstream Vera Sans', sans-serif; text-anchor: start" x="515.361018" y="221.158593" transform="rotate(-0 515.361018 221.158593)">chicago_pd</text>
   </g>
   <g id="text_4">
    <text style="fill: #262626; font: 10px 'Arial', 'Liberation Sans', 'DejaVu Sans', 'Bitstream Vera Sans', sans-serif; text-anchor: middle" x="448.833283" y="220.971022" transform="rotate(-0 448.833283 220.971022)">0.1%</text>
   </g>
   <g id="text_5">
    <text style="fill: #262626; font: 10px 'Arial', 'Liberation Sans', 'DejaVu Sans', 'Bitstream Vera Sans', sans-serif; text-anchor: start" x="515.3616" y="220.74999" transform="rotate(-0 515.3616 220.74999)">chicago_police</text>
   </g>
   <g id="text_6">
    <text style="fill: #262626; font: 10px 'Arial', 'Liberation Sans', 'DejaVu Sans', 'Bitstream Vera Sans', sans-serif; text-anchor: middle" x="448.8336" y="220.748148" transform="rotate(-0 448.8336 220.748148)">0.0%</text>
   </g>
   <g id="text_7">
    <text style="fill: #262626; font: 12px 'Arial', 'Liberation Sans', 'DejaVu Sans', 'Bitstream Vera Sans', sans-serif; text-anchor: middle" x="369" y="45.84" transform="rotate(-0 369 45.84)">Incidents by Source</text>
   </g>
  </g>
 </g>
</svg>
