<?xml version="1.0" encoding="utf-8" standalone="no"?>
<!DOCTYPE svg PUBLIC "-//W3C//DTD SVG 1.1//EN"
  "http://www.w3.org/Graphics/SVG/1.1/DTD/svg11.dtd">
<svg xmlns:xlink="http://www.w3.org/1999/xlink" width="720pt" height="432pt" viewBox="0 0 720 432" xmlns="http://www.w3.org/2000/svg" version="1.1">
 <metadata>
  <rdf:RDF xmlns:dc="http://purl.org/dc/elements/1.1/" xmlns:cc="http://creativecommons.org/ns#" xmlns:rdf="http://www.w3.org/1999/02/22-rdf-syntax-ns#">
   <cc:Work>
    <dc:type rdf:resource="http://purl.org/dc/dcmitype/StillImage"/>
    <dc:date>2025-01-11T01:38:07.483572</dc:date>
    <dc:format>image/svg+xml</dc:format>
    <dc:creator>
     <cc:Agent>
      <dc:title>Matplotlib v3.7.5, https://matplotlib.org/</dc:title>
     </cc:Agent>
    </dc:creator>
   </cc:Work>
  </rdf:RDF>
 </metadata>
 <defs>
  <style type="text/css">*{stroke-linejoin: round; stroke-linecap: butt}</style>
 </defs>
 <g id="figure_1">
  <g id="patch_1">
   <path d="M 0 432 
L 720 432 
L 720 0 
L 0 0 
z
" style="fill: #ffffff"/>
  </g>
  <g id="axes_1">
   <g id="matplotlib.axis_1"/>
   <g id="matplotlib.axis_2"/>
   <g id="patch_2">
    <path d="M 502.056 218.16 
C 502.056 200.910472 498.701628 183.824406 492.180059 167.855207 
C 485.65849 151.886007 476.093323 137.336331 464.018298 125.018054 
C 451.943273 112.699776 437.587241 102.846359 421.751272 96.007626 
C 405.915302 89.168893 388.899528 85.474454 371.65343 85.13046 
C 354.407333 84.786467 337.257771 87.799438 321.161693 94.001249 
C 305.065614 100.20306 290.328082 109.476171 277.771451 121.303142 
C 265.21482 133.130112 255.077072 147.28679 247.923895 162.983231 
C 240.770717 178.679672 236.737681 195.618387 236.049831 212.854195 
C 235.36198 230.090002 238.032352 247.296239 243.911938 263.512794 
C 249.791525 279.729349 258.768893 294.648878 270.343105 307.438867 
C 281.917316 320.228857 295.86901 330.646904 311.419679 338.111681 
C 326.970348 345.576458 343.825267 349.946487 361.04393 350.977921 
C 378.262593 352.009355 395.518661 349.682644 411.849243 344.127621 
C 428.179825 338.572597 443.275415 329.894543 456.293676 318.577694 
C 469.311938 307.260844 480.006141 293.519684 487.779548 278.120972 
C 495.552955 262.722259 500.25824 245.95784 501.632846 228.76317 
L 369 218.16 
z
" style="fill: #f77189"/>
   </g>
   <g id="patch_3">
    <path d="M 501.632846 228.76317 
C 501.772431 227.017133 501.877524 225.268509 501.948063 223.518321 
C 502.018603 221.768134 502.054575 220.016724 502.055958 218.265116 
L 369 218.16 
z
" style="fill: #bb9832"/>
   </g>
   <g id="patch_4">
    <path d="M 502.055958 218.265116 
C 502.055972 218.247601 502.055983 218.230085 502.05599 218.21257 
C 502.055997 218.195054 502.056 218.177539 502.056 218.160023 
L 369 218.16 
z
" style="fill: #50b131"/>
   </g>
   <g id="text_1">
    <text style="fill: #262626; font: 10px 'Arial', 'Liberation Sans', 'DejaVu Sans', 'Bitstream Vera Sans', sans-serif; text-anchor: end" x="222.754814" y="214.909552" transform="rotate(-0 222.754814 214.909552)">newsapi</text>
   </g>
   <g id="text_2">
    <text style="fill: #262626; font: 10px 'Arial', 'Liberation Sans', 'DejaVu Sans', 'Bitstream Vera Sans', sans-serif; text-anchor: middle" x="289.229898" y="217.562454" transform="rotate(-0 289.229898 217.562454)">98.7%</text>
   </g>
   <g id="text_3">
    <text style="fill: #262626; font: 10px 'Arial', 'Liberation Sans', 'DejaVu Sans', 'Bitstream Vera Sans', sans-serif; text-anchor: start" x="515.24287" y="226.640091" transform="rotate(-0 515.24287 226.640091)">chicago_pd</text>
   </g>
   <g id="text_4">
    <text style="fill: #262626; font: 10px 'Arial', 'Liberation Sans', 'DejaVu Sans', 'Bitstream Vera Sans', sans-serif; text-anchor: middle" x="448.768838" y="223.96093" transform="rotate(-0 448.768838 223.96093)">1.3%</text>
   </g>
   <g id="text_5">
    <text style="fill: #262626; font: 10px 'Arial', 'Liberation Sans', 'DejaVu Sans', 'Bitstream Vera Sans', sans-serif; text-anchor: start" x="515.361589" y="220.803764" transform="rotate(-0 515.361589 220.803764)">chicago_police</text>
   </g>
   <g id="text_6">
    <text style="fill: #262626; font: 10px 'Arial', 'Liberation Sans', 'DejaVu Sans', 'Bitstream Vera Sans', sans-serif; text-anchor: middle" x="448.833594" y="220.777479" transform="rotate(-0 448.833594 220.777479)">0.0%</text>
   </g>
   <g id="text_7">
    <text style="fill: #262626; font: 12px 'Arial', 'Liberation Sans', 'DejaVu Sans', 'Bitstream Vera Sans', sans-serif; text-anchor: middle" x="369" y="45.84" transform="rotate(-0 369 45.84)">Incidents by Source</text>
   </g>
  </g>
 </g>
</svg>
