<?xml version="1.0" encoding="utf-8" standalone="no"?>
<!DOCTYPE svg PUBLIC "-//W3C//DTD SVG 1.1//EN"
  "http://www.w3.org/Graphics/SVG/1.1/DTD/svg11.dtd">
<svg xmlns:xlink="http://www.w3.org/1999/xlink" width="720pt" height="432pt" viewBox="0 0 720 432" xmlns="http://www.w3.org/2000/svg" version="1.1">
 <metadata>
  <rdf:RDF xmlns:dc="http://purl.org/dc/elements/1.1/" xmlns:cc="http://creativecommons.org/ns#" xmlns:rdf="http://www.w3.org/1999/02/22-rdf-syntax-ns#">
   <cc:Work>
    <dc:type rdf:resource="http://purl.org/dc/dcmitype/StillImage"/>
    <dc:date>2026-05-14T03:51:06.398393</dc:date>
    <dc:format>image/svg+xml</dc:format>
    <dc:creator>
     <cc:Agent>
      <dc:title>Matplotlib v3.7.5, https://matplotlib.org/</dc:title>
     </cc:Agent>
    </dc:creator>
   </cc:Work>
  </rdf:RDF>
 </metadata>
 <defs>
  <style type="text/css">*{stroke-linejoin: round; stroke-linecap: butt}</style>
 </defs>
 <g id="figure_1">
  <g id="patch_1">
   <path d="M 0 432 
L 720 432 
L 720 0 
L 0 0 
z
" style="fill: #ffffff"/>
  </g>
  <g id="axes_1">
   <g id="matplotlib.axis_1"/>
   <g id="matplotlib.axis_2"/>
   <g id="patch_2">
    <path d="M 502.056 218.16 
C 502.056 200.704216 498.62093 183.417836 491.947003 167.288264 
C 485.273076 151.158691 475.489829 136.498995 463.156085 124.146539 
C 450.82234 111.794084 436.177491 101.988626 420.058054 95.290255 
C 403.938618 88.591885 386.657465 85.130614 369.201701 85.104153 
C 351.745937 85.077691 334.45437 88.486553 318.314699 95.136021 
C 302.175028 101.78549 287.500518 111.546502 275.129379 123.861507 
C 262.758241 136.176512 252.930594 150.806481 246.207796 166.915745 
C 239.484997 183.025009 235.997534 200.300894 235.944612 217.756599 
C 235.891689 235.212303 239.274333 252.509017 245.899328 268.65875 
C 252.524323 284.808482 262.263079 299.497772 274.559316 311.887565 
C 286.855554 324.277357 301.470607 334.127171 317.569662 340.874382 
C 333.668716 347.621592 350.939295 351.13524 368.394899 351.214624 
C 385.850503 351.294008 403.152325 347.937588 419.312082 341.337082 
C 435.471839 334.736577 450.175875 325.020099 462.584293 312.742658 
C 474.992712 300.465216 484.864669 285.865111 491.636277 269.776303 
C 498.407885 253.687495 501.947709 236.422263 502.053554 218.966799 
L 369 218.16 
z
" style="fill: #f77189"/>
   </g>
   <g id="patch_3">
    <path d="M 502.053554 218.966799 
C 502.054361 218.833666 502.054969 218.700531 502.055376 218.567396 
C 502.055784 218.434261 502.055992 218.301125 502.056 218.167989 
L 369 218.16 
z
" style="fill: #bb9832"/>
   </g>
   <g id="patch_4">
    <path d="M 502.056 218.167989 
C 502.056 218.166658 502.056 218.165327 502.056 218.163995 
C 502.056 218.162664 502.056 218.161333 502.056 218.160001 
L 369 218.16 
z
" style="fill: #50b131"/>
   </g>
   <g id="text_1">
    <text style="fill: #262626; font: 10px 'Arial', 'Liberation Sans', 'DejaVu Sans', 'Bitstream Vera Sans', sans-serif; text-anchor: end" x="222.639073" y="220.302196" transform="rotate(-0 222.639073 220.302196)">newsapi</text>
   </g>
   <g id="text_2">
    <text style="fill: #262626; font: 10px 'Arial', 'Liberation Sans', 'DejaVu Sans', 'Bitstream Vera Sans', sans-serif; text-anchor: middle" x="289.166767" y="220.503897" transform="rotate(-0 289.166767 220.503897)">99.9%</text>
   </g>
   <g id="text_3">
    <text style="fill: #262626; font: 10px 'Arial', 'Liberation Sans', 'DejaVu Sans', 'Bitstream Vera Sans', sans-serif; text-anchor: start" x="515.360914" y="221.194073" transform="rotate(-0 515.360914 221.194073)">chicago_pd</text>
   </g>
   <g id="text_4">
    <text style="fill: #262626; font: 10px 'Arial', 'Liberation Sans', 'DejaVu Sans', 'Bitstream Vera Sans', sans-serif; text-anchor: middle" x="448.833226" y="220.990375" transform="rotate(-0 448.833226 220.990375)">0.1%</text>
   </g>
   <g id="text_5">
    <text style="fill: #262626; font: 10px 'Arial', 'Liberation Sans', 'DejaVu Sans', 'Bitstream Vera Sans', sans-serif; text-anchor: start" x="515.3616" y="220.750332" transform="rotate(-0 515.3616 220.750332)">chicago_police</text>
   </g>
   <g id="text_6">
    <text style="fill: #262626; font: 10px 'Arial', 'Liberation Sans', 'DejaVu Sans', 'Bitstream Vera Sans', sans-serif; text-anchor: middle" x="448.8336" y="220.748335" transform="rotate(-0 448.8336 220.748335)">0.0%</text>
   </g>
   <g id="text_7">
    <text style="fill: #262626; font: 12px 'Arial', 'Liberation Sans', 'DejaVu Sans', 'Bitstream Vera Sans', sans-serif; text-anchor: middle" x="369" y="45.84" transform="rotate(-0 369 45.84)">Incidents by Source</text>
   </g>
  </g>
 </g>
</svg>
