<?xml version="1.0" encoding="utf-8" standalone="no"?>
<!DOCTYPE svg PUBLIC "-//W3C//DTD SVG 1.1//EN"
  "http://www.w3.org/Graphics/SVG/1.1/DTD/svg11.dtd">
<svg xmlns:xlink="http://www.w3.org/1999/xlink" width="720pt" height="432pt" viewBox="0 0 720 432" xmlns="http://www.w3.org/2000/svg" version="1.1">
 <metadata>
  <rdf:RDF xmlns:dc="http://purl.org/dc/elements/1.1/" xmlns:cc="http://creativecommons.org/ns#" xmlns:rdf="http://www.w3.org/1999/02/22-rdf-syntax-ns#">
   <cc:Work>
    <dc:type rdf:resource="http://purl.org/dc/dcmitype/StillImage"/>
    <dc:date>2025-11-07T01:07:39.894301</dc:date>
    <dc:format>image/svg+xml</dc:format>
    <dc:creator>
     <cc:Agent>
      <dc:title>Matplotlib v3.7.5, https://matplotlib.org/</dc:title>
     </cc:Agent>
    </dc:creator>
   </cc:Work>
  </rdf:RDF>
 </metadata>
 <defs>
  <style type="text/css">*{stroke-linejoin: round; stroke-linecap: butt}</style>
 </defs>
 <g id="figure_1">
  <g id="patch_1">
   <path d="M 0 432 
L 720 432 
L 720 0 
L 0 0 
z
" style="fill: #ffffff"/>
  </g>
  <g id="axes_1">
   <g id="matplotlib.axis_1"/>
   <g id="matplotlib.axis_2"/>
   <g id="patch_2">
    <path d="M 502.056 218.16 
C 502.056 200.71292 498.624355 183.434991 491.95689 167.312165 
C 485.289425 151.189339 475.515422 136.534241 463.192629 124.183153 
C 450.869835 111.832065 436.237193 102.024477 420.129701 95.320052 
C 404.022209 88.615627 386.752196 85.144364 369.305161 85.10435 
C 351.858127 85.064335 334.572373 88.456345 318.434297 95.086815 
C 302.296222 101.717285 287.618746 111.457651 275.239429 123.752085 
C 262.860111 136.046519 253.01899 150.65663 246.27764 166.748703 
C 239.53629 182.840776 236.025429 200.102782 235.9454 217.549679 
C 235.865371 234.996576 239.217727 252.290064 245.811167 268.443304 
C 252.404608 284.596544 262.111285 299.29632 274.377295 311.703802 
C 286.643305 324.111284 301.230807 333.985888 317.307377 340.764127 
C 333.383947 347.542365 350.637856 351.092808 368.084523 351.212851 
C 385.53119 351.332893 402.832321 348.020209 419.000641 341.463832 
C 435.16896 334.907456 449.89096 325.234518 462.326541 312.996997 
C 474.762122 300.759475 484.670156 286.194659 491.485248 270.133677 
C 498.300341 254.072695 501.890345 236.826975 502.050401 219.380629 
L 369 218.16 
z
" style="fill: #f77189"/>
   </g>
   <g id="patch_3">
    <path d="M 502.050401 219.380629 
C 502.052249 219.179212 502.053639 218.977791 502.054572 218.776368 
C 502.055505 218.574945 502.055981 218.37352 502.055999 218.172094 
L 369 218.16 
z
" style="fill: #bb9832"/>
   </g>
   <g id="patch_4">
    <path d="M 502.055999 218.172094 
C 502.056 218.17008 502.056 218.168066 502.056 218.166051 
C 502.056 218.164037 502.056 218.162023 502.056 218.160009 
L 369 218.16 
z
" style="fill: #50b131"/>
   </g>
   <g id="text_1">
    <text style="fill: #262626; font: 10px 'Arial', 'Liberation Sans', 'DejaVu Sans', 'Bitstream Vera Sans', sans-serif; text-anchor: end" x="222.63994" y="220.074585" transform="rotate(-0 222.63994 220.074585)">newsapi</text>
   </g>
   <g id="text_2">
    <text style="fill: #262626; font: 10px 'Arial', 'Liberation Sans', 'DejaVu Sans', 'Bitstream Vera Sans', sans-serif; text-anchor: middle" x="289.16724" y="220.379745" transform="rotate(-0 289.16724 220.379745)">99.9%</text>
   </g>
   <g id="text_3">
    <text style="fill: #262626; font: 10px 'Arial', 'Liberation Sans', 'DejaVu Sans', 'Bitstream Vera Sans', sans-serif; text-anchor: start" x="515.36003" y="221.423942" transform="rotate(-0 515.36003 221.423942)">chicago_pd</text>
   </g>
   <g id="text_4">
    <text style="fill: #262626; font: 10px 'Arial', 'Liberation Sans', 'DejaVu Sans', 'Bitstream Vera Sans', sans-serif; text-anchor: middle" x="448.832743" y="221.115758" transform="rotate(-0 448.832743 221.115758)">0.1%</text>
   </g>
   <g id="text_5">
    <text style="fill: #262626; font: 10px 'Arial', 'Liberation Sans', 'DejaVu Sans', 'Bitstream Vera Sans', sans-serif; text-anchor: start" x="515.3616" y="220.752594" transform="rotate(-0 515.3616 220.752594)">chicago_police</text>
   </g>
   <g id="text_6">
    <text style="fill: #262626; font: 10px 'Arial', 'Liberation Sans', 'DejaVu Sans', 'Bitstream Vera Sans', sans-serif; text-anchor: middle" x="448.8336" y="220.749568" transform="rotate(-0 448.8336 220.749568)">0.0%</text>
   </g>
   <g id="text_7">
    <text style="fill: #262626; font: 12px 'Arial', 'Liberation Sans', 'DejaVu Sans', 'Bitstream Vera Sans', sans-serif; text-anchor: middle" x="369" y="45.84" transform="rotate(-0 369 45.84)">Incidents by Source</text>
   </g>
  </g>
 </g>
</svg>
