<?xml version="1.0" encoding="utf-8" standalone="no"?>
<!DOCTYPE svg PUBLIC "-//W3C//DTD SVG 1.1//EN"
  "http://www.w3.org/Graphics/SVG/1.1/DTD/svg11.dtd">
<svg xmlns:xlink="http://www.w3.org/1999/xlink" width="720pt" height="432pt" viewBox="0 0 720 432" xmlns="http://www.w3.org/2000/svg" version="1.1">
 <metadata>
  <rdf:RDF xmlns:dc="http://purl.org/dc/elements/1.1/" xmlns:cc="http://creativecommons.org/ns#" xmlns:rdf="http://www.w3.org/1999/02/22-rdf-syntax-ns#">
   <cc:Work>
    <dc:type rdf:resource="http://purl.org/dc/dcmitype/StillImage"/>
    <dc:date>2025-09-21T06:19:25.582725</dc:date>
    <dc:format>image/svg+xml</dc:format>
    <dc:creator>
     <cc:Agent>
      <dc:title>Matplotlib v3.7.5, https://matplotlib.org/</dc:title>
     </cc:Agent>
    </dc:creator>
   </cc:Work>
  </rdf:RDF>
 </metadata>
 <defs>
  <style type="text/css">*{stroke-linejoin: round; stroke-linecap: butt}</style>
 </defs>
 <g id="figure_1">
  <g id="patch_1">
   <path d="M 0 432 
L 720 432 
L 720 0 
L 0 0 
z
" style="fill: #ffffff"/>
  </g>
  <g id="axes_1">
   <g id="matplotlib.axis_1"/>
   <g id="matplotlib.axis_2"/>
   <g id="patch_2">
    <path d="M 502.056 218.16 
C 502.056 200.716994 498.625958 183.443022 491.961517 167.323355 
C 485.297076 151.203688 475.5274 136.550744 463.209732 124.200298 
C 450.892064 111.849853 436.265135 102.041271 420.163236 95.334016 
C 404.061337 88.62676 386.79654 85.150825 369.353596 85.10447 
C 351.910652 85.058115 334.627625 88.442239 318.490304 95.063819 
C 302.352983 101.685399 287.674129 111.4161 275.290992 123.700903 
C 262.907856 135.985706 253.060438 150.586517 246.310416 166.670535 
C 239.560393 182.754553 236.038589 200.010051 235.945879 217.45281 
C 235.85317 234.895569 239.191353 252.187529 245.770024 268.342389 
C 252.348696 284.49725 262.040353 299.201913 274.292205 311.617652 
C 286.544056 324.033391 301.118646 333.919576 317.184669 340.712318 
C 333.250692 347.50506 350.49677 351.072708 367.939222 351.211771 
C 385.381673 351.350834 402.682442 348.058617 418.854729 341.5229 
C 435.027015 334.987184 449.757381 325.334638 462.205636 313.115824 
C 474.653891 300.897011 484.578772 286.348745 491.414186 270.30083 
C 498.2496 254.252916 501.863067 237.01638 502.048483 219.57436 
L 369 218.16 
z
" style="fill: #f77189"/>
   </g>
   <g id="patch_3">
    <path d="M 502.048483 219.57436 
C 502.050964 219.340975 502.05283 219.107585 502.054083 218.874191 
C 502.055336 218.640796 502.055975 218.407399 502.055999 218.174002 
L 369 218.16 
z
" style="fill: #bb9832"/>
   </g>
   <g id="patch_4">
    <path d="M 502.055999 218.174002 
C 502.056 218.171668 502.056 218.169334 502.056 218.167 
C 502.056 218.164666 502.056 218.162332 502.056 218.159998 
L 369 218.16 
z
" style="fill: #50b131"/>
   </g>
   <g id="text_1">
    <text style="fill: #262626; font: 10px 'Arial', 'Liberation Sans', 'DejaVu Sans', 'Bitstream Vera Sans', sans-serif; text-anchor: end" x="222.640467" y="219.968029" transform="rotate(-0 222.640467 219.968029)">newsapi</text>
   </g>
   <g id="text_2">
    <text style="fill: #262626; font: 10px 'Arial', 'Liberation Sans', 'DejaVu Sans', 'Bitstream Vera Sans', sans-serif; text-anchor: middle" x="289.167528" y="220.321624" transform="rotate(-0 289.167528 220.321624)">99.8%</text>
   </g>
   <g id="text_3">
    <text style="fill: #262626; font: 10px 'Arial', 'Liberation Sans', 'DejaVu Sans', 'Bitstream Vera Sans', sans-serif; text-anchor: start" x="515.359492" y="221.531547" transform="rotate(-0 515.359492 221.531547)">chicago_pd</text>
   </g>
   <g id="text_4">
    <text style="fill: #262626; font: 10px 'Arial', 'Liberation Sans', 'DejaVu Sans', 'Bitstream Vera Sans', sans-serif; text-anchor: middle" x="448.83245" y="221.174452" transform="rotate(-0 448.83245 221.174452)">0.2%</text>
   </g>
   <g id="text_5">
    <text style="fill: #262626; font: 10px 'Arial', 'Liberation Sans', 'DejaVu Sans', 'Bitstream Vera Sans', sans-serif; text-anchor: start" x="515.3616" y="220.753637" transform="rotate(-0 515.3616 220.753637)">chicago_police</text>
   </g>
   <g id="text_6">
    <text style="fill: #262626; font: 10px 'Arial', 'Liberation Sans', 'DejaVu Sans', 'Bitstream Vera Sans', sans-serif; text-anchor: middle" x="448.8336" y="220.750137" transform="rotate(-0 448.8336 220.750137)">0.0%</text>
   </g>
   <g id="text_7">
    <text style="fill: #262626; font: 12px 'Arial', 'Liberation Sans', 'DejaVu Sans', 'Bitstream Vera Sans', sans-serif; text-anchor: middle" x="369" y="45.84" transform="rotate(-0 369 45.84)">Incidents by Source</text>
   </g>
  </g>
 </g>
</svg>
