<?xml version="1.0" encoding="utf-8" standalone="no"?>
<!DOCTYPE svg PUBLIC "-//W3C//DTD SVG 1.1//EN"
  "http://www.w3.org/Graphics/SVG/1.1/DTD/svg11.dtd">
<svg xmlns:xlink="http://www.w3.org/1999/xlink" width="720pt" height="432pt" viewBox="0 0 720 432" xmlns="http://www.w3.org/2000/svg" version="1.1">
 <metadata>
  <rdf:RDF xmlns:dc="http://purl.org/dc/elements/1.1/" xmlns:cc="http://creativecommons.org/ns#" xmlns:rdf="http://www.w3.org/1999/02/22-rdf-syntax-ns#">
   <cc:Work>
    <dc:type rdf:resource="http://purl.org/dc/dcmitype/StillImage"/>
    <dc:date>2025-10-03T01:02:24.264014</dc:date>
    <dc:format>image/svg+xml</dc:format>
    <dc:creator>
     <cc:Agent>
      <dc:title>Matplotlib v3.7.5, https://matplotlib.org/</dc:title>
     </cc:Agent>
    </dc:creator>
   </cc:Work>
  </rdf:RDF>
 </metadata>
 <defs>
  <style type="text/css">*{stroke-linejoin: round; stroke-linecap: butt}</style>
 </defs>
 <g id="figure_1">
  <g id="patch_1">
   <path d="M 0 432 
L 720 432 
L 720 0 
L 0 0 
z
" style="fill: #ffffff"/>
  </g>
  <g id="axes_1">
   <g id="matplotlib.axis_1"/>
   <g id="matplotlib.axis_2"/>
   <g id="patch_2">
    <path d="M 502.056 218.16 
C 502.056 200.715811 498.625493 183.44069 491.960173 167.320105 
C 485.294854 151.199521 475.523922 136.545952 463.204766 124.195319 
C 450.88561 111.844687 436.257022 102.036394 420.153498 95.32996 
C 404.049975 88.623526 386.783664 85.148947 369.339532 85.104433 
C 351.8954 85.059919 334.61158 88.446333 318.47404 95.070494 
C 302.336499 101.694655 287.658044 111.428163 275.276016 123.715762 
C 262.893988 136.003362 253.048398 150.606874 246.300893 166.693231 
C 239.553388 182.779589 236.034761 200.036977 235.945733 217.480939 
C 235.856705 234.924901 239.199003 252.217305 245.781963 268.371697 
C 252.364923 284.526088 262.060942 299.229333 274.316905 311.642676 
C 286.572869 324.056019 301.151209 333.938843 317.220296 340.727375 
C 333.289383 347.515907 350.537736 351.07856 367.981414 351.212101 
C 385.425092 351.345642 402.725969 348.047482 418.897106 341.505766 
C 435.068243 334.96405 449.796183 325.305582 462.24076 313.081335 
C 474.685337 300.857088 484.60533 286.304014 491.434845 270.252302 
C 498.26436 254.200591 501.871016 236.961384 502.049069 219.518104 
L 369 218.16 
z
" style="fill: #f77189"/>
   </g>
   <g id="patch_3">
    <path d="M 502.049069 219.518104 
C 502.051356 219.293998 502.053078 219.069887 502.054233 218.845773 
C 502.055388 218.621659 502.055977 218.397542 502.055999 218.173424 
L 369 218.16 
z
" style="fill: #bb9832"/>
   </g>
   <g id="patch_4">
    <path d="M 502.055999 218.173424 
C 502.056 218.171183 502.056 218.168942 502.056 218.166701 
C 502.056 218.16446 502.056 218.162219 502.056 218.159977 
L 369 218.16 
z
" style="fill: #50b131"/>
   </g>
   <g id="text_1">
    <text style="fill: #262626; font: 10px 'Arial', 'Liberation Sans', 'DejaVu Sans', 'Bitstream Vera Sans', sans-serif; text-anchor: end" x="222.640306" y="219.99897" transform="rotate(-0 222.640306 219.99897)">newsapi</text>
   </g>
   <g id="text_2">
    <text style="fill: #262626; font: 10px 'Arial', 'Liberation Sans', 'DejaVu Sans', 'Bitstream Vera Sans', sans-serif; text-anchor: middle" x="289.16744" y="220.338501" transform="rotate(-0 289.16744 220.338501)">99.8%</text>
   </g>
   <g id="text_3">
    <text style="fill: #262626; font: 10px 'Arial', 'Liberation Sans', 'DejaVu Sans', 'Bitstream Vera Sans', sans-serif; text-anchor: start" x="515.359656" y="221.500288" transform="rotate(-0 515.359656 221.500288)">chicago_pd</text>
   </g>
   <g id="text_4">
    <text style="fill: #262626; font: 10px 'Arial', 'Liberation Sans', 'DejaVu Sans', 'Bitstream Vera Sans', sans-serif; text-anchor: middle" x="448.83254" y="221.157401" transform="rotate(-0 448.83254 221.157401)">0.2%</text>
   </g>
   <g id="text_5">
    <text style="fill: #262626; font: 10px 'Arial', 'Liberation Sans', 'DejaVu Sans', 'Bitstream Vera Sans', sans-serif; text-anchor: start" x="515.3616" y="220.753309" transform="rotate(-0 515.3616 220.753309)">chicago_police</text>
   </g>
   <g id="text_6">
    <text style="fill: #262626; font: 10px 'Arial', 'Liberation Sans', 'DejaVu Sans', 'Bitstream Vera Sans', sans-serif; text-anchor: middle" x="448.8336" y="220.749958" transform="rotate(-0 448.8336 220.749958)">0.0%</text>
   </g>
   <g id="text_7">
    <text style="fill: #262626; font: 12px 'Arial', 'Liberation Sans', 'DejaVu Sans', 'Bitstream Vera Sans', sans-serif; text-anchor: middle" x="369" y="45.84" transform="rotate(-0 369 45.84)">Incidents by Source</text>
   </g>
  </g>
 </g>
</svg>
