<?xml version="1.0" encoding="utf-8" standalone="no"?>
<!DOCTYPE svg PUBLIC "-//W3C//DTD SVG 1.1//EN"
  "http://www.w3.org/Graphics/SVG/1.1/DTD/svg11.dtd">
<svg xmlns:xlink="http://www.w3.org/1999/xlink" width="720pt" height="432pt" viewBox="0 0 720 432" xmlns="http://www.w3.org/2000/svg" version="1.1">
 <metadata>
  <rdf:RDF xmlns:dc="http://purl.org/dc/elements/1.1/" xmlns:cc="http://creativecommons.org/ns#" xmlns:rdf="http://www.w3.org/1999/02/22-rdf-syntax-ns#">
   <cc:Work>
    <dc:type rdf:resource="http://purl.org/dc/dcmitype/StillImage"/>
    <dc:date>2025-03-20T12:25:17.803543</dc:date>
    <dc:format>image/svg+xml</dc:format>
    <dc:creator>
     <cc:Agent>
      <dc:title>Matplotlib v3.7.5, https://matplotlib.org/</dc:title>
     </cc:Agent>
    </dc:creator>
   </cc:Work>
  </rdf:RDF>
 </metadata>
 <defs>
  <style type="text/css">*{stroke-linejoin: round; stroke-linecap: butt}</style>
 </defs>
 <g id="figure_1">
  <g id="patch_1">
   <path d="M 0 432 
L 720 432 
L 720 0 
L 0 0 
z
" style="fill: #ffffff"/>
  </g>
  <g id="axes_1">
   <g id="matplotlib.axis_1"/>
   <g id="matplotlib.axis_2"/>
   <g id="patch_2">
    <path d="M 502.056 218.16 
C 502.056 200.770813 498.647092 183.549097 492.022534 167.471192 
C 485.397976 151.393286 475.685368 136.768875 463.435339 124.427051 
C 451.185311 112.085226 436.633816 102.263711 420.605814 95.519309 
C 404.577812 88.774907 387.382025 85.237526 369.993323 85.107708 
C 352.60462 84.97789 335.357935 88.258135 319.231022 94.76248 
C 303.104109 101.266824 288.407597 110.869984 275.974665 123.027534 
C 263.541733 135.185083 253.611857 149.662851 246.747987 165.640056 
C 239.884117 181.617262 236.21846 198.786162 235.958831 216.17341 
C 235.699202 233.560659 238.850602 250.831352 245.234371 267.006373 
C 251.618139 283.181394 261.111316 297.949189 273.175709 310.472537 
C 285.240103 322.995884 299.643335 333.033565 315.568854 340.016521 
C 331.494372 346.999477 348.635428 350.793205 366.020254 351.182631 
C 383.405079 351.572056 400.698818 348.549677 416.921046 342.28684 
C 433.143274 336.024003 447.981529 326.64134 460.594593 314.670775 
C 473.207657 302.70021 483.352586 288.372315 490.454238 272.499371 
C 497.55589 256.626427 501.477479 239.514171 501.996679 222.132737 
L 369 218.16 
z
" style="fill: #f77189"/>
   </g>
   <g id="patch_3">
    <path d="M 501.996679 222.132737 
C 502.016255 221.477358 502.030987 220.821844 502.040874 220.166248 
C 502.05076 219.510652 502.0558 218.854992 502.055994 218.199322 
L 369 218.16 
z
" style="fill: #bb9832"/>
   </g>
   <g id="patch_4">
    <path d="M 502.055994 218.199322 
C 502.055996 218.192765 502.055998 218.186208 502.055999 218.179652 
C 502.056 218.173095 502.056 218.166538 502.056 218.159982 
L 369 218.16 
z
" style="fill: #50b131"/>
   </g>
   <g id="text_1">
    <text style="fill: #262626; font: 10px 'Arial', 'Liberation Sans', 'DejaVu Sans', 'Bitstream Vera Sans', sans-serif; text-anchor: end" x="222.654714" y="218.560689" transform="rotate(-0 222.654714 218.560689)">newsapi</text>
   </g>
   <g id="text_2">
    <text style="fill: #262626; font: 10px 'Arial', 'Liberation Sans', 'DejaVu Sans', 'Bitstream Vera Sans', sans-serif; text-anchor: middle" x="289.175299" y="219.553984" transform="rotate(-0 289.175299 219.553984)">99.5%</text>
   </g>
   <g id="text_3">
    <text style="fill: #262626; font: 10px 'Arial', 'Liberation Sans', 'DejaVu Sans', 'Bitstream Vera Sans', sans-serif; text-anchor: start" x="515.344961" y="222.952811" transform="rotate(-0 515.344961 222.952811)">chicago_pd</text>
   </g>
   <g id="text_4">
    <text style="fill: #262626; font: 10px 'Arial', 'Liberation Sans', 'DejaVu Sans', 'Bitstream Vera Sans', sans-serif; text-anchor: middle" x="448.824524" y="221.949687" transform="rotate(-0 448.824524 221.949687)">0.5%</text>
   </g>
   <g id="text_5">
    <text style="fill: #262626; font: 10px 'Arial', 'Liberation Sans', 'DejaVu Sans', 'Bitstream Vera Sans', sans-serif; text-anchor: start" x="515.361598" y="220.767554" transform="rotate(-0 515.361598 220.767554)">chicago_police</text>
   </g>
   <g id="text_6">
    <text style="fill: #262626; font: 10px 'Arial', 'Liberation Sans', 'DejaVu Sans', 'Bitstream Vera Sans', sans-serif; text-anchor: middle" x="448.833599" y="220.757728" transform="rotate(-0 448.833599 220.757728)">0.0%</text>
   </g>
   <g id="text_7">
    <text style="fill: #262626; font: 12px 'Arial', 'Liberation Sans', 'DejaVu Sans', 'Bitstream Vera Sans', sans-serif; text-anchor: middle" x="369" y="45.84" transform="rotate(-0 369 45.84)">Incidents by Source</text>
   </g>
  </g>
 </g>
</svg>
