<?xml version="1.0" encoding="utf-8" standalone="no"?>
<!DOCTYPE svg PUBLIC "-//W3C//DTD SVG 1.1//EN"
  "http://www.w3.org/Graphics/SVG/1.1/DTD/svg11.dtd">
<svg xmlns:xlink="http://www.w3.org/1999/xlink" width="720pt" height="432pt" viewBox="0 0 720 432" xmlns="http://www.w3.org/2000/svg" version="1.1">
 <metadata>
  <rdf:RDF xmlns:dc="http://purl.org/dc/elements/1.1/" xmlns:cc="http://creativecommons.org/ns#" xmlns:rdf="http://www.w3.org/1999/02/22-rdf-syntax-ns#">
   <cc:Work>
    <dc:type rdf:resource="http://purl.org/dc/dcmitype/StillImage"/>
    <dc:date>2025-06-29T12:26:29.430241</dc:date>
    <dc:format>image/svg+xml</dc:format>
    <dc:creator>
     <cc:Agent>
      <dc:title>Matplotlib v3.7.5, https://matplotlib.org/</dc:title>
     </cc:Agent>
    </dc:creator>
   </cc:Work>
  </rdf:RDF>
 </metadata>
 <defs>
  <style type="text/css">*{stroke-linejoin: round; stroke-linecap: butt}</style>
 </defs>
 <g id="figure_1">
  <g id="patch_1">
   <path d="M 0 432 
L 720 432 
L 720 0 
L 0 0 
z
" style="fill: #ffffff"/>
  </g>
  <g id="axes_1">
   <g id="matplotlib.axis_1"/>
   <g id="matplotlib.axis_2"/>
   <g id="patch_2">
    <path d="M 502.056 218.16 
C 502.056 200.729872 498.631021 183.468402 491.976132 167.35872 
C 485.321244 151.249039 475.565235 136.602909 463.263762 124.254503 
C 450.962288 111.906097 436.353414 102.094389 420.26919 95.378205 
C 404.184967 88.662021 386.936664 85.171337 369.506662 85.104965 
C 352.07666 85.038593 334.802273 88.397818 318.667367 94.991314 
C 302.532462 101.58481 287.849288 111.284977 275.454129 123.53934 
C 263.058971 135.793703 253.191704 150.36511 246.414322 166.423642 
C 239.63694 182.482175 236.080601 199.717061 235.947859 217.146684 
C 235.815116 234.576306 239.108537 251.86336 245.640546 268.023256 
C 252.172555 284.183151 261.81674 298.903156 274.023815 311.344888 
C 286.230889 323.78662 300.764617 333.709301 316.797225 340.547783 
C 332.829834 347.386265 350.051053 351.008206 367.480044 351.207318 
C 384.909035 351.40643 402.208504 348.178859 418.393155 341.708433 
C 434.577807 335.238007 449.334429 325.649944 461.822554 313.490334 
C 474.310679 301.330725 484.288631 286.834887 491.188114 270.828435 
C 498.087596 254.821983 501.775088 237.614681 502.040566 220.186574 
L 369 218.16 
z
" style="fill: #f77189"/>
   </g>
   <g id="patch_3">
    <path d="M 502.040566 220.186574 
C 502.045659 219.852185 502.049492 219.517778 502.052065 219.18336 
C 502.054637 218.848942 502.055948 218.514515 502.055998 218.180087 
L 369 218.16 
z
" style="fill: #bb9832"/>
   </g>
   <g id="patch_4">
    <path d="M 502.055998 218.180087 
C 502.055999 218.176743 502.055999 218.173398 502.056 218.170054 
C 502.056 218.16671 502.056 218.163366 502.056 218.160021 
L 369 218.16 
z
" style="fill: #50b131"/>
   </g>
   <g id="text_1">
    <text style="fill: #262626; font: 10px 'Arial', 'Liberation Sans', 'DejaVu Sans', 'Bitstream Vera Sans', sans-serif; text-anchor: end" x="222.642644" y="219.631289" transform="rotate(-0 222.642644 219.631289)">newsapi</text>
   </g>
   <g id="text_2">
    <text style="fill: #262626; font: 10px 'Arial', 'Liberation Sans', 'DejaVu Sans', 'Bitstream Vera Sans', sans-serif; text-anchor: middle" x="289.168715" y="220.137948" transform="rotate(-0 289.168715 220.137948)">99.8%</text>
   </g>
   <g id="text_3">
    <text style="fill: #262626; font: 10px 'Arial', 'Liberation Sans', 'DejaVu Sans', 'Bitstream Vera Sans', sans-serif; text-anchor: start" x="515.357271" y="221.871633" transform="rotate(-0 515.357271 221.871633)">chicago_pd</text>
   </g>
   <g id="text_4">
    <text style="fill: #262626; font: 10px 'Arial', 'Liberation Sans', 'DejaVu Sans', 'Bitstream Vera Sans', sans-serif; text-anchor: middle" x="448.831239" y="221.359953" transform="rotate(-0 448.831239 221.359953)">0.2%</text>
   </g>
   <g id="text_5">
    <text style="fill: #262626; font: 10px 'Arial', 'Liberation Sans', 'DejaVu Sans', 'Bitstream Vera Sans', sans-serif; text-anchor: start" x="515.3616" y="220.756997" transform="rotate(-0 515.3616 220.756997)">chicago_police</text>
   </g>
   <g id="text_6">
    <text style="fill: #262626; font: 10px 'Arial', 'Liberation Sans', 'DejaVu Sans', 'Bitstream Vera Sans', sans-serif; text-anchor: middle" x="448.8336" y="220.75197" transform="rotate(-0 448.8336 220.75197)">0.0%</text>
   </g>
   <g id="text_7">
    <text style="fill: #262626; font: 12px 'Arial', 'Liberation Sans', 'DejaVu Sans', 'Bitstream Vera Sans', sans-serif; text-anchor: middle" x="369" y="45.84" transform="rotate(-0 369 45.84)">Incidents by Source</text>
   </g>
  </g>
 </g>
</svg>
