<?xml version="1.0" encoding="utf-8" standalone="no"?>
<!DOCTYPE svg PUBLIC "-//W3C//DTD SVG 1.1//EN"
  "http://www.w3.org/Graphics/SVG/1.1/DTD/svg11.dtd">
<svg xmlns:xlink="http://www.w3.org/1999/xlink" width="720pt" height="432pt" viewBox="0 0 720 432" xmlns="http://www.w3.org/2000/svg" version="1.1">
 <metadata>
  <rdf:RDF xmlns:dc="http://purl.org/dc/elements/1.1/" xmlns:cc="http://creativecommons.org/ns#" xmlns:rdf="http://www.w3.org/1999/02/22-rdf-syntax-ns#">
   <cc:Work>
    <dc:type rdf:resource="http://purl.org/dc/dcmitype/StillImage"/>
    <dc:date>2025-06-22T12:43:18.001132</dc:date>
    <dc:format>image/svg+xml</dc:format>
    <dc:creator>
     <cc:Agent>
      <dc:title>Matplotlib v3.7.5, https://matplotlib.org/</dc:title>
     </cc:Agent>
    </dc:creator>
   </cc:Work>
  </rdf:RDF>
 </metadata>
 <defs>
  <style type="text/css">*{stroke-linejoin: round; stroke-linecap: butt}</style>
 </defs>
 <g id="figure_1">
  <g id="patch_1">
   <path d="M 0 432 
L 720 432 
L 720 0 
L 0 0 
z
" style="fill: #ffffff"/>
  </g>
  <g id="axes_1">
   <g id="matplotlib.axis_1"/>
   <g id="matplotlib.axis_2"/>
   <g id="patch_2">
    <path d="M 502.056 218.16 
C 502.056 200.731196 498.631541 183.471012 491.977635 167.362359 
C 485.323729 151.253705 475.569126 136.608276 463.269318 124.260081 
C 450.96951 111.911886 436.362493 102.099857 420.280088 95.382756 
C 404.197683 88.665655 386.951077 85.173455 369.522408 85.105026 
C 352.093739 85.036596 334.820243 88.393261 318.685588 94.98387 
C 302.550934 101.574478 287.867319 111.271505 275.470928 123.522736 
C 263.074536 135.773967 253.205232 150.342348 246.425039 166.398256 
C 239.644847 182.454164 236.08496 199.686925 235.948102 217.115192 
C 235.811244 234.543458 239.100064 251.83 245.627273 267.990406 
C 252.154482 284.150813 261.793783 298.872387 273.996249 311.316784 
C 286.198715 323.761181 300.728234 333.687608 316.757397 340.530787 
C 332.786561 347.373967 350.005213 351.001486 367.432808 351.20677 
C 384.860402 351.412054 402.159724 348.191131 418.345633 341.727422 
C 434.531542 335.263712 449.290849 325.682286 461.78306 313.528774 
C 474.275271 301.375261 484.258667 286.884828 491.164728 270.882656 
C 498.070789 254.880483 501.765884 237.676206 502.039592 220.249552 
L 369 218.16 
z
" style="fill: #f77189"/>
   </g>
   <g id="patch_3">
    <path d="M 502.039592 220.249552 
C 502.045007 219.904772 502.049082 219.559971 502.051816 219.215159 
C 502.054551 218.870347 502.055945 218.525526 502.055998 218.180703 
L 369 218.16 
z
" style="fill: #bb9832"/>
   </g>
   <g id="patch_4">
    <path d="M 502.055998 218.180703 
C 502.055999 218.177254 502.055999 218.173806 502.056 218.170358 
C 502.056 218.16691 502.056 218.163461 502.056 218.160013 
L 369 218.16 
z
" style="fill: #50b131"/>
   </g>
   <g id="text_1">
    <text style="fill: #262626; font: 10px 'Arial', 'Liberation Sans', 'DejaVu Sans', 'Bitstream Vera Sans', sans-serif; text-anchor: end" x="222.642912" y="219.596648" transform="rotate(-0 222.642912 219.596648)">newsapi</text>
   </g>
   <g id="text_2">
    <text style="fill: #262626; font: 10px 'Arial', 'Liberation Sans', 'DejaVu Sans', 'Bitstream Vera Sans', sans-serif; text-anchor: middle" x="289.168861" y="220.119053" transform="rotate(-0 289.168861 220.119053)">99.8%</text>
   </g>
   <g id="text_3">
    <text style="fill: #262626; font: 10px 'Arial', 'Liberation Sans', 'DejaVu Sans', 'Bitstream Vera Sans', sans-serif; text-anchor: start" x="515.356998" y="221.906613" transform="rotate(-0 515.356998 221.906613)">chicago_pd</text>
   </g>
   <g id="text_4">
    <text style="fill: #262626; font: 10px 'Arial', 'Liberation Sans', 'DejaVu Sans', 'Bitstream Vera Sans', sans-serif; text-anchor: middle" x="448.83109" y="221.379033" transform="rotate(-0 448.83109 221.379033)">0.2%</text>
   </g>
   <g id="text_5">
    <text style="fill: #262626; font: 10px 'Arial', 'Liberation Sans', 'DejaVu Sans', 'Bitstream Vera Sans', sans-serif; text-anchor: start" x="515.3616" y="220.757331" transform="rotate(-0 515.3616 220.757331)">chicago_police</text>
   </g>
   <g id="text_6">
    <text style="fill: #262626; font: 10px 'Arial', 'Liberation Sans', 'DejaVu Sans', 'Bitstream Vera Sans', sans-serif; text-anchor: middle" x="448.8336" y="220.752152" transform="rotate(-0 448.8336 220.752152)">0.0%</text>
   </g>
   <g id="text_7">
    <text style="fill: #262626; font: 12px 'Arial', 'Liberation Sans', 'DejaVu Sans', 'Bitstream Vera Sans', sans-serif; text-anchor: middle" x="369" y="45.84" transform="rotate(-0 369 45.84)">Incidents by Source</text>
   </g>
  </g>
 </g>
</svg>
