<?xml version="1.0" encoding="utf-8" standalone="no"?>
<!DOCTYPE svg PUBLIC "-//W3C//DTD SVG 1.1//EN"
  "http://www.w3.org/Graphics/SVG/1.1/DTD/svg11.dtd">
<svg xmlns:xlink="http://www.w3.org/1999/xlink" width="720pt" height="432pt" viewBox="0 0 720 432" xmlns="http://www.w3.org/2000/svg" version="1.1">
 <metadata>
  <rdf:RDF xmlns:dc="http://purl.org/dc/elements/1.1/" xmlns:cc="http://creativecommons.org/ns#" xmlns:rdf="http://www.w3.org/1999/02/22-rdf-syntax-ns#">
   <cc:Work>
    <dc:type rdf:resource="http://purl.org/dc/dcmitype/StillImage"/>
    <dc:date>2025-11-22T01:05:32.588870</dc:date>
    <dc:format>image/svg+xml</dc:format>
    <dc:creator>
     <cc:Agent>
      <dc:title>Matplotlib v3.7.5, https://matplotlib.org/</dc:title>
     </cc:Agent>
    </dc:creator>
   </cc:Work>
  </rdf:RDF>
 </metadata>
 <defs>
  <style type="text/css">*{stroke-linejoin: round; stroke-linecap: butt}</style>
 </defs>
 <g id="figure_1">
  <g id="patch_1">
   <path d="M 0 432 
L 720 432 
L 720 0 
L 0 0 
z
" style="fill: #ffffff"/>
  </g>
  <g id="axes_1">
   <g id="matplotlib.axis_1"/>
   <g id="matplotlib.axis_2"/>
   <g id="patch_2">
    <path d="M 502.056 218.16 
C 502.056 200.711924 498.623964 183.433028 491.955759 167.309431 
C 485.287555 151.185833 475.512495 136.530209 463.188449 124.178964 
C 450.864403 111.827719 436.230364 102.020375 420.121506 95.316641 
C 404.012648 88.612908 386.74136 85.142788 369.293326 85.104323 
C 351.845293 85.065858 334.558873 88.459795 318.420614 95.092438 
C 302.282355 101.725081 287.605217 111.467808 275.226834 123.764595 
C 262.84845 136.061382 253.008868 150.673765 246.269639 166.767806 
C 239.53041 182.861847 236.022223 200.125442 235.945293 217.573349 
C 235.868364 235.021255 239.224183 252.315115 245.821233 268.467956 
C 252.418283 284.620798 262.12863 299.319378 274.398098 311.72484 
C 286.667567 324.130303 301.258223 334.002074 317.337368 340.776767 
C 333.416512 347.55146 350.672332 351.097696 368.120026 351.21309 
C 385.567721 351.328484 402.868936 348.010798 419.036282 341.449373 
C 435.203628 334.887949 449.923579 325.210029 462.35606 312.967939 
C 474.78854 300.725848 484.692454 286.15699 491.502577 270.09282 
C 498.3127 254.028649 501.896969 236.780689 502.050827 219.333292 
L 369 218.16 
z
" style="fill: #f77189"/>
   </g>
   <g id="patch_3">
    <path d="M 502.050827 219.333292 
C 502.052534 219.13968 502.053819 218.946065 502.054681 218.752448 
C 502.055543 218.558831 502.055983 218.365212 502.055999 218.171593 
L 369 218.16 
z
" style="fill: #bb9832"/>
   </g>
   <g id="patch_4">
    <path d="M 502.055999 218.171593 
C 502.056 218.169657 502.056 218.167721 502.056 218.165785 
C 502.056 218.163849 502.056 218.161912 502.056 218.159976 
L 369 218.16 
z
" style="fill: #50b131"/>
   </g>
   <g id="text_1">
    <text style="fill: #262626; font: 10px 'Arial', 'Liberation Sans', 'DejaVu Sans', 'Bitstream Vera Sans', sans-serif; text-anchor: end" x="222.639823" y="220.100621" transform="rotate(-0 222.639823 220.100621)">newsapi</text>
   </g>
   <g id="text_2">
    <text style="fill: #262626; font: 10px 'Arial', 'Liberation Sans', 'DejaVu Sans', 'Bitstream Vera Sans', sans-serif; text-anchor: middle" x="289.167176" y="220.393947" transform="rotate(-0 289.167176 220.393947)">99.9%</text>
   </g>
   <g id="text_3">
    <text style="fill: #262626; font: 10px 'Arial', 'Liberation Sans', 'DejaVu Sans', 'Bitstream Vera Sans', sans-serif; text-anchor: start" x="515.360149" y="221.39763" transform="rotate(-0 515.360149 221.39763)">chicago_pd</text>
   </g>
   <g id="text_4">
    <text style="fill: #262626; font: 10px 'Arial', 'Liberation Sans', 'DejaVu Sans', 'Bitstream Vera Sans', sans-serif; text-anchor: middle" x="448.832809" y="221.101406" transform="rotate(-0 448.832809 221.101406)">0.1%</text>
   </g>
   <g id="text_5">
    <text style="fill: #262626; font: 10px 'Arial', 'Liberation Sans', 'DejaVu Sans', 'Bitstream Vera Sans', sans-serif; text-anchor: start" x="515.3616" y="220.752301" transform="rotate(-0 515.3616 220.752301)">chicago_police</text>
   </g>
   <g id="text_6">
    <text style="fill: #262626; font: 10px 'Arial', 'Liberation Sans', 'DejaVu Sans', 'Bitstream Vera Sans', sans-serif; text-anchor: middle" x="448.8336" y="220.749408" transform="rotate(-0 448.8336 220.749408)">0.0%</text>
   </g>
   <g id="text_7">
    <text style="fill: #262626; font: 12px 'Arial', 'Liberation Sans', 'DejaVu Sans', 'Bitstream Vera Sans', sans-serif; text-anchor: middle" x="369" y="45.84" transform="rotate(-0 369 45.84)">Incidents by Source</text>
   </g>
  </g>
 </g>
</svg>
