<?xml version="1.0" encoding="utf-8" standalone="no"?>
<!DOCTYPE svg PUBLIC "-//W3C//DTD SVG 1.1//EN"
  "http://www.w3.org/Graphics/SVG/1.1/DTD/svg11.dtd">
<svg xmlns:xlink="http://www.w3.org/1999/xlink" width="720pt" height="432pt" viewBox="0 0 720 432" xmlns="http://www.w3.org/2000/svg" version="1.1">
 <metadata>
  <rdf:RDF xmlns:dc="http://purl.org/dc/elements/1.1/" xmlns:cc="http://creativecommons.org/ns#" xmlns:rdf="http://www.w3.org/1999/02/22-rdf-syntax-ns#">
   <cc:Work>
    <dc:type rdf:resource="http://purl.org/dc/dcmitype/StillImage"/>
    <dc:date>2026-06-17T04:42:36.732087</dc:date>
    <dc:format>image/svg+xml</dc:format>
    <dc:creator>
     <cc:Agent>
      <dc:title>Matplotlib v3.7.5, https://matplotlib.org/</dc:title>
     </cc:Agent>
    </dc:creator>
   </cc:Work>
  </rdf:RDF>
 </metadata>
 <defs>
  <style type="text/css">*{stroke-linejoin: round; stroke-linecap: butt}</style>
 </defs>
 <g id="figure_1">
  <g id="patch_1">
   <path d="M 0 432 
L 720 432 
L 720 0 
L 0 0 
z
" style="fill: #ffffff"/>
  </g>
  <g id="axes_1">
   <g id="matplotlib.axis_1"/>
   <g id="matplotlib.axis_2"/>
   <g id="patch_2">
    <path d="M 502.056 218.16 
C 502.056 200.703113 498.620496 183.415663 491.94575 167.285236 
C 485.271004 151.154809 475.486587 136.494531 463.151455 124.141902 
C 450.816323 111.789274 436.169928 101.984086 420.048978 95.286484 
C 403.928028 88.588881 386.645465 85.128877 369.188596 85.104134 
C 351.731726 85.07939 334.439424 88.490387 318.299553 95.142262 
C 302.159681 101.794138 287.485548 111.557766 275.115448 123.875377 
C 262.745349 136.192988 252.919411 150.82547 246.198965 166.936911 
C 239.478519 183.048351 235.994022 200.325992 235.944535 217.782809 
C 235.895047 235.239626 239.28153 252.536745 245.910522 268.686029 
C 252.539515 284.835313 262.282334 299.52327 274.582398 311.910817 
C 286.882463 324.298363 301.501004 334.145032 317.602902 340.888308 
C 333.704801 347.631584 350.977486 351.140566 368.434215 351.214797 
C 385.890944 351.289028 403.192846 347.927066 419.35151 341.32097 
C 435.510173 334.714875 450.211925 324.992885 462.616894 312.710391 
C 475.021862 300.427896 484.889241 285.823327 491.655333 269.731003 
C 498.421426 253.638679 501.954887 236.370985 502.053861 218.914378 
L 369 218.16 
z
" style="fill: #f77189"/>
   </g>
   <g id="patch_3">
    <path d="M 502.053861 218.914378 
C 502.054567 218.789896 502.055098 218.665412 502.055455 218.540927 
C 502.055811 218.416443 502.055993 218.291958 502.056 218.167473 
L 369 218.16 
z
" style="fill: #bb9832"/>
   </g>
   <g id="patch_4">
    <path d="M 502.056 218.167473 
C 502.056 218.166228 502.056 218.164984 502.056 218.163739 
C 502.056 218.162494 502.056 218.161249 502.056 218.160004 
L 369 218.16 
z
" style="fill: #50b131"/>
   </g>
   <g id="text_1">
    <text style="fill: #262626; font: 10px 'Arial', 'Liberation Sans', 'DejaVu Sans', 'Bitstream Vera Sans', sans-serif; text-anchor: end" x="222.638988" y="220.331028" transform="rotate(-0 222.638988 220.331028)">newsapi</text>
   </g>
   <g id="text_2">
    <text style="fill: #262626; font: 10px 'Arial', 'Liberation Sans', 'DejaVu Sans', 'Bitstream Vera Sans', sans-serif; text-anchor: middle" x="289.166721" y="220.519623" transform="rotate(-0 289.166721 220.519623)">99.9%</text>
   </g>
   <g id="text_3">
    <text style="fill: #262626; font: 10px 'Arial', 'Liberation Sans', 'DejaVu Sans', 'Bitstream Vera Sans', sans-serif; text-anchor: start" x="515.361" y="221.164958" transform="rotate(-0 515.361 221.164958)">chicago_pd</text>
   </g>
   <g id="text_4">
    <text style="fill: #262626; font: 10px 'Arial', 'Liberation Sans', 'DejaVu Sans', 'Bitstream Vera Sans', sans-serif; text-anchor: middle" x="448.833273" y="220.974494" transform="rotate(-0 448.833273 220.974494)">0.1%</text>
   </g>
   <g id="text_5">
    <text style="fill: #262626; font: 10px 'Arial', 'Liberation Sans', 'DejaVu Sans', 'Bitstream Vera Sans', sans-serif; text-anchor: start" x="515.3616" y="220.75005" transform="rotate(-0 515.3616 220.75005)">chicago_police</text>
   </g>
   <g id="text_6">
    <text style="fill: #262626; font: 10px 'Arial', 'Liberation Sans', 'DejaVu Sans', 'Bitstream Vera Sans', sans-serif; text-anchor: middle" x="448.8336" y="220.748181" transform="rotate(-0 448.8336 220.748181)">0.0%</text>
   </g>
   <g id="text_7">
    <text style="fill: #262626; font: 12px 'Arial', 'Liberation Sans', 'DejaVu Sans', 'Bitstream Vera Sans', sans-serif; text-anchor: middle" x="369" y="45.84" transform="rotate(-0 369 45.84)">Incidents by Source</text>
   </g>
  </g>
 </g>
</svg>
