<?xml version="1.0" encoding="utf-8" standalone="no"?>
<!DOCTYPE svg PUBLIC "-//W3C//DTD SVG 1.1//EN"
  "http://www.w3.org/Graphics/SVG/1.1/DTD/svg11.dtd">
<svg xmlns:xlink="http://www.w3.org/1999/xlink" width="720pt" height="432pt" viewBox="0 0 720 432" xmlns="http://www.w3.org/2000/svg" version="1.1">
 <metadata>
  <rdf:RDF xmlns:dc="http://purl.org/dc/elements/1.1/" xmlns:cc="http://creativecommons.org/ns#" xmlns:rdf="http://www.w3.org/1999/02/22-rdf-syntax-ns#">
   <cc:Work>
    <dc:type rdf:resource="http://purl.org/dc/dcmitype/StillImage"/>
    <dc:date>2026-02-05T02:32:56.181541</dc:date>
    <dc:format>image/svg+xml</dc:format>
    <dc:creator>
     <cc:Agent>
      <dc:title>Matplotlib v3.7.5, https://matplotlib.org/</dc:title>
     </cc:Agent>
    </dc:creator>
   </cc:Work>
  </rdf:RDF>
 </metadata>
 <defs>
  <style type="text/css">*{stroke-linejoin: round; stroke-linecap: butt}</style>
 </defs>
 <g id="figure_1">
  <g id="patch_1">
   <path d="M 0 432 
L 720 432 
L 720 0 
L 0 0 
z
" style="fill: #ffffff"/>
  </g>
  <g id="axes_1">
   <g id="matplotlib.axis_1"/>
   <g id="matplotlib.axis_2"/>
   <g id="patch_2">
    <path d="M 502.056 218.16 
C 502.056 200.707658 498.622285 183.424622 491.950914 167.297717 
C 485.279543 151.170813 475.499954 136.512935 463.170541 124.16102 
C 450.841129 111.809104 436.201108 102.002803 420.086396 95.302036 
C 403.971684 88.601269 386.694937 85.136045 369.242624 85.104221 
C 351.790312 85.072397 334.501042 88.474591 318.362 95.116544 
C 302.222957 101.758497 287.547271 111.511342 275.172894 123.818211 
C 262.798516 136.125079 252.965535 150.747194 246.235395 166.849661 
C 239.505255 182.952128 236.008533 200.222527 235.944885 217.674753 
C 235.881237 235.126978 239.251899 252.422423 245.864412 268.57355 
C 252.476924 284.724677 262.202992 299.418123 274.487276 311.814921 
C 286.77156 324.211719 301.37572 334.071346 317.465888 340.830838 
C 333.556056 347.59033 350.82005 351.118538 368.272131 351.214009 
C 385.724211 351.30948 403.025773 347.970362 419.188931 341.387312 
C 435.352089 334.804261 450.063246 325.105002 462.482423 312.843344 
C 474.901601 300.581686 484.787842 285.995529 491.576663 269.917713 
C 498.365483 253.839898 501.925166 236.582366 502.052461 219.130488 
L 369 218.16 
z
" style="fill: #f77189"/>
   </g>
   <g id="patch_3">
    <path d="M 502.052461 219.130488 
C 502.053629 218.970344 502.054508 218.810197 502.055098 218.650049 
C 502.055687 218.489901 502.055988 218.329753 502.056 218.169604 
L 369 218.16 
z
" style="fill: #bb9832"/>
   </g>
   <g id="patch_4">
    <path d="M 502.056 218.169604 
C 502.056 218.168002 502.056 218.166401 502.056 218.164799 
C 502.056 218.163198 502.056 218.161596 502.056 218.159995 
L 369 218.16 
z
" style="fill: #50b131"/>
   </g>
   <g id="text_1">
    <text style="fill: #262626; font: 10px 'Arial', 'Liberation Sans', 'DejaVu Sans', 'Bitstream Vera Sans', sans-serif; text-anchor: end" x="222.639373" y="220.212165" transform="rotate(-0 222.639373 220.212165)">newsapi</text>
   </g>
   <g id="text_2">
    <text style="fill: #262626; font: 10px 'Arial', 'Liberation Sans', 'DejaVu Sans', 'Bitstream Vera Sans', sans-serif; text-anchor: middle" x="289.166931" y="220.454789" transform="rotate(-0 289.166931 220.454789)">99.9%</text>
   </g>
   <g id="text_3">
    <text style="fill: #262626; font: 10px 'Arial', 'Liberation Sans', 'DejaVu Sans', 'Bitstream Vera Sans', sans-serif; text-anchor: start" x="515.360607" y="221.284992" transform="rotate(-0 515.360607 221.284992)">chicago_pd</text>
   </g>
   <g id="text_4">
    <text style="fill: #262626; font: 10px 'Arial', 'Liberation Sans', 'DejaVu Sans', 'Bitstream Vera Sans', sans-serif; text-anchor: middle" x="448.833059" y="221.039967" transform="rotate(-0 448.833059 221.039967)">0.1%</text>
   </g>
   <g id="text_5">
    <text style="fill: #262626; font: 10px 'Arial', 'Liberation Sans', 'DejaVu Sans', 'Bitstream Vera Sans', sans-serif; text-anchor: start" x="515.3616" y="220.751217" transform="rotate(-0 515.3616 220.751217)">chicago_police</text>
   </g>
   <g id="text_6">
    <text style="fill: #262626; font: 10px 'Arial', 'Liberation Sans', 'DejaVu Sans', 'Bitstream Vera Sans', sans-serif; text-anchor: middle" x="448.8336" y="220.748817" transform="rotate(-0 448.8336 220.748817)">0.0%</text>
   </g>
   <g id="text_7">
    <text style="fill: #262626; font: 12px 'Arial', 'Liberation Sans', 'DejaVu Sans', 'Bitstream Vera Sans', sans-serif; text-anchor: middle" x="369" y="45.84" transform="rotate(-0 369 45.84)">Incidents by Source</text>
   </g>
  </g>
 </g>
</svg>
