<?xml version="1.0" encoding="utf-8" standalone="no"?>
<!DOCTYPE svg PUBLIC "-//W3C//DTD SVG 1.1//EN"
  "http://www.w3.org/Graphics/SVG/1.1/DTD/svg11.dtd">
<svg xmlns:xlink="http://www.w3.org/1999/xlink" width="720pt" height="432pt" viewBox="0 0 720 432" xmlns="http://www.w3.org/2000/svg" version="1.1">
 <metadata>
  <rdf:RDF xmlns:dc="http://purl.org/dc/elements/1.1/" xmlns:cc="http://creativecommons.org/ns#" xmlns:rdf="http://www.w3.org/1999/02/22-rdf-syntax-ns#">
   <cc:Work>
    <dc:type rdf:resource="http://purl.org/dc/dcmitype/StillImage"/>
    <dc:date>2025-05-30T12:47:56.761347</dc:date>
    <dc:format>image/svg+xml</dc:format>
    <dc:creator>
     <cc:Agent>
      <dc:title>Matplotlib v3.7.5, https://matplotlib.org/</dc:title>
     </cc:Agent>
    </dc:creator>
   </cc:Work>
  </rdf:RDF>
 </metadata>
 <defs>
  <style type="text/css">*{stroke-linejoin: round; stroke-linecap: butt}</style>
 </defs>
 <g id="figure_1">
  <g id="patch_1">
   <path d="M 0 432 
L 720 432 
L 720 0 
L 0 0 
z
" style="fill: #ffffff"/>
  </g>
  <g id="axes_1">
   <g id="matplotlib.axis_1"/>
   <g id="matplotlib.axis_2"/>
   <g id="patch_2">
    <path d="M 502.056 218.16 
C 502.056 200.737326 498.63395 183.483094 491.984589 167.379195 
C 485.335227 151.275297 475.587127 136.633115 463.295025 124.285896 
C 451.002924 111.938678 436.4045 102.125169 420.33051 95.403828 
C 404.256521 88.682487 387.017771 85.183278 369.595272 85.105332 
C 352.172773 85.027385 334.903404 88.372209 318.769918 94.949457 
C 302.636432 101.526705 287.950785 111.209201 275.548697 123.44594 
C 263.14661 135.682679 253.267887 150.237053 246.474701 166.280811 
C 239.681515 182.324569 236.105217 199.547492 235.949326 216.969468 
C 235.793435 234.391444 239.060965 251.675605 245.565968 267.838355 
C 252.070972 284.001105 261.68767 298.729923 273.868801 311.186631 
C 286.049933 323.64334 300.559965 333.587078 316.573171 340.451973 
C 332.586377 347.316869 349.793127 350.970183 367.214231 351.204016 
C 384.635336 351.437849 401.933942 348.247679 418.125633 341.81505 
C 434.317323 335.382421 449.089017 325.831714 461.600098 313.706434 
C 474.111178 301.581153 484.119732 287.115753 491.0562 271.13342 
C 497.992667 255.151087 501.722925 237.960853 502.034695 220.540969 
L 369 218.16 
z
" style="fill: #f77189"/>
   </g>
   <g id="patch_3">
    <path d="M 502.034695 220.540969 
C 502.041726 220.148115 502.047017 219.755232 502.050568 219.362331 
C 502.054118 218.969431 502.055928 218.576516 502.055998 218.183599 
L 369 218.16 
z
" style="fill: #bb9832"/>
   </g>
   <g id="patch_4">
    <path d="M 502.055998 218.183599 
C 502.055999 218.17967 502.055999 218.175741 502.055999 218.171812 
C 502.056 218.167883 502.056 218.163954 502.056 218.160024 
L 369 218.16 
z
" style="fill: #50b131"/>
   </g>
   <g id="text_1">
    <text style="fill: #262626; font: 10px 'Arial', 'Liberation Sans', 'DejaVu Sans', 'Bitstream Vera Sans', sans-serif; text-anchor: end" x="222.644259" y="219.436352" transform="rotate(-0 222.644259 219.436352)">newsapi</text>
   </g>
   <g id="text_2">
    <text style="fill: #262626; font: 10px 'Arial', 'Liberation Sans', 'DejaVu Sans', 'Bitstream Vera Sans', sans-serif; text-anchor: middle" x="289.169596" y="220.031618" transform="rotate(-0 289.169596 220.031618)">99.7%</text>
   </g>
   <g id="text_3">
    <text style="fill: #262626; font: 10px 'Arial', 'Liberation Sans', 'DejaVu Sans', 'Bitstream Vera Sans', sans-serif; text-anchor: start" x="515.355624" y="222.068502" transform="rotate(-0 515.355624 222.068502)">chicago_pd</text>
   </g>
   <g id="text_4">
    <text style="fill: #262626; font: 10px 'Arial', 'Liberation Sans', 'DejaVu Sans', 'Bitstream Vera Sans', sans-serif; text-anchor: middle" x="448.830341" y="221.467336" transform="rotate(-0 448.830341 221.467336)">0.3%</text>
   </g>
   <g id="text_5">
    <text style="fill: #262626; font: 10px 'Arial', 'Liberation Sans', 'DejaVu Sans', 'Bitstream Vera Sans', sans-serif; text-anchor: start" x="515.361599" y="220.758931" transform="rotate(-0 515.361599 220.758931)">chicago_police</text>
   </g>
   <g id="text_6">
    <text style="fill: #262626; font: 10px 'Arial', 'Liberation Sans', 'DejaVu Sans', 'Bitstream Vera Sans', sans-serif; text-anchor: middle" x="448.8336" y="220.753025" transform="rotate(-0 448.8336 220.753025)">0.0%</text>
   </g>
   <g id="text_7">
    <text style="fill: #262626; font: 12px 'Arial', 'Liberation Sans', 'DejaVu Sans', 'Bitstream Vera Sans', sans-serif; text-anchor: middle" x="369" y="45.84" transform="rotate(-0 369 45.84)">Incidents by Source</text>
   </g>
  </g>
 </g>
</svg>
