<?xml version="1.0" encoding="utf-8" standalone="no"?>
<!DOCTYPE svg PUBLIC "-//W3C//DTD SVG 1.1//EN"
  "http://www.w3.org/Graphics/SVG/1.1/DTD/svg11.dtd">
<svg xmlns:xlink="http://www.w3.org/1999/xlink" width="720pt" height="432pt" viewBox="0 0 720 432" xmlns="http://www.w3.org/2000/svg" version="1.1">
 <metadata>
  <rdf:RDF xmlns:dc="http://purl.org/dc/elements/1.1/" xmlns:cc="http://creativecommons.org/ns#" xmlns:rdf="http://www.w3.org/1999/02/22-rdf-syntax-ns#">
   <cc:Work>
    <dc:type rdf:resource="http://purl.org/dc/dcmitype/StillImage"/>
    <dc:date>2026-02-04T13:11:39.010428</dc:date>
    <dc:format>image/svg+xml</dc:format>
    <dc:creator>
     <cc:Agent>
      <dc:title>Matplotlib v3.7.5, https://matplotlib.org/</dc:title>
     </cc:Agent>
    </dc:creator>
   </cc:Work>
  </rdf:RDF>
 </metadata>
 <defs>
  <style type="text/css">*{stroke-linejoin: round; stroke-linecap: butt}</style>
 </defs>
 <g id="figure_1">
  <g id="patch_1">
   <path d="M 0 432 
L 720 432 
L 720 0 
L 0 0 
z
" style="fill: #ffffff"/>
  </g>
  <g id="axes_1">
   <g id="matplotlib.axis_1"/>
   <g id="matplotlib.axis_2"/>
   <g id="patch_2">
    <path d="M 502.056 218.16 
C 502.056 200.707689 498.622297 183.424681 491.950949 167.297801 
C 485.279601 151.17092 475.500043 136.513058 463.170669 124.161148 
C 450.841295 111.809237 436.201317 102.002928 420.086646 95.30214 
C 403.971975 88.601352 386.695268 85.136093 369.242985 85.104222 
C 351.790703 85.072351 334.501454 88.474486 318.362417 95.116372 
C 302.22338 101.758259 287.547684 111.511032 275.173278 123.817828 
C 262.798872 136.124625 252.965844 150.746671 246.235639 166.849078 
C 239.505434 182.951484 236.00863 200.221835 235.944887 217.67403 
C 235.881145 235.126225 239.251701 252.421658 245.864104 268.572797 
C 252.476506 284.723937 262.202462 299.417419 274.48664 311.814279 
C 286.770819 324.211139 301.374883 334.070853 317.464972 340.830453 
C 333.555062 347.590053 350.818998 351.11839 368.271047 351.214003 
C 385.723096 351.309616 403.024656 347.970651 419.187844 341.387754 
C 435.351032 334.804858 450.062251 325.105751 462.481524 312.844232 
C 474.900796 300.582714 484.787163 285.996679 491.576136 269.918961 
C 498.365108 253.841243 501.924966 236.583779 502.05245 219.131933 
L 369 218.16 
z
" style="fill: #f77189"/>
   </g>
   <g id="patch_3">
    <path d="M 502.05245 219.131933 
C 502.053622 218.971553 502.054503 218.81117 502.055095 218.650786 
C 502.055686 218.490403 502.055988 218.330018 502.056 218.169633 
L 369 218.16 
z
" style="fill: #bb9832"/>
   </g>
   <g id="patch_4">
    <path d="M 502.056 218.169633 
C 502.056 218.168029 502.056 218.166425 502.056 218.164822 
C 502.056 218.163218 502.056 218.161614 502.056 218.16001 
L 369 218.16 
z
" style="fill: #50b131"/>
   </g>
   <g id="text_1">
    <text style="fill: #262626; font: 10px 'Arial', 'Liberation Sans', 'DejaVu Sans', 'Bitstream Vera Sans', sans-serif; text-anchor: end" x="222.639376" y="220.211371" transform="rotate(-0 222.639376 220.211371)">newsapi</text>
   </g>
   <g id="text_2">
    <text style="fill: #262626; font: 10px 'Arial', 'Liberation Sans', 'DejaVu Sans', 'Bitstream Vera Sans', sans-serif; text-anchor: middle" x="289.166932" y="220.454356" transform="rotate(-0 289.166932 220.454356)">99.9%</text>
   </g>
   <g id="text_3">
    <text style="fill: #262626; font: 10px 'Arial', 'Liberation Sans', 'DejaVu Sans', 'Bitstream Vera Sans', sans-serif; text-anchor: start" x="515.360604" y="221.285803" transform="rotate(-0 515.360604 221.285803)">chicago_pd</text>
   </g>
   <g id="text_4">
    <text style="fill: #262626; font: 10px 'Arial', 'Liberation Sans', 'DejaVu Sans', 'Bitstream Vera Sans', sans-serif; text-anchor: middle" x="448.833057" y="221.040409" transform="rotate(-0 448.833057 221.040409)">0.1%</text>
   </g>
   <g id="text_5">
    <text style="fill: #262626; font: 10px 'Arial', 'Liberation Sans', 'DejaVu Sans', 'Bitstream Vera Sans', sans-serif; text-anchor: start" x="515.3616" y="220.751241" transform="rotate(-0 515.3616 220.751241)">chicago_police</text>
   </g>
   <g id="text_6">
    <text style="fill: #262626; font: 10px 'Arial', 'Liberation Sans', 'DejaVu Sans', 'Bitstream Vera Sans', sans-serif; text-anchor: middle" x="448.8336" y="220.74883" transform="rotate(-0 448.8336 220.74883)">0.0%</text>
   </g>
   <g id="text_7">
    <text style="fill: #262626; font: 12px 'Arial', 'Liberation Sans', 'DejaVu Sans', 'Bitstream Vera Sans', sans-serif; text-anchor: middle" x="369" y="45.84" transform="rotate(-0 369 45.84)">Incidents by Source</text>
   </g>
  </g>
 </g>
</svg>
