<?xml version="1.0" encoding="utf-8" standalone="no"?>
<!DOCTYPE svg PUBLIC "-//W3C//DTD SVG 1.1//EN"
  "http://www.w3.org/Graphics/SVG/1.1/DTD/svg11.dtd">
<svg xmlns:xlink="http://www.w3.org/1999/xlink" width="720pt" height="432pt" viewBox="0 0 720 432" xmlns="http://www.w3.org/2000/svg" version="1.1">
 <metadata>
  <rdf:RDF xmlns:dc="http://purl.org/dc/elements/1.1/" xmlns:cc="http://creativecommons.org/ns#" xmlns:rdf="http://www.w3.org/1999/02/22-rdf-syntax-ns#">
   <cc:Work>
    <dc:type rdf:resource="http://purl.org/dc/dcmitype/StillImage"/>
    <dc:date>2026-07-13T19:19:16.519266</dc:date>
    <dc:format>image/svg+xml</dc:format>
    <dc:creator>
     <cc:Agent>
      <dc:title>Matplotlib v3.7.5, https://matplotlib.org/</dc:title>
     </cc:Agent>
    </dc:creator>
   </cc:Work>
  </rdf:RDF>
 </metadata>
 <defs>
  <style type="text/css">*{stroke-linejoin: round; stroke-linecap: butt}</style>
 </defs>
 <g id="figure_1">
  <g id="patch_1">
   <path d="M 0 432 
L 720 432 
L 720 0 
L 0 0 
z
" style="fill: #ffffff"/>
  </g>
  <g id="axes_1">
   <g id="matplotlib.axis_1"/>
   <g id="matplotlib.axis_2"/>
   <g id="patch_2">
    <path d="M 502.056 218.16 
C 502.056 200.702326 498.620187 183.414112 491.944856 167.283075 
C 485.269526 151.152038 475.484272 136.491344 463.148149 124.138592 
C 450.812027 111.785841 436.164528 101.980846 420.042498 95.283792 
C 403.920468 88.586737 386.636898 85.127638 369.17924 85.104121 
C 351.721582 85.080603 334.428755 88.493125 318.28874 95.146719 
C 302.148726 101.800313 287.474863 111.565809 275.105505 123.88528 
C 262.736146 136.20475 252.911429 150.839028 246.192663 166.952022 
C 239.473896 183.065015 235.991517 200.34391 235.944483 217.80152 
C 235.897448 235.259131 239.286671 252.556539 245.918517 268.705502 
C 252.550363 284.854465 262.296083 299.54147 274.59888 311.927412 
C 286.901677 324.313355 301.522706 334.157777 317.626634 340.898244 
C 333.730562 347.63871 351.00475 351.144362 368.462282 351.214913 
C 385.919813 351.285465 403.221771 347.919547 419.379653 341.309461 
C 435.537535 334.699375 450.237655 324.973449 462.640159 312.687349 
C 475.042664 300.401248 484.906773 285.793493 491.668927 269.69866 
C 498.431081 253.603827 501.96 236.334377 502.054068 218.876956 
L 369 218.16 
z
" style="fill: #f77189"/>
   </g>
   <g id="patch_3">
    <path d="M 502.054068 218.876956 
C 502.054706 218.75865 502.055186 218.640343 502.055507 218.522036 
C 502.055829 218.403728 502.055993 218.285421 502.056 218.167113 
L 369 218.16 
z
" style="fill: #bb9832"/>
   </g>
   <g id="patch_4">
    <path d="M 502.056 218.167113 
C 502.056 218.16593 502.056 218.164747 502.056 218.163563 
C 502.056 218.16238 502.056 218.161197 502.056 218.160014 
L 369 218.16 
z
" style="fill: #50b131"/>
   </g>
   <g id="text_1">
    <text style="fill: #262626; font: 10px 'Arial', 'Liberation Sans', 'DejaVu Sans', 'Bitstream Vera Sans', sans-serif; text-anchor: end" x="222.638931" y="220.35161" transform="rotate(-0 222.638931 220.35161)">newsapi</text>
   </g>
   <g id="text_2">
    <text style="fill: #262626; font: 10px 'Arial', 'Liberation Sans', 'DejaVu Sans', 'Bitstream Vera Sans', sans-serif; text-anchor: middle" x="289.16669" y="220.53085" transform="rotate(-0 289.16669 220.53085)">99.9%</text>
   </g>
   <g id="text_3">
    <text style="fill: #262626; font: 10px 'Arial', 'Liberation Sans', 'DejaVu Sans', 'Bitstream Vera Sans', sans-serif; text-anchor: start" x="515.361058" y="221.144177" transform="rotate(-0 515.361058 221.144177)">chicago_pd</text>
   </g>
   <g id="text_4">
    <text style="fill: #262626; font: 10px 'Arial', 'Liberation Sans', 'DejaVu Sans', 'Bitstream Vera Sans', sans-serif; text-anchor: middle" x="448.833304" y="220.963159" transform="rotate(-0 448.833304 220.963159)">0.1%</text>
   </g>
   <g id="text_5">
    <text style="fill: #262626; font: 10px 'Arial', 'Liberation Sans', 'DejaVu Sans', 'Bitstream Vera Sans', sans-serif; text-anchor: start" x="515.3616" y="220.749857" transform="rotate(-0 515.3616 220.749857)">chicago_police</text>
   </g>
   <g id="text_6">
    <text style="fill: #262626; font: 10px 'Arial', 'Liberation Sans', 'DejaVu Sans', 'Bitstream Vera Sans', sans-serif; text-anchor: middle" x="448.8336" y="220.748076" transform="rotate(-0 448.8336 220.748076)">0.0%</text>
   </g>
   <g id="text_7">
    <text style="fill: #262626; font: 12px 'Arial', 'Liberation Sans', 'DejaVu Sans', 'Bitstream Vera Sans', sans-serif; text-anchor: middle" x="369" y="45.84" transform="rotate(-0 369 45.84)">Incidents by Source</text>
   </g>
  </g>
 </g>
</svg>
