<?xml version="1.0" encoding="utf-8" standalone="no"?>
<!DOCTYPE svg PUBLIC "-//W3C//DTD SVG 1.1//EN"
  "http://www.w3.org/Graphics/SVG/1.1/DTD/svg11.dtd">
<svg xmlns:xlink="http://www.w3.org/1999/xlink" width="720pt" height="432pt" viewBox="0 0 720 432" xmlns="http://www.w3.org/2000/svg" version="1.1">
 <metadata>
  <rdf:RDF xmlns:dc="http://purl.org/dc/elements/1.1/" xmlns:cc="http://creativecommons.org/ns#" xmlns:rdf="http://www.w3.org/1999/02/22-rdf-syntax-ns#">
   <cc:Work>
    <dc:type rdf:resource="http://purl.org/dc/dcmitype/StillImage"/>
    <dc:date>2026-04-27T13:26:58.667012</dc:date>
    <dc:format>image/svg+xml</dc:format>
    <dc:creator>
     <cc:Agent>
      <dc:title>Matplotlib v3.7.5, https://matplotlib.org/</dc:title>
     </cc:Agent>
    </dc:creator>
   </cc:Work>
  </rdf:RDF>
 </metadata>
 <defs>
  <style type="text/css">*{stroke-linejoin: round; stroke-linecap: butt}</style>
 </defs>
 <g id="figure_1">
  <g id="patch_1">
   <path d="M 0 432 
L 720 432 
L 720 0 
L 0 0 
z
" style="fill: #ffffff"/>
  </g>
  <g id="axes_1">
   <g id="matplotlib.axis_1"/>
   <g id="matplotlib.axis_2"/>
   <g id="patch_2">
    <path d="M 502.056 218.16 
C 502.056 200.704778 498.621152 183.418945 491.947643 167.289809 
C 485.274133 151.160673 475.491485 136.501274 463.158448 124.148906 
C 450.825412 111.796539 436.181352 101.990943 420.062688 95.29218 
C 403.944023 88.593418 386.663591 85.131501 369.208391 85.104163 
C 351.75319 85.076825 334.461999 88.484596 318.322431 95.132836 
C 302.182862 101.781076 287.508159 111.540753 275.136491 123.854428 
C 262.764823 136.168103 252.936304 150.796788 246.212305 166.904941 
C 239.488306 183.013094 235.999329 200.288083 235.944653 217.743219 
C 235.889977 235.198355 239.270662 252.494863 245.893616 268.644824 
C 252.51657 284.794785 262.253252 299.484755 274.547536 311.875693 
C 286.84182 324.266632 301.455093 334.11805 317.552695 340.867269 
C 333.650298 347.616489 350.919801 351.132517 368.37483 351.214531 
C 385.829859 351.296545 403.13164 347.942954 419.291954 341.345301 
C 435.452268 334.747649 450.15747 325.033987 462.567648 312.759125 
C 474.977826 300.484263 484.85212 285.886436 491.626543 269.799424 
C 498.400966 253.712412 501.944037 236.448437 502.053389 218.993558 
L 369 218.16 
z
" style="fill: #f77189"/>
   </g>
   <g id="patch_3">
    <path d="M 502.053389 218.993558 
C 502.054251 218.856007 502.054899 218.718455 502.055334 218.580903 
C 502.055769 218.44335 502.055991 218.305797 502.056 218.168244 
L 369 218.16 
z
" style="fill: #bb9832"/>
   </g>
   <g id="patch_4">
    <path d="M 502.056 218.168244 
C 502.056 218.166868 502.056 218.165493 502.056 218.164117 
C 502.056 218.162742 502.056 218.161366 502.056 218.159991 
L 369 218.16 
z
" style="fill: #50b131"/>
   </g>
   <g id="text_1">
    <text style="fill: #262626; font: 10px 'Arial', 'Liberation Sans', 'DejaVu Sans', 'Bitstream Vera Sans', sans-serif; text-anchor: end" x="222.639118" y="220.287479" transform="rotate(-0 222.639118 220.287479)">newsapi</text>
   </g>
   <g id="text_2">
    <text style="fill: #262626; font: 10px 'Arial', 'Liberation Sans', 'DejaVu Sans', 'Bitstream Vera Sans', sans-serif; text-anchor: middle" x="289.166792" y="220.495869" transform="rotate(-0 289.166792 220.495869)">99.9%</text>
   </g>
   <g id="text_3">
    <text style="fill: #262626; font: 10px 'Arial', 'Liberation Sans', 'DejaVu Sans', 'Bitstream Vera Sans', sans-serif; text-anchor: start" x="515.360868" y="221.20893" transform="rotate(-0 515.360868 221.20893)">chicago_pd</text>
   </g>
   <g id="text_4">
    <text style="fill: #262626; font: 10px 'Arial', 'Liberation Sans', 'DejaVu Sans', 'Bitstream Vera Sans', sans-serif; text-anchor: middle" x="448.833201" y="220.998479" transform="rotate(-0 448.833201 220.998479)">0.1%</text>
   </g>
   <g id="text_5">
    <text style="fill: #262626; font: 10px 'Arial', 'Liberation Sans', 'DejaVu Sans', 'Bitstream Vera Sans', sans-serif; text-anchor: start" x="515.3616" y="220.750466" transform="rotate(-0 515.3616 220.750466)">chicago_police</text>
   </g>
   <g id="text_6">
    <text style="fill: #262626; font: 10px 'Arial', 'Liberation Sans', 'DejaVu Sans', 'Bitstream Vera Sans', sans-serif; text-anchor: middle" x="448.8336" y="220.748408" transform="rotate(-0 448.8336 220.748408)">0.0%</text>
   </g>
   <g id="text_7">
    <text style="fill: #262626; font: 12px 'Arial', 'Liberation Sans', 'DejaVu Sans', 'Bitstream Vera Sans', sans-serif; text-anchor: middle" x="369" y="45.84" transform="rotate(-0 369 45.84)">Incidents by Source</text>
   </g>
  </g>
 </g>
</svg>
