<?xml version="1.0" encoding="utf-8" standalone="no"?>
<!DOCTYPE svg PUBLIC "-//W3C//DTD SVG 1.1//EN"
  "http://www.w3.org/Graphics/SVG/1.1/DTD/svg11.dtd">
<svg xmlns:xlink="http://www.w3.org/1999/xlink" width="720pt" height="432pt" viewBox="0 0 720 432" xmlns="http://www.w3.org/2000/svg" version="1.1">
 <metadata>
  <rdf:RDF xmlns:dc="http://purl.org/dc/elements/1.1/" xmlns:cc="http://creativecommons.org/ns#" xmlns:rdf="http://www.w3.org/1999/02/22-rdf-syntax-ns#">
   <cc:Work>
    <dc:type rdf:resource="http://purl.org/dc/dcmitype/StillImage"/>
    <dc:date>2025-11-15T18:19:09.026797</dc:date>
    <dc:format>image/svg+xml</dc:format>
    <dc:creator>
     <cc:Agent>
      <dc:title>Matplotlib v3.7.5, https://matplotlib.org/</dc:title>
     </cc:Agent>
    </dc:creator>
   </cc:Work>
  </rdf:RDF>
 </metadata>
 <defs>
  <style type="text/css">*{stroke-linejoin: round; stroke-linecap: butt}</style>
 </defs>
 <g id="figure_1">
  <g id="patch_1">
   <path d="M 0 432 
L 720 432 
L 720 0 
L 0 0 
z
" style="fill: #ffffff"/>
  </g>
  <g id="axes_1">
   <g id="matplotlib.axis_1"/>
   <g id="matplotlib.axis_2"/>
   <g id="patch_2">
    <path d="M 502.056 218.16 
C 502.056 200.712312 498.624116 183.433793 491.9562 167.310495 
C 485.288283 151.187198 475.513635 136.531779 463.190077 124.180595 
C 450.866519 111.829412 436.233024 102.021972 420.124698 95.31797 
C 404.016371 88.613967 386.74558 85.143402 369.297936 85.104334 
C 351.850291 85.065265 334.564131 88.458451 318.425943 95.090248 
C 302.287756 101.722045 287.610486 111.463852 275.231739 123.759723 
C 262.852992 136.055593 253.01281 150.667091 246.272755 166.760366 
C 239.532699 182.85364 236.023471 200.116617 235.945334 217.56413 
C 235.867198 235.011643 239.221668 252.305358 245.817312 268.458355 
C 252.412956 284.611352 262.121874 299.310398 274.389996 311.716647 
C 286.658117 324.122896 301.247545 333.995771 317.325687 340.771845 
C 333.403829 347.547919 350.658904 351.095793 368.106199 351.212998 
C 385.553493 351.330202 402.854676 348.014464 419.022401 341.455006 
C 435.190126 334.895548 449.910876 325.219568 462.344564 312.979257 
C 474.778252 300.738946 484.683771 286.171662 491.49583 270.108733 
C 498.307888 254.045805 501.894391 236.798716 502.050663 219.351728 
L 369 218.16 
z
" style="fill: #f77189"/>
   </g>
   <g id="patch_3">
    <path d="M 502.050663 219.351728 
C 502.052424 219.155078 502.05375 218.958425 502.054639 218.761769 
C 502.055529 218.565113 502.055982 218.368456 502.055999 218.171798 
L 369 218.16 
z
" style="fill: #bb9832"/>
   </g>
   <g id="patch_4">
    <path d="M 502.055999 218.171798 
C 502.056 218.169831 502.056 218.167865 502.056 218.165898 
C 502.056 218.163931 502.056 218.161965 502.056 218.159998 
L 369 218.16 
z
" style="fill: #50b131"/>
   </g>
   <g id="text_1">
    <text style="fill: #262626; font: 10px 'Arial', 'Liberation Sans', 'DejaVu Sans', 'Bitstream Vera Sans', sans-serif; text-anchor: end" x="222.639868" y="220.09048" transform="rotate(-0 222.639868 220.09048)">newsapi</text>
   </g>
   <g id="text_2">
    <text style="fill: #262626; font: 10px 'Arial', 'Liberation Sans', 'DejaVu Sans', 'Bitstream Vera Sans', sans-serif; text-anchor: middle" x="289.167201" y="220.388415" transform="rotate(-0 289.167201 220.388415)">99.9%</text>
   </g>
   <g id="text_3">
    <text style="fill: #262626; font: 10px 'Arial', 'Liberation Sans', 'DejaVu Sans', 'Bitstream Vera Sans', sans-serif; text-anchor: start" x="515.360103" y="221.407883" transform="rotate(-0 515.360103 221.407883)">chicago_pd</text>
   </g>
   <g id="text_4">
    <text style="fill: #262626; font: 10px 'Arial', 'Liberation Sans', 'DejaVu Sans', 'Bitstream Vera Sans', sans-serif; text-anchor: middle" x="448.832784" y="221.106999" transform="rotate(-0 448.832784 221.106999)">0.1%</text>
   </g>
   <g id="text_5">
    <text style="fill: #262626; font: 10px 'Arial', 'Liberation Sans', 'DejaVu Sans', 'Bitstream Vera Sans', sans-serif; text-anchor: start" x="515.3616" y="220.752425" transform="rotate(-0 515.3616 220.752425)">chicago_police</text>
   </g>
   <g id="text_6">
    <text style="fill: #262626; font: 10px 'Arial', 'Liberation Sans', 'DejaVu Sans', 'Bitstream Vera Sans', sans-serif; text-anchor: middle" x="448.8336" y="220.749476" transform="rotate(-0 448.8336 220.749476)">0.0%</text>
   </g>
   <g id="text_7">
    <text style="fill: #262626; font: 12px 'Arial', 'Liberation Sans', 'DejaVu Sans', 'Bitstream Vera Sans', sans-serif; text-anchor: middle" x="369" y="45.84" transform="rotate(-0 369 45.84)">Incidents by Source</text>
   </g>
  </g>
 </g>
</svg>
