<?xml version="1.0" encoding="utf-8" standalone="no"?>
<!DOCTYPE svg PUBLIC "-//W3C//DTD SVG 1.1//EN"
  "http://www.w3.org/Graphics/SVG/1.1/DTD/svg11.dtd">
<svg xmlns:xlink="http://www.w3.org/1999/xlink" width="720pt" height="432pt" viewBox="0 0 720 432" xmlns="http://www.w3.org/2000/svg" version="1.1">
 <metadata>
  <rdf:RDF xmlns:dc="http://purl.org/dc/elements/1.1/" xmlns:cc="http://creativecommons.org/ns#" xmlns:rdf="http://www.w3.org/1999/02/22-rdf-syntax-ns#">
   <cc:Work>
    <dc:type rdf:resource="http://purl.org/dc/dcmitype/StillImage"/>
    <dc:date>2025-10-20T12:30:19.116624</dc:date>
    <dc:format>image/svg+xml</dc:format>
    <dc:creator>
     <cc:Agent>
      <dc:title>Matplotlib v3.7.5, https://matplotlib.org/</dc:title>
     </cc:Agent>
    </dc:creator>
   </cc:Work>
  </rdf:RDF>
 </metadata>
 <defs>
  <style type="text/css">*{stroke-linejoin: round; stroke-linecap: butt}</style>
 </defs>
 <g id="figure_1">
  <g id="patch_1">
   <path d="M 0 432 
L 720 432 
L 720 0 
L 0 0 
z
" style="fill: #ffffff"/>
  </g>
  <g id="axes_1">
   <g id="matplotlib.axis_1"/>
   <g id="matplotlib.axis_2"/>
   <g id="patch_2">
    <path d="M 502.056 218.16 
C 502.056 200.71429 498.624895 183.437692 491.958447 167.315929 
C 485.291999 151.194166 475.519452 136.539793 463.198383 124.188921 
C 450.877314 111.838049 436.246594 102.030126 420.140983 95.324749 
C 404.035372 88.619371 386.767114 85.146536 369.321456 85.104388 
C 351.875797 85.06224 334.59096 88.451597 318.453138 95.079076 
C 302.315316 101.706555 287.637376 111.443669 275.256773 123.734863 
C 262.87617 136.026057 253.032929 150.63304 246.288661 166.722403 
C 239.544392 182.811767 236.029849 200.071585 235.945553 217.517091 
C 235.861258 234.962596 239.208845 252.255571 245.797317 268.409358 
C 252.385789 284.563145 262.087413 299.264566 274.34866 311.674828 
C 286.609908 324.08509 301.193067 333.963591 317.26609 340.746711 
C 333.339113 347.529831 350.590389 351.086063 368.035641 351.212505 
C 385.480892 351.338948 402.781904 348.033149 418.951561 341.483723 
C 435.121218 334.934297 449.846035 325.268219 462.285883 313.03699 
C 474.725731 300.805761 484.639436 286.24651 491.461367 270.189922 
C 498.283298 254.133333 501.881198 236.890699 502.049787 219.445804 
L 369 218.16 
z
" style="fill: #f77189"/>
   </g>
   <g id="patch_3">
    <path d="M 502.049787 219.445804 
C 502.051838 219.233631 502.05338 219.021454 502.054416 218.809274 
C 502.055451 218.597094 502.055979 218.384912 502.055999 218.17273 
L 369 218.16 
z
" style="fill: #bb9832"/>
   </g>
   <g id="patch_4">
    <path d="M 502.055999 218.17273 
C 502.056 218.170608 502.056 218.168486 502.056 218.166364 
C 502.056 218.164242 502.056 218.162121 502.056 218.159999 
L 369 218.16 
z
" style="fill: #50b131"/>
   </g>
   <g id="text_1">
    <text style="fill: #262626; font: 10px 'Arial', 'Liberation Sans', 'DejaVu Sans', 'Bitstream Vera Sans', sans-serif; text-anchor: end" x="222.640109" y="220.038737" transform="rotate(-0 222.640109 220.038737)">newsapi</text>
   </g>
   <g id="text_2">
    <text style="fill: #262626; font: 10px 'Arial', 'Liberation Sans', 'DejaVu Sans', 'Bitstream Vera Sans', sans-serif; text-anchor: middle" x="289.167332" y="220.360192" transform="rotate(-0 289.167332 220.360192)">99.8%</text>
   </g>
   <g id="text_3">
    <text style="fill: #262626; font: 10px 'Arial', 'Liberation Sans', 'DejaVu Sans', 'Bitstream Vera Sans', sans-serif; text-anchor: start" x="515.359857" y="221.460139" transform="rotate(-0 515.359857 221.460139)">chicago_pd</text>
   </g>
   <g id="text_4">
    <text style="fill: #262626; font: 10px 'Arial', 'Liberation Sans', 'DejaVu Sans', 'Bitstream Vera Sans', sans-serif; text-anchor: middle" x="448.83265" y="221.135502" transform="rotate(-0 448.83265 221.135502)">0.2%</text>
   </g>
   <g id="text_5">
    <text style="fill: #262626; font: 10px 'Arial', 'Liberation Sans', 'DejaVu Sans', 'Bitstream Vera Sans', sans-serif; text-anchor: start" x="515.3616" y="220.752938" transform="rotate(-0 515.3616 220.752938)">chicago_police</text>
   </g>
   <g id="text_6">
    <text style="fill: #262626; font: 10px 'Arial', 'Liberation Sans', 'DejaVu Sans', 'Bitstream Vera Sans', sans-serif; text-anchor: middle" x="448.8336" y="220.749756" transform="rotate(-0 448.8336 220.749756)">0.0%</text>
   </g>
   <g id="text_7">
    <text style="fill: #262626; font: 12px 'Arial', 'Liberation Sans', 'DejaVu Sans', 'Bitstream Vera Sans', sans-serif; text-anchor: middle" x="369" y="45.84" transform="rotate(-0 369 45.84)">Incidents by Source</text>
   </g>
  </g>
 </g>
</svg>
