<?xml version="1.0" encoding="utf-8" standalone="no"?>
<!DOCTYPE svg PUBLIC "-//W3C//DTD SVG 1.1//EN"
  "http://www.w3.org/Graphics/SVG/1.1/DTD/svg11.dtd">
<svg xmlns:xlink="http://www.w3.org/1999/xlink" width="720pt" height="432pt" viewBox="0 0 720 432" xmlns="http://www.w3.org/2000/svg" version="1.1">
 <metadata>
  <rdf:RDF xmlns:dc="http://purl.org/dc/elements/1.1/" xmlns:cc="http://creativecommons.org/ns#" xmlns:rdf="http://www.w3.org/1999/02/22-rdf-syntax-ns#">
   <cc:Work>
    <dc:type rdf:resource="http://purl.org/dc/dcmitype/StillImage"/>
    <dc:date>2026-03-16T07:10:08.608370</dc:date>
    <dc:format>image/svg+xml</dc:format>
    <dc:creator>
     <cc:Agent>
      <dc:title>Matplotlib v3.7.5, https://matplotlib.org/</dc:title>
     </cc:Agent>
    </dc:creator>
   </cc:Work>
  </rdf:RDF>
 </metadata>
 <defs>
  <style type="text/css">*{stroke-linejoin: round; stroke-linecap: butt}</style>
 </defs>
 <g id="figure_1">
  <g id="patch_1">
   <path d="M 0 432 
L 720 432 
L 720 0 
L 0 0 
z
" style="fill: #ffffff"/>
  </g>
  <g id="axes_1">
   <g id="matplotlib.axis_1"/>
   <g id="matplotlib.axis_2"/>
   <g id="patch_2">
    <path d="M 502.056 218.16 
C 502.056 200.706088 498.621667 183.421527 491.949131 167.293406 
C 485.276594 151.165285 475.495337 136.506578 463.163949 124.154416 
C 450.832561 111.802254 436.190339 101.996337 420.073472 95.296663 
C 403.956605 88.596989 386.67785 85.133567 369.223963 85.104188 
C 351.770076 85.07481 334.479758 88.480044 318.340429 95.125424 
C 302.2011 101.770803 287.525949 111.527373 275.153048 123.837952 
C 262.780147 136.148531 252.949598 150.774227 246.222805 166.879794 
C 239.496012 182.985361 236.003511 200.258263 235.944754 217.712075 
C 235.885996 235.165888 239.262122 252.461913 245.880327 268.612405 
C 252.498531 284.762897 262.230385 299.454449 274.52012 311.848054 
C 286.809856 324.241659 301.418984 334.096812 317.513206 340.850705 
C 333.607427 347.604598 350.874425 351.126168 368.328115 351.214304 
C 385.781804 351.30244 403.083486 347.955432 419.245096 341.364422 
C 435.406705 334.773411 450.114617 325.0663 462.528891 312.797444 
C 474.943164 300.528587 484.822894 285.936067 491.603868 269.853237 
C 498.384841 253.770407 501.93547 236.50936 502.052984 219.055844 
L 369 218.16 
z
" style="fill: #f77189"/>
   </g>
   <g id="patch_3">
    <path d="M 502.052984 219.055844 
C 502.053979 218.908019 502.054728 218.760192 502.055231 218.612364 
C 502.055734 218.464536 502.05599 218.316708 502.056 218.168879 
L 369 218.16 
z
" style="fill: #bb9832"/>
   </g>
   <g id="patch_4">
    <path d="M 502.056 218.168879 
C 502.056 218.167401 502.056 218.165922 502.056 218.164444 
C 502.056 218.162966 502.056 218.161488 502.056 218.160009 
L 369 218.16 
z
" style="fill: #50b131"/>
   </g>
   <g id="text_1">
    <text style="fill: #262626; font: 10px 'Arial', 'Liberation Sans', 'DejaVu Sans', 'Bitstream Vera Sans', sans-serif; text-anchor: end" x="222.639229" y="220.25322" transform="rotate(-0 222.639229 220.25322)">newsapi</text>
   </g>
   <g id="text_2">
    <text style="fill: #262626; font: 10px 'Arial', 'Liberation Sans', 'DejaVu Sans', 'Bitstream Vera Sans', sans-serif; text-anchor: middle" x="289.166852" y="220.477183" transform="rotate(-0 289.166852 220.477183)">99.9%</text>
   </g>
   <g id="text_3">
    <text style="fill: #262626; font: 10px 'Arial', 'Liberation Sans', 'DejaVu Sans', 'Bitstream Vera Sans', sans-serif; text-anchor: start" x="515.360754" y="221.243538" transform="rotate(-0 515.360754 221.243538)">chicago_pd</text>
   </g>
   <g id="text_4">
    <text style="fill: #262626; font: 10px 'Arial', 'Liberation Sans', 'DejaVu Sans', 'Bitstream Vera Sans', sans-serif; text-anchor: middle" x="448.833139" y="221.017356" transform="rotate(-0 448.833139 221.017356)">0.1%</text>
   </g>
   <g id="text_5">
    <text style="fill: #262626; font: 10px 'Arial', 'Liberation Sans', 'DejaVu Sans', 'Bitstream Vera Sans', sans-serif; text-anchor: start" x="515.3616" y="220.750826" transform="rotate(-0 515.3616 220.750826)">chicago_police</text>
   </g>
   <g id="text_6">
    <text style="fill: #262626; font: 10px 'Arial', 'Liberation Sans', 'DejaVu Sans', 'Bitstream Vera Sans', sans-serif; text-anchor: middle" x="448.8336" y="220.748604" transform="rotate(-0 448.8336 220.748604)">0.0%</text>
   </g>
   <g id="text_7">
    <text style="fill: #262626; font: 12px 'Arial', 'Liberation Sans', 'DejaVu Sans', 'Bitstream Vera Sans', sans-serif; text-anchor: middle" x="369" y="45.84" transform="rotate(-0 369 45.84)">Incidents by Source</text>
   </g>
  </g>
 </g>
</svg>
