<?xml version="1.0" encoding="utf-8" standalone="no"?>
<!DOCTYPE svg PUBLIC "-//W3C//DTD SVG 1.1//EN"
  "http://www.w3.org/Graphics/SVG/1.1/DTD/svg11.dtd">
<svg xmlns:xlink="http://www.w3.org/1999/xlink" width="720pt" height="432pt" viewBox="0 0 720 432" xmlns="http://www.w3.org/2000/svg" version="1.1">
 <metadata>
  <rdf:RDF xmlns:dc="http://purl.org/dc/elements/1.1/" xmlns:cc="http://creativecommons.org/ns#" xmlns:rdf="http://www.w3.org/1999/02/22-rdf-syntax-ns#">
   <cc:Work>
    <dc:type rdf:resource="http://purl.org/dc/dcmitype/StillImage"/>
    <dc:date>2026-03-11T12:44:51.419645</dc:date>
    <dc:format>image/svg+xml</dc:format>
    <dc:creator>
     <cc:Agent>
      <dc:title>Matplotlib v3.7.5, https://matplotlib.org/</dc:title>
     </cc:Agent>
    </dc:creator>
   </cc:Work>
  </rdf:RDF>
 </metadata>
 <defs>
  <style type="text/css">*{stroke-linejoin: round; stroke-linecap: butt}</style>
 </defs>
 <g id="figure_1">
  <g id="patch_1">
   <path d="M 0 432 
L 720 432 
L 720 0 
L 0 0 
z
" style="fill: #ffffff"/>
  </g>
  <g id="axes_1">
   <g id="matplotlib.axis_1"/>
   <g id="matplotlib.axis_2"/>
   <g id="patch_2">
    <path d="M 502.056 218.16 
C 502.056 200.706249 498.621731 183.421843 491.949313 167.293847 
C 485.276896 151.16585 475.495809 136.507227 463.164623 124.155091 
C 450.833437 111.802954 436.191439 101.996998 420.074792 95.297212 
C 403.958145 88.597426 386.679595 85.13382 369.225869 85.104192 
C 351.772143 85.074563 334.481932 88.479487 318.342632 95.124516 
C 302.203332 101.769546 287.528127 111.525735 275.155075 123.835935 
C 262.782023 136.146135 252.951226 150.771466 246.224091 166.876716 
C 239.496956 182.981967 236.004024 200.254613 235.944767 217.708263 
C 235.88551 235.161914 239.261077 252.457879 245.878701 268.608437 
C 252.496324 284.758994 262.227587 299.45074 274.516765 311.84467 
C 286.805944 324.238601 301.414565 334.094212 317.508372 340.848677 
C 333.60218 347.603142 350.868872 351.125389 368.322397 351.214275 
C 385.775922 351.30316 403.077592 347.956958 419.23936 341.366761 
C 435.401127 334.776563 450.109371 325.070254 462.524146 312.802133 
C 474.93892 300.534011 484.819316 285.942141 491.601091 269.859823 
C 498.382866 253.777505 501.934419 236.516817 502.052933 219.063468 
L 369 218.16 
z
" style="fill: #f77189"/>
   </g>
   <g id="patch_3">
    <path d="M 502.052933 219.063468 
C 502.053945 218.914385 502.054707 218.765301 502.055218 218.616216 
C 502.055729 218.46713 502.05599 218.318044 502.056 218.168958 
L 369 218.16 
z
" style="fill: #bb9832"/>
   </g>
   <g id="patch_4">
    <path d="M 502.056 218.168958 
C 502.056 218.167467 502.056 218.165976 502.056 218.164486 
C 502.056 218.162995 502.056 218.161504 502.056 218.160013 
L 369 218.16 
z
" style="fill: #50b131"/>
   </g>
   <g id="text_1">
    <text style="fill: #262626; font: 10px 'Arial', 'Liberation Sans', 'DejaVu Sans', 'Bitstream Vera Sans', sans-serif; text-anchor: end" x="222.639244" y="220.249027" transform="rotate(-0 222.639244 220.249027)">newsapi</text>
   </g>
   <g id="text_2">
    <text style="fill: #262626; font: 10px 'Arial', 'Liberation Sans', 'DejaVu Sans', 'Bitstream Vera Sans', sans-serif; text-anchor: middle" x="289.16686" y="220.474895" transform="rotate(-0 289.16686 220.474895)">99.9%</text>
   </g>
   <g id="text_3">
    <text style="fill: #262626; font: 10px 'Arial', 'Liberation Sans', 'DejaVu Sans', 'Bitstream Vera Sans', sans-serif; text-anchor: start" x="515.36074" y="221.247775" transform="rotate(-0 515.36074 221.247775)">chicago_pd</text>
   </g>
   <g id="text_4">
    <text style="fill: #262626; font: 10px 'Arial', 'Liberation Sans', 'DejaVu Sans', 'Bitstream Vera Sans', sans-serif; text-anchor: middle" x="448.833131" y="221.019667" transform="rotate(-0 448.833131 221.019667)">0.1%</text>
   </g>
   <g id="text_5">
    <text style="fill: #262626; font: 10px 'Arial', 'Liberation Sans', 'DejaVu Sans', 'Bitstream Vera Sans', sans-serif; text-anchor: start" x="515.3616" y="220.750872" transform="rotate(-0 515.3616 220.750872)">chicago_police</text>
   </g>
   <g id="text_6">
    <text style="fill: #262626; font: 10px 'Arial', 'Liberation Sans', 'DejaVu Sans', 'Bitstream Vera Sans', sans-serif; text-anchor: middle" x="448.8336" y="220.748629" transform="rotate(-0 448.8336 220.748629)">0.0%</text>
   </g>
   <g id="text_7">
    <text style="fill: #262626; font: 12px 'Arial', 'Liberation Sans', 'DejaVu Sans', 'Bitstream Vera Sans', sans-serif; text-anchor: middle" x="369" y="45.84" transform="rotate(-0 369 45.84)">Incidents by Source</text>
   </g>
  </g>
 </g>
</svg>
