<?xml version="1.0" encoding="utf-8" standalone="no"?>
<!DOCTYPE svg PUBLIC "-//W3C//DTD SVG 1.1//EN"
  "http://www.w3.org/Graphics/SVG/1.1/DTD/svg11.dtd">
<svg xmlns:xlink="http://www.w3.org/1999/xlink" width="720pt" height="432pt" viewBox="0 0 720 432" xmlns="http://www.w3.org/2000/svg" version="1.1">
 <metadata>
  <rdf:RDF xmlns:dc="http://purl.org/dc/elements/1.1/" xmlns:cc="http://creativecommons.org/ns#" xmlns:rdf="http://www.w3.org/1999/02/22-rdf-syntax-ns#">
   <cc:Work>
    <dc:type rdf:resource="http://purl.org/dc/dcmitype/StillImage"/>
    <dc:date>2026-02-14T12:35:17.696104</dc:date>
    <dc:format>image/svg+xml</dc:format>
    <dc:creator>
     <cc:Agent>
      <dc:title>Matplotlib v3.7.5, https://matplotlib.org/</dc:title>
     </cc:Agent>
    </dc:creator>
   </cc:Work>
  </rdf:RDF>
 </metadata>
 <defs>
  <style type="text/css">*{stroke-linejoin: round; stroke-linecap: butt}</style>
 </defs>
 <g id="figure_1">
  <g id="patch_1">
   <path d="M 0 432 
L 720 432 
L 720 0 
L 0 0 
z
" style="fill: #ffffff"/>
  </g>
  <g id="axes_1">
   <g id="matplotlib.axis_1"/>
   <g id="matplotlib.axis_2"/>
   <g id="patch_2">
    <path d="M 502.056 218.16 
C 502.056 200.70717 498.622093 183.423659 491.95036 167.296376 
C 485.278626 151.169094 475.498518 136.510958 463.168491 124.158966 
C 450.838464 111.806973 436.197758 102.000791 420.082376 95.300364 
C 403.966993 88.599937 386.689621 85.135274 369.236819 85.104211 
C 351.784017 85.073147 334.494421 88.476287 318.355289 95.119306 
C 302.216158 101.762325 287.540638 111.516328 275.16672 123.824351 
C 262.792802 136.132374 252.960577 150.755603 246.231478 166.859034 
C 239.502378 182.962466 236.00697 200.233644 235.944843 217.686363 
C 235.882716 235.139082 239.255078 252.434708 245.869361 268.585637 
C 252.483644 284.736567 262.211512 299.429424 274.497492 311.825229 
C 286.783472 324.221034 301.389178 334.07927 317.480607 340.83702 
C 333.572036 347.59477 350.836965 351.120914 368.289546 351.214103 
C 385.742128 351.307293 403.043728 347.96572 419.206404 341.380194 
C 435.369081 334.794667 450.079229 325.092965 462.496881 312.829068 
C 474.914533 300.56517 484.79875 285.977033 491.585129 269.897657 
C 498.371509 253.818282 501.928376 236.559656 502.052628 219.107268 
L 369 218.16 
z
" style="fill: #f77189"/>
   </g>
   <g id="patch_3">
    <path d="M 502.052628 219.107268 
C 502.053741 218.950957 502.054578 218.794644 502.05514 218.63833 
C 502.055702 218.482017 502.055989 218.325702 502.056 218.169387 
L 369 218.16 
z
" style="fill: #bb9832"/>
   </g>
   <g id="patch_4">
    <path d="M 502.056 218.169387 
C 502.056 218.167824 502.056 218.166261 502.056 218.164698 
C 502.056 218.163134 502.056 218.161571 502.056 218.160008 
L 369 218.16 
z
" style="fill: #50b131"/>
   </g>
   <g id="text_1">
    <text style="fill: #262626; font: 10px 'Arial', 'Liberation Sans', 'DejaVu Sans', 'Bitstream Vera Sans', sans-serif; text-anchor: end" x="222.639327" y="220.224937" transform="rotate(-0 222.639327 220.224937)">newsapi</text>
   </g>
   <g id="text_2">
    <text style="fill: #262626; font: 10px 'Arial', 'Liberation Sans', 'DejaVu Sans', 'Bitstream Vera Sans', sans-serif; text-anchor: middle" x="289.166906" y="220.461755" transform="rotate(-0 289.166906 220.461755)">99.9%</text>
   </g>
   <g id="text_3">
    <text style="fill: #262626; font: 10px 'Arial', 'Liberation Sans', 'DejaVu Sans', 'Bitstream Vera Sans', sans-serif; text-anchor: start" x="515.360654" y="221.272101" transform="rotate(-0 515.360654 221.272101)">chicago_pd</text>
   </g>
   <g id="text_4">
    <text style="fill: #262626; font: 10px 'Arial', 'Liberation Sans', 'DejaVu Sans', 'Bitstream Vera Sans', sans-serif; text-anchor: middle" x="448.833084" y="221.032936" transform="rotate(-0 448.833084 221.032936)">0.1%</text>
   </g>
   <g id="text_5">
    <text style="fill: #262626; font: 10px 'Arial', 'Liberation Sans', 'DejaVu Sans', 'Bitstream Vera Sans', sans-serif; text-anchor: start" x="515.3616" y="220.751105" transform="rotate(-0 515.3616 220.751105)">chicago_police</text>
   </g>
   <g id="text_6">
    <text style="fill: #262626; font: 10px 'Arial', 'Liberation Sans', 'DejaVu Sans', 'Bitstream Vera Sans', sans-serif; text-anchor: middle" x="448.8336" y="220.748756" transform="rotate(-0 448.8336 220.748756)">0.0%</text>
   </g>
   <g id="text_7">
    <text style="fill: #262626; font: 12px 'Arial', 'Liberation Sans', 'DejaVu Sans', 'Bitstream Vera Sans', sans-serif; text-anchor: middle" x="369" y="45.84" transform="rotate(-0 369 45.84)">Incidents by Source</text>
   </g>
  </g>
 </g>
</svg>
