<?xml version="1.0" encoding="utf-8" standalone="no"?>
<!DOCTYPE svg PUBLIC "-//W3C//DTD SVG 1.1//EN"
  "http://www.w3.org/Graphics/SVG/1.1/DTD/svg11.dtd">
<svg xmlns:xlink="http://www.w3.org/1999/xlink" width="720pt" height="432pt" viewBox="0 0 720 432" xmlns="http://www.w3.org/2000/svg" version="1.1">
 <metadata>
  <rdf:RDF xmlns:dc="http://purl.org/dc/elements/1.1/" xmlns:cc="http://creativecommons.org/ns#" xmlns:rdf="http://www.w3.org/1999/02/22-rdf-syntax-ns#">
   <cc:Work>
    <dc:type rdf:resource="http://purl.org/dc/dcmitype/StillImage"/>
    <dc:date>2025-05-01T01:12:16.125101</dc:date>
    <dc:format>image/svg+xml</dc:format>
    <dc:creator>
     <cc:Agent>
      <dc:title>Matplotlib v3.7.5, https://matplotlib.org/</dc:title>
     </cc:Agent>
    </dc:creator>
   </cc:Work>
  </rdf:RDF>
 </metadata>
 <defs>
  <style type="text/css">*{stroke-linejoin: round; stroke-linecap: butt}</style>
 </defs>
 <g id="figure_1">
  <g id="patch_1">
   <path d="M 0 432 
L 720 432 
L 720 0 
L 0 0 
z
" style="fill: #ffffff"/>
  </g>
  <g id="axes_1">
   <g id="matplotlib.axis_1"/>
   <g id="matplotlib.axis_2"/>
   <g id="patch_2">
    <path d="M 502.056 218.16 
C 502.056 200.747324 498.637876 183.5028 491.995925 167.406659 
C 485.353974 151.310518 475.616476 136.673636 463.33694 124.328018 
C 451.057405 111.9824 436.472995 102.166486 420.412733 95.438242 
C 404.352472 88.709997 387.126541 85.199371 369.714116 85.105916 
C 352.301691 85.012462 335.03907 88.337985 318.907513 94.893452 
C 302.775957 101.448919 288.087024 111.10772 275.675679 123.320819 
C 263.264334 135.533918 253.370286 150.065436 246.555943 166.089355 
C 239.7416 182.113275 236.138572 199.320116 235.951665 216.731788 
C 235.764759 234.143461 238.997585 251.423681 245.466379 267.590189 
C 251.935173 283.756697 261.514999 298.497258 273.66131 310.973972 
C 285.807621 323.450686 300.285828 333.422583 316.272944 340.322829 
C 332.26006 347.223074 349.447315 350.918401 366.857734 351.198753 
C 384.268152 351.479106 401.565475 348.33907 417.766468 341.957135 
C 433.967461 335.575201 448.759225 326.074626 461.300949 313.995453 
C 473.842673 301.916279 483.892131 287.491801 490.878081 271.541949 
C 497.864031 255.592097 501.651549 238.424922 502.025339 221.016259 
L 369 218.16 
z
" style="fill: #f77189"/>
   </g>
   <g id="patch_3">
    <path d="M 502.025339 221.016259 
C 502.035458 220.545 502.043072 220.073691 502.048182 219.602351 
C 502.053292 219.131011 502.055897 218.659647 502.055997 218.18828 
L 369 218.16 
z
" style="fill: #bb9832"/>
   </g>
   <g id="patch_4">
    <path d="M 502.055997 218.18828 
C 502.055998 218.183566 502.055999 218.178852 502.055999 218.174139 
C 502.056 218.169425 502.056 218.164711 502.056 218.159998 
L 369 218.16 
z
" style="fill: #50b131"/>
   </g>
   <g id="text_1">
    <text style="fill: #262626; font: 10px 'Arial', 'Liberation Sans', 'DejaVu Sans', 'Bitstream Vera Sans', sans-serif; text-anchor: end" x="222.646832" y="219.174905" transform="rotate(-0 222.646832 219.174905)">newsapi</text>
   </g>
   <g id="text_2">
    <text style="fill: #262626; font: 10px 'Arial', 'Liberation Sans', 'DejaVu Sans', 'Bitstream Vera Sans', sans-serif; text-anchor: middle" x="289.170999" y="219.88901" transform="rotate(-0 289.170999 219.88901)">99.7%</text>
   </g>
   <g id="text_3">
    <text style="fill: #262626; font: 10px 'Arial', 'Liberation Sans', 'DejaVu Sans', 'Bitstream Vera Sans', sans-serif; text-anchor: start" x="515.353" y="222.332523" transform="rotate(-0 515.353 222.332523)">chicago_pd</text>
   </g>
   <g id="text_4">
    <text style="fill: #262626; font: 10px 'Arial', 'Liberation Sans', 'DejaVu Sans', 'Bitstream Vera Sans', sans-serif; text-anchor: middle" x="448.828909" y="221.611348" transform="rotate(-0 448.828909 221.611348)">0.3%</text>
   </g>
   <g id="text_5">
    <text style="fill: #262626; font: 10px 'Arial', 'Liberation Sans', 'DejaVu Sans', 'Bitstream Vera Sans', sans-serif; text-anchor: start" x="515.361599" y="220.76149" transform="rotate(-0 515.361599 220.76149)">chicago_police</text>
   </g>
   <g id="text_6">
    <text style="fill: #262626; font: 10px 'Arial', 'Liberation Sans', 'DejaVu Sans', 'Bitstream Vera Sans', sans-serif; text-anchor: middle" x="448.8336" y="220.754421" transform="rotate(-0 448.8336 220.754421)">0.0%</text>
   </g>
   <g id="text_7">
    <text style="fill: #262626; font: 12px 'Arial', 'Liberation Sans', 'DejaVu Sans', 'Bitstream Vera Sans', sans-serif; text-anchor: middle" x="369" y="45.84" transform="rotate(-0 369 45.84)">Incidents by Source</text>
   </g>
  </g>
 </g>
</svg>
