<?xml version="1.0" encoding="utf-8" standalone="no"?>
<!DOCTYPE svg PUBLIC "-//W3C//DTD SVG 1.1//EN"
  "http://www.w3.org/Graphics/SVG/1.1/DTD/svg11.dtd">
<svg xmlns:xlink="http://www.w3.org/1999/xlink" width="720pt" height="432pt" viewBox="0 0 720 432" xmlns="http://www.w3.org/2000/svg" version="1.1">
 <metadata>
  <rdf:RDF xmlns:dc="http://purl.org/dc/elements/1.1/" xmlns:cc="http://creativecommons.org/ns#" xmlns:rdf="http://www.w3.org/1999/02/22-rdf-syntax-ns#">
   <cc:Work>
    <dc:type rdf:resource="http://purl.org/dc/dcmitype/StillImage"/>
    <dc:date>2026-07-21T03:16:25.457592</dc:date>
    <dc:format>image/svg+xml</dc:format>
    <dc:creator>
     <cc:Agent>
      <dc:title>Matplotlib v3.7.5, https://matplotlib.org/</dc:title>
     </cc:Agent>
    </dc:creator>
   </cc:Work>
  </rdf:RDF>
 </metadata>
 <defs>
  <style type="text/css">*{stroke-linejoin: round; stroke-linecap: butt}</style>
 </defs>
 <g id="figure_1">
  <g id="patch_1">
   <path d="M 0 432 
L 720 432 
L 720 0 
L 0 0 
z
" style="fill: #ffffff"/>
  </g>
  <g id="axes_1">
   <g id="matplotlib.axis_1"/>
   <g id="matplotlib.axis_2"/>
   <g id="patch_2">
    <path d="M 502.056 218.16 
C 502.056 200.702137 498.620112 183.41374 491.944642 167.282557 
C 485.269171 151.151374 475.483717 136.49058 463.147357 124.137799 
C 450.810997 111.785018 436.163233 101.98007 420.040945 95.283147 
C 403.918656 88.586223 386.634845 85.127341 369.176998 85.104118 
C 351.71915 85.080894 334.426198 88.493781 318.286149 95.147787 
C 302.1461 101.801794 287.472302 111.567737 275.103122 123.887653 
C 262.733941 136.20757 252.909516 150.842278 246.191152 166.955644 
C 239.472789 183.06901 235.990917 200.348204 235.944471 217.806005 
C 235.898024 235.263806 239.287904 252.561283 245.920434 268.710169 
C 252.552964 284.859055 262.299379 299.545831 274.60283 311.93139 
C 286.906282 324.316948 301.527908 334.160832 317.632323 340.900624 
C 333.736737 347.640417 351.011285 351.145271 368.469009 351.21494 
C 385.926732 351.28461 403.228703 347.917743 419.386398 341.306701 
C 435.544093 334.695659 450.243821 324.96879 462.645735 312.681825 
C 475.047649 300.39486 484.910974 285.786342 491.672184 269.690907 
C 498.433394 253.595473 501.961224 236.325603 502.054116 218.867987 
L 369 218.16 
z
" style="fill: #f77189"/>
   </g>
   <g id="patch_3">
    <path d="M 502.054116 218.867987 
C 502.054738 218.75116 502.055206 218.634332 502.05552 218.517503 
C 502.055834 218.400675 502.055994 218.283846 502.056 218.167017 
L 369 218.16 
z
" style="fill: #bb9832"/>
   </g>
   <g id="patch_4">
    <path d="M 502.056 218.167017 
C 502.056 218.165849 502.056 218.164681 502.056 218.163513 
C 502.056 218.162344 502.056 218.161176 502.056 218.160008 
L 369 218.16 
z
" style="fill: #50b131"/>
   </g>
   <g id="text_1">
    <text style="fill: #262626; font: 10px 'Arial', 'Liberation Sans', 'DejaVu Sans', 'Bitstream Vera Sans', sans-serif; text-anchor: end" x="222.638918" y="220.356543" transform="rotate(-0 222.638918 220.356543)">newsapi</text>
   </g>
   <g id="text_2">
    <text style="fill: #262626; font: 10px 'Arial', 'Liberation Sans', 'DejaVu Sans', 'Bitstream Vera Sans', sans-serif; text-anchor: middle" x="289.166683" y="220.533541" transform="rotate(-0 289.166683 220.533541)">99.9%</text>
   </g>
   <g id="text_3">
    <text style="fill: #262626; font: 10px 'Arial', 'Liberation Sans', 'DejaVu Sans', 'Bitstream Vera Sans', sans-serif; text-anchor: start" x="515.361072" y="221.139191" transform="rotate(-0 515.361072 221.139191)">chicago_pd</text>
   </g>
   <g id="text_4">
    <text style="fill: #262626; font: 10px 'Arial', 'Liberation Sans', 'DejaVu Sans', 'Bitstream Vera Sans', sans-serif; text-anchor: middle" x="448.833312" y="220.96044" transform="rotate(-0 448.833312 220.96044)">0.1%</text>
   </g>
   <g id="text_5">
    <text style="fill: #262626; font: 10px 'Arial', 'Liberation Sans', 'DejaVu Sans', 'Bitstream Vera Sans', sans-serif; text-anchor: start" x="515.3616" y="220.749801" transform="rotate(-0 515.3616 220.749801)">chicago_police</text>
   </g>
   <g id="text_6">
    <text style="fill: #262626; font: 10px 'Arial', 'Liberation Sans', 'DejaVu Sans', 'Bitstream Vera Sans', sans-serif; text-anchor: middle" x="448.8336" y="220.748045" transform="rotate(-0 448.8336 220.748045)">0.0%</text>
   </g>
   <g id="text_7">
    <text style="fill: #262626; font: 12px 'Arial', 'Liberation Sans', 'DejaVu Sans', 'Bitstream Vera Sans', sans-serif; text-anchor: middle" x="369" y="45.84" transform="rotate(-0 369 45.84)">Incidents by Source</text>
   </g>
  </g>
 </g>
</svg>
