<?xml version="1.0" encoding="utf-8" standalone="no"?>
<!DOCTYPE svg PUBLIC "-//W3C//DTD SVG 1.1//EN"
  "http://www.w3.org/Graphics/SVG/1.1/DTD/svg11.dtd">
<svg xmlns:xlink="http://www.w3.org/1999/xlink" width="720pt" height="432pt" viewBox="0 0 720 432" xmlns="http://www.w3.org/2000/svg" version="1.1">
 <metadata>
  <rdf:RDF xmlns:dc="http://purl.org/dc/elements/1.1/" xmlns:cc="http://creativecommons.org/ns#" xmlns:rdf="http://www.w3.org/1999/02/22-rdf-syntax-ns#">
   <cc:Work>
    <dc:type rdf:resource="http://purl.org/dc/dcmitype/StillImage"/>
    <dc:date>2025-01-15T00:57:46.423433</dc:date>
    <dc:format>image/svg+xml</dc:format>
    <dc:creator>
     <cc:Agent>
      <dc:title>Matplotlib v3.7.5, https://matplotlib.org/</dc:title>
     </cc:Agent>
    </dc:creator>
   </cc:Work>
  </rdf:RDF>
 </metadata>
 <defs>
  <style type="text/css">*{stroke-linejoin: round; stroke-linecap: butt}</style>
 </defs>
 <g id="figure_1">
  <g id="patch_1">
   <path d="M 0 432 
L 720 432 
L 720 0 
L 0 0 
z
" style="fill: #ffffff"/>
  </g>
  <g id="axes_1">
   <g id="matplotlib.axis_1"/>
   <g id="matplotlib.axis_2"/>
   <g id="patch_2">
    <path d="M 502.056 218.16 
C 502.056 200.891453 498.694227 183.78691 492.158676 167.802878 
C 485.623124 151.818846 476.037934 137.258933 463.93912 124.937349 
C 451.840307 112.615766 437.457681 102.766552 421.595538 95.94049 
C 405.733394 89.114428 388.693027 85.441175 371.427354 85.126143 
C 354.16168 84.811111 336.998654 87.860285 320.898054 94.103151 
C 304.797453 100.346016 290.0651 109.663993 277.524847 121.53601 
C 264.984594 133.408026 254.874636 147.608578 247.760336 163.343553 
C 240.646035 179.078528 236.662524 196.049048 236.032565 213.306101 
C 235.402606 230.563153 238.138166 247.778949 244.086267 263.99076 
C 250.034369 280.20257 259.082032 295.10246 270.723299 307.857209 
C 282.364567 320.611957 296.378319 330.979295 311.980888 338.379466 
C 327.583458 345.779637 344.478482 350.072081 361.721171 351.016757 
C 378.963859 351.961433 396.226695 349.540398 412.544319 343.88904 
C 428.861944 338.237681 443.924411 329.463344 456.88941 318.0567 
C 469.854409 306.650057 480.475675 292.827769 488.159254 277.362798 
C 495.842833 261.897827 500.442779 245.083922 501.701858 227.861337 
L 369 218.16 
z
" style="fill: #f77189"/>
   </g>
   <g id="patch_3">
    <path d="M 501.701858 227.861337 
C 501.818688 226.263259 501.90664 224.663201 501.965672 223.061947 
C 502.024705 221.460692 502.054807 219.858502 502.055965 218.256159 
L 369 218.16 
z
" style="fill: #bb9832"/>
   </g>
   <g id="patch_4">
    <path d="M 502.055965 218.256159 
C 502.055977 218.240136 502.055986 218.224113 502.055991 218.20809 
C 502.055997 218.192067 502.056 218.176045 502.056 218.160022 
L 369 218.16 
z
" style="fill: #50b131"/>
   </g>
   <g id="text_1">
    <text style="fill: #262626; font: 10px 'Arial', 'Liberation Sans', 'DejaVu Sans', 'Bitstream Vera Sans', sans-serif; text-anchor: end" x="222.735821" y="215.406648" transform="rotate(-0 222.735821 215.406648)">newsapi</text>
   </g>
   <g id="text_2">
    <text style="fill: #262626; font: 10px 'Arial', 'Liberation Sans', 'DejaVu Sans', 'Bitstream Vera Sans', sans-serif; text-anchor: middle" x="289.219539" y="217.833598" transform="rotate(-0 289.219539 217.833598)">98.8%</text>
   </g>
   <g id="text_3">
    <text style="fill: #262626; font: 10px 'Arial', 'Liberation Sans', 'DejaVu Sans', 'Bitstream Vera Sans', sans-serif; text-anchor: start" x="515.26224" y="226.138079" transform="rotate(-0 515.26224 226.138079)">chicago_pd</text>
   </g>
   <g id="text_4">
    <text style="fill: #262626; font: 10px 'Arial', 'Liberation Sans', 'DejaVu Sans', 'Bitstream Vera Sans', sans-serif; text-anchor: middle" x="448.779403" y="223.687106" transform="rotate(-0 448.779403 223.687106)">1.1%</text>
   </g>
   <g id="text_5">
    <text style="fill: #262626; font: 10px 'Arial', 'Liberation Sans', 'DejaVu Sans', 'Bitstream Vera Sans', sans-serif; text-anchor: start" x="515.36159" y="220.798837" transform="rotate(-0 515.36159 220.798837)">chicago_police</text>
   </g>
   <g id="text_6">
    <text style="fill: #262626; font: 10px 'Arial', 'Liberation Sans', 'DejaVu Sans', 'Bitstream Vera Sans', sans-serif; text-anchor: middle" x="448.833595" y="220.774792" transform="rotate(-0 448.833595 220.774792)">0.0%</text>
   </g>
   <g id="text_7">
    <text style="fill: #262626; font: 12px 'Arial', 'Liberation Sans', 'DejaVu Sans', 'Bitstream Vera Sans', sans-serif; text-anchor: middle" x="369" y="45.84" transform="rotate(-0 369 45.84)">Incidents by Source</text>
   </g>
  </g>
 </g>
</svg>
