<?xml version="1.0" encoding="utf-8" standalone="no"?>
<!DOCTYPE svg PUBLIC "-//W3C//DTD SVG 1.1//EN"
  "http://www.w3.org/Graphics/SVG/1.1/DTD/svg11.dtd">
<svg xmlns:xlink="http://www.w3.org/1999/xlink" width="720pt" height="432pt" viewBox="0 0 720 432" xmlns="http://www.w3.org/2000/svg" version="1.1">
 <metadata>
  <rdf:RDF xmlns:dc="http://purl.org/dc/elements/1.1/" xmlns:cc="http://creativecommons.org/ns#" xmlns:rdf="http://www.w3.org/1999/02/22-rdf-syntax-ns#">
   <cc:Work>
    <dc:type rdf:resource="http://purl.org/dc/dcmitype/StillImage"/>
    <dc:date>2026-01-30T02:30:03.850013</dc:date>
    <dc:format>image/svg+xml</dc:format>
    <dc:creator>
     <cc:Agent>
      <dc:title>Matplotlib v3.7.5, https://matplotlib.org/</dc:title>
     </cc:Agent>
    </dc:creator>
   </cc:Work>
  </rdf:RDF>
 </metadata>
 <defs>
  <style type="text/css">*{stroke-linejoin: round; stroke-linecap: butt}</style>
 </defs>
 <g id="figure_1">
  <g id="patch_1">
   <path d="M 0 432 
L 720 432 
L 720 0 
L 0 0 
z
" style="fill: #ffffff"/>
  </g>
  <g id="axes_1">
   <g id="matplotlib.axis_1"/>
   <g id="matplotlib.axis_2"/>
   <g id="patch_2">
    <path d="M 502.056 218.16 
C 502.056 200.707937 498.622395 183.425171 491.951231 167.298483 
C 485.280067 151.171795 475.500774 136.514064 463.171712 124.162192 
C 450.84265 111.810321 436.20302 102.003951 420.088691 95.30299 
C 403.974361 88.60203 386.697971 85.136485 369.245938 85.104227 
C 351.793905 85.071969 334.504822 88.473623 318.36583 95.114968 
C 302.226839 101.756312 287.551057 111.508496 275.176418 123.814705 
C 262.801779 136.120915 252.968366 150.742394 246.237631 166.84431 
C 239.506897 182.946227 236.009425 200.216182 235.944909 217.668125 
C 235.880393 235.120069 239.250085 252.41541 245.861587 268.56665 
C 252.473089 284.717889 262.198129 299.411671 274.481445 311.809036 
C 286.764761 324.206401 301.368039 334.066822 317.457487 340.827308 
C 333.546935 347.587794 350.810395 351.117181 368.26219 351.213954 
C 385.713984 351.310728 403.015525 347.973011 419.178957 341.391373 
C 435.34239 334.809736 450.054122 325.111872 462.47417 312.851492 
C 474.894218 300.591113 484.781615 286.006085 491.571828 269.929161 
C 498.362042 253.852236 501.923332 236.595329 502.052363 219.143743 
L 369 218.16 
z
" style="fill: #f77189"/>
   </g>
   <g id="patch_3">
    <path d="M 502.052363 219.143743 
C 502.053564 218.98141 502.054467 218.819075 502.055073 218.656738 
C 502.055679 218.494402 502.055988 218.332064 502.056 218.169727 
L 369 218.16 
z
" style="fill: #bb9832"/>
   </g>
   <g id="patch_4">
    <path d="M 502.056 218.169727 
C 502.056 218.168103 502.056 218.16648 502.056 218.164857 
C 502.056 218.163233 502.056 218.16161 502.056 218.159987 
L 369 218.16 
z
" style="fill: #50b131"/>
   </g>
   <g id="text_1">
    <text style="fill: #262626; font: 10px 'Arial', 'Liberation Sans', 'DejaVu Sans', 'Bitstream Vera Sans', sans-serif; text-anchor: end" x="222.6394" y="220.204875" transform="rotate(-0 222.6394 220.204875)">newsapi</text>
   </g>
   <g id="text_2">
    <text style="fill: #262626; font: 10px 'Arial', 'Liberation Sans', 'DejaVu Sans', 'Bitstream Vera Sans', sans-serif; text-anchor: middle" x="289.166946" y="220.450813" transform="rotate(-0 289.166946 220.450813)">99.9%</text>
   </g>
   <g id="text_3">
    <text style="fill: #262626; font: 10px 'Arial', 'Liberation Sans', 'DejaVu Sans', 'Bitstream Vera Sans', sans-serif; text-anchor: start" x="515.36058" y="221.292349" transform="rotate(-0 515.36058 221.292349)">chicago_pd</text>
   </g>
   <g id="text_4">
    <text style="fill: #262626; font: 10px 'Arial', 'Liberation Sans', 'DejaVu Sans', 'Bitstream Vera Sans', sans-serif; text-anchor: middle" x="448.833044" y="221.04398" transform="rotate(-0 448.833044 221.04398)">0.1%</text>
   </g>
   <g id="text_5">
    <text style="fill: #262626; font: 10px 'Arial', 'Liberation Sans', 'DejaVu Sans', 'Bitstream Vera Sans', sans-serif; text-anchor: start" x="515.3616" y="220.75128" transform="rotate(-0 515.3616 220.75128)">chicago_police</text>
   </g>
   <g id="text_6">
    <text style="fill: #262626; font: 10px 'Arial', 'Liberation Sans', 'DejaVu Sans', 'Bitstream Vera Sans', sans-serif; text-anchor: middle" x="448.8336" y="220.748851" transform="rotate(-0 448.8336 220.748851)">0.0%</text>
   </g>
   <g id="text_7">
    <text style="fill: #262626; font: 12px 'Arial', 'Liberation Sans', 'DejaVu Sans', 'Bitstream Vera Sans', sans-serif; text-anchor: middle" x="369" y="45.84" transform="rotate(-0 369 45.84)">Incidents by Source</text>
   </g>
  </g>
 </g>
</svg>
