<?xml version="1.0" encoding="utf-8" standalone="no"?>
<!DOCTYPE svg PUBLIC "-//W3C//DTD SVG 1.1//EN"
  "http://www.w3.org/Graphics/SVG/1.1/DTD/svg11.dtd">
<svg xmlns:xlink="http://www.w3.org/1999/xlink" width="720pt" height="432pt" viewBox="0 0 720 432" xmlns="http://www.w3.org/2000/svg" version="1.1">
 <metadata>
  <rdf:RDF xmlns:dc="http://purl.org/dc/elements/1.1/" xmlns:cc="http://creativecommons.org/ns#" xmlns:rdf="http://www.w3.org/1999/02/22-rdf-syntax-ns#">
   <cc:Work>
    <dc:type rdf:resource="http://purl.org/dc/dcmitype/StillImage"/>
    <dc:date>2025-10-02T12:27:08.506254</dc:date>
    <dc:format>image/svg+xml</dc:format>
    <dc:creator>
     <cc:Agent>
      <dc:title>Matplotlib v3.7.5, https://matplotlib.org/</dc:title>
     </cc:Agent>
    </dc:creator>
   </cc:Work>
  </rdf:RDF>
 </metadata>
 <defs>
  <style type="text/css">*{stroke-linejoin: round; stroke-linecap: butt}</style>
 </defs>
 <g id="figure_1">
  <g id="patch_1">
   <path d="M 0 432 
L 720 432 
L 720 0 
L 0 0 
z
" style="fill: #ffffff"/>
  </g>
  <g id="axes_1">
   <g id="matplotlib.axis_1"/>
   <g id="matplotlib.axis_2"/>
   <g id="patch_2">
    <path d="M 502.056 218.16 
C 502.056 200.715863 498.625513 183.440791 491.960232 167.320246 
C 485.294951 151.199702 475.524073 136.54616 463.204981 124.195535 
C 450.88589 111.844911 436.257374 102.036606 420.153921 95.330136 
C 404.050468 88.623666 386.784222 85.149029 369.340142 85.104435 
C 351.896062 85.059841 334.612277 88.446155 318.474746 95.070204 
C 302.337215 101.694253 287.658742 111.427639 275.276666 123.715117 
C 262.89459 136.002596 253.048921 150.60599 246.301306 166.692246 
C 239.553692 182.778502 236.034927 200.035809 235.945739 217.479718 
C 235.856552 234.923628 239.198671 252.216013 245.781445 268.370425 
C 252.364218 284.524836 262.060048 299.228143 274.315833 311.64159 
C 286.571618 324.055037 301.149796 333.938007 317.21875 340.726722 
C 333.287703 347.515436 350.535958 351.078307 367.979583 351.212087 
C 385.423207 351.345868 402.72408 348.047965 418.895267 341.50651 
C 435.066454 334.965054 449.794499 325.306843 462.239236 313.082832 
C 474.683973 300.858821 484.604177 286.305956 491.433948 270.254409 
C 498.26372 254.202862 501.870671 236.963771 502.049044 219.520546 
L 369 218.16 
z
" style="fill: #f77189"/>
   </g>
   <g id="patch_3">
    <path d="M 502.049044 219.520546 
C 502.05134 219.296039 502.053067 219.071527 502.054226 218.847012 
C 502.055386 218.622497 502.055977 218.397979 502.055999 218.173461 
L 369 218.16 
z
" style="fill: #bb9832"/>
   </g>
   <g id="patch_4">
    <path d="M 502.055999 218.173461 
C 502.056 218.171216 502.056 218.168971 502.056 218.166725 
C 502.056 218.16448 502.056 218.162235 502.056 218.15999 
L 369 218.16 
z
" style="fill: #50b131"/>
   </g>
   <g id="text_1">
    <text style="fill: #262626; font: 10px 'Arial', 'Liberation Sans', 'DejaVu Sans', 'Bitstream Vera Sans', sans-serif; text-anchor: end" x="222.640313" y="219.997628" transform="rotate(-0 222.640313 219.997628)">newsapi</text>
   </g>
   <g id="text_2">
    <text style="fill: #262626; font: 10px 'Arial', 'Liberation Sans', 'DejaVu Sans', 'Bitstream Vera Sans', sans-serif; text-anchor: middle" x="289.167443" y="220.337768" transform="rotate(-0 289.167443 220.337768)">99.8%</text>
   </g>
   <g id="text_3">
    <text style="fill: #262626; font: 10px 'Arial', 'Liberation Sans', 'DejaVu Sans', 'Bitstream Vera Sans', sans-serif; text-anchor: start" x="515.359649" y="221.501651" transform="rotate(-0 515.359649 221.501651)">chicago_pd</text>
   </g>
   <g id="text_4">
    <text style="fill: #262626; font: 10px 'Arial', 'Liberation Sans', 'DejaVu Sans', 'Bitstream Vera Sans', sans-serif; text-anchor: middle" x="448.832536" y="221.158145" transform="rotate(-0 448.832536 221.158145)">0.2%</text>
   </g>
   <g id="text_5">
    <text style="fill: #262626; font: 10px 'Arial', 'Liberation Sans', 'DejaVu Sans', 'Bitstream Vera Sans', sans-serif; text-anchor: start" x="515.3616" y="220.753336" transform="rotate(-0 515.3616 220.753336)">chicago_police</text>
   </g>
   <g id="text_6">
    <text style="fill: #262626; font: 10px 'Arial', 'Liberation Sans', 'DejaVu Sans', 'Bitstream Vera Sans', sans-serif; text-anchor: middle" x="448.8336" y="220.749973" transform="rotate(-0 448.8336 220.749973)">0.0%</text>
   </g>
   <g id="text_7">
    <text style="fill: #262626; font: 12px 'Arial', 'Liberation Sans', 'DejaVu Sans', 'Bitstream Vera Sans', sans-serif; text-anchor: middle" x="369" y="45.84" transform="rotate(-0 369 45.84)">Incidents by Source</text>
   </g>
  </g>
 </g>
</svg>
