<?xml version="1.0" encoding="utf-8" standalone="no"?>
<!DOCTYPE svg PUBLIC "-//W3C//DTD SVG 1.1//EN"
  "http://www.w3.org/Graphics/SVG/1.1/DTD/svg11.dtd">
<svg xmlns:xlink="http://www.w3.org/1999/xlink" width="720pt" height="432pt" viewBox="0 0 720 432" xmlns="http://www.w3.org/2000/svg" version="1.1">
 <metadata>
  <rdf:RDF xmlns:dc="http://purl.org/dc/elements/1.1/" xmlns:cc="http://creativecommons.org/ns#" xmlns:rdf="http://www.w3.org/1999/02/22-rdf-syntax-ns#">
   <cc:Work>
    <dc:type rdf:resource="http://purl.org/dc/dcmitype/StillImage"/>
    <dc:date>2026-01-16T01:16:07.938252</dc:date>
    <dc:format>image/svg+xml</dc:format>
    <dc:creator>
     <cc:Agent>
      <dc:title>Matplotlib v3.7.5, https://matplotlib.org/</dc:title>
     </cc:Agent>
    </dc:creator>
   </cc:Work>
  </rdf:RDF>
 </metadata>
 <defs>
  <style type="text/css">*{stroke-linejoin: round; stroke-linecap: butt}</style>
 </defs>
 <g id="figure_1">
  <g id="patch_1">
   <path d="M 0 432 
L 720 432 
L 720 0 
L 0 0 
z
" style="fill: #ffffff"/>
  </g>
  <g id="axes_1">
   <g id="matplotlib.axis_1"/>
   <g id="matplotlib.axis_2"/>
   <g id="patch_2">
    <path d="M 502.056 218.16 
C 502.056 200.708711 498.622699 183.426695 491.95211 167.300607 
C 485.28152 151.174518 475.503048 136.517196 463.174959 124.165446 
C 450.846871 111.813696 436.208326 102.007137 420.095057 95.305638 
C 403.981789 88.604139 386.706389 85.137707 369.255132 85.104245 
C 351.803874 85.070782 334.515308 88.470939 318.376458 95.110595 
C 302.237608 101.750251 287.561563 111.5006 275.186197 123.804982 
C 262.810831 136.109363 252.976221 150.729078 246.243837 166.829467 
C 239.511454 182.929855 236.011903 200.198577 235.944978 217.649738 
C 235.878054 235.100899 239.245054 252.395954 245.853752 268.547505 
C 252.46245 284.699056 262.18464 299.39377 274.465269 311.792707 
C 286.745899 324.191644 301.346729 334.054269 317.434179 340.817512 
C 333.521629 347.580755 350.783609 351.113412 368.234609 351.213799 
C 385.68561 351.314185 402.987089 347.980354 419.151282 341.402639 
C 435.315476 334.824923 450.028805 325.130928 462.451267 312.874095 
C 474.873729 300.617263 484.764332 286.035371 491.55841 269.960919 
C 498.352488 253.886467 501.918238 236.631293 502.052086 219.180517 
L 369 218.16 
z
" style="fill: #f77189"/>
   </g>
   <g id="patch_3">
    <path d="M 502.052086 219.180517 
C 502.053378 219.012117 502.05435 218.843716 502.055002 218.675313 
C 502.055654 218.50691 502.055987 218.338506 502.056 218.170102 
L 369 218.16 
z
" style="fill: #bb9832"/>
   </g>
   <g id="patch_4">
    <path d="M 502.056 218.170102 
C 502.056 218.168418 502.056 218.166734 502.056 218.16505 
C 502.056 218.163366 502.056 218.161682 502.056 218.159998 
L 369 218.16 
z
" style="fill: #50b131"/>
   </g>
   <g id="text_1">
    <text style="fill: #262626; font: 10px 'Arial', 'Liberation Sans', 'DejaVu Sans', 'Bitstream Vera Sans', sans-serif; text-anchor: end" x="222.639476" y="220.184649" transform="rotate(-0 222.639476 220.184649)">newsapi</text>
   </g>
   <g id="text_2">
    <text style="fill: #262626; font: 10px 'Arial', 'Liberation Sans', 'DejaVu Sans', 'Bitstream Vera Sans', sans-serif; text-anchor: middle" x="289.166987" y="220.43978" transform="rotate(-0 289.166987 220.43978)">99.9%</text>
   </g>
   <g id="text_3">
    <text style="fill: #262626; font: 10px 'Arial', 'Liberation Sans', 'DejaVu Sans', 'Bitstream Vera Sans', sans-serif; text-anchor: start" x="515.360502" y="221.312782" transform="rotate(-0 515.360502 221.312782)">chicago_pd</text>
   </g>
   <g id="text_4">
    <text style="fill: #262626; font: 10px 'Arial', 'Liberation Sans', 'DejaVu Sans', 'Bitstream Vera Sans', sans-serif; text-anchor: middle" x="448.833001" y="221.055125" transform="rotate(-0 448.833001 221.055125)">0.1%</text>
   </g>
   <g id="text_5">
    <text style="fill: #262626; font: 10px 'Arial', 'Liberation Sans', 'DejaVu Sans', 'Bitstream Vera Sans', sans-serif; text-anchor: start" x="515.3616" y="220.751492" transform="rotate(-0 515.3616 220.751492)">chicago_police</text>
   </g>
   <g id="text_6">
    <text style="fill: #262626; font: 10px 'Arial', 'Liberation Sans', 'DejaVu Sans', 'Bitstream Vera Sans', sans-serif; text-anchor: middle" x="448.8336" y="220.748967" transform="rotate(-0 448.8336 220.748967)">0.0%</text>
   </g>
   <g id="text_7">
    <text style="fill: #262626; font: 12px 'Arial', 'Liberation Sans', 'DejaVu Sans', 'Bitstream Vera Sans', sans-serif; text-anchor: middle" x="369" y="45.84" transform="rotate(-0 369 45.84)">Incidents by Source</text>
   </g>
  </g>
 </g>
</svg>
