<?xml version="1.0" encoding="utf-8" standalone="no"?>
<!DOCTYPE svg PUBLIC "-//W3C//DTD SVG 1.1//EN"
  "http://www.w3.org/Graphics/SVG/1.1/DTD/svg11.dtd">
<svg xmlns:xlink="http://www.w3.org/1999/xlink" width="720pt" height="432pt" viewBox="0 0 720 432" xmlns="http://www.w3.org/2000/svg" version="1.1">
 <metadata>
  <rdf:RDF xmlns:dc="http://purl.org/dc/elements/1.1/" xmlns:cc="http://creativecommons.org/ns#" xmlns:rdf="http://www.w3.org/1999/02/22-rdf-syntax-ns#">
   <cc:Work>
    <dc:type rdf:resource="http://purl.org/dc/dcmitype/StillImage"/>
    <dc:date>2025-12-29T12:34:08.641045</dc:date>
    <dc:format>image/svg+xml</dc:format>
    <dc:creator>
     <cc:Agent>
      <dc:title>Matplotlib v3.7.5, https://matplotlib.org/</dc:title>
     </cc:Agent>
    </dc:creator>
   </cc:Work>
  </rdf:RDF>
 </metadata>
 <defs>
  <style type="text/css">*{stroke-linejoin: round; stroke-linecap: butt}</style>
 </defs>
 <g id="figure_1">
  <g id="patch_1">
   <path d="M 0 432 
L 720 432 
L 720 0 
L 0 0 
z
" style="fill: #ffffff"/>
  </g>
  <g id="axes_1">
   <g id="matplotlib.axis_1"/>
   <g id="matplotlib.axis_2"/>
   <g id="patch_2">
    <path d="M 502.056 218.16 
C 502.056 200.709635 498.623063 183.428517 491.95316 167.303145 
C 485.283256 151.177773 475.505766 136.520939 463.17884 124.169335 
C 450.851915 111.81773 436.214666 102.010945 420.102666 95.308803 
C 403.990666 88.606661 386.716449 85.139168 369.266119 85.104266 
C 351.815789 85.069364 334.52784 88.467731 318.38916 95.10537 
C 302.25048 101.743008 287.57412 111.491165 275.197885 123.793362 
C 262.821651 136.095559 252.98561 150.713164 246.251257 166.811727 
C 239.516903 182.91029 236.014868 200.177537 235.945065 217.627763 
C 235.875261 235.077988 239.239045 252.3727 245.844392 268.524623 
C 252.449739 284.676547 262.168522 299.372374 274.445941 311.773189 
C 286.723361 324.174004 301.321264 334.039261 317.406326 340.805799 
C 333.491387 347.572336 350.751596 351.1089 368.201647 351.213605 
C 385.651698 351.318309 402.953103 347.989123 419.118205 341.416094 
C 435.283307 334.843065 449.998543 325.153693 462.423888 312.901101 
C 474.849234 300.648508 484.743668 286.070365 491.542363 269.998869 
C 498.341058 253.927373 501.912137 236.674272 502.051742 219.224466 
L 369 218.16 
z
" style="fill: #f77189"/>
   </g>
   <g id="patch_3">
    <path d="M 502.051742 219.224466 
C 502.053147 219.048815 502.054205 218.873162 502.054914 218.697507 
C 502.055624 218.521852 502.055986 218.346195 502.056 218.170539 
L 369 218.16 
z
" style="fill: #bb9832"/>
   </g>
   <g id="patch_4">
    <path d="M 502.056 218.170539 
C 502.056 218.168782 502.056 218.167026 502.056 218.165269 
C 502.056 218.163513 502.056 218.161756 502.056 218.159999 
L 369 218.16 
z
" style="fill: #50b131"/>
   </g>
   <g id="text_1">
    <text style="fill: #262626; font: 10px 'Arial', 'Liberation Sans', 'DejaVu Sans', 'Bitstream Vera Sans', sans-serif; text-anchor: end" x="222.639571" y="220.160477" transform="rotate(-0 222.639571 220.160477)">newsapi</text>
   </g>
   <g id="text_2">
    <text style="fill: #262626; font: 10px 'Arial', 'Liberation Sans', 'DejaVu Sans', 'Bitstream Vera Sans', sans-serif; text-anchor: middle" x="289.167039" y="220.426595" transform="rotate(-0 289.167039 220.426595)">99.9%</text>
   </g>
   <g id="text_3">
    <text style="fill: #262626; font: 10px 'Arial', 'Liberation Sans', 'DejaVu Sans', 'Bitstream Vera Sans', sans-serif; text-anchor: start" x="515.360406" y="221.337195" transform="rotate(-0 515.360406 221.337195)">chicago_pd</text>
   </g>
   <g id="text_4">
    <text style="fill: #262626; font: 10px 'Arial', 'Liberation Sans', 'DejaVu Sans', 'Bitstream Vera Sans', sans-serif; text-anchor: middle" x="448.832949" y="221.068441" transform="rotate(-0 448.832949 221.068441)">0.1%</text>
   </g>
   <g id="text_5">
    <text style="fill: #262626; font: 10px 'Arial', 'Liberation Sans', 'DejaVu Sans', 'Bitstream Vera Sans', sans-serif; text-anchor: start" x="515.3616" y="220.751734" transform="rotate(-0 515.3616 220.751734)">chicago_police</text>
   </g>
   <g id="text_6">
    <text style="fill: #262626; font: 10px 'Arial', 'Liberation Sans', 'DejaVu Sans', 'Bitstream Vera Sans', sans-serif; text-anchor: middle" x="448.8336" y="220.749099" transform="rotate(-0 448.8336 220.749099)">0.0%</text>
   </g>
   <g id="text_7">
    <text style="fill: #262626; font: 12px 'Arial', 'Liberation Sans', 'DejaVu Sans', 'Bitstream Vera Sans', sans-serif; text-anchor: middle" x="369" y="45.84" transform="rotate(-0 369 45.84)">Incidents by Source</text>
   </g>
  </g>
 </g>
</svg>
