<?xml version="1.0" encoding="utf-8" standalone="no"?>
<!DOCTYPE svg PUBLIC "-//W3C//DTD SVG 1.1//EN"
  "http://www.w3.org/Graphics/SVG/1.1/DTD/svg11.dtd">
<svg xmlns:xlink="http://www.w3.org/1999/xlink" width="720pt" height="432pt" viewBox="0 0 720 432" xmlns="http://www.w3.org/2000/svg" version="1.1">
 <metadata>
  <rdf:RDF xmlns:dc="http://purl.org/dc/elements/1.1/" xmlns:cc="http://creativecommons.org/ns#" xmlns:rdf="http://www.w3.org/1999/02/22-rdf-syntax-ns#">
   <cc:Work>
    <dc:type rdf:resource="http://purl.org/dc/dcmitype/StillImage"/>
    <dc:date>2025-11-22T12:25:53.905697</dc:date>
    <dc:format>image/svg+xml</dc:format>
    <dc:creator>
     <cc:Agent>
      <dc:title>Matplotlib v3.7.5, https://matplotlib.org/</dc:title>
     </cc:Agent>
    </dc:creator>
   </cc:Work>
  </rdf:RDF>
 </metadata>
 <defs>
  <style type="text/css">*{stroke-linejoin: round; stroke-linecap: butt}</style>
 </defs>
 <g id="figure_1">
  <g id="patch_1">
   <path d="M 0 432 
L 720 432 
L 720 0 
L 0 0 
z
" style="fill: #ffffff"/>
  </g>
  <g id="axes_1">
   <g id="matplotlib.axis_1"/>
   <g id="matplotlib.axis_2"/>
   <g id="patch_2">
    <path d="M 502.056 218.16 
C 502.056 200.711895 498.623952 183.432971 491.955726 167.30935 
C 485.2875 151.185729 475.512409 136.53009 463.188326 124.17884 
C 450.864243 111.827591 436.230163 102.020254 420.121264 95.316541 
C 404.012366 88.612828 386.741041 85.142742 369.292978 85.104323 
C 351.844915 85.065903 334.558475 88.459896 318.420211 95.092604 
C 302.281947 101.725311 287.604819 111.468107 275.226463 123.764964 
C 262.848107 136.061821 253.00857 150.67427 246.269403 166.768369 
C 239.530236 182.862468 236.022128 200.12611 235.94529 217.574046 
C 235.868452 235.021982 239.224374 252.315853 245.82153 268.468683 
C 252.418686 284.621513 262.129141 299.320058 274.398712 311.72546 
C 286.668282 324.130863 301.259031 334.002551 317.338252 340.777139 
C 333.417472 347.551728 350.673348 351.09784 368.121073 351.213097 
C 385.568797 351.328354 402.870016 348.01052 419.037333 341.448947 
C 435.20465 334.887374 449.924541 325.209307 462.35693 312.967082 
C 474.789319 300.724857 484.693111 286.15588 491.503088 270.091615 
C 498.313065 254.027351 501.897164 236.779325 502.050839 219.331896 
L 369 218.16 
z
" style="fill: #f77189"/>
   </g>
   <g id="patch_3">
    <path d="M 502.050839 219.331896 
C 502.052542 219.138521 502.053824 218.945143 502.054684 218.751762 
C 502.055544 218.558382 502.055983 218.364999 502.055999 218.171617 
L 369 218.16 
z
" style="fill: #bb9832"/>
   </g>
   <g id="patch_4">
    <path d="M 502.055999 218.171617 
C 502.056 218.169683 502.056 218.167749 502.056 218.165815 
C 502.056 218.163882 502.056 218.161948 502.056 218.160014 
L 369 218.16 
z
" style="fill: #50b131"/>
   </g>
   <g id="text_1">
    <text style="fill: #262626; font: 10px 'Arial', 'Liberation Sans', 'DejaVu Sans', 'Bitstream Vera Sans', sans-serif; text-anchor: end" x="222.639819" y="220.101388" transform="rotate(-0 222.639819 220.101388)">newsapi</text>
   </g>
   <g id="text_2">
    <text style="fill: #262626; font: 10px 'Arial', 'Liberation Sans', 'DejaVu Sans', 'Bitstream Vera Sans', sans-serif; text-anchor: middle" x="289.167174" y="220.394365" transform="rotate(-0 289.167174 220.394365)">99.9%</text>
   </g>
   <g id="text_3">
    <text style="fill: #262626; font: 10px 'Arial', 'Liberation Sans', 'DejaVu Sans', 'Bitstream Vera Sans', sans-serif; text-anchor: start" x="515.360152" y="221.396876" transform="rotate(-0 515.360152 221.396876)">chicago_pd</text>
   </g>
   <g id="text_4">
    <text style="fill: #262626; font: 10px 'Arial', 'Liberation Sans', 'DejaVu Sans', 'Bitstream Vera Sans', sans-serif; text-anchor: middle" x="448.83281" y="221.100995" transform="rotate(-0 448.83281 221.100995)">0.1%</text>
   </g>
   <g id="text_5">
    <text style="fill: #262626; font: 10px 'Arial', 'Liberation Sans', 'DejaVu Sans', 'Bitstream Vera Sans', sans-serif; text-anchor: start" x="515.3616" y="220.752334" transform="rotate(-0 515.3616 220.752334)">chicago_police</text>
   </g>
   <g id="text_6">
    <text style="fill: #262626; font: 10px 'Arial', 'Liberation Sans', 'DejaVu Sans', 'Bitstream Vera Sans', sans-serif; text-anchor: middle" x="448.8336" y="220.749427" transform="rotate(-0 448.8336 220.749427)">0.0%</text>
   </g>
   <g id="text_7">
    <text style="fill: #262626; font: 12px 'Arial', 'Liberation Sans', 'DejaVu Sans', 'Bitstream Vera Sans', sans-serif; text-anchor: middle" x="369" y="45.84" transform="rotate(-0 369 45.84)">Incidents by Source</text>
   </g>
  </g>
 </g>
</svg>
