<?xml version="1.0" encoding="utf-8" standalone="no"?>
<!DOCTYPE svg PUBLIC "-//W3C//DTD SVG 1.1//EN"
  "http://www.w3.org/Graphics/SVG/1.1/DTD/svg11.dtd">
<svg xmlns:xlink="http://www.w3.org/1999/xlink" width="720pt" height="432pt" viewBox="0 0 720 432" xmlns="http://www.w3.org/2000/svg" version="1.1">
 <metadata>
  <rdf:RDF xmlns:dc="http://purl.org/dc/elements/1.1/" xmlns:cc="http://creativecommons.org/ns#" xmlns:rdf="http://www.w3.org/1999/02/22-rdf-syntax-ns#">
   <cc:Work>
    <dc:type rdf:resource="http://purl.org/dc/dcmitype/StillImage"/>
    <dc:date>2025-12-31T12:31:40.863030</dc:date>
    <dc:format>image/svg+xml</dc:format>
    <dc:creator>
     <cc:Agent>
      <dc:title>Matplotlib v3.7.5, https://matplotlib.org/</dc:title>
     </cc:Agent>
    </dc:creator>
   </cc:Work>
  </rdf:RDF>
 </metadata>
 <defs>
  <style type="text/css">*{stroke-linejoin: round; stroke-linecap: butt}</style>
 </defs>
 <g id="figure_1">
  <g id="patch_1">
   <path d="M 0 432 
L 720 432 
L 720 0 
L 0 0 
z
" style="fill: #ffffff"/>
  </g>
  <g id="axes_1">
   <g id="matplotlib.axis_1"/>
   <g id="matplotlib.axis_2"/>
   <g id="patch_2">
    <path d="M 502.056 218.16 
C 502.056 200.709543 498.623027 183.428335 491.953055 167.302892 
C 485.283083 151.177448 475.505495 136.520566 463.178453 124.168947 
C 450.851411 111.817327 436.214033 102.010565 420.101907 95.308487 
C 403.989781 88.606409 386.715445 85.139022 369.265023 85.104264 
C 351.8146 85.069506 334.526589 88.468051 318.387892 95.105891 
C 302.249195 101.743731 287.572867 111.492106 275.196719 123.794521 
C 262.820571 136.096936 252.984673 150.714752 246.250516 166.813497 
C 239.51636 182.912242 236.014572 200.179637 235.945056 217.629955 
C 235.87554 235.080274 239.239644 252.37502 245.845325 268.526906 
C 252.451007 284.678793 262.17013 299.374509 274.44787 311.775136 
C 286.725609 324.175764 301.323805 334.040759 317.409105 340.806968 
C 333.494405 347.573177 350.75479 351.109351 368.204936 351.213625 
C 385.655081 351.317898 402.956494 347.988249 419.121505 341.414752 
C 435.286517 334.841255 450.001562 325.151422 462.42662 312.898407 
C 474.851678 300.645391 484.74573 286.066874 491.543965 269.995083 
C 498.342199 253.923292 501.912746 236.669984 502.051777 219.220081 
L 369 218.16 
z
" style="fill: #f77189"/>
   </g>
   <g id="patch_3">
    <path d="M 502.051777 219.220081 
C 502.053171 219.045156 502.054219 218.870228 502.054923 218.695298 
C 502.055627 218.520369 502.055986 218.345438 502.056 218.170507 
L 369 218.16 
z
" style="fill: #bb9832"/>
   </g>
   <g id="patch_4">
    <path d="M 502.056 218.170507 
C 502.056 218.168758 502.056 218.167008 502.056 218.165259 
C 502.056 218.16351 502.056 218.16176 502.056 218.160011 
L 369 218.16 
z
" style="fill: #50b131"/>
   </g>
   <g id="text_1">
    <text style="fill: #262626; font: 10px 'Arial', 'Liberation Sans', 'DejaVu Sans', 'Bitstream Vera Sans', sans-serif; text-anchor: end" x="222.639561" y="220.162888" transform="rotate(-0 222.639561 220.162888)">newsapi</text>
   </g>
   <g id="text_2">
    <text style="fill: #262626; font: 10px 'Arial', 'Liberation Sans', 'DejaVu Sans', 'Bitstream Vera Sans', sans-serif; text-anchor: middle" x="289.167033" y="220.427911" transform="rotate(-0 289.167033 220.427911)">99.9%</text>
   </g>
   <g id="text_3">
    <text style="fill: #262626; font: 10px 'Arial', 'Liberation Sans', 'DejaVu Sans', 'Bitstream Vera Sans', sans-serif; text-anchor: start" x="515.360416" y="221.334765" transform="rotate(-0 515.360416 221.334765)">chicago_pd</text>
   </g>
   <g id="text_4">
    <text style="fill: #262626; font: 10px 'Arial', 'Liberation Sans', 'DejaVu Sans', 'Bitstream Vera Sans', sans-serif; text-anchor: middle" x="448.832954" y="221.067116" transform="rotate(-0 448.832954 221.067116)">0.1%</text>
   </g>
   <g id="text_5">
    <text style="fill: #262626; font: 10px 'Arial', 'Liberation Sans', 'DejaVu Sans', 'Bitstream Vera Sans', sans-serif; text-anchor: start" x="515.3616" y="220.751722" transform="rotate(-0 515.3616 220.751722)">chicago_police</text>
   </g>
   <g id="text_6">
    <text style="fill: #262626; font: 10px 'Arial', 'Liberation Sans', 'DejaVu Sans', 'Bitstream Vera Sans', sans-serif; text-anchor: middle" x="448.8336" y="220.749093" transform="rotate(-0 448.8336 220.749093)">0.0%</text>
   </g>
   <g id="text_7">
    <text style="fill: #262626; font: 12px 'Arial', 'Liberation Sans', 'DejaVu Sans', 'Bitstream Vera Sans', sans-serif; text-anchor: middle" x="369" y="45.84" transform="rotate(-0 369 45.84)">Incidents by Source</text>
   </g>
  </g>
 </g>
</svg>
