<?xml version="1.0" encoding="utf-8" standalone="no"?>
<!DOCTYPE svg PUBLIC "-//W3C//DTD SVG 1.1//EN"
  "http://www.w3.org/Graphics/SVG/1.1/DTD/svg11.dtd">
<svg xmlns:xlink="http://www.w3.org/1999/xlink" width="720pt" height="432pt" viewBox="0 0 720 432" xmlns="http://www.w3.org/2000/svg" version="1.1">
 <metadata>
  <rdf:RDF xmlns:dc="http://purl.org/dc/elements/1.1/" xmlns:cc="http://creativecommons.org/ns#" xmlns:rdf="http://www.w3.org/1999/02/22-rdf-syntax-ns#">
   <cc:Work>
    <dc:type rdf:resource="http://purl.org/dc/dcmitype/StillImage"/>
    <dc:date>2025-12-08T01:11:11.746344</dc:date>
    <dc:format>image/svg+xml</dc:format>
    <dc:creator>
     <cc:Agent>
      <dc:title>Matplotlib v3.7.5, https://matplotlib.org/</dc:title>
     </cc:Agent>
    </dc:creator>
   </cc:Work>
  </rdf:RDF>
 </metadata>
 <defs>
  <style type="text/css">*{stroke-linejoin: round; stroke-linecap: butt}</style>
 </defs>
 <g id="figure_1">
  <g id="patch_1">
   <path d="M 0 432 
L 720 432 
L 720 0 
L 0 0 
z
" style="fill: #ffffff"/>
  </g>
  <g id="axes_1">
   <g id="matplotlib.axis_1"/>
   <g id="matplotlib.axis_2"/>
   <g id="patch_2">
    <path d="M 502.056 218.16 
C 502.056 200.710966 498.623587 183.43114 491.954671 167.3068 
C 485.285756 151.18246 475.509679 136.526329 463.184428 124.174934 
C 450.859177 111.823538 436.223795 102.016428 420.113622 95.313361 
C 404.003449 88.610293 386.730935 85.141273 369.28194 85.104299 
C 351.832945 85.067325 334.545886 88.463115 318.40745 95.097849 
C 302.269015 101.732583 287.592202 111.477582 275.214718 123.776633 
C 262.837233 136.075684 252.999133 150.690253 246.261944 166.786186 
C 239.524755 182.882119 236.019142 200.147244 235.945195 217.596121 
C 235.871247 235.044998 239.2304 252.339215 245.830922 268.491673 
C 252.431444 284.64413 262.145321 299.341559 274.418118 311.745077 
C 286.690914 324.148595 301.284603 334.017641 317.366224 340.788921 
C 333.447846 347.560202 350.705503 351.102391 368.154184 351.213312 
C 385.602866 351.324232 402.904161 348.001733 419.070569 341.435453 
C 435.236977 334.869172 449.954956 325.186459 462.384452 312.939973 
C 474.813947 300.693487 484.713895 286.120742 491.519236 270.053505 
C 498.324578 253.986268 501.903327 236.736155 502.051221 219.287748 
L 369 218.16 
z
" style="fill: #f77189"/>
   </g>
   <g id="patch_3">
    <path d="M 502.051221 219.287748 
C 502.052798 219.101654 502.053985 218.915556 502.054781 218.729456 
C 502.055578 218.543356 502.055984 218.357255 502.056 218.171154 
L 369 218.16 
z
" style="fill: #bb9832"/>
   </g>
   <g id="patch_4">
    <path d="M 502.056 218.171154 
C 502.056 218.169293 502.056 218.167432 502.056 218.165571 
C 502.056 218.16371 502.056 218.161849 502.056 218.159988 
L 369 218.16 
z
" style="fill: #50b131"/>
   </g>
   <g id="text_1">
    <text style="fill: #262626; font: 10px 'Arial', 'Liberation Sans', 'DejaVu Sans', 'Bitstream Vera Sans', sans-serif; text-anchor: end" x="222.639714" y="220.12567" transform="rotate(-0 222.639714 220.12567)">newsapi</text>
   </g>
   <g id="text_2">
    <text style="fill: #262626; font: 10px 'Arial', 'Liberation Sans', 'DejaVu Sans', 'Bitstream Vera Sans', sans-serif; text-anchor: middle" x="289.167117" y="220.40761" transform="rotate(-0 289.167117 220.40761)">99.9%</text>
   </g>
   <g id="text_3">
    <text style="fill: #262626; font: 10px 'Arial', 'Liberation Sans', 'DejaVu Sans', 'Bitstream Vera Sans', sans-serif; text-anchor: start" x="515.36026" y="221.372339" transform="rotate(-0 515.36026 221.372339)">chicago_pd</text>
   </g>
   <g id="text_4">
    <text style="fill: #262626; font: 10px 'Arial', 'Liberation Sans', 'DejaVu Sans', 'Bitstream Vera Sans', sans-serif; text-anchor: middle" x="448.832869" y="221.087611" transform="rotate(-0 448.832869 221.087611)">0.1%</text>
   </g>
   <g id="text_5">
    <text style="fill: #262626; font: 10px 'Arial', 'Liberation Sans', 'DejaVu Sans', 'Bitstream Vera Sans', sans-serif; text-anchor: start" x="515.3616" y="220.752065" transform="rotate(-0 515.3616 220.752065)">chicago_police</text>
   </g>
   <g id="text_6">
    <text style="fill: #262626; font: 10px 'Arial', 'Liberation Sans', 'DejaVu Sans', 'Bitstream Vera Sans', sans-serif; text-anchor: middle" x="448.8336" y="220.74928" transform="rotate(-0 448.8336 220.74928)">0.0%</text>
   </g>
   <g id="text_7">
    <text style="fill: #262626; font: 12px 'Arial', 'Liberation Sans', 'DejaVu Sans', 'Bitstream Vera Sans', sans-serif; text-anchor: middle" x="369" y="45.84" transform="rotate(-0 369 45.84)">Incidents by Source</text>
   </g>
  </g>
 </g>
</svg>
