<?xml version="1.0" encoding="utf-8" standalone="no"?>
<!DOCTYPE svg PUBLIC "-//W3C//DTD SVG 1.1//EN"
  "http://www.w3.org/Graphics/SVG/1.1/DTD/svg11.dtd">
<svg xmlns:xlink="http://www.w3.org/1999/xlink" width="720pt" height="432pt" viewBox="0 0 720 432" xmlns="http://www.w3.org/2000/svg" version="1.1">
 <metadata>
  <rdf:RDF xmlns:dc="http://purl.org/dc/elements/1.1/" xmlns:cc="http://creativecommons.org/ns#" xmlns:rdf="http://www.w3.org/1999/02/22-rdf-syntax-ns#">
   <cc:Work>
    <dc:type rdf:resource="http://purl.org/dc/dcmitype/StillImage"/>
    <dc:date>2025-02-22T12:35:50.962015</dc:date>
    <dc:format>image/svg+xml</dc:format>
    <dc:creator>
     <cc:Agent>
      <dc:title>Matplotlib v3.7.5, https://matplotlib.org/</dc:title>
     </cc:Agent>
    </dc:creator>
   </cc:Work>
  </rdf:RDF>
 </metadata>
 <defs>
  <style type="text/css">*{stroke-linejoin: round; stroke-linecap: butt}</style>
 </defs>
 <g id="figure_1">
  <g id="patch_1">
   <path d="M 0 432 
L 720 432 
L 720 0 
L 0 0 
z
" style="fill: #ffffff"/>
  </g>
  <g id="axes_1">
   <g id="matplotlib.axis_1"/>
   <g id="matplotlib.axis_2"/>
   <g id="patch_2">
    <path d="M 502.056 218.16 
C 502.056 200.796162 498.657023 183.599061 492.051212 167.54085 
C 485.445402 151.482639 475.759624 136.871718 463.541415 124.534042 
C 451.323206 112.196366 436.807219 102.368882 420.814043 95.607138 
C 404.820866 88.845393 387.657652 85.279249 370.294636 85.110299 
C 352.931619 84.941348 335.702261 88.172837 319.580536 94.622088 
C 303.45881 101.071339 288.754338 110.614495 276.298363 122.712079 
C 263.842387 134.809664 253.874128 149.229342 246.95709 165.15597 
C 240.040052 181.082597 236.307078 198.2103 235.969194 215.570851 
C 235.631309 232.931401 238.695003 250.191387 244.987084 266.3751 
C 251.279166 282.558814 260.678795 297.355445 272.65461 309.92854 
C 284.630425 322.501636 298.95243 332.609727 314.811 339.681403 
C 330.669571 346.75308 347.760142 350.65253 365.116583 351.159317 
C 382.473024 351.666103 399.762002 348.770494 416.006171 342.636178 
C 432.250341 336.501862 447.13773 327.24665 459.826755 315.393738 
C 472.51578 303.540826 482.762745 289.317851 489.988391 273.528839 
C 497.214037 257.739826 501.279594 240.688006 501.955235 223.337318 
L 369 218.16 
z
" style="fill: #f77189"/>
   </g>
   <g id="patch_3">
    <path d="M 501.955235 223.337318 
C 501.988487 222.483399 502.013511 221.629179 502.030305 220.774778 
C 502.047099 219.920377 502.055661 219.065834 502.05599 218.211268 
L 369 218.16 
z
" style="fill: #bb9832"/>
   </g>
   <g id="patch_4">
    <path d="M 502.05599 218.211268 
C 502.055993 218.202723 502.055996 218.194177 502.055998 218.185632 
C 502.055999 218.177086 502.056 218.168541 502.056 218.159995 
L 369 218.16 
z
" style="fill: #50b131"/>
   </g>
   <g id="text_1">
    <text style="fill: #262626; font: 10px 'Arial', 'Liberation Sans', 'DejaVu Sans', 'Bitstream Vera Sans', sans-serif; text-anchor: end" x="222.666113" y="217.897873" transform="rotate(-0 222.666113 217.897873)">newsapi</text>
   </g>
   <g id="text_2">
    <text style="fill: #262626; font: 10px 'Arial', 'Liberation Sans', 'DejaVu Sans', 'Bitstream Vera Sans', sans-serif; text-anchor: middle" x="289.181516" y="219.192448" transform="rotate(-0 289.181516 219.192448)">99.4%</text>
   </g>
   <g id="text_3">
    <text style="fill: #262626; font: 10px 'Arial', 'Liberation Sans', 'DejaVu Sans', 'Bitstream Vera Sans', sans-serif; text-anchor: start" x="515.333336" y="223.622194" transform="rotate(-0 515.333336 223.622194)">chicago_pd</text>
   </g>
   <g id="text_4">
    <text style="fill: #262626; font: 10px 'Arial', 'Liberation Sans', 'DejaVu Sans', 'Bitstream Vera Sans', sans-serif; text-anchor: middle" x="448.818183" y="222.314805" transform="rotate(-0 448.818183 222.314805)">0.6%</text>
   </g>
   <g id="text_5">
    <text style="fill: #262626; font: 10px 'Arial', 'Liberation Sans', 'DejaVu Sans', 'Bitstream Vera Sans', sans-serif; text-anchor: start" x="515.361597" y="220.774132" transform="rotate(-0 515.361597 220.774132)">chicago_police</text>
   </g>
   <g id="text_6">
    <text style="fill: #262626; font: 10px 'Arial', 'Liberation Sans', 'DejaVu Sans', 'Bitstream Vera Sans', sans-serif; text-anchor: middle" x="448.833599" y="220.761317" transform="rotate(-0 448.833599 220.761317)">0.0%</text>
   </g>
   <g id="text_7">
    <text style="fill: #262626; font: 12px 'Arial', 'Liberation Sans', 'DejaVu Sans', 'Bitstream Vera Sans', sans-serif; text-anchor: middle" x="369" y="45.84" transform="rotate(-0 369 45.84)">Incidents by Source</text>
   </g>
  </g>
 </g>
</svg>
