<?xml version="1.0" encoding="utf-8" standalone="no"?>
<!DOCTYPE svg PUBLIC "-//W3C//DTD SVG 1.1//EN"
  "http://www.w3.org/Graphics/SVG/1.1/DTD/svg11.dtd">
<svg xmlns:xlink="http://www.w3.org/1999/xlink" width="720pt" height="432pt" viewBox="0 0 720 432" xmlns="http://www.w3.org/2000/svg" version="1.1">
 <metadata>
  <rdf:RDF xmlns:dc="http://purl.org/dc/elements/1.1/" xmlns:cc="http://creativecommons.org/ns#" xmlns:rdf="http://www.w3.org/1999/02/22-rdf-syntax-ns#">
   <cc:Work>
    <dc:type rdf:resource="http://purl.org/dc/dcmitype/StillImage"/>
    <dc:date>2025-11-15T01:07:03.888577</dc:date>
    <dc:format>image/svg+xml</dc:format>
    <dc:creator>
     <cc:Agent>
      <dc:title>Matplotlib v3.7.5, https://matplotlib.org/</dc:title>
     </cc:Agent>
    </dc:creator>
   </cc:Work>
  </rdf:RDF>
 </metadata>
 <defs>
  <style type="text/css">*{stroke-linejoin: round; stroke-linecap: butt}</style>
 </defs>
 <g id="figure_1">
  <g id="patch_1">
   <path d="M 0 432 
L 720 432 
L 720 0 
L 0 0 
z
" style="fill: #ffffff"/>
  </g>
  <g id="axes_1">
   <g id="matplotlib.axis_1"/>
   <g id="matplotlib.axis_2"/>
   <g id="patch_2">
    <path d="M 502.056 218.16 
C 502.056 200.712375 498.624141 183.433917 491.956271 167.310668 
C 485.288401 151.18742 475.51382 136.532034 463.190341 124.18086 
C 450.866862 111.829686 436.233455 102.022231 420.125215 95.318185 
C 404.016975 88.614139 386.746265 85.143502 369.298683 85.104335 
C 351.851102 85.065169 334.564984 88.458233 318.426808 95.089893 
C 302.288632 101.721552 287.611341 111.46321 275.232535 123.758932 
C 262.853728 136.054655 253.013449 150.666009 246.27326 166.759159 
C 239.533071 182.852309 236.023673 200.115186 235.945341 217.562635 
C 235.867009 235.010085 239.22126 252.303776 245.816676 268.456798 
C 252.412092 284.60982 262.120778 299.308942 274.388682 311.715318 
C 286.656585 324.121695 301.245813 333.994748 317.323793 340.771046 
C 333.401772 347.547344 350.656727 351.095485 368.103956 351.212983 
C 385.551186 351.330481 402.852364 348.015059 419.02015 341.455919 
C 435.187937 334.89678 449.908816 325.221115 462.3427 312.981092 
C 474.776584 300.74107 484.682362 286.174041 491.494735 270.111314 
C 498.307108 254.048586 501.893973 236.80164 502.050636 219.354718 
L 369 218.16 
z
" style="fill: #f77189"/>
   </g>
   <g id="patch_3">
    <path d="M 502.050636 219.354718 
C 502.052406 219.157578 502.053738 218.960435 502.054632 218.763289 
C 502.055526 218.566144 502.055982 218.368997 502.055999 218.171849 
L 369 218.16 
z
" style="fill: #bb9832"/>
   </g>
   <g id="patch_4">
    <path d="M 502.055999 218.171849 
C 502.056 218.169878 502.056 218.167906 502.056 218.165935 
C 502.056 218.163963 502.056 218.161992 502.056 218.16002 
L 369 218.16 
z
" style="fill: #50b131"/>
   </g>
   <g id="text_1">
    <text style="fill: #262626; font: 10px 'Arial', 'Liberation Sans', 'DejaVu Sans', 'Bitstream Vera Sans', sans-serif; text-anchor: end" x="222.639875" y="220.088836" transform="rotate(-0 222.639875 220.088836)">newsapi</text>
   </g>
   <g id="text_2">
    <text style="fill: #262626; font: 10px 'Arial', 'Liberation Sans', 'DejaVu Sans', 'Bitstream Vera Sans', sans-serif; text-anchor: middle" x="289.167205" y="220.387519" transform="rotate(-0 289.167205 220.387519)">99.9%</text>
   </g>
   <g id="text_3">
    <text style="fill: #262626; font: 10px 'Arial', 'Liberation Sans', 'DejaVu Sans', 'Bitstream Vera Sans', sans-serif; text-anchor: start" x="515.360096" y="221.409556" transform="rotate(-0 515.360096 221.409556)">chicago_pd</text>
   </g>
   <g id="text_4">
    <text style="fill: #262626; font: 10px 'Arial', 'Liberation Sans', 'DejaVu Sans', 'Bitstream Vera Sans', sans-serif; text-anchor: middle" x="448.832779" y="221.107911" transform="rotate(-0 448.832779 221.107911)">0.1%</text>
   </g>
   <g id="text_5">
    <text style="fill: #262626; font: 10px 'Arial', 'Liberation Sans', 'DejaVu Sans', 'Bitstream Vera Sans', sans-serif; text-anchor: start" x="515.3616" y="220.752466" transform="rotate(-0 515.3616 220.752466)">chicago_police</text>
   </g>
   <g id="text_6">
    <text style="fill: #262626; font: 10px 'Arial', 'Liberation Sans', 'DejaVu Sans', 'Bitstream Vera Sans', sans-serif; text-anchor: middle" x="448.8336" y="220.749498" transform="rotate(-0 448.8336 220.749498)">0.0%</text>
   </g>
   <g id="text_7">
    <text style="fill: #262626; font: 12px 'Arial', 'Liberation Sans', 'DejaVu Sans', 'Bitstream Vera Sans', sans-serif; text-anchor: middle" x="369" y="45.84" transform="rotate(-0 369 45.84)">Incidents by Source</text>
   </g>
  </g>
 </g>
</svg>
