<?xml version="1.0" encoding="utf-8" standalone="no"?>
<!DOCTYPE svg PUBLIC "-//W3C//DTD SVG 1.1//EN"
  "http://www.w3.org/Graphics/SVG/1.1/DTD/svg11.dtd">
<svg xmlns:xlink="http://www.w3.org/1999/xlink" width="720pt" height="432pt" viewBox="0 0 720 432" xmlns="http://www.w3.org/2000/svg" version="1.1">
 <metadata>
  <rdf:RDF xmlns:dc="http://purl.org/dc/elements/1.1/" xmlns:cc="http://creativecommons.org/ns#" xmlns:rdf="http://www.w3.org/1999/02/22-rdf-syntax-ns#">
   <cc:Work>
    <dc:type rdf:resource="http://purl.org/dc/dcmitype/StillImage"/>
    <dc:date>2026-01-10T02:01:13.420521</dc:date>
    <dc:format>image/svg+xml</dc:format>
    <dc:creator>
     <cc:Agent>
      <dc:title>Matplotlib v3.7.5, https://matplotlib.org/</dc:title>
     </cc:Agent>
    </dc:creator>
   </cc:Work>
  </rdf:RDF>
 </metadata>
 <defs>
  <style type="text/css">*{stroke-linejoin: round; stroke-linecap: butt}</style>
 </defs>
 <g id="figure_1">
  <g id="patch_1">
   <path d="M 0 432 
L 720 432 
L 720 0 
L 0 0 
z
" style="fill: #ffffff"/>
  </g>
  <g id="axes_1">
   <g id="matplotlib.axis_1"/>
   <g id="matplotlib.axis_2"/>
   <g id="patch_2">
    <path d="M 502.056 218.16 
C 502.056 200.709072 498.622842 183.427408 491.95252 167.3016 
C 485.282199 151.175791 475.504111 136.51866 463.176477 124.166967 
C 450.848844 111.815274 436.210806 102.008626 420.098034 95.306876 
C 403.985261 88.605126 386.710324 85.138278 369.259429 85.104253 
C 351.808535 85.070228 334.52021 88.469684 318.381426 95.108551 
C 302.242643 101.747418 287.566475 111.496909 275.190769 123.800436 
C 262.815063 136.103964 252.979893 150.722853 246.246739 166.822528 
C 239.513585 182.922202 236.013062 200.190347 235.945012 217.641142 
C 235.876961 235.091937 239.242703 252.386858 245.85009 268.538555 
C 252.457477 284.690252 262.178335 299.385401 274.457709 311.785073 
C 286.737083 324.184745 301.336768 334.048399 317.423284 340.812931 
C 333.5098 347.577463 350.771087 351.111648 368.221716 351.213724 
C 385.672345 351.315799 402.973795 347.983785 419.138344 341.407903 
C 435.302893 334.83202 450.016969 325.139834 462.440559 312.88466 
C 474.864149 300.629485 484.756251 286.04906 491.552135 269.975764 
C 498.348019 253.902468 501.915853 236.648105 502.051953 219.197708 
L 369 218.16 
z
" style="fill: #f77189"/>
   </g>
   <g id="patch_3">
    <path d="M 502.051953 219.197708 
C 502.053289 219.026475 502.054294 218.855241 502.054968 218.684005 
C 502.055643 218.512768 502.055986 218.341531 502.056 218.170293 
L 369 218.16 
z
" style="fill: #bb9832"/>
   </g>
   <g id="patch_4">
    <path d="M 502.056 218.170293 
C 502.056 218.168581 502.056 218.166869 502.056 218.165156 
C 502.056 218.163444 502.056 218.161732 502.056 218.160019 
L 369 218.16 
z
" style="fill: #50b131"/>
   </g>
   <g id="text_1">
    <text style="fill: #262626; font: 10px 'Arial', 'Liberation Sans', 'DejaVu Sans', 'Bitstream Vera Sans', sans-serif; text-anchor: end" x="222.639513" y="220.175194" transform="rotate(-0 222.639513 220.175194)">newsapi</text>
   </g>
   <g id="text_2">
    <text style="fill: #262626; font: 10px 'Arial', 'Liberation Sans', 'DejaVu Sans', 'Bitstream Vera Sans', sans-serif; text-anchor: middle" x="289.167007" y="220.434623" transform="rotate(-0 289.167007 220.434623)">99.9%</text>
   </g>
   <g id="text_3">
    <text style="fill: #262626; font: 10px 'Arial', 'Liberation Sans', 'DejaVu Sans', 'Bitstream Vera Sans', sans-serif; text-anchor: start" x="515.360465" y="221.322342" transform="rotate(-0 515.360465 221.322342)">chicago_pd</text>
   </g>
   <g id="text_4">
    <text style="fill: #262626; font: 10px 'Arial', 'Liberation Sans', 'DejaVu Sans', 'Bitstream Vera Sans', sans-serif; text-anchor: middle" x="448.832981" y="221.06034" transform="rotate(-0 448.832981 221.06034)">0.1%</text>
   </g>
   <g id="text_5">
    <text style="fill: #262626; font: 10px 'Arial', 'Liberation Sans', 'DejaVu Sans', 'Bitstream Vera Sans', sans-serif; text-anchor: start" x="515.3616" y="220.751609" transform="rotate(-0 515.3616 220.751609)">chicago_police</text>
   </g>
   <g id="text_6">
    <text style="fill: #262626; font: 10px 'Arial', 'Liberation Sans', 'DejaVu Sans', 'Bitstream Vera Sans', sans-serif; text-anchor: middle" x="448.8336" y="220.749031" transform="rotate(-0 448.8336 220.749031)">0.0%</text>
   </g>
   <g id="text_7">
    <text style="fill: #262626; font: 12px 'Arial', 'Liberation Sans', 'DejaVu Sans', 'Bitstream Vera Sans', sans-serif; text-anchor: middle" x="369" y="45.84" transform="rotate(-0 369 45.84)">Incidents by Source</text>
   </g>
  </g>
 </g>
</svg>
