<?xml version="1.0" encoding="utf-8" standalone="no"?>
<!DOCTYPE svg PUBLIC "-//W3C//DTD SVG 1.1//EN"
  "http://www.w3.org/Graphics/SVG/1.1/DTD/svg11.dtd">
<svg xmlns:xlink="http://www.w3.org/1999/xlink" width="720pt" height="432pt" viewBox="0 0 720 432" xmlns="http://www.w3.org/2000/svg" version="1.1">
 <metadata>
  <rdf:RDF xmlns:dc="http://purl.org/dc/elements/1.1/" xmlns:cc="http://creativecommons.org/ns#" xmlns:rdf="http://www.w3.org/1999/02/22-rdf-syntax-ns#">
   <cc:Work>
    <dc:type rdf:resource="http://purl.org/dc/dcmitype/StillImage"/>
    <dc:date>2025-02-08T06:15:32.441762</dc:date>
    <dc:format>image/svg+xml</dc:format>
    <dc:creator>
     <cc:Agent>
      <dc:title>Matplotlib v3.7.5, https://matplotlib.org/</dc:title>
     </cc:Agent>
    </dc:creator>
   </cc:Work>
  </rdf:RDF>
 </metadata>
 <defs>
  <style type="text/css">*{stroke-linejoin: round; stroke-linecap: butt}</style>
 </defs>
 <g id="figure_1">
  <g id="patch_1">
   <path d="M 0 432 
L 720 432 
L 720 0 
L 0 0 
z
" style="fill: #ffffff"/>
  </g>
  <g id="axes_1">
   <g id="matplotlib.axis_1"/>
   <g id="matplotlib.axis_2"/>
   <g id="patch_2">
    <path d="M 502.056 218.16 
C 502.056 200.816521 498.664989 183.639194 492.074218 167.596812 
C 485.483448 151.554431 475.819197 136.954369 463.626528 124.620065 
C 451.433858 112.285761 436.946381 102.453541 420.981185 95.677938 
C 405.01599 88.902335 387.878971 85.313171 370.536648 85.112874 
C 353.194326 84.912576 335.978982 88.104982 319.861554 94.510041 
C 303.744127 100.915101 289.033427 110.410092 276.559134 122.459501 
C 264.084841 134.50891 254.085962 148.88187 247.126431 164.76775 
C 240.1669 180.65363 236.380062 197.748056 235.979493 215.086908 
C 235.578924 232.425761 238.572299 249.676826 244.790793 265.867149 
C 251.009287 282.057473 260.333753 296.876848 272.238295 309.489467 
C 284.142836 322.102085 298.399361 332.266289 314.203807 339.40882 
C 330.008253 346.551351 347.057805 350.535358 364.390875 351.136145 
C 381.723945 351.736931 399.008429 348.942987 415.26949 342.911887 
C 431.530551 336.880788 446.456625 327.728092 459.205886 315.970006 
C 471.955148 304.21192 482.283321 290.073731 489.607899 274.352827 
C 496.932477 258.631924 501.113122 241.62952 501.914046 224.304544 
L 369 218.16 
z
" style="fill: #f77189"/>
   </g>
   <g id="patch_3">
    <path d="M 501.914046 224.304544 
C 501.960888 223.291304 501.996142 222.277562 502.019801 221.263515 
C 502.043459 220.249469 502.055522 219.235186 502.055986 218.220864 
L 369 218.16 
z
" style="fill: #bb9832"/>
   </g>
   <g id="patch_4">
    <path d="M 502.055986 218.220864 
C 502.055991 218.21072 502.055994 218.200577 502.055997 218.190434 
C 502.055999 218.180291 502.056 218.170148 502.056 218.160005 
L 369 218.16 
z
" style="fill: #50b131"/>
   </g>
   <g id="text_1">
    <text style="fill: #262626; font: 10px 'Arial', 'Liberation Sans', 'DejaVu Sans', 'Bitstream Vera Sans', sans-serif; text-anchor: end" x="222.677442" y="217.365536" transform="rotate(-0 222.677442 217.365536)">newsapi</text>
   </g>
   <g id="text_2">
    <text style="fill: #262626; font: 10px 'Arial', 'Liberation Sans', 'DejaVu Sans', 'Bitstream Vera Sans', sans-serif; text-anchor: middle" x="289.187696" y="218.902082" transform="rotate(-0 289.187696 218.902082)">99.3%</text>
   </g>
   <g id="text_3">
    <text style="fill: #262626; font: 10px 'Arial', 'Liberation Sans', 'DejaVu Sans', 'Bitstream Vera Sans', sans-serif; text-anchor: start" x="515.321781" y="224.159804" transform="rotate(-0 515.321781 224.159804)">chicago_pd</text>
   </g>
   <g id="text_4">
    <text style="fill: #262626; font: 10px 'Arial', 'Liberation Sans', 'DejaVu Sans', 'Bitstream Vera Sans', sans-serif; text-anchor: middle" x="448.81188" y="222.608047" transform="rotate(-0 448.81188 222.608047)">0.7%</text>
   </g>
   <g id="text_5">
    <text style="fill: #262626; font: 10px 'Arial', 'Liberation Sans', 'DejaVu Sans', 'Bitstream Vera Sans', sans-serif; text-anchor: start" x="515.361596" y="220.779415" transform="rotate(-0 515.361596 220.779415)">chicago_police</text>
   </g>
   <g id="text_6">
    <text style="fill: #262626; font: 10px 'Arial', 'Liberation Sans', 'DejaVu Sans', 'Bitstream Vera Sans', sans-serif; text-anchor: middle" x="448.833598" y="220.764198" transform="rotate(-0 448.833598 220.764198)">0.0%</text>
   </g>
   <g id="text_7">
    <text style="fill: #262626; font: 12px 'Arial', 'Liberation Sans', 'DejaVu Sans', 'Bitstream Vera Sans', sans-serif; text-anchor: middle" x="369" y="45.84" transform="rotate(-0 369 45.84)">Incidents by Source</text>
   </g>
  </g>
 </g>
</svg>
