<?xml version="1.0" encoding="utf-8" standalone="no"?>
<!DOCTYPE svg PUBLIC "-//W3C//DTD SVG 1.1//EN"
  "http://www.w3.org/Graphics/SVG/1.1/DTD/svg11.dtd">
<svg xmlns:xlink="http://www.w3.org/1999/xlink" width="720pt" height="432pt" viewBox="0 0 720 432" xmlns="http://www.w3.org/2000/svg" version="1.1">
 <metadata>
  <rdf:RDF xmlns:dc="http://purl.org/dc/elements/1.1/" xmlns:cc="http://creativecommons.org/ns#" xmlns:rdf="http://www.w3.org/1999/02/22-rdf-syntax-ns#">
   <cc:Work>
    <dc:type rdf:resource="http://purl.org/dc/dcmitype/StillImage"/>
    <dc:date>2026-02-13T06:54:10.793582</dc:date>
    <dc:format>image/svg+xml</dc:format>
    <dc:creator>
     <cc:Agent>
      <dc:title>Matplotlib v3.7.5, https://matplotlib.org/</dc:title>
     </cc:Agent>
    </dc:creator>
   </cc:Work>
  </rdf:RDF>
 </metadata>
 <defs>
  <style type="text/css">*{stroke-linejoin: round; stroke-linecap: butt}</style>
 </defs>
 <g id="figure_1">
  <g id="patch_1">
   <path d="M 0 432 
L 720 432 
L 720 0 
L 0 0 
z
" style="fill: #ffffff"/>
  </g>
  <g id="axes_1">
   <g id="matplotlib.axis_1"/>
   <g id="matplotlib.axis_2"/>
   <g id="patch_2">
    <path d="M 502.056 218.16 
C 502.056 200.70724 498.622121 183.423797 491.950439 167.296569 
C 485.278758 151.169341 475.498724 136.511242 463.168786 124.159261 
C 450.838847 111.80728 436.19824 102.001081 420.082954 95.300605 
C 403.967667 88.600129 386.690385 85.135385 369.237654 85.104212 
C 351.784922 85.07304 334.495373 88.476043 318.356254 95.118909 
C 302.217135 101.761774 287.541591 111.515611 275.167607 123.823468 
C 262.793623 136.131325 252.96129 150.754394 246.232041 166.857687 
C 239.502792 182.960979 236.007194 200.232045 235.944849 217.684694 
C 235.882504 235.137342 239.254621 252.432941 245.868649 268.583899 
C 252.482678 284.734858 262.210287 299.427799 274.496023 311.823747 
C 286.781759 324.219695 301.387243 334.078131 317.478491 340.836131 
C 333.569738 347.594132 350.834533 351.120572 368.287042 351.21409 
C 385.739552 351.307607 403.041146 347.966388 419.203892 341.381217 
C 435.366638 334.796047 450.076931 325.094696 462.494802 312.83112 
C 474.912674 300.567545 484.797182 285.979693 491.583912 269.900541 
C 498.370643 253.82139 501.927915 236.562921 502.052604 219.110607 
L 369 218.16 
z
" style="fill: #f77189"/>
   </g>
   <g id="patch_3">
    <path d="M 502.052604 219.110607 
C 502.053725 218.953743 502.054568 218.796878 502.055134 218.640011 
C 502.0557 218.483145 502.055989 218.326278 502.056 218.16941 
L 369 218.16 
z
" style="fill: #bb9832"/>
   </g>
   <g id="patch_4">
    <path d="M 502.056 218.16941 
C 502.056 218.167841 502.056 218.166273 502.056 218.164704 
C 502.056 218.163135 502.056 218.161567 502.056 218.159998 
L 369 218.16 
z
" style="fill: #50b131"/>
   </g>
   <g id="text_1">
    <text style="fill: #262626; font: 10px 'Arial', 'Liberation Sans', 'DejaVu Sans', 'Bitstream Vera Sans', sans-serif; text-anchor: end" x="222.639334" y="220.223101" transform="rotate(-0 222.639334 220.223101)">newsapi</text>
   </g>
   <g id="text_2">
    <text style="fill: #262626; font: 10px 'Arial', 'Liberation Sans', 'DejaVu Sans', 'Bitstream Vera Sans', sans-serif; text-anchor: middle" x="289.166909" y="220.460754" transform="rotate(-0 289.166909 220.460754)">99.9%</text>
   </g>
   <g id="text_3">
    <text style="fill: #262626; font: 10px 'Arial', 'Liberation Sans', 'DejaVu Sans', 'Bitstream Vera Sans', sans-serif; text-anchor: start" x="515.360648" y="221.27395" transform="rotate(-0 515.360648 221.27395)">chicago_pd</text>
   </g>
   <g id="text_4">
    <text style="fill: #262626; font: 10px 'Arial', 'Liberation Sans', 'DejaVu Sans', 'Bitstream Vera Sans', sans-serif; text-anchor: middle" x="448.83308" y="221.033944" transform="rotate(-0 448.83308 221.033944)">0.1%</text>
   </g>
   <g id="text_5">
    <text style="fill: #262626; font: 10px 'Arial', 'Liberation Sans', 'DejaVu Sans', 'Bitstream Vera Sans', sans-serif; text-anchor: start" x="515.3616" y="220.751112" transform="rotate(-0 515.3616 220.751112)">chicago_police</text>
   </g>
   <g id="text_6">
    <text style="fill: #262626; font: 10px 'Arial', 'Liberation Sans', 'DejaVu Sans', 'Bitstream Vera Sans', sans-serif; text-anchor: middle" x="448.8336" y="220.74876" transform="rotate(-0 448.8336 220.74876)">0.0%</text>
   </g>
   <g id="text_7">
    <text style="fill: #262626; font: 12px 'Arial', 'Liberation Sans', 'DejaVu Sans', 'Bitstream Vera Sans', sans-serif; text-anchor: middle" x="369" y="45.84" transform="rotate(-0 369 45.84)">Incidents by Source</text>
   </g>
  </g>
 </g>
</svg>
