<?xml version="1.0" encoding="utf-8" standalone="no"?>
<!DOCTYPE svg PUBLIC "-//W3C//DTD SVG 1.1//EN"
  "http://www.w3.org/Graphics/SVG/1.1/DTD/svg11.dtd">
<svg xmlns:xlink="http://www.w3.org/1999/xlink" width="720pt" height="432pt" viewBox="0 0 720 432" xmlns="http://www.w3.org/2000/svg" version="1.1">
 <metadata>
  <rdf:RDF xmlns:dc="http://purl.org/dc/elements/1.1/" xmlns:cc="http://creativecommons.org/ns#" xmlns:rdf="http://www.w3.org/1999/02/22-rdf-syntax-ns#">
   <cc:Work>
    <dc:type rdf:resource="http://purl.org/dc/dcmitype/StillImage"/>
    <dc:date>2025-11-12T12:51:59.223960</dc:date>
    <dc:format>image/svg+xml</dc:format>
    <dc:creator>
     <cc:Agent>
      <dc:title>Matplotlib v3.7.5, https://matplotlib.org/</dc:title>
     </cc:Agent>
    </dc:creator>
   </cc:Work>
  </rdf:RDF>
 </metadata>
 <defs>
  <style type="text/css">*{stroke-linejoin: round; stroke-linecap: butt}</style>
 </defs>
 <g id="figure_1">
  <g id="patch_1">
   <path d="M 0 432 
L 720 432 
L 720 0 
L 0 0 
z
" style="fill: #ffffff"/>
  </g>
  <g id="axes_1">
   <g id="matplotlib.axis_1"/>
   <g id="matplotlib.axis_2"/>
   <g id="patch_2">
    <path d="M 502.056 218.16 
C 502.056 200.712571 498.624218 183.434303 491.956494 167.311206 
C 485.288769 151.18811 475.514396 136.532827 463.191164 124.181684 
C 450.867931 111.830541 436.234799 102.023039 420.126828 95.318856 
C 404.018857 88.614674 386.748398 85.143812 369.301013 85.10434 
C 351.853628 85.064869 334.567641 88.457554 318.429501 95.088786 
C 302.291361 101.720018 287.614004 111.461211 275.235014 123.75647 
C 262.856024 136.051729 253.015442 150.662636 246.274835 166.755399 
C 239.534228 182.848162 236.024304 200.110725 235.945362 217.557976 
C 235.866419 235.005227 239.219989 252.298845 245.814695 268.451945 
C 252.409401 284.605046 262.117364 299.304403 274.384587 311.711177 
C 286.651809 324.117951 301.240417 333.991562 317.317889 340.768558 
C 333.395362 347.545554 350.64994 351.094522 368.096968 351.212936 
C 385.543995 351.331349 402.845156 348.016911 419.013134 341.458765 
C 435.181112 334.90062 449.902395 325.225935 462.336889 312.986812 
C 474.771384 300.747689 484.677973 286.181456 491.491324 270.119356 
C 498.304675 254.057256 501.892669 236.810751 502.050552 219.364036 
L 369 218.16 
z
" style="fill: #f77189"/>
   </g>
   <g id="patch_3">
    <path d="M 502.050552 219.364036 
C 502.05235 219.165353 502.053703 218.966666 502.054611 218.767978 
C 502.055519 218.569289 502.055982 218.370598 502.055999 218.171907 
L 369 218.16 
z
" style="fill: #bb9832"/>
   </g>
   <g id="patch_4">
    <path d="M 502.055999 218.171907 
C 502.056 218.16992 502.056 218.167933 502.056 218.165946 
C 502.056 218.163959 502.056 218.161973 502.056 218.159986 
L 369 218.16 
z
" style="fill: #50b131"/>
   </g>
   <g id="text_1">
    <text style="fill: #262626; font: 10px 'Arial', 'Liberation Sans', 'DejaVu Sans', 'Bitstream Vera Sans', sans-serif; text-anchor: end" x="222.639898" y="220.083711" transform="rotate(-0 222.639898 220.083711)">newsapi</text>
   </g>
   <g id="text_2">
    <text style="fill: #262626; font: 10px 'Arial', 'Liberation Sans', 'DejaVu Sans', 'Bitstream Vera Sans', sans-serif; text-anchor: middle" x="289.167217" y="220.384723" transform="rotate(-0 289.167217 220.384723)">99.9%</text>
   </g>
   <g id="text_3">
    <text style="fill: #262626; font: 10px 'Arial', 'Liberation Sans', 'DejaVu Sans', 'Bitstream Vera Sans', sans-serif; text-anchor: start" x="515.360072" y="221.414713" transform="rotate(-0 515.360072 221.414713)">chicago_pd</text>
   </g>
   <g id="text_4">
    <text style="fill: #262626; font: 10px 'Arial', 'Liberation Sans', 'DejaVu Sans', 'Bitstream Vera Sans', sans-serif; text-anchor: middle" x="448.832767" y="221.110724" transform="rotate(-0 448.832767 221.110724)">0.1%</text>
   </g>
   <g id="text_5">
    <text style="fill: #262626; font: 10px 'Arial', 'Liberation Sans', 'DejaVu Sans', 'Bitstream Vera Sans', sans-serif; text-anchor: start" x="515.3616" y="220.752479" transform="rotate(-0 515.3616 220.752479)">chicago_police</text>
   </g>
   <g id="text_6">
    <text style="fill: #262626; font: 10px 'Arial', 'Liberation Sans', 'DejaVu Sans', 'Bitstream Vera Sans', sans-serif; text-anchor: middle" x="448.8336" y="220.749505" transform="rotate(-0 448.8336 220.749505)">0.0%</text>
   </g>
   <g id="text_7">
    <text style="fill: #262626; font: 12px 'Arial', 'Liberation Sans', 'DejaVu Sans', 'Bitstream Vera Sans', sans-serif; text-anchor: middle" x="369" y="45.84" transform="rotate(-0 369 45.84)">Incidents by Source</text>
   </g>
  </g>
 </g>
</svg>
