<?xml version="1.0" encoding="utf-8" standalone="no"?>
<!DOCTYPE svg PUBLIC "-//W3C//DTD SVG 1.1//EN"
  "http://www.w3.org/Graphics/SVG/1.1/DTD/svg11.dtd">
<svg xmlns:xlink="http://www.w3.org/1999/xlink" width="720pt" height="432pt" viewBox="0 0 720 432" xmlns="http://www.w3.org/2000/svg" version="1.1">
 <metadata>
  <rdf:RDF xmlns:dc="http://purl.org/dc/elements/1.1/" xmlns:cc="http://creativecommons.org/ns#" xmlns:rdf="http://www.w3.org/1999/02/22-rdf-syntax-ns#">
   <cc:Work>
    <dc:type rdf:resource="http://purl.org/dc/dcmitype/StillImage"/>
    <dc:date>2025-04-18T12:25:30.784266</dc:date>
    <dc:format>image/svg+xml</dc:format>
    <dc:creator>
     <cc:Agent>
      <dc:title>Matplotlib v3.7.5, https://matplotlib.org/</dc:title>
     </cc:Agent>
    </dc:creator>
   </cc:Work>
  </rdf:RDF>
 </metadata>
 <defs>
  <style type="text/css">*{stroke-linejoin: round; stroke-linecap: butt}</style>
 </defs>
 <g id="figure_1">
  <g id="patch_1">
   <path d="M 0 432 
L 720 432 
L 720 0 
L 0 0 
z
" style="fill: #ffffff"/>
  </g>
  <g id="axes_1">
   <g id="matplotlib.axis_1"/>
   <g id="matplotlib.axis_2"/>
   <g id="patch_2">
    <path d="M 502.056 218.16 
C 502.056 200.752976 498.640095 183.51394 492.002331 167.422186 
C 485.364567 151.330431 475.63306 136.696547 463.360626 124.351838 
C 451.088193 112.007128 436.511704 102.18986 420.459204 95.45772 
C 404.406704 88.725581 387.188022 85.208507 369.781299 85.106294 
C 352.374575 85.004081 335.115778 88.3187 318.985325 94.86186 
C 302.854871 101.405019 288.164096 111.050429 275.747536 123.250163 
C 263.330977 135.449897 253.428285 149.968488 246.602002 165.981181 
C 239.775719 181.993874 236.157599 199.191606 235.953176 216.597429 
C 235.748752 234.003252 238.961972 251.281215 245.410302 267.449812 
C 251.858631 283.618409 261.41761 298.365568 273.544225 310.85355 
C 285.670839 323.341532 300.131032 333.329305 316.103365 340.249496 
C 332.075698 347.169688 349.251888 350.88873 366.656211 351.195355 
C 384.060534 351.501981 401.357067 348.390272 417.563249 342.036995 
C 433.769431 335.683718 448.572466 326.211498 461.131439 314.158422 
C 473.690413 302.105345 483.762924 287.70405 490.776785 271.772627 
C 497.790646 255.841205 501.610481 238.687149 502.019299 221.284926 
L 369 218.16 
z
" style="fill: #f77189"/>
   </g>
   <g id="patch_3">
    <path d="M 502.019299 221.284926 
C 502.031411 220.769352 502.040526 220.253712 502.046642 219.738031 
C 502.052758 219.222351 502.055877 218.706639 502.055996 218.190923 
L 369 218.16 
z
" style="fill: #bb9832"/>
   </g>
   <g id="patch_4">
    <path d="M 502.055996 218.190923 
C 502.055998 218.185766 502.055999 218.180609 502.055999 218.175451 
C 502.056 218.170294 502.056 218.165137 502.056 218.15998 
L 369 218.16 
z
" style="fill: #50b131"/>
   </g>
   <g id="text_1">
    <text style="fill: #262626; font: 10px 'Arial', 'Liberation Sans', 'DejaVu Sans', 'Bitstream Vera Sans', sans-serif; text-anchor: end" x="222.648493" y="219.02711" transform="rotate(-0 222.648493 219.02711)">newsapi</text>
   </g>
   <g id="text_2">
    <text style="fill: #262626; font: 10px 'Arial', 'Liberation Sans', 'DejaVu Sans', 'Bitstream Vera Sans', sans-serif; text-anchor: middle" x="289.171905" y="219.808395" transform="rotate(-0 289.171905 219.808395)">99.6%</text>
   </g>
   <g id="text_3">
    <text style="fill: #262626; font: 10px 'Arial', 'Liberation Sans', 'DejaVu Sans', 'Bitstream Vera Sans', sans-serif; text-anchor: start" x="515.351306" y="222.481772" transform="rotate(-0 515.351306 222.481772)">chicago_pd</text>
   </g>
   <g id="text_4">
    <text style="fill: #262626; font: 10px 'Arial', 'Liberation Sans', 'DejaVu Sans', 'Bitstream Vera Sans', sans-serif; text-anchor: middle" x="448.827985" y="221.692756" transform="rotate(-0 448.827985 221.692756)">0.4%</text>
   </g>
   <g id="text_5">
    <text style="fill: #262626; font: 10px 'Arial', 'Liberation Sans', 'DejaVu Sans', 'Bitstream Vera Sans', sans-serif; text-anchor: start" x="515.361599" y="220.762934" transform="rotate(-0 515.361599 220.762934)">chicago_police</text>
   </g>
   <g id="text_6">
    <text style="fill: #262626; font: 10px 'Arial', 'Liberation Sans', 'DejaVu Sans', 'Bitstream Vera Sans', sans-serif; text-anchor: middle" x="448.833599" y="220.755208" transform="rotate(-0 448.833599 220.755208)">0.0%</text>
   </g>
   <g id="text_7">
    <text style="fill: #262626; font: 12px 'Arial', 'Liberation Sans', 'DejaVu Sans', 'Bitstream Vera Sans', sans-serif; text-anchor: middle" x="369" y="45.84" transform="rotate(-0 369 45.84)">Incidents by Source</text>
   </g>
  </g>
 </g>
</svg>
