<?xml version="1.0" encoding="utf-8" standalone="no"?>
<!DOCTYPE svg PUBLIC "-//W3C//DTD SVG 1.1//EN"
  "http://www.w3.org/Graphics/SVG/1.1/DTD/svg11.dtd">
<svg xmlns:xlink="http://www.w3.org/1999/xlink" width="720pt" height="432pt" viewBox="0 0 720 432" xmlns="http://www.w3.org/2000/svg" version="1.1">
 <metadata>
  <rdf:RDF xmlns:dc="http://purl.org/dc/elements/1.1/" xmlns:cc="http://creativecommons.org/ns#" xmlns:rdf="http://www.w3.org/1999/02/22-rdf-syntax-ns#">
   <cc:Work>
    <dc:type rdf:resource="http://purl.org/dc/dcmitype/StillImage"/>
    <dc:date>2026-07-01T19:46:18.675808</dc:date>
    <dc:format>image/svg+xml</dc:format>
    <dc:creator>
     <cc:Agent>
      <dc:title>Matplotlib v3.7.5, https://matplotlib.org/</dc:title>
     </cc:Agent>
    </dc:creator>
   </cc:Work>
  </rdf:RDF>
 </metadata>
 <defs>
  <style type="text/css">*{stroke-linejoin: round; stroke-linecap: butt}</style>
 </defs>
 <g id="figure_1">
  <g id="patch_1">
   <path d="M 0 432 
L 720 432 
L 720 0 
L 0 0 
z
" style="fill: #ffffff"/>
  </g>
  <g id="axes_1">
   <g id="matplotlib.axis_1"/>
   <g id="matplotlib.axis_2"/>
   <g id="patch_2">
    <path d="M 502.056 218.16 
C 502.056 200.702665 498.62032 183.414781 491.945242 167.284008 
C 485.270164 151.153234 475.485271 136.492719 463.149575 124.14002 
C 450.81388 111.787322 436.166857 101.982244 420.045293 95.284953 
C 403.92373 88.587662 386.640594 85.128173 369.183276 85.104126 
C 351.725958 85.08008 334.433358 88.491943 318.293405 95.144796 
C 302.153452 101.797649 287.479473 111.562339 275.109795 123.881007 
C 262.740116 136.199676 252.914872 150.833179 246.195381 166.945502 
C 239.47589 183.057826 235.992598 200.33618 235.944505 217.793448 
C 235.896412 235.250716 239.284453 252.548 245.915068 268.697101 
C 252.545683 284.846203 262.290151 299.533618 274.591769 311.920253 
C 286.893387 324.306888 301.513343 334.152279 317.616395 340.893957 
C 333.719448 347.635636 350.992987 351.142725 368.450173 351.214864 
C 385.907358 351.287003 403.209292 347.922791 419.367512 341.314427 
C 435.525731 334.706063 450.226555 324.981835 462.630123 312.69729 
C 475.03369 300.412746 484.89921 285.806365 491.663063 269.712614 
C 498.426916 253.618863 501.957795 236.350171 502.05398 218.893101 
L 369 218.16 
z
" style="fill: #f77189"/>
   </g>
   <g id="patch_3">
    <path d="M 502.05398 218.893101 
C 502.054647 218.772132 502.055148 218.651161 502.055485 218.530191 
C 502.055822 218.40922 502.055993 218.288249 502.056 218.167277 
L 369 218.16 
z
" style="fill: #bb9832"/>
   </g>
   <g id="patch_4">
    <path d="M 502.056 218.167277 
C 502.056 218.166068 502.056 218.164858 502.056 218.163648 
C 502.056 218.162438 502.056 218.161229 502.056 218.160019 
L 369 218.16 
z
" style="fill: #50b131"/>
   </g>
   <g id="text_1">
    <text style="fill: #262626; font: 10px 'Arial', 'Liberation Sans', 'DejaVu Sans', 'Bitstream Vera Sans', sans-serif; text-anchor: end" x="222.638955" y="220.34273" transform="rotate(-0 222.638955 220.34273)">newsapi</text>
   </g>
   <g id="text_2">
    <text style="fill: #262626; font: 10px 'Arial', 'Liberation Sans', 'DejaVu Sans', 'Bitstream Vera Sans', sans-serif; text-anchor: middle" x="289.166703" y="220.526006" transform="rotate(-0 289.166703 220.526006)">99.9%</text>
   </g>
   <g id="text_3">
    <text style="fill: #262626; font: 10px 'Arial', 'Liberation Sans', 'DejaVu Sans', 'Bitstream Vera Sans', sans-serif; text-anchor: start" x="515.361034" y="221.153147" transform="rotate(-0 515.361034 221.153147)">chicago_pd</text>
   </g>
   <g id="text_4">
    <text style="fill: #262626; font: 10px 'Arial', 'Liberation Sans', 'DejaVu Sans', 'Bitstream Vera Sans', sans-serif; text-anchor: middle" x="448.833291" y="220.968052" transform="rotate(-0 448.833291 220.968052)">0.1%</text>
   </g>
   <g id="text_5">
    <text style="fill: #262626; font: 10px 'Arial', 'Liberation Sans', 'DejaVu Sans', 'Bitstream Vera Sans', sans-serif; text-anchor: start" x="515.3616" y="220.749951" transform="rotate(-0 515.3616 220.749951)">chicago_police</text>
   </g>
   <g id="text_6">
    <text style="fill: #262626; font: 10px 'Arial', 'Liberation Sans', 'DejaVu Sans', 'Bitstream Vera Sans', sans-serif; text-anchor: middle" x="448.8336" y="220.748126" transform="rotate(-0 448.8336 220.748126)">0.0%</text>
   </g>
   <g id="text_7">
    <text style="fill: #262626; font: 12px 'Arial', 'Liberation Sans', 'DejaVu Sans', 'Bitstream Vera Sans', sans-serif; text-anchor: middle" x="369" y="45.84" transform="rotate(-0 369 45.84)">Incidents by Source</text>
   </g>
  </g>
 </g>
</svg>
