<?xml version="1.0" encoding="utf-8" standalone="no"?>
<!DOCTYPE svg PUBLIC "-//W3C//DTD SVG 1.1//EN"
  "http://www.w3.org/Graphics/SVG/1.1/DTD/svg11.dtd">
<svg xmlns:xlink="http://www.w3.org/1999/xlink" width="720pt" height="432pt" viewBox="0 0 720 432" xmlns="http://www.w3.org/2000/svg" version="1.1">
 <metadata>
  <rdf:RDF xmlns:dc="http://purl.org/dc/elements/1.1/" xmlns:cc="http://creativecommons.org/ns#" xmlns:rdf="http://www.w3.org/1999/02/22-rdf-syntax-ns#">
   <cc:Work>
    <dc:type rdf:resource="http://purl.org/dc/dcmitype/StillImage"/>
    <dc:date>2025-10-27T06:24:32.826847</dc:date>
    <dc:format>image/svg+xml</dc:format>
    <dc:creator>
     <cc:Agent>
      <dc:title>Matplotlib v3.7.5, https://matplotlib.org/</dc:title>
     </cc:Agent>
    </dc:creator>
   </cc:Work>
  </rdf:RDF>
 </metadata>
 <defs>
  <style type="text/css">*{stroke-linejoin: round; stroke-linecap: butt}</style>
 </defs>
 <g id="figure_1">
  <g id="patch_1">
   <path d="M 0 432 
L 720 432 
L 720 0 
L 0 0 
z
" style="fill: #ffffff"/>
  </g>
  <g id="axes_1">
   <g id="matplotlib.axis_1"/>
   <g id="matplotlib.axis_2"/>
   <g id="patch_2">
    <path d="M 502.056 218.16 
C 502.056 200.713743 498.624679 183.436614 491.957825 167.314427 
C 485.290971 151.192239 475.517844 136.537577 463.196087 124.186619 
C 450.87433 111.83566 436.242842 102.027872 420.13648 95.322874 
C 404.030119 88.617876 386.761161 85.145669 369.314953 85.104373 
C 351.868745 85.063076 334.583542 88.453491 318.445619 95.082164 
C 302.307696 101.710837 287.629941 111.449249 275.249851 123.741736 
C 262.869761 136.034223 253.027366 150.642454 246.284262 166.732899 
C 239.541158 182.823344 236.028084 200.084035 235.945491 217.530096 
C 235.862898 234.976157 239.212388 252.269337 245.802843 268.422906 
C 252.393298 284.576474 262.096939 299.27724 274.360087 311.686392 
C 286.623235 324.095545 301.208128 333.972491 317.282566 340.753663 
C 333.357005 347.534835 350.609332 351.088757 368.055149 351.212645 
C 385.500965 351.336534 402.802025 348.027987 418.971149 341.475787 
C 435.140272 334.923588 449.863965 325.254772 462.302111 313.021031 
C 474.740256 300.787291 484.651698 286.225819 491.470901 270.167477 
C 498.290103 254.109135 501.884852 236.865268 502.050036 219.419794 
L 369 218.16 
z
" style="fill: #f77189"/>
   </g>
   <g id="patch_3">
    <path d="M 502.050036 219.419794 
C 502.052004 219.211916 502.053485 219.004035 502.054479 218.79615 
C 502.055473 218.588266 502.05598 218.38038 502.055999 218.172493 
L 369 218.16 
z
" style="fill: #bb9832"/>
   </g>
   <g id="patch_4">
    <path d="M 502.055999 218.172493 
C 502.056 218.170415 502.056 218.168336 502.056 218.166257 
C 502.056 218.164178 502.056 218.162099 502.056 218.16002 
L 369 218.16 
z
" style="fill: #50b131"/>
   </g>
   <g id="text_1">
    <text style="fill: #262626; font: 10px 'Arial', 'Liberation Sans', 'DejaVu Sans', 'Bitstream Vera Sans', sans-serif; text-anchor: end" x="222.64004" y="220.053043" transform="rotate(-0 222.64004 220.053043)">newsapi</text>
   </g>
   <g id="text_2">
    <text style="fill: #262626; font: 10px 'Arial', 'Liberation Sans', 'DejaVu Sans', 'Bitstream Vera Sans', sans-serif; text-anchor: middle" x="289.167295" y="220.367995" transform="rotate(-0 289.167295 220.367995)">99.8%</text>
   </g>
   <g id="text_3">
    <text style="fill: #262626; font: 10px 'Arial', 'Liberation Sans', 'DejaVu Sans', 'Bitstream Vera Sans', sans-serif; text-anchor: start" x="515.359927" y="221.445703" transform="rotate(-0 515.359927 221.445703)">chicago_pd</text>
   </g>
   <g id="text_4">
    <text style="fill: #262626; font: 10px 'Arial', 'Liberation Sans', 'DejaVu Sans', 'Bitstream Vera Sans', sans-serif; text-anchor: middle" x="448.832688" y="221.127628" transform="rotate(-0 448.832688 221.127628)">0.1%</text>
   </g>
   <g id="text_5">
    <text style="fill: #262626; font: 10px 'Arial', 'Liberation Sans', 'DejaVu Sans', 'Bitstream Vera Sans', sans-serif; text-anchor: start" x="515.3616" y="220.75282" transform="rotate(-0 515.3616 220.75282)">chicago_police</text>
   </g>
   <g id="text_6">
    <text style="fill: #262626; font: 10px 'Arial', 'Liberation Sans', 'DejaVu Sans', 'Bitstream Vera Sans', sans-serif; text-anchor: middle" x="448.8336" y="220.749692" transform="rotate(-0 448.8336 220.749692)">0.0%</text>
   </g>
   <g id="text_7">
    <text style="fill: #262626; font: 12px 'Arial', 'Liberation Sans', 'DejaVu Sans', 'Bitstream Vera Sans', sans-serif; text-anchor: middle" x="369" y="45.84" transform="rotate(-0 369 45.84)">Incidents by Source</text>
   </g>
  </g>
 </g>
</svg>
