<?xml version="1.0" encoding="utf-8" standalone="no"?>
<!DOCTYPE svg PUBLIC "-//W3C//DTD SVG 1.1//EN"
  "http://www.w3.org/Graphics/SVG/1.1/DTD/svg11.dtd">
<svg xmlns:xlink="http://www.w3.org/1999/xlink" width="720pt" height="432pt" viewBox="0 0 720 432" xmlns="http://www.w3.org/2000/svg" version="1.1">
 <metadata>
  <rdf:RDF xmlns:dc="http://purl.org/dc/elements/1.1/" xmlns:cc="http://creativecommons.org/ns#" xmlns:rdf="http://www.w3.org/1999/02/22-rdf-syntax-ns#">
   <cc:Work>
    <dc:type rdf:resource="http://purl.org/dc/dcmitype/StillImage"/>
    <dc:date>2025-07-25T12:52:15.631826</dc:date>
    <dc:format>image/svg+xml</dc:format>
    <dc:creator>
     <cc:Agent>
      <dc:title>Matplotlib v3.7.5, https://matplotlib.org/</dc:title>
     </cc:Agent>
    </dc:creator>
   </cc:Work>
  </rdf:RDF>
 </metadata>
 <defs>
  <style type="text/css">*{stroke-linejoin: round; stroke-linecap: butt}</style>
 </defs>
 <g id="figure_1">
  <g id="patch_1">
   <path d="M 0 432 
L 720 432 
L 720 0 
L 0 0 
z
" style="fill: #ffffff"/>
  </g>
  <g id="axes_1">
   <g id="matplotlib.axis_1"/>
   <g id="matplotlib.axis_2"/>
   <g id="patch_2">
    <path d="M 502.056 218.16 
C 502.056 200.725256 498.629206 183.459305 491.970895 167.346044 
C 485.312583 151.232783 475.551677 136.584209 463.2444 124.235071 
C 450.937122 111.885933 436.321777 102.075342 420.231218 95.362356 
C 404.140658 88.649369 386.886442 85.163968 369.451799 85.104767 
C 352.017156 85.045566 334.739668 88.413713 318.603891 95.017272 
C 302.468114 101.620832 287.786482 111.331942 275.395625 123.597216 
C 263.004767 135.862491 253.144606 150.444439 246.377022 166.512111 
C 239.609438 182.579784 236.065469 199.822065 235.947068 217.256407 
C 235.828668 234.690749 239.138128 251.979574 245.68686 268.13768 
C 252.235591 284.295787 261.896793 299.010309 274.119923 311.442743 
C 286.343052 323.875176 300.891436 333.784794 316.936036 340.606898 
C 332.980636 347.429002 350.210785 351.031497 367.644624 351.209097 
C 385.078463 351.386696 402.378426 348.13596 418.558676 341.642131 
C 434.738926 335.148303 449.486169 325.537121 461.960034 313.356277 
C 474.4339 301.175433 484.392861 286.660782 491.269406 270.639439 
C 498.145951 254.618096 501.806932 237.40028 502.043727 219.967144 
L 369 218.16 
z
" style="fill: #f77189"/>
   </g>
   <g id="patch_3">
    <path d="M 502.043727 219.967144 
C 502.047778 219.668954 502.050825 219.370752 502.052871 219.072541 
C 502.054916 218.774331 502.055959 218.476115 502.055999 218.177897 
L 369 218.16 
z
" style="fill: #bb9832"/>
   </g>
   <g id="patch_4">
    <path d="M 502.055999 218.177897 
C 502.055999 218.174915 502.055999 218.171933 502.056 218.168951 
C 502.056 218.165969 502.056 218.162987 502.056 218.160004 
L 369 218.16 
z
" style="fill: #50b131"/>
   </g>
   <g id="text_1">
    <text style="fill: #262626; font: 10px 'Arial', 'Liberation Sans', 'DejaVu Sans', 'Bitstream Vera Sans', sans-serif; text-anchor: end" x="222.641775" y="219.751985" transform="rotate(-0 222.641775 219.751985)">newsapi</text>
   </g>
   <g id="text_2">
    <text style="fill: #262626; font: 10px 'Arial', 'Liberation Sans', 'DejaVu Sans', 'Bitstream Vera Sans', sans-serif; text-anchor: middle" x="289.168241" y="220.203782" transform="rotate(-0 289.168241 220.203782)">99.8%</text>
   </g>
   <g id="text_3">
    <text style="fill: #262626; font: 10px 'Arial', 'Liberation Sans', 'DejaVu Sans', 'Bitstream Vera Sans', sans-serif; text-anchor: start" x="515.358158" y="221.749733" transform="rotate(-0 515.358158 221.749733)">chicago_pd</text>
   </g>
   <g id="text_4">
    <text style="fill: #262626; font: 10px 'Arial', 'Liberation Sans', 'DejaVu Sans', 'Bitstream Vera Sans', sans-serif; text-anchor: middle" x="448.831722" y="221.293462" transform="rotate(-0 448.831722 221.293462)">0.2%</text>
   </g>
   <g id="text_5">
    <text style="fill: #262626; font: 10px 'Arial', 'Liberation Sans', 'DejaVu Sans', 'Bitstream Vera Sans', sans-serif; text-anchor: start" x="515.3616" y="220.755784" transform="rotate(-0 515.3616 220.755784)">chicago_police</text>
   </g>
   <g id="text_6">
    <text style="fill: #262626; font: 10px 'Arial', 'Liberation Sans', 'DejaVu Sans', 'Bitstream Vera Sans', sans-serif; text-anchor: middle" x="448.8336" y="220.751308" transform="rotate(-0 448.8336 220.751308)">0.0%</text>
   </g>
   <g id="text_7">
    <text style="fill: #262626; font: 12px 'Arial', 'Liberation Sans', 'DejaVu Sans', 'Bitstream Vera Sans', sans-serif; text-anchor: middle" x="369" y="45.84" transform="rotate(-0 369 45.84)">Incidents by Source</text>
   </g>
  </g>
 </g>
</svg>
