<?xml version="1.0" encoding="utf-8" standalone="no"?>
<!DOCTYPE svg PUBLIC "-//W3C//DTD SVG 1.1//EN"
  "http://www.w3.org/Graphics/SVG/1.1/DTD/svg11.dtd">
<svg xmlns:xlink="http://www.w3.org/1999/xlink" width="720pt" height="432pt" viewBox="0 0 720 432" xmlns="http://www.w3.org/2000/svg" version="1.1">
 <metadata>
  <rdf:RDF xmlns:dc="http://purl.org/dc/elements/1.1/" xmlns:cc="http://creativecommons.org/ns#" xmlns:rdf="http://www.w3.org/1999/02/22-rdf-syntax-ns#">
   <cc:Work>
    <dc:type rdf:resource="http://purl.org/dc/dcmitype/StillImage"/>
    <dc:date>2026-01-09T06:26:37.630376</dc:date>
    <dc:format>image/svg+xml</dc:format>
    <dc:creator>
     <cc:Agent>
      <dc:title>Matplotlib v3.7.5, https://matplotlib.org/</dc:title>
     </cc:Agent>
    </dc:creator>
   </cc:Work>
  </rdf:RDF>
 </metadata>
 <defs>
  <style type="text/css">*{stroke-linejoin: round; stroke-linecap: butt}</style>
 </defs>
 <g id="figure_1">
  <g id="patch_1">
   <path d="M 0 432 
L 720 432 
L 720 0 
L 0 0 
z
" style="fill: #ffffff"/>
  </g>
  <g id="axes_1">
   <g id="matplotlib.axis_1"/>
   <g id="matplotlib.axis_2"/>
   <g id="patch_2">
    <path d="M 502.056 218.16 
C 502.056 200.709146 498.62287 183.427553 491.952604 167.301801 
C 485.282337 151.17605 475.504327 136.518957 463.176785 124.167276 
C 450.849244 111.815594 436.211309 102.008928 420.098637 95.307127 
C 403.985966 88.605326 386.711122 85.138394 369.260301 85.104255 
C 351.80948 85.070115 334.521204 88.469429 318.382434 95.108136 
C 302.243664 101.746843 287.567471 111.49616 275.191696 123.799514 
C 262.815921 136.102868 252.980638 150.72159 246.247328 166.82112 
C 239.514018 182.920649 236.013298 200.188677 235.945018 217.639398 
C 235.876739 235.090119 239.242226 252.385012 245.849347 268.536739 
C 252.456468 284.688465 262.177055 299.383703 274.456175 311.783524 
C 286.735294 324.183345 301.334747 334.047208 317.421073 340.812001 
C 333.507399 347.576795 350.768546 351.11129 368.2191 351.213708 
C 385.669654 351.316127 402.971098 347.984481 419.135719 341.408971 
C 435.30034 334.83346 450.014567 325.14164 462.438386 312.886803 
C 474.862205 300.631965 484.754611 286.051837 491.550861 269.978776 
C 498.347112 253.905715 501.915369 236.651516 502.051926 219.201196 
L 369 218.16 
z
" style="fill: #f77189"/>
   </g>
   <g id="patch_3">
    <path d="M 502.051926 219.201196 
C 502.053271 219.029381 502.054282 218.857563 502.054961 218.685744 
C 502.05564 218.513925 502.055986 218.342105 502.056 218.170285 
L 369 218.16 
z
" style="fill: #bb9832"/>
   </g>
   <g id="patch_4">
    <path d="M 502.056 218.170285 
C 502.056 218.168567 502.056 218.166848 502.056 218.16513 
C 502.056 218.163412 502.056 218.161694 502.056 218.159976 
L 369 218.16 
z
" style="fill: #50b131"/>
   </g>
   <g id="text_1">
    <text style="fill: #262626; font: 10px 'Arial', 'Liberation Sans', 'DejaVu Sans', 'Bitstream Vera Sans', sans-serif; text-anchor: end" x="222.63952" y="220.173275" transform="rotate(-0 222.63952 220.173275)">newsapi</text>
   </g>
   <g id="text_2">
    <text style="fill: #262626; font: 10px 'Arial', 'Liberation Sans', 'DejaVu Sans', 'Bitstream Vera Sans', sans-serif; text-anchor: middle" x="289.167011" y="220.433576" transform="rotate(-0 289.167011 220.433576)">99.9%</text>
   </g>
   <g id="text_3">
    <text style="fill: #262626; font: 10px 'Arial', 'Liberation Sans', 'DejaVu Sans', 'Bitstream Vera Sans', sans-serif; text-anchor: start" x="515.360457" y="221.324256" transform="rotate(-0 515.360457 221.324256)">chicago_pd</text>
   </g>
   <g id="text_4">
    <text style="fill: #262626; font: 10px 'Arial', 'Liberation Sans', 'DejaVu Sans', 'Bitstream Vera Sans', sans-serif; text-anchor: middle" x="448.832977" y="221.061384" transform="rotate(-0 448.832977 221.061384)">0.1%</text>
   </g>
   <g id="text_5">
    <text style="fill: #262626; font: 10px 'Arial', 'Liberation Sans', 'DejaVu Sans', 'Bitstream Vera Sans', sans-serif; text-anchor: start" x="515.3616" y="220.751581" transform="rotate(-0 515.3616 220.751581)">chicago_police</text>
   </g>
   <g id="text_6">
    <text style="fill: #262626; font: 10px 'Arial', 'Liberation Sans', 'DejaVu Sans', 'Bitstream Vera Sans', sans-serif; text-anchor: middle" x="448.8336" y="220.749016" transform="rotate(-0 448.8336 220.749016)">0.0%</text>
   </g>
   <g id="text_7">
    <text style="fill: #262626; font: 12px 'Arial', 'Liberation Sans', 'DejaVu Sans', 'Bitstream Vera Sans', sans-serif; text-anchor: middle" x="369" y="45.84" transform="rotate(-0 369 45.84)">Incidents by Source</text>
   </g>
  </g>
 </g>
</svg>
