<?xml version="1.0" encoding="utf-8" standalone="no"?>
<!DOCTYPE svg PUBLIC "-//W3C//DTD SVG 1.1//EN"
  "http://www.w3.org/Graphics/SVG/1.1/DTD/svg11.dtd">
<svg xmlns:xlink="http://www.w3.org/1999/xlink" width="720pt" height="432pt" viewBox="0 0 720 432" xmlns="http://www.w3.org/2000/svg" version="1.1">
 <metadata>
  <rdf:RDF xmlns:dc="http://purl.org/dc/elements/1.1/" xmlns:cc="http://creativecommons.org/ns#" xmlns:rdf="http://www.w3.org/1999/02/22-rdf-syntax-ns#">
   <cc:Work>
    <dc:type rdf:resource="http://purl.org/dc/dcmitype/StillImage"/>
    <dc:date>2025-05-30T12:27:47.574125</dc:date>
    <dc:format>image/svg+xml</dc:format>
    <dc:creator>
     <cc:Agent>
      <dc:title>Matplotlib v3.7.5, https://matplotlib.org/</dc:title>
     </cc:Agent>
    </dc:creator>
   </cc:Work>
  </rdf:RDF>
 </metadata>
 <defs>
  <style type="text/css">*{stroke-linejoin: round; stroke-linecap: butt}</style>
 </defs>
 <g id="figure_1">
  <g id="patch_1">
   <path d="M 0 432 
L 720 432 
L 720 0 
L 0 0 
z
" style="fill: #ffffff"/>
  </g>
  <g id="axes_1">
   <g id="matplotlib.axis_1"/>
   <g id="matplotlib.axis_2"/>
   <g id="patch_2">
    <path d="M 502.056 218.16 
C 502.056 200.737335 498.633953 183.483111 491.984598 167.379218 
C 485.335243 151.275326 475.587152 136.633149 463.295061 124.285932 
C 451.00297 111.938715 436.404557 102.125203 420.330579 95.403857 
C 404.256602 88.68251 387.017863 85.183291 369.595372 85.105332 
C 352.172881 85.027373 334.903517 88.37218 318.770033 94.94941 
C 302.636549 101.52664 287.950899 111.209116 275.548804 123.445835 
C 263.146708 135.682554 253.267973 150.236909 246.474769 166.28065 
C 239.681565 182.324392 236.105245 199.547301 235.949328 216.969268 
C 235.793411 234.391236 239.060911 251.675393 245.565884 267.838147 
C 252.070858 284.0009 261.687525 298.729728 273.868627 311.186453 
C 286.049729 323.643179 300.559735 333.58694 316.572919 340.451865 
C 332.586103 347.31679 349.792837 350.97014 367.213933 351.204012 
C 384.635028 351.437884 401.933633 348.247756 418.125332 341.815169 
C 434.31703 335.382583 449.088741 325.831918 461.599847 313.706676 
C 474.110954 301.581435 484.119542 287.116069 491.056051 271.133763 
C 497.99256 255.151457 501.722866 237.961242 502.034688 220.541368 
L 369 218.16 
z
" style="fill: #f77189"/>
   </g>
   <g id="patch_3">
    <path d="M 502.034688 220.541368 
C 502.041721 220.148447 502.047014 219.755498 502.050566 219.362531 
C 502.054117 218.969563 502.055928 218.576582 502.055998 218.183599 
L 369 218.16 
z
" style="fill: #bb9832"/>
   </g>
   <g id="patch_4">
    <path d="M 502.055998 218.183599 
C 502.055999 218.179669 502.055999 218.17574 502.055999 218.17181 
C 502.056 218.16788 502.056 218.16395 502.056 218.16002 
L 369 218.16 
z
" style="fill: #50b131"/>
   </g>
   <g id="text_1">
    <text style="fill: #262626; font: 10px 'Arial', 'Liberation Sans', 'DejaVu Sans', 'Bitstream Vera Sans', sans-serif; text-anchor: end" x="222.644261" y="219.436133" transform="rotate(-0 222.644261 219.436133)">newsapi</text>
   </g>
   <g id="text_2">
    <text style="fill: #262626; font: 10px 'Arial', 'Liberation Sans', 'DejaVu Sans', 'Bitstream Vera Sans', sans-serif; text-anchor: middle" x="289.169597" y="220.031499" transform="rotate(-0 289.169597 220.031499)">99.7%</text>
   </g>
   <g id="text_3">
    <text style="fill: #262626; font: 10px 'Arial', 'Liberation Sans', 'DejaVu Sans', 'Bitstream Vera Sans', sans-serif; text-anchor: start" x="515.355622" y="222.068721" transform="rotate(-0 515.355622 222.068721)">chicago_pd</text>
   </g>
   <g id="text_4">
    <text style="fill: #262626; font: 10px 'Arial', 'Liberation Sans', 'DejaVu Sans', 'Bitstream Vera Sans', sans-serif; text-anchor: middle" x="448.830339" y="221.467456" transform="rotate(-0 448.830339 221.467456)">0.3%</text>
   </g>
   <g id="text_5">
    <text style="fill: #262626; font: 10px 'Arial', 'Liberation Sans', 'DejaVu Sans', 'Bitstream Vera Sans', sans-serif; text-anchor: start" x="515.361599" y="220.758928" transform="rotate(-0 515.361599 220.758928)">chicago_police</text>
   </g>
   <g id="text_6">
    <text style="fill: #262626; font: 10px 'Arial', 'Liberation Sans', 'DejaVu Sans', 'Bitstream Vera Sans', sans-serif; text-anchor: middle" x="448.8336" y="220.753023" transform="rotate(-0 448.8336 220.753023)">0.0%</text>
   </g>
   <g id="text_7">
    <text style="fill: #262626; font: 12px 'Arial', 'Liberation Sans', 'DejaVu Sans', 'Bitstream Vera Sans', sans-serif; text-anchor: middle" x="369" y="45.84" transform="rotate(-0 369 45.84)">Incidents by Source</text>
   </g>
  </g>
 </g>
</svg>
