<?xml version="1.0" encoding="utf-8" standalone="no"?>
<!DOCTYPE svg PUBLIC "-//W3C//DTD SVG 1.1//EN"
  "http://www.w3.org/Graphics/SVG/1.1/DTD/svg11.dtd">
<svg xmlns:xlink="http://www.w3.org/1999/xlink" width="720pt" height="432pt" viewBox="0 0 720 432" xmlns="http://www.w3.org/2000/svg" version="1.1">
 <metadata>
  <rdf:RDF xmlns:dc="http://purl.org/dc/elements/1.1/" xmlns:cc="http://creativecommons.org/ns#" xmlns:rdf="http://www.w3.org/1999/02/22-rdf-syntax-ns#">
   <cc:Work>
    <dc:type rdf:resource="http://purl.org/dc/dcmitype/StillImage"/>
    <dc:date>2025-01-29T01:35:17.397955</dc:date>
    <dc:format>image/svg+xml</dc:format>
    <dc:creator>
     <cc:Agent>
      <dc:title>Matplotlib v3.7.5, https://matplotlib.org/</dc:title>
     </cc:Agent>
    </dc:creator>
   </cc:Work>
  </rdf:RDF>
 </metadata>
 <defs>
  <style type="text/css">*{stroke-linejoin: round; stroke-linecap: butt}</style>
 </defs>
 <g id="figure_1">
  <g id="patch_1">
   <path d="M 0 432 
L 720 432 
L 720 0 
L 0 0 
z
" style="fill: #ffffff"/>
  </g>
  <g id="axes_1">
   <g id="matplotlib.axis_1"/>
   <g id="matplotlib.axis_2"/>
   <g id="patch_2">
    <path d="M 502.056 218.16 
C 502.056 200.83926 498.673875 183.684018 492.099883 167.659328 
C 485.525892 151.634639 475.885662 137.046731 463.721497 124.716235 
C 451.557332 112.38574 437.101686 102.54829 421.167752 95.757284 
C 405.233817 88.966279 388.126087 85.351491 370.806945 85.11627 
C 353.487802 84.881049 336.288211 88.029888 320.175723 94.385653 
C 304.063234 100.741417 289.345753 110.18265 276.851202 122.178241 
C 264.35665 134.173832 254.323795 148.494549 247.317027 164.33479 
C 240.31026 180.175031 236.463477 197.232093 235.993078 214.546444 
C 235.522678 231.860795 238.437651 249.101562 244.574017 265.298878 
C 250.710382 281.496194 259.950876 296.340533 271.775681 308.996837 
C 283.600485 321.65314 297.783632 331.87955 313.527258 339.100787 
C 329.270884 346.322025 346.274133 350.400093 363.580499 351.105583 
C 380.886866 351.811074 398.165629 349.130505 414.444785 343.214671 
C 430.723942 337.298836 445.6924 328.260785 458.508121 316.608948 
C 471.323843 304.95711 481.741922 290.91415 489.176296 275.270042 
C 496.610671 259.625935 500.919273 242.679635 501.859725 225.384446 
L 369 218.16 
z
" style="fill: #f77189"/>
   </g>
   <g id="patch_3">
    <path d="M 501.859725 225.384446 
C 501.924487 224.193447 501.973232 223.001631 502.005946 221.809322 
C 502.038659 220.617012 502.055339 219.424317 502.055981 218.231559 
L 369 218.16 
z
" style="fill: #bb9832"/>
   </g>
   <g id="patch_4">
    <path d="M 502.055981 218.231559 
C 502.055987 218.219631 502.055992 218.207704 502.055995 218.195777 
C 502.055998 218.183849 502.056 218.171922 502.056 218.159994 
L 369 218.16 
z
" style="fill: #50b131"/>
   </g>
   <g id="text_1">
    <text style="fill: #262626; font: 10px 'Arial', 'Liberation Sans', 'DejaVu Sans', 'Bitstream Vera Sans', sans-serif; text-anchor: end" x="222.692386" y="216.771026" transform="rotate(-0 222.692386 216.771026)">newsapi</text>
   </g>
   <g id="text_2">
    <text style="fill: #262626; font: 10px 'Arial', 'Liberation Sans', 'DejaVu Sans', 'Bitstream Vera Sans', sans-serif; text-anchor: middle" x="289.195847" y="218.577804" transform="rotate(-0 289.195847 218.577804)">99.1%</text>
   </g>
   <g id="text_3">
    <text style="fill: #262626; font: 10px 'Arial', 'Liberation Sans', 'DejaVu Sans', 'Bitstream Vera Sans', sans-serif; text-anchor: start" x="515.30654" y="224.760192" transform="rotate(-0 515.30654 224.760192)">chicago_pd</text>
   </g>
   <g id="text_4">
    <text style="fill: #262626; font: 10px 'Arial', 'Liberation Sans', 'DejaVu Sans', 'Bitstream Vera Sans', sans-serif; text-anchor: middle" x="448.803567" y="222.935531" transform="rotate(-0 448.803567 222.935531)">0.9%</text>
   </g>
   <g id="text_5">
    <text style="fill: #262626; font: 10px 'Arial', 'Liberation Sans', 'DejaVu Sans', 'Bitstream Vera Sans', sans-serif; text-anchor: start" x="515.361595" y="220.785292" transform="rotate(-0 515.361595 220.785292)">chicago_police</text>
   </g>
   <g id="text_6">
    <text style="fill: #262626; font: 10px 'Arial', 'Liberation Sans', 'DejaVu Sans', 'Bitstream Vera Sans', sans-serif; text-anchor: middle" x="448.833597" y="220.767403" transform="rotate(-0 448.833597 220.767403)">0.0%</text>
   </g>
   <g id="text_7">
    <text style="fill: #262626; font: 12px 'Arial', 'Liberation Sans', 'DejaVu Sans', 'Bitstream Vera Sans', sans-serif; text-anchor: middle" x="369" y="45.84" transform="rotate(-0 369 45.84)">Incidents by Source</text>
   </g>
  </g>
 </g>
</svg>
