<?xml version="1.0" encoding="utf-8" standalone="no"?>
<!DOCTYPE svg PUBLIC "-//W3C//DTD SVG 1.1//EN"
  "http://www.w3.org/Graphics/SVG/1.1/DTD/svg11.dtd">
<svg xmlns:xlink="http://www.w3.org/1999/xlink" width="720pt" height="432pt" viewBox="0 0 720 432" xmlns="http://www.w3.org/2000/svg" version="1.1">
 <metadata>
  <rdf:RDF xmlns:dc="http://purl.org/dc/elements/1.1/" xmlns:cc="http://creativecommons.org/ns#" xmlns:rdf="http://www.w3.org/1999/02/22-rdf-syntax-ns#">
   <cc:Work>
    <dc:type rdf:resource="http://purl.org/dc/dcmitype/StillImage"/>
    <dc:date>2025-06-06T12:27:55.113580</dc:date>
    <dc:format>image/svg+xml</dc:format>
    <dc:creator>
     <cc:Agent>
      <dc:title>Matplotlib v3.7.5, https://matplotlib.org/</dc:title>
     </cc:Agent>
    </dc:creator>
   </cc:Work>
  </rdf:RDF>
 </metadata>
 <defs>
  <style type="text/css">*{stroke-linejoin: round; stroke-linecap: butt}</style>
 </defs>
 <g id="figure_1">
  <g id="patch_1">
   <path d="M 0 432 
L 720 432 
L 720 0 
L 0 0 
z
" style="fill: #ffffff"/>
  </g>
  <g id="axes_1">
   <g id="matplotlib.axis_1"/>
   <g id="matplotlib.axis_2"/>
   <g id="patch_2">
    <path d="M 502.056 218.16 
C 502.056 200.735451 498.633213 183.479399 491.982462 167.374046 
C 485.331711 151.268692 475.581622 136.625517 463.287163 124.278 
C 450.992705 111.930482 436.391652 102.117425 420.315089 95.39738 
C 404.238526 88.677336 386.997373 85.18027 369.572986 85.105234 
C 352.148599 85.030198 334.877966 88.378642 318.744122 94.959976 
C 302.610278 101.54131 287.925251 111.228251 275.524904 123.469422 
C 263.124557 135.710594 253.248713 150.269253 246.459499 166.316728 
C 239.670286 182.364204 236.099006 199.590137 235.948935 217.014039 
C 235.798864 234.437942 239.072904 251.722833 245.584699 267.88487 
C 252.096494 284.046906 261.720106 298.773512 273.907764 311.226459 
C 286.095422 323.679406 300.611417 333.617852 316.629507 340.476109 
C 332.647597 347.334366 349.857991 350.979793 367.281086 351.204896 
C 384.70418 351.429999 402.003011 348.230424 418.192939 341.788289 
C 434.382868 335.346154 449.15078 325.786049 461.656096 313.652131 
C 474.161411 301.518213 484.162277 287.045151 491.089449 271.056744 
C 498.016622 255.068336 501.73613 237.8738 502.036261 220.451836 
L 369 218.16 
z
" style="fill: #f77189"/>
   </g>
   <g id="patch_3">
    <path d="M 502.036261 220.451836 
C 502.042775 220.073683 502.047677 219.695504 502.050967 219.317308 
C 502.054256 218.939113 502.055934 218.560906 502.055998 218.182697 
L 369 218.16 
z
" style="fill: #bb9832"/>
   </g>
   <g id="patch_4">
    <path d="M 502.055998 218.182697 
C 502.055999 218.178914 502.055999 218.175132 502.056 218.17135 
C 502.056 218.167568 502.056 218.163786 502.056 218.160004 
L 369 218.16 
z
" style="fill: #50b131"/>
   </g>
   <g id="text_1">
    <text style="fill: #262626; font: 10px 'Arial', 'Liberation Sans', 'DejaVu Sans', 'Bitstream Vera Sans', sans-serif; text-anchor: end" x="222.643828" y="219.485381" transform="rotate(-0 222.643828 219.485381)">newsapi</text>
   </g>
   <g id="text_2">
    <text style="fill: #262626; font: 10px 'Arial', 'Liberation Sans', 'DejaVu Sans', 'Bitstream Vera Sans', sans-serif; text-anchor: middle" x="289.169361" y="220.058361" transform="rotate(-0 289.169361 220.058361)">99.7%</text>
   </g>
   <g id="text_3">
    <text style="fill: #262626; font: 10px 'Arial', 'Liberation Sans', 'DejaVu Sans', 'Bitstream Vera Sans', sans-serif; text-anchor: start" x="515.356064" y="222.018977" transform="rotate(-0 515.356064 222.018977)">chicago_pd</text>
   </g>
   <g id="text_4">
    <text style="fill: #262626; font: 10px 'Arial', 'Liberation Sans', 'DejaVu Sans', 'Bitstream Vera Sans', sans-serif; text-anchor: middle" x="448.83058" y="221.440323" transform="rotate(-0 448.83058 221.440323)">0.3%</text>
   </g>
   <g id="text_5">
    <text style="fill: #262626; font: 10px 'Arial', 'Liberation Sans', 'DejaVu Sans', 'Bitstream Vera Sans', sans-serif; text-anchor: start" x="515.361599" y="220.758423" transform="rotate(-0 515.361599 220.758423)">chicago_police</text>
   </g>
   <g id="text_6">
    <text style="fill: #262626; font: 10px 'Arial', 'Liberation Sans', 'DejaVu Sans', 'Bitstream Vera Sans', sans-serif; text-anchor: middle" x="448.8336" y="220.752748" transform="rotate(-0 448.8336 220.752748)">0.0%</text>
   </g>
   <g id="text_7">
    <text style="fill: #262626; font: 12px 'Arial', 'Liberation Sans', 'DejaVu Sans', 'Bitstream Vera Sans', sans-serif; text-anchor: middle" x="369" y="45.84" transform="rotate(-0 369 45.84)">Incidents by Source</text>
   </g>
  </g>
 </g>
</svg>
