<?xml version="1.0" encoding="utf-8" standalone="no"?>
<!DOCTYPE svg PUBLIC "-//W3C//DTD SVG 1.1//EN"
  "http://www.w3.org/Graphics/SVG/1.1/DTD/svg11.dtd">
<svg xmlns:xlink="http://www.w3.org/1999/xlink" width="720pt" height="432pt" viewBox="0 0 720 432" xmlns="http://www.w3.org/2000/svg" version="1.1">
 <metadata>
  <rdf:RDF xmlns:dc="http://purl.org/dc/elements/1.1/" xmlns:cc="http://creativecommons.org/ns#" xmlns:rdf="http://www.w3.org/1999/02/22-rdf-syntax-ns#">
   <cc:Work>
    <dc:type rdf:resource="http://purl.org/dc/dcmitype/StillImage"/>
    <dc:date>2026-07-07T19:48:16.767654</dc:date>
    <dc:format>image/svg+xml</dc:format>
    <dc:creator>
     <cc:Agent>
      <dc:title>Matplotlib v3.7.5, https://matplotlib.org/</dc:title>
     </cc:Agent>
    </dc:creator>
   </cc:Work>
  </rdf:RDF>
 </metadata>
 <defs>
  <style type="text/css">*{stroke-linejoin: round; stroke-linecap: butt}</style>
 </defs>
 <g id="figure_1">
  <g id="patch_1">
   <path d="M 0 432 
L 720 432 
L 720 0 
L 0 0 
z
" style="fill: #ffffff"/>
  </g>
  <g id="axes_1">
   <g id="matplotlib.axis_1"/>
   <g id="matplotlib.axis_2"/>
   <g id="patch_2">
    <path d="M 502.056 218.16 
C 502.056 200.702507 498.620258 183.414469 491.945062 167.283573 
C 485.269866 151.152677 475.484805 136.492078 463.148911 124.139355 
C 450.813017 111.786632 436.165772 101.981593 420.043991 95.284412 
C 403.92221 88.587231 386.638872 85.127923 369.181395 85.104124 
C 351.723918 85.080324 334.431213 88.492494 318.291231 95.145692 
C 302.151249 101.798891 287.477325 111.563956 275.107795 123.882998 
C 262.738266 136.202041 252.913268 150.835905 246.194114 166.948541 
C 239.474961 183.061177 235.992094 200.339782 235.944495 217.79721 
C 235.896895 235.254638 239.285487 252.55198 245.916675 268.701016 
C 252.547864 284.850053 262.292915 299.537277 274.595083 311.92359 
C 286.89725 324.309902 301.517707 334.154842 317.621167 340.895955 
C 333.724628 347.637069 350.998469 351.143488 368.455816 351.214887 
C 385.913163 351.286286 403.215108 347.921279 419.37317 341.312113 
C 435.531232 334.702946 450.231728 324.977927 462.6348 312.692657 
C 475.037873 300.407387 484.902735 285.800366 491.665796 269.706111 
C 498.428857 253.611855 501.958823 236.34281 502.054022 218.885577 
L 369 218.16 
z
" style="fill: #f77189"/>
   </g>
   <g id="patch_3">
    <path d="M 502.054022 218.885577 
C 502.054675 218.765843 502.055166 218.646109 502.055496 218.526374 
C 502.055825 218.406639 502.055993 218.286904 502.056 218.167169 
L 369 218.16 
z
" style="fill: #bb9832"/>
   </g>
   <g id="patch_4">
    <path d="M 502.056 218.167169 
C 502.056 218.165972 502.056 218.164774 502.056 218.163577 
C 502.056 218.16238 502.056 218.161182 502.056 218.159985 
L 369 218.16 
z
" style="fill: #50b131"/>
   </g>
   <g id="text_1">
    <text style="fill: #262626; font: 10px 'Arial', 'Liberation Sans', 'DejaVu Sans', 'Bitstream Vera Sans', sans-serif; text-anchor: end" x="222.638944" y="220.346869" transform="rotate(-0 222.638944 220.346869)">newsapi</text>
   </g>
   <g id="text_2">
    <text style="fill: #262626; font: 10px 'Arial', 'Liberation Sans', 'DejaVu Sans', 'Bitstream Vera Sans', sans-serif; text-anchor: middle" x="289.166697" y="220.528264" transform="rotate(-0 289.166697 220.528264)">99.9%</text>
   </g>
   <g id="text_3">
    <text style="fill: #262626; font: 10px 'Arial', 'Liberation Sans', 'DejaVu Sans', 'Bitstream Vera Sans', sans-serif; text-anchor: start" x="515.361045" y="221.148949" transform="rotate(-0 515.361045 221.148949)">chicago_pd</text>
   </g>
   <g id="text_4">
    <text style="fill: #262626; font: 10px 'Arial', 'Liberation Sans', 'DejaVu Sans', 'Bitstream Vera Sans', sans-serif; text-anchor: middle" x="448.833297" y="220.965762" transform="rotate(-0 448.833297 220.965762)">0.1%</text>
   </g>
   <g id="text_5">
    <text style="fill: #262626; font: 10px 'Arial', 'Liberation Sans', 'DejaVu Sans', 'Bitstream Vera Sans', sans-serif; text-anchor: start" x="515.3616" y="220.749872" transform="rotate(-0 515.3616 220.749872)">chicago_police</text>
   </g>
   <g id="text_6">
    <text style="fill: #262626; font: 10px 'Arial', 'Liberation Sans', 'DejaVu Sans', 'Bitstream Vera Sans', sans-serif; text-anchor: middle" x="448.8336" y="220.748084" transform="rotate(-0 448.8336 220.748084)">0.0%</text>
   </g>
   <g id="text_7">
    <text style="fill: #262626; font: 12px 'Arial', 'Liberation Sans', 'DejaVu Sans', 'Bitstream Vera Sans', sans-serif; text-anchor: middle" x="369" y="45.84" transform="rotate(-0 369 45.84)">Incidents by Source</text>
   </g>
  </g>
 </g>
</svg>
