<?xml version="1.0" encoding="utf-8" standalone="no"?>
<!DOCTYPE svg PUBLIC "-//W3C//DTD SVG 1.1//EN"
  "http://www.w3.org/Graphics/SVG/1.1/DTD/svg11.dtd">
<svg xmlns:xlink="http://www.w3.org/1999/xlink" width="720pt" height="432pt" viewBox="0 0 720 432" xmlns="http://www.w3.org/2000/svg" version="1.1">
 <metadata>
  <rdf:RDF xmlns:dc="http://purl.org/dc/elements/1.1/" xmlns:cc="http://creativecommons.org/ns#" xmlns:rdf="http://www.w3.org/1999/02/22-rdf-syntax-ns#">
   <cc:Work>
    <dc:type rdf:resource="http://purl.org/dc/dcmitype/StillImage"/>
    <dc:date>2025-08-08T02:08:13.653836</dc:date>
    <dc:format>image/svg+xml</dc:format>
    <dc:creator>
     <cc:Agent>
      <dc:title>Matplotlib v3.7.5, https://matplotlib.org/</dc:title>
     </cc:Agent>
    </dc:creator>
   </cc:Work>
  </rdf:RDF>
 </metadata>
 <defs>
  <style type="text/css">*{stroke-linejoin: round; stroke-linecap: butt}</style>
 </defs>
 <g id="figure_1">
  <g id="patch_1">
   <path d="M 0 432 
L 720 432 
L 720 0 
L 0 0 
z
" style="fill: #ffffff"/>
  </g>
  <g id="axes_1">
   <g id="matplotlib.axis_1"/>
   <g id="matplotlib.axis_2"/>
   <g id="patch_2">
    <path d="M 502.056 218.16 
C 502.056 200.723049 498.628339 183.454955 491.96839 167.339982 
C 485.308441 151.225009 475.545192 136.575268 463.235139 124.22578 
C 450.925086 111.876292 436.306647 102.066237 420.213057 95.354781 
C 404.119468 88.643324 386.862425 85.160451 369.425563 85.104681 
C 351.988702 85.048911 334.709733 88.421324 318.573541 95.029697 
C 302.43735 101.638071 287.756457 111.354414 275.36766 123.624906 
C 262.978863 135.895397 253.122103 150.482386 246.359208 166.554427 
C 239.596312 182.626468 236.058262 199.872283 235.946722 217.308878 
C 235.835183 234.745472 239.152315 252.035139 245.709044 268.192383 
C 252.265774 284.349628 261.935113 299.061522 274.165918 311.489502 
C 286.396722 323.917482 300.952111 333.820845 317.002439 340.635111 
C 333.052768 347.449377 350.287179 351.042567 367.723327 351.209875 
C 385.159476 351.377183 402.459663 348.115367 418.637796 341.610348 
C 434.815929 335.105328 449.558675 325.483093 462.025709 313.2921 
C 474.492744 301.101108 484.442611 286.577468 491.308177 270.549017 
C 498.173742 254.520565 501.822037 237.297734 502.045111 219.86221 
L 369 218.16 
z
" style="fill: #f77189"/>
   </g>
   <g id="patch_3">
    <path d="M 502.045111 219.86221 
C 502.048705 219.581336 502.051409 219.300452 502.053224 219.019561 
C 502.055038 218.73867 502.055963 218.457774 502.055999 218.176877 
L 369 218.16 
z
" style="fill: #bb9832"/>
   </g>
   <g id="patch_4">
    <path d="M 502.055999 218.176877 
C 502.055999 218.174068 502.056 218.171259 502.056 218.16845 
C 502.056 218.165641 502.056 218.162832 502.056 218.160024 
L 369 218.16 
z
" style="fill: #50b131"/>
   </g>
   <g id="text_1">
    <text style="fill: #262626; font: 10px 'Arial', 'Liberation Sans', 'DejaVu Sans', 'Bitstream Vera Sans', sans-serif; text-anchor: end" x="222.641394" y="219.809703" transform="rotate(-0 222.641394 219.809703)">newsapi</text>
   </g>
   <g id="text_2">
    <text style="fill: #262626; font: 10px 'Arial', 'Liberation Sans', 'DejaVu Sans', 'Bitstream Vera Sans', sans-serif; text-anchor: middle" x="289.168033" y="220.235264" transform="rotate(-0 289.168033 220.235264)">99.8%</text>
   </g>
   <g id="text_3">
    <text style="fill: #262626; font: 10px 'Arial', 'Liberation Sans', 'DejaVu Sans', 'Bitstream Vera Sans', sans-serif; text-anchor: start" x="515.358546" y="221.691455" transform="rotate(-0 515.358546 221.691455)">chicago_pd</text>
   </g>
   <g id="text_4">
    <text style="fill: #262626; font: 10px 'Arial', 'Liberation Sans', 'DejaVu Sans', 'Bitstream Vera Sans', sans-serif; text-anchor: middle" x="448.831934" y="221.261674" transform="rotate(-0 448.831934 221.261674)">0.2%</text>
   </g>
   <g id="text_5">
    <text style="fill: #262626; font: 10px 'Arial', 'Liberation Sans', 'DejaVu Sans', 'Bitstream Vera Sans', sans-serif; text-anchor: start" x="515.3616" y="220.755233" transform="rotate(-0 515.3616 220.755233)">chicago_police</text>
   </g>
   <g id="text_6">
    <text style="fill: #262626; font: 10px 'Arial', 'Liberation Sans', 'DejaVu Sans', 'Bitstream Vera Sans', sans-serif; text-anchor: middle" x="448.8336" y="220.751008" transform="rotate(-0 448.8336 220.751008)">0.0%</text>
   </g>
   <g id="text_7">
    <text style="fill: #262626; font: 12px 'Arial', 'Liberation Sans', 'DejaVu Sans', 'Bitstream Vera Sans', sans-serif; text-anchor: middle" x="369" y="45.84" transform="rotate(-0 369 45.84)">Incidents by Source</text>
   </g>
  </g>
 </g>
</svg>
