<?xml version="1.0" encoding="utf-8" standalone="no"?>
<!DOCTYPE svg PUBLIC "-//W3C//DTD SVG 1.1//EN"
  "http://www.w3.org/Graphics/SVG/1.1/DTD/svg11.dtd">
<svg xmlns:xlink="http://www.w3.org/1999/xlink" width="720pt" height="432pt" viewBox="0 0 720 432" xmlns="http://www.w3.org/2000/svg" version="1.1">
 <metadata>
  <rdf:RDF xmlns:dc="http://purl.org/dc/elements/1.1/" xmlns:cc="http://creativecommons.org/ns#" xmlns:rdf="http://www.w3.org/1999/02/22-rdf-syntax-ns#">
   <cc:Work>
    <dc:type rdf:resource="http://purl.org/dc/dcmitype/StillImage"/>
    <dc:date>2025-07-12T06:20:19.624561</dc:date>
    <dc:format>image/svg+xml</dc:format>
    <dc:creator>
     <cc:Agent>
      <dc:title>Matplotlib v3.7.5, https://matplotlib.org/</dc:title>
     </cc:Agent>
    </dc:creator>
   </cc:Work>
  </rdf:RDF>
 </metadata>
 <defs>
  <style type="text/css">*{stroke-linejoin: round; stroke-linecap: butt}</style>
 </defs>
 <g id="figure_1">
  <g id="patch_1">
   <path d="M 0 432 
L 720 432 
L 720 0 
L 0 0 
z
" style="fill: #ffffff"/>
  </g>
  <g id="axes_1">
   <g id="matplotlib.axis_1"/>
   <g id="matplotlib.axis_2"/>
   <g id="patch_2">
    <path d="M 502.056 218.16 
C 502.056 200.727492 498.630085 183.463711 491.973432 167.352183 
C 485.316778 151.240656 475.558244 136.593266 463.253778 124.244482 
C 450.949312 111.895698 436.337101 102.084566 420.24961 95.37003 
C 404.162119 88.655495 386.910767 85.167534 369.478371 85.10486 
C 352.045975 85.042186 334.769989 88.40601 318.634633 95.004696 
C 302.499278 101.603381 287.816898 111.309191 275.423956 123.569181 
C 263.031014 135.82917 253.167411 150.406013 246.39508 166.46926 
C 239.622749 182.532506 236.072788 199.771207 235.94744 217.203264 
C 235.822092 234.635322 239.123783 251.923291 245.664415 268.082266 
C 252.205047 284.241241 261.858007 298.958421 274.073362 311.395361 
C 286.288716 323.8323 300.830003 333.748248 316.868797 340.578286 
C 332.907591 347.408325 350.133418 351.020241 367.564912 351.208261 
C 384.996406 351.396281 402.296134 348.156765 418.47852 341.674271 
C 434.660906 335.191777 449.412696 325.591791 461.893472 313.42123 
C 474.374249 301.250668 484.342412 286.745126 491.23007 270.730991 
C 498.117728 254.716857 501.791552 237.504127 502.042241 220.073422 
L 369 218.16 
z
" style="fill: #f77189"/>
   </g>
   <g id="patch_3">
    <path d="M 502.042241 220.073422 
C 502.046782 219.757693 502.050199 219.441949 502.052492 219.126196 
C 502.054785 218.810443 502.055954 218.494682 502.055999 218.178921 
L 369 218.16 
z
" style="fill: #bb9832"/>
   </g>
   <g id="patch_4">
    <path d="M 502.055999 218.178921 
C 502.055999 218.175763 502.055999 218.172606 502.056 218.169448 
C 502.056 218.16629 502.056 218.163133 502.056 218.159975 
L 369 218.16 
z
" style="fill: #50b131"/>
   </g>
   <g id="text_1">
    <text style="fill: #262626; font: 10px 'Arial', 'Liberation Sans', 'DejaVu Sans', 'Bitstream Vera Sans', sans-serif; text-anchor: end" x="222.642184" y="219.693528" transform="rotate(-0 222.642184 219.693528)">newsapi</text>
   </g>
   <g id="text_2">
    <text style="fill: #262626; font: 10px 'Arial', 'Liberation Sans', 'DejaVu Sans', 'Bitstream Vera Sans', sans-serif; text-anchor: middle" x="289.168464" y="220.171896" transform="rotate(-0 289.168464 220.171896)">99.8%</text>
   </g>
   <g id="text_3">
    <text style="fill: #262626; font: 10px 'Arial', 'Liberation Sans', 'DejaVu Sans', 'Bitstream Vera Sans', sans-serif; text-anchor: start" x="515.357741" y="221.808753" transform="rotate(-0 515.357741 221.808753)">chicago_pd</text>
   </g>
   <g id="text_4">
    <text style="fill: #262626; font: 10px 'Arial', 'Liberation Sans', 'DejaVu Sans', 'Bitstream Vera Sans', sans-serif; text-anchor: middle" x="448.831495" y="221.325655" transform="rotate(-0 448.831495 221.325655)">0.2%</text>
   </g>
   <g id="text_5">
    <text style="fill: #262626; font: 10px 'Arial', 'Liberation Sans', 'DejaVu Sans', 'Bitstream Vera Sans', sans-serif; text-anchor: start" x="515.3616" y="220.75633" transform="rotate(-0 515.3616 220.75633)">chicago_police</text>
   </g>
   <g id="text_6">
    <text style="fill: #262626; font: 10px 'Arial', 'Liberation Sans', 'DejaVu Sans', 'Bitstream Vera Sans', sans-serif; text-anchor: middle" x="448.8336" y="220.751606" transform="rotate(-0 448.8336 220.751606)">0.0%</text>
   </g>
   <g id="text_7">
    <text style="fill: #262626; font: 12px 'Arial', 'Liberation Sans', 'DejaVu Sans', 'Bitstream Vera Sans', sans-serif; text-anchor: middle" x="369" y="45.84" transform="rotate(-0 369 45.84)">Incidents by Source</text>
   </g>
  </g>
 </g>
</svg>
