<?xml version="1.0" encoding="utf-8" standalone="no"?>
<!DOCTYPE svg PUBLIC "-//W3C//DTD SVG 1.1//EN"
  "http://www.w3.org/Graphics/SVG/1.1/DTD/svg11.dtd">
<svg xmlns:xlink="http://www.w3.org/1999/xlink" width="720pt" height="432pt" viewBox="0 0 720 432" xmlns="http://www.w3.org/2000/svg" version="1.1">
 <metadata>
  <rdf:RDF xmlns:dc="http://purl.org/dc/elements/1.1/" xmlns:cc="http://creativecommons.org/ns#" xmlns:rdf="http://www.w3.org/1999/02/22-rdf-syntax-ns#">
   <cc:Work>
    <dc:type rdf:resource="http://purl.org/dc/dcmitype/StillImage"/>
    <dc:date>2025-01-30T18:16:35.278237</dc:date>
    <dc:format>image/svg+xml</dc:format>
    <dc:creator>
     <cc:Agent>
      <dc:title>Matplotlib v3.7.5, https://matplotlib.org/</dc:title>
     </cc:Agent>
    </dc:creator>
   </cc:Work>
  </rdf:RDF>
 </metadata>
 <defs>
  <style type="text/css">*{stroke-linejoin: round; stroke-linecap: butt}</style>
 </defs>
 <g id="figure_1">
  <g id="patch_1">
   <path d="M 0 432 
L 720 432 
L 720 0 
L 0 0 
z
" style="fill: #ffffff"/>
  </g>
  <g id="axes_1">
   <g id="matplotlib.axis_1"/>
   <g id="matplotlib.axis_2"/>
   <g id="patch_2">
    <path d="M 502.056 218.16 
C 502.056 200.833285 498.671541 183.672239 492.093142 167.642899 
C 485.514744 151.61356 475.868204 137.022455 463.696551 124.690955 
C 451.524897 112.359454 437.060888 102.523372 421.118738 95.736406 
C 405.176588 88.949441 388.061158 85.341378 370.735918 85.115324 
C 353.410677 84.889271 336.206936 88.04955 320.093136 94.418262 
C 303.979335 100.786973 289.263619 110.242329 276.77437 122.252063 
C 264.285121 134.261798 254.261172 148.596249 247.266794 164.448496 
C 240.272416 180.300743 236.441363 197.367644 235.989295 214.68846 
C 235.537227 232.009277 238.472788 249.252784 244.630729 265.448303 
C 250.78867 281.643821 260.051232 296.481645 271.897003 309.126516 
C 283.742774 321.771387 297.945227 331.981498 313.704873 339.182097 
C 329.464518 346.382696 346.479985 350.436087 363.793429 351.114093 
C 381.106874 351.792099 398.387212 349.081755 414.661692 343.135634 
C 430.936172 337.189512 445.893577 328.121321 458.691918 316.441529 
C 471.490259 304.761738 481.884794 290.6937 489.290388 275.029338 
C 496.695983 259.364976 500.971021 242.403841 501.874849 225.100716 
L 369 218.16 
z
" style="fill: #f77189"/>
   </g>
   <g id="patch_3">
    <path d="M 501.874849 225.100716 
C 501.934622 223.956405 501.979611 222.81137 502.009803 221.665898 
C 502.039996 220.520425 502.05539 219.37461 502.055982 218.228739 
L 369 218.16 
z
" style="fill: #bb9832"/>
   </g>
   <g id="patch_4">
    <path d="M 502.055982 218.228739 
C 502.055988 218.217281 502.055993 218.205822 502.055996 218.194364 
C 502.055999 218.182905 502.056 218.171447 502.056 218.159988 
L 369 218.16 
z
" style="fill: #50b131"/>
   </g>
   <g id="text_1">
    <text style="fill: #262626; font: 10px 'Arial', 'Liberation Sans', 'DejaVu Sans', 'Bitstream Vera Sans', sans-serif; text-anchor: end" x="222.688225" y="216.927244" transform="rotate(-0 222.688225 216.927244)">newsapi</text>
   </g>
   <g id="text_2">
    <text style="fill: #262626; font: 10px 'Arial', 'Liberation Sans', 'DejaVu Sans', 'Bitstream Vera Sans', sans-serif; text-anchor: middle" x="289.193577" y="218.663014" transform="rotate(-0 289.193577 218.663014)">99.2%</text>
   </g>
   <g id="text_3">
    <text style="fill: #262626; font: 10px 'Arial', 'Liberation Sans', 'DejaVu Sans', 'Bitstream Vera Sans', sans-serif; text-anchor: start" x="515.310784" y="224.602425" transform="rotate(-0 515.310784 224.602425)">chicago_pd</text>
   </g>
   <g id="text_4">
    <text style="fill: #262626; font: 10px 'Arial', 'Liberation Sans', 'DejaVu Sans', 'Bitstream Vera Sans', sans-serif; text-anchor: middle" x="448.805882" y="222.849476" transform="rotate(-0 448.805882 222.849476)">0.8%</text>
   </g>
   <g id="text_5">
    <text style="fill: #262626; font: 10px 'Arial', 'Liberation Sans', 'DejaVu Sans', 'Bitstream Vera Sans', sans-serif; text-anchor: start" x="515.361595" y="220.783738" transform="rotate(-0 515.361595 220.783738)">chicago_police</text>
   </g>
   <g id="text_6">
    <text style="fill: #262626; font: 10px 'Arial', 'Liberation Sans', 'DejaVu Sans', 'Bitstream Vera Sans', sans-serif; text-anchor: middle" x="448.833597" y="220.766556" transform="rotate(-0 448.833597 220.766556)">0.0%</text>
   </g>
   <g id="text_7">
    <text style="fill: #262626; font: 12px 'Arial', 'Liberation Sans', 'DejaVu Sans', 'Bitstream Vera Sans', sans-serif; text-anchor: middle" x="369" y="45.84" transform="rotate(-0 369 45.84)">Incidents by Source</text>
   </g>
  </g>
 </g>
</svg>
