<?xml version="1.0" encoding="utf-8" standalone="no"?>
<!DOCTYPE svg PUBLIC "-//W3C//DTD SVG 1.1//EN"
  "http://www.w3.org/Graphics/SVG/1.1/DTD/svg11.dtd">
<svg xmlns:xlink="http://www.w3.org/1999/xlink" width="720pt" height="432pt" viewBox="0 0 720 432" xmlns="http://www.w3.org/2000/svg" version="1.1">
 <metadata>
  <rdf:RDF xmlns:dc="http://purl.org/dc/elements/1.1/" xmlns:cc="http://creativecommons.org/ns#" xmlns:rdf="http://www.w3.org/1999/02/22-rdf-syntax-ns#">
   <cc:Work>
    <dc:type rdf:resource="http://purl.org/dc/dcmitype/StillImage"/>
    <dc:date>2025-01-10T01:00:43.383786</dc:date>
    <dc:format>image/svg+xml</dc:format>
    <dc:creator>
     <cc:Agent>
      <dc:title>Matplotlib v3.7.5, https://matplotlib.org/</dc:title>
     </cc:Agent>
    </dc:creator>
   </cc:Work>
  </rdf:RDF>
 </metadata>
 <defs>
  <style type="text/css">*{stroke-linejoin: round; stroke-linecap: butt}</style>
 </defs>
 <g id="figure_1">
  <g id="patch_1">
   <path d="M 0 432 
L 720 432 
L 720 0 
L 0 0 
z
" style="fill: #ffffff"/>
  </g>
  <g id="axes_1">
   <g id="matplotlib.axis_1"/>
   <g id="matplotlib.axis_2"/>
   <g id="patch_2">
    <path d="M 502.056 218.16 
C 502.056 200.917058 498.704189 183.83739 492.187458 167.873328 
C 485.670727 151.909267 476.11249 137.36314 464.045698 125.046014 
C 451.978907 112.728889 437.632081 102.874027 421.805176 96.030919 
C 405.978271 89.187811 388.971018 85.486051 371.73171 85.132045 
C 354.492403 84.778038 337.34752 87.778488 321.253031 93.966095 
C 305.158543 100.153701 290.419246 109.411284 277.856979 121.222655 
C 265.294712 133.034026 255.147379 147.175502 247.980779 162.858579 
C 240.814178 178.541655 236.764031 195.469325 236.056167 212.697731 
C 235.348303 229.926137 237.996127 247.129007 243.852001 263.347138 
C 249.707875 279.565269 258.660901 294.491522 270.211872 307.293635 
C 281.762844 320.095749 295.693009 330.531274 311.225646 338.018346 
C 326.758283 345.505418 343.599233 349.902245 360.809475 350.963669 
C 378.019717 352.025092 395.273322 349.73101 411.608259 344.209337 
C 427.943196 338.687664 443.050114 330.04297 456.086676 318.757267 
C 469.123238 307.471564 479.842558 293.758582 487.646945 278.382932 
C 495.451332 263.007283 500.192986 246.260152 501.607521 229.075329 
L 369 218.16 
z
" style="fill: #f77189"/>
   </g>
   <g id="patch_3">
    <path d="M 501.607521 229.075329 
C 501.755456 227.27811 501.866839 225.47807 501.941601 223.676324 
C 502.016363 221.874578 502.05449 220.071499 502.055956 218.268203 
L 369 218.16 
z
" style="fill: #bb9832"/>
   </g>
   <g id="patch_4">
    <path d="M 502.055956 218.268203 
C 502.055971 218.25017 502.055982 218.232138 502.055989 218.214106 
C 502.055996 218.196073 502.056 218.178041 502.056 218.160009 
L 369 218.16 
z
" style="fill: #50b131"/>
   </g>
   <g id="text_1">
    <text style="fill: #262626; font: 10px 'Arial', 'Liberation Sans', 'DejaVu Sans', 'Bitstream Vera Sans', sans-serif; text-anchor: end" x="222.761784" y="214.737442" transform="rotate(-0 222.761784 214.737442)">newsapi</text>
   </g>
   <g id="text_2">
    <text style="fill: #262626; font: 10px 'Arial', 'Liberation Sans', 'DejaVu Sans', 'Bitstream Vera Sans', sans-serif; text-anchor: middle" x="289.2337" y="217.468576" transform="rotate(-0 289.2337 217.468576)">98.7%</text>
   </g>
   <g id="text_3">
    <text style="fill: #262626; font: 10px 'Arial', 'Liberation Sans', 'DejaVu Sans', 'Bitstream Vera Sans', sans-serif; text-anchor: start" x="515.235761" y="226.813894" transform="rotate(-0 515.235761 226.813894)">chicago_pd</text>
   </g>
   <g id="text_4">
    <text style="fill: #262626; font: 10px 'Arial', 'Liberation Sans', 'DejaVu Sans', 'Bitstream Vera Sans', sans-serif; text-anchor: middle" x="448.764961" y="224.055732" transform="rotate(-0 448.764961 224.055732)">1.3%</text>
   </g>
   <g id="text_5">
    <text style="fill: #262626; font: 10px 'Arial', 'Liberation Sans', 'DejaVu Sans', 'Bitstream Vera Sans', sans-serif; text-anchor: start" x="515.361588" y="220.805454" transform="rotate(-0 515.361588 220.805454)">chicago_police</text>
   </g>
   <g id="text_6">
    <text style="fill: #262626; font: 10px 'Arial', 'Liberation Sans', 'DejaVu Sans', 'Bitstream Vera Sans', sans-serif; text-anchor: middle" x="448.833593" y="220.778401" transform="rotate(-0 448.833593 220.778401)">0.0%</text>
   </g>
   <g id="text_7">
    <text style="fill: #262626; font: 12px 'Arial', 'Liberation Sans', 'DejaVu Sans', 'Bitstream Vera Sans', sans-serif; text-anchor: middle" x="369" y="45.84" transform="rotate(-0 369 45.84)">Incidents by Source</text>
   </g>
  </g>
 </g>
</svg>
