<?xml version="1.0" encoding="utf-8" standalone="no"?>
<!DOCTYPE svg PUBLIC "-//W3C//DTD SVG 1.1//EN"
  "http://www.w3.org/Graphics/SVG/1.1/DTD/svg11.dtd">
<svg xmlns:xlink="http://www.w3.org/1999/xlink" width="720pt" height="432pt" viewBox="0 0 720 432" xmlns="http://www.w3.org/2000/svg" version="1.1">
 <metadata>
  <rdf:RDF xmlns:dc="http://purl.org/dc/elements/1.1/" xmlns:cc="http://creativecommons.org/ns#" xmlns:rdf="http://www.w3.org/1999/02/22-rdf-syntax-ns#">
   <cc:Work>
    <dc:type rdf:resource="http://purl.org/dc/dcmitype/StillImage"/>
    <dc:date>2025-03-14T06:18:08.651779</dc:date>
    <dc:format>image/svg+xml</dc:format>
    <dc:creator>
     <cc:Agent>
      <dc:title>Matplotlib v3.7.5, https://matplotlib.org/</dc:title>
     </cc:Agent>
    </dc:creator>
   </cc:Work>
  </rdf:RDF>
 </metadata>
 <defs>
  <style type="text/css">*{stroke-linejoin: round; stroke-linecap: butt}</style>
 </defs>
 <g id="figure_1">
  <g id="patch_1">
   <path d="M 0 432 
L 720 432 
L 720 0 
L 0 0 
z
" style="fill: #ffffff"/>
  </g>
  <g id="axes_1">
   <g id="matplotlib.axis_1"/>
   <g id="matplotlib.axis_2"/>
   <g id="patch_2">
    <path d="M 502.056 218.16 
C 502.056 200.776076 498.649155 183.559471 492.028491 167.485653 
C 485.407828 151.411835 475.700793 136.790222 463.457373 124.449255 
C 451.213953 112.108287 436.669832 102.285526 420.64906 95.537515 
C 404.628287 88.789505 387.439259 85.246142 370.055883 85.10819 
C 352.672506 84.970237 335.429408 88.240351 319.303557 94.73325 
C 303.177706 101.226149 288.479522 110.816847 276.041784 122.961948 
C 263.604046 135.107048 253.666177 149.572762 246.791244 165.53948 
C 239.916311 181.506199 236.236654 198.666567 235.960758 216.048301 
C 235.684862 233.430035 238.818038 250.698541 245.182764 266.87541 
C 251.54749 283.052278 261.021246 297.826107 273.067263 310.359833 
C 285.113281 322.893558 299.499675 332.945909 315.411334 339.947331 
C 331.322993 346.948754 348.45362 350.764473 365.832618 351.178295 
C 383.211615 351.592117 400.504441 348.596077 416.731308 342.359925 
C 432.958175 336.123773 447.80672 326.767554 460.435643 314.821379 
C 473.064567 302.875204 483.230766 288.569034 490.358237 272.713437 
C 497.485708 256.85784 501.437249 239.758033 501.988971 222.382866 
L 369 218.16 
z
" style="fill: #f77189"/>
   </g>
   <g id="patch_3">
    <path d="M 501.988971 222.382866 
C 502.011091 221.686255 502.027737 220.989481 502.038908 220.292609 
C 502.050079 219.595737 502.055774 218.898787 502.055993 218.201825 
L 369 218.16 
z
" style="fill: #bb9832"/>
   </g>
   <g id="patch_4">
    <path d="M 502.055993 218.201825 
C 502.055996 218.194856 502.055997 218.187886 502.055998 218.180916 
C 502.055999 218.173947 502.056 218.166977 502.056 218.160008 
L 369 218.16 
z
" style="fill: #50b131"/>
   </g>
   <g id="text_1">
    <text style="fill: #262626; font: 10px 'Arial', 'Liberation Sans', 'DejaVu Sans', 'Bitstream Vera Sans', sans-serif; text-anchor: end" x="222.656834" y="218.423069" transform="rotate(-0 222.656834 218.423069)">newsapi</text>
   </g>
   <g id="text_2">
    <text style="fill: #262626; font: 10px 'Arial', 'Liberation Sans', 'DejaVu Sans', 'Bitstream Vera Sans', sans-serif; text-anchor: middle" x="289.176455" y="219.478918" transform="rotate(-0 289.176455 219.478918)">99.5%</text>
   </g>
   <g id="text_3">
    <text style="fill: #262626; font: 10px 'Arial', 'Liberation Sans', 'DejaVu Sans', 'Bitstream Vera Sans', sans-serif; text-anchor: start" x="515.342799" y="223.091807" transform="rotate(-0 515.342799 223.091807)">chicago_pd</text>
   </g>
   <g id="text_4">
    <text style="fill: #262626; font: 10px 'Arial', 'Liberation Sans', 'DejaVu Sans', 'Bitstream Vera Sans', sans-serif; text-anchor: middle" x="448.823345" y="222.025503" transform="rotate(-0 448.823345 222.025503)">0.5%</text>
   </g>
   <g id="text_5">
    <text style="fill: #262626; font: 10px 'Arial', 'Liberation Sans', 'DejaVu Sans', 'Bitstream Vera Sans', sans-serif; text-anchor: start" x="515.361598" y="220.768946" transform="rotate(-0 515.361598 220.768946)">chicago_police</text>
   </g>
   <g id="text_6">
    <text style="fill: #262626; font: 10px 'Arial', 'Liberation Sans', 'DejaVu Sans', 'Bitstream Vera Sans', sans-serif; text-anchor: middle" x="448.833599" y="220.758487" transform="rotate(-0 448.833599 220.758487)">0.0%</text>
   </g>
   <g id="text_7">
    <text style="fill: #262626; font: 12px 'Arial', 'Liberation Sans', 'DejaVu Sans', 'Bitstream Vera Sans', sans-serif; text-anchor: middle" x="369" y="45.84" transform="rotate(-0 369 45.84)">Incidents by Source</text>
   </g>
  </g>
 </g>
</svg>
