<?xml version="1.0" encoding="utf-8" standalone="no"?>
<!DOCTYPE svg PUBLIC "-//W3C//DTD SVG 1.1//EN"
  "http://www.w3.org/Graphics/SVG/1.1/DTD/svg11.dtd">
<svg xmlns:xlink="http://www.w3.org/1999/xlink" width="720pt" height="432pt" viewBox="0 0 720 432" xmlns="http://www.w3.org/2000/svg" version="1.1">
 <metadata>
  <rdf:RDF xmlns:dc="http://purl.org/dc/elements/1.1/" xmlns:cc="http://creativecommons.org/ns#" xmlns:rdf="http://www.w3.org/1999/02/22-rdf-syntax-ns#">
   <cc:Work>
    <dc:type rdf:resource="http://purl.org/dc/dcmitype/StillImage"/>
    <dc:date>2026-02-07T01:26:29.071899</dc:date>
    <dc:format>image/svg+xml</dc:format>
    <dc:creator>
     <cc:Agent>
      <dc:title>Matplotlib v3.7.5, https://matplotlib.org/</dc:title>
     </cc:Agent>
    </dc:creator>
   </cc:Work>
  </rdf:RDF>
 </metadata>
 <defs>
  <style type="text/css">*{stroke-linejoin: round; stroke-linecap: butt}</style>
 </defs>
 <g id="figure_1">
  <g id="patch_1">
   <path d="M 0 432 
L 720 432 
L 720 0 
L 0 0 
z
" style="fill: #ffffff"/>
  </g>
  <g id="axes_1">
   <g id="matplotlib.axis_1"/>
   <g id="matplotlib.axis_2"/>
   <g id="patch_2">
    <path d="M 502.056 218.16 
C 502.056 200.707553 498.622244 183.424413 491.950794 167.297427 
C 485.279345 151.170441 475.499643 136.512507 463.170097 124.160575 
C 450.840551 111.808643 436.200382 102.002367 420.085524 95.301674 
C 403.970667 88.600981 386.693785 85.135878 369.241366 85.104219 
C 351.788947 85.07256 334.499607 88.474959 318.360545 95.117143 
C 302.221484 101.759326 287.545833 111.512423 275.171555 123.819541 
C 262.797278 136.12666 252.964461 150.749017 246.234546 166.851692 
C 239.504631 182.954368 236.008194 200.224936 235.944876 217.677269 
C 235.881558 235.129602 239.252588 252.425085 245.865484 268.576169 
C 252.478381 284.727254 262.204839 299.420572 274.48949 311.817155 
C 286.774142 324.213738 301.378637 334.073064 317.469078 340.832178 
C 333.559519 347.591292 350.823716 351.119053 368.275905 351.21403 
C 385.728095 351.309006 403.029665 347.969356 419.192718 341.385769 
C 435.355772 334.802182 450.06671 325.102394 462.485557 312.84025 
C 474.904404 300.578106 484.790207 285.99152 491.578498 269.913366 
C 498.36679 253.835213 501.925862 236.577444 502.052497 219.125456 
L 369 218.16 
z
" style="fill: #f77189"/>
   </g>
   <g id="patch_3">
    <path d="M 502.052497 219.125456 
C 502.053653 218.966144 502.054523 218.806831 502.055107 218.647516 
C 502.055691 218.488201 502.055988 218.328886 502.056 218.16957 
L 369 218.16 
z
" style="fill: #bb9832"/>
   </g>
   <g id="patch_4">
    <path d="M 502.056 218.16957 
C 502.056 218.167977 502.056 218.166384 502.056 218.16479 
C 502.056 218.163197 502.056 218.161604 502.056 218.160011 
L 369 218.16 
z
" style="fill: #50b131"/>
   </g>
   <g id="text_1">
    <text style="fill: #262626; font: 10px 'Arial', 'Liberation Sans', 'DejaVu Sans', 'Bitstream Vera Sans', sans-serif; text-anchor: end" x="222.639363" y="220.214933" transform="rotate(-0 222.639363 220.214933)">newsapi</text>
   </g>
   <g id="text_2">
    <text style="fill: #262626; font: 10px 'Arial', 'Liberation Sans', 'DejaVu Sans', 'Bitstream Vera Sans', sans-serif; text-anchor: middle" x="289.166925" y="220.456299" transform="rotate(-0 289.166925 220.456299)">99.9%</text>
   </g>
   <g id="text_3">
    <text style="fill: #262626; font: 10px 'Arial', 'Liberation Sans', 'DejaVu Sans', 'Bitstream Vera Sans', sans-serif; text-anchor: start" x="515.360618" y="221.282205" transform="rotate(-0 515.360618 221.282205)">chicago_pd</text>
   </g>
   <g id="text_4">
    <text style="fill: #262626; font: 10px 'Arial', 'Liberation Sans', 'DejaVu Sans', 'Bitstream Vera Sans', sans-serif; text-anchor: middle" x="448.833064" y="221.038447" transform="rotate(-0 448.833064 221.038447)">0.1%</text>
   </g>
   <g id="text_5">
    <text style="fill: #262626; font: 10px 'Arial', 'Liberation Sans', 'DejaVu Sans', 'Bitstream Vera Sans', sans-serif; text-anchor: start" x="515.3616" y="220.751207" transform="rotate(-0 515.3616 220.751207)">chicago_police</text>
   </g>
   <g id="text_6">
    <text style="fill: #262626; font: 10px 'Arial', 'Liberation Sans', 'DejaVu Sans', 'Bitstream Vera Sans', sans-serif; text-anchor: middle" x="448.8336" y="220.748812" transform="rotate(-0 448.8336 220.748812)">0.0%</text>
   </g>
   <g id="text_7">
    <text style="fill: #262626; font: 12px 'Arial', 'Liberation Sans', 'DejaVu Sans', 'Bitstream Vera Sans', sans-serif; text-anchor: middle" x="369" y="45.84" transform="rotate(-0 369 45.84)">Incidents by Source</text>
   </g>
  </g>
 </g>
</svg>
