<?xml version="1.0" encoding="utf-8" standalone="no"?>
<!DOCTYPE svg PUBLIC "-//W3C//DTD SVG 1.1//EN"
  "http://www.w3.org/Graphics/SVG/1.1/DTD/svg11.dtd">
<svg xmlns:xlink="http://www.w3.org/1999/xlink" width="720pt" height="432pt" viewBox="0 0 720 432" xmlns="http://www.w3.org/2000/svg" version="1.1">
 <metadata>
  <rdf:RDF xmlns:dc="http://purl.org/dc/elements/1.1/" xmlns:cc="http://creativecommons.org/ns#" xmlns:rdf="http://www.w3.org/1999/02/22-rdf-syntax-ns#">
   <cc:Work>
    <dc:type rdf:resource="http://purl.org/dc/dcmitype/StillImage"/>
    <dc:date>2026-05-04T08:23:52.890670</dc:date>
    <dc:format>image/svg+xml</dc:format>
    <dc:creator>
     <cc:Agent>
      <dc:title>Matplotlib v3.7.5, https://matplotlib.org/</dc:title>
     </cc:Agent>
    </dc:creator>
   </cc:Work>
  </rdf:RDF>
 </metadata>
 <defs>
  <style type="text/css">*{stroke-linejoin: round; stroke-linecap: butt}</style>
 </defs>
 <g id="figure_1">
  <g id="patch_1">
   <path d="M 0 432 
L 720 432 
L 720 0 
L 0 0 
z
" style="fill: #ffffff"/>
  </g>
  <g id="axes_1">
   <g id="matplotlib.axis_1"/>
   <g id="matplotlib.axis_2"/>
   <g id="patch_2">
    <path d="M 502.056 218.16 
C 502.056 200.704522 498.621051 183.418439 491.947351 167.289104 
C 485.273651 151.159769 475.490729 136.500234 463.15737 124.147826 
C 450.824011 111.795419 436.179591 101.989886 420.060574 95.291302 
C 403.941557 88.592718 386.660796 85.131097 369.205339 85.104158 
C 351.749881 85.07722 334.458518 88.485489 318.318903 95.134289 
C 302.179288 101.78309 287.504673 111.543376 275.133247 123.857658 
C 262.76182 136.17194 252.933699 150.80121 246.210248 166.90987 
C 239.486796 183.01853 235.99851 200.293928 235.944634 217.749323 
C 235.890758 235.204719 239.272337 252.50132 245.896222 268.651177 
C 252.520107 284.801034 262.257735 299.490694 274.55291 311.88111 
C 286.848085 324.271525 301.462171 334.122212 317.560436 340.870515 
C 333.658701 347.618818 350.928695 351.13376 368.383986 351.214574 
C 385.839278 351.295388 403.141077 347.940506 419.301137 341.341552 
C 435.461197 334.742598 450.165867 325.027651 462.575243 312.751612 
C 474.984618 300.475573 484.857846 285.876707 491.630984 269.788876 
C 498.404123 253.701044 501.945713 236.436495 502.053465 218.981349 
L 369 218.16 
z
" style="fill: #f77189"/>
   </g>
   <g id="patch_3">
    <path d="M 502.053465 218.981349 
C 502.054302 218.845815 502.054931 218.71028 502.055354 218.574743 
C 502.055776 218.439207 502.055991 218.303671 502.056 218.168134 
L 369 218.16 
z
" style="fill: #bb9832"/>
   </g>
   <g id="patch_4">
    <path d="M 502.056 218.168134 
C 502.056 218.166778 502.056 218.165423 502.056 218.164068 
C 502.056 218.162712 502.056 218.161357 502.056 218.160001 
L 369 218.16 
z
" style="fill: #50b131"/>
   </g>
   <g id="text_1">
    <text style="fill: #262626; font: 10px 'Arial', 'Liberation Sans', 'DejaVu Sans', 'Bitstream Vera Sans', sans-serif; text-anchor: end" x="222.639097" y="220.294193" transform="rotate(-0 222.639097 220.294193)">newsapi</text>
   </g>
   <g id="text_2">
    <text style="fill: #262626; font: 10px 'Arial', 'Liberation Sans', 'DejaVu Sans', 'Bitstream Vera Sans', sans-serif; text-anchor: middle" x="289.16678" y="220.499532" transform="rotate(-0 289.16678 220.499532)">99.9%</text>
   </g>
   <g id="text_3">
    <text style="fill: #262626; font: 10px 'Arial', 'Liberation Sans', 'DejaVu Sans', 'Bitstream Vera Sans', sans-serif; text-anchor: start" x="515.360889" y="221.202155" transform="rotate(-0 515.360889 221.202155)">chicago_pd</text>
   </g>
   <g id="text_4">
    <text style="fill: #262626; font: 10px 'Arial', 'Liberation Sans', 'DejaVu Sans', 'Bitstream Vera Sans', sans-serif; text-anchor: middle" x="448.833212" y="220.994784" transform="rotate(-0 448.833212 220.994784)">0.1%</text>
   </g>
   <g id="text_5">
    <text style="fill: #262626; font: 10px 'Arial', 'Liberation Sans', 'DejaVu Sans', 'Bitstream Vera Sans', sans-serif; text-anchor: start" x="515.3616" y="220.750412" transform="rotate(-0 515.3616 220.750412)">chicago_police</text>
   </g>
   <g id="text_6">
    <text style="fill: #262626; font: 10px 'Arial', 'Liberation Sans', 'DejaVu Sans', 'Bitstream Vera Sans', sans-serif; text-anchor: middle" x="448.8336" y="220.748378" transform="rotate(-0 448.8336 220.748378)">0.0%</text>
   </g>
   <g id="text_7">
    <text style="fill: #262626; font: 12px 'Arial', 'Liberation Sans', 'DejaVu Sans', 'Bitstream Vera Sans', sans-serif; text-anchor: middle" x="369" y="45.84" transform="rotate(-0 369 45.84)">Incidents by Source</text>
   </g>
  </g>
 </g>
</svg>
