<?xml version="1.0" encoding="utf-8" standalone="no"?>
<!DOCTYPE svg PUBLIC "-//W3C//DTD SVG 1.1//EN"
  "http://www.w3.org/Graphics/SVG/1.1/DTD/svg11.dtd">
<svg xmlns:xlink="http://www.w3.org/1999/xlink" width="720pt" height="432pt" viewBox="0 0 720 432" xmlns="http://www.w3.org/2000/svg" version="1.1">
 <metadata>
  <rdf:RDF xmlns:dc="http://purl.org/dc/elements/1.1/" xmlns:cc="http://creativecommons.org/ns#" xmlns:rdf="http://www.w3.org/1999/02/22-rdf-syntax-ns#">
   <cc:Work>
    <dc:type rdf:resource="http://purl.org/dc/dcmitype/StillImage"/>
    <dc:date>2026-02-22T13:01:05.493528</dc:date>
    <dc:format>image/svg+xml</dc:format>
    <dc:creator>
     <cc:Agent>
      <dc:title>Matplotlib v3.7.5, https://matplotlib.org/</dc:title>
     </cc:Agent>
    </dc:creator>
   </cc:Work>
  </rdf:RDF>
 </metadata>
 <defs>
  <style type="text/css">*{stroke-linejoin: round; stroke-linecap: butt}</style>
 </defs>
 <g id="figure_1">
  <g id="patch_1">
   <path d="M 0 432 
L 720 432 
L 720 0 
L 0 0 
z
" style="fill: #ffffff"/>
  </g>
  <g id="axes_1">
   <g id="matplotlib.axis_1"/>
   <g id="matplotlib.axis_2"/>
   <g id="patch_2">
    <path d="M 502.056 218.16 
C 502.056 200.706831 498.62196 183.422992 491.949975 167.295447 
C 485.27799 151.167902 475.497522 136.509587 463.167069 124.157542 
C 450.836616 111.805496 436.195436 101.999397 420.079589 95.299206 
C 403.963742 88.599014 386.685937 85.13474 369.232795 85.104204 
C 351.779653 85.073668 334.489832 88.477463 318.350638 95.12122 
C 302.211444 101.764978 287.53604 111.519785 275.16244 123.828608 
C 262.788841 136.137431 252.95714 150.761432 246.228763 166.865532 
C 239.500385 182.969631 236.005887 200.241349 235.944815 217.694411 
C 235.883742 235.147472 239.257282 252.443222 245.872792 268.594015 
C 252.488303 284.744808 262.217419 299.437257 274.504574 311.832374 
C 286.791729 324.22749 301.398506 334.084761 317.490809 340.841304 
C 333.583112 347.597847 350.848689 351.122559 368.301618 351.214167 
C 385.754546 351.305775 403.056172 347.962501 419.218515 341.375259 
C 435.380857 334.788016 450.090306 325.084621 462.506901 312.819171 
C 474.923496 300.553721 484.806308 285.964212 491.590996 269.883755 
C 498.375684 253.803298 501.930598 236.543914 502.052742 219.091173 
L 369 218.16 
z
" style="fill: #f77189"/>
   </g>
   <g id="patch_3">
    <path d="M 502.052742 219.091173 
C 502.053817 218.937513 502.054626 218.783852 502.055169 218.630189 
C 502.055712 218.476527 502.055989 218.322863 502.056 218.1692 
L 369 218.16 
z
" style="fill: #bb9832"/>
   </g>
   <g id="patch_4">
    <path d="M 502.056 218.1692 
C 502.056 218.167663 502.056 218.166127 502.056 218.16459 
C 502.056 218.163053 502.056 218.161517 502.056 218.15998 
L 369 218.16 
z
" style="fill: #50b131"/>
   </g>
   <g id="text_1">
    <text style="fill: #262626; font: 10px 'Arial', 'Liberation Sans', 'DejaVu Sans', 'Bitstream Vera Sans', sans-serif; text-anchor: end" x="222.639296" y="220.233789" transform="rotate(-0 222.639296 220.233789)">newsapi</text>
   </g>
   <g id="text_2">
    <text style="fill: #262626; font: 10px 'Arial', 'Liberation Sans', 'DejaVu Sans', 'Bitstream Vera Sans', sans-serif; text-anchor: middle" x="289.166889" y="220.466584" transform="rotate(-0 289.166889 220.466584)">99.9%</text>
   </g>
   <g id="text_3">
    <text style="fill: #262626; font: 10px 'Arial', 'Liberation Sans', 'DejaVu Sans', 'Bitstream Vera Sans', sans-serif; text-anchor: start" x="515.360686" y="221.263146" transform="rotate(-0 515.360686 221.263146)">chicago_pd</text>
   </g>
   <g id="text_4">
    <text style="fill: #262626; font: 10px 'Arial', 'Liberation Sans', 'DejaVu Sans', 'Bitstream Vera Sans', sans-serif; text-anchor: middle" x="448.833102" y="221.028051" transform="rotate(-0 448.833102 221.028051)">0.1%</text>
   </g>
   <g id="text_5">
    <text style="fill: #262626; font: 10px 'Arial', 'Liberation Sans', 'DejaVu Sans', 'Bitstream Vera Sans', sans-serif; text-anchor: start" x="515.3616" y="220.750986" transform="rotate(-0 515.3616 220.750986)">chicago_police</text>
   </g>
   <g id="text_6">
    <text style="fill: #262626; font: 10px 'Arial', 'Liberation Sans', 'DejaVu Sans', 'Bitstream Vera Sans', sans-serif; text-anchor: middle" x="448.8336" y="220.748691" transform="rotate(-0 448.8336 220.748691)">0.0%</text>
   </g>
   <g id="text_7">
    <text style="fill: #262626; font: 12px 'Arial', 'Liberation Sans', 'DejaVu Sans', 'Bitstream Vera Sans', sans-serif; text-anchor: middle" x="369" y="45.84" transform="rotate(-0 369 45.84)">Incidents by Source</text>
   </g>
  </g>
 </g>
</svg>
