<?xml version="1.0" encoding="utf-8" standalone="no"?>
<!DOCTYPE svg PUBLIC "-//W3C//DTD SVG 1.1//EN"
  "http://www.w3.org/Graphics/SVG/1.1/DTD/svg11.dtd">
<svg xmlns:xlink="http://www.w3.org/1999/xlink" width="720pt" height="432pt" viewBox="0 0 720 432" xmlns="http://www.w3.org/2000/svg" version="1.1">
 <metadata>
  <rdf:RDF xmlns:dc="http://purl.org/dc/elements/1.1/" xmlns:cc="http://creativecommons.org/ns#" xmlns:rdf="http://www.w3.org/1999/02/22-rdf-syntax-ns#">
   <cc:Work>
    <dc:type rdf:resource="http://purl.org/dc/dcmitype/StillImage"/>
    <dc:date>2025-01-10T06:17:58.432271</dc:date>
    <dc:format>image/svg+xml</dc:format>
    <dc:creator>
     <cc:Agent>
      <dc:title>Matplotlib v3.7.5, https://matplotlib.org/</dc:title>
     </cc:Agent>
    </dc:creator>
   </cc:Work>
  </rdf:RDF>
 </metadata>
 <defs>
  <style type="text/css">*{stroke-linejoin: round; stroke-linecap: butt}</style>
 </defs>
 <g id="figure_1">
  <g id="patch_1">
   <path d="M 0 432 
L 720 432 
L 720 0 
L 0 0 
z
" style="fill: #ffffff"/>
  </g>
  <g id="axes_1">
   <g id="matplotlib.axis_1"/>
   <g id="matplotlib.axis_2"/>
   <g id="patch_2">
    <path d="M 502.056 218.16 
C 502.056 200.915904 498.70374 183.835116 492.186162 167.870154 
C 485.668584 151.905192 476.109133 137.358443 464.040899 125.041116 
C 451.972665 112.723788 437.624227 102.869179 421.795734 96.026837 
C 405.967241 89.184494 388.958495 85.484017 371.717997 85.131764 
C 354.4775 84.779511 337.331797 87.782153 321.237029 93.972248 
C 305.142261 100.162343 290.403272 109.422645 277.841991 121.236749 
C 265.28071 133.050853 255.135055 147.194993 247.970805 162.880411 
C 240.806554 178.565829 236.759403 195.495435 236.055044 212.72514 
C 235.350684 229.954844 238.002457 247.158306 243.862485 263.376163 
C 249.722512 279.594021 258.679802 294.519099 270.234846 307.319091 
C 281.78989 320.119083 295.723828 330.55155 311.259625 338.034719 
C 326.795423 345.517888 343.638824 349.910024 360.850545 350.966195 
C 378.062265 352.022367 395.316306 349.722571 411.650486 344.195056 
C 427.984665 338.66754 443.089603 330.017001 456.122965 318.72584 
C 469.156326 307.434679 479.871251 293.716757 487.670216 278.337063 
C 495.469181 262.95737 500.204468 246.207204 501.612011 229.020649 
L 369 218.16 
z
" style="fill: #f77189"/>
   </g>
   <g id="patch_3">
    <path d="M 501.612011 229.020649 
C 501.758465 227.232397 501.868733 225.441364 501.942746 223.648652 
C 502.01676 221.855939 502.054504 220.061913 502.055956 218.267673 
L 369 218.16 
z
" style="fill: #bb9832"/>
   </g>
   <g id="patch_4">
    <path d="M 502.055956 218.267673 
C 502.055971 218.249732 502.055982 218.23179 502.055989 218.213848 
C 502.055996 218.195906 502.056 218.177964 502.056 218.160023 
L 369 218.16 
z
" style="fill: #50b131"/>
   </g>
   <g id="text_1">
    <text style="fill: #262626; font: 10px 'Arial', 'Liberation Sans', 'DejaVu Sans', 'Bitstream Vera Sans', sans-serif; text-anchor: end" x="222.760548" y="214.767591" transform="rotate(-0 222.760548 214.767591)">newsapi</text>
   </g>
   <g id="text_2">
    <text style="fill: #262626; font: 10px 'Arial', 'Liberation Sans', 'DejaVu Sans', 'Bitstream Vera Sans', sans-serif; text-anchor: middle" x="289.233026" y="217.485021" transform="rotate(-0 289.233026 217.485021)">98.7%</text>
   </g>
   <g id="text_3">
    <text style="fill: #262626; font: 10px 'Arial', 'Liberation Sans', 'DejaVu Sans', 'Bitstream Vera Sans', sans-serif; text-anchor: start" x="515.237021" y="226.783454" transform="rotate(-0 515.237021 226.783454)">chicago_pd</text>
   </g>
   <g id="text_4">
    <text style="fill: #262626; font: 10px 'Arial', 'Liberation Sans', 'DejaVu Sans', 'Bitstream Vera Sans', sans-serif; text-anchor: middle" x="448.765648" y="224.039129" transform="rotate(-0 448.765648 224.039129)">1.3%</text>
   </g>
   <g id="text_5">
    <text style="fill: #262626; font: 10px 'Arial', 'Liberation Sans', 'DejaVu Sans', 'Bitstream Vera Sans', sans-serif; text-anchor: start" x="515.361588" y="220.80517" transform="rotate(-0 515.361588 220.80517)">chicago_police</text>
   </g>
   <g id="text_6">
    <text style="fill: #262626; font: 10px 'Arial', 'Liberation Sans', 'DejaVu Sans', 'Bitstream Vera Sans', sans-serif; text-anchor: middle" x="448.833593" y="220.778246" transform="rotate(-0 448.833593 220.778246)">0.0%</text>
   </g>
   <g id="text_7">
    <text style="fill: #262626; font: 12px 'Arial', 'Liberation Sans', 'DejaVu Sans', 'Bitstream Vera Sans', sans-serif; text-anchor: middle" x="369" y="45.84" transform="rotate(-0 369 45.84)">Incidents by Source</text>
   </g>
  </g>
 </g>
</svg>
