<?xml version="1.0" encoding="utf-8" standalone="no"?>
<!DOCTYPE svg PUBLIC "-//W3C//DTD SVG 1.1//EN"
  "http://www.w3.org/Graphics/SVG/1.1/DTD/svg11.dtd">
<svg xmlns:xlink="http://www.w3.org/1999/xlink" width="720pt" height="432pt" viewBox="0 0 720 432" xmlns="http://www.w3.org/2000/svg" version="1.1">
 <metadata>
  <rdf:RDF xmlns:dc="http://purl.org/dc/elements/1.1/" xmlns:cc="http://creativecommons.org/ns#" xmlns:rdf="http://www.w3.org/1999/02/22-rdf-syntax-ns#">
   <cc:Work>
    <dc:type rdf:resource="http://purl.org/dc/dcmitype/StillImage"/>
    <dc:date>2025-01-16T18:16:12.756324</dc:date>
    <dc:format>image/svg+xml</dc:format>
    <dc:creator>
     <cc:Agent>
      <dc:title>Matplotlib v3.7.5, https://matplotlib.org/</dc:title>
     </cc:Agent>
    </dc:creator>
   </cc:Work>
  </rdf:RDF>
 </metadata>
 <defs>
  <style type="text/css">*{stroke-linejoin: round; stroke-linecap: butt}</style>
 </defs>
 <g id="figure_1">
  <g id="patch_1">
   <path d="M 0 432 
L 720 432 
L 720 0 
L 0 0 
z
" style="fill: #ffffff"/>
  </g>
  <g id="axes_1">
   <g id="matplotlib.axis_1"/>
   <g id="matplotlib.axis_2"/>
   <g id="patch_2">
    <path d="M 502.056 218.16 
C 502.056 200.882366 498.690688 183.768995 492.148451 167.77788 
C 485.606215 151.786764 476.011451 137.221967 463.901267 124.898815 
C 451.791083 112.575663 437.395749 102.728474 421.521103 95.908485 
C 405.646456 89.088497 388.594347 85.425388 371.319338 85.124216 
C 354.04433 84.823045 336.874897 87.889537 320.772172 94.152034 
C 304.669446 100.414531 289.939613 109.753953 277.407237 121.647488 
C 264.874861 133.541024 254.778238 147.762522 247.68257 163.515875 
C 240.586902 179.269228 236.62711 196.254893 236.024858 213.522028 
C 235.422607 230.789162 238.189348 248.009439 244.170202 264.218881 
C 250.151055 280.428324 259.232299 295.318717 270.905572 308.056509 
C 282.578844 320.7943 296.622184 331.137288 312.249457 338.506479 
C 327.87673 345.87567 344.790791 350.130944 362.044803 351.034092 
C 379.298816 351.937241 396.564705 349.471092 412.875938 343.773698 
C 429.187172 338.076305 444.2336 329.256 457.172937 317.806537 
C 470.112274 306.357074 480.698483 292.496159 488.338959 276.999715 
C 495.979434 261.503271 500.528894 244.665956 501.732666 227.430307 
L 369 218.16 
z
" style="fill: #f77189"/>
   </g>
   <g id="patch_3">
    <path d="M 501.732666 227.430307 
C 501.839336 225.902994 501.919637 224.373954 501.973533 222.843869 
C 502.027429 221.313784 502.054911 219.782883 502.055968 218.25185 
L 369 218.16 
z
" style="fill: #bb9832"/>
   </g>
   <g id="patch_4">
    <path d="M 502.055968 218.25185 
C 502.055979 218.23654 502.055987 218.22123 502.055992 218.20592 
C 502.055997 218.19061 502.056 218.1753 502.056 218.15999 
L 369 218.16 
z
" style="fill: #50b131"/>
   </g>
   <g id="text_1">
    <text style="fill: #262626; font: 10px 'Arial', 'Liberation Sans', 'DejaVu Sans', 'Bitstream Vera Sans', sans-serif; text-anchor: end" x="222.727344" y="215.644168" transform="rotate(-0 222.727344 215.644168)">newsapi</text>
   </g>
   <g id="text_2">
    <text style="fill: #262626; font: 10px 'Arial', 'Liberation Sans', 'DejaVu Sans', 'Bitstream Vera Sans', sans-serif; text-anchor: middle" x="289.214915" y="217.963154" transform="rotate(-0 289.214915 217.963154)">98.9%</text>
   </g>
   <g id="text_3">
    <text style="fill: #262626; font: 10px 'Arial', 'Liberation Sans', 'DejaVu Sans', 'Bitstream Vera Sans', sans-serif; text-anchor: start" x="515.270886" y="225.898193" transform="rotate(-0 515.270886 225.898193)">chicago_pd</text>
   </g>
   <g id="text_4">
    <text style="fill: #262626; font: 10px 'Arial', 'Liberation Sans', 'DejaVu Sans', 'Bitstream Vera Sans', sans-serif; text-anchor: middle" x="448.78412" y="223.556259" transform="rotate(-0 448.78412 223.556259)">1.1%</text>
   </g>
   <g id="text_5">
    <text style="fill: #262626; font: 10px 'Arial', 'Liberation Sans', 'DejaVu Sans', 'Bitstream Vera Sans', sans-serif; text-anchor: start" x="515.361591" y="220.79645" transform="rotate(-0 515.361591 220.79645)">chicago_police</text>
   </g>
   <g id="text_6">
    <text style="fill: #262626; font: 10px 'Arial', 'Liberation Sans', 'DejaVu Sans', 'Bitstream Vera Sans', sans-serif; text-anchor: middle" x="448.833595" y="220.77349" transform="rotate(-0 448.833595 220.77349)">0.0%</text>
   </g>
   <g id="text_7">
    <text style="fill: #262626; font: 12px 'Arial', 'Liberation Sans', 'DejaVu Sans', 'Bitstream Vera Sans', sans-serif; text-anchor: middle" x="369" y="45.84" transform="rotate(-0 369 45.84)">Incidents by Source</text>
   </g>
  </g>
 </g>
</svg>
