<?xml version="1.0" encoding="utf-8" standalone="no"?>
<!DOCTYPE svg PUBLIC "-//W3C//DTD SVG 1.1//EN"
  "http://www.w3.org/Graphics/SVG/1.1/DTD/svg11.dtd">
<svg xmlns:xlink="http://www.w3.org/1999/xlink" width="720pt" height="432pt" viewBox="0 0 720 432" xmlns="http://www.w3.org/2000/svg" version="1.1">
 <metadata>
  <rdf:RDF xmlns:dc="http://purl.org/dc/elements/1.1/" xmlns:cc="http://creativecommons.org/ns#" xmlns:rdf="http://www.w3.org/1999/02/22-rdf-syntax-ns#">
   <cc:Work>
    <dc:type rdf:resource="http://purl.org/dc/dcmitype/StillImage"/>
    <dc:date>2025-08-31T06:19:13.672493</dc:date>
    <dc:format>image/svg+xml</dc:format>
    <dc:creator>
     <cc:Agent>
      <dc:title>Matplotlib v3.7.5, https://matplotlib.org/</dc:title>
     </cc:Agent>
    </dc:creator>
   </cc:Work>
  </rdf:RDF>
 </metadata>
 <defs>
  <style type="text/css">*{stroke-linejoin: round; stroke-linecap: butt}</style>
 </defs>
 <g id="figure_1">
  <g id="patch_1">
   <path d="M 0 432 
L 720 432 
L 720 0 
L 0 0 
z
" style="fill: #ffffff"/>
  </g>
  <g id="axes_1">
   <g id="matplotlib.axis_1"/>
   <g id="matplotlib.axis_2"/>
   <g id="patch_2">
    <path d="M 502.056 218.16 
C 502.056 200.71961 498.626987 183.448177 491.964487 167.330538 
C 485.301987 151.2129 475.535088 136.561339 463.22071 124.211307 
C 450.906333 111.861275 436.283072 102.052056 420.184763 95.342985 
C 404.086454 88.633913 386.825007 85.15498 369.38469 85.104556 
C 351.944373 85.054133 334.663099 88.433197 318.526265 95.04907 
C 302.389431 101.664943 287.709694 111.38944 275.32411 123.66806 
C 262.938526 135.94668 253.08707 150.541519 246.331483 166.620364 
C 239.575896 182.699208 236.047071 199.950525 235.946224 217.390623 
C 235.845378 234.830721 239.174464 252.121693 245.743655 268.277587 
C 252.312846 284.433482 261.994861 299.141273 274.23762 311.562305 
C 286.480379 323.983337 301.046676 333.876948 317.105921 340.678993 
C 333.165167 347.481039 350.406209 351.059726 367.845942 351.210995 
C 385.285676 351.362264 402.586201 348.083183 418.76102 341.560729 
C 434.93584 335.038276 449.671562 325.398824 462.127938 313.192028 
C 474.584314 300.985231 484.519998 286.4476 491.368446 270.408088 
C 498.216893 254.368575 501.845413 237.137952 502.047102 219.698729 
L 369 218.16 
z
" style="fill: #f77189"/>
   </g>
   <g id="patch_3">
    <path d="M 502.047102 219.698729 
C 502.050039 219.444826 502.052248 219.190915 502.053731 218.936999 
C 502.055214 218.683084 502.05597 218.429164 502.055999 218.175245 
L 369 218.16 
z
" style="fill: #bb9832"/>
   </g>
   <g id="patch_4">
    <path d="M 502.055999 218.175245 
C 502.055999 218.172705 502.056 218.170166 502.056 218.167627 
C 502.056 218.165088 502.056 218.162549 502.056 218.160009 
L 369 218.16 
z
" style="fill: #50b131"/>
   </g>
   <g id="text_1">
    <text style="fill: #262626; font: 10px 'Arial', 'Liberation Sans', 'DejaVu Sans', 'Bitstream Vera Sans', sans-serif; text-anchor: end" x="222.640847" y="219.899623" transform="rotate(-0 222.640847 219.899623)">newsapi</text>
   </g>
   <g id="text_2">
    <text style="fill: #262626; font: 10px 'Arial', 'Liberation Sans', 'DejaVu Sans', 'Bitstream Vera Sans', sans-serif; text-anchor: middle" x="289.167735" y="220.284311" transform="rotate(-0 289.167735 220.284311)">99.8%</text>
   </g>
   <g id="text_3">
    <text style="fill: #262626; font: 10px 'Arial', 'Liberation Sans', 'DejaVu Sans', 'Bitstream Vera Sans', sans-serif; text-anchor: start" x="515.359104" y="221.600637" transform="rotate(-0 515.359104 221.600637)">chicago_pd</text>
   </g>
   <g id="text_4">
    <text style="fill: #262626; font: 10px 'Arial', 'Liberation Sans', 'DejaVu Sans', 'Bitstream Vera Sans', sans-serif; text-anchor: middle" x="448.832239" y="221.212137" transform="rotate(-0 448.832239 221.212137)">0.2%</text>
   </g>
   <g id="text_5">
    <text style="fill: #262626; font: 10px 'Arial', 'Liberation Sans', 'DejaVu Sans', 'Bitstream Vera Sans', sans-serif; text-anchor: start" x="515.3616" y="220.754327" transform="rotate(-0 515.3616 220.754327)">chicago_police</text>
   </g>
   <g id="text_6">
    <text style="fill: #262626; font: 10px 'Arial', 'Liberation Sans', 'DejaVu Sans', 'Bitstream Vera Sans', sans-serif; text-anchor: middle" x="448.8336" y="220.750514" transform="rotate(-0 448.8336 220.750514)">0.0%</text>
   </g>
   <g id="text_7">
    <text style="fill: #262626; font: 12px 'Arial', 'Liberation Sans', 'DejaVu Sans', 'Bitstream Vera Sans', sans-serif; text-anchor: middle" x="369" y="45.84" transform="rotate(-0 369 45.84)">Incidents by Source</text>
   </g>
  </g>
 </g>
</svg>
