<?xml version="1.0" encoding="utf-8" standalone="no"?>
<!DOCTYPE svg PUBLIC "-//W3C//DTD SVG 1.1//EN"
  "http://www.w3.org/Graphics/SVG/1.1/DTD/svg11.dtd">
<svg xmlns:xlink="http://www.w3.org/1999/xlink" width="720pt" height="432pt" viewBox="0 0 720 432" xmlns="http://www.w3.org/2000/svg" version="1.1">
 <metadata>
  <rdf:RDF xmlns:dc="http://purl.org/dc/elements/1.1/" xmlns:cc="http://creativecommons.org/ns#" xmlns:rdf="http://www.w3.org/1999/02/22-rdf-syntax-ns#">
   <cc:Work>
    <dc:type rdf:resource="http://purl.org/dc/dcmitype/StillImage"/>
    <dc:date>2026-05-31T02:52:44.579229</dc:date>
    <dc:format>image/svg+xml</dc:format>
    <dc:creator>
     <cc:Agent>
      <dc:title>Matplotlib v3.7.5, https://matplotlib.org/</dc:title>
     </cc:Agent>
    </dc:creator>
   </cc:Work>
  </rdf:RDF>
 </metadata>
 <defs>
  <style type="text/css">*{stroke-linejoin: round; stroke-linecap: butt}</style>
 </defs>
 <g id="figure_1">
  <g id="patch_1">
   <path d="M 0 432 
L 720 432 
L 720 0 
L 0 0 
z
" style="fill: #ffffff"/>
  </g>
  <g id="axes_1">
   <g id="matplotlib.axis_1"/>
   <g id="matplotlib.axis_2"/>
   <g id="patch_2">
    <path d="M 502.056 218.16 
C 502.056 200.70368 498.62072 183.416781 491.946395 167.286793 
C 485.27207 151.156806 475.488254 136.496826 463.153836 124.144287 
C 450.819418 111.791747 436.173817 101.986421 420.053646 95.288423 
C 403.933474 88.590425 386.651636 85.12977 369.195335 85.104143 
C 351.739034 85.078516 334.44711 88.488415 318.307342 95.139053 
C 302.167573 101.78969 287.493246 111.551973 275.122612 123.868244 
C 262.751978 136.184515 252.925162 150.815705 246.203506 166.926026 
C 239.48185 183.036347 235.995828 200.313085 235.944574 217.76933 
C 235.893319 235.225575 239.277828 252.522486 245.904765 268.672001 
C 252.531701 284.821515 262.272431 299.510158 274.570527 311.89886 
C 286.868624 324.287562 301.485371 334.135847 317.585808 340.881147 
C 333.686244 347.626447 350.957846 351.137829 368.413996 351.21471 
C 385.870147 351.29159 403.172008 347.932478 419.331234 341.329257 
C 435.49046 334.726037 450.193387 325.006882 462.60013 312.726986 
C 475.006873 300.44709 484.876606 285.844816 491.645535 269.7543 
C 498.414464 253.663784 501.951198 236.397355 502.053706 218.941336 
L 369 218.16 
z
" style="fill: #f77189"/>
   </g>
   <g id="patch_3">
    <path d="M 502.053706 218.941336 
C 502.054463 218.812405 502.055033 218.683473 502.055415 218.55454 
C 502.055797 218.425607 502.055992 218.296673 502.056 218.167739 
L 369 218.16 
z
" style="fill: #bb9832"/>
   </g>
   <g id="patch_4">
    <path d="M 502.056 218.167739 
C 502.056 218.16645 502.056 218.165161 502.056 218.163871 
C 502.056 218.162582 502.056 218.161293 502.056 218.160003 
L 369 218.16 
z
" style="fill: #50b131"/>
   </g>
   <g id="text_1">
    <text style="fill: #262626; font: 10px 'Arial', 'Liberation Sans', 'DejaVu Sans', 'Bitstream Vera Sans', sans-serif; text-anchor: end" x="222.639031" y="220.316201" transform="rotate(-0 222.639031 220.316201)">newsapi</text>
   </g>
   <g id="text_2">
    <text style="fill: #262626; font: 10px 'Arial', 'Liberation Sans', 'DejaVu Sans', 'Bitstream Vera Sans', sans-serif; text-anchor: middle" x="289.166744" y="220.511536" transform="rotate(-0 289.166744 220.511536)">99.9%</text>
   </g>
   <g id="text_3">
    <text style="fill: #262626; font: 10px 'Arial', 'Liberation Sans', 'DejaVu Sans', 'Bitstream Vera Sans', sans-serif; text-anchor: start" x="515.360957" y="221.179931" transform="rotate(-0 515.360957 221.179931)">chicago_pd</text>
   </g>
   <g id="text_4">
    <text style="fill: #262626; font: 10px 'Arial', 'Liberation Sans', 'DejaVu Sans', 'Bitstream Vera Sans', sans-serif; text-anchor: middle" x="448.833249" y="220.982661" transform="rotate(-0 448.833249 220.982661)">0.1%</text>
   </g>
   <g id="text_5">
    <text style="fill: #262626; font: 10px 'Arial', 'Liberation Sans', 'DejaVu Sans', 'Bitstream Vera Sans', sans-serif; text-anchor: start" x="515.3616" y="220.750196" transform="rotate(-0 515.3616 220.750196)">chicago_police</text>
   </g>
   <g id="text_6">
    <text style="fill: #262626; font: 10px 'Arial', 'Liberation Sans', 'DejaVu Sans', 'Bitstream Vera Sans', sans-serif; text-anchor: middle" x="448.8336" y="220.74826" transform="rotate(-0 448.8336 220.74826)">0.0%</text>
   </g>
   <g id="text_7">
    <text style="fill: #262626; font: 12px 'Arial', 'Liberation Sans', 'DejaVu Sans', 'Bitstream Vera Sans', sans-serif; text-anchor: middle" x="369" y="45.84" transform="rotate(-0 369 45.84)">Incidents by Source</text>
   </g>
  </g>
 </g>
</svg>
