<?xml version="1.0" encoding="utf-8" standalone="no"?>
<!DOCTYPE svg PUBLIC "-//W3C//DTD SVG 1.1//EN"
  "http://www.w3.org/Graphics/SVG/1.1/DTD/svg11.dtd">
<svg xmlns:xlink="http://www.w3.org/1999/xlink" width="720pt" height="432pt" viewBox="0 0 720 432" xmlns="http://www.w3.org/2000/svg" version="1.1">
 <metadata>
  <rdf:RDF xmlns:dc="http://purl.org/dc/elements/1.1/" xmlns:cc="http://creativecommons.org/ns#" xmlns:rdf="http://www.w3.org/1999/02/22-rdf-syntax-ns#">
   <cc:Work>
    <dc:type rdf:resource="http://purl.org/dc/dcmitype/StillImage"/>
    <dc:date>2026-05-08T03:32:49.161930</dc:date>
    <dc:format>image/svg+xml</dc:format>
    <dc:creator>
     <cc:Agent>
      <dc:title>Matplotlib v3.7.5, https://matplotlib.org/</dc:title>
     </cc:Agent>
    </dc:creator>
   </cc:Work>
  </rdf:RDF>
 </metadata>
 <defs>
  <style type="text/css">*{stroke-linejoin: round; stroke-linecap: butt}</style>
 </defs>
 <g id="figure_1">
  <g id="patch_1">
   <path d="M 0 432 
L 720 432 
L 720 0 
L 0 0 
z
" style="fill: #ffffff"/>
  </g>
  <g id="axes_1">
   <g id="matplotlib.axis_1"/>
   <g id="matplotlib.axis_2"/>
   <g id="patch_2">
    <path d="M 502.056 218.16 
C 502.056 200.704399 498.621003 183.418198 491.947212 167.288767 
C 485.27342 151.159337 475.490369 136.499737 463.156855 124.147311 
C 450.823341 111.794884 436.178749 101.989381 420.059564 95.290883 
C 403.940379 88.592384 386.659462 85.130903 369.203881 85.104156 
C 351.7483 85.077409 334.456856 88.485915 318.317218 95.134983 
C 302.177581 101.784051 287.503008 111.544629 275.131697 123.8592 
C 262.760386 136.173772 252.932455 150.803322 246.209265 166.912224 
C 239.486075 183.021126 235.998119 200.296719 235.944625 217.752238 
C 235.891131 235.207758 239.273137 252.504404 245.897467 268.654211 
C 252.521796 284.804018 262.259876 299.49353 274.555477 311.883696 
C 286.851078 324.273862 301.465551 334.124199 317.564132 340.872064 
C 333.662714 347.61993 350.932942 351.134353 368.388359 351.214594 
C 385.843775 351.294835 403.145584 347.939337 419.305523 341.339761 
C 435.465461 334.740185 450.169877 325.024625 462.578869 312.748024 
C 474.987861 300.471424 484.86058 285.872061 491.633105 269.783838 
C 498.40563 253.695616 501.946513 236.430793 502.053501 218.975519 
L 369 218.16 
z
" style="fill: #f77189"/>
   </g>
   <g id="patch_3">
    <path d="M 502.053501 218.975519 
C 502.054326 218.840946 502.054946 218.706371 502.055363 218.571796 
C 502.055779 218.437221 502.055992 218.302645 502.056 218.168069 
L 369 218.16 
z
" style="fill: #bb9832"/>
   </g>
   <g id="patch_4">
    <path d="M 502.056 218.168069 
C 502.056 218.166723 502.056 218.165377 502.056 218.164031 
C 502.056 218.162686 502.056 218.16134 502.056 218.159994 
L 369 218.16 
z
" style="fill: #50b131"/>
   </g>
   <g id="text_1">
    <text style="fill: #262626; font: 10px 'Arial', 'Liberation Sans', 'DejaVu Sans', 'Bitstream Vera Sans', sans-serif; text-anchor: end" x="222.639087" y="220.2974" transform="rotate(-0 222.639087 220.2974)">newsapi</text>
   </g>
   <g id="text_2">
    <text style="fill: #262626; font: 10px 'Arial', 'Liberation Sans', 'DejaVu Sans', 'Bitstream Vera Sans', sans-serif; text-anchor: middle" x="289.166775" y="220.501281" transform="rotate(-0 289.166775 220.501281)">99.9%</text>
   </g>
   <g id="text_3">
    <text style="fill: #262626; font: 10px 'Arial', 'Liberation Sans', 'DejaVu Sans', 'Bitstream Vera Sans', sans-serif; text-anchor: start" x="515.360899" y="221.198913" transform="rotate(-0 515.360899 221.198913)">chicago_pd</text>
   </g>
   <g id="text_4">
    <text style="fill: #262626; font: 10px 'Arial', 'Liberation Sans', 'DejaVu Sans', 'Bitstream Vera Sans', sans-serif; text-anchor: middle" x="448.833218" y="220.993015" transform="rotate(-0 448.833218 220.993015)">0.1%</text>
   </g>
   <g id="text_5">
    <text style="fill: #262626; font: 10px 'Arial', 'Liberation Sans', 'DejaVu Sans', 'Bitstream Vera Sans', sans-serif; text-anchor: start" x="515.3616" y="220.750372" transform="rotate(-0 515.3616 220.750372)">chicago_police</text>
   </g>
   <g id="text_6">
    <text style="fill: #262626; font: 10px 'Arial', 'Liberation Sans', 'DejaVu Sans', 'Bitstream Vera Sans', sans-serif; text-anchor: middle" x="448.8336" y="220.748356" transform="rotate(-0 448.8336 220.748356)">0.0%</text>
   </g>
   <g id="text_7">
    <text style="fill: #262626; font: 12px 'Arial', 'Liberation Sans', 'DejaVu Sans', 'Bitstream Vera Sans', sans-serif; text-anchor: middle" x="369" y="45.84" transform="rotate(-0 369 45.84)">Incidents by Source</text>
   </g>
  </g>
 </g>
</svg>
