<?xml version="1.0" encoding="utf-8" standalone="no"?>
<!DOCTYPE svg PUBLIC "-//W3C//DTD SVG 1.1//EN"
  "http://www.w3.org/Graphics/SVG/1.1/DTD/svg11.dtd">
<svg xmlns:xlink="http://www.w3.org/1999/xlink" width="720pt" height="432pt" viewBox="0 0 720 432" xmlns="http://www.w3.org/2000/svg" version="1.1">
 <metadata>
  <rdf:RDF xmlns:dc="http://purl.org/dc/elements/1.1/" xmlns:cc="http://creativecommons.org/ns#" xmlns:rdf="http://www.w3.org/1999/02/22-rdf-syntax-ns#">
   <cc:Work>
    <dc:type rdf:resource="http://purl.org/dc/dcmitype/StillImage"/>
    <dc:date>2026-05-24T13:47:06.385958</dc:date>
    <dc:format>image/svg+xml</dc:format>
    <dc:creator>
     <cc:Agent>
      <dc:title>Matplotlib v3.7.5, https://matplotlib.org/</dc:title>
     </cc:Agent>
    </dc:creator>
   </cc:Work>
  </rdf:RDF>
 </metadata>
 <defs>
  <style type="text/css">*{stroke-linejoin: round; stroke-linecap: butt}</style>
 </defs>
 <g id="figure_1">
  <g id="patch_1">
   <path d="M 0 432 
L 720 432 
L 720 0 
L 0 0 
z
" style="fill: #ffffff"/>
  </g>
  <g id="axes_1">
   <g id="matplotlib.axis_1"/>
   <g id="matplotlib.axis_2"/>
   <g id="patch_2">
    <path d="M 502.056 218.16 
C 502.056 200.703878 498.620798 183.417171 491.94662 167.287337 
C 485.272442 151.157503 475.488837 136.497628 463.154668 124.14512 
C 450.820499 111.792611 436.175176 101.987236 420.055276 95.289101 
C 403.935376 88.590965 386.653792 85.130083 369.19769 85.104147 
C 351.741587 85.078211 334.449795 88.487726 318.310063 95.137931 
C 302.17033 101.788137 287.495936 111.54995 275.125115 123.865752 
C 262.754295 136.181555 252.927171 150.812293 246.205092 166.922223 
C 239.483014 183.032153 235.996459 200.308576 235.944587 217.764621 
C 235.892716 235.220666 239.276536 252.517505 245.902754 268.6671 
C 252.528972 284.816695 262.268972 299.505577 274.566381 311.894682 
C 286.86379 324.283788 301.479911 334.132638 317.579836 340.878645 
C 333.679761 347.624652 350.950984 351.136872 368.406933 351.214678 
C 385.862881 351.292485 403.164728 347.934368 419.324151 341.332152 
C 435.483573 334.729935 450.18691 325.011771 462.594273 312.732783 
C 475.001635 300.453794 484.872192 285.852323 491.642111 269.762438 
C 498.412031 253.672554 501.949908 236.406568 502.05365 218.950754 
L 369 218.16 
z
" style="fill: #f77189"/>
   </g>
   <g id="patch_3">
    <path d="M 502.05365 218.950754 
C 502.054426 218.820266 502.055009 218.689778 502.055401 218.559288 
C 502.055792 218.428799 502.055992 218.298309 502.056 218.167819 
L 369 218.16 
z
" style="fill: #bb9832"/>
   </g>
   <g id="patch_4">
    <path d="M 502.056 218.167819 
C 502.056 218.166514 502.056 218.165209 502.056 218.163904 
C 502.056 218.162599 502.056 218.161294 502.056 218.159989 
L 369 218.16 
z
" style="fill: #50b131"/>
   </g>
   <g id="text_1">
    <text style="fill: #262626; font: 10px 'Arial', 'Liberation Sans', 'DejaVu Sans', 'Bitstream Vera Sans', sans-serif; text-anchor: end" x="222.639046" y="220.311021" transform="rotate(-0 222.639046 220.311021)">newsapi</text>
   </g>
   <g id="text_2">
    <text style="fill: #262626; font: 10px 'Arial', 'Liberation Sans', 'DejaVu Sans', 'Bitstream Vera Sans', sans-serif; text-anchor: middle" x="289.166752" y="220.50871" transform="rotate(-0 289.166752 220.50871)">99.9%</text>
   </g>
   <g id="text_3">
    <text style="fill: #262626; font: 10px 'Arial', 'Liberation Sans', 'DejaVu Sans', 'Bitstream Vera Sans', sans-serif; text-anchor: start" x="515.360941" y="221.185154" transform="rotate(-0 515.360941 221.185154)">chicago_pd</text>
   </g>
   <g id="text_4">
    <text style="fill: #262626; font: 10px 'Arial', 'Liberation Sans', 'DejaVu Sans', 'Bitstream Vera Sans', sans-serif; text-anchor: middle" x="448.833241" y="220.98551" transform="rotate(-0 448.833241 220.98551)">0.1%</text>
   </g>
   <g id="text_5">
    <text style="fill: #262626; font: 10px 'Arial', 'Liberation Sans', 'DejaVu Sans', 'Bitstream Vera Sans', sans-serif; text-anchor: start" x="515.3616" y="220.750232" transform="rotate(-0 515.3616 220.750232)">chicago_police</text>
   </g>
   <g id="text_6">
    <text style="fill: #262626; font: 10px 'Arial', 'Liberation Sans', 'DejaVu Sans', 'Bitstream Vera Sans', sans-serif; text-anchor: middle" x="448.8336" y="220.74828" transform="rotate(-0 448.8336 220.74828)">0.0%</text>
   </g>
   <g id="text_7">
    <text style="fill: #262626; font: 12px 'Arial', 'Liberation Sans', 'DejaVu Sans', 'Bitstream Vera Sans', sans-serif; text-anchor: middle" x="369" y="45.84" transform="rotate(-0 369 45.84)">Incidents by Source</text>
   </g>
  </g>
 </g>
</svg>
