<?xml version="1.0" encoding="utf-8" standalone="no"?>
<!DOCTYPE svg PUBLIC "-//W3C//DTD SVG 1.1//EN"
  "http://www.w3.org/Graphics/SVG/1.1/DTD/svg11.dtd">
<svg xmlns:xlink="http://www.w3.org/1999/xlink" width="720pt" height="432pt" viewBox="0 0 720 432" xmlns="http://www.w3.org/2000/svg" version="1.1">
 <metadata>
  <rdf:RDF xmlns:dc="http://purl.org/dc/elements/1.1/" xmlns:cc="http://creativecommons.org/ns#" xmlns:rdf="http://www.w3.org/1999/02/22-rdf-syntax-ns#">
   <cc:Work>
    <dc:type rdf:resource="http://purl.org/dc/dcmitype/StillImage"/>
    <dc:date>2025-01-31T12:22:30.191324</dc:date>
    <dc:format>image/svg+xml</dc:format>
    <dc:creator>
     <cc:Agent>
      <dc:title>Matplotlib v3.7.5, https://matplotlib.org/</dc:title>
     </cc:Agent>
    </dc:creator>
   </cc:Work>
  </rdf:RDF>
 </metadata>
 <defs>
  <style type="text/css">*{stroke-linejoin: round; stroke-linecap: butt}</style>
 </defs>
 <g id="figure_1">
  <g id="patch_1">
   <path d="M 0 432 
L 720 432 
L 720 0 
L 0 0 
z
" style="fill: #ffffff"/>
  </g>
  <g id="axes_1">
   <g id="matplotlib.axis_1"/>
   <g id="matplotlib.axis_2"/>
   <g id="patch_2">
    <path d="M 502.056 218.16 
C 502.056 200.831729 498.670933 183.669171 492.091386 167.638621 
C 485.51184 151.60807 475.863656 137.016134 463.690053 124.684372 
C 451.516449 112.35261 437.050261 102.516885 421.105972 95.730972 
C 405.161682 88.945059 388.044247 85.338749 370.71742 85.115084 
C 353.390592 84.89142 336.185771 88.054679 320.071631 94.426763 
C 303.95749 100.798848 289.242235 110.257882 276.75437 122.271299 
C 264.266505 134.284717 254.244877 148.622745 247.253729 164.478117 
C 240.26258 180.333489 236.435627 197.40295 235.988335 214.725447 
C 235.541043 232.047944 238.481968 249.292161 244.645528 265.487207 
C 250.809089 281.682253 260.077398 296.518374 271.928628 309.160263 
C 283.779857 321.802151 297.987336 332.008011 313.75115 339.203231 
C 329.514963 346.39845 346.533605 350.445408 363.848886 351.116253 
C 381.164167 351.787097 398.444907 349.068997 414.71816 343.114988 
C 430.991413 337.160979 445.945929 328.084939 458.739734 316.397871 
C 471.533538 304.710804 481.921932 290.636241 489.320023 274.966613 
C 496.718114 259.296985 500.984403 242.331997 501.878689 225.026817 
L 369 218.16 
z
" style="fill: #f77189"/>
   </g>
   <g id="patch_3">
    <path d="M 501.878689 225.026817 
C 501.937195 223.894671 501.98123 222.761823 502.010783 221.62855 
C 502.040335 220.495278 502.055403 219.361675 502.055983 218.228018 
L 369 218.16 
z
" style="fill: #bb9832"/>
   </g>
   <g id="patch_4">
    <path d="M 502.055983 218.228018 
C 502.055988 218.216681 502.055993 218.205345 502.055996 218.194008 
C 502.055999 218.182672 502.056 218.171336 502.056 218.159999 
L 369 218.16 
z
" style="fill: #50b131"/>
   </g>
   <g id="text_1">
    <text style="fill: #262626; font: 10px 'Arial', 'Liberation Sans', 'DejaVu Sans', 'Bitstream Vera Sans', sans-serif; text-anchor: end" x="222.687169" y="216.967929" transform="rotate(-0 222.687169 216.967929)">newsapi</text>
   </g>
   <g id="text_2">
    <text style="fill: #262626; font: 10px 'Arial', 'Liberation Sans', 'DejaVu Sans', 'Bitstream Vera Sans', sans-serif; text-anchor: middle" x="289.193001" y="218.685206" transform="rotate(-0 289.193001 218.685206)">99.2%</text>
   </g>
   <g id="text_3">
    <text style="fill: #262626; font: 10px 'Arial', 'Liberation Sans', 'DejaVu Sans', 'Bitstream Vera Sans', sans-serif; text-anchor: start" x="515.311861" y="224.561343" transform="rotate(-0 515.311861 224.561343)">chicago_pd</text>
   </g>
   <g id="text_4">
    <text style="fill: #262626; font: 10px 'Arial', 'Liberation Sans', 'DejaVu Sans', 'Bitstream Vera Sans', sans-serif; text-anchor: middle" x="448.80647" y="222.827068" transform="rotate(-0 448.80647 222.827068)">0.8%</text>
   </g>
   <g id="text_5">
    <text style="fill: #262626; font: 10px 'Arial', 'Liberation Sans', 'DejaVu Sans', 'Bitstream Vera Sans', sans-serif; text-anchor: start" x="515.361595" y="220.783347" transform="rotate(-0 515.361595 220.783347)">chicago_police</text>
   </g>
   <g id="text_6">
    <text style="fill: #262626; font: 10px 'Arial', 'Liberation Sans', 'DejaVu Sans', 'Bitstream Vera Sans', sans-serif; text-anchor: middle" x="448.833597" y="220.766343" transform="rotate(-0 448.833597 220.766343)">0.0%</text>
   </g>
   <g id="text_7">
    <text style="fill: #262626; font: 12px 'Arial', 'Liberation Sans', 'DejaVu Sans', 'Bitstream Vera Sans', sans-serif; text-anchor: middle" x="369" y="45.84" transform="rotate(-0 369 45.84)">Incidents by Source</text>
   </g>
  </g>
 </g>
</svg>
