<?xml version="1.0" encoding="utf-8" standalone="no"?>
<!DOCTYPE svg PUBLIC "-//W3C//DTD SVG 1.1//EN"
  "http://www.w3.org/Graphics/SVG/1.1/DTD/svg11.dtd">
<svg xmlns:xlink="http://www.w3.org/1999/xlink" width="720pt" height="432pt" viewBox="0 0 720 432" xmlns="http://www.w3.org/2000/svg" version="1.1">
 <metadata>
  <rdf:RDF xmlns:dc="http://purl.org/dc/elements/1.1/" xmlns:cc="http://creativecommons.org/ns#" xmlns:rdf="http://www.w3.org/1999/02/22-rdf-syntax-ns#">
   <cc:Work>
    <dc:type rdf:resource="http://purl.org/dc/dcmitype/StillImage"/>
    <dc:date>2026-02-10T13:00:09.578232</dc:date>
    <dc:format>image/svg+xml</dc:format>
    <dc:creator>
     <cc:Agent>
      <dc:title>Matplotlib v3.7.5, https://matplotlib.org/</dc:title>
     </cc:Agent>
    </dc:creator>
   </cc:Work>
  </rdf:RDF>
 </metadata>
 <defs>
  <style type="text/css">*{stroke-linejoin: round; stroke-linecap: butt}</style>
 </defs>
 <g id="figure_1">
  <g id="patch_1">
   <path d="M 0 432 
L 720 432 
L 720 0 
L 0 0 
z
" style="fill: #ffffff"/>
  </g>
  <g id="axes_1">
   <g id="matplotlib.axis_1"/>
   <g id="matplotlib.axis_2"/>
   <g id="patch_2">
    <path d="M 502.056 218.16 
C 502.056 200.707422 498.622192 183.424155 491.950645 167.297067 
C 485.279099 151.169979 475.499257 136.511976 463.169547 124.160024 
C 450.839836 111.808071 436.199483 102.001827 420.084446 95.301225 
C 403.969409 88.600623 386.692359 85.135671 369.239809 85.104216 
C 351.787259 85.072761 334.497831 88.475414 318.358745 95.117883 
C 302.21966 101.760353 287.544054 111.51376 275.169899 123.821189 
C 262.795745 136.128617 252.963131 150.751272 246.233495 166.854207 
C 239.50386 182.957141 236.007774 200.227918 235.944864 217.680383 
C 235.881954 235.132848 239.25344 252.428381 245.866812 268.579412 
C 252.480183 284.730443 262.207124 299.423604 274.49223 311.81992 
C 286.777337 324.216236 301.382247 334.075189 317.473026 340.833836 
C 333.563806 347.592483 350.828254 351.11969 368.280577 351.214055 
C 385.7329 351.30842 403.034481 347.968111 419.197405 341.38386 
C 435.36033 334.799608 450.070998 325.099165 462.489435 312.836421 
C 474.907873 300.573676 484.793133 285.986559 491.580769 269.907987 
C 498.368406 253.829415 501.926723 236.571352 502.052542 219.119227 
L 369 218.16 
z
" style="fill: #f77189"/>
   </g>
   <g id="patch_3">
    <path d="M 502.052542 219.119227 
C 502.053683 218.960943 502.054542 218.802658 502.055118 218.644371 
C 502.055695 218.486084 502.055988 218.327797 502.056 218.169509 
L 369 218.16 
z
" style="fill: #bb9832"/>
   </g>
   <g id="patch_4">
    <path d="M 502.056 218.169509 
C 502.056 218.167926 502.056 218.166343 502.056 218.164761 
C 502.056 218.163178 502.056 218.161595 502.056 218.160012 
L 369 218.16 
z
" style="fill: #50b131"/>
   </g>
   <g id="text_1">
    <text style="fill: #262626; font: 10px 'Arial', 'Liberation Sans', 'DejaVu Sans', 'Bitstream Vera Sans', sans-serif; text-anchor: end" x="222.639351" y="220.218359" transform="rotate(-0 222.639351 220.218359)">newsapi</text>
   </g>
   <g id="text_2">
    <text style="fill: #262626; font: 10px 'Arial', 'Liberation Sans', 'DejaVu Sans', 'Bitstream Vera Sans', sans-serif; text-anchor: middle" x="289.166919" y="220.458168" transform="rotate(-0 289.166919 220.458168)">99.9%</text>
   </g>
   <g id="text_3">
    <text style="fill: #262626; font: 10px 'Arial', 'Liberation Sans', 'DejaVu Sans', 'Bitstream Vera Sans', sans-serif; text-anchor: start" x="515.36063" y="221.278746" transform="rotate(-0 515.36063 221.278746)">chicago_pd</text>
   </g>
   <g id="text_4">
    <text style="fill: #262626; font: 10px 'Arial', 'Liberation Sans', 'DejaVu Sans', 'Bitstream Vera Sans', sans-serif; text-anchor: middle" x="448.833071" y="221.03656" transform="rotate(-0 448.833071 221.03656)">0.1%</text>
   </g>
   <g id="text_5">
    <text style="fill: #262626; font: 10px 'Arial', 'Liberation Sans', 'DejaVu Sans', 'Bitstream Vera Sans', sans-serif; text-anchor: start" x="515.3616" y="220.751174" transform="rotate(-0 515.3616 220.751174)">chicago_police</text>
   </g>
   <g id="text_6">
    <text style="fill: #262626; font: 10px 'Arial', 'Liberation Sans', 'DejaVu Sans', 'Bitstream Vera Sans', sans-serif; text-anchor: middle" x="448.8336" y="220.748794" transform="rotate(-0 448.8336 220.748794)">0.0%</text>
   </g>
   <g id="text_7">
    <text style="fill: #262626; font: 12px 'Arial', 'Liberation Sans', 'DejaVu Sans', 'Bitstream Vera Sans', sans-serif; text-anchor: middle" x="369" y="45.84" transform="rotate(-0 369 45.84)">Incidents by Source</text>
   </g>
  </g>
 </g>
</svg>
