<?xml version="1.0" encoding="utf-8" standalone="no"?>
<!DOCTYPE svg PUBLIC "-//W3C//DTD SVG 1.1//EN"
  "http://www.w3.org/Graphics/SVG/1.1/DTD/svg11.dtd">
<svg xmlns:xlink="http://www.w3.org/1999/xlink" width="720pt" height="432pt" viewBox="0 0 720 432" xmlns="http://www.w3.org/2000/svg" version="1.1">
 <metadata>
  <rdf:RDF xmlns:dc="http://purl.org/dc/elements/1.1/" xmlns:cc="http://creativecommons.org/ns#" xmlns:rdf="http://www.w3.org/1999/02/22-rdf-syntax-ns#">
   <cc:Work>
    <dc:type rdf:resource="http://purl.org/dc/dcmitype/StillImage"/>
    <dc:date>2026-02-06T18:40:59.084796</dc:date>
    <dc:format>image/svg+xml</dc:format>
    <dc:creator>
     <cc:Agent>
      <dc:title>Matplotlib v3.7.5, https://matplotlib.org/</dc:title>
     </cc:Agent>
    </dc:creator>
   </cc:Work>
  </rdf:RDF>
 </metadata>
 <defs>
  <style type="text/css">*{stroke-linejoin: round; stroke-linecap: butt}</style>
 </defs>
 <g id="figure_1">
  <g id="patch_1">
   <path d="M 0 432 
L 720 432 
L 720 0 
L 0 0 
z
" style="fill: #ffffff"/>
  </g>
  <g id="axes_1">
   <g id="matplotlib.axis_1"/>
   <g id="matplotlib.axis_2"/>
   <g id="patch_2">
    <path d="M 502.056 218.16 
C 502.056 200.707557 498.622245 183.424421 491.950799 167.297438 
C 485.279352 151.170455 475.499655 136.512524 463.170115 124.160592 
C 450.840574 111.808661 436.200411 102.002384 420.085559 95.301688 
C 403.970707 88.600992 386.69383 85.135885 369.241416 85.104219 
C 351.789001 85.072553 334.499664 88.474944 318.360603 95.117119 
C 302.221542 101.759294 287.54589 111.51238 275.171608 123.819489 
C 262.797327 136.126598 252.964503 150.748944 246.23458 166.851612 
C 239.504656 182.95428 236.008207 200.224841 235.944876 217.677169 
C 235.881545 235.129498 239.25256 252.42498 245.865442 268.576066 
C 252.478323 284.727152 262.204766 299.420475 274.489402 311.817066 
C 286.774039 324.213658 301.378522 334.072996 317.468952 340.832125 
C 333.559382 347.591254 350.823571 351.119033 368.275756 351.214029 
C 385.727941 351.309025 403.029511 347.969396 419.192568 341.38583 
C 435.355626 334.802264 450.066573 325.102497 462.485433 312.840373 
C 474.904293 300.578248 484.790113 285.991679 491.578425 269.913539 
C 498.366738 253.835398 501.925835 236.577639 502.052496 219.125655 
L 369 218.16 
z
" style="fill: #f77189"/>
   </g>
   <g id="patch_3">
    <path d="M 502.052496 219.125655 
C 502.053652 218.966307 502.054523 218.806957 502.055107 218.647606 
C 502.055691 218.488255 502.055988 218.328903 502.056 218.169551 
L 369 218.16 
z
" style="fill: #bb9832"/>
   </g>
   <g id="patch_4">
    <path d="M 502.056 218.169551 
C 502.056 218.167957 502.056 218.166364 502.056 218.16477 
C 502.056 218.163177 502.056 218.161583 502.056 218.159989 
L 369 218.16 
z
" style="fill: #50b131"/>
   </g>
   <g id="text_1">
    <text style="fill: #262626; font: 10px 'Arial', 'Liberation Sans', 'DejaVu Sans', 'Bitstream Vera Sans', sans-serif; text-anchor: end" x="222.639364" y="220.214824" transform="rotate(-0 222.639364 220.214824)">newsapi</text>
   </g>
   <g id="text_2">
    <text style="fill: #262626; font: 10px 'Arial', 'Liberation Sans', 'DejaVu Sans', 'Bitstream Vera Sans', sans-serif; text-anchor: middle" x="289.166926" y="220.456239" transform="rotate(-0 289.166926 220.456239)">99.9%</text>
   </g>
   <g id="text_3">
    <text style="fill: #262626; font: 10px 'Arial', 'Liberation Sans', 'DejaVu Sans', 'Bitstream Vera Sans', sans-serif; text-anchor: start" x="515.360617" y="221.282304" transform="rotate(-0 515.360617 221.282304)">chicago_pd</text>
   </g>
   <g id="text_4">
    <text style="fill: #262626; font: 10px 'Arial', 'Liberation Sans', 'DejaVu Sans', 'Bitstream Vera Sans', sans-serif; text-anchor: middle" x="448.833064" y="221.038501" transform="rotate(-0 448.833064 221.038501)">0.1%</text>
   </g>
   <g id="text_5">
    <text style="fill: #262626; font: 10px 'Arial', 'Liberation Sans', 'DejaVu Sans', 'Bitstream Vera Sans', sans-serif; text-anchor: start" x="515.3616" y="220.751185" transform="rotate(-0 515.3616 220.751185)">chicago_police</text>
   </g>
   <g id="text_6">
    <text style="fill: #262626; font: 10px 'Arial', 'Liberation Sans', 'DejaVu Sans', 'Bitstream Vera Sans', sans-serif; text-anchor: middle" x="448.8336" y="220.7488" transform="rotate(-0 448.8336 220.7488)">0.0%</text>
   </g>
   <g id="text_7">
    <text style="fill: #262626; font: 12px 'Arial', 'Liberation Sans', 'DejaVu Sans', 'Bitstream Vera Sans', sans-serif; text-anchor: middle" x="369" y="45.84" transform="rotate(-0 369 45.84)">Incidents by Source</text>
   </g>
  </g>
 </g>
</svg>
