<?xml version="1.0" encoding="utf-8" standalone="no"?>
<!DOCTYPE svg PUBLIC "-//W3C//DTD SVG 1.1//EN"
  "http://www.w3.org/Graphics/SVG/1.1/DTD/svg11.dtd">
<svg xmlns:xlink="http://www.w3.org/1999/xlink" width="720pt" height="432pt" viewBox="0 0 720 432" xmlns="http://www.w3.org/2000/svg" version="1.1">
 <metadata>
  <rdf:RDF xmlns:dc="http://purl.org/dc/elements/1.1/" xmlns:cc="http://creativecommons.org/ns#" xmlns:rdf="http://www.w3.org/1999/02/22-rdf-syntax-ns#">
   <cc:Work>
    <dc:type rdf:resource="http://purl.org/dc/dcmitype/StillImage"/>
    <dc:date>2025-04-24T12:46:34.998226</dc:date>
    <dc:format>image/svg+xml</dc:format>
    <dc:creator>
     <cc:Agent>
      <dc:title>Matplotlib v3.7.5, https://matplotlib.org/</dc:title>
     </cc:Agent>
    </dc:creator>
   </cc:Work>
  </rdf:RDF>
 </metadata>
 <defs>
  <style type="text/css">*{stroke-linejoin: round; stroke-linecap: butt}</style>
 </defs>
 <g id="figure_1">
  <g id="patch_1">
   <path d="M 0 432 
L 720 432 
L 720 0 
L 0 0 
z
" style="fill: #ffffff"/>
  </g>
  <g id="axes_1">
   <g id="matplotlib.axis_1"/>
   <g id="matplotlib.axis_2"/>
   <g id="patch_2">
    <path d="M 502.056 218.16 
C 502.056 200.750248 498.639024 183.508563 491.999239 167.414691 
C 485.359454 151.32082 475.625056 136.685488 463.349195 124.34034 
C 451.073334 111.995192 436.493022 102.178576 420.436775 95.448316 
C 404.380529 88.718056 387.158348 85.204094 369.748872 85.106107 
C 352.339396 85.008121 335.078753 88.328003 318.947766 94.877102 
C 302.816778 101.426201 288.126891 111.078074 275.712847 123.284259 
C 263.298803 135.490444 253.400281 150.015275 246.579759 166.033388 
C 239.759237 182.0515 236.148399 199.25363 235.95243 216.662279 
C 235.75646 234.070928 238.979142 251.349983 245.437348 267.517575 
C 251.895555 283.685166 261.464596 298.429144 273.600719 310.911691 
C 285.736841 323.394238 300.20573 333.374353 316.185202 340.28492 
C 332.164673 347.195488 349.346208 350.903087 366.753478 351.197033 
C 384.160748 351.49098 401.457668 348.3656 417.661352 341.998492 
C 433.865036 335.631383 448.662637 326.145475 461.213291 314.0798 
C 473.763946 302.014125 483.825336 287.601635 490.825731 271.661311 
C 497.826126 255.720988 501.630368 238.560592 502.022282 221.155252 
L 369 218.16 
z
" style="fill: #f77189"/>
   </g>
   <g id="patch_3">
    <path d="M 502.022282 221.155252 
C 502.03341 220.661067 502.041783 220.166823 502.047403 219.672545 
C 502.053022 219.178266 502.055887 218.68396 502.055997 218.189649 
L 369 218.16 
z
" style="fill: #bb9832"/>
   </g>
   <g id="patch_4">
    <path d="M 502.055997 218.189649 
C 502.055998 218.184706 502.055999 218.179763 502.055999 218.17482 
C 502.056 218.169877 502.056 218.164934 502.056 218.159991 
L 369 218.16 
z
" style="fill: #50b131"/>
   </g>
   <g id="text_1">
    <text style="fill: #262626; font: 10px 'Arial', 'Liberation Sans', 'DejaVu Sans', 'Bitstream Vera Sans', sans-serif; text-anchor: end" x="222.647673" y="219.098444" transform="rotate(-0 222.647673 219.098444)">newsapi</text>
   </g>
   <g id="text_2">
    <text style="fill: #262626; font: 10px 'Arial', 'Liberation Sans', 'DejaVu Sans', 'Bitstream Vera Sans', sans-serif; text-anchor: middle" x="289.171458" y="219.847305" transform="rotate(-0 289.171458 219.847305)">99.6%</text>
   </g>
   <g id="text_3">
    <text style="fill: #262626; font: 10px 'Arial', 'Liberation Sans', 'DejaVu Sans', 'Bitstream Vera Sans', sans-serif; text-anchor: start" x="515.352143" y="222.409736" transform="rotate(-0 515.352143 222.409736)">chicago_pd</text>
   </g>
   <g id="text_4">
    <text style="fill: #262626; font: 10px 'Arial', 'Liberation Sans', 'DejaVu Sans', 'Bitstream Vera Sans', sans-serif; text-anchor: middle" x="448.828442" y="221.653464" transform="rotate(-0 448.828442 221.653464)">0.4%</text>
   </g>
   <g id="text_5">
    <text style="fill: #262626; font: 10px 'Arial', 'Liberation Sans', 'DejaVu Sans', 'Bitstream Vera Sans', sans-serif; text-anchor: start" x="515.361599" y="220.762239" transform="rotate(-0 515.361599 220.762239)">chicago_police</text>
   </g>
   <g id="text_6">
    <text style="fill: #262626; font: 10px 'Arial', 'Liberation Sans', 'DejaVu Sans', 'Bitstream Vera Sans', sans-serif; text-anchor: middle" x="448.8336" y="220.754829" transform="rotate(-0 448.8336 220.754829)">0.0%</text>
   </g>
   <g id="text_7">
    <text style="fill: #262626; font: 12px 'Arial', 'Liberation Sans', 'DejaVu Sans', 'Bitstream Vera Sans', sans-serif; text-anchor: middle" x="369" y="45.84" transform="rotate(-0 369 45.84)">Incidents by Source</text>
   </g>
  </g>
 </g>
</svg>
