<?xml version="1.0" encoding="utf-8" standalone="no"?>
<!DOCTYPE svg PUBLIC "-//W3C//DTD SVG 1.1//EN"
  "http://www.w3.org/Graphics/SVG/1.1/DTD/svg11.dtd">
<svg xmlns:xlink="http://www.w3.org/1999/xlink" width="720pt" height="432pt" viewBox="0 0 720 432" xmlns="http://www.w3.org/2000/svg" version="1.1">
 <metadata>
  <rdf:RDF xmlns:dc="http://purl.org/dc/elements/1.1/" xmlns:cc="http://creativecommons.org/ns#" xmlns:rdf="http://www.w3.org/1999/02/22-rdf-syntax-ns#">
   <cc:Work>
    <dc:type rdf:resource="http://purl.org/dc/dcmitype/StillImage"/>
    <dc:date>2025-10-13T01:08:07.584366</dc:date>
    <dc:format>image/svg+xml</dc:format>
    <dc:creator>
     <cc:Agent>
      <dc:title>Matplotlib v3.7.5, https://matplotlib.org/</dc:title>
     </cc:Agent>
    </dc:creator>
   </cc:Work>
  </rdf:RDF>
 </metadata>
 <defs>
  <style type="text/css">*{stroke-linejoin: round; stroke-linecap: butt}</style>
 </defs>
 <g id="figure_1">
  <g id="patch_1">
   <path d="M 0 432 
L 720 432 
L 720 0 
L 0 0 
z
" style="fill: #ffffff"/>
  </g>
  <g id="axes_1">
   <g id="matplotlib.axis_1"/>
   <g id="matplotlib.axis_2"/>
   <g id="patch_2">
    <path d="M 502.056 218.16 
C 502.056 200.714906 498.625137 183.438905 491.959145 167.317619 
C 485.293154 151.196332 475.52126 136.542284 463.200965 124.191509 
C 450.88067 111.840734 436.250812 102.032662 420.146046 95.326857 
C 404.04128 88.621052 386.773809 85.147511 369.328768 85.104406 
C 351.883727 85.061301 334.599302 88.449467 318.461594 95.075604 
C 302.323885 101.701741 287.645737 111.437395 275.264557 123.727135 
C 262.883378 136.016875 253.039186 150.622454 246.293608 166.710601 
C 239.548031 182.798749 236.031835 200.057584 235.945625 217.502466 
C 235.859415 234.947347 239.204862 252.240091 245.791104 268.394123 
C 252.377346 284.548154 262.076703 299.250314 274.335813 311.661822 
C 286.594922 324.073331 301.176132 333.953581 317.247563 340.738891 
C 333.318994 347.5242 350.569088 351.08303 368.013703 351.212344 
C 385.458318 351.341659 402.759276 348.03895 418.929532 341.492643 
C 435.099788 334.946337 449.825869 325.283337 462.267631 313.054932 
C 474.709393 300.826527 484.625641 286.269775 491.450641 270.215159 
C 498.275641 254.160543 501.877083 236.919295 502.049501 219.475053 
L 369 218.16 
z
" style="fill: #f77189"/>
   </g>
   <g id="patch_3">
    <path d="M 502.049501 219.475053 
C 502.051646 219.258056 502.05326 219.041055 502.054343 218.82405 
C 502.055426 218.607046 502.055978 218.390039 502.055999 218.173032 
L 369 218.16 
z
" style="fill: #bb9832"/>
   </g>
   <g id="patch_4">
    <path d="M 502.055999 218.173032 
C 502.056 218.170862 502.056 218.168692 502.056 218.166522 
C 502.056 218.164351 502.056 218.162181 502.056 218.160011 
L 369 218.16 
z
" style="fill: #50b131"/>
   </g>
   <g id="text_1">
    <text style="fill: #262626; font: 10px 'Arial', 'Liberation Sans', 'DejaVu Sans', 'Bitstream Vera Sans', sans-serif; text-anchor: end" x="222.640187" y="220.02265" transform="rotate(-0 222.640187 220.02265)">newsapi</text>
   </g>
   <g id="text_2">
    <text style="fill: #262626; font: 10px 'Arial', 'Liberation Sans', 'DejaVu Sans', 'Bitstream Vera Sans', sans-serif; text-anchor: middle" x="289.167375" y="220.351417" transform="rotate(-0 289.167375 220.351417)">99.8%</text>
   </g>
   <g id="text_3">
    <text style="fill: #262626; font: 10px 'Arial', 'Liberation Sans', 'DejaVu Sans', 'Bitstream Vera Sans', sans-serif; text-anchor: start" x="515.359777" y="221.476393" transform="rotate(-0 515.359777 221.476393)">chicago_pd</text>
   </g>
   <g id="text_4">
    <text style="fill: #262626; font: 10px 'Arial', 'Liberation Sans', 'DejaVu Sans', 'Bitstream Vera Sans', sans-serif; text-anchor: middle" x="448.832606" y="221.144368" transform="rotate(-0 448.832606 221.144368)">0.2%</text>
   </g>
   <g id="text_5">
    <text style="fill: #262626; font: 10px 'Arial', 'Liberation Sans', 'DejaVu Sans', 'Bitstream Vera Sans', sans-serif; text-anchor: start" x="515.3616" y="220.753111" transform="rotate(-0 515.3616 220.753111)">chicago_police</text>
   </g>
   <g id="text_6">
    <text style="fill: #262626; font: 10px 'Arial', 'Liberation Sans', 'DejaVu Sans', 'Bitstream Vera Sans', sans-serif; text-anchor: middle" x="448.8336" y="220.74985" transform="rotate(-0 448.8336 220.74985)">0.0%</text>
   </g>
   <g id="text_7">
    <text style="fill: #262626; font: 12px 'Arial', 'Liberation Sans', 'DejaVu Sans', 'Bitstream Vera Sans', sans-serif; text-anchor: middle" x="369" y="45.84" transform="rotate(-0 369 45.84)">Incidents by Source</text>
   </g>
  </g>
 </g>
</svg>
