<?xml version="1.0" encoding="utf-8" standalone="no"?>
<!DOCTYPE svg PUBLIC "-//W3C//DTD SVG 1.1//EN"
  "http://www.w3.org/Graphics/SVG/1.1/DTD/svg11.dtd">
<svg xmlns:xlink="http://www.w3.org/1999/xlink" width="720pt" height="432pt" viewBox="0 0 720 432" xmlns="http://www.w3.org/2000/svg" version="1.1">
 <metadata>
  <rdf:RDF xmlns:dc="http://purl.org/dc/elements/1.1/" xmlns:cc="http://creativecommons.org/ns#" xmlns:rdf="http://www.w3.org/1999/02/22-rdf-syntax-ns#">
   <cc:Work>
    <dc:type rdf:resource="http://purl.org/dc/dcmitype/StillImage"/>
    <dc:date>2025-12-14T18:21:23.742847</dc:date>
    <dc:format>image/svg+xml</dc:format>
    <dc:creator>
     <cc:Agent>
      <dc:title>Matplotlib v3.7.5, https://matplotlib.org/</dc:title>
     </cc:Agent>
    </dc:creator>
   </cc:Work>
  </rdf:RDF>
 </metadata>
 <defs>
  <style type="text/css">*{stroke-linejoin: round; stroke-linecap: butt}</style>
 </defs>
 <g id="figure_1">
  <g id="patch_1">
   <path d="M 0 432 
L 720 432 
L 720 0 
L 0 0 
z
" style="fill: #ffffff"/>
  </g>
  <g id="axes_1">
   <g id="matplotlib.axis_1"/>
   <g id="matplotlib.axis_2"/>
   <g id="patch_2">
    <path d="M 502.056 218.16 
C 502.056 200.710564 498.623428 183.430347 491.954214 167.305695 
C 485.285 151.181043 475.508496 136.5247 463.182739 124.173241 
C 450.856981 111.821782 436.221034 102.01477 420.110309 95.311982 
C 403.999584 88.609195 386.726555 85.140636 369.277157 85.104289 
C 351.827758 85.067941 334.540429 88.464511 318.40192 95.100123 
C 302.26341 101.735735 287.586735 111.481688 275.209628 123.781691 
C 262.832521 136.081693 252.995044 150.69718 246.258712 166.793909 
C 239.52238 182.890637 236.017849 200.156403 235.945155 217.605688 
C 235.87246 235.054973 239.233013 252.34934 245.834994 268.501636 
C 252.436974 284.653932 262.152335 299.350877 274.42653 311.753578 
C 286.700724 324.156279 301.295687 334.024179 317.378349 340.794026 
C 333.461011 347.563872 350.71944 351.104361 368.168535 351.213402 
C 385.617631 351.322443 402.91896 347.997923 419.084973 341.429601 
C 435.250987 334.86128 449.968137 325.176554 462.396378 312.928221 
C 474.824619 300.679889 484.722899 286.105512 491.526232 270.036986 
C 498.329564 253.968461 501.905994 236.717445 502.051381 219.268614 
L 369 218.16 
z
" style="fill: #f77189"/>
   </g>
   <g id="patch_3">
    <path d="M 502.051381 219.268614 
C 502.052906 219.085678 502.054053 218.90274 502.054822 218.719799 
C 502.055592 218.536859 502.055984 218.353917 502.056 218.170975 
L 369 218.16 
z
" style="fill: #bb9832"/>
   </g>
   <g id="patch_4">
    <path d="M 502.056 218.170975 
C 502.056 218.169146 502.056 218.167316 502.056 218.165487 
C 502.056 218.163657 502.056 218.161828 502.056 218.159999 
L 369 218.16 
z
" style="fill: #50b131"/>
   </g>
   <g id="text_1">
    <text style="fill: #262626; font: 10px 'Arial', 'Liberation Sans', 'DejaVu Sans', 'Bitstream Vera Sans', sans-serif; text-anchor: end" x="222.63967" y="220.136194" transform="rotate(-0 222.63967 220.136194)">newsapi</text>
   </g>
   <g id="text_2">
    <text style="fill: #262626; font: 10px 'Arial', 'Liberation Sans', 'DejaVu Sans', 'Bitstream Vera Sans', sans-serif; text-anchor: middle" x="289.167093" y="220.41335" transform="rotate(-0 289.167093 220.41335)">99.9%</text>
   </g>
   <g id="text_3">
    <text style="fill: #262626; font: 10px 'Arial', 'Liberation Sans', 'DejaVu Sans', 'Bitstream Vera Sans', sans-serif; text-anchor: start" x="515.360305" y="221.361717" transform="rotate(-0 515.360305 221.361717)">chicago_pd</text>
   </g>
   <g id="text_4">
    <text style="fill: #262626; font: 10px 'Arial', 'Liberation Sans', 'DejaVu Sans', 'Bitstream Vera Sans', sans-serif; text-anchor: middle" x="448.832893" y="221.081817" transform="rotate(-0 448.832893 221.081817)">0.1%</text>
   </g>
   <g id="text_5">
    <text style="fill: #262626; font: 10px 'Arial', 'Liberation Sans', 'DejaVu Sans', 'Bitstream Vera Sans', sans-serif; text-anchor: start" x="515.3616" y="220.751973" transform="rotate(-0 515.3616 220.751973)">chicago_police</text>
   </g>
   <g id="text_6">
    <text style="fill: #262626; font: 10px 'Arial', 'Liberation Sans', 'DejaVu Sans', 'Bitstream Vera Sans', sans-serif; text-anchor: middle" x="448.8336" y="220.74923" transform="rotate(-0 448.8336 220.74923)">0.0%</text>
   </g>
   <g id="text_7">
    <text style="fill: #262626; font: 12px 'Arial', 'Liberation Sans', 'DejaVu Sans', 'Bitstream Vera Sans', sans-serif; text-anchor: middle" x="369" y="45.84" transform="rotate(-0 369 45.84)">Incidents by Source</text>
   </g>
  </g>
 </g>
</svg>
