<?xml version="1.0" encoding="utf-8" standalone="no"?>
<!DOCTYPE svg PUBLIC "-//W3C//DTD SVG 1.1//EN"
  "http://www.w3.org/Graphics/SVG/1.1/DTD/svg11.dtd">
<svg xmlns:xlink="http://www.w3.org/1999/xlink" width="720pt" height="432pt" viewBox="0 0 720 432" xmlns="http://www.w3.org/2000/svg" version="1.1">
 <metadata>
  <rdf:RDF xmlns:dc="http://purl.org/dc/elements/1.1/" xmlns:cc="http://creativecommons.org/ns#" xmlns:rdf="http://www.w3.org/1999/02/22-rdf-syntax-ns#">
   <cc:Work>
    <dc:type rdf:resource="http://purl.org/dc/dcmitype/StillImage"/>
    <dc:date>2025-12-26T12:31:17.829453</dc:date>
    <dc:format>image/svg+xml</dc:format>
    <dc:creator>
     <cc:Agent>
      <dc:title>Matplotlib v3.7.5, https://matplotlib.org/</dc:title>
     </cc:Agent>
    </dc:creator>
   </cc:Work>
  </rdf:RDF>
 </metadata>
 <defs>
  <style type="text/css">*{stroke-linejoin: round; stroke-linecap: butt}</style>
 </defs>
 <g id="figure_1">
  <g id="patch_1">
   <path d="M 0 432 
L 720 432 
L 720 0 
L 0 0 
z
" style="fill: #ffffff"/>
  </g>
  <g id="axes_1">
   <g id="matplotlib.axis_1"/>
   <g id="matplotlib.axis_2"/>
   <g id="patch_2">
    <path d="M 502.056 218.16 
C 502.056 200.709735 498.623102 183.428713 491.953273 167.303419 
C 485.283443 151.178124 475.506059 136.521343 463.179258 124.169753 
C 450.852458 111.818164 436.215349 102.011355 420.103486 95.309144 
C 403.991623 88.606933 386.717533 85.139325 369.267303 85.104268 
C 351.817072 85.069212 334.52919 88.467386 318.390528 95.104807 
C 302.251866 101.742228 287.575472 111.490149 275.199144 123.79211 
C 262.822816 136.094072 252.986621 150.71145 246.252056 166.809817 
C 239.51749 182.908183 236.015187 200.175271 235.945074 217.625396 
C 235.874961 235.07552 239.238398 252.370195 245.843384 268.522159 
C 252.44837 284.674122 262.166786 299.370069 274.44386 311.771086 
C 286.720933 324.172103 301.318522 334.037644 317.403326 340.804537 
C 333.48813 347.571429 350.748148 351.108414 368.198097 351.213584 
C 385.648045 351.318753 402.949442 347.990067 419.114642 341.417543 
C 435.279842 334.845018 449.995283 325.156145 462.420939 312.904009 
C 474.846595 300.651873 484.741442 286.074134 491.540634 270.002956 
C 498.339827 253.931779 501.911479 236.678902 502.051704 219.2292 
L 369 218.16 
z
" style="fill: #f77189"/>
   </g>
   <g id="patch_3">
    <path d="M 502.051704 219.2292 
C 502.053122 219.05277 502.054189 218.876338 502.054905 218.699905 
C 502.055621 218.523471 502.055986 218.347037 502.056 218.170602 
L 369 218.16 
z
" style="fill: #bb9832"/>
   </g>
   <g id="patch_4">
    <path d="M 502.056 218.170602 
C 502.056 218.168837 502.056 218.167073 502.056 218.165309 
C 502.056 218.163544 502.056 218.16178 502.056 218.160016 
L 369 218.16 
z
" style="fill: #50b131"/>
   </g>
   <g id="text_1">
    <text style="fill: #262626; font: 10px 'Arial', 'Liberation Sans', 'DejaVu Sans', 'Bitstream Vera Sans', sans-serif; text-anchor: end" x="222.639581" y="220.157873" transform="rotate(-0 222.639581 220.157873)">newsapi</text>
   </g>
   <g id="text_2">
    <text style="fill: #262626; font: 10px 'Arial', 'Liberation Sans', 'DejaVu Sans', 'Bitstream Vera Sans', sans-serif; text-anchor: middle" x="289.167044" y="220.425175" transform="rotate(-0 289.167044 220.425175)">99.9%</text>
   </g>
   <g id="text_3">
    <text style="fill: #262626; font: 10px 'Arial', 'Liberation Sans', 'DejaVu Sans', 'Bitstream Vera Sans', sans-serif; text-anchor: start" x="515.360395" y="221.339833" transform="rotate(-0 515.360395 221.339833)">chicago_pd</text>
   </g>
   <g id="text_4">
    <text style="fill: #262626; font: 10px 'Arial', 'Liberation Sans', 'DejaVu Sans', 'Bitstream Vera Sans', sans-serif; text-anchor: middle" x="448.832943" y="221.06988" transform="rotate(-0 448.832943 221.06988)">0.1%</text>
   </g>
   <g id="text_5">
    <text style="fill: #262626; font: 10px 'Arial', 'Liberation Sans', 'DejaVu Sans', 'Bitstream Vera Sans', sans-serif; text-anchor: start" x="515.3616" y="220.751777" transform="rotate(-0 515.3616 220.751777)">chicago_police</text>
   </g>
   <g id="text_6">
    <text style="fill: #262626; font: 10px 'Arial', 'Liberation Sans', 'DejaVu Sans', 'Bitstream Vera Sans', sans-serif; text-anchor: middle" x="448.8336" y="220.749123" transform="rotate(-0 448.8336 220.749123)">0.0%</text>
   </g>
   <g id="text_7">
    <text style="fill: #262626; font: 12px 'Arial', 'Liberation Sans', 'DejaVu Sans', 'Bitstream Vera Sans', sans-serif; text-anchor: middle" x="369" y="45.84" transform="rotate(-0 369 45.84)">Incidents by Source</text>
   </g>
  </g>
 </g>
</svg>
