<?xml version="1.0" encoding="utf-8" standalone="no"?>
<!DOCTYPE svg PUBLIC "-//W3C//DTD SVG 1.1//EN"
  "http://www.w3.org/Graphics/SVG/1.1/DTD/svg11.dtd">
<svg xmlns:xlink="http://www.w3.org/1999/xlink" width="720pt" height="432pt" viewBox="0 0 720 432" xmlns="http://www.w3.org/2000/svg" version="1.1">
 <metadata>
  <rdf:RDF xmlns:dc="http://purl.org/dc/elements/1.1/" xmlns:cc="http://creativecommons.org/ns#" xmlns:rdf="http://www.w3.org/1999/02/22-rdf-syntax-ns#">
   <cc:Work>
    <dc:type rdf:resource="http://purl.org/dc/dcmitype/StillImage"/>
    <dc:date>2026-07-05T19:09:10.272916</dc:date>
    <dc:format>image/svg+xml</dc:format>
    <dc:creator>
     <cc:Agent>
      <dc:title>Matplotlib v3.7.5, https://matplotlib.org/</dc:title>
     </cc:Agent>
    </dc:creator>
   </cc:Work>
  </rdf:RDF>
 </metadata>
 <defs>
  <style type="text/css">*{stroke-linejoin: round; stroke-linecap: butt}</style>
 </defs>
 <g id="figure_1">
  <g id="patch_1">
   <path d="M 0 432 
L 720 432 
L 720 0 
L 0 0 
z
" style="fill: #ffffff"/>
  </g>
  <g id="axes_1">
   <g id="matplotlib.axis_1"/>
   <g id="matplotlib.axis_2"/>
   <g id="patch_2">
    <path d="M 502.056 218.16 
C 502.056 200.702554 498.620277 183.414562 491.945116 167.283702 
C 485.269955 151.152843 475.484944 136.492269 463.149109 124.139553 
C 450.813274 111.786837 436.166095 101.981787 420.044379 95.284573 
C 403.922663 88.587359 386.639385 85.127998 369.181956 85.104124 
C 351.724526 85.080251 334.431852 88.49233 318.291879 95.145425 
C 302.151906 101.798521 287.477965 111.563474 275.108391 123.882405 
C 262.738817 136.201336 252.913746 150.835093 246.194492 166.947635 
C 239.475238 183.060178 235.992244 200.338709 235.944498 217.796089 
C 235.896751 235.253469 239.285179 252.550794 245.916196 268.69985 
C 252.547214 284.848906 262.292091 299.536187 274.594095 311.922595 
C 286.896099 324.309004 301.516406 334.154078 317.619745 340.89536 
C 333.723084 347.636642 350.996836 351.143261 368.454134 351.21488 
C 385.911433 351.2865 403.213375 347.92173 419.371484 341.312802 
C 435.529593 334.703875 450.230187 324.979092 462.633406 312.694038 
C 475.036626 300.408984 484.901685 285.802154 491.664982 269.708049 
C 498.428279 253.613944 501.958517 236.345004 502.054009 218.887819 
L 369 218.16 
z
" style="fill: #f77189"/>
   </g>
   <g id="patch_3">
    <path d="M 502.054009 218.887819 
C 502.054666 218.767717 502.055161 218.647615 502.055492 218.527511 
C 502.055824 218.407408 502.055993 218.287304 502.056 218.167201 
L 369 218.16 
z
" style="fill: #bb9832"/>
   </g>
   <g id="patch_4">
    <path d="M 502.056 218.167201 
C 502.056 218.166 502.056 218.164799 502.056 218.163598 
C 502.056 218.162397 502.056 218.161196 502.056 218.159994 
L 369 218.16 
z
" style="fill: #50b131"/>
   </g>
   <g id="text_1">
    <text style="fill: #262626; font: 10px 'Arial', 'Liberation Sans', 'DejaVu Sans', 'Bitstream Vera Sans', sans-serif; text-anchor: end" x="222.638947" y="220.345635" transform="rotate(-0 222.638947 220.345635)">newsapi</text>
   </g>
   <g id="text_2">
    <text style="fill: #262626; font: 10px 'Arial', 'Liberation Sans', 'DejaVu Sans', 'Bitstream Vera Sans', sans-serif; text-anchor: middle" x="289.166699" y="220.527591" transform="rotate(-0 289.166699 220.527591)">99.9%</text>
   </g>
   <g id="text_3">
    <text style="fill: #262626; font: 10px 'Arial', 'Liberation Sans', 'DejaVu Sans', 'Bitstream Vera Sans', sans-serif; text-anchor: start" x="515.361042" y="221.1502" transform="rotate(-0 515.361042 221.1502)">chicago_pd</text>
   </g>
   <g id="text_4">
    <text style="fill: #262626; font: 10px 'Arial', 'Liberation Sans', 'DejaVu Sans', 'Bitstream Vera Sans', sans-serif; text-anchor: middle" x="448.833295" y="220.966444" transform="rotate(-0 448.833295 220.966444)">0.1%</text>
   </g>
   <g id="text_5">
    <text style="fill: #262626; font: 10px 'Arial', 'Liberation Sans', 'DejaVu Sans', 'Bitstream Vera Sans', sans-serif; text-anchor: start" x="515.3616" y="220.749895" transform="rotate(-0 515.3616 220.749895)">chicago_police</text>
   </g>
   <g id="text_6">
    <text style="fill: #262626; font: 10px 'Arial', 'Liberation Sans', 'DejaVu Sans', 'Bitstream Vera Sans', sans-serif; text-anchor: middle" x="448.8336" y="220.748096" transform="rotate(-0 448.8336 220.748096)">0.0%</text>
   </g>
   <g id="text_7">
    <text style="fill: #262626; font: 12px 'Arial', 'Liberation Sans', 'DejaVu Sans', 'Bitstream Vera Sans', sans-serif; text-anchor: middle" x="369" y="45.84" transform="rotate(-0 369 45.84)">Incidents by Source</text>
   </g>
  </g>
 </g>
</svg>
