<?xml version="1.0" encoding="utf-8" standalone="no"?>
<!DOCTYPE svg PUBLIC "-//W3C//DTD SVG 1.1//EN"
  "http://www.w3.org/Graphics/SVG/1.1/DTD/svg11.dtd">
<svg xmlns:xlink="http://www.w3.org/1999/xlink" width="720pt" height="432pt" viewBox="0 0 720 432" xmlns="http://www.w3.org/2000/svg" version="1.1">
 <metadata>
  <rdf:RDF xmlns:dc="http://purl.org/dc/elements/1.1/" xmlns:cc="http://creativecommons.org/ns#" xmlns:rdf="http://www.w3.org/1999/02/22-rdf-syntax-ns#">
   <cc:Work>
    <dc:type rdf:resource="http://purl.org/dc/dcmitype/StillImage"/>
    <dc:date>2026-04-30T19:12:45.072126</dc:date>
    <dc:format>image/svg+xml</dc:format>
    <dc:creator>
     <cc:Agent>
      <dc:title>Matplotlib v3.7.5, https://matplotlib.org/</dc:title>
     </cc:Agent>
    </dc:creator>
   </cc:Work>
  </rdf:RDF>
 </metadata>
 <defs>
  <style type="text/css">*{stroke-linejoin: round; stroke-linecap: butt}</style>
 </defs>
 <g id="figure_1">
  <g id="patch_1">
   <path d="M 0 432 
L 720 432 
L 720 0 
L 0 0 
z
" style="fill: #ffffff"/>
  </g>
  <g id="axes_1">
   <g id="matplotlib.axis_1"/>
   <g id="matplotlib.axis_2"/>
   <g id="patch_2">
    <path d="M 502.056 218.16 
C 502.056 200.704628 498.621093 183.41865 491.947472 167.289398 
C 485.273852 151.160145 475.491044 136.500667 463.157819 124.148276 
C 450.824594 111.795885 436.180324 101.990326 420.061454 95.291668 
C 403.942584 88.59301 386.66196 85.131265 369.206609 85.10416 
C 351.751259 85.077056 334.459967 88.485117 318.320372 95.133684 
C 302.180776 101.782251 287.506124 111.542284 275.134597 123.856313 
C 262.76307 136.170343 252.934783 150.799369 246.211104 166.907818 
C 239.487425 183.016267 235.998851 200.291495 235.944642 217.746782 
C 235.890432 235.202069 239.27164 252.498632 245.895137 268.648532 
C 252.518635 284.798432 262.255869 299.488221 274.550673 311.878855 
C 286.845477 324.269488 301.459224 334.120479 317.557213 340.869164 
C 333.655202 347.617848 350.924992 351.133243 368.380174 351.214556 
C 385.835356 351.29587 403.137148 347.941525 419.297314 341.343113 
C 435.45748 334.744701 450.162371 325.030289 462.572081 312.75474 
C 474.981791 300.479191 484.855462 285.880758 491.629135 269.793267 
C 498.402809 253.705777 501.945015 236.441467 502.053433 218.986432 
L 369 218.16 
z
" style="fill: #f77189"/>
   </g>
   <g id="patch_3">
    <path d="M 502.053433 218.986432 
C 502.05428 218.850058 502.054918 218.713683 502.055346 218.577307 
C 502.055773 218.440931 502.055991 218.304555 502.056 218.168178 
L 369 218.16 
z
" style="fill: #bb9832"/>
   </g>
   <g id="patch_4">
    <path d="M 502.056 218.168178 
C 502.056 218.166814 502.056 218.16545 502.056 218.164087 
C 502.056 218.162723 502.056 218.161359 502.056 218.159995 
L 369 218.16 
z
" style="fill: #50b131"/>
   </g>
   <g id="text_1">
    <text style="fill: #262626; font: 10px 'Arial', 'Liberation Sans', 'DejaVu Sans', 'Bitstream Vera Sans', sans-serif; text-anchor: end" x="222.639106" y="220.291398" transform="rotate(-0 222.639106 220.291398)">newsapi</text>
   </g>
   <g id="text_2">
    <text style="fill: #262626; font: 10px 'Arial', 'Liberation Sans', 'DejaVu Sans', 'Bitstream Vera Sans', sans-serif; text-anchor: middle" x="289.166785" y="220.498007" transform="rotate(-0 289.166785 220.498007)">99.9%</text>
   </g>
   <g id="text_3">
    <text style="fill: #262626; font: 10px 'Arial', 'Liberation Sans', 'DejaVu Sans', 'Bitstream Vera Sans', sans-serif; text-anchor: start" x="515.36088" y="221.204975" transform="rotate(-0 515.36088 221.204975)">chicago_pd</text>
   </g>
   <g id="text_4">
    <text style="fill: #262626; font: 10px 'Arial', 'Liberation Sans', 'DejaVu Sans', 'Bitstream Vera Sans', sans-serif; text-anchor: middle" x="448.833207" y="220.996322" transform="rotate(-0 448.833207 220.996322)">0.1%</text>
   </g>
   <g id="text_5">
    <text style="fill: #262626; font: 10px 'Arial', 'Liberation Sans', 'DejaVu Sans', 'Bitstream Vera Sans', sans-serif; text-anchor: start" x="515.3616" y="220.750433" transform="rotate(-0 515.3616 220.750433)">chicago_police</text>
   </g>
   <g id="text_6">
    <text style="fill: #262626; font: 10px 'Arial', 'Liberation Sans', 'DejaVu Sans', 'Bitstream Vera Sans', sans-serif; text-anchor: middle" x="448.8336" y="220.74839" transform="rotate(-0 448.8336 220.74839)">0.0%</text>
   </g>
   <g id="text_7">
    <text style="fill: #262626; font: 12px 'Arial', 'Liberation Sans', 'DejaVu Sans', 'Bitstream Vera Sans', sans-serif; text-anchor: middle" x="369" y="45.84" transform="rotate(-0 369 45.84)">Incidents by Source</text>
   </g>
  </g>
 </g>
</svg>
