<?xml version="1.0" encoding="utf-8" standalone="no"?>
<!DOCTYPE svg PUBLIC "-//W3C//DTD SVG 1.1//EN"
  "http://www.w3.org/Graphics/SVG/1.1/DTD/svg11.dtd">
<svg xmlns:xlink="http://www.w3.org/1999/xlink" width="720pt" height="432pt" viewBox="0 0 720 432" xmlns="http://www.w3.org/2000/svg" version="1.1">
 <metadata>
  <rdf:RDF xmlns:dc="http://purl.org/dc/elements/1.1/" xmlns:cc="http://creativecommons.org/ns#" xmlns:rdf="http://www.w3.org/1999/02/22-rdf-syntax-ns#">
   <cc:Work>
    <dc:type rdf:resource="http://purl.org/dc/dcmitype/StillImage"/>
    <dc:date>2024-12-10T01:05:12.703169</dc:date>
    <dc:format>image/svg+xml</dc:format>
    <dc:creator>
     <cc:Agent>
      <dc:title>Matplotlib v3.7.5, https://matplotlib.org/</dc:title>
     </cc:Agent>
    </dc:creator>
   </cc:Work>
  </rdf:RDF>
 </metadata>
 <defs>
  <style type="text/css">*{stroke-linejoin: round; stroke-linecap: butt}</style>
 </defs>
 <g id="figure_1">
  <g id="patch_1">
   <path d="M 0 432 
L 720 432 
L 720 0 
L 0 0 
z
" style="fill: #ffffff"/>
  </g>
  <g id="axes_1">
   <g id="matplotlib.axis_1"/>
   <g id="matplotlib.axis_2"/>
   <g id="patch_2">
    <path d="M 502.056 218.16 
C 502.056 204.351466 499.906428 190.626715 495.684601 177.479404 
C 491.462774 164.332093 485.219924 151.921763 477.180595 140.694796 
C 469.141267 129.467828 459.403017 119.56046 448.316114 111.329044 
C 437.229212 103.097628 424.928196 96.642052 411.855514 92.194513 
C 398.782833 87.746973 385.097122 85.36144 371.290634 85.123719 
C 357.484147 84.885997 343.724423 86.798971 330.50638 90.793834 
C 317.288336 94.788697 304.772372 100.816971 293.408666 108.661829 
C 282.04496 116.506688 271.971411 126.072934 263.550348 137.016485 
C 255.129285 147.960036 248.462897 160.148092 243.790962 173.14227 
C 239.119028 186.136447 236.498242 199.779061 236.022869 213.57941 
C 235.547496 227.379759 237.223305 241.170376 240.99002 254.455235 
C 244.756734 267.740094 250.568646 280.357983 258.216709 291.855059 
C 265.864773 303.352134 275.256179 313.588878 286.053135 322.197093 
C 296.850091 330.805308 308.921575 337.680532 321.833397 342.575476 
C 334.745218 347.47042 348.340693 350.325683 362.130813 351.038566 
C 375.920933 351.75145 389.738356 350.313302 403.086092 346.775852 
L 369 218.16 
z
" style="fill: #f77189"/>
   </g>
   <g id="patch_3">
    <path d="M 403.086092 346.775852 
C 431.45378 339.257777 456.552532 322.56163 474.449656 299.30351 
C 492.346779 276.04539 502.056003 247.507001 502.056 218.159988 
L 369 218.16 
z
" style="fill: #bb9832"/>
   </g>
   <g id="text_1">
    <text style="fill: #262626; font: 10px 'Arial', 'Liberation Sans', 'DejaVu Sans', 'Bitstream Vera Sans', sans-serif; text-anchor: end" x="253.005383" y="131.488071" transform="rotate(-0 253.005383 131.488071)">newsapi</text>
   </g>
   <g id="text_2">
    <text style="fill: #262626; font: 10px 'Arial', 'Liberation Sans', 'DejaVu Sans', 'Bitstream Vera Sans', sans-serif; text-anchor: middle" x="305.730209" y="172.059828" transform="rotate(-0 305.730209 172.059828)">79.1%</text>
   </g>
   <g id="text_3">
    <text style="fill: #262626; font: 10px 'Arial', 'Liberation Sans', 'DejaVu Sans', 'Bitstream Vera Sans', sans-serif; text-anchor: start" x="484.994621" y="310.003799" transform="rotate(-0 484.994621 310.003799)">chicago_pd</text>
   </g>
   <g id="text_4">
    <text style="fill: #262626; font: 10px 'Arial', 'Liberation Sans', 'DejaVu Sans', 'Bitstream Vera Sans', sans-serif; text-anchor: middle" x="432.269793" y="269.432044" transform="rotate(-0 432.269793 269.432044)">20.9%</text>
   </g>
   <g id="text_5">
    <text style="fill: #262626; font: 12px 'Arial', 'Liberation Sans', 'DejaVu Sans', 'Bitstream Vera Sans', sans-serif; text-anchor: middle" x="369" y="45.84" transform="rotate(-0 369 45.84)">Incidents by Source</text>
   </g>
  </g>
 </g>
</svg>
