<?xml version="1.0" encoding="utf-8" standalone="no"?>
<!DOCTYPE svg PUBLIC "-//W3C//DTD SVG 1.1//EN"
  "http://www.w3.org/Graphics/SVG/1.1/DTD/svg11.dtd">
<svg xmlns:xlink="http://www.w3.org/1999/xlink" width="720pt" height="432pt" viewBox="0 0 720 432" xmlns="http://www.w3.org/2000/svg" version="1.1">
 <metadata>
  <rdf:RDF xmlns:dc="http://purl.org/dc/elements/1.1/" xmlns:cc="http://creativecommons.org/ns#" xmlns:rdf="http://www.w3.org/1999/02/22-rdf-syntax-ns#">
   <cc:Work>
    <dc:type rdf:resource="http://purl.org/dc/dcmitype/StillImage"/>
    <dc:date>2026-04-26T18:43:21.343417</dc:date>
    <dc:format>image/svg+xml</dc:format>
    <dc:creator>
     <cc:Agent>
      <dc:title>Matplotlib v3.7.5, https://matplotlib.org/</dc:title>
     </cc:Agent>
    </dc:creator>
   </cc:Work>
  </rdf:RDF>
 </metadata>
 <defs>
  <style type="text/css">*{stroke-linejoin: round; stroke-linecap: butt}</style>
 </defs>
 <g id="figure_1">
  <g id="patch_1">
   <path d="M 0 432 
L 720 432 
L 720 0 
L 0 0 
z
" style="fill: #ffffff"/>
  </g>
  <g id="axes_1">
   <g id="matplotlib.axis_1"/>
   <g id="matplotlib.axis_2"/>
   <g id="patch_2">
    <path d="M 502.056 218.16 
C 502.056 200.704813 498.621166 183.419014 491.947682 167.289904 
C 485.274198 151.160795 475.491586 136.501414 463.158594 124.149052 
C 450.825601 111.79669 436.181589 101.991085 420.062972 95.292299 
C 403.944355 88.593512 386.663967 85.131556 369.208802 85.104164 
C 351.753636 85.076772 334.462468 88.484476 318.322906 95.13264 
C 302.183344 101.780805 287.508629 111.5404 275.136928 123.853993 
C 262.765228 136.167587 252.936655 150.796192 246.212582 166.904277 
C 239.488509 183.012362 235.999439 200.287296 235.944655 217.742397 
C 235.889871 235.197498 239.270437 252.493993 245.893265 268.643968 
C 252.516094 284.793943 262.252649 299.483955 274.546812 311.874964 
C 286.840976 324.265973 301.454139 334.11749 317.551653 340.866832 
C 333.649166 347.616175 350.918603 351.13235 368.373597 351.214525 
C 385.82859 351.296701 403.130369 347.943283 419.290717 341.345806 
C 435.451065 334.74833 450.156339 325.03484 462.566625 312.760136 
C 474.976912 300.485433 484.851349 285.887747 491.625944 269.800845 
C 498.40054 253.713943 501.943811 236.450045 502.053379 218.995202 
L 369 218.16 
z
" style="fill: #f77189"/>
   </g>
   <g id="patch_3">
    <path d="M 502.053379 218.995202 
C 502.054244 218.857383 502.054895 218.719564 502.055332 218.581743 
C 502.055768 218.443922 502.055991 218.306101 502.056 218.16828 
L 369 218.16 
z
" style="fill: #bb9832"/>
   </g>
   <g id="patch_4">
    <path d="M 502.056 218.16828 
C 502.056 218.166902 502.056 218.165524 502.056 218.164145 
C 502.056 218.162767 502.056 218.161389 502.056 218.160011 
L 369 218.16 
z
" style="fill: #50b131"/>
   </g>
   <g id="text_1">
    <text style="fill: #262626; font: 10px 'Arial', 'Liberation Sans', 'DejaVu Sans', 'Bitstream Vera Sans', sans-serif; text-anchor: end" x="222.639121" y="220.286574" transform="rotate(-0 222.639121 220.286574)">newsapi</text>
   </g>
   <g id="text_2">
    <text style="fill: #262626; font: 10px 'Arial', 'Liberation Sans', 'DejaVu Sans', 'Bitstream Vera Sans', sans-serif; text-anchor: middle" x="289.166793" y="220.495376" transform="rotate(-0 289.166793 220.495376)">99.9%</text>
   </g>
   <g id="text_3">
    <text style="fill: #262626; font: 10px 'Arial', 'Liberation Sans', 'DejaVu Sans', 'Bitstream Vera Sans', sans-serif; text-anchor: start" x="515.360865" y="221.209855" transform="rotate(-0 515.360865 221.209855)">chicago_pd</text>
   </g>
   <g id="text_4">
    <text style="fill: #262626; font: 10px 'Arial', 'Liberation Sans', 'DejaVu Sans', 'Bitstream Vera Sans', sans-serif; text-anchor: middle" x="448.833199" y="220.998983" transform="rotate(-0 448.833199 220.998983)">0.1%</text>
   </g>
   <g id="text_5">
    <text style="fill: #262626; font: 10px 'Arial', 'Liberation Sans', 'DejaVu Sans', 'Bitstream Vera Sans', sans-serif; text-anchor: start" x="515.3616" y="220.750497" transform="rotate(-0 515.3616 220.750497)">chicago_police</text>
   </g>
   <g id="text_6">
    <text style="fill: #262626; font: 10px 'Arial', 'Liberation Sans', 'DejaVu Sans', 'Bitstream Vera Sans', sans-serif; text-anchor: middle" x="448.8336" y="220.748425" transform="rotate(-0 448.8336 220.748425)">0.0%</text>
   </g>
   <g id="text_7">
    <text style="fill: #262626; font: 12px 'Arial', 'Liberation Sans', 'DejaVu Sans', 'Bitstream Vera Sans', sans-serif; text-anchor: middle" x="369" y="45.84" transform="rotate(-0 369 45.84)">Incidents by Source</text>
   </g>
  </g>
 </g>
</svg>
