<?xml version="1.0" encoding="utf-8" standalone="no"?>
<!DOCTYPE svg PUBLIC "-//W3C//DTD SVG 1.1//EN"
  "http://www.w3.org/Graphics/SVG/1.1/DTD/svg11.dtd">
<svg xmlns:xlink="http://www.w3.org/1999/xlink" width="720pt" height="432pt" viewBox="0 0 720 432" xmlns="http://www.w3.org/2000/svg" version="1.1">
 <metadata>
  <rdf:RDF xmlns:dc="http://purl.org/dc/elements/1.1/" xmlns:cc="http://creativecommons.org/ns#" xmlns:rdf="http://www.w3.org/1999/02/22-rdf-syntax-ns#">
   <cc:Work>
    <dc:type rdf:resource="http://purl.org/dc/dcmitype/StillImage"/>
    <dc:date>2025-04-06T18:16:23.172135</dc:date>
    <dc:format>image/svg+xml</dc:format>
    <dc:creator>
     <cc:Agent>
      <dc:title>Matplotlib v3.7.5, https://matplotlib.org/</dc:title>
     </cc:Agent>
    </dc:creator>
   </cc:Work>
  </rdf:RDF>
 </metadata>
 <defs>
  <style type="text/css">*{stroke-linejoin: round; stroke-linecap: butt}</style>
 </defs>
 <g id="figure_1">
  <g id="patch_1">
   <path d="M 0 432 
L 720 432 
L 720 0 
L 0 0 
z
" style="fill: #ffffff"/>
  </g>
  <g id="axes_1">
   <g id="matplotlib.axis_1"/>
   <g id="matplotlib.axis_2"/>
   <g id="patch_2">
    <path d="M 502.056 218.16 
C 502.056 200.759235 498.642551 183.526276 492.009422 167.43938 
C 485.376293 151.352484 475.651419 136.721922 463.386849 124.378222 
C 451.122278 112.034522 436.55456 102.215758 420.510655 95.479311 
C 404.46675 88.742863 387.256099 85.218657 369.855694 85.106752 
C 352.455289 84.994846 335.200734 88.297398 319.071513 94.826933 
C 302.942291 101.356469 288.24949 110.987051 275.827171 123.171985 
C 263.404851 135.356918 253.492605 149.86119 246.653117 165.86144 
C 239.813629 181.861691 236.178813 199.049321 235.955006 216.448647 
C 235.731199 233.847972 238.922718 251.123409 245.34839 267.294289 
C 251.774062 283.465169 261.309954 298.219602 273.414747 310.720026 
C 285.519539 323.220451 299.959764 333.225771 315.915699 340.168017 
C 331.871633 347.110262 349.035532 350.855538 366.433059 351.191237 
C 383.830585 351.526936 401.12619 348.446583 417.338059 342.12504 
C 433.549929 335.803497 448.365382 326.362689 460.943396 314.338538 
C 473.521409 302.314387 483.619388 287.938806 490.664104 272.027847 
C 497.70882 256.116889 501.564401 238.977431 502.011977 221.582423 
L 369 218.16 
z
" style="fill: #f77189"/>
   </g>
   <g id="patch_3">
    <path d="M 502.011977 221.582423 
C 502.026506 221.017786 502.037438 220.453063 502.044775 219.888287 
C 502.052112 219.32351 502.055852 218.758693 502.055996 218.193869 
L 369 218.16 
z
" style="fill: #bb9832"/>
   </g>
   <g id="patch_4">
    <path d="M 502.055996 218.193869 
C 502.055997 218.188221 502.055998 218.182573 502.055999 218.176925 
C 502.056 218.171277 502.056 218.165628 502.056 218.15998 
L 369 218.16 
z
" style="fill: #50b131"/>
   </g>
   <g id="text_1">
    <text style="fill: #262626; font: 10px 'Arial', 'Liberation Sans', 'DejaVu Sans', 'Bitstream Vera Sans', sans-serif; text-anchor: end" x="222.650507" y="218.863449" transform="rotate(-0 222.650507 218.863449)">newsapi</text>
   </g>
   <g id="text_2">
    <text style="fill: #262626; font: 10px 'Arial', 'Liberation Sans', 'DejaVu Sans', 'Bitstream Vera Sans', sans-serif; text-anchor: middle" x="289.173004" y="219.719126" transform="rotate(-0 289.173004 219.719126)">99.6%</text>
   </g>
   <g id="text_3">
    <text style="fill: #262626; font: 10px 'Arial', 'Liberation Sans', 'DejaVu Sans', 'Bitstream Vera Sans', sans-serif; text-anchor: start" x="515.349253" y="222.647053" transform="rotate(-0 515.349253 222.647053)">chicago_pd</text>
   </g>
   <g id="text_4">
    <text style="fill: #262626; font: 10px 'Arial', 'Liberation Sans', 'DejaVu Sans', 'Bitstream Vera Sans', sans-serif; text-anchor: middle" x="448.826865" y="221.782909" transform="rotate(-0 448.826865 221.782909)">0.4%</text>
   </g>
   <g id="text_5">
    <text style="fill: #262626; font: 10px 'Arial', 'Liberation Sans', 'DejaVu Sans', 'Bitstream Vera Sans', sans-serif; text-anchor: start" x="515.361599" y="220.764555" transform="rotate(-0 515.361599 220.764555)">chicago_police</text>
   </g>
   <g id="text_6">
    <text style="fill: #262626; font: 10px 'Arial', 'Liberation Sans', 'DejaVu Sans', 'Bitstream Vera Sans', sans-serif; text-anchor: middle" x="448.833599" y="220.756092" transform="rotate(-0 448.833599 220.756092)">0.0%</text>
   </g>
   <g id="text_7">
    <text style="fill: #262626; font: 12px 'Arial', 'Liberation Sans', 'DejaVu Sans', 'Bitstream Vera Sans', sans-serif; text-anchor: middle" x="369" y="45.84" transform="rotate(-0 369 45.84)">Incidents by Source</text>
   </g>
  </g>
 </g>
</svg>
