<?xml version="1.0" encoding="utf-8" standalone="no"?>
<!DOCTYPE svg PUBLIC "-//W3C//DTD SVG 1.1//EN"
  "http://www.w3.org/Graphics/SVG/1.1/DTD/svg11.dtd">
<svg xmlns:xlink="http://www.w3.org/1999/xlink" width="720pt" height="432pt" viewBox="0 0 720 432" xmlns="http://www.w3.org/2000/svg" version="1.1">
 <metadata>
  <rdf:RDF xmlns:dc="http://purl.org/dc/elements/1.1/" xmlns:cc="http://creativecommons.org/ns#" xmlns:rdf="http://www.w3.org/1999/02/22-rdf-syntax-ns#">
   <cc:Work>
    <dc:type rdf:resource="http://purl.org/dc/dcmitype/StillImage"/>
    <dc:date>2025-09-23T12:27:55.141096</dc:date>
    <dc:format>image/svg+xml</dc:format>
    <dc:creator>
     <cc:Agent>
      <dc:title>Matplotlib v3.7.5, https://matplotlib.org/</dc:title>
     </cc:Agent>
    </dc:creator>
   </cc:Work>
  </rdf:RDF>
 </metadata>
 <defs>
  <style type="text/css">*{stroke-linejoin: round; stroke-linecap: butt}</style>
 </defs>
 <g id="figure_1">
  <g id="patch_1">
   <path d="M 0 432 
L 720 432 
L 720 0 
L 0 0 
z
" style="fill: #ffffff"/>
  </g>
  <g id="axes_1">
   <g id="matplotlib.axis_1"/>
   <g id="matplotlib.axis_2"/>
   <g id="patch_2">
    <path d="M 502.056 218.16 
C 502.056 200.716797 498.625881 183.442633 491.961293 167.322814 
C 485.296706 151.202994 475.526821 136.549946 463.208905 124.199469 
C 450.89099 111.848993 436.263784 102.040459 420.161614 95.33334 
C 404.059445 88.626221 386.794396 85.150512 369.351254 85.104464 
C 351.908112 85.058415 334.624953 88.442921 318.487596 95.06493 
C 302.350238 101.68694 287.67145 111.418108 275.288498 123.703377 
C 262.905547 135.988646 253.058433 150.589906 246.30883 166.674314 
C 239.559226 182.758722 236.037951 200.014535 235.945855 217.457494 
C 235.853758 234.900454 239.192626 252.192487 245.772012 268.34727 
C 252.351397 284.502053 262.043781 299.206479 274.296317 311.621819 
C 286.548854 324.03716 301.124068 333.922785 317.190601 340.714826 
C 333.257135 347.506867 350.503592 351.073684 367.946247 351.211827 
C 385.388903 351.349971 402.689691 348.056764 418.861786 341.520048 
C 435.033881 334.983332 449.763843 325.3298 462.211486 313.110082 
C 474.659128 300.890364 484.583196 286.341297 491.417627 270.29275 
C 498.252059 254.244203 501.864392 237.007222 502.048582 219.564992 
L 369 218.16 
z
" style="fill: #f77189"/>
   </g>
   <g id="patch_3">
    <path d="M 502.048582 219.564992 
C 502.05103 219.333157 502.052872 219.101316 502.054108 218.869471 
C 502.055345 218.637627 502.055975 218.405779 502.055999 218.173931 
L 369 218.16 
z
" style="fill: #bb9832"/>
   </g>
   <g id="patch_4">
    <path d="M 502.055999 218.173931 
C 502.056 218.171613 502.056 218.169294 502.056 218.166976 
C 502.056 218.164657 502.056 218.162339 502.056 218.16002 
L 369 218.16 
z
" style="fill: #50b131"/>
   </g>
   <g id="text_1">
    <text style="fill: #262626; font: 10px 'Arial', 'Liberation Sans', 'DejaVu Sans', 'Bitstream Vera Sans', sans-serif; text-anchor: end" x="222.64044" y="219.973181" transform="rotate(-0 222.64044 219.973181)">newsapi</text>
   </g>
   <g id="text_2">
    <text style="fill: #262626; font: 10px 'Arial', 'Liberation Sans', 'DejaVu Sans', 'Bitstream Vera Sans', sans-serif; text-anchor: middle" x="289.167513" y="220.324434" transform="rotate(-0 289.167513 220.324434)">99.8%</text>
   </g>
   <g id="text_3">
    <text style="fill: #262626; font: 10px 'Arial', 'Liberation Sans', 'DejaVu Sans', 'Bitstream Vera Sans', sans-serif; text-anchor: start" x="515.359519" y="221.526356" transform="rotate(-0 515.359519 221.526356)">chicago_pd</text>
   </g>
   <g id="text_4">
    <text style="fill: #262626; font: 10px 'Arial', 'Liberation Sans', 'DejaVu Sans', 'Bitstream Vera Sans', sans-serif; text-anchor: middle" x="448.832465" y="221.17162" transform="rotate(-0 448.832465 221.17162)">0.2%</text>
   </g>
   <g id="text_5">
    <text style="fill: #262626; font: 10px 'Arial', 'Liberation Sans', 'DejaVu Sans', 'Bitstream Vera Sans', sans-serif; text-anchor: start" x="515.3616" y="220.753611" transform="rotate(-0 515.3616 220.753611)">chicago_police</text>
   </g>
   <g id="text_6">
    <text style="fill: #262626; font: 10px 'Arial', 'Liberation Sans', 'DejaVu Sans', 'Bitstream Vera Sans', sans-serif; text-anchor: middle" x="448.8336" y="220.750123" transform="rotate(-0 448.8336 220.750123)">0.0%</text>
   </g>
   <g id="text_7">
    <text style="fill: #262626; font: 12px 'Arial', 'Liberation Sans', 'DejaVu Sans', 'Bitstream Vera Sans', sans-serif; text-anchor: middle" x="369" y="45.84" transform="rotate(-0 369 45.84)">Incidents by Source</text>
   </g>
  </g>
 </g>
</svg>
