<?xml version="1.0" encoding="utf-8" standalone="no"?>
<!DOCTYPE svg PUBLIC "-//W3C//DTD SVG 1.1//EN"
  "http://www.w3.org/Graphics/SVG/1.1/DTD/svg11.dtd">
<svg xmlns:xlink="http://www.w3.org/1999/xlink" width="720pt" height="432pt" viewBox="0 0 720 432" xmlns="http://www.w3.org/2000/svg" version="1.1">
 <metadata>
  <rdf:RDF xmlns:dc="http://purl.org/dc/elements/1.1/" xmlns:cc="http://creativecommons.org/ns#" xmlns:rdf="http://www.w3.org/1999/02/22-rdf-syntax-ns#">
   <cc:Work>
    <dc:type rdf:resource="http://purl.org/dc/dcmitype/StillImage"/>
    <dc:date>2026-02-19T06:54:47.542000</dc:date>
    <dc:format>image/svg+xml</dc:format>
    <dc:creator>
     <cc:Agent>
      <dc:title>Matplotlib v3.7.5, https://matplotlib.org/</dc:title>
     </cc:Agent>
    </dc:creator>
   </cc:Work>
  </rdf:RDF>
 </metadata>
 <defs>
  <style type="text/css">*{stroke-linejoin: round; stroke-linecap: butt}</style>
 </defs>
 <g id="figure_1">
  <g id="patch_1">
   <path d="M 0 432 
L 720 432 
L 720 0 
L 0 0 
z
" style="fill: #ffffff"/>
  </g>
  <g id="axes_1">
   <g id="matplotlib.axis_1"/>
   <g id="matplotlib.axis_2"/>
   <g id="patch_2">
    <path d="M 502.056 218.16 
C 502.056 200.70698 498.622018 183.423285 491.950144 167.295855 
C 485.27827 151.168426 475.49796 136.51019 463.167694 124.158168 
C 450.837429 111.806146 436.196457 102.00001 420.080814 95.299715 
C 403.965171 88.59942 386.687557 85.134975 369.234564 85.104207 
C 351.781571 85.073439 334.491849 88.476946 318.352683 95.120379 
C 302.213516 101.763812 287.538061 111.518265 275.164322 123.826736 
C 262.790582 136.135208 252.958651 150.758869 246.229956 166.862675 
C 239.501262 182.966481 236.006363 200.237961 235.944827 217.690873 
C 235.883291 235.143784 239.256313 252.439479 245.871284 268.590332 
C 252.486255 284.741185 262.214822 299.433814 274.50146 311.829233 
C 286.788099 324.224652 301.394405 334.082347 317.486324 340.839421 
C 333.578243 347.596495 350.843535 351.121836 368.296311 351.214139 
C 385.749086 351.306442 403.050701 347.963917 419.21319 341.377428 
C 435.37568 334.79094 450.085436 325.088289 462.502496 312.823522 
C 474.919556 300.558755 484.802985 285.969849 491.588417 269.889867 
C 498.373849 253.809885 501.929621 236.550835 502.052692 219.098249 
L 369 218.16 
z
" style="fill: #f77189"/>
   </g>
   <g id="patch_3">
    <path d="M 502.052692 219.098249 
C 502.053784 218.943421 502.054605 218.788592 502.055157 218.633761 
C 502.055708 218.478931 502.055989 218.3241 502.056 218.169268 
L 369 218.16 
z
" style="fill: #bb9832"/>
   </g>
   <g id="patch_4">
    <path d="M 502.056 218.169268 
C 502.056 218.16772 502.056 218.166171 502.056 218.164623 
C 502.056 218.163075 502.056 218.161526 502.056 218.159978 
L 369 218.16 
z
" style="fill: #50b131"/>
   </g>
   <g id="text_1">
    <text style="fill: #262626; font: 10px 'Arial', 'Liberation Sans', 'DejaVu Sans', 'Bitstream Vera Sans', sans-serif; text-anchor: end" x="222.63931" y="220.229897" transform="rotate(-0 222.63931 220.229897)">newsapi</text>
   </g>
   <g id="text_2">
    <text style="fill: #262626; font: 10px 'Arial', 'Liberation Sans', 'DejaVu Sans', 'Bitstream Vera Sans', sans-serif; text-anchor: middle" x="289.166896" y="220.464461" transform="rotate(-0 289.166896 220.464461)">99.9%</text>
   </g>
   <g id="text_3">
    <text style="fill: #262626; font: 10px 'Arial', 'Liberation Sans', 'DejaVu Sans', 'Bitstream Vera Sans', sans-serif; text-anchor: start" x="515.360672" y="221.267075" transform="rotate(-0 515.360672 221.267075)">chicago_pd</text>
   </g>
   <g id="text_4">
    <text style="fill: #262626; font: 10px 'Arial', 'Liberation Sans', 'DejaVu Sans', 'Bitstream Vera Sans', sans-serif; text-anchor: middle" x="448.833094" y="221.030194" transform="rotate(-0 448.833094 221.030194)">0.1%</text>
   </g>
   <g id="text_5">
    <text style="fill: #262626; font: 10px 'Arial', 'Liberation Sans', 'DejaVu Sans', 'Bitstream Vera Sans', sans-serif; text-anchor: start" x="515.3616" y="220.751023" transform="rotate(-0 515.3616 220.751023)">chicago_police</text>
   </g>
   <g id="text_6">
    <text style="fill: #262626; font: 10px 'Arial', 'Liberation Sans', 'DejaVu Sans', 'Bitstream Vera Sans', sans-serif; text-anchor: middle" x="448.8336" y="220.748711" transform="rotate(-0 448.8336 220.748711)">0.0%</text>
   </g>
   <g id="text_7">
    <text style="fill: #262626; font: 12px 'Arial', 'Liberation Sans', 'DejaVu Sans', 'Bitstream Vera Sans', sans-serif; text-anchor: middle" x="369" y="45.84" transform="rotate(-0 369 45.84)">Incidents by Source</text>
   </g>
  </g>
 </g>
</svg>
