<?xml version="1.0" encoding="utf-8" standalone="no"?>
<!DOCTYPE svg PUBLIC "-//W3C//DTD SVG 1.1//EN"
  "http://www.w3.org/Graphics/SVG/1.1/DTD/svg11.dtd">
<svg xmlns:xlink="http://www.w3.org/1999/xlink" width="720pt" height="432pt" viewBox="0 0 720 432" xmlns="http://www.w3.org/2000/svg" version="1.1">
 <metadata>
  <rdf:RDF xmlns:dc="http://purl.org/dc/elements/1.1/" xmlns:cc="http://creativecommons.org/ns#" xmlns:rdf="http://www.w3.org/1999/02/22-rdf-syntax-ns#">
   <cc:Work>
    <dc:type rdf:resource="http://purl.org/dc/dcmitype/StillImage"/>
    <dc:date>2025-07-07T01:15:08.768103</dc:date>
    <dc:format>image/svg+xml</dc:format>
    <dc:creator>
     <cc:Agent>
      <dc:title>Matplotlib v3.7.5, https://matplotlib.org/</dc:title>
     </cc:Agent>
    </dc:creator>
   </cc:Work>
  </rdf:RDF>
 </metadata>
 <defs>
  <style type="text/css">*{stroke-linejoin: round; stroke-linecap: butt}</style>
 </defs>
 <g id="figure_1">
  <g id="patch_1">
   <path d="M 0 432 
L 720 432 
L 720 0 
L 0 0 
z
" style="fill: #ffffff"/>
  </g>
  <g id="axes_1">
   <g id="matplotlib.axis_1"/>
   <g id="matplotlib.axis_2"/>
   <g id="patch_2">
    <path d="M 502.056 218.16 
C 502.056 200.728422 498.630451 183.465545 491.974488 167.354739 
C 485.318524 151.243934 475.560978 136.597036 463.257682 124.2484 
C 450.954386 111.899764 436.34348 102.088407 420.257266 95.373226 
C 404.171053 88.658046 386.920893 85.16902 369.489433 85.1049 
C 352.057973 85.04078 334.782612 88.402806 318.647432 94.999462 
C 302.512253 101.596118 287.829562 111.299722 275.435753 123.557511 
C 263.041944 135.815301 253.176908 150.390018 246.402602 166.451422 
C 239.628295 182.512825 236.07584 199.750034 235.947601 217.18114 
C 235.819361 234.612246 239.117819 251.899858 245.655079 268.059193 
C 252.192339 284.218529 261.841868 298.936814 274.053985 311.375628 
C 286.266102 323.814442 300.804433 333.733023 316.840809 340.566364 
C 332.877185 347.399705 350.101211 351.015541 367.531727 351.207899 
C 384.962243 351.400256 402.261871 348.165411 418.445144 341.687636 
C 434.628417 335.209861 449.382097 325.614537 461.865748 313.448257 
C 474.349399 301.281978 484.321391 286.780229 491.213674 270.769097 
C 498.105956 254.757966 501.785125 237.547357 502.041598 220.117666 
L 369 218.16 
z
" style="fill: #f77189"/>
   </g>
   <g id="patch_3">
    <path d="M 502.041598 220.117666 
C 502.046351 219.794641 502.049928 219.471599 502.052328 219.148547 
C 502.054728 218.825495 502.055952 218.502436 502.055999 218.179375 
L 369 218.16 
z
" style="fill: #bb9832"/>
   </g>
   <g id="patch_4">
    <path d="M 502.055999 218.179375 
C 502.055999 218.176144 502.055999 218.172914 502.056 218.169683 
C 502.056 218.166453 502.056 218.163222 502.056 218.159991 
L 369 218.16 
z
" style="fill: #50b131"/>
   </g>
   <g id="text_1">
    <text style="fill: #262626; font: 10px 'Arial', 'Liberation Sans', 'DejaVu Sans', 'Bitstream Vera Sans', sans-serif; text-anchor: end" x="222.642361" y="219.669192" transform="rotate(-0 222.642361 219.669192)">newsapi</text>
   </g>
   <g id="text_2">
    <text style="fill: #262626; font: 10px 'Arial', 'Liberation Sans', 'DejaVu Sans', 'Bitstream Vera Sans', sans-serif; text-anchor: middle" x="289.16856" y="220.158622" transform="rotate(-0 289.16856 220.158622)">99.8%</text>
   </g>
   <g id="text_3">
    <text style="fill: #262626; font: 10px 'Arial', 'Liberation Sans', 'DejaVu Sans', 'Bitstream Vera Sans', sans-serif; text-anchor: start" x="515.35756" y="221.833339" transform="rotate(-0 515.35756 221.833339)">chicago_pd</text>
   </g>
   <g id="text_4">
    <text style="fill: #262626; font: 10px 'Arial', 'Liberation Sans', 'DejaVu Sans', 'Bitstream Vera Sans', sans-serif; text-anchor: middle" x="448.831397" y="221.339066" transform="rotate(-0 448.831397 221.339066)">0.2%</text>
   </g>
   <g id="text_5">
    <text style="fill: #262626; font: 10px 'Arial', 'Liberation Sans', 'DejaVu Sans', 'Bitstream Vera Sans', sans-serif; text-anchor: start" x="515.3616" y="220.756589" transform="rotate(-0 515.3616 220.756589)">chicago_police</text>
   </g>
   <g id="text_6">
    <text style="fill: #262626; font: 10px 'Arial', 'Liberation Sans', 'DejaVu Sans', 'Bitstream Vera Sans', sans-serif; text-anchor: middle" x="448.8336" y="220.751747" transform="rotate(-0 448.8336 220.751747)">0.0%</text>
   </g>
   <g id="text_7">
    <text style="fill: #262626; font: 12px 'Arial', 'Liberation Sans', 'DejaVu Sans', 'Bitstream Vera Sans', sans-serif; text-anchor: middle" x="369" y="45.84" transform="rotate(-0 369 45.84)">Incidents by Source</text>
   </g>
  </g>
 </g>
</svg>
