<?xml version="1.0" encoding="utf-8" standalone="no"?>
<!DOCTYPE svg PUBLIC "-//W3C//DTD SVG 1.1//EN"
  "http://www.w3.org/Graphics/SVG/1.1/DTD/svg11.dtd">
<svg xmlns:xlink="http://www.w3.org/1999/xlink" width="720pt" height="432pt" viewBox="0 0 720 432" xmlns="http://www.w3.org/2000/svg" version="1.1">
 <metadata>
  <rdf:RDF xmlns:dc="http://purl.org/dc/elements/1.1/" xmlns:cc="http://creativecommons.org/ns#" xmlns:rdf="http://www.w3.org/1999/02/22-rdf-syntax-ns#">
   <cc:Work>
    <dc:type rdf:resource="http://purl.org/dc/dcmitype/StillImage"/>
    <dc:date>2026-02-26T18:44:30.814360</dc:date>
    <dc:format>image/svg+xml</dc:format>
    <dc:creator>
     <cc:Agent>
      <dc:title>Matplotlib v3.7.5, https://matplotlib.org/</dc:title>
     </cc:Agent>
    </dc:creator>
   </cc:Work>
  </rdf:RDF>
 </metadata>
 <defs>
  <style type="text/css">*{stroke-linejoin: round; stroke-linecap: butt}</style>
 </defs>
 <g id="figure_1">
  <g id="patch_1">
   <path d="M 0 432 
L 720 432 
L 720 0 
L 0 0 
z
" style="fill: #ffffff"/>
  </g>
  <g id="axes_1">
   <g id="matplotlib.axis_1"/>
   <g id="matplotlib.axis_2"/>
   <g id="patch_2">
    <path d="M 502.056 218.16 
C 502.056 200.706649 498.621888 183.422632 491.949768 167.294946 
C 485.277648 151.16726 475.496986 136.508848 463.166304 124.156775 
C 450.835621 111.804701 436.194185 101.998646 420.078088 95.298582 
C 403.96199 88.598517 386.683952 85.134452 369.230627 85.1042 
C 351.777303 85.073948 334.48736 88.478096 318.348133 95.122252 
C 302.208906 101.766408 287.533564 111.521647 275.160135 123.830901 
C 262.786707 136.140155 252.955289 150.764572 246.227301 166.869032 
C 239.499312 182.973492 236.005304 200.2455 235.944799 217.698746 
C 235.884295 235.151992 239.25847 252.447809 245.874641 268.598529 
C 252.490813 284.749248 262.220601 299.441477 274.508389 311.836222 
C 286.796177 324.230967 301.403532 334.087719 317.496306 340.843612 
C 333.58908 347.599504 350.855005 351.123445 368.30812 351.214201 
C 385.761235 351.304957 403.062875 347.960767 419.225038 341.372599 
C 435.387201 334.784432 450.096273 325.080125 462.512298 312.813839 
C 474.928323 300.547553 484.810379 285.957306 491.594156 269.876266 
C 498.377932 253.795226 501.931795 236.535434 502.052802 219.082503 
L 369 218.16 
z
" style="fill: #f77189"/>
   </g>
   <g id="patch_3">
    <path d="M 502.052802 219.082503 
C 502.053857 218.930277 502.054652 218.778049 502.055185 218.62582 
C 502.055718 218.473591 502.055989 218.321361 502.056 218.169132 
L 369 218.16 
z
" style="fill: #bb9832"/>
   </g>
   <g id="patch_4">
    <path d="M 502.056 218.169132 
C 502.056 218.167609 502.056 218.166087 502.056 218.164565 
C 502.056 218.163042 502.056 218.16152 502.056 218.159998 
L 369 218.16 
z
" style="fill: #50b131"/>
   </g>
   <g id="text_1">
    <text style="fill: #262626; font: 10px 'Arial', 'Liberation Sans', 'DejaVu Sans', 'Bitstream Vera Sans', sans-serif; text-anchor: end" x="222.639279" y="220.238558" transform="rotate(-0 222.639279 220.238558)">newsapi</text>
   </g>
   <g id="text_2">
    <text style="fill: #262626; font: 10px 'Arial', 'Liberation Sans', 'DejaVu Sans', 'Bitstream Vera Sans', sans-serif; text-anchor: middle" x="289.16688" y="220.469185" transform="rotate(-0 289.16688 220.469185)">99.9%</text>
   </g>
   <g id="text_3">
    <text style="fill: #262626; font: 10px 'Arial', 'Liberation Sans', 'DejaVu Sans', 'Bitstream Vera Sans', sans-serif; text-anchor: start" x="515.360703" y="221.25834" transform="rotate(-0 515.360703 221.25834)">chicago_pd</text>
   </g>
   <g id="text_4">
    <text style="fill: #262626; font: 10px 'Arial', 'Liberation Sans', 'DejaVu Sans', 'Bitstream Vera Sans', sans-serif; text-anchor: middle" x="448.833111" y="221.02543" transform="rotate(-0 448.833111 221.02543)">0.1%</text>
   </g>
   <g id="text_5">
    <text style="fill: #262626; font: 10px 'Arial', 'Liberation Sans', 'DejaVu Sans', 'Bitstream Vera Sans', sans-serif; text-anchor: start" x="515.3616" y="220.750959" transform="rotate(-0 515.3616 220.750959)">chicago_police</text>
   </g>
   <g id="text_6">
    <text style="fill: #262626; font: 10px 'Arial', 'Liberation Sans', 'DejaVu Sans', 'Bitstream Vera Sans', sans-serif; text-anchor: middle" x="448.8336" y="220.748676" transform="rotate(-0 448.8336 220.748676)">0.0%</text>
   </g>
   <g id="text_7">
    <text style="fill: #262626; font: 12px 'Arial', 'Liberation Sans', 'DejaVu Sans', 'Bitstream Vera Sans', sans-serif; text-anchor: middle" x="369" y="45.84" transform="rotate(-0 369 45.84)">Incidents by Source</text>
   </g>
  </g>
 </g>
</svg>
