<?xml version="1.0" encoding="utf-8" standalone="no"?>
<!DOCTYPE svg PUBLIC "-//W3C//DTD SVG 1.1//EN"
  "http://www.w3.org/Graphics/SVG/1.1/DTD/svg11.dtd">
<svg xmlns:xlink="http://www.w3.org/1999/xlink" width="720pt" height="432pt" viewBox="0 0 720 432" xmlns="http://www.w3.org/2000/svg" version="1.1">
 <metadata>
  <rdf:RDF xmlns:dc="http://purl.org/dc/elements/1.1/" xmlns:cc="http://creativecommons.org/ns#" xmlns:rdf="http://www.w3.org/1999/02/22-rdf-syntax-ns#">
   <cc:Work>
    <dc:type rdf:resource="http://purl.org/dc/dcmitype/StillImage"/>
    <dc:date>2026-06-04T14:45:49.553902</dc:date>
    <dc:format>image/svg+xml</dc:format>
    <dc:creator>
     <cc:Agent>
      <dc:title>Matplotlib v3.7.5, https://matplotlib.org/</dc:title>
     </cc:Agent>
    </dc:creator>
   </cc:Work>
  </rdf:RDF>
 </metadata>
 <defs>
  <style type="text/css">*{stroke-linejoin: round; stroke-linecap: butt}</style>
 </defs>
 <g id="figure_1">
  <g id="patch_1">
   <path d="M 0 432 
L 720 432 
L 720 0 
L 0 0 
z
" style="fill: #ffffff"/>
  </g>
  <g id="axes_1">
   <g id="matplotlib.axis_1"/>
   <g id="matplotlib.axis_2"/>
   <g id="patch_2">
    <path d="M 502.056 218.16 
C 502.056 200.703534 498.620662 183.416494 491.946229 167.286393 
C 485.271796 151.156293 475.487826 136.496237 463.153224 124.143674 
C 450.818622 111.791112 436.172818 101.985821 420.052446 95.287925 
C 403.932075 88.590029 386.650051 85.129541 369.193604 85.104141 
C 351.737156 85.078741 334.445135 88.488921 318.30534 95.139877 
C 302.165545 101.790833 287.491268 111.553462 275.120772 123.870077 
C 262.750275 136.186692 252.923684 150.818214 246.202339 166.928822 
C 239.480994 183.039431 235.995364 200.316402 235.944563 217.772793 
C 235.893763 235.229185 239.278779 252.52615 245.906244 268.675605 
C 252.533709 284.825061 262.274975 299.513527 274.573577 311.901932 
C 286.87218 324.290337 301.489388 334.138207 317.5902 340.882987 
C 333.691011 347.627767 350.962892 351.138532 368.419191 351.214732 
C 385.87549 351.290932 403.177362 347.931088 419.336444 341.327129 
C 435.495525 334.723169 450.19815 325.003286 462.604437 312.722722 
C 475.010724 300.442159 484.879853 285.839295 491.648053 269.748314 
C 498.416253 253.657334 501.952147 236.39058 502.053746 218.93441 
L 369 218.16 
z
" style="fill: #f77189"/>
   </g>
   <g id="patch_3">
    <path d="M 502.053746 218.93441 
C 502.05449 218.806622 502.05505 218.678833 502.055425 218.551044 
C 502.055801 218.423254 502.055992 218.295464 502.056 218.167674 
L 369 218.16 
z
" style="fill: #bb9832"/>
   </g>
   <g id="patch_4">
    <path d="M 502.056 218.167674 
C 502.056 218.166396 502.056 218.165118 502.056 218.16384 
C 502.056 218.162562 502.056 218.161284 502.056 218.160006 
L 369 218.16 
z
" style="fill: #50b131"/>
   </g>
   <g id="text_1">
    <text style="fill: #262626; font: 10px 'Arial', 'Liberation Sans', 'DejaVu Sans', 'Bitstream Vera Sans', sans-serif; text-anchor: end" x="222.63902" y="220.32001" transform="rotate(-0 222.63902 220.32001)">newsapi</text>
   </g>
   <g id="text_2">
    <text style="fill: #262626; font: 10px 'Arial', 'Liberation Sans', 'DejaVu Sans', 'Bitstream Vera Sans', sans-serif; text-anchor: middle" x="289.166738" y="220.513614" transform="rotate(-0 289.166738 220.513614)">99.9%</text>
   </g>
   <g id="text_3">
    <text style="fill: #262626; font: 10px 'Arial', 'Liberation Sans', 'DejaVu Sans', 'Bitstream Vera Sans', sans-serif; text-anchor: start" x="515.360968" y="221.176085" transform="rotate(-0 515.360968 221.176085)">chicago_pd</text>
   </g>
   <g id="text_4">
    <text style="fill: #262626; font: 10px 'Arial', 'Liberation Sans', 'DejaVu Sans', 'Bitstream Vera Sans', sans-serif; text-anchor: middle" x="448.833255" y="220.980564" transform="rotate(-0 448.833255 220.980564)">0.1%</text>
   </g>
   <g id="text_5">
    <text style="fill: #262626; font: 10px 'Arial', 'Liberation Sans', 'DejaVu Sans', 'Bitstream Vera Sans', sans-serif; text-anchor: start" x="515.3616" y="220.750162" transform="rotate(-0 515.3616 220.750162)">chicago_police</text>
   </g>
   <g id="text_6">
    <text style="fill: #262626; font: 10px 'Arial', 'Liberation Sans', 'DejaVu Sans', 'Bitstream Vera Sans', sans-serif; text-anchor: middle" x="448.8336" y="220.748242" transform="rotate(-0 448.8336 220.748242)">0.0%</text>
   </g>
   <g id="text_7">
    <text style="fill: #262626; font: 12px 'Arial', 'Liberation Sans', 'DejaVu Sans', 'Bitstream Vera Sans', sans-serif; text-anchor: middle" x="369" y="45.84" transform="rotate(-0 369 45.84)">Incidents by Source</text>
   </g>
  </g>
 </g>
</svg>
