<?xml version="1.0" encoding="utf-8" standalone="no"?>
<!DOCTYPE svg PUBLIC "-//W3C//DTD SVG 1.1//EN"
  "http://www.w3.org/Graphics/SVG/1.1/DTD/svg11.dtd">
<svg xmlns:xlink="http://www.w3.org/1999/xlink" width="720pt" height="432pt" viewBox="0 0 720 432" xmlns="http://www.w3.org/2000/svg" version="1.1">
 <metadata>
  <rdf:RDF xmlns:dc="http://purl.org/dc/elements/1.1/" xmlns:cc="http://creativecommons.org/ns#" xmlns:rdf="http://www.w3.org/1999/02/22-rdf-syntax-ns#">
   <cc:Work>
    <dc:type rdf:resource="http://purl.org/dc/dcmitype/StillImage"/>
    <dc:date>2026-04-05T18:35:58.350410</dc:date>
    <dc:format>image/svg+xml</dc:format>
    <dc:creator>
     <cc:Agent>
      <dc:title>Matplotlib v3.7.5, https://matplotlib.org/</dc:title>
     </cc:Agent>
    </dc:creator>
   </cc:Work>
  </rdf:RDF>
 </metadata>
 <defs>
  <style type="text/css">*{stroke-linejoin: round; stroke-linecap: butt}</style>
 </defs>
 <g id="figure_1">
  <g id="patch_1">
   <path d="M 0 432 
L 720 432 
L 720 0 
L 0 0 
z
" style="fill: #ffffff"/>
  </g>
  <g id="axes_1">
   <g id="matplotlib.axis_1"/>
   <g id="matplotlib.axis_2"/>
   <g id="patch_2">
    <path d="M 502.056 218.16 
C 502.056 200.705463 498.621421 183.420294 491.94842 167.291688 
C 485.275419 151.163082 475.493497 136.504045 463.161322 124.151785 
C 450.829147 111.799525 436.186047 101.993761 420.068321 95.294522 
C 403.950596 88.595283 386.67104 85.13258 369.216525 85.104176 
C 351.762011 85.075772 334.471277 88.482218 318.331833 95.128963 
C 302.192389 101.775709 287.517452 111.533763 275.14514 123.845821 
C 262.772828 136.157878 252.943248 150.785002 246.21779 166.891804 
C 239.492331 182.998606 236.001513 200.272505 235.944705 217.72695 
C 235.887896 235.181394 239.2662 252.47765 245.886673 268.627888 
C 252.507146 284.778127 262.241305 299.468924 274.533213 311.861256 
C 286.825121 324.253587 301.436229 334.106957 317.532065 340.858618 
C 333.627902 347.610279 350.896097 351.129202 368.350426 351.214414 
C 385.804755 351.299627 403.106485 347.949474 419.267476 341.355292 
C 435.428467 334.76111 450.135085 325.050869 462.547403 312.779144 
C 474.959721 300.507419 484.836855 285.912365 491.6147 269.827537 
C 498.392545 253.742709 501.939565 236.480264 502.053181 219.026096 
L 369 218.16 
z
" style="fill: #f77189"/>
   </g>
   <g id="patch_3">
    <path d="M 502.053181 219.026096 
C 502.054111 218.883179 502.054811 218.74026 502.055281 218.59734 
C 502.055751 218.454421 502.055991 218.311501 502.056 218.16858 
L 369 218.16 
z
" style="fill: #bb9832"/>
   </g>
   <g id="patch_4">
    <path d="M 502.056 218.16858 
C 502.056 218.167151 502.056 218.165722 502.056 218.164293 
C 502.056 218.162863 502.056 218.161434 502.056 218.160005 
L 369 218.16 
z
" style="fill: #50b131"/>
   </g>
   <g id="text_1">
    <text style="fill: #262626; font: 10px 'Arial', 'Liberation Sans', 'DejaVu Sans', 'Bitstream Vera Sans', sans-serif; text-anchor: end" x="222.639175" y="220.269582" transform="rotate(-0 222.639175 220.269582)">newsapi</text>
   </g>
   <g id="text_2">
    <text style="fill: #262626; font: 10px 'Arial', 'Liberation Sans', 'DejaVu Sans', 'Bitstream Vera Sans', sans-serif; text-anchor: middle" x="289.166823" y="220.486107" transform="rotate(-0 289.166823 220.486107)">99.9%</text>
   </g>
   <g id="text_3">
    <text style="fill: #262626; font: 10px 'Arial', 'Liberation Sans', 'DejaVu Sans', 'Bitstream Vera Sans', sans-serif; text-anchor: start" x="515.360809" y="221.227012" transform="rotate(-0 515.360809 221.227012)">chicago_pd</text>
   </g>
   <g id="text_4">
    <text style="fill: #262626; font: 10px 'Arial', 'Liberation Sans', 'DejaVu Sans', 'Bitstream Vera Sans', sans-serif; text-anchor: middle" x="448.833169" y="221.008342" transform="rotate(-0 448.833169 221.008342)">0.1%</text>
   </g>
   <g id="text_5">
    <text style="fill: #262626; font: 10px 'Arial', 'Liberation Sans', 'DejaVu Sans', 'Bitstream Vera Sans', sans-serif; text-anchor: start" x="515.3616" y="220.750659" transform="rotate(-0 515.3616 220.750659)">chicago_police</text>
   </g>
   <g id="text_6">
    <text style="fill: #262626; font: 10px 'Arial', 'Liberation Sans', 'DejaVu Sans', 'Bitstream Vera Sans', sans-serif; text-anchor: middle" x="448.8336" y="220.748513" transform="rotate(-0 448.8336 220.748513)">0.0%</text>
   </g>
   <g id="text_7">
    <text style="fill: #262626; font: 12px 'Arial', 'Liberation Sans', 'DejaVu Sans', 'Bitstream Vera Sans', sans-serif; text-anchor: middle" x="369" y="45.84" transform="rotate(-0 369 45.84)">Incidents by Source</text>
   </g>
  </g>
 </g>
</svg>
