<?xml version="1.0" encoding="utf-8" standalone="no"?>
<!DOCTYPE svg PUBLIC "-//W3C//DTD SVG 1.1//EN"
  "http://www.w3.org/Graphics/SVG/1.1/DTD/svg11.dtd">
<svg xmlns:xlink="http://www.w3.org/1999/xlink" width="720pt" height="432pt" viewBox="0 0 720 432" xmlns="http://www.w3.org/2000/svg" version="1.1">
 <metadata>
  <rdf:RDF xmlns:dc="http://purl.org/dc/elements/1.1/" xmlns:cc="http://creativecommons.org/ns#" xmlns:rdf="http://www.w3.org/1999/02/22-rdf-syntax-ns#">
   <cc:Work>
    <dc:type rdf:resource="http://purl.org/dc/dcmitype/StillImage"/>
    <dc:date>2025-02-11T12:40:01.452732</dc:date>
    <dc:format>image/svg+xml</dc:format>
    <dc:creator>
     <cc:Agent>
      <dc:title>Matplotlib v3.7.5, https://matplotlib.org/</dc:title>
     </cc:Agent>
    </dc:creator>
   </cc:Work>
  </rdf:RDF>
 </metadata>
 <defs>
  <style type="text/css">*{stroke-linejoin: round; stroke-linecap: butt}</style>
 </defs>
 <g id="figure_1">
  <g id="patch_1">
   <path d="M 0 432 
L 720 432 
L 720 0 
L 0 0 
z
" style="fill: #ffffff"/>
  </g>
  <g id="axes_1">
   <g id="matplotlib.axis_1"/>
   <g id="matplotlib.axis_2"/>
   <g id="patch_2">
    <path d="M 502.056 218.16 
C 502.056 200.811938 498.663196 183.630158 492.069041 167.584212 
C 485.474886 151.538266 475.80579 136.935758 463.607372 124.600691 
C 451.408954 112.265625 436.915059 102.434466 420.943564 95.661978 
C 404.972068 88.88949 387.829148 85.305502 370.482162 85.112255 
C 353.135176 84.919009 335.916669 88.120207 319.798264 94.535212 
C 303.679858 100.950216 288.970548 110.456048 276.500364 122.516304 
C 264.03018 134.576561 254.038179 148.960043 247.088198 164.855106 
C 240.138217 180.75017 236.36349 197.852102 235.977021 215.195859 
C 235.590551 232.539616 238.599748 249.792714 244.834805 265.981579 
C 251.069862 282.170444 260.411251 296.98473 272.331849 309.588484 
C 284.252447 322.192239 298.523732 332.343843 314.340391 339.470454 
C 330.157049 346.597065 347.215873 350.562063 364.554249 351.141707 
C 381.892625 351.721352 399.178173 348.904531 415.435488 342.850195 
C 431.692802 336.795859 446.610227 327.62007 459.345988 315.84061 
C 472.081748 304.06115 482.391696 289.903833 489.694053 274.167542 
C 496.996409 258.431251 501.151186 241.417654 501.923933 224.08681 
L 369 218.16 
z
" style="fill: #f77189"/>
   </g>
   <g id="patch_3">
    <path d="M 501.923933 224.08681 
C 501.967513 223.109426 502.000311 222.131591 502.022322 221.153484 
C 502.044333 220.175376 502.055555 219.197056 502.055987 218.218701 
L 369 218.16 
z
" style="fill: #bb9832"/>
   </g>
   <g id="patch_4">
    <path d="M 502.055987 218.218701 
C 502.055991 218.208918 502.055995 218.199134 502.055997 218.189351 
C 502.055999 218.179567 502.056 218.169784 502.056 218.16 
L 369 218.16 
z
" style="fill: #50b131"/>
   </g>
   <g id="text_1">
    <text style="fill: #262626; font: 10px 'Arial', 'Liberation Sans', 'DejaVu Sans', 'Bitstream Vera Sans', sans-serif; text-anchor: end" x="222.674723" y="217.485383" transform="rotate(-0 222.674723 217.485383)">newsapi</text>
   </g>
   <g id="text_2">
    <text style="fill: #262626; font: 10px 'Arial', 'Liberation Sans', 'DejaVu Sans', 'Bitstream Vera Sans', sans-serif; text-anchor: middle" x="289.186212" y="218.967453" transform="rotate(-0 289.186212 218.967453)">99.3%</text>
   </g>
   <g id="text_3">
    <text style="fill: #262626; font: 10px 'Arial', 'Liberation Sans', 'DejaVu Sans', 'Bitstream Vera Sans', sans-serif; text-anchor: start" x="515.324554" y="224.03877" transform="rotate(-0 515.324554 224.03877)">chicago_pd</text>
   </g>
   <g id="text_4">
    <text style="fill: #262626; font: 10px 'Arial', 'Liberation Sans', 'DejaVu Sans', 'Bitstream Vera Sans', sans-serif; text-anchor: middle" x="448.813393" y="222.542028" transform="rotate(-0 448.813393 222.542028)">0.7%</text>
   </g>
   <g id="text_5">
    <text style="fill: #262626; font: 10px 'Arial', 'Liberation Sans', 'DejaVu Sans', 'Bitstream Vera Sans', sans-serif; text-anchor: start" x="515.361596" y="220.778223" transform="rotate(-0 515.361596 220.778223)">chicago_police</text>
   </g>
   <g id="text_6">
    <text style="fill: #262626; font: 10px 'Arial', 'Liberation Sans', 'DejaVu Sans', 'Bitstream Vera Sans', sans-serif; text-anchor: middle" x="448.833598" y="220.763548" transform="rotate(-0 448.833598 220.763548)">0.0%</text>
   </g>
   <g id="text_7">
    <text style="fill: #262626; font: 12px 'Arial', 'Liberation Sans', 'DejaVu Sans', 'Bitstream Vera Sans', sans-serif; text-anchor: middle" x="369" y="45.84" transform="rotate(-0 369 45.84)">Incidents by Source</text>
   </g>
  </g>
 </g>
</svg>
