<?xml version="1.0" encoding="utf-8" standalone="no"?>
<!DOCTYPE svg PUBLIC "-//W3C//DTD SVG 1.1//EN"
  "http://www.w3.org/Graphics/SVG/1.1/DTD/svg11.dtd">
<svg xmlns:xlink="http://www.w3.org/1999/xlink" width="720pt" height="432pt" viewBox="0 0 720 432" xmlns="http://www.w3.org/2000/svg" version="1.1">
 <metadata>
  <rdf:RDF xmlns:dc="http://purl.org/dc/elements/1.1/" xmlns:cc="http://creativecommons.org/ns#" xmlns:rdf="http://www.w3.org/1999/02/22-rdf-syntax-ns#">
   <cc:Work>
    <dc:type rdf:resource="http://purl.org/dc/dcmitype/StillImage"/>
    <dc:date>2025-06-05T12:49:18.381825</dc:date>
    <dc:format>image/svg+xml</dc:format>
    <dc:creator>
     <cc:Agent>
      <dc:title>Matplotlib v3.7.5, https://matplotlib.org/</dc:title>
     </cc:Agent>
    </dc:creator>
   </cc:Work>
  </rdf:RDF>
 </metadata>
 <defs>
  <style type="text/css">*{stroke-linejoin: round; stroke-linecap: butt}</style>
 </defs>
 <g id="figure_1">
  <g id="patch_1">
   <path d="M 0 432 
L 720 432 
L 720 0 
L 0 0 
z
" style="fill: #ffffff"/>
  </g>
  <g id="axes_1">
   <g id="matplotlib.axis_1"/>
   <g id="matplotlib.axis_2"/>
   <g id="patch_2">
    <path d="M 502.056 218.16 
C 502.056 200.735619 498.633279 183.479729 491.982652 167.374506 
C 485.332026 151.269283 475.582114 136.626196 463.287866 124.278706 
C 450.993619 111.931215 436.392802 102.118118 420.316468 95.397957 
C 404.240135 88.677796 386.999197 85.180539 369.574979 85.105242 
C 352.150761 85.029946 334.880241 88.378067 318.746429 94.959035 
C 302.612617 101.540004 287.927534 111.226547 275.527031 123.467322 
C 263.126529 135.708097 253.250428 150.266373 246.460859 166.313516 
C 239.67129 182.360659 236.099561 199.586323 235.948969 217.010053 
C 235.798378 234.433783 239.071836 251.71861 245.583023 267.88071 
C 252.094211 284.04281 261.717204 298.769614 273.904279 311.222898 
C 286.091353 323.676181 300.606814 333.615101 316.624468 340.473952 
C 332.642121 347.332802 349.85219 350.978935 367.275106 351.204819 
C 384.698023 351.430703 401.996834 348.231969 418.18692 341.790684 
C 434.377007 335.349399 449.145257 325.790135 461.651089 313.656989 
C 474.15692 301.523843 484.158474 287.051467 491.086478 271.063602 
C 498.014482 255.075738 501.734951 237.881586 502.036123 220.459808 
L 369 218.16 
z
" style="fill: #f77189"/>
   </g>
   <g id="patch_3">
    <path d="M 502.036123 220.459808 
C 502.042683 220.080337 502.047619 219.700839 502.050932 219.321325 
C 502.054244 218.941812 502.055933 218.562286 502.055998 218.182758 
L 369 218.16 
z
" style="fill: #bb9832"/>
   </g>
   <g id="patch_4">
    <path d="M 502.055998 218.182758 
C 502.055999 218.178962 502.055999 218.175167 502.056 218.171372 
C 502.056 218.167577 502.056 218.163781 502.056 218.159986 
L 369 218.16 
z
" style="fill: #50b131"/>
   </g>
   <g id="text_1">
    <text style="fill: #262626; font: 10px 'Arial', 'Liberation Sans', 'DejaVu Sans', 'Bitstream Vera Sans', sans-serif; text-anchor: end" x="222.643866" y="219.480996" transform="rotate(-0 222.643866 219.480996)">newsapi</text>
   </g>
   <g id="text_2">
    <text style="fill: #262626; font: 10px 'Arial', 'Liberation Sans', 'DejaVu Sans', 'Bitstream Vera Sans', sans-serif; text-anchor: middle" x="289.169382" y="220.055969" transform="rotate(-0 289.169382 220.055969)">99.7%</text>
   </g>
   <g id="text_3">
    <text style="fill: #262626; font: 10px 'Arial', 'Liberation Sans', 'DejaVu Sans', 'Bitstream Vera Sans', sans-serif; text-anchor: start" x="515.356025" y="222.023395" transform="rotate(-0 515.356025 222.023395)">chicago_pd</text>
   </g>
   <g id="text_4">
    <text style="fill: #262626; font: 10px 'Arial', 'Liberation Sans', 'DejaVu Sans', 'Bitstream Vera Sans', sans-serif; text-anchor: middle" x="448.830559" y="221.442733" transform="rotate(-0 448.830559 221.442733)">0.3%</text>
   </g>
   <g id="text_5">
    <text style="fill: #262626; font: 10px 'Arial', 'Liberation Sans', 'DejaVu Sans', 'Bitstream Vera Sans', sans-serif; text-anchor: start" x="515.361599" y="220.758447" transform="rotate(-0 515.361599 220.758447)">chicago_police</text>
   </g>
   <g id="text_6">
    <text style="fill: #262626; font: 10px 'Arial', 'Liberation Sans', 'DejaVu Sans', 'Bitstream Vera Sans', sans-serif; text-anchor: middle" x="448.8336" y="220.752761" transform="rotate(-0 448.8336 220.752761)">0.0%</text>
   </g>
   <g id="text_7">
    <text style="fill: #262626; font: 12px 'Arial', 'Liberation Sans', 'DejaVu Sans', 'Bitstream Vera Sans', sans-serif; text-anchor: middle" x="369" y="45.84" transform="rotate(-0 369 45.84)">Incidents by Source</text>
   </g>
  </g>
 </g>
</svg>
