<?xml version="1.0" encoding="utf-8" standalone="no"?>
<!DOCTYPE svg PUBLIC "-//W3C//DTD SVG 1.1//EN"
  "http://www.w3.org/Graphics/SVG/1.1/DTD/svg11.dtd">
<svg xmlns:xlink="http://www.w3.org/1999/xlink" width="720pt" height="432pt" viewBox="0 0 720 432" xmlns="http://www.w3.org/2000/svg" version="1.1">
 <metadata>
  <rdf:RDF xmlns:dc="http://purl.org/dc/elements/1.1/" xmlns:cc="http://creativecommons.org/ns#" xmlns:rdf="http://www.w3.org/1999/02/22-rdf-syntax-ns#">
   <cc:Work>
    <dc:type rdf:resource="http://purl.org/dc/dcmitype/StillImage"/>
    <dc:date>2026-04-04T01:45:20.514820</dc:date>
    <dc:format>image/svg+xml</dc:format>
    <dc:creator>
     <cc:Agent>
      <dc:title>Matplotlib v3.7.5, https://matplotlib.org/</dc:title>
     </cc:Agent>
    </dc:creator>
   </cc:Work>
  </rdf:RDF>
 </metadata>
 <defs>
  <style type="text/css">*{stroke-linejoin: round; stroke-linecap: butt}</style>
 </defs>
 <g id="figure_1">
  <g id="patch_1">
   <path d="M 0 432 
L 720 432 
L 720 0 
L 0 0 
z
" style="fill: #ffffff"/>
  </g>
  <g id="axes_1">
   <g id="matplotlib.axis_1"/>
   <g id="matplotlib.axis_2"/>
   <g id="patch_2">
    <path d="M 502.056 218.16 
C 502.056 200.70551 498.62144 183.420387 491.948474 167.291818 
C 485.275508 151.163248 475.493636 136.504236 463.16152 124.151983 
C 450.829404 111.79973 436.18637 101.993955 420.06871 95.294683 
C 403.951049 88.595412 386.671553 85.132655 369.217086 85.104177 
C 351.762619 85.075699 334.471916 88.482054 318.332481 95.128697 
C 302.193046 101.775339 287.518093 111.533281 275.145736 123.845227 
C 262.77338 136.157174 252.943727 150.78419 246.218168 166.890899 
C 239.492608 182.997608 236.001664 200.271431 235.944708 217.725828 
C 235.887753 235.180226 239.265892 252.476464 245.886194 268.626721 
C 252.506496 284.776979 262.240482 299.467833 274.532226 311.860261 
C 286.82397 324.252688 301.434929 334.106192 317.530644 340.858022 
C 333.626358 347.609851 350.894463 351.128973 368.348744 351.214406 
C 385.803025 351.299839 403.104752 347.949924 419.265789 341.35598 
C 435.426827 334.762037 450.133543 325.052033 462.546008 312.780524 
C 474.958473 300.509015 484.835803 285.914152 491.613884 269.829475 
C 498.391965 253.744797 501.939257 236.482457 502.053167 219.028339 
L 369 218.16 
z
" style="fill: #f77189"/>
   </g>
   <g id="patch_3">
    <path d="M 502.053167 219.028339 
C 502.054102 218.885051 502.054805 218.741762 502.055278 218.598472 
C 502.05575 218.455182 502.05599 218.311891 502.056 218.1686 
L 369 218.16 
z
" style="fill: #bb9832"/>
   </g>
   <g id="patch_4">
    <path d="M 502.056 218.1686 
C 502.056 218.167167 502.056 218.165734 502.056 218.164301 
C 502.056 218.162869 502.056 218.161436 502.056 218.160003 
L 369 218.16 
z
" style="fill: #50b131"/>
   </g>
   <g id="text_1">
    <text style="fill: #262626; font: 10px 'Arial', 'Liberation Sans', 'DejaVu Sans', 'Bitstream Vera Sans', sans-serif; text-anchor: end" x="222.639179" y="220.268349" transform="rotate(-0 222.639179 220.268349)">newsapi</text>
   </g>
   <g id="text_2">
    <text style="fill: #262626; font: 10px 'Arial', 'Liberation Sans', 'DejaVu Sans', 'Bitstream Vera Sans', sans-serif; text-anchor: middle" x="289.166825" y="220.485435" transform="rotate(-0 289.166825 220.485435)">99.9%</text>
   </g>
   <g id="text_3">
    <text style="fill: #262626; font: 10px 'Arial', 'Liberation Sans', 'DejaVu Sans', 'Bitstream Vera Sans', sans-serif; text-anchor: start" x="515.360805" y="221.228256" transform="rotate(-0 515.360805 221.228256)">chicago_pd</text>
   </g>
   <g id="text_4">
    <text style="fill: #262626; font: 10px 'Arial', 'Liberation Sans', 'DejaVu Sans', 'Bitstream Vera Sans', sans-serif; text-anchor: middle" x="448.833167" y="221.00902" transform="rotate(-0 448.833167 221.00902)">0.1%</text>
   </g>
   <g id="text_5">
    <text style="fill: #262626; font: 10px 'Arial', 'Liberation Sans', 'DejaVu Sans', 'Bitstream Vera Sans', sans-serif; text-anchor: start" x="515.3616" y="220.750669" transform="rotate(-0 515.3616 220.750669)">chicago_police</text>
   </g>
   <g id="text_6">
    <text style="fill: #262626; font: 10px 'Arial', 'Liberation Sans', 'DejaVu Sans', 'Bitstream Vera Sans', sans-serif; text-anchor: middle" x="448.8336" y="220.748518" transform="rotate(-0 448.8336 220.748518)">0.0%</text>
   </g>
   <g id="text_7">
    <text style="fill: #262626; font: 12px 'Arial', 'Liberation Sans', 'DejaVu Sans', 'Bitstream Vera Sans', sans-serif; text-anchor: middle" x="369" y="45.84" transform="rotate(-0 369 45.84)">Incidents by Source</text>
   </g>
  </g>
 </g>
</svg>
