<?xml version="1.0" encoding="utf-8" standalone="no"?>
<!DOCTYPE svg PUBLIC "-//W3C//DTD SVG 1.1//EN"
  "http://www.w3.org/Graphics/SVG/1.1/DTD/svg11.dtd">
<svg xmlns:xlink="http://www.w3.org/1999/xlink" width="720pt" height="432pt" viewBox="0 0 720 432" xmlns="http://www.w3.org/2000/svg" version="1.1">
 <metadata>
  <rdf:RDF xmlns:dc="http://purl.org/dc/elements/1.1/" xmlns:cc="http://creativecommons.org/ns#" xmlns:rdf="http://www.w3.org/1999/02/22-rdf-syntax-ns#">
   <cc:Work>
    <dc:type rdf:resource="http://purl.org/dc/dcmitype/StillImage"/>
    <dc:date>2025-03-27T06:18:59.586341</dc:date>
    <dc:format>image/svg+xml</dc:format>
    <dc:creator>
     <cc:Agent>
      <dc:title>Matplotlib v3.7.5, https://matplotlib.org/</dc:title>
     </cc:Agent>
    </dc:creator>
   </cc:Work>
  </rdf:RDF>
 </metadata>
 <defs>
  <style type="text/css">*{stroke-linejoin: round; stroke-linecap: butt}</style>
 </defs>
 <g id="figure_1">
  <g id="patch_1">
   <path d="M 0 432 
L 720 432 
L 720 0 
L 0 0 
z
" style="fill: #ffffff"/>
  </g>
  <g id="axes_1">
   <g id="matplotlib.axis_1"/>
   <g id="matplotlib.axis_2"/>
   <g id="patch_2">
    <path d="M 502.056 218.16 
C 502.056 200.765531 498.64502 183.538686 492.016553 167.456679 
C 485.388086 151.374672 475.669883 136.747454 463.413221 124.404772 
C 451.15656 112.062091 436.597665 102.241829 420.562407 95.501053 
C 404.52715 88.760277 387.324581 85.228904 369.930538 85.107254 
C 352.536495 84.985604 335.286216 88.276023 319.158245 94.791857 
C 303.030274 101.307692 288.335449 110.92336 275.907352 123.093403 
C 263.479254 135.263445 253.557413 149.753305 246.704659 165.741028 
C 239.851904 181.728751 236.200309 198.906203 235.957016 216.29897 
C 235.713722 233.691737 238.883419 250.964606 245.286302 267.137751 
C 251.689185 283.310896 261.201849 298.07261 273.284677 310.585516 
C 285.367504 323.098422 299.787621 333.121356 315.727028 340.085754 
C 331.666435 347.050153 348.817928 350.82179 366.208568 351.186716 
C 383.599209 351.551641 400.893822 348.50282 417.111351 342.213202 
C 433.32888 335.923584 448.156761 326.51439 460.753863 314.519368 
C 473.350965 302.524346 483.474502 288.174678 490.550204 272.284367 
C 497.625906 256.394056 501.517401 239.269359 502.00394 221.881696 
L 369 218.16 
z
" style="fill: #f77189"/>
   </g>
   <g id="patch_3">
    <path d="M 502.00394 221.881696 
C 502.021121 221.267714 502.034049 220.65362 502.042725 220.039458 
C 502.051401 219.425296 502.055825 218.811082 502.055995 218.196859 
L 369 218.16 
z
" style="fill: #bb9832"/>
   </g>
   <g id="patch_4">
    <path d="M 502.055995 218.196859 
C 502.055997 218.190717 502.055998 218.184575 502.055999 218.178432 
C 502.056 218.17229 502.056 218.166148 502.056 218.160006 
L 369 218.16 
z
" style="fill: #50b131"/>
   </g>
   <g id="text_1">
    <text style="fill: #262626; font: 10px 'Arial', 'Liberation Sans', 'DejaVu Sans', 'Bitstream Vera Sans', sans-serif; text-anchor: end" x="222.652717" y="218.698804" transform="rotate(-0 222.652717 218.698804)">newsapi</text>
   </g>
   <g id="text_2">
    <text style="fill: #262626; font: 10px 'Arial', 'Liberation Sans', 'DejaVu Sans', 'Bitstream Vera Sans', sans-serif; text-anchor: middle" x="289.174209" y="219.629319" transform="rotate(-0 289.174209 219.629319)">99.6%</text>
   </g>
   <g id="text_3">
    <text style="fill: #262626; font: 10px 'Arial', 'Liberation Sans', 'DejaVu Sans', 'Bitstream Vera Sans', sans-serif; text-anchor: start" x="515.346998" y="222.813341" transform="rotate(-0 515.346998 222.813341)">chicago_pd</text>
   </g>
   <g id="text_4">
    <text style="fill: #262626; font: 10px 'Arial', 'Liberation Sans', 'DejaVu Sans', 'Bitstream Vera Sans', sans-serif; text-anchor: middle" x="448.825635" y="221.873612" transform="rotate(-0 448.825635 221.873612)">0.4%</text>
   </g>
   <g id="text_5">
    <text style="fill: #262626; font: 10px 'Arial', 'Liberation Sans', 'DejaVu Sans', 'Bitstream Vera Sans', sans-serif; text-anchor: start" x="515.361599" y="220.766213" transform="rotate(-0 515.361599 220.766213)">chicago_police</text>
   </g>
   <g id="text_6">
    <text style="fill: #262626; font: 10px 'Arial', 'Liberation Sans', 'DejaVu Sans', 'Bitstream Vera Sans', sans-serif; text-anchor: middle" x="448.833599" y="220.756997" transform="rotate(-0 448.833599 220.756997)">0.0%</text>
   </g>
   <g id="text_7">
    <text style="fill: #262626; font: 12px 'Arial', 'Liberation Sans', 'DejaVu Sans', 'Bitstream Vera Sans', sans-serif; text-anchor: middle" x="369" y="45.84" transform="rotate(-0 369 45.84)">Incidents by Source</text>
   </g>
  </g>
 </g>
</svg>
