<?xml version="1.0" encoding="utf-8" standalone="no"?>
<!DOCTYPE svg PUBLIC "-//W3C//DTD SVG 1.1//EN"
  "http://www.w3.org/Graphics/SVG/1.1/DTD/svg11.dtd">
<svg xmlns:xlink="http://www.w3.org/1999/xlink" width="720pt" height="432pt" viewBox="0 0 720 432" xmlns="http://www.w3.org/2000/svg" version="1.1">
 <metadata>
  <rdf:RDF xmlns:dc="http://purl.org/dc/elements/1.1/" xmlns:cc="http://creativecommons.org/ns#" xmlns:rdf="http://www.w3.org/1999/02/22-rdf-syntax-ns#">
   <cc:Work>
    <dc:type rdf:resource="http://purl.org/dc/dcmitype/StillImage"/>
    <dc:date>2025-09-14T18:16:49.322129</dc:date>
    <dc:format>image/svg+xml</dc:format>
    <dc:creator>
     <cc:Agent>
      <dc:title>Matplotlib v3.7.5, https://matplotlib.org/</dc:title>
     </cc:Agent>
    </dc:creator>
   </cc:Work>
  </rdf:RDF>
 </metadata>
 <defs>
  <style type="text/css">*{stroke-linejoin: round; stroke-linecap: butt}</style>
 </defs>
 <g id="figure_1">
  <g id="patch_1">
   <path d="M 0 432 
L 720 432 
L 720 0 
L 0 0 
z
" style="fill: #ffffff"/>
  </g>
  <g id="axes_1">
   <g id="matplotlib.axis_1"/>
   <g id="matplotlib.axis_2"/>
   <g id="patch_2">
    <path d="M 502.056 218.16 
C 502.056 200.71778 498.626267 183.444571 491.962409 167.325513 
C 485.298551 151.206456 475.52971 136.553928 463.213031 124.203606 
C 450.896352 111.853285 436.270525 102.044512 420.169705 95.33671 
C 404.068884 88.628909 386.805094 85.152072 369.362939 85.104495 
C 351.920785 85.056918 334.638284 88.439521 318.501109 95.059386 
C 302.363934 101.679251 287.684814 111.408088 275.300942 123.691033 
C 262.91707 135.973978 253.068439 150.572995 246.316744 166.655458 
C 239.565049 182.737922 236.041135 199.992164 235.94598 217.434124 
C 235.850825 234.876084 239.186275 252.167747 245.762097 268.322919 
C 252.33792 284.478091 262.02668 299.183694 274.2758 311.601024 
C 286.524919 324.018355 301.097018 333.906772 317.161005 340.70231 
C 333.224992 347.497848 350.469557 351.068814 367.911193 351.211545 
C 385.352828 351.354276 402.653525 348.066006 418.826574 341.534275 
C 434.999623 335.002543 449.7316 325.353932 462.182296 313.138729 
C 474.632992 300.923526 484.561121 286.378454 491.400452 270.333063 
C 498.239783 254.287672 501.857774 237.052912 502.04808 219.61173 
L 369 218.16 
z
" style="fill: #f77189"/>
   </g>
   <g id="patch_3">
    <path d="M 502.04808 219.61173 
C 502.050694 219.372179 502.052661 219.132621 502.053981 218.89306 
C 502.0553 218.653498 502.055973 218.413933 502.055999 218.174368 
L 369 218.16 
z
" style="fill: #bb9832"/>
   </g>
   <g id="patch_4">
    <path d="M 502.055999 218.174368 
C 502.055999 218.171972 502.056 218.169576 502.056 218.167181 
C 502.056 218.164785 502.056 218.16239 502.056 218.159994 
L 369 218.16 
z
" style="fill: #50b131"/>
   </g>
   <g id="text_1">
    <text style="fill: #262626; font: 10px 'Arial', 'Liberation Sans', 'DejaVu Sans', 'Bitstream Vera Sans', sans-serif; text-anchor: end" x="222.640578" y="219.947474" transform="rotate(-0 222.640578 219.947474)">newsapi</text>
   </g>
   <g id="text_2">
    <text style="fill: #262626; font: 10px 'Arial', 'Liberation Sans', 'DejaVu Sans', 'Bitstream Vera Sans', sans-serif; text-anchor: middle" x="289.167588" y="220.310412" transform="rotate(-0 289.167588 220.310412)">99.8%</text>
   </g>
   <g id="text_3">
    <text style="fill: #262626; font: 10px 'Arial', 'Liberation Sans', 'DejaVu Sans', 'Bitstream Vera Sans', sans-serif; text-anchor: start" x="515.359379" y="221.552303" transform="rotate(-0 515.359379 221.552303)">chicago_pd</text>
   </g>
   <g id="text_4">
    <text style="fill: #262626; font: 10px 'Arial', 'Liberation Sans', 'DejaVu Sans', 'Bitstream Vera Sans', sans-serif; text-anchor: middle" x="448.832388" y="221.185773" transform="rotate(-0 448.832388 221.185773)">0.2%</text>
   </g>
   <g id="text_5">
    <text style="fill: #262626; font: 10px 'Arial', 'Liberation Sans', 'DejaVu Sans', 'Bitstream Vera Sans', sans-serif; text-anchor: start" x="515.3616" y="220.753836" transform="rotate(-0 515.3616 220.753836)">chicago_police</text>
   </g>
   <g id="text_6">
    <text style="fill: #262626; font: 10px 'Arial', 'Liberation Sans', 'DejaVu Sans', 'Bitstream Vera Sans', sans-serif; text-anchor: middle" x="448.8336" y="220.750246" transform="rotate(-0 448.8336 220.750246)">0.0%</text>
   </g>
   <g id="text_7">
    <text style="fill: #262626; font: 12px 'Arial', 'Liberation Sans', 'DejaVu Sans', 'Bitstream Vera Sans', sans-serif; text-anchor: middle" x="369" y="45.84" transform="rotate(-0 369 45.84)">Incidents by Source</text>
   </g>
  </g>
 </g>
</svg>
