<?xml version="1.0" encoding="utf-8" standalone="no"?>
<!DOCTYPE svg PUBLIC "-//W3C//DTD SVG 1.1//EN"
  "http://www.w3.org/Graphics/SVG/1.1/DTD/svg11.dtd">
<svg xmlns:xlink="http://www.w3.org/1999/xlink" width="720pt" height="432pt" viewBox="0 0 720 432" xmlns="http://www.w3.org/2000/svg" version="1.1">
 <metadata>
  <rdf:RDF xmlns:dc="http://purl.org/dc/elements/1.1/" xmlns:cc="http://creativecommons.org/ns#" xmlns:rdf="http://www.w3.org/1999/02/22-rdf-syntax-ns#">
   <cc:Work>
    <dc:type rdf:resource="http://purl.org/dc/dcmitype/StillImage"/>
    <dc:date>2025-08-31T01:52:43.597943</dc:date>
    <dc:format>image/svg+xml</dc:format>
    <dc:creator>
     <cc:Agent>
      <dc:title>Matplotlib v3.7.5, https://matplotlib.org/</dc:title>
     </cc:Agent>
    </dc:creator>
   </cc:Work>
  </rdf:RDF>
 </metadata>
 <defs>
  <style type="text/css">*{stroke-linejoin: round; stroke-linecap: butt}</style>
 </defs>
 <g id="figure_1">
  <g id="patch_1">
   <path d="M 0 432 
L 720 432 
L 720 0 
L 0 0 
z
" style="fill: #ffffff"/>
  </g>
  <g id="axes_1">
   <g id="matplotlib.axis_1"/>
   <g id="matplotlib.axis_2"/>
   <g id="patch_2">
    <path d="M 502.056 218.16 
C 502.056 200.71962 498.62699 183.448196 491.964497 167.330564 
C 485.302004 151.212933 475.535115 136.561378 463.22075 124.211347 
C 450.906384 111.861316 436.283136 102.052095 420.18484 95.343017 
C 404.086544 88.633939 386.82511 85.154995 369.384802 85.104556 
C 351.944495 85.054118 334.663227 88.433164 318.526394 95.049016 
C 302.389562 101.664869 287.709822 111.389344 275.324229 123.667942 
C 262.938636 135.946539 253.087166 150.541357 246.331559 166.620183 
C 239.575952 182.699009 236.047102 199.95031 235.946226 217.390399 
C 235.84535 234.830487 239.174403 252.121455 245.74356 268.277354 
C 252.312717 284.433252 261.994697 299.141054 274.237423 311.562105 
C 286.48015 323.983156 301.046416 333.876794 317.105637 340.678873 
C 333.164858 347.480952 350.405882 351.059679 367.845606 351.210992 
C 385.28533 351.362305 402.585854 348.083271 418.760682 341.560866 
C 434.935511 335.03846 449.671252 325.399056 462.127658 313.192302 
C 474.584063 300.985549 484.519786 286.447956 491.36828 270.408474 
C 498.216775 254.368992 501.845349 237.13839 502.047097 219.699177 
L 369 218.16 
z
" style="fill: #f77189"/>
   </g>
   <g id="patch_3">
    <path d="M 502.047097 219.699177 
C 502.050035 219.445196 502.052246 219.191206 502.05373 218.937212 
C 502.055214 218.683217 502.05597 218.429219 502.055999 218.175221 
L 369 218.16 
z
" style="fill: #bb9832"/>
   </g>
   <g id="patch_4">
    <path d="M 502.055999 218.175221 
C 502.055999 218.172681 502.056 218.170141 502.056 218.167601 
C 502.056 218.165061 502.056 218.162521 502.056 218.159981 
L 369 218.16 
z
" style="fill: #50b131"/>
   </g>
   <g id="text_1">
    <text style="fill: #262626; font: 10px 'Arial', 'Liberation Sans', 'DejaVu Sans', 'Bitstream Vera Sans', sans-serif; text-anchor: end" x="222.640848" y="219.899376" transform="rotate(-0 222.640848 219.899376)">newsapi</text>
   </g>
   <g id="text_2">
    <text style="fill: #262626; font: 10px 'Arial', 'Liberation Sans', 'DejaVu Sans', 'Bitstream Vera Sans', sans-serif; text-anchor: middle" x="289.167735" y="220.284177" transform="rotate(-0 289.167735 220.284177)">99.8%</text>
   </g>
   <g id="text_3">
    <text style="fill: #262626; font: 10px 'Arial', 'Liberation Sans', 'DejaVu Sans', 'Bitstream Vera Sans', sans-serif; text-anchor: start" x="515.359103" y="221.60087" transform="rotate(-0 515.359103 221.60087)">chicago_pd</text>
   </g>
   <g id="text_4">
    <text style="fill: #262626; font: 10px 'Arial', 'Liberation Sans', 'DejaVu Sans', 'Bitstream Vera Sans', sans-serif; text-anchor: middle" x="448.832238" y="221.212265" transform="rotate(-0 448.832238 221.212265)">0.2%</text>
   </g>
   <g id="text_5">
    <text style="fill: #262626; font: 10px 'Arial', 'Liberation Sans', 'DejaVu Sans', 'Bitstream Vera Sans', sans-serif; text-anchor: start" x="515.3616" y="220.754298" transform="rotate(-0 515.3616 220.754298)">chicago_police</text>
   </g>
   <g id="text_6">
    <text style="fill: #262626; font: 10px 'Arial', 'Liberation Sans', 'DejaVu Sans', 'Bitstream Vera Sans', sans-serif; text-anchor: middle" x="448.8336" y="220.750498" transform="rotate(-0 448.8336 220.750498)">0.0%</text>
   </g>
   <g id="text_7">
    <text style="fill: #262626; font: 12px 'Arial', 'Liberation Sans', 'DejaVu Sans', 'Bitstream Vera Sans', sans-serif; text-anchor: middle" x="369" y="45.84" transform="rotate(-0 369 45.84)">Incidents by Source</text>
   </g>
  </g>
 </g>
</svg>
