<?xml version="1.0" encoding="utf-8" standalone="no"?>
<!DOCTYPE svg PUBLIC "-//W3C//DTD SVG 1.1//EN"
  "http://www.w3.org/Graphics/SVG/1.1/DTD/svg11.dtd">
<svg xmlns:xlink="http://www.w3.org/1999/xlink" width="720pt" height="432pt" viewBox="0 0 720 432" xmlns="http://www.w3.org/2000/svg" version="1.1">
 <metadata>
  <rdf:RDF xmlns:dc="http://purl.org/dc/elements/1.1/" xmlns:cc="http://creativecommons.org/ns#" xmlns:rdf="http://www.w3.org/1999/02/22-rdf-syntax-ns#">
   <cc:Work>
    <dc:type rdf:resource="http://purl.org/dc/dcmitype/StillImage"/>
    <dc:date>2026-03-19T02:42:09.550137</dc:date>
    <dc:format>image/svg+xml</dc:format>
    <dc:creator>
     <cc:Agent>
      <dc:title>Matplotlib v3.7.5, https://matplotlib.org/</dc:title>
     </cc:Agent>
    </dc:creator>
   </cc:Work>
  </rdf:RDF>
 </metadata>
 <defs>
  <style type="text/css">*{stroke-linejoin: round; stroke-linecap: butt}</style>
 </defs>
 <g id="figure_1">
  <g id="patch_1">
   <path d="M 0 432 
L 720 432 
L 720 0 
L 0 0 
z
" style="fill: #ffffff"/>
  </g>
  <g id="axes_1">
   <g id="matplotlib.axis_1"/>
   <g id="matplotlib.axis_2"/>
   <g id="patch_2">
    <path d="M 502.056 218.16 
C 502.056 200.706007 498.621635 183.421366 491.949038 167.293182 
C 485.276441 151.164998 475.495097 136.506247 463.163606 124.154072 
C 450.832115 111.801898 436.189778 101.996001 420.072799 95.296383 
C 403.95582 88.596766 386.67696 85.133438 369.222991 85.104187 
C 351.769022 85.074935 334.47865 88.480328 318.339306 95.125886 
C 302.199961 101.771444 287.524839 111.528208 275.152015 123.83898 
C 262.779191 136.149752 252.948768 150.775635 246.22215 166.881363 
C 239.495531 182.987091 236.00325 200.260123 235.944747 217.714019 
C 235.886245 235.167914 239.262655 252.463969 245.881156 268.614428 
C 252.499656 284.764887 262.231812 299.456341 274.521831 311.849779 
C 286.81185 324.243217 301.421237 334.098138 317.51567 340.851739 
C 333.610102 347.60534 350.877257 351.126564 368.33103 351.214318 
C 385.784802 351.302072 403.086491 347.954654 419.24802 341.363229 
C 435.409548 334.771804 450.117292 325.064284 462.53131 312.795053 
C 474.945328 300.525821 484.824719 285.932971 491.605283 269.849879 
C 498.385848 253.766788 501.936005 236.505559 502.05301 219.051958 
L 369 218.16 
z
" style="fill: #f77189"/>
   </g>
   <g id="patch_3">
    <path d="M 502.05301 219.051958 
C 502.053997 218.904774 502.054739 218.757589 502.055238 218.610403 
C 502.055736 218.463217 502.05599 218.31603 502.056 218.168843 
L 369 218.16 
z
" style="fill: #bb9832"/>
   </g>
   <g id="patch_4">
    <path d="M 502.056 218.168843 
C 502.056 218.167371 502.056 218.165899 502.056 218.164428 
C 502.056 218.162956 502.056 218.161484 502.056 218.160012 
L 369 218.16 
z
" style="fill: #50b131"/>
   </g>
   <g id="text_1">
    <text style="fill: #262626; font: 10px 'Arial', 'Liberation Sans', 'DejaVu Sans', 'Bitstream Vera Sans', sans-serif; text-anchor: end" x="222.639222" y="220.255358" transform="rotate(-0 222.639222 220.255358)">newsapi</text>
   </g>
   <g id="text_2">
    <text style="fill: #262626; font: 10px 'Arial', 'Liberation Sans', 'DejaVu Sans', 'Bitstream Vera Sans', sans-serif; text-anchor: middle" x="289.166848" y="220.478349" transform="rotate(-0 289.166848 220.478349)">99.9%</text>
   </g>
   <g id="text_3">
    <text style="fill: #262626; font: 10px 'Arial', 'Liberation Sans', 'DejaVu Sans', 'Bitstream Vera Sans', sans-serif; text-anchor: start" x="515.360761" y="221.241381" transform="rotate(-0 515.360761 221.241381)">chicago_pd</text>
   </g>
   <g id="text_4">
    <text style="fill: #262626; font: 10px 'Arial', 'Liberation Sans', 'DejaVu Sans', 'Bitstream Vera Sans', sans-serif; text-anchor: middle" x="448.833143" y="221.016179" transform="rotate(-0 448.833143 221.016179)">0.1%</text>
   </g>
   <g id="text_5">
    <text style="fill: #262626; font: 10px 'Arial', 'Liberation Sans', 'DejaVu Sans', 'Bitstream Vera Sans', sans-serif; text-anchor: start" x="515.3616" y="220.750808" transform="rotate(-0 515.3616 220.750808)">chicago_police</text>
   </g>
   <g id="text_6">
    <text style="fill: #262626; font: 10px 'Arial', 'Liberation Sans', 'DejaVu Sans', 'Bitstream Vera Sans', sans-serif; text-anchor: middle" x="448.8336" y="220.748594" transform="rotate(-0 448.8336 220.748594)">0.0%</text>
   </g>
   <g id="text_7">
    <text style="fill: #262626; font: 12px 'Arial', 'Liberation Sans', 'DejaVu Sans', 'Bitstream Vera Sans', sans-serif; text-anchor: middle" x="369" y="45.84" transform="rotate(-0 369 45.84)">Incidents by Source</text>
   </g>
  </g>
 </g>
</svg>
