<?xml version="1.0" encoding="utf-8" standalone="no"?>
<!DOCTYPE svg PUBLIC "-//W3C//DTD SVG 1.1//EN"
  "http://www.w3.org/Graphics/SVG/1.1/DTD/svg11.dtd">
<svg xmlns:xlink="http://www.w3.org/1999/xlink" width="720pt" height="432pt" viewBox="0 0 720 432" xmlns="http://www.w3.org/2000/svg" version="1.1">
 <metadata>
  <rdf:RDF xmlns:dc="http://purl.org/dc/elements/1.1/" xmlns:cc="http://creativecommons.org/ns#" xmlns:rdf="http://www.w3.org/1999/02/22-rdf-syntax-ns#">
   <cc:Work>
    <dc:type rdf:resource="http://purl.org/dc/dcmitype/StillImage"/>
    <dc:date>2025-01-30T00:56:40.155432</dc:date>
    <dc:format>image/svg+xml</dc:format>
    <dc:creator>
     <cc:Agent>
      <dc:title>Matplotlib v3.7.5, https://matplotlib.org/</dc:title>
     </cc:Agent>
    </dc:creator>
   </cc:Work>
  </rdf:RDF>
 </metadata>
 <defs>
  <style type="text/css">*{stroke-linejoin: round; stroke-linecap: butt}</style>
 </defs>
 <g id="figure_1">
  <g id="patch_1">
   <path d="M 0 432 
L 720 432 
L 720 0 
L 0 0 
z
" style="fill: #ffffff"/>
  </g>
  <g id="axes_1">
   <g id="matplotlib.axis_1"/>
   <g id="matplotlib.axis_2"/>
   <g id="patch_2">
    <path d="M 502.056 218.16 
C 502.056 200.835902 498.672563 183.677397 492.096095 167.650094 
C 485.519626 151.622791 475.87585 137.033085 463.707476 124.702025 
C 451.539102 112.370964 437.078755 102.534282 421.140203 95.745547 
C 405.20165 88.956811 388.089592 85.345803 370.767021 85.115734 
C 353.444451 84.885665 336.242527 88.040934 320.129299 94.403975 
C 304.016072 100.767016 289.299581 110.216187 276.808009 122.219728 
C 264.316436 134.223269 254.288584 148.551706 247.288779 164.398696 
C 240.288973 180.245687 236.45103 197.308281 235.990933 214.626269 
C 235.530836 231.944256 238.45738 249.186567 244.605872 265.382876 
C 250.754364 281.579185 260.007262 296.419865 271.843852 309.069747 
C 283.680443 321.719629 297.874444 331.936882 313.627078 339.146523 
C 329.379712 346.356163 346.389832 350.420364 363.700182 351.110408 
C 381.010532 351.800453 398.290187 349.10315 414.566722 343.170292 
C 430.843257 337.237433 445.805509 328.18244 458.611469 316.514887 
C 471.417428 304.847334 481.822281 290.790273 489.240485 275.134774 
C 496.658689 259.479276 500.948431 242.524629 501.868301 225.22497 
L 369 218.16 
z
" style="fill: #f77189"/>
   </g>
   <g id="patch_3">
    <path d="M 501.868301 225.22497 
C 501.930234 224.060217 501.976848 222.8947 502.008133 221.728722 
C 502.039417 220.562743 502.055368 219.396404 502.055982 218.230005 
L 369 218.16 
z
" style="fill: #bb9832"/>
   </g>
   <g id="patch_4">
    <path d="M 502.055982 218.230005 
C 502.055988 218.218342 502.055992 218.206678 502.055995 218.195014 
C 502.055998 218.18335 502.056 218.171686 502.056 218.160023 
L 369 218.16 
z
" style="fill: #50b131"/>
   </g>
   <g id="text_1">
    <text style="fill: #262626; font: 10px 'Arial', 'Liberation Sans', 'DejaVu Sans', 'Bitstream Vera Sans', sans-serif; text-anchor: end" x="222.690026" y="216.858833" transform="rotate(-0 222.690026 216.858833)">newsapi</text>
   </g>
   <g id="text_2">
    <text style="fill: #262626; font: 10px 'Arial', 'Liberation Sans', 'DejaVu Sans', 'Bitstream Vera Sans', sans-serif; text-anchor: middle" x="289.19456" y="218.625699" transform="rotate(-0 289.19456 218.625699)">99.2%</text>
   </g>
   <g id="text_3">
    <text style="fill: #262626; font: 10px 'Arial', 'Liberation Sans', 'DejaVu Sans', 'Bitstream Vera Sans', sans-serif; text-anchor: start" x="515.308946" y="224.671531" transform="rotate(-0 515.308946 224.671531)">chicago_pd</text>
   </g>
   <g id="text_4">
    <text style="fill: #262626; font: 10px 'Arial', 'Liberation Sans', 'DejaVu Sans', 'Bitstream Vera Sans', sans-serif; text-anchor: middle" x="448.80488" y="222.88717" transform="rotate(-0 448.80488 222.88717)">0.8%</text>
   </g>
   <g id="text_5">
    <text style="fill: #262626; font: 10px 'Arial', 'Liberation Sans', 'DejaVu Sans', 'Bitstream Vera Sans', sans-serif; text-anchor: start" x="515.361595" y="220.784453" transform="rotate(-0 515.361595 220.784453)">chicago_police</text>
   </g>
   <g id="text_6">
    <text style="fill: #262626; font: 10px 'Arial', 'Liberation Sans', 'DejaVu Sans', 'Bitstream Vera Sans', sans-serif; text-anchor: middle" x="448.833597" y="220.766946" transform="rotate(-0 448.833597 220.766946)">0.0%</text>
   </g>
   <g id="text_7">
    <text style="fill: #262626; font: 12px 'Arial', 'Liberation Sans', 'DejaVu Sans', 'Bitstream Vera Sans', sans-serif; text-anchor: middle" x="369" y="45.84" transform="rotate(-0 369 45.84)">Incidents by Source</text>
   </g>
  </g>
 </g>
</svg>
