<?xml version="1.0" encoding="utf-8" standalone="no"?>
<!DOCTYPE svg PUBLIC "-//W3C//DTD SVG 1.1//EN"
  "http://www.w3.org/Graphics/SVG/1.1/DTD/svg11.dtd">
<svg xmlns:xlink="http://www.w3.org/1999/xlink" width="720pt" height="432pt" viewBox="0 0 720 432" xmlns="http://www.w3.org/2000/svg" version="1.1">
 <metadata>
  <rdf:RDF xmlns:dc="http://purl.org/dc/elements/1.1/" xmlns:cc="http://creativecommons.org/ns#" xmlns:rdf="http://www.w3.org/1999/02/22-rdf-syntax-ns#">
   <cc:Work>
    <dc:type rdf:resource="http://purl.org/dc/dcmitype/StillImage"/>
    <dc:date>2026-05-30T08:22:46.404526</dc:date>
    <dc:format>image/svg+xml</dc:format>
    <dc:creator>
     <cc:Agent>
      <dc:title>Matplotlib v3.7.5, https://matplotlib.org/</dc:title>
     </cc:Agent>
    </dc:creator>
   </cc:Work>
  </rdf:RDF>
 </metadata>
 <defs>
  <style type="text/css">*{stroke-linejoin: round; stroke-linecap: butt}</style>
 </defs>
 <g id="figure_1">
  <g id="patch_1">
   <path d="M 0 432 
L 720 432 
L 720 0 
L 0 0 
z
" style="fill: #ffffff"/>
  </g>
  <g id="axes_1">
   <g id="matplotlib.axis_1"/>
   <g id="matplotlib.axis_2"/>
   <g id="patch_2">
    <path d="M 502.056 218.16 
C 502.056 200.703707 498.62073 183.416834 491.946426 167.286868 
C 485.272121 151.156902 475.488335 136.496937 463.15395 124.144401 
C 450.819566 111.791866 436.174004 101.986533 420.05387 95.288516 
C 403.933735 88.5905 386.651933 85.129813 369.195659 85.104144 
C 351.739385 85.078474 334.447479 88.48832 318.307716 95.138898 
C 302.167952 101.789477 287.493616 111.551695 275.122957 123.867901 
C 262.752297 136.184108 252.925438 150.815235 246.203724 166.925503 
C 239.48201 183.03577 235.995914 200.312465 235.944575 217.768682 
C 235.893236 235.2249 239.277651 252.521801 245.904488 268.671327 
C 252.531326 284.820852 262.271955 299.509528 274.569957 311.898285 
C 286.867959 324.287042 301.48462 334.135406 317.584986 340.880803 
C 333.685352 347.6262 350.956902 351.137697 368.413025 351.214705 
C 385.869148 351.291714 403.171007 347.932738 419.33026 341.329656 
C 435.489513 334.726573 450.192496 325.007554 462.599324 312.727783 
C 475.006152 300.448012 484.875999 285.845849 491.645064 269.75542 
C 498.41413 253.66499 501.951021 236.398623 502.053698 218.942632 
L 369 218.16 
z
" style="fill: #f77189"/>
   </g>
   <g id="patch_3">
    <path d="M 502.053698 218.942632 
C 502.054458 218.813484 502.05503 218.684336 502.055413 218.555186 
C 502.055797 218.426037 502.055992 218.296887 502.056 218.167737 
L 369 218.16 
z
" style="fill: #bb9832"/>
   </g>
   <g id="patch_4">
    <path d="M 502.056 218.167737 
C 502.056 218.166446 502.056 218.165154 502.056 218.163863 
C 502.056 218.162571 502.056 218.16128 502.056 218.159988 
L 369 218.16 
z
" style="fill: #50b131"/>
   </g>
   <g id="text_1">
    <text style="fill: #262626; font: 10px 'Arial', 'Liberation Sans', 'DejaVu Sans', 'Bitstream Vera Sans', sans-serif; text-anchor: end" x="222.639033" y="220.315488" transform="rotate(-0 222.639033 220.315488)">newsapi</text>
   </g>
   <g id="text_2">
    <text style="fill: #262626; font: 10px 'Arial', 'Liberation Sans', 'DejaVu Sans', 'Bitstream Vera Sans', sans-serif; text-anchor: middle" x="289.166745" y="220.511147" transform="rotate(-0 289.166745 220.511147)">99.9%</text>
   </g>
   <g id="text_3">
    <text style="fill: #262626; font: 10px 'Arial', 'Liberation Sans', 'DejaVu Sans', 'Bitstream Vera Sans', sans-serif; text-anchor: start" x="515.360954" y="221.180642" transform="rotate(-0 515.360954 221.180642)">chicago_pd</text>
   </g>
   <g id="text_4">
    <text style="fill: #262626; font: 10px 'Arial', 'Liberation Sans', 'DejaVu Sans', 'Bitstream Vera Sans', sans-serif; text-anchor: middle" x="448.833248" y="220.983049" transform="rotate(-0 448.833248 220.983049)">0.1%</text>
   </g>
   <g id="text_5">
    <text style="fill: #262626; font: 10px 'Arial', 'Liberation Sans', 'DejaVu Sans', 'Bitstream Vera Sans', sans-serif; text-anchor: start" x="515.3616" y="220.750186" transform="rotate(-0 515.3616 220.750186)">chicago_police</text>
   </g>
   <g id="text_6">
    <text style="fill: #262626; font: 10px 'Arial', 'Liberation Sans', 'DejaVu Sans', 'Bitstream Vera Sans', sans-serif; text-anchor: middle" x="448.8336" y="220.748255" transform="rotate(-0 448.8336 220.748255)">0.0%</text>
   </g>
   <g id="text_7">
    <text style="fill: #262626; font: 12px 'Arial', 'Liberation Sans', 'DejaVu Sans', 'Bitstream Vera Sans', sans-serif; text-anchor: middle" x="369" y="45.84" transform="rotate(-0 369 45.84)">Incidents by Source</text>
   </g>
  </g>
 </g>
</svg>
