<?xml version="1.0" encoding="utf-8" standalone="no"?>
<!DOCTYPE svg PUBLIC "-//W3C//DTD SVG 1.1//EN"
  "http://www.w3.org/Graphics/SVG/1.1/DTD/svg11.dtd">
<svg xmlns:xlink="http://www.w3.org/1999/xlink" width="720pt" height="432pt" viewBox="0 0 720 432" xmlns="http://www.w3.org/2000/svg" version="1.1">
 <metadata>
  <rdf:RDF xmlns:dc="http://purl.org/dc/elements/1.1/" xmlns:cc="http://creativecommons.org/ns#" xmlns:rdf="http://www.w3.org/1999/02/22-rdf-syntax-ns#">
   <cc:Work>
    <dc:type rdf:resource="http://purl.org/dc/dcmitype/StillImage"/>
    <dc:date>2025-02-06T06:18:07.050168</dc:date>
    <dc:format>image/svg+xml</dc:format>
    <dc:creator>
     <cc:Agent>
      <dc:title>Matplotlib v3.7.5, https://matplotlib.org/</dc:title>
     </cc:Agent>
    </dc:creator>
   </cc:Work>
  </rdf:RDF>
 </metadata>
 <defs>
  <style type="text/css">*{stroke-linejoin: round; stroke-linecap: butt}</style>
 </defs>
 <g id="figure_1">
  <g id="patch_1">
   <path d="M 0 432 
L 720 432 
L 720 0 
L 0 0 
z
" style="fill: #ffffff"/>
  </g>
  <g id="axes_1">
   <g id="matplotlib.axis_1"/>
   <g id="matplotlib.axis_2"/>
   <g id="patch_2">
    <path d="M 502.056 218.16 
C 502.056 200.82107 498.666767 183.648161 492.079355 167.609318 
C 485.491943 151.570475 475.8325 136.972843 463.645534 124.639297 
C 451.458569 112.305751 436.977461 102.472479 421.018519 95.693789 
C 405.059576 88.915098 387.928414 85.320801 370.590723 85.113509 
C 353.253033 84.906217 336.040831 88.0899 319.92438 94.485093 
C 303.807929 100.880285 289.095858 110.364519 276.617495 122.403162 
C 264.139132 134.441806 254.133438 148.804319 247.164438 164.68108 
C 240.195438 180.55784 236.396589 197.644808 235.982035 214.978781 
C 235.567481 232.312754 238.54516 249.561787 244.747218 265.753543 
C 250.949277 281.945299 260.256945 296.769705 272.145546 309.391102 
C 284.034147 322.012498 298.276013 332.189186 314.068322 339.347499 
C 329.860632 346.505812 346.900962 350.508669 364.22874 351.130426 
C 381.556518 351.752183 398.839918 348.980935 415.104664 342.972896 
C 431.36941 336.964858 446.304032 327.835085 459.066659 316.098226 
C 471.829285 304.361368 482.175511 290.242185 489.522114 274.536584 
C 496.868717 258.830983 501.07501 241.839726 501.903881 224.520619 
L 369 218.16 
z
" style="fill: #f77189"/>
   </g>
   <g id="patch_3">
    <path d="M 501.903881 224.520619 
C 501.954076 223.4718 501.991855 222.422424 502.017208 221.372711 
C 502.042561 220.322998 502.055488 219.273021 502.055985 218.223002 
L 369 218.16 
z
" style="fill: #bb9832"/>
   </g>
   <g id="patch_4">
    <path d="M 502.055985 218.223002 
C 502.05599 218.212502 502.055994 218.202002 502.055996 218.191502 
C 502.055999 218.181002 502.056 218.170502 502.056 218.160002 
L 369 218.16 
z
" style="fill: #50b131"/>
   </g>
   <g id="text_1">
    <text style="fill: #262626; font: 10px 'Arial', 'Liberation Sans', 'DejaVu Sans', 'Bitstream Vera Sans', sans-serif; text-anchor: end" x="222.680239" y="217.246597" transform="rotate(-0 222.680239 217.246597)">newsapi</text>
   </g>
   <g id="text_2">
    <text style="fill: #262626; font: 10px 'Arial', 'Liberation Sans', 'DejaVu Sans', 'Bitstream Vera Sans', sans-serif; text-anchor: middle" x="289.189221" y="218.837206" transform="rotate(-0 289.189221 218.837206)">99.2%</text>
   </g>
   <g id="text_3">
    <text style="fill: #262626; font: 10px 'Arial', 'Liberation Sans', 'DejaVu Sans', 'Bitstream Vera Sans', sans-serif; text-anchor: start" x="515.318929" y="224.27992" transform="rotate(-0 515.318929 224.27992)">chicago_pd</text>
   </g>
   <g id="text_4">
    <text style="fill: #262626; font: 10px 'Arial', 'Liberation Sans', 'DejaVu Sans', 'Bitstream Vera Sans', sans-serif; text-anchor: middle" x="448.810325" y="222.673564" transform="rotate(-0 448.810325 222.673564)">0.8%</text>
   </g>
   <g id="text_5">
    <text style="fill: #262626; font: 10px 'Arial', 'Liberation Sans', 'DejaVu Sans', 'Bitstream Vera Sans', sans-serif; text-anchor: start" x="515.361596" y="220.78059" transform="rotate(-0 515.361596 220.78059)">chicago_police</text>
   </g>
   <g id="text_6">
    <text style="fill: #262626; font: 10px 'Arial', 'Liberation Sans', 'DejaVu Sans', 'Bitstream Vera Sans', sans-serif; text-anchor: middle" x="448.833598" y="220.764839" transform="rotate(-0 448.833598 220.764839)">0.0%</text>
   </g>
   <g id="text_7">
    <text style="fill: #262626; font: 12px 'Arial', 'Liberation Sans', 'DejaVu Sans', 'Bitstream Vera Sans', sans-serif; text-anchor: middle" x="369" y="45.84" transform="rotate(-0 369 45.84)">Incidents by Source</text>
   </g>
  </g>
 </g>
</svg>
