<?xml version="1.0" encoding="utf-8" standalone="no"?>
<!DOCTYPE svg PUBLIC "-//W3C//DTD SVG 1.1//EN"
  "http://www.w3.org/Graphics/SVG/1.1/DTD/svg11.dtd">
<svg xmlns:xlink="http://www.w3.org/1999/xlink" width="720pt" height="432pt" viewBox="0 0 720 432" xmlns="http://www.w3.org/2000/svg" version="1.1">
 <metadata>
  <rdf:RDF xmlns:dc="http://purl.org/dc/elements/1.1/" xmlns:cc="http://creativecommons.org/ns#" xmlns:rdf="http://www.w3.org/1999/02/22-rdf-syntax-ns#">
   <cc:Work>
    <dc:type rdf:resource="http://purl.org/dc/dcmitype/StillImage"/>
    <dc:date>2025-04-15T01:49:20.357801</dc:date>
    <dc:format>image/svg+xml</dc:format>
    <dc:creator>
     <cc:Agent>
      <dc:title>Matplotlib v3.7.5, https://matplotlib.org/</dc:title>
     </cc:Agent>
    </dc:creator>
   </cc:Work>
  </rdf:RDF>
 </metadata>
 <defs>
  <style type="text/css">*{stroke-linejoin: round; stroke-linecap: butt}</style>
 </defs>
 <g id="figure_1">
  <g id="patch_1">
   <path d="M 0 432 
L 720 432 
L 720 0 
L 0 0 
z
" style="fill: #ffffff"/>
  </g>
  <g id="axes_1">
   <g id="matplotlib.axis_1"/>
   <g id="matplotlib.axis_2"/>
   <g id="patch_2">
    <path d="M 502.056 218.16 
C 502.056 200.755083 498.640921 183.518092 492.004718 167.427973 
C 485.368514 151.337853 475.63924 136.705087 463.369453 124.360717 
C 451.099666 112.016347 436.526129 102.198575 420.476522 95.464984 
C 404.426914 88.731394 387.210936 85.21192 369.806338 85.106443 
C 352.401741 85.000967 335.14437 88.311524 319.01433 94.850098 
C 302.88429 101.388671 288.192832 111.02909 275.774332 123.223843 
C 263.355832 135.418596 253.449922 149.932368 246.619193 165.940874 
C 239.788463 181.94938 236.164722 199.143714 235.953773 216.547353 
C 235.742824 233.950992 238.948739 251.228108 245.389442 267.397476 
C 251.830145 283.566845 261.381355 298.316456 273.500626 310.80863 
C 285.619897 323.300804 300.073371 333.294487 316.040188 340.222105 
C 332.007005 347.149723 349.179063 350.877598 366.581104 351.194011 
C 383.983144 351.510424 401.279371 348.40927 417.487475 342.066674 
C 433.695578 335.724078 448.5028 326.262429 461.068189 314.219085 
C 473.633578 302.175741 483.714668 287.783095 490.738919 271.858553 
C 497.763171 255.934012 501.595043 238.784861 502.016909 221.385057 
L 369 218.16 
z
" style="fill: #f77189"/>
   </g>
   <g id="patch_3">
    <path d="M 502.016909 221.385057 
C 502.02981 220.852969 502.039518 220.320808 502.046033 219.788603 
C 502.052547 219.256398 502.055869 218.724159 502.055996 218.191914 
L 369 218.16 
z
" style="fill: #bb9832"/>
   </g>
   <g id="patch_4">
    <path d="M 502.055996 218.191914 
C 502.055997 218.186592 502.055998 218.181269 502.055999 218.175947 
C 502.056 218.170625 502.056 218.165302 502.056 218.15998 
L 369 218.16 
z
" style="fill: #50b131"/>
   </g>
   <g id="text_1">
    <text style="fill: #262626; font: 10px 'Arial', 'Liberation Sans', 'DejaVu Sans', 'Bitstream Vera Sans', sans-serif; text-anchor: end" x="222.64915" y="218.972026" transform="rotate(-0 222.64915 218.972026)">newsapi</text>
   </g>
   <g id="text_2">
    <text style="fill: #262626; font: 10px 'Arial', 'Liberation Sans', 'DejaVu Sans', 'Bitstream Vera Sans', sans-serif; text-anchor: middle" x="289.172264" y="219.778349" transform="rotate(-0 289.172264 219.778349)">99.6%</text>
   </g>
   <g id="text_3">
    <text style="fill: #262626; font: 10px 'Arial', 'Liberation Sans', 'DejaVu Sans', 'Bitstream Vera Sans', sans-serif; text-anchor: start" x="515.350636" y="222.537401" transform="rotate(-0 515.350636 222.537401)">chicago_pd</text>
   </g>
   <g id="text_4">
    <text style="fill: #262626; font: 10px 'Arial', 'Liberation Sans', 'DejaVu Sans', 'Bitstream Vera Sans', sans-serif; text-anchor: middle" x="448.82762" y="221.723099" transform="rotate(-0 448.82762 221.723099)">0.4%</text>
   </g>
   <g id="text_5">
    <text style="fill: #262626; font: 10px 'Arial', 'Liberation Sans', 'DejaVu Sans', 'Bitstream Vera Sans', sans-serif; text-anchor: start" x="515.361599" y="220.763479" transform="rotate(-0 515.361599 220.763479)">chicago_police</text>
   </g>
   <g id="text_6">
    <text style="fill: #262626; font: 10px 'Arial', 'Liberation Sans', 'DejaVu Sans', 'Bitstream Vera Sans', sans-serif; text-anchor: middle" x="448.833599" y="220.755506" transform="rotate(-0 448.833599 220.755506)">0.0%</text>
   </g>
   <g id="text_7">
    <text style="fill: #262626; font: 12px 'Arial', 'Liberation Sans', 'DejaVu Sans', 'Bitstream Vera Sans', sans-serif; text-anchor: middle" x="369" y="45.84" transform="rotate(-0 369 45.84)">Incidents by Source</text>
   </g>
  </g>
 </g>
</svg>
