<?xml version="1.0" encoding="utf-8" standalone="no"?>
<!DOCTYPE svg PUBLIC "-//W3C//DTD SVG 1.1//EN"
  "http://www.w3.org/Graphics/SVG/1.1/DTD/svg11.dtd">
<svg xmlns:xlink="http://www.w3.org/1999/xlink" width="720pt" height="432pt" viewBox="0 0 720 432" xmlns="http://www.w3.org/2000/svg" version="1.1">
 <metadata>
  <rdf:RDF xmlns:dc="http://purl.org/dc/elements/1.1/" xmlns:cc="http://creativecommons.org/ns#" xmlns:rdf="http://www.w3.org/1999/02/22-rdf-syntax-ns#">
   <cc:Work>
    <dc:type rdf:resource="http://purl.org/dc/dcmitype/StillImage"/>
    <dc:date>2025-01-23T18:16:47.412071</dc:date>
    <dc:format>image/svg+xml</dc:format>
    <dc:creator>
     <cc:Agent>
      <dc:title>Matplotlib v3.7.5, https://matplotlib.org/</dc:title>
     </cc:Agent>
    </dc:creator>
   </cc:Work>
  </rdf:RDF>
 </metadata>
 <defs>
  <style type="text/css">*{stroke-linejoin: round; stroke-linecap: butt}</style>
 </defs>
 <g id="figure_1">
  <g id="patch_1">
   <path d="M 0 432 
L 720 432 
L 720 0 
L 0 0 
z
" style="fill: #ffffff"/>
  </g>
  <g id="axes_1">
   <g id="matplotlib.axis_1"/>
   <g id="matplotlib.axis_2"/>
   <g id="patch_2">
    <path d="M 502.056 218.16 
C 502.056 200.854114 498.679673 183.7133 492.116632 167.700175 
C 485.553591 151.687049 475.929039 137.107094 463.783483 124.779111 
C 451.637928 112.451128 437.20307 102.610296 421.289562 95.809271 
C 405.376053 89.008246 388.287476 85.37677 370.983513 85.118785 
C 353.67955 84.8608 336.490308 87.981228 320.381125 94.304826 
C 304.271942 100.628424 289.55013 110.034559 277.042459 121.994987 
C 264.534787 133.955415 254.479863 148.241968 247.442366 164.052323 
C 240.404868 179.862678 236.519051 196.895221 236.003138 214.193415 
C 235.487225 231.491609 238.35106 248.725458 244.43381 264.927119 
C 250.51656 281.128781 259.702186 295.989177 271.474829 308.673757 
C 283.247472 321.358337 297.382545 331.625118 313.086233 338.897524 
C 328.78992 346.16993 345.762643 350.309226 363.051224 351.082952 
C 380.339805 351.856678 397.614431 349.250073 413.90497 343.409522 
C 430.195509 337.568972 445.191187 328.605896 458.049856 317.023655 
C 470.908526 305.441414 481.384883 291.460961 488.890581 275.867431 
C 496.39628 260.273902 500.788134 243.36477 501.819501 226.089645 
L 369 218.16 
z
" style="fill: #f77189"/>
   </g>
   <g id="patch_3">
    <path d="M 501.819501 226.089645 
C 501.897532 224.782646 501.956267 223.474567 501.995686 222.165835 
C 502.035105 220.857103 502.055204 219.54786 502.055977 218.238534 
L 369 218.16 
z
" style="fill: #bb9832"/>
   </g>
   <g id="patch_4">
    <path d="M 502.055977 218.238534 
C 502.055985 218.225441 502.05599 218.212348 502.055994 218.199255 
C 502.055998 218.186162 502.056 218.173069 502.056 218.159976 
L 369 218.16 
z
" style="fill: #50b131"/>
   </g>
   <g id="text_1">
    <text style="fill: #262626; font: 10px 'Arial', 'Liberation Sans', 'DejaVu Sans', 'Bitstream Vera Sans', sans-serif; text-anchor: end" x="222.703452" y="216.382694" transform="rotate(-0 222.703452 216.382694)">newsapi</text>
   </g>
   <g id="text_2">
    <text style="fill: #262626; font: 10px 'Arial', 'Liberation Sans', 'DejaVu Sans', 'Bitstream Vera Sans', sans-serif; text-anchor: middle" x="289.201883" y="218.365986" transform="rotate(-0 289.201883 218.365986)">99.1%</text>
   </g>
   <g id="text_3">
    <text style="fill: #262626; font: 10px 'Arial', 'Liberation Sans', 'DejaVu Sans', 'Bitstream Vera Sans', sans-serif; text-anchor: start" x="515.295254" y="225.152356" transform="rotate(-0 515.295254 225.152356)">chicago_pd</text>
   </g>
   <g id="text_4">
    <text style="fill: #262626; font: 10px 'Arial', 'Liberation Sans', 'DejaVu Sans', 'Bitstream Vera Sans', sans-serif; text-anchor: middle" x="448.797411" y="223.149438" transform="rotate(-0 448.797411 223.149438)">0.9%</text>
   </g>
   <g id="text_5">
    <text style="fill: #262626; font: 10px 'Arial', 'Liberation Sans', 'DejaVu Sans', 'Bitstream Vera Sans', sans-serif; text-anchor: start" x="515.361594" y="220.789118" transform="rotate(-0 515.361594 220.789118)">chicago_police</text>
   </g>
   <g id="text_6">
    <text style="fill: #262626; font: 10px 'Arial', 'Liberation Sans', 'DejaVu Sans', 'Bitstream Vera Sans', sans-serif; text-anchor: middle" x="448.833597" y="220.769491" transform="rotate(-0 448.833597 220.769491)">0.0%</text>
   </g>
   <g id="text_7">
    <text style="fill: #262626; font: 12px 'Arial', 'Liberation Sans', 'DejaVu Sans', 'Bitstream Vera Sans', sans-serif; text-anchor: middle" x="369" y="45.84" transform="rotate(-0 369 45.84)">Incidents by Source</text>
   </g>
  </g>
 </g>
</svg>
