<?xml version="1.0" encoding="utf-8" standalone="no"?>
<!DOCTYPE svg PUBLIC "-//W3C//DTD SVG 1.1//EN"
  "http://www.w3.org/Graphics/SVG/1.1/DTD/svg11.dtd">
<svg xmlns:xlink="http://www.w3.org/1999/xlink" width="720pt" height="432pt" viewBox="0 0 720 432" xmlns="http://www.w3.org/2000/svg" version="1.1">
 <metadata>
  <rdf:RDF xmlns:dc="http://purl.org/dc/elements/1.1/" xmlns:cc="http://creativecommons.org/ns#" xmlns:rdf="http://www.w3.org/1999/02/22-rdf-syntax-ns#">
   <cc:Work>
    <dc:type rdf:resource="http://purl.org/dc/dcmitype/StillImage"/>
    <dc:date>2026-01-24T12:30:52.604132</dc:date>
    <dc:format>image/svg+xml</dc:format>
    <dc:creator>
     <cc:Agent>
      <dc:title>Matplotlib v3.7.5, https://matplotlib.org/</dc:title>
     </cc:Agent>
    </dc:creator>
   </cc:Work>
  </rdf:RDF>
 </metadata>
 <defs>
  <style type="text/css">*{stroke-linejoin: round; stroke-linecap: butt}</style>
 </defs>
 <g id="figure_1">
  <g id="patch_1">
   <path d="M 0 432 
L 720 432 
L 720 0 
L 0 0 
z
" style="fill: #ffffff"/>
  </g>
  <g id="axes_1">
   <g id="matplotlib.axis_1"/>
   <g id="matplotlib.axis_2"/>
   <g id="patch_2">
    <path d="M 502.056 218.16 
C 502.056 200.708254 498.62252 183.425795 491.951591 167.299352 
C 485.280662 151.172909 475.501704 136.515346 463.173041 124.163524 
C 450.844377 111.811702 436.205191 102.005255 420.091296 95.304074 
C 403.977401 88.602893 386.701416 85.136985 369.2497 85.104234 
C 351.797984 85.071483 334.509113 88.472525 318.370179 95.113178 
C 302.231246 101.753832 287.555356 111.505264 275.18042 123.810726 
C 262.805483 136.116188 252.97158 150.736945 246.240171 166.838236 
C 239.508761 182.939527 236.010439 200.208977 235.944937 217.660601 
C 235.879436 235.112224 239.248026 252.407448 245.85838 268.558815 
C 252.468735 284.710183 262.192609 299.404346 274.474826 311.802354 
C 286.757042 324.200362 301.359318 334.061686 317.447949 340.8233 
C 333.536579 347.584914 350.799434 351.115639 368.250903 351.213891 
C 385.702373 351.312143 403.003888 347.976017 419.167633 341.395984 
C 435.331377 334.815952 450.043763 325.119671 462.464798 312.860742 
C 474.885834 300.601814 484.774544 286.01807 491.566339 269.942157 
C 498.358134 253.866244 501.921249 236.610046 502.052251 219.158791 
L 369 218.16 
z
" style="fill: #f77189"/>
   </g>
   <g id="patch_3">
    <path d="M 502.052251 219.158791 
C 502.053488 218.993979 502.054419 218.829165 502.055044 218.66435 
C 502.055669 218.499534 502.055987 218.334718 502.056 218.169901 
L 369 218.16 
z
" style="fill: #bb9832"/>
   </g>
   <g id="patch_4">
    <path d="M 502.056 218.169901 
C 502.056 218.168253 502.056 218.166605 502.056 218.164957 
C 502.056 218.163309 502.056 218.161661 502.056 218.160012 
L 369 218.16 
z
" style="fill: #50b131"/>
   </g>
   <g id="text_1">
    <text style="fill: #262626; font: 10px 'Arial', 'Liberation Sans', 'DejaVu Sans', 'Bitstream Vera Sans', sans-serif; text-anchor: end" x="222.639431" y="220.196598" transform="rotate(-0 222.639431 220.196598)">newsapi</text>
   </g>
   <g id="text_2">
    <text style="fill: #262626; font: 10px 'Arial', 'Liberation Sans', 'DejaVu Sans', 'Bitstream Vera Sans', sans-serif; text-anchor: middle" x="289.166962" y="220.446298" transform="rotate(-0 289.166962 220.446298)">99.9%</text>
   </g>
   <g id="text_3">
    <text style="fill: #262626; font: 10px 'Arial', 'Liberation Sans', 'DejaVu Sans', 'Bitstream Vera Sans', sans-serif; text-anchor: start" x="515.360549" y="221.300722" transform="rotate(-0 515.360549 221.300722)">chicago_pd</text>
   </g>
   <g id="text_4">
    <text style="fill: #262626; font: 10px 'Arial', 'Liberation Sans', 'DejaVu Sans', 'Bitstream Vera Sans', sans-serif; text-anchor: middle" x="448.833026" y="221.048547" transform="rotate(-0 448.833026 221.048547)">0.1%</text>
   </g>
   <g id="text_5">
    <text style="fill: #262626; font: 10px 'Arial', 'Liberation Sans', 'DejaVu Sans', 'Bitstream Vera Sans', sans-serif; text-anchor: start" x="515.3616" y="220.75139" transform="rotate(-0 515.3616 220.75139)">chicago_police</text>
   </g>
   <g id="text_6">
    <text style="fill: #262626; font: 10px 'Arial', 'Liberation Sans', 'DejaVu Sans', 'Bitstream Vera Sans', sans-serif; text-anchor: middle" x="448.8336" y="220.748912" transform="rotate(-0 448.8336 220.748912)">0.0%</text>
   </g>
   <g id="text_7">
    <text style="fill: #262626; font: 12px 'Arial', 'Liberation Sans', 'DejaVu Sans', 'Bitstream Vera Sans', sans-serif; text-anchor: middle" x="369" y="45.84" transform="rotate(-0 369 45.84)">Incidents by Source</text>
   </g>
  </g>
 </g>
</svg>
