<?xml version="1.0" encoding="utf-8" standalone="no"?>
<!DOCTYPE svg PUBLIC "-//W3C//DTD SVG 1.1//EN"
  "http://www.w3.org/Graphics/SVG/1.1/DTD/svg11.dtd">
<svg xmlns:xlink="http://www.w3.org/1999/xlink" width="720pt" height="432pt" viewBox="0 0 720 432" xmlns="http://www.w3.org/2000/svg" version="1.1">
 <metadata>
  <rdf:RDF xmlns:dc="http://purl.org/dc/elements/1.1/" xmlns:cc="http://creativecommons.org/ns#" xmlns:rdf="http://www.w3.org/1999/02/22-rdf-syntax-ns#">
   <cc:Work>
    <dc:type rdf:resource="http://purl.org/dc/dcmitype/StillImage"/>
    <dc:date>2025-04-22T18:18:55.733358</dc:date>
    <dc:format>image/svg+xml</dc:format>
    <dc:creator>
     <cc:Agent>
      <dc:title>Matplotlib v3.7.5, https://matplotlib.org/</dc:title>
     </cc:Agent>
    </dc:creator>
   </cc:Work>
  </rdf:RDF>
 </metadata>
 <defs>
  <style type="text/css">*{stroke-linejoin: round; stroke-linecap: butt}</style>
 </defs>
 <g id="figure_1">
  <g id="patch_1">
   <path d="M 0 432 
L 720 432 
L 720 0 
L 0 0 
z
" style="fill: #ffffff"/>
  </g>
  <g id="axes_1">
   <g id="matplotlib.axis_1"/>
   <g id="matplotlib.axis_2"/>
   <g id="patch_2">
    <path d="M 502.056 218.16 
C 502.056 200.751029 498.63933 183.510102 492.000124 167.416836 
C 485.360917 151.323571 475.627347 136.688653 463.352467 124.343631 
C 451.077587 111.998608 436.498369 102.181806 420.443195 95.451007 
C 404.38802 88.720209 387.166841 85.205356 369.758153 85.10616 
C 352.349465 85.006964 335.089349 88.325339 318.958515 94.872738 
C 302.82768 101.420138 288.137539 111.07016 275.722774 123.274499 
C 263.308009 135.478838 253.408294 150.001883 246.586123 166.018445 
C 239.763952 182.035006 236.151029 199.235878 235.95264 216.643718 
C 235.754251 234.051559 238.974224 251.330302 245.429603 267.498182 
C 251.884983 283.666062 261.451145 298.410951 273.584546 310.895054 
C 285.717947 323.379158 300.184348 333.361465 316.161777 340.274787 
C 332.139206 347.18811 349.319212 350.898984 366.725639 351.19656 
C 384.132067 351.494137 401.428877 348.37267 417.633277 342.00952 
C 433.837677 335.646369 448.636835 326.164379 461.189872 314.102309 
C 473.742908 302.040239 483.807483 287.630953 490.811733 271.693175 
C 497.815983 255.755398 501.624688 238.596815 502.021441 221.192366 
L 369 218.16 
z
" style="fill: #f77189"/>
   </g>
   <g id="patch_3">
    <path d="M 502.021441 221.192366 
C 502.032846 220.692061 502.041429 220.191695 502.047188 219.691292 
C 502.052947 219.19089 502.055884 218.690459 502.055997 218.190023 
L 369 218.16 
z
" style="fill: #bb9832"/>
   </g>
   <g id="patch_4">
    <path d="M 502.055997 218.190023 
C 502.055998 218.185019 502.055999 218.180014 502.055999 218.17501 
C 502.056 218.170006 502.056 218.165001 502.056 218.159997 
L 369 218.16 
z
" style="fill: #50b131"/>
   </g>
   <g id="text_1">
    <text style="fill: #262626; font: 10px 'Arial', 'Liberation Sans', 'DejaVu Sans', 'Bitstream Vera Sans', sans-serif; text-anchor: end" x="222.647904" y="219.078028" transform="rotate(-0 222.647904 219.078028)">newsapi</text>
   </g>
   <g id="text_2">
    <text style="fill: #262626; font: 10px 'Arial', 'Liberation Sans', 'DejaVu Sans', 'Bitstream Vera Sans', sans-serif; text-anchor: middle" x="289.171584" y="219.836169" transform="rotate(-0 289.171584 219.836169)">99.6%</text>
   </g>
   <g id="text_3">
    <text style="fill: #262626; font: 10px 'Arial', 'Liberation Sans', 'DejaVu Sans', 'Bitstream Vera Sans', sans-serif; text-anchor: start" x="515.351907" y="222.430359" transform="rotate(-0 515.351907 222.430359)">chicago_pd</text>
   </g>
   <g id="text_4">
    <text style="fill: #262626; font: 10px 'Arial', 'Liberation Sans', 'DejaVu Sans', 'Bitstream Vera Sans', sans-serif; text-anchor: middle" x="448.828313" y="221.664713" transform="rotate(-0 448.828313 221.664713)">0.4%</text>
   </g>
   <g id="text_5">
    <text style="fill: #262626; font: 10px 'Arial', 'Liberation Sans', 'DejaVu Sans', 'Bitstream Vera Sans', sans-serif; text-anchor: start" x="515.361599" y="220.762448" transform="rotate(-0 515.361599 220.762448)">chicago_police</text>
   </g>
   <g id="text_6">
    <text style="fill: #262626; font: 10px 'Arial', 'Liberation Sans', 'DejaVu Sans', 'Bitstream Vera Sans', sans-serif; text-anchor: middle" x="448.833599" y="220.754943" transform="rotate(-0 448.833599 220.754943)">0.0%</text>
   </g>
   <g id="text_7">
    <text style="fill: #262626; font: 12px 'Arial', 'Liberation Sans', 'DejaVu Sans', 'Bitstream Vera Sans', sans-serif; text-anchor: middle" x="369" y="45.84" transform="rotate(-0 369 45.84)">Incidents by Source</text>
   </g>
  </g>
 </g>
</svg>
