<?xml version="1.0" encoding="utf-8" standalone="no"?>
<!DOCTYPE svg PUBLIC "-//W3C//DTD SVG 1.1//EN"
  "http://www.w3.org/Graphics/SVG/1.1/DTD/svg11.dtd">
<svg xmlns:xlink="http://www.w3.org/1999/xlink" width="720pt" height="432pt" viewBox="0 0 720 432" xmlns="http://www.w3.org/2000/svg" version="1.1">
 <metadata>
  <rdf:RDF xmlns:dc="http://purl.org/dc/elements/1.1/" xmlns:cc="http://creativecommons.org/ns#" xmlns:rdf="http://www.w3.org/1999/02/22-rdf-syntax-ns#">
   <cc:Work>
    <dc:type rdf:resource="http://purl.org/dc/dcmitype/StillImage"/>
    <dc:date>2026-07-17T08:00:41.651877</dc:date>
    <dc:format>image/svg+xml</dc:format>
    <dc:creator>
     <cc:Agent>
      <dc:title>Matplotlib v3.7.5, https://matplotlib.org/</dc:title>
     </cc:Agent>
    </dc:creator>
   </cc:Work>
  </rdf:RDF>
 </metadata>
 <defs>
  <style type="text/css">*{stroke-linejoin: round; stroke-linecap: butt}</style>
 </defs>
 <g id="figure_1">
  <g id="patch_1">
   <path d="M 0 432 
L 720 432 
L 720 0 
L 0 0 
z
" style="fill: #ffffff"/>
  </g>
  <g id="axes_1">
   <g id="matplotlib.axis_1"/>
   <g id="matplotlib.axis_2"/>
   <g id="patch_2">
    <path d="M 502.056 218.16 
C 502.056 200.702228 498.620148 183.41392 491.944745 167.282808 
C 485.269343 151.151695 475.483985 136.490949 463.14774 124.138182 
C 450.811495 111.785416 436.163859 101.980445 420.041695 95.283458 
C 403.919532 88.586472 386.635837 85.127485 369.178081 85.104119 
C 351.720325 85.080754 334.427434 88.493464 318.287402 95.147271 
C 302.147369 101.801078 287.47354 111.566805 275.104273 123.886506 
C 262.735007 136.206207 252.910441 150.840707 246.191882 166.953893 
C 239.473324 183.067079 235.991207 200.346129 235.944477 217.803838 
C 235.897746 235.261547 239.287308 252.55899 245.919508 268.707913 
C 252.551707 284.856837 262.297786 299.543723 274.600921 311.929467 
C 286.904056 324.315211 301.525394 334.159355 317.629573 340.899474 
C 333.733753 347.639592 351.008126 351.144831 368.465757 351.214927 
C 385.923388 351.285023 403.225353 347.918615 419.383138 341.308035 
C 435.540923 334.697455 450.240841 324.971042 462.64304 312.684495 
C 475.04524 300.397948 484.908944 285.789799 491.67061 269.694655 
C 498.432276 253.59951 501.960632 236.329844 502.054093 218.872322 
L 369 218.16 
z
" style="fill: #f77189"/>
   </g>
   <g id="patch_3">
    <path d="M 502.054093 218.872322 
C 502.054723 218.754782 502.055196 218.63724 502.055514 218.519698 
C 502.055832 218.402156 502.055994 218.284614 502.056 218.167071 
L 369 218.16 
z
" style="fill: #bb9832"/>
   </g>
   <g id="patch_4">
    <path d="M 502.056 218.167071 
C 502.056 218.165896 502.056 218.16472 502.056 218.163545 
C 502.056 218.16237 502.056 218.161194 502.056 218.160019 
L 369 218.16 
z
" style="fill: #50b131"/>
   </g>
   <g id="text_1">
    <text style="fill: #262626; font: 10px 'Arial', 'Liberation Sans', 'DejaVu Sans', 'Bitstream Vera Sans', sans-serif; text-anchor: end" x="222.638924" y="220.354159" transform="rotate(-0 222.638924 220.354159)">newsapi</text>
   </g>
   <g id="text_2">
    <text style="fill: #262626; font: 10px 'Arial', 'Liberation Sans', 'DejaVu Sans', 'Bitstream Vera Sans', sans-serif; text-anchor: middle" x="289.166686" y="220.53224" transform="rotate(-0 289.166686 220.53224)">99.9%</text>
   </g>
   <g id="text_3">
    <text style="fill: #262626; font: 10px 'Arial', 'Liberation Sans', 'DejaVu Sans', 'Bitstream Vera Sans', sans-serif; text-anchor: start" x="515.361065" y="221.141605" transform="rotate(-0 515.361065 221.141605)">chicago_pd</text>
   </g>
   <g id="text_4">
    <text style="fill: #262626; font: 10px 'Arial', 'Liberation Sans', 'DejaVu Sans', 'Bitstream Vera Sans', sans-serif; text-anchor: middle" x="448.833308" y="220.961756" transform="rotate(-0 448.833308 220.961756)">0.1%</text>
   </g>
   <g id="text_5">
    <text style="fill: #262626; font: 10px 'Arial', 'Liberation Sans', 'DejaVu Sans', 'Bitstream Vera Sans', sans-serif; text-anchor: start" x="515.3616" y="220.749837" transform="rotate(-0 515.3616 220.749837)">chicago_police</text>
   </g>
   <g id="text_6">
    <text style="fill: #262626; font: 10px 'Arial', 'Liberation Sans', 'DejaVu Sans', 'Bitstream Vera Sans', sans-serif; text-anchor: middle" x="448.8336" y="220.748065" transform="rotate(-0 448.8336 220.748065)">0.0%</text>
   </g>
   <g id="text_7">
    <text style="fill: #262626; font: 12px 'Arial', 'Liberation Sans', 'DejaVu Sans', 'Bitstream Vera Sans', sans-serif; text-anchor: middle" x="369" y="45.84" transform="rotate(-0 369 45.84)">Incidents by Source</text>
   </g>
  </g>
 </g>
</svg>
