<?xml version="1.0" encoding="utf-8" standalone="no"?>
<!DOCTYPE svg PUBLIC "-//W3C//DTD SVG 1.1//EN"
  "http://www.w3.org/Graphics/SVG/1.1/DTD/svg11.dtd">
<svg xmlns:xlink="http://www.w3.org/1999/xlink" width="720pt" height="432pt" viewBox="0 0 720 432" xmlns="http://www.w3.org/2000/svg" version="1.1">
 <metadata>
  <rdf:RDF xmlns:dc="http://purl.org/dc/elements/1.1/" xmlns:cc="http://creativecommons.org/ns#" xmlns:rdf="http://www.w3.org/1999/02/22-rdf-syntax-ns#">
   <cc:Work>
    <dc:type rdf:resource="http://purl.org/dc/dcmitype/StillImage"/>
    <dc:date>2026-01-29T01:26:52.670108</dc:date>
    <dc:format>image/svg+xml</dc:format>
    <dc:creator>
     <cc:Agent>
      <dc:title>Matplotlib v3.7.5, https://matplotlib.org/</dc:title>
     </cc:Agent>
    </dc:creator>
   </cc:Work>
  </rdf:RDF>
 </metadata>
 <defs>
  <style type="text/css">*{stroke-linejoin: round; stroke-linecap: butt}</style>
 </defs>
 <g id="figure_1">
  <g id="patch_1">
   <path d="M 0 432 
L 720 432 
L 720 0 
L 0 0 
z
" style="fill: #ffffff"/>
  </g>
  <g id="axes_1">
   <g id="matplotlib.axis_1"/>
   <g id="matplotlib.axis_2"/>
   <g id="patch_2">
    <path d="M 502.056 218.16 
C 502.056 200.708007 498.622423 183.425309 491.951311 167.298676 
C 485.280199 151.172042 475.50098 136.514348 463.172007 124.162488 
C 450.843033 111.810627 436.203502 102.00424 420.089269 95.303231 
C 403.975035 88.602221 386.698735 85.136596 369.246772 85.104229 
C 351.79481 85.071861 334.505774 88.47338 318.366795 95.114571 
C 302.227817 101.755762 287.552011 111.507779 275.177306 123.813823 
C 262.8026 136.119866 252.969079 150.741185 246.238195 166.842963 
C 239.50731 182.94474 236.00965 200.214583 235.944915 217.666456 
C 235.880181 235.118328 239.249628 252.413644 245.860875 268.564912 
C 252.472123 284.716179 262.196905 299.410046 274.479977 311.807554 
C 286.763048 324.205061 301.366104 334.065683 317.455371 340.826419 
C 333.544637 347.587155 350.807963 351.116839 368.259686 351.21394 
C 385.711408 351.311042 403.012943 347.973678 419.176445 341.392396 
C 435.339946 334.811115 450.051824 325.113602 462.472091 312.853544 
C 474.892358 300.593487 484.780046 286.008744 491.570611 269.932044 
C 498.361175 253.855344 501.92287 236.598594 502.052339 219.147081 
L 369 218.16 
z
" style="fill: #f77189"/>
   </g>
   <g id="patch_3">
    <path d="M 502.052339 219.147081 
C 502.053547 218.984204 502.054456 218.821324 502.055066 218.658443 
C 502.055677 218.495562 502.055988 218.33268 502.056 218.169798 
L 369 218.16 
z
" style="fill: #bb9832"/>
   </g>
   <g id="patch_4">
    <path d="M 502.056 218.169798 
C 502.056 218.168169 502.056 218.16654 502.056 218.164911 
C 502.056 218.163282 502.056 218.161653 502.056 218.160025 
L 369 218.16 
z
" style="fill: #50b131"/>
   </g>
   <g id="text_1">
    <text style="fill: #262626; font: 10px 'Arial', 'Liberation Sans', 'DejaVu Sans', 'Bitstream Vera Sans', sans-serif; text-anchor: end" x="222.639407" y="220.203039" transform="rotate(-0 222.639407 220.203039)">newsapi</text>
   </g>
   <g id="text_2">
    <text style="fill: #262626; font: 10px 'Arial', 'Liberation Sans', 'DejaVu Sans', 'Bitstream Vera Sans', sans-serif; text-anchor: middle" x="289.166949" y="220.449811" transform="rotate(-0 289.166949 220.449811)">99.9%</text>
   </g>
   <g id="text_3">
    <text style="fill: #262626; font: 10px 'Arial', 'Liberation Sans', 'DejaVu Sans', 'Bitstream Vera Sans', sans-serif; text-anchor: start" x="515.360573" y="221.294225" transform="rotate(-0 515.360573 221.294225)">chicago_pd</text>
   </g>
   <g id="text_4">
    <text style="fill: #262626; font: 10px 'Arial', 'Liberation Sans', 'DejaVu Sans', 'Bitstream Vera Sans', sans-serif; text-anchor: middle" x="448.83304" y="221.045003" transform="rotate(-0 448.83304 221.045003)">0.1%</text>
   </g>
   <g id="text_5">
    <text style="fill: #262626; font: 10px 'Arial', 'Liberation Sans', 'DejaVu Sans', 'Bitstream Vera Sans', sans-serif; text-anchor: start" x="515.3616" y="220.75134" transform="rotate(-0 515.3616 220.75134)">chicago_police</text>
   </g>
   <g id="text_6">
    <text style="fill: #262626; font: 10px 'Arial', 'Liberation Sans', 'DejaVu Sans', 'Bitstream Vera Sans', sans-serif; text-anchor: middle" x="448.8336" y="220.748884" transform="rotate(-0 448.8336 220.748884)">0.0%</text>
   </g>
   <g id="text_7">
    <text style="fill: #262626; font: 12px 'Arial', 'Liberation Sans', 'DejaVu Sans', 'Bitstream Vera Sans', sans-serif; text-anchor: middle" x="369" y="45.84" transform="rotate(-0 369 45.84)">Incidents by Source</text>
   </g>
  </g>
 </g>
</svg>
