<?xml version="1.0" encoding="utf-8" standalone="no"?>
<!DOCTYPE svg PUBLIC "-//W3C//DTD SVG 1.1//EN"
  "http://www.w3.org/Graphics/SVG/1.1/DTD/svg11.dtd">
<svg xmlns:xlink="http://www.w3.org/1999/xlink" width="720pt" height="432pt" viewBox="0 0 720 432" xmlns="http://www.w3.org/2000/svg" version="1.1">
 <metadata>
  <rdf:RDF xmlns:dc="http://purl.org/dc/elements/1.1/" xmlns:cc="http://creativecommons.org/ns#" xmlns:rdf="http://www.w3.org/1999/02/22-rdf-syntax-ns#">
   <cc:Work>
    <dc:type rdf:resource="http://purl.org/dc/dcmitype/StillImage"/>
    <dc:date>2026-03-16T18:55:52.790509</dc:date>
    <dc:format>image/svg+xml</dc:format>
    <dc:creator>
     <cc:Agent>
      <dc:title>Matplotlib v3.7.5, https://matplotlib.org/</dc:title>
     </cc:Agent>
    </dc:creator>
   </cc:Work>
  </rdf:RDF>
 </metadata>
 <defs>
  <style type="text/css">*{stroke-linejoin: round; stroke-linecap: butt}</style>
 </defs>
 <g id="figure_1">
  <g id="patch_1">
   <path d="M 0 432 
L 720 432 
L 720 0 
L 0 0 
z
" style="fill: #ffffff"/>
  </g>
  <g id="axes_1">
   <g id="matplotlib.axis_1"/>
   <g id="matplotlib.axis_2"/>
   <g id="patch_2">
    <path d="M 502.056 218.16 
C 502.056 200.706074 498.621662 183.421498 491.949114 167.293366 
C 485.276567 151.165234 475.495294 136.506519 463.163888 124.154355 
C 450.832481 111.80219 436.190238 101.996277 420.073351 95.296613 
C 403.956464 88.596949 386.67769 85.133544 369.223788 85.104188 
C 351.769887 85.074832 334.47956 88.480095 318.340227 95.125507 
C 302.200895 101.770919 287.52575 111.527523 275.152863 123.838136 
C 262.779976 136.14875 252.949449 150.77448 246.222687 166.880076 
C 239.495926 182.985672 236.003465 200.258597 235.944753 217.712424 
C 235.886041 235.166252 239.262218 252.462282 245.880475 268.612768 
C 252.498733 284.763254 262.230641 299.454789 274.520427 311.848364 
C 286.810214 324.241939 301.419389 334.09705 317.513648 340.850891 
C 333.607907 347.604731 350.874934 351.126239 368.328638 351.214306 
C 385.782342 351.302374 403.084026 347.955292 419.245621 341.364208 
C 435.407215 334.773123 450.115097 325.065938 462.529325 312.797014 
C 474.943553 300.528091 484.823222 285.935512 491.604122 269.852634 
C 498.385022 253.769757 501.935566 236.508678 502.052989 219.055147 
L 369 218.16 
z
" style="fill: #f77189"/>
   </g>
   <g id="patch_3">
    <path d="M 502.052989 219.055147 
C 502.053983 218.907436 502.05473 218.759723 502.055232 218.61201 
C 502.055734 218.464296 502.05599 218.316582 502.056 218.168868 
L 369 218.16 
z
" style="fill: #bb9832"/>
   </g>
   <g id="patch_4">
    <path d="M 502.056 218.168868 
C 502.056 218.167391 502.056 218.165913 502.056 218.164436 
C 502.056 218.162959 502.056 218.161482 502.056 218.160005 
L 369 218.16 
z
" style="fill: #50b131"/>
   </g>
   <g id="text_1">
    <text style="fill: #262626; font: 10px 'Arial', 'Liberation Sans', 'DejaVu Sans', 'Bitstream Vera Sans', sans-serif; text-anchor: end" x="222.639228" y="220.253604" transform="rotate(-0 222.639228 220.253604)">newsapi</text>
   </g>
   <g id="text_2">
    <text style="fill: #262626; font: 10px 'Arial', 'Liberation Sans', 'DejaVu Sans', 'Bitstream Vera Sans', sans-serif; text-anchor: middle" x="289.166852" y="220.477392" transform="rotate(-0 289.166852 220.477392)">99.9%</text>
   </g>
   <g id="text_3">
    <text style="fill: #262626; font: 10px 'Arial', 'Liberation Sans', 'DejaVu Sans', 'Bitstream Vera Sans', sans-serif; text-anchor: start" x="515.360755" y="221.243148" transform="rotate(-0 515.360755 221.243148)">chicago_pd</text>
   </g>
   <g id="text_4">
    <text style="fill: #262626; font: 10px 'Arial', 'Liberation Sans', 'DejaVu Sans', 'Bitstream Vera Sans', sans-serif; text-anchor: middle" x="448.833139" y="221.017143" transform="rotate(-0 448.833139 221.017143)">0.1%</text>
   </g>
   <g id="text_5">
    <text style="fill: #262626; font: 10px 'Arial', 'Liberation Sans', 'DejaVu Sans', 'Bitstream Vera Sans', sans-serif; text-anchor: start" x="515.3616" y="220.750817" transform="rotate(-0 515.3616 220.750817)">chicago_police</text>
   </g>
   <g id="text_6">
    <text style="fill: #262626; font: 10px 'Arial', 'Liberation Sans', 'DejaVu Sans', 'Bitstream Vera Sans', sans-serif; text-anchor: middle" x="448.8336" y="220.748599" transform="rotate(-0 448.8336 220.748599)">0.0%</text>
   </g>
   <g id="text_7">
    <text style="fill: #262626; font: 12px 'Arial', 'Liberation Sans', 'DejaVu Sans', 'Bitstream Vera Sans', sans-serif; text-anchor: middle" x="369" y="45.84" transform="rotate(-0 369 45.84)">Incidents by Source</text>
   </g>
  </g>
 </g>
</svg>
