<?xml version="1.0" encoding="utf-8" standalone="no"?>
<!DOCTYPE svg PUBLIC "-//W3C//DTD SVG 1.1//EN"
  "http://www.w3.org/Graphics/SVG/1.1/DTD/svg11.dtd">
<svg xmlns:xlink="http://www.w3.org/1999/xlink" width="720pt" height="432pt" viewBox="0 0 720 432" xmlns="http://www.w3.org/2000/svg" version="1.1">
 <metadata>
  <rdf:RDF xmlns:dc="http://purl.org/dc/elements/1.1/" xmlns:cc="http://creativecommons.org/ns#" xmlns:rdf="http://www.w3.org/1999/02/22-rdf-syntax-ns#">
   <cc:Work>
    <dc:type rdf:resource="http://purl.org/dc/dcmitype/StillImage"/>
    <dc:date>2026-05-11T19:41:56.659217</dc:date>
    <dc:format>image/svg+xml</dc:format>
    <dc:creator>
     <cc:Agent>
      <dc:title>Matplotlib v3.7.5, https://matplotlib.org/</dc:title>
     </cc:Agent>
    </dc:creator>
   </cc:Work>
  </rdf:RDF>
 </metadata>
 <defs>
  <style type="text/css">*{stroke-linejoin: round; stroke-linecap: butt}</style>
 </defs>
 <g id="figure_1">
  <g id="patch_1">
   <path d="M 0 432 
L 720 432 
L 720 0 
L 0 0 
z
" style="fill: #ffffff"/>
  </g>
  <g id="axes_1">
   <g id="matplotlib.axis_1"/>
   <g id="matplotlib.axis_2"/>
   <g id="patch_2">
    <path d="M 502.056 218.16 
C 502.056 200.704293 498.620961 183.417989 491.947091 167.288477 
C 485.273222 151.158964 475.490058 136.499309 463.156411 124.146865 
C 450.822764 111.794422 436.178023 101.988945 420.058693 95.29052 
C 403.939362 88.592096 386.65831 85.130737 369.202623 85.104154 
C 351.746936 85.077572 334.455421 88.486283 318.315764 95.135582 
C 302.176107 101.784881 287.501571 111.54571 275.130359 123.860532 
C 262.759148 136.175354 252.931381 150.805145 246.208417 166.914256 
C 239.485453 183.023367 235.997782 200.299129 235.944617 217.754755 
C 235.891453 235.210381 239.273827 252.507067 245.898541 268.656831 
C 252.523254 284.806595 262.261725 299.495978 274.557693 311.885929 
C 286.853661 324.275879 301.468469 334.125914 317.567324 340.873402 
C 333.666178 347.620889 350.936609 351.134865 368.392133 351.214611 
C 385.847658 351.294358 403.149475 347.938327 419.309308 341.338215 
C 435.469142 334.738103 450.173339 325.022013 462.582 312.744927 
C 474.990661 300.467841 484.86294 285.86805 491.634936 269.779489 
C 498.406932 253.690929 501.947203 236.42587 502.053532 218.970487 
L 369 218.16 
z
" style="fill: #f77189"/>
   </g>
   <g id="patch_3">
    <path d="M 502.053532 218.970487 
C 502.054346 218.836742 502.054959 218.702997 502.055371 218.569251 
C 502.055782 218.435505 502.055992 218.301758 502.056 218.168012 
L 369 218.16 
z
" style="fill: #bb9832"/>
   </g>
   <g id="patch_4">
    <path d="M 502.056 218.168012 
C 502.056 218.166674 502.056 218.165337 502.056 218.163999 
C 502.056 218.162662 502.056 218.161324 502.056 218.159987 
L 369 218.16 
z
" style="fill: #50b131"/>
   </g>
   <g id="text_1">
    <text style="fill: #262626; font: 10px 'Arial', 'Liberation Sans', 'DejaVu Sans', 'Bitstream Vera Sans', sans-serif; text-anchor: end" x="222.639079" y="220.300168" transform="rotate(-0 222.639079 220.300168)">newsapi</text>
   </g>
   <g id="text_2">
    <text style="fill: #262626; font: 10px 'Arial', 'Liberation Sans', 'DejaVu Sans', 'Bitstream Vera Sans', sans-serif; text-anchor: middle" x="289.16677" y="220.50279" transform="rotate(-0 289.16677 220.50279)">99.9%</text>
   </g>
   <g id="text_3">
    <text style="fill: #262626; font: 10px 'Arial', 'Liberation Sans', 'DejaVu Sans', 'Bitstream Vera Sans', sans-serif; text-anchor: start" x="515.360908" y="221.196114" transform="rotate(-0 515.360908 221.196114)">chicago_pd</text>
   </g>
   <g id="text_4">
    <text style="fill: #262626; font: 10px 'Arial', 'Liberation Sans', 'DejaVu Sans', 'Bitstream Vera Sans', sans-serif; text-anchor: middle" x="448.833222" y="220.991488" transform="rotate(-0 448.833222 220.991488)">0.1%</text>
   </g>
   <g id="text_5">
    <text style="fill: #262626; font: 10px 'Arial', 'Liberation Sans', 'DejaVu Sans', 'Bitstream Vera Sans', sans-serif; text-anchor: start" x="515.3616" y="220.750337" transform="rotate(-0 515.3616 220.750337)">chicago_police</text>
   </g>
   <g id="text_6">
    <text style="fill: #262626; font: 10px 'Arial', 'Liberation Sans', 'DejaVu Sans', 'Bitstream Vera Sans', sans-serif; text-anchor: middle" x="448.8336" y="220.748337" transform="rotate(-0 448.8336 220.748337)">0.0%</text>
   </g>
   <g id="text_7">
    <text style="fill: #262626; font: 12px 'Arial', 'Liberation Sans', 'DejaVu Sans', 'Bitstream Vera Sans', sans-serif; text-anchor: middle" x="369" y="45.84" transform="rotate(-0 369 45.84)">Incidents by Source</text>
   </g>
  </g>
 </g>
</svg>
