<?xml version="1.0" encoding="utf-8" standalone="no"?>
<!DOCTYPE svg PUBLIC "-//W3C//DTD SVG 1.1//EN"
  "http://www.w3.org/Graphics/SVG/1.1/DTD/svg11.dtd">
<svg xmlns:xlink="http://www.w3.org/1999/xlink" width="720pt" height="432pt" viewBox="0 0 720 432" xmlns="http://www.w3.org/2000/svg" version="1.1">
 <metadata>
  <rdf:RDF xmlns:dc="http://purl.org/dc/elements/1.1/" xmlns:cc="http://creativecommons.org/ns#" xmlns:rdf="http://www.w3.org/1999/02/22-rdf-syntax-ns#">
   <cc:Work>
    <dc:type rdf:resource="http://purl.org/dc/dcmitype/StillImage"/>
    <dc:date>2026-03-20T13:11:14.523132</dc:date>
    <dc:format>image/svg+xml</dc:format>
    <dc:creator>
     <cc:Agent>
      <dc:title>Matplotlib v3.7.5, https://matplotlib.org/</dc:title>
     </cc:Agent>
    </dc:creator>
   </cc:Work>
  </rdf:RDF>
 </metadata>
 <defs>
  <style type="text/css">*{stroke-linejoin: round; stroke-linecap: butt}</style>
 </defs>
 <g id="figure_1">
  <g id="patch_1">
   <path d="M 0 432 
L 720 432 
L 720 0 
L 0 0 
z
" style="fill: #ffffff"/>
  </g>
  <g id="axes_1">
   <g id="matplotlib.axis_1"/>
   <g id="matplotlib.axis_2"/>
   <g id="patch_2">
    <path d="M 502.056 218.16 
C 502.056 200.705955 498.621615 183.421265 491.94898 167.293041 
C 485.276344 151.164817 475.494946 136.506039 463.16339 124.153856 
C 450.831835 111.801674 436.189426 101.995789 420.072376 95.296208 
C 403.955327 88.596626 386.676401 85.133357 369.222381 85.104186 
C 351.76836 85.075014 334.477954 88.480506 318.3386 95.126177 
C 302.199247 101.771847 287.524141 111.528732 275.151366 123.839626 
C 262.77859 136.150519 252.948247 150.776519 246.221738 166.882349 
C 239.495229 182.988179 236.003086 200.261292 235.944743 217.71524 
C 235.8864 235.169187 239.262989 252.46526 245.881676 268.615699 
C 252.500363 284.766137 262.232708 299.457529 274.522905 311.850863 
C 286.813103 324.244196 301.422652 334.098971 317.517217 340.852389 
C 333.611782 347.605807 350.879036 351.126813 368.332861 351.214327 
C 385.786686 351.301842 403.088379 347.954165 419.249857 341.36248 
C 435.411335 334.770795 450.118972 325.063018 462.532829 312.793551 
C 474.946687 300.524084 484.825865 285.931025 491.606173 269.84777 
C 498.38648 253.764515 501.936342 236.503171 502.053027 219.049516 
L 369 218.16 
z
" style="fill: #f77189"/>
   </g>
   <g id="patch_3">
    <path d="M 502.053027 219.049516 
C 502.054008 218.902732 502.054746 218.755947 502.055242 218.609161 
C 502.055737 218.462375 502.05599 218.315589 502.056 218.168802 
L 369 218.16 
z
" style="fill: #bb9832"/>
   </g>
   <g id="patch_4">
    <path d="M 502.056 218.168802 
C 502.056 218.167334 502.056 218.165866 502.056 218.164398 
C 502.056 218.16293 502.056 218.161462 502.056 218.159994 
L 369 218.16 
z
" style="fill: #50b131"/>
   </g>
   <g id="text_1">
    <text style="fill: #262626; font: 10px 'Arial', 'Liberation Sans', 'DejaVu Sans', 'Bitstream Vera Sans', sans-serif; text-anchor: end" x="222.639218" y="220.256701" transform="rotate(-0 222.639218 220.256701)">newsapi</text>
   </g>
   <g id="text_2">
    <text style="fill: #262626; font: 10px 'Arial', 'Liberation Sans', 'DejaVu Sans', 'Bitstream Vera Sans', sans-serif; text-anchor: middle" x="289.166846" y="220.479081" transform="rotate(-0 289.166846 220.479081)">99.9%</text>
   </g>
   <g id="text_3">
    <text style="fill: #262626; font: 10px 'Arial', 'Liberation Sans', 'DejaVu Sans', 'Bitstream Vera Sans', sans-serif; text-anchor: start" x="515.360766" y="221.240015" transform="rotate(-0 515.360766 221.240015)">chicago_pd</text>
   </g>
   <g id="text_4">
    <text style="fill: #262626; font: 10px 'Arial', 'Liberation Sans', 'DejaVu Sans', 'Bitstream Vera Sans', sans-serif; text-anchor: middle" x="448.833145" y="221.015434" transform="rotate(-0 448.833145 221.015434)">0.1%</text>
   </g>
   <g id="text_5">
    <text style="fill: #262626; font: 10px 'Arial', 'Liberation Sans', 'DejaVu Sans', 'Bitstream Vera Sans', sans-serif; text-anchor: start" x="515.3616" y="220.750775" transform="rotate(-0 515.3616 220.750775)">chicago_police</text>
   </g>
   <g id="text_6">
    <text style="fill: #262626; font: 10px 'Arial', 'Liberation Sans', 'DejaVu Sans', 'Bitstream Vera Sans', sans-serif; text-anchor: middle" x="448.8336" y="220.748576" transform="rotate(-0 448.8336 220.748576)">0.0%</text>
   </g>
   <g id="text_7">
    <text style="fill: #262626; font: 12px 'Arial', 'Liberation Sans', 'DejaVu Sans', 'Bitstream Vera Sans', sans-serif; text-anchor: middle" x="369" y="45.84" transform="rotate(-0 369 45.84)">Incidents by Source</text>
   </g>
  </g>
 </g>
</svg>
