<?xml version="1.0" encoding="utf-8" standalone="no"?>
<!DOCTYPE svg PUBLIC "-//W3C//DTD SVG 1.1//EN"
  "http://www.w3.org/Graphics/SVG/1.1/DTD/svg11.dtd">
<svg xmlns:xlink="http://www.w3.org/1999/xlink" width="720pt" height="432pt" viewBox="0 0 720 432" xmlns="http://www.w3.org/2000/svg" version="1.1">
 <metadata>
  <rdf:RDF xmlns:dc="http://purl.org/dc/elements/1.1/" xmlns:cc="http://creativecommons.org/ns#" xmlns:rdf="http://www.w3.org/1999/02/22-rdf-syntax-ns#">
   <cc:Work>
    <dc:type rdf:resource="http://purl.org/dc/dcmitype/StillImage"/>
    <dc:date>2026-01-14T12:38:30.391246</dc:date>
    <dc:format>image/svg+xml</dc:format>
    <dc:creator>
     <cc:Agent>
      <dc:title>Matplotlib v3.7.5, https://matplotlib.org/</dc:title>
     </cc:Agent>
    </dc:creator>
   </cc:Work>
  </rdf:RDF>
 </metadata>
 <defs>
  <style type="text/css">*{stroke-linejoin: round; stroke-linecap: butt}</style>
 </defs>
 <g id="figure_1">
  <g id="patch_1">
   <path d="M 0 432 
L 720 432 
L 720 0 
L 0 0 
z
" style="fill: #ffffff"/>
  </g>
  <g id="axes_1">
   <g id="matplotlib.axis_1"/>
   <g id="matplotlib.axis_2"/>
   <g id="patch_2">
    <path d="M 502.056 218.16 
C 502.056 200.708805 498.622736 183.426881 491.952217 167.300866 
C 485.281697 151.17485 475.503325 136.517578 463.175355 124.165843 
C 450.847385 111.814107 436.208972 102.007525 420.095834 95.305961 
C 403.982695 88.604396 386.707415 85.137856 369.256253 85.104247 
C 351.80509 85.070637 334.516586 88.470611 318.377754 95.110062 
C 302.238922 101.749512 287.562844 111.499637 275.18739 123.803796 
C 262.811935 136.107955 252.977179 150.727454 246.244594 166.827656 
C 239.51201 182.927859 236.012205 200.19643 235.944987 217.647496 
C 235.877769 235.098561 239.24444 252.393581 245.852796 268.54517 
C 252.461152 284.696759 262.182995 299.391587 274.463297 311.790716 
C 286.743599 324.189844 301.344131 334.052738 317.431337 340.816317 
C 333.518543 347.579896 350.780342 351.112952 368.231246 351.213779 
C 385.682149 351.314607 402.983621 347.98125 419.147907 341.404012 
C 435.312194 334.826775 450.025718 325.133251 462.448474 312.876851 
C 474.87123 300.620451 484.762224 286.038942 491.556773 269.964792 
C 498.351322 253.890641 501.917616 236.635679 502.052052 219.185001 
L 369 218.16 
z
" style="fill: #f77189"/>
   </g>
   <g id="patch_3">
    <path d="M 502.052052 219.185001 
C 502.053355 219.015864 502.054335 218.846725 502.054993 218.677584 
C 502.055651 218.508443 502.055987 218.339301 502.056 218.170159 
L 369 218.16 
z
" style="fill: #bb9832"/>
   </g>
   <g id="patch_4">
    <path d="M 502.056 218.170159 
C 502.056 218.168467 502.056 218.166776 502.056 218.165084 
C 502.056 218.163393 502.056 218.161701 502.056 218.16001 
L 369 218.16 
z
" style="fill: #50b131"/>
   </g>
   <g id="text_1">
    <text style="fill: #262626; font: 10px 'Arial', 'Liberation Sans', 'DejaVu Sans', 'Bitstream Vera Sans', sans-serif; text-anchor: end" x="222.639486" y="220.182183" transform="rotate(-0 222.639486 220.182183)">newsapi</text>
   </g>
   <g id="text_2">
    <text style="fill: #262626; font: 10px 'Arial', 'Liberation Sans', 'DejaVu Sans', 'Bitstream Vera Sans', sans-serif; text-anchor: middle" x="289.166992" y="220.438435" transform="rotate(-0 289.166992 220.438435)">99.9%</text>
   </g>
   <g id="text_3">
    <text style="fill: #262626; font: 10px 'Arial', 'Liberation Sans', 'DejaVu Sans', 'Bitstream Vera Sans', sans-serif; text-anchor: start" x="515.360493" y="221.31528" transform="rotate(-0 515.360493 221.31528)">chicago_pd</text>
   </g>
   <g id="text_4">
    <text style="fill: #262626; font: 10px 'Arial', 'Liberation Sans', 'DejaVu Sans', 'Bitstream Vera Sans', sans-serif; text-anchor: middle" x="448.832996" y="221.056488" transform="rotate(-0 448.832996 221.056488)">0.1%</text>
   </g>
   <g id="text_5">
    <text style="fill: #262626; font: 10px 'Arial', 'Liberation Sans', 'DejaVu Sans', 'Bitstream Vera Sans', sans-serif; text-anchor: start" x="515.3616" y="220.75153" transform="rotate(-0 515.3616 220.75153)">chicago_police</text>
   </g>
   <g id="text_6">
    <text style="fill: #262626; font: 10px 'Arial', 'Liberation Sans', 'DejaVu Sans', 'Bitstream Vera Sans', sans-serif; text-anchor: middle" x="448.8336" y="220.748988" transform="rotate(-0 448.8336 220.748988)">0.0%</text>
   </g>
   <g id="text_7">
    <text style="fill: #262626; font: 12px 'Arial', 'Liberation Sans', 'DejaVu Sans', 'Bitstream Vera Sans', sans-serif; text-anchor: middle" x="369" y="45.84" transform="rotate(-0 369 45.84)">Incidents by Source</text>
   </g>
  </g>
 </g>
</svg>
