<?xml version="1.0" encoding="utf-8" standalone="no"?>
<!DOCTYPE svg PUBLIC "-//W3C//DTD SVG 1.1//EN"
  "http://www.w3.org/Graphics/SVG/1.1/DTD/svg11.dtd">
<svg xmlns:xlink="http://www.w3.org/1999/xlink" width="720pt" height="432pt" viewBox="0 0 720 432" xmlns="http://www.w3.org/2000/svg" version="1.1">
 <metadata>
  <rdf:RDF xmlns:dc="http://purl.org/dc/elements/1.1/" xmlns:cc="http://creativecommons.org/ns#" xmlns:rdf="http://www.w3.org/1999/02/22-rdf-syntax-ns#">
   <cc:Work>
    <dc:type rdf:resource="http://purl.org/dc/dcmitype/StillImage"/>
    <dc:date>2026-05-11T14:37:01.118895</dc:date>
    <dc:format>image/svg+xml</dc:format>
    <dc:creator>
     <cc:Agent>
      <dc:title>Matplotlib v3.7.5, https://matplotlib.org/</dc:title>
     </cc:Agent>
    </dc:creator>
   </cc:Work>
  </rdf:RDF>
 </metadata>
 <defs>
  <style type="text/css">*{stroke-linejoin: round; stroke-linecap: butt}</style>
 </defs>
 <g id="figure_1">
  <g id="patch_1">
   <path d="M 0 432 
L 720 432 
L 720 0 
L 0 0 
z
" style="fill: #ffffff"/>
  </g>
  <g id="axes_1">
   <g id="matplotlib.axis_1"/>
   <g id="matplotlib.axis_2"/>
   <g id="patch_2">
    <path d="M 502.056 218.16 
C 502.056 200.704302 498.620965 183.418008 491.947102 167.288503 
C 485.273239 151.158998 475.490085 136.499347 463.15645 124.146905 
C 450.822815 111.794463 436.178088 101.988984 420.058771 95.290553 
C 403.939453 88.592122 386.658412 85.130751 369.202735 85.104154 
C 351.747058 85.077558 334.455549 88.48625 318.315894 95.135529 
C 302.176239 101.784807 287.501699 111.545614 275.130479 123.860413 
C 262.759259 136.175213 252.931477 150.804982 246.208493 166.914075 
C 239.485509 183.023167 235.997812 200.298914 235.944618 217.754531 
C 235.891424 235.210147 239.273766 252.506829 245.898445 268.656597 
C 252.523124 284.806365 262.26156 299.49576 274.557495 311.88573 
C 286.853431 324.275699 301.468209 334.125761 317.567039 340.873282 
C 333.665869 347.620804 350.936282 351.134819 368.391797 351.21461 
C 385.847312 351.2944 403.149128 347.938417 419.308971 341.338353 
C 435.468814 334.738288 450.173031 325.022246 462.581721 312.745203 
C 474.990411 300.46816 484.862729 285.868407 491.634773 269.779877 
C 498.406816 253.691347 501.947142 236.426308 502.053529 218.970935 
L 369 218.16 
z
" style="fill: #f77189"/>
   </g>
   <g id="patch_3">
    <path d="M 502.053529 218.970935 
C 502.054344 218.837121 502.054958 218.703307 502.05537 218.569491 
C 502.055782 218.435676 502.055992 218.30186 502.056 218.168044 
L 369 218.16 
z
" style="fill: #bb9832"/>
   </g>
   <g id="patch_4">
    <path d="M 502.056 218.168044 
C 502.056 218.166706 502.056 218.165368 502.056 218.16403 
C 502.056 218.162691 502.056 218.161353 502.056 218.160015 
L 369 218.16 
z
" style="fill: #50b131"/>
   </g>
   <g id="text_1">
    <text style="fill: #262626; font: 10px 'Arial', 'Liberation Sans', 'DejaVu Sans', 'Bitstream Vera Sans', sans-serif; text-anchor: end" x="222.63908" y="220.299921" transform="rotate(-0 222.63908 220.299921)">newsapi</text>
   </g>
   <g id="text_2">
    <text style="fill: #262626; font: 10px 'Arial', 'Liberation Sans', 'DejaVu Sans', 'Bitstream Vera Sans', sans-serif; text-anchor: middle" x="289.166771" y="220.502656" transform="rotate(-0 289.166771 220.502656)">99.9%</text>
   </g>
   <g id="text_3">
    <text style="fill: #262626; font: 10px 'Arial', 'Liberation Sans', 'DejaVu Sans', 'Bitstream Vera Sans', sans-serif; text-anchor: start" x="515.360907" y="221.196378" transform="rotate(-0 515.360907 221.196378)">chicago_pd</text>
   </g>
   <g id="text_4">
    <text style="fill: #262626; font: 10px 'Arial', 'Liberation Sans', 'DejaVu Sans', 'Bitstream Vera Sans', sans-serif; text-anchor: middle" x="448.833222" y="220.991632" transform="rotate(-0 448.833222 220.991632)">0.1%</text>
   </g>
   <g id="text_5">
    <text style="fill: #262626; font: 10px 'Arial', 'Liberation Sans', 'DejaVu Sans', 'Bitstream Vera Sans', sans-serif; text-anchor: start" x="515.3616" y="220.75037" transform="rotate(-0 515.3616 220.75037)">chicago_police</text>
   </g>
   <g id="text_6">
    <text style="fill: #262626; font: 10px 'Arial', 'Liberation Sans', 'DejaVu Sans', 'Bitstream Vera Sans', sans-serif; text-anchor: middle" x="448.8336" y="220.748355" transform="rotate(-0 448.8336 220.748355)">0.0%</text>
   </g>
   <g id="text_7">
    <text style="fill: #262626; font: 12px 'Arial', 'Liberation Sans', 'DejaVu Sans', 'Bitstream Vera Sans', sans-serif; text-anchor: middle" x="369" y="45.84" transform="rotate(-0 369 45.84)">Incidents by Source</text>
   </g>
  </g>
 </g>
</svg>
