<?xml version="1.0" encoding="utf-8" standalone="no"?>
<!DOCTYPE svg PUBLIC "-//W3C//DTD SVG 1.1//EN"
  "http://www.w3.org/Graphics/SVG/1.1/DTD/svg11.dtd">
<svg xmlns:xlink="http://www.w3.org/1999/xlink" width="720pt" height="432pt" viewBox="0 0 720 432" xmlns="http://www.w3.org/2000/svg" version="1.1">
 <metadata>
  <rdf:RDF xmlns:dc="http://purl.org/dc/elements/1.1/" xmlns:cc="http://creativecommons.org/ns#" xmlns:rdf="http://www.w3.org/1999/02/22-rdf-syntax-ns#">
   <cc:Work>
    <dc:type rdf:resource="http://purl.org/dc/dcmitype/StillImage"/>
    <dc:date>2026-01-29T06:39:53.497214</dc:date>
    <dc:format>image/svg+xml</dc:format>
    <dc:creator>
     <cc:Agent>
      <dc:title>Matplotlib v3.7.5, https://matplotlib.org/</dc:title>
     </cc:Agent>
    </dc:creator>
   </cc:Work>
  </rdf:RDF>
 </metadata>
 <defs>
  <style type="text/css">*{stroke-linejoin: round; stroke-linecap: butt}</style>
 </defs>
 <g id="figure_1">
  <g id="patch_1">
   <path d="M 0 432 
L 720 432 
L 720 0 
L 0 0 
z
" style="fill: #ffffff"/>
  </g>
  <g id="axes_1">
   <g id="matplotlib.axis_1"/>
   <g id="matplotlib.axis_2"/>
   <g id="patch_2">
    <path d="M 502.056 218.16 
C 502.056 200.707994 498.622417 183.425283 491.951295 167.298638 
C 485.280173 151.171994 475.50094 136.514293 463.17195 124.162431 
C 450.842959 111.810568 436.203408 102.004184 420.089156 95.303184 
C 403.974904 88.602184 386.698587 85.136575 369.246611 85.104229 
C 351.794634 85.071882 334.505589 88.473427 318.366608 95.114648 
C 302.227627 101.755868 287.551826 111.507918 275.177134 123.813994 
C 262.802441 136.12007 252.968941 150.74142 246.238085 166.843224 
C 239.50723 182.945029 236.009606 200.214893 235.944914 217.66678 
C 235.880222 235.118666 239.249716 252.413986 245.861013 268.565249 
C 252.47231 284.716511 262.197142 299.410361 274.480261 311.807841 
C 286.763381 324.205321 301.36648 334.065904 317.455781 340.826591 
C 333.545083 347.587279 350.808435 351.116905 368.260172 351.213943 
C 385.711908 351.310981 403.013444 347.973548 419.176932 341.392198 
C 435.34042 334.810848 450.05227 325.113266 462.472494 312.853146 
C 474.892719 300.593026 484.780351 286.008228 491.570847 269.931485 
C 498.361343 253.854741 501.92296 236.59796 502.052343 219.146434 
L 369 218.16 
z
" style="fill: #f77189"/>
   </g>
   <g id="patch_3">
    <path d="M 502.052343 219.146434 
C 502.05355 218.983655 502.054458 218.820874 502.055068 218.658092 
C 502.055677 218.49531 502.055988 218.332527 502.056 218.169743 
L 369 218.16 
z
" style="fill: #bb9832"/>
   </g>
   <g id="patch_4">
    <path d="M 502.056 218.169743 
C 502.056 218.168116 502.056 218.166488 502.056 218.16486 
C 502.056 218.163232 502.056 218.161604 502.056 218.159977 
L 369 218.16 
z
" style="fill: #50b131"/>
   </g>
   <g id="text_1">
    <text style="fill: #262626; font: 10px 'Arial', 'Liberation Sans', 'DejaVu Sans', 'Bitstream Vera Sans', sans-serif; text-anchor: end" x="222.639406" y="220.203395" transform="rotate(-0 222.639406 220.203395)">newsapi</text>
   </g>
   <g id="text_2">
    <text style="fill: #262626; font: 10px 'Arial', 'Liberation Sans', 'DejaVu Sans', 'Bitstream Vera Sans', sans-serif; text-anchor: middle" x="289.166948" y="220.450005" transform="rotate(-0 289.166948 220.450005)">99.9%</text>
   </g>
   <g id="text_3">
    <text style="fill: #262626; font: 10px 'Arial', 'Liberation Sans', 'DejaVu Sans', 'Bitstream Vera Sans', sans-serif; text-anchor: start" x="515.360574" y="221.293839" transform="rotate(-0 515.360574 221.293839)">chicago_pd</text>
   </g>
   <g id="text_4">
    <text style="fill: #262626; font: 10px 'Arial', 'Liberation Sans', 'DejaVu Sans', 'Bitstream Vera Sans', sans-serif; text-anchor: middle" x="448.833041" y="221.044793" transform="rotate(-0 448.833041 221.044793)">0.1%</text>
   </g>
   <g id="text_5">
    <text style="fill: #262626; font: 10px 'Arial', 'Liberation Sans', 'DejaVu Sans', 'Bitstream Vera Sans', sans-serif; text-anchor: start" x="515.3616" y="220.751284" transform="rotate(-0 515.3616 220.751284)">chicago_police</text>
   </g>
   <g id="text_6">
    <text style="fill: #262626; font: 10px 'Arial', 'Liberation Sans', 'DejaVu Sans', 'Bitstream Vera Sans', sans-serif; text-anchor: middle" x="448.8336" y="220.748854" transform="rotate(-0 448.8336 220.748854)">0.0%</text>
   </g>
   <g id="text_7">
    <text style="fill: #262626; font: 12px 'Arial', 'Liberation Sans', 'DejaVu Sans', 'Bitstream Vera Sans', sans-serif; text-anchor: middle" x="369" y="45.84" transform="rotate(-0 369 45.84)">Incidents by Source</text>
   </g>
  </g>
 </g>
</svg>
