<?xml version="1.0" encoding="utf-8" standalone="no"?>
<!DOCTYPE svg PUBLIC "-//W3C//DTD SVG 1.1//EN"
  "http://www.w3.org/Graphics/SVG/1.1/DTD/svg11.dtd">
<svg xmlns:xlink="http://www.w3.org/1999/xlink" width="720pt" height="432pt" viewBox="0 0 720 432" xmlns="http://www.w3.org/2000/svg" version="1.1">
 <metadata>
  <rdf:RDF xmlns:dc="http://purl.org/dc/elements/1.1/" xmlns:cc="http://creativecommons.org/ns#" xmlns:rdf="http://www.w3.org/1999/02/22-rdf-syntax-ns#">
   <cc:Work>
    <dc:type rdf:resource="http://purl.org/dc/dcmitype/StillImage"/>
    <dc:date>2025-06-29T18:18:32.145979</dc:date>
    <dc:format>image/svg+xml</dc:format>
    <dc:creator>
     <cc:Agent>
      <dc:title>Matplotlib v3.7.5, https://matplotlib.org/</dc:title>
     </cc:Agent>
    </dc:creator>
   </cc:Work>
  </rdf:RDF>
 </metadata>
 <defs>
  <style type="text/css">*{stroke-linejoin: round; stroke-linecap: butt}</style>
 </defs>
 <g id="figure_1">
  <g id="patch_1">
   <path d="M 0 432 
L 720 432 
L 720 0 
L 0 0 
z
" style="fill: #ffffff"/>
  </g>
  <g id="axes_1">
   <g id="matplotlib.axis_1"/>
   <g id="matplotlib.axis_2"/>
   <g id="patch_2">
    <path d="M 502.056 218.16 
C 502.056 200.729807 498.630995 183.468273 491.976059 167.358542 
C 485.321122 151.24881 475.565044 136.602645 463.263489 124.254229 
C 450.961934 111.905813 436.352969 102.09412 420.268656 95.377982 
C 404.184343 88.661843 386.935957 85.171233 369.50589 85.104962 
C 352.075822 85.038691 334.801392 88.398041 318.666474 94.991679 
C 302.531556 101.585317 287.848404 111.285638 275.453305 123.540155 
C 263.058207 135.794672 253.191041 150.366227 246.413797 166.424888 
C 239.636552 182.483549 236.080388 199.718539 235.947847 217.148228 
C 235.815306 234.577918 239.108953 251.864996 245.641197 268.024867 
C 252.173441 284.184738 261.817866 298.904665 274.025167 311.346266 
C 286.232468 323.787867 300.766402 333.710365 316.799179 340.548616 
C 332.831957 347.386868 350.053301 351.008535 367.482361 351.207345 
C 384.91142 351.406154 402.210896 348.178257 418.395486 341.707501 
C 434.580076 335.236746 449.336566 325.648357 461.824491 313.488448 
C 474.312415 301.32854 484.2901 286.832437 491.18926 270.825775 
C 498.08842 254.819113 501.775538 237.611663 502.040613 220.183485 
L 369 218.16 
z
" style="fill: #f77189"/>
   </g>
   <g id="patch_3">
    <path d="M 502.040613 220.183485 
C 502.045691 219.849601 502.049512 219.515698 502.052077 219.181785 
C 502.054641 218.847872 502.055948 218.51395 502.055998 218.180027 
L 369 218.16 
z
" style="fill: #bb9832"/>
   </g>
   <g id="patch_4">
    <path d="M 502.055998 218.180027 
C 502.055999 218.176688 502.055999 218.173349 502.056 218.170009 
C 502.056 218.16667 502.056 218.163331 502.056 218.159992 
L 369 218.16 
z
" style="fill: #50b131"/>
   </g>
   <g id="text_1">
    <text style="fill: #262626; font: 10px 'Arial', 'Liberation Sans', 'DejaVu Sans', 'Bitstream Vera Sans', sans-serif; text-anchor: end" x="222.642632" y="219.632989" transform="rotate(-0 222.642632 219.632989)">newsapi</text>
   </g>
   <g id="text_2">
    <text style="fill: #262626; font: 10px 'Arial', 'Liberation Sans', 'DejaVu Sans', 'Bitstream Vera Sans', sans-serif; text-anchor: middle" x="289.168708" y="220.138874" transform="rotate(-0 289.168708 220.138874)">99.8%</text>
   </g>
   <g id="text_3">
    <text style="fill: #262626; font: 10px 'Arial', 'Liberation Sans', 'DejaVu Sans', 'Bitstream Vera Sans', sans-serif; text-anchor: start" x="515.357284" y="221.869901" transform="rotate(-0 515.357284 221.869901)">chicago_pd</text>
   </g>
   <g id="text_4">
    <text style="fill: #262626; font: 10px 'Arial', 'Liberation Sans', 'DejaVu Sans', 'Bitstream Vera Sans', sans-serif; text-anchor: middle" x="448.831246" y="221.359008" transform="rotate(-0 448.831246 221.359008)">0.2%</text>
   </g>
   <g id="text_5">
    <text style="fill: #262626; font: 10px 'Arial', 'Liberation Sans', 'DejaVu Sans', 'Bitstream Vera Sans', sans-serif; text-anchor: start" x="515.3616" y="220.756948" transform="rotate(-0 515.3616 220.756948)">chicago_police</text>
   </g>
   <g id="text_6">
    <text style="fill: #262626; font: 10px 'Arial', 'Liberation Sans', 'DejaVu Sans', 'Bitstream Vera Sans', sans-serif; text-anchor: middle" x="448.8336" y="220.751943" transform="rotate(-0 448.8336 220.751943)">0.0%</text>
   </g>
   <g id="text_7">
    <text style="fill: #262626; font: 12px 'Arial', 'Liberation Sans', 'DejaVu Sans', 'Bitstream Vera Sans', sans-serif; text-anchor: middle" x="369" y="45.84" transform="rotate(-0 369 45.84)">Incidents by Source</text>
   </g>
  </g>
 </g>
</svg>
