<?xml version="1.0" encoding="utf-8" standalone="no"?>
<!DOCTYPE svg PUBLIC "-//W3C//DTD SVG 1.1//EN"
  "http://www.w3.org/Graphics/SVG/1.1/DTD/svg11.dtd">
<svg xmlns:xlink="http://www.w3.org/1999/xlink" width="720pt" height="432pt" viewBox="0 0 720 432" xmlns="http://www.w3.org/2000/svg" version="1.1">
 <metadata>
  <rdf:RDF xmlns:dc="http://purl.org/dc/elements/1.1/" xmlns:cc="http://creativecommons.org/ns#" xmlns:rdf="http://www.w3.org/1999/02/22-rdf-syntax-ns#">
   <cc:Work>
    <dc:type rdf:resource="http://purl.org/dc/dcmitype/StillImage"/>
    <dc:date>2025-12-19T02:00:05.395692</dc:date>
    <dc:format>image/svg+xml</dc:format>
    <dc:creator>
     <cc:Agent>
      <dc:title>Matplotlib v3.7.5, https://matplotlib.org/</dc:title>
     </cc:Agent>
    </dc:creator>
   </cc:Work>
  </rdf:RDF>
 </metadata>
 <defs>
  <style type="text/css">*{stroke-linejoin: round; stroke-linecap: butt}</style>
 </defs>
 <g id="figure_1">
  <g id="patch_1">
   <path d="M 0 432 
L 720 432 
L 720 0 
L 0 0 
z
" style="fill: #ffffff"/>
  </g>
  <g id="axes_1">
   <g id="matplotlib.axis_1"/>
   <g id="matplotlib.axis_2"/>
   <g id="patch_2">
    <path d="M 502.056 218.16 
C 502.056 200.710185 498.62328 183.429602 491.953785 167.304656 
C 485.284289 151.17971 475.507384 136.523168 463.18115 124.171649 
C 450.854917 111.820131 436.21844 102.013211 420.107195 95.310687 
C 403.99595 88.608162 386.722437 85.140038 369.272659 85.104279 
C 351.822881 85.068521 334.5353 88.465823 318.396721 95.10226 
C 302.258142 101.738698 287.581595 111.485549 275.204843 123.786446 
C 262.828092 136.087343 252.9912 150.703693 246.255674 166.801169 
C 239.520148 182.898644 236.016634 200.165014 235.945117 217.614682 
C 235.873601 235.064351 239.23547 252.358858 245.838822 268.511002 
C 252.442175 284.663147 262.15893 299.359636 274.434438 311.761569 
C 286.709947 324.163501 301.306108 334.030325 317.389748 340.798823 
C 333.473387 347.567322 350.732542 351.106211 368.182027 351.213486 
C 385.631512 351.32076 402.932872 347.994338 419.098514 341.424099 
C 435.264156 334.853859 449.980526 325.167241 462.407588 312.917172 
C 474.834649 300.667104 484.731363 286.091192 491.532806 270.021456 
C 498.334249 253.95172 501.908498 236.699854 502.05153 219.250626 
L 369 218.16 
z
" style="fill: #f77189"/>
   </g>
   <g id="patch_3">
    <path d="M 502.05153 219.250626 
C 502.053005 219.07066 502.054115 218.890692 502.05486 218.710721 
C 502.055605 218.530751 502.055985 218.35078 502.056 218.170808 
L 369 218.16 
z
" style="fill: #bb9832"/>
   </g>
   <g id="patch_4">
    <path d="M 502.056 218.170808 
C 502.056 218.169008 502.056 218.167208 502.056 218.165409 
C 502.056 218.163609 502.056 218.161809 502.056 218.160009 
L 369 218.16 
z
" style="fill: #50b131"/>
   </g>
   <g id="text_1">
    <text style="fill: #262626; font: 10px 'Arial', 'Liberation Sans', 'DejaVu Sans', 'Bitstream Vera Sans', sans-serif; text-anchor: end" x="222.639629" y="220.146088" transform="rotate(-0 222.639629 220.146088)">newsapi</text>
   </g>
   <g id="text_2">
    <text style="fill: #262626; font: 10px 'Arial', 'Liberation Sans', 'DejaVu Sans', 'Bitstream Vera Sans', sans-serif; text-anchor: middle" x="289.16707" y="220.418747" transform="rotate(-0 289.16707 220.418747)">99.9%</text>
   </g>
   <g id="text_3">
    <text style="fill: #262626; font: 10px 'Arial', 'Liberation Sans', 'DejaVu Sans', 'Bitstream Vera Sans', sans-serif; text-anchor: start" x="515.360346" y="221.351731" transform="rotate(-0 515.360346 221.351731)">chicago_pd</text>
   </g>
   <g id="text_4">
    <text style="fill: #262626; font: 10px 'Arial', 'Liberation Sans', 'DejaVu Sans', 'Bitstream Vera Sans', sans-serif; text-anchor: middle" x="448.832916" y="221.07637" transform="rotate(-0 448.832916 221.07637)">0.1%</text>
   </g>
   <g id="text_5">
    <text style="fill: #262626; font: 10px 'Arial', 'Liberation Sans', 'DejaVu Sans', 'Bitstream Vera Sans', sans-serif; text-anchor: start" x="515.3616" y="220.751887" transform="rotate(-0 515.3616 220.751887)">chicago_police</text>
   </g>
   <g id="text_6">
    <text style="fill: #262626; font: 10px 'Arial', 'Liberation Sans', 'DejaVu Sans', 'Bitstream Vera Sans', sans-serif; text-anchor: middle" x="448.8336" y="220.749183" transform="rotate(-0 448.8336 220.749183)">0.0%</text>
   </g>
   <g id="text_7">
    <text style="fill: #262626; font: 12px 'Arial', 'Liberation Sans', 'DejaVu Sans', 'Bitstream Vera Sans', sans-serif; text-anchor: middle" x="369" y="45.84" transform="rotate(-0 369 45.84)">Incidents by Source</text>
   </g>
  </g>
 </g>
</svg>
