<?xml version="1.0" encoding="utf-8" standalone="no"?>
<!DOCTYPE svg PUBLIC "-//W3C//DTD SVG 1.1//EN"
  "http://www.w3.org/Graphics/SVG/1.1/DTD/svg11.dtd">
<svg xmlns:xlink="http://www.w3.org/1999/xlink" width="720pt" height="432pt" viewBox="0 0 720 432" xmlns="http://www.w3.org/2000/svg" version="1.1">
 <metadata>
  <rdf:RDF xmlns:dc="http://purl.org/dc/elements/1.1/" xmlns:cc="http://creativecommons.org/ns#" xmlns:rdf="http://www.w3.org/1999/02/22-rdf-syntax-ns#">
   <cc:Work>
    <dc:type rdf:resource="http://purl.org/dc/dcmitype/StillImage"/>
    <dc:date>2025-08-18T01:15:47.380401</dc:date>
    <dc:format>image/svg+xml</dc:format>
    <dc:creator>
     <cc:Agent>
      <dc:title>Matplotlib v3.7.5, https://matplotlib.org/</dc:title>
     </cc:Agent>
    </dc:creator>
   </cc:Work>
  </rdf:RDF>
 </metadata>
 <defs>
  <style type="text/css">*{stroke-linejoin: round; stroke-linecap: butt}</style>
 </defs>
 <g id="figure_1">
  <g id="patch_1">
   <path d="M 0 432 
L 720 432 
L 720 0 
L 0 0 
z
" style="fill: #ffffff"/>
  </g>
  <g id="axes_1">
   <g id="matplotlib.axis_1"/>
   <g id="matplotlib.axis_2"/>
   <g id="patch_2">
    <path d="M 502.056 218.16 
C 502.056 200.721447 498.627709 183.451796 491.966571 167.335581 
C 485.305433 151.219366 475.540483 136.568777 463.228415 124.219035 
C 450.916347 111.869293 436.295661 102.059628 420.199872 95.349283 
C 404.104083 88.638938 386.844988 85.1579 369.406516 85.104621 
C 351.968044 85.051342 334.688 88.426855 318.551509 95.038723 
C 302.415018 101.650591 287.734663 111.370734 275.347362 123.645014 
C 262.960062 135.919293 253.105773 150.509941 246.346283 166.585153 
C 239.586793 182.660365 236.053041 199.908744 235.946484 217.346972 
C 235.839927 234.7852 239.16263 252.075476 245.725166 268.232093 
C 252.287703 284.388709 261.962949 299.098693 274.199325 311.523436 
C 286.435701 323.948179 300.996174 333.847 317.050659 340.655572 
C 333.105144 347.464144 350.342647 351.050577 367.780468 351.210411 
C 385.218289 351.370245 402.518636 348.100384 418.695227 341.58724 
C 434.871818 335.074096 449.611293 325.443837 462.073363 313.245479 
C 474.535433 301.04712 484.478693 286.516959 491.336283 270.48335 
C 498.193873 254.449741 501.832954 237.223277 502.046064 219.786025 
L 369 218.16 
z
" style="fill: #f77189"/>
   </g>
   <g id="patch_3">
    <path d="M 502.046064 219.786025 
C 502.049343 219.517715 502.051811 219.249395 502.053467 218.981069 
C 502.055122 218.712744 502.055967 218.444414 502.055999 218.176084 
L 369 218.16 
z
" style="fill: #bb9832"/>
   </g>
   <g id="patch_4">
    <path d="M 502.055999 218.176084 
C 502.055999 218.1734 502.056 218.170717 502.056 218.168034 
C 502.056 218.16535 502.056 218.162667 502.056 218.159984 
L 369 218.16 
z
" style="fill: #50b131"/>
   </g>
   <g id="text_1">
    <text style="fill: #262626; font: 10px 'Arial', 'Liberation Sans', 'DejaVu Sans', 'Bitstream Vera Sans', sans-serif; text-anchor: end" x="222.641132" y="219.851607" transform="rotate(-0 222.641132 219.851607)">newsapi</text>
   </g>
   <g id="text_2">
    <text style="fill: #262626; font: 10px 'Arial', 'Liberation Sans', 'DejaVu Sans', 'Bitstream Vera Sans', sans-serif; text-anchor: middle" x="289.16789" y="220.258121" transform="rotate(-0 289.16789 220.258121)">99.8%</text>
   </g>
   <g id="text_3">
    <text style="fill: #262626; font: 10px 'Arial', 'Liberation Sans', 'DejaVu Sans', 'Bitstream Vera Sans', sans-serif; text-anchor: start" x="515.358813" y="221.649114" transform="rotate(-0 515.358813 221.649114)">chicago_pd</text>
   </g>
   <g id="text_4">
    <text style="fill: #262626; font: 10px 'Arial', 'Liberation Sans', 'DejaVu Sans', 'Bitstream Vera Sans', sans-serif; text-anchor: middle" x="448.83208" y="221.238579" transform="rotate(-0 448.83208 221.238579)">0.2%</text>
   </g>
   <g id="text_5">
    <text style="fill: #262626; font: 10px 'Arial', 'Liberation Sans', 'DejaVu Sans', 'Bitstream Vera Sans', sans-serif; text-anchor: start" x="515.3616" y="220.754774" transform="rotate(-0 515.3616 220.754774)">chicago_police</text>
   </g>
   <g id="text_6">
    <text style="fill: #262626; font: 10px 'Arial', 'Liberation Sans', 'DejaVu Sans', 'Bitstream Vera Sans', sans-serif; text-anchor: middle" x="448.8336" y="220.750758" transform="rotate(-0 448.8336 220.750758)">0.0%</text>
   </g>
   <g id="text_7">
    <text style="fill: #262626; font: 12px 'Arial', 'Liberation Sans', 'DejaVu Sans', 'Bitstream Vera Sans', sans-serif; text-anchor: middle" x="369" y="45.84" transform="rotate(-0 369 45.84)">Incidents by Source</text>
   </g>
  </g>
 </g>
</svg>
