<?xml version="1.0" encoding="utf-8" standalone="no"?>
<!DOCTYPE svg PUBLIC "-//W3C//DTD SVG 1.1//EN"
  "http://www.w3.org/Graphics/SVG/1.1/DTD/svg11.dtd">
<svg xmlns:xlink="http://www.w3.org/1999/xlink" width="720pt" height="432pt" viewBox="0 0 720 432" xmlns="http://www.w3.org/2000/svg" version="1.1">
 <metadata>
  <rdf:RDF xmlns:dc="http://purl.org/dc/elements/1.1/" xmlns:cc="http://creativecommons.org/ns#" xmlns:rdf="http://www.w3.org/1999/02/22-rdf-syntax-ns#">
   <cc:Work>
    <dc:type rdf:resource="http://purl.org/dc/dcmitype/StillImage"/>
    <dc:date>2026-02-05T13:13:39.267791</dc:date>
    <dc:format>image/svg+xml</dc:format>
    <dc:creator>
     <cc:Agent>
      <dc:title>Matplotlib v3.7.5, https://matplotlib.org/</dc:title>
     </cc:Agent>
    </dc:creator>
   </cc:Work>
  </rdf:RDF>
 </metadata>
 <defs>
  <style type="text/css">*{stroke-linejoin: round; stroke-linecap: butt}</style>
 </defs>
 <g id="figure_1">
  <g id="patch_1">
   <path d="M 0 432 
L 720 432 
L 720 0 
L 0 0 
z
" style="fill: #ffffff"/>
  </g>
  <g id="axes_1">
   <g id="matplotlib.axis_1"/>
   <g id="matplotlib.axis_2"/>
   <g id="patch_2">
    <path d="M 502.056 218.16 
C 502.056 200.707633 498.622275 183.424572 491.950886 167.297648 
C 485.279496 151.170725 475.49988 136.512833 463.170436 124.160914 
C 450.840992 111.808995 436.200936 102.002699 420.086189 95.30195 
C 403.971442 88.601201 386.694663 85.136005 369.242325 85.104221 
C 351.789987 85.072436 334.500701 88.474678 318.361654 95.116686 
C 302.222607 101.758694 287.546929 111.511599 275.172576 123.818527 
C 262.798222 136.125455 252.96528 150.747627 246.235193 166.850144 
C 239.505106 182.95266 236.008452 200.2231 235.944883 217.675351 
C 235.881313 235.127602 239.252063 252.423055 245.864666 268.574172 
C 252.47727 284.725289 262.203431 299.418705 274.487802 311.815452 
C 286.772173 324.212198 301.376413 334.071754 317.466646 340.831156 
C 333.556879 347.590558 350.820922 351.11866 368.273028 351.214014 
C 385.725134 351.309368 403.026698 347.970123 419.189831 341.386945 
C 435.352964 334.803767 450.064069 325.104382 462.483168 312.842609 
C 474.902267 300.580835 484.788404 285.994576 491.577099 269.91668 
C 498.365794 253.838785 501.925332 236.581196 502.052469 219.129293 
L 369 218.16 
z
" style="fill: #f77189"/>
   </g>
   <g id="patch_3">
    <path d="M 502.052469 219.129293 
C 502.053635 218.96935 502.054511 218.809406 502.0551 218.64946 
C 502.055688 218.489514 502.055988 218.329568 502.056 218.169621 
L 369 218.16 
z
" style="fill: #bb9832"/>
   </g>
   <g id="patch_4">
    <path d="M 502.056 218.169621 
C 502.056 218.168022 502.056 218.166422 502.056 218.164823 
C 502.056 218.163223 502.056 218.161624 502.056 218.160024 
L 369 218.16 
z
" style="fill: #50b131"/>
   </g>
   <g id="text_1">
    <text style="fill: #262626; font: 10px 'Arial', 'Liberation Sans', 'DejaVu Sans', 'Bitstream Vera Sans', sans-serif; text-anchor: end" x="222.639371" y="220.212823" transform="rotate(-0 222.639371 220.212823)">newsapi</text>
   </g>
   <g id="text_2">
    <text style="fill: #262626; font: 10px 'Arial', 'Liberation Sans', 'DejaVu Sans', 'Bitstream Vera Sans', sans-serif; text-anchor: middle" x="289.16693" y="220.455148" transform="rotate(-0 289.16693 220.455148)">99.9%</text>
   </g>
   <g id="text_3">
    <text style="fill: #262626; font: 10px 'Arial', 'Liberation Sans', 'DejaVu Sans', 'Bitstream Vera Sans', sans-serif; text-anchor: start" x="515.36061" y="221.284344" transform="rotate(-0 515.36061 221.284344)">chicago_pd</text>
   </g>
   <g id="text_4">
    <text style="fill: #262626; font: 10px 'Arial', 'Liberation Sans', 'DejaVu Sans', 'Bitstream Vera Sans', sans-serif; text-anchor: middle" x="448.83306" y="221.039614" transform="rotate(-0 448.83306 221.039614)">0.1%</text>
   </g>
   <g id="text_5">
    <text style="fill: #262626; font: 10px 'Arial', 'Liberation Sans', 'DejaVu Sans', 'Bitstream Vera Sans', sans-serif; text-anchor: start" x="515.3616" y="220.751243" transform="rotate(-0 515.3616 220.751243)">chicago_police</text>
   </g>
   <g id="text_6">
    <text style="fill: #262626; font: 10px 'Arial', 'Liberation Sans', 'DejaVu Sans', 'Bitstream Vera Sans', sans-serif; text-anchor: middle" x="448.8336" y="220.748831" transform="rotate(-0 448.8336 220.748831)">0.0%</text>
   </g>
   <g id="text_7">
    <text style="fill: #262626; font: 12px 'Arial', 'Liberation Sans', 'DejaVu Sans', 'Bitstream Vera Sans', sans-serif; text-anchor: middle" x="369" y="45.84" transform="rotate(-0 369 45.84)">Incidents by Source</text>
   </g>
  </g>
 </g>
</svg>
