<?xml version="1.0" encoding="utf-8" standalone="no"?>
<!DOCTYPE svg PUBLIC "-//W3C//DTD SVG 1.1//EN"
  "http://www.w3.org/Graphics/SVG/1.1/DTD/svg11.dtd">
<svg xmlns:xlink="http://www.w3.org/1999/xlink" width="720pt" height="432pt" viewBox="0 0 720 432" xmlns="http://www.w3.org/2000/svg" version="1.1">
 <metadata>
  <rdf:RDF xmlns:dc="http://purl.org/dc/elements/1.1/" xmlns:cc="http://creativecommons.org/ns#" xmlns:rdf="http://www.w3.org/1999/02/22-rdf-syntax-ns#">
   <cc:Work>
    <dc:type rdf:resource="http://purl.org/dc/dcmitype/StillImage"/>
    <dc:date>2025-11-21T18:21:11.378512</dc:date>
    <dc:format>image/svg+xml</dc:format>
    <dc:creator>
     <cc:Agent>
      <dc:title>Matplotlib v3.7.5, https://matplotlib.org/</dc:title>
     </cc:Agent>
    </dc:creator>
   </cc:Work>
  </rdf:RDF>
 </metadata>
 <defs>
  <style type="text/css">*{stroke-linejoin: round; stroke-linecap: butt}</style>
 </defs>
 <g id="figure_1">
  <g id="patch_1">
   <path d="M 0 432 
L 720 432 
L 720 0 
L 0 0 
z
" style="fill: #ffffff"/>
  </g>
  <g id="axes_1">
   <g id="matplotlib.axis_1"/>
   <g id="matplotlib.axis_2"/>
   <g id="patch_2">
    <path d="M 502.056 218.16 
C 502.056 200.711927 498.623965 183.433035 491.955763 167.309439 
C 485.287561 151.185844 475.512505 136.530221 463.188463 124.178977 
C 450.864421 111.827733 436.230386 102.020388 420.121532 95.316652 
C 404.012678 88.612917 386.741394 85.142793 369.293364 85.104323 
C 351.845333 85.065854 334.558916 88.459784 318.420657 95.09242 
C 302.282399 101.725056 287.60526 111.467776 275.226874 123.764556 
C 262.848487 136.061336 253.0089 150.673711 246.269664 166.767746 
C 239.530428 182.86178 236.022233 200.125371 235.945294 217.573274 
C 235.868354 235.021177 239.224163 252.315035 245.821201 268.467878 
C 252.418239 284.620721 262.128575 299.319305 274.398033 311.724774 
C 286.667491 324.130242 301.258136 334.002023 317.337273 340.776727 
C 333.416409 347.551431 350.672223 351.097681 368.119914 351.213089 
C 385.567605 351.328498 402.868821 348.010827 419.03617 341.449419 
C 435.203519 334.888011 449.923476 325.210107 462.355967 312.96803 
C 474.788457 300.725954 484.692383 286.157109 491.502522 270.092949 
C 498.312661 254.028788 501.896948 236.780835 502.050826 219.333441 
L 369 218.16 
z
" style="fill: #f77189"/>
   </g>
   <g id="patch_3">
    <path d="M 502.050826 219.333441 
C 502.052533 219.139811 502.053818 218.946177 502.054681 218.752541 
C 502.055543 218.558905 502.055983 218.365268 502.055999 218.17163 
L 369 218.16 
z
" style="fill: #bb9832"/>
   </g>
   <g id="patch_4">
    <path d="M 502.055999 218.17163 
C 502.056 218.169693 502.056 218.167757 502.056 218.165821 
C 502.056 218.163884 502.056 218.161948 502.056 218.160011 
L 369 218.16 
z
" style="fill: #50b131"/>
   </g>
   <g id="text_1">
    <text style="fill: #262626; font: 10px 'Arial', 'Liberation Sans', 'DejaVu Sans', 'Bitstream Vera Sans', sans-serif; text-anchor: end" x="222.639823" y="220.100539" transform="rotate(-0 222.639823 220.100539)">newsapi</text>
   </g>
   <g id="text_2">
    <text style="fill: #262626; font: 10px 'Arial', 'Liberation Sans', 'DejaVu Sans', 'Bitstream Vera Sans', sans-serif; text-anchor: middle" x="289.167176" y="220.393902" transform="rotate(-0 289.167176 220.393902)">99.9%</text>
   </g>
   <g id="text_3">
    <text style="fill: #262626; font: 10px 'Arial', 'Liberation Sans', 'DejaVu Sans', 'Bitstream Vera Sans', sans-serif; text-anchor: start" x="515.360149" y="221.397733" transform="rotate(-0 515.360149 221.397733)">chicago_pd</text>
   </g>
   <g id="text_4">
    <text style="fill: #262626; font: 10px 'Arial', 'Liberation Sans', 'DejaVu Sans', 'Bitstream Vera Sans', sans-serif; text-anchor: middle" x="448.832808" y="221.101462" transform="rotate(-0 448.832808 221.101462)">0.1%</text>
   </g>
   <g id="text_5">
    <text style="fill: #262626; font: 10px 'Arial', 'Liberation Sans', 'DejaVu Sans', 'Bitstream Vera Sans', sans-serif; text-anchor: start" x="515.3616" y="220.75234" transform="rotate(-0 515.3616 220.75234)">chicago_police</text>
   </g>
   <g id="text_6">
    <text style="fill: #262626; font: 10px 'Arial', 'Liberation Sans', 'DejaVu Sans', 'Bitstream Vera Sans', sans-serif; text-anchor: middle" x="448.8336" y="220.74943" transform="rotate(-0 448.8336 220.74943)">0.0%</text>
   </g>
   <g id="text_7">
    <text style="fill: #262626; font: 12px 'Arial', 'Liberation Sans', 'DejaVu Sans', 'Bitstream Vera Sans', sans-serif; text-anchor: middle" x="369" y="45.84" transform="rotate(-0 369 45.84)">Incidents by Source</text>
   </g>
  </g>
 </g>
</svg>
