<?xml version="1.0" encoding="utf-8" standalone="no"?>
<!DOCTYPE svg PUBLIC "-//W3C//DTD SVG 1.1//EN"
  "http://www.w3.org/Graphics/SVG/1.1/DTD/svg11.dtd">
<svg xmlns:xlink="http://www.w3.org/1999/xlink" width="720pt" height="432pt" viewBox="0 0 720 432" xmlns="http://www.w3.org/2000/svg" version="1.1">
 <metadata>
  <rdf:RDF xmlns:dc="http://purl.org/dc/elements/1.1/" xmlns:cc="http://creativecommons.org/ns#" xmlns:rdf="http://www.w3.org/1999/02/22-rdf-syntax-ns#">
   <cc:Work>
    <dc:type rdf:resource="http://purl.org/dc/dcmitype/StillImage"/>
    <dc:date>2025-01-09T12:24:11.392195</dc:date>
    <dc:format>image/svg+xml</dc:format>
    <dc:creator>
     <cc:Agent>
      <dc:title>Matplotlib v3.7.5, https://matplotlib.org/</dc:title>
     </cc:Agent>
    </dc:creator>
   </cc:Work>
  </rdf:RDF>
 </metadata>
 <defs>
  <style type="text/css">*{stroke-linejoin: round; stroke-linecap: butt}</style>
 </defs>
 <g id="figure_1">
  <g id="patch_1">
   <path d="M 0 432 
L 720 432 
L 720 0 
L 0 0 
z
" style="fill: #ffffff"/>
  </g>
  <g id="axes_1">
   <g id="matplotlib.axis_1"/>
   <g id="matplotlib.axis_2"/>
   <g id="patch_2">
    <path d="M 502.056 218.16 
C 502.056 200.920437 498.705503 183.844052 492.191254 167.882628 
C 485.677005 151.921203 476.122323 137.376898 464.059755 125.060365 
C 451.997187 112.743832 437.655086 102.88823 421.832832 96.04288 
C 406.010579 89.19753 389.007699 85.492017 371.771877 85.132876 
C 354.536056 84.773734 337.393578 87.767762 321.29991 93.948082 
C 305.206241 100.128403 290.466045 109.378018 277.900893 121.181385 
C 265.335741 132.984751 255.183498 147.118425 248.010017 162.794639 
C 240.836537 178.470854 236.777617 195.392849 236.05949 212.617448 
C 235.341362 229.842047 237.977621 247.043178 243.821331 263.262105 
C 249.66504 279.481031 258.605574 294.41072 270.144617 307.219038 
C 281.683659 320.027357 295.60277 330.471835 311.126141 337.970332 
C 326.649513 345.468829 343.483279 349.879393 360.689179 350.956195 
C 377.89508 352.032997 395.147397 349.755651 411.484543 344.251089 
C 427.821689 338.746527 442.93439 330.118955 455.980315 318.849245 
C 469.026239 307.579534 479.75842 293.881028 487.578679 278.517237 
C 495.398938 263.153446 500.159233 246.415216 501.594241 229.235482 
L 369 218.16 
z
" style="fill: #f77189"/>
   </g>
   <g id="patch_3">
    <path d="M 501.594241 229.235482 
C 501.746554 227.412011 501.861236 225.585593 501.938212 223.757392 
C 502.015189 221.929191 502.054445 220.099597 502.055955 218.269776 
L 369 218.16 
z
" style="fill: #bb9832"/>
   </g>
   <g id="patch_4">
    <path d="M 502.055955 218.269776 
C 502.05597 218.251479 502.055981 218.233181 502.055989 218.214884 
C 502.055996 218.196586 502.056 218.178289 502.056 218.159991 
L 369 218.16 
z
" style="fill: #50b131"/>
   </g>
   <g id="text_1">
    <text style="fill: #262626; font: 10px 'Arial', 'Liberation Sans', 'DejaVu Sans', 'Bitstream Vera Sans', sans-serif; text-anchor: end" x="222.765439" y="214.64913" transform="rotate(-0 222.765439 214.64913)">newsapi</text>
   </g>
   <g id="text_2">
    <text style="fill: #262626; font: 10px 'Arial', 'Liberation Sans', 'DejaVu Sans', 'Bitstream Vera Sans', sans-serif; text-anchor: middle" x="289.235694" y="217.420406" transform="rotate(-0 289.235694 217.420406)">98.7%</text>
   </g>
   <g id="text_3">
    <text style="fill: #262626; font: 10px 'Arial', 'Liberation Sans', 'DejaVu Sans', 'Bitstream Vera Sans', sans-serif; text-anchor: start" x="515.232034" y="226.903069" transform="rotate(-0 515.232034 226.903069)">chicago_pd</text>
   </g>
   <g id="text_4">
    <text style="fill: #262626; font: 10px 'Arial', 'Liberation Sans', 'DejaVu Sans', 'Bitstream Vera Sans', sans-serif; text-anchor: middle" x="448.762927" y="224.104373" transform="rotate(-0 448.762927 224.104373)">1.3%</text>
   </g>
   <g id="text_5">
    <text style="fill: #262626; font: 10px 'Arial', 'Liberation Sans', 'DejaVu Sans', 'Bitstream Vera Sans', sans-serif; text-anchor: start" x="515.361588" y="220.80631" transform="rotate(-0 515.361588 220.80631)">chicago_police</text>
   </g>
   <g id="text_6">
    <text style="fill: #262626; font: 10px 'Arial', 'Liberation Sans', 'DejaVu Sans', 'Bitstream Vera Sans', sans-serif; text-anchor: middle" x="448.833593" y="220.778868" transform="rotate(-0 448.833593 220.778868)">0.0%</text>
   </g>
   <g id="text_7">
    <text style="fill: #262626; font: 12px 'Arial', 'Liberation Sans', 'DejaVu Sans', 'Bitstream Vera Sans', sans-serif; text-anchor: middle" x="369" y="45.84" transform="rotate(-0 369 45.84)">Incidents by Source</text>
   </g>
  </g>
 </g>
</svg>
