<?xml version="1.0" encoding="utf-8" standalone="no"?>
<!DOCTYPE svg PUBLIC "-//W3C//DTD SVG 1.1//EN"
  "http://www.w3.org/Graphics/SVG/1.1/DTD/svg11.dtd">
<svg xmlns:xlink="http://www.w3.org/1999/xlink" width="720pt" height="432pt" viewBox="0 0 720 432" xmlns="http://www.w3.org/2000/svg" version="1.1">
 <metadata>
  <rdf:RDF xmlns:dc="http://purl.org/dc/elements/1.1/" xmlns:cc="http://creativecommons.org/ns#" xmlns:rdf="http://www.w3.org/1999/02/22-rdf-syntax-ns#">
   <cc:Work>
    <dc:type rdf:resource="http://purl.org/dc/dcmitype/StillImage"/>
    <dc:date>2025-01-30T01:26:44.094105</dc:date>
    <dc:format>image/svg+xml</dc:format>
    <dc:creator>
     <cc:Agent>
      <dc:title>Matplotlib v3.7.5, https://matplotlib.org/</dc:title>
     </cc:Agent>
    </dc:creator>
   </cc:Work>
  </rdf:RDF>
 </metadata>
 <defs>
  <style type="text/css">*{stroke-linejoin: round; stroke-linecap: butt}</style>
 </defs>
 <g id="figure_1">
  <g id="patch_1">
   <path d="M 0 432 
L 720 432 
L 720 0 
L 0 0 
z
" style="fill: #ffffff"/>
  </g>
  <g id="axes_1">
   <g id="matplotlib.axis_1"/>
   <g id="matplotlib.axis_2"/>
   <g id="patch_2">
    <path d="M 502.056 218.16 
C 502.056 200.835739 498.6725 183.677077 492.095911 167.649647 
C 485.519323 151.622218 475.875375 137.032426 463.706798 124.701337 
C 451.53822 112.370249 437.077646 102.533605 421.138871 95.744979 
C 405.200095 88.956353 388.087827 85.345528 370.765091 85.115708 
C 353.442354 84.885888 336.240317 88.041468 320.127054 94.404861 
C 304.013791 100.768255 289.297349 110.217809 276.80592 122.221735 
C 264.314491 134.22566 254.286882 148.554471 247.287413 164.401787 
C 240.287945 180.249104 236.45043 197.311966 235.990831 214.630129 
C 235.531232 231.948293 238.458335 249.190677 244.607414 265.386937 
C 250.756492 281.583198 260.00999 296.423701 271.847151 309.073272 
C 283.684311 321.722843 297.878837 331.939653 313.631906 339.148732 
C 329.384975 346.357812 346.395428 350.421342 363.70597 351.110639 
C 381.016513 351.799936 398.296211 349.101824 414.572618 343.168142 
C 430.849025 337.234461 445.810978 328.178648 458.616464 316.510335 
C 471.421951 304.842023 481.826163 290.78428 489.243585 275.128231 
C 496.661007 259.472182 500.949836 242.517132 501.868711 225.217257 
L 369 218.16 
z
" style="fill: #f77189"/>
   </g>
   <g id="patch_3">
    <path d="M 501.868711 225.217257 
C 501.930509 224.053767 501.977022 222.889515 502.008238 221.724803 
C 502.039454 220.560091 502.05537 219.395019 502.055982 218.229889 
L 369 218.16 
z
" style="fill: #bb9832"/>
   </g>
   <g id="patch_4">
    <path d="M 502.055982 218.229889 
C 502.055988 218.218238 502.055992 218.206587 502.055995 218.194936 
C 502.055998 218.183285 502.056 218.171634 502.056 218.159983 
L 369 218.16 
z
" style="fill: #50b131"/>
   </g>
   <g id="text_1">
    <text style="fill: #262626; font: 10px 'Arial', 'Liberation Sans', 'DejaVu Sans', 'Bitstream Vera Sans', sans-serif; text-anchor: end" x="222.689914" y="216.86308" transform="rotate(-0 222.689914 216.86308)">newsapi</text>
   </g>
   <g id="text_2">
    <text style="fill: #262626; font: 10px 'Arial', 'Liberation Sans', 'DejaVu Sans', 'Bitstream Vera Sans', sans-serif; text-anchor: middle" x="289.194498" y="218.628015" transform="rotate(-0 289.194498 218.628015)">99.2%</text>
   </g>
   <g id="text_3">
    <text style="fill: #262626; font: 10px 'Arial', 'Liberation Sans', 'DejaVu Sans', 'Bitstream Vera Sans', sans-serif; text-anchor: start" x="515.309062" y="224.667221" transform="rotate(-0 515.309062 224.667221)">chicago_pd</text>
   </g>
   <g id="text_4">
    <text style="fill: #262626; font: 10px 'Arial', 'Liberation Sans', 'DejaVu Sans', 'Bitstream Vera Sans', sans-serif; text-anchor: middle" x="448.804943" y="222.884819" transform="rotate(-0 448.804943 222.884819)">0.8%</text>
   </g>
   <g id="text_5">
    <text style="fill: #262626; font: 10px 'Arial', 'Liberation Sans', 'DejaVu Sans', 'Bitstream Vera Sans', sans-serif; text-anchor: start" x="515.361595" y="220.784367" transform="rotate(-0 515.361595 220.784367)">chicago_police</text>
   </g>
   <g id="text_6">
    <text style="fill: #262626; font: 10px 'Arial', 'Liberation Sans', 'DejaVu Sans', 'Bitstream Vera Sans', sans-serif; text-anchor: middle" x="448.833597" y="220.766899" transform="rotate(-0 448.833597 220.766899)">0.0%</text>
   </g>
   <g id="text_7">
    <text style="fill: #262626; font: 12px 'Arial', 'Liberation Sans', 'DejaVu Sans', 'Bitstream Vera Sans', sans-serif; text-anchor: middle" x="369" y="45.84" transform="rotate(-0 369 45.84)">Incidents by Source</text>
   </g>
  </g>
 </g>
</svg>
