<?xml version="1.0" encoding="utf-8" standalone="no"?>
<!DOCTYPE svg PUBLIC "-//W3C//DTD SVG 1.1//EN"
  "http://www.w3.org/Graphics/SVG/1.1/DTD/svg11.dtd">
<svg xmlns:xlink="http://www.w3.org/1999/xlink" width="720pt" height="432pt" viewBox="0 0 720 432" xmlns="http://www.w3.org/2000/svg" version="1.1">
 <metadata>
  <rdf:RDF xmlns:dc="http://purl.org/dc/elements/1.1/" xmlns:cc="http://creativecommons.org/ns#" xmlns:rdf="http://www.w3.org/1999/02/22-rdf-syntax-ns#">
   <cc:Work>
    <dc:type rdf:resource="http://purl.org/dc/dcmitype/StillImage"/>
    <dc:date>2025-11-29T01:07:20.999794</dc:date>
    <dc:format>image/svg+xml</dc:format>
    <dc:creator>
     <cc:Agent>
      <dc:title>Matplotlib v3.7.5, https://matplotlib.org/</dc:title>
     </cc:Agent>
    </dc:creator>
   </cc:Work>
  </rdf:RDF>
 </metadata>
 <defs>
  <style type="text/css">*{stroke-linejoin: round; stroke-linecap: butt}</style>
 </defs>
 <g id="figure_1">
  <g id="patch_1">
   <path d="M 0 432 
L 720 432 
L 720 0 
L 0 0 
z
" style="fill: #ffffff"/>
  </g>
  <g id="axes_1">
   <g id="matplotlib.axis_1"/>
   <g id="matplotlib.axis_2"/>
   <g id="patch_2">
    <path d="M 502.056 218.16 
C 502.056 200.711489 498.623792 183.432171 491.955265 167.308236 
C 485.286738 151.184301 475.511217 136.528447 463.186624 124.177134 
C 450.86203 111.825821 436.227381 102.018583 420.117926 95.315152 
C 404.008471 88.611721 386.736627 85.1421 369.288157 85.104312 
C 351.839687 85.066524 334.552976 88.461302 318.414637 95.094894 
C 302.276298 101.728487 287.599308 111.472245 275.221332 123.770061 
C 262.843357 136.067876 253.004448 150.681251 246.266145 166.776151 
C 239.527842 182.871051 236.020824 200.135341 235.945248 217.583688 
C 235.869673 235.032036 239.227005 252.326057 245.825631 268.478725 
C 252.424258 284.631392 262.136208 299.32945 274.407188 311.734029 
C 286.678167 324.138609 301.2702 334.009143 317.35047 340.782287 
C 333.430739 347.55543 350.687393 351.099829 368.135536 351.213192 
C 385.583678 351.326555 402.884931 348.006683 419.051851 341.443054 
C 435.218771 334.879425 449.937827 325.199329 462.368952 312.955242 
C 474.800078 300.711155 484.70219 286.140533 491.510143 270.07497 
C 498.318095 254.009407 501.899858 236.760469 502.051008 219.312613 
L 369 218.16 
z
" style="fill: #f77189"/>
   </g>
   <g id="patch_3">
    <path d="M 502.051008 219.312613 
C 502.052655 219.122418 502.053895 218.932221 502.054727 218.742021 
C 502.055559 218.551821 502.055983 218.36162 502.056 218.171418 
L 369 218.16 
z
" style="fill: #bb9832"/>
   </g>
   <g id="patch_4">
    <path d="M 502.056 218.171418 
C 502.056 218.169516 502.056 218.167614 502.056 218.165712 
C 502.056 218.16381 502.056 218.161908 502.056 218.160006 
L 369 218.16 
z
" style="fill: #50b131"/>
   </g>
   <g id="text_1">
    <text style="fill: #262626; font: 10px 'Arial', 'Liberation Sans', 'DejaVu Sans', 'Bitstream Vera Sans', sans-serif; text-anchor: end" x="222.639773" y="220.111995" transform="rotate(-0 222.639773 220.111995)">newsapi</text>
   </g>
   <g id="text_2">
    <text style="fill: #262626; font: 10px 'Arial', 'Liberation Sans', 'DejaVu Sans', 'Bitstream Vera Sans', sans-serif; text-anchor: middle" x="289.167149" y="220.40015" transform="rotate(-0 289.167149 220.40015)">99.9%</text>
   </g>
   <g id="text_3">
    <text style="fill: #262626; font: 10px 'Arial', 'Liberation Sans', 'DejaVu Sans', 'Bitstream Vera Sans', sans-serif; text-anchor: start" x="515.3602" y="221.38616" transform="rotate(-0 515.3602 221.38616)">chicago_pd</text>
   </g>
   <g id="text_4">
    <text style="fill: #262626; font: 10px 'Arial', 'Liberation Sans', 'DejaVu Sans', 'Bitstream Vera Sans', sans-serif; text-anchor: middle" x="448.832836" y="221.09515" transform="rotate(-0 448.832836 221.09515)">0.1%</text>
   </g>
   <g id="text_5">
    <text style="fill: #262626; font: 10px 'Arial', 'Liberation Sans', 'DejaVu Sans', 'Bitstream Vera Sans', sans-serif; text-anchor: start" x="515.3616" y="220.752221" transform="rotate(-0 515.3616 220.752221)">chicago_police</text>
   </g>
   <g id="text_6">
    <text style="fill: #262626; font: 10px 'Arial', 'Liberation Sans', 'DejaVu Sans', 'Bitstream Vera Sans', sans-serif; text-anchor: middle" x="448.8336" y="220.749365" transform="rotate(-0 448.8336 220.749365)">0.0%</text>
   </g>
   <g id="text_7">
    <text style="fill: #262626; font: 12px 'Arial', 'Liberation Sans', 'DejaVu Sans', 'Bitstream Vera Sans', sans-serif; text-anchor: middle" x="369" y="45.84" transform="rotate(-0 369 45.84)">Incidents by Source</text>
   </g>
  </g>
 </g>
</svg>
