<?xml version="1.0" encoding="utf-8" standalone="no"?>
<!DOCTYPE svg PUBLIC "-//W3C//DTD SVG 1.1//EN"
  "http://www.w3.org/Graphics/SVG/1.1/DTD/svg11.dtd">
<svg xmlns:xlink="http://www.w3.org/1999/xlink" width="720pt" height="432pt" viewBox="0 0 720 432" xmlns="http://www.w3.org/2000/svg" version="1.1">
 <metadata>
  <rdf:RDF xmlns:dc="http://purl.org/dc/elements/1.1/" xmlns:cc="http://creativecommons.org/ns#" xmlns:rdf="http://www.w3.org/1999/02/22-rdf-syntax-ns#">
   <cc:Work>
    <dc:type rdf:resource="http://purl.org/dc/dcmitype/StillImage"/>
    <dc:date>2026-05-31T04:18:07.864276</dc:date>
    <dc:format>image/svg+xml</dc:format>
    <dc:creator>
     <cc:Agent>
      <dc:title>Matplotlib v3.7.5, https://matplotlib.org/</dc:title>
     </cc:Agent>
    </dc:creator>
   </cc:Work>
  </rdf:RDF>
 </metadata>
 <defs>
  <style type="text/css">*{stroke-linejoin: round; stroke-linecap: butt}</style>
 </defs>
 <g id="figure_1">
  <g id="patch_1">
   <path d="M 0 432 
L 720 432 
L 720 0 
L 0 0 
z
" style="fill: #ffffff"/>
  </g>
  <g id="axes_1">
   <g id="matplotlib.axis_1"/>
   <g id="matplotlib.axis_2"/>
   <g id="patch_2">
    <path d="M 502.056 218.16 
C 502.056 200.703679 498.620719 183.416779 491.946393 167.28679 
C 485.272068 151.156802 475.488251 136.496822 463.153832 124.144282 
C 450.819412 111.791743 436.17381 101.986416 420.053637 95.288419 
C 403.933464 88.590423 386.651625 85.129769 369.195323 85.104143 
C 351.73902 85.078518 334.447096 88.488418 318.307327 95.139058 
C 302.167559 101.789699 287.493232 111.551984 275.122599 123.868257 
C 262.751966 136.184531 252.925151 150.815723 246.203497 166.926046 
C 239.481844 183.036369 235.995824 200.313109 235.944573 217.769355 
C 235.893323 235.225601 239.277835 252.522513 245.904776 268.672027 
C 252.531716 284.821541 262.272449 299.510182 274.570549 311.898882 
C 286.86865 324.287582 301.4854 334.135864 317.585839 340.88116 
C 333.686278 347.626456 350.957882 351.137834 368.414034 351.21471 
C 385.870186 351.291586 403.172047 347.932468 419.331272 341.329242 
C 435.490497 334.726016 450.193422 325.006856 462.600161 312.726955 
C 475.006901 300.447054 484.87663 285.844776 491.645553 269.754257 
C 498.414477 253.663737 501.951205 236.397307 502.053706 218.941286 
L 369 218.16 
z
" style="fill: #f77189"/>
   </g>
   <g id="patch_3">
    <path d="M 502.053706 218.941286 
C 502.054463 218.812366 502.055033 218.683444 502.055415 218.554522 
C 502.055797 218.4256 502.055992 218.296677 502.056 218.167754 
L 369 218.16 
z
" style="fill: #bb9832"/>
   </g>
   <g id="patch_4">
    <path d="M 502.056 218.167754 
C 502.056 218.166465 502.056 218.165176 502.056 218.163886 
C 502.056 218.162597 502.056 218.161308 502.056 218.160019 
L 369 218.16 
z
" style="fill: #50b131"/>
   </g>
   <g id="text_1">
    <text style="fill: #262626; font: 10px 'Arial', 'Liberation Sans', 'DejaVu Sans', 'Bitstream Vera Sans', sans-serif; text-anchor: end" x="222.639031" y="220.316228" transform="rotate(-0 222.639031 220.316228)">newsapi</text>
   </g>
   <g id="text_2">
    <text style="fill: #262626; font: 10px 'Arial', 'Liberation Sans', 'DejaVu Sans', 'Bitstream Vera Sans', sans-serif; text-anchor: middle" x="289.166744" y="220.511551" transform="rotate(-0 289.166744 220.511551)">99.9%</text>
   </g>
   <g id="text_3">
    <text style="fill: #262626; font: 10px 'Arial', 'Liberation Sans', 'DejaVu Sans', 'Bitstream Vera Sans', sans-serif; text-anchor: start" x="515.360957" y="221.179912" transform="rotate(-0 515.360957 221.179912)">chicago_pd</text>
   </g>
   <g id="text_4">
    <text style="fill: #262626; font: 10px 'Arial', 'Liberation Sans', 'DejaVu Sans', 'Bitstream Vera Sans', sans-serif; text-anchor: middle" x="448.833249" y="220.982651" transform="rotate(-0 448.833249 220.982651)">0.1%</text>
   </g>
   <g id="text_5">
    <text style="fill: #262626; font: 10px 'Arial', 'Liberation Sans', 'DejaVu Sans', 'Bitstream Vera Sans', sans-serif; text-anchor: start" x="515.3616" y="220.750212" transform="rotate(-0 515.3616 220.750212)">chicago_police</text>
   </g>
   <g id="text_6">
    <text style="fill: #262626; font: 10px 'Arial', 'Liberation Sans', 'DejaVu Sans', 'Bitstream Vera Sans', sans-serif; text-anchor: middle" x="448.8336" y="220.748269" transform="rotate(-0 448.8336 220.748269)">0.0%</text>
   </g>
   <g id="text_7">
    <text style="fill: #262626; font: 12px 'Arial', 'Liberation Sans', 'DejaVu Sans', 'Bitstream Vera Sans', sans-serif; text-anchor: middle" x="369" y="45.84" transform="rotate(-0 369 45.84)">Incidents by Source</text>
   </g>
  </g>
 </g>
</svg>
