<?xml version="1.0" encoding="utf-8" standalone="no"?>
<!DOCTYPE svg PUBLIC "-//W3C//DTD SVG 1.1//EN"
  "http://www.w3.org/Graphics/SVG/1.1/DTD/svg11.dtd">
<svg xmlns:xlink="http://www.w3.org/1999/xlink" width="720pt" height="432pt" viewBox="0 0 720 432" xmlns="http://www.w3.org/2000/svg" version="1.1">
 <metadata>
  <rdf:RDF xmlns:dc="http://purl.org/dc/elements/1.1/" xmlns:cc="http://creativecommons.org/ns#" xmlns:rdf="http://www.w3.org/1999/02/22-rdf-syntax-ns#">
   <cc:Work>
    <dc:type rdf:resource="http://purl.org/dc/dcmitype/StillImage"/>
    <dc:date>2026-04-19T07:12:22.430521</dc:date>
    <dc:format>image/svg+xml</dc:format>
    <dc:creator>
     <cc:Agent>
      <dc:title>Matplotlib v3.7.5, https://matplotlib.org/</dc:title>
     </cc:Agent>
    </dc:creator>
   </cc:Work>
  </rdf:RDF>
 </metadata>
 <defs>
  <style type="text/css">*{stroke-linejoin: round; stroke-linecap: butt}</style>
 </defs>
 <g id="figure_1">
  <g id="patch_1">
   <path d="M 0 432 
L 720 432 
L 720 0 
L 0 0 
z
" style="fill: #ffffff"/>
  </g>
  <g id="axes_1">
   <g id="matplotlib.axis_1"/>
   <g id="matplotlib.axis_2"/>
   <g id="patch_2">
    <path d="M 502.056 218.16 
C 502.056 200.705071 498.621267 183.419522 491.947975 167.290612 
C 485.274683 151.161702 475.492345 136.502458 463.159676 124.150136 
C 450.827008 111.797815 436.183358 101.992147 420.065095 95.293181 
C 403.946831 88.594215 386.666773 85.131962 369.211866 85.104169 
C 351.756959 85.076375 334.465963 88.48358 318.326448 95.131181 
C 302.186933 101.778783 287.51213 111.537766 275.140187 123.85075 
C 262.768243 136.163734 252.939271 150.791752 246.214648 166.899328 
C 239.490025 183.006904 236.000262 200.281427 235.944675 217.736268 
C 235.889087 235.191109 239.268755 252.487508 245.890649 268.637588 
C 252.512543 284.787668 262.248148 299.477991 274.541416 311.869525 
C 286.834685 324.261059 301.447033 334.113311 317.543881 340.863573 
C 333.640729 347.613836 350.909673 351.131101 368.364403 351.214482 
C 385.819133 351.297863 403.120892 347.94574 419.281496 341.349571 
C 435.442099 334.753401 450.147906 325.0412 462.558999 312.767679 
C 474.970091 300.494157 484.845599 285.897515 491.621484 269.811436 
C 498.397369 253.725357 501.942127 236.462035 502.053301 219.00746 
L 369 218.16 
z
" style="fill: #f77189"/>
   </g>
   <g id="patch_3">
    <path d="M 502.053301 219.00746 
C 502.054192 218.867615 502.054862 218.727769 502.055312 218.587922 
C 502.055762 218.448075 502.055991 218.308227 502.056 218.168379 
L 369 218.16 
z
" style="fill: #bb9832"/>
   </g>
   <g id="patch_4">
    <path d="M 502.056 218.168379 
C 502.056 218.166981 502.056 218.165582 502.056 218.164184 
C 502.056 218.162785 502.056 218.161387 502.056 218.159988 
L 369 218.16 
z
" style="fill: #50b131"/>
   </g>
   <g id="text_1">
    <text style="fill: #262626; font: 10px 'Arial', 'Liberation Sans', 'DejaVu Sans', 'Bitstream Vera Sans', sans-serif; text-anchor: end" x="222.639142" y="220.279832" transform="rotate(-0 222.639142 220.279832)">newsapi</text>
   </g>
   <g id="text_2">
    <text style="fill: #262626; font: 10px 'Arial', 'Liberation Sans', 'DejaVu Sans', 'Bitstream Vera Sans', sans-serif; text-anchor: middle" x="289.166805" y="220.491698" transform="rotate(-0 289.166805 220.491698)">99.9%</text>
   </g>
   <g id="text_3">
    <text style="fill: #262626; font: 10px 'Arial', 'Liberation Sans', 'DejaVu Sans', 'Bitstream Vera Sans', sans-serif; text-anchor: start" x="515.360843" y="221.216651" transform="rotate(-0 515.360843 221.216651)">chicago_pd</text>
   </g>
   <g id="text_4">
    <text style="fill: #262626; font: 10px 'Arial', 'Liberation Sans', 'DejaVu Sans', 'Bitstream Vera Sans', sans-serif; text-anchor: middle" x="448.833187" y="221.002691" transform="rotate(-0 448.833187 221.002691)">0.1%</text>
   </g>
   <g id="text_5">
    <text style="fill: #262626; font: 10px 'Arial', 'Liberation Sans', 'DejaVu Sans', 'Bitstream Vera Sans', sans-serif; text-anchor: start" x="515.3616" y="220.75054" transform="rotate(-0 515.3616 220.75054)">chicago_police</text>
   </g>
   <g id="text_6">
    <text style="fill: #262626; font: 10px 'Arial', 'Liberation Sans', 'DejaVu Sans', 'Bitstream Vera Sans', sans-serif; text-anchor: middle" x="448.8336" y="220.748448" transform="rotate(-0 448.8336 220.748448)">0.0%</text>
   </g>
   <g id="text_7">
    <text style="fill: #262626; font: 12px 'Arial', 'Liberation Sans', 'DejaVu Sans', 'Bitstream Vera Sans', sans-serif; text-anchor: middle" x="369" y="45.84" transform="rotate(-0 369 45.84)">Incidents by Source</text>
   </g>
  </g>
 </g>
</svg>
