<?xml version="1.0" encoding="utf-8" standalone="no"?>
<!DOCTYPE svg PUBLIC "-//W3C//DTD SVG 1.1//EN"
  "http://www.w3.org/Graphics/SVG/1.1/DTD/svg11.dtd">
<svg xmlns:xlink="http://www.w3.org/1999/xlink" width="720pt" height="432pt" viewBox="0 0 720 432" xmlns="http://www.w3.org/2000/svg" version="1.1">
 <metadata>
  <rdf:RDF xmlns:dc="http://purl.org/dc/elements/1.1/" xmlns:cc="http://creativecommons.org/ns#" xmlns:rdf="http://www.w3.org/1999/02/22-rdf-syntax-ns#">
   <cc:Work>
    <dc:type rdf:resource="http://purl.org/dc/dcmitype/StillImage"/>
    <dc:date>2026-04-24T03:23:18.806451</dc:date>
    <dc:format>image/svg+xml</dc:format>
    <dc:creator>
     <cc:Agent>
      <dc:title>Matplotlib v3.7.5, https://matplotlib.org/</dc:title>
     </cc:Agent>
    </dc:creator>
   </cc:Work>
  </rdf:RDF>
 </metadata>
 <defs>
  <style type="text/css">*{stroke-linejoin: round; stroke-linecap: butt}</style>
 </defs>
 <g id="figure_1">
  <g id="patch_1">
   <path d="M 0 432 
L 720 432 
L 720 0 
L 0 0 
z
" style="fill: #ffffff"/>
  </g>
  <g id="axes_1">
   <g id="matplotlib.axis_1"/>
   <g id="matplotlib.axis_2"/>
   <g id="patch_2">
    <path d="M 502.056 218.16 
C 502.056 200.704912 498.621205 183.41921 491.947795 167.290177 
C 485.274385 151.161145 475.491879 136.501817 463.159012 124.14947 
C 450.826144 111.797124 436.182272 101.991495 420.063792 95.292639 
C 403.945312 88.593784 386.665051 85.131713 369.209985 85.104166 
C 351.754919 85.076619 334.463818 88.48413 318.324274 95.132077 
C 302.18473 101.780024 287.509981 111.539383 275.138187 123.852741 
C 262.766392 136.166099 252.937665 150.794477 246.21338 166.902366 
C 239.489095 183.010254 235.999757 200.285029 235.944663 217.74003 
C 235.889569 235.195031 239.269787 252.491489 245.892255 268.641504 
C 252.514723 284.79152 262.25091 299.481652 274.544728 311.872863 
C 286.838546 324.264075 301.451395 334.115876 317.548651 340.865574 
C 333.645908 347.615272 350.915154 351.131868 368.370046 351.214509 
C 385.824938 351.29715 403.126709 347.944232 419.287156 341.34726 
C 435.447603 334.750288 450.153082 325.037296 462.56368 312.763049 
C 474.974278 300.488802 484.849128 285.891519 491.624222 269.804935 
C 498.399316 253.718351 501.943161 236.454676 502.053349 218.999936 
L 369 218.16 
z
" style="fill: #f77189"/>
   </g>
   <g id="patch_3">
    <path d="M 502.053349 218.999936 
C 502.054224 218.861333 502.054882 218.722729 502.055324 218.584124 
C 502.055766 218.445519 502.055991 218.306914 502.056 218.168309 
L 369 218.16 
z
" style="fill: #bb9832"/>
   </g>
   <g id="patch_4">
    <path d="M 502.056 218.168309 
C 502.056 218.166922 502.056 218.165536 502.056 218.16415 
C 502.056 218.162764 502.056 218.161378 502.056 218.159992 
L 369 218.16 
z
" style="fill: #50b131"/>
   </g>
   <g id="text_1">
    <text style="fill: #262626; font: 10px 'Arial', 'Liberation Sans', 'DejaVu Sans', 'Bitstream Vera Sans', sans-serif; text-anchor: end" x="222.639129" y="220.283971" transform="rotate(-0 222.639129 220.283971)">newsapi</text>
   </g>
   <g id="text_2">
    <text style="fill: #262626; font: 10px 'Arial', 'Liberation Sans', 'DejaVu Sans', 'Bitstream Vera Sans', sans-serif; text-anchor: middle" x="289.166798" y="220.493956" transform="rotate(-0 289.166798 220.493956)">99.9%</text>
   </g>
   <g id="text_3">
    <text style="fill: #262626; font: 10px 'Arial', 'Liberation Sans', 'DejaVu Sans', 'Bitstream Vera Sans', sans-serif; text-anchor: start" x="515.360856" y="221.212474" transform="rotate(-0 515.360856 221.212474)">chicago_pd</text>
   </g>
   <g id="text_4">
    <text style="fill: #262626; font: 10px 'Arial', 'Liberation Sans', 'DejaVu Sans', 'Bitstream Vera Sans', sans-serif; text-anchor: middle" x="448.833194" y="221.000412" transform="rotate(-0 448.833194 221.000412)">0.1%</text>
   </g>
   <g id="text_5">
    <text style="fill: #262626; font: 10px 'Arial', 'Liberation Sans', 'DejaVu Sans', 'Bitstream Vera Sans', sans-serif; text-anchor: start" x="515.3616" y="220.750503" transform="rotate(-0 515.3616 220.750503)">chicago_police</text>
   </g>
   <g id="text_6">
    <text style="fill: #262626; font: 10px 'Arial', 'Liberation Sans', 'DejaVu Sans', 'Bitstream Vera Sans', sans-serif; text-anchor: middle" x="448.8336" y="220.748428" transform="rotate(-0 448.8336 220.748428)">0.0%</text>
   </g>
   <g id="text_7">
    <text style="fill: #262626; font: 12px 'Arial', 'Liberation Sans', 'DejaVu Sans', 'Bitstream Vera Sans', sans-serif; text-anchor: middle" x="369" y="45.84" transform="rotate(-0 369 45.84)">Incidents by Source</text>
   </g>
  </g>
 </g>
</svg>
