<?xml version="1.0" encoding="utf-8" standalone="no"?>
<!DOCTYPE svg PUBLIC "-//W3C//DTD SVG 1.1//EN"
  "http://www.w3.org/Graphics/SVG/1.1/DTD/svg11.dtd">
<svg xmlns:xlink="http://www.w3.org/1999/xlink" width="720pt" height="432pt" viewBox="0 0 720 432" xmlns="http://www.w3.org/2000/svg" version="1.1">
 <metadata>
  <rdf:RDF xmlns:dc="http://purl.org/dc/elements/1.1/" xmlns:cc="http://creativecommons.org/ns#" xmlns:rdf="http://www.w3.org/1999/02/22-rdf-syntax-ns#">
   <cc:Work>
    <dc:type rdf:resource="http://purl.org/dc/dcmitype/StillImage"/>
    <dc:date>2026-07-17T02:06:25.267426</dc:date>
    <dc:format>image/svg+xml</dc:format>
    <dc:creator>
     <cc:Agent>
      <dc:title>Matplotlib v3.7.5, https://matplotlib.org/</dc:title>
     </cc:Agent>
    </dc:creator>
   </cc:Work>
  </rdf:RDF>
 </metadata>
 <defs>
  <style type="text/css">*{stroke-linejoin: round; stroke-linecap: butt}</style>
 </defs>
 <g id="figure_1">
  <g id="patch_1">
   <path d="M 0 432 
L 720 432 
L 720 0 
L 0 0 
z
" style="fill: #ffffff"/>
  </g>
  <g id="axes_1">
   <g id="matplotlib.axis_1"/>
   <g id="matplotlib.axis_2"/>
   <g id="patch_2">
    <path d="M 502.056 218.16 
C 502.056 200.702235 498.620151 183.413932 491.944753 167.282825 
C 485.269354 151.151717 475.484004 136.490975 463.147767 124.138209 
C 450.811529 111.785443 436.163902 101.980471 420.041747 95.28348 
C 403.919592 88.586489 386.635906 85.127494 369.178156 85.104119 
C 351.720406 85.080744 334.427519 88.493442 318.287488 95.147235 
C 302.147457 101.801029 287.473625 111.566741 275.104353 123.886427 
C 262.73508 136.206113 252.910505 150.840599 246.191933 166.953772 
C 239.473361 183.066946 235.991227 200.345985 235.944477 217.803688 
C 235.897727 235.261391 239.287267 252.558832 245.919444 268.707758 
C 252.55162 284.856684 262.297676 299.543578 274.600789 311.929335 
C 286.903903 324.315092 301.52522 334.159254 317.629384 340.899394 
C 333.733547 347.639535 351.007908 351.144801 368.465533 351.214927 
C 385.923157 351.285052 403.225122 347.918675 419.382913 341.308127 
C 435.540705 334.697579 450.240635 324.971197 462.642854 312.684679 
C 475.045073 300.398161 484.908804 285.790037 491.670501 269.694913 
C 498.432199 253.599789 501.960591 236.330136 502.054092 218.872621 
L 369 218.16 
z
" style="fill: #f77189"/>
   </g>
   <g id="patch_3">
    <path d="M 502.054092 218.872621 
C 502.054721 218.755027 502.055195 218.637432 502.055513 218.519836 
C 502.055831 218.402241 502.055994 218.284645 502.056 218.167049 
L 369 218.16 
z
" style="fill: #bb9832"/>
   </g>
   <g id="patch_4">
    <path d="M 502.056 218.167049 
C 502.056 218.165873 502.056 218.164697 502.056 218.163521 
C 502.056 218.162345 502.056 218.161169 502.056 218.159993 
L 369 218.16 
z
" style="fill: #50b131"/>
   </g>
   <g id="text_1">
    <text style="fill: #262626; font: 10px 'Arial', 'Liberation Sans', 'DejaVu Sans', 'Bitstream Vera Sans', sans-serif; text-anchor: end" x="222.638925" y="220.353994" transform="rotate(-0 222.638925 220.353994)">newsapi</text>
   </g>
   <g id="text_2">
    <text style="fill: #262626; font: 10px 'Arial', 'Liberation Sans', 'DejaVu Sans', 'Bitstream Vera Sans', sans-serif; text-anchor: middle" x="289.166686" y="220.53215" transform="rotate(-0 289.166686 220.53215)">99.9%</text>
   </g>
   <g id="text_3">
    <text style="fill: #262626; font: 10px 'Arial', 'Liberation Sans', 'DejaVu Sans', 'Bitstream Vera Sans', sans-serif; text-anchor: start" x="515.361065" y="221.141757" transform="rotate(-0 515.361065 221.141757)">chicago_pd</text>
   </g>
   <g id="text_4">
    <text style="fill: #262626; font: 10px 'Arial', 'Liberation Sans', 'DejaVu Sans', 'Bitstream Vera Sans', sans-serif; text-anchor: middle" x="448.833308" y="220.961839" transform="rotate(-0 448.833308 220.961839)">0.1%</text>
   </g>
   <g id="text_5">
    <text style="fill: #262626; font: 10px 'Arial', 'Liberation Sans', 'DejaVu Sans', 'Bitstream Vera Sans', sans-serif; text-anchor: start" x="515.3616" y="220.749811" transform="rotate(-0 515.3616 220.749811)">chicago_police</text>
   </g>
   <g id="text_6">
    <text style="fill: #262626; font: 10px 'Arial', 'Liberation Sans', 'DejaVu Sans', 'Bitstream Vera Sans', sans-serif; text-anchor: middle" x="448.8336" y="220.74805" transform="rotate(-0 448.8336 220.74805)">0.0%</text>
   </g>
   <g id="text_7">
    <text style="fill: #262626; font: 12px 'Arial', 'Liberation Sans', 'DejaVu Sans', 'Bitstream Vera Sans', sans-serif; text-anchor: middle" x="369" y="45.84" transform="rotate(-0 369 45.84)">Incidents by Source</text>
   </g>
  </g>
 </g>
</svg>
