<?xml version="1.0" encoding="utf-8" standalone="no"?>
<!DOCTYPE svg PUBLIC "-//W3C//DTD SVG 1.1//EN"
  "http://www.w3.org/Graphics/SVG/1.1/DTD/svg11.dtd">
<svg xmlns:xlink="http://www.w3.org/1999/xlink" width="720pt" height="432pt" viewBox="0 0 720 432" xmlns="http://www.w3.org/2000/svg" version="1.1">
 <metadata>
  <rdf:RDF xmlns:dc="http://purl.org/dc/elements/1.1/" xmlns:cc="http://creativecommons.org/ns#" xmlns:rdf="http://www.w3.org/1999/02/22-rdf-syntax-ns#">
   <cc:Work>
    <dc:type rdf:resource="http://purl.org/dc/dcmitype/StillImage"/>
    <dc:date>2025-11-27T12:52:10.148875</dc:date>
    <dc:format>image/svg+xml</dc:format>
    <dc:creator>
     <cc:Agent>
      <dc:title>Matplotlib v3.7.5, https://matplotlib.org/</dc:title>
     </cc:Agent>
    </dc:creator>
   </cc:Work>
  </rdf:RDF>
 </metadata>
 <defs>
  <style type="text/css">*{stroke-linejoin: round; stroke-linecap: butt}</style>
 </defs>
 <g id="figure_1">
  <g id="patch_1">
   <path d="M 0 432 
L 720 432 
L 720 0 
L 0 0 
z
" style="fill: #ffffff"/>
  </g>
  <g id="axes_1">
   <g id="matplotlib.axis_1"/>
   <g id="matplotlib.axis_2"/>
   <g id="patch_2">
    <path d="M 502.056 218.16 
C 502.056 200.711602 498.623837 183.432394 491.955394 167.308547 
C 485.286951 151.1847 475.511549 136.528906 463.187099 124.17761 
C 450.862648 111.826315 436.228158 102.019049 420.118858 95.315539 
C 404.009558 88.61203 386.737858 85.142279 369.289502 85.104315 
C 351.841146 85.066351 334.554511 88.46091 318.416193 95.094255 
C 302.277874 101.7276 287.600846 111.471091 275.222764 123.768638 
C 262.844683 136.066186 253.005598 150.679303 246.267054 166.773979 
C 239.52851 182.868656 236.021188 200.132765 235.94526 217.580997 
C 235.869332 235.02923 239.226271 252.32321 245.824487 268.475922 
C 252.422703 284.628635 262.134236 299.326829 274.404822 311.731638 
C 286.675409 324.136447 301.267083 334.007303 317.34706 340.78085 
C 333.427037 347.554397 350.683473 351.099274 368.1315 351.213165 
C 385.579526 351.327057 402.880768 348.007754 419.047799 341.444699 
C 435.21483 334.881643 449.934119 325.202114 462.365597 312.958546 
C 474.797075 300.714979 484.699657 286.144816 491.508174 270.079615 
C 498.316691 254.014414 501.899106 236.765731 502.050961 219.317994 
L 369 218.16 
z
" style="fill: #f77189"/>
   </g>
   <g id="patch_3">
    <path d="M 502.050961 219.317994 
C 502.052624 219.126908 502.053875 218.935818 502.054715 218.744726 
C 502.055555 218.553634 502.055983 218.362541 502.056 218.171447 
L 369 218.16 
z
" style="fill: #bb9832"/>
   </g>
   <g id="patch_4">
    <path d="M 502.056 218.171447 
C 502.056 218.169536 502.056 218.167625 502.056 218.165714 
C 502.056 218.163803 502.056 218.161892 502.056 218.159981 
L 369 218.16 
z
" style="fill: #50b131"/>
   </g>
   <g id="text_1">
    <text style="fill: #262626; font: 10px 'Arial', 'Liberation Sans', 'DejaVu Sans', 'Bitstream Vera Sans', sans-serif; text-anchor: end" x="222.639786" y="220.109035" transform="rotate(-0 222.639786 220.109035)">newsapi</text>
   </g>
   <g id="text_2">
    <text style="fill: #262626; font: 10px 'Arial', 'Liberation Sans', 'DejaVu Sans', 'Bitstream Vera Sans', sans-serif; text-anchor: middle" x="289.167156" y="220.398536" transform="rotate(-0 289.167156 220.398536)">99.9%</text>
   </g>
   <g id="text_3">
    <text style="fill: #262626; font: 10px 'Arial', 'Liberation Sans', 'DejaVu Sans', 'Bitstream Vera Sans', sans-serif; text-anchor: start" x="515.360187" y="221.389136" transform="rotate(-0 515.360187 221.389136)">chicago_pd</text>
   </g>
   <g id="text_4">
    <text style="fill: #262626; font: 10px 'Arial', 'Liberation Sans', 'DejaVu Sans', 'Bitstream Vera Sans', sans-serif; text-anchor: middle" x="448.832829" y="221.096773" transform="rotate(-0 448.832829 221.096773)">0.1%</text>
   </g>
   <g id="text_5">
    <text style="fill: #262626; font: 10px 'Arial', 'Liberation Sans', 'DejaVu Sans', 'Bitstream Vera Sans', sans-serif; text-anchor: start" x="515.3616" y="220.752223" transform="rotate(-0 515.3616 220.752223)">chicago_police</text>
   </g>
   <g id="text_6">
    <text style="fill: #262626; font: 10px 'Arial', 'Liberation Sans', 'DejaVu Sans', 'Bitstream Vera Sans', sans-serif; text-anchor: middle" x="448.8336" y="220.749366" transform="rotate(-0 448.8336 220.749366)">0.0%</text>
   </g>
   <g id="text_7">
    <text style="fill: #262626; font: 12px 'Arial', 'Liberation Sans', 'DejaVu Sans', 'Bitstream Vera Sans', sans-serif; text-anchor: middle" x="369" y="45.84" transform="rotate(-0 369 45.84)">Incidents by Source</text>
   </g>
  </g>
 </g>
</svg>
