<?xml version="1.0" encoding="utf-8" standalone="no"?>
<!DOCTYPE svg PUBLIC "-//W3C//DTD SVG 1.1//EN"
  "http://www.w3.org/Graphics/SVG/1.1/DTD/svg11.dtd">
<svg xmlns:xlink="http://www.w3.org/1999/xlink" width="720pt" height="432pt" viewBox="0 0 720 432" xmlns="http://www.w3.org/2000/svg" version="1.1">
 <metadata>
  <rdf:RDF xmlns:dc="http://purl.org/dc/elements/1.1/" xmlns:cc="http://creativecommons.org/ns#" xmlns:rdf="http://www.w3.org/1999/02/22-rdf-syntax-ns#">
   <cc:Work>
    <dc:type rdf:resource="http://purl.org/dc/dcmitype/StillImage"/>
    <dc:date>2025-12-02T12:54:27.093046</dc:date>
    <dc:format>image/svg+xml</dc:format>
    <dc:creator>
     <cc:Agent>
      <dc:title>Matplotlib v3.7.5, https://matplotlib.org/</dc:title>
     </cc:Agent>
    </dc:creator>
   </cc:Work>
  </rdf:RDF>
 </metadata>
 <defs>
  <style type="text/css">*{stroke-linejoin: round; stroke-linecap: butt}</style>
 </defs>
 <g id="figure_1">
  <g id="patch_1">
   <path d="M 0 432 
L 720 432 
L 720 0 
L 0 0 
z
" style="fill: #ffffff"/>
  </g>
  <g id="axes_1">
   <g id="matplotlib.axis_1"/>
   <g id="matplotlib.axis_2"/>
   <g id="patch_2">
    <path d="M 502.056 218.16 
C 502.056 200.711317 498.623725 183.431832 491.95507 167.307764 
C 485.286415 151.183696 475.510711 136.527751 463.185902 124.176411 
C 450.861093 111.825071 436.226203 102.017874 420.116511 95.314563 
C 404.00682 88.611252 386.734756 85.141828 369.286114 85.104308 
C 351.837471 85.066787 334.550646 88.461898 318.412275 95.095865 
C 302.273904 101.729833 287.596973 111.473999 275.219158 123.772221 
C 262.841344 136.070442 253.002701 150.68421 246.264764 166.779449 
C 239.526827 182.874689 236.020271 200.139253 235.94523 217.587774 
C 235.87019 235.036296 239.228121 252.330382 245.82737 268.48298 
C 252.426619 284.635579 262.139203 299.33343 274.41078 311.73766 
C 286.682356 324.141891 301.274934 334.011936 317.355647 340.784467 
C 333.436361 347.556999 350.693345 351.100671 368.141665 351.213231 
C 385.589985 351.325792 402.891251 348.005057 419.058003 341.440556 
C 435.224755 334.876055 449.943457 325.195099 462.374047 312.950224 
C 474.804636 300.705349 484.706037 286.134029 491.513132 270.067915 
C 498.320226 254.001802 501.900999 236.752478 502.051078 219.304441 
L 369 218.16 
z
" style="fill: #f77189"/>
   </g>
   <g id="patch_3">
    <path d="M 502.051078 219.304441 
C 502.052702 219.115595 502.053925 218.926745 502.054745 218.737893 
C 502.055565 218.549042 502.055983 218.360189 502.056 218.171336 
L 369 218.16 
z
" style="fill: #bb9832"/>
   </g>
   <g id="patch_4">
    <path d="M 502.056 218.171336 
C 502.056 218.169447 502.056 218.167558 502.056 218.16567 
C 502.056 218.163781 502.056 218.161893 502.056 218.160004 
L 369 218.16 
z
" style="fill: #50b131"/>
   </g>
   <g id="text_1">
    <text style="fill: #262626; font: 10px 'Arial', 'Liberation Sans', 'DejaVu Sans', 'Bitstream Vera Sans', sans-serif; text-anchor: end" x="222.639754" y="220.116489" transform="rotate(-0 222.639754 220.116489)">newsapi</text>
   </g>
   <g id="text_2">
    <text style="fill: #262626; font: 10px 'Arial', 'Liberation Sans', 'DejaVu Sans', 'Bitstream Vera Sans', sans-serif; text-anchor: middle" x="289.167138" y="220.402602" transform="rotate(-0 289.167138 220.402602)">99.9%</text>
   </g>
   <g id="text_3">
    <text style="fill: #262626; font: 10px 'Arial', 'Liberation Sans', 'DejaVu Sans', 'Bitstream Vera Sans', sans-serif; text-anchor: start" x="515.36022" y="221.38162" transform="rotate(-0 515.36022 221.38162)">chicago_pd</text>
   </g>
   <g id="text_4">
    <text style="fill: #262626; font: 10px 'Arial', 'Liberation Sans', 'DejaVu Sans', 'Bitstream Vera Sans', sans-serif; text-anchor: middle" x="448.832847" y="221.092674" transform="rotate(-0 448.832847 221.092674)">0.1%</text>
   </g>
   <g id="text_5">
    <text style="fill: #262626; font: 10px 'Arial', 'Liberation Sans', 'DejaVu Sans', 'Bitstream Vera Sans', sans-serif; text-anchor: start" x="515.3616" y="220.752174" transform="rotate(-0 515.3616 220.752174)">chicago_police</text>
   </g>
   <g id="text_6">
    <text style="fill: #262626; font: 10px 'Arial', 'Liberation Sans', 'DejaVu Sans', 'Bitstream Vera Sans', sans-serif; text-anchor: middle" x="448.8336" y="220.749339" transform="rotate(-0 448.8336 220.749339)">0.0%</text>
   </g>
   <g id="text_7">
    <text style="fill: #262626; font: 12px 'Arial', 'Liberation Sans', 'DejaVu Sans', 'Bitstream Vera Sans', sans-serif; text-anchor: middle" x="369" y="45.84" transform="rotate(-0 369 45.84)">Incidents by Source</text>
   </g>
  </g>
 </g>
</svg>
