<?xml version="1.0" encoding="utf-8" standalone="no"?>
<!DOCTYPE svg PUBLIC "-//W3C//DTD SVG 1.1//EN"
  "http://www.w3.org/Graphics/SVG/1.1/DTD/svg11.dtd">
<svg xmlns:xlink="http://www.w3.org/1999/xlink" width="720pt" height="432pt" viewBox="0 0 720 432" xmlns="http://www.w3.org/2000/svg" version="1.1">
 <metadata>
  <rdf:RDF xmlns:dc="http://purl.org/dc/elements/1.1/" xmlns:cc="http://creativecommons.org/ns#" xmlns:rdf="http://www.w3.org/1999/02/22-rdf-syntax-ns#">
   <cc:Work>
    <dc:type rdf:resource="http://purl.org/dc/dcmitype/StillImage"/>
    <dc:date>2026-02-13T13:11:59.881337</dc:date>
    <dc:format>image/svg+xml</dc:format>
    <dc:creator>
     <cc:Agent>
      <dc:title>Matplotlib v3.7.5, https://matplotlib.org/</dc:title>
     </cc:Agent>
    </dc:creator>
   </cc:Work>
  </rdf:RDF>
 </metadata>
 <defs>
  <style type="text/css">*{stroke-linejoin: round; stroke-linecap: butt}</style>
 </defs>
 <g id="figure_1">
  <g id="patch_1">
   <path d="M 0 432 
L 720 432 
L 720 0 
L 0 0 
z
" style="fill: #ffffff"/>
  </g>
  <g id="axes_1">
   <g id="matplotlib.axis_1"/>
   <g id="matplotlib.axis_2"/>
   <g id="patch_2">
    <path d="M 502.056 218.16 
C 502.056 200.707221 498.622113 183.42376 491.950418 167.296517 
C 485.278723 151.169274 475.498669 136.511166 463.168706 124.159182 
C 450.838744 111.807197 436.19811 102.001003 420.082798 95.30054 
C 403.967486 88.600077 386.69018 85.135355 369.237429 85.104212 
C 351.784678 85.073069 334.495117 88.476109 318.355995 95.119015 
C 302.216873 101.761922 287.541335 111.515804 275.167369 123.823706 
C 262.793402 136.131607 252.961098 150.754719 246.23189 166.858049 
C 239.502681 182.961379 236.007134 200.232475 235.944847 217.685142 
C 235.882561 235.13781 239.254743 252.433416 245.868841 268.584366 
C 252.482938 284.735317 262.210616 299.428236 274.496418 311.824145 
C 286.782219 324.220054 301.387763 334.078437 317.479059 340.83637 
C 333.570356 347.594303 350.835187 351.120664 368.287715 351.214093 
C 385.740244 351.307523 403.04184 347.966209 419.204567 341.380942 
C 435.367294 334.795676 450.077548 325.094231 462.495361 312.830569 
C 474.913174 300.566907 484.797603 285.978978 491.584239 269.899766 
C 498.370876 253.820555 501.928038 236.562044 502.052611 219.10971 
L 369 218.16 
z
" style="fill: #f77189"/>
   </g>
   <g id="patch_3">
    <path d="M 502.052611 219.10971 
C 502.053729 218.952998 502.054571 218.796284 502.055136 218.63957 
C 502.055701 218.482855 502.055989 218.326139 502.056 218.169424 
L 369 218.16 
z
" style="fill: #bb9832"/>
   </g>
   <g id="patch_4">
    <path d="M 502.056 218.169424 
C 502.056 218.167856 502.056 218.166289 502.056 218.164722 
C 502.056 218.163155 502.056 218.161588 502.056 218.160021 
L 369 218.16 
z
" style="fill: #50b131"/>
   </g>
   <g id="text_1">
    <text style="fill: #262626; font: 10px 'Arial', 'Liberation Sans', 'DejaVu Sans', 'Bitstream Vera Sans', sans-serif; text-anchor: end" x="222.639332" y="220.223594" transform="rotate(-0 222.639332 220.223594)">newsapi</text>
   </g>
   <g id="text_2">
    <text style="fill: #262626; font: 10px 'Arial', 'Liberation Sans', 'DejaVu Sans', 'Bitstream Vera Sans', sans-serif; text-anchor: middle" x="289.166908" y="220.461023" transform="rotate(-0 289.166908 220.461023)">99.9%</text>
   </g>
   <g id="text_3">
    <text style="fill: #262626; font: 10px 'Arial', 'Liberation Sans', 'DejaVu Sans', 'Bitstream Vera Sans', sans-serif; text-anchor: start" x="515.360649" y="221.273464" transform="rotate(-0 515.360649 221.273464)">chicago_pd</text>
   </g>
   <g id="text_4">
    <text style="fill: #262626; font: 10px 'Arial', 'Liberation Sans', 'DejaVu Sans', 'Bitstream Vera Sans', sans-serif; text-anchor: middle" x="448.833081" y="221.033679" transform="rotate(-0 448.833081 221.033679)">0.1%</text>
   </g>
   <g id="text_5">
    <text style="fill: #262626; font: 10px 'Arial', 'Liberation Sans', 'DejaVu Sans', 'Bitstream Vera Sans', sans-serif; text-anchor: start" x="515.3616" y="220.751132" transform="rotate(-0 515.3616 220.751132)">chicago_police</text>
   </g>
   <g id="text_6">
    <text style="fill: #262626; font: 10px 'Arial', 'Liberation Sans', 'DejaVu Sans', 'Bitstream Vera Sans', sans-serif; text-anchor: middle" x="448.8336" y="220.748771" transform="rotate(-0 448.8336 220.748771)">0.0%</text>
   </g>
   <g id="text_7">
    <text style="fill: #262626; font: 12px 'Arial', 'Liberation Sans', 'DejaVu Sans', 'Bitstream Vera Sans', sans-serif; text-anchor: middle" x="369" y="45.84" transform="rotate(-0 369 45.84)">Incidents by Source</text>
   </g>
  </g>
 </g>
</svg>
