<?xml version="1.0" encoding="utf-8" standalone="no"?>
<!DOCTYPE svg PUBLIC "-//W3C//DTD SVG 1.1//EN"
  "http://www.w3.org/Graphics/SVG/1.1/DTD/svg11.dtd">
<svg xmlns:xlink="http://www.w3.org/1999/xlink" width="720pt" height="432pt" viewBox="0 0 720 432" xmlns="http://www.w3.org/2000/svg" version="1.1">
 <metadata>
  <rdf:RDF xmlns:dc="http://purl.org/dc/elements/1.1/" xmlns:cc="http://creativecommons.org/ns#" xmlns:rdf="http://www.w3.org/1999/02/22-rdf-syntax-ns#">
   <cc:Work>
    <dc:type rdf:resource="http://purl.org/dc/dcmitype/StillImage"/>
    <dc:date>2026-07-03T19:11:09.800409</dc:date>
    <dc:format>image/svg+xml</dc:format>
    <dc:creator>
     <cc:Agent>
      <dc:title>Matplotlib v3.7.5, https://matplotlib.org/</dc:title>
     </cc:Agent>
    </dc:creator>
   </cc:Work>
  </rdf:RDF>
 </metadata>
 <defs>
  <style type="text/css">*{stroke-linejoin: round; stroke-linecap: butt}</style>
 </defs>
 <g id="figure_1">
  <g id="patch_1">
   <path d="M 0 432 
L 720 432 
L 720 0 
L 0 0 
z
" style="fill: #ffffff"/>
  </g>
  <g id="axes_1">
   <g id="matplotlib.axis_1"/>
   <g id="matplotlib.axis_2"/>
   <g id="patch_2">
    <path d="M 502.056 218.16 
C 502.056 200.702601 498.620295 183.414655 491.945169 167.283832 
C 485.270044 151.153009 475.485083 136.49246 463.149307 124.139752 
C 450.813531 111.787043 436.166419 101.981981 420.044767 95.284734 
C 403.923116 88.587488 386.639898 85.128072 369.182516 85.104125 
C 351.725134 85.080178 334.432491 88.492166 318.292527 95.145158 
C 302.152562 101.798151 287.478605 111.562992 275.108987 123.881812 
C 262.739369 136.200631 252.914224 150.83428 246.194869 166.94673 
C 239.475515 183.059179 235.992394 200.337635 235.944501 217.794968 
C 235.896607 235.252301 239.284871 252.549608 245.915717 268.698683 
C 252.546564 284.847758 262.291268 299.535096 274.593108 311.921601 
C 286.894948 324.308105 301.515106 334.153314 317.618323 340.894764 
C 333.72154 347.636215 350.995202 351.143033 368.452453 351.214873 
C 385.909703 351.286713 403.211642 347.92218 419.369798 341.313492 
C 435.527953 334.704804 450.228645 324.980256 462.632012 312.695419 
C 475.03538 300.410581 484.900634 285.803942 491.664167 269.709987 
C 498.427701 253.616032 501.958211 236.347197 502.053997 218.890062 
L 369 218.16 
z
" style="fill: #f77189"/>
   </g>
   <g id="patch_3">
    <path d="M 502.053997 218.890062 
C 502.054658 218.76959 502.055156 218.649118 502.055489 218.528645 
C 502.055823 218.408172 502.055993 218.287698 502.056 218.167225 
L 369 218.16 
z
" style="fill: #bb9832"/>
   </g>
   <g id="patch_4">
    <path d="M 502.056 218.167225 
C 502.056 218.16602 502.056 218.164815 502.056 218.163611 
C 502.056 218.162406 502.056 218.161201 502.056 218.159997 
L 369 218.16 
z
" style="fill: #50b131"/>
   </g>
   <g id="text_1">
    <text style="fill: #262626; font: 10px 'Arial', 'Liberation Sans', 'DejaVu Sans', 'Bitstream Vera Sans', sans-serif; text-anchor: end" x="222.638951" y="220.344402" transform="rotate(-0 222.638951 220.344402)">newsapi</text>
   </g>
   <g id="text_2">
    <text style="fill: #262626; font: 10px 'Arial', 'Liberation Sans', 'DejaVu Sans', 'Bitstream Vera Sans', sans-serif; text-anchor: middle" x="289.1667" y="220.526918" transform="rotate(-0 289.1667 220.526918)">99.9%</text>
   </g>
   <g id="text_3">
    <text style="fill: #262626; font: 10px 'Arial', 'Liberation Sans', 'DejaVu Sans', 'Bitstream Vera Sans', sans-serif; text-anchor: start" x="515.361038" y="221.151447" transform="rotate(-0 515.361038 221.151447)">chicago_pd</text>
   </g>
   <g id="text_4">
    <text style="fill: #262626; font: 10px 'Arial', 'Liberation Sans', 'DejaVu Sans', 'Bitstream Vera Sans', sans-serif; text-anchor: middle" x="448.833294" y="220.967124" transform="rotate(-0 448.833294 220.967124)">0.1%</text>
   </g>
   <g id="text_5">
    <text style="fill: #262626; font: 10px 'Arial', 'Liberation Sans', 'DejaVu Sans', 'Bitstream Vera Sans', sans-serif; text-anchor: start" x="515.3616" y="220.749909" transform="rotate(-0 515.3616 220.749909)">chicago_police</text>
   </g>
   <g id="text_6">
    <text style="fill: #262626; font: 10px 'Arial', 'Liberation Sans', 'DejaVu Sans', 'Bitstream Vera Sans', sans-serif; text-anchor: middle" x="448.8336" y="220.748104" transform="rotate(-0 448.8336 220.748104)">0.0%</text>
   </g>
   <g id="text_7">
    <text style="fill: #262626; font: 12px 'Arial', 'Liberation Sans', 'DejaVu Sans', 'Bitstream Vera Sans', sans-serif; text-anchor: middle" x="369" y="45.84" transform="rotate(-0 369 45.84)">Incidents by Source</text>
   </g>
  </g>
 </g>
</svg>
