<?xml version="1.0" encoding="utf-8" standalone="no"?>
<!DOCTYPE svg PUBLIC "-//W3C//DTD SVG 1.1//EN"
  "http://www.w3.org/Graphics/SVG/1.1/DTD/svg11.dtd">
<svg xmlns:xlink="http://www.w3.org/1999/xlink" width="720pt" height="432pt" viewBox="0 0 720 432" xmlns="http://www.w3.org/2000/svg" version="1.1">
 <metadata>
  <rdf:RDF xmlns:dc="http://purl.org/dc/elements/1.1/" xmlns:cc="http://creativecommons.org/ns#" xmlns:rdf="http://www.w3.org/1999/02/22-rdf-syntax-ns#">
   <cc:Work>
    <dc:type rdf:resource="http://purl.org/dc/dcmitype/StillImage"/>
    <dc:date>2026-04-29T14:10:53.495532</dc:date>
    <dc:format>image/svg+xml</dc:format>
    <dc:creator>
     <cc:Agent>
      <dc:title>Matplotlib v3.7.5, https://matplotlib.org/</dc:title>
     </cc:Agent>
    </dc:creator>
   </cc:Work>
  </rdf:RDF>
 </metadata>
 <defs>
  <style type="text/css">*{stroke-linejoin: round; stroke-linecap: butt}</style>
 </defs>
 <g id="figure_1">
  <g id="patch_1">
   <path d="M 0 432 
L 720 432 
L 720 0 
L 0 0 
z
" style="fill: #ffffff"/>
  </g>
  <g id="axes_1">
   <g id="matplotlib.axis_1"/>
   <g id="matplotlib.axis_2"/>
   <g id="patch_2">
    <path d="M 502.056 218.16 
C 502.056 200.704687 498.621116 183.418766 491.947539 167.289559 
C 485.273962 151.160352 475.491216 136.500904 463.158065 124.148523 
C 450.824914 111.796141 436.180727 101.990567 420.061937 95.291869 
C 403.943147 88.59317 386.662599 85.131358 369.207307 85.104161 
C 351.752015 85.076965 334.460763 88.484913 318.321178 95.133352 
C 302.181593 101.781791 287.506921 111.541684 275.135339 123.855575 
C 262.763757 136.169466 252.935379 150.798358 246.211574 166.906691 
C 239.48777 183.015025 235.999038 200.290159 235.944646 217.745387 
C 235.890254 235.200615 239.271257 252.497156 245.894542 268.64708 
C 252.517826 284.797004 262.254844 299.486864 274.549444 311.877617 
C 286.844045 324.268369 301.457606 334.119528 317.555444 340.868422 
C 333.653282 347.617316 350.922959 351.132958 368.378081 351.214547 
C 385.833204 351.296135 403.134991 347.942084 419.295215 341.34397 
C 435.455439 334.745856 450.160452 325.031737 462.570345 312.756457 
C 474.980238 300.481177 484.854153 285.882982 491.62812 269.795679 
C 498.402087 253.708375 501.944632 236.444196 502.053416 218.989222 
L 369 218.16 
z
" style="fill: #f77189"/>
   </g>
   <g id="patch_3">
    <path d="M 502.053416 218.989222 
C 502.054269 218.852386 502.054911 218.715549 502.055341 218.578711 
C 502.055772 218.441873 502.055991 218.305035 502.056 218.168196 
L 369 218.16 
z
" style="fill: #bb9832"/>
   </g>
   <g id="patch_4">
    <path d="M 502.056 218.168196 
C 502.056 218.166828 502.056 218.165459 502.056 218.164091 
C 502.056 218.162723 502.056 218.161354 502.056 218.159986 
L 369 218.16 
z
" style="fill: #50b131"/>
   </g>
   <g id="text_1">
    <text style="fill: #262626; font: 10px 'Arial', 'Liberation Sans', 'DejaVu Sans', 'Bitstream Vera Sans', sans-serif; text-anchor: end" x="222.639111" y="220.289863" transform="rotate(-0 222.639111 220.289863)">newsapi</text>
   </g>
   <g id="text_2">
    <text style="fill: #262626; font: 10px 'Arial', 'Liberation Sans', 'DejaVu Sans', 'Bitstream Vera Sans', sans-serif; text-anchor: middle" x="289.166788" y="220.49717" transform="rotate(-0 289.166788 220.49717)">99.9%</text>
   </g>
   <g id="text_3">
    <text style="fill: #262626; font: 10px 'Arial', 'Liberation Sans', 'DejaVu Sans', 'Bitstream Vera Sans', sans-serif; text-anchor: start" x="515.360875" y="221.20652" transform="rotate(-0 515.360875 221.20652)">chicago_pd</text>
   </g>
   <g id="text_4">
    <text style="fill: #262626; font: 10px 'Arial', 'Liberation Sans', 'DejaVu Sans', 'Bitstream Vera Sans', sans-serif; text-anchor: middle" x="448.833205" y="220.997164" transform="rotate(-0 448.833205 220.997164)">0.1%</text>
   </g>
   <g id="text_5">
    <text style="fill: #262626; font: 10px 'Arial', 'Liberation Sans', 'DejaVu Sans', 'Bitstream Vera Sans', sans-serif; text-anchor: start" x="515.3616" y="220.750438" transform="rotate(-0 515.3616 220.750438)">chicago_police</text>
   </g>
   <g id="text_6">
    <text style="fill: #262626; font: 10px 'Arial', 'Liberation Sans', 'DejaVu Sans', 'Bitstream Vera Sans', sans-serif; text-anchor: middle" x="448.8336" y="220.748392" transform="rotate(-0 448.8336 220.748392)">0.0%</text>
   </g>
   <g id="text_7">
    <text style="fill: #262626; font: 12px 'Arial', 'Liberation Sans', 'DejaVu Sans', 'Bitstream Vera Sans', sans-serif; text-anchor: middle" x="369" y="45.84" transform="rotate(-0 369 45.84)">Incidents by Source</text>
   </g>
  </g>
 </g>
</svg>
