<?xml version="1.0" encoding="utf-8" standalone="no"?>
<!DOCTYPE svg PUBLIC "-//W3C//DTD SVG 1.1//EN"
  "http://www.w3.org/Graphics/SVG/1.1/DTD/svg11.dtd">
<svg xmlns:xlink="http://www.w3.org/1999/xlink" width="720pt" height="432pt" viewBox="0 0 720 432" xmlns="http://www.w3.org/2000/svg" version="1.1">
 <metadata>
  <rdf:RDF xmlns:dc="http://purl.org/dc/elements/1.1/" xmlns:cc="http://creativecommons.org/ns#" xmlns:rdf="http://www.w3.org/1999/02/22-rdf-syntax-ns#">
   <cc:Work>
    <dc:type rdf:resource="http://purl.org/dc/dcmitype/StillImage"/>
    <dc:date>2025-01-22T18:17:04.682609</dc:date>
    <dc:format>image/svg+xml</dc:format>
    <dc:creator>
     <cc:Agent>
      <dc:title>Matplotlib v3.7.5, https://matplotlib.org/</dc:title>
     </cc:Agent>
    </dc:creator>
   </cc:Work>
  </rdf:RDF>
 </metadata>
 <defs>
  <style type="text/css">*{stroke-linejoin: round; stroke-linecap: butt}</style>
 </defs>
 <g id="figure_1">
  <g id="patch_1">
   <path d="M 0 432 
L 720 432 
L 720 0 
L 0 0 
z
" style="fill: #ffffff"/>
  </g>
  <g id="axes_1">
   <g id="matplotlib.axis_1"/>
   <g id="matplotlib.axis_2"/>
   <g id="patch_2">
    <path d="M 502.056 218.16 
C 502.056 200.857998 498.681188 183.720955 492.121009 167.710855 
C 485.56083 151.700754 475.940374 137.12288 463.799683 124.795557 
C 451.658991 112.468233 437.229567 102.626522 421.3214 95.822883 
C 405.413233 89.019244 388.329665 85.383411 371.029676 85.119482 
C 353.729686 84.855552 336.543158 87.968557 320.434849 94.28375 
C 304.32654 100.598944 289.603609 109.995905 277.092522 121.947139 
C 264.581436 133.898373 254.520759 148.17599 247.475243 163.978521 
C 240.429728 179.781053 236.533721 196.807171 236.005923 214.101121 
C 235.478124 231.395071 238.328599 248.627087 244.397337 264.829855 
C 250.466074 281.032624 259.637354 295.897186 271.396349 308.589124 
C 283.155345 321.281063 297.277832 331.558365 312.971051 338.844116 
C 328.664269 346.129868 345.628975 350.285144 362.912862 351.076688 
C 380.196749 351.868232 397.470241 349.280951 413.763699 343.460081 
C 430.057157 337.639212 445.05989 328.695748 457.929728 317.131727 
C 470.799565 305.567706 481.291099 291.603635 488.815392 276.023382 
C 496.339685 260.443128 500.753262 243.543782 501.808367 226.27398 
L 369 218.16 
z
" style="fill: #f77189"/>
   </g>
   <g id="patch_3">
    <path d="M 501.808367 226.27398 
C 501.89007 224.93668 501.95157 223.598222 501.992845 222.259064 
C 502.03412 220.919906 502.055166 219.580201 502.055976 218.240407 
L 369 218.16 
z
" style="fill: #bb9832"/>
   </g>
   <g id="patch_4">
    <path d="M 502.055976 218.240407 
C 502.055984 218.227009 502.05599 218.213611 502.055994 218.200214 
C 502.055998 218.186816 502.056 218.173418 502.056 218.160021 
L 369 218.16 
z
" style="fill: #50b131"/>
   </g>
   <g id="text_1">
    <text style="fill: #262626; font: 10px 'Arial', 'Liberation Sans', 'DejaVu Sans', 'Bitstream Vera Sans', sans-serif; text-anchor: end" x="222.706515" y="216.28117" transform="rotate(-0 222.706515 216.28117)">newsapi</text>
   </g>
   <g id="text_2">
    <text style="fill: #262626; font: 10px 'Arial', 'Liberation Sans', 'DejaVu Sans', 'Bitstream Vera Sans', sans-serif; text-anchor: middle" x="289.203554" y="218.31061" transform="rotate(-0 289.203554 218.31061)">99.0%</text>
   </g>
   <g id="text_3">
    <text style="fill: #262626; font: 10px 'Arial', 'Liberation Sans', 'DejaVu Sans', 'Bitstream Vera Sans', sans-serif; text-anchor: start" x="515.292129" y="225.254907" transform="rotate(-0 515.292129 225.254907)">chicago_pd</text>
   </g>
   <g id="text_4">
    <text style="fill: #262626; font: 10px 'Arial', 'Liberation Sans', 'DejaVu Sans', 'Bitstream Vera Sans', sans-serif; text-anchor: middle" x="448.795707" y="223.205376" transform="rotate(-0 448.795707 223.205376)">1.0%</text>
   </g>
   <g id="text_5">
    <text style="fill: #262626; font: 10px 'Arial', 'Liberation Sans', 'DejaVu Sans', 'Bitstream Vera Sans', sans-serif; text-anchor: start" x="515.361593" y="220.790173" transform="rotate(-0 515.361593 220.790173)">chicago_police</text>
   </g>
   <g id="text_6">
    <text style="fill: #262626; font: 10px 'Arial', 'Liberation Sans', 'DejaVu Sans', 'Bitstream Vera Sans', sans-serif; text-anchor: middle" x="448.833596" y="220.770066" transform="rotate(-0 448.833596 220.770066)">0.0%</text>
   </g>
   <g id="text_7">
    <text style="fill: #262626; font: 12px 'Arial', 'Liberation Sans', 'DejaVu Sans', 'Bitstream Vera Sans', sans-serif; text-anchor: middle" x="369" y="45.84" transform="rotate(-0 369 45.84)">Incidents by Source</text>
   </g>
  </g>
 </g>
</svg>
