<?xml version="1.0" encoding="utf-8" standalone="no"?>
<!DOCTYPE svg PUBLIC "-//W3C//DTD SVG 1.1//EN"
  "http://www.w3.org/Graphics/SVG/1.1/DTD/svg11.dtd">
<svg xmlns:xlink="http://www.w3.org/1999/xlink" width="720pt" height="432pt" viewBox="0 0 720 432" xmlns="http://www.w3.org/2000/svg" version="1.1">
 <metadata>
  <rdf:RDF xmlns:dc="http://purl.org/dc/elements/1.1/" xmlns:cc="http://creativecommons.org/ns#" xmlns:rdf="http://www.w3.org/1999/02/22-rdf-syntax-ns#">
   <cc:Work>
    <dc:type rdf:resource="http://purl.org/dc/dcmitype/StillImage"/>
    <dc:date>2025-05-10T12:40:37.986889</dc:date>
    <dc:format>image/svg+xml</dc:format>
    <dc:creator>
     <cc:Agent>
      <dc:title>Matplotlib v3.7.5, https://matplotlib.org/</dc:title>
     </cc:Agent>
    </dc:creator>
   </cc:Work>
  </rdf:RDF>
 </metadata>
 <defs>
  <style type="text/css">*{stroke-linejoin: round; stroke-linecap: butt}</style>
 </defs>
 <g id="figure_1">
  <g id="patch_1">
   <path d="M 0 432 
L 720 432 
L 720 0 
L 0 0 
z
" style="fill: #ffffff"/>
  </g>
  <g id="axes_1">
   <g id="matplotlib.axis_1"/>
   <g id="matplotlib.axis_2"/>
   <g id="patch_2">
    <path d="M 502.056 218.16 
C 502.056 200.743712 498.636458 183.49568 491.99183 167.396736 
C 485.347201 151.297791 475.605873 136.658994 463.321798 124.312796 
C 451.037722 111.966599 436.448249 102.151552 420.383027 95.425801 
C 404.317805 88.700049 387.087242 85.193546 369.671175 85.105693 
C 352.255109 85.01784 334.990047 88.350334 318.85779 94.91367 
C 302.725533 101.477005 288.037783 111.144367 275.629779 123.366008 
C 263.221774 135.587649 253.333258 150.127427 246.526554 166.158518 
C 239.71985 182.189608 236.126475 199.402265 235.950771 216.817666 
C 235.775067 234.233068 239.020429 251.51472 245.502305 267.67988 
C 251.984181 283.845039 261.57733 298.581367 273.736226 311.050863 
C 285.895122 323.52036 300.384834 333.482093 316.381385 340.369576 
C 332.377937 347.257059 349.572248 350.937215 366.986542 351.200765 
C 384.400836 351.464315 401.698639 348.306169 417.896289 341.905917 
C 434.093939 335.505666 448.878471 325.986973 461.409142 313.891132 
C 473.939813 301.795291 483.97451 287.356013 490.942597 271.394408 
C 497.910684 255.432802 501.677526 238.257274 502.028916 220.844531 
L 369 218.16 
z
" style="fill: #f77189"/>
   </g>
   <g id="patch_3">
    <path d="M 502.028916 220.844531 
C 502.037854 220.401595 502.04458 219.958616 502.049094 219.515613 
C 502.053608 219.07261 502.055909 218.629587 502.055997 218.18656 
L 369 218.16 
z
" style="fill: #bb9832"/>
   </g>
   <g id="patch_4">
    <path d="M 502.055997 218.18656 
C 502.055998 218.18213 502.055999 218.1777 502.055999 218.17327 
C 502.056 218.168839 502.056 218.164409 502.056 218.159979 
L 369 218.16 
z
" style="fill: #50b131"/>
   </g>
   <g id="text_1">
    <text style="fill: #262626; font: 10px 'Arial', 'Liberation Sans', 'DejaVu Sans', 'Bitstream Vera Sans', sans-serif; text-anchor: end" x="222.645848" y="219.26937" transform="rotate(-0 222.645848 219.26937)">newsapi</text>
   </g>
   <g id="text_2">
    <text style="fill: #262626; font: 10px 'Arial', 'Liberation Sans', 'DejaVu Sans', 'Bitstream Vera Sans', sans-serif; text-anchor: middle" x="289.170463" y="219.940537" transform="rotate(-0 289.170463 219.940537)">99.7%</text>
   </g>
   <g id="text_3">
    <text style="fill: #262626; font: 10px 'Arial', 'Liberation Sans', 'DejaVu Sans', 'Bitstream Vera Sans', sans-serif; text-anchor: start" x="515.354004" y="222.237112" transform="rotate(-0 515.354004 222.237112)">chicago_pd</text>
   </g>
   <g id="text_4">
    <text style="fill: #262626; font: 10px 'Arial', 'Liberation Sans', 'DejaVu Sans', 'Bitstream Vera Sans', sans-serif; text-anchor: middle" x="448.829456" y="221.559305" transform="rotate(-0 448.829456 221.559305)">0.3%</text>
   </g>
   <g id="text_5">
    <text style="fill: #262626; font: 10px 'Arial', 'Liberation Sans', 'DejaVu Sans', 'Bitstream Vera Sans', sans-serif; text-anchor: start" x="515.361599" y="220.760534" transform="rotate(-0 515.361599 220.760534)">chicago_police</text>
   </g>
   <g id="text_6">
    <text style="fill: #262626; font: 10px 'Arial', 'Liberation Sans', 'DejaVu Sans', 'Bitstream Vera Sans', sans-serif; text-anchor: middle" x="448.8336" y="220.753899" transform="rotate(-0 448.8336 220.753899)">0.0%</text>
   </g>
   <g id="text_7">
    <text style="fill: #262626; font: 12px 'Arial', 'Liberation Sans', 'DejaVu Sans', 'Bitstream Vera Sans', sans-serif; text-anchor: middle" x="369" y="45.84" transform="rotate(-0 369 45.84)">Incidents by Source</text>
   </g>
  </g>
 </g>
</svg>
