<?xml version="1.0" encoding="utf-8" standalone="no"?>
<!DOCTYPE svg PUBLIC "-//W3C//DTD SVG 1.1//EN"
  "http://www.w3.org/Graphics/SVG/1.1/DTD/svg11.dtd">
<svg xmlns:xlink="http://www.w3.org/1999/xlink" width="720pt" height="432pt" viewBox="0 0 720 432" xmlns="http://www.w3.org/2000/svg" version="1.1">
 <metadata>
  <rdf:RDF xmlns:dc="http://purl.org/dc/elements/1.1/" xmlns:cc="http://creativecommons.org/ns#" xmlns:rdf="http://www.w3.org/1999/02/22-rdf-syntax-ns#">
   <cc:Work>
    <dc:type rdf:resource="http://purl.org/dc/dcmitype/StillImage"/>
    <dc:date>2026-06-19T19:42:13.670487</dc:date>
    <dc:format>image/svg+xml</dc:format>
    <dc:creator>
     <cc:Agent>
      <dc:title>Matplotlib v3.7.5, https://matplotlib.org/</dc:title>
     </cc:Agent>
    </dc:creator>
   </cc:Work>
  </rdf:RDF>
 </metadata>
 <defs>
  <style type="text/css">*{stroke-linejoin: round; stroke-linecap: butt}</style>
 </defs>
 <g id="figure_1">
  <g id="patch_1">
   <path d="M 0 432 
L 720 432 
L 720 0 
L 0 0 
z
" style="fill: #ffffff"/>
  </g>
  <g id="axes_1">
   <g id="matplotlib.axis_1"/>
   <g id="matplotlib.axis_2"/>
   <g id="patch_2">
    <path d="M 502.056 218.16 
C 502.056 200.703003 498.620453 183.415446 491.945625 167.284934 
C 485.270798 151.154422 475.486263 136.494085 463.150993 124.14144 
C 450.815722 111.788794 436.169173 101.983633 420.048072 95.286107 
C 403.926971 88.588581 386.644267 85.128704 369.187288 85.104132 
C 351.730308 85.07956 334.437932 88.490769 318.298041 95.142885 
C 302.158149 101.795001 287.484054 111.558891 275.114058 123.876761 
C 262.744062 136.194632 252.918295 150.827366 246.198083 166.939023 
C 239.477872 183.050681 235.993672 200.328497 235.944527 217.785425 
C 235.895383 235.242353 239.282249 252.539513 245.91164 268.688752 
C 252.541031 284.837991 262.284256 299.525815 274.584703 311.913137 
C 286.885149 324.30046 301.504038 334.146814 317.60622 340.889697 
C 333.708402 347.63258 350.981297 351.141097 368.438139 351.214814 
C 385.89498 351.28853 403.19689 347.926015 419.355445 341.319362 
C 435.513999 334.712708 450.215523 324.990168 462.620147 312.707169 
C 475.024771 300.424171 484.891693 285.819156 491.657234 269.726481 
C 498.422776 253.633806 501.955603 236.365867 502.053891 218.909146 
L 369 218.16 
z
" style="fill: #f77189"/>
   </g>
   <g id="patch_3">
    <path d="M 502.053891 218.909146 
C 502.054587 218.785527 502.055111 218.661907 502.055462 218.538286 
C 502.055814 218.414666 502.055993 218.291044 502.056 218.167423 
L 369 218.16 
z
" style="fill: #bb9832"/>
   </g>
   <g id="patch_4">
    <path d="M 502.056 218.167423 
C 502.056 218.166187 502.056 218.164951 502.056 218.163715 
C 502.056 218.162478 502.056 218.161242 502.056 218.160006 
L 369 218.16 
z
" style="fill: #50b131"/>
   </g>
   <g id="text_1">
    <text style="fill: #262626; font: 10px 'Arial', 'Liberation Sans', 'DejaVu Sans', 'Bitstream Vera Sans', sans-serif; text-anchor: end" x="222.63898" y="220.333905" transform="rotate(-0 222.63898 220.333905)">newsapi</text>
   </g>
   <g id="text_2">
    <text style="fill: #262626; font: 10px 'Arial', 'Liberation Sans', 'DejaVu Sans', 'Bitstream Vera Sans', sans-serif; text-anchor: middle" x="289.166716" y="220.521193" transform="rotate(-0 289.166716 220.521193)">99.9%</text>
   </g>
   <g id="text_3">
    <text style="fill: #262626; font: 10px 'Arial', 'Liberation Sans', 'DejaVu Sans', 'Bitstream Vera Sans', sans-serif; text-anchor: start" x="515.361008" y="221.162052" transform="rotate(-0 515.361008 221.162052)">chicago_pd</text>
   </g>
   <g id="text_4">
    <text style="fill: #262626; font: 10px 'Arial', 'Liberation Sans', 'DejaVu Sans', 'Bitstream Vera Sans', sans-serif; text-anchor: middle" x="448.833277" y="220.972909" transform="rotate(-0 448.833277 220.972909)">0.1%</text>
   </g>
   <g id="text_5">
    <text style="fill: #262626; font: 10px 'Arial', 'Liberation Sans', 'DejaVu Sans', 'Bitstream Vera Sans', sans-serif; text-anchor: start" x="515.3616" y="220.750023" transform="rotate(-0 515.3616 220.750023)">chicago_police</text>
   </g>
   <g id="text_6">
    <text style="fill: #262626; font: 10px 'Arial', 'Liberation Sans', 'DejaVu Sans', 'Bitstream Vera Sans', sans-serif; text-anchor: middle" x="448.8336" y="220.748166" transform="rotate(-0 448.8336 220.748166)">0.0%</text>
   </g>
   <g id="text_7">
    <text style="fill: #262626; font: 12px 'Arial', 'Liberation Sans', 'DejaVu Sans', 'Bitstream Vera Sans', sans-serif; text-anchor: middle" x="369" y="45.84" transform="rotate(-0 369 45.84)">Incidents by Source</text>
   </g>
  </g>
 </g>
</svg>
