<?xml version="1.0" encoding="utf-8" standalone="no"?>
<!DOCTYPE svg PUBLIC "-//W3C//DTD SVG 1.1//EN"
  "http://www.w3.org/Graphics/SVG/1.1/DTD/svg11.dtd">
<svg xmlns:xlink="http://www.w3.org/1999/xlink" width="720pt" height="432pt" viewBox="0 0 720 432" xmlns="http://www.w3.org/2000/svg" version="1.1">
 <metadata>
  <rdf:RDF xmlns:dc="http://purl.org/dc/elements/1.1/" xmlns:cc="http://creativecommons.org/ns#" xmlns:rdf="http://www.w3.org/1999/02/22-rdf-syntax-ns#">
   <cc:Work>
    <dc:type rdf:resource="http://purl.org/dc/dcmitype/StillImage"/>
    <dc:date>2025-07-28T06:25:18.826811</dc:date>
    <dc:format>image/svg+xml</dc:format>
    <dc:creator>
     <cc:Agent>
      <dc:title>Matplotlib v3.7.5, https://matplotlib.org/</dc:title>
     </cc:Agent>
    </dc:creator>
   </cc:Work>
  </rdf:RDF>
 </metadata>
 <defs>
  <style type="text/css">*{stroke-linejoin: round; stroke-linecap: butt}</style>
 </defs>
 <g id="figure_1">
  <g id="patch_1">
   <path d="M 0 432 
L 720 432 
L 720 0 
L 0 0 
z
" style="fill: #ffffff"/>
  </g>
  <g id="axes_1">
   <g id="matplotlib.axis_1"/>
   <g id="matplotlib.axis_2"/>
   <g id="patch_2">
    <path d="M 502.056 218.16 
C 502.056 200.724867 498.629054 183.458538 491.970454 167.344976 
C 485.311854 151.231413 475.550534 136.582634 463.242768 124.233434 
C 450.935002 111.884234 436.319112 102.073738 420.228019 95.361021 
C 404.136926 88.648304 386.882211 85.163348 369.447177 85.104751 
C 352.012143 85.046155 334.734394 88.415053 318.598544 95.019461 
C 302.462695 101.623868 287.781192 111.3359 275.390698 123.602094 
C 263.000203 135.868287 253.140641 150.451123 246.373883 166.519565 
C 239.607124 182.588007 236.064198 199.830912 235.947006 217.265651 
C 235.829814 234.700389 239.140625 251.989363 245.690766 268.147318 
C 252.240907 284.305273 261.903542 299.019333 274.128024 311.450982 
C 286.352505 323.882631 300.902123 333.791147 316.947733 340.611871 
C 332.993342 347.432594 350.224242 351.033451 367.658489 351.209237 
C 385.092735 351.385023 402.392738 348.132336 418.572615 341.636536 
C 434.752493 335.140736 449.498944 325.527607 461.971607 313.344975 
C 474.44427 301.162342 484.401629 286.646108 491.276241 270.623512 
C 498.150852 254.600916 501.809598 237.382216 502.043977 219.948658 
L 369 218.16 
z
" style="fill: #f77189"/>
   </g>
   <g id="patch_3">
    <path d="M 502.043977 219.948658 
C 502.047945 219.653519 502.050931 219.358367 502.052934 219.063208 
C 502.054938 218.768049 502.05596 218.472884 502.055999 218.177718 
L 369 218.16 
z
" style="fill: #bb9832"/>
   </g>
   <g id="patch_4">
    <path d="M 502.055999 218.177718 
C 502.055999 218.174767 502.056 218.171815 502.056 218.168863 
C 502.056 218.165912 502.056 218.16296 502.056 218.160008 
L 369 218.16 
z
" style="fill: #50b131"/>
   </g>
   <g id="text_1">
    <text style="fill: #262626; font: 10px 'Arial', 'Liberation Sans', 'DejaVu Sans', 'Bitstream Vera Sans', sans-serif; text-anchor: end" x="222.641706" y="219.762153" transform="rotate(-0 222.641706 219.762153)">newsapi</text>
   </g>
   <g id="text_2">
    <text style="fill: #262626; font: 10px 'Arial', 'Liberation Sans', 'DejaVu Sans', 'Bitstream Vera Sans', sans-serif; text-anchor: middle" x="289.168203" y="220.209328" transform="rotate(-0 289.168203 220.209328)">99.8%</text>
   </g>
   <g id="text_3">
    <text style="fill: #262626; font: 10px 'Arial', 'Liberation Sans', 'DejaVu Sans', 'Bitstream Vera Sans', sans-serif; text-anchor: start" x="515.358228" y="221.739467" transform="rotate(-0 515.358228 221.739467)">chicago_pd</text>
   </g>
   <g id="text_4">
    <text style="fill: #262626; font: 10px 'Arial', 'Liberation Sans', 'DejaVu Sans', 'Bitstream Vera Sans', sans-serif; text-anchor: middle" x="448.831761" y="221.287862" transform="rotate(-0 448.831761 221.287862)">0.2%</text>
   </g>
   <g id="text_5">
    <text style="fill: #262626; font: 10px 'Arial', 'Liberation Sans', 'DejaVu Sans', 'Bitstream Vera Sans', sans-serif; text-anchor: start" x="515.3616" y="220.755687" transform="rotate(-0 515.3616 220.755687)">chicago_police</text>
   </g>
   <g id="text_6">
    <text style="fill: #262626; font: 10px 'Arial', 'Liberation Sans', 'DejaVu Sans', 'Bitstream Vera Sans', sans-serif; text-anchor: middle" x="448.8336" y="220.751255" transform="rotate(-0 448.8336 220.751255)">0.0%</text>
   </g>
   <g id="text_7">
    <text style="fill: #262626; font: 12px 'Arial', 'Liberation Sans', 'DejaVu Sans', 'Bitstream Vera Sans', sans-serif; text-anchor: middle" x="369" y="45.84" transform="rotate(-0 369 45.84)">Incidents by Source</text>
   </g>
  </g>
 </g>
</svg>
