<?xml version="1.0" encoding="utf-8" standalone="no"?>
<!DOCTYPE svg PUBLIC "-//W3C//DTD SVG 1.1//EN"
  "http://www.w3.org/Graphics/SVG/1.1/DTD/svg11.dtd">
<svg xmlns:xlink="http://www.w3.org/1999/xlink" width="720pt" height="432pt" viewBox="0 0 720 432" xmlns="http://www.w3.org/2000/svg" version="1.1">
 <metadata>
  <rdf:RDF xmlns:dc="http://purl.org/dc/elements/1.1/" xmlns:cc="http://creativecommons.org/ns#" xmlns:rdf="http://www.w3.org/1999/02/22-rdf-syntax-ns#">
   <cc:Work>
    <dc:type rdf:resource="http://purl.org/dc/dcmitype/StillImage"/>
    <dc:date>2026-07-02T19:16:55.918650</dc:date>
    <dc:format>image/svg+xml</dc:format>
    <dc:creator>
     <cc:Agent>
      <dc:title>Matplotlib v3.7.5, https://matplotlib.org/</dc:title>
     </cc:Agent>
    </dc:creator>
   </cc:Work>
  </rdf:RDF>
 </metadata>
 <defs>
  <style type="text/css">*{stroke-linejoin: round; stroke-linecap: butt}</style>
 </defs>
 <g id="figure_1">
  <g id="patch_1">
   <path d="M 0 432 
L 720 432 
L 720 0 
L 0 0 
z
" style="fill: #ffffff"/>
  </g>
  <g id="axes_1">
   <g id="matplotlib.axis_1"/>
   <g id="matplotlib.axis_2"/>
   <g id="patch_2">
    <path d="M 502.056 218.16 
C 502.056 200.702636 498.620309 183.414723 491.945209 167.283927 
C 485.270109 151.153131 475.485184 136.4926 463.149452 124.139897 
C 450.81372 111.787194 436.166656 101.982123 420.045052 95.284853 
C 403.923448 88.587582 386.640275 85.128126 369.182927 85.104126 
C 351.72558 85.080125 334.43296 88.492045 318.293002 95.144962 
C 302.153044 101.797879 287.479075 111.562639 275.109424 123.881376 
C 262.739773 136.200114 252.914575 150.833684 246.195146 166.946066 
C 239.475718 183.058447 235.992504 200.336848 235.944503 217.794146 
C 235.896502 235.251444 239.284645 252.548738 245.915366 268.697827 
C 252.546087 284.846917 262.290663 299.534297 274.592383 311.920872 
C 286.894103 324.307447 301.514152 334.152754 317.61728 340.894328 
C 333.720408 347.635902 350.994004 351.142867 368.451219 351.214868 
C 385.908435 351.28687 403.210371 347.922511 419.368561 341.313998 
C 435.526751 334.705485 450.227514 324.98111 462.63099 312.696431 
C 475.034466 300.411752 484.899864 285.805253 491.66357 269.711408 
C 498.427276 253.617564 501.957986 236.348806 502.053988 218.891706 
L 369 218.16 
z
" style="fill: #f77189"/>
   </g>
   <g id="patch_3">
    <path d="M 502.053988 218.891706 
C 502.054652 218.770964 502.055152 218.650221 502.055487 218.529478 
C 502.055822 218.408735 502.055993 218.287991 502.056 218.167247 
L 369 218.16 
z
" style="fill: #bb9832"/>
   </g>
   <g id="patch_4">
    <path d="M 502.056 218.167247 
C 502.056 218.16604 502.056 218.164832 502.056 218.163625 
C 502.056 218.162417 502.056 218.16121 502.056 218.160002 
L 369 218.16 
z
" style="fill: #50b131"/>
   </g>
   <g id="text_1">
    <text style="fill: #262626; font: 10px 'Arial', 'Liberation Sans', 'DejaVu Sans', 'Bitstream Vera Sans', sans-serif; text-anchor: end" x="222.638953" y="220.343498" transform="rotate(-0 222.638953 220.343498)">newsapi</text>
   </g>
   <g id="text_2">
    <text style="fill: #262626; font: 10px 'Arial', 'Liberation Sans', 'DejaVu Sans', 'Bitstream Vera Sans', sans-serif; text-anchor: middle" x="289.166702" y="220.526425" transform="rotate(-0 289.166702 220.526425)">99.9%</text>
   </g>
   <g id="text_3">
    <text style="fill: #262626; font: 10px 'Arial', 'Liberation Sans', 'DejaVu Sans', 'Bitstream Vera Sans', sans-serif; text-anchor: start" x="515.361036" y="221.152363" transform="rotate(-0 515.361036 221.152363)">chicago_pd</text>
   </g>
   <g id="text_4">
    <text style="fill: #262626; font: 10px 'Arial', 'Liberation Sans', 'DejaVu Sans', 'Bitstream Vera Sans', sans-serif; text-anchor: middle" x="448.833292" y="220.967624" transform="rotate(-0 448.833292 220.967624)">0.1%</text>
   </g>
   <g id="text_5">
    <text style="fill: #262626; font: 10px 'Arial', 'Liberation Sans', 'DejaVu Sans', 'Bitstream Vera Sans', sans-serif; text-anchor: start" x="515.3616" y="220.749925" transform="rotate(-0 515.3616 220.749925)">chicago_police</text>
   </g>
   <g id="text_6">
    <text style="fill: #262626; font: 10px 'Arial', 'Liberation Sans', 'DejaVu Sans', 'Bitstream Vera Sans', sans-serif; text-anchor: middle" x="448.8336" y="220.748112" transform="rotate(-0 448.8336 220.748112)">0.0%</text>
   </g>
   <g id="text_7">
    <text style="fill: #262626; font: 12px 'Arial', 'Liberation Sans', 'DejaVu Sans', 'Bitstream Vera Sans', sans-serif; text-anchor: middle" x="369" y="45.84" transform="rotate(-0 369 45.84)">Incidents by Source</text>
   </g>
  </g>
 </g>
</svg>
