<?xml version="1.0" encoding="utf-8" standalone="no"?>
<!DOCTYPE svg PUBLIC "-//W3C//DTD SVG 1.1//EN"
  "http://www.w3.org/Graphics/SVG/1.1/DTD/svg11.dtd">
<svg xmlns:xlink="http://www.w3.org/1999/xlink" width="720pt" height="432pt" viewBox="0 0 720 432" xmlns="http://www.w3.org/2000/svg" version="1.1">
 <metadata>
  <rdf:RDF xmlns:dc="http://purl.org/dc/elements/1.1/" xmlns:cc="http://creativecommons.org/ns#" xmlns:rdf="http://www.w3.org/1999/02/22-rdf-syntax-ns#">
   <cc:Work>
    <dc:type rdf:resource="http://purl.org/dc/dcmitype/StillImage"/>
    <dc:date>2026-04-10T01:59:45.029047</dc:date>
    <dc:format>image/svg+xml</dc:format>
    <dc:creator>
     <cc:Agent>
      <dc:title>Matplotlib v3.7.5, https://matplotlib.org/</dc:title>
     </cc:Agent>
    </dc:creator>
   </cc:Work>
  </rdf:RDF>
 </metadata>
 <defs>
  <style type="text/css">*{stroke-linejoin: round; stroke-linecap: butt}</style>
 </defs>
 <g id="figure_1">
  <g id="patch_1">
   <path d="M 0 432 
L 720 432 
L 720 0 
L 0 0 
z
" style="fill: #ffffff"/>
  </g>
  <g id="axes_1">
   <g id="matplotlib.axis_1"/>
   <g id="matplotlib.axis_2"/>
   <g id="patch_2">
    <path d="M 502.056 218.16 
C 502.056 200.705345 498.621375 183.420063 491.948287 167.291366 
C 485.275198 151.162669 475.493152 136.503569 463.160829 124.151291 
C 450.828506 111.799012 436.185242 101.993278 420.067355 95.29412 
C 403.949469 88.594963 386.669762 85.132395 369.21513 85.104174 
C 351.760498 85.075953 334.469685 88.482625 318.33022 95.129628 
C 302.190755 101.77663 287.515858 111.534962 275.143657 123.847297 
C 262.771455 136.159632 252.942057 150.787023 246.216849 166.894057 
C 239.49164 183.001091 236.001138 200.275177 235.944696 217.72974 
C 235.888253 235.184304 239.266965 252.480602 245.887863 268.630793 
C 252.508762 284.780984 262.243354 299.471639 274.535669 311.863732 
C 286.827985 324.255825 301.439464 334.10886 317.535603 340.860102 
C 333.631743 347.611344 350.900162 351.129771 368.354612 351.214435 
C 385.809061 351.299099 403.1108 347.948356 419.271675 341.353579 
C 435.43255 334.758801 450.138925 325.047974 462.550876 312.775711 
C 474.962827 300.503448 484.839474 285.907918 491.616732 269.822716 
C 498.39399 253.737513 501.940333 236.474805 502.053217 219.020515 
L 369 218.16 
z
" style="fill: #f77189"/>
   </g>
   <g id="patch_3">
    <path d="M 502.053217 219.020515 
C 502.054136 218.878518 502.054827 218.73652 502.05529 218.594521 
C 502.055754 218.452522 502.055991 218.310522 502.056 218.168522 
L 369 218.16 
z
" style="fill: #bb9832"/>
   </g>
   <g id="patch_4">
    <path d="M 502.056 218.168522 
C 502.056 218.167102 502.056 218.165682 502.056 218.164262 
C 502.056 218.162842 502.056 218.161422 502.056 218.160002 
L 369 218.16 
z
" style="fill: #50b131"/>
   </g>
   <g id="text_1">
    <text style="fill: #262626; font: 10px 'Arial', 'Liberation Sans', 'DejaVu Sans', 'Bitstream Vera Sans', sans-serif; text-anchor: end" x="222.639165" y="220.272652" transform="rotate(-0 222.639165 220.272652)">newsapi</text>
   </g>
   <g id="text_2">
    <text style="fill: #262626; font: 10px 'Arial', 'Liberation Sans', 'DejaVu Sans', 'Bitstream Vera Sans', sans-serif; text-anchor: middle" x="289.166817" y="220.487782" transform="rotate(-0 289.166817 220.487782)">99.9%</text>
   </g>
   <g id="text_3">
    <text style="fill: #262626; font: 10px 'Arial', 'Liberation Sans', 'DejaVu Sans', 'Bitstream Vera Sans', sans-serif; text-anchor: start" x="515.36082" y="221.223911" transform="rotate(-0 515.36082 221.223911)">chicago_pd</text>
   </g>
   <g id="text_4">
    <text style="fill: #262626; font: 10px 'Arial', 'Liberation Sans', 'DejaVu Sans', 'Bitstream Vera Sans', sans-serif; text-anchor: middle" x="448.833174" y="221.00665" transform="rotate(-0 448.833174 221.00665)">0.1%</text>
   </g>
   <g id="text_5">
    <text style="fill: #262626; font: 10px 'Arial', 'Liberation Sans', 'DejaVu Sans', 'Bitstream Vera Sans', sans-serif; text-anchor: start" x="515.3616" y="220.750626" transform="rotate(-0 515.3616 220.750626)">chicago_police</text>
   </g>
   <g id="text_6">
    <text style="fill: #262626; font: 10px 'Arial', 'Liberation Sans', 'DejaVu Sans', 'Bitstream Vera Sans', sans-serif; text-anchor: middle" x="448.8336" y="220.748495" transform="rotate(-0 448.8336 220.748495)">0.0%</text>
   </g>
   <g id="text_7">
    <text style="fill: #262626; font: 12px 'Arial', 'Liberation Sans', 'DejaVu Sans', 'Bitstream Vera Sans', sans-serif; text-anchor: middle" x="369" y="45.84" transform="rotate(-0 369 45.84)">Incidents by Source</text>
   </g>
  </g>
 </g>
</svg>
