<?xml version="1.0" encoding="utf-8" standalone="no"?>
<!DOCTYPE svg PUBLIC "-//W3C//DTD SVG 1.1//EN"
  "http://www.w3.org/Graphics/SVG/1.1/DTD/svg11.dtd">
<svg xmlns:xlink="http://www.w3.org/1999/xlink" width="720pt" height="432pt" viewBox="0 0 720 432" xmlns="http://www.w3.org/2000/svg" version="1.1">
 <metadata>
  <rdf:RDF xmlns:dc="http://purl.org/dc/elements/1.1/" xmlns:cc="http://creativecommons.org/ns#" xmlns:rdf="http://www.w3.org/1999/02/22-rdf-syntax-ns#">
   <cc:Work>
    <dc:type rdf:resource="http://purl.org/dc/dcmitype/StillImage"/>
    <dc:date>2025-08-17T02:05:12.232182</dc:date>
    <dc:format>image/svg+xml</dc:format>
    <dc:creator>
     <cc:Agent>
      <dc:title>Matplotlib v3.7.5, https://matplotlib.org/</dc:title>
     </cc:Agent>
    </dc:creator>
   </cc:Work>
  </rdf:RDF>
 </metadata>
 <defs>
  <style type="text/css">*{stroke-linejoin: round; stroke-linecap: butt}</style>
 </defs>
 <g id="figure_1">
  <g id="patch_1">
   <path d="M 0 432 
L 720 432 
L 720 0 
L 0 0 
z
" style="fill: #ffffff"/>
  </g>
  <g id="axes_1">
   <g id="matplotlib.axis_1"/>
   <g id="matplotlib.axis_2"/>
   <g id="patch_2">
    <path d="M 502.056 218.16 
C 502.056 200.72155 498.62775 183.452001 491.966689 167.335866 
C 485.305628 151.219731 475.540788 136.569197 463.228851 124.219472 
C 450.916913 111.869746 436.296372 102.060056 420.200726 95.349639 
C 404.10508 88.639222 386.846117 85.158065 369.407749 85.104625 
C 351.969381 85.051185 334.689407 88.426497 318.552935 95.038138 
C 302.416463 101.64978 287.736074 111.369678 275.348677 123.643712 
C 262.961279 135.917746 253.10683 150.508157 246.34712 166.583163 
C 239.587409 182.65817 236.053379 199.906383 235.946499 217.344506 
C 235.83962 234.782628 239.161961 252.072865 245.724122 268.229522 
C 252.286283 284.386179 261.961146 299.096286 274.197162 311.521239 
C 286.433177 323.946192 300.99332 333.845307 317.047537 340.654248 
C 333.101753 347.463188 350.339055 351.050059 367.776768 351.210377 
C 385.214481 351.370695 402.514818 348.101355 418.691509 341.588737 
C 434.8682 335.076119 449.607887 325.44638 462.070278 313.248498 
C 474.53267 301.050616 484.476358 286.520877 491.334464 270.487602 
C 498.192571 254.454327 501.832249 237.228098 502.046004 219.790958 
L 369 218.16 
z
" style="fill: #f77189"/>
   </g>
   <g id="patch_3">
    <path d="M 502.046004 219.790958 
C 502.049303 219.521839 502.051785 219.252711 502.053451 218.983577 
C 502.055117 218.714443 502.055966 218.445305 502.055999 218.176165 
L 369 218.16 
z
" style="fill: #bb9832"/>
   </g>
   <g id="patch_4">
    <path d="M 502.055999 218.176165 
C 502.055999 218.173474 502.056 218.170783 502.056 218.168091 
C 502.056 218.1654 502.056 218.162709 502.056 218.160017 
L 369 218.16 
z
" style="fill: #50b131"/>
   </g>
   <g id="text_1">
    <text style="fill: #262626; font: 10px 'Arial', 'Liberation Sans', 'DejaVu Sans', 'Bitstream Vera Sans', sans-serif; text-anchor: end" x="222.641149" y="219.848894" transform="rotate(-0 222.641149 219.848894)">newsapi</text>
   </g>
   <g id="text_2">
    <text style="fill: #262626; font: 10px 'Arial', 'Liberation Sans', 'DejaVu Sans', 'Bitstream Vera Sans', sans-serif; text-anchor: middle" x="289.167899" y="220.256641" transform="rotate(-0 289.167899 220.256641)">99.8%</text>
   </g>
   <g id="text_3">
    <text style="fill: #262626; font: 10px 'Arial', 'Liberation Sans', 'DejaVu Sans', 'Bitstream Vera Sans', sans-serif; text-anchor: start" x="515.358796" y="221.651872" transform="rotate(-0 515.358796 221.651872)">chicago_pd</text>
   </g>
   <g id="text_4">
    <text style="fill: #262626; font: 10px 'Arial', 'Liberation Sans', 'DejaVu Sans', 'Bitstream Vera Sans', sans-serif; text-anchor: middle" x="448.832071" y="221.240084" transform="rotate(-0 448.832071 221.240084)">0.2%</text>
   </g>
   <g id="text_5">
    <text style="fill: #262626; font: 10px 'Arial', 'Liberation Sans', 'DejaVu Sans', 'Bitstream Vera Sans', sans-serif; text-anchor: start" x="515.3616" y="220.754838" transform="rotate(-0 515.3616 220.754838)">chicago_police</text>
   </g>
   <g id="text_6">
    <text style="fill: #262626; font: 10px 'Arial', 'Liberation Sans', 'DejaVu Sans', 'Bitstream Vera Sans', sans-serif; text-anchor: middle" x="448.8336" y="220.750792" transform="rotate(-0 448.8336 220.750792)">0.0%</text>
   </g>
   <g id="text_7">
    <text style="fill: #262626; font: 12px 'Arial', 'Liberation Sans', 'DejaVu Sans', 'Bitstream Vera Sans', sans-serif; text-anchor: middle" x="369" y="45.84" transform="rotate(-0 369 45.84)">Incidents by Source</text>
   </g>
  </g>
 </g>
</svg>
