<?xml version="1.0" encoding="utf-8" standalone="no"?>
<!DOCTYPE svg PUBLIC "-//W3C//DTD SVG 1.1//EN"
  "http://www.w3.org/Graphics/SVG/1.1/DTD/svg11.dtd">
<svg xmlns:xlink="http://www.w3.org/1999/xlink" width="720pt" height="432pt" viewBox="0 0 720 432" xmlns="http://www.w3.org/2000/svg" version="1.1">
 <metadata>
  <rdf:RDF xmlns:dc="http://purl.org/dc/elements/1.1/" xmlns:cc="http://creativecommons.org/ns#" xmlns:rdf="http://www.w3.org/1999/02/22-rdf-syntax-ns#">
   <cc:Work>
    <dc:type rdf:resource="http://purl.org/dc/dcmitype/StillImage"/>
    <dc:date>2025-04-21T12:43:09.120508</dc:date>
    <dc:format>image/svg+xml</dc:format>
    <dc:creator>
     <cc:Agent>
      <dc:title>Matplotlib v3.7.5, https://matplotlib.org/</dc:title>
     </cc:Agent>
    </dc:creator>
   </cc:Work>
  </rdf:RDF>
 </metadata>
 <defs>
  <style type="text/css">*{stroke-linejoin: round; stroke-linecap: butt}</style>
 </defs>
 <g id="figure_1">
  <g id="patch_1">
   <path d="M 0 432 
L 720 432 
L 720 0 
L 0 0 
z
" style="fill: #ffffff"/>
  </g>
  <g id="axes_1">
   <g id="matplotlib.axis_1"/>
   <g id="matplotlib.axis_2"/>
   <g id="patch_2">
    <path d="M 502.056 218.16 
C 502.056 200.751584 498.639548 183.511195 492.000752 167.418359 
C 485.361956 151.325524 475.628973 136.690901 463.35479 124.345967 
C 451.080607 112.001034 436.502166 102.184099 420.447753 95.452918 
C 404.39334 88.721738 387.172872 85.206253 369.764743 85.106198 
C 352.356614 85.006142 335.096874 88.323448 318.966148 94.86964 
C 302.835421 101.415833 288.145099 111.064542 275.729824 123.26757 
C 263.314548 135.470598 253.413985 149.992374 246.590643 166.007835 
C 239.7673 182.023295 236.152898 199.223273 235.952791 216.630539 
C 235.752683 234.037805 238.970734 251.316327 245.424106 267.484411 
C 251.877478 283.652495 261.441595 298.398031 273.573064 310.883239 
C 285.704533 323.368447 300.169167 333.352311 316.145145 340.26759 
C 332.121123 347.182868 349.300043 350.896068 366.705872 351.196221 
C 384.111701 351.496374 401.408432 348.377685 417.613341 342.017346 
C 433.818249 335.657007 448.618511 326.177799 461.173239 314.118289 
C 473.727966 302.058779 483.794801 287.651768 490.801788 271.715799 
C 497.808775 255.77983 501.62065 238.622536 502.020838 221.21872 
L 369 218.16 
z
" style="fill: #f77189"/>
   </g>
   <g id="patch_3">
    <path d="M 502.020838 221.21872 
C 502.032442 220.714066 502.041174 220.209351 502.047034 219.704598 
C 502.052894 219.199845 502.055882 218.695063 502.055997 218.190277 
L 369 218.16 
z
" style="fill: #bb9832"/>
   </g>
   <g id="patch_4">
    <path d="M 502.055997 218.190277 
C 502.055998 218.185229 502.055999 218.180181 502.055999 218.175133 
C 502.056 218.170085 502.056 218.165037 502.056 218.15999 
L 369 218.16 
z
" style="fill: #50b131"/>
   </g>
   <g id="text_1">
    <text style="fill: #262626; font: 10px 'Arial', 'Liberation Sans', 'DejaVu Sans', 'Bitstream Vera Sans', sans-serif; text-anchor: end" x="222.64807" y="219.063531" transform="rotate(-0 222.64807 219.063531)">newsapi</text>
   </g>
   <g id="text_2">
    <text style="fill: #262626; font: 10px 'Arial', 'Liberation Sans', 'DejaVu Sans', 'Bitstream Vera Sans', sans-serif; text-anchor: middle" x="289.171674" y="219.828261" transform="rotate(-0 289.171674 219.828261)">99.6%</text>
   </g>
   <g id="text_3">
    <text style="fill: #262626; font: 10px 'Arial', 'Liberation Sans', 'DejaVu Sans', 'Bitstream Vera Sans', sans-serif; text-anchor: start" x="515.351738" y="222.444995" transform="rotate(-0 515.351738 222.444995)">chicago_pd</text>
   </g>
   <g id="text_4">
    <text style="fill: #262626; font: 10px 'Arial', 'Liberation Sans', 'DejaVu Sans', 'Bitstream Vera Sans', sans-serif; text-anchor: middle" x="448.828221" y="221.672696" transform="rotate(-0 448.828221 221.672696)">0.4%</text>
   </g>
   <g id="text_5">
    <text style="fill: #262626; font: 10px 'Arial', 'Liberation Sans', 'DejaVu Sans', 'Bitstream Vera Sans', sans-serif; text-anchor: start" x="515.361599" y="220.762584" transform="rotate(-0 515.361599 220.762584)">chicago_police</text>
   </g>
   <g id="text_6">
    <text style="fill: #262626; font: 10px 'Arial', 'Liberation Sans', 'DejaVu Sans', 'Bitstream Vera Sans', sans-serif; text-anchor: middle" x="448.833599" y="220.755017" transform="rotate(-0 448.833599 220.755017)">0.0%</text>
   </g>
   <g id="text_7">
    <text style="fill: #262626; font: 12px 'Arial', 'Liberation Sans', 'DejaVu Sans', 'Bitstream Vera Sans', sans-serif; text-anchor: middle" x="369" y="45.84" transform="rotate(-0 369 45.84)">Incidents by Source</text>
   </g>
  </g>
 </g>
</svg>
