<?xml version="1.0" encoding="utf-8" standalone="no"?>
<!DOCTYPE svg PUBLIC "-//W3C//DTD SVG 1.1//EN"
  "http://www.w3.org/Graphics/SVG/1.1/DTD/svg11.dtd">
<svg xmlns:xlink="http://www.w3.org/1999/xlink" width="720pt" height="432pt" viewBox="0 0 720 432" xmlns="http://www.w3.org/2000/svg" version="1.1">
 <metadata>
  <rdf:RDF xmlns:dc="http://purl.org/dc/elements/1.1/" xmlns:cc="http://creativecommons.org/ns#" xmlns:rdf="http://www.w3.org/1999/02/22-rdf-syntax-ns#">
   <cc:Work>
    <dc:type rdf:resource="http://purl.org/dc/dcmitype/StillImage"/>
    <dc:date>2025-07-01T06:22:22.938712</dc:date>
    <dc:format>image/svg+xml</dc:format>
    <dc:creator>
     <cc:Agent>
      <dc:title>Matplotlib v3.7.5, https://matplotlib.org/</dc:title>
     </cc:Agent>
    </dc:creator>
   </cc:Work>
  </rdf:RDF>
 </metadata>
 <defs>
  <style type="text/css">*{stroke-linejoin: round; stroke-linecap: butt}</style>
 </defs>
 <g id="figure_1">
  <g id="patch_1">
   <path d="M 0 432 
L 720 432 
L 720 0 
L 0 0 
z
" style="fill: #ffffff"/>
  </g>
  <g id="axes_1">
   <g id="matplotlib.axis_1"/>
   <g id="matplotlib.axis_2"/>
   <g id="patch_2">
    <path d="M 502.056 218.16 
C 502.056 200.729599 498.630914 183.467864 491.975823 167.357972 
C 485.320733 151.248079 475.564435 136.601805 463.262619 124.253356 
C 450.960803 111.904907 436.351546 102.093264 420.266949 95.377269 
C 404.182351 88.661273 386.933699 85.170901 369.503423 85.104952 
C 352.073147 85.039004 334.798577 88.398755 318.66362 94.992846 
C 302.528662 101.586936 287.845579 111.287749 275.450674 123.542756 
C 263.055769 135.797763 253.188922 150.369792 246.412118 166.428865 
C 239.635314 182.487937 236.079706 199.72326 235.947809 217.153161 
C 235.815913 234.583063 239.110281 251.870221 245.643277 268.030012 
C 252.176273 284.189803 261.821463 298.909484 274.029486 311.350668 
C 286.237509 323.791851 300.772102 333.713762 316.805418 340.551277 
C 332.838735 347.388793 350.060482 351.009587 367.48976 351.207429 
C 384.919038 351.405271 402.218537 348.176333 418.40293 341.704525 
C 434.587323 335.232717 449.343392 325.643289 461.830676 313.482425 
C 474.31796 301.321562 484.294792 286.824613 491.192921 270.81728 
C 498.09105 254.809948 501.776977 237.602024 502.040762 220.17362 
L 369 218.16 
z
" style="fill: #f77189"/>
   </g>
   <g id="patch_3">
    <path d="M 502.040762 220.17362 
C 502.045791 219.841367 502.049575 219.509097 502.052115 219.176816 
C 502.054654 218.844535 502.055949 218.512246 502.055999 218.179956 
L 369 218.16 
z
" style="fill: #bb9832"/>
   </g>
   <g id="patch_4">
    <path d="M 502.055999 218.179956 
C 502.055999 218.176633 502.055999 218.17331 502.056 218.169987 
C 502.056 218.166664 502.056 218.163341 502.056 218.160018 
L 369 218.16 
z
" style="fill: #50b131"/>
   </g>
   <g id="text_1">
    <text style="fill: #262626; font: 10px 'Arial', 'Liberation Sans', 'DejaVu Sans', 'Bitstream Vera Sans', sans-serif; text-anchor: end" x="222.64259" y="219.638415" transform="rotate(-0 222.64259 219.638415)">newsapi</text>
   </g>
   <g id="text_2">
    <text style="fill: #262626; font: 10px 'Arial', 'Liberation Sans', 'DejaVu Sans', 'Bitstream Vera Sans', sans-serif; text-anchor: middle" x="289.168686" y="220.141834" transform="rotate(-0 289.168686 220.141834)">99.8%</text>
   </g>
   <g id="text_3">
    <text style="fill: #262626; font: 10px 'Arial', 'Liberation Sans', 'DejaVu Sans', 'Bitstream Vera Sans', sans-serif; text-anchor: start" x="515.357326" y="221.864435" transform="rotate(-0 515.357326 221.864435)">chicago_pd</text>
   </g>
   <g id="text_4">
    <text style="fill: #262626; font: 10px 'Arial', 'Liberation Sans', 'DejaVu Sans', 'Bitstream Vera Sans', sans-serif; text-anchor: middle" x="448.831269" y="221.356027" transform="rotate(-0 448.831269 221.356027)">0.2%</text>
   </g>
   <g id="text_5">
    <text style="fill: #262626; font: 10px 'Arial', 'Liberation Sans', 'DejaVu Sans', 'Bitstream Vera Sans', sans-serif; text-anchor: start" x="515.3616" y="220.756923" transform="rotate(-0 515.3616 220.756923)">chicago_police</text>
   </g>
   <g id="text_6">
    <text style="fill: #262626; font: 10px 'Arial', 'Liberation Sans', 'DejaVu Sans', 'Bitstream Vera Sans', sans-serif; text-anchor: middle" x="448.8336" y="220.75193" transform="rotate(-0 448.8336 220.75193)">0.0%</text>
   </g>
   <g id="text_7">
    <text style="fill: #262626; font: 12px 'Arial', 'Liberation Sans', 'DejaVu Sans', 'Bitstream Vera Sans', sans-serif; text-anchor: middle" x="369" y="45.84" transform="rotate(-0 369 45.84)">Incidents by Source</text>
   </g>
  </g>
 </g>
</svg>
