<?xml version="1.0" encoding="utf-8" standalone="no"?>
<!DOCTYPE svg PUBLIC "-//W3C//DTD SVG 1.1//EN"
  "http://www.w3.org/Graphics/SVG/1.1/DTD/svg11.dtd">
<svg xmlns:xlink="http://www.w3.org/1999/xlink" width="720pt" height="432pt" viewBox="0 0 720 432" xmlns="http://www.w3.org/2000/svg" version="1.1">
 <metadata>
  <rdf:RDF xmlns:dc="http://purl.org/dc/elements/1.1/" xmlns:cc="http://creativecommons.org/ns#" xmlns:rdf="http://www.w3.org/1999/02/22-rdf-syntax-ns#">
   <cc:Work>
    <dc:type rdf:resource="http://purl.org/dc/dcmitype/StillImage"/>
    <dc:date>2025-03-31T01:06:28.788480</dc:date>
    <dc:format>image/svg+xml</dc:format>
    <dc:creator>
     <cc:Agent>
      <dc:title>Matplotlib v3.7.5, https://matplotlib.org/</dc:title>
     </cc:Agent>
    </dc:creator>
   </cc:Work>
  </rdf:RDF>
 </metadata>
 <defs>
  <style type="text/css">*{stroke-linejoin: round; stroke-linecap: butt}</style>
 </defs>
 <g id="figure_1">
  <g id="patch_1">
   <path d="M 0 432 
L 720 432 
L 720 0 
L 0 0 
z
" style="fill: #ffffff"/>
  </g>
  <g id="axes_1">
   <g id="matplotlib.axis_1"/>
   <g id="matplotlib.axis_2"/>
   <g id="patch_2">
    <path d="M 502.056 218.16 
C 502.056 200.763026 498.644038 183.533747 492.013715 167.449794 
C 485.383393 151.365841 475.662536 136.737292 463.402727 124.394205 
C 451.142918 112.051118 436.580512 102.231452 420.541813 95.492398 
C 404.503114 88.753343 387.297328 85.224822 369.900752 85.107049 
C 352.504177 84.989276 335.252195 88.284523 319.123725 94.805809 
C 302.995255 101.327096 288.301234 110.948699 275.875434 123.124668 
C 263.449634 135.300636 253.53161 149.796233 246.684132 165.788943 
C 239.836655 181.781652 236.191736 198.963157 235.956196 216.358536 
C 235.720656 233.753916 238.899036 251.02781 245.310987 267.200058 
C 251.722939 283.372305 261.244847 298.131126 273.336418 310.639069 
C 285.427988 323.147012 299.85611 333.162941 315.802098 340.118527 
C 331.748086 347.074114 348.904521 350.835264 366.297908 351.18856 
C 383.691294 351.541857 400.986309 348.480489 417.201594 342.178166 
C 433.416878 335.875843 448.239821 326.454066 460.829334 314.447448 
C 473.418847 302.44083 483.53222 288.080844 490.595597 272.182309 
C 497.658975 256.283774 501.536183 239.153193 502.007219 221.762597 
L 369 218.16 
z
" style="fill: #f77189"/>
   </g>
   <g id="patch_3">
    <path d="M 502.007219 221.762597 
C 502.023318 221.16825 502.035432 220.573801 502.043562 219.979291 
C 502.051691 219.384781 502.055836 218.790223 502.055995 218.195658 
L 369 218.16 
z
" style="fill: #bb9832"/>
   </g>
   <g id="patch_4">
    <path d="M 502.055995 218.195658 
C 502.055997 218.189712 502.055998 218.183766 502.055999 218.177821 
C 502.056 218.171875 502.056 218.165929 502.056 218.159984 
L 369 218.16 
z
" style="fill: #50b131"/>
   </g>
   <g id="text_1">
    <text style="fill: #262626; font: 10px 'Arial', 'Liberation Sans', 'DejaVu Sans', 'Bitstream Vera Sans', sans-serif; text-anchor: end" x="222.651815" y="218.764327" transform="rotate(-0 222.651815 218.764327)">newsapi</text>
   </g>
   <g id="text_2">
    <text style="fill: #262626; font: 10px 'Arial', 'Liberation Sans', 'DejaVu Sans', 'Bitstream Vera Sans', sans-serif; text-anchor: middle" x="289.173717" y="219.665059" transform="rotate(-0 289.173717 219.665059)">99.6%</text>
   </g>
   <g id="text_3">
    <text style="fill: #262626; font: 10px 'Arial', 'Liberation Sans', 'DejaVu Sans', 'Bitstream Vera Sans', sans-serif; text-anchor: start" x="515.347918" y="222.747157" transform="rotate(-0 515.347918 222.747157)">chicago_pd</text>
   </g>
   <g id="text_4">
    <text style="fill: #262626; font: 10px 'Arial', 'Liberation Sans', 'DejaVu Sans', 'Bitstream Vera Sans', sans-serif; text-anchor: middle" x="448.826137" y="221.837512" transform="rotate(-0 448.826137 221.837512)">0.4%</text>
   </g>
   <g id="text_5">
    <text style="fill: #262626; font: 10px 'Arial', 'Liberation Sans', 'DejaVu Sans', 'Bitstream Vera Sans', sans-serif; text-anchor: start" x="515.361599" y="220.76554" transform="rotate(-0 515.361599 220.76554)">chicago_police</text>
   </g>
   <g id="text_6">
    <text style="fill: #262626; font: 10px 'Arial', 'Liberation Sans', 'DejaVu Sans', 'Bitstream Vera Sans', sans-serif; text-anchor: middle" x="448.833599" y="220.75663" transform="rotate(-0 448.833599 220.75663)">0.0%</text>
   </g>
   <g id="text_7">
    <text style="fill: #262626; font: 12px 'Arial', 'Liberation Sans', 'DejaVu Sans', 'Bitstream Vera Sans', sans-serif; text-anchor: middle" x="369" y="45.84" transform="rotate(-0 369 45.84)">Incidents by Source</text>
   </g>
  </g>
 </g>
</svg>
