<?xml version="1.0" encoding="utf-8" standalone="no"?>
<!DOCTYPE svg PUBLIC "-//W3C//DTD SVG 1.1//EN"
  "http://www.w3.org/Graphics/SVG/1.1/DTD/svg11.dtd">
<svg xmlns:xlink="http://www.w3.org/1999/xlink" width="720pt" height="432pt" viewBox="0 0 720 432" xmlns="http://www.w3.org/2000/svg" version="1.1">
 <metadata>
  <rdf:RDF xmlns:dc="http://purl.org/dc/elements/1.1/" xmlns:cc="http://creativecommons.org/ns#" xmlns:rdf="http://www.w3.org/1999/02/22-rdf-syntax-ns#">
   <cc:Work>
    <dc:type rdf:resource="http://purl.org/dc/dcmitype/StillImage"/>
    <dc:date>2026-04-04T06:54:42.079053</dc:date>
    <dc:format>image/svg+xml</dc:format>
    <dc:creator>
     <cc:Agent>
      <dc:title>Matplotlib v3.7.5, https://matplotlib.org/</dc:title>
     </cc:Agent>
    </dc:creator>
   </cc:Work>
  </rdf:RDF>
 </metadata>
 <defs>
  <style type="text/css">*{stroke-linejoin: round; stroke-linecap: butt}</style>
 </defs>
 <g id="figure_1">
  <g id="patch_1">
   <path d="M 0 432 
L 720 432 
L 720 0 
L 0 0 
z
" style="fill: #ffffff"/>
  </g>
  <g id="axes_1">
   <g id="matplotlib.axis_1"/>
   <g id="matplotlib.axis_2"/>
   <g id="patch_2">
    <path d="M 502.056 218.16 
C 502.056 200.705504 498.621437 183.420375 491.948467 167.291801 
C 485.275496 151.163226 475.493617 136.50421 463.161494 124.151957 
C 450.82937 111.799703 436.186327 101.993929 420.068658 95.294662 
C 403.950989 88.595395 386.671485 85.132645 369.217011 85.104177 
C 351.762538 85.075709 334.471831 88.482076 318.332394 95.128732 
C 302.192958 101.775389 287.518007 111.533345 275.145657 123.845307 
C 262.773306 136.157268 252.943663 150.784298 246.218117 166.891019 
C 239.492571 182.997741 236.001644 200.271574 235.944708 217.725978 
C 235.887772 235.180381 239.265933 252.476622 245.886258 268.626877 
C 252.506583 284.777132 262.240592 299.467979 274.532358 311.860393 
C 286.824123 324.252808 301.435102 334.106294 317.530833 340.858101 
C 333.626564 347.609908 350.894681 351.129004 368.348968 351.214407 
C 385.803256 351.299811 403.104983 347.949864 419.266014 341.355889 
C 435.427046 334.761913 450.133748 325.051878 462.546194 312.78034 
C 474.95864 300.508802 484.835943 285.913914 491.613993 269.829216 
C 498.392042 253.744519 501.939298 236.482165 502.053168 219.02804 
L 369 218.16 
z
" style="fill: #f77189"/>
   </g>
   <g id="patch_3">
    <path d="M 502.053168 219.02804 
C 502.054103 218.884803 502.054806 218.741566 502.055278 218.598327 
C 502.05575 218.455089 502.05599 218.31185 502.056 218.168611 
L 369 218.16 
z
" style="fill: #bb9832"/>
   </g>
   <g id="patch_4">
    <path d="M 502.056 218.168611 
C 502.056 218.167178 502.056 218.165746 502.056 218.164313 
C 502.056 218.162881 502.056 218.161449 502.056 218.160016 
L 369 218.16 
z
" style="fill: #50b131"/>
   </g>
   <g id="text_1">
    <text style="fill: #262626; font: 10px 'Arial', 'Liberation Sans', 'DejaVu Sans', 'Bitstream Vera Sans', sans-serif; text-anchor: end" x="222.639179" y="220.268513" transform="rotate(-0 222.639179 220.268513)">newsapi</text>
   </g>
   <g id="text_2">
    <text style="fill: #262626; font: 10px 'Arial', 'Liberation Sans', 'DejaVu Sans', 'Bitstream Vera Sans', sans-serif; text-anchor: middle" x="289.166825" y="220.485524" transform="rotate(-0 289.166825 220.485524)">99.9%</text>
   </g>
   <g id="text_3">
    <text style="fill: #262626; font: 10px 'Arial', 'Liberation Sans', 'DejaVu Sans', 'Bitstream Vera Sans', sans-serif; text-anchor: start" x="515.360806" y="221.228098" transform="rotate(-0 515.360806 221.228098)">chicago_pd</text>
   </g>
   <g id="text_4">
    <text style="fill: #262626; font: 10px 'Arial', 'Liberation Sans', 'DejaVu Sans', 'Bitstream Vera Sans', sans-serif; text-anchor: middle" x="448.833167" y="221.008934" transform="rotate(-0 448.833167 221.008934)">0.1%</text>
   </g>
   <g id="text_5">
    <text style="fill: #262626; font: 10px 'Arial', 'Liberation Sans', 'DejaVu Sans', 'Bitstream Vera Sans', sans-serif; text-anchor: start" x="515.3616" y="220.750682" transform="rotate(-0 515.3616 220.750682)">chicago_police</text>
   </g>
   <g id="text_6">
    <text style="fill: #262626; font: 10px 'Arial', 'Liberation Sans', 'DejaVu Sans', 'Bitstream Vera Sans', sans-serif; text-anchor: middle" x="448.8336" y="220.748526" transform="rotate(-0 448.8336 220.748526)">0.0%</text>
   </g>
   <g id="text_7">
    <text style="fill: #262626; font: 12px 'Arial', 'Liberation Sans', 'DejaVu Sans', 'Bitstream Vera Sans', sans-serif; text-anchor: middle" x="369" y="45.84" transform="rotate(-0 369 45.84)">Incidents by Source</text>
   </g>
  </g>
 </g>
</svg>
