<?xml version="1.0" encoding="utf-8" standalone="no"?>
<!DOCTYPE svg PUBLIC "-//W3C//DTD SVG 1.1//EN"
  "http://www.w3.org/Graphics/SVG/1.1/DTD/svg11.dtd">
<svg xmlns:xlink="http://www.w3.org/1999/xlink" width="720pt" height="432pt" viewBox="0 0 720 432" xmlns="http://www.w3.org/2000/svg" version="1.1">
 <metadata>
  <rdf:RDF xmlns:dc="http://purl.org/dc/elements/1.1/" xmlns:cc="http://creativecommons.org/ns#" xmlns:rdf="http://www.w3.org/1999/02/22-rdf-syntax-ns#">
   <cc:Work>
    <dc:type rdf:resource="http://purl.org/dc/dcmitype/StillImage"/>
    <dc:date>2025-12-01T12:53:26.869045</dc:date>
    <dc:format>image/svg+xml</dc:format>
    <dc:creator>
     <cc:Agent>
      <dc:title>Matplotlib v3.7.5, https://matplotlib.org/</dc:title>
     </cc:Agent>
    </dc:creator>
   </cc:Work>
  </rdf:RDF>
 </metadata>
 <defs>
  <style type="text/css">*{stroke-linejoin: round; stroke-linecap: butt}</style>
 </defs>
 <g id="figure_1">
  <g id="patch_1">
   <path d="M 0 432 
L 720 432 
L 720 0 
L 0 0 
z
" style="fill: #ffffff"/>
  </g>
  <g id="axes_1">
   <g id="matplotlib.axis_1"/>
   <g id="matplotlib.axis_2"/>
   <g id="patch_2">
    <path d="M 502.056 218.16 
C 502.056 200.71136 498.623742 183.431917 491.955119 167.307882 
C 485.286496 151.183847 475.510838 136.527925 463.186082 124.176592 
C 450.861327 111.825258 436.226497 102.018051 420.116865 95.31471 
C 404.007233 88.611369 386.735224 85.141896 369.286624 85.104309 
C 351.838025 85.066722 334.551228 88.461749 318.412866 95.095623 
C 302.274503 101.729496 287.597556 111.473561 275.219702 123.771681 
C 262.841848 136.069801 253.003138 150.68347 246.265109 166.778625 
C 239.527081 182.873779 236.020409 200.138275 235.945235 217.586753 
C 235.870061 235.035231 239.227842 252.329301 245.826935 268.481916 
C 252.426029 284.634532 262.138454 299.332435 274.409882 311.736753 
C 286.681309 324.14107 301.27375 334.011238 317.354353 340.783922 
C 333.434956 347.556607 350.691857 351.100461 368.140132 351.213222 
C 385.588408 351.325982 402.889671 348.005463 419.056465 341.441181 
C 435.223259 334.876898 449.942049 325.196157 462.372773 312.951478 
C 474.803497 300.7068 484.705076 286.135655 491.512385 270.069679 
C 498.319693 254.003703 501.900713 236.754476 502.051061 219.306484 
L 369 218.16 
z
" style="fill: #f77189"/>
   </g>
   <g id="patch_3">
    <path d="M 502.051061 219.306484 
C 502.052691 219.117302 502.053917 218.928116 502.054741 218.738929 
C 502.055564 218.549741 502.055983 218.360552 502.056 218.171363 
L 369 218.16 
z
" style="fill: #bb9832"/>
   </g>
   <g id="patch_4">
    <path d="M 502.056 218.171363 
C 502.056 218.169471 502.056 218.167579 502.056 218.165687 
C 502.056 218.163796 502.056 218.161904 502.056 218.160012 
L 369 218.16 
z
" style="fill: #50b131"/>
   </g>
   <g id="text_1">
    <text style="fill: #262626; font: 10px 'Arial', 'Liberation Sans', 'DejaVu Sans', 'Bitstream Vera Sans', sans-serif; text-anchor: end" x="222.639758" y="220.115366" transform="rotate(-0 222.639758 220.115366)">newsapi</text>
   </g>
   <g id="text_2">
    <text style="fill: #262626; font: 10px 'Arial', 'Liberation Sans', 'DejaVu Sans', 'Bitstream Vera Sans', sans-serif; text-anchor: middle" x="289.167141" y="220.401989" transform="rotate(-0 289.167141 220.401989)">99.9%</text>
   </g>
   <g id="text_3">
    <text style="fill: #262626; font: 10px 'Arial', 'Liberation Sans', 'DejaVu Sans', 'Bitstream Vera Sans', sans-serif; text-anchor: start" x="515.360215" y="221.382759" transform="rotate(-0 515.360215 221.382759)">chicago_pd</text>
   </g>
   <g id="text_4">
    <text style="fill: #262626; font: 10px 'Arial', 'Liberation Sans', 'DejaVu Sans', 'Bitstream Vera Sans', sans-serif; text-anchor: middle" x="448.832844" y="221.093295" transform="rotate(-0 448.832844 221.093295)">0.1%</text>
   </g>
   <g id="text_5">
    <text style="fill: #262626; font: 10px 'Arial', 'Liberation Sans', 'DejaVu Sans', 'Bitstream Vera Sans', sans-serif; text-anchor: start" x="515.3616" y="220.752194" transform="rotate(-0 515.3616 220.752194)">chicago_police</text>
   </g>
   <g id="text_6">
    <text style="fill: #262626; font: 10px 'Arial', 'Liberation Sans', 'DejaVu Sans', 'Bitstream Vera Sans', sans-serif; text-anchor: middle" x="448.8336" y="220.74935" transform="rotate(-0 448.8336 220.74935)">0.0%</text>
   </g>
   <g id="text_7">
    <text style="fill: #262626; font: 12px 'Arial', 'Liberation Sans', 'DejaVu Sans', 'Bitstream Vera Sans', sans-serif; text-anchor: middle" x="369" y="45.84" transform="rotate(-0 369 45.84)">Incidents by Source</text>
   </g>
  </g>
 </g>
</svg>
