<?xml version="1.0" encoding="utf-8" standalone="no"?>
<!DOCTYPE svg PUBLIC "-//W3C//DTD SVG 1.1//EN"
  "http://www.w3.org/Graphics/SVG/1.1/DTD/svg11.dtd">
<svg xmlns:xlink="http://www.w3.org/1999/xlink" width="720pt" height="432pt" viewBox="0 0 720 432" xmlns="http://www.w3.org/2000/svg" version="1.1">
 <metadata>
  <rdf:RDF xmlns:dc="http://purl.org/dc/elements/1.1/" xmlns:cc="http://creativecommons.org/ns#" xmlns:rdf="http://www.w3.org/1999/02/22-rdf-syntax-ns#">
   <cc:Work>
    <dc:type rdf:resource="http://purl.org/dc/dcmitype/StillImage"/>
    <dc:date>2025-02-02T18:15:26.023003</dc:date>
    <dc:format>image/svg+xml</dc:format>
    <dc:creator>
     <cc:Agent>
      <dc:title>Matplotlib v3.7.5, https://matplotlib.org/</dc:title>
     </cc:Agent>
    </dc:creator>
   </cc:Work>
  </rdf:RDF>
 </metadata>
 <defs>
  <style type="text/css">*{stroke-linejoin: round; stroke-linecap: butt}</style>
 </defs>
 <g id="figure_1">
  <g id="patch_1">
   <path d="M 0 432 
L 720 432 
L 720 0 
L 0 0 
z
" style="fill: #ffffff"/>
  </g>
  <g id="axes_1">
   <g id="matplotlib.axis_1"/>
   <g id="matplotlib.axis_2"/>
   <g id="patch_2">
    <path d="M 502.056 218.16 
C 502.056 200.827088 498.669119 183.660022 492.086148 167.62586 
C 485.503177 151.591699 475.850091 136.997281 463.67067 124.664741 
C 451.491248 112.332201 437.018564 102.497543 421.067893 95.714773 
C 405.117223 88.932003 387.993809 85.330921 370.662249 85.114384 
C 353.330689 84.897846 336.122652 88.069997 320.007501 94.452142 
C 303.892351 100.834287 289.178478 110.304293 276.694744 122.328696 
C 264.211011 134.353098 254.196315 148.70179 247.214805 164.56648 
C 240.233295 180.431169 236.418574 197.508259 235.985532 214.835761 
C 235.552491 232.163263 238.509417 249.409587 244.689739 265.603211 
C 250.870062 281.796835 260.155511 296.627868 272.023018 309.260846 
C 283.890525 321.893824 298.112985 332.086994 313.889217 339.266155 
C 329.66545 346.445315 346.69355 350.47308 364.01429 351.122558 
C 381.33503 351.772036 398.616948 349.030797 414.886518 343.053261 
C 431.156089 337.075725 446.101966 327.976282 458.882217 316.267524 
C 471.662468 304.558765 482.032522 290.464757 489.408213 274.779444 
C 496.783903 259.094131 501.024084 242.117678 501.889896 224.806403 
L 369 218.16 
z
" style="fill: #f77189"/>
   </g>
   <g id="patch_3">
    <path d="M 501.889896 224.806403 
C 501.944705 223.710539 501.985956 222.614039 502.013641 221.517155 
C 502.041325 220.420271 502.055441 219.323086 502.055984 218.225852 
L 369 218.16 
z
" style="fill: #bb9832"/>
   </g>
   <g id="patch_4">
    <path d="M 502.055984 218.225852 
C 502.055989 218.21488 502.055993 218.203908 502.055996 218.192936 
C 502.055999 218.181964 502.056 218.170991 502.056 218.160019 
L 369 218.16 
z
" style="fill: #50b131"/>
   </g>
   <g id="text_1">
    <text style="fill: #262626; font: 10px 'Arial', 'Liberation Sans', 'DejaVu Sans', 'Bitstream Vera Sans', sans-serif; text-anchor: end" x="222.684086" y="217.089274" transform="rotate(-0 222.684086 217.089274)">newsapi</text>
   </g>
   <g id="text_2">
    <text style="fill: #262626; font: 10px 'Arial', 'Liberation Sans', 'DejaVu Sans', 'Bitstream Vera Sans', sans-serif; text-anchor: middle" x="289.191319" y="218.751394" transform="rotate(-0 289.191319 218.751394)">99.2%</text>
   </g>
   <g id="text_3">
    <text style="fill: #262626; font: 10px 'Arial', 'Liberation Sans', 'DejaVu Sans', 'Bitstream Vera Sans', sans-serif; text-anchor: start" x="515.315005" y="224.438808" transform="rotate(-0 515.315005 224.438808)">chicago_pd</text>
   </g>
   <g id="text_4">
    <text style="fill: #262626; font: 10px 'Arial', 'Liberation Sans', 'DejaVu Sans', 'Bitstream Vera Sans', sans-serif; text-anchor: middle" x="448.808184" y="222.760231" transform="rotate(-0 448.808184 222.760231)">0.8%</text>
   </g>
   <g id="text_5">
    <text style="fill: #262626; font: 10px 'Arial', 'Liberation Sans', 'DejaVu Sans', 'Bitstream Vera Sans', sans-serif; text-anchor: start" x="515.361596" y="220.782167" transform="rotate(-0 515.361596 220.782167)">chicago_police</text>
   </g>
   <g id="text_6">
    <text style="fill: #262626; font: 10px 'Arial', 'Liberation Sans', 'DejaVu Sans', 'Bitstream Vera Sans', sans-serif; text-anchor: middle" x="448.833598" y="220.765699" transform="rotate(-0 448.833598 220.765699)">0.0%</text>
   </g>
   <g id="text_7">
    <text style="fill: #262626; font: 12px 'Arial', 'Liberation Sans', 'DejaVu Sans', 'Bitstream Vera Sans', sans-serif; text-anchor: middle" x="369" y="45.84" transform="rotate(-0 369 45.84)">Incidents by Source</text>
   </g>
  </g>
 </g>
</svg>
