<?xml version="1.0" encoding="utf-8" standalone="no"?>
<!DOCTYPE svg PUBLIC "-//W3C//DTD SVG 1.1//EN"
  "http://www.w3.org/Graphics/SVG/1.1/DTD/svg11.dtd">
<svg xmlns:xlink="http://www.w3.org/1999/xlink" width="720pt" height="432pt" viewBox="0 0 720 432" xmlns="http://www.w3.org/2000/svg" version="1.1">
 <metadata>
  <rdf:RDF xmlns:dc="http://purl.org/dc/elements/1.1/" xmlns:cc="http://creativecommons.org/ns#" xmlns:rdf="http://www.w3.org/1999/02/22-rdf-syntax-ns#">
   <cc:Work>
    <dc:type rdf:resource="http://purl.org/dc/dcmitype/StillImage"/>
    <dc:date>2026-05-16T18:57:50.798934</dc:date>
    <dc:format>image/svg+xml</dc:format>
    <dc:creator>
     <cc:Agent>
      <dc:title>Matplotlib v3.7.5, https://matplotlib.org/</dc:title>
     </cc:Agent>
    </dc:creator>
   </cc:Work>
  </rdf:RDF>
 </metadata>
 <defs>
  <style type="text/css">*{stroke-linejoin: round; stroke-linecap: butt}</style>
 </defs>
 <g id="figure_1">
  <g id="patch_1">
   <path d="M 0 432 
L 720 432 
L 720 0 
L 0 0 
z
" style="fill: #ffffff"/>
  </g>
  <g id="axes_1">
   <g id="matplotlib.axis_1"/>
   <g id="matplotlib.axis_2"/>
   <g id="patch_2">
    <path d="M 502.056 218.16 
C 502.056 200.704119 498.620892 183.417646 491.946894 167.287999 
C 485.272895 151.158352 475.489546 136.498604 463.15568 124.146134 
C 450.821814 111.793663 436.17683 101.988229 420.057261 95.289925 
C 403.937692 88.591622 386.656416 85.130462 369.200555 85.104151 
C 351.744694 85.07784 334.453063 88.486888 318.313374 95.136567 
C 302.173686 101.786246 287.499208 111.547487 275.128161 123.86272 
C 262.757114 136.177953 252.929616 150.808141 246.207023 166.917596 
C 239.48443 183.02705 235.997227 200.303089 235.944605 217.758891 
C 235.891982 235.214692 239.274963 252.511442 245.900307 268.661135 
C 252.525651 284.810829 262.264762 299.500002 274.561335 311.889598 
C 286.857907 324.279194 301.473265 334.128733 317.572568 340.8756 
C 333.671872 347.622467 350.942635 351.135706 368.398337 351.21464 
C 385.85404 351.293573 403.155869 347.936668 419.31553 341.335674 
C 435.475192 334.734679 450.179028 325.01772 462.587145 312.739836 
C 474.995261 300.461953 484.866818 285.861457 491.637944 269.772342 
C 498.40907 253.683226 501.948337 236.417779 502.053582 218.962215 
L 369 218.16 
z
" style="fill: #f77189"/>
   </g>
   <g id="patch_3">
    <path d="M 502.053582 218.962215 
C 502.05438 218.829842 502.05498 218.697467 502.055383 218.565092 
C 502.055786 218.432717 502.055992 218.300342 502.056 218.167966 
L 369 218.16 
z
" style="fill: #bb9832"/>
   </g>
   <g id="patch_4">
    <path d="M 502.056 218.167966 
C 502.056 218.166642 502.056 218.165319 502.056 218.163995 
C 502.056 218.162671 502.056 218.161347 502.056 218.160024 
L 369 218.16 
z
" style="fill: #50b131"/>
   </g>
   <g id="text_1">
    <text style="fill: #262626; font: 10px 'Arial', 'Liberation Sans', 'DejaVu Sans', 'Bitstream Vera Sans', sans-serif; text-anchor: end" x="222.639065" y="220.304717" transform="rotate(-0 222.639065 220.304717)">newsapi</text>
   </g>
   <g id="text_2">
    <text style="fill: #262626; font: 10px 'Arial', 'Liberation Sans', 'DejaVu Sans', 'Bitstream Vera Sans', sans-serif; text-anchor: middle" x="289.166763" y="220.505272" transform="rotate(-0 289.166763 220.505272)">99.9%</text>
   </g>
   <g id="text_3">
    <text style="fill: #262626; font: 10px 'Arial', 'Liberation Sans', 'DejaVu Sans', 'Bitstream Vera Sans', sans-serif; text-anchor: start" x="515.360922" y="221.191539" transform="rotate(-0 515.360922 221.191539)">chicago_pd</text>
   </g>
   <g id="text_4">
    <text style="fill: #262626; font: 10px 'Arial', 'Liberation Sans', 'DejaVu Sans', 'Bitstream Vera Sans', sans-serif; text-anchor: middle" x="448.83323" y="220.988993" transform="rotate(-0 448.83323 220.988993)">0.1%</text>
   </g>
   <g id="text_5">
    <text style="fill: #262626; font: 10px 'Arial', 'Liberation Sans', 'DejaVu Sans', 'Bitstream Vera Sans', sans-serif; text-anchor: start" x="515.3616" y="220.750332" transform="rotate(-0 515.3616 220.750332)">chicago_police</text>
   </g>
   <g id="text_6">
    <text style="fill: #262626; font: 10px 'Arial', 'Liberation Sans', 'DejaVu Sans', 'Bitstream Vera Sans', sans-serif; text-anchor: middle" x="448.8336" y="220.748334" transform="rotate(-0 448.8336 220.748334)">0.0%</text>
   </g>
   <g id="text_7">
    <text style="fill: #262626; font: 12px 'Arial', 'Liberation Sans', 'DejaVu Sans', 'Bitstream Vera Sans', sans-serif; text-anchor: middle" x="369" y="45.84" transform="rotate(-0 369 45.84)">Incidents by Source</text>
   </g>
  </g>
 </g>
</svg>
