<?xml version="1.0" encoding="utf-8" standalone="no"?>
<!DOCTYPE svg PUBLIC "-//W3C//DTD SVG 1.1//EN"
  "http://www.w3.org/Graphics/SVG/1.1/DTD/svg11.dtd">
<svg xmlns:xlink="http://www.w3.org/1999/xlink" width="720pt" height="432pt" viewBox="0 0 720 432" xmlns="http://www.w3.org/2000/svg" version="1.1">
 <metadata>
  <rdf:RDF xmlns:dc="http://purl.org/dc/elements/1.1/" xmlns:cc="http://creativecommons.org/ns#" xmlns:rdf="http://www.w3.org/1999/02/22-rdf-syntax-ns#">
   <cc:Work>
    <dc:type rdf:resource="http://purl.org/dc/dcmitype/StillImage"/>
    <dc:date>2025-11-21T01:52:20.301455</dc:date>
    <dc:format>image/svg+xml</dc:format>
    <dc:creator>
     <cc:Agent>
      <dc:title>Matplotlib v3.7.5, https://matplotlib.org/</dc:title>
     </cc:Agent>
    </dc:creator>
   </cc:Work>
  </rdf:RDF>
 </metadata>
 <defs>
  <style type="text/css">*{stroke-linejoin: round; stroke-linecap: butt}</style>
 </defs>
 <g id="figure_1">
  <g id="patch_1">
   <path d="M 0 432 
L 720 432 
L 720 0 
L 0 0 
z
" style="fill: #ffffff"/>
  </g>
  <g id="axes_1">
   <g id="matplotlib.axis_1"/>
   <g id="matplotlib.axis_2"/>
   <g id="patch_2">
    <path d="M 502.056 218.16 
C 502.056 200.711988 498.623989 183.433154 491.955832 167.309606 
C 485.287675 151.186058 475.512683 136.530468 463.188718 124.179233 
C 450.864752 111.827998 436.230803 102.020638 420.122032 95.31686 
C 404.013262 88.613083 386.742056 85.142889 369.294086 85.104325 
C 351.846117 85.065761 334.55974 88.459573 318.421493 95.092077 
C 302.283246 101.72458 287.606086 111.467156 275.227643 123.763792 
C 262.849199 136.060428 253.009518 150.672665 246.270153 166.766579 
C 239.530787 182.860494 236.022429 200.123987 235.9453 217.571829 
C 235.868171 235.01967 239.223768 252.313506 245.820586 268.466373 
C 252.417404 284.619241 262.127516 299.317898 274.396763 311.72349 
C 286.666009 324.129081 301.256462 334.001035 317.335442 340.775956 
C 333.414421 347.550876 350.670118 351.097383 368.117747 351.213075 
C 385.565375 351.328767 402.866585 348.011402 419.033994 341.450302 
C 435.201402 334.889202 449.921485 325.211602 462.354165 312.969805 
C 474.786844 300.728007 484.691022 286.159409 491.501465 270.095443 
C 498.311907 254.031478 501.896544 236.783661 502.0508 219.336331 
L 369 218.16 
z
" style="fill: #f77189"/>
   </g>
   <g id="patch_3">
    <path d="M 502.0508 219.336331 
C 502.052516 219.142226 502.053807 218.948118 502.054674 218.754007 
C 502.055541 218.559896 502.055982 218.365784 502.055999 218.171671 
L 369 218.16 
z
" style="fill: #bb9832"/>
   </g>
   <g id="patch_4">
    <path d="M 502.055999 218.171671 
C 502.056 218.16973 502.056 218.167789 502.056 218.165848 
C 502.056 218.163907 502.056 218.161966 502.056 218.160024 
L 369 218.16 
z
" style="fill: #50b131"/>
   </g>
   <g id="text_1">
    <text style="fill: #262626; font: 10px 'Arial', 'Liberation Sans', 'DejaVu Sans', 'Bitstream Vera Sans', sans-serif; text-anchor: end" x="222.63983" y="220.098949" transform="rotate(-0 222.63983 220.098949)">newsapi</text>
   </g>
   <g id="text_2">
    <text style="fill: #262626; font: 10px 'Arial', 'Liberation Sans', 'DejaVu Sans', 'Bitstream Vera Sans', sans-serif; text-anchor: middle" x="289.16718" y="220.393035" transform="rotate(-0 289.16718 220.393035)">99.9%</text>
   </g>
   <g id="text_3">
    <text style="fill: #262626; font: 10px 'Arial', 'Liberation Sans', 'DejaVu Sans', 'Bitstream Vera Sans', sans-serif; text-anchor: start" x="515.360141" y="221.399345" transform="rotate(-0 515.360141 221.399345)">chicago_pd</text>
   </g>
   <g id="text_4">
    <text style="fill: #262626; font: 10px 'Arial', 'Liberation Sans', 'DejaVu Sans', 'Bitstream Vera Sans', sans-serif; text-anchor: middle" x="448.832804" y="221.102342" transform="rotate(-0 448.832804 221.102342)">0.1%</text>
   </g>
   <g id="text_5">
    <text style="fill: #262626; font: 10px 'Arial', 'Liberation Sans', 'DejaVu Sans', 'Bitstream Vera Sans', sans-serif; text-anchor: start" x="515.3616" y="220.75237" transform="rotate(-0 515.3616 220.75237)">chicago_police</text>
   </g>
   <g id="text_6">
    <text style="fill: #262626; font: 10px 'Arial', 'Liberation Sans', 'DejaVu Sans', 'Bitstream Vera Sans', sans-serif; text-anchor: middle" x="448.8336" y="220.749446" transform="rotate(-0 448.8336 220.749446)">0.0%</text>
   </g>
   <g id="text_7">
    <text style="fill: #262626; font: 12px 'Arial', 'Liberation Sans', 'DejaVu Sans', 'Bitstream Vera Sans', sans-serif; text-anchor: middle" x="369" y="45.84" transform="rotate(-0 369 45.84)">Incidents by Source</text>
   </g>
  </g>
 </g>
</svg>
