<?xml version="1.0" encoding="utf-8" standalone="no"?>
<!DOCTYPE svg PUBLIC "-//W3C//DTD SVG 1.1//EN"
  "http://www.w3.org/Graphics/SVG/1.1/DTD/svg11.dtd">
<svg xmlns:xlink="http://www.w3.org/1999/xlink" width="720pt" height="432pt" viewBox="0 0 720 432" xmlns="http://www.w3.org/2000/svg" version="1.1">
 <metadata>
  <rdf:RDF xmlns:dc="http://purl.org/dc/elements/1.1/" xmlns:cc="http://creativecommons.org/ns#" xmlns:rdf="http://www.w3.org/1999/02/22-rdf-syntax-ns#">
   <cc:Work>
    <dc:type rdf:resource="http://purl.org/dc/dcmitype/StillImage"/>
    <dc:date>2025-11-26T01:09:14.266004</dc:date>
    <dc:format>image/svg+xml</dc:format>
    <dc:creator>
     <cc:Agent>
      <dc:title>Matplotlib v3.7.5, https://matplotlib.org/</dc:title>
     </cc:Agent>
    </dc:creator>
   </cc:Work>
  </rdf:RDF>
 </metadata>
 <defs>
  <style type="text/css">*{stroke-linejoin: round; stroke-linecap: butt}</style>
 </defs>
 <g id="figure_1">
  <g id="patch_1">
   <path d="M 0 432 
L 720 432 
L 720 0 
L 0 0 
z
" style="fill: #ffffff"/>
  </g>
  <g id="axes_1">
   <g id="matplotlib.axis_1"/>
   <g id="matplotlib.axis_2"/>
   <g id="patch_2">
    <path d="M 502.056 218.16 
C 502.056 200.711702 498.623876 183.432591 491.955507 167.30882 
C 485.287138 151.18505 475.511842 136.529309 463.187517 124.178029 
C 450.863191 111.826749 436.228841 102.019459 420.119677 95.31588 
C 404.010514 88.612302 386.738942 85.142437 369.290685 85.104318 
C 351.842429 85.066198 334.555861 88.460565 318.417561 95.093693 
C 302.279261 101.726821 287.602199 111.470075 275.224023 123.767387 
C 262.845848 136.0647 253.00661 150.677589 246.267854 166.772069 
C 239.529098 182.866549 236.021508 200.130499 235.94527 217.57863 
C 235.869032 235.026762 239.225625 252.320705 245.82348 268.473457 
C 252.421335 284.62621 262.132501 299.324523 274.402741 311.729535 
C 286.672982 324.134546 301.264341 334.005685 317.344061 340.779587 
C 333.42378 347.553488 350.680026 351.098786 368.127949 351.213142 
C 385.575873 351.327499 402.877107 348.008696 419.044235 341.446145 
C 435.211364 334.883595 449.930858 325.204563 462.362646 312.961453 
C 474.794434 300.718342 484.697428 286.148583 491.506442 270.083701 
C 498.315457 254.018819 501.898445 236.77036 502.05092 219.322728 
L 369 218.16 
z
" style="fill: #f77189"/>
   </g>
   <g id="patch_3">
    <path d="M 502.05092 219.322728 
C 502.052596 219.130863 502.053858 218.938994 502.054705 218.747123 
C 502.055551 218.555252 502.055983 218.36338 502.056 218.171508 
L 369 218.16 
z
" style="fill: #bb9832"/>
   </g>
   <g id="patch_4">
    <path d="M 502.056 218.171508 
C 502.056 218.169589 502.056 218.16767 502.056 218.165751 
C 502.056 218.163833 502.056 218.161914 502.056 218.159995 
L 369 218.16 
z
" style="fill: #50b131"/>
   </g>
   <g id="text_1">
    <text style="fill: #262626; font: 10px 'Arial', 'Liberation Sans', 'DejaVu Sans', 'Bitstream Vera Sans', sans-serif; text-anchor: end" x="222.639797" y="220.106431" transform="rotate(-0 222.639797 220.106431)">newsapi</text>
   </g>
   <g id="text_2">
    <text style="fill: #262626; font: 10px 'Arial', 'Liberation Sans', 'DejaVu Sans', 'Bitstream Vera Sans', sans-serif; text-anchor: middle" x="289.167162" y="220.397116" transform="rotate(-0 289.167162 220.397116)">99.9%</text>
   </g>
   <g id="text_3">
    <text style="fill: #262626; font: 10px 'Arial', 'Liberation Sans', 'DejaVu Sans', 'Bitstream Vera Sans', sans-serif; text-anchor: start" x="515.360175" y="221.391773" transform="rotate(-0 515.360175 221.391773)">chicago_pd</text>
   </g>
   <g id="text_4">
    <text style="fill: #262626; font: 10px 'Arial', 'Liberation Sans', 'DejaVu Sans', 'Bitstream Vera Sans', sans-serif; text-anchor: middle" x="448.832823" y="221.098211" transform="rotate(-0 448.832823 221.098211)">0.1%</text>
   </g>
   <g id="text_5">
    <text style="fill: #262626; font: 10px 'Arial', 'Liberation Sans', 'DejaVu Sans', 'Bitstream Vera Sans', sans-serif; text-anchor: start" x="515.3616" y="220.752264" transform="rotate(-0 515.3616 220.752264)">chicago_police</text>
   </g>
   <g id="text_6">
    <text style="fill: #262626; font: 10px 'Arial', 'Liberation Sans', 'DejaVu Sans', 'Bitstream Vera Sans', sans-serif; text-anchor: middle" x="448.8336" y="220.749388" transform="rotate(-0 448.8336 220.749388)">0.0%</text>
   </g>
   <g id="text_7">
    <text style="fill: #262626; font: 12px 'Arial', 'Liberation Sans', 'DejaVu Sans', 'Bitstream Vera Sans', sans-serif; text-anchor: middle" x="369" y="45.84" transform="rotate(-0 369 45.84)">Incidents by Source</text>
   </g>
  </g>
 </g>
</svg>
