<?xml version="1.0" encoding="utf-8" standalone="no"?>
<!DOCTYPE svg PUBLIC "-//W3C//DTD SVG 1.1//EN"
  "http://www.w3.org/Graphics/SVG/1.1/DTD/svg11.dtd">
<svg xmlns:xlink="http://www.w3.org/1999/xlink" width="720pt" height="432pt" viewBox="0 0 720 432" xmlns="http://www.w3.org/2000/svg" version="1.1">
 <metadata>
  <rdf:RDF xmlns:dc="http://purl.org/dc/elements/1.1/" xmlns:cc="http://creativecommons.org/ns#" xmlns:rdf="http://www.w3.org/1999/02/22-rdf-syntax-ns#">
   <cc:Work>
    <dc:type rdf:resource="http://purl.org/dc/dcmitype/StillImage"/>
    <dc:date>2025-08-15T18:21:27.947534</dc:date>
    <dc:format>image/svg+xml</dc:format>
    <dc:creator>
     <cc:Agent>
      <dc:title>Matplotlib v3.7.5, https://matplotlib.org/</dc:title>
     </cc:Agent>
    </dc:creator>
   </cc:Work>
  </rdf:RDF>
 </metadata>
 <defs>
  <style type="text/css">*{stroke-linejoin: round; stroke-linecap: butt}</style>
 </defs>
 <g id="figure_1">
  <g id="patch_1">
   <path d="M 0 432 
L 720 432 
L 720 0 
L 0 0 
z
" style="fill: #ffffff"/>
  </g>
  <g id="axes_1">
   <g id="matplotlib.axis_1"/>
   <g id="matplotlib.axis_2"/>
   <g id="patch_2">
    <path d="M 502.056 218.16 
C 502.056 200.721752 498.627829 183.452397 491.966917 167.336419 
C 485.306006 151.22044 475.54138 136.570012 463.229695 124.220319 
C 450.91801 111.870625 436.297752 102.060886 420.202382 95.350329 
C 404.107011 88.639772 386.848307 85.158385 369.410141 85.104632 
C 351.971975 85.050879 334.692136 88.425802 318.555702 95.037005 
C 302.419268 101.648208 287.738811 111.367628 275.351225 123.641186 
C 262.96364 135.914745 253.108881 150.504696 246.348742 166.579305 
C 239.588604 182.653913 236.054034 199.901805 235.946528 217.339722 
C 235.839023 234.777639 239.160665 252.067799 245.722097 268.224536 
C 252.283528 284.381272 261.95765 299.091619 274.192966 311.516979 
C 286.428282 323.942338 300.987787 333.842023 317.041481 340.651679 
C 333.095175 347.461335 350.33209 351.049054 367.769593 351.210311 
C 385.207096 351.371567 402.507413 348.103237 418.684298 341.59164 
C 434.861183 335.080042 449.60128 325.45131 462.064295 313.254353 
C 474.527311 301.057396 484.471828 286.528476 491.330937 270.495849 
C 498.190045 254.463221 501.83088 237.237448 502.045886 219.800525 
L 369 218.16 
z
" style="fill: #f77189"/>
   </g>
   <g id="patch_3">
    <path d="M 502.045886 219.800525 
C 502.049224 219.529827 502.051736 219.25912 502.053421 218.988407 
C 502.055107 218.717694 502.055966 218.446976 502.055999 218.176258 
L 369 218.16 
z
" style="fill: #bb9832"/>
   </g>
   <g id="patch_4">
    <path d="M 502.055999 218.176258 
C 502.055999 218.17355 502.056 218.170843 502.056 218.168136 
C 502.056 218.165429 502.056 218.162722 502.056 218.160015 
L 369 218.16 
z
" style="fill: #50b131"/>
   </g>
   <g id="text_1">
    <text style="fill: #262626; font: 10px 'Arial', 'Liberation Sans', 'DejaVu Sans', 'Bitstream Vera Sans', sans-serif; text-anchor: end" x="222.641181" y="219.843632" transform="rotate(-0 222.641181 219.843632)">newsapi</text>
   </g>
   <g id="text_2">
    <text style="fill: #262626; font: 10px 'Arial', 'Liberation Sans', 'DejaVu Sans', 'Bitstream Vera Sans', sans-serif; text-anchor: middle" x="289.167917" y="220.253771" transform="rotate(-0 289.167917 220.253771)">99.8%</text>
   </g>
   <g id="text_3">
    <text style="fill: #262626; font: 10px 'Arial', 'Liberation Sans', 'DejaVu Sans', 'Bitstream Vera Sans', sans-serif; text-anchor: start" x="515.358763" y="221.657185" transform="rotate(-0 515.358763 221.657185)">chicago_pd</text>
   </g>
   <g id="text_4">
    <text style="fill: #262626; font: 10px 'Arial', 'Liberation Sans', 'DejaVu Sans', 'Bitstream Vera Sans', sans-serif; text-anchor: middle" x="448.832053" y="221.242982" transform="rotate(-0 448.832053 221.242982)">0.2%</text>
   </g>
   <g id="text_5">
    <text style="fill: #262626; font: 10px 'Arial', 'Liberation Sans', 'DejaVu Sans', 'Bitstream Vera Sans', sans-serif; text-anchor: start" x="515.3616" y="220.754887" transform="rotate(-0 515.3616 220.754887)">chicago_police</text>
   </g>
   <g id="text_6">
    <text style="fill: #262626; font: 10px 'Arial', 'Liberation Sans', 'DejaVu Sans', 'Bitstream Vera Sans', sans-serif; text-anchor: middle" x="448.8336" y="220.750819" transform="rotate(-0 448.8336 220.750819)">0.0%</text>
   </g>
   <g id="text_7">
    <text style="fill: #262626; font: 12px 'Arial', 'Liberation Sans', 'DejaVu Sans', 'Bitstream Vera Sans', sans-serif; text-anchor: middle" x="369" y="45.84" transform="rotate(-0 369 45.84)">Incidents by Source</text>
   </g>
  </g>
 </g>
</svg>
