<?xml version="1.0" encoding="utf-8" standalone="no"?>
<!DOCTYPE svg PUBLIC "-//W3C//DTD SVG 1.1//EN"
  "http://www.w3.org/Graphics/SVG/1.1/DTD/svg11.dtd">
<svg xmlns:xlink="http://www.w3.org/1999/xlink" width="720pt" height="432pt" viewBox="0 0 720 432" xmlns="http://www.w3.org/2000/svg" version="1.1">
 <metadata>
  <rdf:RDF xmlns:dc="http://purl.org/dc/elements/1.1/" xmlns:cc="http://creativecommons.org/ns#" xmlns:rdf="http://www.w3.org/1999/02/22-rdf-syntax-ns#">
   <cc:Work>
    <dc:type rdf:resource="http://purl.org/dc/dcmitype/StillImage"/>
    <dc:date>2026-06-24T02:42:38.611572</dc:date>
    <dc:format>image/svg+xml</dc:format>
    <dc:creator>
     <cc:Agent>
      <dc:title>Matplotlib v3.7.5, https://matplotlib.org/</dc:title>
     </cc:Agent>
    </dc:creator>
   </cc:Work>
  </rdf:RDF>
 </metadata>
 <defs>
  <style type="text/css">*{stroke-linejoin: round; stroke-linecap: butt}</style>
 </defs>
 <g id="figure_1">
  <g id="patch_1">
   <path d="M 0 432 
L 720 432 
L 720 0 
L 0 0 
z
" style="fill: #ffffff"/>
  </g>
  <g id="axes_1">
   <g id="matplotlib.axis_1"/>
   <g id="matplotlib.axis_2"/>
   <g id="patch_2">
    <path d="M 502.056 218.16 
C 502.056 200.702909 498.620416 183.41526 491.945518 167.284675 
C 485.27062 151.15409 475.485986 136.493703 463.150597 124.141043 
C 450.815208 111.788383 436.168525 101.983245 420.047295 95.285785 
C 403.926065 88.588324 386.643241 85.128555 369.186166 85.10413 
C 351.729092 85.079705 334.436654 88.491097 318.296745 95.143419 
C 302.156836 101.795741 287.482774 111.559854 275.112866 123.877948 
C 262.742959 136.196042 252.917338 150.828991 246.197328 166.940834 
C 239.477318 183.052678 235.993371 200.330645 235.944521 217.787668 
C 235.895671 235.244691 239.282865 252.541885 245.912598 268.691086 
C 252.542331 284.840286 262.285903 299.527996 274.586678 311.915126 
C 286.887452 324.302256 301.506639 334.148341 317.609064 340.890888 
C 333.71149 347.633434 350.984565 351.141552 368.441502 351.214828 
C 385.89844 351.288103 403.200357 347.925114 419.358817 341.317982 
C 435.517278 334.710851 450.218606 324.987839 462.622935 312.704408 
C 475.027264 300.420978 484.893794 285.815581 491.658864 269.722605 
C 498.423933 253.62963 501.956216 236.36148 502.053916 218.904662 
L 369 218.16 
z
" style="fill: #f77189"/>
   </g>
   <g id="patch_3">
    <path d="M 502.053916 218.904662 
C 502.054604 218.781783 502.055121 218.658903 502.055469 218.536022 
C 502.055816 218.413142 502.055993 218.290261 502.056 218.16738 
L 369 218.16 
z
" style="fill: #bb9832"/>
   </g>
   <g id="patch_4">
    <path d="M 502.056 218.16738 
C 502.056 218.166151 502.056 218.164922 502.056 218.163694 
C 502.056 218.162465 502.056 218.161236 502.056 218.160007 
L 369 218.16 
z
" style="fill: #50b131"/>
   </g>
   <g id="text_1">
    <text style="fill: #262626; font: 10px 'Arial', 'Liberation Sans', 'DejaVu Sans', 'Bitstream Vera Sans', sans-serif; text-anchor: end" x="222.638973" y="220.336372" transform="rotate(-0 222.638973 220.336372)">newsapi</text>
   </g>
   <g id="text_2">
    <text style="fill: #262626; font: 10px 'Arial', 'Liberation Sans', 'DejaVu Sans', 'Bitstream Vera Sans', sans-serif; text-anchor: middle" x="289.166713" y="220.522538" transform="rotate(-0 289.166713 220.522538)">99.9%</text>
   </g>
   <g id="text_3">
    <text style="fill: #262626; font: 10px 'Arial', 'Liberation Sans', 'DejaVu Sans', 'Bitstream Vera Sans', sans-serif; text-anchor: start" x="515.361016" y="221.159562" transform="rotate(-0 515.361016 221.159562)">chicago_pd</text>
   </g>
   <g id="text_4">
    <text style="fill: #262626; font: 10px 'Arial', 'Liberation Sans', 'DejaVu Sans', 'Bitstream Vera Sans', sans-serif; text-anchor: middle" x="448.833281" y="220.971551" transform="rotate(-0 448.833281 220.971551)">0.1%</text>
   </g>
   <g id="text_5">
    <text style="fill: #262626; font: 10px 'Arial', 'Liberation Sans', 'DejaVu Sans', 'Bitstream Vera Sans', sans-serif; text-anchor: start" x="515.3616" y="220.75" transform="rotate(-0 515.3616 220.75)">chicago_police</text>
   </g>
   <g id="text_6">
    <text style="fill: #262626; font: 10px 'Arial', 'Liberation Sans', 'DejaVu Sans', 'Bitstream Vera Sans', sans-serif; text-anchor: middle" x="448.8336" y="220.748154" transform="rotate(-0 448.8336 220.748154)">0.0%</text>
   </g>
   <g id="text_7">
    <text style="fill: #262626; font: 12px 'Arial', 'Liberation Sans', 'DejaVu Sans', 'Bitstream Vera Sans', sans-serif; text-anchor: middle" x="369" y="45.84" transform="rotate(-0 369 45.84)">Incidents by Source</text>
   </g>
  </g>
 </g>
</svg>
