<?xml version="1.0" encoding="utf-8" standalone="no"?>
<!DOCTYPE svg PUBLIC "-//W3C//DTD SVG 1.1//EN"
  "http://www.w3.org/Graphics/SVG/1.1/DTD/svg11.dtd">
<svg xmlns:xlink="http://www.w3.org/1999/xlink" width="720pt" height="432pt" viewBox="0 0 720 432" xmlns="http://www.w3.org/2000/svg" version="1.1">
 <metadata>
  <rdf:RDF xmlns:dc="http://purl.org/dc/elements/1.1/" xmlns:cc="http://creativecommons.org/ns#" xmlns:rdf="http://www.w3.org/1999/02/22-rdf-syntax-ns#">
   <cc:Work>
    <dc:type rdf:resource="http://purl.org/dc/dcmitype/StillImage"/>
    <dc:date>2026-02-21T02:27:12.220163</dc:date>
    <dc:format>image/svg+xml</dc:format>
    <dc:creator>
     <cc:Agent>
      <dc:title>Matplotlib v3.7.5, https://matplotlib.org/</dc:title>
     </cc:Agent>
    </dc:creator>
   </cc:Work>
  </rdf:RDF>
 </metadata>
 <defs>
  <style type="text/css">*{stroke-linejoin: round; stroke-linecap: butt}</style>
 </defs>
 <g id="figure_1">
  <g id="patch_1">
   <path d="M 0 432 
L 720 432 
L 720 0 
L 0 0 
z
" style="fill: #ffffff"/>
  </g>
  <g id="axes_1">
   <g id="matplotlib.axis_1"/>
   <g id="matplotlib.axis_2"/>
   <g id="patch_2">
    <path d="M 502.056 218.16 
C 502.056 200.706892 498.621984 183.423112 491.950044 167.295614 
C 485.278104 151.168116 475.497701 136.509833 463.167325 124.157797 
C 450.836948 111.805762 436.195853 101.999648 420.080089 95.299414 
C 403.964326 88.59918 386.686598 85.134836 369.233518 85.104205 
C 351.780437 85.073574 334.490656 88.477251 318.351473 95.120877 
C 302.212291 101.764502 287.536866 111.519164 275.163209 123.827843 
C 262.789552 136.136523 252.957757 150.760385 246.22925 166.864365 
C 239.500743 182.968345 236.006081 200.239965 235.94482 217.692965 
C 235.883558 235.145966 239.256886 252.441693 245.872176 268.592511 
C 252.487466 284.743328 262.216358 299.435851 274.503302 311.831091 
C 286.790246 324.226331 301.396831 334.083775 317.488977 340.840535 
C 333.581123 347.597295 350.846584 351.122264 368.29945 351.214156 
C 385.752316 351.306048 403.053937 347.96308 419.21634 341.376145 
C 435.378743 334.78921 450.088317 325.086119 462.505102 312.820948 
C 474.921886 300.555777 484.804951 285.966515 491.589943 269.886252 
C 498.374934 253.805989 501.930199 236.546741 502.052721 219.094063 
L 369 218.16 
z
" style="fill: #f77189"/>
   </g>
   <g id="patch_3">
    <path d="M 502.052721 219.094063 
C 502.053803 218.939928 502.054618 218.78579 502.055164 218.631652 
C 502.05571 218.477513 502.055989 218.323374 502.056 218.169234 
L 369 218.16 
z
" style="fill: #bb9832"/>
   </g>
   <g id="patch_4">
    <path d="M 502.056 218.169234 
C 502.056 218.167693 502.056 218.166151 502.056 218.16461 
C 502.056 218.163069 502.056 218.161527 502.056 218.159986 
L 369 218.16 
z
" style="fill: #50b131"/>
   </g>
   <g id="text_1">
    <text style="fill: #262626; font: 10px 'Arial', 'Liberation Sans', 'DejaVu Sans', 'Bitstream Vera Sans', sans-serif; text-anchor: end" x="222.639302" y="220.2322" transform="rotate(-0 222.639302 220.2322)">newsapi</text>
   </g>
   <g id="text_2">
    <text style="fill: #262626; font: 10px 'Arial', 'Liberation Sans', 'DejaVu Sans', 'Bitstream Vera Sans', sans-serif; text-anchor: middle" x="289.166892" y="220.465717" transform="rotate(-0 289.166892 220.465717)">99.9%</text>
   </g>
   <g id="text_3">
    <text style="fill: #262626; font: 10px 'Arial', 'Liberation Sans', 'DejaVu Sans', 'Bitstream Vera Sans', sans-serif; text-anchor: start" x="515.36068" y="221.264754" transform="rotate(-0 515.36068 221.264754)">chicago_pd</text>
   </g>
   <g id="text_4">
    <text style="fill: #262626; font: 10px 'Arial', 'Liberation Sans', 'DejaVu Sans', 'Bitstream Vera Sans', sans-serif; text-anchor: middle" x="448.833098" y="221.028928" transform="rotate(-0 448.833098 221.028928)">0.1%</text>
   </g>
   <g id="text_5">
    <text style="fill: #262626; font: 10px 'Arial', 'Liberation Sans', 'DejaVu Sans', 'Bitstream Vera Sans', sans-serif; text-anchor: start" x="515.3616" y="220.751008" transform="rotate(-0 515.3616 220.751008)">chicago_police</text>
   </g>
   <g id="text_6">
    <text style="fill: #262626; font: 10px 'Arial', 'Liberation Sans', 'DejaVu Sans', 'Bitstream Vera Sans', sans-serif; text-anchor: middle" x="448.8336" y="220.748703" transform="rotate(-0 448.8336 220.748703)">0.0%</text>
   </g>
   <g id="text_7">
    <text style="fill: #262626; font: 12px 'Arial', 'Liberation Sans', 'DejaVu Sans', 'Bitstream Vera Sans', sans-serif; text-anchor: middle" x="369" y="45.84" transform="rotate(-0 369 45.84)">Incidents by Source</text>
   </g>
  </g>
 </g>
</svg>
