<?xml version="1.0" encoding="utf-8" standalone="no"?>
<!DOCTYPE svg PUBLIC "-//W3C//DTD SVG 1.1//EN"
  "http://www.w3.org/Graphics/SVG/1.1/DTD/svg11.dtd">
<svg xmlns:xlink="http://www.w3.org/1999/xlink" width="720pt" height="432pt" viewBox="0 0 720 432" xmlns="http://www.w3.org/2000/svg" version="1.1">
 <metadata>
  <rdf:RDF xmlns:dc="http://purl.org/dc/elements/1.1/" xmlns:cc="http://creativecommons.org/ns#" xmlns:rdf="http://www.w3.org/1999/02/22-rdf-syntax-ns#">
   <cc:Work>
    <dc:type rdf:resource="http://purl.org/dc/dcmitype/StillImage"/>
    <dc:date>2026-03-30T07:20:50.412675</dc:date>
    <dc:format>image/svg+xml</dc:format>
    <dc:creator>
     <cc:Agent>
      <dc:title>Matplotlib v3.7.5, https://matplotlib.org/</dc:title>
     </cc:Agent>
    </dc:creator>
   </cc:Work>
  </rdf:RDF>
 </metadata>
 <defs>
  <style type="text/css">*{stroke-linejoin: round; stroke-linecap: butt}</style>
 </defs>
 <g id="figure_1">
  <g id="patch_1">
   <path d="M 0 432 
L 720 432 
L 720 0 
L 0 0 
z
" style="fill: #ffffff"/>
  </g>
  <g id="axes_1">
   <g id="matplotlib.axis_1"/>
   <g id="matplotlib.axis_2"/>
   <g id="patch_2">
    <path d="M 502.056 218.16 
C 502.056 200.70566 498.621499 183.420683 491.948644 167.292229 
C 485.275789 151.163776 475.494077 136.504842 463.162149 124.152613 
C 450.830222 111.800384 436.187398 101.994572 420.069943 95.295196 
C 403.952488 88.59582 386.673184 85.132891 369.218868 85.10418 
C 351.764551 85.075469 334.473948 88.481533 318.33454 95.127849 
C 302.195132 101.774164 287.520128 111.531751 275.14763 123.843343 
C 262.775133 136.154935 252.945248 150.781609 246.219369 166.888022 
C 239.49349 182.994435 236.002142 200.26802 235.94472 217.722266 
C 235.887298 235.176511 239.264915 252.472694 245.884674 268.623013 
C 252.504433 284.773331 262.237866 299.464366 274.52909 311.857099 
C 286.820313 324.249831 301.430798 334.103763 317.526126 340.856126 
C 333.621454 347.60849 350.889272 351.128247 368.3434 351.21438 
C 385.797528 351.300513 403.099243 347.951351 419.260429 341.358167 
C 435.421614 334.764984 450.12864 325.055729 462.541574 312.784907 
C 474.954508 300.514086 484.832459 285.91983 491.61129 269.835631 
C 498.39012 253.751432 501.938276 236.489427 502.05312 219.035464 
L 369 218.16 
z
" style="fill: #f77189"/>
   </g>
   <g id="patch_3">
    <path d="M 502.05312 219.035464 
C 502.05407 218.890998 502.054786 218.746531 502.055266 218.602063 
C 502.055746 218.457595 502.05599 218.313126 502.056 218.168657 
L 369 218.16 
z
" style="fill: #bb9832"/>
   </g>
   <g id="patch_4">
    <path d="M 502.056 218.168657 
C 502.056 218.167212 502.056 218.165768 502.056 218.164323 
C 502.056 218.162878 502.056 218.161434 502.056 218.159989 
L 369 218.16 
z
" style="fill: #50b131"/>
   </g>
   <g id="text_1">
    <text style="fill: #262626; font: 10px 'Arial', 'Liberation Sans', 'DejaVu Sans', 'Bitstream Vera Sans', sans-serif; text-anchor: end" x="222.639192" y="220.26443" transform="rotate(-0 222.639192 220.26443)">newsapi</text>
   </g>
   <g id="text_2">
    <text style="fill: #262626; font: 10px 'Arial', 'Liberation Sans', 'DejaVu Sans', 'Bitstream Vera Sans', sans-serif; text-anchor: middle" x="289.166832" y="220.483297" transform="rotate(-0 289.166832 220.483297)">99.9%</text>
   </g>
   <g id="text_3">
    <text style="fill: #262626; font: 10px 'Arial', 'Liberation Sans', 'DejaVu Sans', 'Bitstream Vera Sans', sans-serif; text-anchor: start" x="515.360792" y="221.232207" transform="rotate(-0 515.360792 221.232207)">chicago_pd</text>
   </g>
   <g id="text_4">
    <text style="fill: #262626; font: 10px 'Arial', 'Liberation Sans', 'DejaVu Sans', 'Bitstream Vera Sans', sans-serif; text-anchor: middle" x="448.833159" y="221.011175" transform="rotate(-0 448.833159 221.011175)">0.1%</text>
   </g>
   <g id="text_5">
    <text style="fill: #262626; font: 10px 'Arial', 'Liberation Sans', 'DejaVu Sans', 'Bitstream Vera Sans', sans-serif; text-anchor: start" x="515.3616" y="220.750693" transform="rotate(-0 515.3616 220.750693)">chicago_police</text>
   </g>
   <g id="text_6">
    <text style="fill: #262626; font: 10px 'Arial', 'Liberation Sans', 'DejaVu Sans', 'Bitstream Vera Sans', sans-serif; text-anchor: middle" x="448.8336" y="220.748531" transform="rotate(-0 448.8336 220.748531)">0.0%</text>
   </g>
   <g id="text_7">
    <text style="fill: #262626; font: 12px 'Arial', 'Liberation Sans', 'DejaVu Sans', 'Bitstream Vera Sans', sans-serif; text-anchor: middle" x="369" y="45.84" transform="rotate(-0 369 45.84)">Incidents by Source</text>
   </g>
  </g>
 </g>
</svg>
