<?xml version="1.0" encoding="utf-8" standalone="no"?>
<!DOCTYPE svg PUBLIC "-//W3C//DTD SVG 1.1//EN"
  "http://www.w3.org/Graphics/SVG/1.1/DTD/svg11.dtd">
<svg xmlns:xlink="http://www.w3.org/1999/xlink" width="720pt" height="432pt" viewBox="0 0 720 432" xmlns="http://www.w3.org/2000/svg" version="1.1">
 <metadata>
  <rdf:RDF xmlns:dc="http://purl.org/dc/elements/1.1/" xmlns:cc="http://creativecommons.org/ns#" xmlns:rdf="http://www.w3.org/1999/02/22-rdf-syntax-ns#">
   <cc:Work>
    <dc:type rdf:resource="http://purl.org/dc/dcmitype/StillImage"/>
    <dc:date>2026-07-15T19:03:15.858801</dc:date>
    <dc:format>image/svg+xml</dc:format>
    <dc:creator>
     <cc:Agent>
      <dc:title>Matplotlib v3.7.5, https://matplotlib.org/</dc:title>
     </cc:Agent>
    </dc:creator>
   </cc:Work>
  </rdf:RDF>
 </metadata>
 <defs>
  <style type="text/css">*{stroke-linejoin: round; stroke-linecap: butt}</style>
 </defs>
 <g id="figure_1">
  <g id="patch_1">
   <path d="M 0 432 
L 720 432 
L 720 0 
L 0 0 
z
" style="fill: #ffffff"/>
  </g>
  <g id="axes_1">
   <g id="matplotlib.axis_1"/>
   <g id="matplotlib.axis_2"/>
   <g id="patch_2">
    <path d="M 502.056 218.16 
C 502.056 200.702265 498.620163 183.413992 491.944787 167.282908 
C 485.269411 151.151824 475.484093 136.491098 463.147894 124.138337 
C 450.811695 111.785576 436.164111 101.980596 420.041997 95.283584 
C 403.919884 88.586572 386.636237 85.127542 369.178517 85.10412 
C 351.720798 85.080697 334.427931 88.493336 318.287905 95.147063 
C 302.14788 101.80079 287.474038 111.56643 275.104737 123.886044 
C 262.735436 136.205659 252.910813 150.840075 246.192176 166.953189 
C 239.473539 183.066302 235.991324 200.345293 235.944479 217.802966 
C 235.897634 235.260638 239.287069 252.558068 245.919135 268.707006 
C 252.551201 284.855944 262.297145 299.542875 274.600153 311.928694 
C 286.903161 324.314513 301.524382 334.158761 317.628467 340.899011 
C 333.732552 347.63926 351.006856 351.144655 368.464449 351.214922 
C 385.922043 351.28519 403.224005 347.918966 419.381826 341.308572 
C 435.539648 334.698178 450.239642 324.971948 462.641956 312.685569 
C 475.04427 300.39919 484.908127 285.791189 491.669977 269.696162 
C 498.431826 253.601135 501.960394 236.33155 502.054084 218.874066 
L 369 218.16 
z
" style="fill: #f77189"/>
   </g>
   <g id="patch_3">
    <path d="M 502.054084 218.874066 
C 502.054716 218.756235 502.055192 218.638404 502.055511 218.520571 
C 502.055831 218.402739 502.055994 218.284907 502.056 218.167074 
L 369 218.16 
z
" style="fill: #bb9832"/>
   </g>
   <g id="patch_4">
    <path d="M 502.056 218.167074 
C 502.056 218.165896 502.056 218.164717 502.056 218.163539 
C 502.056 218.162361 502.056 218.161182 502.056 218.160004 
L 369 218.16 
z
" style="fill: #50b131"/>
   </g>
   <g id="text_1">
    <text style="fill: #262626; font: 10px 'Arial', 'Liberation Sans', 'DejaVu Sans', 'Bitstream Vera Sans', sans-serif; text-anchor: end" x="222.638927" y="220.3532" transform="rotate(-0 222.638927 220.3532)">newsapi</text>
   </g>
   <g id="text_2">
    <text style="fill: #262626; font: 10px 'Arial', 'Liberation Sans', 'DejaVu Sans', 'Bitstream Vera Sans', sans-serif; text-anchor: middle" x="289.166687" y="220.531717" transform="rotate(-0 289.166687 220.531717)">99.9%</text>
   </g>
   <g id="text_3">
    <text style="fill: #262626; font: 10px 'Arial', 'Liberation Sans', 'DejaVu Sans', 'Bitstream Vera Sans', sans-serif; text-anchor: start" x="515.361063" y="221.142566" transform="rotate(-0 515.361063 221.142566)">chicago_pd</text>
   </g>
   <g id="text_4">
    <text style="fill: #262626; font: 10px 'Arial', 'Liberation Sans', 'DejaVu Sans', 'Bitstream Vera Sans', sans-serif; text-anchor: middle" x="448.833307" y="220.96228" transform="rotate(-0 448.833307 220.96228)">0.1%</text>
   </g>
   <g id="text_5">
    <text style="fill: #262626; font: 10px 'Arial', 'Liberation Sans', 'DejaVu Sans', 'Bitstream Vera Sans', sans-serif; text-anchor: start" x="515.3616" y="220.74983" transform="rotate(-0 515.3616 220.74983)">chicago_police</text>
   </g>
   <g id="text_6">
    <text style="fill: #262626; font: 10px 'Arial', 'Liberation Sans', 'DejaVu Sans', 'Bitstream Vera Sans', sans-serif; text-anchor: middle" x="448.8336" y="220.748061" transform="rotate(-0 448.8336 220.748061)">0.0%</text>
   </g>
   <g id="text_7">
    <text style="fill: #262626; font: 12px 'Arial', 'Liberation Sans', 'DejaVu Sans', 'Bitstream Vera Sans', sans-serif; text-anchor: middle" x="369" y="45.84" transform="rotate(-0 369 45.84)">Incidents by Source</text>
   </g>
  </g>
 </g>
</svg>
