<?xml version="1.0" encoding="utf-8" standalone="no"?>
<!DOCTYPE svg PUBLIC "-//W3C//DTD SVG 1.1//EN"
  "http://www.w3.org/Graphics/SVG/1.1/DTD/svg11.dtd">
<svg xmlns:xlink="http://www.w3.org/1999/xlink" width="720pt" height="432pt" viewBox="0 0 720 432" xmlns="http://www.w3.org/2000/svg" version="1.1">
 <metadata>
  <rdf:RDF xmlns:dc="http://purl.org/dc/elements/1.1/" xmlns:cc="http://creativecommons.org/ns#" xmlns:rdf="http://www.w3.org/1999/02/22-rdf-syntax-ns#">
   <cc:Work>
    <dc:type rdf:resource="http://purl.org/dc/dcmitype/StillImage"/>
    <dc:date>2026-06-23T14:37:01.097759</dc:date>
    <dc:format>image/svg+xml</dc:format>
    <dc:creator>
     <cc:Agent>
      <dc:title>Matplotlib v3.7.5, https://matplotlib.org/</dc:title>
     </cc:Agent>
    </dc:creator>
   </cc:Work>
  </rdf:RDF>
 </metadata>
 <defs>
  <style type="text/css">*{stroke-linejoin: round; stroke-linecap: butt}</style>
 </defs>
 <g id="figure_1">
  <g id="patch_1">
   <path d="M 0 432 
L 720 432 
L 720 0 
L 0 0 
z
" style="fill: #ffffff"/>
  </g>
  <g id="axes_1">
   <g id="matplotlib.axis_1"/>
   <g id="matplotlib.axis_2"/>
   <g id="patch_2">
    <path d="M 502.056 218.16 
C 502.056 200.702925 498.620423 183.415293 491.945537 167.284721 
C 485.270652 151.154149 475.486035 136.493771 463.150667 124.141113 
C 450.815299 111.788456 436.16864 101.983314 420.047433 95.285842 
C 403.926226 88.58837 386.643423 85.128582 369.186366 85.104131 
C 351.729308 85.079679 334.436881 88.491039 318.296976 95.143325 
C 302.15707 101.79561 287.483002 111.559683 275.113078 123.877737 
C 262.743155 136.195791 252.917508 150.828702 246.197462 166.940512 
C 239.477417 183.052323 235.993425 200.330263 235.944522 217.787269 
C 235.895619 235.244275 239.282755 252.541463 245.912428 268.690671 
C 252.5421 284.839878 262.28561 299.527608 274.586326 311.914773 
C 286.887042 324.301937 301.506176 334.14807 317.608559 340.890676 
C 333.710941 347.633283 350.983984 351.141471 368.440904 351.214825 
C 385.897825 351.288179 403.19974 347.925274 419.358218 341.318228 
C 435.516695 334.711181 450.218058 324.988253 462.62244 312.704899 
C 475.026821 300.421545 484.89342 285.816217 491.658574 269.723294 
C 498.423728 253.630372 501.956107 236.36226 502.053912 218.905459 
L 369 218.16 
z
" style="fill: #f77189"/>
   </g>
   <g id="patch_3">
    <path d="M 502.053912 218.905459 
C 502.054601 218.782451 502.05512 218.659442 502.055468 218.536432 
C 502.055816 218.413423 502.055993 218.290413 502.056 218.167403 
L 369 218.16 
z
" style="fill: #bb9832"/>
   </g>
   <g id="patch_4">
    <path d="M 502.056 218.167403 
C 502.056 218.166173 502.056 218.164943 502.056 218.163712 
C 502.056 218.162482 502.056 218.161252 502.056 218.160022 
L 369 218.16 
z
" style="fill: #50b131"/>
   </g>
   <g id="text_1">
    <text style="fill: #262626; font: 10px 'Arial', 'Liberation Sans', 'DejaVu Sans', 'Bitstream Vera Sans', sans-serif; text-anchor: end" x="222.638974" y="220.335933" transform="rotate(-0 222.638974 220.335933)">newsapi</text>
   </g>
   <g id="text_2">
    <text style="fill: #262626; font: 10px 'Arial', 'Liberation Sans', 'DejaVu Sans', 'Bitstream Vera Sans', sans-serif; text-anchor: middle" x="289.166713" y="220.522299" transform="rotate(-0 289.166713 220.522299)">99.9%</text>
   </g>
   <g id="text_3">
    <text style="fill: #262626; font: 10px 'Arial', 'Liberation Sans', 'DejaVu Sans', 'Bitstream Vera Sans', sans-serif; text-anchor: start" x="515.361014" y="221.160013" transform="rotate(-0 515.361014 221.160013)">chicago_pd</text>
   </g>
   <g id="text_4">
    <text style="fill: #262626; font: 10px 'Arial', 'Liberation Sans', 'DejaVu Sans', 'Bitstream Vera Sans', sans-serif; text-anchor: middle" x="448.833281" y="220.971797" transform="rotate(-0 448.833281 220.971797)">0.1%</text>
   </g>
   <g id="text_5">
    <text style="fill: #262626; font: 10px 'Arial', 'Liberation Sans', 'DejaVu Sans', 'Bitstream Vera Sans', sans-serif; text-anchor: start" x="515.3616" y="220.750021" transform="rotate(-0 515.3616 220.750021)">chicago_police</text>
   </g>
   <g id="text_6">
    <text style="fill: #262626; font: 10px 'Arial', 'Liberation Sans', 'DejaVu Sans', 'Bitstream Vera Sans', sans-serif; text-anchor: middle" x="448.8336" y="220.748165" transform="rotate(-0 448.8336 220.748165)">0.0%</text>
   </g>
   <g id="text_7">
    <text style="fill: #262626; font: 12px 'Arial', 'Liberation Sans', 'DejaVu Sans', 'Bitstream Vera Sans', sans-serif; text-anchor: middle" x="369" y="45.84" transform="rotate(-0 369 45.84)">Incidents by Source</text>
   </g>
  </g>
 </g>
</svg>
