<?xml version="1.0" encoding="utf-8" standalone="no"?>
<!DOCTYPE svg PUBLIC "-//W3C//DTD SVG 1.1//EN"
  "http://www.w3.org/Graphics/SVG/1.1/DTD/svg11.dtd">
<svg xmlns:xlink="http://www.w3.org/1999/xlink" width="720pt" height="432pt" viewBox="0 0 720 432" xmlns="http://www.w3.org/2000/svg" version="1.1">
 <metadata>
  <rdf:RDF xmlns:dc="http://purl.org/dc/elements/1.1/" xmlns:cc="http://creativecommons.org/ns#" xmlns:rdf="http://www.w3.org/1999/02/22-rdf-syntax-ns#">
   <cc:Work>
    <dc:type rdf:resource="http://purl.org/dc/dcmitype/StillImage"/>
    <dc:date>2025-11-07T06:22:42.307083</dc:date>
    <dc:format>image/svg+xml</dc:format>
    <dc:creator>
     <cc:Agent>
      <dc:title>Matplotlib v3.7.5, https://matplotlib.org/</dc:title>
     </cc:Agent>
    </dc:creator>
   </cc:Work>
  </rdf:RDF>
 </metadata>
 <defs>
  <style type="text/css">*{stroke-linejoin: round; stroke-linecap: butt}</style>
 </defs>
 <g id="figure_1">
  <g id="patch_1">
   <path d="M 0 432 
L 720 432 
L 720 0 
L 0 0 
z
" style="fill: #ffffff"/>
  </g>
  <g id="axes_1">
   <g id="matplotlib.axis_1"/>
   <g id="matplotlib.axis_2"/>
   <g id="patch_2">
    <path d="M 502.056 218.16 
C 502.056 200.712904 498.624349 183.43496 491.956872 167.312122 
C 485.289395 151.189283 475.515376 136.534177 463.192563 124.183087 
C 450.86975 111.831996 436.237085 102.024412 420.129571 95.319998 
C 404.022058 88.615584 386.752025 85.14434 369.304974 85.10435 
C 351.857924 85.064359 334.57216 88.456399 318.434081 95.086904 
C 302.296003 101.717409 287.618533 111.457811 275.23923 123.752282 
C 262.859927 136.046754 253.01883 150.6569 246.277514 166.749005 
C 239.536197 182.841109 236.025378 200.10314 235.945398 217.550053 
C 235.865418 234.996966 239.217829 252.29046 245.811326 268.443693 
C 252.404824 284.596926 262.111559 299.296684 274.377624 311.704134 
C 286.643688 324.111584 301.23124 333.986143 317.307851 340.764326 
C 333.384461 347.542509 350.6384 351.092885 368.085084 351.212854 
C 385.531767 351.332824 402.8329 348.02006 419.001203 341.463604 
C 435.169507 334.907148 449.891475 325.234131 462.327007 312.996538 
C 474.762539 300.758944 484.670508 286.194064 491.485522 270.133032 
C 498.300536 254.072 501.89045 236.826244 502.050408 219.379881 
L 369 218.16 
z
" style="fill: #f77189"/>
   </g>
   <g id="patch_3">
    <path d="M 502.050408 219.379881 
C 502.052253 219.178589 502.053642 218.977294 502.054574 218.775996 
C 502.055506 218.574698 502.055981 218.373398 502.055999 218.172097 
L 369 218.16 
z
" style="fill: #bb9832"/>
   </g>
   <g id="patch_4">
    <path d="M 502.055999 218.172097 
C 502.056 218.170084 502.056 218.168071 502.056 218.166058 
C 502.056 218.164045 502.056 218.162032 502.056 218.160019 
L 369 218.16 
z
" style="fill: #50b131"/>
   </g>
   <g id="text_1">
    <text style="fill: #262626; font: 10px 'Arial', 'Liberation Sans', 'DejaVu Sans', 'Bitstream Vera Sans', sans-serif; text-anchor: end" x="222.639938" y="220.074996" transform="rotate(-0 222.639938 220.074996)">newsapi</text>
   </g>
   <g id="text_2">
    <text style="fill: #262626; font: 10px 'Arial', 'Liberation Sans', 'DejaVu Sans', 'Bitstream Vera Sans', sans-serif; text-anchor: middle" x="289.167239" y="220.379969" transform="rotate(-0 289.167239 220.379969)">99.9%</text>
   </g>
   <g id="text_3">
    <text style="fill: #262626; font: 10px 'Arial', 'Liberation Sans', 'DejaVu Sans', 'Bitstream Vera Sans', sans-serif; text-anchor: start" x="515.360031" y="221.423533" transform="rotate(-0 515.360031 221.423533)">chicago_pd</text>
   </g>
   <g id="text_4">
    <text style="fill: #262626; font: 10px 'Arial', 'Liberation Sans', 'DejaVu Sans', 'Bitstream Vera Sans', sans-serif; text-anchor: middle" x="448.832744" y="221.115535" transform="rotate(-0 448.832744 221.115535)">0.1%</text>
   </g>
   <g id="text_5">
    <text style="fill: #262626; font: 10px 'Arial', 'Liberation Sans', 'DejaVu Sans', 'Bitstream Vera Sans', sans-serif; text-anchor: start" x="515.3616" y="220.752602" transform="rotate(-0 515.3616 220.752602)">chicago_police</text>
   </g>
   <g id="text_6">
    <text style="fill: #262626; font: 10px 'Arial', 'Liberation Sans', 'DejaVu Sans', 'Bitstream Vera Sans', sans-serif; text-anchor: middle" x="448.8336" y="220.749573" transform="rotate(-0 448.8336 220.749573)">0.0%</text>
   </g>
   <g id="text_7">
    <text style="fill: #262626; font: 12px 'Arial', 'Liberation Sans', 'DejaVu Sans', 'Bitstream Vera Sans', sans-serif; text-anchor: middle" x="369" y="45.84" transform="rotate(-0 369 45.84)">Incidents by Source</text>
   </g>
  </g>
 </g>
</svg>
