<?xml version="1.0" encoding="utf-8" standalone="no"?>
<!DOCTYPE svg PUBLIC "-//W3C//DTD SVG 1.1//EN"
  "http://www.w3.org/Graphics/SVG/1.1/DTD/svg11.dtd">
<svg xmlns:xlink="http://www.w3.org/1999/xlink" width="720pt" height="432pt" viewBox="0 0 720 432" xmlns="http://www.w3.org/2000/svg" version="1.1">
 <metadata>
  <rdf:RDF xmlns:dc="http://purl.org/dc/elements/1.1/" xmlns:cc="http://creativecommons.org/ns#" xmlns:rdf="http://www.w3.org/1999/02/22-rdf-syntax-ns#">
   <cc:Work>
    <dc:type rdf:resource="http://purl.org/dc/dcmitype/StillImage"/>
    <dc:date>2025-11-24T02:01:01.956136</dc:date>
    <dc:format>image/svg+xml</dc:format>
    <dc:creator>
     <cc:Agent>
      <dc:title>Matplotlib v3.7.5, https://matplotlib.org/</dc:title>
     </cc:Agent>
    </dc:creator>
   </cc:Work>
  </rdf:RDF>
 </metadata>
 <defs>
  <style type="text/css">*{stroke-linejoin: round; stroke-linecap: butt}</style>
 </defs>
 <g id="figure_1">
  <g id="patch_1">
   <path d="M 0 432 
L 720 432 
L 720 0 
L 0 0 
z
" style="fill: #ffffff"/>
  </g>
  <g id="axes_1">
   <g id="matplotlib.axis_1"/>
   <g id="matplotlib.axis_2"/>
   <g id="patch_2">
    <path d="M 502.056 218.16 
C 502.056 200.711807 498.623917 183.432797 491.955626 167.309108 
C 485.287334 151.185419 475.51215 136.529733 463.187957 124.17847 
C 450.863763 111.827207 436.229559 102.019891 420.12054 95.316239 
C 404.01152 88.612588 386.740083 85.142602 369.291931 85.10432 
C 351.84378 85.066038 334.557282 88.460201 318.419001 95.093101 
C 302.280721 101.726 287.603623 111.469005 275.225349 123.76607 
C 262.847076 136.063135 253.007675 150.675786 246.268696 166.770058 
C 239.529716 182.864331 236.021845 200.128114 235.945281 217.576139 
C 235.868717 235.024164 239.224945 252.318068 245.82242 268.470862 
C 252.419895 284.623657 262.130675 299.322096 274.400551 311.72732 
C 286.670428 324.132544 301.261455 334.003982 317.340903 340.778257 
C 333.420352 347.552532 350.676397 351.098272 368.124212 351.213118 
C 385.572027 351.327963 402.873253 348.009687 419.040484 341.447668 
C 435.207715 334.885649 449.927425 325.207142 462.359539 312.964512 
C 474.791654 300.721883 484.695082 286.152549 491.504619 270.088002 
C 498.314157 254.023456 501.897749 236.775232 502.050876 219.327711 
L 369 218.16 
z
" style="fill: #f77189"/>
   </g>
   <g id="patch_3">
    <path d="M 502.050876 219.327711 
C 502.052567 219.135023 502.05384 218.942332 502.054694 218.749638 
C 502.055547 218.556945 502.055983 218.36425 502.055999 218.171555 
L 369 218.16 
z
" style="fill: #bb9832"/>
   </g>
   <g id="patch_4">
    <path d="M 502.055999 218.171555 
C 502.056 218.169628 502.056 218.167701 502.056 218.165774 
C 502.056 218.163847 502.056 218.16192 502.056 218.159993 
L 369 218.16 
z
" style="fill: #50b131"/>
   </g>
   <g id="text_1">
    <text style="fill: #262626; font: 10px 'Arial', 'Liberation Sans', 'DejaVu Sans', 'Bitstream Vera Sans', sans-serif; text-anchor: end" x="222.639809" y="220.10369" transform="rotate(-0 222.639809 220.10369)">newsapi</text>
   </g>
   <g id="text_2">
    <text style="fill: #262626; font: 10px 'Arial', 'Liberation Sans', 'DejaVu Sans', 'Bitstream Vera Sans', sans-serif; text-anchor: middle" x="289.167169" y="220.395621" transform="rotate(-0 289.167169 220.395621)">99.9%</text>
   </g>
   <g id="text_3">
    <text style="fill: #262626; font: 10px 'Arial', 'Liberation Sans', 'DejaVu Sans', 'Bitstream Vera Sans', sans-serif; text-anchor: start" x="515.360163" y="221.39454" transform="rotate(-0 515.360163 221.39454)">chicago_pd</text>
   </g>
   <g id="text_4">
    <text style="fill: #262626; font: 10px 'Arial', 'Liberation Sans', 'DejaVu Sans', 'Bitstream Vera Sans', sans-serif; text-anchor: middle" x="448.832816" y="221.099721" transform="rotate(-0 448.832816 221.099721)">0.1%</text>
   </g>
   <g id="text_5">
    <text style="fill: #262626; font: 10px 'Arial', 'Liberation Sans', 'DejaVu Sans', 'Bitstream Vera Sans', sans-serif; text-anchor: start" x="515.3616" y="220.752289" transform="rotate(-0 515.3616 220.752289)">chicago_police</text>
   </g>
   <g id="text_6">
    <text style="fill: #262626; font: 10px 'Arial', 'Liberation Sans', 'DejaVu Sans', 'Bitstream Vera Sans', sans-serif; text-anchor: middle" x="448.8336" y="220.749402" transform="rotate(-0 448.8336 220.749402)">0.0%</text>
   </g>
   <g id="text_7">
    <text style="fill: #262626; font: 12px 'Arial', 'Liberation Sans', 'DejaVu Sans', 'Bitstream Vera Sans', sans-serif; text-anchor: middle" x="369" y="45.84" transform="rotate(-0 369 45.84)">Incidents by Source</text>
   </g>
  </g>
 </g>
</svg>
