<?xml version="1.0" encoding="utf-8" standalone="no"?>
<!DOCTYPE svg PUBLIC "-//W3C//DTD SVG 1.1//EN"
  "http://www.w3.org/Graphics/SVG/1.1/DTD/svg11.dtd">
<svg xmlns:xlink="http://www.w3.org/1999/xlink" width="720pt" height="432pt" viewBox="0 0 720 432" xmlns="http://www.w3.org/2000/svg" version="1.1">
 <metadata>
  <rdf:RDF xmlns:dc="http://purl.org/dc/elements/1.1/" xmlns:cc="http://creativecommons.org/ns#" xmlns:rdf="http://www.w3.org/1999/02/22-rdf-syntax-ns#">
   <cc:Work>
    <dc:type rdf:resource="http://purl.org/dc/dcmitype/StillImage"/>
    <dc:date>2025-04-09T06:19:46.120915</dc:date>
    <dc:format>image/svg+xml</dc:format>
    <dc:creator>
     <cc:Agent>
      <dc:title>Matplotlib v3.7.5, https://matplotlib.org/</dc:title>
     </cc:Agent>
    </dc:creator>
   </cc:Work>
  </rdf:RDF>
 </metadata>
 <defs>
  <style type="text/css">*{stroke-linejoin: round; stroke-linecap: butt}</style>
 </defs>
 <g id="figure_1">
  <g id="patch_1">
   <path d="M 0 432 
L 720 432 
L 720 0 
L 0 0 
z
" style="fill: #ffffff"/>
  </g>
  <g id="axes_1">
   <g id="matplotlib.axis_1"/>
   <g id="matplotlib.axis_2"/>
   <g id="patch_2">
    <path d="M 502.056 218.16 
C 502.056 200.758217 498.642151 183.52427 492.008269 167.436584 
C 485.374387 151.348898 475.648434 136.717796 463.382586 124.373931 
C 451.116737 112.030067 436.547593 102.211546 420.50229 95.475799 
C 404.456987 88.740051 387.245031 85.217005 369.843598 85.106674 
C 352.442165 84.996344 335.18692 88.300858 319.057498 94.832608 
C 302.928075 101.364358 288.235602 110.997351 275.814218 123.184691 
C 263.392834 135.372031 253.48214 149.878631 246.644798 165.880906 
C 239.807456 181.88318 236.175353 199.072454 235.954697 216.472837 
C 235.734041 233.873221 238.929087 251.149071 245.358443 267.319581 
C 251.787798 283.490092 261.327445 298.243344 273.435786 310.741749 
C 285.544127 323.240153 299.9876 333.242622 315.946203 340.181284 
C 331.904806 347.119946 349.070706 350.860959 366.469341 351.191932 
C 383.867976 351.522905 401.163735 348.437455 417.374684 342.110752 
C 433.585633 335.78405 448.399072 326.338133 460.973994 314.309277 
C 473.548916 302.280422 483.642758 287.900656 490.682461 271.986367 
C 497.722164 256.072077 501.571936 238.93024 502.013213 221.534054 
L 369 218.16 
z
" style="fill: #f77189"/>
   </g>
   <g id="patch_3">
    <path d="M 502.013213 221.534054 
C 502.027334 220.9774 502.037959 220.420662 502.04509 219.863875 
C 502.052221 219.307087 502.055856 218.75026 502.055996 218.193427 
L 369 218.16 
z
" style="fill: #bb9832"/>
   </g>
   <g id="patch_4">
    <path d="M 502.055996 218.193427 
C 502.055997 218.187859 502.055998 218.182291 502.055999 218.176722 
C 502.056 218.171154 502.056 218.165586 502.056 218.160017 
L 369 218.16 
z
" style="fill: #50b131"/>
   </g>
   <g id="text_1">
    <text style="fill: #262626; font: 10px 'Arial', 'Liberation Sans', 'DejaVu Sans', 'Bitstream Vera Sans', sans-serif; text-anchor: end" x="222.650167" y="218.890059" transform="rotate(-0 222.650167 218.890059)">newsapi</text>
   </g>
   <g id="text_2">
    <text style="fill: #262626; font: 10px 'Arial', 'Liberation Sans', 'DejaVu Sans', 'Bitstream Vera Sans', sans-serif; text-anchor: middle" x="289.172818" y="219.73364" transform="rotate(-0 289.172818 219.73364)">99.6%</text>
   </g>
   <g id="text_3">
    <text style="fill: #262626; font: 10px 'Arial', 'Liberation Sans', 'DejaVu Sans', 'Bitstream Vera Sans', sans-serif; text-anchor: start" x="515.349599" y="222.6202" transform="rotate(-0 515.349599 222.6202)">chicago_pd</text>
   </g>
   <g id="text_4">
    <text style="fill: #262626; font: 10px 'Arial', 'Liberation Sans', 'DejaVu Sans', 'Bitstream Vera Sans', sans-serif; text-anchor: middle" x="448.827054" y="221.768262" transform="rotate(-0 448.827054 221.768262)">0.4%</text>
   </g>
   <g id="text_5">
    <text style="fill: #262626; font: 10px 'Arial', 'Liberation Sans', 'DejaVu Sans', 'Bitstream Vera Sans', sans-serif; text-anchor: start" x="515.361599" y="220.764332" transform="rotate(-0 515.361599 220.764332)">chicago_police</text>
   </g>
   <g id="text_6">
    <text style="fill: #262626; font: 10px 'Arial', 'Liberation Sans', 'DejaVu Sans', 'Bitstream Vera Sans', sans-serif; text-anchor: middle" x="448.833599" y="220.755971" transform="rotate(-0 448.833599 220.755971)">0.0%</text>
   </g>
   <g id="text_7">
    <text style="fill: #262626; font: 12px 'Arial', 'Liberation Sans', 'DejaVu Sans', 'Bitstream Vera Sans', sans-serif; text-anchor: middle" x="369" y="45.84" transform="rotate(-0 369 45.84)">Incidents by Source</text>
   </g>
  </g>
 </g>
</svg>
