<?xml version="1.0" encoding="utf-8" standalone="no"?>
<!DOCTYPE svg PUBLIC "-//W3C//DTD SVG 1.1//EN"
  "http://www.w3.org/Graphics/SVG/1.1/DTD/svg11.dtd">
<svg xmlns:xlink="http://www.w3.org/1999/xlink" width="720pt" height="432pt" viewBox="0 0 720 432" xmlns="http://www.w3.org/2000/svg" version="1.1">
 <metadata>
  <rdf:RDF xmlns:dc="http://purl.org/dc/elements/1.1/" xmlns:cc="http://creativecommons.org/ns#" xmlns:rdf="http://www.w3.org/1999/02/22-rdf-syntax-ns#">
   <cc:Work>
    <dc:type rdf:resource="http://purl.org/dc/dcmitype/StillImage"/>
    <dc:date>2026-05-01T03:51:14.228628</dc:date>
    <dc:format>image/svg+xml</dc:format>
    <dc:creator>
     <cc:Agent>
      <dc:title>Matplotlib v3.7.5, https://matplotlib.org/</dc:title>
     </cc:Agent>
    </dc:creator>
   </cc:Work>
  </rdf:RDF>
 </metadata>
 <defs>
  <style type="text/css">*{stroke-linejoin: round; stroke-linecap: butt}</style>
 </defs>
 <g id="figure_1">
  <g id="patch_1">
   <path d="M 0 432 
L 720 432 
L 720 0 
L 0 0 
z
" style="fill: #ffffff"/>
  </g>
  <g id="axes_1">
   <g id="matplotlib.axis_1"/>
   <g id="matplotlib.axis_2"/>
   <g id="patch_2">
    <path d="M 502.056 218.16 
C 502.056 200.704624 498.621091 183.418642 491.947468 167.289386 
C 485.273844 151.16013 475.491032 136.50065 463.157801 124.148258 
C 450.824571 111.795867 436.180295 101.990309 420.061419 95.291653 
C 403.942543 88.592998 386.661914 85.131258 369.206559 85.10416 
C 351.751205 85.077062 334.459911 88.485132 318.320314 95.133708 
C 302.180718 101.782284 287.506067 111.542327 275.134544 123.856366 
C 262.763021 136.170405 252.934741 150.799441 246.21107 166.907898 
C 239.4874 183.016356 235.998838 200.29159 235.944641 217.746882 
C 235.890445 235.202173 239.271667 252.498737 245.89518 268.648636 
C 252.518692 284.798534 262.255942 299.488318 274.550761 311.878943 
C 286.845579 324.269568 301.45934 334.120547 317.55734 340.869217 
C 333.65534 347.617886 350.925137 351.133263 368.380324 351.214557 
C 385.83551 351.295851 403.137302 347.941485 419.297464 341.343052 
C 435.457626 334.744619 450.162508 325.030185 462.572205 312.754617 
C 474.981901 300.479049 484.855556 285.880599 491.629208 269.793095 
C 498.40286 253.705591 501.945043 236.441272 502.053435 218.986233 
L 369 218.16 
z
" style="fill: #f77189"/>
   </g>
   <g id="patch_3">
    <path d="M 502.053435 218.986233 
C 502.054281 218.849895 502.054918 218.713556 502.055346 218.577216 
C 502.055773 218.440876 502.055991 218.304535 502.056 218.168195 
L 369 218.16 
z
" style="fill: #bb9832"/>
   </g>
   <g id="patch_4">
    <path d="M 502.056 218.168195 
C 502.056 218.166831 502.056 218.165468 502.056 218.164105 
C 502.056 218.162741 502.056 218.161378 502.056 218.160014 
L 369 218.16 
z
" style="fill: #50b131"/>
   </g>
   <g id="text_1">
    <text style="fill: #262626; font: 10px 'Arial', 'Liberation Sans', 'DejaVu Sans', 'Bitstream Vera Sans', sans-serif; text-anchor: end" x="222.639105" y="220.291507" transform="rotate(-0 222.639105 220.291507)">newsapi</text>
   </g>
   <g id="text_2">
    <text style="fill: #262626; font: 10px 'Arial', 'Liberation Sans', 'DejaVu Sans', 'Bitstream Vera Sans', sans-serif; text-anchor: middle" x="289.166785" y="220.498067" transform="rotate(-0 289.166785 220.498067)">99.9%</text>
   </g>
   <g id="text_3">
    <text style="fill: #262626; font: 10px 'Arial', 'Liberation Sans', 'DejaVu Sans', 'Bitstream Vera Sans', sans-serif; text-anchor: start" x="515.36088" y="221.204875" transform="rotate(-0 515.36088 221.204875)">chicago_pd</text>
   </g>
   <g id="text_4">
    <text style="fill: #262626; font: 10px 'Arial', 'Liberation Sans', 'DejaVu Sans', 'Bitstream Vera Sans', sans-serif; text-anchor: middle" x="448.833208" y="220.996267" transform="rotate(-0 448.833208 220.996267)">0.1%</text>
   </g>
   <g id="text_5">
    <text style="fill: #262626; font: 10px 'Arial', 'Liberation Sans', 'DejaVu Sans', 'Bitstream Vera Sans', sans-serif; text-anchor: start" x="515.3616" y="220.750453" transform="rotate(-0 515.3616 220.750453)">chicago_police</text>
   </g>
   <g id="text_6">
    <text style="fill: #262626; font: 10px 'Arial', 'Liberation Sans', 'DejaVu Sans', 'Bitstream Vera Sans', sans-serif; text-anchor: middle" x="448.8336" y="220.7484" transform="rotate(-0 448.8336 220.7484)">0.0%</text>
   </g>
   <g id="text_7">
    <text style="fill: #262626; font: 12px 'Arial', 'Liberation Sans', 'DejaVu Sans', 'Bitstream Vera Sans', sans-serif; text-anchor: middle" x="369" y="45.84" transform="rotate(-0 369 45.84)">Incidents by Source</text>
   </g>
  </g>
 </g>
</svg>
