<?xml version="1.0" encoding="utf-8" standalone="no"?>
<!DOCTYPE svg PUBLIC "-//W3C//DTD SVG 1.1//EN"
  "http://www.w3.org/Graphics/SVG/1.1/DTD/svg11.dtd">
<svg xmlns:xlink="http://www.w3.org/1999/xlink" width="720pt" height="432pt" viewBox="0 0 720 432" xmlns="http://www.w3.org/2000/svg" version="1.1">
 <metadata>
  <rdf:RDF xmlns:dc="http://purl.org/dc/elements/1.1/" xmlns:cc="http://creativecommons.org/ns#" xmlns:rdf="http://www.w3.org/1999/02/22-rdf-syntax-ns#">
   <cc:Work>
    <dc:type rdf:resource="http://purl.org/dc/dcmitype/StillImage"/>
    <dc:date>2025-03-19T01:02:44.653260</dc:date>
    <dc:format>image/svg+xml</dc:format>
    <dc:creator>
     <cc:Agent>
      <dc:title>Matplotlib v3.7.5, https://matplotlib.org/</dc:title>
     </cc:Agent>
    </dc:creator>
   </cc:Work>
  </rdf:RDF>
 </metadata>
 <defs>
  <style type="text/css">*{stroke-linejoin: round; stroke-linecap: butt}</style>
 </defs>
 <g id="figure_1">
  <g id="patch_1">
   <path d="M 0 432 
L 720 432 
L 720 0 
L 0 0 
z
" style="fill: #ffffff"/>
  </g>
  <g id="axes_1">
   <g id="matplotlib.axis_1"/>
   <g id="matplotlib.axis_2"/>
   <g id="patch_2">
    <path d="M 502.056 218.16 
C 502.056 200.772307 498.647677 183.552041 492.024224 167.475295 
C 485.400772 151.398549 475.689745 136.774932 463.441592 124.43335 
C 451.193439 112.091769 436.644037 102.2699 420.618086 95.524474 
C 404.592135 88.779047 387.398265 85.239968 370.011074 85.107842 
C 352.623883 84.975715 335.378215 88.253085 319.251602 94.754181 
C 303.12499 101.255278 288.428002 110.854901 275.993705 123.008919 
C 263.559408 135.162936 253.627263 149.637283 246.760253 165.611514 
C 239.893242 181.585745 236.223612 198.752225 235.959366 216.13791 
C 235.69512 233.523595 238.841348 250.79367 245.219713 266.969218 
C 251.598078 283.144765 261.085744 297.914275 273.144924 310.44057 
C 285.204104 322.966864 299.60256 333.008711 315.524148 339.996909 
C 331.445736 346.985107 348.583836 350.785078 365.967011 351.181427 
C 383.350186 351.577777 400.64367 348.562872 416.867219 342.307608 
C 433.090768 336.052343 447.931947 326.677182 460.549516 314.713536 
C 473.167085 302.74989 483.318053 288.428156 490.427036 272.56013 
C 497.536018 256.692104 501.466109 239.583374 501.994539 222.203713 
L 369 218.16 
z
" style="fill: #f77189"/>
   </g>
   <g id="patch_3">
    <path d="M 501.994539 222.203713 
C 502.014822 221.536636 502.030085 220.869417 502.040328 220.202111 
C 502.050571 219.534805 502.055793 218.867431 502.055994 218.200046 
L 369 218.16 
z
" style="fill: #bb9832"/>
   </g>
   <g id="patch_4">
    <path d="M 502.055994 218.200046 
C 502.055996 218.193372 502.055997 218.186698 502.055998 218.180025 
C 502.055999 218.173351 502.056 218.166677 502.056 218.160003 
L 369 218.16 
z
" style="fill: #50b131"/>
   </g>
   <g id="text_1">
    <text style="fill: #262626; font: 10px 'Arial', 'Liberation Sans', 'DejaVu Sans', 'Bitstream Vera Sans', sans-serif; text-anchor: end" x="222.655303" y="218.521639" transform="rotate(-0 222.655303 218.521639)">newsapi</text>
   </g>
   <g id="text_2">
    <text style="fill: #262626; font: 10px 'Arial', 'Liberation Sans', 'DejaVu Sans', 'Bitstream Vera Sans', sans-serif; text-anchor: middle" x="289.17562" y="219.532684" transform="rotate(-0 289.17562 219.532684)">99.5%</text>
   </g>
   <g id="text_3">
    <text style="fill: #262626; font: 10px 'Arial', 'Liberation Sans', 'DejaVu Sans', 'Bitstream Vera Sans', sans-serif; text-anchor: start" x="515.344361" y="222.992259" transform="rotate(-0 515.344361 222.992259)">chicago_pd</text>
   </g>
   <g id="text_4">
    <text style="fill: #262626; font: 10px 'Arial', 'Liberation Sans', 'DejaVu Sans', 'Bitstream Vera Sans', sans-serif; text-anchor: middle" x="448.824197" y="221.971204" transform="rotate(-0 448.824197 221.971204)">0.5%</text>
   </g>
   <g id="text_5">
    <text style="fill: #262626; font: 10px 'Arial', 'Liberation Sans', 'DejaVu Sans', 'Bitstream Vera Sans', sans-serif; text-anchor: start" x="515.361598" y="220.767965" transform="rotate(-0 515.361598 220.767965)">chicago_police</text>
   </g>
   <g id="text_6">
    <text style="fill: #262626; font: 10px 'Arial', 'Liberation Sans', 'DejaVu Sans', 'Bitstream Vera Sans', sans-serif; text-anchor: middle" x="448.833599" y="220.757952" transform="rotate(-0 448.833599 220.757952)">0.0%</text>
   </g>
   <g id="text_7">
    <text style="fill: #262626; font: 12px 'Arial', 'Liberation Sans', 'DejaVu Sans', 'Bitstream Vera Sans', sans-serif; text-anchor: middle" x="369" y="45.84" transform="rotate(-0 369 45.84)">Incidents by Source</text>
   </g>
  </g>
 </g>
</svg>
