<?xml version="1.0" encoding="utf-8" standalone="no"?>
<!DOCTYPE svg PUBLIC "-//W3C//DTD SVG 1.1//EN"
  "http://www.w3.org/Graphics/SVG/1.1/DTD/svg11.dtd">
<svg xmlns:xlink="http://www.w3.org/1999/xlink" width="720pt" height="432pt" viewBox="0 0 720 432" xmlns="http://www.w3.org/2000/svg" version="1.1">
 <metadata>
  <rdf:RDF xmlns:dc="http://purl.org/dc/elements/1.1/" xmlns:cc="http://creativecommons.org/ns#" xmlns:rdf="http://www.w3.org/1999/02/22-rdf-syntax-ns#">
   <cc:Work>
    <dc:type rdf:resource="http://purl.org/dc/dcmitype/StillImage"/>
    <dc:date>2026-01-10T01:13:39.695439</dc:date>
    <dc:format>image/svg+xml</dc:format>
    <dc:creator>
     <cc:Agent>
      <dc:title>Matplotlib v3.7.5, https://matplotlib.org/</dc:title>
     </cc:Agent>
    </dc:creator>
   </cc:Work>
  </rdf:RDF>
 </metadata>
 <defs>
  <style type="text/css">*{stroke-linejoin: round; stroke-linecap: butt}</style>
 </defs>
 <g id="figure_1">
  <g id="patch_1">
   <path d="M 0 432 
L 720 432 
L 720 0 
L 0 0 
z
" style="fill: #ffffff"/>
  </g>
  <g id="axes_1">
   <g id="matplotlib.axis_1"/>
   <g id="matplotlib.axis_2"/>
   <g id="patch_2">
    <path d="M 502.056 218.16 
C 502.056 200.70908 498.622845 183.427422 491.952529 167.30162 
C 485.282213 151.175817 475.504133 136.51869 463.176508 124.166998 
C 450.848884 111.815306 436.210856 102.008656 420.098094 95.306901 
C 403.985332 88.605146 386.710404 85.13829 369.259517 85.104253 
C 351.808629 85.070216 334.520309 88.469659 318.381527 95.108509 
C 302.242745 101.74736 287.566574 111.496834 275.190861 123.800344 
C 262.815149 136.103854 252.979968 150.722727 246.246798 166.822387 
C 239.513628 182.922047 236.013086 200.19018 235.945012 217.640968 
C 235.876939 235.091755 239.242655 252.386673 245.850016 268.538373 
C 252.457376 284.690073 262.178207 299.385232 274.457555 311.784918 
C 286.736904 324.184605 301.336566 334.04828 317.423063 340.812838 
C 333.50956 347.577396 350.770832 351.111612 368.221454 351.213722 
C 385.672076 351.315832 402.973525 347.983855 419.138082 341.40801 
C 435.302638 334.832164 450.016729 325.140014 462.440341 312.884874 
C 474.863954 300.629733 484.756087 286.049338 491.552007 269.976065 
C 498.347928 253.902793 501.915805 236.648446 502.051951 219.198057 
L 369 218.16 
z
" style="fill: #f77189"/>
   </g>
   <g id="patch_3">
    <path d="M 502.051951 219.198057 
C 502.053287 219.026767 502.054293 218.855476 502.054967 218.684183 
C 502.055642 218.51289 502.055986 218.341596 502.056 218.170301 
L 369 218.16 
z
" style="fill: #bb9832"/>
   </g>
   <g id="patch_4">
    <path d="M 502.056 218.170301 
C 502.056 218.168588 502.056 218.166875 502.056 218.165162 
C 502.056 218.163449 502.056 218.161737 502.056 218.160024 
L 369 218.16 
z
" style="fill: #50b131"/>
   </g>
   <g id="text_1">
    <text style="fill: #262626; font: 10px 'Arial', 'Liberation Sans', 'DejaVu Sans', 'Bitstream Vera Sans', sans-serif; text-anchor: end" x="222.639514" y="220.175002" transform="rotate(-0 222.639514 220.175002)">newsapi</text>
   </g>
   <g id="text_2">
    <text style="fill: #262626; font: 10px 'Arial', 'Liberation Sans', 'DejaVu Sans', 'Bitstream Vera Sans', sans-serif; text-anchor: middle" x="289.167007" y="220.434518" transform="rotate(-0 289.167007 220.434518)">99.9%</text>
   </g>
   <g id="text_3">
    <text style="fill: #262626; font: 10px 'Arial', 'Liberation Sans', 'DejaVu Sans', 'Bitstream Vera Sans', sans-serif; text-anchor: start" x="515.360464" y="221.322539" transform="rotate(-0 515.360464 221.322539)">chicago_pd</text>
   </g>
   <g id="text_4">
    <text style="fill: #262626; font: 10px 'Arial', 'Liberation Sans', 'DejaVu Sans', 'Bitstream Vera Sans', sans-serif; text-anchor: middle" x="448.83298" y="221.060447" transform="rotate(-0 448.83298 221.060447)">0.1%</text>
   </g>
   <g id="text_5">
    <text style="fill: #262626; font: 10px 'Arial', 'Liberation Sans', 'DejaVu Sans', 'Bitstream Vera Sans', sans-serif; text-anchor: start" x="515.3616" y="220.751616" transform="rotate(-0 515.3616 220.751616)">chicago_police</text>
   </g>
   <g id="text_6">
    <text style="fill: #262626; font: 10px 'Arial', 'Liberation Sans', 'DejaVu Sans', 'Bitstream Vera Sans', sans-serif; text-anchor: middle" x="448.8336" y="220.749035" transform="rotate(-0 448.8336 220.749035)">0.0%</text>
   </g>
   <g id="text_7">
    <text style="fill: #262626; font: 12px 'Arial', 'Liberation Sans', 'DejaVu Sans', 'Bitstream Vera Sans', sans-serif; text-anchor: middle" x="369" y="45.84" transform="rotate(-0 369 45.84)">Incidents by Source</text>
   </g>
  </g>
 </g>
</svg>
