<?xml version="1.0" encoding="utf-8" standalone="no"?>
<!DOCTYPE svg PUBLIC "-//W3C//DTD SVG 1.1//EN"
  "http://www.w3.org/Graphics/SVG/1.1/DTD/svg11.dtd">
<svg xmlns:xlink="http://www.w3.org/1999/xlink" width="720pt" height="432pt" viewBox="0 0 720 432" xmlns="http://www.w3.org/2000/svg" version="1.1">
 <metadata>
  <rdf:RDF xmlns:dc="http://purl.org/dc/elements/1.1/" xmlns:cc="http://creativecommons.org/ns#" xmlns:rdf="http://www.w3.org/1999/02/22-rdf-syntax-ns#">
   <cc:Work>
    <dc:type rdf:resource="http://purl.org/dc/dcmitype/StillImage"/>
    <dc:date>2025-07-12T18:19:10.829434</dc:date>
    <dc:format>image/svg+xml</dc:format>
    <dc:creator>
     <cc:Agent>
      <dc:title>Matplotlib v3.7.5, https://matplotlib.org/</dc:title>
     </cc:Agent>
    </dc:creator>
   </cc:Work>
  </rdf:RDF>
 </metadata>
 <defs>
  <style type="text/css">*{stroke-linejoin: round; stroke-linecap: butt}</style>
 </defs>
 <g id="figure_1">
  <g id="patch_1">
   <path d="M 0 432 
L 720 432 
L 720 0 
L 0 0 
z
" style="fill: #ffffff"/>
  </g>
  <g id="axes_1">
   <g id="matplotlib.axis_1"/>
   <g id="matplotlib.axis_2"/>
   <g id="patch_2">
    <path d="M 502.056 218.16 
C 502.056 200.72734 498.630025 183.463411 491.973259 167.351766 
C 485.316493 151.240121 475.557798 136.59265 463.25314 124.243842 
C 450.948483 111.895034 436.336059 102.083939 420.24836 95.369509 
C 404.16066 88.655078 386.909113 85.167292 369.476565 85.104853 
C 352.044016 85.042415 334.767927 88.406534 318.632543 95.005551 
C 302.497159 101.604567 287.81483 111.310737 275.42203 123.571086 
C 263.02923 135.831435 253.16586 150.408625 246.393852 166.472172 
C 239.621843 182.53572 236.07229 199.774664 235.947414 217.206877 
C 235.822538 234.63909 239.124758 251.927117 245.66594 268.086033 
C 252.207123 284.24495 261.860643 298.961949 274.076526 311.398583 
C 286.292409 323.835216 300.834179 333.750733 316.873368 340.580232 
C 332.912557 347.409732 350.138677 351.021007 367.570331 351.208319 
C 385.001985 351.395631 402.301728 348.155352 418.48397 341.672088 
C 434.666211 335.188824 449.417692 325.588077 461.897999 313.416816 
C 474.378306 301.245555 484.345843 286.739394 491.232746 270.724769 
C 498.119649 254.710144 501.7926 237.497068 502.042345 220.066197 
L 369 218.16 
z
" style="fill: #f77189"/>
   </g>
   <g id="patch_3">
    <path d="M 502.042345 220.066197 
C 502.046851 219.751665 502.050243 219.437119 502.052518 219.122563 
C 502.054794 218.808008 502.055954 218.493445 502.055999 218.178881 
L 369 218.16 
z
" style="fill: #bb9832"/>
   </g>
   <g id="patch_4">
    <path d="M 502.055999 218.178881 
C 502.055999 218.175735 502.055999 218.17259 502.056 218.169444 
C 502.056 218.166299 502.056 218.163153 502.056 218.160007 
L 369 218.16 
z
" style="fill: #50b131"/>
   </g>
   <g id="text_1">
    <text style="fill: #262626; font: 10px 'Arial', 'Liberation Sans', 'DejaVu Sans', 'Bitstream Vera Sans', sans-serif; text-anchor: end" x="222.642155" y="219.697502" transform="rotate(-0 222.642155 219.697502)">newsapi</text>
   </g>
   <g id="text_2">
    <text style="fill: #262626; font: 10px 'Arial', 'Liberation Sans', 'DejaVu Sans', 'Bitstream Vera Sans', sans-serif; text-anchor: middle" x="289.168448" y="220.174064" transform="rotate(-0 289.168448 220.174064)">99.8%</text>
   </g>
   <g id="text_3">
    <text style="fill: #262626; font: 10px 'Arial', 'Liberation Sans', 'DejaVu Sans', 'Bitstream Vera Sans', sans-serif; text-anchor: start" x="515.35777" y="221.804757" transform="rotate(-0 515.35777 221.804757)">chicago_pd</text>
   </g>
   <g id="text_4">
    <text style="fill: #262626; font: 10px 'Arial', 'Liberation Sans', 'DejaVu Sans', 'Bitstream Vera Sans', sans-serif; text-anchor: middle" x="448.831511" y="221.323475" transform="rotate(-0 448.831511 221.323475)">0.2%</text>
   </g>
   <g id="text_5">
    <text style="fill: #262626; font: 10px 'Arial', 'Liberation Sans', 'DejaVu Sans', 'Bitstream Vera Sans', sans-serif; text-anchor: start" x="515.3616" y="220.756326" transform="rotate(-0 515.3616 220.756326)">chicago_police</text>
   </g>
   <g id="text_6">
    <text style="fill: #262626; font: 10px 'Arial', 'Liberation Sans', 'DejaVu Sans', 'Bitstream Vera Sans', sans-serif; text-anchor: middle" x="448.8336" y="220.751604" transform="rotate(-0 448.8336 220.751604)">0.0%</text>
   </g>
   <g id="text_7">
    <text style="fill: #262626; font: 12px 'Arial', 'Liberation Sans', 'DejaVu Sans', 'Bitstream Vera Sans', sans-serif; text-anchor: middle" x="369" y="45.84" transform="rotate(-0 369 45.84)">Incidents by Source</text>
   </g>
  </g>
 </g>
</svg>
