<?xml version="1.0" encoding="utf-8" standalone="no"?>
<!DOCTYPE svg PUBLIC "-//W3C//DTD SVG 1.1//EN"
  "http://www.w3.org/Graphics/SVG/1.1/DTD/svg11.dtd">
<svg xmlns:xlink="http://www.w3.org/1999/xlink" width="720pt" height="432pt" viewBox="0 0 720 432" xmlns="http://www.w3.org/2000/svg" version="1.1">
 <metadata>
  <rdf:RDF xmlns:dc="http://purl.org/dc/elements/1.1/" xmlns:cc="http://creativecommons.org/ns#" xmlns:rdf="http://www.w3.org/1999/02/22-rdf-syntax-ns#">
   <cc:Work>
    <dc:type rdf:resource="http://purl.org/dc/dcmitype/StillImage"/>
    <dc:date>2026-05-14T02:38:03.965750</dc:date>
    <dc:format>image/svg+xml</dc:format>
    <dc:creator>
     <cc:Agent>
      <dc:title>Matplotlib v3.7.5, https://matplotlib.org/</dc:title>
     </cc:Agent>
    </dc:creator>
   </cc:Work>
  </rdf:RDF>
 </metadata>
 <defs>
  <style type="text/css">*{stroke-linejoin: round; stroke-linecap: butt}</style>
 </defs>
 <g id="figure_1">
  <g id="patch_1">
   <path d="M 0 432 
L 720 432 
L 720 0 
L 0 0 
z
" style="fill: #ffffff"/>
  </g>
  <g id="axes_1">
   <g id="matplotlib.axis_1"/>
   <g id="matplotlib.axis_2"/>
   <g id="patch_2">
    <path d="M 502.056 218.16 
C 502.056 200.704217 498.620931 183.417838 491.947004 167.288267 
C 485.273078 151.158695 475.489833 136.498999 463.156089 124.146544 
C 450.822346 111.794088 436.177498 101.98863 420.058063 95.290259 
C 403.938628 88.591887 386.657477 85.130616 369.201713 85.104153 
C 351.74595 85.07769 334.454384 88.486549 318.314713 95.136015 
C 302.175042 101.785482 287.500532 111.546491 275.129393 123.861494 
C 262.758253 136.176497 252.930605 150.806462 246.207804 166.915725 
C 239.485003 183.024987 235.997538 200.30087 235.944612 217.756574 
C 235.891686 235.212277 239.274327 252.508991 245.899317 268.658724 
C 252.524308 284.808457 262.26306 299.497748 274.559294 311.887543 
C 286.855528 324.277337 301.470578 334.127154 317.56963 340.874368 
C 333.668682 347.621583 350.939259 351.135235 368.394862 351.214624 
C 385.850465 351.294013 403.152287 347.937598 419.312045 341.337097 
C 435.471802 334.736597 450.175841 325.020125 462.584262 312.742689 
C 474.992684 300.465252 484.864645 285.865151 491.636259 269.776346 
C 498.407872 253.687542 501.947702 236.422312 502.053554 218.966849 
L 369 218.16 
z
" style="fill: #f77189"/>
   </g>
   <g id="patch_3">
    <path d="M 502.053554 218.966849 
C 502.054361 218.833705 502.054969 218.700561 502.055376 218.567415 
C 502.055784 218.43427 502.055992 218.301124 502.056 218.167978 
L 369 218.16 
z
" style="fill: #bb9832"/>
   </g>
   <g id="patch_4">
    <path d="M 502.056 218.167978 
C 502.056 218.166647 502.056 218.165315 502.056 218.163984 
C 502.056 218.162652 502.056 218.161321 502.056 218.159989 
L 369 218.16 
z
" style="fill: #50b131"/>
   </g>
   <g id="text_1">
    <text style="fill: #262626; font: 10px 'Arial', 'Liberation Sans', 'DejaVu Sans', 'Bitstream Vera Sans', sans-serif; text-anchor: end" x="222.639073" y="220.302169" transform="rotate(-0 222.639073 220.302169)">newsapi</text>
   </g>
   <g id="text_2">
    <text style="fill: #262626; font: 10px 'Arial', 'Liberation Sans', 'DejaVu Sans', 'Bitstream Vera Sans', sans-serif; text-anchor: middle" x="289.166767" y="220.503882" transform="rotate(-0 289.166767 220.503882)">99.9%</text>
   </g>
   <g id="text_3">
    <text style="fill: #262626; font: 10px 'Arial', 'Liberation Sans', 'DejaVu Sans', 'Bitstream Vera Sans', sans-serif; text-anchor: start" x="515.360914" y="221.194094" transform="rotate(-0 515.360914 221.194094)">chicago_pd</text>
   </g>
   <g id="text_4">
    <text style="fill: #262626; font: 10px 'Arial', 'Liberation Sans', 'DejaVu Sans', 'Bitstream Vera Sans', sans-serif; text-anchor: middle" x="448.833226" y="220.990387" transform="rotate(-0 448.833226 220.990387)">0.1%</text>
   </g>
   <g id="text_5">
    <text style="fill: #262626; font: 10px 'Arial', 'Liberation Sans', 'DejaVu Sans', 'Bitstream Vera Sans', sans-serif; text-anchor: start" x="515.3616" y="220.75032" transform="rotate(-0 515.3616 220.75032)">chicago_police</text>
   </g>
   <g id="text_6">
    <text style="fill: #262626; font: 10px 'Arial', 'Liberation Sans', 'DejaVu Sans', 'Bitstream Vera Sans', sans-serif; text-anchor: middle" x="448.8336" y="220.748328" transform="rotate(-0 448.8336 220.748328)">0.0%</text>
   </g>
   <g id="text_7">
    <text style="fill: #262626; font: 12px 'Arial', 'Liberation Sans', 'DejaVu Sans', 'Bitstream Vera Sans', sans-serif; text-anchor: middle" x="369" y="45.84" transform="rotate(-0 369 45.84)">Incidents by Source</text>
   </g>
  </g>
 </g>
</svg>
