<?xml version="1.0" encoding="utf-8" standalone="no"?>
<!DOCTYPE svg PUBLIC "-//W3C//DTD SVG 1.1//EN"
  "http://www.w3.org/Graphics/SVG/1.1/DTD/svg11.dtd">
<svg xmlns:xlink="http://www.w3.org/1999/xlink" width="720pt" height="432pt" viewBox="0 0 720 432" xmlns="http://www.w3.org/2000/svg" version="1.1">
 <metadata>
  <rdf:RDF xmlns:dc="http://purl.org/dc/elements/1.1/" xmlns:cc="http://creativecommons.org/ns#" xmlns:rdf="http://www.w3.org/1999/02/22-rdf-syntax-ns#">
   <cc:Work>
    <dc:type rdf:resource="http://purl.org/dc/dcmitype/StillImage"/>
    <dc:date>2025-10-30T01:54:52.398335</dc:date>
    <dc:format>image/svg+xml</dc:format>
    <dc:creator>
     <cc:Agent>
      <dc:title>Matplotlib v3.7.5, https://matplotlib.org/</dc:title>
     </cc:Agent>
    </dc:creator>
   </cc:Work>
  </rdf:RDF>
 </metadata>
 <defs>
  <style type="text/css">*{stroke-linejoin: round; stroke-linecap: butt}</style>
 </defs>
 <g id="figure_1">
  <g id="patch_1">
   <path d="M 0 432 
L 720 432 
L 720 0 
L 0 0 
z
" style="fill: #ffffff"/>
  </g>
  <g id="axes_1">
   <g id="matplotlib.axis_1"/>
   <g id="matplotlib.axis_2"/>
   <g id="patch_2">
    <path d="M 502.056 218.16 
C 502.056 200.713526 498.624594 183.436187 491.957579 167.313831 
C 485.290564 151.191475 475.517206 136.536698 463.195176 124.185706 
C 450.873146 111.834714 436.241354 102.026978 420.134695 95.322131 
C 404.028036 88.617284 386.7588 85.145326 369.312374 85.104367 
C 351.865949 85.063408 334.580601 88.454243 318.442637 95.083389 
C 302.304674 101.712535 287.626993 111.451461 275.247106 123.744461 
C 262.867219 136.037461 253.025159 150.646187 246.282518 166.737061 
C 239.539876 182.827935 236.027384 200.088972 235.945467 217.535254 
C 235.863549 234.981535 239.213794 252.274796 245.805035 268.428278 
C 252.396276 284.58176 262.100717 299.282265 274.364619 311.690977 
C 286.628521 324.09969 301.2141 333.97602 317.2891 340.756419 
C 333.3641 347.536819 350.616844 351.089824 368.062885 351.2127 
C 385.508925 351.335576 402.810004 348.025939 418.978916 341.47264 
C 435.147827 334.91934 449.871075 325.249438 462.308545 313.014702 
C 474.746016 300.779966 484.65656 286.217613 491.47468 270.158576 
C 498.2928 254.099538 501.8863 236.855183 502.050133 219.409479 
L 369 218.16 
z
" style="fill: #f77189"/>
   </g>
   <g id="patch_3">
    <path d="M 502.050133 219.409479 
C 502.052069 219.203303 502.053526 218.997122 502.054504 218.790939 
C 502.055482 218.584756 502.05598 218.378571 502.055999 218.172385 
L 369 218.16 
z
" style="fill: #bb9832"/>
   </g>
   <g id="patch_4">
    <path d="M 502.055999 218.172385 
C 502.056 218.170324 502.056 218.168262 502.056 218.1662 
C 502.056 218.164138 502.056 218.162076 502.056 218.160014 
L 369 218.16 
z
" style="fill: #50b131"/>
   </g>
   <g id="text_1">
    <text style="fill: #262626; font: 10px 'Arial', 'Liberation Sans', 'DejaVu Sans', 'Bitstream Vera Sans', sans-serif; text-anchor: end" x="222.640013" y="220.058716" transform="rotate(-0 222.640013 220.058716)">newsapi</text>
   </g>
   <g id="text_2">
    <text style="fill: #262626; font: 10px 'Arial', 'Liberation Sans', 'DejaVu Sans', 'Bitstream Vera Sans', sans-serif; text-anchor: middle" x="289.16728" y="220.37109" transform="rotate(-0 289.16728 220.37109)">99.9%</text>
   </g>
   <g id="text_3">
    <text style="fill: #262626; font: 10px 'Arial', 'Liberation Sans', 'DejaVu Sans', 'Bitstream Vera Sans', sans-serif; text-anchor: start" x="515.359954" y="221.439971" transform="rotate(-0 515.359954 221.439971)">chicago_pd</text>
   </g>
   <g id="text_4">
    <text style="fill: #262626; font: 10px 'Arial', 'Liberation Sans', 'DejaVu Sans', 'Bitstream Vera Sans', sans-serif; text-anchor: middle" x="448.832702" y="221.124501" transform="rotate(-0 448.832702 221.124501)">0.1%</text>
   </g>
   <g id="text_5">
    <text style="fill: #262626; font: 10px 'Arial', 'Liberation Sans', 'DejaVu Sans', 'Bitstream Vera Sans', sans-serif; text-anchor: start" x="515.3616" y="220.752757" transform="rotate(-0 515.3616 220.752757)">chicago_police</text>
   </g>
   <g id="text_6">
    <text style="fill: #262626; font: 10px 'Arial', 'Liberation Sans', 'DejaVu Sans', 'Bitstream Vera Sans', sans-serif; text-anchor: middle" x="448.8336" y="220.749657" transform="rotate(-0 448.8336 220.749657)">0.0%</text>
   </g>
   <g id="text_7">
    <text style="fill: #262626; font: 12px 'Arial', 'Liberation Sans', 'DejaVu Sans', 'Bitstream Vera Sans', sans-serif; text-anchor: middle" x="369" y="45.84" transform="rotate(-0 369 45.84)">Incidents by Source</text>
   </g>
  </g>
 </g>
</svg>
