<?xml version="1.0" encoding="utf-8" standalone="no"?>
<!DOCTYPE svg PUBLIC "-//W3C//DTD SVG 1.1//EN"
  "http://www.w3.org/Graphics/SVG/1.1/DTD/svg11.dtd">
<svg xmlns:xlink="http://www.w3.org/1999/xlink" width="720pt" height="432pt" viewBox="0 0 720 432" xmlns="http://www.w3.org/2000/svg" version="1.1">
 <metadata>
  <rdf:RDF xmlns:dc="http://purl.org/dc/elements/1.1/" xmlns:cc="http://creativecommons.org/ns#" xmlns:rdf="http://www.w3.org/1999/02/22-rdf-syntax-ns#">
   <cc:Work>
    <dc:type rdf:resource="http://purl.org/dc/dcmitype/StillImage"/>
    <dc:date>2025-02-02T06:15:33.770744</dc:date>
    <dc:format>image/svg+xml</dc:format>
    <dc:creator>
     <cc:Agent>
      <dc:title>Matplotlib v3.7.5, https://matplotlib.org/</dc:title>
     </cc:Agent>
    </dc:creator>
   </cc:Work>
  </rdf:RDF>
 </metadata>
 <defs>
  <style type="text/css">*{stroke-linejoin: round; stroke-linecap: butt}</style>
 </defs>
 <g id="figure_1">
  <g id="patch_1">
   <path d="M 0 432 
L 720 432 
L 720 0 
L 0 0 
z
" style="fill: #ffffff"/>
  </g>
  <g id="axes_1">
   <g id="matplotlib.axis_1"/>
   <g id="matplotlib.axis_2"/>
   <g id="patch_2">
    <path d="M 502.056 218.16 
C 502.056 200.827784 498.669392 183.661396 492.086935 167.627776 
C 485.504478 151.594157 475.852128 137.000112 463.67358 124.667688 
C 451.495032 112.335265 437.023323 102.500447 421.073611 95.717204 
C 405.123899 88.933962 388.001382 85.332095 370.670533 85.114487 
C 353.339683 84.896879 336.132129 88.067695 320.017129 94.448329 
C 303.90213 100.828963 289.188049 110.297322 276.703695 122.320075 
C 264.21934 134.342829 254.203603 148.689919 247.220645 164.55321 
C 240.237687 180.416501 236.421129 197.492446 235.985947 214.819197 
C 235.550766 232.145949 238.505289 249.391957 244.683094 265.585796 
C 250.8609 281.779635 260.143776 296.611433 272.008839 309.24575 
C 283.873902 321.880067 298.094113 332.075144 313.868482 339.256717 
C 329.642851 346.43829 346.669532 350.468938 363.989454 351.121624 
C 381.309376 351.774311 398.59112 349.036547 414.861245 343.062543 
C 431.131371 337.08854 446.078547 327.992611 458.860836 316.287108 
C 471.643124 304.581605 482.015934 290.490515 489.39499 274.807555 
C 496.774046 259.124595 501.018148 242.149861 501.888237 224.839499 
L 369 218.16 
z
" style="fill: #f77189"/>
   </g>
   <g id="patch_3">
    <path d="M 501.888237 224.839499 
C 501.943593 223.738185 501.985257 222.636225 502.013218 221.533876 
C 502.041179 220.431526 502.055435 219.328871 502.055984 218.226167 
L 369 218.16 
z
" style="fill: #bb9832"/>
   </g>
   <g id="patch_4">
    <path d="M 502.055984 218.226167 
C 502.055989 218.21514 502.055993 218.204113 502.055996 218.193086 
C 502.055999 218.182059 502.056 218.171032 502.056 218.160006 
L 369 218.16 
z
" style="fill: #50b131"/>
   </g>
   <g id="text_1">
    <text style="fill: #262626; font: 10px 'Arial', 'Liberation Sans', 'DejaVu Sans', 'Bitstream Vera Sans', sans-serif; text-anchor: end" x="222.684542" y="217.071055" transform="rotate(-0 222.684542 217.071055)">newsapi</text>
   </g>
   <g id="text_2">
    <text style="fill: #262626; font: 10px 'Arial', 'Liberation Sans', 'DejaVu Sans', 'Bitstream Vera Sans', sans-serif; text-anchor: middle" x="289.191568" y="218.741456" transform="rotate(-0 289.191568 218.741456)">99.2%</text>
   </g>
   <g id="text_3">
    <text style="fill: #262626; font: 10px 'Arial', 'Liberation Sans', 'DejaVu Sans', 'Bitstream Vera Sans', sans-serif; text-anchor: start" x="515.31454" y="224.457201" transform="rotate(-0 515.31454 224.457201)">chicago_pd</text>
   </g>
   <g id="text_4">
    <text style="fill: #262626; font: 10px 'Arial', 'Liberation Sans', 'DejaVu Sans', 'Bitstream Vera Sans', sans-serif; text-anchor: middle" x="448.807931" y="222.770263" transform="rotate(-0 448.807931 222.770263)">0.8%</text>
   </g>
   <g id="text_5">
    <text style="fill: #262626; font: 10px 'Arial', 'Liberation Sans', 'DejaVu Sans', 'Bitstream Vera Sans', sans-serif; text-anchor: start" x="515.361595" y="220.782332" transform="rotate(-0 515.361595 220.782332)">chicago_police</text>
   </g>
   <g id="text_6">
    <text style="fill: #262626; font: 10px 'Arial', 'Liberation Sans', 'DejaVu Sans', 'Bitstream Vera Sans', sans-serif; text-anchor: middle" x="448.833598" y="220.765789" transform="rotate(-0 448.833598 220.765789)">0.0%</text>
   </g>
   <g id="text_7">
    <text style="fill: #262626; font: 12px 'Arial', 'Liberation Sans', 'DejaVu Sans', 'Bitstream Vera Sans', sans-serif; text-anchor: middle" x="369" y="45.84" transform="rotate(-0 369 45.84)">Incidents by Source</text>
   </g>
  </g>
 </g>
</svg>
