<?xml version="1.0" encoding="utf-8" standalone="no"?>
<!DOCTYPE svg PUBLIC "-//W3C//DTD SVG 1.1//EN"
  "http://www.w3.org/Graphics/SVG/1.1/DTD/svg11.dtd">
<svg xmlns:xlink="http://www.w3.org/1999/xlink" width="720pt" height="432pt" viewBox="0 0 720 432" xmlns="http://www.w3.org/2000/svg" version="1.1">
 <metadata>
  <rdf:RDF xmlns:dc="http://purl.org/dc/elements/1.1/" xmlns:cc="http://creativecommons.org/ns#" xmlns:rdf="http://www.w3.org/1999/02/22-rdf-syntax-ns#">
   <cc:Work>
    <dc:type rdf:resource="http://purl.org/dc/dcmitype/StillImage"/>
    <dc:date>2025-06-29T12:44:46.481942</dc:date>
    <dc:format>image/svg+xml</dc:format>
    <dc:creator>
     <cc:Agent>
      <dc:title>Matplotlib v3.7.5, https://matplotlib.org/</dc:title>
     </cc:Agent>
    </dc:creator>
   </cc:Work>
  </rdf:RDF>
 </metadata>
 <defs>
  <style type="text/css">*{stroke-linejoin: round; stroke-linecap: butt}</style>
 </defs>
 <g id="figure_1">
  <g id="patch_1">
   <path d="M 0 432 
L 720 432 
L 720 0 
L 0 0 
z
" style="fill: #ffffff"/>
  </g>
  <g id="axes_1">
   <g id="matplotlib.axis_1"/>
   <g id="matplotlib.axis_2"/>
   <g id="patch_2">
    <path d="M 502.056 218.16 
C 502.056 200.729868 498.631019 183.468393 491.976128 167.358709 
C 485.321236 151.249024 475.565223 136.602892 463.263744 124.254485 
C 450.962265 111.906079 436.353385 102.094371 420.269156 95.37819 
C 404.184927 88.662009 386.936618 85.17133 369.506612 85.104964 
C 352.076606 85.038599 334.802216 88.397832 318.66731 94.991337 
C 302.532403 101.584843 287.849231 111.28502 275.454076 123.539393 
C 263.058921 135.793766 253.191661 150.365182 246.414288 166.423723 
C 239.636915 182.482263 236.080588 199.717156 235.947858 217.146783 
C 235.815128 234.57641 239.108564 251.863465 245.640588 268.023359 
C 252.172612 284.183254 261.816812 298.903253 274.023902 311.344977 
C 286.230991 323.7867 300.764732 333.70937 316.797351 340.547837 
C 332.829971 347.386304 350.051198 351.008227 367.480193 351.20732 
C 384.909189 351.406412 402.208658 348.178821 418.393306 341.708373 
C 434.577954 335.237926 449.334567 325.649841 461.822679 313.490213 
C 474.310791 301.330584 484.288726 286.834729 491.188188 270.828263 
C 498.08765 254.821797 501.775117 237.614486 502.040569 220.186375 
L 369 218.16 
z
" style="fill: #f77189"/>
   </g>
   <g id="patch_3">
    <path d="M 502.040569 220.186375 
C 502.045661 219.852018 502.049494 219.517643 502.052065 219.183257 
C 502.054637 218.848871 502.055948 218.514476 502.055998 218.18008 
L 369 218.16 
z
" style="fill: #bb9832"/>
   </g>
   <g id="patch_4">
    <path d="M 502.055998 218.18008 
C 502.055999 218.176736 502.055999 218.173392 502.056 218.170048 
C 502.056 218.166704 502.056 218.16336 502.056 218.160016 
L 369 218.16 
z
" style="fill: #50b131"/>
   </g>
   <g id="text_1">
    <text style="fill: #262626; font: 10px 'Arial', 'Liberation Sans', 'DejaVu Sans', 'Bitstream Vera Sans', sans-serif; text-anchor: end" x="222.642644" y="219.631399" transform="rotate(-0 222.642644 219.631399)">newsapi</text>
   </g>
   <g id="text_2">
    <text style="fill: #262626; font: 10px 'Arial', 'Liberation Sans', 'DejaVu Sans', 'Bitstream Vera Sans', sans-serif; text-anchor: middle" x="289.168715" y="220.138007" transform="rotate(-0 289.168715 220.138007)">99.8%</text>
   </g>
   <g id="text_3">
    <text style="fill: #262626; font: 10px 'Arial', 'Liberation Sans', 'DejaVu Sans', 'Bitstream Vera Sans', sans-serif; text-anchor: start" x="515.357272" y="221.87152" transform="rotate(-0 515.357272 221.87152)">chicago_pd</text>
   </g>
   <g id="text_4">
    <text style="fill: #262626; font: 10px 'Arial', 'Liberation Sans', 'DejaVu Sans', 'Bitstream Vera Sans', sans-serif; text-anchor: middle" x="448.831239" y="221.359891" transform="rotate(-0 448.831239 221.359891)">0.2%</text>
   </g>
   <g id="text_5">
    <text style="fill: #262626; font: 10px 'Arial', 'Liberation Sans', 'DejaVu Sans', 'Bitstream Vera Sans', sans-serif; text-anchor: start" x="515.3616" y="220.756991" transform="rotate(-0 515.3616 220.756991)">chicago_police</text>
   </g>
   <g id="text_6">
    <text style="fill: #262626; font: 10px 'Arial', 'Liberation Sans', 'DejaVu Sans', 'Bitstream Vera Sans', sans-serif; text-anchor: middle" x="448.8336" y="220.751966" transform="rotate(-0 448.8336 220.751966)">0.0%</text>
   </g>
   <g id="text_7">
    <text style="fill: #262626; font: 12px 'Arial', 'Liberation Sans', 'DejaVu Sans', 'Bitstream Vera Sans', sans-serif; text-anchor: middle" x="369" y="45.84" transform="rotate(-0 369 45.84)">Incidents by Source</text>
   </g>
  </g>
 </g>
</svg>
