<?xml version="1.0" encoding="utf-8" standalone="no"?>
<!DOCTYPE svg PUBLIC "-//W3C//DTD SVG 1.1//EN"
  "http://www.w3.org/Graphics/SVG/1.1/DTD/svg11.dtd">
<svg xmlns:xlink="http://www.w3.org/1999/xlink" width="720pt" height="432pt" viewBox="0 0 720 432" xmlns="http://www.w3.org/2000/svg" version="1.1">
 <metadata>
  <rdf:RDF xmlns:dc="http://purl.org/dc/elements/1.1/" xmlns:cc="http://creativecommons.org/ns#" xmlns:rdf="http://www.w3.org/1999/02/22-rdf-syntax-ns#">
   <cc:Work>
    <dc:type rdf:resource="http://purl.org/dc/dcmitype/StillImage"/>
    <dc:date>2025-05-01T06:20:34.581331</dc:date>
    <dc:format>image/svg+xml</dc:format>
    <dc:creator>
     <cc:Agent>
      <dc:title>Matplotlib v3.7.5, https://matplotlib.org/</dc:title>
     </cc:Agent>
    </dc:creator>
   </cc:Work>
  </rdf:RDF>
 </metadata>
 <defs>
  <style type="text/css">*{stroke-linejoin: round; stroke-linecap: butt}</style>
 </defs>
 <g id="figure_1">
  <g id="patch_1">
   <path d="M 0 432 
L 720 432 
L 720 0 
L 0 0 
z
" style="fill: #ffffff"/>
  </g>
  <g id="axes_1">
   <g id="matplotlib.axis_1"/>
   <g id="matplotlib.axis_2"/>
   <g id="patch_2">
    <path d="M 502.056 218.16 
C 502.056 200.747242 498.637844 183.502637 491.995831 167.406432 
C 485.353818 151.310226 475.616233 136.6733 463.336593 124.327669 
C 451.056954 111.982038 436.472428 102.166143 420.412052 95.437956 
C 404.351677 88.709769 387.12564 85.199237 369.713132 85.105911 
C 352.300624 85.012585 335.037947 88.338268 318.906374 94.893915 
C 302.774801 101.449562 288.085895 111.10856 275.674627 123.321854 
C 263.263359 135.535149 253.369437 150.066856 246.555269 166.09094 
C 239.741101 182.115024 236.138294 199.321999 235.951644 216.733756 
C 235.764995 234.145514 238.998108 251.425768 245.467202 267.592245 
C 251.936295 283.758722 261.516427 298.499186 273.663026 310.975735 
C 285.809626 323.452283 300.288096 333.423947 316.275429 340.323901 
C 332.262761 347.223855 349.450178 350.918833 366.860686 351.198801 
C 384.271193 351.478768 401.568527 348.338317 417.769444 341.955963 
C 433.970361 335.573609 448.761959 326.072618 461.30343 313.993063 
C 473.844901 301.913508 483.894021 287.48869 490.879562 271.538568 
C 497.865103 255.588447 501.652146 238.42108 502.025424 221.012323 
L 369 218.16 
z
" style="fill: #f77189"/>
   </g>
   <g id="patch_3">
    <path d="M 502.025424 221.012323 
C 502.035515 220.541717 502.043108 220.07106 502.048204 219.600373 
C 502.053299 219.129686 502.055897 218.658975 502.055997 218.18826 
L 369 218.16 
z
" style="fill: #bb9832"/>
   </g>
   <g id="patch_4">
    <path d="M 502.055997 218.18826 
C 502.055998 218.183553 502.055999 218.178846 502.055999 218.174139 
C 502.056 218.169432 502.056 218.164725 502.056 218.160018 
L 369 218.16 
z
" style="fill: #50b131"/>
   </g>
   <g id="text_1">
    <text style="fill: #262626; font: 10px 'Arial', 'Liberation Sans', 'DejaVu Sans', 'Bitstream Vera Sans', sans-serif; text-anchor: end" x="222.646809" y="219.17707" transform="rotate(-0 222.646809 219.17707)">newsapi</text>
   </g>
   <g id="text_2">
    <text style="fill: #262626; font: 10px 'Arial', 'Liberation Sans', 'DejaVu Sans', 'Bitstream Vera Sans', sans-serif; text-anchor: middle" x="289.170987" y="219.890191" transform="rotate(-0 289.170987 219.890191)">99.7%</text>
   </g>
   <g id="text_3">
    <text style="fill: #262626; font: 10px 'Arial', 'Liberation Sans', 'DejaVu Sans', 'Bitstream Vera Sans', sans-serif; text-anchor: start" x="515.353024" y="222.330348" transform="rotate(-0 515.353024 222.330348)">chicago_pd</text>
   </g>
   <g id="text_4">
    <text style="fill: #262626; font: 10px 'Arial', 'Liberation Sans', 'DejaVu Sans', 'Bitstream Vera Sans', sans-serif; text-anchor: middle" x="448.828922" y="221.610161" transform="rotate(-0 448.828922 221.610161)">0.3%</text>
   </g>
   <g id="text_5">
    <text style="fill: #262626; font: 10px 'Arial', 'Liberation Sans', 'DejaVu Sans', 'Bitstream Vera Sans', sans-serif; text-anchor: start" x="515.361599" y="220.76149" transform="rotate(-0 515.361599 220.76149)">chicago_police</text>
   </g>
   <g id="text_6">
    <text style="fill: #262626; font: 10px 'Arial', 'Liberation Sans', 'DejaVu Sans', 'Bitstream Vera Sans', sans-serif; text-anchor: middle" x="448.8336" y="220.754421" transform="rotate(-0 448.8336 220.754421)">0.0%</text>
   </g>
   <g id="text_7">
    <text style="fill: #262626; font: 12px 'Arial', 'Liberation Sans', 'DejaVu Sans', 'Bitstream Vera Sans', sans-serif; text-anchor: middle" x="369" y="45.84" transform="rotate(-0 369 45.84)">Incidents by Source</text>
   </g>
  </g>
 </g>
</svg>
