<?xml version="1.0" encoding="utf-8" standalone="no"?>
<!DOCTYPE svg PUBLIC "-//W3C//DTD SVG 1.1//EN"
  "http://www.w3.org/Graphics/SVG/1.1/DTD/svg11.dtd">
<svg xmlns:xlink="http://www.w3.org/1999/xlink" width="720pt" height="432pt" viewBox="0 0 720 432" xmlns="http://www.w3.org/2000/svg" version="1.1">
 <metadata>
  <rdf:RDF xmlns:dc="http://purl.org/dc/elements/1.1/" xmlns:cc="http://creativecommons.org/ns#" xmlns:rdf="http://www.w3.org/1999/02/22-rdf-syntax-ns#">
   <cc:Work>
    <dc:type rdf:resource="http://purl.org/dc/dcmitype/StillImage"/>
    <dc:date>2026-04-09T02:46:04.313690</dc:date>
    <dc:format>image/svg+xml</dc:format>
    <dc:creator>
     <cc:Agent>
      <dc:title>Matplotlib v3.7.5, https://matplotlib.org/</dc:title>
     </cc:Agent>
    </dc:creator>
   </cc:Work>
  </rdf:RDF>
 </metadata>
 <defs>
  <style type="text/css">*{stroke-linejoin: round; stroke-linecap: butt}</style>
 </defs>
 <g id="figure_1">
  <g id="patch_1">
   <path d="M 0 432 
L 720 432 
L 720 0 
L 0 0 
z
" style="fill: #ffffff"/>
  </g>
  <g id="axes_1">
   <g id="matplotlib.axis_1"/>
   <g id="matplotlib.axis_2"/>
   <g id="patch_2">
    <path d="M 502.056 218.16 
C 502.056 200.705377 498.621387 183.420125 491.948322 167.291452 
C 485.275257 151.16278 475.493245 136.503697 463.160961 124.151423 
C 450.828678 111.79915 436.185457 101.993407 420.067614 95.294228 
C 403.949771 88.595049 386.670104 85.132445 369.215504 85.104175 
C 351.760904 85.075904 334.470111 88.482516 318.330652 95.12945 
C 302.191193 101.776383 287.516285 111.534641 275.144054 123.846901 
C 262.771823 136.159162 252.942376 150.786482 246.217101 166.893454 
C 239.491825 183.000425 236.001239 200.274461 235.944698 217.728993 
C 235.888157 235.183524 239.26676 252.479811 245.887544 268.630015 
C 252.508329 284.780219 262.242806 299.470912 274.535011 311.863069 
C 286.827217 324.255225 301.438598 334.10835 317.534656 340.859704 
C 333.630714 347.611059 350.899073 351.129619 368.35349 351.214429 
C 385.807908 351.29924 403.109644 347.948656 419.27055 341.354038 
C 435.431456 334.75942 450.137896 325.04875 462.549946 312.776631 
C 474.961995 300.504512 484.838772 285.909109 491.616188 269.824007 
C 498.393603 253.738905 501.940127 236.476267 502.053208 219.02201 
L 369 218.16 
z
" style="fill: #f77189"/>
   </g>
   <g id="patch_3">
    <path d="M 502.053208 219.02201 
C 502.054129 218.879764 502.054823 218.737516 502.055288 218.595268 
C 502.055753 218.453019 502.055991 218.31077 502.056 218.168521 
L 369 218.16 
z
" style="fill: #bb9832"/>
   </g>
   <g id="patch_4">
    <path d="M 502.056 218.168521 
C 502.056 218.167099 502.056 218.165676 502.056 218.164254 
C 502.056 218.162831 502.056 218.161409 502.056 218.159986 
L 369 218.16 
z
" style="fill: #50b131"/>
   </g>
   <g id="text_1">
    <text style="fill: #262626; font: 10px 'Arial', 'Liberation Sans', 'DejaVu Sans', 'Bitstream Vera Sans', sans-serif; text-anchor: end" x="222.639168" y="220.271829" transform="rotate(-0 222.639168 220.271829)">newsapi</text>
   </g>
   <g id="text_2">
    <text style="fill: #262626; font: 10px 'Arial', 'Liberation Sans', 'DejaVu Sans', 'Bitstream Vera Sans', sans-serif; text-anchor: middle" x="289.166819" y="220.487333" transform="rotate(-0 289.166819 220.487333)">99.9%</text>
   </g>
   <g id="text_3">
    <text style="fill: #262626; font: 10px 'Arial', 'Liberation Sans', 'DejaVu Sans', 'Bitstream Vera Sans', sans-serif; text-anchor: start" x="515.360817" y="221.224732" transform="rotate(-0 515.360817 221.224732)">chicago_pd</text>
   </g>
   <g id="text_4">
    <text style="fill: #262626; font: 10px 'Arial', 'Liberation Sans', 'DejaVu Sans', 'Bitstream Vera Sans', sans-serif; text-anchor: middle" x="448.833173" y="221.007098" transform="rotate(-0 448.833173 221.007098)">0.1%</text>
   </g>
   <g id="text_5">
    <text style="fill: #262626; font: 10px 'Arial', 'Liberation Sans', 'DejaVu Sans', 'Bitstream Vera Sans', sans-serif; text-anchor: start" x="515.3616" y="220.750616" transform="rotate(-0 515.3616 220.750616)">chicago_police</text>
   </g>
   <g id="text_6">
    <text style="fill: #262626; font: 10px 'Arial', 'Liberation Sans', 'DejaVu Sans', 'Bitstream Vera Sans', sans-serif; text-anchor: middle" x="448.8336" y="220.74849" transform="rotate(-0 448.8336 220.74849)">0.0%</text>
   </g>
   <g id="text_7">
    <text style="fill: #262626; font: 12px 'Arial', 'Liberation Sans', 'DejaVu Sans', 'Bitstream Vera Sans', sans-serif; text-anchor: middle" x="369" y="45.84" transform="rotate(-0 369 45.84)">Incidents by Source</text>
   </g>
  </g>
 </g>
</svg>
