<?xml version="1.0" encoding="utf-8" standalone="no"?>
<!DOCTYPE svg PUBLIC "-//W3C//DTD SVG 1.1//EN"
  "http://www.w3.org/Graphics/SVG/1.1/DTD/svg11.dtd">
<svg xmlns:xlink="http://www.w3.org/1999/xlink" width="720pt" height="432pt" viewBox="0 0 720 432" xmlns="http://www.w3.org/2000/svg" version="1.1">
 <metadata>
  <rdf:RDF xmlns:dc="http://purl.org/dc/elements/1.1/" xmlns:cc="http://creativecommons.org/ns#" xmlns:rdf="http://www.w3.org/1999/02/22-rdf-syntax-ns#">
   <cc:Work>
    <dc:type rdf:resource="http://purl.org/dc/dcmitype/StillImage"/>
    <dc:date>2026-07-12T03:24:47.739424</dc:date>
    <dc:format>image/svg+xml</dc:format>
    <dc:creator>
     <cc:Agent>
      <dc:title>Matplotlib v3.7.5, https://matplotlib.org/</dc:title>
     </cc:Agent>
    </dc:creator>
   </cc:Work>
  </rdf:RDF>
 </metadata>
 <defs>
  <style type="text/css">*{stroke-linejoin: round; stroke-linecap: butt}</style>
 </defs>
 <g id="figure_1">
  <g id="patch_1">
   <path d="M 0 432 
L 720 432 
L 720 0 
L 0 0 
z
" style="fill: #ffffff"/>
  </g>
  <g id="axes_1">
   <g id="matplotlib.axis_1"/>
   <g id="matplotlib.axis_2"/>
   <g id="patch_2">
    <path d="M 502.056 218.16 
C 502.056 200.702372 498.620205 183.414203 491.944909 167.283202 
C 485.269612 151.152201 475.484407 136.491531 463.148343 124.138786 
C 450.812279 111.786042 436.164844 101.981036 420.042878 95.283949 
C 403.920911 88.586863 386.6374 85.127711 369.179788 85.104121 
C 351.722176 85.080532 334.42938 88.492964 318.289374 95.146458 
C 302.149368 101.799952 287.475489 111.565338 275.106087 123.884699 
C 262.736685 136.204061 252.911897 150.838234 246.193032 166.951136 
C 239.474167 183.064039 235.991664 200.34286 235.944486 217.800424 
C 235.897308 235.257989 239.28637 252.55538 245.918049 268.704361 
C 252.549728 284.853343 262.295277 299.540403 274.597914 311.92644 
C 286.900551 324.312477 301.521435 334.157031 317.625244 340.897662 
C 333.729053 347.638292 351.003153 351.14414 368.460637 351.214907 
C 385.918122 351.285674 403.220076 347.919987 419.378004 341.310135 
C 435.535932 334.700283 450.236148 324.974588 462.638797 312.688699 
C 475.041446 300.40281 484.905746 285.795241 491.668131 269.700555 
C 498.430515 253.605869 501.959701 236.336522 502.054057 218.879149 
L 369 218.16 
z
" style="fill: #f77189"/>
   </g>
   <g id="patch_3">
    <path d="M 502.054057 218.879149 
C 502.054698 218.760479 502.055181 218.641808 502.055504 218.523137 
C 502.055828 218.404466 502.055993 218.285794 502.056 218.167123 
L 369 218.16 
z
" style="fill: #bb9832"/>
   </g>
   <g id="patch_4">
    <path d="M 502.056 218.167123 
C 502.056 218.165936 502.056 218.164749 502.056 218.163563 
C 502.056 218.162376 502.056 218.161189 502.056 218.160002 
L 369 218.16 
z
" style="fill: #50b131"/>
   </g>
   <g id="text_1">
    <text style="fill: #262626; font: 10px 'Arial', 'Liberation Sans', 'DejaVu Sans', 'Bitstream Vera Sans', sans-serif; text-anchor: end" x="222.638934" y="220.350404" transform="rotate(-0 222.638934 220.350404)">newsapi</text>
   </g>
   <g id="text_2">
    <text style="fill: #262626; font: 10px 'Arial', 'Liberation Sans', 'DejaVu Sans', 'Bitstream Vera Sans', sans-serif; text-anchor: middle" x="289.166692" y="220.530192" transform="rotate(-0 289.166692 220.530192)">99.9%</text>
   </g>
   <g id="text_3">
    <text style="fill: #262626; font: 10px 'Arial', 'Liberation Sans', 'DejaVu Sans', 'Bitstream Vera Sans', sans-serif; text-anchor: start" x="515.361055" y="221.145388" transform="rotate(-0 515.361055 221.145388)">chicago_pd</text>
   </g>
   <g id="text_4">
    <text style="fill: #262626; font: 10px 'Arial', 'Liberation Sans', 'DejaVu Sans', 'Bitstream Vera Sans', sans-serif; text-anchor: middle" x="448.833303" y="220.96382" transform="rotate(-0 448.833303 220.96382)">0.1%</text>
   </g>
   <g id="text_5">
    <text style="fill: #262626; font: 10px 'Arial', 'Liberation Sans', 'DejaVu Sans', 'Bitstream Vera Sans', sans-serif; text-anchor: start" x="515.3616" y="220.749856" transform="rotate(-0 515.3616 220.749856)">chicago_police</text>
   </g>
   <g id="text_6">
    <text style="fill: #262626; font: 10px 'Arial', 'Liberation Sans', 'DejaVu Sans', 'Bitstream Vera Sans', sans-serif; text-anchor: middle" x="448.8336" y="220.748075" transform="rotate(-0 448.8336 220.748075)">0.0%</text>
   </g>
   <g id="text_7">
    <text style="fill: #262626; font: 12px 'Arial', 'Liberation Sans', 'DejaVu Sans', 'Bitstream Vera Sans', sans-serif; text-anchor: middle" x="369" y="45.84" transform="rotate(-0 369 45.84)">Incidents by Source</text>
   </g>
  </g>
 </g>
</svg>
