<?xml version="1.0" encoding="utf-8" standalone="no"?>
<!DOCTYPE svg PUBLIC "-//W3C//DTD SVG 1.1//EN"
  "http://www.w3.org/Graphics/SVG/1.1/DTD/svg11.dtd">
<svg xmlns:xlink="http://www.w3.org/1999/xlink" width="720pt" height="432pt" viewBox="0 0 720 432" xmlns="http://www.w3.org/2000/svg" version="1.1">
 <metadata>
  <rdf:RDF xmlns:dc="http://purl.org/dc/elements/1.1/" xmlns:cc="http://creativecommons.org/ns#" xmlns:rdf="http://www.w3.org/1999/02/22-rdf-syntax-ns#">
   <cc:Work>
    <dc:type rdf:resource="http://purl.org/dc/dcmitype/StillImage"/>
    <dc:date>2026-07-13T03:27:53.716626</dc:date>
    <dc:format>image/svg+xml</dc:format>
    <dc:creator>
     <cc:Agent>
      <dc:title>Matplotlib v3.7.5, https://matplotlib.org/</dc:title>
     </cc:Agent>
    </dc:creator>
   </cc:Work>
  </rdf:RDF>
 </metadata>
 <defs>
  <style type="text/css">*{stroke-linejoin: round; stroke-linecap: butt}</style>
 </defs>
 <g id="figure_1">
  <g id="patch_1">
   <path d="M 0 432 
L 720 432 
L 720 0 
L 0 0 
z
" style="fill: #ffffff"/>
  </g>
  <g id="axes_1">
   <g id="matplotlib.axis_1"/>
   <g id="matplotlib.axis_2"/>
   <g id="patch_2">
    <path d="M 502.056 218.16 
C 502.056 200.702347 498.620195 183.414153 491.94488 167.283133 
C 485.269565 151.152112 475.484333 136.491429 463.148237 124.138681 
C 450.812141 111.785932 436.164672 101.980933 420.04267 95.283863 
C 403.920669 88.586794 386.637126 85.127671 369.179489 85.104121 
C 351.721852 85.080571 334.429039 88.493052 318.289028 95.1466 
C 302.149018 101.800149 287.475148 111.565595 275.10577 123.885016 
C 262.736391 136.204437 252.911642 150.838667 246.19283 166.951619 
C 239.474019 183.064572 235.991584 200.343433 235.944484 217.801022 
C 235.897384 235.258612 239.286534 252.556012 245.918304 268.704984 
C 252.550075 284.853955 262.295717 299.540985 274.598441 311.926971 
C 286.901165 324.312956 301.522128 334.157438 317.626002 340.897979 
C 333.729876 347.63852 351.004024 351.144261 368.461534 351.21491 
C 385.919044 351.28556 403.221001 347.919747 419.378904 341.309767 
C 435.536806 334.699788 450.23697 324.973967 462.63954 312.687962 
C 475.04211 300.401958 484.906306 285.794288 491.668565 269.699521 
C 498.430824 253.604755 501.959864 236.335352 502.054063 218.877953 
L 369 218.16 
z
" style="fill: #f77189"/>
   </g>
   <g id="patch_3">
    <path d="M 502.054063 218.877953 
C 502.054702 218.759481 502.055183 218.641008 502.055506 218.522534 
C 502.055829 218.404061 502.055993 218.285587 502.056 218.167113 
L 369 218.16 
z
" style="fill: #bb9832"/>
   </g>
   <g id="patch_4">
    <path d="M 502.056 218.167113 
C 502.056 218.165929 502.056 218.164744 502.056 218.163559 
C 502.056 218.162374 502.056 218.16119 502.056 218.160005 
L 369 218.16 
z
" style="fill: #50b131"/>
   </g>
   <g id="text_1">
    <text style="fill: #262626; font: 10px 'Arial', 'Liberation Sans', 'DejaVu Sans', 'Bitstream Vera Sans', sans-serif; text-anchor: end" x="222.638933" y="220.351062" transform="rotate(-0 222.638933 220.351062)">newsapi</text>
   </g>
   <g id="text_2">
    <text style="fill: #262626; font: 10px 'Arial', 'Liberation Sans', 'DejaVu Sans', 'Bitstream Vera Sans', sans-serif; text-anchor: middle" x="289.166691" y="220.530551" transform="rotate(-0 289.166691 220.530551)">99.9%</text>
   </g>
   <g id="text_3">
    <text style="fill: #262626; font: 10px 'Arial', 'Liberation Sans', 'DejaVu Sans', 'Bitstream Vera Sans', sans-serif; text-anchor: start" x="515.361057" y="221.144725" transform="rotate(-0 515.361057 221.144725)">chicago_pd</text>
   </g>
   <g id="text_4">
    <text style="fill: #262626; font: 10px 'Arial', 'Liberation Sans', 'DejaVu Sans', 'Bitstream Vera Sans', sans-serif; text-anchor: middle" x="448.833304" y="220.963458" transform="rotate(-0 448.833304 220.963458)">0.1%</text>
   </g>
   <g id="text_5">
    <text style="fill: #262626; font: 10px 'Arial', 'Liberation Sans', 'DejaVu Sans', 'Bitstream Vera Sans', sans-serif; text-anchor: start" x="515.3616" y="220.749853" transform="rotate(-0 515.3616 220.749853)">chicago_police</text>
   </g>
   <g id="text_6">
    <text style="fill: #262626; font: 10px 'Arial', 'Liberation Sans', 'DejaVu Sans', 'Bitstream Vera Sans', sans-serif; text-anchor: middle" x="448.8336" y="220.748073" transform="rotate(-0 448.8336 220.748073)">0.0%</text>
   </g>
   <g id="text_7">
    <text style="fill: #262626; font: 12px 'Arial', 'Liberation Sans', 'DejaVu Sans', 'Bitstream Vera Sans', sans-serif; text-anchor: middle" x="369" y="45.84" transform="rotate(-0 369 45.84)">Incidents by Source</text>
   </g>
  </g>
 </g>
</svg>
