<?xml version="1.0" encoding="utf-8" standalone="no"?>
<!DOCTYPE svg PUBLIC "-//W3C//DTD SVG 1.1//EN"
  "http://www.w3.org/Graphics/SVG/1.1/DTD/svg11.dtd">
<svg xmlns:xlink="http://www.w3.org/1999/xlink" width="720pt" height="432pt" viewBox="0 0 720 432" xmlns="http://www.w3.org/2000/svg" version="1.1">
 <metadata>
  <rdf:RDF xmlns:dc="http://purl.org/dc/elements/1.1/" xmlns:cc="http://creativecommons.org/ns#" xmlns:rdf="http://www.w3.org/1999/02/22-rdf-syntax-ns#">
   <cc:Work>
    <dc:type rdf:resource="http://purl.org/dc/dcmitype/StillImage"/>
    <dc:date>2026-05-25T19:21:43.395607</dc:date>
    <dc:format>image/svg+xml</dc:format>
    <dc:creator>
     <cc:Agent>
      <dc:title>Matplotlib v3.7.5, https://matplotlib.org/</dc:title>
     </cc:Agent>
    </dc:creator>
   </cc:Work>
  </rdf:RDF>
 </metadata>
 <defs>
  <style type="text/css">*{stroke-linejoin: round; stroke-linecap: butt}</style>
 </defs>
 <g id="figure_1">
  <g id="patch_1">
   <path d="M 0 432 
L 720 432 
L 720 0 
L 0 0 
z
" style="fill: #ffffff"/>
  </g>
  <g id="axes_1">
   <g id="matplotlib.axis_1"/>
   <g id="matplotlib.axis_2"/>
   <g id="patch_2">
    <path d="M 502.056 218.16 
C 502.056 200.703849 498.620786 183.417113 491.946586 167.287257 
C 485.272387 151.1574 475.488751 136.49751 463.154545 124.144997 
C 450.820338 111.792483 436.174975 101.987115 420.055035 95.289 
C 403.935094 88.590885 386.653473 85.130036 369.197341 85.104146 
C 351.741209 85.078256 334.449397 88.487828 318.30966 95.138097 
C 302.169922 101.788367 287.495537 111.55025 275.124744 123.866122 
C 262.753952 136.181994 252.926873 150.812798 246.204857 166.922787 
C 239.482841 183.032775 235.996365 200.309244 235.944585 217.765319 
C 235.892806 235.221393 239.276727 252.518243 245.903052 268.667826 
C 252.529376 284.817409 262.269484 299.506256 274.566995 311.895301 
C 286.864506 324.284347 301.48072 334.133114 317.58072 340.879016 
C 333.680721 347.624918 350.952001 351.137013 368.407979 351.214683 
C 385.863958 351.292352 403.165807 347.934088 419.3252 341.331723 
C 435.484593 334.729358 450.18787 325.011046 462.595141 312.731924 
C 475.002411 300.452801 484.872846 285.851211 491.642619 269.761233 
C 498.412392 253.671255 501.950099 236.405203 502.053659 218.949359 
L 369 218.16 
z
" style="fill: #f77189"/>
   </g>
   <g id="patch_3">
    <path d="M 502.053659 218.949359 
C 502.054431 218.819107 502.055013 218.688853 502.055403 218.558599 
C 502.055793 218.428345 502.055992 218.298091 502.056 218.167836 
L 369 218.16 
z
" style="fill: #bb9832"/>
   </g>
   <g id="patch_4">
    <path d="M 502.056 218.167836 
C 502.056 218.166534 502.056 218.165231 502.056 218.163928 
C 502.056 218.162626 502.056 218.161323 502.056 218.160021 
L 369 218.16 
z
" style="fill: #50b131"/>
   </g>
   <g id="text_1">
    <text style="fill: #262626; font: 10px 'Arial', 'Liberation Sans', 'DejaVu Sans', 'Bitstream Vera Sans', sans-serif; text-anchor: end" x="222.639044" y="220.311788" transform="rotate(-0 222.639044 220.311788)">newsapi</text>
   </g>
   <g id="text_2">
    <text style="fill: #262626; font: 10px 'Arial', 'Liberation Sans', 'DejaVu Sans', 'Bitstream Vera Sans', sans-serif; text-anchor: middle" x="289.166751" y="220.509129" transform="rotate(-0 289.166751 220.509129)">99.9%</text>
   </g>
   <g id="text_3">
    <text style="fill: #262626; font: 10px 'Arial', 'Liberation Sans', 'DejaVu Sans', 'Bitstream Vera Sans', sans-serif; text-anchor: start" x="515.360943" y="221.184397" transform="rotate(-0 515.360943 221.184397)">chicago_pd</text>
   </g>
   <g id="text_4">
    <text style="fill: #262626; font: 10px 'Arial', 'Liberation Sans', 'DejaVu Sans', 'Bitstream Vera Sans', sans-serif; text-anchor: middle" x="448.833242" y="220.985097" transform="rotate(-0 448.833242 220.985097)">0.1%</text>
   </g>
   <g id="text_5">
    <text style="fill: #262626; font: 10px 'Arial', 'Liberation Sans', 'DejaVu Sans', 'Bitstream Vera Sans', sans-serif; text-anchor: start" x="515.3616" y="220.750259" transform="rotate(-0 515.3616 220.750259)">chicago_police</text>
   </g>
   <g id="text_6">
    <text style="fill: #262626; font: 10px 'Arial', 'Liberation Sans', 'DejaVu Sans', 'Bitstream Vera Sans', sans-serif; text-anchor: middle" x="448.8336" y="220.748295" transform="rotate(-0 448.8336 220.748295)">0.0%</text>
   </g>
   <g id="text_7">
    <text style="fill: #262626; font: 12px 'Arial', 'Liberation Sans', 'DejaVu Sans', 'Bitstream Vera Sans', sans-serif; text-anchor: middle" x="369" y="45.84" transform="rotate(-0 369 45.84)">Incidents by Source</text>
   </g>
  </g>
 </g>
</svg>
