<?xml version="1.0" encoding="utf-8" standalone="no"?>
<!DOCTYPE svg PUBLIC "-//W3C//DTD SVG 1.1//EN"
  "http://www.w3.org/Graphics/SVG/1.1/DTD/svg11.dtd">
<svg xmlns:xlink="http://www.w3.org/1999/xlink" width="720pt" height="432pt" viewBox="0 0 720 432" xmlns="http://www.w3.org/2000/svg" version="1.1">
 <metadata>
  <rdf:RDF xmlns:dc="http://purl.org/dc/elements/1.1/" xmlns:cc="http://creativecommons.org/ns#" xmlns:rdf="http://www.w3.org/1999/02/22-rdf-syntax-ns#">
   <cc:Work>
    <dc:type rdf:resource="http://purl.org/dc/dcmitype/StillImage"/>
    <dc:date>2026-03-11T02:28:58.503358</dc:date>
    <dc:format>image/svg+xml</dc:format>
    <dc:creator>
     <cc:Agent>
      <dc:title>Matplotlib v3.7.5, https://matplotlib.org/</dc:title>
     </cc:Agent>
    </dc:creator>
   </cc:Work>
  </rdf:RDF>
 </metadata>
 <defs>
  <style type="text/css">*{stroke-linejoin: round; stroke-linecap: butt}</style>
 </defs>
 <g id="figure_1">
  <g id="patch_1">
   <path d="M 0 432 
L 720 432 
L 720 0 
L 0 0 
z
" style="fill: #ffffff"/>
  </g>
  <g id="axes_1">
   <g id="matplotlib.axis_1"/>
   <g id="matplotlib.axis_2"/>
   <g id="patch_2">
    <path d="M 502.056 218.16 
C 502.056 200.706262 498.621736 183.42187 491.949329 167.293884 
C 485.276921 151.165898 475.495849 136.507283 463.16468 124.155148 
C 450.833511 111.803013 436.191532 101.997054 420.074904 95.297258 
C 403.958276 88.597463 386.679743 85.133842 369.226031 85.104192 
C 351.772318 85.074542 334.482117 88.479439 318.342819 95.124439 
C 302.203522 101.76944 287.528312 111.525596 275.155247 123.835764 
C 262.782183 136.145932 252.951364 150.771231 246.2242 166.876455 
C 239.497036 182.981678 236.004067 200.254303 235.944768 217.707939 
C 235.885469 235.161576 239.260989 252.457537 245.878562 268.608099 
C 252.496136 284.758662 262.227349 299.450424 274.51648 311.844383 
C 286.805611 324.238342 301.414189 334.093991 317.507962 340.848504 
C 333.601734 347.603018 350.8684 351.125323 368.321911 351.214272 
C 385.775422 351.303221 403.077091 347.957088 419.238872 341.366959 
C 435.400653 334.776831 450.108926 325.07059 462.523743 312.802531 
C 474.93856 300.534472 484.819012 285.942657 491.600855 269.860383 
C 498.382698 253.778108 501.93433 236.517451 502.052928 219.064116 
L 369 218.16 
z
" style="fill: #f77189"/>
   </g>
   <g id="patch_3">
    <path d="M 502.052928 219.064116 
C 502.053942 218.914921 502.054705 218.765725 502.055217 218.616528 
C 502.055729 218.467331 502.05599 218.318133 502.056 218.168936 
L 369 218.16 
z
" style="fill: #bb9832"/>
   </g>
   <g id="patch_4">
    <path d="M 502.056 218.168936 
C 502.056 218.167444 502.056 218.165952 502.056 218.16446 
C 502.056 218.162968 502.056 218.161476 502.056 218.159984 
L 369 218.16 
z
" style="fill: #50b131"/>
   </g>
   <g id="text_1">
    <text style="fill: #262626; font: 10px 'Arial', 'Liberation Sans', 'DejaVu Sans', 'Bitstream Vera Sans', sans-serif; text-anchor: end" x="222.639245" y="220.248671" transform="rotate(-0 222.639245 220.248671)">newsapi</text>
   </g>
   <g id="text_2">
    <text style="fill: #262626; font: 10px 'Arial', 'Liberation Sans', 'DejaVu Sans', 'Bitstream Vera Sans', sans-serif; text-anchor: middle" x="289.166861" y="220.474701" transform="rotate(-0 289.166861 220.474701)">99.9%</text>
   </g>
   <g id="text_3">
    <text style="fill: #262626; font: 10px 'Arial', 'Liberation Sans', 'DejaVu Sans', 'Bitstream Vera Sans', sans-serif; text-anchor: start" x="515.360738" y="221.248119" transform="rotate(-0 515.360738 221.248119)">chicago_pd</text>
   </g>
   <g id="text_4">
    <text style="fill: #262626; font: 10px 'Arial', 'Liberation Sans', 'DejaVu Sans', 'Bitstream Vera Sans', sans-serif; text-anchor: middle" x="448.83313" y="221.019854" transform="rotate(-0 448.83313 221.019854)">0.1%</text>
   </g>
   <g id="text_5">
    <text style="fill: #262626; font: 10px 'Arial', 'Liberation Sans', 'DejaVu Sans', 'Bitstream Vera Sans', sans-serif; text-anchor: start" x="515.3616" y="220.750843" transform="rotate(-0 515.3616 220.750843)">chicago_police</text>
   </g>
   <g id="text_6">
    <text style="fill: #262626; font: 10px 'Arial', 'Liberation Sans', 'DejaVu Sans', 'Bitstream Vera Sans', sans-serif; text-anchor: middle" x="448.8336" y="220.748613" transform="rotate(-0 448.8336 220.748613)">0.0%</text>
   </g>
   <g id="text_7">
    <text style="fill: #262626; font: 12px 'Arial', 'Liberation Sans', 'DejaVu Sans', 'Bitstream Vera Sans', sans-serif; text-anchor: middle" x="369" y="45.84" transform="rotate(-0 369 45.84)">Incidents by Source</text>
   </g>
  </g>
 </g>
</svg>
