<?xml version="1.0" encoding="utf-8" standalone="no"?>
<!DOCTYPE svg PUBLIC "-//W3C//DTD SVG 1.1//EN"
  "http://www.w3.org/Graphics/SVG/1.1/DTD/svg11.dtd">
<svg xmlns:xlink="http://www.w3.org/1999/xlink" width="720pt" height="432pt" viewBox="0 0 720 432" xmlns="http://www.w3.org/2000/svg" version="1.1">
 <metadata>
  <rdf:RDF xmlns:dc="http://purl.org/dc/elements/1.1/" xmlns:cc="http://creativecommons.org/ns#" xmlns:rdf="http://www.w3.org/1999/02/22-rdf-syntax-ns#">
   <cc:Work>
    <dc:type rdf:resource="http://purl.org/dc/dcmitype/StillImage"/>
    <dc:date>2026-02-11T02:47:03.322741</dc:date>
    <dc:format>image/svg+xml</dc:format>
    <dc:creator>
     <cc:Agent>
      <dc:title>Matplotlib v3.7.5, https://matplotlib.org/</dc:title>
     </cc:Agent>
    </dc:creator>
   </cc:Work>
  </rdf:RDF>
 </metadata>
 <defs>
  <style type="text/css">*{stroke-linejoin: round; stroke-linecap: butt}</style>
 </defs>
 <g id="figure_1">
  <g id="patch_1">
   <path d="M 0 432 
L 720 432 
L 720 0 
L 0 0 
z
" style="fill: #ffffff"/>
  </g>
  <g id="axes_1">
   <g id="matplotlib.axis_1"/>
   <g id="matplotlib.axis_2"/>
   <g id="patch_2">
    <path d="M 502.056 218.16 
C 502.056 200.707388 498.622179 183.424089 491.950607 167.296975 
C 485.279036 151.169861 475.499159 136.51184 463.169406 124.159882 
C 450.839653 111.807925 436.199253 102.001689 420.08417 95.301111 
C 403.969087 88.600532 386.691994 85.135618 369.23941 85.104215 
C 351.786826 85.072813 334.497376 88.47553 318.358284 95.118073 
C 302.219193 101.760616 287.543598 111.514103 275.169475 123.82161 
C 262.795352 136.129118 252.96279 150.75185 246.233226 166.85485 
C 239.503662 182.957851 236.007667 200.228682 235.944862 217.681181 
C 235.882056 235.13368 239.253659 252.429224 245.867152 268.580242 
C 252.480645 284.73126 262.207709 299.42438 274.492932 311.820628 
C 286.778155 324.216876 301.383171 334.075733 317.474037 340.834261 
C 333.564903 347.592788 350.829415 351.119854 368.281773 351.214062 
C 385.734131 351.30827 403.035714 347.967792 419.198605 341.383371 
C 435.361497 334.79895 450.072095 325.098338 462.490428 312.83544 
C 474.908761 300.572542 484.793882 285.985289 491.581351 269.90661 
C 498.36882 253.82793 501.926944 236.569792 502.052554 219.117632 
L 369 218.16 
z
" style="fill: #f77189"/>
   </g>
   <g id="patch_3">
    <path d="M 502.052554 219.117632 
C 502.053691 218.959611 502.054547 218.801587 502.055121 218.643563 
C 502.055696 218.485538 502.055988 218.327513 502.056 218.169487 
L 369 218.16 
z
" style="fill: #bb9832"/>
   </g>
   <g id="patch_4">
    <path d="M 502.056 218.169487 
C 502.056 218.167907 502.056 218.166327 502.056 218.164746 
C 502.056 218.163166 502.056 218.161586 502.056 218.160006 
L 369 218.16 
z
" style="fill: #50b131"/>
   </g>
   <g id="text_1">
    <text style="fill: #262626; font: 10px 'Arial', 'Liberation Sans', 'DejaVu Sans', 'Bitstream Vera Sans', sans-serif; text-anchor: end" x="222.639348" y="220.219236" transform="rotate(-0 222.639348 220.219236)">newsapi</text>
   </g>
   <g id="text_2">
    <text style="fill: #262626; font: 10px 'Arial', 'Liberation Sans', 'DejaVu Sans', 'Bitstream Vera Sans', sans-serif; text-anchor: middle" x="289.166917" y="220.458646" transform="rotate(-0 289.166917 220.458646)">99.9%</text>
   </g>
   <g id="text_3">
    <text style="fill: #262626; font: 10px 'Arial', 'Liberation Sans', 'DejaVu Sans', 'Bitstream Vera Sans', sans-serif; text-anchor: start" x="515.360633" y="221.277857" transform="rotate(-0 515.360633 221.277857)">chicago_pd</text>
   </g>
   <g id="text_4">
    <text style="fill: #262626; font: 10px 'Arial', 'Liberation Sans', 'DejaVu Sans', 'Bitstream Vera Sans', sans-serif; text-anchor: middle" x="448.833073" y="221.036075" transform="rotate(-0 448.833073 221.036075)">0.1%</text>
   </g>
   <g id="text_5">
    <text style="fill: #262626; font: 10px 'Arial', 'Liberation Sans', 'DejaVu Sans', 'Bitstream Vera Sans', sans-serif; text-anchor: start" x="515.3616" y="220.751159" transform="rotate(-0 515.3616 220.751159)">chicago_police</text>
   </g>
   <g id="text_6">
    <text style="fill: #262626; font: 10px 'Arial', 'Liberation Sans', 'DejaVu Sans', 'Bitstream Vera Sans', sans-serif; text-anchor: middle" x="448.8336" y="220.748785" transform="rotate(-0 448.8336 220.748785)">0.0%</text>
   </g>
   <g id="text_7">
    <text style="fill: #262626; font: 12px 'Arial', 'Liberation Sans', 'DejaVu Sans', 'Bitstream Vera Sans', sans-serif; text-anchor: middle" x="369" y="45.84" transform="rotate(-0 369 45.84)">Incidents by Source</text>
   </g>
  </g>
 </g>
</svg>
