<?xml version="1.0" encoding="utf-8" standalone="no"?>
<!DOCTYPE svg PUBLIC "-//W3C//DTD SVG 1.1//EN"
  "http://www.w3.org/Graphics/SVG/1.1/DTD/svg11.dtd">
<svg xmlns:xlink="http://www.w3.org/1999/xlink" width="720pt" height="432pt" viewBox="0 0 720 432" xmlns="http://www.w3.org/2000/svg" version="1.1">
 <metadata>
  <rdf:RDF xmlns:dc="http://purl.org/dc/elements/1.1/" xmlns:cc="http://creativecommons.org/ns#" xmlns:rdf="http://www.w3.org/1999/02/22-rdf-syntax-ns#">
   <cc:Work>
    <dc:type rdf:resource="http://purl.org/dc/dcmitype/StillImage"/>
    <dc:date>2026-02-18T01:45:53.730499</dc:date>
    <dc:format>image/svg+xml</dc:format>
    <dc:creator>
     <cc:Agent>
      <dc:title>Matplotlib v3.7.5, https://matplotlib.org/</dc:title>
     </cc:Agent>
    </dc:creator>
   </cc:Work>
  </rdf:RDF>
 </metadata>
 <defs>
  <style type="text/css">*{stroke-linejoin: round; stroke-linecap: butt}</style>
 </defs>
 <g id="figure_1">
  <g id="patch_1">
   <path d="M 0 432 
L 720 432 
L 720 0 
L 0 0 
z
" style="fill: #ffffff"/>
  </g>
  <g id="axes_1">
   <g id="matplotlib.axis_1"/>
   <g id="matplotlib.axis_2"/>
   <g id="patch_2">
    <path d="M 502.056 218.16 
C 502.056 200.707047 498.622045 183.423417 491.95022 167.29604 
C 485.278396 151.168662 475.498157 136.510461 463.167976 124.15845 
C 450.837795 111.806438 436.196917 102.000286 420.081366 95.299945 
C 403.965815 88.599603 386.688287 85.135081 369.235361 85.104208 
C 351.782436 85.073336 334.492759 88.476713 318.353605 95.119999 
C 302.21445 101.763286 287.538972 111.51758 275.16517 123.825893 
C 262.791367 136.134206 252.959332 150.757715 246.230494 166.861388 
C 239.501656 182.965061 236.006577 200.236435 235.944833 217.689278 
C 235.883088 235.142121 239.255876 252.437792 245.870604 268.588672 
C 252.485332 284.739552 262.213652 299.432262 274.500057 311.827817 
C 286.786463 324.223372 301.392557 334.081259 317.484302 340.838572 
C 333.576048 347.595885 350.841212 351.12151 368.293919 351.214127 
C 385.746626 351.306743 403.048235 347.964554 419.210791 341.378406 
C 435.373347 334.792258 450.083241 325.089943 462.500511 312.825483 
C 474.91778 300.561023 484.801488 285.972389 491.587255 269.892622 
C 498.373021 253.812854 501.929181 236.553954 502.052669 219.101438 
L 369 218.16 
z
" style="fill: #f77189"/>
   </g>
   <g id="patch_3">
    <path d="M 502.052669 219.101438 
C 502.053769 218.946087 502.054596 218.790735 502.055151 218.635381 
C 502.055706 218.480028 502.055989 218.324673 502.056 218.169319 
L 369 218.16 
z
" style="fill: #bb9832"/>
   </g>
   <g id="patch_4">
    <path d="M 502.056 218.169319 
C 502.056 218.167765 502.056 218.166212 502.056 218.164658 
C 502.056 218.163105 502.056 218.161551 502.056 218.159998 
L 369 218.16 
z
" style="fill: #50b131"/>
   </g>
   <g id="text_1">
    <text style="fill: #262626; font: 10px 'Arial', 'Liberation Sans', 'DejaVu Sans', 'Bitstream Vera Sans', sans-serif; text-anchor: end" x="222.639316" y="220.228143" transform="rotate(-0 222.639316 220.228143)">newsapi</text>
   </g>
   <g id="text_2">
    <text style="fill: #262626; font: 10px 'Arial', 'Liberation Sans', 'DejaVu Sans', 'Bitstream Vera Sans', sans-serif; text-anchor: middle" x="289.1669" y="220.463504" transform="rotate(-0 289.1669 220.463504)">99.9%</text>
   </g>
   <g id="text_3">
    <text style="fill: #262626; font: 10px 'Arial', 'Liberation Sans', 'DejaVu Sans', 'Bitstream Vera Sans', sans-serif; text-anchor: start" x="515.360666" y="221.268857" transform="rotate(-0 515.360666 221.268857)">chicago_pd</text>
   </g>
   <g id="text_4">
    <text style="fill: #262626; font: 10px 'Arial', 'Liberation Sans', 'DejaVu Sans', 'Bitstream Vera Sans', sans-serif; text-anchor: middle" x="448.83309" y="221.031166" transform="rotate(-0 448.83309 221.031166)">0.1%</text>
   </g>
   <g id="text_5">
    <text style="fill: #262626; font: 10px 'Arial', 'Liberation Sans', 'DejaVu Sans', 'Bitstream Vera Sans', sans-serif; text-anchor: start" x="515.3616" y="220.751061" transform="rotate(-0 515.3616 220.751061)">chicago_police</text>
   </g>
   <g id="text_6">
    <text style="fill: #262626; font: 10px 'Arial', 'Liberation Sans', 'DejaVu Sans', 'Bitstream Vera Sans', sans-serif; text-anchor: middle" x="448.8336" y="220.748732" transform="rotate(-0 448.8336 220.748732)">0.0%</text>
   </g>
   <g id="text_7">
    <text style="fill: #262626; font: 12px 'Arial', 'Liberation Sans', 'DejaVu Sans', 'Bitstream Vera Sans', sans-serif; text-anchor: middle" x="369" y="45.84" transform="rotate(-0 369 45.84)">Incidents by Source</text>
   </g>
  </g>
 </g>
</svg>
