<?xml version="1.0" encoding="utf-8" standalone="no"?>
<!DOCTYPE svg PUBLIC "-//W3C//DTD SVG 1.1//EN"
  "http://www.w3.org/Graphics/SVG/1.1/DTD/svg11.dtd">
<svg xmlns:xlink="http://www.w3.org/1999/xlink" width="720pt" height="432pt" viewBox="0 0 720 432" xmlns="http://www.w3.org/2000/svg" version="1.1">
 <metadata>
  <rdf:RDF xmlns:dc="http://purl.org/dc/elements/1.1/" xmlns:cc="http://creativecommons.org/ns#" xmlns:rdf="http://www.w3.org/1999/02/22-rdf-syntax-ns#">
   <cc:Work>
    <dc:type rdf:resource="http://purl.org/dc/dcmitype/StillImage"/>
    <dc:date>2025-12-17T18:26:10.978190</dc:date>
    <dc:format>image/svg+xml</dc:format>
    <dc:creator>
     <cc:Agent>
      <dc:title>Matplotlib v3.7.5, https://matplotlib.org/</dc:title>
     </cc:Agent>
    </dc:creator>
   </cc:Work>
  </rdf:RDF>
 </metadata>
 <defs>
  <style type="text/css">*{stroke-linejoin: round; stroke-linecap: butt}</style>
 </defs>
 <g id="figure_1">
  <g id="patch_1">
   <path d="M 0 432 
L 720 432 
L 720 0 
L 0 0 
z
" style="fill: #ffffff"/>
  </g>
  <g id="axes_1">
   <g id="matplotlib.axis_1"/>
   <g id="matplotlib.axis_2"/>
   <g id="patch_2">
    <path d="M 502.056 218.16 
C 502.056 200.710288 498.62332 183.429804 491.953901 167.304938 
C 485.284482 151.180072 475.507686 136.523583 463.181581 124.172081 
C 450.855477 111.820579 436.219144 102.013634 420.10804 95.311038 
C 403.996937 88.608443 386.723555 85.1402 369.27388 85.104282 
C 351.824205 85.068364 334.536692 88.465467 318.398132 95.10168 
C 302.259572 101.737894 287.58299 111.484501 275.206142 123.785155 
C 262.829294 136.085809 252.992243 150.701925 246.256499 166.799198 
C 239.520754 182.896471 236.016964 200.162677 235.945128 217.612241 
C 235.873291 235.061805 239.234803 252.356274 245.837783 268.50846 
C 252.440763 284.660645 262.15714 299.357259 274.432291 311.7594 
C 286.707443 324.161541 301.303279 334.028657 317.386653 340.797521 
C 333.470028 347.566386 350.728985 351.105709 368.178364 351.213463 
C 385.627743 351.321217 402.929095 347.995311 419.094838 341.425593 
C 435.260581 334.855874 449.977163 325.169769 462.404545 312.920172 
C 474.831927 300.670575 484.729065 286.095079 491.531021 270.025672 
C 498.332977 253.956265 501.907819 236.70463 502.05149 219.255509 
L 369 218.16 
z
" style="fill: #f77189"/>
   </g>
   <g id="patch_3">
    <path d="M 502.05149 219.255509 
C 502.052978 219.074736 502.054098 218.893959 502.05485 218.713181 
C 502.055602 218.532403 502.055985 218.351623 502.056 218.170844 
L 369 218.16 
z
" style="fill: #bb9832"/>
   </g>
   <g id="patch_4">
    <path d="M 502.056 218.170844 
C 502.056 218.169036 502.056 218.167228 502.056 218.16542 
C 502.056 218.163612 502.056 218.161805 502.056 218.159997 
L 369 218.16 
z
" style="fill: #50b131"/>
   </g>
   <g id="text_1">
    <text style="fill: #262626; font: 10px 'Arial', 'Liberation Sans', 'DejaVu Sans', 'Bitstream Vera Sans', sans-serif; text-anchor: end" x="222.63964" y="220.143402" transform="rotate(-0 222.63964 220.143402)">newsapi</text>
   </g>
   <g id="text_2">
    <text style="fill: #262626; font: 10px 'Arial', 'Liberation Sans', 'DejaVu Sans', 'Bitstream Vera Sans', sans-serif; text-anchor: middle" x="289.167077" y="220.417282" transform="rotate(-0 289.167077 220.417282)">99.9%</text>
   </g>
   <g id="text_3">
    <text style="fill: #262626; font: 10px 'Arial', 'Liberation Sans', 'DejaVu Sans', 'Bitstream Vera Sans', sans-serif; text-anchor: start" x="515.360335" y="221.354437" transform="rotate(-0 515.360335 221.354437)">chicago_pd</text>
   </g>
   <g id="text_4">
    <text style="fill: #262626; font: 10px 'Arial', 'Liberation Sans', 'DejaVu Sans', 'Bitstream Vera Sans', sans-serif; text-anchor: middle" x="448.83291" y="221.077846" transform="rotate(-0 448.83291 221.077846)">0.1%</text>
   </g>
   <g id="text_5">
    <text style="fill: #262626; font: 10px 'Arial', 'Liberation Sans', 'DejaVu Sans', 'Bitstream Vera Sans', sans-serif; text-anchor: start" x="515.3616" y="220.7519" transform="rotate(-0 515.3616 220.7519)">chicago_police</text>
   </g>
   <g id="text_6">
    <text style="fill: #262626; font: 10px 'Arial', 'Liberation Sans', 'DejaVu Sans', 'Bitstream Vera Sans', sans-serif; text-anchor: middle" x="448.8336" y="220.74919" transform="rotate(-0 448.8336 220.74919)">0.0%</text>
   </g>
   <g id="text_7">
    <text style="fill: #262626; font: 12px 'Arial', 'Liberation Sans', 'DejaVu Sans', 'Bitstream Vera Sans', sans-serif; text-anchor: middle" x="369" y="45.84" transform="rotate(-0 369 45.84)">Incidents by Source</text>
   </g>
  </g>
 </g>
</svg>
