<?xml version="1.0" encoding="utf-8" standalone="no"?>
<!DOCTYPE svg PUBLIC "-//W3C//DTD SVG 1.1//EN"
  "http://www.w3.org/Graphics/SVG/1.1/DTD/svg11.dtd">
<svg xmlns:xlink="http://www.w3.org/1999/xlink" width="720pt" height="432pt" viewBox="0 0 720 432" xmlns="http://www.w3.org/2000/svg" version="1.1">
 <metadata>
  <rdf:RDF xmlns:dc="http://purl.org/dc/elements/1.1/" xmlns:cc="http://creativecommons.org/ns#" xmlns:rdf="http://www.w3.org/1999/02/22-rdf-syntax-ns#">
   <cc:Work>
    <dc:type rdf:resource="http://purl.org/dc/dcmitype/StillImage"/>
    <dc:date>2026-05-29T02:41:33.708854</dc:date>
    <dc:format>image/svg+xml</dc:format>
    <dc:creator>
     <cc:Agent>
      <dc:title>Matplotlib v3.7.5, https://matplotlib.org/</dc:title>
     </cc:Agent>
    </dc:creator>
   </cc:Work>
  </rdf:RDF>
 </metadata>
 <defs>
  <style type="text/css">*{stroke-linejoin: round; stroke-linecap: butt}</style>
 </defs>
 <g id="figure_1">
  <g id="patch_1">
   <path d="M 0 432 
L 720 432 
L 720 0 
L 0 0 
z
" style="fill: #ffffff"/>
  </g>
  <g id="axes_1">
   <g id="matplotlib.axis_1"/>
   <g id="matplotlib.axis_2"/>
   <g id="patch_2">
    <path d="M 502.056 218.16 
C 502.056 200.703749 498.620747 183.416917 491.946473 167.286983 
C 485.2722 151.157049 475.488458 136.497106 463.154126 124.144578 
C 450.819795 111.792049 436.174292 101.986706 420.054215 95.28866 
C 403.934138 88.590614 386.652389 85.129879 369.196157 85.104145 
C 351.739925 85.07841 334.448048 88.488174 318.308292 95.138661 
C 302.168536 101.789148 287.494185 111.551267 275.123486 123.867374 
C 262.752787 136.183481 252.925863 150.814513 246.20406 166.924698 
C 239.482256 183.034883 235.996048 200.311511 235.944578 217.767686 
C 235.893109 235.223861 239.277377 252.520747 245.904063 268.670289 
C 252.530748 284.819832 262.271223 299.508558 274.569079 311.897401 
C 286.866936 324.286244 301.483464 334.134727 317.583722 340.880273 
C 333.68398 347.62582 350.95545 351.137494 368.41153 351.214699 
C 385.86761 351.291903 403.169466 347.933138 419.328761 341.330268 
C 435.488055 334.727398 450.191126 325.008589 462.598085 312.72901 
C 475.005044 300.449431 484.875065 285.847438 491.64434 269.757142 
C 498.413615 253.666846 501.950748 236.400572 502.053687 218.944625 
L 369 218.16 
z
" style="fill: #f77189"/>
   </g>
   <g id="patch_3">
    <path d="M 502.053687 218.944625 
C 502.05445 218.815152 502.055025 218.685678 502.05541 218.556204 
C 502.055796 218.426729 502.055992 218.297254 502.056 218.167779 
L 369 218.16 
z
" style="fill: #bb9832"/>
   </g>
   <g id="patch_4">
    <path d="M 502.056 218.167779 
C 502.056 218.166484 502.056 218.16519 502.056 218.163895 
C 502.056 218.1626 502.056 218.161305 502.056 218.160011 
L 369 218.16 
z
" style="fill: #50b131"/>
   </g>
   <g id="text_1">
    <text style="fill: #262626; font: 10px 'Arial', 'Liberation Sans', 'DejaVu Sans', 'Bitstream Vera Sans', sans-serif; text-anchor: end" x="222.639036" y="220.314392" transform="rotate(-0 222.639036 220.314392)">newsapi</text>
   </g>
   <g id="text_2">
    <text style="fill: #262626; font: 10px 'Arial', 'Liberation Sans', 'DejaVu Sans', 'Bitstream Vera Sans', sans-serif; text-anchor: middle" x="289.166747" y="220.510549" transform="rotate(-0 289.166747 220.510549)">99.9%</text>
   </g>
   <g id="text_3">
    <text style="fill: #262626; font: 10px 'Arial', 'Liberation Sans', 'DejaVu Sans', 'Bitstream Vera Sans', sans-serif; text-anchor: start" x="515.360951" y="221.181762" transform="rotate(-0 515.360951 221.181762)">chicago_pd</text>
   </g>
   <g id="text_4">
    <text style="fill: #262626; font: 10px 'Arial', 'Liberation Sans', 'DejaVu Sans', 'Bitstream Vera Sans', sans-serif; text-anchor: middle" x="448.833246" y="220.98366" transform="rotate(-0 448.833246 220.98366)">0.1%</text>
   </g>
   <g id="text_5">
    <text style="fill: #262626; font: 10px 'Arial', 'Liberation Sans', 'DejaVu Sans', 'Bitstream Vera Sans', sans-serif; text-anchor: start" x="515.3616" y="220.750222" transform="rotate(-0 515.3616 220.750222)">chicago_police</text>
   </g>
   <g id="text_6">
    <text style="fill: #262626; font: 10px 'Arial', 'Liberation Sans', 'DejaVu Sans', 'Bitstream Vera Sans', sans-serif; text-anchor: middle" x="448.8336" y="220.748274" transform="rotate(-0 448.8336 220.748274)">0.0%</text>
   </g>
   <g id="text_7">
    <text style="fill: #262626; font: 12px 'Arial', 'Liberation Sans', 'DejaVu Sans', 'Bitstream Vera Sans', sans-serif; text-anchor: middle" x="369" y="45.84" transform="rotate(-0 369 45.84)">Incidents by Source</text>
   </g>
  </g>
 </g>
</svg>
