<?xml version="1.0" encoding="utf-8" standalone="no"?>
<!DOCTYPE svg PUBLIC "-//W3C//DTD SVG 1.1//EN"
  "http://www.w3.org/Graphics/SVG/1.1/DTD/svg11.dtd">
<svg xmlns:xlink="http://www.w3.org/1999/xlink" width="720pt" height="432pt" viewBox="0 0 720 432" xmlns="http://www.w3.org/2000/svg" version="1.1">
 <metadata>
  <rdf:RDF xmlns:dc="http://purl.org/dc/elements/1.1/" xmlns:cc="http://creativecommons.org/ns#" xmlns:rdf="http://www.w3.org/1999/02/22-rdf-syntax-ns#">
   <cc:Work>
    <dc:type rdf:resource="http://purl.org/dc/dcmitype/StillImage"/>
    <dc:date>2025-02-13T00:58:49.041773</dc:date>
    <dc:format>image/svg+xml</dc:format>
    <dc:creator>
     <cc:Agent>
      <dc:title>Matplotlib v3.7.5, https://matplotlib.org/</dc:title>
     </cc:Agent>
    </dc:creator>
   </cc:Work>
  </rdf:RDF>
 </metadata>
 <defs>
  <style type="text/css">*{stroke-linejoin: round; stroke-linecap: butt}</style>
 </defs>
 <g id="figure_1">
  <g id="patch_1">
   <path d="M 0 432 
L 720 432 
L 720 0 
L 0 0 
z
" style="fill: #ffffff"/>
  </g>
  <g id="axes_1">
   <g id="matplotlib.axis_1"/>
   <g id="matplotlib.axis_2"/>
   <g id="patch_2">
    <path d="M 502.056 218.16 
C 502.056 200.809365 498.66219 183.625087 492.066134 167.57714 
C 485.470079 151.529194 475.798264 136.925312 463.596619 124.589819 
C 451.394974 112.254325 436.897477 102.423764 420.922445 95.653025 
C 404.947414 88.882287 387.801183 85.301206 370.451581 85.111918 
C 353.101978 84.922631 335.881698 88.128766 319.762746 94.549353 
C 303.643795 100.96994 288.935267 110.481858 276.467394 122.548202 
C 263.99952 134.614546 254.011383 149.003934 247.066766 164.904149 
C 240.12215 180.804364 236.354225 197.910506 235.975672 215.257011 
C 235.59712 232.603516 238.615199 249.857749 244.859553 266.045787 
C 251.103908 282.233825 260.454796 297.045248 272.384403 309.644018 
C 284.31401 322.242788 298.593575 332.387313 314.417082 339.50498 
C 330.240588 346.622647 347.304606 350.576968 364.645949 351.144741 
C 381.987292 351.712514 399.273423 348.88285 415.528621 342.815471 
C 431.783819 336.748093 446.696374 327.559347 459.424541 315.767896 
C 472.152709 303.976446 482.452413 289.808403 489.742284 274.063489 
C 497.032154 258.318575 501.172401 241.298712 501.929326 223.964596 
L 369 218.16 
z
" style="fill: #f77189"/>
   </g>
   <g id="patch_3">
    <path d="M 501.929326 223.964596 
C 501.971127 223.007337 502.002586 222.049654 502.023698 221.091715 
C 502.04481 220.133777 502.055574 219.175638 502.055988 218.217467 
L 369 218.16 
z
" style="fill: #bb9832"/>
   </g>
   <g id="patch_4">
    <path d="M 502.055988 218.217467 
C 502.055992 218.207885 502.055995 218.198303 502.055997 218.188722 
C 502.055999 218.17914 502.056 218.169558 502.056 218.159977 
L 369 218.16 
z
" style="fill: #50b131"/>
   </g>
   <g id="text_1">
    <text style="fill: #262626; font: 10px 'Arial', 'Liberation Sans', 'DejaVu Sans', 'Bitstream Vera Sans', sans-serif; text-anchor: end" x="222.673239" y="217.55265" transform="rotate(-0 222.673239 217.55265)">newsapi</text>
   </g>
   <g id="text_2">
    <text style="fill: #262626; font: 10px 'Arial', 'Liberation Sans', 'DejaVu Sans', 'Bitstream Vera Sans', sans-serif; text-anchor: middle" x="289.185403" y="219.004144" transform="rotate(-0 289.185403 219.004144)">99.3%</text>
   </g>
   <g id="text_3">
    <text style="fill: #262626; font: 10px 'Arial', 'Liberation Sans', 'DejaVu Sans', 'Bitstream Vera Sans', sans-serif; text-anchor: start" x="515.326068" y="223.970824" transform="rotate(-0 515.326068 223.970824)">chicago_pd</text>
   </g>
   <g id="text_4">
    <text style="fill: #262626; font: 10px 'Arial', 'Liberation Sans', 'DejaVu Sans', 'Bitstream Vera Sans', sans-serif; text-anchor: middle" x="448.814219" y="222.504967" transform="rotate(-0 448.814219 222.504967)">0.7%</text>
   </g>
   <g id="text_5">
    <text style="fill: #262626; font: 10px 'Arial', 'Liberation Sans', 'DejaVu Sans', 'Bitstream Vera Sans', sans-serif; text-anchor: start" x="515.361597" y="220.777531" transform="rotate(-0 515.361597 220.777531)">chicago_police</text>
   </g>
   <g id="text_6">
    <text style="fill: #262626; font: 10px 'Arial', 'Liberation Sans', 'DejaVu Sans', 'Bitstream Vera Sans', sans-serif; text-anchor: middle" x="448.833598" y="220.763171" transform="rotate(-0 448.833598 220.763171)">0.0%</text>
   </g>
   <g id="text_7">
    <text style="fill: #262626; font: 12px 'Arial', 'Liberation Sans', 'DejaVu Sans', 'Bitstream Vera Sans', sans-serif; text-anchor: middle" x="369" y="45.84" transform="rotate(-0 369 45.84)">Incidents by Source</text>
   </g>
  </g>
 </g>
</svg>
