<?xml version="1.0" encoding="utf-8" standalone="no"?>
<!DOCTYPE svg PUBLIC "-//W3C//DTD SVG 1.1//EN"
  "http://www.w3.org/Graphics/SVG/1.1/DTD/svg11.dtd">
<svg xmlns:xlink="http://www.w3.org/1999/xlink" width="720pt" height="432pt" viewBox="0 0 720 432" xmlns="http://www.w3.org/2000/svg" version="1.1">
 <metadata>
  <rdf:RDF xmlns:dc="http://purl.org/dc/elements/1.1/" xmlns:cc="http://creativecommons.org/ns#" xmlns:rdf="http://www.w3.org/1999/02/22-rdf-syntax-ns#">
   <cc:Work>
    <dc:type rdf:resource="http://purl.org/dc/dcmitype/StillImage"/>
    <dc:date>2026-02-24T12:53:29.026672</dc:date>
    <dc:format>image/svg+xml</dc:format>
    <dc:creator>
     <cc:Agent>
      <dc:title>Matplotlib v3.7.5, https://matplotlib.org/</dc:title>
     </cc:Agent>
    </dc:creator>
   </cc:Work>
  </rdf:RDF>
 </metadata>
 <defs>
  <style type="text/css">*{stroke-linejoin: round; stroke-linecap: butt}</style>
 </defs>
 <g id="figure_1">
  <g id="patch_1">
   <path d="M 0 432 
L 720 432 
L 720 0 
L 0 0 
z
" style="fill: #ffffff"/>
  </g>
  <g id="axes_1">
   <g id="matplotlib.axis_1"/>
   <g id="matplotlib.axis_2"/>
   <g id="patch_2">
    <path d="M 502.056 218.16 
C 502.056 200.706761 498.621932 183.422853 491.949895 167.295254 
C 485.277858 151.167654 475.497316 136.509303 463.166775 124.157246 
C 450.836233 111.80519 436.194954 101.999108 420.079011 95.298966 
C 403.963067 88.598823 386.685173 85.134629 369.23196 85.104202 
C 351.778748 85.073775 334.48888 88.477706 318.349673 95.121618 
C 302.210467 101.765529 287.535087 111.520502 275.161553 123.829491 
C 262.788019 136.13848 252.956428 150.762641 246.2282 166.866879 
C 239.499972 182.971118 236.005662 200.242947 235.944809 217.69608 
C 235.883955 235.149213 239.257739 252.444989 245.873504 268.595753 
C 252.489269 284.746518 262.218644 299.438882 274.506043 311.833855 
C 286.793442 324.228829 301.400441 334.0859 317.492926 340.842193 
C 333.58541 347.598485 350.851121 351.1229 368.304122 351.21418 
C 385.757122 351.30546 403.058753 347.961834 419.221027 341.374235 
C 435.3833 334.786636 450.092603 325.08289 462.508979 312.817118 
C 474.925355 300.551346 484.807876 285.961553 491.592213 269.880871 
C 498.376549 253.80019 501.931059 236.540649 502.052765 219.087835 
L 369 218.16 
z
" style="fill: #f77189"/>
   </g>
   <g id="patch_3">
    <path d="M 502.052765 219.087835 
C 502.053833 218.934732 502.054636 218.781628 502.055175 218.628522 
C 502.055714 218.475417 502.055989 218.322311 502.056 218.169204 
L 369 218.16 
z
" style="fill: #bb9832"/>
   </g>
   <g id="patch_4">
    <path d="M 502.056 218.169204 
C 502.056 218.167673 502.056 218.166142 502.056 218.164611 
C 502.056 218.16308 502.056 218.161549 502.056 218.160018 
L 369 218.16 
z
" style="fill: #50b131"/>
   </g>
   <g id="text_1">
    <text style="fill: #262626; font: 10px 'Arial', 'Liberation Sans', 'DejaVu Sans', 'Bitstream Vera Sans', sans-serif; text-anchor: end" x="222.63929" y="220.235625" transform="rotate(-0 222.63929 220.235625)">newsapi</text>
   </g>
   <g id="text_2">
    <text style="fill: #262626; font: 10px 'Arial', 'Liberation Sans', 'DejaVu Sans', 'Bitstream Vera Sans', sans-serif; text-anchor: middle" x="289.166885" y="220.467585" transform="rotate(-0 289.166885 220.467585)">99.9%</text>
   </g>
   <g id="text_3">
    <text style="fill: #262626; font: 10px 'Arial', 'Liberation Sans', 'DejaVu Sans', 'Bitstream Vera Sans', sans-serif; text-anchor: start" x="515.360693" y="221.261312" transform="rotate(-0 515.360693 221.261312)">chicago_pd</text>
   </g>
   <g id="text_4">
    <text style="fill: #262626; font: 10px 'Arial', 'Liberation Sans', 'DejaVu Sans', 'Bitstream Vera Sans', sans-serif; text-anchor: middle" x="448.833105" y="221.027051" transform="rotate(-0 448.833105 221.027051)">0.1%</text>
   </g>
   <g id="text_5">
    <text style="fill: #262626; font: 10px 'Arial', 'Liberation Sans', 'DejaVu Sans', 'Bitstream Vera Sans', sans-serif; text-anchor: start" x="515.3616" y="220.75101" transform="rotate(-0 515.3616 220.75101)">chicago_police</text>
   </g>
   <g id="text_6">
    <text style="fill: #262626; font: 10px 'Arial', 'Liberation Sans', 'DejaVu Sans', 'Bitstream Vera Sans', sans-serif; text-anchor: middle" x="448.8336" y="220.748704" transform="rotate(-0 448.8336 220.748704)">0.0%</text>
   </g>
   <g id="text_7">
    <text style="fill: #262626; font: 12px 'Arial', 'Liberation Sans', 'DejaVu Sans', 'Bitstream Vera Sans', sans-serif; text-anchor: middle" x="369" y="45.84" transform="rotate(-0 369 45.84)">Incidents by Source</text>
   </g>
  </g>
 </g>
</svg>
