<?xml version="1.0" encoding="utf-8" standalone="no"?>
<!DOCTYPE svg PUBLIC "-//W3C//DTD SVG 1.1//EN"
  "http://www.w3.org/Graphics/SVG/1.1/DTD/svg11.dtd">
<svg xmlns:xlink="http://www.w3.org/1999/xlink" width="720pt" height="432pt" viewBox="0 0 720 432" xmlns="http://www.w3.org/2000/svg" version="1.1">
 <metadata>
  <rdf:RDF xmlns:dc="http://purl.org/dc/elements/1.1/" xmlns:cc="http://creativecommons.org/ns#" xmlns:rdf="http://www.w3.org/1999/02/22-rdf-syntax-ns#">
   <cc:Work>
    <dc:type rdf:resource="http://purl.org/dc/dcmitype/StillImage"/>
    <dc:date>2026-04-11T02:42:21.300646</dc:date>
    <dc:format>image/svg+xml</dc:format>
    <dc:creator>
     <cc:Agent>
      <dc:title>Matplotlib v3.7.5, https://matplotlib.org/</dc:title>
     </cc:Agent>
    </dc:creator>
   </cc:Work>
  </rdf:RDF>
 </metadata>
 <defs>
  <style type="text/css">*{stroke-linejoin: round; stroke-linecap: butt}</style>
 </defs>
 <g id="figure_1">
  <g id="patch_1">
   <path d="M 0 432 
L 720 432 
L 720 0 
L 0 0 
z
" style="fill: #ffffff"/>
  </g>
  <g id="axes_1">
   <g id="matplotlib.axis_1"/>
   <g id="matplotlib.axis_2"/>
   <g id="patch_2">
    <path d="M 502.056 218.16 
C 502.056 200.705315 498.621363 183.420003 491.948252 167.291283 
C 485.275141 151.162562 475.493063 136.503446 463.160702 124.151163 
C 450.82834 111.79888 436.185033 101.993152 420.067105 95.294016 
C 403.949177 88.59488 386.669431 85.132347 369.214769 85.104173 
C 351.760107 85.075999 334.469273 88.482731 318.329803 95.1298 
C 302.190332 101.776868 287.515446 111.535272 275.143273 123.847679 
C 262.7711 136.160086 252.941749 150.787547 246.216605 166.894641 
C 239.491462 183.001734 236.001041 200.275869 235.944693 217.730463 
C 235.888345 235.185057 239.267163 252.481366 245.888172 268.631545 
C 252.50918 284.781724 262.243885 299.472343 274.536306 311.864373 
C 286.828726 324.256404 301.440302 334.109353 317.53652 340.860486 
C 333.632737 347.61162 350.901215 351.129918 368.355695 351.21444 
C 385.810176 351.298962 403.111917 347.948067 419.272762 341.353135 
C 435.433607 334.758204 450.139919 325.047224 462.551775 312.774822 
C 474.963631 300.50242 484.840152 285.906767 491.617258 269.821467 
C 498.394364 253.736168 501.940531 236.473392 502.053227 219.01907 
L 369 218.16 
z
" style="fill: #f77189"/>
   </g>
   <g id="patch_3">
    <path d="M 502.053227 219.01907 
C 502.054142 218.877313 502.054831 218.735555 502.055293 218.593795 
C 502.055755 218.452036 502.055991 218.310276 502.056 218.168516 
L 369 218.16 
z
" style="fill: #bb9832"/>
   </g>
   <g id="patch_4">
    <path d="M 502.056 218.168516 
C 502.056 218.167099 502.056 218.165681 502.056 218.164263 
C 502.056 218.162846 502.056 218.161428 502.056 218.160011 
L 369 218.16 
z
" style="fill: #50b131"/>
   </g>
   <g id="text_1">
    <text style="fill: #262626; font: 10px 'Arial', 'Liberation Sans', 'DejaVu Sans', 'Bitstream Vera Sans', sans-serif; text-anchor: end" x="222.639163" y="220.273446" transform="rotate(-0 222.639163 220.273446)">newsapi</text>
   </g>
   <g id="text_2">
    <text style="fill: #262626; font: 10px 'Arial', 'Liberation Sans', 'DejaVu Sans', 'Bitstream Vera Sans', sans-serif; text-anchor: middle" x="289.166816" y="220.488215" transform="rotate(-0 289.166816 220.488215)">99.9%</text>
   </g>
   <g id="text_3">
    <text style="fill: #262626; font: 10px 'Arial', 'Liberation Sans', 'DejaVu Sans', 'Bitstream Vera Sans', sans-serif; text-anchor: start" x="515.360822" y="221.223112" transform="rotate(-0 515.360822 221.223112)">chicago_pd</text>
   </g>
   <g id="text_4">
    <text style="fill: #262626; font: 10px 'Arial', 'Liberation Sans', 'DejaVu Sans', 'Bitstream Vera Sans', sans-serif; text-anchor: middle" x="448.833176" y="221.006215" transform="rotate(-0 448.833176 221.006215)">0.1%</text>
   </g>
   <g id="text_5">
    <text style="fill: #262626; font: 10px 'Arial', 'Liberation Sans', 'DejaVu Sans', 'Bitstream Vera Sans', sans-serif; text-anchor: start" x="515.3616" y="220.750627" transform="rotate(-0 515.3616 220.750627)">chicago_police</text>
   </g>
   <g id="text_6">
    <text style="fill: #262626; font: 10px 'Arial', 'Liberation Sans', 'DejaVu Sans', 'Bitstream Vera Sans', sans-serif; text-anchor: middle" x="448.8336" y="220.748495" transform="rotate(-0 448.8336 220.748495)">0.0%</text>
   </g>
   <g id="text_7">
    <text style="fill: #262626; font: 12px 'Arial', 'Liberation Sans', 'DejaVu Sans', 'Bitstream Vera Sans', sans-serif; text-anchor: middle" x="369" y="45.84" transform="rotate(-0 369 45.84)">Incidents by Source</text>
   </g>
  </g>
 </g>
</svg>
