<?xml version="1.0" encoding="utf-8" standalone="no"?>
<!DOCTYPE svg PUBLIC "-//W3C//DTD SVG 1.1//EN"
  "http://www.w3.org/Graphics/SVG/1.1/DTD/svg11.dtd">
<svg xmlns:xlink="http://www.w3.org/1999/xlink" width="720pt" height="432pt" viewBox="0 0 720 432" xmlns="http://www.w3.org/2000/svg" version="1.1">
 <metadata>
  <rdf:RDF xmlns:dc="http://purl.org/dc/elements/1.1/" xmlns:cc="http://creativecommons.org/ns#" xmlns:rdf="http://www.w3.org/1999/02/22-rdf-syntax-ns#">
   <cc:Work>
    <dc:type rdf:resource="http://purl.org/dc/dcmitype/StillImage"/>
    <dc:date>2025-11-04T06:22:33.276375</dc:date>
    <dc:format>image/svg+xml</dc:format>
    <dc:creator>
     <cc:Agent>
      <dc:title>Matplotlib v3.7.5, https://matplotlib.org/</dc:title>
     </cc:Agent>
    </dc:creator>
   </cc:Work>
  </rdf:RDF>
 </metadata>
 <defs>
  <style type="text/css">*{stroke-linejoin: round; stroke-linecap: butt}</style>
 </defs>
 <g id="figure_1">
  <g id="patch_1">
   <path d="M 0 432 
L 720 432 
L 720 0 
L 0 0 
z
" style="fill: #ffffff"/>
  </g>
  <g id="axes_1">
   <g id="matplotlib.axis_1"/>
   <g id="matplotlib.axis_2"/>
   <g id="patch_2">
    <path d="M 502.056 218.16 
C 502.056 200.713162 498.624451 183.435468 491.957165 167.31283 
C 485.289879 151.190191 475.516134 136.535221 463.193645 124.184171 
C 450.871156 111.833122 436.238853 102.025475 420.131693 95.320881 
C 404.024534 88.616288 386.75483 85.144748 369.308039 85.104357 
C 351.861247 85.063965 334.575655 88.455506 318.437625 95.085448 
C 302.299594 101.71539 287.622036 111.455181 275.242492 123.749043 
C 262.862947 136.042905 253.021451 150.652463 246.279586 166.744058 
C 239.537721 182.835653 236.026209 200.097273 235.945426 217.543924 
C 235.864644 234.990575 239.216157 252.283973 245.808721 268.437309 
C 252.401284 284.590645 262.107069 299.290713 274.372238 311.698686 
C 286.637407 324.106659 301.224142 333.981951 317.300085 340.761052 
C 333.376028 347.540153 350.629473 351.091618 368.07589 351.212791 
C 385.522308 351.333964 402.823418 348.022495 418.991973 341.467347 
C 435.160529 334.912198 449.883027 325.240471 462.319362 313.004061 
C 474.755697 300.767651 484.664732 286.203817 491.481033 270.143611 
C 498.297333 254.083405 501.888732 236.838229 502.050295 219.392139 
L 369 218.16 
z
" style="fill: #f77189"/>
   </g>
   <g id="patch_3">
    <path d="M 502.050295 219.392139 
C 502.052178 219.188821 502.053595 218.985498 502.054545 218.782173 
C 502.055496 218.578848 502.055981 218.375522 502.055999 218.172195 
L 369 218.16 
z
" style="fill: #bb9832"/>
   </g>
   <g id="patch_4">
    <path d="M 502.055999 218.172195 
C 502.056 218.170161 502.056 218.168128 502.056 218.166095 
C 502.056 218.164061 502.056 218.162028 502.056 218.159995 
L 369 218.16 
z
" style="fill: #50b131"/>
   </g>
   <g id="text_1">
    <text style="fill: #262626; font: 10px 'Arial', 'Liberation Sans', 'DejaVu Sans', 'Bitstream Vera Sans', sans-serif; text-anchor: end" x="222.639969" y="220.068254" transform="rotate(-0 222.639969 220.068254)">newsapi</text>
   </g>
   <g id="text_2">
    <text style="fill: #262626; font: 10px 'Arial', 'Liberation Sans', 'DejaVu Sans', 'Bitstream Vera Sans', sans-serif; text-anchor: middle" x="289.167256" y="220.376292" transform="rotate(-0 289.167256 220.376292)">99.9%</text>
   </g>
   <g id="text_3">
    <text style="fill: #262626; font: 10px 'Arial', 'Liberation Sans', 'DejaVu Sans', 'Bitstream Vera Sans', sans-serif; text-anchor: start" x="515.36" y="221.430328" transform="rotate(-0 515.36 221.430328)">chicago_pd</text>
   </g>
   <g id="text_4">
    <text style="fill: #262626; font: 10px 'Arial', 'Liberation Sans', 'DejaVu Sans', 'Bitstream Vera Sans', sans-serif; text-anchor: middle" x="448.832727" y="221.119241" transform="rotate(-0 448.832727 221.119241)">0.1%</text>
   </g>
   <g id="text_5">
    <text style="fill: #262626; font: 10px 'Arial', 'Liberation Sans', 'DejaVu Sans', 'Bitstream Vera Sans', sans-serif; text-anchor: start" x="515.3616" y="220.752642" transform="rotate(-0 515.3616 220.752642)">chicago_police</text>
   </g>
   <g id="text_6">
    <text style="fill: #262626; font: 10px 'Arial', 'Liberation Sans', 'DejaVu Sans', 'Bitstream Vera Sans', sans-serif; text-anchor: middle" x="448.8336" y="220.749594" transform="rotate(-0 448.8336 220.749594)">0.0%</text>
   </g>
   <g id="text_7">
    <text style="fill: #262626; font: 12px 'Arial', 'Liberation Sans', 'DejaVu Sans', 'Bitstream Vera Sans', sans-serif; text-anchor: middle" x="369" y="45.84" transform="rotate(-0 369 45.84)">Incidents by Source</text>
   </g>
  </g>
 </g>
</svg>
