<?xml version="1.0" encoding="utf-8" standalone="no"?>
<!DOCTYPE svg PUBLIC "-//W3C//DTD SVG 1.1//EN"
  "http://www.w3.org/Graphics/SVG/1.1/DTD/svg11.dtd">
<svg xmlns:xlink="http://www.w3.org/1999/xlink" width="720pt" height="432pt" viewBox="0 0 720 432" xmlns="http://www.w3.org/2000/svg" version="1.1">
 <metadata>
  <rdf:RDF xmlns:dc="http://purl.org/dc/elements/1.1/" xmlns:cc="http://creativecommons.org/ns#" xmlns:rdf="http://www.w3.org/1999/02/22-rdf-syntax-ns#">
   <cc:Work>
    <dc:type rdf:resource="http://purl.org/dc/dcmitype/StillImage"/>
    <dc:date>2026-01-04T06:24:11.624000</dc:date>
    <dc:format>image/svg+xml</dc:format>
    <dc:creator>
     <cc:Agent>
      <dc:title>Matplotlib v3.7.5, https://matplotlib.org/</dc:title>
     </cc:Agent>
    </dc:creator>
   </cc:Work>
  </rdf:RDF>
 </metadata>
 <defs>
  <style type="text/css">*{stroke-linejoin: round; stroke-linecap: butt}</style>
 </defs>
 <g id="figure_1">
  <g id="patch_1">
   <path d="M 0 432 
L 720 432 
L 720 0 
L 0 0 
z
" style="fill: #ffffff"/>
  </g>
  <g id="axes_1">
   <g id="matplotlib.axis_1"/>
   <g id="matplotlib.axis_2"/>
   <g id="patch_2">
    <path d="M 502.056 218.16 
C 502.056 200.709383 498.622964 183.428021 491.952874 167.302454 
C 485.282784 151.176887 475.505026 136.519921 463.177784 124.168276 
C 450.850542 111.816632 436.212941 102.009908 420.100596 95.307942 
C 403.988251 88.605975 386.713712 85.13877 369.263129 85.10426 
C 351.812547 85.06975 334.52443 88.468604 318.385703 95.106792 
C 302.246977 101.744979 287.570703 111.493732 275.194705 123.796524 
C 262.818706 136.099315 252.983055 150.717494 246.249237 166.816554 
C 239.51542 182.915614 236.014061 200.183262 235.945041 217.633742 
C 235.876021 235.084222 239.240679 252.379027 245.846938 268.53085 
C 252.453197 284.682672 262.172907 299.378196 274.4512 311.7785 
C 286.729493 324.178804 301.328193 334.043345 317.413905 340.808987 
C 333.499616 347.574628 350.760307 351.110129 368.210616 351.213658 
C 385.660926 351.317188 402.962351 347.986738 419.127206 341.412434 
C 435.292061 334.838129 450.006778 325.1475 462.431339 312.893753 
C 474.8559 300.640007 484.749292 286.060843 491.546731 269.988543 
C 498.34417 253.916243 501.913798 236.662577 502.051837 219.212507 
L 369 218.16 
z
" style="fill: #f77189"/>
   </g>
   <g id="patch_3">
    <path d="M 502.051837 219.212507 
C 502.053211 219.038827 502.054245 218.865144 502.054939 218.691459 
C 502.055632 218.517775 502.055986 218.344089 502.056 218.170403 
L 369 218.16 
z
" style="fill: #bb9832"/>
   </g>
   <g id="patch_4">
    <path d="M 502.056 218.170403 
C 502.056 218.168667 502.056 218.16693 502.056 218.165193 
C 502.056 218.163456 502.056 218.161719 502.056 218.159982 
L 369 218.16 
z
" style="fill: #50b131"/>
   </g>
   <g id="text_1">
    <text style="fill: #262626; font: 10px 'Arial', 'Liberation Sans', 'DejaVu Sans', 'Bitstream Vera Sans', sans-serif; text-anchor: end" x="222.639545" y="220.167054" transform="rotate(-0 222.639545 220.167054)">newsapi</text>
   </g>
   <g id="text_2">
    <text style="fill: #262626; font: 10px 'Arial', 'Liberation Sans', 'DejaVu Sans', 'Bitstream Vera Sans', sans-serif; text-anchor: middle" x="289.167024" y="220.430183" transform="rotate(-0 289.167024 220.430183)">99.9%</text>
   </g>
   <g id="text_3">
    <text style="fill: #262626; font: 10px 'Arial', 'Liberation Sans', 'DejaVu Sans', 'Bitstream Vera Sans', sans-serif; text-anchor: start" x="515.360432" y="221.330543" transform="rotate(-0 515.360432 221.330543)">chicago_pd</text>
   </g>
   <g id="text_4">
    <text style="fill: #262626; font: 10px 'Arial', 'Liberation Sans', 'DejaVu Sans', 'Bitstream Vera Sans', sans-serif; text-anchor: middle" x="448.832963" y="221.064813" transform="rotate(-0 448.832963 221.064813)">0.1%</text>
   </g>
   <g id="text_5">
    <text style="fill: #262626; font: 10px 'Arial', 'Liberation Sans', 'DejaVu Sans', 'Bitstream Vera Sans', sans-serif; text-anchor: start" x="515.3616" y="220.75165" transform="rotate(-0 515.3616 220.75165)">chicago_police</text>
   </g>
   <g id="text_6">
    <text style="fill: #262626; font: 10px 'Arial', 'Liberation Sans', 'DejaVu Sans', 'Bitstream Vera Sans', sans-serif; text-anchor: middle" x="448.8336" y="220.749053" transform="rotate(-0 448.8336 220.749053)">0.0%</text>
   </g>
   <g id="text_7">
    <text style="fill: #262626; font: 12px 'Arial', 'Liberation Sans', 'DejaVu Sans', 'Bitstream Vera Sans', sans-serif; text-anchor: middle" x="369" y="45.84" transform="rotate(-0 369 45.84)">Incidents by Source</text>
   </g>
  </g>
 </g>
</svg>
