<?xml version="1.0" encoding="utf-8" standalone="no"?>
<!DOCTYPE svg PUBLIC "-//W3C//DTD SVG 1.1//EN"
  "http://www.w3.org/Graphics/SVG/1.1/DTD/svg11.dtd">
<svg xmlns:xlink="http://www.w3.org/1999/xlink" width="720pt" height="432pt" viewBox="0 0 720 432" xmlns="http://www.w3.org/2000/svg" version="1.1">
 <metadata>
  <rdf:RDF xmlns:dc="http://purl.org/dc/elements/1.1/" xmlns:cc="http://creativecommons.org/ns#" xmlns:rdf="http://www.w3.org/1999/02/22-rdf-syntax-ns#">
   <cc:Work>
    <dc:type rdf:resource="http://purl.org/dc/dcmitype/StillImage"/>
    <dc:date>2024-12-14T18:16:27.609669</dc:date>
    <dc:format>image/svg+xml</dc:format>
    <dc:creator>
     <cc:Agent>
      <dc:title>Matplotlib v3.7.5, https://matplotlib.org/</dc:title>
     </cc:Agent>
    </dc:creator>
   </cc:Work>
  </rdf:RDF>
 </metadata>
 <defs>
  <style type="text/css">*{stroke-linejoin: round; stroke-linecap: butt}</style>
 </defs>
 <g id="figure_1">
  <g id="patch_1">
   <path d="M 0 432 
L 720 432 
L 720 0 
L 0 0 
z
" style="fill: #ffffff"/>
  </g>
  <g id="axes_1">
   <g id="matplotlib.axis_1"/>
   <g id="matplotlib.axis_2"/>
   <g id="patch_2">
    <path d="M 502.056 218.16 
C 502.056 201.563864 498.950935 185.113284 492.901384 169.659008 
C 486.851833 154.204731 477.96391 140.017841 466.69726 127.832017 
C 455.430609 115.646193 441.982857 105.675186 427.049459 98.43465 
C 412.116061 91.194114 395.958963 86.811056 379.413736 85.512146 
C 362.868508 84.213236 346.225369 86.021258 330.345025 90.842711 
C 314.464681 95.664164 299.625688 103.414474 286.59545 113.692831 
C 273.565213 123.971188 262.572292 136.597301 254.185192 150.918205 
C 245.798092 165.239108 240.16393 181.003601 237.574079 197.396417 
C 234.984228 213.789232 235.484115 230.522825 239.047891 246.731811 
C 242.611666 262.940797 249.176816 278.340856 258.403823 292.135568 
C 267.630829 305.93028 279.357842 317.877673 292.978393 327.359883 
C 306.598944 336.842093 321.874118 343.692793 338.013952 347.557697 
C 354.153786 351.422601 370.875174 352.233915 387.313361 349.949681 
C 403.751548 347.665447 419.618195 342.325733 434.092751 334.206684 
C 448.567307 326.087636 461.395876 315.331668 471.915023 302.49503 
C 482.434169 289.658392 490.459379 274.96625 495.575625 259.178414 
L 369 218.16 
z
" style="fill: #f77189"/>
   </g>
   <g id="patch_3">
    <path d="M 495.575625 259.178414 
C 497.697892 252.629471 499.308705 245.925685 500.393548 239.127464 
C 501.478392 232.329244 502.033998 225.457071 502.055359 218.572869 
L 369 218.16 
z
" style="fill: #bb9832"/>
   </g>
   <g id="patch_4">
    <path d="M 502.055359 218.572869 
C 502.055573 218.504062 502.055733 218.435254 502.05584 218.366446 
C 502.055947 218.297638 502.056 218.228831 502.056 218.160023 
L 369 218.16 
z
" style="fill: #50b131"/>
   </g>
   <g id="text_1">
    <text style="fill: #262626; font: 10px 'Arial', 'Liberation Sans', 'DejaVu Sans', 'Bitstream Vera Sans', sans-serif; text-anchor: end" x="224.431487" y="197.905996" transform="rotate(-0 224.431487 197.905996)">newsapi</text>
   </g>
   <g id="text_2">
    <text style="fill: #262626; font: 10px 'Arial', 'Liberation Sans', 'DejaVu Sans', 'Bitstream Vera Sans', sans-serif; text-anchor: middle" x="290.144447" y="208.287787" transform="rotate(-0 290.144447 208.287787)">95.0%</text>
   </g>
   <g id="text_3">
    <text style="fill: #262626; font: 10px 'Arial', 'Liberation Sans', 'DejaVu Sans', 'Bitstream Vera Sans', sans-serif; text-anchor: start" x="513.532903" y="243.810148" transform="rotate(-0 513.532903 243.810148)">chicago_pd</text>
   </g>
   <g id="text_4">
    <text style="fill: #262626; font: 10px 'Arial', 'Liberation Sans', 'DejaVu Sans', 'Bitstream Vera Sans', sans-serif; text-anchor: middle" x="447.836129" y="233.326416" transform="rotate(-0 447.836129 233.326416)">4.9%</text>
   </g>
   <g id="text_5">
    <text style="fill: #262626; font: 10px 'Arial', 'Liberation Sans', 'DejaVu Sans', 'Bitstream Vera Sans', sans-serif; text-anchor: start" x="515.361424" y="220.973028" transform="rotate(-0 515.361424 220.973028)">chicago_police</text>
   </g>
   <g id="text_6">
    <text style="fill: #262626; font: 10px 'Arial', 'Liberation Sans', 'DejaVu Sans', 'Bitstream Vera Sans', sans-serif; text-anchor: middle" x="448.833504" y="220.869805" transform="rotate(-0 448.833504 220.869805)">0.0%</text>
   </g>
   <g id="text_7">
    <text style="fill: #262626; font: 12px 'Arial', 'Liberation Sans', 'DejaVu Sans', 'Bitstream Vera Sans', sans-serif; text-anchor: middle" x="369" y="45.84" transform="rotate(-0 369 45.84)">Incidents by Source</text>
   </g>
  </g>
 </g>
</svg>
