<?xml version="1.0" encoding="utf-8" standalone="no"?>
<!DOCTYPE svg PUBLIC "-//W3C//DTD SVG 1.1//EN"
  "http://www.w3.org/Graphics/SVG/1.1/DTD/svg11.dtd">
<svg xmlns:xlink="http://www.w3.org/1999/xlink" width="720pt" height="432pt" viewBox="0 0 720 432" xmlns="http://www.w3.org/2000/svg" version="1.1">
 <metadata>
  <rdf:RDF xmlns:dc="http://purl.org/dc/elements/1.1/" xmlns:cc="http://creativecommons.org/ns#" xmlns:rdf="http://www.w3.org/1999/02/22-rdf-syntax-ns#">
   <cc:Work>
    <dc:type rdf:resource="http://purl.org/dc/dcmitype/StillImage"/>
    <dc:date>2025-10-25T12:41:58.460397</dc:date>
    <dc:format>image/svg+xml</dc:format>
    <dc:creator>
     <cc:Agent>
      <dc:title>Matplotlib v3.7.5, https://matplotlib.org/</dc:title>
     </cc:Agent>
    </dc:creator>
   </cc:Work>
  </rdf:RDF>
 </metadata>
 <defs>
  <style type="text/css">*{stroke-linejoin: round; stroke-linecap: butt}</style>
 </defs>
 <g id="figure_1">
  <g id="patch_1">
   <path d="M 0 432 
L 720 432 
L 720 0 
L 0 0 
z
" style="fill: #ffffff"/>
  </g>
  <g id="axes_1">
   <g id="matplotlib.axis_1"/>
   <g id="matplotlib.axis_2"/>
   <g id="patch_2">
    <path d="M 502.056 218.16 
C 502.056 200.713849 498.624721 183.436823 491.957946 167.314717 
C 485.29117 151.192612 475.518155 136.538006 463.196531 124.187064 
C 450.874907 111.836123 436.243568 102.028308 420.137352 95.323237 
C 404.031136 88.618166 386.762312 85.145837 369.316211 85.104376 
C 351.87011 85.062915 334.584977 88.453125 318.447074 95.081567 
C 302.30917 101.710008 287.631379 111.448169 275.25119 123.740406 
C 262.871001 136.032643 253.028442 150.640632 246.285113 166.730868 
C 239.541784 182.821104 236.028425 200.081626 235.945503 217.52758 
C 235.862581 234.973533 239.211703 252.266674 245.801774 268.420284 
C 252.391845 284.573895 262.095096 299.274788 274.357876 311.684155 
C 286.620656 324.093522 301.205213 333.970769 317.279378 340.752318 
C 333.353543 347.533867 350.605667 351.088236 368.051374 351.212618 
C 385.497081 351.337001 402.798132 348.028986 418.967359 341.477323 
C 435.136585 334.92566 449.860496 325.257374 462.298971 313.024119 
C 474.737446 300.790865 484.649326 286.229822 491.469056 270.17182 
C 498.288787 254.113817 501.884146 236.870189 502.049988 219.424826 
L 369 218.16 
z
" style="fill: #f77189"/>
   </g>
   <g id="patch_3">
    <path d="M 502.049988 219.424826 
C 502.051972 219.216118 502.053465 219.007405 502.054467 218.798689 
C 502.055469 218.589973 502.05598 218.381256 502.055999 218.172538 
L 369 218.16 
z
" style="fill: #bb9832"/>
   </g>
   <g id="patch_4">
    <path d="M 502.055999 218.172538 
C 502.056 218.17045 502.056 218.168363 502.056 218.166276 
C 502.056 218.164189 502.056 218.162102 502.056 218.160015 
L 369 218.16 
z
" style="fill: #50b131"/>
   </g>
   <g id="text_1">
    <text style="fill: #262626; font: 10px 'Arial', 'Liberation Sans', 'DejaVu Sans', 'Bitstream Vera Sans', sans-serif; text-anchor: end" x="222.640053" y="220.050275" transform="rotate(-0 222.640053 220.050275)">newsapi</text>
   </g>
   <g id="text_2">
    <text style="fill: #262626; font: 10px 'Arial', 'Liberation Sans', 'DejaVu Sans', 'Bitstream Vera Sans', sans-serif; text-anchor: middle" x="289.167302" y="220.366485" transform="rotate(-0 289.167302 220.366485)">99.8%</text>
   </g>
   <g id="text_3">
    <text style="fill: #262626; font: 10px 'Arial', 'Liberation Sans', 'DejaVu Sans', 'Bitstream Vera Sans', sans-serif; text-anchor: start" x="515.359914" y="221.448495" transform="rotate(-0 515.359914 221.448495)">chicago_pd</text>
   </g>
   <g id="text_4">
    <text style="fill: #262626; font: 10px 'Arial', 'Liberation Sans', 'DejaVu Sans', 'Bitstream Vera Sans', sans-serif; text-anchor: middle" x="448.83268" y="221.129151" transform="rotate(-0 448.83268 221.129151)">0.1%</text>
   </g>
   <g id="text_5">
    <text style="fill: #262626; font: 10px 'Arial', 'Liberation Sans', 'DejaVu Sans', 'Bitstream Vera Sans', sans-serif; text-anchor: start" x="515.3616" y="220.752841" transform="rotate(-0 515.3616 220.752841)">chicago_police</text>
   </g>
   <g id="text_6">
    <text style="fill: #262626; font: 10px 'Arial', 'Liberation Sans', 'DejaVu Sans', 'Bitstream Vera Sans', sans-serif; text-anchor: middle" x="448.8336" y="220.749703" transform="rotate(-0 448.8336 220.749703)">0.0%</text>
   </g>
   <g id="text_7">
    <text style="fill: #262626; font: 12px 'Arial', 'Liberation Sans', 'DejaVu Sans', 'Bitstream Vera Sans', sans-serif; text-anchor: middle" x="369" y="45.84" transform="rotate(-0 369 45.84)">Incidents by Source</text>
   </g>
  </g>
 </g>
</svg>
