<?xml version="1.0" encoding="utf-8" standalone="no"?>
<!DOCTYPE svg PUBLIC "-//W3C//DTD SVG 1.1//EN"
  "http://www.w3.org/Graphics/SVG/1.1/DTD/svg11.dtd">
<svg xmlns:xlink="http://www.w3.org/1999/xlink" width="720pt" height="432pt" viewBox="0 0 720 432" xmlns="http://www.w3.org/2000/svg" version="1.1">
 <metadata>
  <rdf:RDF xmlns:dc="http://purl.org/dc/elements/1.1/" xmlns:cc="http://creativecommons.org/ns#" xmlns:rdf="http://www.w3.org/1999/02/22-rdf-syntax-ns#">
   <cc:Work>
    <dc:type rdf:resource="http://purl.org/dc/dcmitype/StillImage"/>
    <dc:date>2026-01-06T12:55:27.992210</dc:date>
    <dc:format>image/svg+xml</dc:format>
    <dc:creator>
     <cc:Agent>
      <dc:title>Matplotlib v3.7.5, https://matplotlib.org/</dc:title>
     </cc:Agent>
    </dc:creator>
   </cc:Work>
  </rdf:RDF>
 </metadata>
 <defs>
  <style type="text/css">*{stroke-linejoin: round; stroke-linecap: butt}</style>
 </defs>
 <g id="figure_1">
  <g id="patch_1">
   <path d="M 0 432 
L 720 432 
L 720 0 
L 0 0 
z
" style="fill: #ffffff"/>
  </g>
  <g id="axes_1">
   <g id="matplotlib.axis_1"/>
   <g id="matplotlib.axis_2"/>
   <g id="patch_2">
    <path d="M 502.056 218.16 
C 502.056 200.709308 498.622934 183.427873 491.952788 167.302247 
C 485.282642 151.176622 475.504804 136.519615 463.177467 124.167959 
C 450.85013 111.816303 436.212423 102.009598 420.099975 95.307683 
C 403.987526 88.605769 386.71289 85.138651 369.262232 85.104258 
C 351.811574 85.069866 334.523407 88.468866 318.384667 95.107218 
C 302.245926 101.74557 287.569678 111.494502 275.19375 123.797472 
C 262.817823 136.100442 252.982288 150.718793 246.248632 166.818002 
C 239.514975 182.917211 236.013819 200.18498 235.945034 217.635536 
C 235.876249 235.086093 239.24117 252.380926 245.847702 268.532718 
C 252.454235 284.684509 262.174223 299.379943 274.452778 311.780094 
C 286.731333 324.180244 301.330272 334.044571 317.416178 340.809943 
C 333.502085 347.575315 350.76292 351.110497 368.213307 351.213674 
C 385.663694 351.316851 402.965125 347.986022 419.129906 341.411335 
C 435.294687 334.836648 450.009249 325.145641 462.433574 312.891549 
C 474.8579 300.637456 484.750979 286.057987 491.548041 269.985445 
C 498.345103 253.912903 501.914297 236.659069 502.051865 219.208919 
L 369 218.16 
z
" style="fill: #f77189"/>
   </g>
   <g id="patch_3">
    <path d="M 502.051865 219.208919 
C 502.05323 219.03583 502.054257 218.862738 502.054946 218.689645 
C 502.055635 218.516552 502.055986 218.343457 502.056 218.170363 
L 369 218.16 
z
" style="fill: #bb9832"/>
   </g>
   <g id="patch_4">
    <path d="M 502.056 218.170363 
C 502.056 218.168632 502.056 218.166901 502.056 218.16517 
C 502.056 218.163439 502.056 218.161708 502.056 218.159977 
L 369 218.16 
z
" style="fill: #50b131"/>
   </g>
   <g id="text_1">
    <text style="fill: #262626; font: 10px 'Arial', 'Liberation Sans', 'DejaVu Sans', 'Bitstream Vera Sans', sans-serif; text-anchor: end" x="222.639537" y="220.169027" transform="rotate(-0 222.639537 220.169027)">newsapi</text>
   </g>
   <g id="text_2">
    <text style="fill: #262626; font: 10px 'Arial', 'Liberation Sans', 'DejaVu Sans', 'Bitstream Vera Sans', sans-serif; text-anchor: middle" x="289.16702" y="220.431259" transform="rotate(-0 289.16702 220.431259)">99.9%</text>
   </g>
   <g id="text_3">
    <text style="fill: #262626; font: 10px 'Arial', 'Liberation Sans', 'DejaVu Sans', 'Bitstream Vera Sans', sans-serif; text-anchor: start" x="515.36044" y="221.328547" transform="rotate(-0 515.36044 221.328547)">chicago_pd</text>
   </g>
   <g id="text_4">
    <text style="fill: #262626; font: 10px 'Arial', 'Liberation Sans', 'DejaVu Sans', 'Bitstream Vera Sans', sans-serif; text-anchor: middle" x="448.832968" y="221.063725" transform="rotate(-0 448.832968 221.063725)">0.1%</text>
   </g>
   <g id="text_5">
    <text style="fill: #262626; font: 10px 'Arial', 'Liberation Sans', 'DejaVu Sans', 'Bitstream Vera Sans', sans-serif; text-anchor: start" x="515.3616" y="220.751624" transform="rotate(-0 515.3616 220.751624)">chicago_police</text>
   </g>
   <g id="text_6">
    <text style="fill: #262626; font: 10px 'Arial', 'Liberation Sans', 'DejaVu Sans', 'Bitstream Vera Sans', sans-serif; text-anchor: middle" x="448.8336" y="220.749039" transform="rotate(-0 448.8336 220.749039)">0.0%</text>
   </g>
   <g id="text_7">
    <text style="fill: #262626; font: 12px 'Arial', 'Liberation Sans', 'DejaVu Sans', 'Bitstream Vera Sans', sans-serif; text-anchor: middle" x="369" y="45.84" transform="rotate(-0 369 45.84)">Incidents by Source</text>
   </g>
  </g>
 </g>
</svg>
