<?xml version="1.0" encoding="utf-8" standalone="no"?>
<!DOCTYPE svg PUBLIC "-//W3C//DTD SVG 1.1//EN"
  "http://www.w3.org/Graphics/SVG/1.1/DTD/svg11.dtd">
<svg xmlns:xlink="http://www.w3.org/1999/xlink" width="720pt" height="432pt" viewBox="0 0 720 432" xmlns="http://www.w3.org/2000/svg" version="1.1">
 <metadata>
  <rdf:RDF xmlns:dc="http://purl.org/dc/elements/1.1/" xmlns:cc="http://creativecommons.org/ns#" xmlns:rdf="http://www.w3.org/1999/02/22-rdf-syntax-ns#">
   <cc:Work>
    <dc:type rdf:resource="http://purl.org/dc/dcmitype/StillImage"/>
    <dc:date>2026-05-16T02:28:07.805772</dc:date>
    <dc:format>image/svg+xml</dc:format>
    <dc:creator>
     <cc:Agent>
      <dc:title>Matplotlib v3.7.5, https://matplotlib.org/</dc:title>
     </cc:Agent>
    </dc:creator>
   </cc:Work>
  </rdf:RDF>
 </metadata>
 <defs>
  <style type="text/css">*{stroke-linejoin: round; stroke-linecap: butt}</style>
 </defs>
 <g id="figure_1">
  <g id="patch_1">
   <path d="M 0 432 
L 720 432 
L 720 0 
L 0 0 
z
" style="fill: #ffffff"/>
  </g>
  <g id="axes_1">
   <g id="matplotlib.axis_1"/>
   <g id="matplotlib.axis_2"/>
   <g id="patch_2">
    <path d="M 502.056 218.16 
C 502.056 200.704144 498.620902 183.417696 491.946922 167.288068 
C 485.272942 151.15844 475.48962 136.498706 463.155786 124.146239 
C 450.821951 111.793773 436.177002 101.988332 420.057468 95.290011 
C 403.937933 88.59169 386.65669 85.130502 369.200854 85.104152 
C 351.745018 85.077801 334.453404 88.4868 318.31372 95.136424 
C 302.174036 101.786049 287.49955 111.54723 275.128479 123.862404 
C 262.757408 136.177577 252.929871 150.807708 246.207225 166.917113 
C 239.484578 183.026518 235.997307 200.302517 235.944606 217.758293 
C 235.891906 235.214069 239.274798 252.51081 245.900052 268.660513 
C 252.525305 284.810217 262.264323 299.499421 274.560808 311.889068 
C 286.857293 324.278715 301.472572 334.128325 317.57181 340.875282 
C 333.671049 347.622239 350.941764 351.135585 368.39744 351.214636 
C 385.853117 351.293686 403.154945 347.936908 419.314631 341.336041 
C 435.474317 334.735174 450.178206 325.018341 462.586401 312.740572 
C 474.994596 300.462804 484.866258 285.862411 491.637509 269.773375 
C 498.408761 253.68434 501.948174 236.418948 502.053574 218.963411 
L 369 218.16 
z
" style="fill: #f77189"/>
   </g>
   <g id="patch_3">
    <path d="M 502.053574 218.963411 
C 502.054375 218.83084 502.054977 218.698268 502.055382 218.565695 
C 502.055786 218.433122 502.055992 218.300549 502.056 218.167976 
L 369 218.16 
z
" style="fill: #bb9832"/>
   </g>
   <g id="patch_4">
    <path d="M 502.056 218.167976 
C 502.056 218.16665 502.056 218.165324 502.056 218.163998 
C 502.056 218.162673 502.056 218.161347 502.056 218.160021 
L 369 218.16 
z
" style="fill: #50b131"/>
   </g>
   <g id="text_1">
    <text style="fill: #262626; font: 10px 'Arial', 'Liberation Sans', 'DejaVu Sans', 'Bitstream Vera Sans', sans-serif; text-anchor: end" x="222.639067" y="220.30406" transform="rotate(-0 222.639067 220.30406)">newsapi</text>
   </g>
   <g id="text_2">
    <text style="fill: #262626; font: 10px 'Arial', 'Liberation Sans', 'DejaVu Sans', 'Bitstream Vera Sans', sans-serif; text-anchor: middle" x="289.166764" y="220.504913" transform="rotate(-0 289.166764 220.504913)">99.9%</text>
   </g>
   <g id="text_3">
    <text style="fill: #262626; font: 10px 'Arial', 'Liberation Sans', 'DejaVu Sans', 'Bitstream Vera Sans', sans-serif; text-anchor: start" x="515.36092" y="221.192202" transform="rotate(-0 515.36092 221.192202)">chicago_pd</text>
   </g>
   <g id="text_4">
    <text style="fill: #262626; font: 10px 'Arial', 'Liberation Sans', 'DejaVu Sans', 'Bitstream Vera Sans', sans-serif; text-anchor: middle" x="448.833229" y="220.989354" transform="rotate(-0 448.833229 220.989354)">0.1%</text>
   </g>
   <g id="text_5">
    <text style="fill: #262626; font: 10px 'Arial', 'Liberation Sans', 'DejaVu Sans', 'Bitstream Vera Sans', sans-serif; text-anchor: start" x="515.3616" y="220.750336" transform="rotate(-0 515.3616 220.750336)">chicago_police</text>
   </g>
   <g id="text_6">
    <text style="fill: #262626; font: 10px 'Arial', 'Liberation Sans', 'DejaVu Sans', 'Bitstream Vera Sans', sans-serif; text-anchor: middle" x="448.8336" y="220.748337" transform="rotate(-0 448.8336 220.748337)">0.0%</text>
   </g>
   <g id="text_7">
    <text style="fill: #262626; font: 12px 'Arial', 'Liberation Sans', 'DejaVu Sans', 'Bitstream Vera Sans', sans-serif; text-anchor: middle" x="369" y="45.84" transform="rotate(-0 369 45.84)">Incidents by Source</text>
   </g>
  </g>
 </g>
</svg>
