<?xml version="1.0" encoding="utf-8" standalone="no"?>
<!DOCTYPE svg PUBLIC "-//W3C//DTD SVG 1.1//EN"
  "http://www.w3.org/Graphics/SVG/1.1/DTD/svg11.dtd">
<svg xmlns:xlink="http://www.w3.org/1999/xlink" width="720pt" height="432pt" viewBox="0 0 720 432" xmlns="http://www.w3.org/2000/svg" version="1.1">
 <metadata>
  <rdf:RDF xmlns:dc="http://purl.org/dc/elements/1.1/" xmlns:cc="http://creativecommons.org/ns#" xmlns:rdf="http://www.w3.org/1999/02/22-rdf-syntax-ns#">
   <cc:Work>
    <dc:type rdf:resource="http://purl.org/dc/dcmitype/StillImage"/>
    <dc:date>2025-04-21T01:08:21.658645</dc:date>
    <dc:format>image/svg+xml</dc:format>
    <dc:creator>
     <cc:Agent>
      <dc:title>Matplotlib v3.7.5, https://matplotlib.org/</dc:title>
     </cc:Agent>
    </dc:creator>
   </cc:Work>
  </rdf:RDF>
 </metadata>
 <defs>
  <style type="text/css">*{stroke-linejoin: round; stroke-linecap: butt}</style>
 </defs>
 <g id="figure_1">
  <g id="patch_1">
   <path d="M 0 432 
L 720 432 
L 720 0 
L 0 0 
z
" style="fill: #ffffff"/>
  </g>
  <g id="axes_1">
   <g id="matplotlib.axis_1"/>
   <g id="matplotlib.axis_2"/>
   <g id="patch_2">
    <path d="M 502.056 218.16 
C 502.056 200.751757 498.639616 183.511536 492.000948 167.418834 
C 485.36228 151.326133 475.629481 136.691602 463.355515 124.346696 
C 451.081548 112.00179 436.50335 102.184814 420.449175 95.453515 
C 404.394999 88.722215 387.174753 85.206533 369.766799 85.10621 
C 352.358844 85.005886 335.099221 88.322859 318.968528 94.868674 
C 302.837836 101.41449 288.147458 111.06279 275.732022 123.265408 
C 263.316587 135.468027 253.41576 149.989409 246.592053 166.004525 
C 239.768345 182.019642 236.153481 199.219341 235.952838 216.626428 
C 235.752195 234.033516 238.969645 251.311968 245.422392 267.480116 
C 251.875138 283.648264 261.438617 298.394001 273.569483 310.879553 
C 285.70035 323.365106 300.164432 333.349455 316.139957 340.265344 
C 332.115483 347.181233 349.294065 350.895158 366.699706 351.196115 
C 384.105348 351.497071 401.402055 348.379249 417.607122 342.019787 
C 433.812189 335.660325 448.612795 326.181984 461.16805 314.123273 
C 473.723305 302.064562 483.790845 287.658259 490.798685 271.722855 
C 497.806526 255.787451 501.619389 238.630558 502.020649 221.226939 
L 369 218.16 
z
" style="fill: #f77189"/>
   </g>
   <g id="patch_3">
    <path d="M 502.020649 221.226939 
C 502.032315 220.72093 502.041095 220.214859 502.046986 219.708749 
C 502.052878 219.20264 502.055881 218.696501 502.055997 218.190357 
L 369 218.16 
z
" style="fill: #bb9832"/>
   </g>
   <g id="patch_4">
    <path d="M 502.055997 218.190357 
C 502.055998 218.185296 502.055999 218.180234 502.055999 218.175173 
C 502.056 218.170112 502.056 218.16505 502.056 218.159989 
L 369 218.16 
z
" style="fill: #50b131"/>
   </g>
   <g id="text_1">
    <text style="fill: #262626; font: 10px 'Arial', 'Liberation Sans', 'DejaVu Sans', 'Bitstream Vera Sans', sans-serif; text-anchor: end" x="222.648122" y="219.059009" transform="rotate(-0 222.648122 219.059009)">newsapi</text>
   </g>
   <g id="text_2">
    <text style="fill: #262626; font: 10px 'Arial', 'Liberation Sans', 'DejaVu Sans', 'Bitstream Vera Sans', sans-serif; text-anchor: middle" x="289.171703" y="219.825795" transform="rotate(-0 289.171703 219.825795)">99.6%</text>
   </g>
   <g id="text_3">
    <text style="fill: #262626; font: 10px 'Arial', 'Liberation Sans', 'DejaVu Sans', 'Bitstream Vera Sans', sans-serif; text-anchor: start" x="515.351685" y="222.449562" transform="rotate(-0 515.351685 222.449562)">chicago_pd</text>
   </g>
   <g id="text_4">
    <text style="fill: #262626; font: 10px 'Arial', 'Liberation Sans', 'DejaVu Sans', 'Bitstream Vera Sans', sans-serif; text-anchor: middle" x="448.828192" y="221.675187" transform="rotate(-0 448.828192 221.675187)">0.4%</text>
   </g>
   <g id="text_5">
    <text style="fill: #262626; font: 10px 'Arial', 'Liberation Sans', 'DejaVu Sans', 'Bitstream Vera Sans', sans-serif; text-anchor: start" x="515.361599" y="220.762628" transform="rotate(-0 515.361599 220.762628)">chicago_police</text>
   </g>
   <g id="text_6">
    <text style="fill: #262626; font: 10px 'Arial', 'Liberation Sans', 'DejaVu Sans', 'Bitstream Vera Sans', sans-serif; text-anchor: middle" x="448.833599" y="220.755041" transform="rotate(-0 448.833599 220.755041)">0.0%</text>
   </g>
   <g id="text_7">
    <text style="fill: #262626; font: 12px 'Arial', 'Liberation Sans', 'DejaVu Sans', 'Bitstream Vera Sans', sans-serif; text-anchor: middle" x="369" y="45.84" transform="rotate(-0 369 45.84)">Incidents by Source</text>
   </g>
  </g>
 </g>
</svg>
