<?xml version="1.0" encoding="utf-8" standalone="no"?>
<!DOCTYPE svg PUBLIC "-//W3C//DTD SVG 1.1//EN"
  "http://www.w3.org/Graphics/SVG/1.1/DTD/svg11.dtd">
<svg xmlns:xlink="http://www.w3.org/1999/xlink" width="720pt" height="432pt" viewBox="0 0 720 432" xmlns="http://www.w3.org/2000/svg" version="1.1">
 <metadata>
  <rdf:RDF xmlns:dc="http://purl.org/dc/elements/1.1/" xmlns:cc="http://creativecommons.org/ns#" xmlns:rdf="http://www.w3.org/1999/02/22-rdf-syntax-ns#">
   <cc:Work>
    <dc:type rdf:resource="http://purl.org/dc/dcmitype/StillImage"/>
    <dc:date>2025-09-08T01:50:02.841556</dc:date>
    <dc:format>image/svg+xml</dc:format>
    <dc:creator>
     <cc:Agent>
      <dc:title>Matplotlib v3.7.5, https://matplotlib.org/</dc:title>
     </cc:Agent>
    </dc:creator>
   </cc:Work>
  </rdf:RDF>
 </metadata>
 <defs>
  <style type="text/css">*{stroke-linejoin: round; stroke-linecap: butt}</style>
 </defs>
 <g id="figure_1">
  <g id="patch_1">
   <path d="M 0 432 
L 720 432 
L 720 0 
L 0 0 
z
" style="fill: #ffffff"/>
  </g>
  <g id="axes_1">
   <g id="matplotlib.axis_1"/>
   <g id="matplotlib.axis_2"/>
   <g id="patch_2">
    <path d="M 502.056 218.16 
C 502.056 200.718718 498.626636 183.44642 491.963474 167.328089 
C 485.300312 151.209759 475.532467 136.557727 463.216967 124.207554 
C 450.901468 111.85738 436.276957 102.048379 420.177423 95.339926 
C 404.07789 88.631474 386.815301 85.153562 369.374089 85.104526 
C 351.932876 85.055489 334.651004 88.436279 318.514004 95.054097 
C 302.377003 101.671916 287.697567 111.398528 275.312817 123.679256 
C 262.928068 135.959984 253.077988 150.55686 246.324298 166.637468 
C 239.570608 182.718077 236.044176 199.97082 235.946104 217.411825 
C 235.848031 234.852831 239.180219 252.14414 245.752642 268.299683 
C 252.325065 284.455225 262.010367 299.16195 274.256227 311.581179 
C 286.502086 324.000407 301.071211 333.891487 317.132768 340.690361 
C 333.194324 347.489235 350.437084 351.064159 367.877745 351.211267 
C 385.318406 351.358375 402.619016 348.074815 418.792973 341.54784 
C 434.96693 335.020864 449.700827 325.376948 462.154436 313.166054 
C 474.608044 300.955159 484.540047 286.413902 491.384051 270.371523 
C 498.228056 254.329145 501.851444 237.096504 502.047586 219.656326 
L 369 218.16 
z
" style="fill: #f77189"/>
   </g>
   <g id="patch_3">
    <path d="M 502.047586 219.656326 
C 502.050363 219.409414 502.052452 219.162496 502.053855 218.915573 
C 502.055257 218.668649 502.055972 218.421723 502.055999 218.174796 
L 369 218.16 
z
" style="fill: #bb9832"/>
   </g>
   <g id="patch_4">
    <path d="M 502.055999 218.174796 
C 502.055999 218.172327 502.056 218.169857 502.056 218.167388 
C 502.056 218.164919 502.056 218.162449 502.056 218.15998 
L 369 218.16 
z
" style="fill: #50b131"/>
   </g>
   <g id="text_1">
    <text style="fill: #262626; font: 10px 'Arial', 'Liberation Sans', 'DejaVu Sans', 'Bitstream Vera Sans', sans-serif; text-anchor: end" x="222.640714" y="219.922945" transform="rotate(-0 222.640714 219.922945)">newsapi</text>
   </g>
   <g id="text_2">
    <text style="fill: #262626; font: 10px 'Arial', 'Liberation Sans', 'DejaVu Sans', 'Bitstream Vera Sans', sans-serif; text-anchor: middle" x="289.167662" y="220.297033" transform="rotate(-0 289.167662 220.297033)">99.8%</text>
   </g>
   <g id="text_3">
    <text style="fill: #262626; font: 10px 'Arial', 'Liberation Sans', 'DejaVu Sans', 'Bitstream Vera Sans', sans-serif; text-anchor: start" x="515.35924" y="221.577067" transform="rotate(-0 515.35924 221.577067)">chicago_pd</text>
   </g>
   <g id="text_4">
    <text style="fill: #262626; font: 10px 'Arial', 'Liberation Sans', 'DejaVu Sans', 'Bitstream Vera Sans', sans-serif; text-anchor: middle" x="448.832313" y="221.199281" transform="rotate(-0 448.832313 221.199281)">0.2%</text>
   </g>
   <g id="text_5">
    <text style="fill: #262626; font: 10px 'Arial', 'Liberation Sans', 'DejaVu Sans', 'Bitstream Vera Sans', sans-serif; text-anchor: start" x="515.3616" y="220.754064" transform="rotate(-0 515.3616 220.754064)">chicago_police</text>
   </g>
   <g id="text_6">
    <text style="fill: #262626; font: 10px 'Arial', 'Liberation Sans', 'DejaVu Sans', 'Bitstream Vera Sans', sans-serif; text-anchor: middle" x="448.8336" y="220.75037" transform="rotate(-0 448.8336 220.75037)">0.0%</text>
   </g>
   <g id="text_7">
    <text style="fill: #262626; font: 12px 'Arial', 'Liberation Sans', 'DejaVu Sans', 'Bitstream Vera Sans', sans-serif; text-anchor: middle" x="369" y="45.84" transform="rotate(-0 369 45.84)">Incidents by Source</text>
   </g>
  </g>
 </g>
</svg>
