<?xml version="1.0" encoding="utf-8" standalone="no"?>
<!DOCTYPE svg PUBLIC "-//W3C//DTD SVG 1.1//EN"
  "http://www.w3.org/Graphics/SVG/1.1/DTD/svg11.dtd">
<svg xmlns:xlink="http://www.w3.org/1999/xlink" width="720pt" height="432pt" viewBox="0 0 720 432" xmlns="http://www.w3.org/2000/svg" version="1.1">
 <metadata>
  <rdf:RDF xmlns:dc="http://purl.org/dc/elements/1.1/" xmlns:cc="http://creativecommons.org/ns#" xmlns:rdf="http://www.w3.org/1999/02/22-rdf-syntax-ns#">
   <cc:Work>
    <dc:type rdf:resource="http://purl.org/dc/dcmitype/StillImage"/>
    <dc:date>2025-05-08T06:20:59.640496</dc:date>
    <dc:format>image/svg+xml</dc:format>
    <dc:creator>
     <cc:Agent>
      <dc:title>Matplotlib v3.7.5, https://matplotlib.org/</dc:title>
     </cc:Agent>
    </dc:creator>
   </cc:Work>
  </rdf:RDF>
 </metadata>
 <defs>
  <style type="text/css">*{stroke-linejoin: round; stroke-linecap: butt}</style>
 </defs>
 <g id="figure_1">
  <g id="patch_1">
   <path d="M 0 432 
L 720 432 
L 720 0 
L 0 0 
z
" style="fill: #ffffff"/>
  </g>
  <g id="axes_1">
   <g id="matplotlib.axis_1"/>
   <g id="matplotlib.axis_2"/>
   <g id="patch_2">
    <path d="M 502.056 218.16 
C 502.056 200.744608 498.636809 183.497446 491.992845 167.399197 
C 485.348881 151.300948 475.608503 136.662625 463.325554 124.316572 
C 451.042605 111.970518 436.454387 102.155256 420.390396 95.428886 
C 404.326404 88.702516 387.09699 85.19499 369.681826 85.105747 
C 352.266663 85.016504 335.002206 88.347269 318.870123 94.908653 
C 302.738039 101.470037 288.049995 111.135275 275.641162 123.354797 
C 263.232328 135.57432 253.342439 150.112049 246.53384 166.141361 
C 239.725241 182.170673 236.129471 199.381888 235.950988 216.796365 
C 235.772505 234.210842 239.014757 251.49214 245.493388 267.657635 
C 251.972019 283.82313 261.561863 298.560509 273.717638 311.031797 
C 285.873413 323.503085 300.360271 333.46734 316.354484 340.35799 
C 332.348696 347.24864 349.541258 350.932559 366.954592 351.200278 
C 384.367926 351.467996 401.665612 348.314342 417.864093 341.918634 
C 434.062575 335.522926 448.848902 326.008727 461.382317 313.917019 
C 473.915731 301.825312 483.954092 287.389703 490.926611 271.431011 
C 497.89913 255.472319 501.671102 238.29886 502.028049 220.887127 
L 369 218.16 
z
" style="fill: #f77189"/>
   </g>
   <g id="patch_3">
    <path d="M 502.028049 220.887127 
C 502.037274 220.437169 502.044215 219.987167 502.048873 219.537139 
C 502.053531 219.087111 502.055906 218.637062 502.055997 218.187009 
L 369 218.16 
z
" style="fill: #bb9832"/>
   </g>
   <g id="patch_4">
    <path d="M 502.055997 218.187009 
C 502.055998 218.182509 502.055999 218.178008 502.055999 218.173508 
C 502.056 218.169007 502.056 218.164507 502.056 218.160006 
L 369 218.16 
z
" style="fill: #50b131"/>
   </g>
   <g id="text_1">
    <text style="fill: #262626; font: 10px 'Arial', 'Liberation Sans', 'DejaVu Sans', 'Bitstream Vera Sans', sans-serif; text-anchor: end" x="222.646087" y="219.245939" transform="rotate(-0 222.646087 219.245939)">newsapi</text>
   </g>
   <g id="text_2">
    <text style="fill: #262626; font: 10px 'Arial', 'Liberation Sans', 'DejaVu Sans', 'Bitstream Vera Sans', sans-serif; text-anchor: middle" x="289.170593" y="219.927756" transform="rotate(-0 289.170593 219.927756)">99.7%</text>
   </g>
   <g id="text_3">
    <text style="fill: #262626; font: 10px 'Arial', 'Liberation Sans', 'DejaVu Sans', 'Bitstream Vera Sans', sans-serif; text-anchor: start" x="515.35376" y="222.26079" transform="rotate(-0 515.35376 222.26079)">chicago_pd</text>
   </g>
   <g id="text_4">
    <text style="fill: #262626; font: 10px 'Arial', 'Liberation Sans', 'DejaVu Sans', 'Bitstream Vera Sans', sans-serif; text-anchor: middle" x="448.829324" y="221.572221" transform="rotate(-0 448.829324 221.572221)">0.3%</text>
   </g>
   <g id="text_5">
    <text style="fill: #262626; font: 10px 'Arial', 'Liberation Sans', 'DejaVu Sans', 'Bitstream Vera Sans', sans-serif; text-anchor: start" x="515.361599" y="220.760796" transform="rotate(-0 515.361599 220.760796)">chicago_police</text>
   </g>
   <g id="text_6">
    <text style="fill: #262626; font: 10px 'Arial', 'Liberation Sans', 'DejaVu Sans', 'Bitstream Vera Sans', sans-serif; text-anchor: middle" x="448.8336" y="220.754042" transform="rotate(-0 448.8336 220.754042)">0.0%</text>
   </g>
   <g id="text_7">
    <text style="fill: #262626; font: 12px 'Arial', 'Liberation Sans', 'DejaVu Sans', 'Bitstream Vera Sans', sans-serif; text-anchor: middle" x="369" y="45.84" transform="rotate(-0 369 45.84)">Incidents by Source</text>
   </g>
  </g>
 </g>
</svg>
