<?xml version="1.0" encoding="utf-8" standalone="no"?>
<!DOCTYPE svg PUBLIC "-//W3C//DTD SVG 1.1//EN"
  "http://www.w3.org/Graphics/SVG/1.1/DTD/svg11.dtd">
<svg xmlns:xlink="http://www.w3.org/1999/xlink" width="720pt" height="432pt" viewBox="0 0 720 432" xmlns="http://www.w3.org/2000/svg" version="1.1">
 <metadata>
  <rdf:RDF xmlns:dc="http://purl.org/dc/elements/1.1/" xmlns:cc="http://creativecommons.org/ns#" xmlns:rdf="http://www.w3.org/1999/02/22-rdf-syntax-ns#">
   <cc:Work>
    <dc:type rdf:resource="http://purl.org/dc/dcmitype/StillImage"/>
    <dc:date>2026-04-08T13:43:22.031882</dc:date>
    <dc:format>image/svg+xml</dc:format>
    <dc:creator>
     <cc:Agent>
      <dc:title>Matplotlib v3.7.5, https://matplotlib.org/</dc:title>
     </cc:Agent>
    </dc:creator>
   </cc:Work>
  </rdf:RDF>
 </metadata>
 <defs>
  <style type="text/css">*{stroke-linejoin: round; stroke-linecap: butt}</style>
 </defs>
 <g id="figure_1">
  <g id="patch_1">
   <path d="M 0 432 
L 720 432 
L 720 0 
L 0 0 
z
" style="fill: #ffffff"/>
  </g>
  <g id="axes_1">
   <g id="matplotlib.axis_1"/>
   <g id="matplotlib.axis_2"/>
   <g id="patch_2">
    <path d="M 502.056 218.16 
C 502.056 200.705395 498.621394 183.42016 491.948343 167.291501 
C 485.275291 151.162843 475.493297 136.503769 463.161036 124.151498 
C 450.828775 111.799227 436.18558 101.99348 420.067761 95.294289 
C 403.949942 88.595098 386.670298 85.132473 369.215716 85.104175 
C 351.761133 85.075877 334.470353 88.482454 318.330897 95.129349 
C 302.191441 101.776243 287.516527 111.534459 275.144279 123.846677 
C 262.772031 136.158896 252.942557 150.786175 246.217244 166.893112 
C 239.49193 183.000048 236.001296 200.274055 235.944699 217.728569 
C 235.888103 235.183083 239.266644 252.479363 245.887364 268.629574 
C 252.508084 284.779785 262.242495 299.4705 274.534639 311.862693 
C 286.826783 324.254886 301.438106 334.108061 317.534119 340.859479 
C 333.630131 347.610897 350.898456 351.129532 368.352855 351.214426 
C 385.807254 351.29932 403.108989 347.948826 419.269913 341.354298 
C 435.430836 334.75977 450.137314 325.049189 462.549419 312.777152 
C 474.961524 300.505115 484.838375 285.909784 491.615879 269.824739 
C 498.393384 253.739694 501.940011 236.477096 502.053202 219.022857 
L 369 218.16 
z
" style="fill: #f77189"/>
   </g>
   <g id="patch_3">
    <path d="M 502.053202 219.022857 
C 502.054126 218.88047 502.05482 218.738081 502.055287 218.595692 
C 502.055753 218.453303 502.055991 218.310912 502.056 218.168522 
L 369 218.16 
z
" style="fill: #bb9832"/>
   </g>
   <g id="patch_4">
    <path d="M 502.056 218.168522 
C 502.056 218.167098 502.056 218.165674 502.056 218.16425 
C 502.056 218.162827 502.056 218.161403 502.056 218.159979 
L 369 218.16 
z
" style="fill: #50b131"/>
   </g>
   <g id="text_1">
    <text style="fill: #262626; font: 10px 'Arial', 'Liberation Sans', 'DejaVu Sans', 'Bitstream Vera Sans', sans-serif; text-anchor: end" x="222.639169" y="220.271363" transform="rotate(-0 222.639169 220.271363)">newsapi</text>
   </g>
   <g id="text_2">
    <text style="fill: #262626; font: 10px 'Arial', 'Liberation Sans', 'DejaVu Sans', 'Bitstream Vera Sans', sans-serif; text-anchor: middle" x="289.16682" y="220.487079" transform="rotate(-0 289.16682 220.487079)">99.9%</text>
   </g>
   <g id="text_3">
    <text style="fill: #262626; font: 10px 'Arial', 'Liberation Sans', 'DejaVu Sans', 'Bitstream Vera Sans', sans-serif; text-anchor: start" x="515.360815" y="221.225199" transform="rotate(-0 515.360815 221.225199)">chicago_pd</text>
   </g>
   <g id="text_4">
    <text style="fill: #262626; font: 10px 'Arial', 'Liberation Sans', 'DejaVu Sans', 'Bitstream Vera Sans', sans-serif; text-anchor: middle" x="448.833172" y="221.007353" transform="rotate(-0 448.833172 221.007353)">0.1%</text>
   </g>
   <g id="text_5">
    <text style="fill: #262626; font: 10px 'Arial', 'Liberation Sans', 'DejaVu Sans', 'Bitstream Vera Sans', sans-serif; text-anchor: start" x="515.3616" y="220.750613" transform="rotate(-0 515.3616 220.750613)">chicago_police</text>
   </g>
   <g id="text_6">
    <text style="fill: #262626; font: 10px 'Arial', 'Liberation Sans', 'DejaVu Sans', 'Bitstream Vera Sans', sans-serif; text-anchor: middle" x="448.8336" y="220.748488" transform="rotate(-0 448.8336 220.748488)">0.0%</text>
   </g>
   <g id="text_7">
    <text style="fill: #262626; font: 12px 'Arial', 'Liberation Sans', 'DejaVu Sans', 'Bitstream Vera Sans', sans-serif; text-anchor: middle" x="369" y="45.84" transform="rotate(-0 369 45.84)">Incidents by Source</text>
   </g>
  </g>
 </g>
</svg>
