<?xml version="1.0" encoding="utf-8" standalone="no"?>
<!DOCTYPE svg PUBLIC "-//W3C//DTD SVG 1.1//EN"
  "http://www.w3.org/Graphics/SVG/1.1/DTD/svg11.dtd">
<svg xmlns:xlink="http://www.w3.org/1999/xlink" width="720pt" height="432pt" viewBox="0 0 720 432" xmlns="http://www.w3.org/2000/svg" version="1.1">
 <metadata>
  <rdf:RDF xmlns:dc="http://purl.org/dc/elements/1.1/" xmlns:cc="http://creativecommons.org/ns#" xmlns:rdf="http://www.w3.org/1999/02/22-rdf-syntax-ns#">
   <cc:Work>
    <dc:type rdf:resource="http://purl.org/dc/dcmitype/StillImage"/>
    <dc:date>2026-04-28T02:27:03.461273</dc:date>
    <dc:format>image/svg+xml</dc:format>
    <dc:creator>
     <cc:Agent>
      <dc:title>Matplotlib v3.7.5, https://matplotlib.org/</dc:title>
     </cc:Agent>
    </dc:creator>
   </cc:Work>
  </rdf:RDF>
 </metadata>
 <defs>
  <style type="text/css">*{stroke-linejoin: round; stroke-linecap: butt}</style>
 </defs>
 <g id="figure_1">
  <g id="patch_1">
   <path d="M 0 432 
L 720 432 
L 720 0 
L 0 0 
z
" style="fill: #ffffff"/>
  </g>
  <g id="axes_1">
   <g id="matplotlib.axis_1"/>
   <g id="matplotlib.axis_2"/>
   <g id="patch_2">
    <path d="M 502.056 218.16 
C 502.056 200.704756 498.621143 183.418902 491.947618 167.289749 
C 485.274092 151.160595 475.49142 136.501184 463.158356 124.148814 
C 450.825292 111.796443 436.181201 101.990852 420.062506 95.292105 
C 403.943812 88.593358 386.663351 85.131467 369.208129 85.104163 
C 351.752907 85.076859 334.461701 88.484673 318.322128 95.13296 
C 302.182556 101.781248 287.507861 111.540978 275.136213 123.854705 
C 262.764566 136.168432 252.936081 150.797167 246.212129 166.905363 
C 239.488176 183.01356 235.999259 200.288584 235.944651 217.743742 
C 235.890043 235.198901 239.270806 252.495416 245.89384 268.645368 
C 252.516874 284.79532 262.253637 299.485264 274.547997 311.876158 
C 286.842357 324.267051 301.455699 334.118407 317.553359 340.867548 
C 333.651018 347.616688 350.920563 351.132624 368.375615 351.214535 
C 385.830666 351.296446 403.132449 347.942744 419.292741 341.34498 
C 435.453033 334.747216 450.15819 325.033444 462.568299 312.758481 
C 474.978409 300.483518 484.852611 285.885603 491.626924 269.79852 
C 498.401236 253.711438 501.944181 236.447413 502.053396 218.992511 
L 369 218.16 
z
" style="fill: #f77189"/>
   </g>
   <g id="patch_3">
    <path d="M 502.053396 218.992511 
C 502.054255 218.855132 502.054902 218.717751 502.055336 218.580369 
C 502.05577 218.442987 502.055991 218.305605 502.056 218.168223 
L 369 218.16 
z
" style="fill: #bb9832"/>
   </g>
   <g id="patch_4">
    <path d="M 502.056 218.168223 
C 502.056 218.166849 502.056 218.165475 502.056 218.164101 
C 502.056 218.162727 502.056 218.161353 502.056 218.15998 
L 369 218.16 
z
" style="fill: #50b131"/>
   </g>
   <g id="text_1">
    <text style="fill: #262626; font: 10px 'Arial', 'Liberation Sans', 'DejaVu Sans', 'Bitstream Vera Sans', sans-serif; text-anchor: end" x="222.639116" y="220.288054" transform="rotate(-0 222.639116 220.288054)">newsapi</text>
   </g>
   <g id="text_2">
    <text style="fill: #262626; font: 10px 'Arial', 'Liberation Sans', 'DejaVu Sans', 'Bitstream Vera Sans', sans-serif; text-anchor: middle" x="289.166791" y="220.496183" transform="rotate(-0 289.166791 220.496183)">99.9%</text>
   </g>
   <g id="text_3">
    <text style="fill: #262626; font: 10px 'Arial', 'Liberation Sans', 'DejaVu Sans', 'Bitstream Vera Sans', sans-serif; text-anchor: start" x="515.36087" y="221.208343" transform="rotate(-0 515.36087 221.208343)">chicago_pd</text>
   </g>
   <g id="text_4">
    <text style="fill: #262626; font: 10px 'Arial', 'Liberation Sans', 'DejaVu Sans', 'Bitstream Vera Sans', sans-serif; text-anchor: middle" x="448.833202" y="220.998159" transform="rotate(-0 448.833202 220.998159)">0.1%</text>
   </g>
   <g id="text_5">
    <text style="fill: #262626; font: 10px 'Arial', 'Liberation Sans', 'DejaVu Sans', 'Bitstream Vera Sans', sans-serif; text-anchor: start" x="515.3616" y="220.750449" transform="rotate(-0 515.3616 220.750449)">chicago_police</text>
   </g>
   <g id="text_6">
    <text style="fill: #262626; font: 10px 'Arial', 'Liberation Sans', 'DejaVu Sans', 'Bitstream Vera Sans', sans-serif; text-anchor: middle" x="448.8336" y="220.748398" transform="rotate(-0 448.8336 220.748398)">0.0%</text>
   </g>
   <g id="text_7">
    <text style="fill: #262626; font: 12px 'Arial', 'Liberation Sans', 'DejaVu Sans', 'Bitstream Vera Sans', sans-serif; text-anchor: middle" x="369" y="45.84" transform="rotate(-0 369 45.84)">Incidents by Source</text>
   </g>
  </g>
 </g>
</svg>
