<?xml version="1.0" encoding="utf-8" standalone="no"?>
<!DOCTYPE svg PUBLIC "-//W3C//DTD SVG 1.1//EN"
  "http://www.w3.org/Graphics/SVG/1.1/DTD/svg11.dtd">
<svg xmlns:xlink="http://www.w3.org/1999/xlink" width="720pt" height="432pt" viewBox="0 0 720 432" xmlns="http://www.w3.org/2000/svg" version="1.1">
 <metadata>
  <rdf:RDF xmlns:dc="http://purl.org/dc/elements/1.1/" xmlns:cc="http://creativecommons.org/ns#" xmlns:rdf="http://www.w3.org/1999/02/22-rdf-syntax-ns#">
   <cc:Work>
    <dc:type rdf:resource="http://purl.org/dc/dcmitype/StillImage"/>
    <dc:date>2025-05-25T01:14:16.281339</dc:date>
    <dc:format>image/svg+xml</dc:format>
    <dc:creator>
     <cc:Agent>
      <dc:title>Matplotlib v3.7.5, https://matplotlib.org/</dc:title>
     </cc:Agent>
    </dc:creator>
   </cc:Work>
  </rdf:RDF>
 </metadata>
 <defs>
  <style type="text/css">*{stroke-linejoin: round; stroke-linecap: butt}</style>
 </defs>
 <g id="figure_1">
  <g id="patch_1">
   <path d="M 0 432 
L 720 432 
L 720 0 
L 0 0 
z
" style="fill: #ffffff"/>
  </g>
  <g id="axes_1">
   <g id="matplotlib.axis_1"/>
   <g id="matplotlib.axis_2"/>
   <g id="patch_2">
    <path d="M 502.056 218.16 
C 502.056 200.738991 498.634603 183.486374 491.986476 167.383767 
C 485.338349 151.281159 475.592013 136.639859 463.302004 124.292907 
C 451.011994 111.945954 436.415903 102.132043 420.344199 95.409552 
C 404.272494 88.687061 387.035878 85.185951 369.615055 85.105422 
C 352.194231 85.024893 334.925984 88.366502 318.792817 94.940124 
C 302.659651 101.513745 287.973454 111.192297 275.569823 123.425101 
C 263.166191 135.657905 253.284915 150.208475 246.488204 166.248933 
C 239.691493 182.289391 236.110743 199.509639 235.949686 216.929904 
C 235.78863 234.350169 239.050381 251.633679 245.549356 267.79706 
C 252.048332 283.960441 261.658892 298.69122 273.83423 311.151265 
C 286.009567 323.61131 300.514305 333.559742 316.523174 340.430527 
C 332.532042 347.301313 349.735555 350.961626 367.154889 351.203206 
C 384.574223 351.444786 401.872626 348.262964 418.065876 341.838773 
C 434.259126 335.414583 449.034172 325.872218 461.550365 313.754608 
C 474.066558 301.636997 484.081932 287.178401 491.026646 271.201464 
C 497.971359 255.224527 501.711157 238.038118 502.033256 220.620087 
L 369 218.16 
z
" style="fill: #f77189"/>
   </g>
   <g id="patch_3">
    <path d="M 502.033256 220.620087 
C 502.040762 220.214177 502.04641 219.808235 502.050201 219.402273 
C 502.053991 218.996311 502.055923 218.590335 502.055998 218.184355 
L 369 218.16 
z
" style="fill: #bb9832"/>
   </g>
   <g id="patch_4">
    <path d="M 502.055998 218.184355 
C 502.055999 218.180295 502.055999 218.176236 502.055999 218.172176 
C 502.056 218.168116 502.056 218.164056 502.056 218.159996 
L 369 218.16 
z
" style="fill: #50b131"/>
   </g>
   <g id="text_1">
    <text style="fill: #262626; font: 10px 'Arial', 'Liberation Sans', 'DejaVu Sans', 'Bitstream Vera Sans', sans-serif; text-anchor: end" x="222.644655" y="219.392832" transform="rotate(-0 222.644655 219.392832)">newsapi</text>
   </g>
   <g id="text_2">
    <text style="fill: #262626; font: 10px 'Arial', 'Liberation Sans', 'DejaVu Sans', 'Bitstream Vera Sans', sans-serif; text-anchor: middle" x="289.169812" y="220.00788" transform="rotate(-0 289.169812 220.00788)">99.7%</text>
   </g>
   <g id="text_3">
    <text style="fill: #262626; font: 10px 'Arial', 'Liberation Sans', 'DejaVu Sans', 'Bitstream Vera Sans', sans-serif; text-anchor: start" x="515.355221" y="222.112438" transform="rotate(-0 515.355221 222.112438)">chicago_pd</text>
   </g>
   <g id="text_4">
    <text style="fill: #262626; font: 10px 'Arial', 'Liberation Sans', 'DejaVu Sans', 'Bitstream Vera Sans', sans-serif; text-anchor: middle" x="448.83012" y="221.491301" transform="rotate(-0 448.83012 221.491301)">0.3%</text>
   </g>
   <g id="text_5">
    <text style="fill: #262626; font: 10px 'Arial', 'Liberation Sans', 'DejaVu Sans', 'Bitstream Vera Sans', sans-serif; text-anchor: start" x="515.361599" y="220.759331" transform="rotate(-0 515.361599 220.759331)">chicago_police</text>
   </g>
   <g id="text_6">
    <text style="fill: #262626; font: 10px 'Arial', 'Liberation Sans', 'DejaVu Sans', 'Bitstream Vera Sans', sans-serif; text-anchor: middle" x="448.8336" y="220.753243" transform="rotate(-0 448.8336 220.753243)">0.0%</text>
   </g>
   <g id="text_7">
    <text style="fill: #262626; font: 12px 'Arial', 'Liberation Sans', 'DejaVu Sans', 'Bitstream Vera Sans', sans-serif; text-anchor: middle" x="369" y="45.84" transform="rotate(-0 369 45.84)">Incidents by Source</text>
   </g>
  </g>
 </g>
</svg>
