<?xml version="1.0" encoding="utf-8" standalone="no"?>
<!DOCTYPE svg PUBLIC "-//W3C//DTD SVG 1.1//EN"
  "http://www.w3.org/Graphics/SVG/1.1/DTD/svg11.dtd">
<svg xmlns:xlink="http://www.w3.org/1999/xlink" width="720pt" height="432pt" viewBox="0 0 720 432" xmlns="http://www.w3.org/2000/svg" version="1.1">
 <metadata>
  <rdf:RDF xmlns:dc="http://purl.org/dc/elements/1.1/" xmlns:cc="http://creativecommons.org/ns#" xmlns:rdf="http://www.w3.org/1999/02/22-rdf-syntax-ns#">
   <cc:Work>
    <dc:type rdf:resource="http://purl.org/dc/dcmitype/StillImage"/>
    <dc:date>2025-05-13T12:28:52.430719</dc:date>
    <dc:format>image/svg+xml</dc:format>
    <dc:creator>
     <cc:Agent>
      <dc:title>Matplotlib v3.7.5, https://matplotlib.org/</dc:title>
     </cc:Agent>
    </dc:creator>
   </cc:Work>
  </rdf:RDF>
 </metadata>
 <defs>
  <style type="text/css">*{stroke-linejoin: round; stroke-linecap: butt}</style>
 </defs>
 <g id="figure_1">
  <g id="patch_1">
   <path d="M 0 432 
L 720 432 
L 720 0 
L 0 0 
z
" style="fill: #ffffff"/>
  </g>
  <g id="axes_1">
   <g id="matplotlib.axis_1"/>
   <g id="matplotlib.axis_2"/>
   <g id="patch_2">
    <path d="M 502.056 218.16 
C 502.056 200.743009 498.636181 183.494294 491.991032 167.394804 
C 485.345883 151.295314 475.603809 136.656143 463.31885 124.309834 
C 451.033891 111.963524 436.443432 102.148646 420.377244 95.42338 
C 404.311057 88.698114 387.079592 85.192413 369.662816 85.105651 
C 352.246041 85.018888 334.980505 88.35274 318.848112 94.917608 
C 302.715719 101.482475 288.0282 111.151504 275.620846 123.374807 
C 263.213492 135.598111 253.326054 150.139496 246.520838 166.171983 
C 239.715622 182.204469 236.124126 199.418257 235.950604 216.834384 
C 235.777081 234.25051 239.024883 251.53244 245.509306 267.697336 
C 251.993729 283.862231 261.589472 298.597734 273.750817 311.065824 
C 285.912162 323.533914 300.404112 333.493668 316.4025 340.378665 
C 332.400887 347.263662 349.59657 350.940863 367.011617 351.201142 
C 384.426663 351.461421 401.724557 348.299748 417.921554 341.895931 
C 434.118551 335.492114 448.901672 325.969895 461.430189 313.870811 
C 473.958706 301.771726 483.990527 287.329569 490.955135 271.365678 
C 497.919743 255.401787 501.682558 238.224635 502.029586 220.811101 
L 369 218.16 
z
" style="fill: #f77189"/>
   </g>
   <g id="patch_3">
    <path d="M 502.029586 220.811101 
C 502.038303 220.373684 502.044863 219.936227 502.049265 219.498745 
C 502.053667 219.061264 502.055911 218.623763 502.055997 218.186259 
L 369 218.16 
z
" style="fill: #bb9832"/>
   </g>
   <g id="patch_4">
    <path d="M 502.055997 218.186259 
C 502.055998 218.181884 502.055999 218.177509 502.055999 218.173134 
C 502.056 218.168759 502.056 218.164384 502.056 218.160009 
L 369 218.16 
z
" style="fill: #50b131"/>
   </g>
   <g id="text_1">
    <text style="fill: #262626; font: 10px 'Arial', 'Liberation Sans', 'DejaVu Sans', 'Bitstream Vera Sans', sans-serif; text-anchor: end" x="222.645664" y="219.287759" transform="rotate(-0 222.645664 219.287759)">newsapi</text>
   </g>
   <g id="text_2">
    <text style="fill: #262626; font: 10px 'Arial', 'Liberation Sans', 'DejaVu Sans', 'Bitstream Vera Sans', sans-serif; text-anchor: middle" x="289.170362" y="219.950568" transform="rotate(-0 289.170362 219.950568)">99.7%</text>
   </g>
   <g id="text_3">
    <text style="fill: #262626; font: 10px 'Arial', 'Liberation Sans', 'DejaVu Sans', 'Bitstream Vera Sans', sans-serif; text-anchor: start" x="515.354191" y="222.218558" transform="rotate(-0 515.354191 222.218558)">chicago_pd</text>
   </g>
   <g id="text_4">
    <text style="fill: #262626; font: 10px 'Arial', 'Liberation Sans', 'DejaVu Sans', 'Bitstream Vera Sans', sans-serif; text-anchor: middle" x="448.829559" y="221.549185" transform="rotate(-0 448.829559 221.549185)">0.3%</text>
   </g>
   <g id="text_5">
    <text style="fill: #262626; font: 10px 'Arial', 'Liberation Sans', 'DejaVu Sans', 'Bitstream Vera Sans', sans-serif; text-anchor: start" x="515.361599" y="220.760385" transform="rotate(-0 515.361599 220.760385)">chicago_police</text>
   </g>
   <g id="text_6">
    <text style="fill: #262626; font: 10px 'Arial', 'Liberation Sans', 'DejaVu Sans', 'Bitstream Vera Sans', sans-serif; text-anchor: middle" x="448.8336" y="220.753818" transform="rotate(-0 448.8336 220.753818)">0.0%</text>
   </g>
   <g id="text_7">
    <text style="fill: #262626; font: 12px 'Arial', 'Liberation Sans', 'DejaVu Sans', 'Bitstream Vera Sans', sans-serif; text-anchor: middle" x="369" y="45.84" transform="rotate(-0 369 45.84)">Incidents by Source</text>
   </g>
  </g>
 </g>
</svg>
