<?xml version="1.0" encoding="utf-8" standalone="no"?>
<!DOCTYPE svg PUBLIC "-//W3C//DTD SVG 1.1//EN"
  "http://www.w3.org/Graphics/SVG/1.1/DTD/svg11.dtd">
<svg xmlns:xlink="http://www.w3.org/1999/xlink" width="720pt" height="432pt" viewBox="0 0 720 432" xmlns="http://www.w3.org/2000/svg" version="1.1">
 <metadata>
  <rdf:RDF xmlns:dc="http://purl.org/dc/elements/1.1/" xmlns:cc="http://creativecommons.org/ns#" xmlns:rdf="http://www.w3.org/1999/02/22-rdf-syntax-ns#">
   <cc:Work>
    <dc:type rdf:resource="http://purl.org/dc/dcmitype/StillImage"/>
    <dc:date>2025-07-13T06:21:09.375447</dc:date>
    <dc:format>image/svg+xml</dc:format>
    <dc:creator>
     <cc:Agent>
      <dc:title>Matplotlib v3.7.5, https://matplotlib.org/</dc:title>
     </cc:Agent>
    </dc:creator>
   </cc:Work>
  </rdf:RDF>
 </metadata>
 <defs>
  <style type="text/css">*{stroke-linejoin: round; stroke-linecap: butt}</style>
 </defs>
 <g id="figure_1">
  <g id="patch_1">
   <path d="M 0 432 
L 720 432 
L 720 0 
L 0 0 
z
" style="fill: #ffffff"/>
  </g>
  <g id="axes_1">
   <g id="matplotlib.axis_1"/>
   <g id="matplotlib.axis_2"/>
   <g id="patch_2">
    <path d="M 502.056 218.16 
C 502.056 200.727305 498.630012 183.463343 491.97322 167.351671 
C 485.316428 151.239999 475.557696 136.59251 463.252995 124.243697 
C 450.948294 111.894883 436.335822 102.083796 420.248075 95.36939 
C 404.160328 88.654983 386.908737 85.167237 369.476153 85.104852 
C 352.04357 85.042467 334.767458 88.406653 318.632068 95.005745 
C 302.496677 101.604837 287.814359 111.311089 275.421591 123.57152 
C 263.028823 135.831951 253.165507 150.40922 246.393572 166.472835 
C 239.621637 182.536451 236.072176 199.775451 235.947408 217.207699 
C 235.82264 234.639948 239.124979 251.927988 245.666287 268.086891 
C 252.207595 284.245794 261.861243 298.962752 274.077246 311.399316 
C 286.29325 323.835879 300.835129 333.751299 316.874408 340.580675 
C 332.913687 347.410052 350.139874 351.021182 367.571564 351.208332 
C 385.003254 351.395483 402.303002 348.155031 418.48521 341.671591 
C 434.667418 335.188151 449.418829 325.587231 461.899029 313.415811 
C 474.379229 301.244392 484.346624 286.738089 491.233355 270.723352 
C 498.120086 254.708616 501.792838 237.495462 502.042368 220.064553 
L 369 218.16 
z
" style="fill: #f77189"/>
   </g>
   <g id="patch_3">
    <path d="M 502.042368 220.064553 
C 502.046867 219.750291 502.050253 219.436014 502.052524 219.121728 
C 502.054796 218.807442 502.055954 218.493149 502.055999 218.178854 
L 369 218.16 
z
" style="fill: #bb9832"/>
   </g>
   <g id="patch_4">
    <path d="M 502.055999 218.178854 
C 502.055999 218.175711 502.055999 218.172569 502.056 218.169426 
C 502.056 218.166283 502.056 218.16314 502.056 218.159997 
L 369 218.16 
z
" style="fill: #50b131"/>
   </g>
   <g id="text_1">
    <text style="fill: #262626; font: 10px 'Arial', 'Liberation Sans', 'DejaVu Sans', 'Bitstream Vera Sans', sans-serif; text-anchor: end" x="222.642149" y="219.698407" transform="rotate(-0 222.642149 219.698407)">newsapi</text>
   </g>
   <g id="text_2">
    <text style="fill: #262626; font: 10px 'Arial', 'Liberation Sans', 'DejaVu Sans', 'Bitstream Vera Sans', sans-serif; text-anchor: middle" x="289.168445" y="220.174557" transform="rotate(-0 289.168445 220.174557)">99.8%</text>
   </g>
   <g id="text_3">
    <text style="fill: #262626; font: 10px 'Arial', 'Liberation Sans', 'DejaVu Sans', 'Bitstream Vera Sans', sans-serif; text-anchor: start" x="515.357777" y="221.803838" transform="rotate(-0 515.357777 221.803838)">chicago_pd</text>
   </g>
   <g id="text_4">
    <text style="fill: #262626; font: 10px 'Arial', 'Liberation Sans', 'DejaVu Sans', 'Bitstream Vera Sans', sans-serif; text-anchor: middle" x="448.831515" y="221.322974" transform="rotate(-0 448.831515 221.322974)">0.2%</text>
   </g>
   <g id="text_5">
    <text style="fill: #262626; font: 10px 'Arial', 'Liberation Sans', 'DejaVu Sans', 'Bitstream Vera Sans', sans-serif; text-anchor: start" x="515.3616" y="220.756306" transform="rotate(-0 515.3616 220.756306)">chicago_police</text>
   </g>
   <g id="text_6">
    <text style="fill: #262626; font: 10px 'Arial', 'Liberation Sans', 'DejaVu Sans', 'Bitstream Vera Sans', sans-serif; text-anchor: middle" x="448.8336" y="220.751593" transform="rotate(-0 448.8336 220.751593)">0.0%</text>
   </g>
   <g id="text_7">
    <text style="fill: #262626; font: 12px 'Arial', 'Liberation Sans', 'DejaVu Sans', 'Bitstream Vera Sans', sans-serif; text-anchor: middle" x="369" y="45.84" transform="rotate(-0 369 45.84)">Incidents by Source</text>
   </g>
  </g>
 </g>
</svg>
