<?xml version="1.0" encoding="utf-8" standalone="no"?>
<!DOCTYPE svg PUBLIC "-//W3C//DTD SVG 1.1//EN"
  "http://www.w3.org/Graphics/SVG/1.1/DTD/svg11.dtd">
<svg xmlns:xlink="http://www.w3.org/1999/xlink" width="720pt" height="432pt" viewBox="0 0 720 432" xmlns="http://www.w3.org/2000/svg" version="1.1">
 <metadata>
  <rdf:RDF xmlns:dc="http://purl.org/dc/elements/1.1/" xmlns:cc="http://creativecommons.org/ns#" xmlns:rdf="http://www.w3.org/1999/02/22-rdf-syntax-ns#">
   <cc:Work>
    <dc:type rdf:resource="http://purl.org/dc/dcmitype/StillImage"/>
    <dc:date>2026-02-23T01:44:02.221740</dc:date>
    <dc:format>image/svg+xml</dc:format>
    <dc:creator>
     <cc:Agent>
      <dc:title>Matplotlib v3.7.5, https://matplotlib.org/</dc:title>
     </cc:Agent>
    </dc:creator>
   </cc:Work>
  </rdf:RDF>
 </metadata>
 <defs>
  <style type="text/css">*{stroke-linejoin: round; stroke-linecap: butt}</style>
 </defs>
 <g id="figure_1">
  <g id="patch_1">
   <path d="M 0 432 
L 720 432 
L 720 0 
L 0 0 
z
" style="fill: #ffffff"/>
  </g>
  <g id="axes_1">
   <g id="matplotlib.axis_1"/>
   <g id="matplotlib.axis_2"/>
   <g id="patch_2">
    <path d="M 502.056 218.16 
C 502.056 200.706817 498.621954 183.422963 491.949958 167.295406 
C 485.277963 151.16785 475.497479 136.509527 463.167008 124.15748 
C 450.836536 111.805432 436.195335 101.999337 420.079468 95.299156 
C 403.963601 88.598974 386.685777 85.134717 369.232621 85.104203 
C 351.779464 85.07369 334.489633 88.477513 318.350437 95.121303 
C 302.21124 101.765093 287.535841 111.519935 275.162255 123.828792 
C 262.788669 136.13765 252.956991 150.761685 246.228645 166.865813 
C 239.500299 182.969942 236.00584 200.241683 235.944813 217.694759 
C 235.883787 235.147836 239.257377 252.443591 245.872941 268.594378 
C 252.488505 284.745165 262.217675 299.437597 274.504881 311.832683 
C 286.792087 324.22777 301.398911 334.084999 317.491252 340.84149 
C 333.583593 347.597981 350.849198 351.122631 368.302141 351.21417 
C 385.755084 351.305709 403.056711 347.962362 419.219039 341.375045 
C 435.381368 334.787727 450.090786 325.084259 462.507335 312.818742 
C 474.923884 300.553225 484.806636 285.963657 491.59125 269.883153 
C 498.375865 253.802649 501.930694 236.543232 502.052746 219.090476 
L 369 218.16 
z
" style="fill: #f77189"/>
   </g>
   <g id="patch_3">
    <path d="M 502.052746 219.090476 
C 502.05382 218.936934 502.054628 218.783391 502.05517 218.629847 
C 502.055713 218.476303 502.055989 218.322758 502.056 218.169213 
L 369 218.16 
z
" style="fill: #bb9832"/>
   </g>
   <g id="patch_4">
    <path d="M 502.056 218.169213 
C 502.056 218.167678 502.056 218.166142 502.056 218.164607 
C 502.056 218.163072 502.056 218.161536 502.056 218.160001 
L 369 218.16 
z
" style="fill: #50b131"/>
   </g>
   <g id="text_1">
    <text style="fill: #262626; font: 10px 'Arial', 'Liberation Sans', 'DejaVu Sans', 'Bitstream Vera Sans', sans-serif; text-anchor: end" x="222.639295" y="220.234173" transform="rotate(-0 222.639295 220.234173)">newsapi</text>
   </g>
   <g id="text_2">
    <text style="fill: #262626; font: 10px 'Arial', 'Liberation Sans', 'DejaVu Sans', 'Bitstream Vera Sans', sans-serif; text-anchor: middle" x="289.166888" y="220.466793" transform="rotate(-0 289.166888 220.466793)">99.9%</text>
   </g>
   <g id="text_3">
    <text style="fill: #262626; font: 10px 'Arial', 'Liberation Sans', 'DejaVu Sans', 'Bitstream Vera Sans', sans-serif; text-anchor: start" x="515.360687" y="221.26277" transform="rotate(-0 515.360687 221.26277)">chicago_pd</text>
   </g>
   <g id="text_4">
    <text style="fill: #262626; font: 10px 'Arial', 'Liberation Sans', 'DejaVu Sans', 'Bitstream Vera Sans', sans-serif; text-anchor: middle" x="448.833102" y="221.027846" transform="rotate(-0 448.833102 221.027846)">0.1%</text>
   </g>
   <g id="text_5">
    <text style="fill: #262626; font: 10px 'Arial', 'Liberation Sans', 'DejaVu Sans', 'Bitstream Vera Sans', sans-serif; text-anchor: start" x="515.3616" y="220.751005" transform="rotate(-0 515.3616 220.751005)">chicago_police</text>
   </g>
   <g id="text_6">
    <text style="fill: #262626; font: 10px 'Arial', 'Liberation Sans', 'DejaVu Sans', 'Bitstream Vera Sans', sans-serif; text-anchor: middle" x="448.8336" y="220.748702" transform="rotate(-0 448.8336 220.748702)">0.0%</text>
   </g>
   <g id="text_7">
    <text style="fill: #262626; font: 12px 'Arial', 'Liberation Sans', 'DejaVu Sans', 'Bitstream Vera Sans', sans-serif; text-anchor: middle" x="369" y="45.84" transform="rotate(-0 369 45.84)">Incidents by Source</text>
   </g>
  </g>
 </g>
</svg>
