<?xml version="1.0" encoding="utf-8" standalone="no"?>
<!DOCTYPE svg PUBLIC "-//W3C//DTD SVG 1.1//EN"
  "http://www.w3.org/Graphics/SVG/1.1/DTD/svg11.dtd">
<svg xmlns:xlink="http://www.w3.org/1999/xlink" width="720pt" height="432pt" viewBox="0 0 720 432" xmlns="http://www.w3.org/2000/svg" version="1.1">
 <metadata>
  <rdf:RDF xmlns:dc="http://purl.org/dc/elements/1.1/" xmlns:cc="http://creativecommons.org/ns#" xmlns:rdf="http://www.w3.org/1999/02/22-rdf-syntax-ns#">
   <cc:Work>
    <dc:type rdf:resource="http://purl.org/dc/dcmitype/StillImage"/>
    <dc:date>2025-06-13T01:56:28.014793</dc:date>
    <dc:format>image/svg+xml</dc:format>
    <dc:creator>
     <cc:Agent>
      <dc:title>Matplotlib v3.7.5, https://matplotlib.org/</dc:title>
     </cc:Agent>
    </dc:creator>
   </cc:Work>
  </rdf:RDF>
 </metadata>
 <defs>
  <style type="text/css">*{stroke-linejoin: round; stroke-linecap: butt}</style>
 </defs>
 <g id="figure_1">
  <g id="patch_1">
   <path d="M 0 432 
L 720 432 
L 720 0 
L 0 0 
z
" style="fill: #ffffff"/>
  </g>
  <g id="axes_1">
   <g id="matplotlib.axis_1"/>
   <g id="matplotlib.axis_2"/>
   <g id="patch_2">
    <path d="M 502.056 218.16 
C 502.056 200.73368 498.632517 183.475908 491.980453 167.369181 
C 485.328389 151.262454 475.576421 136.61834 463.279736 124.270541 
C 450.98305 111.922741 436.379515 102.110111 420.30052 95.391292 
C 404.221525 88.672472 386.978102 85.177431 369.551932 85.105145 
C 352.125763 85.032858 334.853938 88.384724 318.719756 94.969919 
C 302.585573 101.555113 287.901134 111.246252 275.502432 123.491611 
C 263.103731 135.73697 253.230608 150.299675 246.445149 166.350662 
C 239.659689 182.401648 236.093151 199.630425 235.948579 217.056145 
C 235.804007 234.481865 239.084199 251.767445 245.60241 267.928804 
C 252.120621 284.090164 261.750763 298.814678 273.944586 311.264068 
C 286.138408 323.713458 300.660034 333.646903 316.682735 340.498886 
C 332.705436 347.350868 349.91927 350.988843 367.344241 351.205697 
C 384.769211 351.422552 402.068249 348.214091 418.256508 341.762976 
C 434.444767 335.31186 449.209101 325.742879 461.708965 313.600803 
C 474.208829 301.458727 484.202427 286.978432 491.120815 270.984291 
C 498.039202 254.990151 501.748551 237.791556 502.037684 220.367635 
L 369 218.16 
z
" style="fill: #f77189"/>
   </g>
   <g id="patch_3">
    <path d="M 502.037684 220.367635 
C 502.043729 220.00337 502.048278 219.639081 502.05133 219.274778 
C 502.054382 218.910475 502.055938 218.546162 502.055998 218.181846 
L 369 218.16 
z
" style="fill: #bb9832"/>
   </g>
   <g id="patch_4">
    <path d="M 502.055998 218.181846 
C 502.055999 218.178203 502.055999 218.17456 502.056 218.170917 
C 502.056 218.167274 502.056 218.16363 502.056 218.159987 
L 369 218.16 
z
" style="fill: #50b131"/>
   </g>
   <g id="text_1">
    <text style="fill: #262626; font: 10px 'Arial', 'Liberation Sans', 'DejaVu Sans', 'Bitstream Vera Sans', sans-serif; text-anchor: end" x="222.643437" y="219.531697" transform="rotate(-0 222.643437 219.531697)">newsapi</text>
   </g>
   <g id="text_2">
    <text style="fill: #262626; font: 10px 'Arial', 'Liberation Sans', 'DejaVu Sans', 'Bitstream Vera Sans', sans-serif; text-anchor: middle" x="289.169147" y="220.083624" transform="rotate(-0 289.169147 220.083624)">99.7%</text>
   </g>
   <g id="text_3">
    <text style="fill: #262626; font: 10px 'Arial', 'Liberation Sans', 'DejaVu Sans', 'Bitstream Vera Sans', sans-serif; text-anchor: start" x="515.356463" y="221.972193" transform="rotate(-0 515.356463 221.972193)">chicago_pd</text>
   </g>
   <g id="text_4">
    <text style="fill: #262626; font: 10px 'Arial', 'Liberation Sans', 'DejaVu Sans', 'Bitstream Vera Sans', sans-serif; text-anchor: middle" x="448.830798" y="221.414804" transform="rotate(-0 448.830798 221.414804)">0.3%</text>
   </g>
   <g id="text_5">
    <text style="fill: #262626; font: 10px 'Arial', 'Liberation Sans', 'DejaVu Sans', 'Bitstream Vera Sans', sans-serif; text-anchor: start" x="515.3616" y="220.757946" transform="rotate(-0 515.3616 220.757946)">chicago_police</text>
   </g>
   <g id="text_6">
    <text style="fill: #262626; font: 10px 'Arial', 'Liberation Sans', 'DejaVu Sans', 'Bitstream Vera Sans', sans-serif; text-anchor: middle" x="448.8336" y="220.752488" transform="rotate(-0 448.8336 220.752488)">0.0%</text>
   </g>
   <g id="text_7">
    <text style="fill: #262626; font: 12px 'Arial', 'Liberation Sans', 'DejaVu Sans', 'Bitstream Vera Sans', sans-serif; text-anchor: middle" x="369" y="45.84" transform="rotate(-0 369 45.84)">Incidents by Source</text>
   </g>
  </g>
 </g>
</svg>
