<?xml version="1.0" encoding="utf-8" standalone="no"?>
<!DOCTYPE svg PUBLIC "-//W3C//DTD SVG 1.1//EN"
  "http://www.w3.org/Graphics/SVG/1.1/DTD/svg11.dtd">
<svg xmlns:xlink="http://www.w3.org/1999/xlink" width="720pt" height="432pt" viewBox="0 0 720 432" xmlns="http://www.w3.org/2000/svg" version="1.1">
 <metadata>
  <rdf:RDF xmlns:dc="http://purl.org/dc/elements/1.1/" xmlns:cc="http://creativecommons.org/ns#" xmlns:rdf="http://www.w3.org/1999/02/22-rdf-syntax-ns#">
   <cc:Work>
    <dc:type rdf:resource="http://purl.org/dc/dcmitype/StillImage"/>
    <dc:date>2025-08-16T12:27:17.455803</dc:date>
    <dc:format>image/svg+xml</dc:format>
    <dc:creator>
     <cc:Agent>
      <dc:title>Matplotlib v3.7.5, https://matplotlib.org/</dc:title>
     </cc:Agent>
    </dc:creator>
   </cc:Work>
  </rdf:RDF>
 </metadata>
 <defs>
  <style type="text/css">*{stroke-linejoin: round; stroke-linecap: butt}</style>
 </defs>
 <g id="figure_1">
  <g id="patch_1">
   <path d="M 0 432 
L 720 432 
L 720 0 
L 0 0 
z
" style="fill: #ffffff"/>
  </g>
  <g id="axes_1">
   <g id="matplotlib.axis_1"/>
   <g id="matplotlib.axis_2"/>
   <g id="patch_2">
    <path d="M 502.056 218.16 
C 502.056 200.721633 498.627782 183.452164 491.966783 167.336093 
C 485.305783 151.220023 475.541032 136.569533 463.229198 124.21982 
C 450.917365 111.870108 436.29694 102.060398 420.201407 95.349923 
C 404.105874 88.639448 386.847018 85.158197 369.408733 85.104628 
C 351.970449 85.051059 334.69053 88.426211 318.554074 95.037672 
C 302.417617 101.649133 287.7372 111.368834 275.349725 123.642673 
C 262.96225 135.916511 253.107674 150.506733 246.347787 166.581576 
C 239.587901 182.656418 236.053648 199.9045 235.946511 217.342537 
C 235.839374 234.780575 239.161428 252.07078 245.723289 268.22747 
C 252.285149 284.38416 261.959708 299.094366 274.195435 311.519486 
C 286.431163 323.944606 300.991044 333.843956 317.045045 340.653191 
C 333.099046 347.462426 350.336189 351.049646 367.773816 351.21035 
C 385.211442 351.371054 402.511771 348.102129 418.688542 341.589931 
C 434.865313 335.077733 449.605168 325.448409 462.067817 313.250907 
C 474.530465 301.053406 484.474494 286.524004 491.333013 270.490995 
C 498.191532 254.457987 501.831686 237.231945 502.045955 219.794895 
L 369 218.16 
z
" style="fill: #f77189"/>
   </g>
   <g id="patch_3">
    <path d="M 502.045955 219.794895 
C 502.04927 219.525124 502.051765 219.255345 502.053439 218.985559 
C 502.055113 218.715774 502.055966 218.445984 502.055999 218.176194 
L 369 218.16 
z
" style="fill: #bb9832"/>
   </g>
   <g id="patch_4">
    <path d="M 502.055999 218.176194 
C 502.055999 218.173496 502.056 218.170798 502.056 218.1681 
C 502.056 218.165402 502.056 218.162704 502.056 218.160006 
L 369 218.16 
z
" style="fill: #50b131"/>
   </g>
   <g id="text_1">
    <text style="fill: #262626; font: 10px 'Arial', 'Liberation Sans', 'DejaVu Sans', 'Bitstream Vera Sans', sans-serif; text-anchor: end" x="222.641162" y="219.846729" transform="rotate(-0 222.641162 219.846729)">newsapi</text>
   </g>
   <g id="text_2">
    <text style="fill: #262626; font: 10px 'Arial', 'Liberation Sans', 'DejaVu Sans', 'Bitstream Vera Sans', sans-serif; text-anchor: middle" x="289.167907" y="220.25546" transform="rotate(-0 289.167907 220.25546)">99.8%</text>
   </g>
   <g id="text_3">
    <text style="fill: #262626; font: 10px 'Arial', 'Liberation Sans', 'DejaVu Sans', 'Bitstream Vera Sans', sans-serif; text-anchor: start" x="515.358783" y="221.654053" transform="rotate(-0 515.358783 221.654053)">chicago_pd</text>
   </g>
   <g id="text_4">
    <text style="fill: #262626; font: 10px 'Arial', 'Liberation Sans', 'DejaVu Sans', 'Bitstream Vera Sans', sans-serif; text-anchor: middle" x="448.832063" y="221.241273" transform="rotate(-0 448.832063 221.241273)">0.2%</text>
   </g>
   <g id="text_5">
    <text style="fill: #262626; font: 10px 'Arial', 'Liberation Sans', 'DejaVu Sans', 'Bitstream Vera Sans', sans-serif; text-anchor: start" x="515.3616" y="220.754847" transform="rotate(-0 515.3616 220.754847)">chicago_police</text>
   </g>
   <g id="text_6">
    <text style="fill: #262626; font: 10px 'Arial', 'Liberation Sans', 'DejaVu Sans', 'Bitstream Vera Sans', sans-serif; text-anchor: middle" x="448.8336" y="220.750797" transform="rotate(-0 448.8336 220.750797)">0.0%</text>
   </g>
   <g id="text_7">
    <text style="fill: #262626; font: 12px 'Arial', 'Liberation Sans', 'DejaVu Sans', 'Bitstream Vera Sans', sans-serif; text-anchor: middle" x="369" y="45.84" transform="rotate(-0 369 45.84)">Incidents by Source</text>
   </g>
  </g>
 </g>
</svg>
