<?xml version="1.0" encoding="utf-8" standalone="no"?>
<!DOCTYPE svg PUBLIC "-//W3C//DTD SVG 1.1//EN"
  "http://www.w3.org/Graphics/SVG/1.1/DTD/svg11.dtd">
<svg xmlns:xlink="http://www.w3.org/1999/xlink" width="720pt" height="432pt" viewBox="0 0 720 432" xmlns="http://www.w3.org/2000/svg" version="1.1">
 <metadata>
  <rdf:RDF xmlns:dc="http://purl.org/dc/elements/1.1/" xmlns:cc="http://creativecommons.org/ns#" xmlns:rdf="http://www.w3.org/1999/02/22-rdf-syntax-ns#">
   <cc:Work>
    <dc:type rdf:resource="http://purl.org/dc/dcmitype/StillImage"/>
    <dc:date>2025-07-21T18:22:30.470432</dc:date>
    <dc:format>image/svg+xml</dc:format>
    <dc:creator>
     <cc:Agent>
      <dc:title>Matplotlib v3.7.5, https://matplotlib.org/</dc:title>
     </cc:Agent>
    </dc:creator>
   </cc:Work>
  </rdf:RDF>
 </metadata>
 <defs>
  <style type="text/css">*{stroke-linejoin: round; stroke-linecap: butt}</style>
 </defs>
 <g id="figure_1">
  <g id="patch_1">
   <path d="M 0 432 
L 720 432 
L 720 0 
L 0 0 
z
" style="fill: #ffffff"/>
  </g>
  <g id="axes_1">
   <g id="matplotlib.axis_1"/>
   <g id="matplotlib.axis_2"/>
   <g id="patch_2">
    <path d="M 502.056 218.16 
C 502.056 200.725914 498.629465 183.460602 491.971642 167.347851 
C 485.313818 151.235101 475.55361 136.586876 463.247161 124.237842 
C 450.940711 111.888808 436.326289 102.078058 420.236633 95.364615 
C 404.146977 88.651172 386.893604 85.165017 369.459622 85.104794 
C 352.025641 85.04457 334.748595 88.411444 318.612942 95.013569 
C 302.477289 101.615693 287.795436 111.325243 275.403965 123.588961 
C 263.012494 135.852679 253.151319 150.433125 246.382337 166.499494 
C 239.613355 182.565864 236.067622 199.807091 235.947175 217.240761 
C 235.826729 234.67443 239.133902 251.963004 245.680249 268.121366 
C 252.226596 284.279729 261.885371 298.995034 274.106212 311.428795 
C 286.327052 323.862555 300.873347 333.774037 316.916238 340.598478 
C 332.959129 347.422918 350.188006 351.028188 367.621155 351.208855 
C 385.054305 351.389523 402.354199 348.142091 418.535078 341.651599 
C 434.715958 335.161108 449.46454 325.553222 461.940442 313.375405 
C 474.416343 301.197588 484.378014 286.685618 491.257832 270.666397 
C 498.137649 254.647176 501.802412 237.430856 502.043299 219.998434 
L 369 218.16 
z
" style="fill: #f77189"/>
   </g>
   <g id="patch_3">
    <path d="M 502.043299 219.998434 
C 502.04749 219.695084 502.050645 219.39172 502.052761 219.088348 
C 502.054878 218.784976 502.055957 218.481598 502.055999 218.178219 
L 369 218.16 
z
" style="fill: #bb9832"/>
   </g>
   <g id="patch_4">
    <path d="M 502.055999 218.178219 
C 502.055999 218.175185 502.055999 218.172151 502.056 218.169117 
C 502.056 218.166083 502.056 218.16305 502.056 218.160016 
L 369 218.16 
z
" style="fill: #50b131"/>
   </g>
   <g id="text_1">
    <text style="fill: #262626; font: 10px 'Arial', 'Liberation Sans', 'DejaVu Sans', 'Bitstream Vera Sans', sans-serif; text-anchor: end" x="222.641893" y="219.734774" transform="rotate(-0 222.641893 219.734774)">newsapi</text>
   </g>
   <g id="text_2">
    <text style="fill: #262626; font: 10px 'Arial', 'Liberation Sans', 'DejaVu Sans', 'Bitstream Vera Sans', sans-serif; text-anchor: middle" x="289.168305" y="220.194394" transform="rotate(-0 289.168305 220.194394)">99.8%</text>
   </g>
   <g id="text_3">
    <text style="fill: #262626; font: 10px 'Arial', 'Liberation Sans', 'DejaVu Sans', 'Bitstream Vera Sans', sans-serif; text-anchor: start" x="515.358037" y="221.767121" transform="rotate(-0 515.358037 221.767121)">chicago_pd</text>
   </g>
   <g id="text_4">
    <text style="fill: #262626; font: 10px 'Arial', 'Liberation Sans', 'DejaVu Sans', 'Bitstream Vera Sans', sans-serif; text-anchor: middle" x="448.831657" y="221.302946" transform="rotate(-0 448.831657 221.302946)">0.2%</text>
   </g>
   <g id="text_5">
    <text style="fill: #262626; font: 10px 'Arial', 'Liberation Sans', 'DejaVu Sans', 'Bitstream Vera Sans', sans-serif; text-anchor: start" x="515.3616" y="220.755967" transform="rotate(-0 515.3616 220.755967)">chicago_police</text>
   </g>
   <g id="text_6">
    <text style="fill: #262626; font: 10px 'Arial', 'Liberation Sans', 'DejaVu Sans', 'Bitstream Vera Sans', sans-serif; text-anchor: middle" x="448.8336" y="220.751408" transform="rotate(-0 448.8336 220.751408)">0.0%</text>
   </g>
   <g id="text_7">
    <text style="fill: #262626; font: 12px 'Arial', 'Liberation Sans', 'DejaVu Sans', 'Bitstream Vera Sans', sans-serif; text-anchor: middle" x="369" y="45.84" transform="rotate(-0 369 45.84)">Incidents by Source</text>
   </g>
  </g>
 </g>
</svg>
