<?xml version="1.0" encoding="utf-8" standalone="no"?>
<!DOCTYPE svg PUBLIC "-//W3C//DTD SVG 1.1//EN"
  "http://www.w3.org/Graphics/SVG/1.1/DTD/svg11.dtd">
<svg xmlns:xlink="http://www.w3.org/1999/xlink" width="720pt" height="432pt" viewBox="0 0 720 432" xmlns="http://www.w3.org/2000/svg" version="1.1">
 <metadata>
  <rdf:RDF xmlns:dc="http://purl.org/dc/elements/1.1/" xmlns:cc="http://creativecommons.org/ns#" xmlns:rdf="http://www.w3.org/1999/02/22-rdf-syntax-ns#">
   <cc:Work>
    <dc:type rdf:resource="http://purl.org/dc/dcmitype/StillImage"/>
    <dc:date>2026-05-20T20:07:19.807878</dc:date>
    <dc:format>image/svg+xml</dc:format>
    <dc:creator>
     <cc:Agent>
      <dc:title>Matplotlib v3.7.5, https://matplotlib.org/</dc:title>
     </cc:Agent>
    </dc:creator>
   </cc:Work>
  </rdf:RDF>
 </metadata>
 <defs>
  <style type="text/css">*{stroke-linejoin: round; stroke-linecap: butt}</style>
 </defs>
 <g id="figure_1">
  <g id="patch_1">
   <path d="M 0 432 
L 720 432 
L 720 0 
L 0 0 
z
" style="fill: #ffffff"/>
  </g>
  <g id="axes_1">
   <g id="matplotlib.axis_1"/>
   <g id="matplotlib.axis_2"/>
   <g id="patch_2">
    <path d="M 502.056 218.16 
C 502.056 200.703996 498.620844 183.417404 491.946754 167.287662 
C 485.272664 151.15792 475.489185 136.498108 463.155165 124.145618 
C 450.821145 111.793128 436.175989 101.987724 420.056251 95.289506 
C 403.936514 88.591288 386.655081 85.130269 369.199097 85.104149 
C 351.743113 85.078029 334.451401 88.487314 318.31169 95.137261 
C 302.171979 101.787208 287.497544 111.54874 275.126612 123.864263 
C 262.75568 136.179785 252.928372 150.810253 246.206041 166.91995 
C 239.48371 183.029646 235.996836 200.30588 235.944596 217.761806 
C 235.892356 235.217731 239.275763 252.514526 245.901552 268.664169 
C 252.52734 284.813813 262.266904 299.502838 274.563901 311.892185 
C 286.860899 324.281531 301.476646 334.13072 317.576265 340.877149 
C 333.675885 347.623578 350.946882 351.136299 368.40271 351.214659 
C 385.858537 351.29302 403.160376 347.935498 419.319916 341.333882 
C 435.479455 334.732266 450.183038 325.014694 462.590771 312.736248 
C 474.998504 300.457803 484.869552 285.856811 491.640064 269.767304 
C 498.410576 253.677797 501.949137 236.412076 502.053617 218.956385 
L 369 218.16 
z
" style="fill: #f77189"/>
   </g>
   <g id="patch_3">
    <path d="M 502.053617 218.956385 
C 502.054403 218.824967 502.054995 218.693547 502.055392 218.562128 
C 502.05579 218.430708 502.055992 218.299287 502.056 218.167867 
L 369 218.16 
z
" style="fill: #bb9832"/>
   </g>
   <g id="patch_4">
    <path d="M 502.056 218.167867 
C 502.056 218.166553 502.056 218.165238 502.056 218.163924 
C 502.056 218.16261 502.056 218.161296 502.056 218.159982 
L 369 218.16 
z
" style="fill: #50b131"/>
   </g>
   <g id="text_1">
    <text style="fill: #262626; font: 10px 'Arial', 'Liberation Sans', 'DejaVu Sans', 'Bitstream Vera Sans', sans-serif; text-anchor: end" x="222.639055" y="220.307924" transform="rotate(-0 222.639055 220.307924)">newsapi</text>
   </g>
   <g id="text_2">
    <text style="fill: #262626; font: 10px 'Arial', 'Liberation Sans', 'DejaVu Sans', 'Bitstream Vera Sans', sans-serif; text-anchor: middle" x="289.166758" y="220.507021" transform="rotate(-0 289.166758 220.507021)">99.9%</text>
   </g>
   <g id="text_3">
    <text style="fill: #262626; font: 10px 'Arial', 'Liberation Sans', 'DejaVu Sans', 'Bitstream Vera Sans', sans-serif; text-anchor: start" x="515.360932" y="221.188278" transform="rotate(-0 515.360932 221.188278)">chicago_pd</text>
   </g>
   <g id="text_4">
    <text style="fill: #262626; font: 10px 'Arial', 'Liberation Sans', 'DejaVu Sans', 'Bitstream Vera Sans', sans-serif; text-anchor: middle" x="448.833235" y="220.987214" transform="rotate(-0 448.833235 220.987214)">0.1%</text>
   </g>
   <g id="text_5">
    <text style="fill: #262626; font: 10px 'Arial', 'Liberation Sans', 'DejaVu Sans', 'Bitstream Vera Sans', sans-serif; text-anchor: start" x="515.3616" y="220.750254" transform="rotate(-0 515.3616 220.750254)">chicago_police</text>
   </g>
   <g id="text_6">
    <text style="fill: #262626; font: 10px 'Arial', 'Liberation Sans', 'DejaVu Sans', 'Bitstream Vera Sans', sans-serif; text-anchor: middle" x="448.8336" y="220.748292" transform="rotate(-0 448.8336 220.748292)">0.0%</text>
   </g>
   <g id="text_7">
    <text style="fill: #262626; font: 12px 'Arial', 'Liberation Sans', 'DejaVu Sans', 'Bitstream Vera Sans', sans-serif; text-anchor: middle" x="369" y="45.84" transform="rotate(-0 369 45.84)">Incidents by Source</text>
   </g>
  </g>
 </g>
</svg>
