<?xml version="1.0" encoding="utf-8" standalone="no"?>
<!DOCTYPE svg PUBLIC "-//W3C//DTD SVG 1.1//EN"
  "http://www.w3.org/Graphics/SVG/1.1/DTD/svg11.dtd">
<svg xmlns:xlink="http://www.w3.org/1999/xlink" width="720pt" height="432pt" viewBox="0 0 720 432" xmlns="http://www.w3.org/2000/svg" version="1.1">
 <metadata>
  <rdf:RDF xmlns:dc="http://purl.org/dc/elements/1.1/" xmlns:cc="http://creativecommons.org/ns#" xmlns:rdf="http://www.w3.org/1999/02/22-rdf-syntax-ns#">
   <cc:Work>
    <dc:type rdf:resource="http://purl.org/dc/dcmitype/StillImage"/>
    <dc:date>2026-06-21T09:43:06.447622</dc:date>
    <dc:format>image/svg+xml</dc:format>
    <dc:creator>
     <cc:Agent>
      <dc:title>Matplotlib v3.7.5, https://matplotlib.org/</dc:title>
     </cc:Agent>
    </dc:creator>
   </cc:Work>
  </rdf:RDF>
 </metadata>
 <defs>
  <style type="text/css">*{stroke-linejoin: round; stroke-linecap: butt}</style>
 </defs>
 <g id="figure_1">
  <g id="patch_1">
   <path d="M 0 432 
L 720 432 
L 720 0 
L 0 0 
z
" style="fill: #ffffff"/>
  </g>
  <g id="axes_1">
   <g id="matplotlib.axis_1"/>
   <g id="matplotlib.axis_2"/>
   <g id="patch_2">
    <path d="M 502.056 218.16 
C 502.056 200.702969 498.62044 183.41538 491.945587 167.284842 
C 485.270735 151.154304 475.486164 136.493949 463.150852 124.141299 
C 450.815539 111.788648 436.168942 101.983495 420.047796 95.285993 
C 403.926649 88.58849 386.643902 85.128651 369.186889 85.104131 
C 351.729875 85.079611 334.437478 88.490886 318.29758 95.143075 
C 302.157683 101.795265 287.483599 111.559233 275.113634 123.877183 
C 262.74367 136.195133 252.917955 150.827944 246.197815 166.939667 
C 239.477675 183.051391 235.993565 200.329261 235.944525 217.786223 
C 235.895485 235.243184 239.282468 252.540356 245.911981 268.689582 
C 252.541493 284.838807 262.284842 299.52659 274.585405 311.913844 
C 286.885968 324.301099 301.504963 334.147357 317.607231 340.89012 
C 333.7095 347.632884 350.982459 351.141259 368.439335 351.214819 
C 385.89621 351.288378 403.198123 347.925694 419.356644 341.318871 
C 435.515165 334.712048 450.216619 324.98934 462.621138 312.706188 
C 475.025657 300.423036 484.89244 285.817885 491.657814 269.725103 
C 498.423188 253.632321 501.955821 236.364307 502.0539 218.907552 
L 369 218.16 
z
" style="fill: #f77189"/>
   </g>
   <g id="patch_3">
    <path d="M 502.0539 218.907552 
C 502.054593 218.784194 502.055115 218.660836 502.055465 218.537476 
C 502.055815 218.414117 502.055993 218.290758 502.056 218.167398 
L 369 218.16 
z
" style="fill: #bb9832"/>
   </g>
   <g id="patch_4">
    <path d="M 502.056 218.167398 
C 502.056 218.166164 502.056 218.164931 502.056 218.163697 
C 502.056 218.162464 502.056 218.16123 502.056 218.159996 
L 369 218.16 
z
" style="fill: #50b131"/>
   </g>
   <g id="text_1">
    <text style="fill: #262626; font: 10px 'Arial', 'Liberation Sans', 'DejaVu Sans', 'Bitstream Vera Sans', sans-serif; text-anchor: end" x="222.638978" y="220.334782" transform="rotate(-0 222.638978 220.334782)">newsapi</text>
   </g>
   <g id="text_2">
    <text style="fill: #262626; font: 10px 'Arial', 'Liberation Sans', 'DejaVu Sans', 'Bitstream Vera Sans', sans-serif; text-anchor: middle" x="289.166715" y="220.521671" transform="rotate(-0 289.166715 220.521671)">99.9%</text>
   </g>
   <g id="text_3">
    <text style="fill: #262626; font: 10px 'Arial', 'Liberation Sans', 'DejaVu Sans', 'Bitstream Vera Sans', sans-serif; text-anchor: start" x="515.361011" y="221.161162" transform="rotate(-0 515.361011 221.161162)">chicago_pd</text>
   </g>
   <g id="text_4">
    <text style="fill: #262626; font: 10px 'Arial', 'Liberation Sans', 'DejaVu Sans', 'Bitstream Vera Sans', sans-serif; text-anchor: middle" x="448.833279" y="220.972423" transform="rotate(-0 448.833279 220.972423)">0.1%</text>
   </g>
   <g id="text_5">
    <text style="fill: #262626; font: 10px 'Arial', 'Liberation Sans', 'DejaVu Sans', 'Bitstream Vera Sans', sans-serif; text-anchor: start" x="515.3616" y="220.750005" transform="rotate(-0 515.3616 220.750005)">chicago_police</text>
   </g>
   <g id="text_6">
    <text style="fill: #262626; font: 10px 'Arial', 'Liberation Sans', 'DejaVu Sans', 'Bitstream Vera Sans', sans-serif; text-anchor: middle" x="448.8336" y="220.748156" transform="rotate(-0 448.8336 220.748156)">0.0%</text>
   </g>
   <g id="text_7">
    <text style="fill: #262626; font: 12px 'Arial', 'Liberation Sans', 'DejaVu Sans', 'Bitstream Vera Sans', sans-serif; text-anchor: middle" x="369" y="45.84" transform="rotate(-0 369 45.84)">Incidents by Source</text>
   </g>
  </g>
 </g>
</svg>
