<?xml version="1.0" encoding="utf-8" standalone="no"?>
<!DOCTYPE svg PUBLIC "-//W3C//DTD SVG 1.1//EN"
  "http://www.w3.org/Graphics/SVG/1.1/DTD/svg11.dtd">
<svg xmlns:xlink="http://www.w3.org/1999/xlink" width="720pt" height="432pt" viewBox="0 0 720 432" xmlns="http://www.w3.org/2000/svg" version="1.1">
 <metadata>
  <rdf:RDF xmlns:dc="http://purl.org/dc/elements/1.1/" xmlns:cc="http://creativecommons.org/ns#" xmlns:rdf="http://www.w3.org/1999/02/22-rdf-syntax-ns#">
   <cc:Work>
    <dc:type rdf:resource="http://purl.org/dc/dcmitype/StillImage"/>
    <dc:date>2025-11-21T01:07:50.703840</dc:date>
    <dc:format>image/svg+xml</dc:format>
    <dc:creator>
     <cc:Agent>
      <dc:title>Matplotlib v3.7.5, https://matplotlib.org/</dc:title>
     </cc:Agent>
    </dc:creator>
   </cc:Work>
  </rdf:RDF>
 </metadata>
 <defs>
  <style type="text/css">*{stroke-linejoin: round; stroke-linecap: butt}</style>
 </defs>
 <g id="figure_1">
  <g id="patch_1">
   <path d="M 0 432 
L 720 432 
L 720 0 
L 0 0 
z
" style="fill: #ffffff"/>
  </g>
  <g id="axes_1">
   <g id="matplotlib.axis_1"/>
   <g id="matplotlib.axis_2"/>
   <g id="patch_2">
    <path d="M 502.056 218.16 
C 502.056 200.711991 498.62399 183.433161 491.955835 167.309615 
C 485.287681 151.186069 475.512693 136.53048 463.188731 124.179246 
C 450.864769 111.828012 436.230824 102.020651 420.122058 95.316871 
C 404.013292 88.613091 386.74209 85.142894 369.294124 85.104325 
C 351.846157 85.065756 334.559783 88.459562 318.421536 95.092059 
C 302.283289 101.724556 287.606129 111.467124 275.227682 123.763752 
C 262.849236 136.060381 253.00955 150.672611 246.270178 166.766519 
C 239.530806 182.860427 236.022439 200.123916 235.9453 217.571754 
C 235.868162 235.019592 239.223748 252.313427 245.820555 268.466295 
C 252.417361 284.619164 262.127461 299.317825 274.396697 311.723423 
C 286.665933 324.129021 301.256376 334.000984 317.335347 340.775916 
C 333.414318 347.550847 350.670009 351.097367 368.117635 351.213074 
C 385.56526 351.328781 402.86647 348.011432 419.033881 341.450348 
C 435.201293 334.889264 449.921382 325.211679 462.354072 312.969896 
C 474.786761 300.728113 484.690952 286.159528 491.50141 270.095572 
C 498.311868 254.031617 501.896523 236.783807 502.050799 219.336481 
L 369 218.16 
z
" style="fill: #f77189"/>
   </g>
   <g id="patch_3">
    <path d="M 502.050799 219.336481 
C 502.052515 219.142349 502.053807 218.948213 502.054674 218.754075 
C 502.055541 218.559937 502.055982 218.365798 502.055999 218.171658 
L 369 218.16 
z
" style="fill: #bb9832"/>
   </g>
   <g id="patch_4">
    <path d="M 502.055999 218.171658 
C 502.056 218.169717 502.056 218.167776 502.056 218.165834 
C 502.056 218.163893 502.056 218.161951 502.056 218.16001 
L 369 218.16 
z
" style="fill: #50b131"/>
   </g>
   <g id="text_1">
    <text style="fill: #262626; font: 10px 'Arial', 'Liberation Sans', 'DejaVu Sans', 'Bitstream Vera Sans', sans-serif; text-anchor: end" x="222.63983" y="220.098867" transform="rotate(-0 222.63983 220.098867)">newsapi</text>
   </g>
   <g id="text_2">
    <text style="fill: #262626; font: 10px 'Arial', 'Liberation Sans', 'DejaVu Sans', 'Bitstream Vera Sans', sans-serif; text-anchor: middle" x="289.16718" y="220.39299" transform="rotate(-0 289.16718 220.39299)">99.9%</text>
   </g>
   <g id="text_3">
    <text style="fill: #262626; font: 10px 'Arial', 'Liberation Sans', 'DejaVu Sans', 'Bitstream Vera Sans', sans-serif; text-anchor: start" x="515.360141" y="221.39942" transform="rotate(-0 515.360141 221.39942)">chicago_pd</text>
   </g>
   <g id="text_4">
    <text style="fill: #262626; font: 10px 'Arial', 'Liberation Sans', 'DejaVu Sans', 'Bitstream Vera Sans', sans-serif; text-anchor: middle" x="448.832804" y="221.102383" transform="rotate(-0 448.832804 221.102383)">0.1%</text>
   </g>
   <g id="text_5">
    <text style="fill: #262626; font: 10px 'Arial', 'Liberation Sans', 'DejaVu Sans', 'Bitstream Vera Sans', sans-serif; text-anchor: start" x="515.3616" y="220.752355" transform="rotate(-0 515.3616 220.752355)">chicago_police</text>
   </g>
   <g id="text_6">
    <text style="fill: #262626; font: 10px 'Arial', 'Liberation Sans', 'DejaVu Sans', 'Bitstream Vera Sans', sans-serif; text-anchor: middle" x="448.8336" y="220.749438" transform="rotate(-0 448.8336 220.749438)">0.0%</text>
   </g>
   <g id="text_7">
    <text style="fill: #262626; font: 12px 'Arial', 'Liberation Sans', 'DejaVu Sans', 'Bitstream Vera Sans', sans-serif; text-anchor: middle" x="369" y="45.84" transform="rotate(-0 369 45.84)">Incidents by Source</text>
   </g>
  </g>
 </g>
</svg>
