<?xml version="1.0" encoding="utf-8" standalone="no"?>
<!DOCTYPE svg PUBLIC "-//W3C//DTD SVG 1.1//EN"
  "http://www.w3.org/Graphics/SVG/1.1/DTD/svg11.dtd">
<svg xmlns:xlink="http://www.w3.org/1999/xlink" width="720pt" height="432pt" viewBox="0 0 720 432" xmlns="http://www.w3.org/2000/svg" version="1.1">
 <metadata>
  <rdf:RDF xmlns:dc="http://purl.org/dc/elements/1.1/" xmlns:cc="http://creativecommons.org/ns#" xmlns:rdf="http://www.w3.org/1999/02/22-rdf-syntax-ns#">
   <cc:Work>
    <dc:type rdf:resource="http://purl.org/dc/dcmitype/StillImage"/>
    <dc:date>2026-03-14T12:37:54.131518</dc:date>
    <dc:format>image/svg+xml</dc:format>
    <dc:creator>
     <cc:Agent>
      <dc:title>Matplotlib v3.7.5, https://matplotlib.org/</dc:title>
     </cc:Agent>
    </dc:creator>
   </cc:Work>
  </rdf:RDF>
 </metadata>
 <defs>
  <style type="text/css">*{stroke-linejoin: round; stroke-linecap: butt}</style>
 </defs>
 <g id="figure_1">
  <g id="patch_1">
   <path d="M 0 432 
L 720 432 
L 720 0 
L 0 0 
z
" style="fill: #ffffff"/>
  </g>
  <g id="axes_1">
   <g id="matplotlib.axis_1"/>
   <g id="matplotlib.axis_2"/>
   <g id="patch_2">
    <path d="M 502.056 218.16 
C 502.056 200.706135 498.621686 183.421618 491.949183 167.293533 
C 485.276681 151.165448 475.495473 136.506765 463.164143 124.15461 
C 450.832813 111.802456 436.190655 101.996527 420.073852 95.296821 
C 403.957048 88.597114 386.678351 85.13364 369.224511 85.104189 
C 351.77067 85.074739 334.480384 88.479883 318.341063 95.125163 
C 302.201742 101.770442 287.526575 111.526902 275.153631 123.837372 
C 262.780687 136.147842 252.950066 150.773433 246.223175 166.878909 
C 239.496283 182.984385 236.003659 200.257213 235.944758 217.710979 
C 235.885857 235.164745 239.261822 252.460753 245.879859 268.611264 
C 252.497896 284.761775 262.22958 299.453382 274.519155 311.847081 
C 286.808731 324.24078 301.417713 334.096065 317.511816 340.850122 
C 333.605918 347.604179 350.872828 351.125944 368.32647 351.214295 
C 385.780112 351.302647 403.081791 347.955871 419.243446 341.365094 
C 435.405101 334.774318 450.113109 325.067437 462.527526 312.798792 
C 474.941944 300.530147 484.821865 285.937814 491.603069 269.855131 
C 498.384273 253.772448 501.935168 236.511505 502.052969 219.058037 
L 369 218.16 
z
" style="fill: #f77189"/>
   </g>
   <g id="patch_3">
    <path d="M 502.052969 219.058037 
C 502.05397 218.909851 502.054722 218.761664 502.055227 218.613477 
C 502.055732 218.465289 502.05599 218.3171 502.056 218.168911 
L 369 218.16 
z
" style="fill: #bb9832"/>
   </g>
   <g id="patch_4">
    <path d="M 502.056 218.168911 
C 502.056 218.167429 502.056 218.165948 502.056 218.164466 
C 502.056 218.162984 502.056 218.161502 502.056 218.16002 
L 369 218.16 
z
" style="fill: #50b131"/>
   </g>
   <g id="text_1">
    <text style="fill: #262626; font: 10px 'Arial', 'Liberation Sans', 'DejaVu Sans', 'Bitstream Vera Sans', sans-serif; text-anchor: end" x="222.639233" y="220.252014" transform="rotate(-0 222.639233 220.252014)">newsapi</text>
   </g>
   <g id="text_2">
    <text style="fill: #262626; font: 10px 'Arial', 'Liberation Sans', 'DejaVu Sans', 'Bitstream Vera Sans', sans-serif; text-anchor: middle" x="289.166855" y="220.476525" transform="rotate(-0 289.166855 220.476525)">99.9%</text>
   </g>
   <g id="text_3">
    <text style="fill: #262626; font: 10px 'Arial', 'Liberation Sans', 'DejaVu Sans', 'Bitstream Vera Sans', sans-serif; text-anchor: start" x="515.36075" y="221.244762" transform="rotate(-0 515.36075 221.244762)">chicago_pd</text>
   </g>
   <g id="text_4">
    <text style="fill: #262626; font: 10px 'Arial', 'Liberation Sans', 'DejaVu Sans', 'Bitstream Vera Sans', sans-serif; text-anchor: middle" x="448.833136" y="221.018023" transform="rotate(-0 448.833136 221.018023)">0.1%</text>
   </g>
   <g id="text_5">
    <text style="fill: #262626; font: 10px 'Arial', 'Liberation Sans', 'DejaVu Sans', 'Bitstream Vera Sans', sans-serif; text-anchor: start" x="515.3616" y="220.75085" transform="rotate(-0 515.3616 220.75085)">chicago_police</text>
   </g>
   <g id="text_6">
    <text style="fill: #262626; font: 10px 'Arial', 'Liberation Sans', 'DejaVu Sans', 'Bitstream Vera Sans', sans-serif; text-anchor: middle" x="448.8336" y="220.748617" transform="rotate(-0 448.8336 220.748617)">0.0%</text>
   </g>
   <g id="text_7">
    <text style="fill: #262626; font: 12px 'Arial', 'Liberation Sans', 'DejaVu Sans', 'Bitstream Vera Sans', sans-serif; text-anchor: middle" x="369" y="45.84" transform="rotate(-0 369 45.84)">Incidents by Source</text>
   </g>
  </g>
 </g>
</svg>
