<?xml version="1.0" encoding="utf-8" standalone="no"?>
<!DOCTYPE svg PUBLIC "-//W3C//DTD SVG 1.1//EN"
  "http://www.w3.org/Graphics/SVG/1.1/DTD/svg11.dtd">
<svg xmlns:xlink="http://www.w3.org/1999/xlink" width="720pt" height="432pt" viewBox="0 0 720 432" xmlns="http://www.w3.org/2000/svg" version="1.1">
 <metadata>
  <rdf:RDF xmlns:dc="http://purl.org/dc/elements/1.1/" xmlns:cc="http://creativecommons.org/ns#" xmlns:rdf="http://www.w3.org/1999/02/22-rdf-syntax-ns#">
   <cc:Work>
    <dc:type rdf:resource="http://purl.org/dc/dcmitype/StillImage"/>
    <dc:date>2025-04-24T06:20:20.741012</dc:date>
    <dc:format>image/svg+xml</dc:format>
    <dc:creator>
     <cc:Agent>
      <dc:title>Matplotlib v3.7.5, https://matplotlib.org/</dc:title>
     </cc:Agent>
    </dc:creator>
   </cc:Work>
  </rdf:RDF>
 </metadata>
 <defs>
  <style type="text/css">*{stroke-linejoin: round; stroke-linecap: butt}</style>
 </defs>
 <g id="figure_1">
  <g id="patch_1">
   <path d="M 0 432 
L 720 432 
L 720 0 
L 0 0 
z
" style="fill: #ffffff"/>
  </g>
  <g id="axes_1">
   <g id="matplotlib.axis_1"/>
   <g id="matplotlib.axis_2"/>
   <g id="patch_2">
    <path d="M 502.056 218.16 
C 502.056 200.750398 498.639083 183.508859 491.999409 167.415103 
C 485.359735 151.321348 475.625496 136.686096 463.349823 124.340972 
C 451.07415 111.995848 436.494048 102.179196 420.438007 95.448833 
C 404.381967 88.71847 387.159978 85.204336 369.750654 85.106117 
C 352.341329 85.007899 335.080787 88.327491 318.949829 94.876264 
C 302.818871 101.425037 288.128935 111.076555 275.714752 123.282386 
C 263.30057 135.488216 253.401819 150.012704 246.58098 166.030519 
C 239.760142 182.048334 236.148904 199.250223 235.95247 216.658716 
C 235.756036 234.06721 238.978197 251.346206 245.435861 267.513853 
C 251.893525 283.6815 261.462014 298.425652 273.597614 310.908498 
C 285.733214 323.391344 300.201626 333.371879 316.180705 340.282976 
C 332.159784 347.194073 349.341026 350.9023 366.748134 351.196943 
C 384.155243 351.491587 401.452142 348.366958 417.655963 342.000609 
C 433.859785 335.63426 448.657685 326.149104 461.208796 314.084121 
C 473.759908 302.019138 483.82191 287.607263 490.823045 271.667428 
C 497.82418 255.727593 501.629278 238.567545 502.022122 221.162376 
L 369 218.16 
z
" style="fill: #f77189"/>
   </g>
   <g id="patch_3">
    <path d="M 502.022122 221.162376 
C 502.033302 220.667014 502.041716 220.171593 502.047362 219.676137 
C 502.053008 219.180681 502.055886 218.685197 502.055997 218.189708 
L 369 218.16 
z
" style="fill: #bb9832"/>
   </g>
   <g id="patch_4">
    <path d="M 502.055997 218.189708 
C 502.055998 218.184754 502.055999 218.179799 502.055999 218.174844 
C 502.056 218.169889 502.056 218.164934 502.056 218.159979 
L 369 218.16 
z
" style="fill: #50b131"/>
   </g>
   <g id="text_1">
    <text style="fill: #262626; font: 10px 'Arial', 'Liberation Sans', 'DejaVu Sans', 'Bitstream Vera Sans', sans-serif; text-anchor: end" x="222.647717" y="219.094526" transform="rotate(-0 222.647717 219.094526)">newsapi</text>
   </g>
   <g id="text_2">
    <text style="fill: #262626; font: 10px 'Arial', 'Liberation Sans', 'DejaVu Sans', 'Bitstream Vera Sans', sans-serif; text-anchor: middle" x="289.171482" y="219.845167" transform="rotate(-0 289.171482 219.845167)">99.6%</text>
   </g>
   <g id="text_3">
    <text style="fill: #262626; font: 10px 'Arial', 'Liberation Sans', 'DejaVu Sans', 'Bitstream Vera Sans', sans-serif; text-anchor: start" x="515.352098" y="222.413688" transform="rotate(-0 515.352098 222.413688)">chicago_pd</text>
   </g>
   <g id="text_4">
    <text style="fill: #262626; font: 10px 'Arial', 'Liberation Sans', 'DejaVu Sans', 'Bitstream Vera Sans', sans-serif; text-anchor: middle" x="448.828417" y="221.65562" transform="rotate(-0 448.828417 221.65562)">0.4%</text>
   </g>
   <g id="text_5">
    <text style="fill: #262626; font: 10px 'Arial', 'Liberation Sans', 'DejaVu Sans', 'Bitstream Vera Sans', sans-serif; text-anchor: start" x="515.361599" y="220.762266" transform="rotate(-0 515.361599 220.762266)">chicago_police</text>
   </g>
   <g id="text_6">
    <text style="fill: #262626; font: 10px 'Arial', 'Liberation Sans', 'DejaVu Sans', 'Bitstream Vera Sans', sans-serif; text-anchor: middle" x="448.8336" y="220.754844" transform="rotate(-0 448.8336 220.754844)">0.0%</text>
   </g>
   <g id="text_7">
    <text style="fill: #262626; font: 12px 'Arial', 'Liberation Sans', 'DejaVu Sans', 'Bitstream Vera Sans', sans-serif; text-anchor: middle" x="369" y="45.84" transform="rotate(-0 369 45.84)">Incidents by Source</text>
   </g>
  </g>
 </g>
</svg>
