<?xml version="1.0" encoding="utf-8" standalone="no"?>
<!DOCTYPE svg PUBLIC "-//W3C//DTD SVG 1.1//EN"
  "http://www.w3.org/Graphics/SVG/1.1/DTD/svg11.dtd">
<svg xmlns:xlink="http://www.w3.org/1999/xlink" width="720pt" height="432pt" viewBox="0 0 720 432" xmlns="http://www.w3.org/2000/svg" version="1.1">
 <metadata>
  <rdf:RDF xmlns:dc="http://purl.org/dc/elements/1.1/" xmlns:cc="http://creativecommons.org/ns#" xmlns:rdf="http://www.w3.org/1999/02/22-rdf-syntax-ns#">
   <cc:Work>
    <dc:type rdf:resource="http://purl.org/dc/dcmitype/StillImage"/>
    <dc:date>2024-12-10T18:18:44.965525</dc:date>
    <dc:format>image/svg+xml</dc:format>
    <dc:creator>
     <cc:Agent>
      <dc:title>Matplotlib v3.7.5, https://matplotlib.org/</dc:title>
     </cc:Agent>
    </dc:creator>
   </cc:Work>
  </rdf:RDF>
 </metadata>
 <defs>
  <style type="text/css">*{stroke-linejoin: round; stroke-linecap: butt}</style>
 </defs>
 <g id="figure_1">
  <g id="patch_1">
   <path d="M 0 432 
L 720 432 
L 720 0 
L 0 0 
z
" style="fill: #ffffff"/>
  </g>
  <g id="axes_1">
   <g id="matplotlib.axis_1"/>
   <g id="matplotlib.axis_2"/>
   <g id="patch_2">
    <path d="M 502.056 218.16 
C 502.056 203.196002 499.531635 188.338657 494.58934 174.214389 
C 489.647045 160.090121 482.357269 146.900265 473.027369 135.20094 
C 463.697469 123.501616 452.460438 113.459591 439.790059 105.498264 
C 427.11968 97.536938 413.196563 91.769794 398.607744 88.439991 
C 384.018924 85.110189 368.97236 84.265192 354.102452 85.940628 
C 339.232545 87.616065 324.751259 91.788052 311.269163 98.280687 
C 297.787067 104.773323 285.496342 113.494058 274.915198 124.075202 
C 264.334054 134.656347 255.61332 146.947072 249.120685 160.429168 
C 242.62805 173.911265 238.456063 188.392551 236.780628 203.262459 
C 235.105192 218.132366 235.950189 233.178931 239.279993 247.76775 
C 242.609796 262.356569 248.37694 276.279685 256.338268 288.950064 
C 264.299595 301.620443 274.34162 312.857473 286.040945 322.187373 
C 297.74027 331.517273 310.930126 338.807048 325.054395 343.749342 
C 339.178663 348.691637 354.036008 351.216001 369.000006 351.216 
C 383.964004 351.215999 398.821349 348.691634 412.945617 343.749338 
C 427.069885 338.807042 440.259741 331.517266 451.959065 322.187365 
L 369 218.16 
z
" style="fill: #f77189"/>
   </g>
   <g id="patch_3">
    <path d="M 451.959065 322.187365 
C 467.586532 309.724875 480.206729 293.899646 488.879318 275.890826 
C 497.551907 257.882006 502.056002 238.148269 502.056 218.159988 
L 369 218.16 
z
" style="fill: #bb9832"/>
   </g>
   <g id="text_1">
    <text style="fill: #262626; font: 10px 'Arial', 'Liberation Sans', 'DejaVu Sans', 'Bitstream Vera Sans', sans-serif; text-anchor: end" x="237.132753" y="157.242023" transform="rotate(-0 237.132753 157.242023)">newsapi</text>
   </g>
   <g id="text_2">
    <text style="fill: #262626; font: 10px 'Arial', 'Liberation Sans', 'DejaVu Sans', 'Bitstream Vera Sans', sans-serif; text-anchor: middle" x="297.072411" y="186.107439" transform="rotate(-0 297.072411 186.107439)">85.7%</text>
   </g>
   <g id="text_3">
    <text style="fill: #262626; font: 10px 'Arial', 'Liberation Sans', 'DejaVu Sans', 'Bitstream Vera Sans', sans-serif; text-anchor: start" x="500.86725" y="284.249846" transform="rotate(-0 500.86725 284.249846)">chicago_pd</text>
   </g>
   <g id="text_4">
    <text style="fill: #262626; font: 10px 'Arial', 'Liberation Sans', 'DejaVu Sans', 'Bitstream Vera Sans', sans-serif; text-anchor: middle" x="440.927591" y="255.384433" transform="rotate(-0 440.927591 255.384433)">14.3%</text>
   </g>
   <g id="text_5">
    <text style="fill: #262626; font: 12px 'Arial', 'Liberation Sans', 'DejaVu Sans', 'Bitstream Vera Sans', sans-serif; text-anchor: middle" x="369" y="45.84" transform="rotate(-0 369 45.84)">Incidents by Source</text>
   </g>
  </g>
 </g>
</svg>
