<?xml version="1.0" encoding="utf-8" standalone="no"?>
<!DOCTYPE svg PUBLIC "-//W3C//DTD SVG 1.1//EN"
  "http://www.w3.org/Graphics/SVG/1.1/DTD/svg11.dtd">
<svg xmlns:xlink="http://www.w3.org/1999/xlink" width="720pt" height="432pt" viewBox="0 0 720 432" xmlns="http://www.w3.org/2000/svg" version="1.1">
 <metadata>
  <rdf:RDF xmlns:dc="http://purl.org/dc/elements/1.1/" xmlns:cc="http://creativecommons.org/ns#" xmlns:rdf="http://www.w3.org/1999/02/22-rdf-syntax-ns#">
   <cc:Work>
    <dc:type rdf:resource="http://purl.org/dc/dcmitype/StillImage"/>
    <dc:date>2025-11-19T18:22:22.127238</dc:date>
    <dc:format>image/svg+xml</dc:format>
    <dc:creator>
     <cc:Agent>
      <dc:title>Matplotlib v3.7.5, https://matplotlib.org/</dc:title>
     </cc:Agent>
    </dc:creator>
   </cc:Work>
  </rdf:RDF>
 </metadata>
 <defs>
  <style type="text/css">*{stroke-linejoin: round; stroke-linecap: butt}</style>
 </defs>
 <g id="figure_1">
  <g id="patch_1">
   <path d="M 0 432 
L 720 432 
L 720 0 
L 0 0 
z
" style="fill: #ffffff"/>
  </g>
  <g id="axes_1">
   <g id="matplotlib.axis_1"/>
   <g id="matplotlib.axis_2"/>
   <g id="patch_2">
    <path d="M 502.056 218.16 
C 502.056 200.712076 498.624023 183.433328 491.955932 167.309848 
C 485.28784 151.186368 475.512942 136.530824 463.189087 124.179603 
C 450.865232 111.828382 436.231407 102.021001 420.122757 95.317162 
C 404.014107 88.613323 386.743014 85.143029 369.295133 85.104327 
C 351.847252 85.065626 334.560934 88.459268 318.422703 95.091579 
C 302.284472 101.723891 287.607282 111.466257 275.228756 123.762686 
C 262.85023 136.059114 253.010413 150.67115 246.27086 166.76489 
C 239.531307 182.85863 236.022712 200.121983 235.945309 217.569736 
C 235.867907 235.017488 239.223197 252.311291 245.819696 268.464194 
C 252.416195 284.617096 262.125982 299.315859 274.394923 311.72163 
C 286.663864 324.1274 301.254038 333.999604 317.33279 340.774838 
C 333.411542 347.550072 350.66707 351.096951 368.114607 351.213054 
C 385.562145 351.329158 402.863348 348.012235 419.030842 341.451581 
C 435.198337 334.890927 449.918601 325.213768 462.351555 312.972374 
C 474.784509 300.730981 484.689051 286.16274 491.499933 270.099056 
C 498.310815 254.035372 501.895959 236.787754 502.050763 219.340517 
L 369 218.16 
z
" style="fill: #f77189"/>
   </g>
   <g id="patch_3">
    <path d="M 502.050763 219.340517 
C 502.052491 219.145717 502.053792 218.950914 502.054665 218.756108 
C 502.055537 218.561303 502.055982 218.366496 502.055999 218.171688 
L 369 218.16 
z
" style="fill: #bb9832"/>
   </g>
   <g id="patch_4">
    <path d="M 502.055999 218.171688 
C 502.056 218.16974 502.056 218.167792 502.056 218.165844 
C 502.056 218.163896 502.056 218.161948 502.056 218.16 
L 369 218.16 
z
" style="fill: #50b131"/>
   </g>
   <g id="text_1">
    <text style="fill: #262626; font: 10px 'Arial', 'Liberation Sans', 'DejaVu Sans', 'Bitstream Vera Sans', sans-serif; text-anchor: end" x="222.63984" y="220.096647" transform="rotate(-0 222.63984 220.096647)">newsapi</text>
   </g>
   <g id="text_2">
    <text style="fill: #262626; font: 10px 'Arial', 'Liberation Sans', 'DejaVu Sans', 'Bitstream Vera Sans', sans-serif; text-anchor: middle" x="289.167186" y="220.391779" transform="rotate(-0 289.167186 220.391779)">99.9%</text>
   </g>
   <g id="text_3">
    <text style="fill: #262626; font: 10px 'Arial', 'Liberation Sans', 'DejaVu Sans', 'Bitstream Vera Sans', sans-serif; text-anchor: start" x="515.360131" y="221.401657" transform="rotate(-0 515.360131 221.401657)">chicago_pd</text>
   </g>
   <g id="text_4">
    <text style="fill: #262626; font: 10px 'Arial', 'Liberation Sans', 'DejaVu Sans', 'Bitstream Vera Sans', sans-serif; text-anchor: middle" x="448.832799" y="221.103602" transform="rotate(-0 448.832799 221.103602)">0.1%</text>
   </g>
   <g id="text_5">
    <text style="fill: #262626; font: 10px 'Arial', 'Liberation Sans', 'DejaVu Sans', 'Bitstream Vera Sans', sans-serif; text-anchor: start" x="515.3616" y="220.752366" transform="rotate(-0 515.3616 220.752366)">chicago_police</text>
   </g>
   <g id="text_6">
    <text style="fill: #262626; font: 10px 'Arial', 'Liberation Sans', 'DejaVu Sans', 'Bitstream Vera Sans', sans-serif; text-anchor: middle" x="448.8336" y="220.749444" transform="rotate(-0 448.8336 220.749444)">0.0%</text>
   </g>
   <g id="text_7">
    <text style="fill: #262626; font: 12px 'Arial', 'Liberation Sans', 'DejaVu Sans', 'Bitstream Vera Sans', sans-serif; text-anchor: middle" x="369" y="45.84" transform="rotate(-0 369 45.84)">Incidents by Source</text>
   </g>
  </g>
 </g>
</svg>
