<?xml version="1.0" encoding="utf-8" standalone="no"?>
<!DOCTYPE svg PUBLIC "-//W3C//DTD SVG 1.1//EN"
  "http://www.w3.org/Graphics/SVG/1.1/DTD/svg11.dtd">
<svg xmlns:xlink="http://www.w3.org/1999/xlink" width="720pt" height="432pt" viewBox="0 0 720 432" xmlns="http://www.w3.org/2000/svg" version="1.1">
 <metadata>
  <rdf:RDF xmlns:dc="http://purl.org/dc/elements/1.1/" xmlns:cc="http://creativecommons.org/ns#" xmlns:rdf="http://www.w3.org/1999/02/22-rdf-syntax-ns#">
   <cc:Work>
    <dc:type rdf:resource="http://purl.org/dc/dcmitype/StillImage"/>
    <dc:date>2025-12-09T01:10:48.136514</dc:date>
    <dc:format>image/svg+xml</dc:format>
    <dc:creator>
     <cc:Agent>
      <dc:title>Matplotlib v3.7.5, https://matplotlib.org/</dc:title>
     </cc:Agent>
    </dc:creator>
   </cc:Work>
  </rdf:RDF>
 </metadata>
 <defs>
  <style type="text/css">*{stroke-linejoin: round; stroke-linecap: butt}</style>
 </defs>
 <g id="figure_1">
  <g id="patch_1">
   <path d="M 0 432 
L 720 432 
L 720 0 
L 0 0 
z
" style="fill: #ffffff"/>
  </g>
  <g id="axes_1">
   <g id="matplotlib.axis_1"/>
   <g id="matplotlib.axis_2"/>
   <g id="patch_2">
    <path d="M 502.056 218.16 
C 502.056 200.710935 498.623574 183.431079 491.954636 167.306714 
C 485.285697 151.182349 475.509587 136.526202 463.184296 124.174802 
C 450.859005 111.823401 436.223579 102.016298 420.113363 95.313253 
C 404.003147 88.610207 386.730593 85.141223 369.281567 85.104298 
C 351.83254 85.067373 334.545459 88.463224 318.407018 95.098026 
C 302.268577 101.732829 287.591775 111.477902 275.21432 123.777028 
C 262.836865 136.076154 252.998814 150.690794 246.261692 166.786789 
C 239.524569 182.882785 236.019041 200.147959 235.945192 217.596868 
C 235.871342 235.045777 239.230604 252.340006 245.83124 268.492451 
C 252.431876 284.644896 262.145869 299.342287 274.418775 311.745741 
C 286.69168 324.149195 301.285469 334.018152 317.367172 340.78932 
C 333.448874 347.560489 350.706592 351.102545 368.155306 351.213319 
C 385.604019 351.324093 402.905318 348.001436 419.071695 341.434996 
C 435.238072 334.868555 449.955986 325.185685 462.385384 312.939055 
C 474.814781 300.692425 484.714598 286.119553 491.519783 270.052215 
C 498.324967 253.984877 501.903536 236.734694 502.051233 219.286253 
L 369 218.16 
z
" style="fill: #f77189"/>
   </g>
   <g id="patch_3">
    <path d="M 502.051233 219.286253 
C 502.052807 219.100404 502.05399 218.914552 502.054785 218.728698 
C 502.055579 218.542845 502.055984 218.356989 502.056 218.171133 
L 369 218.16 
z
" style="fill: #bb9832"/>
   </g>
   <g id="patch_4">
    <path d="M 502.056 218.171133 
C 502.056 218.169275 502.056 218.167416 502.056 218.165558 
C 502.056 218.163699 502.056 218.161841 502.056 218.159982 
L 369 218.16 
z
" style="fill: #50b131"/>
   </g>
   <g id="text_1">
    <text style="fill: #262626; font: 10px 'Arial', 'Liberation Sans', 'DejaVu Sans', 'Bitstream Vera Sans', sans-serif; text-anchor: end" x="222.639711" y="220.126493" transform="rotate(-0 222.639711 220.126493)">newsapi</text>
   </g>
   <g id="text_2">
    <text style="fill: #262626; font: 10px 'Arial', 'Liberation Sans', 'DejaVu Sans', 'Bitstream Vera Sans', sans-serif; text-anchor: middle" x="289.167115" y="220.408058" transform="rotate(-0 289.167115 220.408058)">99.9%</text>
   </g>
   <g id="text_3">
    <text style="fill: #262626; font: 10px 'Arial', 'Liberation Sans', 'DejaVu Sans', 'Bitstream Vera Sans', sans-serif; text-anchor: start" x="515.360263" y="221.371506" transform="rotate(-0 515.360263 221.371506)">chicago_pd</text>
   </g>
   <g id="text_4">
    <text style="fill: #262626; font: 10px 'Arial', 'Liberation Sans', 'DejaVu Sans', 'Bitstream Vera Sans', sans-serif; text-anchor: middle" x="448.832871" y="221.087157" transform="rotate(-0 448.832871 221.087157)">0.1%</text>
   </g>
   <g id="text_5">
    <text style="fill: #262626; font: 10px 'Arial', 'Liberation Sans', 'DejaVu Sans', 'Bitstream Vera Sans', sans-serif; text-anchor: start" x="515.3616" y="220.752051" transform="rotate(-0 515.3616 220.752051)">chicago_police</text>
   </g>
   <g id="text_6">
    <text style="fill: #262626; font: 10px 'Arial', 'Liberation Sans', 'DejaVu Sans', 'Bitstream Vera Sans', sans-serif; text-anchor: middle" x="448.8336" y="220.749272" transform="rotate(-0 448.8336 220.749272)">0.0%</text>
   </g>
   <g id="text_7">
    <text style="fill: #262626; font: 12px 'Arial', 'Liberation Sans', 'DejaVu Sans', 'Bitstream Vera Sans', sans-serif; text-anchor: middle" x="369" y="45.84" transform="rotate(-0 369 45.84)">Incidents by Source</text>
   </g>
  </g>
 </g>
</svg>
