<?xml version="1.0" encoding="utf-8" standalone="no"?>
<!DOCTYPE svg PUBLIC "-//W3C//DTD SVG 1.1//EN"
  "http://www.w3.org/Graphics/SVG/1.1/DTD/svg11.dtd">
<svg xmlns:xlink="http://www.w3.org/1999/xlink" width="720pt" height="432pt" viewBox="0 0 720 432" xmlns="http://www.w3.org/2000/svg" version="1.1">
 <metadata>
  <rdf:RDF xmlns:dc="http://purl.org/dc/elements/1.1/" xmlns:cc="http://creativecommons.org/ns#" xmlns:rdf="http://www.w3.org/1999/02/22-rdf-syntax-ns#">
   <cc:Work>
    <dc:type rdf:resource="http://purl.org/dc/dcmitype/StillImage"/>
    <dc:date>2026-01-19T02:10:54.499065</dc:date>
    <dc:format>image/svg+xml</dc:format>
    <dc:creator>
     <cc:Agent>
      <dc:title>Matplotlib v3.7.5, https://matplotlib.org/</dc:title>
     </cc:Agent>
    </dc:creator>
   </cc:Work>
  </rdf:RDF>
 </metadata>
 <defs>
  <style type="text/css">*{stroke-linejoin: round; stroke-linecap: butt}</style>
 </defs>
 <g id="figure_1">
  <g id="patch_1">
   <path d="M 0 432 
L 720 432 
L 720 0 
L 0 0 
z
" style="fill: #ffffff"/>
  </g>
  <g id="axes_1">
   <g id="matplotlib.axis_1"/>
   <g id="matplotlib.axis_2"/>
   <g id="patch_2">
    <path d="M 502.056 218.16 
C 502.056 200.708542 498.622633 183.426363 491.951918 167.300143 
C 485.281203 151.173924 475.502552 136.516513 463.174251 124.164736 
C 450.84595 111.81296 436.207168 102.006442 420.093668 95.30506 
C 403.980169 88.603679 386.704552 85.13744 369.253126 85.104241 
C 351.801699 85.071041 334.51302 88.471524 318.374139 95.111549 
C 302.235259 101.751573 287.559271 111.502322 275.184064 123.807103 
C 262.808856 136.111883 252.974507 150.731983 246.242483 166.832705 
C 239.51046 182.933427 236.011362 200.202417 235.944963 217.653749 
C 235.878564 235.105081 239.246151 252.400198 245.855461 268.551682 
C 252.46477 284.703165 262.187582 299.397676 274.468798 311.79627 
C 286.750014 324.194864 301.351378 334.057008 317.439264 340.819649 
C 333.527149 347.582291 350.789452 351.114235 368.240626 351.213833 
C 385.6918 351.313432 402.993292 347.978753 419.15732 341.400182 
C 435.321348 334.82161 450.034329 325.126771 462.456264 312.869165 
C 474.878199 300.611558 484.768103 286.028982 491.561338 269.953991 
C 498.354573 253.878999 501.91935 236.623447 502.052148 219.172494 
L 369 218.16 
z
" style="fill: #f77189"/>
   </g>
   <g id="patch_3">
    <path d="M 502.052148 219.172494 
C 502.053419 219.00542 502.054376 218.838343 502.055018 218.671264 
C 502.05566 218.504186 502.055987 218.337107 502.056 218.170027 
L 369 218.16 
z
" style="fill: #bb9832"/>
   </g>
   <g id="patch_4">
    <path d="M 502.056 218.170027 
C 502.056 218.168357 502.056 218.166686 502.056 218.165015 
C 502.056 218.163344 502.056 218.161673 502.056 218.160003 
L 369 218.16 
z
" style="fill: #50b131"/>
   </g>
   <g id="text_1">
    <text style="fill: #262626; font: 10px 'Arial', 'Liberation Sans', 'DejaVu Sans', 'Bitstream Vera Sans', sans-serif; text-anchor: end" x="222.639459" y="220.189062" transform="rotate(-0 222.639459 220.189062)">newsapi</text>
   </g>
   <g id="text_2">
    <text style="fill: #262626; font: 10px 'Arial', 'Liberation Sans', 'DejaVu Sans', 'Bitstream Vera Sans', sans-serif; text-anchor: middle" x="289.166978" y="220.442187" transform="rotate(-0 289.166978 220.442187)">99.9%</text>
   </g>
   <g id="text_3">
    <text style="fill: #262626; font: 10px 'Arial', 'Liberation Sans', 'DejaVu Sans', 'Bitstream Vera Sans', sans-serif; text-anchor: start" x="515.36052" y="221.308328" transform="rotate(-0 515.36052 221.308328)">chicago_pd</text>
   </g>
   <g id="text_4">
    <text style="fill: #262626; font: 10px 'Arial', 'Liberation Sans', 'DejaVu Sans', 'Bitstream Vera Sans', sans-serif; text-anchor: middle" x="448.833011" y="221.052696" transform="rotate(-0 448.833011 221.052696)">0.1%</text>
   </g>
   <g id="text_5">
    <text style="fill: #262626; font: 10px 'Arial', 'Liberation Sans', 'DejaVu Sans', 'Bitstream Vera Sans', sans-serif; text-anchor: start" x="515.3616" y="220.751454" transform="rotate(-0 515.3616 220.751454)">chicago_police</text>
   </g>
   <g id="text_6">
    <text style="fill: #262626; font: 10px 'Arial', 'Liberation Sans', 'DejaVu Sans', 'Bitstream Vera Sans', sans-serif; text-anchor: middle" x="448.8336" y="220.748946" transform="rotate(-0 448.8336 220.748946)">0.0%</text>
   </g>
   <g id="text_7">
    <text style="fill: #262626; font: 12px 'Arial', 'Liberation Sans', 'DejaVu Sans', 'Bitstream Vera Sans', sans-serif; text-anchor: middle" x="369" y="45.84" transform="rotate(-0 369 45.84)">Incidents by Source</text>
   </g>
  </g>
 </g>
</svg>
