<?xml version="1.0" encoding="utf-8" standalone="no"?>
<!DOCTYPE svg PUBLIC "-//W3C//DTD SVG 1.1//EN"
  "http://www.w3.org/Graphics/SVG/1.1/DTD/svg11.dtd">
<svg xmlns:xlink="http://www.w3.org/1999/xlink" width="720pt" height="432pt" viewBox="0 0 720 432" xmlns="http://www.w3.org/2000/svg" version="1.1">
 <metadata>
  <rdf:RDF xmlns:dc="http://purl.org/dc/elements/1.1/" xmlns:cc="http://creativecommons.org/ns#" xmlns:rdf="http://www.w3.org/1999/02/22-rdf-syntax-ns#">
   <cc:Work>
    <dc:type rdf:resource="http://purl.org/dc/dcmitype/StillImage"/>
    <dc:date>2026-07-10T19:21:27.257352</dc:date>
    <dc:format>image/svg+xml</dc:format>
    <dc:creator>
     <cc:Agent>
      <dc:title>Matplotlib v3.7.5, https://matplotlib.org/</dc:title>
     </cc:Agent>
    </dc:creator>
   </cc:Work>
  </rdf:RDF>
 </metadata>
 <defs>
  <style type="text/css">*{stroke-linejoin: round; stroke-linecap: butt}</style>
 </defs>
 <g id="figure_1">
  <g id="patch_1">
   <path d="M 0 432 
L 720 432 
L 720 0 
L 0 0 
z
" style="fill: #ffffff"/>
  </g>
  <g id="axes_1">
   <g id="matplotlib.axis_1"/>
   <g id="matplotlib.axis_2"/>
   <g id="patch_2">
    <path d="M 502.056 218.16 
C 502.056 200.702409 498.620219 183.414275 491.94495 167.283302 
C 485.269681 151.15233 475.484515 136.491679 463.148497 124.138941 
C 450.812479 111.786202 436.165096 101.981187 420.04318 95.284075 
C 403.921263 88.586963 386.637799 85.127768 369.180224 85.104122 
C 351.722649 85.080476 334.429877 88.492837 318.289878 95.14625 
C 302.149878 101.799664 287.475987 111.564963 275.106551 123.884238 
C 262.737114 136.203513 252.912269 150.837602 246.193326 166.950432 
C 239.474382 183.063262 235.991781 200.342025 235.944488 217.799552 
C 235.897196 235.257079 239.28613 252.554457 245.917676 268.703454 
C 252.549222 284.852451 262.294636 299.539555 274.597146 311.925667 
C 286.899655 324.311778 301.520423 334.156437 317.624138 340.897199 
C 333.727852 347.63796 351.001882 351.143963 368.459329 351.214901 
C 385.916776 351.28584 403.218728 347.920338 419.376693 341.310672 
C 435.534657 334.701006 450.234948 324.975494 462.637712 312.689773 
C 475.040476 300.404052 484.904929 285.796632 491.667497 269.702062 
C 498.430066 253.607493 501.959462 236.338228 502.054047 218.880893 
L 369 218.16 
z
" style="fill: #f77189"/>
   </g>
   <g id="patch_3">
    <path d="M 502.054047 218.880893 
C 502.054692 218.761937 502.055177 218.642981 502.055502 218.524024 
C 502.055827 218.405067 502.055993 218.28611 502.056 218.167152 
L 369 218.16 
z
" style="fill: #bb9832"/>
   </g>
   <g id="patch_4">
    <path d="M 502.056 218.167152 
C 502.056 218.165963 502.056 218.164773 502.056 218.163584 
C 502.056 218.162394 502.056 218.161205 502.056 218.160015 
L 369 218.16 
z
" style="fill: #50b131"/>
   </g>
   <g id="text_1">
    <text style="fill: #262626; font: 10px 'Arial', 'Liberation Sans', 'DejaVu Sans', 'Bitstream Vera Sans', sans-serif; text-anchor: end" x="222.638937" y="220.349445" transform="rotate(-0 222.638937 220.349445)">newsapi</text>
   </g>
   <g id="text_2">
    <text style="fill: #262626; font: 10px 'Arial', 'Liberation Sans', 'DejaVu Sans', 'Bitstream Vera Sans', sans-serif; text-anchor: middle" x="289.166693" y="220.529669" transform="rotate(-0 289.166693 220.529669)">99.9%</text>
   </g>
   <g id="text_3">
    <text style="fill: #262626; font: 10px 'Arial', 'Liberation Sans', 'DejaVu Sans', 'Bitstream Vera Sans', sans-serif; text-anchor: start" x="515.361052" y="221.146364" transform="rotate(-0 515.361052 221.146364)">chicago_pd</text>
   </g>
   <g id="text_4">
    <text style="fill: #262626; font: 10px 'Arial', 'Liberation Sans', 'DejaVu Sans', 'Bitstream Vera Sans', sans-serif; text-anchor: middle" x="448.833301" y="220.964352" transform="rotate(-0 448.833301 220.964352)">0.1%</text>
   </g>
   <g id="text_5">
    <text style="fill: #262626; font: 10px 'Arial', 'Liberation Sans', 'DejaVu Sans', 'Bitstream Vera Sans', sans-serif; text-anchor: start" x="515.3616" y="220.74988" transform="rotate(-0 515.3616 220.74988)">chicago_police</text>
   </g>
   <g id="text_6">
    <text style="fill: #262626; font: 10px 'Arial', 'Liberation Sans', 'DejaVu Sans', 'Bitstream Vera Sans', sans-serif; text-anchor: middle" x="448.8336" y="220.748088" transform="rotate(-0 448.8336 220.748088)">0.0%</text>
   </g>
   <g id="text_7">
    <text style="fill: #262626; font: 12px 'Arial', 'Liberation Sans', 'DejaVu Sans', 'Bitstream Vera Sans', sans-serif; text-anchor: middle" x="369" y="45.84" transform="rotate(-0 369 45.84)">Incidents by Source</text>
   </g>
  </g>
 </g>
</svg>
