<?xml version="1.0" encoding="utf-8" standalone="no"?>
<!DOCTYPE svg PUBLIC "-//W3C//DTD SVG 1.1//EN"
  "http://www.w3.org/Graphics/SVG/1.1/DTD/svg11.dtd">
<svg xmlns:xlink="http://www.w3.org/1999/xlink" width="720pt" height="432pt" viewBox="0 0 720 432" xmlns="http://www.w3.org/2000/svg" version="1.1">
 <metadata>
  <rdf:RDF xmlns:dc="http://purl.org/dc/elements/1.1/" xmlns:cc="http://creativecommons.org/ns#" xmlns:rdf="http://www.w3.org/1999/02/22-rdf-syntax-ns#">
   <cc:Work>
    <dc:type rdf:resource="http://purl.org/dc/dcmitype/StillImage"/>
    <dc:date>2025-10-29T18:22:14.330473</dc:date>
    <dc:format>image/svg+xml</dc:format>
    <dc:creator>
     <cc:Agent>
      <dc:title>Matplotlib v3.7.5, https://matplotlib.org/</dc:title>
     </cc:Agent>
    </dc:creator>
   </cc:Work>
  </rdf:RDF>
 </metadata>
 <defs>
  <style type="text/css">*{stroke-linejoin: round; stroke-linecap: butt}</style>
 </defs>
 <g id="figure_1">
  <g id="patch_1">
   <path d="M 0 432 
L 720 432 
L 720 0 
L 0 0 
z
" style="fill: #ffffff"/>
  </g>
  <g id="axes_1">
   <g id="matplotlib.axis_1"/>
   <g id="matplotlib.axis_2"/>
   <g id="patch_2">
    <path d="M 502.056 218.16 
C 502.056 200.713533 498.624596 183.436199 491.957586 167.313848 
C 485.290576 151.191498 475.517225 136.536724 463.195202 124.185732 
C 450.87318 111.834741 436.241397 102.027004 420.134747 95.322152 
C 404.028096 88.617301 386.758868 85.145336 369.312449 85.104367 
C 351.86603 85.063398 334.580686 88.454221 318.442724 95.083353 
C 302.304762 101.712486 287.627078 111.451397 275.247185 123.744382 
C 262.867293 136.037367 253.025223 150.646079 246.282568 166.73694 
C 239.539913 182.827802 236.027405 200.088829 235.945467 217.535104 
C 235.86353 234.981379 239.213753 252.274638 245.804972 268.428122 
C 252.39619 284.581607 262.100607 299.282119 274.364487 311.690845 
C 286.628367 324.09957 301.213927 333.975917 317.288911 340.756339 
C 333.363894 347.536761 350.616626 351.089793 368.06266 351.212698 
C 385.508695 351.335603 402.809773 348.025999 418.978691 341.472731 
C 435.147608 334.919463 449.870869 325.249593 462.308359 313.014886 
C 474.745849 300.780178 484.656419 286.217851 491.474571 270.158834 
C 498.292722 254.099816 501.886258 236.855476 502.05013 219.409778 
L 369 218.16 
z
" style="fill: #f77189"/>
   </g>
   <g id="patch_3">
    <path d="M 502.05013 219.409778 
C 502.052067 219.203553 502.053525 218.997324 502.054503 218.791092 
C 502.055482 218.58486 502.05598 218.378626 502.055999 218.172392 
L 369 218.16 
z
" style="fill: #bb9832"/>
   </g>
   <g id="patch_4">
    <path d="M 502.055999 218.172392 
C 502.056 218.170329 502.056 218.168267 502.056 218.166204 
C 502.056 218.164142 502.056 218.16208 502.056 218.160017 
L 369 218.16 
z
" style="fill: #50b131"/>
   </g>
   <g id="text_1">
    <text style="fill: #262626; font: 10px 'Arial', 'Liberation Sans', 'DejaVu Sans', 'Bitstream Vera Sans', sans-serif; text-anchor: end" x="222.640014" y="220.058552" transform="rotate(-0 222.640014 220.058552)">newsapi</text>
   </g>
   <g id="text_2">
    <text style="fill: #262626; font: 10px 'Arial', 'Liberation Sans', 'DejaVu Sans', 'Bitstream Vera Sans', sans-serif; text-anchor: middle" x="289.16728" y="220.371" transform="rotate(-0 289.16728 220.371)">99.9%</text>
   </g>
   <g id="text_3">
    <text style="fill: #262626; font: 10px 'Arial', 'Liberation Sans', 'DejaVu Sans', 'Bitstream Vera Sans', sans-serif; text-anchor: start" x="515.359954" y="221.440138" transform="rotate(-0 515.359954 221.440138)">chicago_pd</text>
   </g>
   <g id="text_4">
    <text style="fill: #262626; font: 10px 'Arial', 'Liberation Sans', 'DejaVu Sans', 'Bitstream Vera Sans', sans-serif; text-anchor: middle" x="448.832702" y="221.124592" transform="rotate(-0 448.832702 221.124592)">0.1%</text>
   </g>
   <g id="text_5">
    <text style="fill: #262626; font: 10px 'Arial', 'Liberation Sans', 'DejaVu Sans', 'Bitstream Vera Sans', sans-serif; text-anchor: start" x="515.3616" y="220.752762" transform="rotate(-0 515.3616 220.752762)">chicago_police</text>
   </g>
   <g id="text_6">
    <text style="fill: #262626; font: 10px 'Arial', 'Liberation Sans', 'DejaVu Sans', 'Bitstream Vera Sans', sans-serif; text-anchor: middle" x="448.8336" y="220.74966" transform="rotate(-0 448.8336 220.74966)">0.0%</text>
   </g>
   <g id="text_7">
    <text style="fill: #262626; font: 12px 'Arial', 'Liberation Sans', 'DejaVu Sans', 'Bitstream Vera Sans', sans-serif; text-anchor: middle" x="369" y="45.84" transform="rotate(-0 369 45.84)">Incidents by Source</text>
   </g>
  </g>
 </g>
</svg>
