<?xml version="1.0" encoding="utf-8" standalone="no"?>
<!DOCTYPE svg PUBLIC "-//W3C//DTD SVG 1.1//EN"
  "http://www.w3.org/Graphics/SVG/1.1/DTD/svg11.dtd">
<svg xmlns:xlink="http://www.w3.org/1999/xlink" width="720pt" height="432pt" viewBox="0 0 720 432" xmlns="http://www.w3.org/2000/svg" version="1.1">
 <metadata>
  <rdf:RDF xmlns:dc="http://purl.org/dc/elements/1.1/" xmlns:cc="http://creativecommons.org/ns#" xmlns:rdf="http://www.w3.org/1999/02/22-rdf-syntax-ns#">
   <cc:Work>
    <dc:type rdf:resource="http://purl.org/dc/dcmitype/StillImage"/>
    <dc:date>2026-05-24T04:04:55.734810</dc:date>
    <dc:format>image/svg+xml</dc:format>
    <dc:creator>
     <cc:Agent>
      <dc:title>Matplotlib v3.7.5, https://matplotlib.org/</dc:title>
     </cc:Agent>
    </dc:creator>
   </cc:Work>
  </rdf:RDF>
 </metadata>
 <defs>
  <style type="text/css">*{stroke-linejoin: round; stroke-linecap: butt}</style>
 </defs>
 <g id="figure_1">
  <g id="patch_1">
   <path d="M 0 432 
L 720 432 
L 720 0 
L 0 0 
z
" style="fill: #ffffff"/>
  </g>
  <g id="axes_1">
   <g id="matplotlib.axis_1"/>
   <g id="matplotlib.axis_2"/>
   <g id="patch_2">
    <path d="M 502.056 218.16 
C 502.056 200.703885 498.6208 183.417186 491.946628 167.287357 
C 485.272456 151.157529 475.488859 136.497658 463.154699 124.145151 
C 450.820539 111.792643 436.175226 101.987266 420.055337 95.289126 
C 403.935447 88.590985 386.653872 85.130094 369.197777 85.104147 
C 351.741681 85.0782 334.449895 88.4877 318.310164 95.13789 
C 302.170432 101.788079 287.496035 111.549875 275.125208 123.86566 
C 262.754381 136.181445 252.927245 150.812166 246.205151 166.922082 
C 239.483057 183.031998 235.996482 200.308409 235.944588 217.764447 
C 235.892694 235.220484 239.276488 252.51732 245.902679 268.666918 
C 252.528871 284.816516 262.268844 299.505408 274.566227 311.894528 
C 286.863611 324.283648 301.479708 334.13252 317.579614 340.878552 
C 333.679521 347.624585 350.95073 351.136836 368.406671 351.214677 
C 385.862612 351.292518 403.164459 347.934438 419.323888 341.332259 
C 435.483318 334.73008 450.186671 325.011952 462.594056 312.732997 
C 475.001442 300.454043 484.872028 285.852601 491.641985 269.76274 
C 498.411941 253.672879 501.94986 236.406909 502.053648 218.951103 
L 369 218.16 
z
" style="fill: #f77189"/>
   </g>
   <g id="patch_3">
    <path d="M 502.053648 218.951103 
C 502.054424 218.820555 502.055008 218.690007 502.0554 218.559457 
C 502.055792 218.428908 502.055992 218.298358 502.056 218.167808 
L 369 218.16 
z
" style="fill: #bb9832"/>
   </g>
   <g id="patch_4">
    <path d="M 502.056 218.167808 
C 502.056 218.166503 502.056 218.165197 502.056 218.163892 
C 502.056 218.162586 502.056 218.161281 502.056 218.159975 
L 369 218.16 
z
" style="fill: #50b131"/>
   </g>
   <g id="text_1">
    <text style="fill: #262626; font: 10px 'Arial', 'Liberation Sans', 'DejaVu Sans', 'Bitstream Vera Sans', sans-serif; text-anchor: end" x="222.639047" y="220.310829" transform="rotate(-0 222.639047 220.310829)">newsapi</text>
   </g>
   <g id="text_2">
    <text style="fill: #262626; font: 10px 'Arial', 'Liberation Sans', 'DejaVu Sans', 'Bitstream Vera Sans', sans-serif; text-anchor: middle" x="289.166753" y="220.508606" transform="rotate(-0 289.166753 220.508606)">99.9%</text>
   </g>
   <g id="text_3">
    <text style="fill: #262626; font: 10px 'Arial', 'Liberation Sans', 'DejaVu Sans', 'Bitstream Vera Sans', sans-serif; text-anchor: start" x="515.36094" y="221.18534" transform="rotate(-0 515.36094 221.18534)">chicago_pd</text>
   </g>
   <g id="text_4">
    <text style="fill: #262626; font: 10px 'Arial', 'Liberation Sans', 'DejaVu Sans', 'Bitstream Vera Sans', sans-serif; text-anchor: middle" x="448.83324" y="220.985612" transform="rotate(-0 448.83324 220.985612)">0.1%</text>
   </g>
   <g id="text_5">
    <text style="fill: #262626; font: 10px 'Arial', 'Liberation Sans', 'DejaVu Sans', 'Bitstream Vera Sans', sans-serif; text-anchor: start" x="515.3616" y="220.750218" transform="rotate(-0 515.3616 220.750218)">chicago_police</text>
   </g>
   <g id="text_6">
    <text style="fill: #262626; font: 10px 'Arial', 'Liberation Sans', 'DejaVu Sans', 'Bitstream Vera Sans', sans-serif; text-anchor: middle" x="448.8336" y="220.748272" transform="rotate(-0 448.8336 220.748272)">0.0%</text>
   </g>
   <g id="text_7">
    <text style="fill: #262626; font: 12px 'Arial', 'Liberation Sans', 'DejaVu Sans', 'Bitstream Vera Sans', sans-serif; text-anchor: middle" x="369" y="45.84" transform="rotate(-0 369 45.84)">Incidents by Source</text>
   </g>
  </g>
 </g>
</svg>
