<?xml version="1.0" encoding="utf-8" standalone="no"?>
<!DOCTYPE svg PUBLIC "-//W3C//DTD SVG 1.1//EN"
  "http://www.w3.org/Graphics/SVG/1.1/DTD/svg11.dtd">
<svg xmlns:xlink="http://www.w3.org/1999/xlink" width="720pt" height="432pt" viewBox="0 0 720 432" xmlns="http://www.w3.org/2000/svg" version="1.1">
 <metadata>
  <rdf:RDF xmlns:dc="http://purl.org/dc/elements/1.1/" xmlns:cc="http://creativecommons.org/ns#" xmlns:rdf="http://www.w3.org/1999/02/22-rdf-syntax-ns#">
   <cc:Work>
    <dc:type rdf:resource="http://purl.org/dc/dcmitype/StillImage"/>
    <dc:date>2026-05-29T15:52:04.743073</dc:date>
    <dc:format>image/svg+xml</dc:format>
    <dc:creator>
     <cc:Agent>
      <dc:title>Matplotlib v3.7.5, https://matplotlib.org/</dc:title>
     </cc:Agent>
    </dc:creator>
   </cc:Work>
  </rdf:RDF>
 </metadata>
 <defs>
  <style type="text/css">*{stroke-linejoin: round; stroke-linecap: butt}</style>
 </defs>
 <g id="figure_1">
  <g id="patch_1">
   <path d="M 0 432 
L 720 432 
L 720 0 
L 0 0 
z
" style="fill: #ffffff"/>
  </g>
  <g id="axes_1">
   <g id="matplotlib.axis_1"/>
   <g id="matplotlib.axis_2"/>
   <g id="patch_2">
    <path d="M 502.056 218.16 
C 502.056 200.703728 498.620739 183.416876 491.946449 167.286926 
C 485.27216 151.156975 475.488396 136.497022 463.154038 124.14449 
C 450.819681 111.791958 436.174148 101.986619 420.054042 95.288588 
C 403.933937 88.590557 386.652161 85.129846 369.195908 85.104144 
C 351.739655 85.078442 334.447764 88.488247 318.308004 95.13878 
C 302.168244 101.789312 287.493901 111.551481 275.123221 123.867638 
C 262.752542 136.183795 252.925651 150.814874 246.203892 166.9251 
C 239.482133 183.035326 235.995981 200.311988 235.944577 217.768184 
C 235.893173 235.22438 239.277514 252.521274 245.904275 268.670808 
C 252.531037 284.820342 262.271589 299.509043 274.569518 311.897843 
C 286.867447 324.286643 301.484042 334.135066 317.584354 340.880538 
C 333.684666 347.62601 350.956176 351.137596 368.412277 351.214702 
C 385.868379 351.291808 403.170236 347.932938 419.32951 341.329962 
C 435.488784 334.726986 450.191811 325.008072 462.598705 312.728397 
C 475.005598 300.448722 484.875532 285.846643 491.644702 269.756281 
C 498.413872 253.665918 501.950884 236.399598 502.053692 218.943628 
L 369 218.16 
z
" style="fill: #f77189"/>
   </g>
   <g id="patch_3">
    <path d="M 502.053692 218.943628 
C 502.054454 218.814319 502.055027 218.685009 502.055412 218.555697 
C 502.055796 218.426386 502.055992 218.297075 502.056 218.167763 
L 369 218.16 
z
" style="fill: #bb9832"/>
   </g>
   <g id="patch_4">
    <path d="M 502.056 218.167763 
C 502.056 218.16647 502.056 218.165177 502.056 218.163884 
C 502.056 218.16259 502.056 218.161297 502.056 218.160004 
L 369 218.16 
z
" style="fill: #50b131"/>
   </g>
   <g id="text_1">
    <text style="fill: #262626; font: 10px 'Arial', 'Liberation Sans', 'DejaVu Sans', 'Bitstream Vera Sans', sans-serif; text-anchor: end" x="222.639035" y="220.31494" transform="rotate(-0 222.639035 220.31494)">newsapi</text>
   </g>
   <g id="text_2">
    <text style="fill: #262626; font: 10px 'Arial', 'Liberation Sans', 'DejaVu Sans', 'Bitstream Vera Sans', sans-serif; text-anchor: middle" x="289.166746" y="220.510848" transform="rotate(-0 289.166746 220.510848)">99.9%</text>
   </g>
   <g id="text_3">
    <text style="fill: #262626; font: 10px 'Arial', 'Liberation Sans', 'DejaVu Sans', 'Bitstream Vera Sans', sans-serif; text-anchor: start" x="515.360953" y="221.181205" transform="rotate(-0 515.360953 221.181205)">chicago_pd</text>
   </g>
   <g id="text_4">
    <text style="fill: #262626; font: 10px 'Arial', 'Liberation Sans', 'DejaVu Sans', 'Bitstream Vera Sans', sans-serif; text-anchor: middle" x="448.833247" y="220.983356" transform="rotate(-0 448.833247 220.983356)">0.1%</text>
   </g>
   <g id="text_5">
    <text style="fill: #262626; font: 10px 'Arial', 'Liberation Sans', 'DejaVu Sans', 'Bitstream Vera Sans', sans-serif; text-anchor: start" x="515.3616" y="220.750209" transform="rotate(-0 515.3616 220.750209)">chicago_police</text>
   </g>
   <g id="text_6">
    <text style="fill: #262626; font: 10px 'Arial', 'Liberation Sans', 'DejaVu Sans', 'Bitstream Vera Sans', sans-serif; text-anchor: middle" x="448.8336" y="220.748268" transform="rotate(-0 448.8336 220.748268)">0.0%</text>
   </g>
   <g id="text_7">
    <text style="fill: #262626; font: 12px 'Arial', 'Liberation Sans', 'DejaVu Sans', 'Bitstream Vera Sans', sans-serif; text-anchor: middle" x="369" y="45.84" transform="rotate(-0 369 45.84)">Incidents by Source</text>
   </g>
  </g>
 </g>
</svg>
