<?xml version="1.0" encoding="utf-8" standalone="no"?>
<!DOCTYPE svg PUBLIC "-//W3C//DTD SVG 1.1//EN"
  "http://www.w3.org/Graphics/SVG/1.1/DTD/svg11.dtd">
<svg xmlns:xlink="http://www.w3.org/1999/xlink" width="720pt" height="432pt" viewBox="0 0 720 432" xmlns="http://www.w3.org/2000/svg" version="1.1">
 <metadata>
  <rdf:RDF xmlns:dc="http://purl.org/dc/elements/1.1/" xmlns:cc="http://creativecommons.org/ns#" xmlns:rdf="http://www.w3.org/1999/02/22-rdf-syntax-ns#">
   <cc:Work>
    <dc:type rdf:resource="http://purl.org/dc/dcmitype/StillImage"/>
    <dc:date>2025-06-18T01:10:12.983274</dc:date>
    <dc:format>image/svg+xml</dc:format>
    <dc:creator>
     <cc:Agent>
      <dc:title>Matplotlib v3.7.5, https://matplotlib.org/</dc:title>
     </cc:Agent>
    </dc:creator>
   </cc:Work>
  </rdf:RDF>
 </metadata>
 <defs>
  <style type="text/css">*{stroke-linejoin: round; stroke-linecap: butt}</style>
 </defs>
 <g id="figure_1">
  <g id="patch_1">
   <path d="M 0 432 
L 720 432 
L 720 0 
L 0 0 
z
" style="fill: #ffffff"/>
  </g>
  <g id="axes_1">
   <g id="matplotlib.axis_1"/>
   <g id="matplotlib.axis_2"/>
   <g id="patch_2">
    <path d="M 502.056 218.16 
C 502.056 200.732347 498.631993 183.47328 491.978941 167.365519 
C 485.325888 151.257758 475.572506 136.612938 463.274145 124.264927 
C 450.975783 111.916915 436.370379 102.104607 420.289554 95.38671 
C 404.208729 88.668813 386.963598 85.175296 369.536087 85.10508 
C 352.108575 85.034863 334.835853 88.389305 318.701417 94.977405 
C 302.566981 101.565505 287.882984 111.259804 275.485522 123.508315 
C 263.08806 135.756825 253.216986 150.322577 246.434354 166.376205 
C 239.651721 182.429833 236.088752 199.660749 235.94832 217.087836 
C 235.807888 234.514923 239.09271 251.80102 245.61575 267.961868 
C 252.138791 284.122717 261.773849 298.845653 273.97231 311.292365 
C 286.170772 323.739076 300.696634 333.668755 316.722805 340.516013 
C 332.748975 347.363272 349.965395 350.995635 367.391775 351.20628 
C 384.818155 351.416925 402.117346 348.201776 418.304345 341.743901 
C 434.491344 335.286026 449.252981 325.710366 461.748739 313.562151 
C 474.244497 301.413937 484.232621 286.9282 491.144394 270.929747 
C 498.056166 254.931295 501.757866 237.729649 502.038721 220.304259 
L 369 218.16 
z
" style="fill: #f77189"/>
   </g>
   <g id="patch_3">
    <path d="M 502.038721 220.304259 
C 502.044423 219.950454 502.048715 219.596627 502.051594 219.242787 
C 502.054474 218.888947 502.055942 218.535097 502.055998 218.181246 
L 369 218.16 
z
" style="fill: #bb9832"/>
   </g>
   <g id="patch_4">
    <path d="M 502.055998 218.181246 
C 502.055999 218.177707 502.055999 218.174169 502.056 218.17063 
C 502.056 218.167092 502.056 218.163553 502.056 218.160015 
L 369 218.16 
z
" style="fill: #50b131"/>
   </g>
   <g id="text_1">
    <text style="fill: #262626; font: 10px 'Arial', 'Liberation Sans', 'DejaVu Sans', 'Bitstream Vera Sans', sans-serif; text-anchor: end" x="222.643152" y="219.566557" transform="rotate(-0 222.643152 219.566557)">newsapi</text>
   </g>
   <g id="text_2">
    <text style="fill: #262626; font: 10px 'Arial', 'Liberation Sans', 'DejaVu Sans', 'Bitstream Vera Sans', sans-serif; text-anchor: middle" x="289.168992" y="220.102639" transform="rotate(-0 289.168992 220.102639)">99.7%</text>
   </g>
   <g id="text_3">
    <text style="fill: #262626; font: 10px 'Arial', 'Liberation Sans', 'DejaVu Sans', 'Bitstream Vera Sans', sans-serif; text-anchor: start" x="515.356754" y="221.937003" transform="rotate(-0 515.356754 221.937003)">chicago_pd</text>
   </g>
   <g id="text_4">
    <text style="fill: #262626; font: 10px 'Arial', 'Liberation Sans', 'DejaVu Sans', 'Bitstream Vera Sans', sans-serif; text-anchor: middle" x="448.830956" y="221.39561" transform="rotate(-0 448.830956 221.39561)">0.3%</text>
   </g>
   <g id="text_5">
    <text style="fill: #262626; font: 10px 'Arial', 'Liberation Sans', 'DejaVu Sans', 'Bitstream Vera Sans', sans-serif; text-anchor: start" x="515.3616" y="220.757631" transform="rotate(-0 515.3616 220.757631)">chicago_police</text>
   </g>
   <g id="text_6">
    <text style="fill: #262626; font: 10px 'Arial', 'Liberation Sans', 'DejaVu Sans', 'Bitstream Vera Sans', sans-serif; text-anchor: middle" x="448.8336" y="220.752316" transform="rotate(-0 448.8336 220.752316)">0.0%</text>
   </g>
   <g id="text_7">
    <text style="fill: #262626; font: 12px 'Arial', 'Liberation Sans', 'DejaVu Sans', 'Bitstream Vera Sans', sans-serif; text-anchor: middle" x="369" y="45.84" transform="rotate(-0 369 45.84)">Incidents by Source</text>
   </g>
  </g>
 </g>
</svg>
