<?xml version="1.0" encoding="utf-8" standalone="no"?>
<!DOCTYPE svg PUBLIC "-//W3C//DTD SVG 1.1//EN"
  "http://www.w3.org/Graphics/SVG/1.1/DTD/svg11.dtd">
<svg xmlns:xlink="http://www.w3.org/1999/xlink" width="720pt" height="432pt" viewBox="0 0 720 432" xmlns="http://www.w3.org/2000/svg" version="1.1">
 <metadata>
  <rdf:RDF xmlns:dc="http://purl.org/dc/elements/1.1/" xmlns:cc="http://creativecommons.org/ns#" xmlns:rdf="http://www.w3.org/1999/02/22-rdf-syntax-ns#">
   <cc:Work>
    <dc:type rdf:resource="http://purl.org/dc/dcmitype/StillImage"/>
    <dc:date>2025-01-25T06:15:29.553220</dc:date>
    <dc:format>image/svg+xml</dc:format>
    <dc:creator>
     <cc:Agent>
      <dc:title>Matplotlib v3.7.5, https://matplotlib.org/</dc:title>
     </cc:Agent>
    </dc:creator>
   </cc:Work>
  </rdf:RDF>
 </metadata>
 <defs>
  <style type="text/css">*{stroke-linejoin: round; stroke-linecap: butt}</style>
 </defs>
 <g id="figure_1">
  <g id="patch_1">
   <path d="M 0 432 
L 720 432 
L 720 0 
L 0 0 
z
" style="fill: #ffffff"/>
  </g>
  <g id="axes_1">
   <g id="matplotlib.axis_1"/>
   <g id="matplotlib.axis_2"/>
   <g id="patch_2">
    <path d="M 502.056 218.16 
C 502.056 200.848934 498.677652 183.703089 492.110793 167.68593 
C 485.543935 151.668772 475.913916 137.086042 463.761873 124.757181 
C 451.609829 112.428319 437.167722 102.588664 421.247091 95.791129 
C 405.326459 88.993594 388.231201 85.367933 370.921942 85.117882 
C 353.612682 84.86783 336.419826 87.998161 320.309483 94.332973 
C 304.19914 100.667784 289.47883 110.086156 276.975724 122.058847 
C 264.472617 134.031537 254.425377 148.330007 247.398584 164.15079 
C 240.371791 179.971572 236.499574 197.012676 235.999523 214.316517 
C 235.499472 231.620359 238.381132 248.856638 244.482576 265.056804 
C 250.584019 281.25697 259.788779 296.111789 271.579618 308.786532 
C 283.370457 321.461275 297.522306 331.714002 313.239939 338.968587 
C 328.957573 346.223172 345.940965 350.341137 363.235779 351.091083 
C 380.530592 351.841029 397.806697 349.208641 414.093306 343.341839 
C 430.379915 337.475038 445.366143 328.48581 458.209878 316.879283 
C 471.053613 305.272756 481.509688 291.270479 488.990551 275.659276 
C 496.471415 260.048072 500.834268 243.125934 501.833953 225.843757 
L 369 218.16 
z
" style="fill: #f77189"/>
   </g>
   <g id="patch_3">
    <path d="M 501.833953 225.843757 
C 501.907216 224.577202 501.962362 223.309664 501.999372 222.041531 
C 502.036382 220.773399 502.055252 219.504802 502.055978 218.23613 
L 369 218.16 
z
" style="fill: #bb9832"/>
   </g>
   <g id="patch_4">
    <path d="M 502.055978 218.23613 
C 502.055985 218.223443 502.055991 218.210757 502.055995 218.19807 
C 502.055998 218.185384 502.056 218.172697 502.056 218.160011 
L 369 218.16 
z
" style="fill: #50b131"/>
   </g>
   <g id="text_1">
    <text style="fill: #262626; font: 10px 'Arial', 'Liberation Sans', 'DejaVu Sans', 'Bitstream Vera Sans', sans-serif; text-anchor: end" x="222.699476" y="216.518107" transform="rotate(-0 222.699476 216.518107)">newsapi</text>
   </g>
   <g id="text_2">
    <text style="fill: #262626; font: 10px 'Arial', 'Liberation Sans', 'DejaVu Sans', 'Bitstream Vera Sans', sans-serif; text-anchor: middle" x="289.199714" y="218.439848" transform="rotate(-0 289.199714 218.439848)">99.1%</text>
   </g>
   <g id="text_3">
    <text style="fill: #262626; font: 10px 'Arial', 'Liberation Sans', 'DejaVu Sans', 'Bitstream Vera Sans', sans-serif; text-anchor: start" x="515.299309" y="225.015622" transform="rotate(-0 515.299309 225.015622)">chicago_pd</text>
   </g>
   <g id="text_4">
    <text style="fill: #262626; font: 10px 'Arial', 'Liberation Sans', 'DejaVu Sans', 'Bitstream Vera Sans', sans-serif; text-anchor: middle" x="448.799623" y="223.074856" transform="rotate(-0 448.799623 223.074856)">0.9%</text>
   </g>
   <g id="text_5">
    <text style="fill: #262626; font: 10px 'Arial', 'Liberation Sans', 'DejaVu Sans', 'Bitstream Vera Sans', sans-serif; text-anchor: start" x="515.361594" y="220.787815" transform="rotate(-0 515.361594 220.787815)">chicago_police</text>
   </g>
   <g id="text_6">
    <text style="fill: #262626; font: 10px 'Arial', 'Liberation Sans', 'DejaVu Sans', 'Bitstream Vera Sans', sans-serif; text-anchor: middle" x="448.833597" y="220.76878" transform="rotate(-0 448.833597 220.76878)">0.0%</text>
   </g>
   <g id="text_7">
    <text style="fill: #262626; font: 12px 'Arial', 'Liberation Sans', 'DejaVu Sans', 'Bitstream Vera Sans', sans-serif; text-anchor: middle" x="369" y="45.84" transform="rotate(-0 369 45.84)">Incidents by Source</text>
   </g>
  </g>
 </g>
</svg>
