<?xml version="1.0" encoding="utf-8" standalone="no"?>
<!DOCTYPE svg PUBLIC "-//W3C//DTD SVG 1.1//EN"
  "http://www.w3.org/Graphics/SVG/1.1/DTD/svg11.dtd">
<svg xmlns:xlink="http://www.w3.org/1999/xlink" width="720pt" height="432pt" viewBox="0 0 720 432" xmlns="http://www.w3.org/2000/svg" version="1.1">
 <metadata>
  <rdf:RDF xmlns:dc="http://purl.org/dc/elements/1.1/" xmlns:cc="http://creativecommons.org/ns#" xmlns:rdf="http://www.w3.org/1999/02/22-rdf-syntax-ns#">
   <cc:Work>
    <dc:type rdf:resource="http://purl.org/dc/dcmitype/StillImage"/>
    <dc:date>2025-12-15T06:27:33.207063</dc:date>
    <dc:format>image/svg+xml</dc:format>
    <dc:creator>
     <cc:Agent>
      <dc:title>Matplotlib v3.7.5, https://matplotlib.org/</dc:title>
     </cc:Agent>
    </dc:creator>
   </cc:Work>
  </rdf:RDF>
 </metadata>
 <defs>
  <style type="text/css">*{stroke-linejoin: round; stroke-linecap: butt}</style>
 </defs>
 <g id="figure_1">
  <g id="patch_1">
   <path d="M 0 432 
L 720 432 
L 720 0 
L 0 0 
z
" style="fill: #ffffff"/>
  </g>
  <g id="axes_1">
   <g id="matplotlib.axis_1"/>
   <g id="matplotlib.axis_2"/>
   <g id="patch_2">
    <path d="M 502.056 218.16 
C 502.056 200.710543 498.62342 183.430306 491.95419 167.305637 
C 485.284961 151.180969 475.508434 136.524615 463.182651 124.173153 
C 450.856867 111.821691 436.220891 102.014683 420.110137 95.311911 
C 403.999382 88.609138 386.726327 85.140603 369.276907 85.104288 
C 351.827488 85.067973 334.540145 88.464583 318.401632 95.100241 
C 302.263118 101.735899 287.58645 111.481902 275.209363 123.781954 
C 262.832276 136.082006 252.994831 150.697541 246.258544 166.794311 
C 239.522257 182.891081 236.017782 200.15688 235.945153 217.606186 
C 235.872523 235.055493 239.233149 252.349867 245.835206 268.502155 
C 252.437263 284.654443 262.152701 299.351362 274.426968 311.754021 
C 286.701235 324.156679 301.296265 334.02452 317.378981 340.794292 
C 333.461696 347.564064 350.720165 351.104463 368.169283 351.213407 
C 385.6184 351.32235 402.919731 347.997724 419.085723 341.429296 
C 435.251716 334.860869 449.968823 325.176038 462.396999 312.927609 
C 474.825175 300.67918 484.723368 286.104718 491.526596 270.036126 
C 498.329823 253.967534 501.906133 236.71647 502.05139 219.267617 
L 369 218.16 
z
" style="fill: #f77189"/>
   </g>
   <g id="patch_3">
    <path d="M 502.05139 219.267617 
C 502.052911 219.084843 502.054056 218.902065 502.054825 218.719285 
C 502.055593 218.536505 502.055985 218.353724 502.056 218.170943 
L 369 218.16 
z
" style="fill: #bb9832"/>
   </g>
   <g id="patch_4">
    <path d="M 502.056 218.170943 
C 502.056 218.169115 502.056 218.167288 502.056 218.16546 
C 502.056 218.163632 502.056 218.161804 502.056 218.159976 
L 369 218.16 
z
" style="fill: #50b131"/>
   </g>
   <g id="text_1">
    <text style="fill: #262626; font: 10px 'Arial', 'Liberation Sans', 'DejaVu Sans', 'Bitstream Vera Sans', sans-serif; text-anchor: end" x="222.639668" y="220.136743" transform="rotate(-0 222.639668 220.136743)">newsapi</text>
   </g>
   <g id="text_2">
    <text style="fill: #262626; font: 10px 'Arial', 'Liberation Sans', 'DejaVu Sans', 'Bitstream Vera Sans', sans-serif; text-anchor: middle" x="289.167092" y="220.413649" transform="rotate(-0 289.167092 220.413649)">99.9%</text>
   </g>
   <g id="text_3">
    <text style="fill: #262626; font: 10px 'Arial', 'Liberation Sans', 'DejaVu Sans', 'Bitstream Vera Sans', sans-serif; text-anchor: start" x="515.360307" y="221.361151" transform="rotate(-0 515.360307 221.361151)">chicago_pd</text>
   </g>
   <g id="text_4">
    <text style="fill: #262626; font: 10px 'Arial', 'Liberation Sans', 'DejaVu Sans', 'Bitstream Vera Sans', sans-serif; text-anchor: middle" x="448.832895" y="221.081509" transform="rotate(-0 448.832895 221.081509)">0.1%</text>
   </g>
   <g id="text_5">
    <text style="fill: #262626; font: 10px 'Arial', 'Liberation Sans', 'DejaVu Sans', 'Bitstream Vera Sans', sans-serif; text-anchor: start" x="515.3616" y="220.751943" transform="rotate(-0 515.3616 220.751943)">chicago_police</text>
   </g>
   <g id="text_6">
    <text style="fill: #262626; font: 10px 'Arial', 'Liberation Sans', 'DejaVu Sans', 'Bitstream Vera Sans', sans-serif; text-anchor: middle" x="448.8336" y="220.749213" transform="rotate(-0 448.8336 220.749213)">0.0%</text>
   </g>
   <g id="text_7">
    <text style="fill: #262626; font: 12px 'Arial', 'Liberation Sans', 'DejaVu Sans', 'Bitstream Vera Sans', sans-serif; text-anchor: middle" x="369" y="45.84" transform="rotate(-0 369 45.84)">Incidents by Source</text>
   </g>
  </g>
 </g>
</svg>
