<?xml version="1.0" encoding="utf-8" standalone="no"?>
<!DOCTYPE svg PUBLIC "-//W3C//DTD SVG 1.1//EN"
  "http://www.w3.org/Graphics/SVG/1.1/DTD/svg11.dtd">
<svg xmlns:xlink="http://www.w3.org/1999/xlink" width="720pt" height="432pt" viewBox="0 0 720 432" xmlns="http://www.w3.org/2000/svg" version="1.1">
 <metadata>
  <rdf:RDF xmlns:dc="http://purl.org/dc/elements/1.1/" xmlns:cc="http://creativecommons.org/ns#" xmlns:rdf="http://www.w3.org/1999/02/22-rdf-syntax-ns#">
   <cc:Work>
    <dc:type rdf:resource="http://purl.org/dc/dcmitype/StillImage"/>
    <dc:date>2026-06-23T09:29:26.871140</dc:date>
    <dc:format>image/svg+xml</dc:format>
    <dc:creator>
     <cc:Agent>
      <dc:title>Matplotlib v3.7.5, https://matplotlib.org/</dc:title>
     </cc:Agent>
    </dc:creator>
   </cc:Work>
  </rdf:RDF>
 </metadata>
 <defs>
  <style type="text/css">*{stroke-linejoin: round; stroke-linecap: butt}</style>
 </defs>
 <g id="figure_1">
  <g id="patch_1">
   <path d="M 0 432 
L 720 432 
L 720 0 
L 0 0 
z
" style="fill: #ffffff"/>
  </g>
  <g id="axes_1">
   <g id="matplotlib.axis_1"/>
   <g id="matplotlib.axis_2"/>
   <g id="patch_2">
    <path d="M 502.056 218.16 
C 502.056 200.702933 498.620426 183.415308 491.945546 167.284741 
C 485.270666 151.154175 475.486057 136.493801 463.150698 124.141144 
C 450.815339 111.788488 436.168691 101.983344 420.047494 95.285867 
C 403.926296 88.58839 386.643503 85.128593 369.186453 85.104131 
C 351.729403 85.079668 334.436981 88.491014 318.297076 95.143283 
C 302.157172 101.795552 287.483101 111.559608 275.113171 123.877645 
C 262.743241 136.195682 252.917583 150.828575 246.197521 166.940372 
C 239.47746 183.052168 235.993448 200.330096 235.944523 217.787095 
C 235.895597 235.244093 239.282707 252.541279 245.912353 268.690489 
C 252.541999 284.8397 262.285482 299.527439 274.586173 311.914618 
C 286.886863 324.301797 301.505974 334.147951 317.608337 340.890584 
C 333.710701 347.633216 350.98373 351.141436 368.440643 351.214824 
C 385.897556 351.288212 403.199471 347.925344 419.357956 341.318335 
C 435.51644 334.711326 450.217818 324.988434 462.622223 312.705114 
C 475.026627 300.421794 484.893257 285.816495 491.658447 269.723596 
C 498.423638 253.630697 501.956059 236.362601 502.05391 218.905808 
L 369 218.16 
z
" style="fill: #f77189"/>
   </g>
   <g id="patch_3">
    <path d="M 502.05391 218.905808 
C 502.0546 218.782739 502.055119 218.659669 502.055467 218.536599 
C 502.055815 218.413528 502.055993 218.290457 502.056 218.167386 
L 369 218.16 
z
" style="fill: #bb9832"/>
   </g>
   <g id="patch_4">
    <path d="M 502.056 218.167386 
C 502.056 218.166156 502.056 218.164925 502.056 218.163694 
C 502.056 218.162464 502.056 218.161233 502.056 218.160002 
L 369 218.16 
z
" style="fill: #50b131"/>
   </g>
   <g id="text_1">
    <text style="fill: #262626; font: 10px 'Arial', 'Liberation Sans', 'DejaVu Sans', 'Bitstream Vera Sans', sans-serif; text-anchor: end" x="222.638975" y="220.335742" transform="rotate(-0 222.638975 220.335742)">newsapi</text>
   </g>
   <g id="text_2">
    <text style="fill: #262626; font: 10px 'Arial', 'Liberation Sans', 'DejaVu Sans', 'Bitstream Vera Sans', sans-serif; text-anchor: middle" x="289.166714" y="220.522194" transform="rotate(-0 289.166714 220.522194)">99.9%</text>
   </g>
   <g id="text_3">
    <text style="fill: #262626; font: 10px 'Arial', 'Liberation Sans', 'DejaVu Sans', 'Bitstream Vera Sans', sans-serif; text-anchor: start" x="515.361014" y="221.160196" transform="rotate(-0 515.361014 221.160196)">chicago_pd</text>
   </g>
   <g id="text_4">
    <text style="fill: #262626; font: 10px 'Arial', 'Liberation Sans', 'DejaVu Sans', 'Bitstream Vera Sans', sans-serif; text-anchor: middle" x="448.83328" y="220.971897" transform="rotate(-0 448.83328 220.971897)">0.1%</text>
   </g>
   <g id="text_5">
    <text style="fill: #262626; font: 10px 'Arial', 'Liberation Sans', 'DejaVu Sans', 'Bitstream Vera Sans', sans-serif; text-anchor: start" x="515.3616" y="220.750001" transform="rotate(-0 515.3616 220.750001)">chicago_police</text>
   </g>
   <g id="text_6">
    <text style="fill: #262626; font: 10px 'Arial', 'Liberation Sans', 'DejaVu Sans', 'Bitstream Vera Sans', sans-serif; text-anchor: middle" x="448.8336" y="220.748154" transform="rotate(-0 448.8336 220.748154)">0.0%</text>
   </g>
   <g id="text_7">
    <text style="fill: #262626; font: 12px 'Arial', 'Liberation Sans', 'DejaVu Sans', 'Bitstream Vera Sans', sans-serif; text-anchor: middle" x="369" y="45.84" transform="rotate(-0 369 45.84)">Incidents by Source</text>
   </g>
  </g>
 </g>
</svg>
