<?xml version="1.0" encoding="utf-8" standalone="no"?>
<!DOCTYPE svg PUBLIC "-//W3C//DTD SVG 1.1//EN"
  "http://www.w3.org/Graphics/SVG/1.1/DTD/svg11.dtd">
<svg xmlns:xlink="http://www.w3.org/1999/xlink" width="720pt" height="432pt" viewBox="0 0 720 432" xmlns="http://www.w3.org/2000/svg" version="1.1">
 <metadata>
  <rdf:RDF xmlns:dc="http://purl.org/dc/elements/1.1/" xmlns:cc="http://creativecommons.org/ns#" xmlns:rdf="http://www.w3.org/1999/02/22-rdf-syntax-ns#">
   <cc:Work>
    <dc:type rdf:resource="http://purl.org/dc/dcmitype/StillImage"/>
    <dc:date>2026-02-20T01:28:21.272640</dc:date>
    <dc:format>image/svg+xml</dc:format>
    <dc:creator>
     <cc:Agent>
      <dc:title>Matplotlib v3.7.5, https://matplotlib.org/</dc:title>
     </cc:Agent>
    </dc:creator>
   </cc:Work>
  </rdf:RDF>
 </metadata>
 <defs>
  <style type="text/css">*{stroke-linejoin: round; stroke-linecap: butt}</style>
 </defs>
 <g id="figure_1">
  <g id="patch_1">
   <path d="M 0 432 
L 720 432 
L 720 0 
L 0 0 
z
" style="fill: #ffffff"/>
  </g>
  <g id="axes_1">
   <g id="matplotlib.axis_1"/>
   <g id="matplotlib.axis_2"/>
   <g id="patch_2">
    <path d="M 502.056 218.16 
C 502.056 200.706943 498.622004 183.423211 491.950101 167.295752 
C 485.278199 151.168293 475.497849 136.510037 463.167536 124.158009 
C 450.837223 111.805981 436.196198 101.999855 420.080503 95.299586 
C 403.964809 88.599317 386.687146 85.134915 369.234116 85.104206 
C 351.781085 85.073497 334.491338 88.477077 318.352165 95.120592 
C 302.212991 101.764107 287.537549 111.518651 275.163845 123.827211 
C 262.790141 136.135771 252.958268 150.759519 246.229654 166.863399 
C 239.501039 182.96728 236.006242 200.23882 235.944824 217.69177 
C 235.883406 235.144719 239.256559 252.440428 245.871666 268.591266 
C 252.486774 284.742104 262.21548 299.434687 274.50225 311.830029 
C 286.789019 324.225371 301.395445 334.082959 317.487461 340.839898 
C 333.579477 347.596838 350.844842 351.122019 368.297656 351.214146 
C 385.75047 351.306273 403.052088 347.963558 419.21454 341.376878 
C 435.376993 334.790199 450.086671 325.087359 462.503613 312.822419 
C 474.920555 300.557478 484.803828 285.96842 491.589071 269.888318 
C 498.374314 253.808215 501.929869 236.54908 502.052705 219.096455 
L 369 218.16 
z
" style="fill: #f77189"/>
   </g>
   <g id="patch_3">
    <path d="M 502.052705 219.096455 
C 502.053792 218.941928 502.054611 218.787399 502.05516 218.632869 
C 502.055709 218.478339 502.055989 218.323808 502.056 218.169277 
L 369 218.16 
z
" style="fill: #bb9832"/>
   </g>
   <g id="patch_4">
    <path d="M 502.056 218.169277 
C 502.056 218.167732 502.056 218.166187 502.056 218.164641 
C 502.056 218.163096 502.056 218.161551 502.056 218.160005 
L 369 218.16 
z
" style="fill: #50b131"/>
   </g>
   <g id="text_1">
    <text style="fill: #262626; font: 10px 'Arial', 'Liberation Sans', 'DejaVu Sans', 'Bitstream Vera Sans', sans-serif; text-anchor: end" x="222.639306" y="220.230884" transform="rotate(-0 222.639306 220.230884)">newsapi</text>
   </g>
   <g id="text_2">
    <text style="fill: #262626; font: 10px 'Arial', 'Liberation Sans', 'DejaVu Sans', 'Bitstream Vera Sans', sans-serif; text-anchor: middle" x="289.166894" y="220.464999" transform="rotate(-0 289.166894 220.464999)">99.9%</text>
   </g>
   <g id="text_3">
    <text style="fill: #262626; font: 10px 'Arial', 'Liberation Sans', 'DejaVu Sans', 'Bitstream Vera Sans', sans-serif; text-anchor: start" x="515.360676" y="221.266093" transform="rotate(-0 515.360676 221.266093)">chicago_pd</text>
   </g>
   <g id="text_4">
    <text style="fill: #262626; font: 10px 'Arial', 'Liberation Sans', 'DejaVu Sans', 'Bitstream Vera Sans', sans-serif; text-anchor: middle" x="448.833096" y="221.029659" transform="rotate(-0 448.833096 221.029659)">0.1%</text>
   </g>
   <g id="text_5">
    <text style="fill: #262626; font: 10px 'Arial', 'Liberation Sans', 'DejaVu Sans', 'Bitstream Vera Sans', sans-serif; text-anchor: start" x="515.3616" y="220.751043" transform="rotate(-0 515.3616 220.751043)">chicago_police</text>
   </g>
   <g id="text_6">
    <text style="fill: #262626; font: 10px 'Arial', 'Liberation Sans', 'DejaVu Sans', 'Bitstream Vera Sans', sans-serif; text-anchor: middle" x="448.8336" y="220.748722" transform="rotate(-0 448.8336 220.748722)">0.0%</text>
   </g>
   <g id="text_7">
    <text style="fill: #262626; font: 12px 'Arial', 'Liberation Sans', 'DejaVu Sans', 'Bitstream Vera Sans', sans-serif; text-anchor: middle" x="369" y="45.84" transform="rotate(-0 369 45.84)">Incidents by Source</text>
   </g>
  </g>
 </g>
</svg>
