<?xml version="1.0" encoding="utf-8" standalone="no"?>
<!DOCTYPE svg PUBLIC "-//W3C//DTD SVG 1.1//EN"
  "http://www.w3.org/Graphics/SVG/1.1/DTD/svg11.dtd">
<svg xmlns:xlink="http://www.w3.org/1999/xlink" width="720pt" height="432pt" viewBox="0 0 720 432" xmlns="http://www.w3.org/2000/svg" version="1.1">
 <metadata>
  <rdf:RDF xmlns:dc="http://purl.org/dc/elements/1.1/" xmlns:cc="http://creativecommons.org/ns#" xmlns:rdf="http://www.w3.org/1999/02/22-rdf-syntax-ns#">
   <cc:Work>
    <dc:type rdf:resource="http://purl.org/dc/dcmitype/StillImage"/>
    <dc:date>2026-01-31T01:24:05.359209</dc:date>
    <dc:format>image/svg+xml</dc:format>
    <dc:creator>
     <cc:Agent>
      <dc:title>Matplotlib v3.7.5, https://matplotlib.org/</dc:title>
     </cc:Agent>
    </dc:creator>
   </cc:Work>
  </rdf:RDF>
 </metadata>
 <defs>
  <style type="text/css">*{stroke-linejoin: round; stroke-linecap: butt}</style>
 </defs>
 <g id="figure_1">
  <g id="patch_1">
   <path d="M 0 432 
L 720 432 
L 720 0 
L 0 0 
z
" style="fill: #ffffff"/>
  </g>
  <g id="axes_1">
   <g id="matplotlib.axis_1"/>
   <g id="matplotlib.axis_2"/>
   <g id="patch_2">
    <path d="M 502.056 218.16 
C 502.056 200.707878 498.622372 183.425055 491.951164 167.298322 
C 485.279957 151.171588 475.500601 136.513826 463.171465 124.161946 
C 450.84233 111.810065 436.202618 102.003709 420.088207 95.302789 
C 403.973797 88.601869 386.697332 85.136393 369.24524 85.104226 
C 351.793148 85.072059 334.504026 88.473827 318.365024 95.1153 
C 302.226022 101.756772 287.55026 111.509095 275.175676 123.815443 
C 262.801092 136.121792 252.96777 150.743405 246.237161 166.845437 
C 239.506551 182.947469 236.009237 200.217517 235.944904 217.66952 
C 235.880571 235.121523 239.250467 252.416886 245.862181 268.568102 
C 252.473896 284.719318 262.199153 299.413029 274.482673 311.810275 
C 286.766192 324.20752 301.369656 334.067775 317.459255 340.828051 
C 333.548855 347.588328 350.812428 351.117467 368.264283 351.213966 
C 385.716137 351.310465 403.017682 347.972453 419.181057 341.390518 
C 435.344432 334.808584 450.056043 325.110426 462.475908 312.849777 
C 474.895772 300.589128 484.782926 286.003863 491.572846 269.926751 
C 498.362767 253.849639 501.923719 236.5926 502.052384 219.140953 
L 369 218.16 
z
" style="fill: #f77189"/>
   </g>
   <g id="patch_3">
    <path d="M 502.052384 219.140953 
C 502.053577 218.97908 502.054475 218.817204 502.055078 218.655328 
C 502.055681 218.493452 502.055988 218.331575 502.056 218.169697 
L 369 218.16 
z
" style="fill: #bb9832"/>
   </g>
   <g id="patch_4">
    <path d="M 502.056 218.169697 
C 502.056 218.168079 502.056 218.16646 502.056 218.164841 
C 502.056 218.163222 502.056 218.161604 502.056 218.159985 
L 369 218.16 
z
" style="fill: #50b131"/>
   </g>
   <g id="text_1">
    <text style="fill: #262626; font: 10px 'Arial', 'Liberation Sans', 'DejaVu Sans', 'Bitstream Vera Sans', sans-serif; text-anchor: end" x="222.639394" y="220.20641" transform="rotate(-0 222.639394 220.20641)">newsapi</text>
   </g>
   <g id="text_2">
    <text style="fill: #262626; font: 10px 'Arial', 'Liberation Sans', 'DejaVu Sans', 'Bitstream Vera Sans', sans-serif; text-anchor: middle" x="289.166942" y="220.45165" transform="rotate(-0 289.166942 220.45165)">99.9%</text>
   </g>
   <g id="text_3">
    <text style="fill: #262626; font: 10px 'Arial', 'Liberation Sans', 'DejaVu Sans', 'Bitstream Vera Sans', sans-serif; text-anchor: start" x="515.360586" y="221.290799" transform="rotate(-0 515.360586 221.290799)">chicago_pd</text>
   </g>
   <g id="text_4">
    <text style="fill: #262626; font: 10px 'Arial', 'Liberation Sans', 'DejaVu Sans', 'Bitstream Vera Sans', sans-serif; text-anchor: middle" x="448.833047" y="221.043134" transform="rotate(-0 448.833047 221.043134)">0.1%</text>
   </g>
   <g id="text_5">
    <text style="fill: #262626; font: 10px 'Arial', 'Liberation Sans', 'DejaVu Sans', 'Bitstream Vera Sans', sans-serif; text-anchor: start" x="515.3616" y="220.751263" transform="rotate(-0 515.3616 220.751263)">chicago_police</text>
   </g>
   <g id="text_6">
    <text style="fill: #262626; font: 10px 'Arial', 'Liberation Sans', 'DejaVu Sans', 'Bitstream Vera Sans', sans-serif; text-anchor: middle" x="448.8336" y="220.748842" transform="rotate(-0 448.8336 220.748842)">0.0%</text>
   </g>
   <g id="text_7">
    <text style="fill: #262626; font: 12px 'Arial', 'Liberation Sans', 'DejaVu Sans', 'Bitstream Vera Sans', sans-serif; text-anchor: middle" x="369" y="45.84" transform="rotate(-0 369 45.84)">Incidents by Source</text>
   </g>
  </g>
 </g>
</svg>
