<?xml version="1.0" encoding="utf-8" standalone="no"?>
<!DOCTYPE svg PUBLIC "-//W3C//DTD SVG 1.1//EN"
  "http://www.w3.org/Graphics/SVG/1.1/DTD/svg11.dtd">
<svg xmlns:xlink="http://www.w3.org/1999/xlink" width="720pt" height="432pt" viewBox="0 0 720 432" xmlns="http://www.w3.org/2000/svg" version="1.1">
 <metadata>
  <rdf:RDF xmlns:dc="http://purl.org/dc/elements/1.1/" xmlns:cc="http://creativecommons.org/ns#" xmlns:rdf="http://www.w3.org/1999/02/22-rdf-syntax-ns#">
   <cc:Work>
    <dc:type rdf:resource="http://purl.org/dc/dcmitype/StillImage"/>
    <dc:date>2025-03-10T00:52:36.488541</dc:date>
    <dc:format>image/svg+xml</dc:format>
    <dc:creator>
     <cc:Agent>
      <dc:title>Matplotlib v3.7.5, https://matplotlib.org/</dc:title>
     </cc:Agent>
    </dc:creator>
   </cc:Work>
  </rdf:RDF>
 </metadata>
 <defs>
  <style type="text/css">*{stroke-linejoin: round; stroke-linecap: butt}</style>
 </defs>
 <g id="figure_1">
  <g id="patch_1">
   <path d="M 0 432 
L 720 432 
L 720 0 
L 0 0 
z
" style="fill: #ffffff"/>
  </g>
  <g id="axes_1">
   <g id="matplotlib.axis_1"/>
   <g id="matplotlib.axis_2"/>
   <g id="patch_2">
    <path d="M 502.056 218.16 
C 502.056 200.780342 498.650826 183.567878 492.033318 167.497374 
C 485.41581 151.426869 475.713291 136.807525 463.475226 124.467253 
C 451.237161 112.126982 436.699016 102.303214 420.684103 95.552281 
C 404.669189 88.801349 387.485641 85.253143 370.106584 85.108602 
C 352.727526 84.964061 335.487338 88.225966 319.362354 94.709592 
C 303.237369 101.193218 288.537838 110.773818 276.096213 122.908829 
C 263.654589 135.04384 253.710251 149.499782 246.826361 165.457996 
C 239.942472 181.41621 236.251478 198.569655 235.962406 215.946909 
C 235.673334 233.324164 238.791746 250.590884 245.141041 266.769233 
C 251.490337 282.947581 260.948354 297.726283 272.979473 310.268401 
C 285.010591 322.810518 299.38333 332.874737 315.283741 339.891108 
C 331.184151 346.907479 348.306306 350.741004 365.680555 351.174587 
C 383.054805 351.60817 400.346862 348.633468 416.577457 342.418942 
C 432.808051 336.204417 447.664901 326.869636 460.306643 314.943242 
C 472.948386 303.016848 483.13179 288.728308 490.280157 272.8868 
C 497.428524 257.045292 501.404316 239.955611 501.98238 222.585569 
L 369 218.16 
z
" style="fill: #f77189"/>
   </g>
   <g id="patch_3">
    <path d="M 501.98238 222.585569 
C 502.006675 221.855544 502.024958 221.125331 502.037227 220.395005 
C 502.049497 219.664678 502.055752 218.934263 502.055993 218.203834 
L 369 218.16 
z
" style="fill: #bb9832"/>
   </g>
   <g id="patch_4">
    <path d="M 502.055993 218.203834 
C 502.055995 218.19653 502.055997 218.189226 502.055998 218.181921 
C 502.055999 218.174617 502.056 218.167313 502.056 218.160009 
L 369 218.16 
z
" style="fill: #50b131"/>
   </g>
   <g id="text_1">
    <text style="fill: #262626; font: 10px 'Arial', 'Liberation Sans', 'DejaVu Sans', 'Bitstream Vera Sans', sans-serif; text-anchor: end" x="222.658647" y="218.311538" transform="rotate(-0 222.658647 218.311538)">newsapi</text>
   </g>
   <g id="text_2">
    <text style="fill: #262626; font: 10px 'Arial', 'Liberation Sans', 'DejaVu Sans', 'Bitstream Vera Sans', sans-serif; text-anchor: middle" x="289.177444" y="219.418083" transform="rotate(-0 289.177444 219.418083)">99.5%</text>
   </g>
   <g id="text_3">
    <text style="fill: #262626; font: 10px 'Arial', 'Liberation Sans', 'DejaVu Sans', 'Bitstream Vera Sans', sans-serif; text-anchor: start" x="515.34095" y="223.204442" transform="rotate(-0 515.34095 223.204442)">chicago_pd</text>
   </g>
   <g id="text_4">
    <text style="fill: #262626; font: 10px 'Arial', 'Liberation Sans', 'DejaVu Sans', 'Bitstream Vera Sans', sans-serif; text-anchor: middle" x="448.822336" y="222.08694" transform="rotate(-0 448.822336 222.08694)">0.5%</text>
   </g>
   <g id="text_5">
    <text style="fill: #262626; font: 10px 'Arial', 'Liberation Sans', 'DejaVu Sans', 'Bitstream Vera Sans', sans-serif; text-anchor: start" x="515.361598" y="220.770051" transform="rotate(-0 515.361598 220.770051)">chicago_police</text>
   </g>
   <g id="text_6">
    <text style="fill: #262626; font: 10px 'Arial', 'Liberation Sans', 'DejaVu Sans', 'Bitstream Vera Sans', sans-serif; text-anchor: middle" x="448.833599" y="220.75909" transform="rotate(-0 448.833599 220.75909)">0.0%</text>
   </g>
   <g id="text_7">
    <text style="fill: #262626; font: 12px 'Arial', 'Liberation Sans', 'DejaVu Sans', 'Bitstream Vera Sans', sans-serif; text-anchor: middle" x="369" y="45.84" transform="rotate(-0 369 45.84)">Incidents by Source</text>
   </g>
  </g>
 </g>
</svg>
