<?xml version="1.0" encoding="utf-8" standalone="no"?>
<!DOCTYPE svg PUBLIC "-//W3C//DTD SVG 1.1//EN"
  "http://www.w3.org/Graphics/SVG/1.1/DTD/svg11.dtd">
<svg xmlns:xlink="http://www.w3.org/1999/xlink" width="720pt" height="432pt" viewBox="0 0 720 432" xmlns="http://www.w3.org/2000/svg" version="1.1">
 <metadata>
  <rdf:RDF xmlns:dc="http://purl.org/dc/elements/1.1/" xmlns:cc="http://creativecommons.org/ns#" xmlns:rdf="http://www.w3.org/1999/02/22-rdf-syntax-ns#">
   <cc:Work>
    <dc:type rdf:resource="http://purl.org/dc/dcmitype/StillImage"/>
    <dc:date>2026-07-09T03:43:38.770055</dc:date>
    <dc:format>image/svg+xml</dc:format>
    <dc:creator>
     <cc:Agent>
      <dc:title>Matplotlib v3.7.5, https://matplotlib.org/</dc:title>
     </cc:Agent>
    </dc:creator>
   </cc:Work>
  </rdf:RDF>
 </metadata>
 <defs>
  <style type="text/css">*{stroke-linejoin: round; stroke-linecap: butt}</style>
 </defs>
 <g id="figure_1">
  <g id="patch_1">
   <path d="M 0 432 
L 720 432 
L 720 0 
L 0 0 
z
" style="fill: #ffffff"/>
  </g>
  <g id="axes_1">
   <g id="matplotlib.axis_1"/>
   <g id="matplotlib.axis_2"/>
   <g id="patch_2">
    <path d="M 502.056 218.16 
C 502.056 200.702475 498.620245 183.414405 491.945025 167.283484 
C 485.269805 151.152562 475.48471 136.491946 463.148774 124.139218 
C 450.812839 111.78649 436.165549 101.981459 420.043723 95.284301 
C 403.921897 88.587142 386.638518 85.127872 369.181009 85.104123 
C 351.7235 85.080374 334.430772 88.492607 318.290785 95.145876 
C 302.150797 101.799146 287.476883 111.564288 275.107385 123.883407 
C 262.737886 136.202526 252.912938 150.836465 246.193854 166.949164 
C 239.47477 183.061864 235.991991 200.340522 235.944492 217.797983 
C 235.896994 235.255443 239.285699 252.552797 245.917005 268.70182 
C 252.548312 284.850844 262.293483 299.538029 274.595763 311.924275 
C 286.898043 324.310521 301.518602 334.155368 317.622147 340.896365 
C 333.725691 347.637363 350.999595 351.143645 368.456975 351.214892 
C 385.914355 351.286139 403.216302 347.920969 419.374332 341.311638 
C 435.532362 334.702306 450.23279 324.977125 462.635761 312.691706 
C 475.038731 300.406287 484.903459 285.799135 491.666357 269.704776 
C 498.429256 253.610417 501.959034 236.341299 502.05403 218.884032 
L 369 218.16 
z
" style="fill: #f77189"/>
   </g>
   <g id="patch_3">
    <path d="M 502.05403 218.884032 
C 502.05468 218.764557 502.055169 218.645082 502.055498 218.525606 
C 502.055826 218.40613 502.055993 218.286653 502.056 218.167177 
L 369 218.16 
z
" style="fill: #bb9832"/>
   </g>
   <g id="patch_4">
    <path d="M 502.056 218.167177 
C 502.056 218.165982 502.056 218.164787 502.056 218.163592 
C 502.056 218.162398 502.056 218.161203 502.056 218.160008 
L 369 218.16 
z
" style="fill: #50b131"/>
   </g>
   <g id="text_1">
    <text style="fill: #262626; font: 10px 'Arial', 'Liberation Sans', 'DejaVu Sans', 'Bitstream Vera Sans', sans-serif; text-anchor: end" x="222.638942" y="220.347718" transform="rotate(-0 222.638942 220.347718)">newsapi</text>
   </g>
   <g id="text_2">
    <text style="fill: #262626; font: 10px 'Arial', 'Liberation Sans', 'DejaVu Sans', 'Bitstream Vera Sans', sans-serif; text-anchor: middle" x="289.166695" y="220.528727" transform="rotate(-0 289.166695 220.528727)">99.9%</text>
   </g>
   <g id="text_3">
    <text style="fill: #262626; font: 10px 'Arial', 'Liberation Sans', 'DejaVu Sans', 'Bitstream Vera Sans', sans-serif; text-anchor: start" x="515.361047" y="221.148104" transform="rotate(-0 515.361047 221.148104)">chicago_pd</text>
   </g>
   <g id="text_4">
    <text style="fill: #262626; font: 10px 'Arial', 'Liberation Sans', 'DejaVu Sans', 'Bitstream Vera Sans', sans-serif; text-anchor: middle" x="448.833299" y="220.965301" transform="rotate(-0 448.833299 220.965301)">0.1%</text>
   </g>
   <g id="text_5">
    <text style="fill: #262626; font: 10px 'Arial', 'Liberation Sans', 'DejaVu Sans', 'Bitstream Vera Sans', sans-serif; text-anchor: start" x="515.3616" y="220.749889" transform="rotate(-0 515.3616 220.749889)">chicago_police</text>
   </g>
   <g id="text_6">
    <text style="fill: #262626; font: 10px 'Arial', 'Liberation Sans', 'DejaVu Sans', 'Bitstream Vera Sans', sans-serif; text-anchor: middle" x="448.8336" y="220.748093" transform="rotate(-0 448.8336 220.748093)">0.0%</text>
   </g>
   <g id="text_7">
    <text style="fill: #262626; font: 12px 'Arial', 'Liberation Sans', 'DejaVu Sans', 'Bitstream Vera Sans', sans-serif; text-anchor: middle" x="369" y="45.84" transform="rotate(-0 369 45.84)">Incidents by Source</text>
   </g>
  </g>
 </g>
</svg>
