<?xml version="1.0" encoding="utf-8" standalone="no"?>
<!DOCTYPE svg PUBLIC "-//W3C//DTD SVG 1.1//EN"
  "http://www.w3.org/Graphics/SVG/1.1/DTD/svg11.dtd">
<svg xmlns:xlink="http://www.w3.org/1999/xlink" width="720pt" height="432pt" viewBox="0 0 720 432" xmlns="http://www.w3.org/2000/svg" version="1.1">
 <metadata>
  <rdf:RDF xmlns:dc="http://purl.org/dc/elements/1.1/" xmlns:cc="http://creativecommons.org/ns#" xmlns:rdf="http://www.w3.org/1999/02/22-rdf-syntax-ns#">
   <cc:Work>
    <dc:type rdf:resource="http://purl.org/dc/dcmitype/StillImage"/>
    <dc:date>2025-12-10T06:25:25.632608</dc:date>
    <dc:format>image/svg+xml</dc:format>
    <dc:creator>
     <cc:Agent>
      <dc:title>Matplotlib v3.7.5, https://matplotlib.org/</dc:title>
     </cc:Agent>
    </dc:creator>
   </cc:Work>
  </rdf:RDF>
 </metadata>
 <defs>
  <style type="text/css">*{stroke-linejoin: round; stroke-linecap: butt}</style>
 </defs>
 <g id="figure_1">
  <g id="patch_1">
   <path d="M 0 432 
L 720 432 
L 720 0 
L 0 0 
z
" style="fill: #ffffff"/>
  </g>
  <g id="axes_1">
   <g id="matplotlib.axis_1"/>
   <g id="matplotlib.axis_2"/>
   <g id="patch_2">
    <path d="M 502.056 218.16 
C 502.056 200.710857 498.623544 183.430926 491.954548 167.306501 
C 485.285551 151.182076 475.509359 136.525888 463.18397 124.174475 
C 450.858582 111.823063 436.223047 102.015979 420.112725 95.312987 
C 404.002402 88.609996 386.729749 85.1411 369.280645 85.104296 
C 351.831541 85.067492 334.544408 88.463493 318.405952 95.098465 
C 302.267497 101.733436 287.590722 111.478694 275.213339 123.778003 
C 262.835957 136.077312 252.998025 150.692129 246.261069 166.788278 
C 239.524112 182.884426 236.018792 200.149724 235.945184 217.598712 
C 235.871576 235.0477 239.231107 252.341957 245.832024 268.494371 
C 252.432941 284.646785 262.147221 299.344083 274.420396 311.747379 
C 286.693571 324.150676 301.287605 334.019412 317.369508 340.790304 
C 333.451411 347.561196 350.709277 351.102925 368.158071 351.213336 
C 385.606865 351.323748 402.908169 348.000702 419.07447 341.433868 
C 435.240771 334.867035 449.958526 325.183777 462.387682 312.93679 
C 474.816838 300.689804 484.716334 286.116618 491.521131 270.049032 
C 498.325928 253.981445 501.90405 236.731088 502.051264 219.282566 
L 369 218.16 
z
" style="fill: #f77189"/>
   </g>
   <g id="patch_3">
    <path d="M 502.051264 219.282566 
C 502.052827 219.097327 502.054003 218.912086 502.054793 218.726842 
C 502.055582 218.541598 502.055984 218.356353 502.056 218.171108 
L 369 218.16 
z
" style="fill: #bb9832"/>
   </g>
   <g id="patch_4">
    <path d="M 502.056 218.171108 
C 502.056 218.169255 502.056 218.167403 502.056 218.165551 
C 502.056 218.163698 502.056 218.161846 502.056 218.159993 
L 369 218.16 
z
" style="fill: #50b131"/>
   </g>
   <g id="text_1">
    <text style="fill: #262626; font: 10px 'Arial', 'Liberation Sans', 'DejaVu Sans', 'Bitstream Vera Sans', sans-serif; text-anchor: end" x="222.639702" y="220.128521" transform="rotate(-0 222.639702 220.128521)">newsapi</text>
   </g>
   <g id="text_2">
    <text style="fill: #262626; font: 10px 'Arial', 'Liberation Sans', 'DejaVu Sans', 'Bitstream Vera Sans', sans-serif; text-anchor: middle" x="289.16711" y="220.409165" transform="rotate(-0 289.16711 220.409165)">99.9%</text>
   </g>
   <g id="text_3">
    <text style="fill: #262626; font: 10px 'Arial', 'Liberation Sans', 'DejaVu Sans', 'Bitstream Vera Sans', sans-serif; text-anchor: start" x="515.360272" y="221.369464" transform="rotate(-0 515.360272 221.369464)">chicago_pd</text>
   </g>
   <g id="text_4">
    <text style="fill: #262626; font: 10px 'Arial', 'Liberation Sans', 'DejaVu Sans', 'Bitstream Vera Sans', sans-serif; text-anchor: middle" x="448.832876" y="221.086043" transform="rotate(-0 448.832876 221.086043)">0.1%</text>
   </g>
   <g id="text_5">
    <text style="fill: #262626; font: 10px 'Arial', 'Liberation Sans', 'DejaVu Sans', 'Bitstream Vera Sans', sans-serif; text-anchor: start" x="515.3616" y="220.752043" transform="rotate(-0 515.3616 220.752043)">chicago_police</text>
   </g>
   <g id="text_6">
    <text style="fill: #262626; font: 10px 'Arial', 'Liberation Sans', 'DejaVu Sans', 'Bitstream Vera Sans', sans-serif; text-anchor: middle" x="448.8336" y="220.749268" transform="rotate(-0 448.8336 220.749268)">0.0%</text>
   </g>
   <g id="text_7">
    <text style="fill: #262626; font: 12px 'Arial', 'Liberation Sans', 'DejaVu Sans', 'Bitstream Vera Sans', sans-serif; text-anchor: middle" x="369" y="45.84" transform="rotate(-0 369 45.84)">Incidents by Source</text>
   </g>
  </g>
 </g>
</svg>
