<?xml version="1.0" encoding="utf-8" standalone="no"?>
<!DOCTYPE svg PUBLIC "-//W3C//DTD SVG 1.1//EN"
  "http://www.w3.org/Graphics/SVG/1.1/DTD/svg11.dtd">
<svg xmlns:xlink="http://www.w3.org/1999/xlink" width="720pt" height="432pt" viewBox="0 0 720 432" xmlns="http://www.w3.org/2000/svg" version="1.1">
 <metadata>
  <rdf:RDF xmlns:dc="http://purl.org/dc/elements/1.1/" xmlns:cc="http://creativecommons.org/ns#" xmlns:rdf="http://www.w3.org/1999/02/22-rdf-syntax-ns#">
   <cc:Work>
    <dc:type rdf:resource="http://purl.org/dc/dcmitype/StillImage"/>
    <dc:date>2025-05-25T06:18:36.269313</dc:date>
    <dc:format>image/svg+xml</dc:format>
    <dc:creator>
     <cc:Agent>
      <dc:title>Matplotlib v3.7.5, https://matplotlib.org/</dc:title>
     </cc:Agent>
    </dc:creator>
   </cc:Work>
  </rdf:RDF>
 </metadata>
 <defs>
  <style type="text/css">*{stroke-linejoin: round; stroke-linecap: butt}</style>
 </defs>
 <g id="figure_1">
  <g id="patch_1">
   <path d="M 0 432 
L 720 432 
L 720 0 
L 0 0 
z
" style="fill: #ffffff"/>
  </g>
  <g id="axes_1">
   <g id="matplotlib.axis_1"/>
   <g id="matplotlib.axis_2"/>
   <g id="patch_2">
    <path d="M 502.056 218.16 
C 502.056 200.73895 498.634587 183.486294 491.98643 167.383655 
C 485.338272 151.281015 475.591893 136.639693 463.301832 124.292734 
C 451.011771 111.945776 436.415623 102.131875 420.343862 95.409412 
C 404.272102 88.686949 387.035433 85.185885 369.614569 85.105419 
C 352.193704 85.024954 334.925429 88.366642 318.792255 94.940353 
C 302.65908 101.514064 287.972897 111.192712 275.569304 123.425613 
C 263.16571 135.658513 253.284496 150.209177 246.487872 166.249716 
C 239.691247 182.290255 236.110607 199.510569 235.949677 216.930876 
C 235.788748 234.351183 239.050641 251.634708 245.549764 267.798074 
C 252.048888 283.961439 261.659599 298.69217 273.835079 311.152133 
C 286.010558 323.612097 300.515427 333.560413 316.524402 340.431054 
C 332.533377 347.301696 349.736969 350.961836 367.156346 351.203226 
C 384.575724 351.444616 401.874132 348.262589 418.067343 341.838191 
C 434.260555 335.413793 449.03552 325.871224 461.551587 313.753425 
C 474.067654 301.635626 484.082861 287.176863 491.027372 271.199793 
C 497.971883 255.222723 501.711446 238.036221 502.033292 220.618144 
L 369 218.16 
z
" style="fill: #f77189"/>
   </g>
   <g id="patch_3">
    <path d="M 502.033292 220.618144 
C 502.040786 220.212553 502.046425 219.80693 502.05021 219.401287 
C 502.053994 218.995644 502.055924 218.589987 502.055998 218.184327 
L 369 218.16 
z
" style="fill: #bb9832"/>
   </g>
   <g id="patch_4">
    <path d="M 502.055998 218.184327 
C 502.055999 218.18027 502.055999 218.176213 502.055999 218.172157 
C 502.056 218.1681 502.056 218.164044 502.056 218.159987 
L 369 218.16 
z
" style="fill: #50b131"/>
   </g>
   <g id="text_1">
    <text style="fill: #262626; font: 10px 'Arial', 'Liberation Sans', 'DejaVu Sans', 'Bitstream Vera Sans', sans-serif; text-anchor: end" x="222.644645" y="219.393901" transform="rotate(-0 222.644645 219.393901)">newsapi</text>
   </g>
   <g id="text_2">
    <text style="fill: #262626; font: 10px 'Arial', 'Liberation Sans', 'DejaVu Sans', 'Bitstream Vera Sans', sans-serif; text-anchor: middle" x="289.169806" y="220.008463" transform="rotate(-0 289.169806 220.008463)">99.7%</text>
   </g>
   <g id="text_3">
    <text style="fill: #262626; font: 10px 'Arial', 'Liberation Sans', 'DejaVu Sans', 'Bitstream Vera Sans', sans-serif; text-anchor: start" x="515.355231" y="222.111353" transform="rotate(-0 515.355231 222.111353)">chicago_pd</text>
   </g>
   <g id="text_4">
    <text style="fill: #262626; font: 10px 'Arial', 'Liberation Sans', 'DejaVu Sans', 'Bitstream Vera Sans', sans-serif; text-anchor: middle" x="448.830126" y="221.49071" transform="rotate(-0 448.830126 221.49071)">0.3%</text>
   </g>
   <g id="text_5">
    <text style="fill: #262626; font: 10px 'Arial', 'Liberation Sans', 'DejaVu Sans', 'Bitstream Vera Sans', sans-serif; text-anchor: start" x="515.361599" y="220.75931" transform="rotate(-0 515.361599 220.75931)">chicago_police</text>
   </g>
   <g id="text_6">
    <text style="fill: #262626; font: 10px 'Arial', 'Liberation Sans', 'DejaVu Sans', 'Bitstream Vera Sans', sans-serif; text-anchor: middle" x="448.8336" y="220.753232" transform="rotate(-0 448.8336 220.753232)">0.0%</text>
   </g>
   <g id="text_7">
    <text style="fill: #262626; font: 12px 'Arial', 'Liberation Sans', 'DejaVu Sans', 'Bitstream Vera Sans', sans-serif; text-anchor: middle" x="369" y="45.84" transform="rotate(-0 369 45.84)">Incidents by Source</text>
   </g>
  </g>
 </g>
</svg>
