<?xml version="1.0" encoding="utf-8" standalone="no"?>
<!DOCTYPE svg PUBLIC "-//W3C//DTD SVG 1.1//EN"
  "http://www.w3.org/Graphics/SVG/1.1/DTD/svg11.dtd">
<svg xmlns:xlink="http://www.w3.org/1999/xlink" width="720pt" height="432pt" viewBox="0 0 720 432" xmlns="http://www.w3.org/2000/svg" version="1.1">
 <metadata>
  <rdf:RDF xmlns:dc="http://purl.org/dc/elements/1.1/" xmlns:cc="http://creativecommons.org/ns#" xmlns:rdf="http://www.w3.org/1999/02/22-rdf-syntax-ns#">
   <cc:Work>
    <dc:type rdf:resource="http://purl.org/dc/dcmitype/StillImage"/>
    <dc:date>2026-03-07T01:24:27.837675</dc:date>
    <dc:format>image/svg+xml</dc:format>
    <dc:creator>
     <cc:Agent>
      <dc:title>Matplotlib v3.7.5, https://matplotlib.org/</dc:title>
     </cc:Agent>
    </dc:creator>
   </cc:Work>
  </rdf:RDF>
 </metadata>
 <defs>
  <style type="text/css">*{stroke-linejoin: round; stroke-linecap: butt}</style>
 </defs>
 <g id="figure_1">
  <g id="patch_1">
   <path d="M 0 432 
L 720 432 
L 720 0 
L 0 0 
z
" style="fill: #ffffff"/>
  </g>
  <g id="axes_1">
   <g id="matplotlib.axis_1"/>
   <g id="matplotlib.axis_2"/>
   <g id="patch_2">
    <path d="M 502.056 218.16 
C 502.056 200.706382 498.621783 183.422106 491.949464 167.294212 
C 485.277146 151.166319 475.4962 136.507766 463.165182 124.155651 
C 450.834163 111.803535 436.192352 101.997546 420.075888 95.297667 
C 403.959424 88.597789 386.681043 85.13403 369.227451 85.104194 
C 351.773858 85.074359 334.483737 88.479024 318.344461 95.123764 
C 302.205185 101.768503 287.529934 111.524376 275.156757 123.834262 
C 262.78358 136.144147 252.952577 150.769174 246.225158 166.874161 
C 239.497739 182.979149 236.004449 200.251583 235.944778 217.705099 
C 235.885106 235.158615 239.26021 252.454532 245.877351 268.605143 
C 252.494491 284.755754 262.225264 299.44766 274.51398 311.841862 
C 286.802697 324.236064 301.410897 334.092054 317.504361 340.846993 
C 333.597824 347.601933 350.864262 351.124743 368.31765 351.21425 
C 385.771039 351.303758 403.072699 347.958224 419.234599 341.368702 
C 435.396498 334.77918 450.105017 325.073536 462.520207 312.806025 
C 474.935397 300.538514 484.816345 285.947183 491.598785 269.86529 
C 498.381226 253.783397 501.933547 236.523007 502.05289 219.069796 
L 369 218.16 
z
" style="fill: #f77189"/>
   </g>
   <g id="patch_3">
    <path d="M 502.05289 219.069796 
C 502.053916 218.919668 502.054689 218.769538 502.055207 218.619407 
C 502.055725 218.469276 502.05599 218.319144 502.056 218.169012 
L 369 218.16 
z
" style="fill: #bb9832"/>
   </g>
   <g id="patch_4">
    <path d="M 502.056 218.169012 
C 502.056 218.167511 502.056 218.16601 502.056 218.164508 
C 502.056 218.163007 502.056 218.161506 502.056 218.160004 
L 369 218.16 
z
" style="fill: #50b131"/>
   </g>
   <g id="text_1">
    <text style="fill: #262626; font: 10px 'Arial', 'Liberation Sans', 'DejaVu Sans', 'Bitstream Vera Sans', sans-serif; text-anchor: end" x="222.639255" y="220.245547" transform="rotate(-0 222.639255 220.245547)">newsapi</text>
   </g>
   <g id="text_2">
    <text style="fill: #262626; font: 10px 'Arial', 'Liberation Sans', 'DejaVu Sans', 'Bitstream Vera Sans', sans-serif; text-anchor: middle" x="289.166867" y="220.472997" transform="rotate(-0 289.166867 220.472997)">99.9%</text>
   </g>
   <g id="text_3">
    <text style="fill: #262626; font: 10px 'Arial', 'Liberation Sans', 'DejaVu Sans', 'Bitstream Vera Sans', sans-serif; text-anchor: start" x="515.360728" y="221.251285" transform="rotate(-0 515.360728 221.251285)">chicago_pd</text>
   </g>
   <g id="text_4">
    <text style="fill: #262626; font: 10px 'Arial', 'Liberation Sans', 'DejaVu Sans', 'Bitstream Vera Sans', sans-serif; text-anchor: middle" x="448.833124" y="221.021582" transform="rotate(-0 448.833124 221.021582)">0.1%</text>
   </g>
   <g id="text_5">
    <text style="fill: #262626; font: 10px 'Arial', 'Liberation Sans', 'DejaVu Sans', 'Bitstream Vera Sans', sans-serif; text-anchor: start" x="515.3616" y="220.750897" transform="rotate(-0 515.3616 220.750897)">chicago_police</text>
   </g>
   <g id="text_6">
    <text style="fill: #262626; font: 10px 'Arial', 'Liberation Sans', 'DejaVu Sans', 'Bitstream Vera Sans', sans-serif; text-anchor: middle" x="448.8336" y="220.748642" transform="rotate(-0 448.8336 220.748642)">0.0%</text>
   </g>
   <g id="text_7">
    <text style="fill: #262626; font: 12px 'Arial', 'Liberation Sans', 'DejaVu Sans', 'Bitstream Vera Sans', sans-serif; text-anchor: middle" x="369" y="45.84" transform="rotate(-0 369 45.84)">Incidents by Source</text>
   </g>
  </g>
 </g>
</svg>
