<?xml version="1.0" encoding="utf-8" standalone="no"?>
<!DOCTYPE svg PUBLIC "-//W3C//DTD SVG 1.1//EN"
  "http://www.w3.org/Graphics/SVG/1.1/DTD/svg11.dtd">
<svg xmlns:xlink="http://www.w3.org/1999/xlink" width="720pt" height="432pt" viewBox="0 0 720 432" xmlns="http://www.w3.org/2000/svg" version="1.1">
 <metadata>
  <rdf:RDF xmlns:dc="http://purl.org/dc/elements/1.1/" xmlns:cc="http://creativecommons.org/ns#" xmlns:rdf="http://www.w3.org/1999/02/22-rdf-syntax-ns#">
   <cc:Work>
    <dc:type rdf:resource="http://purl.org/dc/dcmitype/StillImage"/>
    <dc:date>2026-06-02T16:43:07.686445</dc:date>
    <dc:format>image/svg+xml</dc:format>
    <dc:creator>
     <cc:Agent>
      <dc:title>Matplotlib v3.7.5, https://matplotlib.org/</dc:title>
     </cc:Agent>
    </dc:creator>
   </cc:Work>
  </rdf:RDF>
 </metadata>
 <defs>
  <style type="text/css">*{stroke-linejoin: round; stroke-linecap: butt}</style>
 </defs>
 <g id="figure_1">
  <g id="patch_1">
   <path d="M 0 432 
L 720 432 
L 720 0 
L 0 0 
z
" style="fill: #ffffff"/>
  </g>
  <g id="axes_1">
   <g id="matplotlib.axis_1"/>
   <g id="matplotlib.axis_2"/>
   <g id="patch_2">
    <path d="M 502.056 218.16 
C 502.056 200.703609 498.620692 183.41664 491.946314 167.286598 
C 485.271936 151.156555 475.488045 136.496538 463.153537 124.143987 
C 450.819029 111.791437 436.173328 101.986127 420.053059 95.288179 
C 403.932789 88.590231 386.650861 85.129658 369.194488 85.104142 
C 351.738115 85.078626 334.446144 88.488663 318.306363 95.139456 
C 302.166581 101.790249 287.492279 111.552701 275.121712 123.869141 
C 262.751145 136.18558 252.924439 150.816932 246.202935 166.927394 
C 239.481431 183.037856 235.995601 200.314708 235.944569 217.771024 
C 235.893537 235.227341 239.278294 252.524278 245.905488 268.673764 
C 252.532683 284.82325 262.273675 299.511806 274.572019 311.900363 
C 286.870363 324.288919 301.487336 334.137002 317.587956 340.882047 
C 333.688576 347.627093 350.960314 351.138173 368.416538 351.214721 
C 385.872761 351.291269 403.174627 347.931798 419.333783 341.328216 
C 435.492938 334.724634 450.195717 325.005122 462.602237 312.7249 
C 475.008757 300.444677 484.878195 285.842115 491.646767 269.751372 
C 498.41534 253.660628 501.951662 236.394041 502.053726 218.937948 
L 369 218.16 
z
" style="fill: #f77189"/>
   </g>
   <g id="patch_3">
    <path d="M 502.053726 218.937948 
C 502.054476 218.809571 502.055041 218.681194 502.05542 218.552815 
C 502.055799 218.424437 502.055992 218.296058 502.056 218.16768 
L 369 218.16 
z
" style="fill: #bb9832"/>
   </g>
   <g id="patch_4">
    <path d="M 502.056 218.16768 
C 502.056 218.166396 502.056 218.165112 502.056 218.163828 
C 502.056 218.162544 502.056 218.161261 502.056 218.159977 
L 369 218.16 
z
" style="fill: #50b131"/>
   </g>
   <g id="text_1">
    <text style="fill: #262626; font: 10px 'Arial', 'Liberation Sans', 'DejaVu Sans', 'Bitstream Vera Sans', sans-serif; text-anchor: end" x="222.639025" y="220.318064" transform="rotate(-0 222.639025 220.318064)">newsapi</text>
   </g>
   <g id="text_2">
    <text style="fill: #262626; font: 10px 'Arial', 'Liberation Sans', 'DejaVu Sans', 'Bitstream Vera Sans', sans-serif; text-anchor: middle" x="289.166741" y="220.512552" transform="rotate(-0 289.166741 220.512552)">99.9%</text>
   </g>
   <g id="text_3">
    <text style="fill: #262626; font: 10px 'Arial', 'Liberation Sans', 'DejaVu Sans', 'Bitstream Vera Sans', sans-serif; text-anchor: start" x="515.360962" y="221.178034" transform="rotate(-0 515.360962 221.178034)">chicago_pd</text>
   </g>
   <g id="text_4">
    <text style="fill: #262626; font: 10px 'Arial', 'Liberation Sans', 'DejaVu Sans', 'Bitstream Vera Sans', sans-serif; text-anchor: middle" x="448.833252" y="220.981627" transform="rotate(-0 448.833252 220.981627)">0.1%</text>
   </g>
   <g id="text_5">
    <text style="fill: #262626; font: 10px 'Arial', 'Liberation Sans', 'DejaVu Sans', 'Bitstream Vera Sans', sans-serif; text-anchor: start" x="515.3616" y="220.750149" transform="rotate(-0 515.3616 220.750149)">chicago_police</text>
   </g>
   <g id="text_6">
    <text style="fill: #262626; font: 10px 'Arial', 'Liberation Sans', 'DejaVu Sans', 'Bitstream Vera Sans', sans-serif; text-anchor: middle" x="448.8336" y="220.748234" transform="rotate(-0 448.8336 220.748234)">0.0%</text>
   </g>
   <g id="text_7">
    <text style="fill: #262626; font: 12px 'Arial', 'Liberation Sans', 'DejaVu Sans', 'Bitstream Vera Sans', sans-serif; text-anchor: middle" x="369" y="45.84" transform="rotate(-0 369 45.84)">Incidents by Source</text>
   </g>
  </g>
 </g>
</svg>
