<?xml version="1.0" encoding="utf-8" standalone="no"?>
<!DOCTYPE svg PUBLIC "-//W3C//DTD SVG 1.1//EN"
  "http://www.w3.org/Graphics/SVG/1.1/DTD/svg11.dtd">
<svg xmlns:xlink="http://www.w3.org/1999/xlink" width="720pt" height="432pt" viewBox="0 0 720 432" xmlns="http://www.w3.org/2000/svg" version="1.1">
 <metadata>
  <rdf:RDF xmlns:dc="http://purl.org/dc/elements/1.1/" xmlns:cc="http://creativecommons.org/ns#" xmlns:rdf="http://www.w3.org/1999/02/22-rdf-syntax-ns#">
   <cc:Work>
    <dc:type rdf:resource="http://purl.org/dc/dcmitype/StillImage"/>
    <dc:date>2025-01-11T12:37:06.119709</dc:date>
    <dc:format>image/svg+xml</dc:format>
    <dc:creator>
     <cc:Agent>
      <dc:title>Matplotlib v3.7.5, https://matplotlib.org/</dc:title>
     </cc:Agent>
    </dc:creator>
   </cc:Work>
  </rdf:RDF>
 </metadata>
 <defs>
  <style type="text/css">*{stroke-linejoin: round; stroke-linecap: butt}</style>
 </defs>
 <g id="figure_1">
  <g id="patch_1">
   <path d="M 0 432 
L 720 432 
L 720 0 
L 0 0 
z
" style="fill: #ffffff"/>
  </g>
  <g id="axes_1">
   <g id="matplotlib.axis_1"/>
   <g id="matplotlib.axis_2"/>
   <g id="patch_2">
    <path d="M 502.056 218.16 
C 502.056 200.906638 498.700137 183.816847 492.17575 167.844657 
C 485.651363 151.872467 476.082162 137.320726 464.002342 125.001779 
C 451.922523 112.682833 437.561131 102.83026 421.719885 95.994076 
C 405.878638 89.157893 388.857904 85.46772 371.607857 85.129559 
C 354.357809 84.791398 337.205527 87.811662 321.108529 94.021746 
C 305.011531 100.231829 290.275032 109.513983 277.721691 121.350034 
C 265.16835 133.186086 255.036191 147.351612 247.890837 163.055828 
C 240.745483 178.760044 236.722418 195.705182 236.046226 212.945288 
C 235.370035 230.185394 238.053539 247.393578 243.946934 263.609199 
C 249.840328 279.824821 258.831868 294.740417 270.419604 307.523329 
C 282.00734 320.306242 295.971558 330.714095 311.53271 338.165874 
C 327.093863 345.617653 343.956896 349.972065 361.180437 350.986027 
C 378.403978 351.99999 395.661451 349.654276 411.989467 344.079835 
C 428.317483 338.505394 443.406444 329.807923 456.414018 318.472954 
C 469.421591 307.137984 480.101139 293.38044 487.85648 277.968329 
C 495.611822 262.556218 500.295908 245.78177 501.647252 228.581411 
L 369 218.16 
z
" style="fill: #f77189"/>
   </g>
   <g id="patch_3">
    <path d="M 501.647252 228.581411 
C 501.782087 226.865174 501.883603 225.146481 501.95174 223.426305 
C 502.019877 221.706128 502.054624 219.984791 502.05596 218.263266 
L 369 218.16 
z
" style="fill: #bb9832"/>
   </g>
   <g id="patch_4">
    <path d="M 502.05596 218.263266 
C 502.055973 218.246051 502.055983 218.228836 502.05599 218.211622 
C 502.055997 218.194407 502.056 218.177192 502.056 218.159977 
L 369 218.16 
z
" style="fill: #50b131"/>
   </g>
   <g id="text_1">
    <text style="fill: #262626; font: 10px 'Arial', 'Liberation Sans', 'DejaVu Sans', 'Bitstream Vera Sans', sans-serif; text-anchor: end" x="222.750849" y="215.009755" transform="rotate(-0 222.750849 215.009755)">newsapi</text>
   </g>
   <g id="text_2">
    <text style="fill: #262626; font: 10px 'Arial', 'Liberation Sans', 'DejaVu Sans', 'Bitstream Vera Sans', sans-serif; text-anchor: middle" x="289.227736" y="217.61711" transform="rotate(-0 289.227736 217.61711)">98.8%</text>
   </g>
   <g id="text_3">
    <text style="fill: #262626; font: 10px 'Arial', 'Liberation Sans', 'DejaVu Sans', 'Bitstream Vera Sans', sans-serif; text-anchor: start" x="515.246914" y="226.538873" transform="rotate(-0 515.246914 226.538873)">chicago_pd</text>
   </g>
   <g id="text_4">
    <text style="fill: #262626; font: 10px 'Arial', 'Liberation Sans', 'DejaVu Sans', 'Bitstream Vera Sans', sans-serif; text-anchor: middle" x="448.771044" y="223.90572" transform="rotate(-0 448.771044 223.90572)">1.2%</text>
   </g>
   <g id="text_5">
    <text style="fill: #262626; font: 10px 'Arial', 'Liberation Sans', 'DejaVu Sans', 'Bitstream Vera Sans', sans-serif; text-anchor: start" x="515.361589" y="220.802721" transform="rotate(-0 515.361589 220.802721)">chicago_police</text>
   </g>
   <g id="text_6">
    <text style="fill: #262626; font: 10px 'Arial', 'Liberation Sans', 'DejaVu Sans', 'Bitstream Vera Sans', sans-serif; text-anchor: middle" x="448.833594" y="220.77691" transform="rotate(-0 448.833594 220.77691)">0.0%</text>
   </g>
   <g id="text_7">
    <text style="fill: #262626; font: 12px 'Arial', 'Liberation Sans', 'DejaVu Sans', 'Bitstream Vera Sans', sans-serif; text-anchor: middle" x="369" y="45.84" transform="rotate(-0 369 45.84)">Incidents by Source</text>
   </g>
  </g>
 </g>
</svg>
