<?xml version="1.0" encoding="utf-8" standalone="no"?>
<!DOCTYPE svg PUBLIC "-//W3C//DTD SVG 1.1//EN"
  "http://www.w3.org/Graphics/SVG/1.1/DTD/svg11.dtd">
<svg xmlns:xlink="http://www.w3.org/1999/xlink" width="720pt" height="432pt" viewBox="0 0 720 432" xmlns="http://www.w3.org/2000/svg" version="1.1">
 <metadata>
  <rdf:RDF xmlns:dc="http://purl.org/dc/elements/1.1/" xmlns:cc="http://creativecommons.org/ns#" xmlns:rdf="http://www.w3.org/1999/02/22-rdf-syntax-ns#">
   <cc:Work>
    <dc:type rdf:resource="http://purl.org/dc/dcmitype/StillImage"/>
    <dc:date>2025-12-22T12:32:17.708634</dc:date>
    <dc:format>image/svg+xml</dc:format>
    <dc:creator>
     <cc:Agent>
      <dc:title>Matplotlib v3.7.5, https://matplotlib.org/</dc:title>
     </cc:Agent>
    </dc:creator>
   </cc:Work>
  </rdf:RDF>
 </metadata>
 <defs>
  <style type="text/css">*{stroke-linejoin: round; stroke-linecap: butt}</style>
 </defs>
 <g id="figure_1">
  <g id="patch_1">
   <path d="M 0 432 
L 720 432 
L 720 0 
L 0 0 
z
" style="fill: #ffffff"/>
  </g>
  <g id="axes_1">
   <g id="matplotlib.axis_1"/>
   <g id="matplotlib.axis_2"/>
   <g id="patch_2">
    <path d="M 502.056 218.16 
C 502.056 200.709942 498.623184 183.429122 491.953508 167.303988 
C 485.283833 151.178854 475.506669 136.522183 463.180129 124.170626 
C 450.85359 111.81907 436.216772 102.01221 420.105194 95.309854 
C 403.993615 88.607499 386.719791 85.139653 369.269769 85.104273 
C 351.819747 85.068894 334.532003 88.466666 318.393379 95.103635 
C 302.254756 101.740603 287.578291 111.488031 275.201768 123.789502 
C 262.825245 136.090973 252.988729 150.707878 246.253722 166.805834 
C 239.518714 182.903791 236.015853 200.170548 235.945094 217.620463 
C 235.874335 235.070377 239.237049 252.364975 245.841283 268.517022 
C 252.445517 284.669068 262.163169 299.365265 274.439521 311.766704 
C 286.715874 324.168143 301.312806 334.034274 317.397074 340.801906 
C 333.481342 347.569538 350.740962 351.1074 368.190697 351.213539 
C 385.640432 351.319677 402.941812 347.992034 419.107215 341.420562 
C 435.272619 334.84909 449.988488 325.161254 462.414791 312.910071 
C 474.841095 300.658887 484.736801 286.081989 491.53703 270.011475 
C 498.337259 253.940961 501.910107 236.68855 502.051624 219.239066 
L 369 218.16 
z
" style="fill: #f77189"/>
   </g>
   <g id="patch_3">
    <path d="M 502.051624 219.239066 
C 502.053068 219.061004 502.054155 218.88294 502.054884 218.704874 
C 502.055614 218.526808 502.055985 218.348741 502.056 218.170673 
L 369 218.16 
z
" style="fill: #bb9832"/>
   </g>
   <g id="patch_4">
    <path d="M 502.056 218.170673 
C 502.056 218.168893 502.056 218.167112 502.056 218.165331 
C 502.056 218.163551 502.056 218.16177 502.056 218.159989 
L 369 218.16 
z
" style="fill: #50b131"/>
   </g>
   <g id="text_1">
    <text style="fill: #262626; font: 10px 'Arial', 'Liberation Sans', 'DejaVu Sans', 'Bitstream Vera Sans', sans-serif; text-anchor: end" x="222.639603" y="220.152447" transform="rotate(-0 222.639603 220.152447)">newsapi</text>
   </g>
   <g id="text_2">
    <text style="fill: #262626; font: 10px 'Arial', 'Liberation Sans', 'DejaVu Sans', 'Bitstream Vera Sans', sans-serif; text-anchor: middle" x="289.167056" y="220.422215" transform="rotate(-0 289.167056 220.422215)">99.9%</text>
   </g>
   <g id="text_3">
    <text style="fill: #262626; font: 10px 'Arial', 'Liberation Sans', 'DejaVu Sans', 'Bitstream Vera Sans', sans-serif; text-anchor: start" x="515.360373" y="221.345299" transform="rotate(-0 515.360373 221.345299)">chicago_pd</text>
   </g>
   <g id="text_4">
    <text style="fill: #262626; font: 10px 'Arial', 'Liberation Sans', 'DejaVu Sans', 'Bitstream Vera Sans', sans-serif; text-anchor: middle" x="448.832931" y="221.072862" transform="rotate(-0 448.832931 221.072862)">0.1%</text>
   </g>
   <g id="text_5">
    <text style="fill: #262626; font: 10px 'Arial', 'Liberation Sans', 'DejaVu Sans', 'Bitstream Vera Sans', sans-serif; text-anchor: start" x="515.3616" y="220.751802" transform="rotate(-0 515.3616 220.751802)">chicago_police</text>
   </g>
   <g id="text_6">
    <text style="fill: #262626; font: 10px 'Arial', 'Liberation Sans', 'DejaVu Sans', 'Bitstream Vera Sans', sans-serif; text-anchor: middle" x="448.8336" y="220.749136" transform="rotate(-0 448.8336 220.749136)">0.0%</text>
   </g>
   <g id="text_7">
    <text style="fill: #262626; font: 12px 'Arial', 'Liberation Sans', 'DejaVu Sans', 'Bitstream Vera Sans', sans-serif; text-anchor: middle" x="369" y="45.84" transform="rotate(-0 369 45.84)">Incidents by Source</text>
   </g>
  </g>
 </g>
</svg>
