<?xml version="1.0" encoding="utf-8" standalone="no"?>
<!DOCTYPE svg PUBLIC "-//W3C//DTD SVG 1.1//EN"
  "http://www.w3.org/Graphics/SVG/1.1/DTD/svg11.dtd">
<svg xmlns:xlink="http://www.w3.org/1999/xlink" width="720pt" height="432pt" viewBox="0 0 720 432" xmlns="http://www.w3.org/2000/svg" version="1.1">
 <metadata>
  <rdf:RDF xmlns:dc="http://purl.org/dc/elements/1.1/" xmlns:cc="http://creativecommons.org/ns#" xmlns:rdf="http://www.w3.org/1999/02/22-rdf-syntax-ns#">
   <cc:Work>
    <dc:type rdf:resource="http://purl.org/dc/dcmitype/StillImage"/>
    <dc:date>2026-01-23T02:05:32.145118</dc:date>
    <dc:format>image/svg+xml</dc:format>
    <dc:creator>
     <cc:Agent>
      <dc:title>Matplotlib v3.7.5, https://matplotlib.org/</dc:title>
     </cc:Agent>
    </dc:creator>
   </cc:Work>
  </rdf:RDF>
 </metadata>
 <defs>
  <style type="text/css">*{stroke-linejoin: round; stroke-linecap: butt}</style>
 </defs>
 <g id="figure_1">
  <g id="patch_1">
   <path d="M 0 432 
L 720 432 
L 720 0 
L 0 0 
z
" style="fill: #ffffff"/>
  </g>
  <g id="axes_1">
   <g id="matplotlib.axis_1"/>
   <g id="matplotlib.axis_2"/>
   <g id="patch_2">
    <path d="M 502.056 218.16 
C 502.056 200.708339 498.622553 183.425962 491.951687 167.299585 
C 485.280821 151.173208 475.501954 136.51569 463.173397 124.163881 
C 450.84484 111.812072 436.205774 102.005604 420.091995 95.304364 
C 403.978216 88.603124 386.70234 85.137119 369.250709 85.104236 
C 351.799079 85.071353 334.510263 88.47223 318.371346 95.112698 
C 302.232428 101.753166 287.556509 111.504398 275.181493 123.809659 
C 262.806476 136.11492 252.972442 150.735483 246.240852 166.836607 
C 239.509262 182.93773 236.010711 200.207045 235.944945 217.658583 
C 235.879179 235.11012 239.247473 252.405313 245.85752 268.556714 
C 252.467567 284.708116 262.191128 299.402382 274.47305 311.800562 
C 286.754972 324.198743 301.35698 334.060308 317.445391 340.822225 
C 333.533802 347.584141 350.796494 351.115225 368.247876 351.213874 
C 385.699259 351.312523 403.000767 347.976823 419.164595 341.397221 
C 435.328423 334.817619 450.040984 325.121762 462.462285 312.863223 
C 474.883585 300.604684 484.772647 286.021284 491.564866 269.945643 
C 498.357085 253.870001 501.92069 236.613993 502.052221 219.162827 
L 369 218.16 
z
" style="fill: #f77189"/>
   </g>
   <g id="patch_3">
    <path d="M 502.052221 219.162827 
C 502.053468 218.99735 502.054407 218.83187 502.055036 218.666389 
C 502.055666 218.500908 502.055987 218.335427 502.056 218.169944 
L 369 218.16 
z
" style="fill: #bb9832"/>
   </g>
   <g id="patch_4">
    <path d="M 502.056 218.169944 
C 502.056 218.16829 502.056 218.166635 502.056 218.16498 
C 502.056 218.163325 502.056 218.16167 502.056 218.160015 
L 369 218.16 
z
" style="fill: #50b131"/>
   </g>
   <g id="text_1">
    <text style="fill: #262626; font: 10px 'Arial', 'Liberation Sans', 'DejaVu Sans', 'Bitstream Vera Sans', sans-serif; text-anchor: end" x="222.639439" y="220.194378" transform="rotate(-0 222.639439 220.194378)">newsapi</text>
   </g>
   <g id="text_2">
    <text style="fill: #262626; font: 10px 'Arial', 'Liberation Sans', 'DejaVu Sans', 'Bitstream Vera Sans', sans-serif; text-anchor: middle" x="289.166967" y="220.445087" transform="rotate(-0 289.166967 220.445087)">99.9%</text>
   </g>
   <g id="text_3">
    <text style="fill: #262626; font: 10px 'Arial', 'Liberation Sans', 'DejaVu Sans', 'Bitstream Vera Sans', sans-serif; text-anchor: start" x="515.36054" y="221.302966" transform="rotate(-0 515.36054 221.302966)">chicago_pd</text>
   </g>
   <g id="text_4">
    <text style="fill: #262626; font: 10px 'Arial', 'Liberation Sans', 'DejaVu Sans', 'Bitstream Vera Sans', sans-serif; text-anchor: middle" x="448.833022" y="221.049771" transform="rotate(-0 448.833022 221.049771)">0.1%</text>
   </g>
   <g id="text_5">
    <text style="fill: #262626; font: 10px 'Arial', 'Liberation Sans', 'DejaVu Sans', 'Bitstream Vera Sans', sans-serif; text-anchor: start" x="515.3616" y="220.751415" transform="rotate(-0 515.3616 220.751415)">chicago_police</text>
   </g>
   <g id="text_6">
    <text style="fill: #262626; font: 10px 'Arial', 'Liberation Sans', 'DejaVu Sans', 'Bitstream Vera Sans', sans-serif; text-anchor: middle" x="448.8336" y="220.748925" transform="rotate(-0 448.8336 220.748925)">0.0%</text>
   </g>
   <g id="text_7">
    <text style="fill: #262626; font: 12px 'Arial', 'Liberation Sans', 'DejaVu Sans', 'Bitstream Vera Sans', sans-serif; text-anchor: middle" x="369" y="45.84" transform="rotate(-0 369 45.84)">Incidents by Source</text>
   </g>
  </g>
 </g>
</svg>
