<?xml version="1.0" encoding="utf-8" standalone="no"?>
<!DOCTYPE svg PUBLIC "-//W3C//DTD SVG 1.1//EN"
  "http://www.w3.org/Graphics/SVG/1.1/DTD/svg11.dtd">
<svg xmlns:xlink="http://www.w3.org/1999/xlink" width="720pt" height="432pt" viewBox="0 0 720 432" xmlns="http://www.w3.org/2000/svg" version="1.1">
 <metadata>
  <rdf:RDF xmlns:dc="http://purl.org/dc/elements/1.1/" xmlns:cc="http://creativecommons.org/ns#" xmlns:rdf="http://www.w3.org/1999/02/22-rdf-syntax-ns#">
   <cc:Work>
    <dc:type rdf:resource="http://purl.org/dc/dcmitype/StillImage"/>
    <dc:date>2026-05-11T03:58:42.806478</dc:date>
    <dc:format>image/svg+xml</dc:format>
    <dc:creator>
     <cc:Agent>
      <dc:title>Matplotlib v3.7.5, https://matplotlib.org/</dc:title>
     </cc:Agent>
    </dc:creator>
   </cc:Work>
  </rdf:RDF>
 </metadata>
 <defs>
  <style type="text/css">*{stroke-linejoin: round; stroke-linecap: butt}</style>
 </defs>
 <g id="figure_1">
  <g id="patch_1">
   <path d="M 0 432 
L 720 432 
L 720 0 
L 0 0 
z
" style="fill: #ffffff"/>
  </g>
  <g id="axes_1">
   <g id="matplotlib.axis_1"/>
   <g id="matplotlib.axis_2"/>
   <g id="patch_2">
    <path d="M 502.056 218.16 
C 502.056 200.704312 498.620968 183.418026 491.947113 167.288528 
C 485.273257 151.159031 475.490113 136.499385 463.15649 124.146945 
C 450.822867 111.794504 436.178153 101.989023 420.058848 95.290585 
C 403.939544 88.592147 386.658515 85.130766 369.202847 85.104155 
C 351.747179 85.077543 334.455677 88.486217 318.316023 95.135475 
C 302.17637 101.784733 287.501827 111.545517 275.130598 123.860294 
C 262.759369 136.175072 252.931572 150.80482 246.208568 166.913894 
C 239.485564 183.022968 235.997842 200.298699 235.944618 217.754306 
C 235.891395 235.209913 239.273704 252.506592 245.898349 268.656364 
C 252.522995 284.806135 262.261395 299.495542 274.557298 311.885531 
C 286.853201 324.27552 301.467949 334.125608 317.566755 340.873163 
C 333.665561 347.620718 350.935955 351.134774 368.391461 351.214608 
C 385.846966 351.294443 403.148781 347.938507 419.308634 341.33849 
C 435.468486 334.738474 450.172722 325.022479 462.581442 312.745479 
C 474.990162 300.46848 484.862519 285.868765 491.634609 269.780265 
C 498.4067 253.691764 501.94708 236.426747 502.053526 218.971383 
L 369 218.16 
z
" style="fill: #f77189"/>
   </g>
   <g id="patch_3">
    <path d="M 502.053526 218.971383 
C 502.054343 218.837494 502.054957 218.703604 502.055369 218.569712 
C 502.055781 218.435821 502.055992 218.301929 502.056 218.168037 
L 369 218.16 
z
" style="fill: #bb9832"/>
   </g>
   <g id="patch_4">
    <path d="M 502.056 218.168037 
C 502.056 218.166698 502.056 218.165359 502.056 218.164021 
C 502.056 218.162682 502.056 218.161343 502.056 218.160004 
L 369 218.16 
z
" style="fill: #50b131"/>
   </g>
   <g id="text_1">
    <text style="fill: #262626; font: 10px 'Arial', 'Liberation Sans', 'DejaVu Sans', 'Bitstream Vera Sans', sans-serif; text-anchor: end" x="222.63908" y="220.299675" transform="rotate(-0 222.63908 220.299675)">newsapi</text>
   </g>
   <g id="text_2">
    <text style="fill: #262626; font: 10px 'Arial', 'Liberation Sans', 'DejaVu Sans', 'Bitstream Vera Sans', sans-serif; text-anchor: middle" x="289.166771" y="220.502521" transform="rotate(-0 289.166771 220.502521)">99.9%</text>
   </g>
   <g id="text_3">
    <text style="fill: #262626; font: 10px 'Arial', 'Liberation Sans', 'DejaVu Sans', 'Bitstream Vera Sans', sans-serif; text-anchor: start" x="515.360906" y="221.196621" transform="rotate(-0 515.360906 221.196621)">chicago_pd</text>
   </g>
   <g id="text_4">
    <text style="fill: #262626; font: 10px 'Arial', 'Liberation Sans', 'DejaVu Sans', 'Bitstream Vera Sans', sans-serif; text-anchor: middle" x="448.833222" y="220.991765" transform="rotate(-0 448.833222 220.991765)">0.1%</text>
   </g>
   <g id="text_5">
    <text style="fill: #262626; font: 10px 'Arial', 'Liberation Sans', 'DejaVu Sans', 'Bitstream Vera Sans', sans-serif; text-anchor: start" x="515.3616" y="220.75036" transform="rotate(-0 515.3616 220.75036)">chicago_police</text>
   </g>
   <g id="text_6">
    <text style="fill: #262626; font: 10px 'Arial', 'Liberation Sans', 'DejaVu Sans', 'Bitstream Vera Sans', sans-serif; text-anchor: middle" x="448.8336" y="220.74835" transform="rotate(-0 448.8336 220.74835)">0.0%</text>
   </g>
   <g id="text_7">
    <text style="fill: #262626; font: 12px 'Arial', 'Liberation Sans', 'DejaVu Sans', 'Bitstream Vera Sans', sans-serif; text-anchor: middle" x="369" y="45.84" transform="rotate(-0 369 45.84)">Incidents by Source</text>
   </g>
  </g>
 </g>
</svg>
