<?xml version="1.0" encoding="utf-8" standalone="no"?>
<!DOCTYPE svg PUBLIC "-//W3C//DTD SVG 1.1//EN"
  "http://www.w3.org/Graphics/SVG/1.1/DTD/svg11.dtd">
<svg xmlns:xlink="http://www.w3.org/1999/xlink" width="720pt" height="432pt" viewBox="0 0 720 432" xmlns="http://www.w3.org/2000/svg" version="1.1">
 <metadata>
  <rdf:RDF xmlns:dc="http://purl.org/dc/elements/1.1/" xmlns:cc="http://creativecommons.org/ns#" xmlns:rdf="http://www.w3.org/1999/02/22-rdf-syntax-ns#">
   <cc:Work>
    <dc:type rdf:resource="http://purl.org/dc/dcmitype/StillImage"/>
    <dc:date>2026-02-20T02:33:16.420284</dc:date>
    <dc:format>image/svg+xml</dc:format>
    <dc:creator>
     <cc:Agent>
      <dc:title>Matplotlib v3.7.5, https://matplotlib.org/</dc:title>
     </cc:Agent>
    </dc:creator>
   </cc:Work>
  </rdf:RDF>
 </metadata>
 <defs>
  <style type="text/css">*{stroke-linejoin: round; stroke-linecap: butt}</style>
 </defs>
 <g id="figure_1">
  <g id="patch_1">
   <path d="M 0 432 
L 720 432 
L 720 0 
L 0 0 
z
" style="fill: #ffffff"/>
  </g>
  <g id="axes_1">
   <g id="matplotlib.axis_1"/>
   <g id="matplotlib.axis_2"/>
   <g id="patch_2">
    <path d="M 502.056 218.16 
C 502.056 200.706942 498.622003 183.423209 491.9501 167.295749 
C 485.278197 151.168289 475.497846 136.510032 463.167531 124.158005 
C 450.837217 111.805977 436.196191 101.999851 420.080495 95.299583 
C 403.964799 88.599314 386.687135 85.134913 369.234103 85.104206 
C 351.781072 85.073498 334.491324 88.47708 318.35215 95.120598 
C 302.212977 101.764116 287.537535 111.518661 275.163831 123.827224 
C 262.790128 136.135787 252.958258 150.759537 246.229645 166.86342 
C 239.501033 182.967302 236.006239 200.238844 235.944824 217.691794 
C 235.883409 235.144745 239.256565 252.440454 245.871677 268.591292 
C 252.486789 284.742129 262.215499 299.434711 274.502272 311.830051 
C 286.789045 324.225391 301.395474 334.082976 317.487493 340.839912 
C 333.579512 347.596847 350.844878 351.122024 368.297694 351.214147 
C 385.750509 351.306269 403.052126 347.963548 419.214578 341.376863 
C 435.377029 334.790178 450.086705 325.087334 462.503644 312.822388 
C 474.920582 300.557443 484.803851 285.96838 491.589089 269.888275 
C 498.374327 253.808169 501.929876 236.549032 502.052705 219.096405 
L 369 218.16 
z
" style="fill: #f77189"/>
   </g>
   <g id="patch_3">
    <path d="M 502.052705 219.096405 
C 502.053792 218.941887 502.054611 218.787366 502.05516 218.632845 
C 502.055709 218.478323 502.055989 218.323801 502.056 218.169279 
L 369 218.16 
z
" style="fill: #bb9832"/>
   </g>
   <g id="patch_4">
    <path d="M 502.056 218.169279 
C 502.056 218.167734 502.056 218.166188 502.056 218.164643 
C 502.056 218.163098 502.056 218.161553 502.056 218.160007 
L 369 218.16 
z
" style="fill: #50b131"/>
   </g>
   <g id="text_1">
    <text style="fill: #262626; font: 10px 'Arial', 'Liberation Sans', 'DejaVu Sans', 'Bitstream Vera Sans', sans-serif; text-anchor: end" x="222.639306" y="220.230911" transform="rotate(-0 222.639306 220.230911)">newsapi</text>
   </g>
   <g id="text_2">
    <text style="fill: #262626; font: 10px 'Arial', 'Liberation Sans', 'DejaVu Sans', 'Bitstream Vera Sans', sans-serif; text-anchor: middle" x="289.166894" y="220.465014" transform="rotate(-0 289.166894 220.465014)">99.9%</text>
   </g>
   <g id="text_3">
    <text style="fill: #262626; font: 10px 'Arial', 'Liberation Sans', 'DejaVu Sans', 'Bitstream Vera Sans', sans-serif; text-anchor: start" x="515.360676" y="221.266067" transform="rotate(-0 515.360676 221.266067)">chicago_pd</text>
   </g>
   <g id="text_4">
    <text style="fill: #262626; font: 10px 'Arial', 'Liberation Sans', 'DejaVu Sans', 'Bitstream Vera Sans', sans-serif; text-anchor: middle" x="448.833096" y="221.029644" transform="rotate(-0 448.833096 221.029644)">0.1%</text>
   </g>
   <g id="text_5">
    <text style="fill: #262626; font: 10px 'Arial', 'Liberation Sans', 'DejaVu Sans', 'Bitstream Vera Sans', sans-serif; text-anchor: start" x="515.3616" y="220.751045" transform="rotate(-0 515.3616 220.751045)">chicago_police</text>
   </g>
   <g id="text_6">
    <text style="fill: #262626; font: 10px 'Arial', 'Liberation Sans', 'DejaVu Sans', 'Bitstream Vera Sans', sans-serif; text-anchor: middle" x="448.8336" y="220.748723" transform="rotate(-0 448.8336 220.748723)">0.0%</text>
   </g>
   <g id="text_7">
    <text style="fill: #262626; font: 12px 'Arial', 'Liberation Sans', 'DejaVu Sans', 'Bitstream Vera Sans', sans-serif; text-anchor: middle" x="369" y="45.84" transform="rotate(-0 369 45.84)">Incidents by Source</text>
   </g>
  </g>
 </g>
</svg>
