<?xml version="1.0" encoding="utf-8" standalone="no"?>
<!DOCTYPE svg PUBLIC "-//W3C//DTD SVG 1.1//EN"
  "http://www.w3.org/Graphics/SVG/1.1/DTD/svg11.dtd">
<svg xmlns:xlink="http://www.w3.org/1999/xlink" width="720pt" height="432pt" viewBox="0 0 720 432" xmlns="http://www.w3.org/2000/svg" version="1.1">
 <metadata>
  <rdf:RDF xmlns:dc="http://purl.org/dc/elements/1.1/" xmlns:cc="http://creativecommons.org/ns#" xmlns:rdf="http://www.w3.org/1999/02/22-rdf-syntax-ns#">
   <cc:Work>
    <dc:type rdf:resource="http://purl.org/dc/dcmitype/StillImage"/>
    <dc:date>2026-03-09T06:55:46.448292</dc:date>
    <dc:format>image/svg+xml</dc:format>
    <dc:creator>
     <cc:Agent>
      <dc:title>Matplotlib v3.7.5, https://matplotlib.org/</dc:title>
     </cc:Agent>
    </dc:creator>
   </cc:Work>
  </rdf:RDF>
 </metadata>
 <defs>
  <style type="text/css">*{stroke-linejoin: round; stroke-linecap: butt}</style>
 </defs>
 <g id="figure_1">
  <g id="patch_1">
   <path d="M 0 432 
L 720 432 
L 720 0 
L 0 0 
z
" style="fill: #ffffff"/>
  </g>
  <g id="axes_1">
   <g id="matplotlib.axis_1"/>
   <g id="matplotlib.axis_2"/>
   <g id="patch_2">
    <path d="M 502.056 218.16 
C 502.056 200.706321 498.621759 183.421986 491.949395 167.294045 
C 485.277031 151.166105 475.496021 136.50752 463.164926 124.155395 
C 450.833831 111.803269 436.191935 101.997295 420.075387 95.297459 
C 403.95884 88.597623 386.680382 85.133934 369.226728 85.104193 
C 351.773075 85.074452 334.482913 88.479235 318.343626 95.124107 
C 302.204339 101.768979 287.529109 111.524997 275.155989 123.835026 
C 262.782869 136.145055 252.95196 150.770221 246.22467 166.875328 
C 239.497381 182.980436 236.004255 200.252967 235.944773 217.706544 
C 235.88529 235.160122 239.260606 252.45606 245.877967 268.606647 
C 252.495328 284.757233 262.226325 299.449066 274.515252 311.843144 
C 286.80418 324.237223 301.412572 334.093039 317.506193 340.847762 
C 333.599814 347.602485 350.866367 351.125038 368.319818 351.214261 
C 385.773269 351.303485 403.074934 347.957646 419.236773 341.367815 
C 435.398612 334.777985 450.107005 325.072037 462.522006 312.804247 
C 474.937006 300.536457 484.817702 285.944881 491.599838 269.862793 
C 498.381975 253.780706 501.933945 236.52018 502.052909 219.066906 
L 369 218.16 
z
" style="fill: #f77189"/>
   </g>
   <g id="patch_3">
    <path d="M 502.052909 219.066906 
C 502.053929 218.917257 502.054697 218.767606 502.055212 218.617954 
C 502.055727 218.468301 502.05599 218.318648 502.056 218.168995 
L 369 218.16 
z
" style="fill: #bb9832"/>
   </g>
   <g id="patch_4">
    <path d="M 502.056 218.168995 
C 502.056 218.167499 502.056 218.166002 502.056 218.164506 
C 502.056 218.163009 502.056 218.161513 502.056 218.160016 
L 369 218.16 
z
" style="fill: #50b131"/>
   </g>
   <g id="text_1">
    <text style="fill: #262626; font: 10px 'Arial', 'Liberation Sans', 'DejaVu Sans', 'Bitstream Vera Sans', sans-serif; text-anchor: end" x="222.63925" y="220.247136" transform="rotate(-0 222.63925 220.247136)">newsapi</text>
   </g>
   <g id="text_2">
    <text style="fill: #262626; font: 10px 'Arial', 'Liberation Sans', 'DejaVu Sans', 'Bitstream Vera Sans', sans-serif; text-anchor: middle" x="289.166864" y="220.473864" transform="rotate(-0 289.166864 220.473864)">99.9%</text>
   </g>
   <g id="text_3">
    <text style="fill: #262626; font: 10px 'Arial', 'Liberation Sans', 'DejaVu Sans', 'Bitstream Vera Sans', sans-serif; text-anchor: start" x="515.360733" y="221.249686" transform="rotate(-0 515.360733 221.249686)">chicago_pd</text>
   </g>
   <g id="text_4">
    <text style="fill: #262626; font: 10px 'Arial', 'Liberation Sans', 'DejaVu Sans', 'Bitstream Vera Sans', sans-serif; text-anchor: middle" x="448.833127" y="221.02071" transform="rotate(-0 448.833127 221.02071)">0.1%</text>
   </g>
   <g id="text_5">
    <text style="fill: #262626; font: 10px 'Arial', 'Liberation Sans', 'DejaVu Sans', 'Bitstream Vera Sans', sans-serif; text-anchor: start" x="515.3616" y="220.750894" transform="rotate(-0 515.3616 220.750894)">chicago_police</text>
   </g>
   <g id="text_6">
    <text style="fill: #262626; font: 10px 'Arial', 'Liberation Sans', 'DejaVu Sans', 'Bitstream Vera Sans', sans-serif; text-anchor: middle" x="448.8336" y="220.748641" transform="rotate(-0 448.8336 220.748641)">0.0%</text>
   </g>
   <g id="text_7">
    <text style="fill: #262626; font: 12px 'Arial', 'Liberation Sans', 'DejaVu Sans', 'Bitstream Vera Sans', sans-serif; text-anchor: middle" x="369" y="45.84" transform="rotate(-0 369 45.84)">Incidents by Source</text>
   </g>
  </g>
 </g>
</svg>
