<?xml version="1.0" encoding="utf-8" standalone="no"?>
<!DOCTYPE svg PUBLIC "-//W3C//DTD SVG 1.1//EN"
  "http://www.w3.org/Graphics/SVG/1.1/DTD/svg11.dtd">
<svg xmlns:xlink="http://www.w3.org/1999/xlink" width="720pt" height="432pt" viewBox="0 0 720 432" xmlns="http://www.w3.org/2000/svg" version="1.1">
 <metadata>
  <rdf:RDF xmlns:dc="http://purl.org/dc/elements/1.1/" xmlns:cc="http://creativecommons.org/ns#" xmlns:rdf="http://www.w3.org/1999/02/22-rdf-syntax-ns#">
   <cc:Work>
    <dc:type rdf:resource="http://purl.org/dc/dcmitype/StillImage"/>
    <dc:date>2025-09-19T12:28:31.158153</dc:date>
    <dc:format>image/svg+xml</dc:format>
    <dc:creator>
     <cc:Agent>
      <dc:title>Matplotlib v3.7.5, https://matplotlib.org/</dc:title>
     </cc:Agent>
    </dc:creator>
   </cc:Work>
  </rdf:RDF>
 </metadata>
 <defs>
  <style type="text/css">*{stroke-linejoin: round; stroke-linecap: butt}</style>
 </defs>
 <g id="figure_1">
  <g id="patch_1">
   <path d="M 0 432 
L 720 432 
L 720 0 
L 0 0 
z
" style="fill: #ffffff"/>
  </g>
  <g id="axes_1">
   <g id="matplotlib.axis_1"/>
   <g id="matplotlib.axis_2"/>
   <g id="patch_2">
    <path d="M 502.056 218.16 
C 502.056 200.717196 498.626037 183.443418 491.961745 167.323907 
C 485.297453 151.204396 475.527991 136.551559 463.210577 124.201145 
C 450.893162 111.850731 436.266515 102.042101 420.164892 95.334705 
C 404.063269 88.62731 386.79873 85.151144 369.355988 85.104476 
C 351.913246 85.057808 334.630354 88.441543 318.49307 95.062684 
C 302.355787 101.683825 287.676864 111.414049 275.29354 123.698376 
C 262.910215 135.982703 253.062486 150.583055 246.312035 166.666675 
C 239.561585 182.750295 236.03924 200.005472 235.945905 217.448027 
C 235.85257 234.890581 239.190053 252.182465 245.767995 268.337405 
C 252.345937 284.492346 262.036853 299.197249 274.288005 311.613395 
C 286.539157 324.029542 301.113109 333.916298 317.178611 340.709756 
C 333.244113 347.503214 350.489804 351.071712 367.932046 351.211714 
C 385.374289 351.351716 402.67504 348.060509 418.847521 341.525813 
C 435.020003 334.991116 449.750782 325.339578 462.199661 313.121688 
C 474.648541 300.903799 484.574254 286.356351 491.410671 270.309082 
C 498.247087 254.261814 501.861713 237.025732 502.048381 219.583927 
L 369 218.16 
z
" style="fill: #f77189"/>
   </g>
   <g id="patch_3">
    <path d="M 502.048381 219.583927 
C 502.050895 219.348968 502.052787 219.114003 502.054057 218.879035 
C 502.055327 218.644066 502.055974 218.409095 502.055999 218.174123 
L 369 218.16 
z
" style="fill: #bb9832"/>
   </g>
   <g id="patch_4">
    <path d="M 502.055999 218.174123 
C 502.055999 218.171773 502.056 218.169424 502.056 218.167074 
C 502.056 218.164724 502.056 218.162374 502.056 218.160025 
L 369 218.16 
z
" style="fill: #50b131"/>
   </g>
   <g id="text_1">
    <text style="fill: #262626; font: 10px 'Arial', 'Liberation Sans', 'DejaVu Sans', 'Bitstream Vera Sans', sans-serif; text-anchor: end" x="222.640495" y="219.962767" transform="rotate(-0 222.640495 219.962767)">newsapi</text>
   </g>
   <g id="text_2">
    <text style="fill: #262626; font: 10px 'Arial', 'Liberation Sans', 'DejaVu Sans', 'Bitstream Vera Sans', sans-serif; text-anchor: middle" x="289.167543" y="220.318753" transform="rotate(-0 289.167543 220.318753)">99.8%</text>
   </g>
   <g id="text_3">
    <text style="fill: #262626; font: 10px 'Arial', 'Liberation Sans', 'DejaVu Sans', 'Bitstream Vera Sans', sans-serif; text-anchor: start" x="515.359463" y="221.536876" transform="rotate(-0 515.359463 221.536876)">chicago_pd</text>
   </g>
   <g id="text_4">
    <text style="fill: #262626; font: 10px 'Arial', 'Liberation Sans', 'DejaVu Sans', 'Bitstream Vera Sans', sans-serif; text-anchor: middle" x="448.832434" y="221.177358" transform="rotate(-0 448.832434 221.177358)">0.2%</text>
   </g>
   <g id="text_5">
    <text style="fill: #262626; font: 10px 'Arial', 'Liberation Sans', 'DejaVu Sans', 'Bitstream Vera Sans', sans-serif; text-anchor: start" x="515.3616" y="220.753719" transform="rotate(-0 515.3616 220.753719)">chicago_police</text>
   </g>
   <g id="text_6">
    <text style="fill: #262626; font: 10px 'Arial', 'Liberation Sans', 'DejaVu Sans', 'Bitstream Vera Sans', sans-serif; text-anchor: middle" x="448.8336" y="220.750182" transform="rotate(-0 448.8336 220.750182)">0.0%</text>
   </g>
   <g id="text_7">
    <text style="fill: #262626; font: 12px 'Arial', 'Liberation Sans', 'DejaVu Sans', 'Bitstream Vera Sans', sans-serif; text-anchor: middle" x="369" y="45.84" transform="rotate(-0 369 45.84)">Incidents by Source</text>
   </g>
  </g>
 </g>
</svg>
