<?xml version="1.0" encoding="utf-8" standalone="no"?>
<!DOCTYPE svg PUBLIC "-//W3C//DTD SVG 1.1//EN"
  "http://www.w3.org/Graphics/SVG/1.1/DTD/svg11.dtd">
<svg xmlns:xlink="http://www.w3.org/1999/xlink" width="720pt" height="432pt" viewBox="0 0 720 432" xmlns="http://www.w3.org/2000/svg" version="1.1">
 <metadata>
  <rdf:RDF xmlns:dc="http://purl.org/dc/elements/1.1/" xmlns:cc="http://creativecommons.org/ns#" xmlns:rdf="http://www.w3.org/1999/02/22-rdf-syntax-ns#">
   <cc:Work>
    <dc:type rdf:resource="http://purl.org/dc/dcmitype/StillImage"/>
    <dc:date>2026-05-15T02:38:00.813457</dc:date>
    <dc:format>image/svg+xml</dc:format>
    <dc:creator>
     <cc:Agent>
      <dc:title>Matplotlib v3.7.5, https://matplotlib.org/</dc:title>
     </cc:Agent>
    </dc:creator>
   </cc:Work>
  </rdf:RDF>
 </metadata>
 <defs>
  <style type="text/css">*{stroke-linejoin: round; stroke-linecap: butt}</style>
 </defs>
 <g id="figure_1">
  <g id="patch_1">
   <path d="M 0 432 
L 720 432 
L 720 0 
L 0 0 
z
" style="fill: #ffffff"/>
  </g>
  <g id="axes_1">
   <g id="matplotlib.axis_1"/>
   <g id="matplotlib.axis_2"/>
   <g id="patch_2">
    <path d="M 502.056 218.16 
C 502.056 200.70418 498.620916 183.417766 491.946963 167.288166 
C 485.273009 151.158566 475.489725 136.498851 463.155935 124.146389 
C 450.822146 111.793928 436.177247 101.988479 420.057761 95.290133 
C 403.938275 88.591787 386.657078 85.130558 369.201277 85.104152 
C 351.745477 85.077746 334.453887 88.486676 318.314209 95.136223 
C 302.174532 101.785769 287.500034 111.546866 275.128929 123.861956 
C 262.757824 136.177045 252.930233 150.807094 246.20751 166.916429 
C 239.484788 183.025763 235.997421 200.301705 235.944609 217.757446 
C 235.891797 235.213186 239.274566 252.509913 245.89969 268.659631 
C 252.524814 284.809349 262.263701 299.498596 274.560062 311.888316 
C 286.856423 324.278036 301.471589 334.127748 317.570736 340.874832 
C 333.669882 347.621916 350.940529 351.135412 368.39617 351.21463 
C 385.85181 351.293847 403.153635 347.937248 419.313356 341.336562 
C 435.473078 334.735875 450.17704 325.01922 462.585347 312.741615 
C 474.993654 300.46401 484.865463 285.863761 491.636893 269.774839 
C 498.408323 253.685918 501.947941 236.420606 502.053564 218.965105 
L 369 218.16 
z
" style="fill: #f77189"/>
   </g>
   <g id="patch_3">
    <path d="M 502.053564 218.965105 
C 502.054368 218.83225 502.054973 218.699393 502.055379 218.566536 
C 502.055785 218.433679 502.055992 218.300821 502.056 218.167963 
L 369 218.16 
z
" style="fill: #bb9832"/>
   </g>
   <g id="patch_4">
    <path d="M 502.056 218.167963 
C 502.056 218.166635 502.056 218.165306 502.056 218.163977 
C 502.056 218.162649 502.056 218.16132 502.056 218.159992 
L 369 218.16 
z
" style="fill: #50b131"/>
   </g>
   <g id="text_1">
    <text style="fill: #262626; font: 10px 'Arial', 'Liberation Sans', 'DejaVu Sans', 'Bitstream Vera Sans', sans-serif; text-anchor: end" x="222.63907" y="220.303128" transform="rotate(-0 222.63907 220.303128)">newsapi</text>
   </g>
   <g id="text_2">
    <text style="fill: #262626; font: 10px 'Arial', 'Liberation Sans', 'DejaVu Sans', 'Bitstream Vera Sans', sans-serif; text-anchor: middle" x="289.166765" y="220.504405" transform="rotate(-0 289.166765 220.504405)">99.9%</text>
   </g>
   <g id="text_3">
    <text style="fill: #262626; font: 10px 'Arial', 'Liberation Sans', 'DejaVu Sans', 'Bitstream Vera Sans', sans-serif; text-anchor: start" x="515.360917" y="221.193127" transform="rotate(-0 515.360917 221.193127)">chicago_pd</text>
   </g>
   <g id="text_4">
    <text style="fill: #262626; font: 10px 'Arial', 'Liberation Sans', 'DejaVu Sans', 'Bitstream Vera Sans', sans-serif; text-anchor: middle" x="448.833227" y="220.989859" transform="rotate(-0 448.833227 220.989859)">0.1%</text>
   </g>
   <g id="text_5">
    <text style="fill: #262626; font: 10px 'Arial', 'Liberation Sans', 'DejaVu Sans', 'Bitstream Vera Sans', sans-serif; text-anchor: start" x="515.3616" y="220.750313" transform="rotate(-0 515.3616 220.750313)">chicago_police</text>
   </g>
   <g id="text_6">
    <text style="fill: #262626; font: 10px 'Arial', 'Liberation Sans', 'DejaVu Sans', 'Bitstream Vera Sans', sans-serif; text-anchor: middle" x="448.8336" y="220.748324" transform="rotate(-0 448.8336 220.748324)">0.0%</text>
   </g>
   <g id="text_7">
    <text style="fill: #262626; font: 12px 'Arial', 'Liberation Sans', 'DejaVu Sans', 'Bitstream Vera Sans', sans-serif; text-anchor: middle" x="369" y="45.84" transform="rotate(-0 369 45.84)">Incidents by Source</text>
   </g>
  </g>
 </g>
</svg>
