<?xml version="1.0" encoding="utf-8" standalone="no"?>
<!DOCTYPE svg PUBLIC "-//W3C//DTD SVG 1.1//EN"
  "http://www.w3.org/Graphics/SVG/1.1/DTD/svg11.dtd">
<svg xmlns:xlink="http://www.w3.org/1999/xlink" width="720pt" height="432pt" viewBox="0 0 720 432" xmlns="http://www.w3.org/2000/svg" version="1.1">
 <metadata>
  <rdf:RDF xmlns:dc="http://purl.org/dc/elements/1.1/" xmlns:cc="http://creativecommons.org/ns#" xmlns:rdf="http://www.w3.org/1999/02/22-rdf-syntax-ns#">
   <cc:Work>
    <dc:type rdf:resource="http://purl.org/dc/dcmitype/StillImage"/>
    <dc:date>2025-08-11T12:53:51.316117</dc:date>
    <dc:format>image/svg+xml</dc:format>
    <dc:creator>
     <cc:Agent>
      <dc:title>Matplotlib v3.7.5, https://matplotlib.org/</dc:title>
     </cc:Agent>
    </dc:creator>
   </cc:Work>
  </rdf:RDF>
 </metadata>
 <defs>
  <style type="text/css">*{stroke-linejoin: round; stroke-linecap: butt}</style>
 </defs>
 <g id="figure_1">
  <g id="patch_1">
   <path d="M 0 432 
L 720 432 
L 720 0 
L 0 0 
z
" style="fill: #ffffff"/>
  </g>
  <g id="axes_1">
   <g id="matplotlib.axis_1"/>
   <g id="matplotlib.axis_2"/>
   <g id="patch_2">
    <path d="M 502.056 218.16 
C 502.056 200.722551 498.628143 183.453973 491.967825 167.338615 
C 485.307507 151.223256 475.543729 136.573252 463.23305 124.223685 
C 450.922371 111.874118 436.303234 102.064184 420.208961 95.353073 
C 404.114689 88.641961 386.857008 85.159658 369.419646 85.104662 
C 351.982284 85.049666 334.702981 88.423042 318.566696 95.032501 
C 302.430412 101.64196 287.749686 111.359484 275.361354 123.631152 
C 262.973022 135.90282 253.11703 150.490946 246.355192 166.563972 
C 239.593354 182.636998 236.056639 199.88361 235.946647 217.320712 
C 235.836655 234.757814 239.155518 252.04767 245.714051 268.20472 
C 252.272585 284.36177 261.943759 299.073071 274.176295 311.500045 
C 286.40883 323.92702 300.965798 333.828972 317.017418 340.641469 
C 333.069038 347.453966 350.30441 351.045058 367.741078 351.210044 
C 385.177747 351.37503 402.477985 348.110715 418.655639 341.603172 
C 434.833293 335.095629 449.575023 325.470901 462.040516 313.277619 
C 474.506009 301.084338 484.453824 286.558672 491.316912 270.528618 
C 498.180001 254.498564 501.825433 237.274604 502.045412 219.838543 
L 369 218.16 
z
" style="fill: #f77189"/>
   </g>
   <g id="patch_3">
    <path d="M 502.045412 219.838543 
C 502.048906 219.561571 502.051536 219.284589 502.0533 219.007602 
C 502.055065 218.730614 502.055964 218.453621 502.055999 218.176628 
L 369 218.16 
z
" style="fill: #bb9832"/>
   </g>
   <g id="patch_4">
    <path d="M 502.055999 218.176628 
C 502.055999 218.173858 502.056 218.171088 502.056 218.168318 
C 502.056 218.165548 502.056 218.162778 502.056 218.160008 
L 369 218.16 
z
" style="fill: #50b131"/>
   </g>
   <g id="text_1">
    <text style="fill: #262626; font: 10px 'Arial', 'Liberation Sans', 'DejaVu Sans', 'Bitstream Vera Sans', sans-serif; text-anchor: end" x="222.641312" y="219.822721" transform="rotate(-0 222.641312 219.822721)">newsapi</text>
   </g>
   <g id="text_2">
    <text style="fill: #262626; font: 10px 'Arial', 'Liberation Sans', 'DejaVu Sans', 'Bitstream Vera Sans', sans-serif; text-anchor: middle" x="289.167988" y="220.242365" transform="rotate(-0 289.167988 220.242365)">99.8%</text>
   </g>
   <g id="text_3">
    <text style="fill: #262626; font: 10px 'Arial', 'Liberation Sans', 'DejaVu Sans', 'Bitstream Vera Sans', sans-serif; text-anchor: start" x="515.35863" y="221.678299" transform="rotate(-0 515.35863 221.678299)">chicago_pd</text>
   </g>
   <g id="text_4">
    <text style="fill: #262626; font: 10px 'Arial', 'Liberation Sans', 'DejaVu Sans', 'Bitstream Vera Sans', sans-serif; text-anchor: middle" x="448.83198" y="221.254498" transform="rotate(-0 448.83198 221.254498)">0.2%</text>
   </g>
   <g id="text_5">
    <text style="fill: #262626; font: 10px 'Arial', 'Liberation Sans', 'DejaVu Sans', 'Bitstream Vera Sans', sans-serif; text-anchor: start" x="515.3616" y="220.755087" transform="rotate(-0 515.3616 220.755087)">chicago_police</text>
   </g>
   <g id="text_6">
    <text style="fill: #262626; font: 10px 'Arial', 'Liberation Sans', 'DejaVu Sans', 'Bitstream Vera Sans', sans-serif; text-anchor: middle" x="448.8336" y="220.750928" transform="rotate(-0 448.8336 220.750928)">0.0%</text>
   </g>
   <g id="text_7">
    <text style="fill: #262626; font: 12px 'Arial', 'Liberation Sans', 'DejaVu Sans', 'Bitstream Vera Sans', sans-serif; text-anchor: middle" x="369" y="45.84" transform="rotate(-0 369 45.84)">Incidents by Source</text>
   </g>
  </g>
 </g>
</svg>
