<?xml version="1.0" encoding="utf-8" standalone="no"?>
<!DOCTYPE svg PUBLIC "-//W3C//DTD SVG 1.1//EN"
  "http://www.w3.org/Graphics/SVG/1.1/DTD/svg11.dtd">
<svg xmlns:xlink="http://www.w3.org/1999/xlink" width="720pt" height="432pt" viewBox="0 0 720 432" xmlns="http://www.w3.org/2000/svg" version="1.1">
 <metadata>
  <rdf:RDF xmlns:dc="http://purl.org/dc/elements/1.1/" xmlns:cc="http://creativecommons.org/ns#" xmlns:rdf="http://www.w3.org/1999/02/22-rdf-syntax-ns#">
   <cc:Work>
    <dc:type rdf:resource="http://purl.org/dc/dcmitype/StillImage"/>
    <dc:date>2025-11-17T12:30:33.455150</dc:date>
    <dc:format>image/svg+xml</dc:format>
    <dc:creator>
     <cc:Agent>
      <dc:title>Matplotlib v3.7.5, https://matplotlib.org/</dc:title>
     </cc:Agent>
    </dc:creator>
   </cc:Work>
  </rdf:RDF>
 </metadata>
 <defs>
  <style type="text/css">*{stroke-linejoin: round; stroke-linecap: butt}</style>
 </defs>
 <g id="figure_1">
  <g id="patch_1">
   <path d="M 0 432 
L 720 432 
L 720 0 
L 0 0 
z
" style="fill: #ffffff"/>
  </g>
  <g id="axes_1">
   <g id="matplotlib.axis_1"/>
   <g id="matplotlib.axis_2"/>
   <g id="patch_2">
    <path d="M 502.056 218.16 
C 502.056 200.712245 498.62409 183.43366 491.956123 167.310311 
C 485.288157 151.186962 475.513438 136.531507 463.189796 124.180313 
C 450.866153 111.829119 436.232564 102.021696 420.124146 95.31774 
C 404.015727 88.613784 386.74485 85.143296 369.297138 85.104332 
C 351.849427 85.065368 334.563221 88.458683 318.425022 95.090626 
C 302.286822 101.72257 287.609575 111.464536 275.230891 123.760565 
C 262.852206 136.056595 253.012128 150.668246 246.272216 166.761653 
C 239.532303 182.85506 236.023255 200.118143 235.945327 217.565725 
C 235.867399 235.013306 239.222103 252.307046 245.81799 268.460016 
C 252.413877 284.612986 262.123042 299.311951 274.391397 311.718064 
C 286.659752 324.124177 301.249392 333.996861 317.327707 340.772696 
C 333.406022 347.548531 350.661227 351.096123 368.108591 351.213014 
C 385.555954 351.329905 402.857143 348.01383 419.024802 341.454032 
C 435.192462 334.894234 449.913073 325.217918 462.346553 312.977299 
C 474.780032 300.73668 484.685273 286.169124 491.496997 270.105981 
C 498.308721 254.042837 501.894837 236.795598 502.050692 219.348539 
L 369 218.16 
z
" style="fill: #f77189"/>
   </g>
   <g id="patch_3">
    <path d="M 502.050692 219.348539 
C 502.052443 219.152415 502.053762 218.956287 502.054646 218.760158 
C 502.055531 218.564028 502.055982 218.367896 502.055999 218.171764 
L 369 218.16 
z
" style="fill: #bb9832"/>
   </g>
   <g id="patch_4">
    <path d="M 502.055999 218.171764 
C 502.056 218.169803 502.056 218.167842 502.056 218.16588 
C 502.056 218.163919 502.056 218.161958 502.056 218.159996 
L 369 218.16 
z
" style="fill: #50b131"/>
   </g>
   <g id="text_1">
    <text style="fill: #262626; font: 10px 'Arial', 'Liberation Sans', 'DejaVu Sans', 'Bitstream Vera Sans', sans-serif; text-anchor: end" x="222.63986" y="220.092234" transform="rotate(-0 222.63986 220.092234)">newsapi</text>
   </g>
   <g id="text_2">
    <text style="fill: #262626; font: 10px 'Arial', 'Liberation Sans', 'DejaVu Sans', 'Bitstream Vera Sans', sans-serif; text-anchor: middle" x="289.167196" y="220.389372" transform="rotate(-0 289.167196 220.389372)">99.9%</text>
   </g>
   <g id="text_3">
    <text style="fill: #262626; font: 10px 'Arial', 'Liberation Sans', 'DejaVu Sans', 'Bitstream Vera Sans', sans-serif; text-anchor: start" x="515.360111" y="221.406111" transform="rotate(-0 515.360111 221.406111)">chicago_pd</text>
   </g>
   <g id="text_4">
    <text style="fill: #262626; font: 10px 'Arial', 'Liberation Sans', 'DejaVu Sans', 'Bitstream Vera Sans', sans-serif; text-anchor: middle" x="448.832788" y="221.106032" transform="rotate(-0 448.832788 221.106032)">0.1%</text>
   </g>
   <g id="text_5">
    <text style="fill: #262626; font: 10px 'Arial', 'Liberation Sans', 'DejaVu Sans', 'Bitstream Vera Sans', sans-serif; text-anchor: start" x="515.3616" y="220.752406" transform="rotate(-0 515.3616 220.752406)">chicago_police</text>
   </g>
   <g id="text_6">
    <text style="fill: #262626; font: 10px 'Arial', 'Liberation Sans', 'DejaVu Sans', 'Bitstream Vera Sans', sans-serif; text-anchor: middle" x="448.8336" y="220.749466" transform="rotate(-0 448.8336 220.749466)">0.0%</text>
   </g>
   <g id="text_7">
    <text style="fill: #262626; font: 12px 'Arial', 'Liberation Sans', 'DejaVu Sans', 'Bitstream Vera Sans', sans-serif; text-anchor: middle" x="369" y="45.84" transform="rotate(-0 369 45.84)">Incidents by Source</text>
   </g>
  </g>
 </g>
</svg>
