<?xml version="1.0" encoding="utf-8" standalone="no"?>
<!DOCTYPE svg PUBLIC "-//W3C//DTD SVG 1.1//EN"
  "http://www.w3.org/Graphics/SVG/1.1/DTD/svg11.dtd">
<svg xmlns:xlink="http://www.w3.org/1999/xlink" width="720pt" height="432pt" viewBox="0 0 720 432" xmlns="http://www.w3.org/2000/svg" version="1.1">
 <metadata>
  <rdf:RDF xmlns:dc="http://purl.org/dc/elements/1.1/" xmlns:cc="http://creativecommons.org/ns#" xmlns:rdf="http://www.w3.org/1999/02/22-rdf-syntax-ns#">
   <cc:Work>
    <dc:type rdf:resource="http://purl.org/dc/dcmitype/StillImage"/>
    <dc:date>2026-05-28T20:12:36.038948</dc:date>
    <dc:format>image/svg+xml</dc:format>
    <dc:creator>
     <cc:Agent>
      <dc:title>Matplotlib v3.7.5, https://matplotlib.org/</dc:title>
     </cc:Agent>
    </dc:creator>
   </cc:Work>
  </rdf:RDF>
 </metadata>
 <defs>
  <style type="text/css">*{stroke-linejoin: round; stroke-linecap: butt}</style>
 </defs>
 <g id="figure_1">
  <g id="patch_1">
   <path d="M 0 432 
L 720 432 
L 720 0 
L 0 0 
z
" style="fill: #ffffff"/>
  </g>
  <g id="axes_1">
   <g id="matplotlib.axis_1"/>
   <g id="matplotlib.axis_2"/>
   <g id="patch_2">
    <path d="M 502.056 218.16 
C 502.056 200.703753 498.620749 183.416925 491.946478 167.286995 
C 485.272208 151.157064 475.48847 136.497123 463.154144 124.144595 
C 450.819818 111.792067 436.174321 101.986723 420.054249 95.288674 
C 403.934178 88.590625 386.652435 85.129886 369.196207 85.104145 
C 351.739979 85.078403 334.448105 88.48816 318.308349 95.138637 
C 302.168594 101.789115 287.494242 111.551224 275.123539 123.867321 
C 262.752836 136.183419 252.925906 150.814441 246.204093 166.924617 
C 239.482281 183.034794 235.996061 200.311415 235.944579 217.767586 
C 235.893096 235.223757 239.27735 252.520641 245.90402 268.670186 
C 252.53069 284.81973 262.27115 299.508462 274.568992 311.897313 
C 286.866834 324.286164 301.483349 334.134659 317.583596 340.88022 
C 333.683843 347.625782 350.955304 351.137474 368.41138 351.214698 
C 385.867456 351.291922 403.169312 347.933178 419.328611 341.33033 
C 435.48791 334.727481 450.190988 325.008692 462.597961 312.729133 
C 475.004933 300.449573 484.874971 285.847596 491.644267 269.757314 
C 498.413563 253.667032 501.950721 236.400767 502.053685 218.944824 
L 369 218.16 
z
" style="fill: #f77189"/>
   </g>
   <g id="patch_3">
    <path d="M 502.053685 218.944824 
C 502.054449 218.815315 502.055024 218.685805 502.05541 218.556295 
C 502.055796 218.426784 502.055992 218.297273 502.056 218.167762 
L 369 218.16 
z
" style="fill: #bb9832"/>
   </g>
   <g id="patch_4">
    <path d="M 502.056 218.167762 
C 502.056 218.166467 502.056 218.165171 502.056 218.163876 
C 502.056 218.162581 502.056 218.161286 502.056 218.159991 
L 369 218.16 
z
" style="fill: #50b131"/>
   </g>
   <g id="text_1">
    <text style="fill: #262626; font: 10px 'Arial', 'Liberation Sans', 'DejaVu Sans', 'Bitstream Vera Sans', sans-serif; text-anchor: end" x="222.639037" y="220.314282" transform="rotate(-0 222.639037 220.314282)">newsapi</text>
   </g>
   <g id="text_2">
    <text style="fill: #262626; font: 10px 'Arial', 'Liberation Sans', 'DejaVu Sans', 'Bitstream Vera Sans', sans-serif; text-anchor: middle" x="289.166747" y="220.510489" transform="rotate(-0 289.166747 220.510489)">99.9%</text>
   </g>
   <g id="text_3">
    <text style="fill: #262626; font: 10px 'Arial', 'Liberation Sans', 'DejaVu Sans', 'Bitstream Vera Sans', sans-serif; text-anchor: start" x="515.360951" y="221.181862" transform="rotate(-0 515.360951 221.181862)">chicago_pd</text>
   </g>
   <g id="text_4">
    <text style="fill: #262626; font: 10px 'Arial', 'Liberation Sans', 'DejaVu Sans', 'Bitstream Vera Sans', sans-serif; text-anchor: middle" x="448.833246" y="220.983714" transform="rotate(-0 448.833246 220.983714)">0.1%</text>
   </g>
   <g id="text_5">
    <text style="fill: #262626; font: 10px 'Arial', 'Liberation Sans', 'DejaVu Sans', 'Bitstream Vera Sans', sans-serif; text-anchor: start" x="515.3616" y="220.750202" transform="rotate(-0 515.3616 220.750202)">chicago_police</text>
   </g>
   <g id="text_6">
    <text style="fill: #262626; font: 10px 'Arial', 'Liberation Sans', 'DejaVu Sans', 'Bitstream Vera Sans', sans-serif; text-anchor: middle" x="448.8336" y="220.748263" transform="rotate(-0 448.8336 220.748263)">0.0%</text>
   </g>
   <g id="text_7">
    <text style="fill: #262626; font: 12px 'Arial', 'Liberation Sans', 'DejaVu Sans', 'Bitstream Vera Sans', sans-serif; text-anchor: middle" x="369" y="45.84" transform="rotate(-0 369 45.84)">Incidents by Source</text>
   </g>
  </g>
 </g>
</svg>
