<?xml version="1.0" encoding="utf-8" standalone="no"?>
<!DOCTYPE svg PUBLIC "-//W3C//DTD SVG 1.1//EN"
  "http://www.w3.org/Graphics/SVG/1.1/DTD/svg11.dtd">
<svg xmlns:xlink="http://www.w3.org/1999/xlink" width="720pt" height="432pt" viewBox="0 0 720 432" xmlns="http://www.w3.org/2000/svg" version="1.1">
 <metadata>
  <rdf:RDF xmlns:dc="http://purl.org/dc/elements/1.1/" xmlns:cc="http://creativecommons.org/ns#" xmlns:rdf="http://www.w3.org/1999/02/22-rdf-syntax-ns#">
   <cc:Work>
    <dc:type rdf:resource="http://purl.org/dc/dcmitype/StillImage"/>
    <dc:date>2026-07-08T08:16:46.724902</dc:date>
    <dc:format>image/svg+xml</dc:format>
    <dc:creator>
     <cc:Agent>
      <dc:title>Matplotlib v3.7.5, https://matplotlib.org/</dc:title>
     </cc:Agent>
    </dc:creator>
   </cc:Work>
  </rdf:RDF>
 </metadata>
 <defs>
  <style type="text/css">*{stroke-linejoin: round; stroke-linecap: butt}</style>
 </defs>
 <g id="figure_1">
  <g id="patch_1">
   <path d="M 0 432 
L 720 432 
L 720 0 
L 0 0 
z
" style="fill: #ffffff"/>
  </g>
  <g id="axes_1">
   <g id="matplotlib.axis_1"/>
   <g id="matplotlib.axis_2"/>
   <g id="patch_2">
    <path d="M 502.056 218.16 
C 502.056 200.702501 498.620256 183.414457 491.945055 167.283556 
C 485.269854 151.152655 475.484787 136.492053 463.148884 124.139328 
C 450.812982 111.786604 436.165728 101.981567 420.043939 95.28439 
C 403.922149 88.587214 386.638803 85.127914 369.18132 85.104124 
C 351.723837 85.080334 334.431128 88.492516 318.291145 95.145728 
C 302.151162 101.79894 287.477239 111.56402 275.107716 123.883077 
C 262.738193 136.202135 252.913204 150.836013 246.194064 166.948661 
C 239.474924 183.06131 235.992074 200.339925 235.944494 217.79736 
C 235.896914 235.254794 239.285528 252.552138 245.916739 268.701172 
C 252.547951 284.850206 262.293025 299.537423 274.595215 311.923722 
C 286.897404 324.310022 301.51788 334.154943 317.621357 340.896034 
C 333.724834 347.637126 350.998687 351.143518 368.45604 351.214888 
C 385.913394 351.286258 403.215339 347.921219 419.373395 341.312021 
C 435.531451 334.702822 450.231934 324.977772 462.634986 312.692473 
C 475.038039 300.407174 484.902875 285.800128 491.665905 269.705852 
C 498.428935 253.611577 501.958864 236.342518 502.054023 218.885278 
L 369 218.16 
z
" style="fill: #f77189"/>
   </g>
   <g id="patch_3">
    <path d="M 502.054023 218.885278 
C 502.054676 218.765598 502.055167 218.645917 502.055496 218.526236 
C 502.055825 218.406554 502.055993 218.286873 502.056 218.167191 
L 369 218.16 
z
" style="fill: #bb9832"/>
   </g>
   <g id="patch_4">
    <path d="M 502.056 218.167191 
C 502.056 218.165994 502.056 218.164797 502.056 218.1636 
C 502.056 218.162404 502.056 218.161207 502.056 218.16001 
L 369 218.16 
z
" style="fill: #50b131"/>
   </g>
   <g id="text_1">
    <text style="fill: #262626; font: 10px 'Arial', 'Liberation Sans', 'DejaVu Sans', 'Bitstream Vera Sans', sans-serif; text-anchor: end" x="222.638944" y="220.347033" transform="rotate(-0 222.638944 220.347033)">newsapi</text>
   </g>
   <g id="text_2">
    <text style="fill: #262626; font: 10px 'Arial', 'Liberation Sans', 'DejaVu Sans', 'Bitstream Vera Sans', sans-serif; text-anchor: middle" x="289.166697" y="220.528353" transform="rotate(-0 289.166697 220.528353)">99.9%</text>
   </g>
   <g id="text_3">
    <text style="fill: #262626; font: 10px 'Arial', 'Liberation Sans', 'DejaVu Sans', 'Bitstream Vera Sans', sans-serif; text-anchor: start" x="515.361046" y="221.148797" transform="rotate(-0 515.361046 221.148797)">chicago_pd</text>
   </g>
   <g id="text_4">
    <text style="fill: #262626; font: 10px 'Arial', 'Liberation Sans', 'DejaVu Sans', 'Bitstream Vera Sans', sans-serif; text-anchor: middle" x="448.833298" y="220.965679" transform="rotate(-0 448.833298 220.965679)">0.1%</text>
   </g>
   <g id="text_5">
    <text style="fill: #262626; font: 10px 'Arial', 'Liberation Sans', 'DejaVu Sans', 'Bitstream Vera Sans', sans-serif; text-anchor: start" x="515.3616" y="220.749898" transform="rotate(-0 515.3616 220.749898)">chicago_police</text>
   </g>
   <g id="text_6">
    <text style="fill: #262626; font: 10px 'Arial', 'Liberation Sans', 'DejaVu Sans', 'Bitstream Vera Sans', sans-serif; text-anchor: middle" x="448.8336" y="220.748098" transform="rotate(-0 448.8336 220.748098)">0.0%</text>
   </g>
   <g id="text_7">
    <text style="fill: #262626; font: 12px 'Arial', 'Liberation Sans', 'DejaVu Sans', 'Bitstream Vera Sans', sans-serif; text-anchor: middle" x="369" y="45.84" transform="rotate(-0 369 45.84)">Incidents by Source</text>
   </g>
  </g>
 </g>
</svg>
