<?xml version="1.0" encoding="utf-8" standalone="no"?>
<!DOCTYPE svg PUBLIC "-//W3C//DTD SVG 1.1//EN"
  "http://www.w3.org/Graphics/SVG/1.1/DTD/svg11.dtd">
<svg xmlns:xlink="http://www.w3.org/1999/xlink" width="720pt" height="432pt" viewBox="0 0 720 432" xmlns="http://www.w3.org/2000/svg" version="1.1">
 <metadata>
  <rdf:RDF xmlns:dc="http://purl.org/dc/elements/1.1/" xmlns:cc="http://creativecommons.org/ns#" xmlns:rdf="http://www.w3.org/1999/02/22-rdf-syntax-ns#">
   <cc:Work>
    <dc:type rdf:resource="http://purl.org/dc/dcmitype/StillImage"/>
    <dc:date>2025-12-21T02:07:09.416130</dc:date>
    <dc:format>image/svg+xml</dc:format>
    <dc:creator>
     <cc:Agent>
      <dc:title>Matplotlib v3.7.5, https://matplotlib.org/</dc:title>
     </cc:Agent>
    </dc:creator>
   </cc:Work>
  </rdf:RDF>
 </metadata>
 <defs>
  <style type="text/css">*{stroke-linejoin: round; stroke-linecap: butt}</style>
 </defs>
 <g id="figure_1">
  <g id="patch_1">
   <path d="M 0 432 
L 720 432 
L 720 0 
L 0 0 
z
" style="fill: #ffffff"/>
  </g>
  <g id="axes_1">
   <g id="matplotlib.axis_1"/>
   <g id="matplotlib.axis_2"/>
   <g id="patch_2">
    <path d="M 502.056 218.16 
C 502.056 200.710013 498.623212 183.429263 491.953589 167.304184 
C 485.283967 151.179105 475.506878 136.522471 463.180429 124.170926 
C 450.853979 111.819381 436.217261 102.012503 420.10578 95.310098 
C 403.9943 88.607693 386.720567 85.139766 369.270616 85.104275 
C 351.820666 85.068784 334.532969 88.466419 318.394359 95.103232 
C 302.255748 101.740045 287.57926 111.487303 275.20267 123.788606 
C 262.82608 136.089909 252.989453 150.706651 246.254294 166.804467 
C 239.519135 182.902282 236.016082 200.168926 235.945101 217.618769 
C 235.87412 235.068611 239.236586 252.363182 245.840562 268.515257 
C 252.444537 284.667333 262.161926 299.363615 274.438032 311.765199 
C 286.714137 324.166782 301.310843 334.033117 317.394926 340.801003 
C 333.47901 347.568889 350.738494 351.107052 368.188156 351.213523 
C 385.637817 351.319995 402.939191 347.992709 419.104665 341.421599 
C 435.270139 334.850488 449.986155 325.163009 462.41268 312.912152 
C 474.839206 300.661295 484.735207 286.084686 491.535792 270.014401 
C 498.336377 253.944115 501.909636 236.691863 502.051597 219.242454 
L 369 218.16 
z
" style="fill: #f77189"/>
   </g>
   <g id="patch_3">
    <path d="M 502.051597 219.242454 
C 502.05305 219.063838 502.054143 218.885219 502.054877 218.706598 
C 502.055611 218.527978 502.055985 218.349356 502.056 218.170734 
L 369 218.16 
z
" style="fill: #bb9832"/>
   </g>
   <g id="patch_4">
    <path d="M 502.056 218.170734 
C 502.056 218.168947 502.056 218.167161 502.056 218.165375 
C 502.056 218.163589 502.056 218.161802 502.056 218.160016 
L 369 218.16 
z
" style="fill: #50b131"/>
   </g>
   <g id="text_1">
    <text style="fill: #262626; font: 10px 'Arial', 'Liberation Sans', 'DejaVu Sans', 'Bitstream Vera Sans', sans-serif; text-anchor: end" x="222.639611" y="220.150583" transform="rotate(-0 222.639611 220.150583)">newsapi</text>
   </g>
   <g id="text_2">
    <text style="fill: #262626; font: 10px 'Arial', 'Liberation Sans', 'DejaVu Sans', 'Bitstream Vera Sans', sans-serif; text-anchor: middle" x="289.16706" y="220.421199" transform="rotate(-0 289.16706 220.421199)">99.9%</text>
   </g>
   <g id="text_3">
    <text style="fill: #262626; font: 10px 'Arial', 'Liberation Sans', 'DejaVu Sans', 'Bitstream Vera Sans', sans-serif; text-anchor: start" x="515.360365" y="221.347196" transform="rotate(-0 515.360365 221.347196)">chicago_pd</text>
   </g>
   <g id="text_4">
    <text style="fill: #262626; font: 10px 'Arial', 'Liberation Sans', 'DejaVu Sans', 'Bitstream Vera Sans', sans-serif; text-anchor: middle" x="448.832926" y="221.073896" transform="rotate(-0 448.832926 221.073896)">0.1%</text>
   </g>
   <g id="text_5">
    <text style="fill: #262626; font: 10px 'Arial', 'Liberation Sans', 'DejaVu Sans', 'Bitstream Vera Sans', sans-serif; text-anchor: start" x="515.3616" y="220.75185" transform="rotate(-0 515.3616 220.75185)">chicago_police</text>
   </g>
   <g id="text_6">
    <text style="fill: #262626; font: 10px 'Arial', 'Liberation Sans', 'DejaVu Sans', 'Bitstream Vera Sans', sans-serif; text-anchor: middle" x="448.8336" y="220.749162" transform="rotate(-0 448.8336 220.749162)">0.0%</text>
   </g>
   <g id="text_7">
    <text style="fill: #262626; font: 12px 'Arial', 'Liberation Sans', 'DejaVu Sans', 'Bitstream Vera Sans', sans-serif; text-anchor: middle" x="369" y="45.84" transform="rotate(-0 369 45.84)">Incidents by Source</text>
   </g>
  </g>
 </g>
</svg>
