<?xml version="1.0" encoding="utf-8" standalone="no"?>
<!DOCTYPE svg PUBLIC "-//W3C//DTD SVG 1.1//EN"
  "http://www.w3.org/Graphics/SVG/1.1/DTD/svg11.dtd">
<svg xmlns:xlink="http://www.w3.org/1999/xlink" width="720pt" height="432pt" viewBox="0 0 720 432" xmlns="http://www.w3.org/2000/svg" version="1.1">
 <metadata>
  <rdf:RDF xmlns:dc="http://purl.org/dc/elements/1.1/" xmlns:cc="http://creativecommons.org/ns#" xmlns:rdf="http://www.w3.org/1999/02/22-rdf-syntax-ns#">
   <cc:Work>
    <dc:type rdf:resource="http://purl.org/dc/dcmitype/StillImage"/>
    <dc:date>2026-05-02T02:09:38.611465</dc:date>
    <dc:format>image/svg+xml</dc:format>
    <dc:creator>
     <cc:Agent>
      <dc:title>Matplotlib v3.7.5, https://matplotlib.org/</dc:title>
     </cc:Agent>
    </dc:creator>
   </cc:Work>
  </rdf:RDF>
 </metadata>
 <defs>
  <style type="text/css">*{stroke-linejoin: round; stroke-linecap: butt}</style>
 </defs>
 <g id="figure_1">
  <g id="patch_1">
   <path d="M 0 432 
L 720 432 
L 720 0 
L 0 0 
z
" style="fill: #ffffff"/>
  </g>
  <g id="axes_1">
   <g id="matplotlib.axis_1"/>
   <g id="matplotlib.axis_2"/>
   <g id="patch_2">
    <path d="M 502.056 218.16 
C 502.056 200.704583 498.621075 183.418561 491.947421 167.289274 
C 485.273767 151.159986 475.490911 136.500484 463.15763 124.148086 
C 450.824348 111.795688 436.180015 101.99014 420.061083 95.291514 
C 403.942151 88.592887 386.661469 85.131194 369.206074 85.10416 
C 351.750678 85.077125 334.459357 88.485274 318.319753 95.133939 
C 302.180149 101.782605 287.505512 111.542744 275.134028 123.85688 
C 262.762543 136.171016 252.934326 150.800145 246.210743 166.908683 
C 239.48716 183.017221 235.998707 200.29252 235.944638 217.747853 
C 235.890569 235.203186 239.271934 252.499765 245.895594 268.649647 
C 252.519255 284.799529 262.256656 299.489264 274.551616 311.879805 
C 286.846576 324.270347 301.460466 334.121209 317.558572 340.869733 
C 333.656677 347.618257 350.926553 351.133461 368.381781 351.214564 
C 385.837009 351.295667 403.138805 347.941095 419.298926 341.342455 
C 435.459047 334.743814 450.163845 325.029177 462.573414 312.753421 
C 474.982983 300.477666 484.856467 285.87905 491.629915 269.791416 
C 498.403363 253.703782 501.945309 236.439371 502.053447 218.984289 
L 369 218.16 
z
" style="fill: #f77189"/>
   </g>
   <g id="patch_3">
    <path d="M 502.053447 218.984289 
C 502.054289 218.848271 502.054923 218.712251 502.055349 218.576231 
C 502.055774 218.44021 502.055991 218.304189 502.056 218.168168 
L 369 218.16 
z
" style="fill: #bb9832"/>
   </g>
   <g id="patch_4">
    <path d="M 502.056 218.168168 
C 502.056 218.166808 502.056 218.165448 502.056 218.164087 
C 502.056 218.162727 502.056 218.161367 502.056 218.160007 
L 369 218.16 
z
" style="fill: #50b131"/>
   </g>
   <g id="text_1">
    <text style="fill: #262626; font: 10px 'Arial', 'Liberation Sans', 'DejaVu Sans', 'Bitstream Vera Sans', sans-serif; text-anchor: end" x="222.639102" y="220.292576" transform="rotate(-0 222.639102 220.292576)">newsapi</text>
   </g>
   <g id="text_2">
    <text style="fill: #262626; font: 10px 'Arial', 'Liberation Sans', 'DejaVu Sans', 'Bitstream Vera Sans', sans-serif; text-anchor: middle" x="289.166783" y="220.49865" transform="rotate(-0 289.166783 220.49865)">99.9%</text>
   </g>
   <g id="text_3">
    <text style="fill: #262626; font: 10px 'Arial', 'Liberation Sans', 'DejaVu Sans', 'Bitstream Vera Sans', sans-serif; text-anchor: start" x="515.360884" y="221.203791" transform="rotate(-0 515.360884 221.203791)">chicago_pd</text>
   </g>
   <g id="text_4">
    <text style="fill: #262626; font: 10px 'Arial', 'Liberation Sans', 'DejaVu Sans', 'Bitstream Vera Sans', sans-serif; text-anchor: middle" x="448.833209" y="220.995676" transform="rotate(-0 448.833209 220.995676)">0.1%</text>
   </g>
   <g id="text_5">
    <text style="fill: #262626; font: 10px 'Arial', 'Liberation Sans', 'DejaVu Sans', 'Bitstream Vera Sans', sans-serif; text-anchor: start" x="515.3616" y="220.750434" transform="rotate(-0 515.3616 220.750434)">chicago_police</text>
   </g>
   <g id="text_6">
    <text style="fill: #262626; font: 10px 'Arial', 'Liberation Sans', 'DejaVu Sans', 'Bitstream Vera Sans', sans-serif; text-anchor: middle" x="448.8336" y="220.74839" transform="rotate(-0 448.8336 220.74839)">0.0%</text>
   </g>
   <g id="text_7">
    <text style="fill: #262626; font: 12px 'Arial', 'Liberation Sans', 'DejaVu Sans', 'Bitstream Vera Sans', sans-serif; text-anchor: middle" x="369" y="45.84" transform="rotate(-0 369 45.84)">Incidents by Source</text>
   </g>
  </g>
 </g>
</svg>
