<?xml version="1.0" encoding="utf-8" standalone="no"?>
<!DOCTYPE svg PUBLIC "-//W3C//DTD SVG 1.1//EN"
  "http://www.w3.org/Graphics/SVG/1.1/DTD/svg11.dtd">
<svg xmlns:xlink="http://www.w3.org/1999/xlink" width="720pt" height="432pt" viewBox="0 0 720 432" xmlns="http://www.w3.org/2000/svg" version="1.1">
 <metadata>
  <rdf:RDF xmlns:dc="http://purl.org/dc/elements/1.1/" xmlns:cc="http://creativecommons.org/ns#" xmlns:rdf="http://www.w3.org/1999/02/22-rdf-syntax-ns#">
   <cc:Work>
    <dc:type rdf:resource="http://purl.org/dc/dcmitype/StillImage"/>
    <dc:date>2025-02-22T12:20:59.047727</dc:date>
    <dc:format>image/svg+xml</dc:format>
    <dc:creator>
     <cc:Agent>
      <dc:title>Matplotlib v3.7.5, https://matplotlib.org/</dc:title>
     </cc:Agent>
    </dc:creator>
   </cc:Work>
  </rdf:RDF>
 </metadata>
 <defs>
  <style type="text/css">*{stroke-linejoin: round; stroke-linecap: butt}</style>
 </defs>
 <g id="figure_1">
  <g id="patch_1">
   <path d="M 0 432 
L 720 432 
L 720 0 
L 0 0 
z
" style="fill: #ffffff"/>
  </g>
  <g id="axes_1">
   <g id="matplotlib.axis_1"/>
   <g id="matplotlib.axis_2"/>
   <g id="patch_2">
    <path d="M 502.056 218.16 
C 502.056 200.796175 498.657028 183.599088 492.051228 167.540888 
C 485.445427 151.482687 475.759663 136.871773 463.541472 124.534099 
C 451.32328 112.196425 436.807312 102.368938 420.814155 95.607185 
C 404.820997 88.845431 387.6578 85.279271 370.294798 85.1103 
C 352.931795 84.941329 335.702446 88.172791 319.580724 94.622013 
C 303.459001 101.071235 288.754525 110.614358 276.298537 122.71191 
C 263.842549 134.809463 253.874269 149.229109 246.957203 165.15571 
C 240.040136 181.08231 236.307126 198.209991 235.9692 215.570527 
C 235.631273 232.931063 238.69492 250.191042 244.986952 266.374761 
C 251.278985 282.558479 260.678563 297.355125 272.654331 309.928247 
C 284.630099 322.501369 298.952059 332.609498 314.810594 339.681222 
C 330.669128 346.752946 347.759671 350.652453 365.116097 351.159302 
C 382.472523 351.666152 399.761498 348.770611 416.005679 342.636364 
C 432.24986 336.502117 447.137275 327.246973 459.826341 315.394125 
C 472.515406 303.541276 482.762426 289.318358 489.988139 273.529391 
C 497.213851 257.740423 501.279485 240.688637 501.95521 223.337965 
L 369 218.16 
z
" style="fill: #f77189"/>
   </g>
   <g id="patch_3">
    <path d="M 501.95521 223.337965 
C 501.98847 222.483942 502.013501 221.629617 502.030299 220.775112 
C 502.047096 219.920606 502.055661 219.065958 502.05599 218.211287 
L 369 218.16 
z
" style="fill: #bb9832"/>
   </g>
   <g id="patch_4">
    <path d="M 502.05599 218.211287 
C 502.055993 218.202741 502.055996 218.194194 502.055998 218.185647 
C 502.055999 218.177101 502.056 218.168554 502.056 218.160007 
L 369 218.16 
z
" style="fill: #50b131"/>
   </g>
   <g id="text_1">
    <text style="fill: #262626; font: 10px 'Arial', 'Liberation Sans', 'DejaVu Sans', 'Bitstream Vera Sans', sans-serif; text-anchor: end" x="222.66612" y="217.897517" transform="rotate(-0 222.66612 217.897517)">newsapi</text>
   </g>
   <g id="text_2">
    <text style="fill: #262626; font: 10px 'Arial', 'Liberation Sans', 'DejaVu Sans', 'Bitstream Vera Sans', sans-serif; text-anchor: middle" x="289.18152" y="219.192254" transform="rotate(-0 289.18152 219.192254)">99.4%</text>
   </g>
   <g id="text_3">
    <text style="fill: #262626; font: 10px 'Arial', 'Liberation Sans', 'DejaVu Sans', 'Bitstream Vera Sans', sans-serif; text-anchor: start" x="515.333328" y="223.62256" transform="rotate(-0 515.333328 223.62256)">chicago_pd</text>
   </g>
   <g id="text_4">
    <text style="fill: #262626; font: 10px 'Arial', 'Liberation Sans', 'DejaVu Sans', 'Bitstream Vera Sans', sans-serif; text-anchor: middle" x="448.818179" y="222.315004" transform="rotate(-0 448.818179 222.315004)">0.6%</text>
   </g>
   <g id="text_5">
    <text style="fill: #262626; font: 10px 'Arial', 'Liberation Sans', 'DejaVu Sans', 'Bitstream Vera Sans', sans-serif; text-anchor: start" x="515.361597" y="220.774149" transform="rotate(-0 515.361597 220.774149)">chicago_police</text>
   </g>
   <g id="text_6">
    <text style="fill: #262626; font: 10px 'Arial', 'Liberation Sans', 'DejaVu Sans', 'Bitstream Vera Sans', sans-serif; text-anchor: middle" x="448.833599" y="220.761326" transform="rotate(-0 448.833599 220.761326)">0.0%</text>
   </g>
   <g id="text_7">
    <text style="fill: #262626; font: 12px 'Arial', 'Liberation Sans', 'DejaVu Sans', 'Bitstream Vera Sans', sans-serif; text-anchor: middle" x="369" y="45.84" transform="rotate(-0 369 45.84)">Incidents by Source</text>
   </g>
  </g>
 </g>
</svg>
