<?xml version="1.0" encoding="utf-8" standalone="no"?>
<!DOCTYPE svg PUBLIC "-//W3C//DTD SVG 1.1//EN"
  "http://www.w3.org/Graphics/SVG/1.1/DTD/svg11.dtd">
<svg xmlns:xlink="http://www.w3.org/1999/xlink" width="720pt" height="432pt" viewBox="0 0 720 432" xmlns="http://www.w3.org/2000/svg" version="1.1">
 <metadata>
  <rdf:RDF xmlns:dc="http://purl.org/dc/elements/1.1/" xmlns:cc="http://creativecommons.org/ns#" xmlns:rdf="http://www.w3.org/1999/02/22-rdf-syntax-ns#">
   <cc:Work>
    <dc:type rdf:resource="http://purl.org/dc/dcmitype/StillImage"/>
    <dc:date>2026-03-21T02:27:49.277596</dc:date>
    <dc:format>image/svg+xml</dc:format>
    <dc:creator>
     <cc:Agent>
      <dc:title>Matplotlib v3.7.5, https://matplotlib.org/</dc:title>
     </cc:Agent>
    </dc:creator>
   </cc:Work>
  </rdf:RDF>
 </metadata>
 <defs>
  <style type="text/css">*{stroke-linejoin: round; stroke-linecap: butt}</style>
 </defs>
 <g id="figure_1">
  <g id="patch_1">
   <path d="M 0 432 
L 720 432 
L 720 0 
L 0 0 
z
" style="fill: #ffffff"/>
  </g>
  <g id="axes_1">
   <g id="matplotlib.axis_1"/>
   <g id="matplotlib.axis_2"/>
   <g id="patch_2">
    <path d="M 502.056 218.16 
C 502.056 200.705939 498.621609 183.421232 491.948961 167.292995 
C 485.276313 151.164758 475.494897 136.505971 463.16332 124.153786 
C 450.831744 111.8016 436.189311 101.99572 420.072238 95.29615 
C 403.955166 88.59658 386.676218 85.133331 369.222181 85.104186 
C 351.768144 85.07504 334.477727 88.480564 318.33837 95.126271 
C 302.199013 101.771979 287.523914 111.528903 275.151154 123.839837 
C 262.778394 136.15077 252.948077 150.776808 246.221604 166.882671 
C 239.49513 182.988534 236.003033 200.261674 235.944742 217.715638 
C 235.886451 235.169602 239.263099 252.465682 245.881846 268.616114 
C 252.500594 284.766545 262.233001 299.457917 274.523256 311.851216 
C 286.813512 324.244516 301.423115 334.099243 317.517723 340.852601 
C 333.612331 347.605959 350.879616 351.126895 368.333459 351.21433 
C 385.787301 351.301766 403.088995 347.954005 419.250457 341.362235 
C 435.411918 334.770465 450.11952 325.062604 462.533325 312.793061 
C 474.947131 300.523517 484.826239 285.93039 491.606463 269.847081 
C 498.386687 253.763773 501.936451 236.502391 502.053032 219.048719 
L 369 218.16 
z
" style="fill: #f77189"/>
   </g>
   <g id="patch_3">
    <path d="M 502.053032 219.048719 
C 502.054012 218.902068 502.054749 218.755416 502.055243 218.608763 
C 502.055738 218.462109 502.05599 218.315456 502.056 218.168802 
L 369 218.16 
z
" style="fill: #bb9832"/>
   </g>
   <g id="patch_4">
    <path d="M 502.056 218.168802 
C 502.056 218.167335 502.056 218.165869 502.056 218.164402 
C 502.056 218.162935 502.056 218.161469 502.056 218.160002 
L 369 218.16 
z
" style="fill: #50b131"/>
   </g>
   <g id="text_1">
    <text style="fill: #262626; font: 10px 'Arial', 'Liberation Sans', 'DejaVu Sans', 'Bitstream Vera Sans', sans-serif; text-anchor: end" x="222.639216" y="220.257139" transform="rotate(-0 222.639216 220.257139)">newsapi</text>
   </g>
   <g id="text_2">
    <text style="fill: #262626; font: 10px 'Arial', 'Liberation Sans', 'DejaVu Sans', 'Bitstream Vera Sans', sans-serif; text-anchor: middle" x="289.166845" y="220.47932" transform="rotate(-0 289.166845 220.47932)">99.9%</text>
   </g>
   <g id="text_3">
    <text style="fill: #262626; font: 10px 'Arial', 'Liberation Sans', 'DejaVu Sans', 'Bitstream Vera Sans', sans-serif; text-anchor: start" x="515.360768" y="221.239576" transform="rotate(-0 515.360768 221.239576)">chicago_pd</text>
   </g>
   <g id="text_4">
    <text style="fill: #262626; font: 10px 'Arial', 'Liberation Sans', 'DejaVu Sans', 'Bitstream Vera Sans', sans-serif; text-anchor: middle" x="448.833146" y="221.015195" transform="rotate(-0 448.833146 221.015195)">0.1%</text>
   </g>
   <g id="text_5">
    <text style="fill: #262626; font: 10px 'Arial', 'Liberation Sans', 'DejaVu Sans', 'Bitstream Vera Sans', sans-serif; text-anchor: start" x="515.3616" y="220.75078" transform="rotate(-0 515.3616 220.75078)">chicago_police</text>
   </g>
   <g id="text_6">
    <text style="fill: #262626; font: 10px 'Arial', 'Liberation Sans', 'DejaVu Sans', 'Bitstream Vera Sans', sans-serif; text-anchor: middle" x="448.8336" y="220.748579" transform="rotate(-0 448.8336 220.748579)">0.0%</text>
   </g>
   <g id="text_7">
    <text style="fill: #262626; font: 12px 'Arial', 'Liberation Sans', 'DejaVu Sans', 'Bitstream Vera Sans', sans-serif; text-anchor: middle" x="369" y="45.84" transform="rotate(-0 369 45.84)">Incidents by Source</text>
   </g>
  </g>
 </g>
</svg>
