<?xml version="1.0" encoding="utf-8" standalone="no"?>
<!DOCTYPE svg PUBLIC "-//W3C//DTD SVG 1.1//EN"
  "http://www.w3.org/Graphics/SVG/1.1/DTD/svg11.dtd">
<svg xmlns:xlink="http://www.w3.org/1999/xlink" width="720pt" height="432pt" viewBox="0 0 720 432" xmlns="http://www.w3.org/2000/svg" version="1.1">
 <metadata>
  <rdf:RDF xmlns:dc="http://purl.org/dc/elements/1.1/" xmlns:cc="http://creativecommons.org/ns#" xmlns:rdf="http://www.w3.org/1999/02/22-rdf-syntax-ns#">
   <cc:Work>
    <dc:type rdf:resource="http://purl.org/dc/dcmitype/StillImage"/>
    <dc:date>2025-01-14T00:56:23.544968</dc:date>
    <dc:format>image/svg+xml</dc:format>
    <dc:creator>
     <cc:Agent>
      <dc:title>Matplotlib v3.7.5, https://matplotlib.org/</dc:title>
     </cc:Agent>
    </dc:creator>
   </cc:Work>
  </rdf:RDF>
 </metadata>
 <defs>
  <style type="text/css">*{stroke-linejoin: round; stroke-linecap: butt}</style>
 </defs>
 <g id="figure_1">
  <g id="patch_1">
   <path d="M 0 432 
L 720 432 
L 720 0 
L 0 0 
z
" style="fill: #ffffff"/>
  </g>
  <g id="axes_1">
   <g id="matplotlib.axis_1"/>
   <g id="matplotlib.axis_2"/>
   <g id="patch_2">
    <path d="M 502.056 218.16 
C 502.056 200.896161 498.69606 183.796191 492.163971 167.81583 
C 485.631882 151.835469 476.05165 137.278089 463.958726 124.95732 
C 451.865802 112.636552 437.48976 102.786294 421.634095 95.95709 
C 405.77843 89.127886 388.744148 85.449383 371.483316 85.127176 
C 354.222484 84.804969 337.062784 87.845175 320.963293 94.077874 
C 304.863803 100.310573 290.130156 109.617442 277.585835 121.478308 
C 265.041514 133.339174 254.924662 147.52887 247.800722 163.254315 
C 240.676783 178.97976 236.680997 195.942421 236.036696 213.194233 
C 235.392394 230.446045 238.111808 247.659497 244.042945 263.872509 
C 249.974082 280.085521 259.004346 294.990302 270.629023 307.753805 
C 282.2537 320.517309 296.252106 330.897231 311.841853 338.313424 
C 327.4316 345.729618 344.31673 350.041293 361.553512 351.007465 
C 378.790294 351.973637 396.051502 349.575964 412.372387 343.948454 
C 428.693271 338.320945 443.763994 329.570432 456.742234 318.185994 
C 469.720474 306.801556 480.35985 292.999315 488.065714 277.550698 
C 495.771578 262.10208 500.397641 245.300362 501.685346 228.084615 
L 369 218.16 
z
" style="fill: #f77189"/>
   </g>
   <g id="patch_3">
    <path d="M 501.685346 228.084615 
C 501.807621 226.449889 501.899674 224.813043 501.96146 223.174915 
C 502.023245 221.536787 502.054752 219.897657 502.055964 218.258364 
L 369 218.16 
z
" style="fill: #bb9832"/>
   </g>
   <g id="patch_4">
    <path d="M 502.055964 218.258364 
C 502.055976 218.241972 502.055985 218.22558 502.055991 218.209187 
C 502.055997 218.192795 502.056 218.176402 502.056 218.16001 
L 369 218.16 
z
" style="fill: #50b131"/>
   </g>
   <g id="text_1">
    <text style="fill: #262626; font: 10px 'Arial', 'Liberation Sans', 'DejaVu Sans', 'Bitstream Vera Sans', sans-serif; text-anchor: end" x="222.740365" y="215.283594" transform="rotate(-0 222.740365 215.283594)">newsapi</text>
   </g>
   <g id="text_2">
    <text style="fill: #262626; font: 10px 'Arial', 'Liberation Sans', 'DejaVu Sans', 'Bitstream Vera Sans', sans-serif; text-anchor: middle" x="289.222017" y="217.766477" transform="rotate(-0 289.222017 217.766477)">98.8%</text>
   </g>
   <g id="text_3">
    <text style="fill: #262626; font: 10px 'Arial', 'Liberation Sans', 'DejaVu Sans', 'Bitstream Vera Sans', sans-serif; text-anchor: start" x="515.257606" y="226.262344" transform="rotate(-0 515.257606 226.262344)">chicago_pd</text>
   </g>
   <g id="text_4">
    <text style="fill: #262626; font: 10px 'Arial', 'Liberation Sans', 'DejaVu Sans', 'Bitstream Vera Sans', sans-serif; text-anchor: middle" x="448.776876" y="223.754886" transform="rotate(-0 448.776876 223.754886)">1.2%</text>
   </g>
   <g id="text_5">
    <text style="fill: #262626; font: 10px 'Arial', 'Liberation Sans', 'DejaVu Sans', 'Bitstream Vera Sans', sans-serif; text-anchor: start" x="515.36159" y="220.800043" transform="rotate(-0 515.36159 220.800043)">chicago_police</text>
   </g>
   <g id="text_6">
    <text style="fill: #262626; font: 10px 'Arial', 'Liberation Sans', 'DejaVu Sans', 'Bitstream Vera Sans', sans-serif; text-anchor: middle" x="448.833595" y="220.77545" transform="rotate(-0 448.833595 220.77545)">0.0%</text>
   </g>
   <g id="text_7">
    <text style="fill: #262626; font: 12px 'Arial', 'Liberation Sans', 'DejaVu Sans', 'Bitstream Vera Sans', sans-serif; text-anchor: middle" x="369" y="45.84" transform="rotate(-0 369 45.84)">Incidents by Source</text>
   </g>
  </g>
 </g>
</svg>
