<?xml version="1.0" encoding="utf-8" standalone="no"?>
<!DOCTYPE svg PUBLIC "-//W3C//DTD SVG 1.1//EN"
  "http://www.w3.org/Graphics/SVG/1.1/DTD/svg11.dtd">
<svg xmlns:xlink="http://www.w3.org/1999/xlink" width="720pt" height="432pt" viewBox="0 0 720 432" xmlns="http://www.w3.org/2000/svg" version="1.1">
 <metadata>
  <rdf:RDF xmlns:dc="http://purl.org/dc/elements/1.1/" xmlns:cc="http://creativecommons.org/ns#" xmlns:rdf="http://www.w3.org/1999/02/22-rdf-syntax-ns#">
   <cc:Work>
    <dc:type rdf:resource="http://purl.org/dc/dcmitype/StillImage"/>
    <dc:date>2025-03-19T01:44:03.964018</dc:date>
    <dc:format>image/svg+xml</dc:format>
    <dc:creator>
     <cc:Agent>
      <dc:title>Matplotlib v3.7.5, https://matplotlib.org/</dc:title>
     </cc:Agent>
    </dc:creator>
   </cc:Work>
  </rdf:RDF>
 </metadata>
 <defs>
  <style type="text/css">*{stroke-linejoin: round; stroke-linecap: butt}</style>
 </defs>
 <g id="figure_1">
  <g id="patch_1">
   <path d="M 0 432 
L 720 432 
L 720 0 
L 0 0 
z
" style="fill: #ffffff"/>
  </g>
  <g id="axes_1">
   <g id="matplotlib.axis_1"/>
   <g id="matplotlib.axis_2"/>
   <g id="patch_2">
    <path d="M 502.056 218.16 
C 502.056 200.772278 498.647666 183.551985 492.024192 167.475217 
C 485.400719 151.398449 475.689662 136.774817 463.441474 124.433231 
C 451.193285 112.091645 436.643843 102.269783 420.617853 95.524376 
C 404.591864 88.778969 387.397958 85.239922 370.010738 85.107839 
C 352.623518 84.975756 335.37783 88.253181 319.251212 94.754339 
C 303.124594 101.255497 288.427615 110.855187 275.993344 123.009271 
C 263.559073 135.163356 253.626972 149.637768 246.76002 165.612055 
C 239.893069 181.586342 236.223514 198.752868 235.959356 216.138583 
C 235.695198 233.524298 238.841524 250.794384 245.219991 266.969922 
C 251.598458 283.145459 261.086228 297.914937 273.145507 310.441175 
C 285.204786 322.967414 299.603333 333.009182 315.524995 339.997281 
C 331.446658 346.98538 348.584813 350.785232 365.96802 351.18145 
C 383.351227 351.577669 400.644715 348.562623 416.868239 342.307214 
C 433.091763 336.051806 447.932886 326.676503 460.55037 314.712726 
C 473.167854 302.748948 483.318708 288.427098 490.427552 272.558978 
C 497.536395 256.690859 501.466325 239.582063 501.99458 222.202368 
L 369 218.16 
z
" style="fill: #f77189"/>
   </g>
   <g id="patch_3">
    <path d="M 501.99458 222.202368 
C 502.014849 221.535515 502.030102 220.868519 502.040339 220.201436 
C 502.050575 219.534354 502.055793 218.867204 502.055994 218.200043 
L 369 218.16 
z
" style="fill: #bb9832"/>
   </g>
   <g id="patch_4">
    <path d="M 502.055994 218.200043 
C 502.055996 218.193371 502.055997 218.1867 502.055998 218.180028 
C 502.055999 218.173357 502.056 218.166685 502.056 218.160014 
L 369 218.16 
z
" style="fill: #50b131"/>
   </g>
   <g id="text_1">
    <text style="fill: #262626; font: 10px 'Arial', 'Liberation Sans', 'DejaVu Sans', 'Bitstream Vera Sans', sans-serif; text-anchor: end" x="222.655291" y="218.522378" transform="rotate(-0 222.655291 218.522378)">newsapi</text>
   </g>
   <g id="text_2">
    <text style="fill: #262626; font: 10px 'Arial', 'Liberation Sans', 'DejaVu Sans', 'Bitstream Vera Sans', sans-serif; text-anchor: middle" x="289.175613" y="219.533087" transform="rotate(-0 289.175613 219.533087)">99.5%</text>
   </g>
   <g id="text_3">
    <text style="fill: #262626; font: 10px 'Arial', 'Liberation Sans', 'DejaVu Sans', 'Bitstream Vera Sans', sans-serif; text-anchor: start" x="515.344372" y="222.991518" transform="rotate(-0 515.344372 222.991518)">chicago_pd</text>
   </g>
   <g id="text_4">
    <text style="fill: #262626; font: 10px 'Arial', 'Liberation Sans', 'DejaVu Sans', 'Bitstream Vera Sans', sans-serif; text-anchor: middle" x="448.824203" y="221.970799" transform="rotate(-0 448.824203 221.970799)">0.5%</text>
   </g>
   <g id="text_5">
    <text style="fill: #262626; font: 10px 'Arial', 'Liberation Sans', 'DejaVu Sans', 'Bitstream Vera Sans', sans-serif; text-anchor: start" x="515.361598" y="220.767969" transform="rotate(-0 515.361598 220.767969)">chicago_police</text>
   </g>
   <g id="text_6">
    <text style="fill: #262626; font: 10px 'Arial', 'Liberation Sans', 'DejaVu Sans', 'Bitstream Vera Sans', sans-serif; text-anchor: middle" x="448.833599" y="220.757954" transform="rotate(-0 448.833599 220.757954)">0.0%</text>
   </g>
   <g id="text_7">
    <text style="fill: #262626; font: 12px 'Arial', 'Liberation Sans', 'DejaVu Sans', 'Bitstream Vera Sans', sans-serif; text-anchor: middle" x="369" y="45.84" transform="rotate(-0 369 45.84)">Incidents by Source</text>
   </g>
  </g>
 </g>
</svg>
