<?xml version="1.0" encoding="utf-8" standalone="no"?>
<!DOCTYPE svg PUBLIC "-//W3C//DTD SVG 1.1//EN"
  "http://www.w3.org/Graphics/SVG/1.1/DTD/svg11.dtd">
<svg xmlns:xlink="http://www.w3.org/1999/xlink" width="720pt" height="432pt" viewBox="0 0 720 432" xmlns="http://www.w3.org/2000/svg" version="1.1">
 <metadata>
  <rdf:RDF xmlns:dc="http://purl.org/dc/elements/1.1/" xmlns:cc="http://creativecommons.org/ns#" xmlns:rdf="http://www.w3.org/1999/02/22-rdf-syntax-ns#">
   <cc:Work>
    <dc:type rdf:resource="http://purl.org/dc/dcmitype/StillImage"/>
    <dc:date>2025-12-15T18:24:19.331739</dc:date>
    <dc:format>image/svg+xml</dc:format>
    <dc:creator>
     <cc:Agent>
      <dc:title>Matplotlib v3.7.5, https://matplotlib.org/</dc:title>
     </cc:Agent>
    </dc:creator>
   </cc:Work>
  </rdf:RDF>
 </metadata>
 <defs>
  <style type="text/css">*{stroke-linejoin: round; stroke-linecap: butt}</style>
 </defs>
 <g id="figure_1">
  <g id="patch_1">
   <path d="M 0 432 
L 720 432 
L 720 0 
L 0 0 
z
" style="fill: #ffffff"/>
  </g>
  <g id="axes_1">
   <g id="matplotlib.axis_1"/>
   <g id="matplotlib.axis_2"/>
   <g id="patch_2">
    <path d="M 502.056 218.16 
C 502.056 200.710482 498.623396 183.430186 491.954121 167.305471 
C 485.284847 151.180755 475.508256 136.524369 463.182395 124.172897 
C 450.856535 111.821425 436.220474 102.014433 420.109636 95.311702 
C 403.998799 88.608972 386.725665 85.140507 369.276185 85.104287 
C 351.826704 85.068067 334.539321 88.464794 318.400796 95.100585 
C 302.262272 101.736375 287.585624 111.482522 275.208594 123.782718 
C 262.831564 136.082914 252.994213 150.698587 246.258056 166.795477 
C 239.521898 182.892367 236.017586 200.158264 235.945147 217.607632 
C 235.872707 235.056999 239.233543 252.351396 245.835821 268.50366 
C 252.438098 284.655923 262.15376 299.35277 274.428238 311.755305 
C 286.702716 324.157839 301.297939 334.025507 317.380812 340.795063 
C 333.463685 347.564618 350.72227 351.104761 368.17145 351.21342 
C 385.62063 351.32208 402.921966 347.997148 419.087899 341.428412 
C 435.253832 334.859677 449.970814 325.174542 462.3988 312.925834 
C 474.826786 300.677126 484.724728 286.102418 491.527652 270.033631 
C 498.330576 253.964844 501.906535 236.713644 502.051414 219.264727 
L 369 218.16 
z
" style="fill: #f77189"/>
   </g>
   <g id="patch_3">
    <path d="M 502.051414 219.264727 
C 502.052927 219.082436 502.054066 218.900141 502.054831 218.717844 
C 502.055595 218.535548 502.055985 218.35325 502.056 218.170951 
L 369 218.16 
z
" style="fill: #bb9832"/>
   </g>
   <g id="patch_4">
    <path d="M 502.056 218.170951 
C 502.056 218.169128 502.056 218.167305 502.056 218.165482 
C 502.056 218.163659 502.056 218.161836 502.056 218.160014 
L 369 218.16 
z
" style="fill: #50b131"/>
   </g>
   <g id="text_1">
    <text style="fill: #262626; font: 10px 'Arial', 'Liberation Sans', 'DejaVu Sans', 'Bitstream Vera Sans', sans-serif; text-anchor: end" x="222.639661" y="220.138332" transform="rotate(-0 222.639661 220.138332)">newsapi</text>
   </g>
   <g id="text_2">
    <text style="fill: #262626; font: 10px 'Arial', 'Liberation Sans', 'DejaVu Sans', 'Bitstream Vera Sans', sans-serif; text-anchor: middle" x="289.167088" y="220.414516" transform="rotate(-0 289.167088 220.414516)">99.9%</text>
   </g>
   <g id="text_3">
    <text style="fill: #262626; font: 10px 'Arial', 'Liberation Sans', 'DejaVu Sans', 'Bitstream Vera Sans', sans-serif; text-anchor: start" x="515.360314" y="221.359566" transform="rotate(-0 515.360314 221.359566)">chicago_pd</text>
   </g>
   <g id="text_4">
    <text style="fill: #262626; font: 10px 'Arial', 'Liberation Sans', 'DejaVu Sans', 'Bitstream Vera Sans', sans-serif; text-anchor: middle" x="448.832898" y="221.080644" transform="rotate(-0 448.832898 221.080644)">0.1%</text>
   </g>
   <g id="text_5">
    <text style="fill: #262626; font: 10px 'Arial', 'Liberation Sans', 'DejaVu Sans', 'Bitstream Vera Sans', sans-serif; text-anchor: start" x="515.3616" y="220.751968" transform="rotate(-0 515.3616 220.751968)">chicago_police</text>
   </g>
   <g id="text_6">
    <text style="fill: #262626; font: 10px 'Arial', 'Liberation Sans', 'DejaVu Sans', 'Bitstream Vera Sans', sans-serif; text-anchor: middle" x="448.8336" y="220.749227" transform="rotate(-0 448.8336 220.749227)">0.0%</text>
   </g>
   <g id="text_7">
    <text style="fill: #262626; font: 12px 'Arial', 'Liberation Sans', 'DejaVu Sans', 'Bitstream Vera Sans', sans-serif; text-anchor: middle" x="369" y="45.84" transform="rotate(-0 369 45.84)">Incidents by Source</text>
   </g>
  </g>
 </g>
</svg>
