<?xml version="1.0" encoding="utf-8" standalone="no"?>
<!DOCTYPE svg PUBLIC "-//W3C//DTD SVG 1.1//EN"
  "http://www.w3.org/Graphics/SVG/1.1/DTD/svg11.dtd">
<svg xmlns:xlink="http://www.w3.org/1999/xlink" width="720pt" height="432pt" viewBox="0 0 720 432" xmlns="http://www.w3.org/2000/svg" version="1.1">
 <metadata>
  <rdf:RDF xmlns:dc="http://purl.org/dc/elements/1.1/" xmlns:cc="http://creativecommons.org/ns#" xmlns:rdf="http://www.w3.org/1999/02/22-rdf-syntax-ns#">
   <cc:Work>
    <dc:type rdf:resource="http://purl.org/dc/dcmitype/StillImage"/>
    <dc:date>2025-06-08T01:15:46.460177</dc:date>
    <dc:format>image/svg+xml</dc:format>
    <dc:creator>
     <cc:Agent>
      <dc:title>Matplotlib v3.7.5, https://matplotlib.org/</dc:title>
     </cc:Agent>
    </dc:creator>
   </cc:Work>
  </rdf:RDF>
 </metadata>
 <defs>
  <style type="text/css">*{stroke-linejoin: round; stroke-linecap: butt}</style>
 </defs>
 <g id="figure_1">
  <g id="patch_1">
   <path d="M 0 432 
L 720 432 
L 720 0 
L 0 0 
z
" style="fill: #ffffff"/>
  </g>
  <g id="axes_1">
   <g id="matplotlib.axis_1"/>
   <g id="matplotlib.axis_2"/>
   <g id="patch_2">
    <path d="M 502.056 218.16 
C 502.056 200.735026 498.633046 183.47856 491.981979 167.372877 
C 485.330913 151.267193 475.580372 136.623793 463.285379 124.276208 
C 450.990385 111.928623 436.388737 102.115668 420.311589 95.395917 
C 404.234441 88.676167 386.992743 85.179588 369.567928 85.105212 
C 352.143113 85.030836 334.872194 88.380103 318.738268 94.962364 
C 302.604342 101.544626 287.919456 111.232575 275.519505 123.474752 
C 263.119553 135.71693 253.244363 150.276561 246.456051 166.32488 
C 239.667739 182.373199 236.097598 199.599815 235.948848 217.024155 
C 235.800098 234.448494 239.075616 251.733551 245.588953 267.895425 
C 252.102289 284.057299 261.727469 298.783403 273.916609 311.235495 
C 286.105748 323.687588 300.623095 333.624833 316.642293 340.481583 
C 332.661491 347.338333 349.872712 350.98197 367.296258 351.205092 
C 384.719803 351.428213 402.018684 348.226504 418.208212 341.782211 
C 434.39774 335.337918 449.164793 325.775681 461.668799 313.639803 
C 474.172806 301.503925 484.171926 287.029125 491.096988 271.03934 
C 498.022051 255.049555 501.739118 237.854042 502.036607 220.431608 
L 369 218.16 
z
" style="fill: #f77189"/>
   </g>
   <g id="patch_3">
    <path d="M 502.036607 220.431608 
C 502.043008 220.056791 502.047824 219.681948 502.051055 219.30709 
C 502.054287 218.932232 502.055935 218.557362 502.055998 218.182491 
L 369 218.16 
z
" style="fill: #bb9832"/>
   </g>
   <g id="patch_4">
    <path d="M 502.055998 218.182491 
C 502.055999 218.178742 502.055999 218.174993 502.056 218.171245 
C 502.056 218.167496 502.056 218.163747 502.056 218.159998 
L 369 218.16 
z
" style="fill: #50b131"/>
   </g>
   <g id="text_1">
    <text style="fill: #262626; font: 10px 'Arial', 'Liberation Sans', 'DejaVu Sans', 'Bitstream Vera Sans', sans-serif; text-anchor: end" x="222.643733" y="219.496508" transform="rotate(-0 222.643733 219.496508)">newsapi</text>
   </g>
   <g id="text_2">
    <text style="fill: #262626; font: 10px 'Arial', 'Liberation Sans', 'DejaVu Sans', 'Bitstream Vera Sans', sans-serif; text-anchor: middle" x="289.169309" y="220.06443" transform="rotate(-0 289.169309 220.06443)">99.7%</text>
   </g>
   <g id="text_3">
    <text style="fill: #262626; font: 10px 'Arial', 'Liberation Sans', 'DejaVu Sans', 'Bitstream Vera Sans', sans-serif; text-anchor: start" x="515.356161" y="222.007737" transform="rotate(-0 515.356161 222.007737)">chicago_pd</text>
   </g>
   <g id="text_4">
    <text style="fill: #262626; font: 10px 'Arial', 'Liberation Sans', 'DejaVu Sans', 'Bitstream Vera Sans', sans-serif; text-anchor: middle" x="448.830633" y="221.434192" transform="rotate(-0 448.830633 221.434192)">0.3%</text>
   </g>
   <g id="text_5">
    <text style="fill: #262626; font: 10px 'Arial', 'Liberation Sans', 'DejaVu Sans', 'Bitstream Vera Sans', sans-serif; text-anchor: start" x="515.361599" y="220.758306" transform="rotate(-0 515.361599 220.758306)">chicago_police</text>
   </g>
   <g id="text_6">
    <text style="fill: #262626; font: 10px 'Arial', 'Liberation Sans', 'DejaVu Sans', 'Bitstream Vera Sans', sans-serif; text-anchor: middle" x="448.8336" y="220.752684" transform="rotate(-0 448.8336 220.752684)">0.0%</text>
   </g>
   <g id="text_7">
    <text style="fill: #262626; font: 12px 'Arial', 'Liberation Sans', 'DejaVu Sans', 'Bitstream Vera Sans', sans-serif; text-anchor: middle" x="369" y="45.84" transform="rotate(-0 369 45.84)">Incidents by Source</text>
   </g>
  </g>
 </g>
</svg>
