<?xml version="1.0" encoding="utf-8" standalone="no"?>
<!DOCTYPE svg PUBLIC "-//W3C//DTD SVG 1.1//EN"
  "http://www.w3.org/Graphics/SVG/1.1/DTD/svg11.dtd">
<svg xmlns:xlink="http://www.w3.org/1999/xlink" width="720pt" height="432pt" viewBox="0 0 720 432" xmlns="http://www.w3.org/2000/svg" version="1.1">
 <metadata>
  <rdf:RDF xmlns:dc="http://purl.org/dc/elements/1.1/" xmlns:cc="http://creativecommons.org/ns#" xmlns:rdf="http://www.w3.org/1999/02/22-rdf-syntax-ns#">
   <cc:Work>
    <dc:type rdf:resource="http://purl.org/dc/dcmitype/StillImage"/>
    <dc:date>2025-10-15T12:50:35.649785</dc:date>
    <dc:format>image/svg+xml</dc:format>
    <dc:creator>
     <cc:Agent>
      <dc:title>Matplotlib v3.7.5, https://matplotlib.org/</dc:title>
     </cc:Agent>
    </dc:creator>
   </cc:Work>
  </rdf:RDF>
 </metadata>
 <defs>
  <style type="text/css">*{stroke-linejoin: round; stroke-linecap: butt}</style>
 </defs>
 <g id="figure_1">
  <g id="patch_1">
   <path d="M 0 432 
L 720 432 
L 720 0 
L 0 0 
z
" style="fill: #ffffff"/>
  </g>
  <g id="axes_1">
   <g id="matplotlib.axis_1"/>
   <g id="matplotlib.axis_2"/>
   <g id="patch_2">
    <path d="M 502.056 218.16 
C 502.056 200.714706 498.625058 183.43851 491.958918 167.317069 
C 485.292778 151.195627 475.520672 136.541473 463.200125 124.190667 
C 450.879578 111.83986 436.24944 102.031837 420.144399 95.326171 
C 404.039358 88.620505 386.771631 85.147194 369.326389 85.1044 
C 351.881147 85.061607 334.596588 88.45016 318.458842 95.076733 
C 302.321097 101.703307 287.643016 111.439437 275.262024 123.72965 
C 262.881032 136.019863 253.03715 150.625898 246.291998 166.714442 
C 239.546847 182.802985 236.031188 200.06214 235.945601 217.507224 
C 235.860014 234.952309 239.206158 252.245128 245.793125 268.39908 
C 252.380093 284.553032 262.080188 299.254951 274.339993 311.666054 
C 286.599798 324.077157 301.181642 333.956838 317.253591 340.741435 
C 333.32554 347.526032 350.576019 351.084017 368.020841 351.212397 
C 385.465663 351.340777 402.766639 348.037063 418.9367 341.489741 
C 435.106761 334.94242 449.832431 325.278418 462.27357 313.049094 
C 474.714709 300.819771 484.63013 286.262205 491.454132 270.206948 
C 498.278133 254.15169 501.878423 236.90999 502.049595 219.465536 
L 369 218.16 
z
" style="fill: #f77189"/>
   </g>
   <g id="patch_3">
    <path d="M 502.049595 219.465536 
C 502.051709 219.250109 502.053299 219.034678 502.054367 218.819244 
C 502.055434 218.603809 502.055978 218.388373 502.055999 218.172936 
L 369 218.16 
z
" style="fill: #bb9832"/>
   </g>
   <g id="patch_4">
    <path d="M 502.055999 218.172936 
C 502.056 218.170781 502.056 218.168627 502.056 218.166473 
C 502.056 218.164318 502.056 218.162164 502.056 218.16001 
L 369 218.16 
z
" style="fill: #50b131"/>
   </g>
   <g id="text_1">
    <text style="fill: #262626; font: 10px 'Arial', 'Liberation Sans', 'DejaVu Sans', 'Bitstream Vera Sans', sans-serif; text-anchor: end" x="222.640161" y="220.027884" transform="rotate(-0 222.640161 220.027884)">newsapi</text>
   </g>
   <g id="text_2">
    <text style="fill: #262626; font: 10px 'Arial', 'Liberation Sans', 'DejaVu Sans', 'Bitstream Vera Sans', sans-serif; text-anchor: middle" x="289.167361" y="220.354272" transform="rotate(-0 289.167361 220.354272)">99.8%</text>
   </g>
   <g id="text_3">
    <text style="fill: #262626; font: 10px 'Arial', 'Liberation Sans', 'DejaVu Sans', 'Bitstream Vera Sans', sans-serif; text-anchor: start" x="515.359804" y="221.471105" transform="rotate(-0 515.359804 221.471105)">chicago_pd</text>
   </g>
   <g id="text_4">
    <text style="fill: #262626; font: 10px 'Arial', 'Liberation Sans', 'DejaVu Sans', 'Bitstream Vera Sans', sans-serif; text-anchor: middle" x="448.83262" y="221.141484" transform="rotate(-0 448.83262 221.141484)">0.2%</text>
   </g>
   <g id="text_5">
    <text style="fill: #262626; font: 10px 'Arial', 'Liberation Sans', 'DejaVu Sans', 'Bitstream Vera Sans', sans-serif; text-anchor: start" x="515.3616" y="220.753057" transform="rotate(-0 515.3616 220.753057)">chicago_police</text>
   </g>
   <g id="text_6">
    <text style="fill: #262626; font: 10px 'Arial', 'Liberation Sans', 'DejaVu Sans', 'Bitstream Vera Sans', sans-serif; text-anchor: middle" x="448.8336" y="220.749821" transform="rotate(-0 448.8336 220.749821)">0.0%</text>
   </g>
   <g id="text_7">
    <text style="fill: #262626; font: 12px 'Arial', 'Liberation Sans', 'DejaVu Sans', 'Bitstream Vera Sans', sans-serif; text-anchor: middle" x="369" y="45.84" transform="rotate(-0 369 45.84)">Incidents by Source</text>
   </g>
  </g>
 </g>
</svg>
