<?xml version="1.0" encoding="utf-8" standalone="no"?>
<!DOCTYPE svg PUBLIC "-//W3C//DTD SVG 1.1//EN"
  "http://www.w3.org/Graphics/SVG/1.1/DTD/svg11.dtd">
<svg xmlns:xlink="http://www.w3.org/1999/xlink" width="720pt" height="432pt" viewBox="0 0 720 432" xmlns="http://www.w3.org/2000/svg" version="1.1">
 <metadata>
  <rdf:RDF xmlns:dc="http://purl.org/dc/elements/1.1/" xmlns:cc="http://creativecommons.org/ns#" xmlns:rdf="http://www.w3.org/1999/02/22-rdf-syntax-ns#">
   <cc:Work>
    <dc:type rdf:resource="http://purl.org/dc/dcmitype/StillImage"/>
    <dc:date>2025-05-30T06:20:27.847146</dc:date>
    <dc:format>image/svg+xml</dc:format>
    <dc:creator>
     <cc:Agent>
      <dc:title>Matplotlib v3.7.5, https://matplotlib.org/</dc:title>
     </cc:Agent>
    </dc:creator>
   </cc:Work>
  </rdf:RDF>
 </metadata>
 <defs>
  <style type="text/css">*{stroke-linejoin: round; stroke-linecap: butt}</style>
 </defs>
 <g id="figure_1">
  <g id="patch_1">
   <path d="M 0 432 
L 720 432 
L 720 0 
L 0 0 
z
" style="fill: #ffffff"/>
  </g>
  <g id="axes_1">
   <g id="matplotlib.axis_1"/>
   <g id="matplotlib.axis_2"/>
   <g id="patch_2">
    <path d="M 502.056 218.16 
C 502.056 200.737446 498.633997 183.48333 491.984724 167.379524 
C 485.335452 151.275718 475.587478 136.633599 463.295526 124.2864 
C 451.003575 111.939201 436.405318 102.125662 420.331493 95.404239 
C 404.257668 88.682815 387.019071 85.18347 369.596692 85.105338 
C 352.174313 85.027206 334.905024 88.371799 318.771562 94.948787 
C 302.638099 101.525774 287.952412 111.207987 275.550214 123.444444 
C 263.148015 135.6809 253.269109 150.235001 246.47567 166.278522 
C 239.682231 182.322044 236.105614 199.544774 235.949352 216.966628 
C 235.79309 234.388481 239.060204 251.672595 245.564775 267.83539 
C 252.069346 283.998186 261.685603 298.727144 273.866319 311.184093 
C 286.047034 323.641041 300.556687 333.585116 316.569581 340.450434 
C 332.582476 347.315753 349.788994 350.96957 367.209971 351.203959 
C 384.630949 351.438348 401.92954 348.248777 418.121343 341.816754 
C 434.313146 335.384731 449.085081 325.834623 461.596529 313.709893 
C 474.107976 301.585163 484.11702 287.120251 491.054079 271.138305 
C 497.991139 255.156359 501.722082 237.9664 502.034593 220.546649 
L 369 218.16 
z
" style="fill: #f77189"/>
   </g>
   <g id="patch_3">
    <path d="M 502.034593 220.546649 
C 502.041658 220.152851 502.046974 219.759024 502.050542 219.36518 
C 502.054109 218.971335 502.055928 218.577477 502.055998 218.183616 
L 369 218.16 
z
" style="fill: #bb9832"/>
   </g>
   <g id="patch_4">
    <path d="M 502.055998 218.183616 
C 502.055999 218.179677 502.055999 218.175739 502.055999 218.1718 
C 502.056 218.167861 502.056 218.163923 502.056 218.159984 
L 369 218.16 
z
" style="fill: #50b131"/>
   </g>
   <g id="text_1">
    <text style="fill: #262626; font: 10px 'Arial', 'Liberation Sans', 'DejaVu Sans', 'Bitstream Vera Sans', sans-serif; text-anchor: end" x="222.644287" y="219.433228" transform="rotate(-0 222.644287 219.433228)">newsapi</text>
   </g>
   <g id="text_2">
    <text style="fill: #262626; font: 10px 'Arial', 'Liberation Sans', 'DejaVu Sans', 'Bitstream Vera Sans', sans-serif; text-anchor: middle" x="289.169611" y="220.029914" transform="rotate(-0 289.169611 220.029914)">99.7%</text>
   </g>
   <g id="text_3">
    <text style="fill: #262626; font: 10px 'Arial', 'Liberation Sans', 'DejaVu Sans', 'Bitstream Vera Sans', sans-serif; text-anchor: start" x="515.355596" y="222.071635" transform="rotate(-0 515.355596 222.071635)">chicago_pd</text>
   </g>
   <g id="text_4">
    <text style="fill: #262626; font: 10px 'Arial', 'Liberation Sans', 'DejaVu Sans', 'Bitstream Vera Sans', sans-serif; text-anchor: middle" x="448.830325" y="221.469045" transform="rotate(-0 448.830325 221.469045)">0.3%</text>
   </g>
   <g id="text_5">
    <text style="fill: #262626; font: 10px 'Arial', 'Liberation Sans', 'DejaVu Sans', 'Bitstream Vera Sans', sans-serif; text-anchor: start" x="515.361599" y="220.758917" transform="rotate(-0 515.361599 220.758917)">chicago_police</text>
   </g>
   <g id="text_6">
    <text style="fill: #262626; font: 10px 'Arial', 'Liberation Sans', 'DejaVu Sans', 'Bitstream Vera Sans', sans-serif; text-anchor: middle" x="448.8336" y="220.753017" transform="rotate(-0 448.8336 220.753017)">0.0%</text>
   </g>
   <g id="text_7">
    <text style="fill: #262626; font: 12px 'Arial', 'Liberation Sans', 'DejaVu Sans', 'Bitstream Vera Sans', sans-serif; text-anchor: middle" x="369" y="45.84" transform="rotate(-0 369 45.84)">Incidents by Source</text>
   </g>
  </g>
 </g>
</svg>
