<?xml version="1.0" encoding="utf-8" standalone="no"?>
<!DOCTYPE svg PUBLIC "-//W3C//DTD SVG 1.1//EN"
  "http://www.w3.org/Graphics/SVG/1.1/DTD/svg11.dtd">
<svg xmlns:xlink="http://www.w3.org/1999/xlink" width="720pt" height="432pt" viewBox="0 0 720 432" xmlns="http://www.w3.org/2000/svg" version="1.1">
 <metadata>
  <rdf:RDF xmlns:dc="http://purl.org/dc/elements/1.1/" xmlns:cc="http://creativecommons.org/ns#" xmlns:rdf="http://www.w3.org/1999/02/22-rdf-syntax-ns#">
   <cc:Work>
    <dc:type rdf:resource="http://purl.org/dc/dcmitype/StillImage"/>
    <dc:date>2025-09-24T01:03:15.085262</dc:date>
    <dc:format>image/svg+xml</dc:format>
    <dc:creator>
     <cc:Agent>
      <dc:title>Matplotlib v3.7.5, https://matplotlib.org/</dc:title>
     </cc:Agent>
    </dc:creator>
   </cc:Work>
  </rdf:RDF>
 </metadata>
 <defs>
  <style type="text/css">*{stroke-linejoin: round; stroke-linecap: butt}</style>
 </defs>
 <g id="figure_1">
  <g id="patch_1">
   <path d="M 0 432 
L 720 432 
L 720 0 
L 0 0 
z
" style="fill: #ffffff"/>
  </g>
  <g id="axes_1">
   <g id="matplotlib.axis_1"/>
   <g id="matplotlib.axis_2"/>
   <g id="patch_2">
    <path d="M 502.056 218.16 
C 502.056 200.716742 498.625859 183.442524 491.96123 167.322661 
C 485.296601 151.202798 475.526657 136.549721 463.208672 124.199236 
C 450.890687 111.84875 436.263403 102.04023 420.161157 95.33315 
C 404.058911 88.62607 386.793791 85.150424 369.350594 85.104462 
C 351.907396 85.0585 334.6242 88.443113 318.486832 95.065244 
C 302.349464 101.687374 287.670695 111.418675 275.287795 123.704075 
C 262.904896 135.989475 253.057868 150.590862 246.308383 166.67538 
C 239.558897 182.759897 236.037771 200.015799 235.945848 217.458815 
C 235.853924 234.901831 239.192985 252.193885 245.772572 268.348646 
C 252.352159 284.503406 262.044748 299.207766 274.297477 311.622994 
C 286.550206 324.038222 301.125597 333.923689 317.192274 340.715533 
C 333.258951 347.507376 350.505515 351.073959 367.948228 351.211843 
C 385.390941 351.349727 402.691734 348.056241 418.863775 341.519244 
C 435.035817 334.982247 449.765665 325.328437 462.213135 313.108463 
C 474.660605 300.88849 484.584443 286.339197 491.418597 270.290472 
C 498.252752 254.241747 501.864766 237.00464 502.04861 219.562351 
L 369 218.16 
z
" style="fill: #f77189"/>
   </g>
   <g id="patch_3">
    <path d="M 502.04861 219.562351 
C 502.051049 219.330951 502.052884 219.099545 502.054116 218.868136 
C 502.055347 218.636726 502.055975 218.405314 502.055999 218.173901 
L 369 218.16 
z
" style="fill: #bb9832"/>
   </g>
   <g id="patch_4">
    <path d="M 502.055999 218.173901 
C 502.056 218.171587 502.056 218.169272 502.056 218.166958 
C 502.056 218.164644 502.056 218.16233 502.056 218.160016 
L 369 218.16 
z
" style="fill: #50b131"/>
   </g>
   <g id="text_1">
    <text style="fill: #262626; font: 10px 'Arial', 'Liberation Sans', 'DejaVu Sans', 'Bitstream Vera Sans', sans-serif; text-anchor: end" x="222.640432" y="219.974634" transform="rotate(-0 222.640432 219.974634)">newsapi</text>
   </g>
   <g id="text_2">
    <text style="fill: #262626; font: 10px 'Arial', 'Liberation Sans', 'DejaVu Sans', 'Bitstream Vera Sans', sans-serif; text-anchor: middle" x="289.167509" y="220.325226" transform="rotate(-0 289.167509 220.325226)">99.8%</text>
   </g>
   <g id="text_3">
    <text style="fill: #262626; font: 10px 'Arial', 'Liberation Sans', 'DejaVu Sans', 'Bitstream Vera Sans', sans-serif; text-anchor: start" x="515.359527" y="221.524887" transform="rotate(-0 515.359527 221.524887)">chicago_pd</text>
   </g>
   <g id="text_4">
    <text style="fill: #262626; font: 10px 'Arial', 'Liberation Sans', 'DejaVu Sans', 'Bitstream Vera Sans', sans-serif; text-anchor: middle" x="448.832469" y="221.170819" transform="rotate(-0 448.832469 221.170819)">0.2%</text>
   </g>
   <g id="text_5">
    <text style="fill: #262626; font: 10px 'Arial', 'Liberation Sans', 'DejaVu Sans', 'Bitstream Vera Sans', sans-serif; text-anchor: start" x="515.3616" y="220.753592" transform="rotate(-0 515.3616 220.753592)">chicago_police</text>
   </g>
   <g id="text_6">
    <text style="fill: #262626; font: 10px 'Arial', 'Liberation Sans', 'DejaVu Sans', 'Bitstream Vera Sans', sans-serif; text-anchor: middle" x="448.8336" y="220.750113" transform="rotate(-0 448.8336 220.750113)">0.0%</text>
   </g>
   <g id="text_7">
    <text style="fill: #262626; font: 12px 'Arial', 'Liberation Sans', 'DejaVu Sans', 'Bitstream Vera Sans', sans-serif; text-anchor: middle" x="369" y="45.84" transform="rotate(-0 369 45.84)">Incidents by Source</text>
   </g>
  </g>
 </g>
</svg>
