<?xml version="1.0" encoding="utf-8" standalone="no"?>
<!DOCTYPE svg PUBLIC "-//W3C//DTD SVG 1.1//EN"
  "http://www.w3.org/Graphics/SVG/1.1/DTD/svg11.dtd">
<svg xmlns:xlink="http://www.w3.org/1999/xlink" width="720pt" height="432pt" viewBox="0 0 720 432" xmlns="http://www.w3.org/2000/svg" version="1.1">
 <metadata>
  <rdf:RDF xmlns:dc="http://purl.org/dc/elements/1.1/" xmlns:cc="http://creativecommons.org/ns#" xmlns:rdf="http://www.w3.org/1999/02/22-rdf-syntax-ns#">
   <cc:Work>
    <dc:type rdf:resource="http://purl.org/dc/dcmitype/StillImage"/>
    <dc:date>2026-03-07T02:24:46.522897</dc:date>
    <dc:format>image/svg+xml</dc:format>
    <dc:creator>
     <cc:Agent>
      <dc:title>Matplotlib v3.7.5, https://matplotlib.org/</dc:title>
     </cc:Agent>
    </dc:creator>
   </cc:Work>
  </rdf:RDF>
 </metadata>
 <defs>
  <style type="text/css">*{stroke-linejoin: round; stroke-linecap: butt}</style>
 </defs>
 <g id="figure_1">
  <g id="patch_1">
   <path d="M 0 432 
L 720 432 
L 720 0 
L 0 0 
z
" style="fill: #ffffff"/>
  </g>
  <g id="axes_1">
   <g id="matplotlib.axis_1"/>
   <g id="matplotlib.axis_2"/>
   <g id="patch_2">
    <path d="M 502.056 218.16 
C 502.056 200.706381 498.621783 183.422104 491.949463 167.294209 
C 485.277144 151.166315 475.496197 136.507762 463.165177 124.155646 
C 450.834157 111.80353 436.192345 101.997541 420.075879 95.297664 
C 403.959414 88.597786 386.681032 85.134029 369.227438 85.104194 
C 351.773845 85.07436 334.483722 88.479028 318.344446 95.123769 
C 302.20517 101.768511 287.52992 111.524387 275.156744 123.834275 
C 262.783568 136.144163 252.952566 150.769192 246.225149 166.874182 
C 239.497733 182.979171 236.004446 200.251607 235.944778 217.705124 
C 235.885109 235.158641 239.260217 252.454558 245.877361 268.605168 
C 252.494506 284.755779 262.225282 299.447684 274.514002 311.841884 
C 286.802722 324.236083 301.410926 334.092071 317.504392 340.847006 
C 333.597859 347.601942 350.864298 351.124748 368.317688 351.214251 
C 385.771077 351.303753 403.072738 347.958214 419.234636 341.368687 
C 435.396534 334.779159 450.105051 325.07351 462.520238 312.805994 
C 474.935425 300.538478 484.816368 285.947143 491.598803 269.865247 
C 498.381239 253.78335 501.933554 236.522958 502.05289 219.069747 
L 369 218.16 
z
" style="fill: #f77189"/>
   </g>
   <g id="patch_3">
    <path d="M 502.05289 219.069747 
C 502.053916 218.91963 502.054689 218.769511 502.055207 218.619391 
C 502.055725 218.469271 502.05599 218.319151 502.056 218.16903 
L 369 218.16 
z
" style="fill: #bb9832"/>
   </g>
   <g id="patch_4">
    <path d="M 502.056 218.16903 
C 502.056 218.167529 502.056 218.166028 502.056 218.164527 
C 502.056 218.163025 502.056 218.161524 502.056 218.160023 
L 369 218.16 
z
" style="fill: #50b131"/>
   </g>
   <g id="text_1">
    <text style="fill: #262626; font: 10px 'Arial', 'Liberation Sans', 'DejaVu Sans', 'Bitstream Vera Sans', sans-serif; text-anchor: end" x="222.639255" y="220.245574" transform="rotate(-0 222.639255 220.245574)">newsapi</text>
   </g>
   <g id="text_2">
    <text style="fill: #262626; font: 10px 'Arial', 'Liberation Sans', 'DejaVu Sans', 'Bitstream Vera Sans', sans-serif; text-anchor: middle" x="289.166867" y="220.473012" transform="rotate(-0 289.166867 220.473012)">99.9%</text>
   </g>
   <g id="text_3">
    <text style="fill: #262626; font: 10px 'Arial', 'Liberation Sans', 'DejaVu Sans', 'Bitstream Vera Sans', sans-serif; text-anchor: start" x="515.360728" y="221.251268" transform="rotate(-0 515.360728 221.251268)">chicago_pd</text>
   </g>
   <g id="text_4">
    <text style="fill: #262626; font: 10px 'Arial', 'Liberation Sans', 'DejaVu Sans', 'Bitstream Vera Sans', sans-serif; text-anchor: middle" x="448.833124" y="221.021572" transform="rotate(-0 448.833124 221.021572)">0.1%</text>
   </g>
   <g id="text_5">
    <text style="fill: #262626; font: 10px 'Arial', 'Liberation Sans', 'DejaVu Sans', 'Bitstream Vera Sans', sans-serif; text-anchor: start" x="515.3616" y="220.750917" transform="rotate(-0 515.3616 220.750917)">chicago_police</text>
   </g>
   <g id="text_6">
    <text style="fill: #262626; font: 10px 'Arial', 'Liberation Sans', 'DejaVu Sans', 'Bitstream Vera Sans', sans-serif; text-anchor: middle" x="448.8336" y="220.748654" transform="rotate(-0 448.8336 220.748654)">0.0%</text>
   </g>
   <g id="text_7">
    <text style="fill: #262626; font: 12px 'Arial', 'Liberation Sans', 'DejaVu Sans', 'Bitstream Vera Sans', sans-serif; text-anchor: middle" x="369" y="45.84" transform="rotate(-0 369 45.84)">Incidents by Source</text>
   </g>
  </g>
 </g>
</svg>
