<?xml version="1.0" encoding="utf-8" standalone="no"?>
<!DOCTYPE svg PUBLIC "-//W3C//DTD SVG 1.1//EN"
  "http://www.w3.org/Graphics/SVG/1.1/DTD/svg11.dtd">
<svg xmlns:xlink="http://www.w3.org/1999/xlink" width="720pt" height="432pt" viewBox="0 0 720 432" xmlns="http://www.w3.org/2000/svg" version="1.1">
 <metadata>
  <rdf:RDF xmlns:dc="http://purl.org/dc/elements/1.1/" xmlns:cc="http://creativecommons.org/ns#" xmlns:rdf="http://www.w3.org/1999/02/22-rdf-syntax-ns#">
   <cc:Work>
    <dc:type rdf:resource="http://purl.org/dc/dcmitype/StillImage"/>
    <dc:date>2025-03-17T12:43:34.749271</dc:date>
    <dc:format>image/svg+xml</dc:format>
    <dc:creator>
     <cc:Agent>
      <dc:title>Matplotlib v3.7.5, https://matplotlib.org/</dc:title>
     </cc:Agent>
    </dc:creator>
   </cc:Work>
  </rdf:RDF>
 </metadata>
 <defs>
  <style type="text/css">*{stroke-linejoin: round; stroke-linecap: butt}</style>
 </defs>
 <g id="figure_1">
  <g id="patch_1">
   <path d="M 0 432 
L 720 432 
L 720 0 
L 0 0 
z
" style="fill: #ffffff"/>
  </g>
  <g id="axes_1">
   <g id="matplotlib.axis_1"/>
   <g id="matplotlib.axis_2"/>
   <g id="patch_2">
    <path d="M 502.056 218.16 
C 502.056 200.773471 498.648133 183.554336 492.025542 167.478494 
C 485.402951 151.402653 475.693158 136.779654 463.446467 124.438262 
C 451.199776 112.096871 436.652005 102.274726 420.627653 95.528501 
C 404.603301 88.782276 387.410927 85.241874 370.024914 85.107947 
C 352.638901 84.974021 335.394026 88.24915 319.267648 94.747714 
C 303.141271 101.246278 288.443913 110.843145 276.008553 122.994408 
C 263.573192 135.145672 253.639279 149.617352 246.769821 165.589263 
C 239.900362 181.561174 236.227634 198.725767 235.95979 216.110233 
C 235.691945 233.494698 238.834141 250.76429 245.208293 266.940246 
C 251.582445 283.116203 261.065815 297.887048 273.12093 310.41564 
C 285.176045 322.944231 299.570776 332.989323 315.489299 339.981607 
C 331.407821 346.973891 348.543614 350.778727 365.925501 351.180474 
C 383.307388 351.582221 400.600671 348.573144 416.825247 342.323783 
C 433.049823 336.074421 447.893279 326.705111 460.514358 314.74686 
C 473.135436 302.788609 483.291111 288.47168 490.405807 272.607491 
C 497.520502 256.743301 501.45722 239.637325 501.992845 222.259048 
L 369 218.16 
z
" style="fill: #f77189"/>
   </g>
   <g id="patch_3">
    <path d="M 501.992845 222.259048 
C 502.013687 221.582847 502.029371 220.906496 502.039896 220.230056 
C 502.050421 219.553615 502.055787 218.877104 502.055994 218.200581 
L 369 218.16 
z
" style="fill: #bb9832"/>
   </g>
   <g id="patch_4">
    <path d="M 502.055994 218.200581 
C 502.055996 218.193816 502.055997 218.187051 502.055998 218.180285 
C 502.055999 218.17352 502.056 218.166755 502.056 218.15999 
L 369 218.16 
z
" style="fill: #50b131"/>
   </g>
   <g id="text_1">
    <text style="fill: #262626; font: 10px 'Arial', 'Liberation Sans', 'DejaVu Sans', 'Bitstream Vera Sans', sans-serif; text-anchor: end" x="222.655769" y="218.491193" transform="rotate(-0 222.655769 218.491193)">newsapi</text>
   </g>
   <g id="text_2">
    <text style="fill: #262626; font: 10px 'Arial', 'Liberation Sans', 'DejaVu Sans', 'Bitstream Vera Sans', sans-serif; text-anchor: middle" x="289.175874" y="219.516077" transform="rotate(-0 289.175874 219.516077)">99.5%</text>
   </g>
   <g id="text_3">
    <text style="fill: #262626; font: 10px 'Arial', 'Liberation Sans', 'DejaVu Sans', 'Bitstream Vera Sans', sans-serif; text-anchor: start" x="515.343886" y="223.022999" transform="rotate(-0 515.343886 223.022999)">chicago_pd</text>
   </g>
   <g id="text_4">
    <text style="fill: #262626; font: 10px 'Arial', 'Liberation Sans', 'DejaVu Sans', 'Bitstream Vera Sans', sans-serif; text-anchor: middle" x="448.823938" y="221.987971" transform="rotate(-0 448.823938 221.987971)">0.5%</text>
   </g>
   <g id="text_5">
    <text style="fill: #262626; font: 10px 'Arial', 'Liberation Sans', 'DejaVu Sans', 'Bitstream Vera Sans', sans-serif; text-anchor: start" x="515.361598" y="220.768251" transform="rotate(-0 515.361598 220.768251)">chicago_police</text>
   </g>
   <g id="text_6">
    <text style="fill: #262626; font: 10px 'Arial', 'Liberation Sans', 'DejaVu Sans', 'Bitstream Vera Sans', sans-serif; text-anchor: middle" x="448.833599" y="220.758109" transform="rotate(-0 448.833599 220.758109)">0.0%</text>
   </g>
   <g id="text_7">
    <text style="fill: #262626; font: 12px 'Arial', 'Liberation Sans', 'DejaVu Sans', 'Bitstream Vera Sans', sans-serif; text-anchor: middle" x="369" y="45.84" transform="rotate(-0 369 45.84)">Incidents by Source</text>
   </g>
  </g>
 </g>
</svg>
