<?xml version="1.0" encoding="utf-8" standalone="no"?>
<!DOCTYPE svg PUBLIC "-//W3C//DTD SVG 1.1//EN"
  "http://www.w3.org/Graphics/SVG/1.1/DTD/svg11.dtd">
<svg xmlns:xlink="http://www.w3.org/1999/xlink" width="720pt" height="432pt" viewBox="0 0 720 432" xmlns="http://www.w3.org/2000/svg" version="1.1">
 <metadata>
  <rdf:RDF xmlns:dc="http://purl.org/dc/elements/1.1/" xmlns:cc="http://creativecommons.org/ns#" xmlns:rdf="http://www.w3.org/1999/02/22-rdf-syntax-ns#">
   <cc:Work>
    <dc:type rdf:resource="http://purl.org/dc/dcmitype/StillImage"/>
    <dc:date>2025-08-27T12:47:08.159446</dc:date>
    <dc:format>image/svg+xml</dc:format>
    <dc:creator>
     <cc:Agent>
      <dc:title>Matplotlib v3.7.5, https://matplotlib.org/</dc:title>
     </cc:Agent>
    </dc:creator>
   </cc:Work>
  </rdf:RDF>
 </metadata>
 <defs>
  <style type="text/css">*{stroke-linejoin: round; stroke-linecap: butt}</style>
 </defs>
 <g id="figure_1">
  <g id="patch_1">
   <path d="M 0 432 
L 720 432 
L 720 0 
L 0 0 
z
" style="fill: #ffffff"/>
  </g>
  <g id="axes_1">
   <g id="matplotlib.axis_1"/>
   <g id="matplotlib.axis_2"/>
   <g id="patch_2">
    <path d="M 502.056 218.16 
C 502.056 200.72015 498.627199 183.449241 491.965099 167.332021 
C 485.303 151.2148 475.536674 136.563526 463.222975 124.213579 
C 450.909277 111.863632 436.286772 102.054282 420.189204 95.344836 
C 404.091636 88.63539 386.83088 85.155838 369.391106 85.104575 
C 351.951331 85.053312 334.670418 88.431332 318.533685 95.046028 
C 302.396952 101.660723 287.717033 111.383941 275.330944 123.661285 
C 262.944856 135.938629 253.092567 150.532236 246.335833 166.610013 
C 239.579098 182.68779 236.048824 199.938243 235.946299 217.377792 
C 235.843774 234.81734 239.170984 252.108108 245.738218 268.264215 
C 252.305453 284.420322 261.985479 299.128758 274.226362 311.550881 
C 286.467245 323.973004 301.031829 333.868147 317.089676 340.672111 
C 333.147522 347.476075 350.387524 351.05704 367.826696 351.210827 
C 385.265868 351.364613 402.566341 348.088243 418.741682 341.568526 
C 434.917023 335.048809 449.653848 325.412059 462.111899 313.207743 
C 474.569949 301.003426 484.507861 286.467991 491.358996 270.430213 
C 498.210132 254.392436 501.841756 237.163034 502.046803 219.72439 
L 369 218.16 
z
" style="fill: #f77189"/>
   </g>
   <g id="patch_3">
    <path d="M 502.046803 219.72439 
C 502.049838 219.466253 502.052122 219.208109 502.053655 218.94996 
C 502.055188 218.69181 502.055969 218.433657 502.055999 218.175503 
L 369 218.16 
z
" style="fill: #bb9832"/>
   </g>
   <g id="patch_4">
    <path d="M 502.055999 218.175503 
C 502.055999 218.172921 502.056 218.17034 502.056 218.167758 
C 502.056 218.165177 502.056 218.162595 502.056 218.160014 
L 369 218.16 
z
" style="fill: #50b131"/>
   </g>
   <g id="text_1">
    <text style="fill: #262626; font: 10px 'Arial', 'Liberation Sans', 'DejaVu Sans', 'Bitstream Vera Sans', sans-serif; text-anchor: end" x="222.640929" y="219.885508" transform="rotate(-0 222.640929 219.885508)">newsapi</text>
   </g>
   <g id="text_2">
    <text style="fill: #262626; font: 10px 'Arial', 'Liberation Sans', 'DejaVu Sans', 'Bitstream Vera Sans', sans-serif; text-anchor: middle" x="289.16778" y="220.276613" transform="rotate(-0 289.16778 220.276613)">99.8%</text>
   </g>
   <g id="text_3">
    <text style="fill: #262626; font: 10px 'Arial', 'Liberation Sans', 'DejaVu Sans', 'Bitstream Vera Sans', sans-serif; text-anchor: start" x="515.35902" y="221.614893" transform="rotate(-0 515.35902 221.614893)">chicago_pd</text>
   </g>
   <g id="text_4">
    <text style="fill: #262626; font: 10px 'Arial', 'Liberation Sans', 'DejaVu Sans', 'Bitstream Vera Sans', sans-serif; text-anchor: middle" x="448.832193" y="221.219913" transform="rotate(-0 448.832193 221.219913)">0.2%</text>
   </g>
   <g id="text_5">
    <text style="fill: #262626; font: 10px 'Arial', 'Liberation Sans', 'DejaVu Sans', 'Bitstream Vera Sans', sans-serif; text-anchor: start" x="515.3616" y="220.754472" transform="rotate(-0 515.3616 220.754472)">chicago_police</text>
   </g>
   <g id="text_6">
    <text style="fill: #262626; font: 10px 'Arial', 'Liberation Sans', 'DejaVu Sans', 'Bitstream Vera Sans', sans-serif; text-anchor: middle" x="448.8336" y="220.750593" transform="rotate(-0 448.8336 220.750593)">0.0%</text>
   </g>
   <g id="text_7">
    <text style="fill: #262626; font: 12px 'Arial', 'Liberation Sans', 'DejaVu Sans', 'Bitstream Vera Sans', sans-serif; text-anchor: middle" x="369" y="45.84" transform="rotate(-0 369 45.84)">Incidents by Source</text>
   </g>
  </g>
 </g>
</svg>
