<?xml version="1.0" encoding="utf-8" standalone="no"?>
<!DOCTYPE svg PUBLIC "-//W3C//DTD SVG 1.1//EN"
  "http://www.w3.org/Graphics/SVG/1.1/DTD/svg11.dtd">
<svg xmlns:xlink="http://www.w3.org/1999/xlink" width="720pt" height="432pt" viewBox="0 0 720 432" xmlns="http://www.w3.org/2000/svg" version="1.1">
 <metadata>
  <rdf:RDF xmlns:dc="http://purl.org/dc/elements/1.1/" xmlns:cc="http://creativecommons.org/ns#" xmlns:rdf="http://www.w3.org/1999/02/22-rdf-syntax-ns#">
   <cc:Work>
    <dc:type rdf:resource="http://purl.org/dc/dcmitype/StillImage"/>
    <dc:date>2025-05-12T01:10:12.845965</dc:date>
    <dc:format>image/svg+xml</dc:format>
    <dc:creator>
     <cc:Agent>
      <dc:title>Matplotlib v3.7.5, https://matplotlib.org/</dc:title>
     </cc:Agent>
    </dc:creator>
   </cc:Work>
  </rdf:RDF>
 </metadata>
 <defs>
  <style type="text/css">*{stroke-linejoin: round; stroke-linecap: butt}</style>
 </defs>
 <g id="figure_1">
  <g id="patch_1">
   <path d="M 0 432 
L 720 432 
L 720 0 
L 0 0 
z
" style="fill: #ffffff"/>
  </g>
  <g id="axes_1">
   <g id="matplotlib.axis_1"/>
   <g id="matplotlib.axis_2"/>
   <g id="patch_2">
    <path d="M 502.056 218.16 
C 502.056 200.743348 498.636315 183.494963 491.991417 167.395737 
C 485.34652 151.29651 475.604806 136.65752 463.320273 124.311264 
C 451.035741 111.965009 436.445758 102.150049 420.380037 95.424549 
C 404.314315 88.699048 387.083286 85.19296 369.666853 85.105671 
C 352.25042 85.018382 334.985112 88.351578 318.852785 94.915706 
C 302.720458 101.479834 288.032827 111.148058 275.625159 123.370558 
C 263.217491 135.593059 253.329532 150.133668 246.523598 166.165481 
C 239.717663 182.197293 236.12526 199.410535 235.950684 216.826311 
C 235.776108 234.242088 239.022732 251.523884 245.505925 267.688907 
C 251.989118 283.85393 261.583609 298.589831 273.743771 311.058601 
C 285.903934 323.52737 300.394803 333.488079 316.392304 340.374277 
C 332.389805 347.260475 349.584826 350.939102 366.999509 351.200961 
C 384.414192 351.462819 401.712043 348.302849 417.909355 341.900754 
C 434.106668 335.498658 448.89047 325.978142 461.420027 313.880624 
C 473.949584 301.783105 483.982794 287.342339 490.949082 271.379551 
C 497.915369 255.416763 501.680129 238.240395 502.029264 220.827243 
L 369 218.16 
z
" style="fill: #f77189"/>
   </g>
   <g id="patch_3">
    <path d="M 502.029264 220.827243 
C 502.038087 220.38716 502.044727 219.947036 502.049183 219.506888 
C 502.053638 219.066739 502.05591 218.626571 502.055997 218.1864 
L 369 218.16 
z
" style="fill: #bb9832"/>
   </g>
   <g id="patch_4">
    <path d="M 502.055997 218.1864 
C 502.055998 218.181998 502.055999 218.177596 502.055999 218.173195 
C 502.056 218.168793 502.056 218.164391 502.056 218.15999 
L 369 218.16 
z
" style="fill: #50b131"/>
   </g>
   <g id="text_1">
    <text style="fill: #262626; font: 10px 'Arial', 'Liberation Sans', 'DejaVu Sans', 'Bitstream Vera Sans', sans-serif; text-anchor: end" x="222.645753" y="219.27888" transform="rotate(-0 222.645753 219.27888)">newsapi</text>
   </g>
   <g id="text_2">
    <text style="fill: #262626; font: 10px 'Arial', 'Liberation Sans', 'DejaVu Sans', 'Bitstream Vera Sans', sans-serif; text-anchor: middle" x="289.170411" y="219.945724" transform="rotate(-0 289.170411 219.945724)">99.7%</text>
   </g>
   <g id="text_3">
    <text style="fill: #262626; font: 10px 'Arial', 'Liberation Sans', 'DejaVu Sans', 'Bitstream Vera Sans', sans-serif; text-anchor: start" x="515.354101" y="222.227514" transform="rotate(-0 515.354101 222.227514)">chicago_pd</text>
   </g>
   <g id="text_4">
    <text style="fill: #262626; font: 10px 'Arial', 'Liberation Sans', 'DejaVu Sans', 'Bitstream Vera Sans', sans-serif; text-anchor: middle" x="448.82951" y="221.55407" transform="rotate(-0 448.82951 221.55407)">0.3%</text>
   </g>
   <g id="text_5">
    <text style="fill: #262626; font: 10px 'Arial', 'Liberation Sans', 'DejaVu Sans', 'Bitstream Vera Sans', sans-serif; text-anchor: start" x="515.361599" y="220.760452" transform="rotate(-0 515.361599 220.760452)">chicago_police</text>
   </g>
   <g id="text_6">
    <text style="fill: #262626; font: 10px 'Arial', 'Liberation Sans', 'DejaVu Sans', 'Bitstream Vera Sans', sans-serif; text-anchor: middle" x="448.8336" y="220.753854" transform="rotate(-0 448.8336 220.753854)">0.0%</text>
   </g>
   <g id="text_7">
    <text style="fill: #262626; font: 12px 'Arial', 'Liberation Sans', 'DejaVu Sans', 'Bitstream Vera Sans', sans-serif; text-anchor: middle" x="369" y="45.84" transform="rotate(-0 369 45.84)">Incidents by Source</text>
   </g>
  </g>
 </g>
</svg>
