<?xml version="1.0" encoding="utf-8" standalone="no"?>
<!DOCTYPE svg PUBLIC "-//W3C//DTD SVG 1.1//EN"
  "http://www.w3.org/Graphics/SVG/1.1/DTD/svg11.dtd">
<svg xmlns:xlink="http://www.w3.org/1999/xlink" width="720pt" height="432pt" viewBox="0 0 720 432" xmlns="http://www.w3.org/2000/svg" version="1.1">
 <metadata>
  <rdf:RDF xmlns:dc="http://purl.org/dc/elements/1.1/" xmlns:cc="http://creativecommons.org/ns#" xmlns:rdf="http://www.w3.org/1999/02/22-rdf-syntax-ns#">
   <cc:Work>
    <dc:type rdf:resource="http://purl.org/dc/dcmitype/StillImage"/>
    <dc:date>2025-02-04T00:57:47.993761</dc:date>
    <dc:format>image/svg+xml</dc:format>
    <dc:creator>
     <cc:Agent>
      <dc:title>Matplotlib v3.7.5, https://matplotlib.org/</dc:title>
     </cc:Agent>
    </dc:creator>
   </cc:Work>
  </rdf:RDF>
 </metadata>
 <defs>
  <style type="text/css">*{stroke-linejoin: round; stroke-linecap: butt}</style>
 </defs>
 <g id="figure_1">
  <g id="patch_1">
   <path d="M 0 432 
L 720 432 
L 720 0 
L 0 0 
z
" style="fill: #ffffff"/>
  </g>
  <g id="axes_1">
   <g id="matplotlib.axis_1"/>
   <g id="matplotlib.axis_2"/>
   <g id="patch_2">
    <path d="M 502.056 218.16 
C 502.056 200.825962 498.66868 183.657804 492.084878 167.622766 
C 485.501076 151.587729 475.846801 136.99271 463.665969 124.659981 
C 451.485136 112.327253 437.010876 102.492854 421.058659 95.710847 
C 405.106441 88.928839 387.981578 85.329026 370.648871 85.114217 
C 353.316164 84.899408 336.107347 88.073716 319.991953 94.458301 
C 303.876558 100.842886 289.163021 110.315553 276.680291 122.342619 
C 264.197561 134.369686 254.184547 148.720963 247.205376 164.587911 
C 240.226205 180.454859 236.414451 197.533797 235.984867 214.862511 
C 235.555282 232.191225 238.516089 249.438058 244.700477 265.631335 
C 250.884865 281.824612 260.17447 296.654407 272.045923 309.285222 
C 283.917376 321.916036 298.143467 332.106126 313.922708 339.28139 
C 329.70195 346.456653 346.73234 350.479762 364.0544 351.124056 
C 381.37646 351.76835 398.658659 349.021499 414.927332 343.038258 
C 431.196004 337.055017 446.13978 327.949901 458.91674 316.235884 
C 471.693699 304.521868 482.059301 290.423148 489.429554 274.734036 
C 496.799808 259.044924 501.033654 242.065697 501.892559 224.752952 
L 369 218.16 
z
" style="fill: #f77189"/>
   </g>
   <g id="patch_3">
    <path d="M 501.892559 224.752952 
C 501.946489 223.665883 501.98708 222.578194 502.01432 221.490129 
C 502.041561 220.402065 502.05545 219.313707 502.055984 218.225302 
L 369 218.16 
z
" style="fill: #bb9832"/>
   </g>
   <g id="patch_4">
    <path d="M 502.055984 218.225302 
C 502.055989 218.214418 502.055993 218.203534 502.055996 218.19265 
C 502.055999 218.181766 502.056 218.170882 502.056 218.159998 
L 369 218.16 
z
" style="fill: #50b131"/>
   </g>
   <g id="text_1">
    <text style="fill: #262626; font: 10px 'Arial', 'Liberation Sans', 'DejaVu Sans', 'Bitstream Vera Sans', sans-serif; text-anchor: end" x="222.683353" y="217.1187" transform="rotate(-0 222.683353 217.1187)">newsapi</text>
   </g>
   <g id="text_2">
    <text style="fill: #262626; font: 10px 'Arial', 'Liberation Sans', 'DejaVu Sans', 'Bitstream Vera Sans', sans-serif; text-anchor: middle" x="289.19092" y="218.767444" transform="rotate(-0 289.19092 218.767444)">99.2%</text>
   </g>
   <g id="text_3">
    <text style="fill: #262626; font: 10px 'Arial', 'Liberation Sans', 'DejaVu Sans', 'Bitstream Vera Sans', sans-serif; text-anchor: start" x="515.315752" y="224.40908" transform="rotate(-0 515.315752 224.40908)">chicago_pd</text>
   </g>
   <g id="text_4">
    <text style="fill: #262626; font: 10px 'Arial', 'Liberation Sans', 'DejaVu Sans', 'Bitstream Vera Sans', sans-serif; text-anchor: middle" x="448.808592" y="222.744015" transform="rotate(-0 448.808592 222.744015)">0.8%</text>
   </g>
   <g id="text_5">
    <text style="fill: #262626; font: 10px 'Arial', 'Liberation Sans', 'DejaVu Sans', 'Bitstream Vera Sans', sans-serif; text-anchor: start" x="515.361596" y="220.781852" transform="rotate(-0 515.361596 220.781852)">chicago_police</text>
   </g>
   <g id="text_6">
    <text style="fill: #262626; font: 10px 'Arial', 'Liberation Sans', 'DejaVu Sans', 'Bitstream Vera Sans', sans-serif; text-anchor: middle" x="448.833598" y="220.765527" transform="rotate(-0 448.833598 220.765527)">0.0%</text>
   </g>
   <g id="text_7">
    <text style="fill: #262626; font: 12px 'Arial', 'Liberation Sans', 'DejaVu Sans', 'Bitstream Vera Sans', sans-serif; text-anchor: middle" x="369" y="45.84" transform="rotate(-0 369 45.84)">Incidents by Source</text>
   </g>
  </g>
 </g>
</svg>
