<?xml version="1.0" encoding="utf-8" standalone="no"?>
<!DOCTYPE svg PUBLIC "-//W3C//DTD SVG 1.1//EN"
  "http://www.w3.org/Graphics/SVG/1.1/DTD/svg11.dtd">
<svg xmlns:xlink="http://www.w3.org/1999/xlink" width="720pt" height="432pt" viewBox="0 0 720 432" xmlns="http://www.w3.org/2000/svg" version="1.1">
 <metadata>
  <rdf:RDF xmlns:dc="http://purl.org/dc/elements/1.1/" xmlns:cc="http://creativecommons.org/ns#" xmlns:rdf="http://www.w3.org/1999/02/22-rdf-syntax-ns#">
   <cc:Work>
    <dc:type rdf:resource="http://purl.org/dc/dcmitype/StillImage"/>
    <dc:date>2026-04-30T02:28:26.461239</dc:date>
    <dc:format>image/svg+xml</dc:format>
    <dc:creator>
     <cc:Agent>
      <dc:title>Matplotlib v3.7.5, https://matplotlib.org/</dc:title>
     </cc:Agent>
    </dc:creator>
   </cc:Work>
  </rdf:RDF>
 </metadata>
 <defs>
  <style type="text/css">*{stroke-linejoin: round; stroke-linecap: butt}</style>
 </defs>
 <g id="figure_1">
  <g id="patch_1">
   <path d="M 0 432 
L 720 432 
L 720 0 
L 0 0 
z
" style="fill: #ffffff"/>
  </g>
  <g id="axes_1">
   <g id="matplotlib.axis_1"/>
   <g id="matplotlib.axis_2"/>
   <g id="patch_2">
    <path d="M 502.056 218.16 
C 502.056 200.704668 498.621109 183.418729 491.947518 167.289507 
C 485.273926 151.160285 475.491161 136.500828 463.157986 124.148443 
C 450.824811 111.796059 436.180597 101.99049 420.061782 95.291804 
C 403.942966 88.593118 386.662393 85.131328 369.207083 85.104161 
C 351.751772 85.076994 334.460507 88.484979 318.320919 95.133459 
C 302.18133 101.781939 287.506665 111.541877 275.135101 123.855812 
C 262.763536 136.169747 252.935187 150.798683 246.211423 166.907053 
C 239.487659 183.015424 235.998978 200.290588 235.944645 217.745835 
C 235.890311 235.201082 239.27138 252.49763 245.894733 268.647547 
C 252.518086 284.797463 262.255174 299.4873 274.549839 311.878015 
C 286.844505 324.268729 301.458126 334.119834 317.556013 340.86866 
C 333.653899 347.617487 350.923613 351.13305 368.378754 351.21455 
C 385.833896 351.29605 403.135685 347.941905 419.29589 341.343695 
C 435.456095 334.745485 450.161069 325.031271 462.570903 312.755905 
C 474.980737 300.480539 484.854574 285.882267 491.628446 269.794904 
C 498.402319 253.70754 501.944755 236.443319 502.053422 218.988326 
L 369 218.16 
z
" style="fill: #f77189"/>
   </g>
   <g id="patch_3">
    <path d="M 502.053422 218.988326 
C 502.054273 218.851639 502.054913 218.71495 502.055343 218.578261 
C 502.055772 218.441572 502.055991 218.304883 502.056 218.168193 
L 369 218.16 
z
" style="fill: #bb9832"/>
   </g>
   <g id="patch_4">
    <path d="M 502.056 218.168193 
C 502.056 218.166826 502.056 218.165459 502.056 218.164093 
C 502.056 218.162726 502.056 218.161359 502.056 218.159992 
L 369 218.16 
z
" style="fill: #50b131"/>
   </g>
   <g id="text_1">
    <text style="fill: #262626; font: 10px 'Arial', 'Liberation Sans', 'DejaVu Sans', 'Bitstream Vera Sans', sans-serif; text-anchor: end" x="222.639109" y="220.290356" transform="rotate(-0 222.639109 220.290356)">newsapi</text>
   </g>
   <g id="text_2">
    <text style="fill: #262626; font: 10px 'Arial', 'Liberation Sans', 'DejaVu Sans', 'Bitstream Vera Sans', sans-serif; text-anchor: middle" x="289.166787" y="220.497439" transform="rotate(-0 289.166787 220.497439)">99.9%</text>
   </g>
   <g id="text_3">
    <text style="fill: #262626; font: 10px 'Arial', 'Liberation Sans', 'DejaVu Sans', 'Bitstream Vera Sans', sans-serif; text-anchor: start" x="515.360877" y="221.206025" transform="rotate(-0 515.360877 221.206025)">chicago_pd</text>
   </g>
   <g id="text_4">
    <text style="fill: #262626; font: 10px 'Arial', 'Liberation Sans', 'DejaVu Sans', 'Bitstream Vera Sans', sans-serif; text-anchor: middle" x="448.833206" y="220.996894" transform="rotate(-0 448.833206 220.996894)">0.1%</text>
   </g>
   <g id="text_5">
    <text style="fill: #262626; font: 10px 'Arial', 'Liberation Sans', 'DejaVu Sans', 'Bitstream Vera Sans', sans-serif; text-anchor: start" x="515.3616" y="220.750439" transform="rotate(-0 515.3616 220.750439)">chicago_police</text>
   </g>
   <g id="text_6">
    <text style="fill: #262626; font: 10px 'Arial', 'Liberation Sans', 'DejaVu Sans', 'Bitstream Vera Sans', sans-serif; text-anchor: middle" x="448.8336" y="220.748393" transform="rotate(-0 448.8336 220.748393)">0.0%</text>
   </g>
   <g id="text_7">
    <text style="fill: #262626; font: 12px 'Arial', 'Liberation Sans', 'DejaVu Sans', 'Bitstream Vera Sans', sans-serif; text-anchor: middle" x="369" y="45.84" transform="rotate(-0 369 45.84)">Incidents by Source</text>
   </g>
  </g>
 </g>
</svg>
