<?xml version="1.0" encoding="utf-8" standalone="no"?>
<!DOCTYPE svg PUBLIC "-//W3C//DTD SVG 1.1//EN"
  "http://www.w3.org/Graphics/SVG/1.1/DTD/svg11.dtd">
<svg xmlns:xlink="http://www.w3.org/1999/xlink" width="720pt" height="432pt" viewBox="0 0 720 432" xmlns="http://www.w3.org/2000/svg" version="1.1">
 <metadata>
  <rdf:RDF xmlns:dc="http://purl.org/dc/elements/1.1/" xmlns:cc="http://creativecommons.org/ns#" xmlns:rdf="http://www.w3.org/1999/02/22-rdf-syntax-ns#">
   <cc:Work>
    <dc:type rdf:resource="http://purl.org/dc/dcmitype/StillImage"/>
    <dc:date>2025-11-22T18:19:52.373143</dc:date>
    <dc:format>image/svg+xml</dc:format>
    <dc:creator>
     <cc:Agent>
      <dc:title>Matplotlib v3.7.5, https://matplotlib.org/</dc:title>
     </cc:Agent>
    </dc:creator>
   </cc:Work>
  </rdf:RDF>
 </metadata>
 <defs>
  <style type="text/css">*{stroke-linejoin: round; stroke-linecap: butt}</style>
 </defs>
 <g id="figure_1">
  <g id="patch_1">
   <path d="M 0 432 
L 720 432 
L 720 0 
L 0 0 
z
" style="fill: #ffffff"/>
  </g>
  <g id="axes_1">
   <g id="matplotlib.axis_1"/>
   <g id="matplotlib.axis_2"/>
   <g id="patch_2">
    <path d="M 502.056 218.16 
C 502.056 200.711863 498.62394 183.432909 491.95569 167.309264 
C 485.287441 151.185619 475.512317 136.529963 463.188194 124.178708 
C 450.864072 111.827454 436.229947 102.020124 420.121006 95.316433 
C 404.012064 88.612742 386.740699 85.142692 369.292604 85.104322 
C 351.844509 85.065951 334.558049 88.460005 318.419779 95.092781 
C 302.281509 101.725557 287.604392 111.468428 275.226065 123.765359 
C 262.847739 136.06229 253.008251 150.674811 246.269151 166.768972 
C 239.530051 182.863133 236.022027 200.126826 235.945287 217.574794 
C 235.868547 235.022762 239.224577 252.316644 245.821848 268.469461 
C 252.419118 284.622279 262.129689 299.320786 274.399369 311.726125 
C 286.669049 324.131463 301.259897 334.003062 317.339199 340.777538 
C 333.418501 347.552015 350.674437 351.097994 368.122194 351.213104 
C 385.569951 351.328214 402.871172 348.010223 419.038458 341.44849 
C 435.205744 334.886758 449.925571 325.208534 462.357862 312.966164 
C 474.790153 300.723794 484.693814 286.15469 491.503635 270.090325 
C 498.313455 254.02596 501.897373 236.777863 502.050852 219.330402 
L 369 218.16 
z
" style="fill: #f77189"/>
   </g>
   <g id="patch_3">
    <path d="M 502.050852 219.330402 
C 502.052551 219.137273 502.05383 218.944141 502.054687 218.751007 
C 502.055545 218.557873 502.055983 218.364738 502.055999 218.171602 
L 369 218.16 
z
" style="fill: #bb9832"/>
   </g>
   <g id="patch_4">
    <path d="M 502.055999 218.171602 
C 502.056 218.16967 502.056 218.167739 502.056 218.165808 
C 502.056 218.163876 502.056 218.161945 502.056 218.160013 
L 369 218.16 
z
" style="fill: #50b131"/>
   </g>
   <g id="text_1">
    <text style="fill: #262626; font: 10px 'Arial', 'Liberation Sans', 'DejaVu Sans', 'Bitstream Vera Sans', sans-serif; text-anchor: end" x="222.639816" y="220.10221" transform="rotate(-0 222.639816 220.10221)">newsapi</text>
   </g>
   <g id="text_2">
    <text style="fill: #262626; font: 10px 'Arial', 'Liberation Sans', 'DejaVu Sans', 'Bitstream Vera Sans', sans-serif; text-anchor: middle" x="289.167172" y="220.394814" transform="rotate(-0 289.167172 220.394814)">99.9%</text>
   </g>
   <g id="text_3">
    <text style="fill: #262626; font: 10px 'Arial', 'Liberation Sans', 'DejaVu Sans', 'Bitstream Vera Sans', sans-serif; text-anchor: start" x="515.360156" y="221.396045" transform="rotate(-0 515.360156 221.396045)">chicago_pd</text>
   </g>
   <g id="text_4">
    <text style="fill: #262626; font: 10px 'Arial', 'Liberation Sans', 'DejaVu Sans', 'Bitstream Vera Sans', sans-serif; text-anchor: middle" x="448.832812" y="221.100542" transform="rotate(-0 448.832812 221.100542)">0.1%</text>
   </g>
   <g id="text_5">
    <text style="fill: #262626; font: 10px 'Arial', 'Liberation Sans', 'DejaVu Sans', 'Bitstream Vera Sans', sans-serif; text-anchor: start" x="515.3616" y="220.752326" transform="rotate(-0 515.3616 220.752326)">chicago_police</text>
   </g>
   <g id="text_6">
    <text style="fill: #262626; font: 10px 'Arial', 'Liberation Sans', 'DejaVu Sans', 'Bitstream Vera Sans', sans-serif; text-anchor: middle" x="448.8336" y="220.749422" transform="rotate(-0 448.8336 220.749422)">0.0%</text>
   </g>
   <g id="text_7">
    <text style="fill: #262626; font: 12px 'Arial', 'Liberation Sans', 'DejaVu Sans', 'Bitstream Vera Sans', sans-serif; text-anchor: middle" x="369" y="45.84" transform="rotate(-0 369 45.84)">Incidents by Source</text>
   </g>
  </g>
 </g>
</svg>
