<?xml version="1.0" encoding="utf-8" standalone="no"?>
<!DOCTYPE svg PUBLIC "-//W3C//DTD SVG 1.1//EN"
  "http://www.w3.org/Graphics/SVG/1.1/DTD/svg11.dtd">
<svg xmlns:xlink="http://www.w3.org/1999/xlink" width="720pt" height="432pt" viewBox="0 0 720 432" xmlns="http://www.w3.org/2000/svg" version="1.1">
 <metadata>
  <rdf:RDF xmlns:dc="http://purl.org/dc/elements/1.1/" xmlns:cc="http://creativecommons.org/ns#" xmlns:rdf="http://www.w3.org/1999/02/22-rdf-syntax-ns#">
   <cc:Work>
    <dc:type rdf:resource="http://purl.org/dc/dcmitype/StillImage"/>
    <dc:date>2025-07-30T18:22:01.159174</dc:date>
    <dc:format>image/svg+xml</dc:format>
    <dc:creator>
     <cc:Agent>
      <dc:title>Matplotlib v3.7.5, https://matplotlib.org/</dc:title>
     </cc:Agent>
    </dc:creator>
   </cc:Work>
  </rdf:RDF>
 </metadata>
 <defs>
  <style type="text/css">*{stroke-linejoin: round; stroke-linecap: butt}</style>
 </defs>
 <g id="figure_1">
  <g id="patch_1">
   <path d="M 0 432 
L 720 432 
L 720 0 
L 0 0 
z
" style="fill: #ffffff"/>
  </g>
  <g id="axes_1">
   <g id="matplotlib.axis_1"/>
   <g id="matplotlib.axis_2"/>
   <g id="patch_2">
    <path d="M 502.056 218.16 
C 502.056 200.724329 498.628842 183.457477 491.969842 167.343496 
C 485.310843 151.229516 475.548952 136.580452 463.240508 124.231167 
C 450.932065 111.881881 436.315419 102.071516 420.223586 95.359172 
C 404.131754 88.646828 386.87635 85.162489 369.440774 85.10473 
C 352.005198 85.046971 334.727088 88.416911 318.591137 95.022493 
C 302.455186 101.628075 287.773864 111.341385 275.383872 123.608851 
C 262.99388 135.876318 253.135148 150.460384 246.369534 166.529893 
C 239.60392 182.599401 236.062438 199.843168 235.94692 217.278457 
C 235.831403 234.713745 239.144087 252.002925 245.696179 268.160669 
C 252.248272 284.318414 261.912893 299.031833 274.139248 311.462395 
C 286.365603 323.892957 300.916931 333.799948 316.963939 340.618758 
C 333.010946 347.437569 350.242887 351.036155 367.677697 351.209429 
C 385.112507 351.382704 402.412566 348.127312 418.591927 341.628781 
C 434.771288 335.13025 449.516642 325.514423 461.987638 313.329314 
C 474.458635 301.144204 484.413775 286.625775 491.285707 270.601444 
C 498.157639 254.577113 501.813289 237.357189 502.044319 219.923048 
L 369 218.16 
z
" style="fill: #f77189"/>
   </g>
   <g id="patch_3">
    <path d="M 502.044319 219.923048 
C 502.048174 219.632129 502.051075 219.341199 502.053022 219.050261 
C 502.054968 218.759324 502.055961 218.46838 502.055999 218.177436 
L 369 218.16 
z
" style="fill: #bb9832"/>
   </g>
   <g id="patch_4">
    <path d="M 502.055999 218.177436 
C 502.055999 218.174527 502.056 218.171617 502.056 218.168708 
C 502.056 218.165799 502.056 218.162889 502.056 218.15998 
L 369 218.16 
z
" style="fill: #50b131"/>
   </g>
   <g id="text_1">
    <text style="fill: #262626; font: 10px 'Arial', 'Liberation Sans', 'DejaVu Sans', 'Bitstream Vera Sans', sans-serif; text-anchor: end" x="222.641612" y="219.77624" transform="rotate(-0 222.641612 219.77624)">newsapi</text>
   </g>
   <g id="text_2">
    <text style="fill: #262626; font: 10px 'Arial', 'Liberation Sans', 'DejaVu Sans', 'Bitstream Vera Sans', sans-serif; text-anchor: middle" x="289.168152" y="220.217012" transform="rotate(-0 289.168152 220.217012)">99.8%</text>
   </g>
   <g id="text_3">
    <text style="fill: #262626; font: 10px 'Arial', 'Liberation Sans', 'DejaVu Sans', 'Bitstream Vera Sans', sans-serif; text-anchor: start" x="515.358324" y="221.725225" transform="rotate(-0 515.358324 221.725225)">chicago_pd</text>
   </g>
   <g id="text_4">
    <text style="fill: #262626; font: 10px 'Arial', 'Liberation Sans', 'DejaVu Sans', 'Bitstream Vera Sans', sans-serif; text-anchor: middle" x="448.831813" y="221.280094" transform="rotate(-0 448.831813 221.280094)">0.2%</text>
   </g>
   <g id="text_5">
    <text style="fill: #262626; font: 10px 'Arial', 'Liberation Sans', 'DejaVu Sans', 'Bitstream Vera Sans', sans-serif; text-anchor: start" x="515.3616" y="220.755516" transform="rotate(-0 515.3616 220.755516)">chicago_police</text>
   </g>
   <g id="text_6">
    <text style="fill: #262626; font: 10px 'Arial', 'Liberation Sans', 'DejaVu Sans', 'Bitstream Vera Sans', sans-serif; text-anchor: middle" x="448.8336" y="220.751162" transform="rotate(-0 448.8336 220.751162)">0.0%</text>
   </g>
   <g id="text_7">
    <text style="fill: #262626; font: 12px 'Arial', 'Liberation Sans', 'DejaVu Sans', 'Bitstream Vera Sans', sans-serif; text-anchor: middle" x="369" y="45.84" transform="rotate(-0 369 45.84)">Incidents by Source</text>
   </g>
  </g>
 </g>
</svg>
