<?xml version="1.0" encoding="utf-8" standalone="no"?>
<!DOCTYPE svg PUBLIC "-//W3C//DTD SVG 1.1//EN"
  "http://www.w3.org/Graphics/SVG/1.1/DTD/svg11.dtd">
<svg xmlns:xlink="http://www.w3.org/1999/xlink" width="720pt" height="432pt" viewBox="0 0 720 432" xmlns="http://www.w3.org/2000/svg" version="1.1">
 <metadata>
  <rdf:RDF xmlns:dc="http://purl.org/dc/elements/1.1/" xmlns:cc="http://creativecommons.org/ns#" xmlns:rdf="http://www.w3.org/1999/02/22-rdf-syntax-ns#">
   <cc:Work>
    <dc:type rdf:resource="http://purl.org/dc/dcmitype/StillImage"/>
    <dc:date>2026-04-24T13:48:22.316416</dc:date>
    <dc:format>image/svg+xml</dc:format>
    <dc:creator>
     <cc:Agent>
      <dc:title>Matplotlib v3.7.5, https://matplotlib.org/</dc:title>
     </cc:Agent>
    </dc:creator>
   </cc:Work>
  </rdf:RDF>
 </metadata>
 <defs>
  <style type="text/css">*{stroke-linejoin: round; stroke-linecap: butt}</style>
 </defs>
 <g id="figure_1">
  <g id="patch_1">
   <path d="M 0 432 
L 720 432 
L 720 0 
L 0 0 
z
" style="fill: #ffffff"/>
  </g>
  <g id="axes_1">
   <g id="matplotlib.axis_1"/>
   <g id="matplotlib.axis_2"/>
   <g id="patch_2">
    <path d="M 502.056 218.16 
C 502.056 200.704893 498.621197 183.419171 491.947772 167.290123 
C 485.274348 151.161075 475.491821 136.501736 463.158928 124.149387 
C 450.826035 111.797037 436.182136 101.991413 420.063628 95.292571 
C 403.94512 88.593729 386.664834 85.131681 369.209749 85.104165 
C 351.754663 85.076649 334.463548 88.484199 318.324 95.132189 
C 302.184452 101.78018 287.509711 111.539586 275.137935 123.852991 
C 262.766159 136.166396 252.937463 150.79482 246.21322 166.902748 
C 239.488978 183.010676 235.999693 200.285483 235.944661 217.740503 
C 235.889629 235.195524 239.269917 252.491989 245.892457 268.641997 
C 252.514997 284.792004 262.251258 299.482113 274.545145 311.873283 
C 286.839032 324.264454 301.451944 334.116199 317.549252 340.865826 
C 333.646559 347.615452 350.915844 351.131964 368.370756 351.214512 
C 385.825669 351.29706 403.127441 347.944042 419.287868 341.346969 
C 435.448295 334.749896 450.153734 325.036805 462.564269 312.762467 
C 474.974805 300.488128 484.849572 285.890765 491.624566 269.804117 
C 498.399561 253.71747 501.943291 236.453749 502.053355 218.998989 
L 369 218.16 
z
" style="fill: #f77189"/>
   </g>
   <g id="patch_3">
    <path d="M 502.053355 218.998989 
C 502.054228 218.860547 502.054885 218.722105 502.055326 218.583661 
C 502.055766 218.445217 502.055991 218.306773 502.056 218.168329 
L 369 218.16 
z
" style="fill: #bb9832"/>
   </g>
   <g id="patch_4">
    <path d="M 502.056 218.168329 
C 502.056 218.166944 502.056 218.16556 502.056 218.164175 
C 502.056 218.162791 502.056 218.161406 502.056 218.160022 
L 369 218.16 
z
" style="fill: #50b131"/>
   </g>
   <g id="text_1">
    <text style="fill: #262626; font: 10px 'Arial', 'Liberation Sans', 'DejaVu Sans', 'Bitstream Vera Sans', sans-serif; text-anchor: end" x="222.639127" y="220.284491" transform="rotate(-0 222.639127 220.284491)">newsapi</text>
   </g>
   <g id="text_2">
    <text style="fill: #262626; font: 10px 'Arial', 'Liberation Sans', 'DejaVu Sans', 'Bitstream Vera Sans', sans-serif; text-anchor: middle" x="289.166797" y="220.49424" transform="rotate(-0 289.166797 220.49424)">99.9%</text>
   </g>
   <g id="text_3">
    <text style="fill: #262626; font: 10px 'Arial', 'Liberation Sans', 'DejaVu Sans', 'Bitstream Vera Sans', sans-serif; text-anchor: start" x="515.360858" y="221.211964" transform="rotate(-0 515.360858 221.211964)">chicago_pd</text>
   </g>
   <g id="text_4">
    <text style="fill: #262626; font: 10px 'Arial', 'Liberation Sans', 'DejaVu Sans', 'Bitstream Vera Sans', sans-serif; text-anchor: middle" x="448.833195" y="221.000134" transform="rotate(-0 448.833195 221.000134)">0.1%</text>
   </g>
   <g id="text_5">
    <text style="fill: #262626; font: 10px 'Arial', 'Liberation Sans', 'DejaVu Sans', 'Bitstream Vera Sans', sans-serif; text-anchor: start" x="515.3616" y="220.75053" transform="rotate(-0 515.3616 220.75053)">chicago_police</text>
   </g>
   <g id="text_6">
    <text style="fill: #262626; font: 10px 'Arial', 'Liberation Sans', 'DejaVu Sans', 'Bitstream Vera Sans', sans-serif; text-anchor: middle" x="448.8336" y="220.748443" transform="rotate(-0 448.8336 220.748443)">0.0%</text>
   </g>
   <g id="text_7">
    <text style="fill: #262626; font: 12px 'Arial', 'Liberation Sans', 'DejaVu Sans', 'Bitstream Vera Sans', sans-serif; text-anchor: middle" x="369" y="45.84" transform="rotate(-0 369 45.84)">Incidents by Source</text>
   </g>
  </g>
 </g>
</svg>
