<?xml version="1.0" encoding="utf-8" standalone="no"?>
<!DOCTYPE svg PUBLIC "-//W3C//DTD SVG 1.1//EN"
  "http://www.w3.org/Graphics/SVG/1.1/DTD/svg11.dtd">
<svg xmlns:xlink="http://www.w3.org/1999/xlink" width="720pt" height="432pt" viewBox="0 0 720 432" xmlns="http://www.w3.org/2000/svg" version="1.1">
 <metadata>
  <rdf:RDF xmlns:dc="http://purl.org/dc/elements/1.1/" xmlns:cc="http://creativecommons.org/ns#" xmlns:rdf="http://www.w3.org/1999/02/22-rdf-syntax-ns#">
   <cc:Work>
    <dc:type rdf:resource="http://purl.org/dc/dcmitype/StillImage"/>
    <dc:date>2026-06-14T09:25:06.552248</dc:date>
    <dc:format>image/svg+xml</dc:format>
    <dc:creator>
     <cc:Agent>
      <dc:title>Matplotlib v3.7.5, https://matplotlib.org/</dc:title>
     </cc:Agent>
    </dc:creator>
   </cc:Work>
  </rdf:RDF>
 </metadata>
 <defs>
  <style type="text/css">*{stroke-linejoin: round; stroke-linecap: butt}</style>
 </defs>
 <g id="figure_1">
  <g id="patch_1">
   <path d="M 0 432 
L 720 432 
L 720 0 
L 0 0 
z
" style="fill: #ffffff"/>
  </g>
  <g id="axes_1">
   <g id="matplotlib.axis_1"/>
   <g id="matplotlib.axis_2"/>
   <g id="patch_2">
    <path d="M 502.056 218.16 
C 502.056 200.703185 498.620525 183.415806 491.945833 167.285435 
C 485.27114 151.155064 475.486799 136.494823 463.151759 124.142206 
C 450.816718 111.789589 436.170424 101.984384 420.049573 95.286731 
C 403.928722 88.589078 386.646252 85.128991 369.189455 85.104135 
C 351.732658 85.079279 334.440404 88.490135 318.300546 95.141853 
C 302.160688 101.793571 287.48653 111.557027 275.116362 123.874467 
C 262.746194 136.191907 252.920144 150.824225 246.199544 166.935522 
C 239.478943 183.04682 235.994252 200.324346 235.94454 217.78109 
C 235.894827 235.237834 239.281058 252.534927 245.909788 268.68424 
C 252.538518 284.833553 262.281071 299.521598 274.580884 311.909292 
C 286.880698 324.296986 301.49901 334.14386 317.600722 340.887394 
C 333.702434 347.630929 350.974981 351.140217 368.431636 351.214786 
C 385.888292 351.289355 403.190188 347.927756 419.348924 341.322027 
C 435.507659 334.716299 450.209561 324.99467 462.614756 312.712507 
C 475.019951 300.430345 484.88763 285.826068 491.654084 269.733975 
C 498.420538 253.641881 501.954417 236.374348 502.053842 218.917817 
L 369 218.16 
z
" style="fill: #f77189"/>
   </g>
   <g id="patch_3">
    <path d="M 502.053842 218.917817 
C 502.054554 218.792765 502.05509 218.667713 502.05545 218.54266 
C 502.055809 218.417607 502.055993 218.292553 502.056 218.1675 
L 369 218.16 
z
" style="fill: #bb9832"/>
   </g>
   <g id="patch_4">
    <path d="M 502.056 218.1675 
C 502.056 218.166249 502.056 218.164998 502.056 218.163748 
C 502.056 218.162497 502.056 218.161247 502.056 218.159996 
L 369 218.16 
z
" style="fill: #50b131"/>
   </g>
   <g id="text_1">
    <text style="fill: #262626; font: 10px 'Arial', 'Liberation Sans', 'DejaVu Sans', 'Bitstream Vera Sans', sans-serif; text-anchor: end" x="222.638993" y="220.329137" transform="rotate(-0 222.638993 220.329137)">newsapi</text>
   </g>
   <g id="text_2">
    <text style="fill: #262626; font: 10px 'Arial', 'Liberation Sans', 'DejaVu Sans', 'Bitstream Vera Sans', sans-serif; text-anchor: middle" x="289.166724" y="220.518592" transform="rotate(-0 289.166724 220.518592)">99.9%</text>
   </g>
   <g id="text_3">
    <text style="fill: #262626; font: 10px 'Arial', 'Liberation Sans', 'DejaVu Sans', 'Bitstream Vera Sans', sans-serif; text-anchor: start" x="515.360995" y="221.166863" transform="rotate(-0 515.360995 221.166863)">chicago_pd</text>
   </g>
   <g id="text_4">
    <text style="fill: #262626; font: 10px 'Arial', 'Liberation Sans', 'DejaVu Sans', 'Bitstream Vera Sans', sans-serif; text-anchor: middle" x="448.83327" y="220.975533" transform="rotate(-0 448.83327 220.975533)">0.1%</text>
   </g>
   <g id="text_5">
    <text style="fill: #262626; font: 10px 'Arial', 'Liberation Sans', 'DejaVu Sans', 'Bitstream Vera Sans', sans-serif; text-anchor: start" x="515.3616" y="220.75006" transform="rotate(-0 515.3616 220.75006)">chicago_police</text>
   </g>
   <g id="text_6">
    <text style="fill: #262626; font: 10px 'Arial', 'Liberation Sans', 'DejaVu Sans', 'Bitstream Vera Sans', sans-serif; text-anchor: middle" x="448.8336" y="220.748186" transform="rotate(-0 448.8336 220.748186)">0.0%</text>
   </g>
   <g id="text_7">
    <text style="fill: #262626; font: 12px 'Arial', 'Liberation Sans', 'DejaVu Sans', 'Bitstream Vera Sans', sans-serif; text-anchor: middle" x="369" y="45.84" transform="rotate(-0 369 45.84)">Incidents by Source</text>
   </g>
  </g>
 </g>
</svg>
