<?xml version="1.0" encoding="utf-8" standalone="no"?>
<!DOCTYPE svg PUBLIC "-//W3C//DTD SVG 1.1//EN"
  "http://www.w3.org/Graphics/SVG/1.1/DTD/svg11.dtd">
<svg xmlns:xlink="http://www.w3.org/1999/xlink" width="720pt" height="432pt" viewBox="0 0 720 432" xmlns="http://www.w3.org/2000/svg" version="1.1">
 <metadata>
  <rdf:RDF xmlns:dc="http://purl.org/dc/elements/1.1/" xmlns:cc="http://creativecommons.org/ns#" xmlns:rdf="http://www.w3.org/1999/02/22-rdf-syntax-ns#">
   <cc:Work>
    <dc:type rdf:resource="http://purl.org/dc/dcmitype/StillImage"/>
    <dc:date>2026-06-11T15:44:15.707088</dc:date>
    <dc:format>image/svg+xml</dc:format>
    <dc:creator>
     <cc:Agent>
      <dc:title>Matplotlib v3.7.5, https://matplotlib.org/</dc:title>
     </cc:Agent>
    </dc:creator>
   </cc:Work>
  </rdf:RDF>
 </metadata>
 <defs>
  <style type="text/css">*{stroke-linejoin: round; stroke-linecap: butt}</style>
 </defs>
 <g id="figure_1">
  <g id="patch_1">
   <path d="M 0 432 
L 720 432 
L 720 0 
L 0 0 
z
" style="fill: #ffffff"/>
  </g>
  <g id="axes_1">
   <g id="matplotlib.axis_1"/>
   <g id="matplotlib.axis_2"/>
   <g id="patch_2">
    <path d="M 502.056 218.16 
C 502.056 200.703286 498.620565 183.416004 491.945947 167.285711 
C 485.271329 151.155418 475.487095 136.495231 463.152181 124.14263 
C 450.817267 111.790028 436.171114 101.984798 420.050401 95.287075 
C 403.929689 88.589352 386.647347 85.12915 369.190651 85.104137 
C 351.733955 85.079124 334.441768 88.489785 318.301928 95.141283 
C 302.162088 101.792782 287.487896 111.555999 275.117633 123.873202 
C 262.747371 136.190404 252.921165 150.822492 246.20035 166.933591 
C 239.479534 183.04469 235.994572 200.322056 235.944546 217.778698 
C 235.89452 235.235341 239.280401 252.532397 245.908766 268.681751 
C 252.537131 284.831105 262.279313 299.519271 274.578778 311.90717 
C 286.878242 324.295069 301.496236 334.142231 317.597688 340.886124 
C 333.699141 347.630017 350.971496 351.139732 368.428048 351.214771 
C 385.884601 351.28981 403.186491 347.928717 419.345326 341.323498 
C 435.504161 334.71828 450.206272 324.997154 462.611781 312.715452 
C 475.017291 300.433751 484.885388 285.829881 491.652345 269.738109 
C 498.419303 253.646336 501.953763 236.379028 502.053815 218.9226 
L 369 218.16 
z
" style="fill: #f77189"/>
   </g>
   <g id="patch_3">
    <path d="M 502.053815 218.9226 
C 502.054536 218.796764 502.055079 218.670927 502.055443 218.545089 
C 502.055807 218.419251 502.055993 218.293412 502.056 218.167574 
L 369 218.16 
z
" style="fill: #bb9832"/>
   </g>
   <g id="patch_4">
    <path d="M 502.056 218.167574 
C 502.056 218.166315 502.056 218.165057 502.056 218.163798 
C 502.056 218.16254 502.056 218.161282 502.056 218.160023 
L 369 218.16 
z
" style="fill: #50b131"/>
   </g>
   <g id="text_1">
    <text style="fill: #262626; font: 10px 'Arial', 'Liberation Sans', 'DejaVu Sans', 'Bitstream Vera Sans', sans-serif; text-anchor: end" x="222.639001" y="220.326506" transform="rotate(-0 222.639001 220.326506)">newsapi</text>
   </g>
   <g id="text_2">
    <text style="fill: #262626; font: 10px 'Arial', 'Liberation Sans', 'DejaVu Sans', 'Bitstream Vera Sans', sans-serif; text-anchor: middle" x="289.166728" y="220.517156" transform="rotate(-0 289.166728 220.517156)">99.9%</text>
   </g>
   <g id="text_3">
    <text style="fill: #262626; font: 10px 'Arial', 'Liberation Sans', 'DejaVu Sans', 'Bitstream Vera Sans', sans-serif; text-anchor: start" x="515.360987" y="221.169535" transform="rotate(-0 515.360987 221.169535)">chicago_pd</text>
   </g>
   <g id="text_4">
    <text style="fill: #262626; font: 10px 'Arial', 'Liberation Sans', 'DejaVu Sans', 'Bitstream Vera Sans', sans-serif; text-anchor: middle" x="448.833266" y="220.976991" transform="rotate(-0 448.833266 220.976991)">0.1%</text>
   </g>
   <g id="text_5">
    <text style="fill: #262626; font: 10px 'Arial', 'Liberation Sans', 'DejaVu Sans', 'Bitstream Vera Sans', sans-serif; text-anchor: start" x="515.3616" y="220.750116" transform="rotate(-0 515.3616 220.750116)">chicago_police</text>
   </g>
   <g id="text_6">
    <text style="fill: #262626; font: 10px 'Arial', 'Liberation Sans', 'DejaVu Sans', 'Bitstream Vera Sans', sans-serif; text-anchor: middle" x="448.8336" y="220.748217" transform="rotate(-0 448.8336 220.748217)">0.0%</text>
   </g>
   <g id="text_7">
    <text style="fill: #262626; font: 12px 'Arial', 'Liberation Sans', 'DejaVu Sans', 'Bitstream Vera Sans', sans-serif; text-anchor: middle" x="369" y="45.84" transform="rotate(-0 369 45.84)">Incidents by Source</text>
   </g>
  </g>
 </g>
</svg>
