<?xml version="1.0" encoding="utf-8" standalone="no"?>
<!DOCTYPE svg PUBLIC "-//W3C//DTD SVG 1.1//EN"
  "http://www.w3.org/Graphics/SVG/1.1/DTD/svg11.dtd">
<svg xmlns:xlink="http://www.w3.org/1999/xlink" width="720pt" height="432pt" viewBox="0 0 720 432" xmlns="http://www.w3.org/2000/svg" version="1.1">
 <metadata>
  <rdf:RDF xmlns:dc="http://purl.org/dc/elements/1.1/" xmlns:cc="http://creativecommons.org/ns#" xmlns:rdf="http://www.w3.org/1999/02/22-rdf-syntax-ns#">
   <cc:Work>
    <dc:type rdf:resource="http://purl.org/dc/dcmitype/StillImage"/>
    <dc:date>2025-07-16T02:03:36.144523</dc:date>
    <dc:format>image/svg+xml</dc:format>
    <dc:creator>
     <cc:Agent>
      <dc:title>Matplotlib v3.7.5, https://matplotlib.org/</dc:title>
     </cc:Agent>
    </dc:creator>
   </cc:Work>
  </rdf:RDF>
 </metadata>
 <defs>
  <style type="text/css">*{stroke-linejoin: round; stroke-linecap: butt}</style>
 </defs>
 <g id="figure_1">
  <g id="patch_1">
   <path d="M 0 432 
L 720 432 
L 720 0 
L 0 0 
z
" style="fill: #ffffff"/>
  </g>
  <g id="axes_1">
   <g id="matplotlib.axis_1"/>
   <g id="matplotlib.axis_2"/>
   <g id="patch_2">
    <path d="M 502.056 218.16 
C 502.056 200.726885 498.629847 183.462515 491.972743 167.350517 
C 485.315639 151.238519 475.556461 136.590807 463.251232 124.241927 
C 450.946003 111.893047 436.332941 102.082062 420.244617 95.367947 
C 404.156294 88.653832 386.904164 85.166566 369.471158 85.104834 
C 352.038152 85.043103 334.761758 88.408101 318.626288 95.008109 
C 302.490818 101.608117 287.808641 111.315366 275.416265 123.57679 
C 263.023888 135.838214 253.161219 150.416443 246.390176 166.480891 
C 239.619134 182.545339 236.070799 199.785012 235.947337 217.21769 
C 235.823874 234.650368 239.127675 251.938569 245.670505 268.097309 
C 252.213336 284.256049 261.868533 298.972508 274.085998 311.408225 
C 286.303464 323.843942 300.846677 333.758171 316.887048 340.586057 
C 332.927418 347.413942 350.154418 351.023301 367.58655 351.208492 
C 385.018681 351.393684 402.318473 348.151123 418.50028 341.665552 
C 434.682087 335.179981 449.432644 325.576956 461.911545 313.403603 
C 474.390446 301.23025 484.356112 286.722235 491.240754 270.706143 
C 498.125397 254.69005 501.795735 237.475939 502.042653 220.044573 
L 369 218.16 
z
" style="fill: #f77189"/>
   </g>
   <g id="patch_3">
    <path d="M 502.042653 220.044573 
C 502.047058 219.733607 502.050373 219.422626 502.052597 219.111637 
C 502.054821 218.800648 502.055955 218.489652 502.055999 218.178655 
L 369 218.16 
z
" style="fill: #bb9832"/>
   </g>
   <g id="patch_4">
    <path d="M 502.055999 218.178655 
C 502.055999 218.175545 502.055999 218.172435 502.056 218.169325 
C 502.056 218.166215 502.056 218.163105 502.056 218.159995 
L 369 218.16 
z
" style="fill: #50b131"/>
   </g>
   <g id="text_1">
    <text style="fill: #262626; font: 10px 'Arial', 'Liberation Sans', 'DejaVu Sans', 'Bitstream Vera Sans', sans-serif; text-anchor: end" x="222.64207" y="219.709396" transform="rotate(-0 222.64207 219.709396)">newsapi</text>
   </g>
   <g id="text_2">
    <text style="fill: #262626; font: 10px 'Arial', 'Liberation Sans', 'DejaVu Sans', 'Bitstream Vera Sans', sans-serif; text-anchor: middle" x="289.168402" y="220.180551" transform="rotate(-0 289.168402 220.180551)">99.8%</text>
   </g>
   <g id="text_3">
    <text style="fill: #262626; font: 10px 'Arial', 'Liberation Sans', 'DejaVu Sans', 'Bitstream Vera Sans', sans-serif; text-anchor: start" x="515.357857" y="221.792738" transform="rotate(-0 515.357857 221.792738)">chicago_pd</text>
   </g>
   <g id="text_4">
    <text style="fill: #262626; font: 10px 'Arial', 'Liberation Sans', 'DejaVu Sans', 'Bitstream Vera Sans', sans-serif; text-anchor: middle" x="448.831558" y="221.31692" transform="rotate(-0 448.831558 221.31692)">0.2%</text>
   </g>
   <g id="text_5">
    <text style="fill: #262626; font: 10px 'Arial', 'Liberation Sans', 'DejaVu Sans', 'Bitstream Vera Sans', sans-serif; text-anchor: start" x="515.3616" y="220.756195" transform="rotate(-0 515.3616 220.756195)">chicago_police</text>
   </g>
   <g id="text_6">
    <text style="fill: #262626; font: 10px 'Arial', 'Liberation Sans', 'DejaVu Sans', 'Bitstream Vera Sans', sans-serif; text-anchor: middle" x="448.8336" y="220.751532" transform="rotate(-0 448.8336 220.751532)">0.0%</text>
   </g>
   <g id="text_7">
    <text style="fill: #262626; font: 12px 'Arial', 'Liberation Sans', 'DejaVu Sans', 'Bitstream Vera Sans', sans-serif; text-anchor: middle" x="369" y="45.84" transform="rotate(-0 369 45.84)">Incidents by Source</text>
   </g>
  </g>
 </g>
</svg>
