<?xml version="1.0" encoding="utf-8" standalone="no"?>
<!DOCTYPE svg PUBLIC "-//W3C//DTD SVG 1.1//EN"
  "http://www.w3.org/Graphics/SVG/1.1/DTD/svg11.dtd">
<svg xmlns:xlink="http://www.w3.org/1999/xlink" width="720pt" height="432pt" viewBox="0 0 720 432" xmlns="http://www.w3.org/2000/svg" version="1.1">
 <metadata>
  <rdf:RDF xmlns:dc="http://purl.org/dc/elements/1.1/" xmlns:cc="http://creativecommons.org/ns#" xmlns:rdf="http://www.w3.org/1999/02/22-rdf-syntax-ns#">
   <cc:Work>
    <dc:type rdf:resource="http://purl.org/dc/dcmitype/StillImage"/>
    <dc:date>2026-02-28T02:21:32.829436</dc:date>
    <dc:format>image/svg+xml</dc:format>
    <dc:creator>
     <cc:Agent>
      <dc:title>Matplotlib v3.7.5, https://matplotlib.org/</dc:title>
     </cc:Agent>
    </dc:creator>
   </cc:Work>
  </rdf:RDF>
 </metadata>
 <defs>
  <style type="text/css">*{stroke-linejoin: round; stroke-linecap: butt}</style>
 </defs>
 <g id="figure_1">
  <g id="patch_1">
   <path d="M 0 432 
L 720 432 
L 720 0 
L 0 0 
z
" style="fill: #ffffff"/>
  </g>
  <g id="axes_1">
   <g id="matplotlib.axis_1"/>
   <g id="matplotlib.axis_2"/>
   <g id="patch_2">
    <path d="M 502.056 218.16 
C 502.056 200.706601 498.621869 183.422537 491.949713 167.294814 
C 485.277557 151.16709 475.496844 136.508653 463.166101 124.156572 
C 450.835358 111.80449 436.193854 101.998448 420.077691 95.298417 
C 403.961527 88.598386 386.683427 85.134376 369.230054 85.104199 
C 351.776681 85.074022 334.486706 88.478263 318.34747 95.122525 
C 302.208234 101.766786 287.532909 111.522139 275.159526 123.831507 
C 262.786143 136.140875 252.9548 150.765402 246.226914 166.869957 
C 239.499028 182.974512 236.005149 200.246597 235.944796 217.699892 
C 235.884442 235.153187 239.258784 252.449022 245.87513 268.599722 
C 252.491476 284.750421 262.221442 299.442592 274.509398 311.837239 
C 286.797353 324.231887 301.40486 334.088501 317.497759 340.844222 
C 333.590657 347.599942 350.856675 351.123679 368.309839 351.21421 
C 385.763004 351.304741 403.064648 347.960308 419.226763 341.371896 
C 435.388878 334.783485 450.09785 325.078937 462.513725 312.81243 
C 474.929599 300.545923 484.811455 285.95548 491.594991 269.874286 
C 498.378526 253.793092 501.932111 236.533192 502.052818 219.080211 
L 369 218.16 
z
" style="fill: #f77189"/>
   </g>
   <g id="patch_3">
    <path d="M 502.052818 219.080211 
C 502.053868 218.928361 502.054658 218.77651 502.055189 218.624658 
C 502.055719 218.472805 502.055989 218.320952 502.056 218.169099 
L 369 218.16 
z
" style="fill: #bb9832"/>
   </g>
   <g id="patch_4">
    <path d="M 502.056 218.169099 
C 502.056 218.167581 502.056 218.166062 502.056 218.164544 
C 502.056 218.163025 502.056 218.161506 502.056 218.159988 
L 369 218.16 
z
" style="fill: #50b131"/>
   </g>
   <g id="text_1">
    <text style="fill: #262626; font: 10px 'Arial', 'Liberation Sans', 'DejaVu Sans', 'Bitstream Vera Sans', sans-serif; text-anchor: end" x="222.639275" y="220.239819" transform="rotate(-0 222.639275 220.239819)">newsapi</text>
   </g>
   <g id="text_2">
    <text style="fill: #262626; font: 10px 'Arial', 'Liberation Sans', 'DejaVu Sans', 'Bitstream Vera Sans', sans-serif; text-anchor: middle" x="289.166877" y="220.469873" transform="rotate(-0 289.166877 220.469873)">99.9%</text>
   </g>
   <g id="text_3">
    <text style="fill: #262626; font: 10px 'Arial', 'Liberation Sans', 'DejaVu Sans', 'Bitstream Vera Sans', sans-serif; text-anchor: start" x="515.360708" y="221.257061" transform="rotate(-0 515.360708 221.257061)">chicago_pd</text>
   </g>
   <g id="text_4">
    <text style="fill: #262626; font: 10px 'Arial', 'Liberation Sans', 'DejaVu Sans', 'Bitstream Vera Sans', sans-serif; text-anchor: middle" x="448.833113" y="221.024732" transform="rotate(-0 448.833113 221.024732)">0.1%</text>
   </g>
   <g id="text_5">
    <text style="fill: #262626; font: 10px 'Arial', 'Liberation Sans', 'DejaVu Sans', 'Bitstream Vera Sans', sans-serif; text-anchor: start" x="515.3616" y="220.750935" transform="rotate(-0 515.3616 220.750935)">chicago_police</text>
   </g>
   <g id="text_6">
    <text style="fill: #262626; font: 10px 'Arial', 'Liberation Sans', 'DejaVu Sans', 'Bitstream Vera Sans', sans-serif; text-anchor: middle" x="448.8336" y="220.748664" transform="rotate(-0 448.8336 220.748664)">0.0%</text>
   </g>
   <g id="text_7">
    <text style="fill: #262626; font: 12px 'Arial', 'Liberation Sans', 'DejaVu Sans', 'Bitstream Vera Sans', sans-serif; text-anchor: middle" x="369" y="45.84" transform="rotate(-0 369 45.84)">Incidents by Source</text>
   </g>
  </g>
 </g>
</svg>
