<?xml version="1.0" encoding="utf-8" standalone="no"?>
<!DOCTYPE svg PUBLIC "-//W3C//DTD SVG 1.1//EN"
  "http://www.w3.org/Graphics/SVG/1.1/DTD/svg11.dtd">
<svg xmlns:xlink="http://www.w3.org/1999/xlink" width="720pt" height="432pt" viewBox="0 0 720 432" xmlns="http://www.w3.org/2000/svg" version="1.1">
 <metadata>
  <rdf:RDF xmlns:dc="http://purl.org/dc/elements/1.1/" xmlns:cc="http://creativecommons.org/ns#" xmlns:rdf="http://www.w3.org/1999/02/22-rdf-syntax-ns#">
   <cc:Work>
    <dc:type rdf:resource="http://purl.org/dc/dcmitype/StillImage"/>
    <dc:date>2026-07-04T13:11:39.877644</dc:date>
    <dc:format>image/svg+xml</dc:format>
    <dc:creator>
     <cc:Agent>
      <dc:title>Matplotlib v3.7.5, https://matplotlib.org/</dc:title>
     </cc:Agent>
    </dc:creator>
   </cc:Work>
  </rdf:RDF>
 </metadata>
 <defs>
  <style type="text/css">*{stroke-linejoin: round; stroke-linecap: butt}</style>
 </defs>
 <g id="figure_1">
  <g id="patch_1">
   <path d="M 0 432 
L 720 432 
L 720 0 
L 0 0 
z
" style="fill: #ffffff"/>
  </g>
  <g id="axes_1">
   <g id="matplotlib.axis_1"/>
   <g id="matplotlib.axis_2"/>
   <g id="patch_2">
    <path d="M 502.056 218.16 
C 502.056 200.702586 498.620289 183.414624 491.945151 167.283789 
C 485.270014 151.152953 475.485036 136.492396 463.149241 124.139685 
C 450.813446 111.786975 436.166311 101.981916 420.044638 95.284681 
C 403.922965 88.587445 386.639727 85.128047 369.182329 85.104125 
C 351.724932 85.080203 334.432278 88.49222 318.292311 95.145247 
C 302.152344 101.798274 287.478392 111.563153 275.108788 123.882009 
C 262.739185 136.200866 252.914065 150.834551 246.194744 166.947032 
C 239.475422 183.059512 235.992344 200.337993 235.9445 217.795342 
C 235.896655 235.25269 239.284973 252.550003 245.915877 268.699072 
C 252.546781 284.848141 262.291542 299.53546 274.593437 311.921932 
C 286.895331 324.308405 301.515539 334.153569 317.618797 340.894963 
C 333.722055 347.636357 350.995746 351.143109 368.453013 351.214876 
C 385.91028 351.286642 403.212219 347.92203 419.37036 341.313262 
C 435.5285 334.704494 450.229159 324.979868 462.632477 312.694958 
C 475.035795 300.410049 484.900984 285.803346 491.664439 269.709341 
C 498.427893 253.615336 501.958313 236.346466 502.054001 218.889314 
L 369 218.16 
z
" style="fill: #f77189"/>
   </g>
   <g id="patch_3">
    <path d="M 502.054001 218.889314 
C 502.054661 218.768966 502.055157 218.648618 502.05549 218.528269 
C 502.055823 218.40792 502.055993 218.28757 502.056 218.16722 
L 369 218.16 
z
" style="fill: #bb9832"/>
   </g>
   <g id="patch_4">
    <path d="M 502.056 218.16722 
C 502.056 218.166017 502.056 218.164813 502.056 218.16361 
C 502.056 218.162406 502.056 218.161203 502.056 218.159999 
L 369 218.16 
z
" style="fill: #50b131"/>
   </g>
   <g id="text_1">
    <text style="fill: #262626; font: 10px 'Arial', 'Liberation Sans', 'DejaVu Sans', 'Bitstream Vera Sans', sans-serif; text-anchor: end" x="222.63895" y="220.344813" transform="rotate(-0 222.63895 220.344813)">newsapi</text>
   </g>
   <g id="text_2">
    <text style="fill: #262626; font: 10px 'Arial', 'Liberation Sans', 'DejaVu Sans', 'Bitstream Vera Sans', sans-serif; text-anchor: middle" x="289.1667" y="220.527142" transform="rotate(-0 289.1667 220.527142)">99.9%</text>
   </g>
   <g id="text_3">
    <text style="fill: #262626; font: 10px 'Arial', 'Liberation Sans', 'DejaVu Sans', 'Bitstream Vera Sans', sans-serif; text-anchor: start" x="515.361039" y="221.151033" transform="rotate(-0 515.361039 221.151033)">chicago_pd</text>
   </g>
   <g id="text_4">
    <text style="fill: #262626; font: 10px 'Arial', 'Liberation Sans', 'DejaVu Sans', 'Bitstream Vera Sans', sans-serif; text-anchor: middle" x="448.833294" y="220.966899" transform="rotate(-0 448.833294 220.966899)">0.1%</text>
   </g>
   <g id="text_5">
    <text style="fill: #262626; font: 10px 'Arial', 'Liberation Sans', 'DejaVu Sans', 'Bitstream Vera Sans', sans-serif; text-anchor: start" x="515.3616" y="220.749908" transform="rotate(-0 515.3616 220.749908)">chicago_police</text>
   </g>
   <g id="text_6">
    <text style="fill: #262626; font: 10px 'Arial', 'Liberation Sans', 'DejaVu Sans', 'Bitstream Vera Sans', sans-serif; text-anchor: middle" x="448.8336" y="220.748103" transform="rotate(-0 448.8336 220.748103)">0.0%</text>
   </g>
   <g id="text_7">
    <text style="fill: #262626; font: 12px 'Arial', 'Liberation Sans', 'DejaVu Sans', 'Bitstream Vera Sans', sans-serif; text-anchor: middle" x="369" y="45.84" transform="rotate(-0 369 45.84)">Incidents by Source</text>
   </g>
  </g>
 </g>
</svg>
