<?xml version="1.0" encoding="utf-8" standalone="no"?>
<!DOCTYPE svg PUBLIC "-//W3C//DTD SVG 1.1//EN"
  "http://www.w3.org/Graphics/SVG/1.1/DTD/svg11.dtd">
<svg xmlns:xlink="http://www.w3.org/1999/xlink" width="720pt" height="432pt" viewBox="0 0 720 432" xmlns="http://www.w3.org/2000/svg" version="1.1">
 <metadata>
  <rdf:RDF xmlns:dc="http://purl.org/dc/elements/1.1/" xmlns:cc="http://creativecommons.org/ns#" xmlns:rdf="http://www.w3.org/1999/02/22-rdf-syntax-ns#">
   <cc:Work>
    <dc:type rdf:resource="http://purl.org/dc/dcmitype/StillImage"/>
    <dc:date>2026-03-06T01:43:49.403012</dc:date>
    <dc:format>image/svg+xml</dc:format>
    <dc:creator>
     <cc:Agent>
      <dc:title>Matplotlib v3.7.5, https://matplotlib.org/</dc:title>
     </cc:Agent>
    </dc:creator>
   </cc:Work>
  </rdf:RDF>
 </metadata>
 <defs>
  <style type="text/css">*{stroke-linejoin: round; stroke-linecap: butt}</style>
 </defs>
 <g id="figure_1">
  <g id="patch_1">
   <path d="M 0 432 
L 720 432 
L 720 0 
L 0 0 
z
" style="fill: #ffffff"/>
  </g>
  <g id="axes_1">
   <g id="matplotlib.axis_1"/>
   <g id="matplotlib.axis_2"/>
   <g id="patch_2">
    <path d="M 502.056 218.16 
C 502.056 200.706411 498.621795 183.422164 491.949498 167.294293 
C 485.277201 151.166422 475.496287 136.507885 463.165305 124.155774 
C 450.834323 111.803663 436.192553 101.997667 420.076129 95.297768 
C 403.959706 88.597869 386.681363 85.134077 369.2278 85.104195 
C 351.774236 85.074313 334.484134 88.478922 318.344864 95.123598 
C 302.205593 101.768273 287.530333 111.524076 275.157128 123.833893 
C 262.783924 136.143709 252.952874 150.768669 246.225393 166.873598 
C 239.497912 182.978528 236.004543 200.250915 235.94478 217.704401 
C 235.885017 235.157888 239.260019 252.453793 245.877053 268.604416 
C 252.494088 284.755039 262.224752 299.446981 274.513366 311.841243 
C 286.801981 324.235504 301.410088 334.091578 317.503476 340.846622 
C 333.596864 347.601666 350.863245 351.124601 368.316604 351.214245 
C 385.769962 351.303889 403.071621 347.958504 419.233549 341.36913 
C 435.395477 334.779756 450.104057 325.07426 462.519339 312.806883 
C 474.934621 300.539506 484.81569 285.948295 491.598277 269.866495 
C 498.380864 253.784696 501.933355 236.524371 502.05288 219.071192 
L 369 218.16 
z
" style="fill: #f77189"/>
   </g>
   <g id="patch_3">
    <path d="M 502.05288 219.071192 
C 502.05391 218.920832 502.054685 218.77047 502.055204 218.620107 
C 502.055724 218.469744 502.05599 218.319381 502.056 218.169017 
L 369 218.16 
z
" style="fill: #bb9832"/>
   </g>
   <g id="patch_4">
    <path d="M 502.056 218.169017 
C 502.056 218.167514 502.056 218.16601 502.056 218.164506 
C 502.056 218.163003 502.056 218.161499 502.056 218.159996 
L 369 218.16 
z
" style="fill: #50b131"/>
   </g>
   <g id="text_1">
    <text style="fill: #262626; font: 10px 'Arial', 'Liberation Sans', 'DejaVu Sans', 'Bitstream Vera Sans', sans-serif; text-anchor: end" x="222.639258" y="220.244779" transform="rotate(-0 222.639258 220.244779)">newsapi</text>
   </g>
   <g id="text_2">
    <text style="fill: #262626; font: 10px 'Arial', 'Liberation Sans', 'DejaVu Sans', 'Bitstream Vera Sans', sans-serif; text-anchor: middle" x="289.166868" y="220.472578" transform="rotate(-0 289.166868 220.472578)">99.9%</text>
   </g>
   <g id="text_3">
    <text style="fill: #262626; font: 10px 'Arial', 'Liberation Sans', 'DejaVu Sans', 'Bitstream Vera Sans', sans-serif; text-anchor: start" x="515.360725" y="221.252055" transform="rotate(-0 515.360725 221.252055)">chicago_pd</text>
   </g>
   <g id="text_4">
    <text style="fill: #262626; font: 10px 'Arial', 'Liberation Sans', 'DejaVu Sans', 'Bitstream Vera Sans', sans-serif; text-anchor: middle" x="448.833123" y="221.022002" transform="rotate(-0 448.833123 221.022002)">0.1%</text>
   </g>
   <g id="text_5">
    <text style="fill: #262626; font: 10px 'Arial', 'Liberation Sans', 'DejaVu Sans', 'Bitstream Vera Sans', sans-serif; text-anchor: start" x="515.3616" y="220.750895" transform="rotate(-0 515.3616 220.750895)">chicago_police</text>
   </g>
   <g id="text_6">
    <text style="fill: #262626; font: 10px 'Arial', 'Liberation Sans', 'DejaVu Sans', 'Bitstream Vera Sans', sans-serif; text-anchor: middle" x="448.8336" y="220.748641" transform="rotate(-0 448.8336 220.748641)">0.0%</text>
   </g>
   <g id="text_7">
    <text style="fill: #262626; font: 12px 'Arial', 'Liberation Sans', 'DejaVu Sans', 'Bitstream Vera Sans', sans-serif; text-anchor: middle" x="369" y="45.84" transform="rotate(-0 369 45.84)">Incidents by Source</text>
   </g>
  </g>
 </g>
</svg>
