<?xml version="1.0" encoding="utf-8" standalone="no"?>
<!DOCTYPE svg PUBLIC "-//W3C//DTD SVG 1.1//EN"
  "http://www.w3.org/Graphics/SVG/1.1/DTD/svg11.dtd">
<svg xmlns:xlink="http://www.w3.org/1999/xlink" width="720pt" height="432pt" viewBox="0 0 720 432" xmlns="http://www.w3.org/2000/svg" version="1.1">
 <metadata>
  <rdf:RDF xmlns:dc="http://purl.org/dc/elements/1.1/" xmlns:cc="http://creativecommons.org/ns#" xmlns:rdf="http://www.w3.org/1999/02/22-rdf-syntax-ns#">
   <cc:Work>
    <dc:type rdf:resource="http://purl.org/dc/dcmitype/StillImage"/>
    <dc:date>2025-09-10T18:19:51.635870</dc:date>
    <dc:format>image/svg+xml</dc:format>
    <dc:creator>
     <cc:Agent>
      <dc:title>Matplotlib v3.7.5, https://matplotlib.org/</dc:title>
     </cc:Agent>
    </dc:creator>
   </cc:Work>
  </rdf:RDF>
 </metadata>
 <defs>
  <style type="text/css">*{stroke-linejoin: round; stroke-linecap: butt}</style>
 </defs>
 <g id="figure_1">
  <g id="patch_1">
   <path d="M 0 432 
L 720 432 
L 720 0 
L 0 0 
z
" style="fill: #ffffff"/>
  </g>
  <g id="axes_1">
   <g id="matplotlib.axis_1"/>
   <g id="matplotlib.axis_2"/>
   <g id="patch_2">
    <path d="M 502.056 218.16 
C 502.056 200.718352 498.626492 183.445697 491.963058 167.327082 
C 485.299624 151.208467 475.531389 136.556241 463.215428 124.20601 
C 450.899467 111.855779 436.274442 102.046867 420.174405 95.338669 
C 404.074368 88.630471 386.81131 85.15298 369.369729 85.104514 
C 351.928148 85.056048 334.64603 88.437546 318.508961 95.056165 
C 302.371892 101.674784 287.69258 111.402267 275.308173 123.683862 
C 262.923767 135.965456 253.074253 150.563169 246.321344 166.644503 
C 239.568434 182.725838 236.042986 199.979166 235.946055 217.420545 
C 235.849123 234.861924 239.182586 252.153372 245.756339 268.30877 
C 252.330091 284.464168 262.016746 299.170454 274.263881 311.58894 
C 286.511015 324.007426 301.081302 333.897465 317.14381 340.695034 
C 333.206317 347.492604 350.449783 351.065981 367.890825 351.211377 
C 385.331868 351.356773 402.632511 348.071371 418.806114 341.542536 
C 434.979716 335.013701 449.712862 325.367948 462.165332 313.155369 
C 474.617801 300.94279 484.548289 286.40004 491.390466 270.356484 
C 498.232643 254.312927 501.853921 237.079457 502.047781 219.638886 
L 369 218.16 
z
" style="fill: #f77189"/>
   </g>
   <g id="patch_3">
    <path d="M 502.047781 219.638886 
C 502.050493 219.394859 502.052535 219.150825 502.053904 218.906786 
C 502.055274 218.662747 502.055972 218.418706 502.055999 218.174663 
L 369 218.16 
z
" style="fill: #bb9832"/>
   </g>
   <g id="patch_4">
    <path d="M 502.055999 218.174663 
C 502.055999 218.172223 502.056 218.169782 502.056 218.167342 
C 502.056 218.164901 502.056 218.162461 502.056 218.160021 
L 369 218.16 
z
" style="fill: #50b131"/>
   </g>
   <g id="text_1">
    <text style="fill: #262626; font: 10px 'Arial', 'Liberation Sans', 'DejaVu Sans', 'Bitstream Vera Sans', sans-serif; text-anchor: end" x="222.64066" y="219.932538" transform="rotate(-0 222.64066 219.932538)">newsapi</text>
   </g>
   <g id="text_2">
    <text style="fill: #262626; font: 10px 'Arial', 'Liberation Sans', 'DejaVu Sans', 'Bitstream Vera Sans', sans-serif; text-anchor: middle" x="289.167633" y="220.302265" transform="rotate(-0 289.167633 220.302265)">99.8%</text>
   </g>
   <g id="text_3">
    <text style="fill: #262626; font: 10px 'Arial', 'Liberation Sans', 'DejaVu Sans', 'Bitstream Vera Sans', sans-serif; text-anchor: start" x="515.359295" y="221.567402" transform="rotate(-0 515.359295 221.567402)">chicago_pd</text>
   </g>
   <g id="text_4">
    <text style="fill: #262626; font: 10px 'Arial', 'Liberation Sans', 'DejaVu Sans', 'Bitstream Vera Sans', sans-serif; text-anchor: middle" x="448.832343" y="221.194009" transform="rotate(-0 448.832343 221.194009)">0.2%</text>
   </g>
   <g id="text_5">
    <text style="fill: #262626; font: 10px 'Arial', 'Liberation Sans', 'DejaVu Sans', 'Bitstream Vera Sans', sans-serif; text-anchor: start" x="515.3616" y="220.754014" transform="rotate(-0 515.3616 220.754014)">chicago_police</text>
   </g>
   <g id="text_6">
    <text style="fill: #262626; font: 10px 'Arial', 'Liberation Sans', 'DejaVu Sans', 'Bitstream Vera Sans', sans-serif; text-anchor: middle" x="448.8336" y="220.750343" transform="rotate(-0 448.8336 220.750343)">0.0%</text>
   </g>
   <g id="text_7">
    <text style="fill: #262626; font: 12px 'Arial', 'Liberation Sans', 'DejaVu Sans', 'Bitstream Vera Sans', sans-serif; text-anchor: middle" x="369" y="45.84" transform="rotate(-0 369 45.84)">Incidents by Source</text>
   </g>
  </g>
 </g>
</svg>
