<?xml version="1.0" encoding="utf-8" standalone="no"?>
<!DOCTYPE svg PUBLIC "-//W3C//DTD SVG 1.1//EN"
  "http://www.w3.org/Graphics/SVG/1.1/DTD/svg11.dtd">
<svg xmlns:xlink="http://www.w3.org/1999/xlink" width="720pt" height="432pt" viewBox="0 0 720 432" xmlns="http://www.w3.org/2000/svg" version="1.1">
 <metadata>
  <rdf:RDF xmlns:dc="http://purl.org/dc/elements/1.1/" xmlns:cc="http://creativecommons.org/ns#" xmlns:rdf="http://www.w3.org/1999/02/22-rdf-syntax-ns#">
   <cc:Work>
    <dc:type rdf:resource="http://purl.org/dc/dcmitype/StillImage"/>
    <dc:date>2026-04-22T07:25:13.521976</dc:date>
    <dc:format>image/svg+xml</dc:format>
    <dc:creator>
     <cc:Agent>
      <dc:title>Matplotlib v3.7.5, https://matplotlib.org/</dc:title>
     </cc:Agent>
    </dc:creator>
   </cc:Work>
  </rdf:RDF>
 </metadata>
 <defs>
  <style type="text/css">*{stroke-linejoin: round; stroke-linecap: butt}</style>
 </defs>
 <g id="figure_1">
  <g id="patch_1">
   <path d="M 0 432 
L 720 432 
L 720 0 
L 0 0 
z
" style="fill: #ffffff"/>
  </g>
  <g id="axes_1">
   <g id="matplotlib.axis_1"/>
   <g id="matplotlib.axis_2"/>
   <g id="patch_2">
    <path d="M 502.056 218.16 
C 502.056 200.704983 498.621232 183.419348 491.947875 167.29037 
C 485.274517 151.161392 475.492086 136.502101 463.159306 124.149766 
C 450.826527 111.79743 436.182754 101.991784 420.06437 95.29288 
C 403.945986 88.593975 386.665815 85.131824 369.21082 85.104167 
C 351.755825 85.076511 334.464769 88.483886 318.325238 95.131679 
C 302.185707 101.779473 287.510934 111.538666 275.139074 123.851858 
C 262.767214 136.16505 252.938378 150.793268 246.213943 166.901018 
C 239.489508 183.008768 235.999981 200.283431 235.944668 217.738361 
C 235.889355 235.19329 239.269329 252.489722 245.891542 268.639767 
C 252.513756 284.789811 262.249684 299.480028 274.543259 311.871382 
C 286.836833 324.262737 301.449459 334.114738 317.546535 340.864686 
C 333.64361 347.614635 350.912722 351.131528 368.367542 351.214497 
C 385.822363 351.297466 403.124128 347.944901 419.284645 341.348285 
C 435.445161 334.751669 450.150786 325.039029 462.561603 312.765103 
C 474.97242 300.491178 484.847562 285.89418 491.623007 269.80782 
C 498.398452 253.72146 501.942702 236.457941 502.053328 219.003274 
L 369 218.16 
z
" style="fill: #f77189"/>
   </g>
   <g id="patch_3">
    <path d="M 502.053328 219.003274 
C 502.05421 218.864122 502.054873 218.724969 502.055319 218.585814 
C 502.055764 218.44666 502.055991 218.307505 502.056 218.16835 
L 369 218.16 
z
" style="fill: #bb9832"/>
   </g>
   <g id="patch_4">
    <path d="M 502.056 218.16835 
C 502.056 218.166958 502.056 218.165567 502.056 218.164175 
C 502.056 218.162784 502.056 218.161392 502.056 218.160001 
L 369 218.16 
z
" style="fill: #50b131"/>
   </g>
   <g id="text_1">
    <text style="fill: #262626; font: 10px 'Arial', 'Liberation Sans', 'DejaVu Sans', 'Bitstream Vera Sans', sans-serif; text-anchor: end" x="222.639135" y="220.282134" transform="rotate(-0 222.639135 220.282134)">newsapi</text>
   </g>
   <g id="text_2">
    <text style="fill: #262626; font: 10px 'Arial', 'Liberation Sans', 'DejaVu Sans', 'Bitstream Vera Sans', sans-serif; text-anchor: middle" x="289.166801" y="220.492954" transform="rotate(-0 289.166801 220.492954)">99.9%</text>
   </g>
   <g id="text_3">
    <text style="fill: #262626; font: 10px 'Arial', 'Liberation Sans', 'DejaVu Sans', 'Bitstream Vera Sans', sans-serif; text-anchor: start" x="515.360851" y="221.214333" transform="rotate(-0 515.360851 221.214333)">chicago_pd</text>
   </g>
   <g id="text_4">
    <text style="fill: #262626; font: 10px 'Arial', 'Liberation Sans', 'DejaVu Sans', 'Bitstream Vera Sans', sans-serif; text-anchor: middle" x="448.833191" y="221.001426" transform="rotate(-0 448.833191 221.001426)">0.1%</text>
   </g>
   <g id="text_5">
    <text style="fill: #262626; font: 10px 'Arial', 'Liberation Sans', 'DejaVu Sans', 'Bitstream Vera Sans', sans-serif; text-anchor: start" x="515.3616" y="220.75053" transform="rotate(-0 515.3616 220.75053)">chicago_police</text>
   </g>
   <g id="text_6">
    <text style="fill: #262626; font: 10px 'Arial', 'Liberation Sans', 'DejaVu Sans', 'Bitstream Vera Sans', sans-serif; text-anchor: middle" x="448.8336" y="220.748443" transform="rotate(-0 448.8336 220.748443)">0.0%</text>
   </g>
   <g id="text_7">
    <text style="fill: #262626; font: 12px 'Arial', 'Liberation Sans', 'DejaVu Sans', 'Bitstream Vera Sans', sans-serif; text-anchor: middle" x="369" y="45.84" transform="rotate(-0 369 45.84)">Incidents by Source</text>
   </g>
  </g>
 </g>
</svg>
