<?xml version="1.0" encoding="utf-8" standalone="no"?>
<!DOCTYPE svg PUBLIC "-//W3C//DTD SVG 1.1//EN"
  "http://www.w3.org/Graphics/SVG/1.1/DTD/svg11.dtd">
<svg xmlns:xlink="http://www.w3.org/1999/xlink" width="720pt" height="432pt" viewBox="0 0 720 432" xmlns="http://www.w3.org/2000/svg" version="1.1">
 <metadata>
  <rdf:RDF xmlns:dc="http://purl.org/dc/elements/1.1/" xmlns:cc="http://creativecommons.org/ns#" xmlns:rdf="http://www.w3.org/1999/02/22-rdf-syntax-ns#">
   <cc:Work>
    <dc:type rdf:resource="http://purl.org/dc/dcmitype/StillImage"/>
    <dc:date>2026-07-04T13:45:04.584742</dc:date>
    <dc:format>image/svg+xml</dc:format>
    <dc:creator>
     <cc:Agent>
      <dc:title>Matplotlib v3.7.5, https://matplotlib.org/</dc:title>
     </cc:Agent>
    </dc:creator>
   </cc:Work>
  </rdf:RDF>
 </metadata>
 <defs>
  <style type="text/css">*{stroke-linejoin: round; stroke-linecap: butt}</style>
 </defs>
 <g id="figure_1">
  <g id="patch_1">
   <path d="M 0 432 
L 720 432 
L 720 0 
L 0 0 
z
" style="fill: #ffffff"/>
  </g>
  <g id="axes_1">
   <g id="matplotlib.axis_1"/>
   <g id="matplotlib.axis_2"/>
   <g id="patch_2">
    <path d="M 502.056 218.16 
C 502.056 200.702584 498.620288 183.41462 491.945149 167.283783 
C 485.27001 151.152946 475.48503 136.492388 463.149232 124.139677 
C 450.813434 111.786965 436.166297 101.981908 420.04462 95.284674 
C 403.922944 88.587439 386.639704 85.128044 369.182304 85.104125 
C 351.724905 85.080206 334.43225 88.492228 318.292282 95.145259 
C 302.152314 101.79829 287.478363 111.563174 275.108762 123.882036 
C 262.739161 136.200897 252.914044 150.834587 246.194727 166.947072 
C 239.47541 183.059557 235.992338 200.338041 235.9445 217.795391 
C 235.896662 235.252742 239.284987 252.550056 245.915898 268.699124 
C 252.546809 284.848192 262.291579 299.535508 274.593481 311.921977 
C 286.895383 324.308445 301.515597 334.153603 317.61886 340.894989 
C 333.722124 347.636376 350.995819 351.143119 368.453088 351.214876 
C 385.910357 351.286633 403.212296 347.92201 419.370435 341.313232 
C 435.528573 334.704453 450.229227 324.979816 462.632539 312.694897 
C 475.035851 300.409978 484.901031 285.803266 491.664475 269.709255 
C 498.427919 253.615243 501.958326 236.346369 502.054002 218.889215 
L 369 218.16 
z
" style="fill: #f77189"/>
   </g>
   <g id="patch_3">
    <path d="M 502.054002 218.889215 
C 502.054661 218.768885 502.055157 218.648556 502.05549 218.528225 
C 502.055823 218.407895 502.055993 218.287564 502.056 218.167233 
L 369 218.16 
z
" style="fill: #bb9832"/>
   </g>
   <g id="patch_4">
    <path d="M 502.056 218.167233 
C 502.056 218.16603 502.056 218.164826 502.056 218.163623 
C 502.056 218.16242 502.056 218.161216 502.056 218.160013 
L 369 218.16 
z
" style="fill: #50b131"/>
   </g>
   <g id="text_1">
    <text style="fill: #262626; font: 10px 'Arial', 'Liberation Sans', 'DejaVu Sans', 'Bitstream Vera Sans', sans-serif; text-anchor: end" x="222.63895" y="220.344868" transform="rotate(-0 222.63895 220.344868)">newsapi</text>
   </g>
   <g id="text_2">
    <text style="fill: #262626; font: 10px 'Arial', 'Liberation Sans', 'DejaVu Sans', 'Bitstream Vera Sans', sans-serif; text-anchor: middle" x="289.1667" y="220.527172" transform="rotate(-0 289.1667 220.527172)">99.9%</text>
   </g>
   <g id="text_3">
    <text style="fill: #262626; font: 10px 'Arial', 'Liberation Sans', 'DejaVu Sans', 'Bitstream Vera Sans', sans-serif; text-anchor: start" x="515.36104" y="221.150985" transform="rotate(-0 515.36104 221.150985)">chicago_pd</text>
   </g>
   <g id="text_4">
    <text style="fill: #262626; font: 10px 'Arial', 'Liberation Sans', 'DejaVu Sans', 'Bitstream Vera Sans', sans-serif; text-anchor: middle" x="448.833294" y="220.966873" transform="rotate(-0 448.833294 220.966873)">0.1%</text>
   </g>
   <g id="text_5">
    <text style="fill: #262626; font: 10px 'Arial', 'Liberation Sans', 'DejaVu Sans', 'Bitstream Vera Sans', sans-serif; text-anchor: start" x="515.3616" y="220.749923" transform="rotate(-0 515.3616 220.749923)">chicago_police</text>
   </g>
   <g id="text_6">
    <text style="fill: #262626; font: 10px 'Arial', 'Liberation Sans', 'DejaVu Sans', 'Bitstream Vera Sans', sans-serif; text-anchor: middle" x="448.8336" y="220.748111" transform="rotate(-0 448.8336 220.748111)">0.0%</text>
   </g>
   <g id="text_7">
    <text style="fill: #262626; font: 12px 'Arial', 'Liberation Sans', 'DejaVu Sans', 'Bitstream Vera Sans', sans-serif; text-anchor: middle" x="369" y="45.84" transform="rotate(-0 369 45.84)">Incidents by Source</text>
   </g>
  </g>
 </g>
</svg>
