<?xml version="1.0" encoding="utf-8" standalone="no"?>
<!DOCTYPE svg PUBLIC "-//W3C//DTD SVG 1.1//EN"
  "http://www.w3.org/Graphics/SVG/1.1/DTD/svg11.dtd">
<svg xmlns:xlink="http://www.w3.org/1999/xlink" width="720pt" height="432pt" viewBox="0 0 720 432" xmlns="http://www.w3.org/2000/svg" version="1.1">
 <metadata>
  <rdf:RDF xmlns:dc="http://purl.org/dc/elements/1.1/" xmlns:cc="http://creativecommons.org/ns#" xmlns:rdf="http://www.w3.org/1999/02/22-rdf-syntax-ns#">
   <cc:Work>
    <dc:type rdf:resource="http://purl.org/dc/dcmitype/StillImage"/>
    <dc:date>2025-12-28T18:22:33.282506</dc:date>
    <dc:format>image/svg+xml</dc:format>
    <dc:creator>
     <cc:Agent>
      <dc:title>Matplotlib v3.7.5, https://matplotlib.org/</dc:title>
     </cc:Agent>
    </dc:creator>
   </cc:Work>
  </rdf:RDF>
 </metadata>
 <defs>
  <style type="text/css">*{stroke-linejoin: round; stroke-linecap: butt}</style>
 </defs>
 <g id="figure_1">
  <g id="patch_1">
   <path d="M 0 432 
L 720 432 
L 720 0 
L 0 0 
z
" style="fill: #ffffff"/>
  </g>
  <g id="axes_1">
   <g id="matplotlib.axis_1"/>
   <g id="matplotlib.axis_2"/>
   <g id="patch_2">
    <path d="M 502.056 218.16 
C 502.056 200.709651 498.623069 183.428548 491.953177 167.303188 
C 485.283286 151.177828 475.505812 136.521003 463.178906 124.169401 
C 450.852 111.817798 436.214774 102.011009 420.102795 95.308857 
C 403.990817 88.606704 386.71662 85.139193 369.266306 85.104267 
C 351.815992 85.06934 334.528053 88.467677 318.389376 95.105281 
C 302.250699 101.742885 287.574333 111.491004 275.198084 123.793164 
C 262.821835 136.095324 252.985769 150.712894 246.251383 166.811426 
C 239.516996 182.909957 236.014918 200.17718 235.945066 217.627389 
C 235.875214 235.077599 239.238942 252.372304 245.844233 268.524234 
C 252.449523 284.676164 262.168248 299.37201 274.445613 311.772857 
C 286.722977 324.173704 301.320831 334.039006 317.405852 340.805599 
C 333.490873 347.572193 350.751052 351.108824 368.201086 351.213602 
C 385.651121 351.318379 402.952525 347.989272 419.117642 341.416323 
C 435.28276 334.843373 449.998028 325.154081 462.423423 312.90156 
C 474.848817 300.64904 484.743317 286.07096 491.54209 269.999514 
C 498.340864 253.928069 501.912033 236.675003 502.051736 219.225213 
L 369 218.16 
z
" style="fill: #f77189"/>
   </g>
   <g id="patch_3">
    <path d="M 502.051736 219.225213 
C 502.053143 219.049438 502.054202 218.873661 502.054913 218.697882 
C 502.055623 218.522103 502.055986 218.346322 502.056 218.170542 
L 369 218.16 
z
" style="fill: #bb9832"/>
   </g>
   <g id="patch_4">
    <path d="M 502.056 218.170542 
C 502.056 218.168784 502.056 218.167026 502.056 218.165268 
C 502.056 218.16351 502.056 218.161753 502.056 218.159995 
L 369 218.16 
z
" style="fill: #50b131"/>
   </g>
   <g id="text_1">
    <text style="fill: #262626; font: 10px 'Arial', 'Liberation Sans', 'DejaVu Sans', 'Bitstream Vera Sans', sans-serif; text-anchor: end" x="222.639573" y="220.160066" transform="rotate(-0 222.639573 220.160066)">newsapi</text>
   </g>
   <g id="text_2">
    <text style="fill: #262626; font: 10px 'Arial', 'Liberation Sans', 'DejaVu Sans', 'Bitstream Vera Sans', sans-serif; text-anchor: middle" x="289.16704" y="220.426371" transform="rotate(-0 289.16704 220.426371)">99.9%</text>
   </g>
   <g id="text_3">
    <text style="fill: #262626; font: 10px 'Arial', 'Liberation Sans', 'DejaVu Sans', 'Bitstream Vera Sans', sans-serif; text-anchor: start" x="515.360404" y="221.337607" transform="rotate(-0 515.360404 221.337607)">chicago_pd</text>
   </g>
   <g id="text_4">
    <text style="fill: #262626; font: 10px 'Arial', 'Liberation Sans', 'DejaVu Sans', 'Bitstream Vera Sans', sans-serif; text-anchor: middle" x="448.832948" y="221.068667" transform="rotate(-0 448.832948 221.068667)">0.1%</text>
   </g>
   <g id="text_5">
    <text style="fill: #262626; font: 10px 'Arial', 'Liberation Sans', 'DejaVu Sans', 'Bitstream Vera Sans', sans-serif; text-anchor: start" x="515.3616" y="220.751733" transform="rotate(-0 515.3616 220.751733)">chicago_police</text>
   </g>
   <g id="text_6">
    <text style="fill: #262626; font: 10px 'Arial', 'Liberation Sans', 'DejaVu Sans', 'Bitstream Vera Sans', sans-serif; text-anchor: middle" x="448.8336" y="220.749098" transform="rotate(-0 448.8336 220.749098)">0.0%</text>
   </g>
   <g id="text_7">
    <text style="fill: #262626; font: 12px 'Arial', 'Liberation Sans', 'DejaVu Sans', 'Bitstream Vera Sans', sans-serif; text-anchor: middle" x="369" y="45.84" transform="rotate(-0 369 45.84)">Incidents by Source</text>
   </g>
  </g>
 </g>
</svg>
