<?xml version="1.0" encoding="utf-8" standalone="no"?>
<!DOCTYPE svg PUBLIC "-//W3C//DTD SVG 1.1//EN"
  "http://www.w3.org/Graphics/SVG/1.1/DTD/svg11.dtd">
<svg xmlns:xlink="http://www.w3.org/1999/xlink" width="720pt" height="432pt" viewBox="0 0 720 432" xmlns="http://www.w3.org/2000/svg" version="1.1">
 <metadata>
  <rdf:RDF xmlns:dc="http://purl.org/dc/elements/1.1/" xmlns:cc="http://creativecommons.org/ns#" xmlns:rdf="http://www.w3.org/1999/02/22-rdf-syntax-ns#">
   <cc:Work>
    <dc:type rdf:resource="http://purl.org/dc/dcmitype/StillImage"/>
    <dc:date>2025-02-04T18:16:42.919737</dc:date>
    <dc:format>image/svg+xml</dc:format>
    <dc:creator>
     <cc:Agent>
      <dc:title>Matplotlib v3.7.5, https://matplotlib.org/</dc:title>
     </cc:Agent>
    </dc:creator>
   </cc:Work>
  </rdf:RDF>
 </metadata>
 <defs>
  <style type="text/css">*{stroke-linejoin: round; stroke-linecap: butt}</style>
 </defs>
 <g id="figure_1">
  <g id="patch_1">
   <path d="M 0 432 
L 720 432 
L 720 0 
L 0 0 
z
" style="fill: #ffffff"/>
  </g>
  <g id="axes_1">
   <g id="matplotlib.axis_1"/>
   <g id="matplotlib.axis_2"/>
   <g id="patch_2">
    <path d="M 502.056 218.16 
C 502.056 200.823997 498.667912 183.65393 492.08266 167.617364 
C 485.497408 151.580798 475.841057 136.984729 463.657761 124.651672 
C 451.474465 112.318615 436.997455 102.484669 421.042536 95.703993 
C 405.087618 88.923318 387.960224 85.32572 370.625515 85.11393 
C 353.290806 84.90214 336.080629 88.080212 319.964809 94.469058 
C 303.848989 100.857903 289.13604 110.335216 276.655063 122.366933 
C 264.174086 134.398649 254.164011 148.75444 247.188924 164.62533 
C 240.213837 180.496221 236.407265 197.578385 235.983717 214.909213 
C 235.560169 232.240041 238.527752 249.48776 244.719237 265.680428 
C 250.910722 281.873096 260.207583 296.700729 272.085925 309.327764 
C 283.964266 321.954798 298.196695 332.139507 313.981188 339.307965 
C 329.76568 346.476423 346.800066 350.491399 364.124426 351.126642 
C 381.448787 351.761886 398.731472 349.005236 414.998572 343.012034 
C 431.265672 337.018833 446.205776 327.903812 458.976983 316.180619 
C 471.74819 304.457425 482.106014 290.350483 489.466772 274.654743 
C 496.82753 258.959004 501.050312 241.974939 501.897155 224.659633 
L 369 218.16 
z
" style="fill: #f77189"/>
   </g>
   <g id="patch_3">
    <path d="M 501.897155 224.659633 
C 501.949569 223.58793 501.989018 222.515633 502.015492 221.442976 
C 502.041967 220.37032 502.055465 219.297382 502.055984 218.224399 
L 369 218.16 
z
" style="fill: #bb9832"/>
   </g>
   <g id="patch_4">
    <path d="M 502.055984 218.224399 
C 502.05599 218.213669 502.055994 218.202939 502.055996 218.19221 
C 502.055999 218.18148 502.056 218.17075 502.056 218.160021 
L 369 218.16 
z
" style="fill: #50b131"/>
   </g>
   <g id="text_1">
    <text style="fill: #262626; font: 10px 'Arial', 'Liberation Sans', 'DejaVu Sans', 'Bitstream Vera Sans', sans-serif; text-anchor: end" x="222.682089" y="217.170072" transform="rotate(-0 222.682089 217.170072)">newsapi</text>
   </g>
   <g id="text_2">
    <text style="fill: #262626; font: 10px 'Arial', 'Liberation Sans', 'DejaVu Sans', 'Bitstream Vera Sans', sans-serif; text-anchor: middle" x="289.19023" y="218.795465" transform="rotate(-0 289.19023 218.795465)">99.2%</text>
   </g>
   <g id="text_3">
    <text style="fill: #262626; font: 10px 'Arial', 'Liberation Sans', 'DejaVu Sans', 'Bitstream Vera Sans', sans-serif; text-anchor: start" x="515.317042" y="224.357212" transform="rotate(-0 515.317042 224.357212)">chicago_pd</text>
   </g>
   <g id="text_4">
    <text style="fill: #262626; font: 10px 'Arial', 'Liberation Sans', 'DejaVu Sans', 'Bitstream Vera Sans', sans-serif; text-anchor: middle" x="448.809295" y="222.715723" transform="rotate(-0 448.809295 222.715723)">0.8%</text>
   </g>
   <g id="text_5">
    <text style="fill: #262626; font: 10px 'Arial', 'Liberation Sans', 'DejaVu Sans', 'Bitstream Vera Sans', sans-serif; text-anchor: start" x="515.361596" y="220.781368" transform="rotate(-0 515.361596 220.781368)">chicago_police</text>
   </g>
   <g id="text_6">
    <text style="fill: #262626; font: 10px 'Arial', 'Liberation Sans', 'DejaVu Sans', 'Bitstream Vera Sans', sans-serif; text-anchor: middle" x="448.833598" y="220.765263" transform="rotate(-0 448.833598 220.765263)">0.0%</text>
   </g>
   <g id="text_7">
    <text style="fill: #262626; font: 12px 'Arial', 'Liberation Sans', 'DejaVu Sans', 'Bitstream Vera Sans', sans-serif; text-anchor: middle" x="369" y="45.84" transform="rotate(-0 369 45.84)">Incidents by Source</text>
   </g>
  </g>
 </g>
</svg>
