<?xml version="1.0" encoding="utf-8" standalone="no"?>
<!DOCTYPE svg PUBLIC "-//W3C//DTD SVG 1.1//EN"
  "http://www.w3.org/Graphics/SVG/1.1/DTD/svg11.dtd">
<svg xmlns:xlink="http://www.w3.org/1999/xlink" width="720pt" height="432pt" viewBox="0 0 720 432" xmlns="http://www.w3.org/2000/svg" version="1.1">
 <metadata>
  <rdf:RDF xmlns:dc="http://purl.org/dc/elements/1.1/" xmlns:cc="http://creativecommons.org/ns#" xmlns:rdf="http://www.w3.org/1999/02/22-rdf-syntax-ns#">
   <cc:Work>
    <dc:type rdf:resource="http://purl.org/dc/dcmitype/StillImage"/>
    <dc:date>2025-04-21T18:18:39.709080</dc:date>
    <dc:format>image/svg+xml</dc:format>
    <dc:creator>
     <cc:Agent>
      <dc:title>Matplotlib v3.7.5, https://matplotlib.org/</dc:title>
     </cc:Agent>
    </dc:creator>
   </cc:Work>
  </rdf:RDF>
 </metadata>
 <defs>
  <style type="text/css">*{stroke-linejoin: round; stroke-linecap: butt}</style>
 </defs>
 <g id="figure_1">
  <g id="patch_1">
   <path d="M 0 432 
L 720 432 
L 720 0 
L 0 0 
z
" style="fill: #ffffff"/>
  </g>
  <g id="axes_1">
   <g id="matplotlib.axis_1"/>
   <g id="matplotlib.axis_2"/>
   <g id="patch_2">
    <path d="M 502.056 218.16 
C 502.056 200.751477 498.639506 183.510984 492.000631 167.418066 
C 485.361756 151.325147 475.62866 136.690467 463.354342 124.345517 
C 451.080024 112.000566 436.501434 102.183656 420.446874 95.45255 
C 404.392314 88.721443 387.171709 85.20608 369.763472 85.10619 
C 352.355236 85.006301 335.095423 88.323813 318.964676 94.870238 
C 302.833929 101.416663 288.143641 111.065625 275.728464 123.268906 
C 263.313287 135.472186 253.412887 149.994208 246.589771 166.00988 
C 239.766655 182.025553 236.152538 199.225703 235.952762 216.63308 
C 235.752985 234.040457 238.971407 251.319022 245.425166 267.487066 
C 251.878925 283.655111 261.443436 298.400522 273.575278 310.885517 
C 285.70712 323.370512 300.172094 333.354076 316.148352 340.268978 
C 332.12461 347.183879 349.303739 350.896631 366.709683 351.196287 
C 384.115627 351.495943 401.412374 348.376719 417.617185 342.015837 
C 433.821995 335.654956 448.622044 326.175211 461.176446 314.115208 
C 473.730848 302.055205 483.797247 287.647754 490.803706 271.711437 
C 497.810165 255.775119 501.621429 238.617576 502.020955 221.213638 
L 369 218.16 
z
" style="fill: #f77189"/>
   </g>
   <g id="patch_3">
    <path d="M 502.020955 221.213638 
C 502.03252 220.709824 502.041224 220.205948 502.047064 219.702035 
C 502.052905 219.198122 502.055882 218.69418 502.055997 218.190233 
L 369 218.16 
z
" style="fill: #bb9832"/>
   </g>
   <g id="patch_4">
    <path d="M 502.055997 218.190233 
C 502.055998 218.185193 502.055999 218.180154 502.055999 218.175114 
C 502.056 218.170075 502.056 218.165036 502.056 218.159996 
L 369 218.16 
z
" style="fill: #50b131"/>
   </g>
   <g id="text_1">
    <text style="fill: #262626; font: 10px 'Arial', 'Liberation Sans', 'DejaVu Sans', 'Bitstream Vera Sans', sans-serif; text-anchor: end" x="222.648038" y="219.066326" transform="rotate(-0 222.648038 219.066326)">newsapi</text>
   </g>
   <g id="text_2">
    <text style="fill: #262626; font: 10px 'Arial', 'Liberation Sans', 'DejaVu Sans', 'Bitstream Vera Sans', sans-serif; text-anchor: middle" x="289.171657" y="219.829786" transform="rotate(-0 289.171657 219.829786)">99.6%</text>
   </g>
   <g id="text_3">
    <text style="fill: #262626; font: 10px 'Arial', 'Liberation Sans', 'DejaVu Sans', 'Bitstream Vera Sans', sans-serif; text-anchor: start" x="515.351771" y="222.442176" transform="rotate(-0 515.351771 222.442176)">chicago_pd</text>
   </g>
   <g id="text_4">
    <text style="fill: #262626; font: 10px 'Arial', 'Liberation Sans', 'DejaVu Sans', 'Bitstream Vera Sans', sans-serif; text-anchor: middle" x="448.828238" y="221.671159" transform="rotate(-0 448.828238 221.671159)">0.4%</text>
   </g>
   <g id="text_5">
    <text style="fill: #262626; font: 10px 'Arial', 'Liberation Sans', 'DejaVu Sans', 'Bitstream Vera Sans', sans-serif; text-anchor: start" x="515.361599" y="220.762563" transform="rotate(-0 515.361599 220.762563)">chicago_police</text>
   </g>
   <g id="text_6">
    <text style="fill: #262626; font: 10px 'Arial', 'Liberation Sans', 'DejaVu Sans', 'Bitstream Vera Sans', sans-serif; text-anchor: middle" x="448.833599" y="220.755006" transform="rotate(-0 448.833599 220.755006)">0.0%</text>
   </g>
   <g id="text_7">
    <text style="fill: #262626; font: 12px 'Arial', 'Liberation Sans', 'DejaVu Sans', 'Bitstream Vera Sans', sans-serif; text-anchor: middle" x="369" y="45.84" transform="rotate(-0 369 45.84)">Incidents by Source</text>
   </g>
  </g>
 </g>
</svg>
