<?xml version="1.0" encoding="utf-8" standalone="no"?>
<!DOCTYPE svg PUBLIC "-//W3C//DTD SVG 1.1//EN"
  "http://www.w3.org/Graphics/SVG/1.1/DTD/svg11.dtd">
<svg xmlns:xlink="http://www.w3.org/1999/xlink" width="720pt" height="432pt" viewBox="0 0 720 432" xmlns="http://www.w3.org/2000/svg" version="1.1">
 <metadata>
  <rdf:RDF xmlns:dc="http://purl.org/dc/elements/1.1/" xmlns:cc="http://creativecommons.org/ns#" xmlns:rdf="http://www.w3.org/1999/02/22-rdf-syntax-ns#">
   <cc:Work>
    <dc:type rdf:resource="http://purl.org/dc/dcmitype/StillImage"/>
    <dc:date>2026-05-04T02:14:45.171288</dc:date>
    <dc:format>image/svg+xml</dc:format>
    <dc:creator>
     <cc:Agent>
      <dc:title>Matplotlib v3.7.5, https://matplotlib.org/</dc:title>
     </cc:Agent>
    </dc:creator>
   </cc:Work>
  </rdf:RDF>
 </metadata>
 <defs>
  <style type="text/css">*{stroke-linejoin: round; stroke-linecap: butt}</style>
 </defs>
 <g id="figure_1">
  <g id="patch_1">
   <path d="M 0 432 
L 720 432 
L 720 0 
L 0 0 
z
" style="fill: #ffffff"/>
  </g>
  <g id="axes_1">
   <g id="matplotlib.axis_1"/>
   <g id="matplotlib.axis_2"/>
   <g id="patch_2">
    <path d="M 502.056 218.16 
C 502.056 200.704527 498.621053 183.41845 491.947357 167.289118 
C 485.273661 151.159787 475.490745 136.500255 463.157392 124.147848 
C 450.824039 111.795442 436.179627 101.989907 420.060617 95.29132 
C 403.941607 88.592733 386.660853 85.131105 369.205401 85.104159 
C 351.749948 85.077212 334.458589 88.48547 318.318975 95.134259 
C 302.179361 101.783048 287.504744 111.543322 275.133313 123.857592 
C 262.761881 136.171861 252.933752 150.80112 246.21029 166.909769 
C 239.486827 183.018419 235.998527 200.293809 235.944634 217.749199 
C 235.890742 235.204589 239.272303 252.501189 245.896169 268.651048 
C 252.520035 284.800907 262.257644 299.490573 274.552801 311.880999 
C 286.847958 324.271425 301.462026 334.122127 317.560278 340.870448 
C 333.658529 347.61877 350.928513 351.133734 368.383799 351.214573 
C 385.839085 351.295412 403.140885 347.940556 419.30095 341.341628 
C 435.461015 334.742701 450.165696 325.02778 462.575088 312.751766 
C 474.984479 300.475751 484.857729 285.876906 491.630894 269.789091 
C 498.404059 253.701276 501.945679 236.436739 502.053463 218.981599 
L 369 218.16 
z
" style="fill: #f77189"/>
   </g>
   <g id="patch_3">
    <path d="M 502.053463 218.981599 
C 502.054301 218.846022 502.05493 218.710444 502.055353 218.574866 
C 502.055776 218.439288 502.055991 218.303709 502.056 218.16813 
L 369 218.16 
z
" style="fill: #bb9832"/>
   </g>
   <g id="patch_4">
    <path d="M 502.056 218.16813 
C 502.056 218.166774 502.056 218.165418 502.056 218.164062 
C 502.056 218.162706 502.056 218.161351 502.056 218.159995 
L 369 218.16 
z
" style="fill: #50b131"/>
   </g>
   <g id="text_1">
    <text style="fill: #262626; font: 10px 'Arial', 'Liberation Sans', 'DejaVu Sans', 'Bitstream Vera Sans', sans-serif; text-anchor: end" x="222.639098" y="220.294056" transform="rotate(-0 222.639098 220.294056)">newsapi</text>
   </g>
   <g id="text_2">
    <text style="fill: #262626; font: 10px 'Arial', 'Liberation Sans', 'DejaVu Sans', 'Bitstream Vera Sans', sans-serif; text-anchor: middle" x="289.16678" y="220.499457" transform="rotate(-0 289.16678 220.499457)">99.9%</text>
   </g>
   <g id="text_3">
    <text style="fill: #262626; font: 10px 'Arial', 'Liberation Sans', 'DejaVu Sans', 'Bitstream Vera Sans', sans-serif; text-anchor: start" x="515.360889" y="221.20229" transform="rotate(-0 515.360889 221.20229)">chicago_pd</text>
   </g>
   <g id="text_4">
    <text style="fill: #262626; font: 10px 'Arial', 'Liberation Sans', 'DejaVu Sans', 'Bitstream Vera Sans', sans-serif; text-anchor: middle" x="448.833212" y="220.994857" transform="rotate(-0 448.833212 220.994857)">0.1%</text>
   </g>
   <g id="text_5">
    <text style="fill: #262626; font: 10px 'Arial', 'Liberation Sans', 'DejaVu Sans', 'Bitstream Vera Sans', sans-serif; text-anchor: start" x="515.3616" y="220.750406" transform="rotate(-0 515.3616 220.750406)">chicago_police</text>
   </g>
   <g id="text_6">
    <text style="fill: #262626; font: 10px 'Arial', 'Liberation Sans', 'DejaVu Sans', 'Bitstream Vera Sans', sans-serif; text-anchor: middle" x="448.8336" y="220.748375" transform="rotate(-0 448.8336 220.748375)">0.0%</text>
   </g>
   <g id="text_7">
    <text style="fill: #262626; font: 12px 'Arial', 'Liberation Sans', 'DejaVu Sans', 'Bitstream Vera Sans', sans-serif; text-anchor: middle" x="369" y="45.84" transform="rotate(-0 369 45.84)">Incidents by Source</text>
   </g>
  </g>
 </g>
</svg>
