<?xml version="1.0" encoding="utf-8" standalone="no"?>
<!DOCTYPE svg PUBLIC "-//W3C//DTD SVG 1.1//EN"
  "http://www.w3.org/Graphics/SVG/1.1/DTD/svg11.dtd">
<svg xmlns:xlink="http://www.w3.org/1999/xlink" width="720pt" height="432pt" viewBox="0 0 720 432" xmlns="http://www.w3.org/2000/svg" version="1.1">
 <metadata>
  <rdf:RDF xmlns:dc="http://purl.org/dc/elements/1.1/" xmlns:cc="http://creativecommons.org/ns#" xmlns:rdf="http://www.w3.org/1999/02/22-rdf-syntax-ns#">
   <cc:Work>
    <dc:type rdf:resource="http://purl.org/dc/dcmitype/StillImage"/>
    <dc:date>2026-03-03T06:43:16.072431</dc:date>
    <dc:format>image/svg+xml</dc:format>
    <dc:creator>
     <cc:Agent>
      <dc:title>Matplotlib v3.7.5, https://matplotlib.org/</dc:title>
     </cc:Agent>
    </dc:creator>
   </cc:Work>
  </rdf:RDF>
 </metadata>
 <defs>
  <style type="text/css">*{stroke-linejoin: round; stroke-linecap: butt}</style>
 </defs>
 <g id="figure_1">
  <g id="patch_1">
   <path d="M 0 432 
L 720 432 
L 720 0 
L 0 0 
z
" style="fill: #ffffff"/>
  </g>
  <g id="axes_1">
   <g id="matplotlib.axis_1"/>
   <g id="matplotlib.axis_2"/>
   <g id="patch_2">
    <path d="M 502.056 218.16 
C 502.056 200.706512 498.621834 183.422362 491.949612 167.294569 
C 485.27739 151.166776 475.496582 136.508293 463.165727 124.156197 
C 450.834872 111.804102 436.193243 101.998081 420.076958 95.298112 
C 403.960672 88.598143 386.682458 85.134235 369.228996 85.104197 
C 351.775533 85.074159 334.485498 88.478573 318.346246 95.123028 
C 302.206994 101.767484 287.531699 111.523049 275.1584 123.832627 
C 262.785101 136.142206 252.953896 150.766936 246.2262 166.871667 
C 239.498504 182.976398 236.004865 200.248625 235.944788 217.70201 
C 235.884712 235.155394 239.259364 252.451263 245.876033 268.601926 
C 252.492703 284.75259 262.222996 299.444653 274.511261 311.839119 
C 286.799526 324.233585 301.407315 334.089946 317.500444 340.845349 
C 333.593572 347.600752 350.859761 351.124112 368.313016 351.214226 
C 385.766272 351.304341 403.067922 347.959461 419.22995 341.370597 
C 435.391977 334.781734 450.100765 325.07674 462.516361 312.809825 
C 474.931958 300.542909 484.813444 285.952105 491.596534 269.870627 
C 498.379624 253.789149 501.932695 236.52905 502.052847 219.075975 
L 369 218.16 
z
" style="fill: #f77189"/>
   </g>
   <g id="patch_3">
    <path d="M 502.052847 219.075975 
C 502.053888 218.924831 502.054671 218.773684 502.055196 218.622537 
C 502.055721 218.47139 502.055989 218.320242 502.056 218.169094 
L 369 218.16 
z
" style="fill: #bb9832"/>
   </g>
   <g id="patch_4">
    <path d="M 502.056 218.169094 
C 502.056 218.167582 502.056 218.166071 502.056 218.164559 
C 502.056 218.163048 502.056 218.161536 502.056 218.160025 
L 369 218.16 
z
" style="fill: #50b131"/>
   </g>
   <g id="text_1">
    <text style="fill: #262626; font: 10px 'Arial', 'Liberation Sans', 'DejaVu Sans', 'Bitstream Vera Sans', sans-serif; text-anchor: end" x="222.639267" y="220.242148" transform="rotate(-0 222.639267 220.242148)">newsapi</text>
   </g>
   <g id="text_2">
    <text style="fill: #262626; font: 10px 'Arial', 'Liberation Sans', 'DejaVu Sans', 'Bitstream Vera Sans', sans-serif; text-anchor: middle" x="289.166873" y="220.471143" transform="rotate(-0 289.166873 220.471143)">99.9%</text>
   </g>
   <g id="text_3">
    <text style="fill: #262626; font: 10px 'Arial', 'Liberation Sans', 'DejaVu Sans', 'Bitstream Vera Sans', sans-serif; text-anchor: start" x="515.360716" y="221.254728" transform="rotate(-0 515.360716 221.254728)">chicago_pd</text>
   </g>
   <g id="text_4">
    <text style="fill: #262626; font: 10px 'Arial', 'Liberation Sans', 'DejaVu Sans', 'Bitstream Vera Sans', sans-serif; text-anchor: middle" x="448.833118" y="221.02346" transform="rotate(-0 448.833118 221.02346)">0.1%</text>
   </g>
   <g id="text_5">
    <text style="fill: #262626; font: 10px 'Arial', 'Liberation Sans', 'DejaVu Sans', 'Bitstream Vera Sans', sans-serif; text-anchor: start" x="515.3616" y="220.750953" transform="rotate(-0 515.3616 220.750953)">chicago_police</text>
   </g>
   <g id="text_6">
    <text style="fill: #262626; font: 10px 'Arial', 'Liberation Sans', 'DejaVu Sans', 'Bitstream Vera Sans', sans-serif; text-anchor: middle" x="448.8336" y="220.748673" transform="rotate(-0 448.8336 220.748673)">0.0%</text>
   </g>
   <g id="text_7">
    <text style="fill: #262626; font: 12px 'Arial', 'Liberation Sans', 'DejaVu Sans', 'Bitstream Vera Sans', sans-serif; text-anchor: middle" x="369" y="45.84" transform="rotate(-0 369 45.84)">Incidents by Source</text>
   </g>
  </g>
 </g>
</svg>
