<?xml version="1.0" encoding="utf-8" standalone="no"?>
<!DOCTYPE svg PUBLIC "-//W3C//DTD SVG 1.1//EN"
  "http://www.w3.org/Graphics/SVG/1.1/DTD/svg11.dtd">
<svg xmlns:xlink="http://www.w3.org/1999/xlink" width="720pt" height="432pt" viewBox="0 0 720 432" xmlns="http://www.w3.org/2000/svg" version="1.1">
 <metadata>
  <rdf:RDF xmlns:dc="http://purl.org/dc/elements/1.1/" xmlns:cc="http://creativecommons.org/ns#" xmlns:rdf="http://www.w3.org/1999/02/22-rdf-syntax-ns#">
   <cc:Work>
    <dc:type rdf:resource="http://purl.org/dc/dcmitype/StillImage"/>
    <dc:date>2025-12-11T02:00:55.362553</dc:date>
    <dc:format>image/svg+xml</dc:format>
    <dc:creator>
     <cc:Agent>
      <dc:title>Matplotlib v3.7.5, https://matplotlib.org/</dc:title>
     </cc:Agent>
    </dc:creator>
   </cc:Work>
  </rdf:RDF>
 </metadata>
 <defs>
  <style type="text/css">*{stroke-linejoin: round; stroke-linecap: butt}</style>
 </defs>
 <g id="figure_1">
  <g id="patch_1">
   <path d="M 0 432 
L 720 432 
L 720 0 
L 0 0 
z
" style="fill: #ffffff"/>
  </g>
  <g id="axes_1">
   <g id="matplotlib.axis_1"/>
   <g id="matplotlib.axis_2"/>
   <g id="patch_2">
    <path d="M 502.056 218.16 
C 502.056 200.710798 498.623521 183.43081 491.954481 167.30634 
C 485.285441 151.181869 475.509186 136.52565 463.183724 124.174228 
C 450.858262 111.822807 436.222645 102.015737 420.112241 95.312786 
C 404.001838 88.609836 386.72911 85.141007 369.279947 85.104295 
C 351.830784 85.067582 334.543612 88.463697 318.405146 95.098796 
C 302.26668 101.733896 287.589924 111.479293 275.212597 123.77874 
C 262.83527 136.078188 252.997429 150.693139 246.260597 166.789404 
C 239.523765 182.885668 236.018603 200.15106 235.945178 217.600107 
C 235.871753 235.049154 239.231488 252.343433 245.832618 268.495824 
C 252.433748 284.648215 262.148244 299.345442 274.421622 311.748619 
C 286.695001 324.151797 301.289221 334.020365 317.371276 340.791048 
C 333.453331 347.561731 350.71131 351.103212 368.160164 351.213349 
C 385.609018 351.323487 402.910328 348.000146 419.076571 341.433015 
C 435.242814 334.865884 449.960448 325.182332 462.389421 312.935077 
C 474.818394 300.687821 484.717647 286.114396 491.522151 270.046623 
C 498.326656 253.978849 501.904439 236.728359 502.051288 219.279776 
L 369 218.16 
z
" style="fill: #f77189"/>
   </g>
   <g id="patch_3">
    <path d="M 502.051288 219.279776 
C 502.052843 219.094996 502.054013 218.910214 502.054799 218.72543 
C 502.055584 218.540645 502.055984 218.35586 502.056 218.171074 
L 369 218.16 
z
" style="fill: #bb9832"/>
   </g>
   <g id="patch_4">
    <path d="M 502.056 218.171074 
C 502.056 218.169226 502.056 218.167378 502.056 218.16553 
C 502.056 218.163682 502.056 218.161835 502.056 218.159987 
L 369 218.16 
z
" style="fill: #50b131"/>
   </g>
   <g id="text_1">
    <text style="fill: #262626; font: 10px 'Arial', 'Liberation Sans', 'DejaVu Sans', 'Bitstream Vera Sans', sans-serif; text-anchor: end" x="222.639696" y="220.130055" transform="rotate(-0 222.639696 220.130055)">newsapi</text>
   </g>
   <g id="text_2">
    <text style="fill: #262626; font: 10px 'Arial', 'Liberation Sans', 'DejaVu Sans', 'Bitstream Vera Sans', sans-serif; text-anchor: middle" x="289.167107" y="220.410002" transform="rotate(-0 289.167107 220.410002)">99.9%</text>
   </g>
   <g id="text_3">
    <text style="fill: #262626; font: 10px 'Arial', 'Liberation Sans', 'DejaVu Sans', 'Bitstream Vera Sans', sans-serif; text-anchor: start" x="515.360278" y="221.36791" transform="rotate(-0 515.360278 221.36791)">chicago_pd</text>
   </g>
   <g id="text_4">
    <text style="fill: #262626; font: 10px 'Arial', 'Liberation Sans', 'DejaVu Sans', 'Bitstream Vera Sans', sans-serif; text-anchor: middle" x="448.832879" y="221.085195" transform="rotate(-0 448.832879 221.085195)">0.1%</text>
   </g>
   <g id="text_5">
    <text style="fill: #262626; font: 10px 'Arial', 'Liberation Sans', 'DejaVu Sans', 'Bitstream Vera Sans', sans-serif; text-anchor: start" x="515.3616" y="220.752021" transform="rotate(-0 515.3616 220.752021)">chicago_police</text>
   </g>
   <g id="text_6">
    <text style="fill: #262626; font: 10px 'Arial', 'Liberation Sans', 'DejaVu Sans', 'Bitstream Vera Sans', sans-serif; text-anchor: middle" x="448.8336" y="220.749256" transform="rotate(-0 448.8336 220.749256)">0.0%</text>
   </g>
   <g id="text_7">
    <text style="fill: #262626; font: 12px 'Arial', 'Liberation Sans', 'DejaVu Sans', 'Bitstream Vera Sans', sans-serif; text-anchor: middle" x="369" y="45.84" transform="rotate(-0 369 45.84)">Incidents by Source</text>
   </g>
  </g>
 </g>
</svg>
