<?xml version="1.0" encoding="utf-8" standalone="no"?>
<!DOCTYPE svg PUBLIC "-//W3C//DTD SVG 1.1//EN"
  "http://www.w3.org/Graphics/SVG/1.1/DTD/svg11.dtd">
<svg xmlns:xlink="http://www.w3.org/1999/xlink" width="720pt" height="432pt" viewBox="0 0 720 432" xmlns="http://www.w3.org/2000/svg" version="1.1">
 <metadata>
  <rdf:RDF xmlns:dc="http://purl.org/dc/elements/1.1/" xmlns:cc="http://creativecommons.org/ns#" xmlns:rdf="http://www.w3.org/1999/02/22-rdf-syntax-ns#">
   <cc:Work>
    <dc:type rdf:resource="http://purl.org/dc/dcmitype/StillImage"/>
    <dc:date>2024-12-18T12:41:46.059258</dc:date>
    <dc:format>image/svg+xml</dc:format>
    <dc:creator>
     <cc:Agent>
      <dc:title>Matplotlib v3.7.5, https://matplotlib.org/</dc:title>
     </cc:Agent>
    </dc:creator>
   </cc:Work>
  </rdf:RDF>
 </metadata>
 <defs>
  <style type="text/css">*{stroke-linejoin: round; stroke-linecap: butt}</style>
 </defs>
 <g id="figure_1">
  <g id="patch_1">
   <path d="M 0 432 
L 720 432 
L 720 0 
L 0 0 
z
" style="fill: #ffffff"/>
  </g>
  <g id="axes_1">
   <g id="matplotlib.axis_1"/>
   <g id="matplotlib.axis_2"/>
   <g id="patch_2">
    <path d="M 502.056 218.16 
C 502.056 201.29903 498.851045 184.590705 492.61213 168.92647 
C 486.373215 153.262235 477.213304 138.925713 465.621108 126.681803 
C 454.028913 114.437893 440.214326 104.50829 424.9144 97.422769 
C 409.614475 90.337248 393.106238 86.224104 376.270458 85.302785 
C 359.434678 84.381466 342.57619 86.668655 326.59445 92.042323 
C 310.61271 97.415991 295.797089 105.778839 282.93805 116.684683 
C 270.079011 127.590527 259.409384 140.841901 251.49843 155.731801 
C 243.587475 170.6217 238.578431 186.880523 236.738546 203.640808 
C 234.898662 220.401093 236.26125 237.359371 240.753614 253.610863 
C 245.245978 269.862355 252.786776 285.112804 262.973682 298.54855 
C 273.160588 311.984296 285.809153 323.362065 300.244537 332.074816 
C 314.67992 340.787568 330.640747 346.677544 347.275457 349.430497 
C 363.910167 352.18345 380.917564 351.749532 397.390249 348.151896 
C 413.862933 344.554259 429.502643 337.858043 443.47495 328.420514 
C 457.447257 318.982984 469.499172 306.975021 478.987686 293.037287 
C 488.4762 279.099553 495.22951 263.484412 498.887305 247.024981 
L 369 218.16 
z
" style="fill: #f77189"/>
   </g>
   <g id="patch_3">
    <path d="M 498.887305 247.024981 
C 499.929163 242.336805 500.716433 237.595657 501.245659 232.822358 
C 501.774885 228.049059 502.045291 223.250606 502.055688 218.448069 
L 369 218.16 
z
" style="fill: #bb9832"/>
   </g>
   <g id="patch_4">
    <path d="M 502.055688 218.448069 
C 502.055792 218.400056 502.05587 218.352042 502.055922 218.304028 
C 502.055974 218.256015 502.056 218.208001 502.056 218.159987 
L 369 218.16 
z
" style="fill: #50b131"/>
   </g>
   <g id="text_1">
    <text style="fill: #262626; font: 10px 'Arial', 'Liberation Sans', 'DejaVu Sans', 'Bitstream Vera Sans', sans-serif; text-anchor: end" x="223.512401" y="204.774826" transform="rotate(-0 223.512401 204.774826)">newsapi</text>
   </g>
   <g id="text_2">
    <text style="fill: #262626; font: 10px 'Arial', 'Liberation Sans', 'DejaVu Sans', 'Bitstream Vera Sans', sans-serif; text-anchor: middle" x="289.643128" y="212.034422" transform="rotate(-0 289.643128 212.034422)">96.5%</text>
   </g>
   <g id="text_3">
    <text style="fill: #262626; font: 10px 'Arial', 'Liberation Sans', 'DejaVu Sans', 'Bitstream Vera Sans', sans-serif; text-anchor: start" x="514.470225" y="236.874532" transform="rotate(-0 514.470225 236.874532)">chicago_pd</text>
   </g>
   <g id="text_4">
    <text style="fill: #262626; font: 10px 'Arial', 'Liberation Sans', 'DejaVu Sans', 'Bitstream Vera Sans', sans-serif; text-anchor: middle" x="448.347396" y="229.543352" transform="rotate(-0 448.347396 229.543352)">3.4%</text>
   </g>
   <g id="text_5">
    <text style="fill: #262626; font: 10px 'Arial', 'Liberation Sans', 'DejaVu Sans', 'Bitstream Vera Sans', sans-serif; text-anchor: start" x="515.361514" y="220.904369" transform="rotate(-0 515.361514 220.904369)">chicago_police</text>
   </g>
   <g id="text_6">
    <text style="fill: #262626; font: 10px 'Arial', 'Liberation Sans', 'DejaVu Sans', 'Bitstream Vera Sans', sans-serif; text-anchor: middle" x="448.833553" y="220.832354" transform="rotate(-0 448.833553 220.832354)">0.0%</text>
   </g>
   <g id="text_7">
    <text style="fill: #262626; font: 12px 'Arial', 'Liberation Sans', 'DejaVu Sans', 'Bitstream Vera Sans', sans-serif; text-anchor: middle" x="369" y="45.84" transform="rotate(-0 369 45.84)">Incidents by Source</text>
   </g>
  </g>
 </g>
</svg>
