<?xml version="1.0" encoding="utf-8" standalone="no"?>
<!DOCTYPE svg PUBLIC "-//W3C//DTD SVG 1.1//EN"
  "http://www.w3.org/Graphics/SVG/1.1/DTD/svg11.dtd">
<svg xmlns:xlink="http://www.w3.org/1999/xlink" width="720pt" height="432pt" viewBox="0 0 720 432" xmlns="http://www.w3.org/2000/svg" version="1.1">
 <metadata>
  <rdf:RDF xmlns:dc="http://purl.org/dc/elements/1.1/" xmlns:cc="http://creativecommons.org/ns#" xmlns:rdf="http://www.w3.org/1999/02/22-rdf-syntax-ns#">
   <cc:Work>
    <dc:type rdf:resource="http://purl.org/dc/dcmitype/StillImage"/>
    <dc:date>2026-03-15T02:51:35.141884</dc:date>
    <dc:format>image/svg+xml</dc:format>
    <dc:creator>
     <cc:Agent>
      <dc:title>Matplotlib v3.7.5, https://matplotlib.org/</dc:title>
     </cc:Agent>
    </dc:creator>
   </cc:Work>
  </rdf:RDF>
 </metadata>
 <defs>
  <style type="text/css">*{stroke-linejoin: round; stroke-linecap: butt}</style>
 </defs>
 <g id="figure_1">
  <g id="patch_1">
   <path d="M 0 432 
L 720 432 
L 720 0 
L 0 0 
z
" style="fill: #ffffff"/>
  </g>
  <g id="axes_1">
   <g id="matplotlib.axis_1"/>
   <g id="matplotlib.axis_2"/>
   <g id="patch_2">
    <path d="M 502.056 218.16 
C 502.056 200.706112 498.621677 183.421575 491.949158 167.293473 
C 485.27664 151.16537 475.495408 136.506676 463.164051 124.154518 
C 450.832693 111.80236 436.190504 101.996437 420.073671 95.296745 
C 403.956837 88.597054 386.678112 85.133605 369.224249 85.104189 
C 351.770386 85.074773 334.480085 88.47996 318.34076 95.125287 
C 302.201435 101.770615 287.526276 111.527127 275.153353 123.837649 
C 262.780429 136.148171 252.949843 150.773812 246.222998 166.879331 
C 239.496154 182.984851 236.003588 200.257714 235.944756 217.711502 
C 235.885923 235.165291 239.261965 252.461306 245.880082 268.611808 
C 252.498199 284.76231 262.229964 299.453892 274.519616 311.847545 
C 286.809268 324.241199 301.41832 334.096421 317.512479 340.8504 
C 333.606638 347.604379 350.873591 351.126051 368.327255 351.214299 
C 385.780919 351.302548 403.0826 347.955661 419.244233 341.364773 
C 435.405867 334.773885 450.113829 325.066895 462.528178 312.798148 
C 474.942526 300.529402 484.822356 285.93698 491.60345 269.854227 
C 498.384544 253.771474 501.935312 236.510481 502.052976 219.05699 
L 369 218.16 
z
" style="fill: #f77189"/>
   </g>
   <g id="patch_3">
    <path d="M 502.052976 219.05699 
C 502.053974 218.908977 502.054725 218.760961 502.055229 218.612945 
C 502.055733 218.464929 502.05599 218.316912 502.056 218.168894 
L 369 218.16 
z
" style="fill: #bb9832"/>
   </g>
   <g id="patch_4">
    <path d="M 502.056 218.168894 
C 502.056 218.167414 502.056 218.165934 502.056 218.164454 
C 502.056 218.162974 502.056 218.161494 502.056 218.160013 
L 369 218.16 
z
" style="fill: #50b131"/>
   </g>
   <g id="text_1">
    <text style="fill: #262626; font: 10px 'Arial', 'Liberation Sans', 'DejaVu Sans', 'Bitstream Vera Sans', sans-serif; text-anchor: end" x="222.639231" y="220.25259" transform="rotate(-0 222.639231 220.25259)">newsapi</text>
   </g>
   <g id="text_2">
    <text style="fill: #262626; font: 10px 'Arial', 'Liberation Sans', 'DejaVu Sans', 'Bitstream Vera Sans', sans-serif; text-anchor: middle" x="289.166854" y="220.476839" transform="rotate(-0 289.166854 220.476839)">99.9%</text>
   </g>
   <g id="text_3">
    <text style="fill: #262626; font: 10px 'Arial', 'Liberation Sans', 'DejaVu Sans', 'Bitstream Vera Sans', sans-serif; text-anchor: start" x="515.360752" y="221.244177" transform="rotate(-0 515.360752 221.244177)">chicago_pd</text>
   </g>
   <g id="text_4">
    <text style="fill: #262626; font: 10px 'Arial', 'Liberation Sans', 'DejaVu Sans', 'Bitstream Vera Sans', sans-serif; text-anchor: middle" x="448.833137" y="221.017704" transform="rotate(-0 448.833137 221.017704)">0.1%</text>
   </g>
   <g id="text_5">
    <text style="fill: #262626; font: 10px 'Arial', 'Liberation Sans', 'DejaVu Sans', 'Bitstream Vera Sans', sans-serif; text-anchor: start" x="515.3616" y="220.750837" transform="rotate(-0 515.3616 220.750837)">chicago_police</text>
   </g>
   <g id="text_6">
    <text style="fill: #262626; font: 10px 'Arial', 'Liberation Sans', 'DejaVu Sans', 'Bitstream Vera Sans', sans-serif; text-anchor: middle" x="448.8336" y="220.74861" transform="rotate(-0 448.8336 220.74861)">0.0%</text>
   </g>
   <g id="text_7">
    <text style="fill: #262626; font: 12px 'Arial', 'Liberation Sans', 'DejaVu Sans', 'Bitstream Vera Sans', sans-serif; text-anchor: middle" x="369" y="45.84" transform="rotate(-0 369 45.84)">Incidents by Source</text>
   </g>
  </g>
 </g>
</svg>
