<?xml version="1.0" encoding="utf-8" standalone="no"?>
<!DOCTYPE svg PUBLIC "-//W3C//DTD SVG 1.1//EN"
  "http://www.w3.org/Graphics/SVG/1.1/DTD/svg11.dtd">
<svg xmlns:xlink="http://www.w3.org/1999/xlink" width="720pt" height="432pt" viewBox="0 0 720 432" xmlns="http://www.w3.org/2000/svg" version="1.1">
 <metadata>
  <rdf:RDF xmlns:dc="http://purl.org/dc/elements/1.1/" xmlns:cc="http://creativecommons.org/ns#" xmlns:rdf="http://www.w3.org/1999/02/22-rdf-syntax-ns#">
   <cc:Work>
    <dc:type rdf:resource="http://purl.org/dc/dcmitype/StillImage"/>
    <dc:date>2026-07-19T08:07:56.020793</dc:date>
    <dc:format>image/svg+xml</dc:format>
    <dc:creator>
     <cc:Agent>
      <dc:title>Matplotlib v3.7.5, https://matplotlib.org/</dc:title>
     </cc:Agent>
    </dc:creator>
   </cc:Work>
  </rdf:RDF>
 </metadata>
 <defs>
  <style type="text/css">*{stroke-linejoin: round; stroke-linecap: butt}</style>
 </defs>
 <g id="figure_1">
  <g id="patch_1">
   <path d="M 0 432 
L 720 432 
L 720 0 
L 0 0 
z
" style="fill: #ffffff"/>
  </g>
  <g id="axes_1">
   <g id="matplotlib.axis_1"/>
   <g id="matplotlib.axis_2"/>
   <g id="patch_2">
    <path d="M 502.056 218.16 
C 502.056 200.702174 498.620127 183.413812 491.944683 167.282658 
C 485.26924 151.151503 475.483825 136.490729 463.147511 124.137953 
C 450.811198 111.785178 436.163485 101.980221 420.041247 95.283272 
C 403.919008 88.586323 386.635244 85.127399 369.177434 85.104118 
C 351.719623 85.080838 334.426695 88.493653 318.286653 95.14758 
C 302.146611 101.801506 287.4728 111.567362 275.103585 123.887192 
C 262.73437 136.207022 252.909888 150.841646 246.191446 166.954939 
C 239.473004 183.068233 235.991034 200.347369 235.944473 217.805133 
C 235.897912 235.262897 239.287664 252.560361 245.920061 268.709262 
C 252.552458 284.858163 262.298738 299.544983 274.602062 311.930616 
C 286.905387 324.316249 301.526897 334.160238 317.631217 340.900161 
C 333.735537 347.640085 351.010014 351.145094 368.467701 351.214935 
C 385.925387 351.284776 403.227355 347.918094 419.385087 341.307238 
C 435.542818 334.696382 450.242622 324.969696 462.644651 312.682899 
C 475.04668 300.396103 484.910157 285.787733 491.671551 269.692415 
C 498.432944 253.597097 501.960986 236.327309 502.054107 218.869731 
L 369 218.16 
z
" style="fill: #f77189"/>
   </g>
   <g id="patch_3">
    <path d="M 502.054107 218.869731 
C 502.054732 218.752615 502.055202 218.635499 502.055517 218.518381 
C 502.055833 218.401264 502.055994 218.284147 502.056 218.167029 
L 369 218.16 
z
" style="fill: #bb9832"/>
   </g>
   <g id="patch_4">
    <path d="M 502.056 218.167029 
C 502.056 218.165858 502.056 218.164687 502.056 218.163516 
C 502.056 218.162344 502.056 218.161173 502.056 218.160002 
L 369 218.16 
z
" style="fill: #50b131"/>
   </g>
   <g id="text_1">
    <text style="fill: #262626; font: 10px 'Arial', 'Liberation Sans', 'DejaVu Sans', 'Bitstream Vera Sans', sans-serif; text-anchor: end" x="222.638921" y="220.355584" transform="rotate(-0 222.638921 220.355584)">newsapi</text>
   </g>
   <g id="text_2">
    <text style="fill: #262626; font: 10px 'Arial', 'Liberation Sans', 'DejaVu Sans', 'Bitstream Vera Sans', sans-serif; text-anchor: middle" x="289.166684" y="220.533017" transform="rotate(-0 289.166684 220.533017)">99.9%</text>
   </g>
   <g id="text_3">
    <text style="fill: #262626; font: 10px 'Arial', 'Liberation Sans', 'DejaVu Sans', 'Bitstream Vera Sans', sans-serif; text-anchor: start" x="515.361069" y="221.140157" transform="rotate(-0 515.361069 221.140157)">chicago_pd</text>
   </g>
   <g id="text_4">
    <text style="fill: #262626; font: 10px 'Arial', 'Liberation Sans', 'DejaVu Sans', 'Bitstream Vera Sans', sans-serif; text-anchor: middle" x="448.83331" y="220.960966" transform="rotate(-0 448.83331 220.960966)">0.1%</text>
   </g>
   <g id="text_5">
    <text style="fill: #262626; font: 10px 'Arial', 'Liberation Sans', 'DejaVu Sans', 'Bitstream Vera Sans', sans-serif; text-anchor: start" x="515.3616" y="220.749805" transform="rotate(-0 515.3616 220.749805)">chicago_police</text>
   </g>
   <g id="text_6">
    <text style="fill: #262626; font: 10px 'Arial', 'Liberation Sans', 'DejaVu Sans', 'Bitstream Vera Sans', sans-serif; text-anchor: middle" x="448.8336" y="220.748047" transform="rotate(-0 448.8336 220.748047)">0.0%</text>
   </g>
   <g id="text_7">
    <text style="fill: #262626; font: 12px 'Arial', 'Liberation Sans', 'DejaVu Sans', 'Bitstream Vera Sans', sans-serif; text-anchor: middle" x="369" y="45.84" transform="rotate(-0 369 45.84)">Incidents by Source</text>
   </g>
  </g>
 </g>
</svg>
