<?xml version="1.0" encoding="utf-8" standalone="no"?>
<!DOCTYPE svg PUBLIC "-//W3C//DTD SVG 1.1//EN"
  "http://www.w3.org/Graphics/SVG/1.1/DTD/svg11.dtd">
<svg xmlns:xlink="http://www.w3.org/1999/xlink" width="720pt" height="432pt" viewBox="0 0 720 432" xmlns="http://www.w3.org/2000/svg" version="1.1">
 <metadata>
  <rdf:RDF xmlns:dc="http://purl.org/dc/elements/1.1/" xmlns:cc="http://creativecommons.org/ns#" xmlns:rdf="http://www.w3.org/1999/02/22-rdf-syntax-ns#">
   <cc:Work>
    <dc:type rdf:resource="http://purl.org/dc/dcmitype/StillImage"/>
    <dc:date>2025-03-12T01:41:43.879252</dc:date>
    <dc:format>image/svg+xml</dc:format>
    <dc:creator>
     <cc:Agent>
      <dc:title>Matplotlib v3.7.5, https://matplotlib.org/</dc:title>
     </cc:Agent>
    </dc:creator>
   </cc:Work>
  </rdf:RDF>
 </metadata>
 <defs>
  <style type="text/css">*{stroke-linejoin: round; stroke-linecap: butt}</style>
 </defs>
 <g id="figure_1">
  <g id="patch_1">
   <path d="M 0 432 
L 720 432 
L 720 0 
L 0 0 
z
" style="fill: #ffffff"/>
  </g>
  <g id="axes_1">
   <g id="matplotlib.axis_1"/>
   <g id="matplotlib.axis_2"/>
   <g id="patch_2">
    <path d="M 502.056 218.16 
C 502.056 200.778626 498.650154 183.564497 492.031377 167.492659 
C 485.4126 151.420822 475.708264 136.800565 463.468046 124.460014 
C 451.227827 112.119462 436.687278 102.296099 420.670008 95.546341 
C 404.652739 88.796583 387.466986 85.250325 370.086191 85.108434 
C 352.705396 84.966542 335.464037 88.231749 319.338704 94.719104 
C 303.21337 101.20646 288.51438 110.791121 276.074318 122.93019 
C 263.634255 135.06926 253.692519 149.529132 246.81223 165.490767 
C 239.931942 181.452402 236.245507 198.608633 235.961734 215.98769 
C 235.677961 233.366747 238.80231 250.634187 245.157812 266.811943 
C 251.513313 282.989698 260.977661 297.766442 273.014773 310.305186 
C 285.051884 322.84393 299.430116 332.903377 315.335053 339.913738 
C 331.23999 346.924098 348.365554 350.750463 365.741716 351.176099 
C 383.117878 351.601736 400.410248 348.618452 416.639346 342.395228 
C 432.868445 336.172004 447.721958 326.8286 460.358548 314.894248 
C 472.995138 302.959897 483.171626 288.664263 490.311591 272.817085 
C 497.451557 256.969907 501.417598 239.876149 501.985069 222.504041 
L 369 218.16 
z
" style="fill: #f77189"/>
   </g>
   <g id="patch_3">
    <path d="M 501.985069 222.504041 
C 502.008476 221.787449 502.026092 221.07068 502.037913 220.353804 
C 502.049735 219.636928 502.055761 218.919968 502.055993 218.202994 
L 369 218.16 
z
" style="fill: #bb9832"/>
   </g>
   <g id="patch_4">
    <path d="M 502.055993 218.202994 
C 502.055995 218.195824 502.055997 218.188655 502.055998 218.181485 
C 502.055999 218.174315 502.056 218.167145 502.056 218.159976 
L 369 218.16 
z
" style="fill: #50b131"/>
   </g>
   <g id="text_1">
    <text style="fill: #262626; font: 10px 'Arial', 'Liberation Sans', 'DejaVu Sans', 'Bitstream Vera Sans', sans-serif; text-anchor: end" x="222.657907" y="218.356397" transform="rotate(-0 222.657907 218.356397)">newsapi</text>
   </g>
   <g id="text_2">
    <text style="fill: #262626; font: 10px 'Arial', 'Liberation Sans', 'DejaVu Sans', 'Bitstream Vera Sans', sans-serif; text-anchor: middle" x="289.17704" y="219.442552" transform="rotate(-0 289.17704 219.442552)">99.5%</text>
   </g>
   <g id="text_3">
    <text style="fill: #262626; font: 10px 'Arial', 'Liberation Sans', 'DejaVu Sans', 'Bitstream Vera Sans', sans-serif; text-anchor: start" x="515.341705" y="223.159122" transform="rotate(-0 515.341705 223.159122)">chicago_pd</text>
   </g>
   <g id="text_4">
    <text style="fill: #262626; font: 10px 'Arial', 'Liberation Sans', 'DejaVu Sans', 'Bitstream Vera Sans', sans-serif; text-anchor: middle" x="448.822748" y="222.06222" transform="rotate(-0 448.822748 222.06222)">0.5%</text>
   </g>
   <g id="text_5">
    <text style="fill: #262626; font: 10px 'Arial', 'Liberation Sans', 'DejaVu Sans', 'Bitstream Vera Sans', sans-serif; text-anchor: start" x="515.361598" y="220.769571" transform="rotate(-0 515.361598 220.769571)">chicago_police</text>
   </g>
   <g id="text_6">
    <text style="fill: #262626; font: 10px 'Arial', 'Liberation Sans', 'DejaVu Sans', 'Bitstream Vera Sans', sans-serif; text-anchor: middle" x="448.833599" y="220.758828" transform="rotate(-0 448.833599 220.758828)">0.0%</text>
   </g>
   <g id="text_7">
    <text style="fill: #262626; font: 12px 'Arial', 'Liberation Sans', 'DejaVu Sans', 'Bitstream Vera Sans', sans-serif; text-anchor: middle" x="369" y="45.84" transform="rotate(-0 369 45.84)">Incidents by Source</text>
   </g>
  </g>
 </g>
</svg>
