<?xml version="1.0" encoding="utf-8" standalone="no"?>
<!DOCTYPE svg PUBLIC "-//W3C//DTD SVG 1.1//EN"
  "http://www.w3.org/Graphics/SVG/1.1/DTD/svg11.dtd">
<svg xmlns:xlink="http://www.w3.org/1999/xlink" width="720pt" height="432pt" viewBox="0 0 720 432" xmlns="http://www.w3.org/2000/svg" version="1.1">
 <metadata>
  <rdf:RDF xmlns:dc="http://purl.org/dc/elements/1.1/" xmlns:cc="http://creativecommons.org/ns#" xmlns:rdf="http://www.w3.org/1999/02/22-rdf-syntax-ns#">
   <cc:Work>
    <dc:type rdf:resource="http://purl.org/dc/dcmitype/StillImage"/>
    <dc:date>2025-01-13T06:18:48.435733</dc:date>
    <dc:format>image/svg+xml</dc:format>
    <dc:creator>
     <cc:Agent>
      <dc:title>Matplotlib v3.7.5, https://matplotlib.org/</dc:title>
     </cc:Agent>
    </dc:creator>
   </cc:Work>
  </rdf:RDF>
 </metadata>
 <defs>
  <style type="text/css">*{stroke-linejoin: round; stroke-linecap: butt}</style>
 </defs>
 <g id="figure_1">
  <g id="patch_1">
   <path d="M 0 432 
L 720 432 
L 720 0 
L 0 0 
z
" style="fill: #ffffff"/>
  </g>
  <g id="axes_1">
   <g id="matplotlib.axis_1"/>
   <g id="matplotlib.axis_2"/>
   <g id="patch_2">
    <path d="M 502.056 218.16 
C 502.056 200.89895 498.697145 183.801691 492.167107 167.823504 
C 485.637069 151.845318 476.059774 137.289439 463.97034 124.969154 
C 451.880905 112.64887 437.508764 102.797995 421.656937 95.966931 
C 405.805111 89.135867 388.774435 85.454255 371.516472 85.127799 
C 354.25851 84.801343 337.100783 87.836238 321.001953 94.062915 
C 304.903122 100.289591 290.168712 109.589879 277.621986 121.44414 
C 265.075259 133.2984 254.954327 147.481662 247.824681 163.201458 
C 240.695036 178.921254 236.691983 195.879254 236.039187 213.127955 
C 235.386392 230.376657 238.096242 247.588714 244.01733 263.802429 
C 249.938417 280.016144 258.958372 294.923814 270.573217 307.692494 
C 282.188062 320.461175 296.177372 330.848543 311.759514 338.27422 
C 327.341656 345.699897 344.220914 350.022959 361.454183 351.00186 
C 378.687453 351.980762 395.947683 349.596925 412.270482 343.983545 
C 428.593282 338.370165 443.668879 329.63377 456.654946 318.262495 
C 469.641013 306.89122 480.291101 293.100868 488.010153 277.661954 
C 495.729205 262.22304 500.370729 245.428563 501.675386 228.216889 
L 369 218.16 
z
" style="fill: #f77189"/>
   </g>
   <g id="patch_3">
    <path d="M 501.675386 228.216889 
C 501.800945 226.560459 501.895472 224.901822 501.958918 223.241851 
C 502.022364 221.581881 502.054718 219.920868 502.055963 218.259686 
L 369 218.16 
z
" style="fill: #bb9832"/>
   </g>
   <g id="patch_4">
    <path d="M 502.055963 218.259686 
C 502.055975 218.243074 502.055984 218.226463 502.055991 218.209852 
C 502.055997 218.19324 502.056 218.176629 502.056 218.160018 
L 369 218.16 
z
" style="fill: #50b131"/>
   </g>
   <g id="text_1">
    <text style="fill: #262626; font: 10px 'Arial', 'Liberation Sans', 'DejaVu Sans', 'Bitstream Vera Sans', sans-serif; text-anchor: end" x="222.743106" y="215.210689" transform="rotate(-0 222.743106 215.210689)">newsapi</text>
   </g>
   <g id="text_2">
    <text style="fill: #262626; font: 10px 'Arial', 'Liberation Sans', 'DejaVu Sans', 'Bitstream Vera Sans', sans-serif; text-anchor: middle" x="289.223512" y="217.726711" transform="rotate(-0 289.223512 217.726711)">98.8%</text>
   </g>
   <g id="text_3">
    <text style="fill: #262626; font: 10px 'Arial', 'Liberation Sans', 'DejaVu Sans', 'Bitstream Vera Sans', sans-serif; text-anchor: start" x="515.25481" y="226.335974" transform="rotate(-0 515.25481 226.335974)">chicago_pd</text>
   </g>
   <g id="text_4">
    <text style="fill: #262626; font: 10px 'Arial', 'Liberation Sans', 'DejaVu Sans', 'Bitstream Vera Sans', sans-serif; text-anchor: middle" x="448.775351" y="223.795048" transform="rotate(-0 448.775351 223.795048)">1.2%</text>
   </g>
   <g id="text_5">
    <text style="fill: #262626; font: 10px 'Arial', 'Liberation Sans', 'DejaVu Sans', 'Bitstream Vera Sans', sans-serif; text-anchor: start" x="515.36159" y="220.800774" transform="rotate(-0 515.36159 220.800774)">chicago_police</text>
   </g>
   <g id="text_6">
    <text style="fill: #262626; font: 10px 'Arial', 'Liberation Sans', 'DejaVu Sans', 'Bitstream Vera Sans', sans-serif; text-anchor: middle" x="448.833594" y="220.775849" transform="rotate(-0 448.833594 220.775849)">0.0%</text>
   </g>
   <g id="text_7">
    <text style="fill: #262626; font: 12px 'Arial', 'Liberation Sans', 'DejaVu Sans', 'Bitstream Vera Sans', sans-serif; text-anchor: middle" x="369" y="45.84" transform="rotate(-0 369 45.84)">Incidents by Source</text>
   </g>
  </g>
 </g>
</svg>
