<?xml version="1.0" encoding="utf-8" standalone="no"?>
<!DOCTYPE svg PUBLIC "-//W3C//DTD SVG 1.1//EN"
  "http://www.w3.org/Graphics/SVG/1.1/DTD/svg11.dtd">
<svg xmlns:xlink="http://www.w3.org/1999/xlink" width="720pt" height="432pt" viewBox="0 0 720 432" xmlns="http://www.w3.org/2000/svg" version="1.1">
 <metadata>
  <rdf:RDF xmlns:dc="http://purl.org/dc/elements/1.1/" xmlns:cc="http://creativecommons.org/ns#" xmlns:rdf="http://www.w3.org/1999/02/22-rdf-syntax-ns#">
   <cc:Work>
    <dc:type rdf:resource="http://purl.org/dc/dcmitype/StillImage"/>
    <dc:date>2025-06-28T18:18:30.778731</dc:date>
    <dc:format>image/svg+xml</dc:format>
    <dc:creator>
     <cc:Agent>
      <dc:title>Matplotlib v3.7.5, https://matplotlib.org/</dc:title>
     </cc:Agent>
    </dc:creator>
   </cc:Work>
  </rdf:RDF>
 </metadata>
 <defs>
  <style type="text/css">*{stroke-linejoin: round; stroke-linecap: butt}</style>
 </defs>
 <g id="figure_1">
  <g id="patch_1">
   <path d="M 0 432 
L 720 432 
L 720 0 
L 0 0 
z
" style="fill: #ffffff"/>
  </g>
  <g id="axes_1">
   <g id="matplotlib.axis_1"/>
   <g id="matplotlib.axis_2"/>
   <g id="patch_2">
    <path d="M 502.056 218.16 
C 502.056 200.729956 498.631054 183.468567 491.976227 167.35895 
C 485.321401 151.249334 475.565481 136.603248 463.264113 124.254856 
C 450.962745 111.906464 436.353989 102.094735 420.26988 95.378493 
C 404.185772 88.662251 386.937576 85.171471 369.507658 85.104968 
C 352.077741 85.038466 334.80341 88.397529 318.668521 94.990843 
C 302.533631 101.584156 287.850429 111.284125 275.455192 123.538289 
C 263.059956 135.792454 253.19256 150.363669 246.415 166.422036 
C 239.63744 182.480402 236.080877 199.715153 235.947874 217.14469 
C 235.81487 234.574227 239.108001 251.861248 245.639706 268.021177 
C 252.171411 284.181105 261.815286 298.901209 274.02207 311.343109 
C 286.228853 323.78501 300.762314 333.707928 316.794704 340.546708 
C 332.827095 347.385487 350.048151 351.007781 367.477054 351.207284 
C 384.905957 351.406787 402.205416 348.179637 418.390148 341.709635 
C 434.574879 335.239634 449.331671 325.651991 461.820055 313.492768 
C 474.308438 301.333544 484.286735 286.838048 491.186634 270.831867 
C 498.086533 254.825685 501.774506 237.618575 502.040505 220.19056 
L 369 218.16 
z
" style="fill: #f77189"/>
   </g>
   <g id="patch_3">
    <path d="M 502.040505 220.19056 
C 502.045619 219.855512 502.049467 219.520445 502.052049 219.185367 
C 502.054631 218.85029 502.055948 218.515204 502.055998 218.180116 
L 369 218.16 
z
" style="fill: #bb9832"/>
   </g>
   <g id="patch_4">
    <path d="M 502.055998 218.180116 
C 502.055999 218.176765 502.055999 218.173415 502.056 218.170064 
C 502.056 218.166713 502.056 218.163362 502.056 218.160011 
L 369 218.16 
z
" style="fill: #50b131"/>
   </g>
   <g id="text_1">
    <text style="fill: #262626; font: 10px 'Arial', 'Liberation Sans', 'DejaVu Sans', 'Bitstream Vera Sans', sans-serif; text-anchor: end" x="222.642661" y="219.629097" transform="rotate(-0 222.642661 219.629097)">newsapi</text>
   </g>
   <g id="text_2">
    <text style="fill: #262626; font: 10px 'Arial', 'Liberation Sans', 'DejaVu Sans', 'Bitstream Vera Sans', sans-serif; text-anchor: middle" x="289.168724" y="220.136752" transform="rotate(-0 289.168724 220.136752)">99.8%</text>
   </g>
   <g id="text_3">
    <text style="fill: #262626; font: 10px 'Arial', 'Liberation Sans', 'DejaVu Sans', 'Bitstream Vera Sans', sans-serif; text-anchor: start" x="515.357254" y="221.873842" transform="rotate(-0 515.357254 221.873842)">chicago_pd</text>
   </g>
   <g id="text_4">
    <text style="fill: #262626; font: 10px 'Arial', 'Liberation Sans', 'DejaVu Sans', 'Bitstream Vera Sans', sans-serif; text-anchor: middle" x="448.831229" y="221.361158" transform="rotate(-0 448.831229 221.361158)">0.2%</text>
   </g>
   <g id="text_5">
    <text style="fill: #262626; font: 10px 'Arial', 'Liberation Sans', 'DejaVu Sans', 'Bitstream Vera Sans', sans-serif; text-anchor: start" x="515.3616" y="220.757008" transform="rotate(-0 515.3616 220.757008)">chicago_police</text>
   </g>
   <g id="text_6">
    <text style="fill: #262626; font: 10px 'Arial', 'Liberation Sans', 'DejaVu Sans', 'Bitstream Vera Sans', sans-serif; text-anchor: middle" x="448.8336" y="220.751976" transform="rotate(-0 448.8336 220.751976)">0.0%</text>
   </g>
   <g id="text_7">
    <text style="fill: #262626; font: 12px 'Arial', 'Liberation Sans', 'DejaVu Sans', 'Bitstream Vera Sans', sans-serif; text-anchor: middle" x="369" y="45.84" transform="rotate(-0 369 45.84)">Incidents by Source</text>
   </g>
  </g>
 </g>
</svg>
