<?xml version="1.0" encoding="utf-8" standalone="no"?>
<!DOCTYPE svg PUBLIC "-//W3C//DTD SVG 1.1//EN"
  "http://www.w3.org/Graphics/SVG/1.1/DTD/svg11.dtd">
<svg xmlns:xlink="http://www.w3.org/1999/xlink" width="720pt" height="432pt" viewBox="0 0 720 432" xmlns="http://www.w3.org/2000/svg" version="1.1">
 <metadata>
  <rdf:RDF xmlns:dc="http://purl.org/dc/elements/1.1/" xmlns:cc="http://creativecommons.org/ns#" xmlns:rdf="http://www.w3.org/1999/02/22-rdf-syntax-ns#">
   <cc:Work>
    <dc:type rdf:resource="http://purl.org/dc/dcmitype/StillImage"/>
    <dc:date>2026-05-07T02:16:46.066129</dc:date>
    <dc:format>image/svg+xml</dc:format>
    <dc:creator>
     <cc:Agent>
      <dc:title>Matplotlib v3.7.5, https://matplotlib.org/</dc:title>
     </cc:Agent>
    </dc:creator>
   </cc:Work>
  </rdf:RDF>
 </metadata>
 <defs>
  <style type="text/css">*{stroke-linejoin: round; stroke-linecap: butt}</style>
 </defs>
 <g id="figure_1">
  <g id="patch_1">
   <path d="M 0 432 
L 720 432 
L 720 0 
L 0 0 
z
" style="fill: #ffffff"/>
  </g>
  <g id="axes_1">
   <g id="matplotlib.axis_1"/>
   <g id="matplotlib.axis_2"/>
   <g id="patch_2">
    <path d="M 502.056 218.16 
C 502.056 200.704443 498.62102 183.418284 491.947262 167.288888 
C 485.273503 151.159492 475.490498 136.499916 463.15704 124.147496 
C 450.823582 111.795076 436.179051 101.989562 420.059927 95.291033 
C 403.940802 88.592504 386.659941 85.130973 369.204404 85.104157 
C 351.748868 85.077341 334.457453 88.485762 318.317823 95.134734 
C 302.178194 101.783706 287.503606 111.544179 275.132253 123.858647 
C 262.760901 136.173114 252.932901 150.802564 246.209618 166.911379 
C 239.486334 183.020194 235.998259 200.295717 235.944628 217.751192 
C 235.890997 235.206667 239.27285 252.503297 245.89702 268.653122 
C 252.52119 284.802947 262.259108 299.492512 274.554556 311.882768 
C 286.850004 324.273023 301.464338 334.123485 317.562805 340.871508 
C 333.661273 347.61953 350.931417 351.13414 368.386789 351.214587 
C 385.842161 351.295034 403.143966 347.939756 419.303949 341.340404 
C 435.463931 334.741051 450.168438 325.025712 462.577567 312.749312 
C 474.986697 300.472913 484.859598 285.873729 491.632344 269.785647 
C 498.405089 253.697564 501.946226 236.43284 502.053488 218.977612 
L 369 218.16 
z
" style="fill: #f77189"/>
   </g>
   <g id="patch_3">
    <path d="M 502.053488 218.977612 
C 502.054317 218.842697 502.054941 218.707781 502.055359 218.572865 
C 502.055778 218.437948 502.055992 218.30303 502.056 218.168113 
L 369 218.16 
z
" style="fill: #bb9832"/>
   </g>
   <g id="patch_4">
    <path d="M 502.056 218.168113 
C 502.056 218.166764 502.056 218.165415 502.056 218.164066 
C 502.056 218.162716 502.056 218.161367 502.056 218.160018 
L 369 218.16 
z
" style="fill: #50b131"/>
   </g>
   <g id="text_1">
    <text style="fill: #262626; font: 10px 'Arial', 'Liberation Sans', 'DejaVu Sans', 'Bitstream Vera Sans', sans-serif; text-anchor: end" x="222.639091" y="220.296249" transform="rotate(-0 222.639091 220.296249)">newsapi</text>
   </g>
   <g id="text_2">
    <text style="fill: #262626; font: 10px 'Arial', 'Liberation Sans', 'DejaVu Sans', 'Bitstream Vera Sans', sans-serif; text-anchor: middle" x="289.166777" y="220.500653" transform="rotate(-0 289.166777 220.500653)">99.9%</text>
   </g>
   <g id="text_3">
    <text style="fill: #262626; font: 10px 'Arial', 'Liberation Sans', 'DejaVu Sans', 'Bitstream Vera Sans', sans-serif; text-anchor: start" x="515.360895" y="221.200088" transform="rotate(-0 515.360895 221.200088)">chicago_pd</text>
   </g>
   <g id="text_4">
    <text style="fill: #262626; font: 10px 'Arial', 'Liberation Sans', 'DejaVu Sans', 'Bitstream Vera Sans', sans-serif; text-anchor: middle" x="448.833216" y="220.993656" transform="rotate(-0 448.833216 220.993656)">0.1%</text>
   </g>
   <g id="text_5">
    <text style="fill: #262626; font: 10px 'Arial', 'Liberation Sans', 'DejaVu Sans', 'Bitstream Vera Sans', sans-serif; text-anchor: start" x="515.3616" y="220.75041" transform="rotate(-0 515.3616 220.75041)">chicago_police</text>
   </g>
   <g id="text_6">
    <text style="fill: #262626; font: 10px 'Arial', 'Liberation Sans', 'DejaVu Sans', 'Bitstream Vera Sans', sans-serif; text-anchor: middle" x="448.8336" y="220.748377" transform="rotate(-0 448.8336 220.748377)">0.0%</text>
   </g>
   <g id="text_7">
    <text style="fill: #262626; font: 12px 'Arial', 'Liberation Sans', 'DejaVu Sans', 'Bitstream Vera Sans', sans-serif; text-anchor: middle" x="369" y="45.84" transform="rotate(-0 369 45.84)">Incidents by Source</text>
   </g>
  </g>
 </g>
</svg>
