<?xml version="1.0" encoding="utf-8" standalone="no"?>
<!DOCTYPE svg PUBLIC "-//W3C//DTD SVG 1.1//EN"
  "http://www.w3.org/Graphics/SVG/1.1/DTD/svg11.dtd">
<svg xmlns:xlink="http://www.w3.org/1999/xlink" width="720pt" height="432pt" viewBox="0 0 720 432" xmlns="http://www.w3.org/2000/svg" version="1.1">
 <metadata>
  <rdf:RDF xmlns:dc="http://purl.org/dc/elements/1.1/" xmlns:cc="http://creativecommons.org/ns#" xmlns:rdf="http://www.w3.org/1999/02/22-rdf-syntax-ns#">
   <cc:Work>
    <dc:type rdf:resource="http://purl.org/dc/dcmitype/StillImage"/>
    <dc:date>2026-05-22T04:05:20.134696</dc:date>
    <dc:format>image/svg+xml</dc:format>
    <dc:creator>
     <cc:Agent>
      <dc:title>Matplotlib v3.7.5, https://matplotlib.org/</dc:title>
     </cc:Agent>
    </dc:creator>
   </cc:Work>
  </rdf:RDF>
 </metadata>
 <defs>
  <style type="text/css">*{stroke-linejoin: round; stroke-linecap: butt}</style>
 </defs>
 <g id="figure_1">
  <g id="patch_1">
   <path d="M 0 432 
L 720 432 
L 720 0 
L 0 0 
z
" style="fill: #ffffff"/>
  </g>
  <g id="axes_1">
   <g id="matplotlib.axis_1"/>
   <g id="matplotlib.axis_2"/>
   <g id="patch_2">
    <path d="M 502.056 218.16 
C 502.056 200.703952 498.620827 183.417318 491.946704 167.287541 
C 485.272582 151.157765 475.489056 136.49793 463.15498 124.145433 
C 450.820905 111.792936 436.175687 101.987543 420.055889 95.289355 
C 403.936091 88.591168 386.654602 85.1302 369.198574 85.104148 
C 351.742546 85.078097 334.450804 88.487467 318.311085 95.13751 
C 302.171366 101.787553 287.496946 111.54919 275.126055 123.864816 
C 262.755165 136.180443 252.927926 150.811011 246.205688 166.920795 
C 239.483451 183.030578 235.996696 200.306882 235.944593 217.762852 
C 235.89249 235.218822 239.27605 252.515633 245.901998 268.665259 
C 252.527947 284.814884 262.267672 299.503856 274.564823 311.893113 
C 286.861974 324.28237 301.477859 334.131433 317.577592 340.877705 
C 333.677325 347.623977 350.948407 351.136512 368.404279 351.214666 
C 385.860152 351.292821 403.161994 347.935078 419.32149 341.333239 
C 435.480986 334.7314 450.184477 325.013607 462.592073 312.73496 
C 474.999668 300.456313 484.870533 285.855143 491.640825 269.765496 
C 498.411117 253.675849 501.949423 236.410028 502.053629 218.954292 
L 369 218.16 
z
" style="fill: #f77189"/>
   </g>
   <g id="patch_3">
    <path d="M 502.053629 218.954292 
C 502.054412 218.823219 502.055 218.692144 502.055396 218.561069 
C 502.055791 218.429995 502.055992 218.298919 502.056 218.167843 
L 369 218.16 
z
" style="fill: #bb9832"/>
   </g>
   <g id="patch_4">
    <path d="M 502.056 218.167843 
C 502.056 218.166533 502.056 218.165222 502.056 218.163911 
C 502.056 218.1626 502.056 218.16129 502.056 218.159979 
L 369 218.16 
z
" style="fill: #50b131"/>
   </g>
   <g id="text_1">
    <text style="fill: #262626; font: 10px 'Arial', 'Liberation Sans', 'DejaVu Sans', 'Bitstream Vera Sans', sans-serif; text-anchor: end" x="222.639052" y="220.309075" transform="rotate(-0 222.639052 220.309075)">newsapi</text>
   </g>
   <g id="text_2">
    <text style="fill: #262626; font: 10px 'Arial', 'Liberation Sans', 'DejaVu Sans', 'Bitstream Vera Sans', sans-serif; text-anchor: middle" x="289.166756" y="220.507649" transform="rotate(-0 289.166756 220.507649)">99.9%</text>
   </g>
   <g id="text_3">
    <text style="fill: #262626; font: 10px 'Arial', 'Liberation Sans', 'DejaVu Sans', 'Bitstream Vera Sans', sans-serif; text-anchor: start" x="515.360935" y="221.187114" transform="rotate(-0 515.360935 221.187114)">chicago_pd</text>
   </g>
   <g id="text_4">
    <text style="fill: #262626; font: 10px 'Arial', 'Liberation Sans', 'DejaVu Sans', 'Bitstream Vera Sans', sans-serif; text-anchor: middle" x="448.833237" y="220.986579" transform="rotate(-0 448.833237 220.986579)">0.1%</text>
   </g>
   <g id="text_5">
    <text style="fill: #262626; font: 10px 'Arial', 'Liberation Sans', 'DejaVu Sans', 'Bitstream Vera Sans', sans-serif; text-anchor: start" x="515.3616" y="220.75024" transform="rotate(-0 515.3616 220.75024)">chicago_police</text>
   </g>
   <g id="text_6">
    <text style="fill: #262626; font: 10px 'Arial', 'Liberation Sans', 'DejaVu Sans', 'Bitstream Vera Sans', sans-serif; text-anchor: middle" x="448.8336" y="220.748284" transform="rotate(-0 448.8336 220.748284)">0.0%</text>
   </g>
   <g id="text_7">
    <text style="fill: #262626; font: 12px 'Arial', 'Liberation Sans', 'DejaVu Sans', 'Bitstream Vera Sans', sans-serif; text-anchor: middle" x="369" y="45.84" transform="rotate(-0 369 45.84)">Incidents by Source</text>
   </g>
  </g>
 </g>
</svg>
