<?xml version="1.0" encoding="utf-8" standalone="no"?>
<!DOCTYPE svg PUBLIC "-//W3C//DTD SVG 1.1//EN"
  "http://www.w3.org/Graphics/SVG/1.1/DTD/svg11.dtd">
<svg xmlns:xlink="http://www.w3.org/1999/xlink" width="720pt" height="432pt" viewBox="0 0 720 432" xmlns="http://www.w3.org/2000/svg" version="1.1">
 <metadata>
  <rdf:RDF xmlns:dc="http://purl.org/dc/elements/1.1/" xmlns:cc="http://creativecommons.org/ns#" xmlns:rdf="http://www.w3.org/1999/02/22-rdf-syntax-ns#">
   <cc:Work>
    <dc:type rdf:resource="http://purl.org/dc/dcmitype/StillImage"/>
    <dc:date>2025-09-05T12:44:31.217937</dc:date>
    <dc:format>image/svg+xml</dc:format>
    <dc:creator>
     <cc:Agent>
      <dc:title>Matplotlib v3.7.5, https://matplotlib.org/</dc:title>
     </cc:Agent>
    </dc:creator>
   </cc:Work>
  </rdf:RDF>
 </metadata>
 <defs>
  <style type="text/css">*{stroke-linejoin: round; stroke-linecap: butt}</style>
 </defs>
 <g id="figure_1">
  <g id="patch_1">
   <path d="M 0 432 
L 720 432 
L 720 0 
L 0 0 
z
" style="fill: #ffffff"/>
  </g>
  <g id="axes_1">
   <g id="matplotlib.axis_1"/>
   <g id="matplotlib.axis_2"/>
   <g id="patch_2">
    <path d="M 502.056 218.16 
C 502.056 200.718971 498.626735 183.446917 491.963761 167.328783 
C 485.300786 151.210648 475.533209 136.55875 463.218027 124.208617 
C 450.902846 111.858483 436.278688 102.04942 420.179502 95.340793 
C 404.080316 88.632165 386.81805 85.153964 369.377091 85.104534 
C 351.936132 85.055105 334.654429 88.435406 318.517476 95.052673 
C 302.380523 101.669941 287.701001 111.395955 275.316015 123.676085 
C 262.931029 135.956216 253.08056 150.552515 246.326333 166.632624 
C 239.572105 182.712733 236.044995 199.965072 235.946137 217.405821 
C 235.847279 234.84657 239.178589 252.137783 245.750096 268.293426 
C 252.321604 284.449068 262.005976 299.156095 274.250957 311.575834 
C 286.495939 323.995573 301.064262 333.88737 317.125165 340.687142 
C 333.186067 347.486915 350.42834 351.062905 367.868739 351.211191 
C 385.309137 351.359477 402.609723 348.077186 418.783924 341.551491 
C 434.958126 335.025796 449.69254 325.383144 462.146933 313.17341 
C 474.601325 300.963676 484.53437 286.423445 491.379633 270.381879 
C 498.224896 254.340312 501.849737 237.108242 502.04745 219.668334 
L 369 218.16 
z
" style="fill: #f77189"/>
   </g>
   <g id="patch_3">
    <path d="M 502.04745 219.668334 
C 502.050272 219.419447 502.052395 219.170552 502.05382 218.921653 
C 502.055245 218.672754 502.055971 218.423851 502.055999 218.174948 
L 369 218.16 
z
" style="fill: #bb9832"/>
   </g>
   <g id="patch_4">
    <path d="M 502.055999 218.174948 
C 502.055999 218.172459 502.056 218.16997 502.056 218.167481 
C 502.056 218.164992 502.056 218.162503 502.056 218.160014 
L 369 218.16 
z
" style="fill: #50b131"/>
   </g>
   <g id="text_1">
    <text style="fill: #262626; font: 10px 'Arial', 'Liberation Sans', 'DejaVu Sans', 'Bitstream Vera Sans', sans-serif; text-anchor: end" x="222.640751" y="219.91634" transform="rotate(-0 222.640751 219.91634)">newsapi</text>
   </g>
   <g id="text_2">
    <text style="fill: #262626; font: 10px 'Arial', 'Liberation Sans', 'DejaVu Sans', 'Bitstream Vera Sans', sans-serif; text-anchor: middle" x="289.167682" y="220.29343" transform="rotate(-0 289.167682 220.29343)">99.8%</text>
   </g>
   <g id="text_3">
    <text style="fill: #262626; font: 10px 'Arial', 'Liberation Sans', 'DejaVu Sans', 'Bitstream Vera Sans', sans-serif; text-anchor: start" x="515.359202" y="221.583756" transform="rotate(-0 515.359202 221.583756)">chicago_pd</text>
   </g>
   <g id="text_4">
    <text style="fill: #262626; font: 10px 'Arial', 'Liberation Sans', 'DejaVu Sans', 'Bitstream Vera Sans', sans-serif; text-anchor: middle" x="448.832292" y="221.202929" transform="rotate(-0 448.832292 221.202929)">0.2%</text>
   </g>
   <g id="text_5">
    <text style="fill: #262626; font: 10px 'Arial', 'Liberation Sans', 'DejaVu Sans', 'Bitstream Vera Sans', sans-serif; text-anchor: start" x="515.3616" y="220.754167" transform="rotate(-0 515.3616 220.754167)">chicago_police</text>
   </g>
   <g id="text_6">
    <text style="fill: #262626; font: 10px 'Arial', 'Liberation Sans', 'DejaVu Sans', 'Bitstream Vera Sans', sans-serif; text-anchor: middle" x="448.8336" y="220.750426" transform="rotate(-0 448.8336 220.750426)">0.0%</text>
   </g>
   <g id="text_7">
    <text style="fill: #262626; font: 12px 'Arial', 'Liberation Sans', 'DejaVu Sans', 'Bitstream Vera Sans', sans-serif; text-anchor: middle" x="369" y="45.84" transform="rotate(-0 369 45.84)">Incidents by Source</text>
   </g>
  </g>
 </g>
</svg>
