<?xml version="1.0" encoding="utf-8" standalone="no"?>
<!DOCTYPE svg PUBLIC "-//W3C//DTD SVG 1.1//EN"
  "http://www.w3.org/Graphics/SVG/1.1/DTD/svg11.dtd">
<svg xmlns:xlink="http://www.w3.org/1999/xlink" width="720pt" height="432pt" viewBox="0 0 720 432" xmlns="http://www.w3.org/2000/svg" version="1.1">
 <metadata>
  <rdf:RDF xmlns:dc="http://purl.org/dc/elements/1.1/" xmlns:cc="http://creativecommons.org/ns#" xmlns:rdf="http://www.w3.org/1999/02/22-rdf-syntax-ns#">
   <cc:Work>
    <dc:type rdf:resource="http://purl.org/dc/dcmitype/StillImage"/>
    <dc:date>2025-03-04T18:17:51.852372</dc:date>
    <dc:format>image/svg+xml</dc:format>
    <dc:creator>
     <cc:Agent>
      <dc:title>Matplotlib v3.7.5, https://matplotlib.org/</dc:title>
     </cc:Agent>
    </dc:creator>
   </cc:Work>
  </rdf:RDF>
 </metadata>
 <defs>
  <style type="text/css">*{stroke-linejoin: round; stroke-linecap: butt}</style>
 </defs>
 <g id="figure_1">
  <g id="patch_1">
   <path d="M 0 432 
L 720 432 
L 720 0 
L 0 0 
z
" style="fill: #ffffff"/>
  </g>
  <g id="axes_1">
   <g id="matplotlib.axis_1"/>
   <g id="matplotlib.axis_2"/>
   <g id="patch_2">
    <path d="M 502.056 218.16 
C 502.056 200.785682 498.652919 183.578405 492.03936 167.512049 
C 485.425802 151.445694 475.728936 136.829192 463.497575 124.489794 
C 451.266214 112.150396 436.735549 102.32537 420.727973 95.570784 
C 404.720397 88.816197 387.543711 85.261931 370.170065 85.109145 
C 352.796419 84.956359 335.559881 88.207992 319.435989 94.68001 
C 303.312096 101.152029 288.610887 110.719986 276.164407 122.842364 
C 263.717926 134.964742 253.765501 149.408446 246.870408 165.356004 
C 239.975316 181.303563 236.270139 198.448329 235.964579 215.81996 
C 235.659019 233.191591 238.758951 250.456057 245.088929 266.636239 
C 251.418908 282.816421 260.857216 297.6012 272.869674 310.153801 
C 284.882131 322.706402 299.237757 332.785458 315.124065 339.820523 
C 331.010373 346.855588 348.121894 350.711389 365.490166 351.1697 
C 382.858439 351.62801 400.149497 348.680017 416.384718 342.492569 
C 432.619939 336.30512 447.487145 326.997191 460.144895 315.095583 
C 472.802646 303.193974 483.007552 288.927536 490.182045 273.103707 
C 497.356539 257.279879 501.362666 240.202926 501.973692 222.839356 
L 369 218.16 
z
" style="fill: #f77189"/>
   </g>
   <g id="patch_3">
    <path d="M 501.973692 222.839356 
C 502.000854 222.067499 502.021294 221.295421 502.035012 220.523209 
C 502.048729 219.750997 502.055723 218.978679 502.055992 218.206345 
L 369 218.16 
z
" style="fill: #bb9832"/>
   </g>
   <g id="patch_4">
    <path d="M 502.055992 218.206345 
C 502.055995 218.198622 502.055997 218.190899 502.055998 218.183176 
C 502.055999 218.175452 502.056 218.167729 502.056 218.160006 
L 369 218.16 
z
" style="fill: #50b131"/>
   </g>
   <g id="text_1">
    <text style="fill: #262626; font: 10px 'Arial', 'Liberation Sans', 'DejaVu Sans', 'Bitstream Vera Sans', sans-serif; text-anchor: end" x="222.661036" y="218.171894" transform="rotate(-0 222.661036 218.171894)">newsapi</text>
   </g>
   <g id="text_2">
    <text style="fill: #262626; font: 10px 'Arial', 'Liberation Sans', 'DejaVu Sans', 'Bitstream Vera Sans', sans-serif; text-anchor: middle" x="289.178747" y="219.341914" transform="rotate(-0 289.178747 219.341914)">99.4%</text>
   </g>
   <g id="text_3">
    <text style="fill: #262626; font: 10px 'Arial', 'Liberation Sans', 'DejaVu Sans', 'Bitstream Vera Sans', sans-serif; text-anchor: start" x="515.338513" y="223.345467" transform="rotate(-0 515.338513 223.345467)">chicago_pd</text>
   </g>
   <g id="text_4">
    <text style="fill: #262626; font: 10px 'Arial', 'Liberation Sans', 'DejaVu Sans', 'Bitstream Vera Sans', sans-serif; text-anchor: middle" x="448.821007" y="222.163863" transform="rotate(-0 448.821007 222.163863)">0.6%</text>
   </g>
   <g id="text_5">
    <text style="fill: #262626; font: 10px 'Arial', 'Liberation Sans', 'DejaVu Sans', 'Bitstream Vera Sans', sans-serif; text-anchor: start" x="515.361598" y="220.771431" transform="rotate(-0 515.361598 220.771431)">chicago_police</text>
   </g>
   <g id="text_6">
    <text style="fill: #262626; font: 10px 'Arial', 'Liberation Sans', 'DejaVu Sans', 'Bitstream Vera Sans', sans-serif; text-anchor: middle" x="448.833599" y="220.759843" transform="rotate(-0 448.833599 220.759843)">0.0%</text>
   </g>
   <g id="text_7">
    <text style="fill: #262626; font: 12px 'Arial', 'Liberation Sans', 'DejaVu Sans', 'Bitstream Vera Sans', sans-serif; text-anchor: middle" x="369" y="45.84" transform="rotate(-0 369 45.84)">Incidents by Source</text>
   </g>
  </g>
 </g>
</svg>
