<?xml version="1.0" encoding="utf-8" standalone="no"?>
<!DOCTYPE svg PUBLIC "-//W3C//DTD SVG 1.1//EN"
  "http://www.w3.org/Graphics/SVG/1.1/DTD/svg11.dtd">
<svg xmlns:xlink="http://www.w3.org/1999/xlink" width="720pt" height="432pt" viewBox="0 0 720 432" xmlns="http://www.w3.org/2000/svg" version="1.1">
 <metadata>
  <rdf:RDF xmlns:dc="http://purl.org/dc/elements/1.1/" xmlns:cc="http://creativecommons.org/ns#" xmlns:rdf="http://www.w3.org/1999/02/22-rdf-syntax-ns#">
   <cc:Work>
    <dc:type rdf:resource="http://purl.org/dc/dcmitype/StillImage"/>
    <dc:date>2025-05-21T12:28:18.095507</dc:date>
    <dc:format>image/svg+xml</dc:format>
    <dc:creator>
     <cc:Agent>
      <dc:title>Matplotlib v3.7.5, https://matplotlib.org/</dc:title>
     </cc:Agent>
    </dc:creator>
   </cc:Work>
  </rdf:RDF>
 </metadata>
 <defs>
  <style type="text/css">*{stroke-linejoin: round; stroke-linecap: butt}</style>
 </defs>
 <g id="figure_1">
  <g id="patch_1">
   <path d="M 0 432 
L 720 432 
L 720 0 
L 0 0 
z
" style="fill: #ffffff"/>
  </g>
  <g id="axes_1">
   <g id="matplotlib.axis_1"/>
   <g id="matplotlib.axis_2"/>
   <g id="patch_2">
    <path d="M 502.056 218.16 
C 502.056 200.740342 498.635134 183.489037 491.988008 167.387477 
C 485.340882 151.285918 475.595979 136.645334 463.307668 124.298597 
C 451.019356 111.951861 436.425159 102.137625 420.355309 95.4142 
C 404.285459 88.690776 387.050575 85.188122 369.631112 85.105497 
C 352.21165 85.022872 334.944313 88.361873 318.811406 94.932551 
C 302.678499 101.503229 287.991857 111.178579 275.586974 123.408189 
C 263.18209 135.637799 253.298741 150.185282 246.49917 166.22306 
C 239.699599 182.260838 236.115235 199.478915 235.949987 216.89779 
C 235.784739 234.316664 239.0418 251.599644 245.535882 267.763536 
C 252.029965 283.927428 261.635544 298.659796 273.806178 311.122548 
C 285.976811 323.585299 300.477251 333.537539 316.482597 340.413104 
C 332.487943 347.28867 349.688825 350.954662 367.10672 351.202529 
C 384.524615 351.450397 401.822849 348.27535 418.017362 341.858009 
C 434.211875 335.440668 448.989639 325.905076 461.509978 313.793692 
C 474.030317 301.682309 484.051224 287.229238 491.002628 271.256684 
C 497.954033 255.28413 501.701571 238.10083 502.032053 220.684307 
L 369 218.16 
z
" style="fill: #f77189"/>
   </g>
   <g id="patch_3">
    <path d="M 502.032053 220.684307 
C 502.039956 220.267806 502.045903 219.851271 502.049894 219.434715 
C 502.053885 219.018158 502.055919 218.601585 502.055998 218.18501 
L 369 218.16 
z
" style="fill: #bb9832"/>
   </g>
   <g id="patch_4">
    <path d="M 502.055998 218.18501 
C 502.055998 218.180844 502.055999 218.176678 502.055999 218.172513 
C 502.056 218.168347 502.056 218.164181 502.056 218.160015 
L 369 218.16 
z
" style="fill: #50b131"/>
   </g>
   <g id="text_1">
    <text style="fill: #262626; font: 10px 'Arial', 'Liberation Sans', 'DejaVu Sans', 'Bitstream Vera Sans', sans-serif; text-anchor: end" x="222.644986" y="219.357506" transform="rotate(-0 222.644986 219.357506)">newsapi</text>
   </g>
   <g id="text_2">
    <text style="fill: #262626; font: 10px 'Arial', 'Liberation Sans', 'DejaVu Sans', 'Bitstream Vera Sans', sans-serif; text-anchor: middle" x="289.169992" y="219.988611" transform="rotate(-0 289.169992 219.988611)">99.7%</text>
   </g>
   <g id="text_3">
    <text style="fill: #262626; font: 10px 'Arial', 'Liberation Sans', 'DejaVu Sans', 'Bitstream Vera Sans', sans-serif; text-anchor: start" x="515.354883" y="222.148123" transform="rotate(-0 515.354883 222.148123)">chicago_pd</text>
   </g>
   <g id="text_4">
    <text style="fill: #262626; font: 10px 'Arial', 'Liberation Sans', 'DejaVu Sans', 'Bitstream Vera Sans', sans-serif; text-anchor: middle" x="448.829936" y="221.510766" transform="rotate(-0 448.829936 221.510766)">0.3%</text>
   </g>
   <g id="text_5">
    <text style="fill: #262626; font: 10px 'Arial', 'Liberation Sans', 'DejaVu Sans', 'Bitstream Vera Sans', sans-serif; text-anchor: start" x="515.361599" y="220.759701" transform="rotate(-0 515.361599 220.759701)">chicago_police</text>
   </g>
   <g id="text_6">
    <text style="fill: #262626; font: 10px 'Arial', 'Liberation Sans', 'DejaVu Sans', 'Bitstream Vera Sans', sans-serif; text-anchor: middle" x="448.8336" y="220.753445" transform="rotate(-0 448.8336 220.753445)">0.0%</text>
   </g>
   <g id="text_7">
    <text style="fill: #262626; font: 12px 'Arial', 'Liberation Sans', 'DejaVu Sans', 'Bitstream Vera Sans', sans-serif; text-anchor: middle" x="369" y="45.84" transform="rotate(-0 369 45.84)">Incidents by Source</text>
   </g>
  </g>
 </g>
</svg>
