<?xml version="1.0" encoding="utf-8" standalone="no"?>
<!DOCTYPE svg PUBLIC "-//W3C//DTD SVG 1.1//EN"
  "http://www.w3.org/Graphics/SVG/1.1/DTD/svg11.dtd">
<svg xmlns:xlink="http://www.w3.org/1999/xlink" width="720pt" height="432pt" viewBox="0 0 720 432" xmlns="http://www.w3.org/2000/svg" version="1.1">
 <metadata>
  <rdf:RDF xmlns:dc="http://purl.org/dc/elements/1.1/" xmlns:cc="http://creativecommons.org/ns#" xmlns:rdf="http://www.w3.org/1999/02/22-rdf-syntax-ns#">
   <cc:Work>
    <dc:type rdf:resource="http://purl.org/dc/dcmitype/StillImage"/>
    <dc:date>2025-03-10T01:19:44.161405</dc:date>
    <dc:format>image/svg+xml</dc:format>
    <dc:creator>
     <cc:Agent>
      <dc:title>Matplotlib v3.7.5, https://matplotlib.org/</dc:title>
     </cc:Agent>
    </dc:creator>
   </cc:Work>
  </rdf:RDF>
 </metadata>
 <defs>
  <style type="text/css">*{stroke-linejoin: round; stroke-linecap: butt}</style>
 </defs>
 <g id="figure_1">
  <g id="patch_1">
   <path d="M 0 432 
L 720 432 
L 720 0 
L 0 0 
z
" style="fill: #ffffff"/>
  </g>
  <g id="axes_1">
   <g id="matplotlib.axis_1"/>
   <g id="matplotlib.axis_2"/>
   <g id="patch_2">
    <path d="M 502.056 218.16 
C 502.056 200.780322 498.650819 183.567839 492.033296 167.497319 
C 485.415773 151.426799 475.713233 136.807444 463.475143 124.467169 
C 451.237053 112.126895 436.698879 102.303131 420.683939 95.552212 
C 404.668999 88.801294 387.485424 85.25311 370.106347 85.1086 
C 352.727269 84.964089 335.487068 88.226033 319.362079 94.709702 
C 303.237091 101.193372 288.537566 110.774018 276.095959 122.909077 
C 263.654353 135.044135 253.710045 149.500123 246.826197 165.458377 
C 239.94235 181.41663 236.251409 198.570108 235.962398 215.947383 
C 235.673388 233.324658 238.791868 250.591386 245.141236 266.769728 
C 251.490603 282.94807 260.948694 297.726749 272.979882 310.268828 
C 285.011071 322.810906 299.383873 332.875069 315.284336 339.891371 
C 331.184799 346.907672 348.306994 350.741114 365.681265 351.174605 
C 383.055537 351.608096 400.347598 348.633294 416.578175 342.418667 
C 432.808752 336.20404 447.665563 326.86916 460.307246 314.942674 
C 472.948929 303.016187 483.132253 288.727565 490.280522 272.885991 
C 497.428791 257.044417 501.404471 239.954689 501.982412 222.584623 
L 369 218.16 
z
" style="fill: #f77189"/>
   </g>
   <g id="patch_3">
    <path d="M 501.982412 222.584623 
C 502.006696 221.85475 502.024972 221.12469 502.037236 220.394517 
C 502.0495 219.664344 502.055752 218.934082 502.055993 218.203806 
L 369 218.16 
z
" style="fill: #bb9832"/>
   </g>
   <g id="patch_4">
    <path d="M 502.055993 218.203806 
C 502.055995 218.196503 502.055997 218.189201 502.055998 218.181898 
C 502.055999 218.174595 502.056 218.167292 502.056 218.15999 
L 369 218.16 
z
" style="fill: #50b131"/>
   </g>
   <g id="text_1">
    <text style="fill: #262626; font: 10px 'Arial', 'Liberation Sans', 'DejaVu Sans', 'Bitstream Vera Sans', sans-serif; text-anchor: end" x="222.658638" y="218.312059" transform="rotate(-0 222.658638 218.312059)">newsapi</text>
   </g>
   <g id="text_2">
    <text style="fill: #262626; font: 10px 'Arial', 'Liberation Sans', 'DejaVu Sans', 'Bitstream Vera Sans', sans-serif; text-anchor: middle" x="289.177439" y="219.418367" transform="rotate(-0 289.177439 219.418367)">99.5%</text>
   </g>
   <g id="text_3">
    <text style="fill: #262626; font: 10px 'Arial', 'Liberation Sans', 'DejaVu Sans', 'Bitstream Vera Sans', sans-serif; text-anchor: start" x="515.340959" y="223.203906" transform="rotate(-0 515.340959 223.203906)">chicago_pd</text>
   </g>
   <g id="text_4">
    <text style="fill: #262626; font: 10px 'Arial', 'Liberation Sans', 'DejaVu Sans', 'Bitstream Vera Sans', sans-serif; text-anchor: middle" x="448.822341" y="222.086648" transform="rotate(-0 448.822341 222.086648)">0.5%</text>
   </g>
   <g id="text_5">
    <text style="fill: #262626; font: 10px 'Arial', 'Liberation Sans', 'DejaVu Sans', 'Bitstream Vera Sans', sans-serif; text-anchor: start" x="515.361598" y="220.770025" transform="rotate(-0 515.361598 220.770025)">chicago_police</text>
   </g>
   <g id="text_6">
    <text style="fill: #262626; font: 10px 'Arial', 'Liberation Sans', 'DejaVu Sans', 'Bitstream Vera Sans', sans-serif; text-anchor: middle" x="448.833599" y="220.759076" transform="rotate(-0 448.833599 220.759076)">0.0%</text>
   </g>
   <g id="text_7">
    <text style="fill: #262626; font: 12px 'Arial', 'Liberation Sans', 'DejaVu Sans', 'Bitstream Vera Sans', sans-serif; text-anchor: middle" x="369" y="45.84" transform="rotate(-0 369 45.84)">Incidents by Source</text>
   </g>
  </g>
 </g>
</svg>
