<?xml version="1.0" encoding="utf-8" standalone="no"?>
<!DOCTYPE svg PUBLIC "-//W3C//DTD SVG 1.1//EN"
  "http://www.w3.org/Graphics/SVG/1.1/DTD/svg11.dtd">
<svg xmlns:xlink="http://www.w3.org/1999/xlink" width="720pt" height="432pt" viewBox="0 0 720 432" xmlns="http://www.w3.org/2000/svg" version="1.1">
 <metadata>
  <rdf:RDF xmlns:dc="http://purl.org/dc/elements/1.1/" xmlns:cc="http://creativecommons.org/ns#" xmlns:rdf="http://www.w3.org/1999/02/22-rdf-syntax-ns#">
   <cc:Work>
    <dc:type rdf:resource="http://purl.org/dc/dcmitype/StillImage"/>
    <dc:date>2026-06-02T16:12:21.214502</dc:date>
    <dc:format>image/svg+xml</dc:format>
    <dc:creator>
     <cc:Agent>
      <dc:title>Matplotlib v3.7.5, https://matplotlib.org/</dc:title>
     </cc:Agent>
    </dc:creator>
   </cc:Work>
  </rdf:RDF>
 </metadata>
 <defs>
  <style type="text/css">*{stroke-linejoin: round; stroke-linecap: butt}</style>
 </defs>
 <g id="figure_1">
  <g id="patch_1">
   <path d="M 0 432 
L 720 432 
L 720 0 
L 0 0 
z
" style="fill: #ffffff"/>
  </g>
  <g id="axes_1">
   <g id="matplotlib.axis_1"/>
   <g id="matplotlib.axis_2"/>
   <g id="patch_2">
    <path d="M 502.056 218.16 
C 502.056 200.70361 498.620692 183.416642 491.946315 167.2866 
C 485.271938 151.156558 475.488048 136.496542 463.153541 124.143992 
C 450.819034 111.791441 436.173336 101.986132 420.053067 95.288183 
C 403.932799 88.590234 386.650872 85.12966 369.1945 85.104142 
C 351.738129 85.078625 334.446158 88.488659 318.306377 95.13945 
C 302.166596 101.790241 287.492293 111.552691 275.121725 123.869127 
C 262.751157 136.185564 252.924449 150.816914 246.202943 166.927374 
C 239.481437 183.037834 235.995604 200.314684 235.944569 217.770999 
C 235.893533 235.227315 239.278287 252.524252 245.905478 268.673738 
C 252.532669 284.823224 262.273657 299.511782 274.571998 311.900341 
C 286.870338 324.288899 301.487307 334.136985 317.587925 340.882034 
C 333.688542 347.627083 350.960278 351.138168 368.4165 351.214721 
C 385.872723 351.291273 403.174589 347.931808 419.333745 341.328231 
C 435.492902 334.724655 450.195683 325.005148 462.602206 312.724931 
C 475.008729 300.444713 484.878171 285.842155 491.646749 269.751415 
C 498.415327 253.660675 501.951655 236.39409 502.053725 218.937998 
L 369 218.16 
z
" style="fill: #f77189"/>
   </g>
   <g id="patch_3">
    <path d="M 502.053725 218.937998 
C 502.054476 218.809613 502.055041 218.681227 502.05542 218.55284 
C 502.055799 218.424454 502.055992 218.296067 502.056 218.16768 
L 369 218.16 
z
" style="fill: #bb9832"/>
   </g>
   <g id="patch_4">
    <path d="M 502.056 218.16768 
C 502.056 218.166396 502.056 218.165112 502.056 218.163828 
C 502.056 218.162544 502.056 218.16126 502.056 218.159976 
L 369 218.16 
z
" style="fill: #50b131"/>
   </g>
   <g id="text_1">
    <text style="fill: #262626; font: 10px 'Arial', 'Liberation Sans', 'DejaVu Sans', 'Bitstream Vera Sans', sans-serif; text-anchor: end" x="222.639026" y="220.318037" transform="rotate(-0 222.639026 220.318037)">newsapi</text>
   </g>
   <g id="text_2">
    <text style="fill: #262626; font: 10px 'Arial', 'Liberation Sans', 'DejaVu Sans', 'Bitstream Vera Sans', sans-serif; text-anchor: middle" x="289.166741" y="220.512537" transform="rotate(-0 289.166741 220.512537)">99.9%</text>
   </g>
   <g id="text_3">
    <text style="fill: #262626; font: 10px 'Arial', 'Liberation Sans', 'DejaVu Sans', 'Bitstream Vera Sans', sans-serif; text-anchor: start" x="515.360962" y="221.178062" transform="rotate(-0 515.360962 221.178062)">chicago_pd</text>
   </g>
   <g id="text_4">
    <text style="fill: #262626; font: 10px 'Arial', 'Liberation Sans', 'DejaVu Sans', 'Bitstream Vera Sans', sans-serif; text-anchor: middle" x="448.833252" y="220.981642" transform="rotate(-0 448.833252 220.981642)">0.1%</text>
   </g>
   <g id="text_5">
    <text style="fill: #262626; font: 10px 'Arial', 'Liberation Sans', 'DejaVu Sans', 'Bitstream Vera Sans', sans-serif; text-anchor: start" x="515.3616" y="220.750148" transform="rotate(-0 515.3616 220.750148)">chicago_police</text>
   </g>
   <g id="text_6">
    <text style="fill: #262626; font: 10px 'Arial', 'Liberation Sans', 'DejaVu Sans', 'Bitstream Vera Sans', sans-serif; text-anchor: middle" x="448.8336" y="220.748234" transform="rotate(-0 448.8336 220.748234)">0.0%</text>
   </g>
   <g id="text_7">
    <text style="fill: #262626; font: 12px 'Arial', 'Liberation Sans', 'DejaVu Sans', 'Bitstream Vera Sans', sans-serif; text-anchor: middle" x="369" y="45.84" transform="rotate(-0 369 45.84)">Incidents by Source</text>
   </g>
  </g>
 </g>
</svg>
