<?xml version="1.0" encoding="utf-8" standalone="no"?>
<!DOCTYPE svg PUBLIC "-//W3C//DTD SVG 1.1//EN"
  "http://www.w3.org/Graphics/SVG/1.1/DTD/svg11.dtd">
<svg xmlns:xlink="http://www.w3.org/1999/xlink" width="720pt" height="432pt" viewBox="0 0 720 432" xmlns="http://www.w3.org/2000/svg" version="1.1">
 <metadata>
  <rdf:RDF xmlns:dc="http://purl.org/dc/elements/1.1/" xmlns:cc="http://creativecommons.org/ns#" xmlns:rdf="http://www.w3.org/1999/02/22-rdf-syntax-ns#">
   <cc:Work>
    <dc:type rdf:resource="http://purl.org/dc/dcmitype/StillImage"/>
    <dc:date>2026-04-10T12:57:54.027717</dc:date>
    <dc:format>image/svg+xml</dc:format>
    <dc:creator>
     <cc:Agent>
      <dc:title>Matplotlib v3.7.5, https://matplotlib.org/</dc:title>
     </cc:Agent>
    </dc:creator>
   </cc:Work>
  </rdf:RDF>
 </metadata>
 <defs>
  <style type="text/css">*{stroke-linejoin: round; stroke-linecap: butt}</style>
 </defs>
 <g id="figure_1">
  <g id="patch_1">
   <path d="M 0 432 
L 720 432 
L 720 0 
L 0 0 
z
" style="fill: #ffffff"/>
  </g>
  <g id="axes_1">
   <g id="matplotlib.axis_1"/>
   <g id="matplotlib.axis_2"/>
   <g id="patch_2">
    <path d="M 502.056 218.16 
C 502.056 200.705331 498.621369 183.420034 491.94827 167.291326 
C 485.275171 151.162617 475.493109 136.50351 463.160768 124.151229 
C 450.828426 111.798948 436.185141 101.993217 420.067234 95.29407 
C 403.949328 88.594923 386.669602 85.132372 369.214956 85.104174 
C 351.760309 85.075975 334.469486 88.482676 318.330019 95.129711 
C 302.190551 101.776745 287.515659 111.535112 275.143471 123.847481 
C 262.771283 136.159851 252.941908 150.787276 246.216731 166.894339 
C 239.491554 183.001402 236.001092 200.275511 235.944695 217.730089 
C 235.888298 235.184667 239.267061 252.480971 245.888012 268.631156 
C 252.508964 284.781341 262.24361 299.471979 274.535977 311.864042 
C 286.828343 324.256104 301.439869 334.109098 317.536046 340.860287 
C 333.632223 347.611477 350.90067 351.129842 368.355135 351.214437 
C 385.809599 351.299033 403.111339 347.948217 419.272199 341.353365 
C 435.43306 334.758513 450.139405 325.047612 462.55131 312.775282 
C 474.963215 300.502951 484.839801 285.907362 491.616986 269.822113 
C 498.394171 253.736864 501.940429 236.474123 502.053222 219.019818 
L 369 218.16 
z
" style="fill: #f77189"/>
   </g>
   <g id="patch_3">
    <path d="M 502.053222 219.019818 
C 502.054139 218.877934 502.054829 218.736048 502.055292 218.594162 
C 502.055755 218.452275 502.055991 218.310389 502.056 218.168501 
L 369 218.16 
z
" style="fill: #bb9832"/>
   </g>
   <g id="patch_4">
    <path d="M 502.056 218.168501 
C 502.056 218.167083 502.056 218.165664 502.056 218.164245 
C 502.056 218.162826 502.056 218.161407 502.056 218.159988 
L 369 218.16 
z
" style="fill: #50b131"/>
   </g>
   <g id="text_1">
    <text style="fill: #262626; font: 10px 'Arial', 'Liberation Sans', 'DejaVu Sans', 'Bitstream Vera Sans', sans-serif; text-anchor: end" x="222.639164" y="220.273035" transform="rotate(-0 222.639164 220.273035)">newsapi</text>
   </g>
   <g id="text_2">
    <text style="fill: #262626; font: 10px 'Arial', 'Liberation Sans', 'DejaVu Sans', 'Bitstream Vera Sans', sans-serif; text-anchor: middle" x="289.166817" y="220.487991" transform="rotate(-0 289.166817 220.487991)">99.9%</text>
   </g>
   <g id="text_3">
    <text style="fill: #262626; font: 10px 'Arial', 'Liberation Sans', 'DejaVu Sans', 'Bitstream Vera Sans', sans-serif; text-anchor: start" x="515.360821" y="221.223515" transform="rotate(-0 515.360821 221.223515)">chicago_pd</text>
   </g>
   <g id="text_4">
    <text style="fill: #262626; font: 10px 'Arial', 'Liberation Sans', 'DejaVu Sans', 'Bitstream Vera Sans', sans-serif; text-anchor: middle" x="448.833175" y="221.006435" transform="rotate(-0 448.833175 221.006435)">0.1%</text>
   </g>
   <g id="text_5">
    <text style="fill: #262626; font: 10px 'Arial', 'Liberation Sans', 'DejaVu Sans', 'Bitstream Vera Sans', sans-serif; text-anchor: start" x="515.3616" y="220.750607" transform="rotate(-0 515.3616 220.750607)">chicago_police</text>
   </g>
   <g id="text_6">
    <text style="fill: #262626; font: 10px 'Arial', 'Liberation Sans', 'DejaVu Sans', 'Bitstream Vera Sans', sans-serif; text-anchor: middle" x="448.8336" y="220.748484" transform="rotate(-0 448.8336 220.748484)">0.0%</text>
   </g>
   <g id="text_7">
    <text style="fill: #262626; font: 12px 'Arial', 'Liberation Sans', 'DejaVu Sans', 'Bitstream Vera Sans', sans-serif; text-anchor: middle" x="369" y="45.84" transform="rotate(-0 369 45.84)">Incidents by Source</text>
   </g>
  </g>
 </g>
</svg>
