<?xml version="1.0" encoding="utf-8" standalone="no"?>
<!DOCTYPE svg PUBLIC "-//W3C//DTD SVG 1.1//EN"
  "http://www.w3.org/Graphics/SVG/1.1/DTD/svg11.dtd">
<svg xmlns:xlink="http://www.w3.org/1999/xlink" width="720pt" height="432pt" viewBox="0 0 720 432" xmlns="http://www.w3.org/2000/svg" version="1.1">
 <metadata>
  <rdf:RDF xmlns:dc="http://purl.org/dc/elements/1.1/" xmlns:cc="http://creativecommons.org/ns#" xmlns:rdf="http://www.w3.org/1999/02/22-rdf-syntax-ns#">
   <cc:Work>
    <dc:type rdf:resource="http://purl.org/dc/dcmitype/StillImage"/>
    <dc:date>2025-04-27T12:23:49.341695</dc:date>
    <dc:format>image/svg+xml</dc:format>
    <dc:creator>
     <cc:Agent>
      <dc:title>Matplotlib v3.7.5, https://matplotlib.org/</dc:title>
     </cc:Agent>
    </dc:creator>
   </cc:Work>
  </rdf:RDF>
 </metadata>
 <defs>
  <style type="text/css">*{stroke-linejoin: round; stroke-linecap: butt}</style>
 </defs>
 <g id="figure_1">
  <g id="patch_1">
   <path d="M 0 432 
L 720 432 
L 720 0 
L 0 0 
z
" style="fill: #ffffff"/>
  </g>
  <g id="axes_1">
   <g id="matplotlib.axis_1"/>
   <g id="matplotlib.axis_2"/>
   <g id="patch_2">
    <path d="M 502.056 218.16 
C 502.056 200.748826 498.638466 183.50576 491.997627 167.410785 
C 485.356789 151.315809 475.620883 136.679723 463.343235 124.334347 
C 451.065586 111.98897 436.483281 102.172695 420.425082 95.443416 
C 404.366883 88.714136 387.142878 85.201796 369.731968 85.106013 
C 352.321057 85.010231 335.059452 88.332856 318.928187 94.885052 
C 302.796923 101.437249 288.107499 111.092491 275.694767 123.302039 
C 263.282036 135.511587 253.385689 150.039671 246.568172 166.060608 
C 239.750655 182.081545 236.143615 199.285967 235.952053 216.696087 
C 235.760492 234.106207 238.988107 251.38583 245.451463 267.552895 
C 251.914819 283.71996 261.489106 298.462277 273.630184 310.941988 
C 285.771262 323.421699 300.244684 333.397818 316.227874 340.303366 
C 332.211065 347.208914 349.395383 350.910545 366.804186 351.19788 
C 384.212988 351.485216 401.510106 348.352708 417.712483 341.978388 
C 433.91486 335.604068 448.709623 326.111026 461.255936 314.038785 
C 473.802249 301.966544 483.857837 287.548222 490.851208 271.603262 
C 497.844578 255.658303 501.640687 238.494607 502.023787 221.087649 
L 369 218.16 
z
" style="fill: #f77189"/>
   </g>
   <g id="patch_3">
    <path d="M 502.023787 221.087649 
C 502.034418 220.604614 502.042418 220.121524 502.047786 219.638402 
C 502.053155 219.155279 502.055892 218.672131 502.055997 218.188979 
L 369 218.16 
z
" style="fill: #bb9832"/>
   </g>
   <g id="patch_4">
    <path d="M 502.055997 218.188979 
C 502.055998 218.184148 502.055999 218.179316 502.055999 218.174485 
C 502.056 218.169653 502.056 218.164822 502.056 218.15999 
L 369 218.16 
z
" style="fill: #50b131"/>
   </g>
   <g id="text_1">
    <text style="fill: #262626; font: 10px 'Arial', 'Liberation Sans', 'DejaVu Sans', 'Bitstream Vera Sans', sans-serif; text-anchor: end" x="222.647259" y="219.135633" transform="rotate(-0 222.647259 219.135633)">newsapi</text>
   </g>
   <g id="text_2">
    <text style="fill: #262626; font: 10px 'Arial', 'Liberation Sans', 'DejaVu Sans', 'Bitstream Vera Sans', sans-serif; text-anchor: middle" x="289.171232" y="219.86759" transform="rotate(-0 289.171232 219.86759)">99.6%</text>
   </g>
   <g id="text_3">
    <text style="fill: #262626; font: 10px 'Arial', 'Liberation Sans', 'DejaVu Sans', 'Bitstream Vera Sans', sans-serif; text-anchor: start" x="515.352565" y="222.37218" transform="rotate(-0 515.352565 222.37218)">chicago_pd</text>
   </g>
   <g id="text_4">
    <text style="fill: #262626; font: 10px 'Arial', 'Liberation Sans', 'DejaVu Sans', 'Bitstream Vera Sans', sans-serif; text-anchor: middle" x="448.828672" y="221.632979" transform="rotate(-0 448.828672 221.632979)">0.3%</text>
   </g>
   <g id="text_5">
    <text style="fill: #262626; font: 10px 'Arial', 'Liberation Sans', 'DejaVu Sans', 'Bitstream Vera Sans', sans-serif; text-anchor: start" x="515.361599" y="220.761871" transform="rotate(-0 515.361599 220.761871)">chicago_police</text>
   </g>
   <g id="text_6">
    <text style="fill: #262626; font: 10px 'Arial', 'Liberation Sans', 'DejaVu Sans', 'Bitstream Vera Sans', sans-serif; text-anchor: middle" x="448.8336" y="220.754628" transform="rotate(-0 448.8336 220.754628)">0.0%</text>
   </g>
   <g id="text_7">
    <text style="fill: #262626; font: 12px 'Arial', 'Liberation Sans', 'DejaVu Sans', 'Bitstream Vera Sans', sans-serif; text-anchor: middle" x="369" y="45.84" transform="rotate(-0 369 45.84)">Incidents by Source</text>
   </g>
  </g>
 </g>
</svg>
