<?xml version="1.0" encoding="utf-8" standalone="no"?>
<!DOCTYPE svg PUBLIC "-//W3C//DTD SVG 1.1//EN"
  "http://www.w3.org/Graphics/SVG/1.1/DTD/svg11.dtd">
<svg xmlns:xlink="http://www.w3.org/1999/xlink" width="720pt" height="432pt" viewBox="0 0 720 432" xmlns="http://www.w3.org/2000/svg" version="1.1">
 <metadata>
  <rdf:RDF xmlns:dc="http://purl.org/dc/elements/1.1/" xmlns:cc="http://creativecommons.org/ns#" xmlns:rdf="http://www.w3.org/1999/02/22-rdf-syntax-ns#">
   <cc:Work>
    <dc:type rdf:resource="http://purl.org/dc/dcmitype/StillImage"/>
    <dc:date>2025-05-07T01:52:02.380837</dc:date>
    <dc:format>image/svg+xml</dc:format>
    <dc:creator>
     <cc:Agent>
      <dc:title>Matplotlib v3.7.5, https://matplotlib.org/</dc:title>
     </cc:Agent>
    </dc:creator>
   </cc:Work>
  </rdf:RDF>
 </metadata>
 <defs>
  <style type="text/css">*{stroke-linejoin: round; stroke-linecap: butt}</style>
 </defs>
 <g id="figure_1">
  <g id="patch_1">
   <path d="M 0 432 
L 720 432 
L 720 0 
L 0 0 
z
" style="fill: #ffffff"/>
  </g>
  <g id="axes_1">
   <g id="matplotlib.axis_1"/>
   <g id="matplotlib.axis_2"/>
   <g id="patch_2">
    <path d="M 502.056 218.16 
C 502.056 200.745086 498.636997 183.498388 491.993387 167.40051 
C 485.349777 151.302632 475.609906 136.664562 463.327557 124.318585 
C 451.045209 111.972608 436.457661 102.157231 420.394326 95.430532 
C 404.33099 88.703832 387.102189 85.19576 369.687507 85.105776 
C 352.272825 85.015792 335.008692 88.345635 318.8767 94.905978 
C 302.744709 101.466321 288.056509 111.130426 275.647233 123.348819 
C 263.237958 135.567211 253.347337 150.103847 246.537727 166.132211 
C 239.728117 182.160575 236.13107 199.37102 235.951105 216.785004 
C 235.77114 234.198988 239.011733 251.480097 245.488634 267.645771 
C 251.965534 283.811444 261.553616 298.549383 273.707726 311.021626 
C 285.861836 323.493869 300.347173 333.45947 316.340137 340.351808 
C 332.333101 347.244147 349.52473 350.930073 366.937552 351.200014 
C 384.350374 351.469956 401.647997 348.318698 417.846921 341.925413 
C 434.045845 335.532128 448.833129 326.020326 461.368007 313.930823 
C 473.902884 301.84132 483.943198 287.407669 490.918081 271.450531 
C 497.892964 255.493394 501.667671 238.321039 502.027582 220.909845 
L 369 218.16 
z
" style="fill: #f77189"/>
   </g>
   <g id="patch_3">
    <path d="M 502.027582 220.909845 
C 502.03696 220.456137 502.044018 220.002384 502.048754 219.548604 
C 502.05349 219.094824 502.055904 218.641022 502.055997 218.187218 
L 369 218.16 
z
" style="fill: #bb9832"/>
   </g>
   <g id="patch_4">
    <path d="M 502.055997 218.187218 
C 502.055998 218.18268 502.055999 218.178142 502.055999 218.173604 
C 502.056 218.169066 502.056 218.164528 502.056 218.159989 
L 369 218.16 
z
" style="fill: #50b131"/>
   </g>
   <g id="text_1">
    <text style="fill: #262626; font: 10px 'Arial', 'Liberation Sans', 'DejaVu Sans', 'Bitstream Vera Sans', sans-serif; text-anchor: end" x="222.646215" y="219.233442" transform="rotate(-0 222.646215 219.233442)">newsapi</text>
   </g>
   <g id="text_2">
    <text style="fill: #262626; font: 10px 'Arial', 'Liberation Sans', 'DejaVu Sans', 'Bitstream Vera Sans', sans-serif; text-anchor: middle" x="289.170663" y="219.92094" transform="rotate(-0 289.170663 219.92094)">99.7%</text>
   </g>
   <g id="text_3">
    <text style="fill: #262626; font: 10px 'Arial', 'Liberation Sans', 'DejaVu Sans', 'Bitstream Vera Sans', sans-serif; text-anchor: start" x="515.353629" y="222.273402" transform="rotate(-0 515.353629 222.273402)">chicago_pd</text>
   </g>
   <g id="text_4">
    <text style="fill: #262626; font: 10px 'Arial', 'Liberation Sans', 'DejaVu Sans', 'Bitstream Vera Sans', sans-serif; text-anchor: middle" x="448.829252" y="221.5791" transform="rotate(-0 448.829252 221.5791)">0.3%</text>
   </g>
   <g id="text_5">
    <text style="fill: #262626; font: 10px 'Arial', 'Liberation Sans', 'DejaVu Sans', 'Bitstream Vera Sans', sans-serif; text-anchor: start" x="515.361599" y="220.760901" transform="rotate(-0 515.361599 220.760901)">chicago_police</text>
   </g>
   <g id="text_6">
    <text style="fill: #262626; font: 10px 'Arial', 'Liberation Sans', 'DejaVu Sans', 'Bitstream Vera Sans', sans-serif; text-anchor: middle" x="448.8336" y="220.7541" transform="rotate(-0 448.8336 220.7541)">0.0%</text>
   </g>
   <g id="text_7">
    <text style="fill: #262626; font: 12px 'Arial', 'Liberation Sans', 'DejaVu Sans', 'Bitstream Vera Sans', sans-serif; text-anchor: middle" x="369" y="45.84" transform="rotate(-0 369 45.84)">Incidents by Source</text>
   </g>
  </g>
 </g>
</svg>
