<?xml version="1.0" encoding="utf-8" standalone="no"?>
<!DOCTYPE svg PUBLIC "-//W3C//DTD SVG 1.1//EN"
  "http://www.w3.org/Graphics/SVG/1.1/DTD/svg11.dtd">
<svg xmlns:xlink="http://www.w3.org/1999/xlink" width="720pt" height="432pt" viewBox="0 0 720 432" xmlns="http://www.w3.org/2000/svg" version="1.1">
 <metadata>
  <rdf:RDF xmlns:dc="http://purl.org/dc/elements/1.1/" xmlns:cc="http://creativecommons.org/ns#" xmlns:rdf="http://www.w3.org/1999/02/22-rdf-syntax-ns#">
   <cc:Work>
    <dc:type rdf:resource="http://purl.org/dc/dcmitype/StillImage"/>
    <dc:date>2025-01-05T12:21:36.201534</dc:date>
    <dc:format>image/svg+xml</dc:format>
    <dc:creator>
     <cc:Agent>
      <dc:title>Matplotlib v3.7.5, https://matplotlib.org/</dc:title>
     </cc:Agent>
    </dc:creator>
   </cc:Work>
  </rdf:RDF>
 </metadata>
 <defs>
  <style type="text/css">*{stroke-linejoin: round; stroke-linecap: butt}</style>
 </defs>
 <g id="figure_1">
  <g id="patch_1">
   <path d="M 0 432 
L 720 432 
L 720 0 
L 0 0 
z
" style="fill: #ffffff"/>
  </g>
  <g id="axes_1">
   <g id="matplotlib.axis_1"/>
   <g id="matplotlib.axis_2"/>
   <g id="patch_2">
    <path d="M 502.056 218.16 
C 502.056 200.948844 498.716535 183.90006 492.223134 167.960812 
C 485.729732 152.021565 476.204912 137.492598 464.177837 125.181085 
C 452.150761 112.869573 437.848358 103.007811 422.065215 96.143681 
C 406.282072 89.279551 389.315988 85.542567 372.109533 85.14034 
C 354.903078 84.738113 337.780906 87.678234 321.69426 93.79736 
C 305.607614 99.916487 290.86002 109.099162 278.270796 120.835231 
C 265.681572 132.571301 255.488255 146.639327 248.257146 162.257743 
C 241.026037 177.87616 236.893574 194.750277 236.08934 211.942633 
C 235.285107 229.134988 237.824278 246.321195 243.565786 262.546451 
C 249.307294 278.771708 258.142808 293.729876 269.581461 306.589934 
C 281.020114 319.449993 294.846079 329.969297 310.291238 337.563435 
C 325.736397 345.157574 342.509329 349.683258 359.678194 350.889059 
C 376.847059 352.09486 394.087913 349.958026 410.442918 344.597272 
C 426.797923 339.236518 441.958492 330.752991 455.08236 319.618003 
C 468.206229 308.483015 479.045775 294.906664 486.998794 279.643199 
C 494.951813 264.379734 499.868247 247.717148 501.474957 230.581152 
L 369 218.16 
z
" style="fill: #f77189"/>
   </g>
   <g id="patch_3">
    <path d="M 501.474957 230.581152 
C 501.666589 228.537345 501.810898 226.489376 501.907767 224.438892 
C 502.004637 222.388407 502.054042 220.335955 502.055943 218.283185 
L 369 218.16 
z
" style="fill: #bb9832"/>
   </g>
   <g id="patch_4">
    <path d="M 502.055943 218.283185 
C 502.055962 218.262658 502.055976 218.242131 502.055986 218.221604 
C 502.055995 218.201077 502.056 218.180551 502.056 218.160024 
L 369 218.16 
z
" style="fill: #50b131"/>
   </g>
   <g id="text_1">
    <text style="fill: #262626; font: 10px 'Arial', 'Liberation Sans', 'DejaVu Sans', 'Bitstream Vera Sans', sans-serif; text-anchor: end" x="222.798274" y="213.906833" transform="rotate(-0 222.798274 213.906833)">newsapi</text>
   </g>
   <g id="text_2">
    <text style="fill: #262626; font: 10px 'Arial', 'Liberation Sans', 'DejaVu Sans', 'Bitstream Vera Sans', sans-serif; text-anchor: middle" x="289.253604" y="217.015517" transform="rotate(-0 289.253604 217.015517)">98.5%</text>
   </g>
   <g id="text_3">
    <text style="fill: #262626; font: 10px 'Arial', 'Liberation Sans', 'DejaVu Sans', 'Bitstream Vera Sans', sans-serif; text-anchor: start" x="515.198544" y="227.652718" transform="rotate(-0 515.198544 227.652718)">chicago_pd</text>
   </g>
   <g id="text_4">
    <text style="fill: #262626; font: 10px 'Arial', 'Liberation Sans', 'DejaVu Sans', 'Bitstream Vera Sans', sans-serif; text-anchor: middle" x="448.74466" y="224.513273" transform="rotate(-0 448.74466 224.513273)">1.5%</text>
   </g>
   <g id="text_5">
    <text style="fill: #262626; font: 10px 'Arial', 'Liberation Sans', 'DejaVu Sans', 'Bitstream Vera Sans', sans-serif; text-anchor: start" x="515.361584" y="220.813702" transform="rotate(-0 515.361584 220.813702)">chicago_police</text>
   </g>
   <g id="text_6">
    <text style="fill: #262626; font: 10px 'Arial', 'Liberation Sans', 'DejaVu Sans', 'Bitstream Vera Sans', sans-serif; text-anchor: middle" x="448.833591" y="220.7829" transform="rotate(-0 448.833591 220.7829)">0.0%</text>
   </g>
   <g id="text_7">
    <text style="fill: #262626; font: 12px 'Arial', 'Liberation Sans', 'DejaVu Sans', 'Bitstream Vera Sans', sans-serif; text-anchor: middle" x="369" y="45.84" transform="rotate(-0 369 45.84)">Incidents by Source</text>
   </g>
  </g>
 </g>
</svg>
