<?xml version="1.0" encoding="utf-8" standalone="no"?>
<!DOCTYPE svg PUBLIC "-//W3C//DTD SVG 1.1//EN"
  "http://www.w3.org/Graphics/SVG/1.1/DTD/svg11.dtd">
<svg xmlns:xlink="http://www.w3.org/1999/xlink" width="720pt" height="432pt" viewBox="0 0 720 432" xmlns="http://www.w3.org/2000/svg" version="1.1">
 <metadata>
  <rdf:RDF xmlns:dc="http://purl.org/dc/elements/1.1/" xmlns:cc="http://creativecommons.org/ns#" xmlns:rdf="http://www.w3.org/1999/02/22-rdf-syntax-ns#">
   <cc:Work>
    <dc:type rdf:resource="http://purl.org/dc/dcmitype/StillImage"/>
    <dc:date>2025-10-27T01:58:39.399382</dc:date>
    <dc:format>image/svg+xml</dc:format>
    <dc:creator>
     <cc:Agent>
      <dc:title>Matplotlib v3.7.5, https://matplotlib.org/</dc:title>
     </cc:Agent>
    </dc:creator>
   </cc:Work>
  </rdf:RDF>
 </metadata>
 <defs>
  <style type="text/css">*{stroke-linejoin: round; stroke-linecap: butt}</style>
 </defs>
 <g id="figure_1">
  <g id="patch_1">
   <path d="M 0 432 
L 720 432 
L 720 0 
L 0 0 
z
" style="fill: #ffffff"/>
  </g>
  <g id="axes_1">
   <g id="matplotlib.axis_1"/>
   <g id="matplotlib.axis_2"/>
   <g id="patch_2">
    <path d="M 502.056 218.16 
C 502.056 200.713755 498.624684 183.436637 491.957838 167.314458 
C 485.290993 151.19228 475.517878 136.537624 463.196135 124.186667 
C 450.874392 111.835711 436.242921 102.027919 420.136575 95.322914 
C 404.03023 88.617908 386.761286 85.145688 369.31509 85.104373 
C 351.868894 85.063059 334.583698 88.453451 318.445777 95.082099 
C 302.307856 101.710747 287.630097 111.449131 275.249997 123.741591 
C 262.869896 136.034051 253.027483 150.642255 246.284355 166.732678 
C 239.541226 182.8231 236.028121 200.083773 235.945492 217.529822 
C 235.862864 234.975872 239.212314 252.269047 245.802727 268.42262 
C 252.39314 284.576193 262.096738 299.276972 274.359846 311.686148 
C 286.622954 324.095324 301.20781 333.972303 317.282219 340.753516 
C 333.356628 347.534729 350.608933 351.0887 368.054738 351.212642 
C 385.500542 351.336585 402.801601 348.028096 418.970736 341.475955 
C 435.13987 334.923814 449.863587 325.255055 462.301769 313.021368 
C 474.73995 300.78768 484.65144 286.226255 491.4707 270.16795 
C 498.28996 254.109645 501.884775 236.865804 502.050031 219.420342 
L 369 218.16 
z
" style="fill: #f77189"/>
   </g>
   <g id="patch_3">
    <path d="M 502.050031 219.420342 
C 502.052001 219.212374 502.053483 219.004403 502.054478 218.796429 
C 502.055473 218.588454 502.05598 218.380478 502.055999 218.172502 
L 369 218.16 
z
" style="fill: #bb9832"/>
   </g>
   <g id="patch_4">
    <path d="M 502.055999 218.172502 
C 502.056 218.170422 502.056 218.168342 502.056 218.166262 
C 502.056 218.164183 502.056 218.162103 502.056 218.160023 
L 369 218.16 
z
" style="fill: #50b131"/>
   </g>
   <g id="text_1">
    <text style="fill: #262626; font: 10px 'Arial', 'Liberation Sans', 'DejaVu Sans', 'Bitstream Vera Sans', sans-serif; text-anchor: end" x="222.640042" y="220.052742" transform="rotate(-0 222.640042 220.052742)">newsapi</text>
   </g>
   <g id="text_2">
    <text style="fill: #262626; font: 10px 'Arial', 'Liberation Sans', 'DejaVu Sans', 'Bitstream Vera Sans', sans-serif; text-anchor: middle" x="289.167295" y="220.367831" transform="rotate(-0 289.167295 220.367831)">99.8%</text>
   </g>
   <g id="text_3">
    <text style="fill: #262626; font: 10px 'Arial', 'Liberation Sans', 'DejaVu Sans', 'Bitstream Vera Sans', sans-serif; text-anchor: start" x="515.359926" y="221.446009" transform="rotate(-0 515.359926 221.446009)">chicago_pd</text>
   </g>
   <g id="text_4">
    <text style="fill: #262626; font: 10px 'Arial', 'Liberation Sans', 'DejaVu Sans', 'Bitstream Vera Sans', sans-serif; text-anchor: middle" x="448.832687" y="221.127795" transform="rotate(-0 448.832687 221.127795)">0.1%</text>
   </g>
   <g id="text_5">
    <text style="fill: #262626; font: 10px 'Arial', 'Liberation Sans', 'DejaVu Sans', 'Bitstream Vera Sans', sans-serif; text-anchor: start" x="515.3616" y="220.752826" transform="rotate(-0 515.3616 220.752826)">chicago_police</text>
   </g>
   <g id="text_6">
    <text style="fill: #262626; font: 10px 'Arial', 'Liberation Sans', 'DejaVu Sans', 'Bitstream Vera Sans', sans-serif; text-anchor: middle" x="448.8336" y="220.749695" transform="rotate(-0 448.8336 220.749695)">0.0%</text>
   </g>
   <g id="text_7">
    <text style="fill: #262626; font: 12px 'Arial', 'Liberation Sans', 'DejaVu Sans', 'Bitstream Vera Sans', sans-serif; text-anchor: middle" x="369" y="45.84" transform="rotate(-0 369 45.84)">Incidents by Source</text>
   </g>
  </g>
 </g>
</svg>
