<?xml version="1.0" encoding="utf-8" standalone="no"?>
<!DOCTYPE svg PUBLIC "-//W3C//DTD SVG 1.1//EN"
  "http://www.w3.org/Graphics/SVG/1.1/DTD/svg11.dtd">
<svg xmlns:xlink="http://www.w3.org/1999/xlink" width="720pt" height="432pt" viewBox="0 0 720 432" xmlns="http://www.w3.org/2000/svg" version="1.1">
 <metadata>
  <rdf:RDF xmlns:dc="http://purl.org/dc/elements/1.1/" xmlns:cc="http://creativecommons.org/ns#" xmlns:rdf="http://www.w3.org/1999/02/22-rdf-syntax-ns#">
   <cc:Work>
    <dc:type rdf:resource="http://purl.org/dc/dcmitype/StillImage"/>
    <dc:date>2025-04-14T01:50:36.232173</dc:date>
    <dc:format>image/svg+xml</dc:format>
    <dc:creator>
     <cc:Agent>
      <dc:title>Matplotlib v3.7.5, https://matplotlib.org/</dc:title>
     </cc:Agent>
    </dc:creator>
   </cc:Work>
  </rdf:RDF>
 </metadata>
 <defs>
  <style type="text/css">*{stroke-linejoin: round; stroke-linecap: butt}</style>
 </defs>
 <g id="figure_1">
  <g id="patch_1">
   <path d="M 0 432 
L 720 432 
L 720 0 
L 0 0 
z
" style="fill: #ffffff"/>
  </g>
  <g id="axes_1">
   <g id="matplotlib.axis_1"/>
   <g id="matplotlib.axis_2"/>
   <g id="patch_2">
    <path d="M 502.056 218.16 
C 502.056 200.755472 498.641074 183.518858 492.005158 167.429041 
C 485.369242 151.339223 475.64038 136.706663 463.371082 124.362356 
C 451.101784 112.018049 436.528792 102.200184 420.479718 95.466326 
C 404.430645 88.732468 387.215165 85.21255 369.81096 85.106471 
C 352.406755 85.000393 335.149648 88.310201 319.019684 94.847928 
C 302.889721 101.385655 288.198136 111.025152 275.779278 123.218986 
C 263.36042 135.412819 253.453917 149.925702 246.622367 165.933435 
C 239.790817 181.941168 236.166038 199.134875 235.953885 216.53811 
C 235.741732 233.941345 238.946299 251.218305 245.385594 267.387815 
C 251.82489 283.557326 261.374665 298.307389 273.49258 310.800336 
C 285.610496 323.293284 300.06273 333.288057 316.028529 340.217045 
C 331.994327 347.146034 349.165622 350.875539 366.567241 351.193758 
C 383.96886 351.511978 401.265029 348.412772 417.473487 342.072147 
C 433.681944 335.731523 448.489937 326.271825 461.05651 314.230277 
C 473.623082 302.18873 483.705755 287.797681 490.731924 271.87441 
C 497.758093 255.95114 501.592185 238.802895 502.01646 221.403539 
L 369 218.16 
z
" style="fill: #f77189"/>
   </g>
   <g id="patch_3">
    <path d="M 502.01646 221.403539 
C 502.029509 220.868406 502.039328 220.3332 502.045918 219.797949 
C 502.052507 219.262699 502.055867 218.727413 502.055996 218.192122 
L 369 218.16 
z
" style="fill: #bb9832"/>
   </g>
   <g id="patch_4">
    <path d="M 502.055996 218.192122 
C 502.055997 218.186769 502.055998 218.181416 502.055999 218.176063 
C 502.056 218.17071 502.056 218.165357 502.056 218.160004 
L 369 218.16 
z
" style="fill: #50b131"/>
   </g>
   <g id="text_1">
    <text style="fill: #262626; font: 10px 'Arial', 'Liberation Sans', 'DejaVu Sans', 'Bitstream Vera Sans', sans-serif; text-anchor: end" x="222.649274" y="218.961859" transform="rotate(-0 222.649274 218.961859)">newsapi</text>
   </g>
   <g id="text_2">
    <text style="fill: #262626; font: 10px 'Arial', 'Liberation Sans', 'DejaVu Sans', 'Bitstream Vera Sans', sans-serif; text-anchor: middle" x="289.172331" y="219.772804" transform="rotate(-0 289.172331 219.772804)">99.6%</text>
   </g>
   <g id="text_3">
    <text style="fill: #262626; font: 10px 'Arial', 'Liberation Sans', 'DejaVu Sans', 'Bitstream Vera Sans', sans-serif; text-anchor: start" x="515.35051" y="222.547682" transform="rotate(-0 515.35051 222.547682)">chicago_pd</text>
   </g>
   <g id="text_4">
    <text style="fill: #262626; font: 10px 'Arial', 'Liberation Sans', 'DejaVu Sans', 'Bitstream Vera Sans', sans-serif; text-anchor: middle" x="448.827551" y="221.728707" transform="rotate(-0 448.827551 221.728707)">0.4%</text>
   </g>
   <g id="text_5">
    <text style="fill: #262626; font: 10px 'Arial', 'Liberation Sans', 'DejaVu Sans', 'Bitstream Vera Sans', sans-serif; text-anchor: start" x="515.361599" y="220.763607" transform="rotate(-0 515.361599 220.763607)">chicago_police</text>
   </g>
   <g id="text_6">
    <text style="fill: #262626; font: 10px 'Arial', 'Liberation Sans', 'DejaVu Sans', 'Bitstream Vera Sans', sans-serif; text-anchor: middle" x="448.833599" y="220.755575" transform="rotate(-0 448.833599 220.755575)">0.0%</text>
   </g>
   <g id="text_7">
    <text style="fill: #262626; font: 12px 'Arial', 'Liberation Sans', 'DejaVu Sans', 'Bitstream Vera Sans', sans-serif; text-anchor: middle" x="369" y="45.84" transform="rotate(-0 369 45.84)">Incidents by Source</text>
   </g>
  </g>
 </g>
</svg>
