<?xml version="1.0" encoding="utf-8" standalone="no"?>
<!DOCTYPE svg PUBLIC "-//W3C//DTD SVG 1.1//EN"
  "http://www.w3.org/Graphics/SVG/1.1/DTD/svg11.dtd">
<svg xmlns:xlink="http://www.w3.org/1999/xlink" width="720pt" height="432pt" viewBox="0 0 720 432" xmlns="http://www.w3.org/2000/svg" version="1.1">
 <metadata>
  <rdf:RDF xmlns:dc="http://purl.org/dc/elements/1.1/" xmlns:cc="http://creativecommons.org/ns#" xmlns:rdf="http://www.w3.org/1999/02/22-rdf-syntax-ns#">
   <cc:Work>
    <dc:type rdf:resource="http://purl.org/dc/dcmitype/StillImage"/>
    <dc:date>2025-05-08T01:52:57.088986</dc:date>
    <dc:format>image/svg+xml</dc:format>
    <dc:creator>
     <cc:Agent>
      <dc:title>Matplotlib v3.7.5, https://matplotlib.org/</dc:title>
     </cc:Agent>
    </dc:creator>
   </cc:Work>
  </rdf:RDF>
 </metadata>
 <defs>
  <style type="text/css">*{stroke-linejoin: round; stroke-linecap: butt}</style>
 </defs>
 <g id="figure_1">
  <g id="patch_1">
   <path d="M 0 432 
L 720 432 
L 720 0 
L 0 0 
z
" style="fill: #ffffff"/>
  </g>
  <g id="axes_1">
   <g id="matplotlib.axis_1"/>
   <g id="matplotlib.axis_2"/>
   <g id="patch_2">
    <path d="M 502.056 218.16 
C 502.056 200.744676 498.636836 183.49758 491.992923 167.399384 
C 485.349009 151.301188 475.608703 136.662901 463.325839 124.316859 
C 451.042976 111.970816 436.454854 102.155538 420.390956 95.429121 
C 404.327058 88.702703 387.097731 85.195099 369.682636 85.105751 
C 352.267542 85.016403 335.003131 88.347036 318.87106 94.908272 
C 302.73899 101.469507 288.050924 111.134584 275.642027 123.353945 
C 263.233131 135.573306 253.343138 150.11088 246.534394 166.140057 
C 239.725651 182.169234 236.129699 199.380338 235.951004 216.794746 
C 235.77231 234.209153 239.014326 251.490424 245.49271 267.655944 
C 251.971094 283.821464 261.560688 298.558923 273.716225 311.030347 
C 285.871762 323.501771 300.358404 333.466218 316.352438 340.357109 
C 332.346473 347.247999 349.538902 350.932205 366.952163 351.20024 
C 384.365424 351.468276 401.663101 348.314963 417.861645 341.919601 
C 434.06019 335.524238 448.846654 326.01038 461.380277 313.918987 
C 473.9139 301.827594 483.952539 287.392264 490.925395 271.433794 
C 497.898252 255.475323 501.670613 238.302022 502.027983 220.890365 
L 369 218.16 
z
" style="fill: #f77189"/>
   </g>
   <g id="patch_3">
    <path d="M 502.027983 220.890365 
C 502.037229 220.439869 502.044187 219.989329 502.048856 219.538762 
C 502.053525 219.088196 502.055906 218.637608 502.055997 218.187017 
L 369 218.16 
z
" style="fill: #bb9832"/>
   </g>
   <g id="patch_4">
    <path d="M 502.055997 218.187017 
C 502.055998 218.182512 502.055999 218.178006 502.055999 218.1735 
C 502.056 218.168994 502.056 218.164488 502.056 218.159982 
L 369 218.16 
z
" style="fill: #50b131"/>
   </g>
   <g id="text_1">
    <text style="fill: #262626; font: 10px 'Arial', 'Liberation Sans', 'DejaVu Sans', 'Bitstream Vera Sans', sans-serif; text-anchor: end" x="222.646105" y="219.244158" transform="rotate(-0 222.646105 219.244158)">newsapi</text>
   </g>
   <g id="text_2">
    <text style="fill: #262626; font: 10px 'Arial', 'Liberation Sans', 'DejaVu Sans', 'Bitstream Vera Sans', sans-serif; text-anchor: middle" x="289.170603" y="219.926785" transform="rotate(-0 289.170603 219.926785)">99.7%</text>
   </g>
   <g id="text_3">
    <text style="fill: #262626; font: 10px 'Arial', 'Liberation Sans', 'DejaVu Sans', 'Bitstream Vera Sans', sans-serif; text-anchor: start" x="515.353742" y="222.262576" transform="rotate(-0 515.353742 222.262576)">chicago_pd</text>
   </g>
   <g id="text_4">
    <text style="fill: #262626; font: 10px 'Arial', 'Liberation Sans', 'DejaVu Sans', 'Bitstream Vera Sans', sans-serif; text-anchor: middle" x="448.829314" y="221.573195" transform="rotate(-0 448.829314 221.573195)">0.3%</text>
   </g>
   <g id="text_5">
    <text style="fill: #262626; font: 10px 'Arial', 'Liberation Sans', 'DejaVu Sans', 'Bitstream Vera Sans', sans-serif; text-anchor: start" x="515.361599" y="220.760787" transform="rotate(-0 515.361599 220.760787)">chicago_police</text>
   </g>
   <g id="text_6">
    <text style="fill: #262626; font: 10px 'Arial', 'Liberation Sans', 'DejaVu Sans', 'Bitstream Vera Sans', sans-serif; text-anchor: middle" x="448.8336" y="220.754037" transform="rotate(-0 448.8336 220.754037)">0.0%</text>
   </g>
   <g id="text_7">
    <text style="fill: #262626; font: 12px 'Arial', 'Liberation Sans', 'DejaVu Sans', 'Bitstream Vera Sans', sans-serif; text-anchor: middle" x="369" y="45.84" transform="rotate(-0 369 45.84)">Incidents by Source</text>
   </g>
  </g>
 </g>
</svg>
