<?xml version="1.0" encoding="utf-8" standalone="no"?>
<!DOCTYPE svg PUBLIC "-//W3C//DTD SVG 1.1//EN"
  "http://www.w3.org/Graphics/SVG/1.1/DTD/svg11.dtd">
<svg xmlns:xlink="http://www.w3.org/1999/xlink" width="720pt" height="432pt" viewBox="0 0 720 432" xmlns="http://www.w3.org/2000/svg" version="1.1">
 <metadata>
  <rdf:RDF xmlns:dc="http://purl.org/dc/elements/1.1/" xmlns:cc="http://creativecommons.org/ns#" xmlns:rdf="http://www.w3.org/1999/02/22-rdf-syntax-ns#">
   <cc:Work>
    <dc:type rdf:resource="http://purl.org/dc/dcmitype/StillImage"/>
    <dc:date>2025-10-14T12:30:08.770974</dc:date>
    <dc:format>image/svg+xml</dc:format>
    <dc:creator>
     <cc:Agent>
      <dc:title>Matplotlib v3.7.5, https://matplotlib.org/</dc:title>
     </cc:Agent>
    </dc:creator>
   </cc:Work>
  </rdf:RDF>
 </metadata>
 <defs>
  <style type="text/css">*{stroke-linejoin: round; stroke-linecap: butt}</style>
 </defs>
 <g id="figure_1">
  <g id="patch_1">
   <path d="M 0 432 
L 720 432 
L 720 0 
L 0 0 
z
" style="fill: #ffffff"/>
  </g>
  <g id="axes_1">
   <g id="matplotlib.axis_1"/>
   <g id="matplotlib.axis_2"/>
   <g id="patch_2">
    <path d="M 502.056 218.16 
C 502.056 200.714798 498.625094 183.438692 491.959023 167.317322 
C 485.292951 151.195952 475.520943 136.541847 463.200512 124.191055 
C 450.880081 111.840263 436.250072 102.032217 420.145158 95.326487 
C 404.040243 88.620757 386.772635 85.14734 369.327485 85.104403 
C 351.882336 85.061466 334.597838 88.44984 318.46011 95.076213 
C 302.322382 101.702585 287.64427 111.438496 275.263191 123.728491 
C 262.882113 136.018486 253.038088 150.624311 246.29274 166.712672 
C 239.547392 182.801033 236.031486 200.060041 235.945612 217.505032 
C 235.859738 234.950023 239.205561 252.242808 245.792194 268.396796 
C 252.378827 284.550785 262.078582 299.252815 274.338067 311.664105 
C 286.597552 324.075394 301.179104 333.955338 317.250814 340.740263 
C 333.322524 347.525188 350.572826 351.083563 368.017553 351.212373 
C 385.462279 351.341183 402.763247 348.037933 418.933398 341.491079 
C 435.103549 334.944224 449.829408 325.280684 462.270834 313.051784 
C 474.71226 300.822884 484.628062 286.265693 491.452524 270.210731 
C 498.276985 254.155769 501.877806 236.914277 502.049552 219.469921 
L 369 218.16 
z
" style="fill: #f77189"/>
   </g>
   <g id="patch_3">
    <path d="M 502.049552 219.469921 
C 502.05168 219.253766 502.053281 219.037606 502.054356 218.821443 
C 502.055431 218.60528 502.055978 218.389115 502.055999 218.172949 
L 369 218.16 
z
" style="fill: #bb9832"/>
   </g>
   <g id="patch_4">
    <path d="M 502.055999 218.172949 
C 502.056 218.170787 502.056 218.168626 502.056 218.166464 
C 502.056 218.164302 502.056 218.162141 502.056 218.159979 
L 369 218.16 
z
" style="fill: #50b131"/>
   </g>
   <g id="text_1">
    <text style="fill: #262626; font: 10px 'Arial', 'Liberation Sans', 'DejaVu Sans', 'Bitstream Vera Sans', sans-serif; text-anchor: end" x="222.640173" y="220.025472" transform="rotate(-0 222.640173 220.025472)">newsapi</text>
   </g>
   <g id="text_2">
    <text style="fill: #262626; font: 10px 'Arial', 'Liberation Sans', 'DejaVu Sans', 'Bitstream Vera Sans', sans-serif; text-anchor: middle" x="289.167367" y="220.352957" transform="rotate(-0 289.167367 220.352957)">99.8%</text>
   </g>
   <g id="text_3">
    <text style="fill: #262626; font: 10px 'Arial', 'Liberation Sans', 'DejaVu Sans', 'Bitstream Vera Sans', sans-serif; text-anchor: start" x="515.359792" y="221.473524" transform="rotate(-0 515.359792 221.473524)">chicago_pd</text>
   </g>
   <g id="text_4">
    <text style="fill: #262626; font: 10px 'Arial', 'Liberation Sans', 'DejaVu Sans', 'Bitstream Vera Sans', sans-serif; text-anchor: middle" x="448.832614" y="221.142803" transform="rotate(-0 448.832614 221.142803)">0.2%</text>
   </g>
   <g id="text_5">
    <text style="fill: #262626; font: 10px 'Arial', 'Liberation Sans', 'DejaVu Sans', 'Bitstream Vera Sans', sans-serif; text-anchor: start" x="515.3616" y="220.753048" transform="rotate(-0 515.3616 220.753048)">chicago_police</text>
   </g>
   <g id="text_6">
    <text style="fill: #262626; font: 10px 'Arial', 'Liberation Sans', 'DejaVu Sans', 'Bitstream Vera Sans', sans-serif; text-anchor: middle" x="448.8336" y="220.749816" transform="rotate(-0 448.8336 220.749816)">0.0%</text>
   </g>
   <g id="text_7">
    <text style="fill: #262626; font: 12px 'Arial', 'Liberation Sans', 'DejaVu Sans', 'Bitstream Vera Sans', sans-serif; text-anchor: middle" x="369" y="45.84" transform="rotate(-0 369 45.84)">Incidents by Source</text>
   </g>
  </g>
 </g>
</svg>
