<?xml version="1.0" encoding="utf-8" standalone="no"?>
<!DOCTYPE svg PUBLIC "-//W3C//DTD SVG 1.1//EN"
  "http://www.w3.org/Graphics/SVG/1.1/DTD/svg11.dtd">
<svg xmlns:xlink="http://www.w3.org/1999/xlink" width="720pt" height="432pt" viewBox="0 0 720 432" xmlns="http://www.w3.org/2000/svg" version="1.1">
 <metadata>
  <rdf:RDF xmlns:dc="http://purl.org/dc/elements/1.1/" xmlns:cc="http://creativecommons.org/ns#" xmlns:rdf="http://www.w3.org/1999/02/22-rdf-syntax-ns#">
   <cc:Work>
    <dc:type rdf:resource="http://purl.org/dc/dcmitype/StillImage"/>
    <dc:date>2026-06-16T20:45:28.468889</dc:date>
    <dc:format>image/svg+xml</dc:format>
    <dc:creator>
     <cc:Agent>
      <dc:title>Matplotlib v3.7.5, https://matplotlib.org/</dc:title>
     </cc:Agent>
    </dc:creator>
   </cc:Work>
  </rdf:RDF>
 </metadata>
 <defs>
  <style type="text/css">*{stroke-linejoin: round; stroke-linecap: butt}</style>
 </defs>
 <g id="figure_1">
  <g id="patch_1">
   <path d="M 0 432 
L 720 432 
L 720 0 
L 0 0 
z
" style="fill: #ffffff"/>
  </g>
  <g id="axes_1">
   <g id="matplotlib.axis_1"/>
   <g id="matplotlib.axis_2"/>
   <g id="patch_2">
    <path d="M 502.056 218.16 
C 502.056 200.703118 498.620499 183.415674 491.945756 167.285251 
C 485.271014 151.154828 475.486602 136.494552 463.151477 124.141924 
C 450.816352 111.789297 436.169963 101.984108 420.049021 95.286502 
C 403.928078 88.588895 386.645522 85.128886 369.188658 85.104134 
C 351.731794 85.079382 334.439495 88.490368 318.299625 95.142233 
C 302.159754 101.794097 287.48562 111.557713 275.115515 123.875311 
C 262.74541 136.192909 252.919464 150.82538 246.199007 166.93681 
C 239.478549 183.04824 235.994039 200.325873 235.944535 217.782685 
C 235.895031 235.239496 239.281496 252.536614 245.910469 268.6859 
C 252.539442 284.835186 262.282242 299.523149 274.582289 311.910706 
C 286.882335 324.298264 301.500859 334.144947 317.602744 340.888241 
C 333.704629 347.631536 350.977304 351.140541 368.434028 351.214796 
C 385.890752 351.289052 403.192653 347.927116 419.351322 341.321047 
C 435.509991 334.714978 450.211754 324.993014 462.616739 312.710544 
C 475.021724 300.428074 484.889124 285.823526 491.655243 269.731218 
C 498.421361 253.638911 501.954853 236.371229 502.05386 218.914628 
L 369 218.16 
z
" style="fill: #f77189"/>
   </g>
   <g id="patch_3">
    <path d="M 502.05386 218.914628 
C 502.054566 218.790099 502.055098 218.66557 502.055454 218.54104 
C 502.055811 218.41651 502.055993 218.291979 502.056 218.167449 
L 369 218.16 
z
" style="fill: #bb9832"/>
   </g>
   <g id="patch_4">
    <path d="M 502.056 218.167449 
C 502.056 218.166203 502.056 218.164958 502.056 218.163713 
C 502.056 218.162468 502.056 218.161222 502.056 218.159977 
L 369 218.16 
z
" style="fill: #50b131"/>
   </g>
   <g id="text_1">
    <text style="fill: #262626; font: 10px 'Arial', 'Liberation Sans', 'DejaVu Sans', 'Bitstream Vera Sans', sans-serif; text-anchor: end" x="222.638988" y="220.330891" transform="rotate(-0 222.638988 220.330891)">newsapi</text>
   </g>
   <g id="text_2">
    <text style="fill: #262626; font: 10px 'Arial', 'Liberation Sans', 'DejaVu Sans', 'Bitstream Vera Sans', sans-serif; text-anchor: middle" x="289.166721" y="220.519548" transform="rotate(-0 289.166721 220.519548)">99.9%</text>
   </g>
   <g id="text_3">
    <text style="fill: #262626; font: 10px 'Arial', 'Liberation Sans', 'DejaVu Sans', 'Bitstream Vera Sans', sans-serif; text-anchor: start" x="515.361" y="221.165081" transform="rotate(-0 515.361 221.165081)">chicago_pd</text>
   </g>
   <g id="text_4">
    <text style="fill: #262626; font: 10px 'Arial', 'Liberation Sans', 'DejaVu Sans', 'Bitstream Vera Sans', sans-serif; text-anchor: middle" x="448.833273" y="220.974561" transform="rotate(-0 448.833273 220.974561)">0.1%</text>
   </g>
   <g id="text_5">
    <text style="fill: #262626; font: 10px 'Arial', 'Liberation Sans', 'DejaVu Sans', 'Bitstream Vera Sans', sans-serif; text-anchor: start" x="515.3616" y="220.750022" transform="rotate(-0 515.3616 220.750022)">chicago_police</text>
   </g>
   <g id="text_6">
    <text style="fill: #262626; font: 10px 'Arial', 'Liberation Sans', 'DejaVu Sans', 'Bitstream Vera Sans', sans-serif; text-anchor: middle" x="448.8336" y="220.748165" transform="rotate(-0 448.8336 220.748165)">0.0%</text>
   </g>
   <g id="text_7">
    <text style="fill: #262626; font: 12px 'Arial', 'Liberation Sans', 'DejaVu Sans', 'Bitstream Vera Sans', sans-serif; text-anchor: middle" x="369" y="45.84" transform="rotate(-0 369 45.84)">Incidents by Source</text>
   </g>
  </g>
 </g>
</svg>
