<?xml version="1.0" encoding="utf-8" standalone="no"?>
<!DOCTYPE svg PUBLIC "-//W3C//DTD SVG 1.1//EN"
  "http://www.w3.org/Graphics/SVG/1.1/DTD/svg11.dtd">
<svg xmlns:xlink="http://www.w3.org/1999/xlink" width="720pt" height="432pt" viewBox="0 0 720 432" xmlns="http://www.w3.org/2000/svg" version="1.1">
 <metadata>
  <rdf:RDF xmlns:dc="http://purl.org/dc/elements/1.1/" xmlns:cc="http://creativecommons.org/ns#" xmlns:rdf="http://www.w3.org/1999/02/22-rdf-syntax-ns#">
   <cc:Work>
    <dc:type rdf:resource="http://purl.org/dc/dcmitype/StillImage"/>
    <dc:date>2025-02-28T18:17:21.754966</dc:date>
    <dc:format>image/svg+xml</dc:format>
    <dc:creator>
     <cc:Agent>
      <dc:title>Matplotlib v3.7.5, https://matplotlib.org/</dc:title>
     </cc:Agent>
    </dc:creator>
   </cc:Work>
  </rdf:RDF>
 </metadata>
 <defs>
  <style type="text/css">*{stroke-linejoin: round; stroke-linecap: butt}</style>
 </defs>
 <g id="figure_1">
  <g id="patch_1">
   <path d="M 0 432 
L 720 432 
L 720 0 
L 0 0 
z
" style="fill: #ffffff"/>
  </g>
  <g id="axes_1">
   <g id="matplotlib.axis_1"/>
   <g id="matplotlib.axis_2"/>
   <g id="patch_2">
    <path d="M 502.056 218.16 
C 502.056 200.788952 498.654199 183.58485 492.043059 167.521035 
C 485.431918 151.45722 475.738512 136.842459 463.511255 124.503597 
C 451.283998 112.164736 436.757913 102.338941 420.75483 95.58212 
C 404.751746 88.825298 387.579263 85.267324 370.208931 85.109492 
C 352.8386 84.951661 335.6043 88.197007 319.48108 94.66192 
C 303.35786 101.126834 288.655629 110.687052 276.206181 122.801695 
C 263.756734 134.916338 253.799363 149.352547 246.897418 165.293578 
C 239.995473 181.234609 236.281618 198.374057 235.965968 215.742237 
C 235.650319 233.110417 238.738942 250.373493 245.057095 266.554787 
C 251.375248 282.73608 260.801489 297.524568 272.802517 310.083574 
C 284.803546 322.64258 299.148688 332.730706 315.026351 339.777204 
C 330.904014 346.823702 348.00901 350.693131 365.373605 351.166573 
C 382.738201 351.640015 400.028627 348.70837 416.266658 342.537499 
C 432.50469 336.366628 447.378213 327.075142 460.04574 315.188719 
C 472.713268 303.302296 482.931316 289.049405 490.121786 273.236421 
C 497.312256 257.423437 501.336939 240.354304 501.968134 222.994727 
L 369 218.16 
z
" style="fill: #f77189"/>
   </g>
   <g id="patch_3">
    <path d="M 501.968134 222.994727 
C 501.997129 222.197265 502.01895 221.399559 502.033594 220.601704 
C 502.048238 219.803849 502.055704 219.005879 502.055991 218.20789 
L 369 218.16 
z
" style="fill: #bb9832"/>
   </g>
   <g id="patch_4">
    <path d="M 502.055991 218.20789 
C 502.055994 218.19991 502.055996 218.19193 502.055998 218.183951 
C 502.055999 218.175971 502.056 218.167991 502.056 218.160011 
L 369 218.16 
z
" style="fill: #50b131"/>
   </g>
   <g id="text_1">
    <text style="fill: #262626; font: 10px 'Arial', 'Liberation Sans', 'DejaVu Sans', 'Bitstream Vera Sans', sans-serif; text-anchor: end" x="222.662565" y="218.086398" transform="rotate(-0 222.662565 218.086398)">newsapi</text>
   </g>
   <g id="text_2">
    <text style="fill: #262626; font: 10px 'Arial', 'Liberation Sans', 'DejaVu Sans', 'Bitstream Vera Sans', sans-serif; text-anchor: middle" x="289.179581" y="219.29528" transform="rotate(-0 289.179581 219.29528)">99.4%</text>
   </g>
   <g id="text_3">
    <text style="fill: #262626; font: 10px 'Arial', 'Liberation Sans', 'DejaVu Sans', 'Bitstream Vera Sans', sans-serif; text-anchor: start" x="515.336954" y="223.431812" transform="rotate(-0 515.336954 223.431812)">chicago_pd</text>
   </g>
   <g id="text_4">
    <text style="fill: #262626; font: 10px 'Arial', 'Liberation Sans', 'DejaVu Sans', 'Bitstream Vera Sans', sans-serif; text-anchor: middle" x="448.820157" y="222.21096" transform="rotate(-0 448.820157 222.21096)">0.6%</text>
   </g>
   <g id="text_5">
    <text style="fill: #262626; font: 10px 'Arial', 'Liberation Sans', 'DejaVu Sans', 'Bitstream Vera Sans', sans-serif; text-anchor: start" x="515.361598" y="220.772283" transform="rotate(-0 515.361598 220.772283)">chicago_police</text>
   </g>
   <g id="text_6">
    <text style="fill: #262626; font: 10px 'Arial', 'Liberation Sans', 'DejaVu Sans', 'Bitstream Vera Sans', sans-serif; text-anchor: middle" x="448.833599" y="220.760308" transform="rotate(-0 448.833599 220.760308)">0.0%</text>
   </g>
   <g id="text_7">
    <text style="fill: #262626; font: 12px 'Arial', 'Liberation Sans', 'DejaVu Sans', 'Bitstream Vera Sans', sans-serif; text-anchor: middle" x="369" y="45.84" transform="rotate(-0 369 45.84)">Incidents by Source</text>
   </g>
  </g>
 </g>
</svg>
