<?xml version="1.0" encoding="utf-8" standalone="no"?>
<!DOCTYPE svg PUBLIC "-//W3C//DTD SVG 1.1//EN"
  "http://www.w3.org/Graphics/SVG/1.1/DTD/svg11.dtd">
<svg xmlns:xlink="http://www.w3.org/1999/xlink" width="720pt" height="432pt" viewBox="0 0 720 432" xmlns="http://www.w3.org/2000/svg" version="1.1">
 <metadata>
  <rdf:RDF xmlns:dc="http://purl.org/dc/elements/1.1/" xmlns:cc="http://creativecommons.org/ns#" xmlns:rdf="http://www.w3.org/1999/02/22-rdf-syntax-ns#">
   <cc:Work>
    <dc:type rdf:resource="http://purl.org/dc/dcmitype/StillImage"/>
    <dc:date>2025-07-01T18:20:10.775892</dc:date>
    <dc:format>image/svg+xml</dc:format>
    <dc:creator>
     <cc:Agent>
      <dc:title>Matplotlib v3.7.5, https://matplotlib.org/</dc:title>
     </cc:Agent>
    </dc:creator>
   </cc:Work>
  </rdf:RDF>
 </metadata>
 <defs>
  <style type="text/css">*{stroke-linejoin: round; stroke-linecap: butt}</style>
 </defs>
 <g id="figure_1">
  <g id="patch_1">
   <path d="M 0 432 
L 720 432 
L 720 0 
L 0 0 
z
" style="fill: #ffffff"/>
  </g>
  <g id="axes_1">
   <g id="matplotlib.axis_1"/>
   <g id="matplotlib.axis_2"/>
   <g id="patch_2">
    <path d="M 502.056 218.16 
C 502.056 200.729427 498.630846 183.467526 491.975628 167.3575 
C 485.32041 151.247474 475.56393 136.601108 463.261898 124.252632 
C 450.959866 111.904156 436.350368 102.092555 420.265535 95.376678 
C 404.180701 88.660802 386.931829 85.170626 369.50138 85.104945 
C 352.070931 85.039263 334.796245 88.399347 318.661256 94.993812 
C 302.526266 101.588277 287.84324 111.289497 275.448495 123.544911 
C 263.05375 135.800324 253.187167 150.372746 246.410728 166.432159 
C 239.634289 182.491571 236.079141 199.72717 235.947779 217.157247 
C 235.816416 234.587325 239.111382 251.874549 245.645 268.034274 
C 252.178619 284.193998 261.824442 298.913476 274.033063 311.354313 
C 286.241684 323.795151 300.776823 333.716575 316.810587 340.553481 
C 332.84435 347.390387 350.06643 351.010457 367.495889 351.207498 
C 384.925348 351.404539 402.224865 348.174739 418.409095 341.70206 
C 434.593324 335.22938 449.349045 325.639091 461.835798 313.477436 
C 474.322552 301.315782 484.298677 286.818132 491.195953 270.810244 
C 498.093229 254.802357 501.778169 237.594041 502.040886 220.165448 
L 369 218.16 
z
" style="fill: #f77189"/>
   </g>
   <g id="patch_3">
    <path d="M 502.040886 220.165448 
C 502.045874 219.834545 502.049627 219.503624 502.052146 219.172693 
C 502.054665 218.841761 502.055949 218.510822 502.055999 218.179881 
L 369 218.16 
z
" style="fill: #bb9832"/>
   </g>
   <g id="patch_4">
    <path d="M 502.055999 218.179881 
C 502.055999 218.176571 502.055999 218.173262 502.056 218.169953 
C 502.056 218.166643 502.056 218.163334 502.056 218.160024 
L 369 218.16 
z
" style="fill: #50b131"/>
   </g>
   <g id="text_1">
    <text style="fill: #262626; font: 10px 'Arial', 'Liberation Sans', 'DejaVu Sans', 'Bitstream Vera Sans', sans-serif; text-anchor: end" x="222.642556" y="219.64291" transform="rotate(-0 222.642556 219.64291)">newsapi</text>
   </g>
   <g id="text_2">
    <text style="fill: #262626; font: 10px 'Arial', 'Liberation Sans', 'DejaVu Sans', 'Bitstream Vera Sans', sans-serif; text-anchor: middle" x="289.168667" y="220.144286" transform="rotate(-0 289.168667 220.144286)">99.8%</text>
   </g>
   <g id="text_3">
    <text style="fill: #262626; font: 10px 'Arial', 'Liberation Sans', 'DejaVu Sans', 'Bitstream Vera Sans', sans-serif; text-anchor: start" x="515.357361" y="221.8599" transform="rotate(-0 515.357361 221.8599)">chicago_pd</text>
   </g>
   <g id="text_4">
    <text style="fill: #262626; font: 10px 'Arial', 'Liberation Sans', 'DejaVu Sans', 'Bitstream Vera Sans', sans-serif; text-anchor: middle" x="448.831288" y="221.353553" transform="rotate(-0 448.831288 221.353553)">0.2%</text>
   </g>
   <g id="text_5">
    <text style="fill: #262626; font: 10px 'Arial', 'Liberation Sans', 'DejaVu Sans', 'Bitstream Vera Sans', sans-serif; text-anchor: start" x="515.3616" y="220.756885" transform="rotate(-0 515.3616 220.756885)">chicago_police</text>
   </g>
   <g id="text_6">
    <text style="fill: #262626; font: 10px 'Arial', 'Liberation Sans', 'DejaVu Sans', 'Bitstream Vera Sans', sans-serif; text-anchor: middle" x="448.8336" y="220.751909" transform="rotate(-0 448.8336 220.751909)">0.0%</text>
   </g>
   <g id="text_7">
    <text style="fill: #262626; font: 12px 'Arial', 'Liberation Sans', 'DejaVu Sans', 'Bitstream Vera Sans', sans-serif; text-anchor: middle" x="369" y="45.84" transform="rotate(-0 369 45.84)">Incidents by Source</text>
   </g>
  </g>
 </g>
</svg>
