<?xml version="1.0" encoding="utf-8" standalone="no"?>
<!DOCTYPE svg PUBLIC "-//W3C//DTD SVG 1.1//EN"
  "http://www.w3.org/Graphics/SVG/1.1/DTD/svg11.dtd">
<svg xmlns:xlink="http://www.w3.org/1999/xlink" width="720pt" height="432pt" viewBox="0 0 720 432" xmlns="http://www.w3.org/2000/svg" version="1.1">
 <metadata>
  <rdf:RDF xmlns:dc="http://purl.org/dc/elements/1.1/" xmlns:cc="http://creativecommons.org/ns#" xmlns:rdf="http://www.w3.org/1999/02/22-rdf-syntax-ns#">
   <cc:Work>
    <dc:type rdf:resource="http://purl.org/dc/dcmitype/StillImage"/>
    <dc:date>2026-01-28T01:17:02.351712</dc:date>
    <dc:format>image/svg+xml</dc:format>
    <dc:creator>
     <cc:Agent>
      <dc:title>Matplotlib v3.7.5, https://matplotlib.org/</dc:title>
     </cc:Agent>
    </dc:creator>
   </cc:Work>
  </rdf:RDF>
 </metadata>
 <defs>
  <style type="text/css">*{stroke-linejoin: round; stroke-linecap: butt}</style>
 </defs>
 <g id="figure_1">
  <g id="patch_1">
   <path d="M 0 432 
L 720 432 
L 720 0 
L 0 0 
z
" style="fill: #ffffff"/>
  </g>
  <g id="axes_1">
   <g id="matplotlib.axis_1"/>
   <g id="matplotlib.axis_2"/>
   <g id="patch_2">
    <path d="M 502.056 218.16 
C 502.056 200.708067 498.622446 183.425427 491.951379 167.29884 
C 485.280311 151.172252 475.501156 136.51459 463.172258 124.162739 
C 450.843359 111.810888 436.203912 102.004486 420.08976 95.303435 
C 403.975609 88.602384 386.699385 85.136691 369.247483 85.10423 
C 351.79558 85.07177 334.506583 88.473172 318.367616 95.114233 
C 302.228648 101.755294 287.552822 111.507169 275.178061 123.813072 
C 262.8033 136.118974 252.969686 150.740157 246.238674 166.841816 
C 239.507662 182.943476 236.009841 200.213224 235.944921 217.665036 
C 235.88 235.116848 239.249239 252.412141 245.86027 268.563433 
C 252.471301 284.714725 262.195863 299.408664 274.478727 311.806293 
C 286.761592 324.203921 301.364458 334.064713 317.45357 340.825662 
C 333.542683 347.586611 350.805895 351.116548 368.257556 351.213929 
C 385.709217 351.311309 403.010747 347.974245 419.174307 341.393267 
C 435.337868 334.812288 450.049869 325.115074 462.470322 312.85529 
C 474.890776 300.595507 484.778712 286.011006 491.569574 269.934497 
C 498.360437 253.857988 501.922477 236.601372 502.052317 219.149922 
L 369 218.16 
z
" style="fill: #f77189"/>
   </g>
   <g id="patch_3">
    <path d="M 502.052317 219.149922 
C 502.053533 218.98657 502.054447 218.823217 502.055061 218.659862 
C 502.055675 218.496508 502.055988 218.333152 502.056 218.169796 
L 369 218.16 
z
" style="fill: #bb9832"/>
   </g>
   <g id="patch_4">
    <path d="M 502.056 218.169796 
C 502.056 218.168163 502.056 218.166529 502.056 218.164896 
C 502.056 218.163262 502.056 218.161629 502.056 218.159995 
L 369 218.16 
z
" style="fill: #50b131"/>
   </g>
   <g id="text_1">
    <text style="fill: #262626; font: 10px 'Arial', 'Liberation Sans', 'DejaVu Sans', 'Bitstream Vera Sans', sans-serif; text-anchor: end" x="222.639413" y="220.201477" transform="rotate(-0 222.639413 220.201477)">newsapi</text>
   </g>
   <g id="text_2">
    <text style="fill: #262626; font: 10px 'Arial', 'Liberation Sans', 'DejaVu Sans', 'Bitstream Vera Sans', sans-serif; text-anchor: middle" x="289.166952" y="220.448959" transform="rotate(-0 289.166952 220.448959)">99.9%</text>
   </g>
   <g id="text_3">
    <text style="fill: #262626; font: 10px 'Arial', 'Liberation Sans', 'DejaVu Sans', 'Bitstream Vera Sans', sans-serif; text-anchor: start" x="515.360567" y="221.295786" transform="rotate(-0 515.360567 221.295786)">chicago_pd</text>
   </g>
   <g id="text_4">
    <text style="fill: #262626; font: 10px 'Arial', 'Liberation Sans', 'DejaVu Sans', 'Bitstream Vera Sans', sans-serif; text-anchor: middle" x="448.833037" y="221.045855" transform="rotate(-0 448.833037 221.045855)">0.1%</text>
   </g>
   <g id="text_5">
    <text style="fill: #262626; font: 10px 'Arial', 'Liberation Sans', 'DejaVu Sans', 'Bitstream Vera Sans', sans-serif; text-anchor: start" x="515.3616" y="220.751323" transform="rotate(-0 515.3616 220.751323)">chicago_police</text>
   </g>
   <g id="text_6">
    <text style="fill: #262626; font: 10px 'Arial', 'Liberation Sans', 'DejaVu Sans', 'Bitstream Vera Sans', sans-serif; text-anchor: middle" x="448.8336" y="220.748875" transform="rotate(-0 448.8336 220.748875)">0.0%</text>
   </g>
   <g id="text_7">
    <text style="fill: #262626; font: 12px 'Arial', 'Liberation Sans', 'DejaVu Sans', 'Bitstream Vera Sans', sans-serif; text-anchor: middle" x="369" y="45.84" transform="rotate(-0 369 45.84)">Incidents by Source</text>
   </g>
  </g>
 </g>
</svg>
