<?xml version="1.0" encoding="utf-8" standalone="no"?>
<!DOCTYPE svg PUBLIC "-//W3C//DTD SVG 1.1//EN"
  "http://www.w3.org/Graphics/SVG/1.1/DTD/svg11.dtd">
<svg xmlns:xlink="http://www.w3.org/1999/xlink" width="720pt" height="432pt" viewBox="0 0 720 432" xmlns="http://www.w3.org/2000/svg" version="1.1">
 <metadata>
  <rdf:RDF xmlns:dc="http://purl.org/dc/elements/1.1/" xmlns:cc="http://creativecommons.org/ns#" xmlns:rdf="http://www.w3.org/1999/02/22-rdf-syntax-ns#">
   <cc:Work>
    <dc:type rdf:resource="http://purl.org/dc/dcmitype/StillImage"/>
    <dc:date>2026-05-23T19:03:04.618565</dc:date>
    <dc:format>image/svg+xml</dc:format>
    <dc:creator>
     <cc:Agent>
      <dc:title>Matplotlib v3.7.5, https://matplotlib.org/</dc:title>
     </cc:Agent>
    </dc:creator>
   </cc:Work>
  </rdf:RDF>
 </metadata>
 <defs>
  <style type="text/css">*{stroke-linejoin: round; stroke-linecap: butt}</style>
 </defs>
 <g id="figure_1">
  <g id="patch_1">
   <path d="M 0 432 
L 720 432 
L 720 0 
L 0 0 
z
" style="fill: #ffffff"/>
  </g>
  <g id="axes_1">
   <g id="matplotlib.axis_1"/>
   <g id="matplotlib.axis_2"/>
   <g id="patch_2">
    <path d="M 502.056 218.16 
C 502.056 200.70389 498.620802 183.417194 491.946633 167.287369 
C 485.272464 151.157544 475.488871 136.497675 463.154716 124.145168 
C 450.820562 111.792662 436.175255 101.987284 420.055371 95.28914 
C 403.935487 88.590996 386.653918 85.130101 369.197827 85.104147 
C 351.741735 85.078193 334.449951 88.487686 318.310221 95.137866 
C 302.170491 101.788046 287.496092 111.549832 275.125261 123.865607 
C 262.75443 136.181383 252.927288 150.812094 246.205185 166.922002 
C 239.483081 183.031909 235.996495 200.308314 235.944588 217.764347 
C 235.892681 235.22038 239.27646 252.517215 245.902637 268.666815 
C 252.528813 284.816414 262.26877 299.505311 274.566139 311.894439 
C 286.863508 324.283568 301.479593 334.132452 317.579488 340.878499 
C 333.679383 347.624547 350.950585 351.136816 368.406522 351.214676 
C 385.862459 351.292537 403.164305 347.934478 419.323738 341.33232 
C 435.483172 334.730162 450.186533 325.012055 462.593932 312.73312 
C 475.001331 300.454185 484.871935 285.85276 491.641912 269.762912 
C 498.41189 253.673064 501.949833 236.407104 502.053647 218.951302 
L 369 218.16 
z
" style="fill: #f77189"/>
   </g>
   <g id="patch_3">
    <path d="M 502.053647 218.951302 
C 502.054424 218.820723 502.055008 218.690142 502.0554 218.559561 
C 502.055792 218.42898 502.055992 218.298398 502.056 218.167817 
L 369 218.16 
z
" style="fill: #bb9832"/>
   </g>
   <g id="patch_4">
    <path d="M 502.056 218.167817 
C 502.056 218.166511 502.056 218.165205 502.056 218.163899 
C 502.056 218.162593 502.056 218.161287 502.056 218.159982 
L 369 218.16 
z
" style="fill: #50b131"/>
   </g>
   <g id="text_1">
    <text style="fill: #262626; font: 10px 'Arial', 'Liberation Sans', 'DejaVu Sans', 'Bitstream Vera Sans', sans-serif; text-anchor: end" x="222.639047" y="220.310719" transform="rotate(-0 222.639047 220.310719)">newsapi</text>
   </g>
   <g id="text_2">
    <text style="fill: #262626; font: 10px 'Arial', 'Liberation Sans', 'DejaVu Sans', 'Bitstream Vera Sans', sans-serif; text-anchor: middle" x="289.166753" y="220.508546" transform="rotate(-0 289.166753 220.508546)">99.9%</text>
   </g>
   <g id="text_3">
    <text style="fill: #262626; font: 10px 'Arial', 'Liberation Sans', 'DejaVu Sans', 'Bitstream Vera Sans', sans-serif; text-anchor: start" x="515.36094" y="221.185455" transform="rotate(-0 515.36094 221.185455)">chicago_pd</text>
   </g>
   <g id="text_4">
    <text style="fill: #262626; font: 10px 'Arial', 'Liberation Sans', 'DejaVu Sans', 'Bitstream Vera Sans', sans-serif; text-anchor: middle" x="448.83324" y="220.985674" transform="rotate(-0 448.83324 220.985674)">0.1%</text>
   </g>
   <g id="text_5">
    <text style="fill: #262626; font: 10px 'Arial', 'Liberation Sans', 'DejaVu Sans', 'Bitstream Vera Sans', sans-serif; text-anchor: start" x="515.3616" y="220.750227" transform="rotate(-0 515.3616 220.750227)">chicago_police</text>
   </g>
   <g id="text_6">
    <text style="fill: #262626; font: 10px 'Arial', 'Liberation Sans', 'DejaVu Sans', 'Bitstream Vera Sans', sans-serif; text-anchor: middle" x="448.8336" y="220.748277" transform="rotate(-0 448.8336 220.748277)">0.0%</text>
   </g>
   <g id="text_7">
    <text style="fill: #262626; font: 12px 'Arial', 'Liberation Sans', 'DejaVu Sans', 'Bitstream Vera Sans', sans-serif; text-anchor: middle" x="369" y="45.84" transform="rotate(-0 369 45.84)">Incidents by Source</text>
   </g>
  </g>
 </g>
</svg>
