<?xml version="1.0" encoding="utf-8" standalone="no"?>
<!DOCTYPE svg PUBLIC "-//W3C//DTD SVG 1.1//EN"
  "http://www.w3.org/Graphics/SVG/1.1/DTD/svg11.dtd">
<svg xmlns:xlink="http://www.w3.org/1999/xlink" width="720pt" height="432pt" viewBox="0 0 720 432" xmlns="http://www.w3.org/2000/svg" version="1.1">
 <metadata>
  <rdf:RDF xmlns:dc="http://purl.org/dc/elements/1.1/" xmlns:cc="http://creativecommons.org/ns#" xmlns:rdf="http://www.w3.org/1999/02/22-rdf-syntax-ns#">
   <cc:Work>
    <dc:type rdf:resource="http://purl.org/dc/dcmitype/StillImage"/>
    <dc:date>2026-06-22T03:35:41.992200</dc:date>
    <dc:format>image/svg+xml</dc:format>
    <dc:creator>
     <cc:Agent>
      <dc:title>Matplotlib v3.7.5, https://matplotlib.org/</dc:title>
     </cc:Agent>
    </dc:creator>
   </cc:Work>
  </rdf:RDF>
 </metadata>
 <defs>
  <style type="text/css">*{stroke-linejoin: round; stroke-linecap: butt}</style>
 </defs>
 <g id="figure_1">
  <g id="patch_1">
   <path d="M 0 432 
L 720 432 
L 720 0 
L 0 0 
z
" style="fill: #ffffff"/>
  </g>
  <g id="axes_1">
   <g id="matplotlib.axis_1"/>
   <g id="matplotlib.axis_2"/>
   <g id="patch_2">
    <path d="M 502.056 218.16 
C 502.056 200.702956 498.620435 183.415353 491.945572 167.284805 
C 485.270709 151.154256 475.486124 136.493894 463.150795 124.141241 
C 450.815465 111.788588 436.168849 101.983439 420.047683 95.285946 
C 403.926518 88.588453 386.643754 85.12863 369.186727 85.104131 
C 351.7297 85.079632 334.437293 88.490933 318.297393 95.143152 
C 302.157493 101.795371 287.483414 111.559373 275.113462 123.877355 
C 262.74351 136.195337 252.917817 150.828178 246.197706 166.939929 
C 239.477595 183.051679 235.993521 200.329571 235.944524 217.786547 
C 235.895527 235.243522 239.282557 252.540699 245.912119 268.689919 
C 252.541681 284.839139 262.28508 299.526905 274.58569 311.914132 
C 286.886301 324.301358 301.505338 334.147578 317.607642 340.890292 
C 333.709946 347.633007 350.982931 351.141325 368.439821 351.214821 
C 385.89671 351.288317 403.198623 347.925564 419.357131 341.318672 
C 435.515639 334.71178 450.217065 324.989003 462.621541 312.705789 
C 475.026018 300.422574 484.892743 285.817369 491.658049 269.724543 
C 498.423355 253.631718 501.955909 236.363673 502.053904 218.906904 
L 369 218.16 
z
" style="fill: #f77189"/>
   </g>
   <g id="patch_3">
    <path d="M 502.053904 218.906904 
C 502.054596 218.783653 502.055116 218.660402 502.055465 218.537149 
C 502.055815 218.413897 502.055993 218.290645 502.056 218.167392 
L 369 218.16 
z
" style="fill: #bb9832"/>
   </g>
   <g id="patch_4">
    <path d="M 502.056 218.167392 
C 502.056 218.166159 502.056 218.164927 502.056 218.163694 
C 502.056 218.162462 502.056 218.161229 502.056 218.159997 
L 369 218.16 
z
" style="fill: #50b131"/>
   </g>
   <g id="text_1">
    <text style="fill: #262626; font: 10px 'Arial', 'Liberation Sans', 'DejaVu Sans', 'Bitstream Vera Sans', sans-serif; text-anchor: end" x="222.638977" y="220.335139" transform="rotate(-0 222.638977 220.335139)">newsapi</text>
   </g>
   <g id="text_2">
    <text style="fill: #262626; font: 10px 'Arial', 'Liberation Sans', 'DejaVu Sans', 'Bitstream Vera Sans', sans-serif; text-anchor: middle" x="289.166714" y="220.521865" transform="rotate(-0 289.166714 220.521865)">99.9%</text>
   </g>
   <g id="text_3">
    <text style="fill: #262626; font: 10px 'Arial', 'Liberation Sans', 'DejaVu Sans', 'Bitstream Vera Sans', sans-serif; text-anchor: start" x="515.361012" y="221.160802" transform="rotate(-0 515.361012 221.160802)">chicago_pd</text>
   </g>
   <g id="text_4">
    <text style="fill: #262626; font: 10px 'Arial', 'Liberation Sans', 'DejaVu Sans', 'Bitstream Vera Sans', sans-serif; text-anchor: middle" x="448.833279" y="220.972227" transform="rotate(-0 448.833279 220.972227)">0.1%</text>
   </g>
   <g id="text_5">
    <text style="fill: #262626; font: 10px 'Arial', 'Liberation Sans', 'DejaVu Sans', 'Bitstream Vera Sans', sans-serif; text-anchor: start" x="515.3616" y="220.750001" transform="rotate(-0 515.3616 220.750001)">chicago_police</text>
   </g>
   <g id="text_6">
    <text style="fill: #262626; font: 10px 'Arial', 'Liberation Sans', 'DejaVu Sans', 'Bitstream Vera Sans', sans-serif; text-anchor: middle" x="448.8336" y="220.748154" transform="rotate(-0 448.8336 220.748154)">0.0%</text>
   </g>
   <g id="text_7">
    <text style="fill: #262626; font: 12px 'Arial', 'Liberation Sans', 'DejaVu Sans', 'Bitstream Vera Sans', sans-serif; text-anchor: middle" x="369" y="45.84" transform="rotate(-0 369 45.84)">Incidents by Source</text>
   </g>
  </g>
 </g>
</svg>
