<?xml version="1.0" encoding="utf-8" standalone="no"?>
<!DOCTYPE svg PUBLIC "-//W3C//DTD SVG 1.1//EN"
  "http://www.w3.org/Graphics/SVG/1.1/DTD/svg11.dtd">
<svg xmlns:xlink="http://www.w3.org/1999/xlink" width="720pt" height="432pt" viewBox="0 0 720 432" xmlns="http://www.w3.org/2000/svg" version="1.1">
 <metadata>
  <rdf:RDF xmlns:dc="http://purl.org/dc/elements/1.1/" xmlns:cc="http://creativecommons.org/ns#" xmlns:rdf="http://www.w3.org/1999/02/22-rdf-syntax-ns#">
   <cc:Work>
    <dc:type rdf:resource="http://purl.org/dc/dcmitype/StillImage"/>
    <dc:date>2025-05-24T18:17:34.653740</dc:date>
    <dc:format>image/svg+xml</dc:format>
    <dc:creator>
     <cc:Agent>
      <dc:title>Matplotlib v3.7.5, https://matplotlib.org/</dc:title>
     </cc:Agent>
    </dc:creator>
   </cc:Work>
  </rdf:RDF>
 </metadata>
 <defs>
  <style type="text/css">*{stroke-linejoin: round; stroke-linecap: butt}</style>
 </defs>
 <g id="figure_1">
  <g id="patch_1">
   <path d="M 0 432 
L 720 432 
L 720 0 
L 0 0 
z
" style="fill: #ffffff"/>
  </g>
  <g id="axes_1">
   <g id="matplotlib.axis_1"/>
   <g id="matplotlib.axis_2"/>
   <g id="patch_2">
    <path d="M 502.056 218.16 
C 502.056 200.739001 498.634607 183.486395 491.986488 167.383796 
C 485.338368 151.281196 475.592044 136.639901 463.302048 124.292951 
C 451.012051 111.946 436.415975 102.132087 420.344285 95.409588 
C 404.272595 88.68709 387.035992 85.185967 369.615179 85.105422 
C 352.194366 85.024877 334.926126 88.366466 318.792961 94.940065 
C 302.659797 101.513664 287.973597 111.19219 275.569956 123.42497 
C 263.166315 135.657749 253.285022 150.208295 246.488289 166.248732 
C 239.691555 182.289169 236.110777 199.509401 235.949689 216.929655 
C 235.7886 234.349909 239.050314 251.633415 245.549252 267.7968 
C 252.048189 283.960185 261.658711 298.690976 273.834012 311.151042 
C 286.009313 323.611108 300.514018 333.559569 316.522859 340.430392 
C 332.5317 347.301215 349.735192 350.961572 367.154515 351.203201 
C 384.573838 351.44483 401.87224 348.26306 418.065499 341.838923 
C 434.258759 335.414785 449.033827 325.872473 461.550052 313.754911 
C 474.066277 301.637349 484.081694 287.178795 491.026459 271.201892 
C 497.971225 255.224989 501.711082 238.038605 502.033246 220.620585 
L 369 218.16 
z
" style="fill: #f77189"/>
   </g>
   <g id="patch_3">
    <path d="M 502.033246 220.620585 
C 502.040756 220.214592 502.046406 219.808567 502.050198 219.402523 
C 502.05399 218.996478 502.055923 218.590419 502.055998 218.184357 
L 369 218.16 
z
" style="fill: #bb9832"/>
   </g>
   <g id="patch_4">
    <path d="M 502.055998 218.184357 
C 502.055999 218.180296 502.055999 218.176235 502.055999 218.172175 
C 502.056 218.168114 502.056 218.164053 502.056 218.159993 
L 369 218.16 
z
" style="fill: #50b131"/>
   </g>
   <g id="text_1">
    <text style="fill: #262626; font: 10px 'Arial', 'Liberation Sans', 'DejaVu Sans', 'Bitstream Vera Sans', sans-serif; text-anchor: end" x="222.644657" y="219.392558" transform="rotate(-0 222.644657 219.392558)">newsapi</text>
   </g>
   <g id="text_2">
    <text style="fill: #262626; font: 10px 'Arial', 'Liberation Sans', 'DejaVu Sans', 'Bitstream Vera Sans', sans-serif; text-anchor: middle" x="289.169813" y="220.00773" transform="rotate(-0 289.169813 220.00773)">99.7%</text>
   </g>
   <g id="text_3">
    <text style="fill: #262626; font: 10px 'Arial', 'Liberation Sans', 'DejaVu Sans', 'Bitstream Vera Sans', sans-serif; text-anchor: start" x="515.355218" y="222.112713" transform="rotate(-0 515.355218 222.112713)">chicago_pd</text>
   </g>
   <g id="text_4">
    <text style="fill: #262626; font: 10px 'Arial', 'Liberation Sans', 'DejaVu Sans', 'Bitstream Vera Sans', sans-serif; text-anchor: middle" x="448.830119" y="221.491451" transform="rotate(-0 448.830119 221.491451)">0.3%</text>
   </g>
   <g id="text_5">
    <text style="fill: #262626; font: 10px 'Arial', 'Liberation Sans', 'DejaVu Sans', 'Bitstream Vera Sans', sans-serif; text-anchor: start" x="515.361599" y="220.75933" transform="rotate(-0 515.361599 220.75933)">chicago_police</text>
   </g>
   <g id="text_6">
    <text style="fill: #262626; font: 10px 'Arial', 'Liberation Sans', 'DejaVu Sans', 'Bitstream Vera Sans', sans-serif; text-anchor: middle" x="448.8336" y="220.753242" transform="rotate(-0 448.8336 220.753242)">0.0%</text>
   </g>
   <g id="text_7">
    <text style="fill: #262626; font: 12px 'Arial', 'Liberation Sans', 'DejaVu Sans', 'Bitstream Vera Sans', sans-serif; text-anchor: middle" x="369" y="45.84" transform="rotate(-0 369 45.84)">Incidents by Source</text>
   </g>
  </g>
 </g>
</svg>
