<?xml version="1.0" encoding="utf-8" standalone="no"?>
<!DOCTYPE svg PUBLIC "-//W3C//DTD SVG 1.1//EN"
  "http://www.w3.org/Graphics/SVG/1.1/DTD/svg11.dtd">
<svg xmlns:xlink="http://www.w3.org/1999/xlink" width="720pt" height="432pt" viewBox="0 0 720 432" xmlns="http://www.w3.org/2000/svg" version="1.1">
 <metadata>
  <rdf:RDF xmlns:dc="http://purl.org/dc/elements/1.1/" xmlns:cc="http://creativecommons.org/ns#" xmlns:rdf="http://www.w3.org/1999/02/22-rdf-syntax-ns#">
   <cc:Work>
    <dc:type rdf:resource="http://purl.org/dc/dcmitype/StillImage"/>
    <dc:date>2026-07-17T19:00:38.529736</dc:date>
    <dc:format>image/svg+xml</dc:format>
    <dc:creator>
     <cc:Agent>
      <dc:title>Matplotlib v3.7.5, https://matplotlib.org/</dc:title>
     </cc:Agent>
    </dc:creator>
   </cc:Work>
  </rdf:RDF>
 </metadata>
 <defs>
  <style type="text/css">*{stroke-linejoin: round; stroke-linecap: butt}</style>
 </defs>
 <g id="figure_1">
  <g id="patch_1">
   <path d="M 0 432 
L 720 432 
L 720 0 
L 0 0 
z
" style="fill: #ffffff"/>
  </g>
  <g id="axes_1">
   <g id="matplotlib.axis_1"/>
   <g id="matplotlib.axis_2"/>
   <g id="patch_2">
    <path d="M 502.056 218.16 
C 502.056 200.702207 498.62014 183.413879 491.944722 167.28275 
C 485.269303 151.151621 475.483923 136.490864 463.147652 124.138094 
C 450.811381 111.785324 436.163715 101.980359 420.041523 95.283387 
C 403.919331 88.586415 386.635609 85.127452 369.177832 85.104119 
C 351.720055 85.080786 334.42715 88.493537 318.287114 95.14739 
C 302.147078 101.801243 287.473255 111.567019 275.104009 123.88677 
C 262.734762 136.20652 252.910228 150.841068 246.191715 166.954295 
C 239.473201 183.067523 235.991141 200.346606 235.944475 217.804336 
C 235.89781 235.262066 239.287445 252.559517 245.919721 268.708432 
C 252.551996 284.857347 262.298152 299.544208 274.60136 311.929909 
C 286.904568 324.315611 301.525972 334.159695 317.630205 340.899738 
C 333.734439 347.639782 351.008852 351.144932 368.466505 351.21493 
C 385.924157 351.284928 403.226123 347.918415 419.383887 341.307728 
C 435.541652 334.697042 450.241526 324.970524 462.64366 312.683881 
C 475.045793 300.397238 484.909411 285.789004 491.670972 269.693793 
C 498.432533 253.598582 501.960768 236.328869 502.054099 218.871326 
L 369 218.16 
z
" style="fill: #f77189"/>
   </g>
   <g id="patch_3">
    <path d="M 502.054099 218.871326 
C 502.054726 218.753944 502.055198 218.636562 502.055515 218.51918 
C 502.055832 218.401797 502.055994 218.284414 502.056 218.167031 
L 369 218.16 
z
" style="fill: #bb9832"/>
   </g>
   <g id="patch_4">
    <path d="M 502.056 218.167031 
C 502.056 218.165858 502.056 218.164684 502.056 218.16351 
C 502.056 218.162336 502.056 218.161162 502.056 218.159988 
L 369 218.16 
z
" style="fill: #50b131"/>
   </g>
   <g id="text_1">
    <text style="fill: #262626; font: 10px 'Arial', 'Liberation Sans', 'DejaVu Sans', 'Bitstream Vera Sans', sans-serif; text-anchor: end" x="222.638923" y="220.354707" transform="rotate(-0 222.638923 220.354707)">newsapi</text>
   </g>
   <g id="text_2">
    <text style="fill: #262626; font: 10px 'Arial', 'Liberation Sans', 'DejaVu Sans', 'Bitstream Vera Sans', sans-serif; text-anchor: middle" x="289.166685" y="220.532539" transform="rotate(-0 289.166685 220.532539)">99.9%</text>
   </g>
   <g id="text_3">
    <text style="fill: #262626; font: 10px 'Arial', 'Liberation Sans', 'DejaVu Sans', 'Bitstream Vera Sans', sans-serif; text-anchor: start" x="515.361067" y="221.141035" transform="rotate(-0 515.361067 221.141035)">chicago_pd</text>
   </g>
   <g id="text_4">
    <text style="fill: #262626; font: 10px 'Arial', 'Liberation Sans', 'DejaVu Sans', 'Bitstream Vera Sans', sans-serif; text-anchor: middle" x="448.833309" y="220.961445" transform="rotate(-0 448.833309 220.961445)">0.1%</text>
   </g>
   <g id="text_5">
    <text style="fill: #262626; font: 10px 'Arial', 'Liberation Sans', 'DejaVu Sans', 'Bitstream Vera Sans', sans-serif; text-anchor: start" x="515.3616" y="220.749798" transform="rotate(-0 515.3616 220.749798)">chicago_police</text>
   </g>
   <g id="text_6">
    <text style="fill: #262626; font: 10px 'Arial', 'Liberation Sans', 'DejaVu Sans', 'Bitstream Vera Sans', sans-serif; text-anchor: middle" x="448.8336" y="220.748043" transform="rotate(-0 448.8336 220.748043)">0.0%</text>
   </g>
   <g id="text_7">
    <text style="fill: #262626; font: 12px 'Arial', 'Liberation Sans', 'DejaVu Sans', 'Bitstream Vera Sans', sans-serif; text-anchor: middle" x="369" y="45.84" transform="rotate(-0 369 45.84)">Incidents by Source</text>
   </g>
  </g>
 </g>
</svg>
