<?xml version="1.0" encoding="utf-8" standalone="no"?>
<!DOCTYPE svg PUBLIC "-//W3C//DTD SVG 1.1//EN"
  "http://www.w3.org/Graphics/SVG/1.1/DTD/svg11.dtd">
<svg xmlns:xlink="http://www.w3.org/1999/xlink" width="720pt" height="432pt" viewBox="0 0 720 432" xmlns="http://www.w3.org/2000/svg" version="1.1">
 <metadata>
  <rdf:RDF xmlns:dc="http://purl.org/dc/elements/1.1/" xmlns:cc="http://creativecommons.org/ns#" xmlns:rdf="http://www.w3.org/1999/02/22-rdf-syntax-ns#">
   <cc:Work>
    <dc:type rdf:resource="http://purl.org/dc/dcmitype/StillImage"/>
    <dc:date>2026-01-13T12:58:07.596763</dc:date>
    <dc:format>image/svg+xml</dc:format>
    <dc:creator>
     <cc:Agent>
      <dc:title>Matplotlib v3.7.5, https://matplotlib.org/</dc:title>
     </cc:Agent>
    </dc:creator>
   </cc:Work>
  </rdf:RDF>
 </metadata>
 <defs>
  <style type="text/css">*{stroke-linejoin: round; stroke-linecap: butt}</style>
 </defs>
 <g id="figure_1">
  <g id="patch_1">
   <path d="M 0 432 
L 720 432 
L 720 0 
L 0 0 
z
" style="fill: #ffffff"/>
  </g>
  <g id="axes_1">
   <g id="matplotlib.axis_1"/>
   <g id="matplotlib.axis_2"/>
   <g id="patch_2">
    <path d="M 502.056 218.16 
C 502.056 200.708868 498.622761 183.427005 491.952288 167.301038 
C 485.281815 151.175072 475.50351 136.517833 463.175619 124.166107 
C 450.847728 111.814382 436.209404 102.007784 420.096351 95.306176 
C 403.983299 88.604568 386.7081 85.137955 369.257 85.104248 
C 351.805901 85.070541 334.517439 88.470393 318.378618 95.109706 
C 302.239797 101.749019 287.563699 111.498995 275.188185 123.803005 
C 262.812671 136.107016 252.977817 150.726371 246.245099 166.82645 
C 239.512381 182.926528 236.012407 200.194999 235.944993 217.646001 
C 235.877579 235.097003 239.244031 252.391999 245.85216 268.543614 
C 252.460288 284.695228 262.181898 299.390132 274.461982 311.789388 
C 286.742066 324.188644 301.342398 334.051717 317.429442 340.81552 
C 333.516486 347.579324 350.778164 351.112645 368.229003 351.213766 
C 385.679843 351.314887 402.981309 347.981846 419.145657 341.404928 
C 435.310005 334.828009 450.023659 325.1348 462.446611 312.878688 
C 474.869564 300.622577 484.760819 286.041323 491.555682 269.967373 
C 498.350545 253.893424 501.917201 236.638602 502.052029 219.187991 
L 369 218.16 
z
" style="fill: #f77189"/>
   </g>
   <g id="patch_3">
    <path d="M 502.052029 219.187991 
C 502.053339 219.018362 502.054326 218.84873 502.054987 218.679097 
C 502.055649 218.509464 502.055987 218.33983 502.056 218.170195 
L 369 218.16 
z
" style="fill: #bb9832"/>
   </g>
   <g id="patch_4">
    <path d="M 502.056 218.170195 
C 502.056 218.168499 502.056 218.166803 502.056 218.165106 
C 502.056 218.16341 502.056 218.161714 502.056 218.160017 
L 369 218.16 
z
" style="fill: #50b131"/>
   </g>
   <g id="text_1">
    <text style="fill: #262626; font: 10px 'Arial', 'Liberation Sans', 'DejaVu Sans', 'Bitstream Vera Sans', sans-serif; text-anchor: end" x="222.639492" y="220.180538" transform="rotate(-0 222.639492 220.180538)">newsapi</text>
   </g>
   <g id="text_2">
    <text style="fill: #262626; font: 10px 'Arial', 'Liberation Sans', 'DejaVu Sans', 'Bitstream Vera Sans', sans-serif; text-anchor: middle" x="289.166996" y="220.437538" transform="rotate(-0 289.166996 220.437538)">99.9%</text>
   </g>
   <g id="text_3">
    <text style="fill: #262626; font: 10px 'Arial', 'Liberation Sans', 'DejaVu Sans', 'Bitstream Vera Sans', sans-serif; text-anchor: start" x="515.360486" y="221.316944" transform="rotate(-0 515.360486 221.316944)">chicago_pd</text>
   </g>
   <g id="text_4">
    <text style="fill: #262626; font: 10px 'Arial', 'Liberation Sans', 'DejaVu Sans', 'Bitstream Vera Sans', sans-serif; text-anchor: middle" x="448.832992" y="221.057396" transform="rotate(-0 448.832992 221.057396)">0.1%</text>
   </g>
   <g id="text_5">
    <text style="fill: #262626; font: 10px 'Arial', 'Liberation Sans', 'DejaVu Sans', 'Bitstream Vera Sans', sans-serif; text-anchor: start" x="515.3616" y="220.751555" transform="rotate(-0 515.3616 220.751555)">chicago_police</text>
   </g>
   <g id="text_6">
    <text style="fill: #262626; font: 10px 'Arial', 'Liberation Sans', 'DejaVu Sans', 'Bitstream Vera Sans', sans-serif; text-anchor: middle" x="448.8336" y="220.749001" transform="rotate(-0 448.8336 220.749001)">0.0%</text>
   </g>
   <g id="text_7">
    <text style="fill: #262626; font: 12px 'Arial', 'Liberation Sans', 'DejaVu Sans', 'Bitstream Vera Sans', sans-serif; text-anchor: middle" x="369" y="45.84" transform="rotate(-0 369 45.84)">Incidents by Source</text>
   </g>
  </g>
 </g>
</svg>
