<?xml version="1.0" encoding="utf-8" standalone="no"?>
<!DOCTYPE svg PUBLIC "-//W3C//DTD SVG 1.1//EN"
  "http://www.w3.org/Graphics/SVG/1.1/DTD/svg11.dtd">
<svg xmlns:xlink="http://www.w3.org/1999/xlink" width="720pt" height="432pt" viewBox="0 0 720 432" xmlns="http://www.w3.org/2000/svg" version="1.1">
 <metadata>
  <rdf:RDF xmlns:dc="http://purl.org/dc/elements/1.1/" xmlns:cc="http://creativecommons.org/ns#" xmlns:rdf="http://www.w3.org/1999/02/22-rdf-syntax-ns#">
   <cc:Work>
    <dc:type rdf:resource="http://purl.org/dc/dcmitype/StillImage"/>
    <dc:date>2025-07-16T18:21:34.024828</dc:date>
    <dc:format>image/svg+xml</dc:format>
    <dc:creator>
     <cc:Agent>
      <dc:title>Matplotlib v3.7.5, https://matplotlib.org/</dc:title>
     </cc:Agent>
    </dc:creator>
   </cc:Work>
  </rdf:RDF>
 </metadata>
 <defs>
  <style type="text/css">*{stroke-linejoin: round; stroke-linecap: butt}</style>
 </defs>
 <g id="figure_1">
  <g id="patch_1">
   <path d="M 0 432 
L 720 432 
L 720 0 
L 0 0 
z
" style="fill: #ffffff"/>
  </g>
  <g id="axes_1">
   <g id="matplotlib.axis_1"/>
   <g id="matplotlib.axis_2"/>
   <g id="patch_2">
    <path d="M 502.056 218.16 
C 502.056 200.726717 498.629781 183.462184 491.972553 167.350056 
C 485.315325 151.237928 475.555969 136.590128 463.250529 124.241221 
C 450.945089 111.892315 436.331792 102.08137 420.243238 95.367371 
C 404.154684 88.653372 386.902339 85.166298 369.469165 85.104827 
C 352.03599 85.043356 334.759483 88.408678 318.623982 95.009052 
C 302.48848 101.609426 287.806359 111.317073 275.414139 123.578893 
C 263.021919 135.840713 253.159508 150.419325 246.388822 166.484105 
C 239.618135 182.548885 236.07025 199.788827 235.947309 217.221676 
C 235.824367 234.654526 239.12875 251.942791 245.672188 268.101466 
C 252.215627 284.260141 261.871442 298.976401 274.089491 311.411779 
C 286.307539 323.847158 300.851285 333.760913 316.892091 340.588203 
C 332.932897 347.415493 350.160222 351.024146 367.592529 351.208556 
C 385.024837 351.392966 402.324646 348.149563 418.506293 341.663142 
C 434.68794 335.176721 449.438155 325.572856 461.916539 313.398732 
C 474.394922 301.224607 484.359897 286.715908 491.243706 270.699275 
C 498.127515 254.682643 501.796889 237.46815 502.042766 220.036601 
L 369 218.16 
z
" style="fill: #f77189"/>
   </g>
   <g id="patch_3">
    <path d="M 502.042766 220.036601 
C 502.047133 219.726948 502.05042 219.41728 502.052626 219.107604 
C 502.054831 218.797928 502.055956 218.488245 502.055999 218.178562 
L 369 218.16 
z
" style="fill: #bb9832"/>
   </g>
   <g id="patch_4">
    <path d="M 502.055999 218.178562 
C 502.055999 218.175465 502.055999 218.172368 502.056 218.169271 
C 502.056 218.166174 502.056 218.163077 502.056 218.159981 
L 369 218.16 
z
" style="fill: #50b131"/>
   </g>
   <g id="text_1">
    <text style="fill: #262626; font: 10px 'Arial', 'Liberation Sans', 'DejaVu Sans', 'Bitstream Vera Sans', sans-serif; text-anchor: end" x="222.642039" y="219.713781" transform="rotate(-0 222.642039 219.713781)">newsapi</text>
   </g>
   <g id="text_2">
    <text style="fill: #262626; font: 10px 'Arial', 'Liberation Sans', 'DejaVu Sans', 'Bitstream Vera Sans', sans-serif; text-anchor: middle" x="289.168385" y="220.182943" transform="rotate(-0 289.168385 220.182943)">99.8%</text>
   </g>
   <g id="text_3">
    <text style="fill: #262626; font: 10px 'Arial', 'Liberation Sans', 'DejaVu Sans', 'Bitstream Vera Sans', sans-serif; text-anchor: start" x="515.357888" y="221.788302" transform="rotate(-0 515.357888 221.788302)">chicago_pd</text>
   </g>
   <g id="text_4">
    <text style="fill: #262626; font: 10px 'Arial', 'Liberation Sans', 'DejaVu Sans', 'Bitstream Vera Sans', sans-serif; text-anchor: middle" x="448.831575" y="221.3145" transform="rotate(-0 448.831575 221.3145)">0.2%</text>
   </g>
   <g id="text_5">
    <text style="fill: #262626; font: 10px 'Arial', 'Liberation Sans', 'DejaVu Sans', 'Bitstream Vera Sans', sans-serif; text-anchor: start" x="515.3616" y="220.756136" transform="rotate(-0 515.3616 220.756136)">chicago_police</text>
   </g>
   <g id="text_6">
    <text style="fill: #262626; font: 10px 'Arial', 'Liberation Sans', 'DejaVu Sans', 'Bitstream Vera Sans', sans-serif; text-anchor: middle" x="448.8336" y="220.7515" transform="rotate(-0 448.8336 220.7515)">0.0%</text>
   </g>
   <g id="text_7">
    <text style="fill: #262626; font: 12px 'Arial', 'Liberation Sans', 'DejaVu Sans', 'Bitstream Vera Sans', sans-serif; text-anchor: middle" x="369" y="45.84" transform="rotate(-0 369 45.84)">Incidents by Source</text>
   </g>
  </g>
 </g>
</svg>
