<?xml version="1.0" encoding="utf-8" standalone="no"?>
<!DOCTYPE svg PUBLIC "-//W3C//DTD SVG 1.1//EN"
  "http://www.w3.org/Graphics/SVG/1.1/DTD/svg11.dtd">
<svg xmlns:xlink="http://www.w3.org/1999/xlink" width="720pt" height="432pt" viewBox="0 0 720 432" xmlns="http://www.w3.org/2000/svg" version="1.1">
 <metadata>
  <rdf:RDF xmlns:dc="http://purl.org/dc/elements/1.1/" xmlns:cc="http://creativecommons.org/ns#" xmlns:rdf="http://www.w3.org/1999/02/22-rdf-syntax-ns#">
   <cc:Work>
    <dc:type rdf:resource="http://purl.org/dc/dcmitype/StillImage"/>
    <dc:date>2025-01-31T00:57:41.935081</dc:date>
    <dc:format>image/svg+xml</dc:format>
    <dc:creator>
     <cc:Agent>
      <dc:title>Matplotlib v3.7.5, https://matplotlib.org/</dc:title>
     </cc:Agent>
    </dc:creator>
   </cc:Work>
  </rdf:RDF>
 </metadata>
 <defs>
  <style type="text/css">*{stroke-linejoin: round; stroke-linecap: butt}</style>
 </defs>
 <g id="figure_1">
  <g id="patch_1">
   <path d="M 0 432 
L 720 432 
L 720 0 
L 0 0 
z
" style="fill: #ffffff"/>
  </g>
  <g id="axes_1">
   <g id="matplotlib.axis_1"/>
   <g id="matplotlib.axis_2"/>
   <g id="patch_2">
    <path d="M 502.056 218.16 
C 502.056 200.833058 498.671452 183.671791 492.092886 167.642274 
C 485.514319 151.612758 475.86754 137.021531 463.695601 124.689993 
C 451.523663 112.358454 437.059335 102.522424 421.116873 95.735612 
C 405.17441 88.9488 388.058687 85.340993 370.733214 85.115289 
C 353.407742 84.889585 336.203844 88.050299 320.089993 94.419504 
C 303.976143 100.788708 289.260494 110.244601 276.771447 122.254874 
C 264.2824 134.265147 254.25879 148.600121 247.264884 164.452824 
C 240.270978 180.305528 236.440525 197.372803 235.989154 214.693865 
C 235.537784 232.014927 238.474129 249.258538 244.632891 265.453988 
C 250.791653 281.649438 260.055054 296.487013 271.901623 309.131448 
C 283.748192 321.775883 297.95138 331.985374 313.711635 339.185187 
C 329.471889 346.385 346.48782 350.43745 363.801533 351.11441 
C 381.115246 351.791369 398.395643 349.079892 414.669944 343.132618 
C 430.944245 337.185344 445.901228 328.116006 458.698906 316.435151 
C 471.496585 304.754296 481.890222 290.685304 489.294721 275.020173 
C 496.699219 259.355042 500.972979 242.393343 501.875413 225.089917 
L 369 218.16 
z
" style="fill: #f77189"/>
   </g>
   <g id="patch_3">
    <path d="M 501.875413 225.089917 
C 501.935 223.947387 501.979848 222.804136 502.009947 221.660449 
C 502.040046 220.516762 502.055392 219.372735 502.055982 218.228652 
L 369 218.16 
z
" style="fill: #bb9832"/>
   </g>
   <g id="patch_4">
    <path d="M 502.055982 218.228652 
C 502.055988 218.217212 502.055993 218.205771 502.055996 218.19433 
C 502.055999 218.18289 502.056 218.171449 502.056 218.160008 
L 369 218.16 
z
" style="fill: #50b131"/>
   </g>
   <g id="text_1">
    <text style="fill: #262626; font: 10px 'Arial', 'Liberation Sans', 'DejaVu Sans', 'Bitstream Vera Sans', sans-serif; text-anchor: end" x="222.68807" y="216.933189" transform="rotate(-0 222.68807 216.933189)">newsapi</text>
   </g>
   <g id="text_2">
    <text style="fill: #262626; font: 10px 'Arial', 'Liberation Sans', 'DejaVu Sans', 'Bitstream Vera Sans', sans-serif; text-anchor: middle" x="289.193493" y="218.666257" transform="rotate(-0 289.193493 218.666257)">99.2%</text>
   </g>
   <g id="text_3">
    <text style="fill: #262626; font: 10px 'Arial', 'Liberation Sans', 'DejaVu Sans', 'Bitstream Vera Sans', sans-serif; text-anchor: start" x="515.310942" y="224.596432" transform="rotate(-0 515.310942 224.596432)">chicago_pd</text>
   </g>
   <g id="text_4">
    <text style="fill: #262626; font: 10px 'Arial', 'Liberation Sans', 'DejaVu Sans', 'Bitstream Vera Sans', sans-serif; text-anchor: middle" x="448.805968" y="222.846207" transform="rotate(-0 448.805968 222.846207)">0.8%</text>
   </g>
   <g id="text_5">
    <text style="fill: #262626; font: 10px 'Arial', 'Liberation Sans', 'DejaVu Sans', 'Bitstream Vera Sans', sans-serif; text-anchor: start" x="515.361595" y="220.783701" transform="rotate(-0 515.361595 220.783701)">chicago_police</text>
   </g>
   <g id="text_6">
    <text style="fill: #262626; font: 10px 'Arial', 'Liberation Sans', 'DejaVu Sans', 'Bitstream Vera Sans', sans-serif; text-anchor: middle" x="448.833597" y="220.766536" transform="rotate(-0 448.833597 220.766536)">0.0%</text>
   </g>
   <g id="text_7">
    <text style="fill: #262626; font: 12px 'Arial', 'Liberation Sans', 'DejaVu Sans', 'Bitstream Vera Sans', sans-serif; text-anchor: middle" x="369" y="45.84" transform="rotate(-0 369 45.84)">Incidents by Source</text>
   </g>
  </g>
 </g>
</svg>
