<?xml version="1.0" encoding="utf-8" standalone="no"?>
<!DOCTYPE svg PUBLIC "-//W3C//DTD SVG 1.1//EN"
  "http://www.w3.org/Graphics/SVG/1.1/DTD/svg11.dtd">
<svg xmlns:xlink="http://www.w3.org/1999/xlink" width="720pt" height="432pt" viewBox="0 0 720 432" xmlns="http://www.w3.org/2000/svg" version="1.1">
 <metadata>
  <rdf:RDF xmlns:dc="http://purl.org/dc/elements/1.1/" xmlns:cc="http://creativecommons.org/ns#" xmlns:rdf="http://www.w3.org/1999/02/22-rdf-syntax-ns#">
   <cc:Work>
    <dc:type rdf:resource="http://purl.org/dc/dcmitype/StillImage"/>
    <dc:date>2025-05-21T01:08:37.004310</dc:date>
    <dc:format>image/svg+xml</dc:format>
    <dc:creator>
     <cc:Agent>
      <dc:title>Matplotlib v3.7.5, https://matplotlib.org/</dc:title>
     </cc:Agent>
    </dc:creator>
   </cc:Work>
  </rdf:RDF>
 </metadata>
 <defs>
  <style type="text/css">*{stroke-linejoin: round; stroke-linecap: butt}</style>
 </defs>
 <g id="figure_1">
  <g id="patch_1">
   <path d="M 0 432 
L 720 432 
L 720 0 
L 0 0 
z
" style="fill: #ffffff"/>
  </g>
  <g id="axes_1">
   <g id="matplotlib.axis_1"/>
   <g id="matplotlib.axis_2"/>
   <g id="patch_2">
    <path d="M 502.056 218.16 
C 502.056 200.740518 498.635203 183.489384 491.988208 167.387961 
C 485.341212 151.286538 475.596496 136.646047 463.308406 124.299339 
C 451.020316 111.952631 436.426365 102.138352 420.356757 95.414806 
C 404.287149 88.69126 387.05249 85.188405 369.633205 85.105507 
C 352.21392 85.022608 334.946702 88.36127 318.813829 94.931564 
C 302.680956 101.501859 287.994256 111.176791 275.589209 123.405985 
C 263.184163 135.635179 253.300544 150.182259 246.5006 166.219688 
C 239.700655 182.257117 236.115821 199.474911 235.950027 216.893604 
C 235.784232 234.312298 239.040682 251.595208 245.534127 267.759166 
C 252.027572 283.923124 261.632501 298.6557 273.802522 311.118804 
C 285.972543 323.581909 300.472422 333.534645 316.477309 340.410833 
C 332.482196 347.287021 349.682735 350.953753 367.100442 351.20244 
C 384.518149 351.451127 401.816361 348.276962 418.011038 341.860514 
C 434.205715 335.444066 448.983834 325.909357 461.504713 313.798785 
C 474.025592 301.688213 484.04722 287.235862 490.999496 271.26388 
C 497.951773 255.291898 501.700319 238.109003 502.031893 220.692677 
L 369 218.16 
z
" style="fill: #f77189"/>
   </g>
   <g id="patch_3">
    <path d="M 502.031893 220.692677 
C 502.039849 220.27479 502.045836 219.856868 502.049853 219.438925 
C 502.053871 219.020981 502.055919 218.603022 502.055998 218.185059 
L 369 218.16 
z
" style="fill: #bb9832"/>
   </g>
   <g id="patch_4">
    <path d="M 502.055998 218.185059 
C 502.055998 218.180879 502.055999 218.1767 502.055999 218.17252 
C 502.056 218.168341 502.056 218.164161 502.056 218.159981 
L 369 218.16 
z
" style="fill: #50b131"/>
   </g>
   <g id="text_1">
    <text style="fill: #262626; font: 10px 'Arial', 'Liberation Sans', 'DejaVu Sans', 'Bitstream Vera Sans', sans-serif; text-anchor: end" x="222.645029" y="219.352902" transform="rotate(-0 222.645029 219.352902)">newsapi</text>
   </g>
   <g id="text_2">
    <text style="fill: #262626; font: 10px 'Arial', 'Liberation Sans', 'DejaVu Sans', 'Bitstream Vera Sans', sans-serif; text-anchor: middle" x="289.170016" y="219.9861" transform="rotate(-0 289.170016 219.9861)">99.7%</text>
   </g>
   <g id="text_3">
    <text style="fill: #262626; font: 10px 'Arial', 'Liberation Sans', 'DejaVu Sans', 'Bitstream Vera Sans', sans-serif; text-anchor: start" x="515.354839" y="222.152755" transform="rotate(-0 515.354839 222.152755)">chicago_pd</text>
   </g>
   <g id="text_4">
    <text style="fill: #262626; font: 10px 'Arial', 'Liberation Sans', 'DejaVu Sans', 'Bitstream Vera Sans', sans-serif; text-anchor: middle" x="448.829912" y="221.513292" transform="rotate(-0 448.829912 221.513292)">0.3%</text>
   </g>
   <g id="text_5">
    <text style="fill: #262626; font: 10px 'Arial', 'Liberation Sans', 'DejaVu Sans', 'Bitstream Vera Sans', sans-serif; text-anchor: start" x="515.361599" y="220.75971" transform="rotate(-0 515.361599 220.75971)">chicago_police</text>
   </g>
   <g id="text_6">
    <text style="fill: #262626; font: 10px 'Arial', 'Liberation Sans', 'DejaVu Sans', 'Bitstream Vera Sans', sans-serif; text-anchor: middle" x="448.8336" y="220.75345" transform="rotate(-0 448.8336 220.75345)">0.0%</text>
   </g>
   <g id="text_7">
    <text style="fill: #262626; font: 12px 'Arial', 'Liberation Sans', 'DejaVu Sans', 'Bitstream Vera Sans', sans-serif; text-anchor: middle" x="369" y="45.84" transform="rotate(-0 369 45.84)">Incidents by Source</text>
   </g>
  </g>
 </g>
</svg>
