<?xml version="1.0" encoding="utf-8" standalone="no"?>
<!DOCTYPE svg PUBLIC "-//W3C//DTD SVG 1.1//EN"
  "http://www.w3.org/Graphics/SVG/1.1/DTD/svg11.dtd">
<svg xmlns:xlink="http://www.w3.org/1999/xlink" width="720pt" height="432pt" viewBox="0 0 720 432" xmlns="http://www.w3.org/2000/svg" version="1.1">
 <metadata>
  <rdf:RDF xmlns:dc="http://purl.org/dc/elements/1.1/" xmlns:cc="http://creativecommons.org/ns#" xmlns:rdf="http://www.w3.org/1999/02/22-rdf-syntax-ns#">
   <cc:Work>
    <dc:type rdf:resource="http://purl.org/dc/dcmitype/StillImage"/>
    <dc:date>2026-06-13T02:49:35.756203</dc:date>
    <dc:format>image/svg+xml</dc:format>
    <dc:creator>
     <cc:Agent>
      <dc:title>Matplotlib v3.7.5, https://matplotlib.org/</dc:title>
     </cc:Agent>
    </dc:creator>
   </cc:Work>
  </rdf:RDF>
 </metadata>
 <defs>
  <style type="text/css">*{stroke-linejoin: round; stroke-linecap: butt}</style>
 </defs>
 <g id="figure_1">
  <g id="patch_1">
   <path d="M 0 432 
L 720 432 
L 720 0 
L 0 0 
z
" style="fill: #ffffff"/>
  </g>
  <g id="axes_1">
   <g id="matplotlib.axis_1"/>
   <g id="matplotlib.axis_2"/>
   <g id="patch_2">
    <path d="M 502.056 218.16 
C 502.056 200.703228 498.620542 183.41589 491.945881 167.285553 
C 485.271221 151.155215 475.486926 136.494997 463.151939 124.142387 
C 450.816952 111.789777 436.170718 101.984561 420.049927 95.286878 
C 403.929135 88.589195 386.64672 85.129059 369.189966 85.104136 
C 351.733212 85.079212 334.440987 88.489986 318.301136 95.14161 
C 302.161286 101.793234 287.487114 111.556588 275.116905 123.873927 
C 262.746697 136.191265 252.92058 150.823485 246.199888 166.934698 
C 239.479196 183.04591 235.994389 200.323368 235.944542 217.780069 
C 235.894696 235.236769 239.280777 252.533846 245.909352 268.683177 
C 252.537926 284.832508 262.28032 299.520604 274.579985 311.908386 
C 286.879649 324.296167 301.497825 334.143164 317.599426 340.886852 
C 333.701027 347.630539 350.973492 351.14001 368.430104 351.21478 
C 385.886715 351.289549 403.188609 347.928166 419.347387 341.322656 
C 435.506165 334.717145 450.208156 324.995731 462.613485 312.713765 
C 475.018815 300.431799 484.886672 285.827697 491.653341 269.73574 
C 498.420011 253.643783 501.954138 236.376347 502.05383 218.91986 
L 369 218.16 
z
" style="fill: #f77189"/>
   </g>
   <g id="patch_3">
    <path d="M 502.05383 218.91986 
C 502.054546 218.794468 502.055085 218.669076 502.055447 218.543683 
C 502.055808 218.41829 502.055993 218.292897 502.056 218.167503 
L 369 218.16 
z
" style="fill: #bb9832"/>
   </g>
   <g id="patch_4">
    <path d="M 502.056 218.167503 
C 502.056 218.166249 502.056 218.164995 502.056 218.163742 
C 502.056 218.162488 502.056 218.161234 502.056 218.15998 
L 369 218.16 
z
" style="fill: #50b131"/>
   </g>
   <g id="text_1">
    <text style="fill: #262626; font: 10px 'Arial', 'Liberation Sans', 'DejaVu Sans', 'Bitstream Vera Sans', sans-serif; text-anchor: end" x="222.638997" y="220.328013" transform="rotate(-0 222.638997 220.328013)">newsapi</text>
   </g>
   <g id="text_2">
    <text style="fill: #262626; font: 10px 'Arial', 'Liberation Sans', 'DejaVu Sans', 'Bitstream Vera Sans', sans-serif; text-anchor: middle" x="289.166725" y="220.517979" transform="rotate(-0 289.166725 220.517979)">99.9%</text>
   </g>
   <g id="text_3">
    <text style="fill: #262626; font: 10px 'Arial', 'Liberation Sans', 'DejaVu Sans', 'Bitstream Vera Sans', sans-serif; text-anchor: start" x="515.360991" y="221.167989" transform="rotate(-0 515.360991 221.167989)">chicago_pd</text>
   </g>
   <g id="text_4">
    <text style="fill: #262626; font: 10px 'Arial', 'Liberation Sans', 'DejaVu Sans', 'Bitstream Vera Sans', sans-serif; text-anchor: middle" x="448.833268" y="220.976147" transform="rotate(-0 448.833268 220.976147)">0.1%</text>
   </g>
   <g id="text_5">
    <text style="fill: #262626; font: 10px 'Arial', 'Liberation Sans', 'DejaVu Sans', 'Bitstream Vera Sans', sans-serif; text-anchor: start" x="515.3616" y="220.750053" transform="rotate(-0 515.3616 220.750053)">chicago_police</text>
   </g>
   <g id="text_6">
    <text style="fill: #262626; font: 10px 'Arial', 'Liberation Sans', 'DejaVu Sans', 'Bitstream Vera Sans', sans-serif; text-anchor: middle" x="448.8336" y="220.748182" transform="rotate(-0 448.8336 220.748182)">0.0%</text>
   </g>
   <g id="text_7">
    <text style="fill: #262626; font: 12px 'Arial', 'Liberation Sans', 'DejaVu Sans', 'Bitstream Vera Sans', sans-serif; text-anchor: middle" x="369" y="45.84" transform="rotate(-0 369 45.84)">Incidents by Source</text>
   </g>
  </g>
 </g>
</svg>
