<?xml version="1.0" encoding="utf-8" standalone="no"?>
<!DOCTYPE svg PUBLIC "-//W3C//DTD SVG 1.1//EN"
  "http://www.w3.org/Graphics/SVG/1.1/DTD/svg11.dtd">
<svg xmlns:xlink="http://www.w3.org/1999/xlink" width="720pt" height="432pt" viewBox="0 0 720 432" xmlns="http://www.w3.org/2000/svg" version="1.1">
 <metadata>
  <rdf:RDF xmlns:dc="http://purl.org/dc/elements/1.1/" xmlns:cc="http://creativecommons.org/ns#" xmlns:rdf="http://www.w3.org/1999/02/22-rdf-syntax-ns#">
   <cc:Work>
    <dc:type rdf:resource="http://purl.org/dc/dcmitype/StillImage"/>
    <dc:date>2025-07-05T06:19:48.315529</dc:date>
    <dc:format>image/svg+xml</dc:format>
    <dc:creator>
     <cc:Agent>
      <dc:title>Matplotlib v3.7.5, https://matplotlib.org/</dc:title>
     </cc:Agent>
    </dc:creator>
   </cc:Work>
  </rdf:RDF>
 </metadata>
 <defs>
  <style type="text/css">*{stroke-linejoin: round; stroke-linecap: butt}</style>
 </defs>
 <g id="figure_1">
  <g id="patch_1">
   <path d="M 0 432 
L 720 432 
L 720 0 
L 0 0 
z
" style="fill: #ffffff"/>
  </g>
  <g id="axes_1">
   <g id="matplotlib.axis_1"/>
   <g id="matplotlib.axis_2"/>
   <g id="patch_2">
    <path d="M 502.056 218.16 
C 502.056 200.728704 498.630562 183.4661 491.974808 167.355514 
C 485.319053 151.244927 475.561806 136.598178 463.258864 124.249587 
C 450.955923 111.900996 436.345412 102.08957 420.259586 95.374195 
C 404.173759 88.658819 386.92396 85.169471 369.492784 85.104913 
C 352.061608 85.040354 334.786436 88.401835 318.65131 94.997877 
C 302.516183 101.593919 287.833399 111.296854 275.439327 123.553977 
C 263.045256 135.8111 253.179786 150.385173 246.404881 166.446018 
C 239.629976 182.506863 236.076766 199.743621 235.94765 217.174438 
C 235.818534 234.605256 239.116013 251.892759 245.652251 268.052204 
C 252.18849 284.211648 261.836979 298.930268 274.048116 311.36965 
C 286.259252 323.809032 300.796688 333.72841 316.832331 340.562751 
C 332.867975 347.397092 350.091454 351.014116 367.521674 351.207787 
C 384.951894 351.401459 402.251491 348.168029 418.435033 341.691683 
C 434.618574 335.215337 449.372827 325.621425 461.857348 313.456443 
C 474.34187 301.29146 484.315021 286.790862 491.208704 270.78064 
C 498.102388 254.770418 501.783175 237.560452 502.0414 220.131069 
L 369 218.16 
z
" style="fill: #f77189"/>
   </g>
   <g id="patch_3">
    <path d="M 502.0414 220.131069 
C 502.046218 219.805835 502.049844 219.480583 502.052277 219.155322 
C 502.05471 218.830061 502.055951 218.504792 502.055999 218.179521 
L 369 218.16 
z
" style="fill: #bb9832"/>
   </g>
   <g id="patch_4">
    <path d="M 502.055999 218.179521 
C 502.055999 218.176269 502.055999 218.173016 502.056 218.169763 
C 502.056 218.16651 502.056 218.163258 502.056 218.160005 
L 369 218.16 
z
" style="fill: #50b131"/>
   </g>
   <g id="text_1">
    <text style="fill: #262626; font: 10px 'Arial', 'Liberation Sans', 'DejaVu Sans', 'Bitstream Vera Sans', sans-serif; text-anchor: end" x="222.642415" y="219.66182" transform="rotate(-0 222.642415 219.66182)">newsapi</text>
   </g>
   <g id="text_2">
    <text style="fill: #262626; font: 10px 'Arial', 'Liberation Sans', 'DejaVu Sans', 'Bitstream Vera Sans', sans-serif; text-anchor: middle" x="289.16859" y="220.1546" transform="rotate(-0 289.16859 220.1546)">99.8%</text>
   </g>
   <g id="text_3">
    <text style="fill: #262626; font: 10px 'Arial', 'Liberation Sans', 'DejaVu Sans', 'Bitstream Vera Sans', sans-serif; text-anchor: start" x="515.357505" y="221.840792" transform="rotate(-0 515.357505 221.840792)">chicago_pd</text>
   </g>
   <g id="text_4">
    <text style="fill: #262626; font: 10px 'Arial', 'Liberation Sans', 'DejaVu Sans', 'Bitstream Vera Sans', sans-serif; text-anchor: middle" x="448.831366" y="221.343131" transform="rotate(-0 448.831366 221.343131)">0.2%</text>
   </g>
   <g id="text_5">
    <text style="fill: #262626; font: 10px 'Arial', 'Liberation Sans', 'DejaVu Sans', 'Bitstream Vera Sans', sans-serif; text-anchor: start" x="515.3616" y="220.756677" transform="rotate(-0 515.3616 220.756677)">chicago_police</text>
   </g>
   <g id="text_6">
    <text style="fill: #262626; font: 10px 'Arial', 'Liberation Sans', 'DejaVu Sans', 'Bitstream Vera Sans', sans-serif; text-anchor: middle" x="448.8336" y="220.751795" transform="rotate(-0 448.8336 220.751795)">0.0%</text>
   </g>
   <g id="text_7">
    <text style="fill: #262626; font: 12px 'Arial', 'Liberation Sans', 'DejaVu Sans', 'Bitstream Vera Sans', sans-serif; text-anchor: middle" x="369" y="45.84" transform="rotate(-0 369 45.84)">Incidents by Source</text>
   </g>
  </g>
 </g>
</svg>
