<?xml version="1.0" encoding="utf-8" standalone="no"?>
<!DOCTYPE svg PUBLIC "-//W3C//DTD SVG 1.1//EN"
  "http://www.w3.org/Graphics/SVG/1.1/DTD/svg11.dtd">
<svg xmlns:xlink="http://www.w3.org/1999/xlink" width="720pt" height="432pt" viewBox="0 0 720 432" xmlns="http://www.w3.org/2000/svg" version="1.1">
 <metadata>
  <rdf:RDF xmlns:dc="http://purl.org/dc/elements/1.1/" xmlns:cc="http://creativecommons.org/ns#" xmlns:rdf="http://www.w3.org/1999/02/22-rdf-syntax-ns#">
   <cc:Work>
    <dc:type rdf:resource="http://purl.org/dc/dcmitype/StillImage"/>
    <dc:date>2026-07-24T08:16:10.318449</dc:date>
    <dc:format>image/svg+xml</dc:format>
    <dc:creator>
     <cc:Agent>
      <dc:title>Matplotlib v3.7.5, https://matplotlib.org/</dc:title>
     </cc:Agent>
    </dc:creator>
   </cc:Work>
  </rdf:RDF>
 </metadata>
 <defs>
  <style type="text/css">*{stroke-linejoin: round; stroke-linecap: butt}</style>
 </defs>
 <g id="figure_1">
  <g id="patch_1">
   <path d="M 0 432 
L 720 432 
L 720 0 
L 0 0 
z
" style="fill: #ffffff"/>
  </g>
  <g id="axes_1">
   <g id="matplotlib.axis_1"/>
   <g id="matplotlib.axis_2"/>
   <g id="patch_2">
    <path d="M 502.056 218.16 
C 502.056 200.702051 498.620079 183.413571 491.944544 167.282321 
C 485.26901 151.151072 475.483464 136.490232 463.146996 124.137438 
C 450.810528 111.784643 436.162644 101.979716 420.040237 95.282853 
C 403.917831 88.585989 386.63391 85.127206 369.175976 85.104116 
C 351.718043 85.081027 334.425033 88.49408 318.284969 95.148274 
C 302.144904 101.802468 287.471136 111.568615 275.102036 123.888735 
C 262.732936 136.208854 252.908645 150.843758 246.190465 166.957294 
C 239.472284 183.070829 235.990644 200.350161 235.944465 217.808048 
C 235.898287 235.265936 239.288466 252.563444 245.921307 268.712295 
C 252.554149 284.861146 262.30088 299.547818 274.60463 311.933201 
C 286.90838 324.318584 301.530278 334.162223 317.634914 340.901709 
C 333.73955 347.641195 351.014262 351.145685 368.472073 351.214953 
C 385.929884 351.284221 403.231862 347.916922 419.389471 341.305444 
C 435.54708 334.693966 450.24663 324.966667 462.648275 312.679309 
C 475.04992 300.39195 484.912888 285.783084 491.673667 269.687376 
C 498.434447 253.591667 501.961781 236.321605 502.054138 218.863901 
L 369 218.16 
z
" style="fill: #f77189"/>
   </g>
   <g id="patch_3">
    <path d="M 502.054138 218.863901 
C 502.054753 218.74775 502.055215 218.631598 502.055525 218.515445 
C 502.055836 218.399293 502.055994 218.28314 502.056 218.166987 
L 369 218.16 
z
" style="fill: #bb9832"/>
   </g>
   <g id="patch_4">
    <path d="M 502.056 218.166987 
C 502.056 218.165825 502.056 218.164664 502.056 218.163502 
C 502.056 218.162341 502.056 218.161179 502.056 218.160017 
L 369 218.16 
z
" style="fill: #50b131"/>
   </g>
   <g id="text_1">
    <text style="fill: #262626; font: 10px 'Arial', 'Liberation Sans', 'DejaVu Sans', 'Bitstream Vera Sans', sans-serif; text-anchor: end" x="222.638912" y="220.358791" transform="rotate(-0 222.638912 220.358791)">newsapi</text>
   </g>
   <g id="text_2">
    <text style="fill: #262626; font: 10px 'Arial', 'Liberation Sans', 'DejaVu Sans', 'Bitstream Vera Sans', sans-serif; text-anchor: middle" x="289.166679" y="220.534766" transform="rotate(-0 289.166679 220.534766)">99.9%</text>
   </g>
   <g id="text_3">
    <text style="fill: #262626; font: 10px 'Arial', 'Liberation Sans', 'DejaVu Sans', 'Bitstream Vera Sans', sans-serif; text-anchor: start" x="515.361078" y="221.136927" transform="rotate(-0 515.361078 221.136927)">chicago_pd</text>
   </g>
   <g id="text_4">
    <text style="fill: #262626; font: 10px 'Arial', 'Liberation Sans', 'DejaVu Sans', 'Bitstream Vera Sans', sans-serif; text-anchor: middle" x="448.833315" y="220.959205" transform="rotate(-0 448.833315 220.959205)">0.1%</text>
   </g>
   <g id="text_5">
    <text style="fill: #262626; font: 10px 'Arial', 'Liberation Sans', 'DejaVu Sans', 'Bitstream Vera Sans', sans-serif; text-anchor: start" x="515.3616" y="220.74979" transform="rotate(-0 515.3616 220.74979)">chicago_police</text>
   </g>
   <g id="text_6">
    <text style="fill: #262626; font: 10px 'Arial', 'Liberation Sans', 'DejaVu Sans', 'Bitstream Vera Sans', sans-serif; text-anchor: middle" x="448.8336" y="220.748039" transform="rotate(-0 448.8336 220.748039)">0.0%</text>
   </g>
   <g id="text_7">
    <text style="fill: #262626; font: 12px 'Arial', 'Liberation Sans', 'DejaVu Sans', 'Bitstream Vera Sans', sans-serif; text-anchor: middle" x="369" y="45.84" transform="rotate(-0 369 45.84)">Incidents by Source</text>
   </g>
  </g>
 </g>
</svg>
