<?xml version="1.0" encoding="utf-8" standalone="no"?>
<!DOCTYPE svg PUBLIC "-//W3C//DTD SVG 1.1//EN"
  "http://www.w3.org/Graphics/SVG/1.1/DTD/svg11.dtd">
<svg xmlns:xlink="http://www.w3.org/1999/xlink" width="720pt" height="432pt" viewBox="0 0 720 432" xmlns="http://www.w3.org/2000/svg" version="1.1">
 <metadata>
  <rdf:RDF xmlns:dc="http://purl.org/dc/elements/1.1/" xmlns:cc="http://creativecommons.org/ns#" xmlns:rdf="http://www.w3.org/1999/02/22-rdf-syntax-ns#">
   <cc:Work>
    <dc:type rdf:resource="http://purl.org/dc/dcmitype/StillImage"/>
    <dc:date>2026-02-16T06:57:30.632841</dc:date>
    <dc:format>image/svg+xml</dc:format>
    <dc:creator>
     <cc:Agent>
      <dc:title>Matplotlib v3.7.5, https://matplotlib.org/</dc:title>
     </cc:Agent>
    </dc:creator>
   </cc:Work>
  </rdf:RDF>
 </metadata>
 <defs>
  <style type="text/css">*{stroke-linejoin: round; stroke-linecap: butt}</style>
 </defs>
 <g id="figure_1">
  <g id="patch_1">
   <path d="M 0 432 
L 720 432 
L 720 0 
L 0 0 
z
" style="fill: #ffffff"/>
  </g>
  <g id="axes_1">
   <g id="matplotlib.axis_1"/>
   <g id="matplotlib.axis_2"/>
   <g id="patch_2">
    <path d="M 502.056 218.16 
C 502.056 200.707106 498.622068 183.423533 491.950287 167.296201 
C 485.278506 151.168869 475.49833 136.510699 463.168222 124.158697 
C 450.838115 111.806694 436.19732 102.000528 420.081849 95.300146 
C 403.966379 88.599763 386.688925 85.135173 369.236059 85.104209 
C 351.783192 85.073246 334.493554 88.476509 318.354411 95.119667 
C 302.215267 101.762826 287.539769 111.516981 275.165911 123.825155 
C 262.792054 136.133329 252.959928 150.756704 246.230965 166.860261 
C 239.502002 182.963819 236.006765 200.235099 235.944838 217.687883 
C 235.88291 235.140667 239.255494 252.436316 245.870009 268.58722 
C 252.484524 284.738123 262.212628 299.430904 274.498829 311.826578 
C 286.785031 324.222253 301.39094 334.080307 317.482534 340.837829 
C 333.574128 347.595352 350.839179 351.121225 368.291826 351.214115 
C 385.744473 351.307006 403.046078 347.965113 419.208691 341.379262 
C 435.371305 334.793411 450.081321 325.09139 462.498773 312.827199 
C 474.916226 300.563008 484.800177 285.974612 491.586237 269.895032 
C 498.372298 253.815452 501.928796 236.556683 502.05265 219.104228 
L 369 218.16 
z
" style="fill: #f77189"/>
   </g>
   <g id="patch_3">
    <path d="M 502.05265 219.104228 
C 502.053755 218.948416 502.054587 218.792601 502.055146 218.636785 
C 502.055704 218.48097 502.055989 218.325153 502.056 218.169336 
L 369 218.16 
z
" style="fill: #bb9832"/>
   </g>
   <g id="patch_4">
    <path d="M 502.056 218.169336 
C 502.056 218.167778 502.056 218.16622 502.056 218.164662 
C 502.056 218.163104 502.056 218.161546 502.056 218.159987 
L 369 218.16 
z
" style="fill: #50b131"/>
   </g>
   <g id="text_1">
    <text style="fill: #262626; font: 10px 'Arial', 'Liberation Sans', 'DejaVu Sans', 'Bitstream Vera Sans', sans-serif; text-anchor: end" x="222.639321" y="220.226609" transform="rotate(-0 222.639321 220.226609)">newsapi</text>
   </g>
   <g id="text_2">
    <text style="fill: #262626; font: 10px 'Arial', 'Liberation Sans', 'DejaVu Sans', 'Bitstream Vera Sans', sans-serif; text-anchor: middle" x="289.166903" y="220.462667" transform="rotate(-0 289.166903 220.462667)">99.9%</text>
   </g>
   <g id="text_3">
    <text style="fill: #262626; font: 10px 'Arial', 'Liberation Sans', 'DejaVu Sans', 'Bitstream Vera Sans', sans-serif; text-anchor: start" x="515.36066" y="221.270401" transform="rotate(-0 515.36066 221.270401)">chicago_pd</text>
   </g>
   <g id="text_4">
    <text style="fill: #262626; font: 10px 'Arial', 'Liberation Sans', 'DejaVu Sans', 'Bitstream Vera Sans', sans-serif; text-anchor: middle" x="448.833087" y="221.032009" transform="rotate(-0 448.833087 221.032009)">0.1%</text>
   </g>
   <g id="text_5">
    <text style="fill: #262626; font: 10px 'Arial', 'Liberation Sans', 'DejaVu Sans', 'Bitstream Vera Sans', sans-serif; text-anchor: start" x="515.3616" y="220.751066" transform="rotate(-0 515.3616 220.751066)">chicago_police</text>
   </g>
   <g id="text_6">
    <text style="fill: #262626; font: 10px 'Arial', 'Liberation Sans', 'DejaVu Sans', 'Bitstream Vera Sans', sans-serif; text-anchor: middle" x="448.8336" y="220.748735" transform="rotate(-0 448.8336 220.748735)">0.0%</text>
   </g>
   <g id="text_7">
    <text style="fill: #262626; font: 12px 'Arial', 'Liberation Sans', 'DejaVu Sans', 'Bitstream Vera Sans', sans-serif; text-anchor: middle" x="369" y="45.84" transform="rotate(-0 369 45.84)">Incidents by Source</text>
   </g>
  </g>
 </g>
</svg>
