<?xml version="1.0" encoding="utf-8" standalone="no"?>
<!DOCTYPE svg PUBLIC "-//W3C//DTD SVG 1.1//EN"
  "http://www.w3.org/Graphics/SVG/1.1/DTD/svg11.dtd">
<svg xmlns:xlink="http://www.w3.org/1999/xlink" width="720pt" height="432pt" viewBox="0 0 720 432" xmlns="http://www.w3.org/2000/svg" version="1.1">
 <metadata>
  <rdf:RDF xmlns:dc="http://purl.org/dc/elements/1.1/" xmlns:cc="http://creativecommons.org/ns#" xmlns:rdf="http://www.w3.org/1999/02/22-rdf-syntax-ns#">
   <cc:Work>
    <dc:type rdf:resource="http://purl.org/dc/dcmitype/StillImage"/>
    <dc:date>2026-04-29T02:27:22.792591</dc:date>
    <dc:format>image/svg+xml</dc:format>
    <dc:creator>
     <cc:Agent>
      <dc:title>Matplotlib v3.7.5, https://matplotlib.org/</dc:title>
     </cc:Agent>
    </dc:creator>
   </cc:Work>
  </rdf:RDF>
 </metadata>
 <defs>
  <style type="text/css">*{stroke-linejoin: round; stroke-linecap: butt}</style>
 </defs>
 <g id="figure_1">
  <g id="patch_1">
   <path d="M 0 432 
L 720 432 
L 720 0 
L 0 0 
z
" style="fill: #ffffff"/>
  </g>
  <g id="axes_1">
   <g id="matplotlib.axis_1"/>
   <g id="matplotlib.axis_2"/>
   <g id="patch_2">
    <path d="M 502.056 218.16 
C 502.056 200.70471 498.621125 183.418811 491.947565 167.289622 
C 485.274005 151.160433 475.491284 136.500998 463.158162 124.14862 
C 450.82504 111.796242 436.180885 101.990662 420.062127 95.291947 
C 403.943369 88.593232 386.66285 85.131394 369.207581 85.104162 
C 351.752312 85.07693 334.461076 88.484833 318.321495 95.133221 
C 302.181914 101.78161 287.507234 111.541449 275.13563 123.855285 
C 262.764027 136.169121 252.935613 150.797961 246.211759 166.906249 
C 239.487905 183.014536 235.999112 200.289634 235.944648 217.744839 
C 235.890184 235.200043 239.271106 252.496576 245.894308 268.646509 
C 252.517509 284.796443 262.254442 299.486331 274.548962 311.87713 
C 286.843482 324.26793 301.456971 334.119154 317.554749 340.86813 
C 333.652527 347.617107 350.922161 351.132847 368.377259 351.214543 
C 385.832358 351.296239 403.134144 347.942304 419.29439 341.344307 
C 435.454637 334.746309 450.159698 325.032306 462.569663 312.757132 
C 474.979628 300.481957 484.853639 285.883855 491.627721 269.796626 
C 498.401803 253.709396 501.944482 236.445269 502.053409 218.990319 
L 369 218.16 
z
" style="fill: #f77189"/>
   </g>
   <g id="patch_3">
    <path d="M 502.053409 218.990319 
C 502.054264 218.853306 502.054908 218.716293 502.055339 218.579279 
C 502.055771 218.442264 502.055991 218.30525 502.056 218.168235 
L 369 218.16 
z
" style="fill: #bb9832"/>
   </g>
   <g id="patch_4">
    <path d="M 502.056 218.168235 
C 502.056 218.166865 502.056 218.165494 502.056 218.164124 
C 502.056 218.162754 502.056 218.161384 502.056 218.160014 
L 369 218.16 
z
" style="fill: #50b131"/>
   </g>
   <g id="text_1">
    <text style="fill: #262626; font: 10px 'Arial', 'Liberation Sans', 'DejaVu Sans', 'Bitstream Vera Sans', sans-serif; text-anchor: end" x="222.639112" y="220.28926" transform="rotate(-0 222.639112 220.28926)">newsapi</text>
   </g>
   <g id="text_2">
    <text style="fill: #262626; font: 10px 'Arial', 'Liberation Sans', 'DejaVu Sans', 'Bitstream Vera Sans', sans-serif; text-anchor: middle" x="289.166789" y="220.496841" transform="rotate(-0 289.166789 220.496841)">99.9%</text>
   </g>
   <g id="text_3">
    <text style="fill: #262626; font: 10px 'Arial', 'Liberation Sans', 'DejaVu Sans', 'Bitstream Vera Sans', sans-serif; text-anchor: start" x="515.360873" y="221.207144" transform="rotate(-0 515.360873 221.207144)">chicago_pd</text>
   </g>
   <g id="text_4">
    <text style="fill: #262626; font: 10px 'Arial', 'Liberation Sans', 'DejaVu Sans', 'Bitstream Vera Sans', sans-serif; text-anchor: middle" x="448.833204" y="220.997505" transform="rotate(-0 448.833204 220.997505)">0.1%</text>
   </g>
   <g id="text_5">
    <text style="fill: #262626; font: 10px 'Arial', 'Liberation Sans', 'DejaVu Sans', 'Bitstream Vera Sans', sans-serif; text-anchor: start" x="515.3616" y="220.750474" transform="rotate(-0 515.3616 220.750474)">chicago_police</text>
   </g>
   <g id="text_6">
    <text style="fill: #262626; font: 10px 'Arial', 'Liberation Sans', 'DejaVu Sans', 'Bitstream Vera Sans', sans-serif; text-anchor: middle" x="448.8336" y="220.748412" transform="rotate(-0 448.8336 220.748412)">0.0%</text>
   </g>
   <g id="text_7">
    <text style="fill: #262626; font: 12px 'Arial', 'Liberation Sans', 'DejaVu Sans', 'Bitstream Vera Sans', sans-serif; text-anchor: middle" x="369" y="45.84" transform="rotate(-0 369 45.84)">Incidents by Source</text>
   </g>
  </g>
 </g>
</svg>
