<?xml version="1.0" encoding="utf-8" standalone="no"?>
<!DOCTYPE svg PUBLIC "-//W3C//DTD SVG 1.1//EN"
  "http://www.w3.org/Graphics/SVG/1.1/DTD/svg11.dtd">
<svg xmlns:xlink="http://www.w3.org/1999/xlink" width="720pt" height="432pt" viewBox="0 0 720 432" xmlns="http://www.w3.org/2000/svg" version="1.1">
 <metadata>
  <rdf:RDF xmlns:dc="http://purl.org/dc/elements/1.1/" xmlns:cc="http://creativecommons.org/ns#" xmlns:rdf="http://www.w3.org/1999/02/22-rdf-syntax-ns#">
   <cc:Work>
    <dc:type rdf:resource="http://purl.org/dc/dcmitype/StillImage"/>
    <dc:date>2025-06-05T06:21:35.567582</dc:date>
    <dc:format>image/svg+xml</dc:format>
    <dc:creator>
     <cc:Agent>
      <dc:title>Matplotlib v3.7.5, https://matplotlib.org/</dc:title>
     </cc:Agent>
    </dc:creator>
   </cc:Work>
  </rdf:RDF>
 </metadata>
 <defs>
  <style type="text/css">*{stroke-linejoin: round; stroke-linecap: butt}</style>
 </defs>
 <g id="figure_1">
  <g id="patch_1">
   <path d="M 0 432 
L 720 432 
L 720 0 
L 0 0 
z
" style="fill: #ffffff"/>
  </g>
  <g id="axes_1">
   <g id="matplotlib.axis_1"/>
   <g id="matplotlib.axis_2"/>
   <g id="patch_2">
    <path d="M 502.056 218.16 
C 502.056 200.73576 498.633334 183.480006 491.982812 167.374892 
C 485.332289 151.269778 475.582527 136.626766 463.288455 124.279297 
C 450.994384 111.931829 436.393764 102.118697 420.317623 95.39844 
C 404.241483 88.678182 387.000725 85.180764 369.576648 85.10525 
C 352.152571 85.029735 334.882146 88.377585 318.748361 94.958247 
C 302.614575 101.53891 287.929447 111.22512 275.528813 123.465563 
C 263.12818 135.706006 253.251863 150.263961 246.461997 166.310825 
C 239.67213 182.35769 236.100026 199.583129 235.948998 217.006715 
C 235.797971 234.4303 239.070941 251.715072 245.58162 267.877226 
C 252.092299 284.03938 261.714774 298.76635 273.90136 311.219915 
C 286.087945 323.67348 300.60296 333.612797 316.620248 340.472144 
C 332.637535 347.331492 349.847331 350.978216 367.270099 351.204754 
C 384.692867 351.431292 401.991661 348.233262 418.181879 341.792689 
C 434.372098 335.352116 449.140632 325.793556 461.646895 313.661057 
C 474.153159 301.528558 484.155288 287.056756 491.083988 271.069346 
C 498.012689 255.081936 501.733964 237.888107 502.036007 220.466484 
L 369 218.16 
z
" style="fill: #f77189"/>
   </g>
   <g id="patch_3">
    <path d="M 502.036007 220.466484 
C 502.042605 220.085914 502.04757 219.705318 502.050902 219.324706 
C 502.054234 218.944093 502.055933 218.563468 502.055998 218.182841 
L 369 218.16 
z
" style="fill: #bb9832"/>
   </g>
   <g id="patch_4">
    <path d="M 502.055998 218.182841 
C 502.055999 218.179035 502.055999 218.175229 502.056 218.171422 
C 502.056 218.167616 502.056 218.16381 502.056 218.160004 
L 369 218.16 
z
" style="fill: #50b131"/>
   </g>
   <g id="text_1">
    <text style="fill: #262626; font: 10px 'Arial', 'Liberation Sans', 'DejaVu Sans', 'Bitstream Vera Sans', sans-serif; text-anchor: end" x="222.643898" y="219.477324" transform="rotate(-0 222.643898 219.477324)">newsapi</text>
   </g>
   <g id="text_2">
    <text style="fill: #262626; font: 10px 'Arial', 'Liberation Sans', 'DejaVu Sans', 'Bitstream Vera Sans', sans-serif; text-anchor: middle" x="289.169399" y="220.053966" transform="rotate(-0 289.169399 220.053966)">99.7%</text>
   </g>
   <g id="text_3">
    <text style="fill: #262626; font: 10px 'Arial', 'Liberation Sans', 'DejaVu Sans', 'Bitstream Vera Sans', sans-serif; text-anchor: start" x="515.355993" y="222.027114" transform="rotate(-0 515.355993 222.027114)">chicago_pd</text>
   </g>
   <g id="text_4">
    <text style="fill: #262626; font: 10px 'Arial', 'Liberation Sans', 'DejaVu Sans', 'Bitstream Vera Sans', sans-serif; text-anchor: middle" x="448.830541" y="221.444761" transform="rotate(-0 448.830541 221.444761)">0.3%</text>
   </g>
   <g id="text_5">
    <text style="fill: #262626; font: 10px 'Arial', 'Liberation Sans', 'DejaVu Sans', 'Bitstream Vera Sans', sans-serif; text-anchor: start" x="515.361599" y="220.758502" transform="rotate(-0 515.361599 220.758502)">chicago_police</text>
   </g>
   <g id="text_6">
    <text style="fill: #262626; font: 10px 'Arial', 'Liberation Sans', 'DejaVu Sans', 'Bitstream Vera Sans', sans-serif; text-anchor: middle" x="448.8336" y="220.752791" transform="rotate(-0 448.8336 220.752791)">0.0%</text>
   </g>
   <g id="text_7">
    <text style="fill: #262626; font: 12px 'Arial', 'Liberation Sans', 'DejaVu Sans', 'Bitstream Vera Sans', sans-serif; text-anchor: middle" x="369" y="45.84" transform="rotate(-0 369 45.84)">Incidents by Source</text>
   </g>
  </g>
 </g>
</svg>
