<?xml version="1.0" encoding="utf-8" standalone="no"?>
<!DOCTYPE svg PUBLIC "-//W3C//DTD SVG 1.1//EN"
  "http://www.w3.org/Graphics/SVG/1.1/DTD/svg11.dtd">
<svg xmlns:xlink="http://www.w3.org/1999/xlink" width="720pt" height="432pt" viewBox="0 0 720 432" xmlns="http://www.w3.org/2000/svg" version="1.1">
 <metadata>
  <rdf:RDF xmlns:dc="http://purl.org/dc/elements/1.1/" xmlns:cc="http://creativecommons.org/ns#" xmlns:rdf="http://www.w3.org/1999/02/22-rdf-syntax-ns#">
   <cc:Work>
    <dc:type rdf:resource="http://purl.org/dc/dcmitype/StillImage"/>
    <dc:date>2025-07-12T12:45:45.313742</dc:date>
    <dc:format>image/svg+xml</dc:format>
    <dc:creator>
     <cc:Agent>
      <dc:title>Matplotlib v3.7.5, https://matplotlib.org/</dc:title>
     </cc:Agent>
    </dc:creator>
   </cc:Work>
  </rdf:RDF>
 </metadata>
 <defs>
  <style type="text/css">*{stroke-linejoin: round; stroke-linecap: butt}</style>
 </defs>
 <g id="figure_1">
  <g id="patch_1">
   <path d="M 0 432 
L 720 432 
L 720 0 
L 0 0 
z
" style="fill: #ffffff"/>
  </g>
  <g id="axes_1">
   <g id="matplotlib.axis_1"/>
   <g id="matplotlib.axis_2"/>
   <g id="patch_2">
    <path d="M 502.056 218.16 
C 502.056 200.727426 498.630059 183.46358 491.973357 167.352002 
C 485.316654 151.240423 475.55805 136.592998 463.253501 124.244204 
C 450.948952 111.89541 436.336648 102.084294 420.249067 95.369804 
C 404.161485 88.655314 386.910048 85.167429 369.477586 85.104857 
C 352.045124 85.042285 334.769093 88.406238 318.633725 95.005067 
C 302.498357 101.603896 287.815999 111.309863 275.423119 123.570009 
C 263.030239 135.830154 253.166737 150.407148 246.394546 166.470525 
C 239.622355 182.533902 236.072571 199.772709 235.947428 217.204834 
C 235.822286 234.636959 239.124207 251.924953 245.665078 268.083903 
C 252.205949 284.242853 261.859153 298.959954 274.074737 311.396761 
C 286.290321 323.833567 300.831817 333.749328 316.870783 340.579132 
C 332.909749 347.408936 350.135703 351.020574 367.567266 351.208286 
C 384.99883 351.395998 402.298565 348.156151 418.480888 341.673323 
C 434.663211 335.190494 449.414866 325.590177 461.895439 313.419312 
C 474.376011 301.248447 484.343903 286.742636 491.231233 270.728288 
C 498.118563 254.71394 501.792007 237.50106 502.042286 220.070283 
L 369 218.16 
z
" style="fill: #f77189"/>
   </g>
   <g id="patch_3">
    <path d="M 502.042286 220.070283 
C 502.046812 219.755075 502.050218 219.439853 502.052503 219.124621 
C 502.054789 218.809389 502.055954 218.49415 502.055999 218.17891 
L 369 218.16 
z
" style="fill: #bb9832"/>
   </g>
   <g id="patch_4">
    <path d="M 502.055999 218.17891 
C 502.055999 218.175758 502.055999 218.172606 502.056 218.169453 
C 502.056 218.166301 502.056 218.163148 502.056 218.159996 
L 369 218.16 
z
" style="fill: #50b131"/>
   </g>
   <g id="text_1">
    <text style="fill: #262626; font: 10px 'Arial', 'Liberation Sans', 'DejaVu Sans', 'Bitstream Vera Sans', sans-serif; text-anchor: end" x="222.642171" y="219.695255" transform="rotate(-0 222.642171 219.695255)">newsapi</text>
   </g>
   <g id="text_2">
    <text style="fill: #262626; font: 10px 'Arial', 'Liberation Sans', 'DejaVu Sans', 'Bitstream Vera Sans', sans-serif; text-anchor: middle" x="289.168457" y="220.172838" transform="rotate(-0 289.168457 220.172838)">99.8%</text>
   </g>
   <g id="text_3">
    <text style="fill: #262626; font: 10px 'Arial', 'Liberation Sans', 'DejaVu Sans', 'Bitstream Vera Sans', sans-serif; text-anchor: start" x="515.357754" y="221.807021" transform="rotate(-0 515.357754 221.807021)">chicago_pd</text>
   </g>
   <g id="text_4">
    <text style="fill: #262626; font: 10px 'Arial', 'Liberation Sans', 'DejaVu Sans', 'Bitstream Vera Sans', sans-serif; text-anchor: middle" x="448.831502" y="221.32471" transform="rotate(-0 448.831502 221.32471)">0.2%</text>
   </g>
   <g id="text_5">
    <text style="fill: #262626; font: 10px 'Arial', 'Liberation Sans', 'DejaVu Sans', 'Bitstream Vera Sans', sans-serif; text-anchor: start" x="515.3616" y="220.756336" transform="rotate(-0 515.3616 220.756336)">chicago_police</text>
   </g>
   <g id="text_6">
    <text style="fill: #262626; font: 10px 'Arial', 'Liberation Sans', 'DejaVu Sans', 'Bitstream Vera Sans', sans-serif; text-anchor: middle" x="448.8336" y="220.751609" transform="rotate(-0 448.8336 220.751609)">0.0%</text>
   </g>
   <g id="text_7">
    <text style="fill: #262626; font: 12px 'Arial', 'Liberation Sans', 'DejaVu Sans', 'Bitstream Vera Sans', sans-serif; text-anchor: middle" x="369" y="45.84" transform="rotate(-0 369 45.84)">Incidents by Source</text>
   </g>
  </g>
 </g>
</svg>
