<?xml version="1.0" encoding="utf-8" standalone="no"?>
<!DOCTYPE svg PUBLIC "-//W3C//DTD SVG 1.1//EN"
  "http://www.w3.org/Graphics/SVG/1.1/DTD/svg11.dtd">
<svg xmlns:xlink="http://www.w3.org/1999/xlink" width="720pt" height="432pt" viewBox="0 0 720 432" xmlns="http://www.w3.org/2000/svg" version="1.1">
 <metadata>
  <rdf:RDF xmlns:dc="http://purl.org/dc/elements/1.1/" xmlns:cc="http://creativecommons.org/ns#" xmlns:rdf="http://www.w3.org/1999/02/22-rdf-syntax-ns#">
   <cc:Work>
    <dc:type rdf:resource="http://purl.org/dc/dcmitype/StillImage"/>
    <dc:date>2025-03-05T01:01:23.266348</dc:date>
    <dc:format>image/svg+xml</dc:format>
    <dc:creator>
     <cc:Agent>
      <dc:title>Matplotlib v3.7.5, https://matplotlib.org/</dc:title>
     </cc:Agent>
    </dc:creator>
   </cc:Work>
  </rdf:RDF>
 </metadata>
 <defs>
  <style type="text/css">*{stroke-linejoin: round; stroke-linecap: butt}</style>
 </defs>
 <g id="figure_1">
  <g id="patch_1">
   <path d="M 0 432 
L 720 432 
L 720 0 
L 0 0 
z
" style="fill: #ffffff"/>
  </g>
  <g id="axes_1">
   <g id="matplotlib.axis_1"/>
   <g id="matplotlib.axis_2"/>
   <g id="patch_2">
    <path d="M 502.056 218.16 
C 502.056 200.785606 498.652889 183.578254 492.039274 167.511839 
C 485.425659 151.445424 475.728712 136.828882 463.497255 124.489471 
C 451.265798 112.150061 436.735026 102.325053 420.727345 95.570519 
C 404.719664 88.815985 387.54288 85.261805 370.169156 85.109137 
C 352.795432 84.956469 335.558842 88.208249 319.434934 94.680433 
C 303.311026 101.152618 288.609841 110.720757 276.16343 122.843316 
C 263.717019 134.965874 253.764709 149.409754 246.869777 165.357465 
C 239.974845 181.305176 236.269871 198.450067 235.964547 215.821779 
C 235.659223 233.19349 238.75942 250.457988 245.089675 266.638144 
C 251.41993 282.818301 260.858521 297.602993 272.871245 310.155444 
C 284.88397 322.707895 299.239842 332.786738 315.126352 339.821535 
C 331.012862 346.856333 348.124536 350.711815 365.492894 351.169772 
C 382.861252 351.627728 400.152325 348.679353 416.38748 342.491516 
C 432.622635 336.30368 447.489693 326.995366 460.147214 315.093402 
C 472.804736 303.191439 483.009334 288.924684 490.183454 273.100602 
C 497.357573 257.276519 501.363266 240.199384 501.97382 222.835721 
L 369 218.16 
z
" style="fill: #f77189"/>
   </g>
   <g id="patch_3">
    <path d="M 501.97382 222.835721 
C 502.000939 222.064462 502.021348 221.292982 502.035045 220.521368 
C 502.048741 219.749755 502.055723 218.978036 502.055992 218.206301 
L 369 218.16 
z
" style="fill: #bb9832"/>
   </g>
   <g id="patch_4">
    <path d="M 502.055992 218.206301 
C 502.055995 218.198584 502.055997 218.190866 502.055998 218.183149 
C 502.055999 218.175432 502.056 218.167714 502.056 218.159997 
L 369 218.16 
z
" style="fill: #50b131"/>
   </g>
   <g id="text_1">
    <text style="fill: #262626; font: 10px 'Arial', 'Liberation Sans', 'DejaVu Sans', 'Bitstream Vera Sans', sans-serif; text-anchor: end" x="222.661001" y="218.173894" transform="rotate(-0 222.661001 218.173894)">newsapi</text>
   </g>
   <g id="text_2">
    <text style="fill: #262626; font: 10px 'Arial', 'Liberation Sans', 'DejaVu Sans', 'Bitstream Vera Sans', sans-serif; text-anchor: middle" x="289.178728" y="219.343005" transform="rotate(-0 289.178728 219.343005)">99.4%</text>
   </g>
   <g id="text_3">
    <text style="fill: #262626; font: 10px 'Arial', 'Liberation Sans', 'DejaVu Sans', 'Bitstream Vera Sans', sans-serif; text-anchor: start" x="515.338549" y="223.343443" transform="rotate(-0 515.338549 223.343443)">chicago_pd</text>
   </g>
   <g id="text_4">
    <text style="fill: #262626; font: 10px 'Arial', 'Liberation Sans', 'DejaVu Sans', 'Bitstream Vera Sans', sans-serif; text-anchor: middle" x="448.821027" y="222.162758" transform="rotate(-0 448.821027 222.162758)">0.6%</text>
   </g>
   <g id="text_5">
    <text style="fill: #262626; font: 10px 'Arial', 'Liberation Sans', 'DejaVu Sans', 'Bitstream Vera Sans', sans-serif; text-anchor: start" x="515.361598" y="220.771402" transform="rotate(-0 515.361598 220.771402)">chicago_police</text>
   </g>
   <g id="text_6">
    <text style="fill: #262626; font: 10px 'Arial', 'Liberation Sans', 'DejaVu Sans', 'Bitstream Vera Sans', sans-serif; text-anchor: middle" x="448.833599" y="220.759827" transform="rotate(-0 448.833599 220.759827)">0.0%</text>
   </g>
   <g id="text_7">
    <text style="fill: #262626; font: 12px 'Arial', 'Liberation Sans', 'DejaVu Sans', 'Bitstream Vera Sans', sans-serif; text-anchor: middle" x="369" y="45.84" transform="rotate(-0 369 45.84)">Incidents by Source</text>
   </g>
  </g>
 </g>
</svg>
