<?xml version="1.0" encoding="utf-8" standalone="no"?>
<!DOCTYPE svg PUBLIC "-//W3C//DTD SVG 1.1//EN"
  "http://www.w3.org/Graphics/SVG/1.1/DTD/svg11.dtd">
<svg xmlns:xlink="http://www.w3.org/1999/xlink" width="720pt" height="432pt" viewBox="0 0 720 432" xmlns="http://www.w3.org/2000/svg" version="1.1">
 <metadata>
  <rdf:RDF xmlns:dc="http://purl.org/dc/elements/1.1/" xmlns:cc="http://creativecommons.org/ns#" xmlns:rdf="http://www.w3.org/1999/02/22-rdf-syntax-ns#">
   <cc:Work>
    <dc:type rdf:resource="http://purl.org/dc/dcmitype/StillImage"/>
    <dc:date>2026-06-26T14:12:58.714721</dc:date>
    <dc:format>image/svg+xml</dc:format>
    <dc:creator>
     <cc:Agent>
      <dc:title>Matplotlib v3.7.5, https://matplotlib.org/</dc:title>
     </cc:Agent>
    </dc:creator>
   </cc:Work>
  </rdf:RDF>
 </metadata>
 <defs>
  <style type="text/css">*{stroke-linejoin: round; stroke-linecap: butt}</style>
 </defs>
 <g id="figure_1">
  <g id="patch_1">
   <path d="M 0 432 
L 720 432 
L 720 0 
L 0 0 
z
" style="fill: #ffffff"/>
  </g>
  <g id="axes_1">
   <g id="matplotlib.axis_1"/>
   <g id="matplotlib.axis_2"/>
   <g id="patch_2">
    <path d="M 502.056 218.16 
C 502.056 200.702815 498.620379 183.415077 491.945412 167.284419 
C 485.270445 151.153761 475.485711 136.493326 463.150205 124.140651 
C 450.814698 111.787976 436.167886 101.982861 420.046527 95.285466 
C 403.925169 88.58807 386.642225 85.128409 369.185058 85.104129 
C 351.72789 85.079849 334.435389 88.491422 318.295464 95.143948 
C 302.155538 101.796473 287.481508 111.560808 275.111688 123.879122 
C 262.741869 136.197436 252.916392 150.830597 246.196581 166.942625 
C 239.47677 183.054653 235.993074 200.332768 235.944515 217.789885 
C 235.895955 235.247002 239.283474 252.544231 245.913545 268.693393 
C 252.543617 284.842556 262.287533 299.530153 274.588631 311.917093 
C 286.889729 324.304033 301.50921 334.149852 317.611877 340.892066 
C 333.714543 347.634279 350.987796 351.142002 368.444829 351.214842 
C 385.901861 351.287681 403.203785 347.924223 419.362153 341.316619 
C 435.520521 334.709014 450.221656 324.985536 462.625693 312.701678 
C 475.029729 300.41782 484.895872 285.812046 491.660475 269.718773 
C 498.425078 253.625499 501.956822 236.357141 502.053941 218.900227 
L 369 218.16 
z
" style="fill: #f77189"/>
   </g>
   <g id="patch_3">
    <path d="M 502.053941 218.900227 
C 502.054621 218.778075 502.055132 218.655922 502.055475 218.533769 
C 502.055818 218.411616 502.055993 218.289462 502.056 218.167308 
L 369 218.16 
z
" style="fill: #bb9832"/>
   </g>
   <g id="patch_4">
    <path d="M 502.056 218.167308 
C 502.056 218.166087 502.056 218.164865 502.056 218.163643 
C 502.056 218.162422 502.056 218.1612 502.056 218.159979 
L 369 218.16 
z
" style="fill: #50b131"/>
   </g>
   <g id="text_1">
    <text style="fill: #262626; font: 10px 'Arial', 'Liberation Sans', 'DejaVu Sans', 'Bitstream Vera Sans', sans-serif; text-anchor: end" x="222.638966" y="220.338811" transform="rotate(-0 222.638966 220.338811)">newsapi</text>
   </g>
   <g id="text_2">
    <text style="fill: #262626; font: 10px 'Arial', 'Liberation Sans', 'DejaVu Sans', 'Bitstream Vera Sans', sans-serif; text-anchor: middle" x="289.166709" y="220.523869" transform="rotate(-0 289.166709 220.523869)">99.9%</text>
   </g>
   <g id="text_3">
    <text style="fill: #262626; font: 10px 'Arial', 'Liberation Sans', 'DejaVu Sans', 'Bitstream Vera Sans', sans-serif; text-anchor: start" x="515.361023" y="221.157083" transform="rotate(-0 515.361023 221.157083)">chicago_pd</text>
   </g>
   <g id="text_4">
    <text style="fill: #262626; font: 10px 'Arial', 'Liberation Sans', 'DejaVu Sans', 'Bitstream Vera Sans', sans-serif; text-anchor: middle" x="448.833285" y="220.970199" transform="rotate(-0 448.833285 220.970199)">0.1%</text>
   </g>
   <g id="text_5">
    <text style="fill: #262626; font: 10px 'Arial', 'Liberation Sans', 'DejaVu Sans', 'Bitstream Vera Sans', sans-serif; text-anchor: start" x="515.3616" y="220.749945" transform="rotate(-0 515.3616 220.749945)">chicago_police</text>
   </g>
   <g id="text_6">
    <text style="fill: #262626; font: 10px 'Arial', 'Liberation Sans', 'DejaVu Sans', 'Bitstream Vera Sans', sans-serif; text-anchor: middle" x="448.8336" y="220.748124" transform="rotate(-0 448.8336 220.748124)">0.0%</text>
   </g>
   <g id="text_7">
    <text style="fill: #262626; font: 12px 'Arial', 'Liberation Sans', 'DejaVu Sans', 'Bitstream Vera Sans', sans-serif; text-anchor: middle" x="369" y="45.84" transform="rotate(-0 369 45.84)">Incidents by Source</text>
   </g>
  </g>
 </g>
</svg>
