<?xml version="1.0" encoding="utf-8" standalone="no"?>
<!DOCTYPE svg PUBLIC "-//W3C//DTD SVG 1.1//EN"
  "http://www.w3.org/Graphics/SVG/1.1/DTD/svg11.dtd">
<svg xmlns:xlink="http://www.w3.org/1999/xlink" width="720pt" height="432pt" viewBox="0 0 720 432" xmlns="http://www.w3.org/2000/svg" version="1.1">
 <metadata>
  <rdf:RDF xmlns:dc="http://purl.org/dc/elements/1.1/" xmlns:cc="http://creativecommons.org/ns#" xmlns:rdf="http://www.w3.org/1999/02/22-rdf-syntax-ns#">
   <cc:Work>
    <dc:type rdf:resource="http://purl.org/dc/dcmitype/StillImage"/>
    <dc:date>2025-08-12T18:22:24.989974</dc:date>
    <dc:format>image/svg+xml</dc:format>
    <dc:creator>
     <cc:Agent>
      <dc:title>Matplotlib v3.7.5, https://matplotlib.org/</dc:title>
     </cc:Agent>
    </dc:creator>
   </cc:Work>
  </rdf:RDF>
 </metadata>
 <defs>
  <style type="text/css">*{stroke-linejoin: round; stroke-linecap: butt}</style>
 </defs>
 <g id="figure_1">
  <g id="patch_1">
   <path d="M 0 432 
L 720 432 
L 720 0 
L 0 0 
z
" style="fill: #ffffff"/>
  </g>
  <g id="axes_1">
   <g id="matplotlib.axis_1"/>
   <g id="matplotlib.axis_2"/>
   <g id="patch_2">
    <path d="M 502.056 218.16 
C 502.056 200.72231 498.628048 183.453498 491.967551 167.337953 
C 485.307054 151.222407 475.543021 136.572275 463.232039 124.22267 
C 450.921057 111.873065 436.301581 102.06319 420.206978 95.352246 
C 404.112375 88.641301 386.854385 85.159274 369.416781 85.104653 
C 351.979177 85.050031 334.699712 88.423874 318.563382 95.033858 
C 302.427053 101.643843 287.746408 111.361939 275.358301 123.634177 
C 262.970193 135.906415 253.114573 150.495091 246.353247 166.568594 
C 239.591922 182.642097 236.055853 199.889095 235.946611 217.326442 
C 235.837369 234.76379 239.157069 252.053738 245.716476 268.210694 
C 252.275883 284.367649 261.947946 299.078662 274.18132 311.50515 
C 286.414694 323.931638 300.972426 333.832907 317.024672 340.644548 
C 333.076917 347.456188 350.312754 351.046263 367.749674 351.210125 
C 385.186594 351.373987 402.486856 348.108462 418.664278 341.599696 
C 434.841701 335.090931 449.582939 325.464996 462.047685 313.270607 
C 474.512431 301.076217 484.459252 286.54957 491.321141 270.518741 
C 498.183029 254.487911 501.827076 237.263404 502.045556 219.827082 
L 369 218.16 
z
" style="fill: #f77189"/>
   </g>
   <g id="patch_3">
    <path d="M 502.045556 219.827082 
C 502.049003 219.551997 502.051597 219.276902 502.053337 219.001801 
C 502.055078 218.7267 502.055965 218.451594 502.055999 218.176487 
L 369 218.16 
z
" style="fill: #bb9832"/>
   </g>
   <g id="patch_4">
    <path d="M 502.055999 218.176487 
C 502.055999 218.173736 502.056 218.170985 502.056 218.168234 
C 502.056 218.165483 502.056 218.162732 502.056 218.159981 
L 369 218.16 
z
" style="fill: #50b131"/>
   </g>
   <g id="text_1">
    <text style="fill: #262626; font: 10px 'Arial', 'Liberation Sans', 'DejaVu Sans', 'Bitstream Vera Sans', sans-serif; text-anchor: end" x="222.641272" y="219.829024" transform="rotate(-0 222.641272 219.829024)">newsapi</text>
   </g>
   <g id="text_2">
    <text style="fill: #262626; font: 10px 'Arial', 'Liberation Sans', 'DejaVu Sans', 'Bitstream Vera Sans', sans-serif; text-anchor: middle" x="289.167967" y="220.245803" transform="rotate(-0 289.167967 220.245803)">99.8%</text>
   </g>
   <g id="text_3">
    <text style="fill: #262626; font: 10px 'Arial', 'Liberation Sans', 'DejaVu Sans', 'Bitstream Vera Sans', sans-serif; text-anchor: start" x="515.358671" y="221.671919" transform="rotate(-0 515.358671 221.671919)">chicago_pd</text>
   </g>
   <g id="text_4">
    <text style="fill: #262626; font: 10px 'Arial', 'Liberation Sans', 'DejaVu Sans', 'Bitstream Vera Sans', sans-serif; text-anchor: middle" x="448.832002" y="221.251018" transform="rotate(-0 448.832002 221.251018)">0.2%</text>
   </g>
   <g id="text_5">
    <text style="fill: #262626; font: 10px 'Arial', 'Liberation Sans', 'DejaVu Sans', 'Bitstream Vera Sans', sans-serif; text-anchor: start" x="515.3616" y="220.754995" transform="rotate(-0 515.3616 220.754995)">chicago_police</text>
   </g>
   <g id="text_6">
    <text style="fill: #262626; font: 10px 'Arial', 'Liberation Sans', 'DejaVu Sans', 'Bitstream Vera Sans', sans-serif; text-anchor: middle" x="448.8336" y="220.750878" transform="rotate(-0 448.8336 220.750878)">0.0%</text>
   </g>
   <g id="text_7">
    <text style="fill: #262626; font: 12px 'Arial', 'Liberation Sans', 'DejaVu Sans', 'Bitstream Vera Sans', sans-serif; text-anchor: middle" x="369" y="45.84" transform="rotate(-0 369 45.84)">Incidents by Source</text>
   </g>
  </g>
 </g>
</svg>
