<?xml version="1.0" encoding="utf-8" standalone="no"?>
<!DOCTYPE svg PUBLIC "-//W3C//DTD SVG 1.1//EN"
  "http://www.w3.org/Graphics/SVG/1.1/DTD/svg11.dtd">
<svg xmlns:xlink="http://www.w3.org/1999/xlink" width="720pt" height="432pt" viewBox="0 0 720 432" xmlns="http://www.w3.org/2000/svg" version="1.1">
 <metadata>
  <rdf:RDF xmlns:dc="http://purl.org/dc/elements/1.1/" xmlns:cc="http://creativecommons.org/ns#" xmlns:rdf="http://www.w3.org/1999/02/22-rdf-syntax-ns#">
   <cc:Work>
    <dc:type rdf:resource="http://purl.org/dc/dcmitype/StillImage"/>
    <dc:date>2026-01-13T18:26:20.966543</dc:date>
    <dc:format>image/svg+xml</dc:format>
    <dc:creator>
     <cc:Agent>
      <dc:title>Matplotlib v3.7.5, https://matplotlib.org/</dc:title>
     </cc:Agent>
    </dc:creator>
   </cc:Work>
  </rdf:RDF>
 </metadata>
 <defs>
  <style type="text/css">*{stroke-linejoin: round; stroke-linecap: butt}</style>
 </defs>
 <g id="figure_1">
  <g id="patch_1">
   <path d="M 0 432 
L 720 432 
L 720 0 
L 0 0 
z
" style="fill: #ffffff"/>
  </g>
  <g id="axes_1">
   <g id="matplotlib.axis_1"/>
   <g id="matplotlib.axis_2"/>
   <g id="patch_2">
    <path d="M 502.056 218.16 
C 502.056 200.708844 498.622752 183.426958 491.952261 167.300972 
C 485.28177 151.174987 475.503439 136.517735 463.175518 124.166006 
C 450.847597 111.814277 436.209238 102.007685 420.096153 95.306094 
C 403.983067 88.604502 386.707837 85.137917 369.256714 85.104248 
C 351.80559 85.070578 334.517112 88.470477 318.378287 95.109842 
C 302.239462 101.749208 287.563371 111.499241 275.18788 123.803308 
C 262.812389 136.107376 252.977572 150.726786 246.244905 166.826912 
C 239.512239 182.927038 236.01233 200.195547 235.944991 217.646574 
C 235.877651 235.0976 239.244188 252.392605 245.852404 268.54421 
C 252.460619 284.695815 262.182319 299.39069 274.462486 311.789897 
C 286.742654 324.189104 301.343062 334.052108 317.430168 340.815826 
C 333.517274 347.579543 350.778999 351.112763 368.229863 351.213771 
C 385.680727 351.31478 402.982195 347.981618 419.14652 341.404577 
C 435.310844 334.827536 450.024448 325.134206 462.447325 312.877984 
C 474.870202 300.621762 484.761358 286.04041 491.5561 269.966384 
C 498.350843 253.892357 501.91736 236.637482 502.052038 219.186845 
L 369 218.16 
z
" style="fill: #f77189"/>
   </g>
   <g id="patch_3">
    <path d="M 502.052038 219.186845 
C 502.053345 219.017399 502.054329 218.847951 502.05499 218.678502 
C 502.05565 218.509052 502.055987 218.339602 502.056 218.170151 
L 369 218.16 
z
" style="fill: #bb9832"/>
   </g>
   <g id="patch_4">
    <path d="M 502.056 218.170151 
C 502.056 218.168456 502.056 218.166762 502.056 218.165067 
C 502.056 218.163373 502.056 218.161678 502.056 218.159984 
L 369 218.16 
z
" style="fill: #50b131"/>
   </g>
   <g id="text_1">
    <text style="fill: #262626; font: 10px 'Arial', 'Liberation Sans', 'DejaVu Sans', 'Bitstream Vera Sans', sans-serif; text-anchor: end" x="222.63949" y="220.181169" transform="rotate(-0 222.63949 220.181169)">newsapi</text>
   </g>
   <g id="text_2">
    <text style="fill: #262626; font: 10px 'Arial', 'Liberation Sans', 'DejaVu Sans', 'Bitstream Vera Sans', sans-serif; text-anchor: middle" x="289.166994" y="220.437882" transform="rotate(-0 289.166994 220.437882)">99.9%</text>
   </g>
   <g id="text_3">
    <text style="fill: #262626; font: 10px 'Arial', 'Liberation Sans', 'DejaVu Sans', 'Bitstream Vera Sans', sans-serif; text-anchor: start" x="515.360489" y="221.316289" transform="rotate(-0 515.360489 221.316289)">chicago_pd</text>
   </g>
   <g id="text_4">
    <text style="fill: #262626; font: 10px 'Arial', 'Liberation Sans', 'DejaVu Sans', 'Bitstream Vera Sans', sans-serif; text-anchor: middle" x="448.832994" y="221.057039" transform="rotate(-0 448.832994 221.057039)">0.1%</text>
   </g>
   <g id="text_5">
    <text style="fill: #262626; font: 10px 'Arial', 'Liberation Sans', 'DejaVu Sans', 'Bitstream Vera Sans', sans-serif; text-anchor: start" x="515.3616" y="220.751512" transform="rotate(-0 515.3616 220.751512)">chicago_police</text>
   </g>
   <g id="text_6">
    <text style="fill: #262626; font: 10px 'Arial', 'Liberation Sans', 'DejaVu Sans', 'Bitstream Vera Sans', sans-serif; text-anchor: middle" x="448.8336" y="220.748978" transform="rotate(-0 448.8336 220.748978)">0.0%</text>
   </g>
   <g id="text_7">
    <text style="fill: #262626; font: 12px 'Arial', 'Liberation Sans', 'DejaVu Sans', 'Bitstream Vera Sans', sans-serif; text-anchor: middle" x="369" y="45.84" transform="rotate(-0 369 45.84)">Incidents by Source</text>
   </g>
  </g>
 </g>
</svg>
