<?xml version="1.0" encoding="utf-8" standalone="no"?>
<!DOCTYPE svg PUBLIC "-//W3C//DTD SVG 1.1//EN"
  "http://www.w3.org/Graphics/SVG/1.1/DTD/svg11.dtd">
<svg xmlns:xlink="http://www.w3.org/1999/xlink" width="720pt" height="432pt" viewBox="0 0 720 432" xmlns="http://www.w3.org/2000/svg" version="1.1">
 <metadata>
  <rdf:RDF xmlns:dc="http://purl.org/dc/elements/1.1/" xmlns:cc="http://creativecommons.org/ns#" xmlns:rdf="http://www.w3.org/1999/02/22-rdf-syntax-ns#">
   <cc:Work>
    <dc:type rdf:resource="http://purl.org/dc/dcmitype/StillImage"/>
    <dc:date>2026-01-23T06:27:13.447485</dc:date>
    <dc:format>image/svg+xml</dc:format>
    <dc:creator>
     <cc:Agent>
      <dc:title>Matplotlib v3.7.5, https://matplotlib.org/</dc:title>
     </cc:Agent>
    </dc:creator>
   </cc:Work>
  </rdf:RDF>
 </metadata>
 <defs>
  <style type="text/css">*{stroke-linejoin: round; stroke-linecap: butt}</style>
 </defs>
 <g id="figure_1">
  <g id="patch_1">
   <path d="M 0 432 
L 720 432 
L 720 0 
L 0 0 
z
" style="fill: #ffffff"/>
  </g>
  <g id="axes_1">
   <g id="matplotlib.axis_1"/>
   <g id="matplotlib.axis_2"/>
   <g id="patch_2">
    <path d="M 502.056 218.16 
C 502.056 200.708326 498.622548 183.425937 491.951673 167.299551 
C 485.280797 151.173164 475.501917 136.515639 463.173344 124.163828 
C 450.844772 111.812017 436.205687 102.005553 420.091891 95.304321 
C 403.978095 88.60309 386.702203 85.137099 369.25056 85.104236 
C 351.798917 85.071372 334.510093 88.472274 318.371173 95.112769 
C 302.232253 101.753265 287.556339 111.504526 275.181334 123.809817 
C 262.806329 136.115108 252.972314 150.7357 246.240751 166.836848 
C 239.509187 182.937997 236.010671 200.207331 235.944944 217.658882 
C 235.879217 235.110432 239.247555 252.405629 245.857648 268.557025 
C 252.46774 284.708422 262.191348 299.402673 274.473313 311.800828 
C 286.755279 324.198983 301.357326 334.060512 317.44577 340.822384 
C 333.534213 347.584256 350.796929 351.115287 368.248325 351.213877 
C 385.69972 351.312467 403.00123 347.976703 419.165045 341.397037 
C 435.32886 334.817372 450.041396 325.121452 462.462657 312.862856 
C 474.883919 300.604259 484.772928 286.020808 491.565084 269.945126 
C 498.35724 253.869445 501.920773 236.613408 502.052225 219.16223 
L 369 218.16 
z
" style="fill: #f77189"/>
   </g>
   <g id="patch_3">
    <path d="M 502.052225 219.16223 
C 502.053471 218.996846 502.054409 218.831461 502.055038 218.666074 
C 502.055667 218.500688 502.055987 218.3353 502.056 218.169912 
L 369 218.16 
z
" style="fill: #bb9832"/>
   </g>
   <g id="patch_4">
    <path d="M 502.056 218.169912 
C 502.056 218.168258 502.056 218.166604 502.056 218.164951 
C 502.056 218.163297 502.056 218.161643 502.056 218.159989 
L 369 218.16 
z
" style="fill: #50b131"/>
   </g>
   <g id="text_1">
    <text style="fill: #262626; font: 10px 'Arial', 'Liberation Sans', 'DejaVu Sans', 'Bitstream Vera Sans', sans-serif; text-anchor: end" x="222.639438" y="220.194707" transform="rotate(-0 222.639438 220.194707)">newsapi</text>
   </g>
   <g id="text_2">
    <text style="fill: #262626; font: 10px 'Arial', 'Liberation Sans', 'DejaVu Sans', 'Bitstream Vera Sans', sans-serif; text-anchor: middle" x="289.166966" y="220.445267" transform="rotate(-0 289.166966 220.445267)">99.9%</text>
   </g>
   <g id="text_3">
    <text style="fill: #262626; font: 10px 'Arial', 'Liberation Sans', 'DejaVu Sans', 'Bitstream Vera Sans', sans-serif; text-anchor: start" x="515.360541" y="221.302619" transform="rotate(-0 515.360541 221.302619)">chicago_pd</text>
   </g>
   <g id="text_4">
    <text style="fill: #262626; font: 10px 'Arial', 'Liberation Sans', 'DejaVu Sans', 'Bitstream Vera Sans', sans-serif; text-anchor: middle" x="448.833023" y="221.049582" transform="rotate(-0 448.833023 221.049582)">0.1%</text>
   </g>
   <g id="text_5">
    <text style="fill: #262626; font: 10px 'Arial', 'Liberation Sans', 'DejaVu Sans', 'Bitstream Vera Sans', sans-serif; text-anchor: start" x="515.3616" y="220.751383" transform="rotate(-0 515.3616 220.751383)">chicago_police</text>
   </g>
   <g id="text_6">
    <text style="fill: #262626; font: 10px 'Arial', 'Liberation Sans', 'DejaVu Sans', 'Bitstream Vera Sans', sans-serif; text-anchor: middle" x="448.8336" y="220.748908" transform="rotate(-0 448.8336 220.748908)">0.0%</text>
   </g>
   <g id="text_7">
    <text style="fill: #262626; font: 12px 'Arial', 'Liberation Sans', 'DejaVu Sans', 'Bitstream Vera Sans', sans-serif; text-anchor: middle" x="369" y="45.84" transform="rotate(-0 369 45.84)">Incidents by Source</text>
   </g>
  </g>
 </g>
</svg>
