<?xml version="1.0" encoding="utf-8" standalone="no"?>
<!DOCTYPE svg PUBLIC "-//W3C//DTD SVG 1.1//EN"
  "http://www.w3.org/Graphics/SVG/1.1/DTD/svg11.dtd">
<svg xmlns:xlink="http://www.w3.org/1999/xlink" width="720pt" height="432pt" viewBox="0 0 720 432" xmlns="http://www.w3.org/2000/svg" version="1.1">
 <metadata>
  <rdf:RDF xmlns:dc="http://purl.org/dc/elements/1.1/" xmlns:cc="http://creativecommons.org/ns#" xmlns:rdf="http://www.w3.org/1999/02/22-rdf-syntax-ns#">
   <cc:Work>
    <dc:type rdf:resource="http://purl.org/dc/dcmitype/StillImage"/>
    <dc:date>2025-10-16T12:50:42.924018</dc:date>
    <dc:format>image/svg+xml</dc:format>
    <dc:creator>
     <cc:Agent>
      <dc:title>Matplotlib v3.7.5, https://matplotlib.org/</dc:title>
     </cc:Agent>
    </dc:creator>
   </cc:Work>
  </rdf:RDF>
 </metadata>
 <defs>
  <style type="text/css">*{stroke-linejoin: round; stroke-linecap: butt}</style>
 </defs>
 <g id="figure_1">
  <g id="patch_1">
   <path d="M 0 432 
L 720 432 
L 720 0 
L 0 0 
z
" style="fill: #ffffff"/>
  </g>
  <g id="axes_1">
   <g id="matplotlib.axis_1"/>
   <g id="matplotlib.axis_2"/>
   <g id="patch_2">
    <path d="M 502.056 218.16 
C 502.056 200.714608 498.625019 183.438318 491.958807 167.316801 
C 485.292595 151.195284 475.520385 136.541079 463.199716 124.190257 
C 450.879046 111.839435 436.248771 102.031435 420.143597 95.325837 
C 404.038422 88.620238 386.77057 85.147039 369.32523 85.104397 
C 351.87989 85.061756 334.595266 88.450497 318.457503 95.077283 
C 302.319739 101.70407 287.641692 111.440431 275.260791 123.730874 
C 262.87989 136.021318 253.036159 150.627575 246.291215 166.716311 
C 239.54627 182.805047 236.030874 200.064358 235.94559 217.509541 
C 235.860306 234.954725 239.206789 252.247581 245.79411 268.401494 
C 252.38143 284.555407 262.081884 299.25721 274.342028 311.668115 
C 286.602172 324.07902 301.184325 333.958424 317.256527 340.742675 
C 333.328728 347.526925 350.579394 351.084498 368.024317 351.212423 
C 385.46924 351.340348 402.770224 348.036144 418.94019 341.488328 
C 435.110156 334.940512 449.835626 325.276023 462.276462 313.046252 
C 474.717298 300.816481 484.632316 286.258519 491.455831 270.202949 
C 498.279346 254.147379 501.879075 236.90546 502.04964 219.460902 
L 369 218.16 
z
" style="fill: #f77189"/>
   </g>
   <g id="patch_3">
    <path d="M 502.04964 219.460902 
C 502.051739 219.246235 502.053319 219.031564 502.054378 218.81689 
C 502.055438 218.602215 502.055979 218.387539 502.055999 218.172862 
L 369 218.16 
z
" style="fill: #bb9832"/>
   </g>
   <g id="patch_4">
    <path d="M 502.055999 218.172862 
C 502.056 218.170715 502.056 218.168569 502.056 218.166422 
C 502.056 218.164275 502.056 218.162128 502.056 218.159982 
L 369 218.16 
z
" style="fill: #50b131"/>
   </g>
   <g id="text_1">
    <text style="fill: #262626; font: 10px 'Arial', 'Liberation Sans', 'DejaVu Sans', 'Bitstream Vera Sans', sans-serif; text-anchor: end" x="222.640149" y="220.030433" transform="rotate(-0 222.640149 220.030433)">newsapi</text>
   </g>
   <g id="text_2">
    <text style="fill: #262626; font: 10px 'Arial', 'Liberation Sans', 'DejaVu Sans', 'Bitstream Vera Sans', sans-serif; text-anchor: middle" x="289.167354" y="220.355662" transform="rotate(-0 289.167354 220.355662)">99.8%</text>
   </g>
   <g id="text_3">
    <text style="fill: #262626; font: 10px 'Arial', 'Liberation Sans', 'DejaVu Sans', 'Bitstream Vera Sans', sans-serif; text-anchor: start" x="515.359816" y="221.468516" transform="rotate(-0 515.359816 221.468516)">chicago_pd</text>
   </g>
   <g id="text_4">
    <text style="fill: #262626; font: 10px 'Arial', 'Liberation Sans', 'DejaVu Sans', 'Bitstream Vera Sans', sans-serif; text-anchor: middle" x="448.832627" y="221.140071" transform="rotate(-0 448.832627 221.140071)">0.2%</text>
   </g>
   <g id="text_5">
    <text style="fill: #262626; font: 10px 'Arial', 'Liberation Sans', 'DejaVu Sans', 'Bitstream Vera Sans', sans-serif; text-anchor: start" x="515.3616" y="220.753002" transform="rotate(-0 515.3616 220.753002)">chicago_police</text>
   </g>
   <g id="text_6">
    <text style="fill: #262626; font: 10px 'Arial', 'Liberation Sans', 'DejaVu Sans', 'Bitstream Vera Sans', sans-serif; text-anchor: middle" x="448.8336" y="220.749791" transform="rotate(-0 448.8336 220.749791)">0.0%</text>
   </g>
   <g id="text_7">
    <text style="fill: #262626; font: 12px 'Arial', 'Liberation Sans', 'DejaVu Sans', 'Bitstream Vera Sans', sans-serif; text-anchor: middle" x="369" y="45.84" transform="rotate(-0 369 45.84)">Incidents by Source</text>
   </g>
  </g>
 </g>
</svg>
