<?xml version="1.0" encoding="utf-8" standalone="no"?>
<!DOCTYPE svg PUBLIC "-//W3C//DTD SVG 1.1//EN"
  "http://www.w3.org/Graphics/SVG/1.1/DTD/svg11.dtd">
<svg xmlns:xlink="http://www.w3.org/1999/xlink" width="720pt" height="432pt" viewBox="0 0 720 432" xmlns="http://www.w3.org/2000/svg" version="1.1">
 <metadata>
  <rdf:RDF xmlns:dc="http://purl.org/dc/elements/1.1/" xmlns:cc="http://creativecommons.org/ns#" xmlns:rdf="http://www.w3.org/1999/02/22-rdf-syntax-ns#">
   <cc:Work>
    <dc:type rdf:resource="http://purl.org/dc/dcmitype/StillImage"/>
    <dc:date>2025-10-11T01:01:21.508537</dc:date>
    <dc:format>image/svg+xml</dc:format>
    <dc:creator>
     <cc:Agent>
      <dc:title>Matplotlib v3.7.5, https://matplotlib.org/</dc:title>
     </cc:Agent>
    </dc:creator>
   </cc:Work>
  </rdf:RDF>
 </metadata>
 <defs>
  <style type="text/css">*{stroke-linejoin: round; stroke-linecap: butt}</style>
 </defs>
 <g id="figure_1">
  <g id="patch_1">
   <path d="M 0 432 
L 720 432 
L 720 0 
L 0 0 
z
" style="fill: #ffffff"/>
  </g>
  <g id="axes_1">
   <g id="matplotlib.axis_1"/>
   <g id="matplotlib.axis_2"/>
   <g id="patch_2">
    <path d="M 502.056 218.16 
C 502.056 200.715064 498.625199 183.439217 491.959325 167.318053 
C 485.293451 151.196889 475.521726 136.542925 463.20163 124.192175 
C 450.881533 111.841425 436.251898 102.033314 420.147349 95.327399 
C 404.0428 88.621484 386.775532 85.147762 369.330649 85.104411 
C 351.885767 85.061059 334.601448 88.448919 318.463769 95.074711 
C 302.32609 101.700502 287.647888 111.435782 275.26656 123.725148 
C 262.885232 136.014514 253.040796 150.619731 246.294881 166.707566 
C 239.548967 182.7954 236.032346 200.053983 235.945643 217.498703 
C 235.858941 234.943424 239.203838 252.236109 245.789506 268.390203 
C 252.375174 284.544298 262.073948 299.246647 274.332508 311.658476 
C 286.591068 324.070306 301.171776 333.951006 317.242797 340.736878 
C 333.313819 347.522751 350.563609 351.08225 368.00806 351.212302 
C 385.452511 351.342355 402.753455 348.040442 418.923865 341.494937 
C 435.094276 334.949433 449.820681 325.287225 462.262935 313.059547 
C 474.705189 300.831869 484.622092 286.27576 491.447881 270.221651 
C 498.27367 254.167543 501.876024 236.926651 502.049427 219.482577 
L 369 218.16 
z
" style="fill: #f77189"/>
   </g>
   <g id="patch_3">
    <path d="M 502.049427 219.482577 
C 502.051596 219.264336 502.053228 219.046091 502.054324 218.827842 
C 502.055419 218.609594 502.055978 218.391343 502.055999 218.173092 
L 369 218.16 
z
" style="fill: #bb9832"/>
   </g>
   <g id="patch_4">
    <path d="M 502.055999 218.173092 
C 502.056 218.170909 502.056 218.168727 502.056 218.166544 
C 502.056 218.164362 502.056 218.162179 502.056 218.159997 
L 369 218.16 
z
" style="fill: #50b131"/>
   </g>
   <g id="text_1">
    <text style="fill: #262626; font: 10px 'Arial', 'Liberation Sans', 'DejaVu Sans', 'Bitstream Vera Sans', sans-serif; text-anchor: end" x="222.640208" y="220.018511" transform="rotate(-0 222.640208 220.018511)">newsapi</text>
   </g>
   <g id="text_2">
    <text style="fill: #262626; font: 10px 'Arial', 'Liberation Sans', 'DejaVu Sans', 'Bitstream Vera Sans', sans-serif; text-anchor: middle" x="289.167386" y="220.34916" transform="rotate(-0 289.167386 220.34916)">99.8%</text>
   </g>
   <g id="text_3">
    <text style="fill: #262626; font: 10px 'Arial', 'Liberation Sans', 'DejaVu Sans', 'Bitstream Vera Sans', sans-serif; text-anchor: start" x="515.359756" y="221.480564" transform="rotate(-0 515.359756 221.480564)">chicago_pd</text>
   </g>
   <g id="text_4">
    <text style="fill: #262626; font: 10px 'Arial', 'Liberation Sans', 'DejaVu Sans', 'Bitstream Vera Sans', sans-serif; text-anchor: middle" x="448.832594" y="221.146643" transform="rotate(-0 448.832594 221.146643)">0.2%</text>
   </g>
   <g id="text_5">
    <text style="fill: #262626; font: 10px 'Arial', 'Liberation Sans', 'DejaVu Sans', 'Bitstream Vera Sans', sans-serif; text-anchor: start" x="515.3616" y="220.753136" transform="rotate(-0 515.3616 220.753136)">chicago_police</text>
   </g>
   <g id="text_6">
    <text style="fill: #262626; font: 10px 'Arial', 'Liberation Sans', 'DejaVu Sans', 'Bitstream Vera Sans', sans-serif; text-anchor: middle" x="448.8336" y="220.749864" transform="rotate(-0 448.8336 220.749864)">0.0%</text>
   </g>
   <g id="text_7">
    <text style="fill: #262626; font: 12px 'Arial', 'Liberation Sans', 'DejaVu Sans', 'Bitstream Vera Sans', sans-serif; text-anchor: middle" x="369" y="45.84" transform="rotate(-0 369 45.84)">Incidents by Source</text>
   </g>
  </g>
 </g>
</svg>
