<?xml version="1.0" encoding="utf-8" standalone="no"?>
<!DOCTYPE svg PUBLIC "-//W3C//DTD SVG 1.1//EN"
  "http://www.w3.org/Graphics/SVG/1.1/DTD/svg11.dtd">
<svg xmlns:xlink="http://www.w3.org/1999/xlink" width="720pt" height="432pt" viewBox="0 0 720 432" xmlns="http://www.w3.org/2000/svg" version="1.1">
 <metadata>
  <rdf:RDF xmlns:dc="http://purl.org/dc/elements/1.1/" xmlns:cc="http://creativecommons.org/ns#" xmlns:rdf="http://www.w3.org/1999/02/22-rdf-syntax-ns#">
   <cc:Work>
    <dc:type rdf:resource="http://purl.org/dc/dcmitype/StillImage"/>
    <dc:date>2026-03-14T13:04:06.921057</dc:date>
    <dc:format>image/svg+xml</dc:format>
    <dc:creator>
     <cc:Agent>
      <dc:title>Matplotlib v3.7.5, https://matplotlib.org/</dc:title>
     </cc:Agent>
    </dc:creator>
   </cc:Work>
  </rdf:RDF>
 </metadata>
 <defs>
  <style type="text/css">*{stroke-linejoin: round; stroke-linecap: butt}</style>
 </defs>
 <g id="figure_1">
  <g id="patch_1">
   <path d="M 0 432 
L 720 432 
L 720 0 
L 0 0 
z
" style="fill: #ffffff"/>
  </g>
  <g id="axes_1">
   <g id="matplotlib.axis_1"/>
   <g id="matplotlib.axis_2"/>
   <g id="patch_2">
    <path d="M 502.056 218.16 
C 502.056 200.706133 498.621685 183.421616 491.949182 167.29353 
C 485.276679 151.165444 475.49547 136.506761 463.164139 124.154606 
C 450.832807 111.802451 436.190648 101.996523 420.073843 95.296817 
C 403.957038 88.597112 386.67834 85.133638 369.224498 85.104189 
C 351.770657 85.07474 334.480369 88.479887 318.341048 95.125169 
C 302.201727 101.77045 287.526561 111.526913 275.153618 123.837385 
C 262.780675 136.147858 252.950055 150.773451 246.223166 166.878929 
C 239.496277 182.984407 236.003655 200.257237 235.944758 217.711004 
C 235.88586 235.164771 239.261828 252.460779 245.87987 268.61129 
C 252.497911 284.7618 262.229599 299.453407 274.519177 311.847103 
C 286.808756 324.2408 301.417742 334.096082 317.511847 340.850135 
C 333.605952 347.604189 350.872865 351.125949 368.326508 351.214295 
C 385.78015 351.302642 403.08183 347.955861 419.243484 341.365079 
C 435.405137 334.774297 450.113143 325.067411 462.527557 312.798761 
C 474.941972 300.530111 484.821889 285.937774 491.603087 269.855088 
C 498.384286 253.772402 501.935175 236.511456 502.05297 219.057987 
L 369 218.16 
z
" style="fill: #f77189"/>
   </g>
   <g id="patch_3">
    <path d="M 502.05297 219.057987 
C 502.05397 218.909806 502.054722 218.761624 502.055227 218.613441 
C 502.055732 218.465258 502.05599 218.317074 502.056 218.16889 
L 369 218.16 
z
" style="fill: #bb9832"/>
   </g>
   <g id="patch_4">
    <path d="M 502.056 218.16889 
C 502.056 218.167408 502.056 218.165926 502.056 218.164444 
C 502.056 218.162963 502.056 218.161481 502.056 218.159999 
L 369 218.16 
z
" style="fill: #50b131"/>
   </g>
   <g id="text_1">
    <text style="fill: #262626; font: 10px 'Arial', 'Liberation Sans', 'DejaVu Sans', 'Bitstream Vera Sans', sans-serif; text-anchor: end" x="222.639233" y="220.252042" transform="rotate(-0 222.639233 220.252042)">newsapi</text>
   </g>
   <g id="text_2">
    <text style="fill: #262626; font: 10px 'Arial', 'Liberation Sans', 'DejaVu Sans', 'Bitstream Vera Sans', sans-serif; text-anchor: middle" x="289.166855" y="220.47654" transform="rotate(-0 289.166855 220.47654)">99.9%</text>
   </g>
   <g id="text_3">
    <text style="fill: #262626; font: 10px 'Arial', 'Liberation Sans', 'DejaVu Sans', 'Bitstream Vera Sans', sans-serif; text-anchor: start" x="515.36075" y="221.244723" transform="rotate(-0 515.36075 221.244723)">chicago_pd</text>
   </g>
   <g id="text_4">
    <text style="fill: #262626; font: 10px 'Arial', 'Liberation Sans', 'DejaVu Sans', 'Bitstream Vera Sans', sans-serif; text-anchor: middle" x="448.833136" y="221.018002" transform="rotate(-0 448.833136 221.018002)">0.1%</text>
   </g>
   <g id="text_5">
    <text style="fill: #262626; font: 10px 'Arial', 'Liberation Sans', 'DejaVu Sans', 'Bitstream Vera Sans', sans-serif; text-anchor: start" x="515.3616" y="220.750826" transform="rotate(-0 515.3616 220.750826)">chicago_police</text>
   </g>
   <g id="text_6">
    <text style="fill: #262626; font: 10px 'Arial', 'Liberation Sans', 'DejaVu Sans', 'Bitstream Vera Sans', sans-serif; text-anchor: middle" x="448.8336" y="220.748604" transform="rotate(-0 448.8336 220.748604)">0.0%</text>
   </g>
   <g id="text_7">
    <text style="fill: #262626; font: 12px 'Arial', 'Liberation Sans', 'DejaVu Sans', 'Bitstream Vera Sans', sans-serif; text-anchor: middle" x="369" y="45.84" transform="rotate(-0 369 45.84)">Incidents by Source</text>
   </g>
  </g>
 </g>
</svg>
