<?xml version="1.0" encoding="utf-8" standalone="no"?>
<!DOCTYPE svg PUBLIC "-//W3C//DTD SVG 1.1//EN"
  "http://www.w3.org/Graphics/SVG/1.1/DTD/svg11.dtd">
<svg xmlns:xlink="http://www.w3.org/1999/xlink" width="720pt" height="432pt" viewBox="0 0 720 432" xmlns="http://www.w3.org/2000/svg" version="1.1">
 <metadata>
  <rdf:RDF xmlns:dc="http://purl.org/dc/elements/1.1/" xmlns:cc="http://creativecommons.org/ns#" xmlns:rdf="http://www.w3.org/1999/02/22-rdf-syntax-ns#">
   <cc:Work>
    <dc:type rdf:resource="http://purl.org/dc/dcmitype/StillImage"/>
    <dc:date>2026-03-20T01:30:16.495920</dc:date>
    <dc:format>image/svg+xml</dc:format>
    <dc:creator>
     <cc:Agent>
      <dc:title>Matplotlib v3.7.5, https://matplotlib.org/</dc:title>
     </cc:Agent>
    </dc:creator>
   </cc:Work>
  </rdf:RDF>
 </metadata>
 <defs>
  <style type="text/css">*{stroke-linejoin: round; stroke-linecap: butt}</style>
 </defs>
 <g id="figure_1">
  <g id="patch_1">
   <path d="M 0 432 
L 720 432 
L 720 0 
L 0 0 
z
" style="fill: #ffffff"/>
  </g>
  <g id="axes_1">
   <g id="matplotlib.axis_1"/>
   <g id="matplotlib.axis_2"/>
   <g id="patch_2">
    <path d="M 502.056 218.16 
C 502.056 200.705971 498.621621 183.421296 491.948998 167.293084 
C 485.276374 151.164872 475.494992 136.506103 463.163456 124.153923 
C 450.831921 111.801742 436.189534 101.995854 420.072506 95.296261 
C 403.955478 88.596669 386.676572 85.133382 369.222567 85.104186 
C 351.768563 85.07499 334.478167 88.480451 318.338816 95.126088 
C 302.199465 101.771724 287.524355 111.528572 275.151565 123.839428 
C 262.778774 136.150284 252.948407 150.776248 246.221864 166.882047 
C 239.495321 182.987846 236.003136 200.260934 235.944745 217.714866 
C 235.886353 235.168797 239.262887 252.464865 245.881517 268.61531 
C 252.500147 284.765754 262.232434 299.457165 274.522576 311.850531 
C 286.812719 324.243897 301.422219 334.098716 317.516744 340.85219 
C 333.611268 347.605664 350.878491 351.126737 368.3323 351.214325 
C 385.786109 351.301912 403.087801 347.954314 419.249295 341.362709 
C 435.410788 334.771104 450.118457 325.063406 462.532364 312.794011 
C 474.946271 300.524616 484.825514 285.931621 491.6059 269.848416 
C 498.386287 253.765211 501.936239 236.503902 502.053022 219.050263 
L 369 218.16 
z
" style="fill: #f77189"/>
   </g>
   <g id="patch_3">
    <path d="M 502.053022 219.050263 
C 502.054005 218.903361 502.054744 218.756456 502.055241 218.609551 
C 502.055737 218.462646 502.05599 218.31574 502.056 218.168834 
L 369 218.16 
z
" style="fill: #bb9832"/>
   </g>
   <g id="patch_4">
    <path d="M 502.056 218.168834 
C 502.056 218.167365 502.056 218.165896 502.056 218.164427 
C 502.056 218.162958 502.056 218.161489 502.056 218.16002 
L 369 218.16 
z
" style="fill: #50b131"/>
   </g>
   <g id="text_1">
    <text style="fill: #262626; font: 10px 'Arial', 'Liberation Sans', 'DejaVu Sans', 'Bitstream Vera Sans', sans-serif; text-anchor: end" x="222.639219" y="220.25629" transform="rotate(-0 222.639219 220.25629)">newsapi</text>
   </g>
   <g id="text_2">
    <text style="fill: #262626; font: 10px 'Arial', 'Liberation Sans', 'DejaVu Sans', 'Bitstream Vera Sans', sans-serif; text-anchor: middle" x="289.166847" y="220.478857" transform="rotate(-0 289.166847 220.478857)">99.9%</text>
   </g>
   <g id="text_3">
    <text style="fill: #262626; font: 10px 'Arial', 'Liberation Sans', 'DejaVu Sans', 'Bitstream Vera Sans', sans-serif; text-anchor: start" x="515.360765" y="221.240444" transform="rotate(-0 515.360765 221.240444)">chicago_pd</text>
   </g>
   <g id="text_4">
    <text style="fill: #262626; font: 10px 'Arial', 'Liberation Sans', 'DejaVu Sans', 'Bitstream Vera Sans', sans-serif; text-anchor: middle" x="448.833144" y="221.015668" transform="rotate(-0 448.833144 221.015668)">0.1%</text>
   </g>
   <g id="text_5">
    <text style="fill: #262626; font: 10px 'Arial', 'Liberation Sans', 'DejaVu Sans', 'Bitstream Vera Sans', sans-serif; text-anchor: start" x="515.3616" y="220.750807" transform="rotate(-0 515.3616 220.750807)">chicago_police</text>
   </g>
   <g id="text_6">
    <text style="fill: #262626; font: 10px 'Arial', 'Liberation Sans', 'DejaVu Sans', 'Bitstream Vera Sans', sans-serif; text-anchor: middle" x="448.8336" y="220.748594" transform="rotate(-0 448.8336 220.748594)">0.0%</text>
   </g>
   <g id="text_7">
    <text style="fill: #262626; font: 12px 'Arial', 'Liberation Sans', 'DejaVu Sans', 'Bitstream Vera Sans', sans-serif; text-anchor: middle" x="369" y="45.84" transform="rotate(-0 369 45.84)">Incidents by Source</text>
   </g>
  </g>
 </g>
</svg>
