<?xml version="1.0" encoding="utf-8" standalone="no"?>
<!DOCTYPE svg PUBLIC "-//W3C//DTD SVG 1.1//EN"
  "http://www.w3.org/Graphics/SVG/1.1/DTD/svg11.dtd">
<svg xmlns:xlink="http://www.w3.org/1999/xlink" width="720pt" height="432pt" viewBox="0 0 720 432" xmlns="http://www.w3.org/2000/svg" version="1.1">
 <metadata>
  <rdf:RDF xmlns:dc="http://purl.org/dc/elements/1.1/" xmlns:cc="http://creativecommons.org/ns#" xmlns:rdf="http://www.w3.org/1999/02/22-rdf-syntax-ns#">
   <cc:Work>
    <dc:type rdf:resource="http://purl.org/dc/dcmitype/StillImage"/>
    <dc:date>2025-11-30T06:22:20.061046</dc:date>
    <dc:format>image/svg+xml</dc:format>
    <dc:creator>
     <cc:Agent>
      <dc:title>Matplotlib v3.7.5, https://matplotlib.org/</dc:title>
     </cc:Agent>
    </dc:creator>
   </cc:Work>
  </rdf:RDF>
 </metadata>
 <defs>
  <style type="text/css">*{stroke-linejoin: round; stroke-linecap: butt}</style>
 </defs>
 <g id="figure_1">
  <g id="patch_1">
   <path d="M 0 432 
L 720 432 
L 720 0 
L 0 0 
z
" style="fill: #ffffff"/>
  </g>
  <g id="axes_1">
   <g id="matplotlib.axis_1"/>
   <g id="matplotlib.axis_2"/>
   <g id="patch_2">
    <path d="M 502.056 218.16 
C 502.056 200.71141 498.623762 183.432016 491.955176 167.30802 
C 485.28659 151.184024 475.510986 136.528129 463.186294 124.176803 
C 450.861601 111.825478 436.226842 102.018259 420.117279 95.314882 
C 404.007716 88.611506 386.735771 85.141976 369.287222 85.10431 
C 351.838673 85.066644 334.55191 88.461575 318.413557 95.095339 
C 302.275203 101.729102 287.59824 111.473047 275.220338 123.771048 
C 262.842437 136.069049 253.003649 150.682604 246.265513 166.777659 
C 239.527378 182.872715 236.020571 200.13713 235.94524 217.585557 
C 235.869909 235.033984 239.227515 252.328035 245.826426 268.480671 
C 252.425338 284.633307 262.137577 299.33127 274.40883 311.73569 
C 286.680083 324.14011 301.272365 334.01042 317.352838 340.783284 
C 333.43331 347.556147 350.690115 351.100214 368.138339 351.21321 
C 385.586562 351.326206 402.887821 348.005939 419.054664 341.441912 
C 435.221507 334.877884 449.940402 325.197394 462.371282 312.952947 
C 474.802162 300.7085 484.70395 286.137558 491.51151 270.071744 
C 498.31907 254.005929 501.90038 236.756815 502.05104 219.308876 
L 369 218.16 
z
" style="fill: #f77189"/>
   </g>
   <g id="patch_3">
    <path d="M 502.05104 219.308876 
C 502.052677 219.1193 502.053909 218.92972 502.054735 218.740139 
C 502.055562 218.550558 502.055983 218.360975 502.056 218.171392 
L 369 218.16 
z
" style="fill: #bb9832"/>
   </g>
   <g id="patch_4">
    <path d="M 502.056 218.171392 
C 502.056 218.169496 502.056 218.1676 502.056 218.165704 
C 502.056 218.163809 502.056 218.161913 502.056 218.160017 
L 369 218.16 
z
" style="fill: #50b131"/>
   </g>
   <g id="text_1">
    <text style="fill: #262626; font: 10px 'Arial', 'Liberation Sans', 'DejaVu Sans', 'Bitstream Vera Sans', sans-serif; text-anchor: end" x="222.639764" y="220.11405" transform="rotate(-0 222.639764 220.11405)">newsapi</text>
   </g>
   <g id="text_2">
    <text style="fill: #262626; font: 10px 'Arial', 'Liberation Sans', 'DejaVu Sans', 'Bitstream Vera Sans', sans-serif; text-anchor: middle" x="289.167144" y="220.401272" transform="rotate(-0 289.167144 220.401272)">99.9%</text>
   </g>
   <g id="text_3">
    <text style="fill: #262626; font: 10px 'Arial', 'Liberation Sans', 'DejaVu Sans', 'Bitstream Vera Sans', sans-serif; text-anchor: start" x="515.360209" y="221.38409" transform="rotate(-0 515.360209 221.38409)">chicago_pd</text>
   </g>
   <g id="text_4">
    <text style="fill: #262626; font: 10px 'Arial', 'Liberation Sans', 'DejaVu Sans', 'Bitstream Vera Sans', sans-serif; text-anchor: middle" x="448.832841" y="221.094021" transform="rotate(-0 448.832841 221.094021)">0.1%</text>
   </g>
   <g id="text_5">
    <text style="fill: #262626; font: 10px 'Arial', 'Liberation Sans', 'DejaVu Sans', 'Bitstream Vera Sans', sans-serif; text-anchor: start" x="515.3616" y="220.752212" transform="rotate(-0 515.3616 220.752212)">chicago_police</text>
   </g>
   <g id="text_6">
    <text style="fill: #262626; font: 10px 'Arial', 'Liberation Sans', 'DejaVu Sans', 'Bitstream Vera Sans', sans-serif; text-anchor: middle" x="448.8336" y="220.74936" transform="rotate(-0 448.8336 220.74936)">0.0%</text>
   </g>
   <g id="text_7">
    <text style="fill: #262626; font: 12px 'Arial', 'Liberation Sans', 'DejaVu Sans', 'Bitstream Vera Sans', sans-serif; text-anchor: middle" x="369" y="45.84" transform="rotate(-0 369 45.84)">Incidents by Source</text>
   </g>
  </g>
 </g>
</svg>
