<?xml version="1.0" encoding="utf-8" standalone="no"?>
<!DOCTYPE svg PUBLIC "-//W3C//DTD SVG 1.1//EN"
  "http://www.w3.org/Graphics/SVG/1.1/DTD/svg11.dtd">
<svg xmlns:xlink="http://www.w3.org/1999/xlink" width="720pt" height="432pt" viewBox="0 0 720 432" xmlns="http://www.w3.org/2000/svg" version="1.1">
 <metadata>
  <rdf:RDF xmlns:dc="http://purl.org/dc/elements/1.1/" xmlns:cc="http://creativecommons.org/ns#" xmlns:rdf="http://www.w3.org/1999/02/22-rdf-syntax-ns#">
   <cc:Work>
    <dc:type rdf:resource="http://purl.org/dc/dcmitype/StillImage"/>
    <dc:date>2025-08-20T12:28:56.513866</dc:date>
    <dc:format>image/svg+xml</dc:format>
    <dc:creator>
     <cc:Agent>
      <dc:title>Matplotlib v3.7.5, https://matplotlib.org/</dc:title>
     </cc:Agent>
    </dc:creator>
   </cc:Work>
  </rdf:RDF>
 </metadata>
 <defs>
  <style type="text/css">*{stroke-linejoin: round; stroke-linecap: butt}</style>
 </defs>
 <g id="figure_1">
  <g id="patch_1">
   <path d="M 0 432 
L 720 432 
L 720 0 
L 0 0 
z
" style="fill: #ffffff"/>
  </g>
  <g id="axes_1">
   <g id="matplotlib.axis_1"/>
   <g id="matplotlib.axis_2"/>
   <g id="patch_2">
    <path d="M 502.056 218.16 
C 502.056 200.721105 498.627574 183.451123 491.966183 167.334643 
C 485.304792 151.218163 475.539479 136.567393 463.226982 124.217597 
C 450.914484 111.867801 436.293318 102.058219 420.197061 95.348111 
C 404.100803 88.638003 386.84127 85.157356 369.402455 85.104609 
C 351.963639 85.051861 334.683366 88.428035 318.546811 95.040648 
C 302.410256 101.653261 287.730016 111.374215 275.343035 123.649302 
C 262.956054 135.924389 253.102292 150.515816 246.343528 166.591704 
C 239.584764 182.667592 236.051929 199.916518 235.946435 217.355094 
C 235.84094 234.79367 239.16483 252.084076 245.728605 268.240559 
C 252.29238 284.397041 261.968886 299.106617 274.20645 311.53067 
C 286.444014 323.954723 301.00557 333.852574 317.060941 340.659932 
C 333.116312 347.46729 350.354474 351.052282 367.792651 351.210522 
C 385.230828 351.368763 402.531208 348.097186 418.70747 341.58231 
C 434.883732 335.067434 449.622509 325.435464 462.08352 313.235535 
C 474.544531 301.035606 484.486382 286.504055 491.342271 270.469347 
C 498.198161 254.43464 501.835277 237.207401 502.046262 219.769782 
L 369 218.16 
z
" style="fill: #f77189"/>
   </g>
   <g id="patch_3">
    <path d="M 502.046262 219.769782 
C 502.049476 219.504151 502.051894 219.238512 502.053517 218.972867 
C 502.05514 218.707222 502.055967 218.441573 502.055999 218.175923 
L 369 218.16 
z
" style="fill: #bb9832"/>
   </g>
   <g id="patch_4">
    <path d="M 502.055999 218.175923 
C 502.055999 218.173267 502.056 218.17061 502.056 218.167954 
C 502.056 218.165297 502.056 218.162641 502.056 218.159984 
L 369 218.16 
z
" style="fill: #50b131"/>
   </g>
   <g id="text_1">
    <text style="fill: #262626; font: 10px 'Arial', 'Liberation Sans', 'DejaVu Sans', 'Bitstream Vera Sans', sans-serif; text-anchor: end" x="222.641078" y="219.860541" transform="rotate(-0 222.641078 219.860541)">newsapi</text>
   </g>
   <g id="text_2">
    <text style="fill: #262626; font: 10px 'Arial', 'Liberation Sans', 'DejaVu Sans', 'Bitstream Vera Sans', sans-serif; text-anchor: middle" x="289.167861" y="220.262994" transform="rotate(-0 289.167861 220.262994)">99.8%</text>
   </g>
   <g id="text_3">
    <text style="fill: #262626; font: 10px 'Arial', 'Liberation Sans', 'DejaVu Sans', 'Bitstream Vera Sans', sans-serif; text-anchor: start" x="515.358869" y="221.640091" transform="rotate(-0 515.358869 221.640091)">chicago_pd</text>
   </g>
   <g id="text_4">
    <text style="fill: #262626; font: 10px 'Arial', 'Liberation Sans', 'DejaVu Sans', 'Bitstream Vera Sans', sans-serif; text-anchor: middle" x="448.83211" y="221.233658" transform="rotate(-0 448.83211 221.233658)">0.2%</text>
   </g>
   <g id="text_5">
    <text style="fill: #262626; font: 10px 'Arial', 'Liberation Sans', 'DejaVu Sans', 'Bitstream Vera Sans', sans-serif; text-anchor: start" x="515.3616" y="220.754686" transform="rotate(-0 515.3616 220.754686)">chicago_police</text>
   </g>
   <g id="text_6">
    <text style="fill: #262626; font: 10px 'Arial', 'Liberation Sans', 'DejaVu Sans', 'Bitstream Vera Sans', sans-serif; text-anchor: middle" x="448.8336" y="220.75071" transform="rotate(-0 448.8336 220.75071)">0.0%</text>
   </g>
   <g id="text_7">
    <text style="fill: #262626; font: 12px 'Arial', 'Liberation Sans', 'DejaVu Sans', 'Bitstream Vera Sans', sans-serif; text-anchor: middle" x="369" y="45.84" transform="rotate(-0 369 45.84)">Incidents by Source</text>
   </g>
  </g>
 </g>
</svg>
