<?xml version="1.0" encoding="utf-8" standalone="no"?>
<!DOCTYPE svg PUBLIC "-//W3C//DTD SVG 1.1//EN"
  "http://www.w3.org/Graphics/SVG/1.1/DTD/svg11.dtd">
<svg xmlns:xlink="http://www.w3.org/1999/xlink" width="720pt" height="432pt" viewBox="0 0 720 432" xmlns="http://www.w3.org/2000/svg" version="1.1">
 <metadata>
  <rdf:RDF xmlns:dc="http://purl.org/dc/elements/1.1/" xmlns:cc="http://creativecommons.org/ns#" xmlns:rdf="http://www.w3.org/1999/02/22-rdf-syntax-ns#">
   <cc:Work>
    <dc:type rdf:resource="http://purl.org/dc/dcmitype/StillImage"/>
    <dc:date>2025-05-24T06:18:05.717331</dc:date>
    <dc:format>image/svg+xml</dc:format>
    <dc:creator>
     <cc:Agent>
      <dc:title>Matplotlib v3.7.5, https://matplotlib.org/</dc:title>
     </cc:Agent>
    </dc:creator>
   </cc:Work>
  </rdf:RDF>
 </metadata>
 <defs>
  <style type="text/css">*{stroke-linejoin: round; stroke-linecap: butt}</style>
 </defs>
 <g id="figure_1">
  <g id="patch_1">
   <path d="M 0 432 
L 720 432 
L 720 0 
L 0 0 
z
" style="fill: #ffffff"/>
  </g>
  <g id="axes_1">
   <g id="matplotlib.axis_1"/>
   <g id="matplotlib.axis_2"/>
   <g id="patch_2">
    <path d="M 502.056 218.16 
C 502.056 200.739279 498.634717 183.486942 491.986803 167.384558 
C 485.338889 151.282174 475.592859 136.641027 463.303212 124.294121 
C 451.013565 111.947214 436.417878 102.133234 420.346569 95.410544 
C 404.27526 88.687854 387.039013 85.186414 369.61848 85.105437 
C 352.197947 85.024461 334.929894 88.365514 318.796783 94.938508 
C 302.663672 101.511502 287.97738 111.18937 275.573482 123.421493 
C 263.169583 135.653615 253.287864 150.203527 246.490543 166.243413 
C 239.693221 182.283299 236.1117 199.503084 235.94975 216.923053 
C 235.787799 234.343021 239.048549 251.626418 245.546481 267.789908 
C 252.044412 283.953398 261.65391 298.684516 273.828244 311.145139 
C 286.002578 323.605762 300.5064 333.555006 316.514517 340.426811 
C 332.522634 347.298617 349.725585 350.960142 367.144612 351.203063 
C 384.56364 351.445985 401.862007 348.265608 418.055526 341.842879 
C 434.249046 335.42015 449.024672 325.87923 461.54175 313.762948 
C 474.058828 301.646666 484.075382 287.189248 491.021524 271.213246 
C 497.967665 255.237243 501.709114 238.051498 502.033002 220.633788 
L 369 218.16 
z
" style="fill: #f77189"/>
   </g>
   <g id="patch_3">
    <path d="M 502.033002 220.633788 
C 502.040592 220.225619 502.046303 219.817417 502.050136 219.409196 
C 502.053969 219.000975 502.055923 218.592738 502.055998 218.184499 
L 369 218.16 
z
" style="fill: #bb9832"/>
   </g>
   <g id="patch_4">
    <path d="M 502.055998 218.184499 
C 502.055998 218.180416 502.055999 218.176334 502.055999 218.172251 
C 502.056 218.168169 502.056 218.164087 502.056 218.160004 
L 369 218.16 
z
" style="fill: #50b131"/>
   </g>
   <g id="text_1">
    <text style="fill: #262626; font: 10px 'Arial', 'Liberation Sans', 'DejaVu Sans', 'Bitstream Vera Sans', sans-serif; text-anchor: end" x="222.644725" y="219.385295" transform="rotate(-0 222.644725 219.385295)">newsapi</text>
   </g>
   <g id="text_2">
    <text style="fill: #262626; font: 10px 'Arial', 'Liberation Sans', 'DejaVu Sans', 'Bitstream Vera Sans', sans-serif; text-anchor: middle" x="289.16985" y="220.003769" transform="rotate(-0 289.16985 220.003769)">99.7%</text>
   </g>
   <g id="text_3">
    <text style="fill: #262626; font: 10px 'Arial', 'Liberation Sans', 'DejaVu Sans', 'Bitstream Vera Sans', sans-serif; text-anchor: start" x="515.355149" y="222.120053" transform="rotate(-0 515.355149 222.120053)">chicago_pd</text>
   </g>
   <g id="text_4">
    <text style="fill: #262626; font: 10px 'Arial', 'Liberation Sans', 'DejaVu Sans', 'Bitstream Vera Sans', sans-serif; text-anchor: middle" x="448.830081" y="221.495455" transform="rotate(-0 448.830081 221.495455)">0.3%</text>
   </g>
   <g id="text_5">
    <text style="fill: #262626; font: 10px 'Arial', 'Liberation Sans', 'DejaVu Sans', 'Bitstream Vera Sans', sans-serif; text-anchor: start" x="515.361599" y="220.759414" transform="rotate(-0 515.361599 220.759414)">chicago_police</text>
   </g>
   <g id="text_6">
    <text style="fill: #262626; font: 10px 'Arial', 'Liberation Sans', 'DejaVu Sans', 'Bitstream Vera Sans', sans-serif; text-anchor: middle" x="448.8336" y="220.753288" transform="rotate(-0 448.8336 220.753288)">0.0%</text>
   </g>
   <g id="text_7">
    <text style="fill: #262626; font: 12px 'Arial', 'Liberation Sans', 'DejaVu Sans', 'Bitstream Vera Sans', sans-serif; text-anchor: middle" x="369" y="45.84" transform="rotate(-0 369 45.84)">Incidents by Source</text>
   </g>
  </g>
 </g>
</svg>
