<?xml version="1.0" encoding="utf-8" standalone="no"?>
<!DOCTYPE svg PUBLIC "-//W3C//DTD SVG 1.1//EN"
  "http://www.w3.org/Graphics/SVG/1.1/DTD/svg11.dtd">
<svg xmlns:xlink="http://www.w3.org/1999/xlink" width="720pt" height="432pt" viewBox="0 0 720 432" xmlns="http://www.w3.org/2000/svg" version="1.1">
 <metadata>
  <rdf:RDF xmlns:dc="http://purl.org/dc/elements/1.1/" xmlns:cc="http://creativecommons.org/ns#" xmlns:rdf="http://www.w3.org/1999/02/22-rdf-syntax-ns#">
   <cc:Work>
    <dc:type rdf:resource="http://purl.org/dc/dcmitype/StillImage"/>
    <dc:date>2025-04-14T12:27:06.492004</dc:date>
    <dc:format>image/svg+xml</dc:format>
    <dc:creator>
     <cc:Agent>
      <dc:title>Matplotlib v3.7.5, https://matplotlib.org/</dc:title>
     </cc:Agent>
    </dc:creator>
   </cc:Work>
  </rdf:RDF>
 </metadata>
 <defs>
  <style type="text/css">*{stroke-linejoin: round; stroke-linecap: butt}</style>
 </defs>
 <g id="figure_1">
  <g id="patch_1">
   <path d="M 0 432 
L 720 432 
L 720 0 
L 0 0 
z
" style="fill: #ffffff"/>
  </g>
  <g id="axes_1">
   <g id="matplotlib.axis_1"/>
   <g id="matplotlib.axis_2"/>
   <g id="patch_2">
    <path d="M 502.056 218.16 
C 502.056 200.755291 498.641003 183.518503 492.004954 167.428546 
C 485.368904 151.338588 475.639851 136.705933 463.370327 124.361596 
C 451.100802 112.01726 436.527557 102.199438 420.478236 95.465704 
C 404.428915 88.73197 387.213204 85.212258 369.808817 85.106458 
C 352.40443 85.000659 335.147201 88.310814 319.017202 94.848934 
C 302.887203 101.387053 288.195677 111.026978 275.776985 123.221238 
C 263.358293 135.415497 253.452065 149.928792 246.620895 165.936884 
C 239.789726 181.944976 236.165428 199.138973 235.953833 216.542395 
C 235.742239 233.945818 238.94743 251.22285 245.387378 267.392294 
C 251.827326 283.561739 261.377766 298.311593 273.49631 310.804181 
C 285.614854 323.29677 300.067663 333.291038 316.033934 340.219391 
C 332.000205 347.147744 349.171853 350.876493 366.573668 351.193876 
C 383.975482 351.511258 401.271679 348.411149 417.479972 342.06961 
C 433.688265 335.728071 448.495901 326.267469 461.061924 314.225088 
C 473.627948 302.182708 483.709887 287.790919 490.735167 271.867059 
C 497.760448 255.943199 501.59351 238.794534 502.016669 221.39497 
L 369 218.16 
z
" style="fill: #f77189"/>
   </g>
   <g id="patch_3">
    <path d="M 502.016669 221.39497 
C 502.029649 220.861252 502.039416 220.32746 502.045971 219.793624 
C 502.052526 219.259788 502.055868 218.725918 502.055996 218.192042 
L 369 218.16 
z
" style="fill: #bb9832"/>
   </g>
   <g id="patch_4">
    <path d="M 502.055996 218.192042 
C 502.055997 218.186703 502.055998 218.181364 502.055999 218.176025 
C 502.056 218.170687 502.056 218.165348 502.056 218.160009 
L 369 218.16 
z
" style="fill: #50b131"/>
   </g>
   <g id="text_1">
    <text style="fill: #262626; font: 10px 'Arial', 'Liberation Sans', 'DejaVu Sans', 'Bitstream Vera Sans', sans-serif; text-anchor: end" x="222.649217" y="218.966572" transform="rotate(-0 222.649217 218.966572)">newsapi</text>
   </g>
   <g id="text_2">
    <text style="fill: #262626; font: 10px 'Arial', 'Liberation Sans', 'DejaVu Sans', 'Bitstream Vera Sans', sans-serif; text-anchor: middle" x="289.1723" y="219.775375" transform="rotate(-0 289.1723 219.775375)">99.6%</text>
   </g>
   <g id="text_3">
    <text style="fill: #262626; font: 10px 'Arial', 'Liberation Sans', 'DejaVu Sans', 'Bitstream Vera Sans', sans-serif; text-anchor: start" x="515.350568" y="222.542924" transform="rotate(-0 515.350568 222.542924)">chicago_pd</text>
   </g>
   <g id="text_4">
    <text style="fill: #262626; font: 10px 'Arial', 'Liberation Sans', 'DejaVu Sans', 'Bitstream Vera Sans', sans-serif; text-anchor: middle" x="448.827583" y="221.726112" transform="rotate(-0 448.827583 221.726112)">0.4%</text>
   </g>
   <g id="text_5">
    <text style="fill: #262626; font: 10px 'Arial', 'Liberation Sans', 'DejaVu Sans', 'Bitstream Vera Sans', sans-serif; text-anchor: start" x="515.361599" y="220.763566" transform="rotate(-0 515.361599 220.763566)">chicago_police</text>
   </g>
   <g id="text_6">
    <text style="fill: #262626; font: 10px 'Arial', 'Liberation Sans', 'DejaVu Sans', 'Bitstream Vera Sans', sans-serif; text-anchor: middle" x="448.833599" y="220.755553" transform="rotate(-0 448.833599 220.755553)">0.0%</text>
   </g>
   <g id="text_7">
    <text style="fill: #262626; font: 12px 'Arial', 'Liberation Sans', 'DejaVu Sans', 'Bitstream Vera Sans', sans-serif; text-anchor: middle" x="369" y="45.84" transform="rotate(-0 369 45.84)">Incidents by Source</text>
   </g>
  </g>
 </g>
</svg>
