<?xml version="1.0" encoding="utf-8" standalone="no"?>
<!DOCTYPE svg PUBLIC "-//W3C//DTD SVG 1.1//EN"
  "http://www.w3.org/Graphics/SVG/1.1/DTD/svg11.dtd">
<svg xmlns:xlink="http://www.w3.org/1999/xlink" width="720pt" height="432pt" viewBox="0 0 720 432" xmlns="http://www.w3.org/2000/svg" version="1.1">
 <metadata>
  <rdf:RDF xmlns:dc="http://purl.org/dc/elements/1.1/" xmlns:cc="http://creativecommons.org/ns#" xmlns:rdf="http://www.w3.org/1999/02/22-rdf-syntax-ns#">
   <cc:Work>
    <dc:type rdf:resource="http://purl.org/dc/dcmitype/StillImage"/>
    <dc:date>2025-12-23T02:01:30.187783</dc:date>
    <dc:format>image/svg+xml</dc:format>
    <dc:creator>
     <cc:Agent>
      <dc:title>Matplotlib v3.7.5, https://matplotlib.org/</dc:title>
     </cc:Agent>
    </dc:creator>
   </cc:Work>
  </rdf:RDF>
 </metadata>
 <defs>
  <style type="text/css">*{stroke-linejoin: round; stroke-linecap: butt}</style>
 </defs>
 <g id="figure_1">
  <g id="patch_1">
   <path d="M 0 432 
L 720 432 
L 720 0 
L 0 0 
z
" style="fill: #ffffff"/>
  </g>
  <g id="axes_1">
   <g id="matplotlib.axis_1"/>
   <g id="matplotlib.axis_2"/>
   <g id="patch_2">
    <path d="M 502.056 218.16 
C 502.056 200.709919 498.623175 183.429077 491.953482 167.303925 
C 485.28379 151.178773 475.506601 136.52209 463.180033 124.170529 
C 450.853464 111.818969 436.216614 102.012115 420.105004 95.309775 
C 403.993394 88.607436 386.71954 85.139617 369.269495 85.104273 
C 351.81945 85.068929 334.53169 88.466746 318.393063 95.103765 
C 302.254435 101.740783 287.577978 111.488266 275.201477 123.789792 
C 262.824975 136.091318 252.988495 150.708275 246.253537 166.806277 
C 239.518578 182.904279 236.015779 200.171073 235.945092 217.621011 
C 235.874404 235.070949 239.237199 252.365555 245.841517 268.517592 
C 252.445834 284.66963 262.163571 299.365799 274.440003 311.767191 
C 286.716436 324.168583 301.313441 334.034648 317.397768 340.802198 
C 333.482096 347.569748 350.74176 351.107513 368.191519 351.213544 
C 385.641278 351.319575 402.94266 347.991816 419.108041 341.420226 
C 435.273422 334.848637 449.989243 325.160687 462.415475 312.909397 
C 474.841706 300.658107 484.737317 286.081116 491.53743 270.010529 
C 498.337544 253.939941 501.910259 236.687478 502.051633 219.237969 
L 369 218.16 
z
" style="fill: #f77189"/>
   </g>
   <g id="patch_3">
    <path d="M 502.051633 219.237969 
C 502.053074 219.060087 502.054159 218.882203 502.054887 218.704316 
C 502.055614 218.52643 502.055985 218.348542 502.056 218.170655 
L 369 218.16 
z
" style="fill: #bb9832"/>
   </g>
   <g id="patch_4">
    <path d="M 502.056 218.170655 
C 502.056 218.168876 502.056 218.167097 502.056 218.165318 
C 502.056 218.163539 502.056 218.16176 502.056 218.159981 
L 369 218.16 
z
" style="fill: #50b131"/>
   </g>
   <g id="text_1">
    <text style="fill: #262626; font: 10px 'Arial', 'Liberation Sans', 'DejaVu Sans', 'Bitstream Vera Sans', sans-serif; text-anchor: end" x="222.639601" y="220.153049" transform="rotate(-0 222.639601 220.153049)">newsapi</text>
   </g>
   <g id="text_2">
    <text style="fill: #262626; font: 10px 'Arial', 'Liberation Sans', 'DejaVu Sans', 'Bitstream Vera Sans', sans-serif; text-anchor: middle" x="289.167055" y="220.422544" transform="rotate(-0 289.167055 220.422544)">99.9%</text>
   </g>
   <g id="text_3">
    <text style="fill: #262626; font: 10px 'Arial', 'Liberation Sans', 'DejaVu Sans', 'Bitstream Vera Sans', sans-serif; text-anchor: start" x="515.360375" y="221.344686" transform="rotate(-0 515.360375 221.344686)">chicago_pd</text>
   </g>
   <g id="text_4">
    <text style="fill: #262626; font: 10px 'Arial', 'Liberation Sans', 'DejaVu Sans', 'Bitstream Vera Sans', sans-serif; text-anchor: middle" x="448.832932" y="221.072527" transform="rotate(-0 448.832932 221.072527)">0.1%</text>
   </g>
   <g id="text_5">
    <text style="fill: #262626; font: 10px 'Arial', 'Liberation Sans', 'DejaVu Sans', 'Bitstream Vera Sans', sans-serif; text-anchor: start" x="515.3616" y="220.751787" transform="rotate(-0 515.3616 220.751787)">chicago_police</text>
   </g>
   <g id="text_6">
    <text style="fill: #262626; font: 10px 'Arial', 'Liberation Sans', 'DejaVu Sans', 'Bitstream Vera Sans', sans-serif; text-anchor: middle" x="448.8336" y="220.749128" transform="rotate(-0 448.8336 220.749128)">0.0%</text>
   </g>
   <g id="text_7">
    <text style="fill: #262626; font: 12px 'Arial', 'Liberation Sans', 'DejaVu Sans', 'Bitstream Vera Sans', sans-serif; text-anchor: middle" x="369" y="45.84" transform="rotate(-0 369 45.84)">Incidents by Source</text>
   </g>
  </g>
 </g>
</svg>
