<?xml version="1.0" encoding="utf-8" standalone="no"?>
<!DOCTYPE svg PUBLIC "-//W3C//DTD SVG 1.1//EN"
  "http://www.w3.org/Graphics/SVG/1.1/DTD/svg11.dtd">
<svg xmlns:xlink="http://www.w3.org/1999/xlink" width="720pt" height="432pt" viewBox="0 0 720 432" xmlns="http://www.w3.org/2000/svg" version="1.1">
 <metadata>
  <rdf:RDF xmlns:dc="http://purl.org/dc/elements/1.1/" xmlns:cc="http://creativecommons.org/ns#" xmlns:rdf="http://www.w3.org/1999/02/22-rdf-syntax-ns#">
   <cc:Work>
    <dc:type rdf:resource="http://purl.org/dc/dcmitype/StillImage"/>
    <dc:date>2025-08-21T01:05:26.434703</dc:date>
    <dc:format>image/svg+xml</dc:format>
    <dc:creator>
     <cc:Agent>
      <dc:title>Matplotlib v3.7.5, https://matplotlib.org/</dc:title>
     </cc:Agent>
    </dc:creator>
   </cc:Work>
  </rdf:RDF>
 </metadata>
 <defs>
  <style type="text/css">*{stroke-linejoin: round; stroke-linecap: butt}</style>
 </defs>
 <g id="figure_1">
  <g id="patch_1">
   <path d="M 0 432 
L 720 432 
L 720 0 
L 0 0 
z
" style="fill: #ffffff"/>
  </g>
  <g id="axes_1">
   <g id="matplotlib.axis_1"/>
   <g id="matplotlib.axis_2"/>
   <g id="patch_2">
    <path d="M 502.056 218.16 
C 502.056 200.721038 498.627548 183.450991 491.966107 167.334459 
C 485.304666 151.217927 475.539282 136.567121 463.2267 124.217315 
C 450.914118 111.867508 436.292858 102.057943 420.196509 95.347881 
C 404.100159 88.637819 386.84054 85.157249 369.401657 85.104606 
C 351.962775 85.051963 334.682457 88.428266 318.545889 95.041026 
C 302.409322 101.653785 287.729104 111.374898 275.342186 123.650143 
C 262.955267 135.925389 253.101609 150.51697 246.342988 166.59299 
C 239.584366 182.669011 236.051711 199.918045 235.946425 217.356689 
C 235.841139 234.795333 239.165263 252.085765 245.72928 268.242221 
C 252.293298 284.398677 261.970051 299.108172 274.207848 311.53209 
C 286.445646 323.956007 301.007414 333.853668 317.06296 340.660788 
C 333.118505 347.467907 350.356795 351.052616 367.795042 351.210544 
C 385.23329 351.368471 402.533677 348.096558 418.709874 341.581342 
C 434.886071 335.066125 449.624711 325.43382 462.085514 313.233583 
C 474.546317 301.033346 484.487891 286.501521 491.343447 270.466598 
C 498.199002 254.431675 501.835732 237.204284 502.0463 219.766593 
L 369 218.16 
z
" style="fill: #f77189"/>
   </g>
   <g id="patch_3">
    <path d="M 502.0463 219.766593 
C 502.049501 219.501488 502.05191 219.236374 502.053527 218.971255 
C 502.055143 218.706136 502.055967 218.441012 502.055999 218.175888 
L 369 218.16 
z
" style="fill: #bb9832"/>
   </g>
   <g id="patch_4">
    <path d="M 502.055999 218.175888 
C 502.055999 218.173237 502.056 218.170586 502.056 218.167934 
C 502.056 218.165283 502.056 218.162632 502.056 218.159981 
L 369 218.16 
z
" style="fill: #50b131"/>
   </g>
   <g id="text_1">
    <text style="fill: #262626; font: 10px 'Arial', 'Liberation Sans', 'DejaVu Sans', 'Bitstream Vera Sans', sans-serif; text-anchor: end" x="222.641067" y="219.862295" transform="rotate(-0 222.641067 219.862295)">newsapi</text>
   </g>
   <g id="text_2">
    <text style="fill: #262626; font: 10px 'Arial', 'Liberation Sans', 'DejaVu Sans', 'Bitstream Vera Sans', sans-serif; text-anchor: middle" x="289.167855" y="220.263951" transform="rotate(-0 289.167855 220.263951)">99.8%</text>
   </g>
   <g id="text_3">
    <text style="fill: #262626; font: 10px 'Arial', 'Liberation Sans', 'DejaVu Sans', 'Bitstream Vera Sans', sans-serif; text-anchor: start" x="515.35888" y="221.638318" transform="rotate(-0 515.35888 221.638318)">chicago_pd</text>
   </g>
   <g id="text_4">
    <text style="fill: #262626; font: 10px 'Arial', 'Liberation Sans', 'DejaVu Sans', 'Bitstream Vera Sans', sans-serif; text-anchor: middle" x="448.832116" y="221.23269" transform="rotate(-0 448.832116 221.23269)">0.2%</text>
   </g>
   <g id="text_5">
    <text style="fill: #262626; font: 10px 'Arial', 'Liberation Sans', 'DejaVu Sans', 'Bitstream Vera Sans', sans-serif; text-anchor: start" x="515.3616" y="220.754665" transform="rotate(-0 515.3616 220.754665)">chicago_police</text>
   </g>
   <g id="text_6">
    <text style="fill: #262626; font: 10px 'Arial', 'Liberation Sans', 'DejaVu Sans', 'Bitstream Vera Sans', sans-serif; text-anchor: middle" x="448.8336" y="220.750698" transform="rotate(-0 448.8336 220.750698)">0.0%</text>
   </g>
   <g id="text_7">
    <text style="fill: #262626; font: 12px 'Arial', 'Liberation Sans', 'DejaVu Sans', 'Bitstream Vera Sans', sans-serif; text-anchor: middle" x="369" y="45.84" transform="rotate(-0 369 45.84)">Incidents by Source</text>
   </g>
  </g>
 </g>
</svg>
