<?xml version="1.0" encoding="utf-8" standalone="no"?>
<!DOCTYPE svg PUBLIC "-//W3C//DTD SVG 1.1//EN"
  "http://www.w3.org/Graphics/SVG/1.1/DTD/svg11.dtd">
<svg xmlns:xlink="http://www.w3.org/1999/xlink" width="720pt" height="432pt" viewBox="0 0 720 432" xmlns="http://www.w3.org/2000/svg" version="1.1">
 <metadata>
  <rdf:RDF xmlns:dc="http://purl.org/dc/elements/1.1/" xmlns:cc="http://creativecommons.org/ns#" xmlns:rdf="http://www.w3.org/1999/02/22-rdf-syntax-ns#">
   <cc:Work>
    <dc:type rdf:resource="http://purl.org/dc/dcmitype/StillImage"/>
    <dc:date>2026-05-06T02:13:53.577325</dc:date>
    <dc:format>image/svg+xml</dc:format>
    <dc:creator>
     <cc:Agent>
      <dc:title>Matplotlib v3.7.5, https://matplotlib.org/</dc:title>
     </cc:Agent>
    </dc:creator>
   </cc:Work>
  </rdf:RDF>
 </metadata>
 <defs>
  <style type="text/css">*{stroke-linejoin: round; stroke-linecap: butt}</style>
 </defs>
 <g id="figure_1">
  <g id="patch_1">
   <path d="M 0 432 
L 720 432 
L 720 0 
L 0 0 
z
" style="fill: #ffffff"/>
  </g>
  <g id="axes_1">
   <g id="matplotlib.axis_1"/>
   <g id="matplotlib.axis_2"/>
   <g id="patch_2">
    <path d="M 502.056 218.16 
C 502.056 200.704482 498.621035 183.418361 491.947306 167.288995 
C 485.273576 151.159629 475.490612 136.500073 463.157203 124.147659 
C 450.823793 111.795245 436.179317 101.989722 420.060246 95.291166 
C 403.941174 88.59261 386.660363 85.131034 369.204865 85.104158 
C 351.749368 85.077282 334.457978 88.485627 318.318356 95.134514 
C 302.178733 101.783402 287.504132 111.543783 275.132743 123.858159 
C 262.761354 136.172535 252.933295 150.801896 246.209928 166.910635 
C 239.486562 183.019373 235.998383 200.294835 235.944631 217.75027 
C 235.890879 235.205706 239.272597 252.502322 245.896626 268.652163 
C 252.520656 284.802003 262.258431 299.491615 274.553744 311.88195 
C 286.849057 324.272284 301.463269 334.122857 317.561636 340.871018 
C 333.660004 347.619179 350.930074 351.133952 368.385406 351.214581 
C 385.840738 351.295209 403.142541 347.940126 419.302562 341.34097 
C 435.462582 334.741814 450.16717 325.026668 462.576421 312.750447 
C 474.985671 300.474226 484.858734 285.875198 491.631673 269.78724 
C 498.404613 253.699281 501.945973 236.434643 502.053477 218.979456 
L 369 218.16 
z
" style="fill: #f77189"/>
   </g>
   <g id="patch_3">
    <path d="M 502.053477 218.979456 
C 502.054309 218.844232 502.054936 218.709007 502.055357 218.573781 
C 502.055777 218.438555 502.055992 218.303329 502.056 218.168103 
L 369 218.16 
z
" style="fill: #bb9832"/>
   </g>
   <g id="patch_4">
    <path d="M 502.056 218.168103 
C 502.056 218.16675 502.056 218.165398 502.056 218.164046 
C 502.056 218.162694 502.056 218.161341 502.056 218.159989 
L 369 218.16 
z
" style="fill: #50b131"/>
   </g>
   <g id="text_1">
    <text style="fill: #262626; font: 10px 'Arial', 'Liberation Sans', 'DejaVu Sans', 'Bitstream Vera Sans', sans-serif; text-anchor: end" x="222.639094" y="220.295235" transform="rotate(-0 222.639094 220.295235)">newsapi</text>
   </g>
   <g id="text_2">
    <text style="fill: #262626; font: 10px 'Arial', 'Liberation Sans', 'DejaVu Sans', 'Bitstream Vera Sans', sans-serif; text-anchor: middle" x="289.166779" y="220.5001" transform="rotate(-0 289.166779 220.5001)">99.9%</text>
   </g>
   <g id="text_3">
    <text style="fill: #262626; font: 10px 'Arial', 'Liberation Sans', 'DejaVu Sans', 'Bitstream Vera Sans', sans-serif; text-anchor: start" x="515.360892" y="221.201097" transform="rotate(-0 515.360892 221.201097)">chicago_pd</text>
   </g>
   <g id="text_4">
    <text style="fill: #262626; font: 10px 'Arial', 'Liberation Sans', 'DejaVu Sans', 'Bitstream Vera Sans', sans-serif; text-anchor: middle" x="448.833214" y="220.994206" transform="rotate(-0 448.833214 220.994206)">0.1%</text>
   </g>
   <g id="text_5">
    <text style="fill: #262626; font: 10px 'Arial', 'Liberation Sans', 'DejaVu Sans', 'Bitstream Vera Sans', sans-serif; text-anchor: start" x="515.3616" y="220.750388" transform="rotate(-0 515.3616 220.750388)">chicago_police</text>
   </g>
   <g id="text_6">
    <text style="fill: #262626; font: 10px 'Arial', 'Liberation Sans', 'DejaVu Sans', 'Bitstream Vera Sans', sans-serif; text-anchor: middle" x="448.8336" y="220.748365" transform="rotate(-0 448.8336 220.748365)">0.0%</text>
   </g>
   <g id="text_7">
    <text style="fill: #262626; font: 12px 'Arial', 'Liberation Sans', 'DejaVu Sans', 'Bitstream Vera Sans', sans-serif; text-anchor: middle" x="369" y="45.84" transform="rotate(-0 369 45.84)">Incidents by Source</text>
   </g>
  </g>
 </g>
</svg>
