<?xml version="1.0" encoding="utf-8" standalone="no"?>
<!DOCTYPE svg PUBLIC "-//W3C//DTD SVG 1.1//EN"
  "http://www.w3.org/Graphics/SVG/1.1/DTD/svg11.dtd">
<svg xmlns:xlink="http://www.w3.org/1999/xlink" width="720pt" height="432pt" viewBox="0 0 720 432" xmlns="http://www.w3.org/2000/svg" version="1.1">
 <metadata>
  <rdf:RDF xmlns:dc="http://purl.org/dc/elements/1.1/" xmlns:cc="http://creativecommons.org/ns#" xmlns:rdf="http://www.w3.org/1999/02/22-rdf-syntax-ns#">
   <cc:Work>
    <dc:type rdf:resource="http://purl.org/dc/dcmitype/StillImage"/>
    <dc:date>2025-12-09T06:25:08.250003</dc:date>
    <dc:format>image/svg+xml</dc:format>
    <dc:creator>
     <cc:Agent>
      <dc:title>Matplotlib v3.7.5, https://matplotlib.org/</dc:title>
     </cc:Agent>
    </dc:creator>
   </cc:Work>
  </rdf:RDF>
 </metadata>
 <defs>
  <style type="text/css">*{stroke-linejoin: round; stroke-linecap: butt}</style>
 </defs>
 <g id="figure_1">
  <g id="patch_1">
   <path d="M 0 432 
L 720 432 
L 720 0 
L 0 0 
z
" style="fill: #ffffff"/>
  </g>
  <g id="axes_1">
   <g id="matplotlib.axis_1"/>
   <g id="matplotlib.axis_2"/>
   <g id="patch_2">
    <path d="M 502.056 218.16 
C 502.056 200.710922 498.623569 183.431054 491.954621 167.306679 
C 485.285673 151.182305 475.50955 136.526151 463.184243 124.174749 
C 450.858937 111.823346 436.223493 102.016247 420.113259 95.31321 
C 404.003026 88.610173 386.730456 85.141203 369.281417 85.104298 
C 351.832378 85.067392 334.545289 88.463268 318.406845 95.098098 
C 302.268402 101.732927 287.591604 111.478031 275.214161 123.777186 
C 262.836718 136.076341 252.998686 150.69101 246.261591 166.787031 
C 239.524495 182.883051 236.019001 200.148245 235.94519 217.597167 
C 235.87138 235.046089 239.230685 252.340322 245.831367 268.492762 
C 252.432049 284.645202 262.146088 299.342578 274.419038 311.746007 
C 286.691987 324.149435 301.285815 334.018356 317.367551 340.78948 
C 333.449286 347.560603 350.707027 351.102606 368.155754 351.213322 
C 385.604481 351.324037 402.90578 348.001317 419.072145 341.434813 
C 435.238509 334.868309 449.956398 325.185376 462.385756 312.938688 
C 474.815115 300.692 484.71488 286.119077 491.520001 270.051699 
C 498.325123 253.98432 501.903619 236.734109 502.051238 219.285655 
L 369 218.16 
z
" style="fill: #f77189"/>
   </g>
   <g id="patch_3">
    <path d="M 502.051238 219.285655 
C 502.05281 219.099911 502.053992 218.914163 502.054786 218.728413 
C 502.055579 218.542663 502.055984 218.356911 502.056 218.17116 
L 369 218.16 
z
" style="fill: #bb9832"/>
   </g>
   <g id="patch_4">
    <path d="M 502.056 218.17116 
C 502.056 218.169302 502.056 218.167445 502.056 218.165587 
C 502.056 218.16373 502.056 218.161872 502.056 218.160015 
L 369 218.16 
z
" style="fill: #50b131"/>
   </g>
   <g id="text_1">
    <text style="fill: #262626; font: 10px 'Arial', 'Liberation Sans', 'DejaVu Sans', 'Bitstream Vera Sans', sans-serif; text-anchor: end" x="222.639709" y="220.126821" transform="rotate(-0 222.639709 220.126821)">newsapi</text>
   </g>
   <g id="text_2">
    <text style="fill: #262626; font: 10px 'Arial', 'Liberation Sans', 'DejaVu Sans', 'Bitstream Vera Sans', sans-serif; text-anchor: middle" x="289.167114" y="220.408238" transform="rotate(-0 289.167114 220.408238)">99.9%</text>
   </g>
   <g id="text_3">
    <text style="fill: #262626; font: 10px 'Arial', 'Liberation Sans', 'DejaVu Sans', 'Bitstream Vera Sans', sans-serif; text-anchor: start" x="515.360264" y="221.371191" transform="rotate(-0 515.360264 221.371191)">chicago_pd</text>
   </g>
   <g id="text_4">
    <text style="fill: #262626; font: 10px 'Arial', 'Liberation Sans', 'DejaVu Sans', 'Bitstream Vera Sans', sans-serif; text-anchor: middle" x="448.832872" y="221.086985" transform="rotate(-0 448.832872 221.086985)">0.1%</text>
   </g>
   <g id="text_5">
    <text style="fill: #262626; font: 10px 'Arial', 'Liberation Sans', 'DejaVu Sans', 'Bitstream Vera Sans', sans-serif; text-anchor: start" x="515.3616" y="220.752084" transform="rotate(-0 515.3616 220.752084)">chicago_police</text>
   </g>
   <g id="text_6">
    <text style="fill: #262626; font: 10px 'Arial', 'Liberation Sans', 'DejaVu Sans', 'Bitstream Vera Sans', sans-serif; text-anchor: middle" x="448.8336" y="220.74929" transform="rotate(-0 448.8336 220.74929)">0.0%</text>
   </g>
   <g id="text_7">
    <text style="fill: #262626; font: 12px 'Arial', 'Liberation Sans', 'DejaVu Sans', 'Bitstream Vera Sans', sans-serif; text-anchor: middle" x="369" y="45.84" transform="rotate(-0 369 45.84)">Incidents by Source</text>
   </g>
  </g>
 </g>
</svg>
