<?xml version="1.0" encoding="utf-8" standalone="no"?>
<!DOCTYPE svg PUBLIC "-//W3C//DTD SVG 1.1//EN"
  "http://www.w3.org/Graphics/SVG/1.1/DTD/svg11.dtd">
<svg xmlns:xlink="http://www.w3.org/1999/xlink" width="720pt" height="432pt" viewBox="0 0 720 432" xmlns="http://www.w3.org/2000/svg" version="1.1">
 <metadata>
  <rdf:RDF xmlns:dc="http://purl.org/dc/elements/1.1/" xmlns:cc="http://creativecommons.org/ns#" xmlns:rdf="http://www.w3.org/1999/02/22-rdf-syntax-ns#">
   <cc:Work>
    <dc:type rdf:resource="http://purl.org/dc/dcmitype/StillImage"/>
    <dc:date>2026-04-12T18:39:48.217614</dc:date>
    <dc:format>image/svg+xml</dc:format>
    <dc:creator>
     <cc:Agent>
      <dc:title>Matplotlib v3.7.5, https://matplotlib.org/</dc:title>
     </cc:Agent>
    </dc:creator>
   </cc:Work>
  </rdf:RDF>
 </metadata>
 <defs>
  <style type="text/css">*{stroke-linejoin: round; stroke-linecap: butt}</style>
 </defs>
 <g id="figure_1">
  <g id="patch_1">
   <path d="M 0 432 
L 720 432 
L 720 0 
L 0 0 
z
" style="fill: #ffffff"/>
  </g>
  <g id="axes_1">
   <g id="matplotlib.axis_1"/>
   <g id="matplotlib.axis_2"/>
   <g id="patch_2">
    <path d="M 502.056 218.16 
C 502.056 200.705273 498.621347 183.41992 491.948205 167.291167 
C 485.275063 151.162415 475.492939 136.503277 463.160526 124.150987 
C 450.828112 111.798697 436.184746 101.99298 420.06676 95.293873 
C 403.948774 88.594766 386.668975 85.132281 369.214271 85.104173 
C 351.759566 85.076064 334.468705 88.482877 318.329227 95.130037 
C 302.189748 101.777197 287.514876 111.5357 275.142743 123.848206 
C 262.770609 136.160712 252.941323 150.788269 246.216269 166.895445 
C 239.491215 183.002622 236.000908 200.276823 235.94469 217.731459 
C 235.888473 235.186096 239.267436 252.482421 245.888597 268.632583 
C 252.509758 284.782744 262.244617 299.473312 274.537183 311.865258 
C 286.829749 324.257203 301.441457 334.110032 317.537783 340.861016 
C 333.634109 347.612 350.902667 351.130121 368.35719 351.214447 
C 385.811714 351.298773 403.113458 347.947667 419.274261 341.352523 
C 435.435065 334.757379 450.14129 325.04619 462.553015 312.773596 
C 474.96474 300.501001 484.841087 285.905179 491.617983 269.819745 
C 498.39488 253.734312 501.940805 236.471442 502.05324 219.017077 
L 369 218.16 
z
" style="fill: #f77189"/>
   </g>
   <g id="patch_3">
    <path d="M 502.05324 219.017077 
C 502.054151 218.875644 502.054836 218.734209 502.055296 218.592774 
C 502.055756 218.451338 502.055991 218.309902 502.056 218.168466 
L 369 218.16 
z
" style="fill: #bb9832"/>
   </g>
   <g id="patch_4">
    <path d="M 502.056 218.168466 
C 502.056 218.167051 502.056 218.165637 502.056 218.164222 
C 502.056 218.162808 502.056 218.161394 502.056 218.159979 
L 369 218.16 
z
" style="fill: #50b131"/>
   </g>
   <g id="text_1">
    <text style="fill: #262626; font: 10px 'Arial', 'Liberation Sans', 'DejaVu Sans', 'Bitstream Vera Sans', sans-serif; text-anchor: end" x="222.639159" y="220.274543" transform="rotate(-0 222.639159 220.274543)">newsapi</text>
   </g>
   <g id="text_2">
    <text style="fill: #262626; font: 10px 'Arial', 'Liberation Sans', 'DejaVu Sans', 'Bitstream Vera Sans', sans-serif; text-anchor: middle" x="289.166814" y="220.488813" transform="rotate(-0 289.166814 220.488813)">99.9%</text>
   </g>
   <g id="text_3">
    <text style="fill: #262626; font: 10px 'Arial', 'Liberation Sans', 'DejaVu Sans', 'Bitstream Vera Sans', sans-serif; text-anchor: start" x="515.360826" y="221.221988" transform="rotate(-0 515.360826 221.221988)">chicago_pd</text>
   </g>
   <g id="text_4">
    <text style="fill: #262626; font: 10px 'Arial', 'Liberation Sans', 'DejaVu Sans', 'Bitstream Vera Sans', sans-serif; text-anchor: middle" x="448.833178" y="221.005602" transform="rotate(-0 448.833178 221.005602)">0.1%</text>
   </g>
   <g id="text_5">
    <text style="fill: #262626; font: 10px 'Arial', 'Liberation Sans', 'DejaVu Sans', 'Bitstream Vera Sans', sans-serif; text-anchor: start" x="515.3616" y="220.750582" transform="rotate(-0 515.3616 220.750582)">chicago_police</text>
   </g>
   <g id="text_6">
    <text style="fill: #262626; font: 10px 'Arial', 'Liberation Sans', 'DejaVu Sans', 'Bitstream Vera Sans', sans-serif; text-anchor: middle" x="448.8336" y="220.748471" transform="rotate(-0 448.8336 220.748471)">0.0%</text>
   </g>
   <g id="text_7">
    <text style="fill: #262626; font: 12px 'Arial', 'Liberation Sans', 'DejaVu Sans', 'Bitstream Vera Sans', sans-serif; text-anchor: middle" x="369" y="45.84" transform="rotate(-0 369 45.84)">Incidents by Source</text>
   </g>
  </g>
 </g>
</svg>
