<?xml version="1.0" encoding="utf-8" standalone="no"?>
<!DOCTYPE svg PUBLIC "-//W3C//DTD SVG 1.1//EN"
  "http://www.w3.org/Graphics/SVG/1.1/DTD/svg11.dtd">
<svg xmlns:xlink="http://www.w3.org/1999/xlink" width="720pt" height="432pt" viewBox="0 0 720 432" xmlns="http://www.w3.org/2000/svg" version="1.1">
 <metadata>
  <rdf:RDF xmlns:dc="http://purl.org/dc/elements/1.1/" xmlns:cc="http://creativecommons.org/ns#" xmlns:rdf="http://www.w3.org/1999/02/22-rdf-syntax-ns#">
   <cc:Work>
    <dc:type rdf:resource="http://purl.org/dc/dcmitype/StillImage"/>
    <dc:date>2025-12-30T06:25:29.288842</dc:date>
    <dc:format>image/svg+xml</dc:format>
    <dc:creator>
     <cc:Agent>
      <dc:title>Matplotlib v3.7.5, https://matplotlib.org/</dc:title>
     </cc:Agent>
    </dc:creator>
   </cc:Work>
  </rdf:RDF>
 </metadata>
 <defs>
  <style type="text/css">*{stroke-linejoin: round; stroke-linecap: butt}</style>
 </defs>
 <g id="figure_1">
  <g id="patch_1">
   <path d="M 0 432 
L 720 432 
L 720 0 
L 0 0 
z
" style="fill: #ffffff"/>
  </g>
  <g id="axes_1">
   <g id="matplotlib.axis_1"/>
   <g id="matplotlib.axis_2"/>
   <g id="patch_2">
    <path d="M 502.056 218.16 
C 502.056 200.709604 498.623051 183.428455 491.953124 167.303059 
C 485.283197 151.177662 475.505673 136.520812 463.178708 124.169202 
C 450.851743 111.817592 436.21445 102.010815 420.102407 95.308695 
C 403.990364 88.606575 386.716107 85.139118 369.265745 85.104265 
C 351.815384 85.069413 334.527413 88.46784 318.388728 95.105548 
C 302.250042 101.743255 287.573693 111.491486 275.197488 123.793757 
C 262.821283 136.096028 252.98529 150.713706 246.251004 166.812331 
C 239.516718 182.910955 236.014767 200.178253 235.945062 217.62851 
C 235.875356 235.078767 239.239249 252.373491 245.84471 268.525402 
C 252.450171 284.677312 262.16907 299.373102 274.446599 311.773853 
C 286.724127 324.174604 301.32213 334.039771 317.407273 340.806197 
C 333.492416 347.572623 350.752685 351.109054 368.202768 351.213612 
C 385.652851 351.318169 402.954259 347.988825 419.11933 341.415636 
C 435.284401 334.842448 449.999572 325.152919 462.42482 312.900183 
C 474.850067 300.647446 484.744371 286.069175 491.542909 269.997578 
C 498.341447 253.925982 501.912344 236.67281 502.051754 219.222971 
L 369 218.16 
z
" style="fill: #f77189"/>
   </g>
   <g id="patch_3">
    <path d="M 502.051754 219.222971 
C 502.053155 219.047568 502.05421 218.872162 502.054917 218.696755 
C 502.055625 218.521347 502.055986 218.345939 502.056 218.17053 
L 369 218.16 
z
" style="fill: #bb9832"/>
   </g>
   <g id="patch_4">
    <path d="M 502.056 218.17053 
C 502.056 218.168776 502.056 218.167022 502.056 218.165268 
C 502.056 218.163514 502.056 218.161759 502.056 218.160005 
L 369 218.16 
z
" style="fill: #50b131"/>
   </g>
   <g id="text_1">
    <text style="fill: #262626; font: 10px 'Arial', 'Liberation Sans', 'DejaVu Sans', 'Bitstream Vera Sans', sans-serif; text-anchor: end" x="222.639568" y="220.161299" transform="rotate(-0 222.639568 220.161299)">newsapi</text>
   </g>
   <g id="text_2">
    <text style="fill: #262626; font: 10px 'Arial', 'Liberation Sans', 'DejaVu Sans', 'Bitstream Vera Sans', sans-serif; text-anchor: middle" x="289.167037" y="220.427044" transform="rotate(-0 289.167037 220.427044)">99.9%</text>
   </g>
   <g id="text_3">
    <text style="fill: #262626; font: 10px 'Arial', 'Liberation Sans', 'DejaVu Sans', 'Bitstream Vera Sans', sans-serif; text-anchor: start" x="515.360409" y="221.336368" transform="rotate(-0 515.360409 221.336368)">chicago_pd</text>
   </g>
   <g id="text_4">
    <text style="fill: #262626; font: 10px 'Arial', 'Liberation Sans', 'DejaVu Sans', 'Bitstream Vera Sans', sans-serif; text-anchor: middle" x="448.83295" y="221.06799" transform="rotate(-0 448.83295 221.06799)">0.1%</text>
   </g>
   <g id="text_5">
    <text style="fill: #262626; font: 10px 'Arial', 'Liberation Sans', 'DejaVu Sans', 'Bitstream Vera Sans', sans-serif; text-anchor: start" x="515.3616" y="220.751732" transform="rotate(-0 515.3616 220.751732)">chicago_police</text>
   </g>
   <g id="text_6">
    <text style="fill: #262626; font: 10px 'Arial', 'Liberation Sans', 'DejaVu Sans', 'Bitstream Vera Sans', sans-serif; text-anchor: middle" x="448.8336" y="220.749098" transform="rotate(-0 448.8336 220.749098)">0.0%</text>
   </g>
   <g id="text_7">
    <text style="fill: #262626; font: 12px 'Arial', 'Liberation Sans', 'DejaVu Sans', 'Bitstream Vera Sans', sans-serif; text-anchor: middle" x="369" y="45.84" transform="rotate(-0 369 45.84)">Incidents by Source</text>
   </g>
  </g>
 </g>
</svg>
