<?xml version="1.0" encoding="utf-8" standalone="no"?>
<!DOCTYPE svg PUBLIC "-//W3C//DTD SVG 1.1//EN"
  "http://www.w3.org/Graphics/SVG/1.1/DTD/svg11.dtd">
<svg xmlns:xlink="http://www.w3.org/1999/xlink" width="720pt" height="432pt" viewBox="0 0 720 432" xmlns="http://www.w3.org/2000/svg" version="1.1">
 <metadata>
  <rdf:RDF xmlns:dc="http://purl.org/dc/elements/1.1/" xmlns:cc="http://creativecommons.org/ns#" xmlns:rdf="http://www.w3.org/1999/02/22-rdf-syntax-ns#">
   <cc:Work>
    <dc:type rdf:resource="http://purl.org/dc/dcmitype/StillImage"/>
    <dc:date>2025-02-23T18:15:14.838441</dc:date>
    <dc:format>image/svg+xml</dc:format>
    <dc:creator>
     <cc:Agent>
      <dc:title>Matplotlib v3.7.5, https://matplotlib.org/</dc:title>
     </cc:Agent>
    </dc:creator>
   </cc:Work>
  </rdf:RDF>
 </metadata>
 <defs>
  <style type="text/css">*{stroke-linejoin: round; stroke-linecap: butt}</style>
 </defs>
 <g id="figure_1">
  <g id="patch_1">
   <path d="M 0 432 
L 720 432 
L 720 0 
L 0 0 
z
" style="fill: #ffffff"/>
  </g>
  <g id="axes_1">
   <g id="matplotlib.axis_1"/>
   <g id="matplotlib.axis_2"/>
   <g id="patch_2">
    <path d="M 502.056 218.16 
C 502.056 200.795222 498.656655 183.597208 492.050149 167.538267 
C 485.443644 151.479325 475.756872 136.867903 463.537483 124.530072 
C 451.318095 112.192241 436.800792 102.364977 420.806323 95.603874 
C 404.811855 88.842771 387.647432 85.277691 370.283462 85.11019 
C 352.919491 84.942689 335.689488 88.175984 319.567567 94.627277 
C 303.445646 101.07857 288.741465 110.623949 276.286339 122.723758 
C 263.831214 134.823567 253.864373 149.245401 246.949301 165.173907 
C 240.03423 181.102413 236.303747 198.231649 235.968761 215.593196 
C 235.633774 232.954743 238.700717 250.215133 244.996197 266.398533 
C 251.291678 282.581934 260.694776 297.377506 272.67388 309.948767 
C 284.652983 322.520028 298.978005 332.625519 314.839068 339.693915 
C 330.70013 346.762312 347.792584 350.65785 365.150092 351.160291 
C 382.5076 351.662732 399.796771 348.762426 416.040145 342.623344 
C 432.283519 336.484262 447.169105 327.224319 459.855332 315.367036 
C 472.541559 303.509752 482.784759 289.282874 490.005823 273.490732 
C 497.226887 257.69859 501.287118 240.644507 501.956967 223.292653 
L 369 218.16 
z
" style="fill: #f77189"/>
   </g>
   <g id="patch_3">
    <path d="M 501.956967 223.292653 
C 501.989647 222.446096 502.014242 221.599246 502.030747 220.752219 
C 502.047252 219.905192 502.055667 219.058027 502.05599 218.210839 
L 369 218.16 
z
" style="fill: #bb9832"/>
   </g>
   <g id="patch_4">
    <path d="M 502.05599 218.210839 
C 502.055994 218.202367 502.055996 218.193895 502.055998 218.185424 
C 502.055999 218.176952 502.056 218.16848 502.056 218.160008 
L 369 218.16 
z
" style="fill: #50b131"/>
   </g>
   <g id="text_1">
    <text style="fill: #262626; font: 10px 'Arial', 'Liberation Sans', 'DejaVu Sans', 'Bitstream Vera Sans', sans-serif; text-anchor: end" x="222.665637" y="217.922453" transform="rotate(-0 222.665637 217.922453)">newsapi</text>
   </g>
   <g id="text_2">
    <text style="fill: #262626; font: 10px 'Arial', 'Liberation Sans', 'DejaVu Sans', 'Bitstream Vera Sans', sans-serif; text-anchor: middle" x="289.181256" y="219.205855" transform="rotate(-0 289.181256 219.205855)">99.4%</text>
   </g>
   <g id="text_3">
    <text style="fill: #262626; font: 10px 'Arial', 'Liberation Sans', 'DejaVu Sans', 'Bitstream Vera Sans', sans-serif; text-anchor: start" x="515.333821" y="223.597379" transform="rotate(-0 515.333821 223.597379)">chicago_pd</text>
   </g>
   <g id="text_4">
    <text style="fill: #262626; font: 10px 'Arial', 'Liberation Sans', 'DejaVu Sans', 'Bitstream Vera Sans', sans-serif; text-anchor: middle" x="448.818448" y="222.301269" transform="rotate(-0 448.818448 222.301269)">0.6%</text>
   </g>
   <g id="text_5">
    <text style="fill: #262626; font: 10px 'Arial', 'Liberation Sans', 'DejaVu Sans', 'Bitstream Vera Sans', sans-serif; text-anchor: start" x="515.361597" y="220.773904" transform="rotate(-0 515.361597 220.773904)">chicago_police</text>
   </g>
   <g id="text_6">
    <text style="fill: #262626; font: 10px 'Arial', 'Liberation Sans', 'DejaVu Sans', 'Bitstream Vera Sans', sans-serif; text-anchor: middle" x="448.833599" y="220.761192" transform="rotate(-0 448.833599 220.761192)">0.0%</text>
   </g>
   <g id="text_7">
    <text style="fill: #262626; font: 12px 'Arial', 'Liberation Sans', 'DejaVu Sans', 'Bitstream Vera Sans', sans-serif; text-anchor: middle" x="369" y="45.84" transform="rotate(-0 369 45.84)">Incidents by Source</text>
   </g>
  </g>
 </g>
</svg>
