<?xml version="1.0" encoding="utf-8" standalone="no"?>
<!DOCTYPE svg PUBLIC "-//W3C//DTD SVG 1.1//EN"
  "http://www.w3.org/Graphics/SVG/1.1/DTD/svg11.dtd">
<svg xmlns:xlink="http://www.w3.org/1999/xlink" width="720pt" height="432pt" viewBox="0 0 720 432" xmlns="http://www.w3.org/2000/svg" version="1.1">
 <metadata>
  <rdf:RDF xmlns:dc="http://purl.org/dc/elements/1.1/" xmlns:cc="http://creativecommons.org/ns#" xmlns:rdf="http://www.w3.org/1999/02/22-rdf-syntax-ns#">
   <cc:Work>
    <dc:type rdf:resource="http://purl.org/dc/dcmitype/StillImage"/>
    <dc:date>2026-03-28T12:41:00.295902</dc:date>
    <dc:format>image/svg+xml</dc:format>
    <dc:creator>
     <cc:Agent>
      <dc:title>Matplotlib v3.7.5, https://matplotlib.org/</dc:title>
     </cc:Agent>
    </dc:creator>
   </cc:Work>
  </rdf:RDF>
 </metadata>
 <defs>
  <style type="text/css">*{stroke-linejoin: round; stroke-linecap: butt}</style>
 </defs>
 <g id="figure_1">
  <g id="patch_1">
   <path d="M 0 432 
L 720 432 
L 720 0 
L 0 0 
z
" style="fill: #ffffff"/>
  </g>
  <g id="axes_1">
   <g id="matplotlib.axis_1"/>
   <g id="matplotlib.axis_2"/>
   <g id="patch_2">
    <path d="M 502.056 218.16 
C 502.056 200.705692 498.621512 183.420747 491.948681 167.292319 
C 485.27585 151.163891 475.494172 136.504974 463.162286 124.15275 
C 450.830399 111.800526 436.187621 101.994706 420.070211 95.295307 
C 403.952801 88.595909 386.673538 85.132942 369.219254 85.104181 
C 351.76497 85.075419 334.474388 88.48142 318.334986 95.127665 
C 302.195584 101.77391 287.520569 111.531419 275.148041 123.842934 
C 262.775513 136.154449 252.945577 150.781049 246.219629 166.887398 
C 239.493681 182.993747 236.002246 200.26728 235.944723 217.721493 
C 235.887199 235.175706 239.264704 252.471877 245.884344 268.622209 
C 252.503985 284.77254 262.237299 299.463614 274.52841 311.856413 
C 286.819521 324.249212 301.429903 334.103236 317.525147 340.855716 
C 333.620391 347.608195 350.888147 351.128089 368.342241 351.214374 
C 385.796336 351.300659 403.098049 347.95166 419.259266 341.358642 
C 435.420484 334.765623 450.127577 325.05653 462.540613 312.785858 
C 474.953648 300.515185 484.831734 285.92106 491.610727 269.836965 
C 498.38972 253.75287 501.938064 236.490937 502.05311 219.037009 
L 369 218.16 
z
" style="fill: #f77189"/>
   </g>
   <g id="patch_3">
    <path d="M 502.05311 219.037009 
C 502.054064 218.892291 502.054781 218.747572 502.055263 218.602851 
C 502.055745 218.458131 502.05599 218.31341 502.056 218.168689 
L 369 218.16 
z
" style="fill: #bb9832"/>
   </g>
   <g id="patch_4">
    <path d="M 502.056 218.168689 
C 502.056 218.167242 502.056 218.165795 502.056 218.164348 
C 502.056 218.1629 502.056 218.161453 502.056 218.160006 
L 369 218.16 
z
" style="fill: #50b131"/>
   </g>
   <g id="text_1">
    <text style="fill: #262626; font: 10px 'Arial', 'Liberation Sans', 'DejaVu Sans', 'Bitstream Vera Sans', sans-serif; text-anchor: end" x="222.639195" y="220.26358" transform="rotate(-0 222.639195 220.26358)">newsapi</text>
   </g>
   <g id="text_2">
    <text style="fill: #262626; font: 10px 'Arial', 'Liberation Sans', 'DejaVu Sans', 'Bitstream Vera Sans', sans-serif; text-anchor: middle" x="289.166834" y="220.482833" transform="rotate(-0 289.166834 220.482833)">99.9%</text>
   </g>
   <g id="text_3">
    <text style="fill: #262626; font: 10px 'Arial', 'Liberation Sans', 'DejaVu Sans', 'Bitstream Vera Sans', sans-serif; text-anchor: start" x="515.360789" y="221.233074" transform="rotate(-0 515.360789 221.233074)">chicago_pd</text>
   </g>
   <g id="text_4">
    <text style="fill: #262626; font: 10px 'Arial', 'Liberation Sans', 'DejaVu Sans', 'Bitstream Vera Sans', sans-serif; text-anchor: middle" x="448.833158" y="221.011648" transform="rotate(-0 448.833158 221.011648)">0.1%</text>
   </g>
   <g id="text_5">
    <text style="fill: #262626; font: 10px 'Arial', 'Liberation Sans', 'DejaVu Sans', 'Bitstream Vera Sans', sans-serif; text-anchor: start" x="515.3616" y="220.75072" transform="rotate(-0 515.3616 220.75072)">chicago_police</text>
   </g>
   <g id="text_6">
    <text style="fill: #262626; font: 10px 'Arial', 'Liberation Sans', 'DejaVu Sans', 'Bitstream Vera Sans', sans-serif; text-anchor: middle" x="448.8336" y="220.748546" transform="rotate(-0 448.8336 220.748546)">0.0%</text>
   </g>
   <g id="text_7">
    <text style="fill: #262626; font: 12px 'Arial', 'Liberation Sans', 'DejaVu Sans', 'Bitstream Vera Sans', sans-serif; text-anchor: middle" x="369" y="45.84" transform="rotate(-0 369 45.84)">Incidents by Source</text>
   </g>
  </g>
 </g>
</svg>
