<?xml version="1.0" encoding="utf-8" standalone="no"?>
<!DOCTYPE svg PUBLIC "-//W3C//DTD SVG 1.1//EN"
  "http://www.w3.org/Graphics/SVG/1.1/DTD/svg11.dtd">
<svg xmlns:xlink="http://www.w3.org/1999/xlink" width="720pt" height="432pt" viewBox="0 0 720 432" xmlns="http://www.w3.org/2000/svg" version="1.1">
 <metadata>
  <rdf:RDF xmlns:dc="http://purl.org/dc/elements/1.1/" xmlns:cc="http://creativecommons.org/ns#" xmlns:rdf="http://www.w3.org/1999/02/22-rdf-syntax-ns#">
   <cc:Work>
    <dc:type rdf:resource="http://purl.org/dc/dcmitype/StillImage"/>
    <dc:date>2025-08-23T01:04:06.201875</dc:date>
    <dc:format>image/svg+xml</dc:format>
    <dc:creator>
     <cc:Agent>
      <dc:title>Matplotlib v3.7.5, https://matplotlib.org/</dc:title>
     </cc:Agent>
    </dc:creator>
   </cc:Work>
  </rdf:RDF>
 </metadata>
 <defs>
  <style type="text/css">*{stroke-linejoin: round; stroke-linecap: butt}</style>
 </defs>
 <g id="figure_1">
  <g id="patch_1">
   <path d="M 0 432 
L 720 432 
L 720 0 
L 0 0 
z
" style="fill: #ffffff"/>
  </g>
  <g id="axes_1">
   <g id="matplotlib.axis_1"/>
   <g id="matplotlib.axis_2"/>
   <g id="patch_2">
    <path d="M 502.056 218.16 
C 502.056 200.720721 498.627424 183.450367 491.965748 167.333589 
C 485.304072 151.216812 475.538352 136.565839 463.225372 124.215983 
C 450.912392 111.866126 436.290688 102.056637 420.193904 95.346795 
C 404.09712 88.636953 386.837096 85.156746 369.397895 85.104595 
C 351.958694 85.052444 334.678164 88.429359 318.541538 95.042809 
C 302.404911 101.656259 287.7248 111.378122 275.338177 123.654116 
C 262.951555 135.93011 253.098385 150.522413 246.340436 166.59906 
C 239.582488 182.675707 236.050681 199.925246 235.94638 217.364213 
C 235.842078 234.80318 239.167302 252.093731 245.732467 268.250063 
C 252.297632 284.406395 261.975551 299.115512 274.214449 311.53879 
C 286.453346 323.962068 301.016119 333.858831 317.072485 340.664826 
C 333.128851 347.47082 350.367752 351.054194 367.806329 351.210646 
C 385.244906 351.367097 402.545323 348.093594 418.721215 341.576773 
C 434.897108 335.059952 449.635101 325.426062 462.094923 313.22437 
C 474.554744 301.022679 484.495013 286.489567 491.348992 270.453625 
C 498.202972 254.417684 501.837882 237.189576 502.046481 219.751545 
L 369 218.16 
z
" style="fill: #f77189"/>
   </g>
   <g id="patch_3">
    <path d="M 502.046481 219.751545 
C 502.049623 219.488924 502.051987 219.226293 502.053573 218.963657 
C 502.055159 218.701022 502.055968 218.438382 502.055999 218.175742 
L 369 218.16 
z
" style="fill: #bb9832"/>
   </g>
   <g id="patch_4">
    <path d="M 502.055999 218.175742 
C 502.055999 218.173115 502.056 218.170489 502.056 218.167862 
C 502.056 218.165236 502.056 218.16261 502.056 218.159983 
L 369 218.16 
z
" style="fill: #50b131"/>
   </g>
   <g id="text_1">
    <text style="fill: #262626; font: 10px 'Arial', 'Liberation Sans', 'DejaVu Sans', 'Bitstream Vera Sans', sans-serif; text-anchor: end" x="222.641018" y="219.870572" transform="rotate(-0 222.641018 219.870572)">newsapi</text>
   </g>
   <g id="text_2">
    <text style="fill: #262626; font: 10px 'Arial', 'Liberation Sans', 'DejaVu Sans', 'Bitstream Vera Sans', sans-serif; text-anchor: middle" x="289.167828" y="220.268465" transform="rotate(-0 289.167828 220.268465)">99.8%</text>
   </g>
   <g id="text_3">
    <text style="fill: #262626; font: 10px 'Arial', 'Liberation Sans', 'DejaVu Sans', 'Bitstream Vera Sans', sans-serif; text-anchor: start" x="515.35893" y="221.629961" transform="rotate(-0 515.35893 221.629961)">chicago_pd</text>
   </g>
   <g id="text_4">
    <text style="fill: #262626; font: 10px 'Arial', 'Liberation Sans', 'DejaVu Sans', 'Bitstream Vera Sans', sans-serif; text-anchor: middle" x="448.832144" y="221.228132" transform="rotate(-0 448.832144 221.228132)">0.2%</text>
   </g>
   <g id="text_5">
    <text style="fill: #262626; font: 10px 'Arial', 'Liberation Sans', 'DejaVu Sans', 'Bitstream Vera Sans', sans-serif; text-anchor: start" x="515.3616" y="220.754586" transform="rotate(-0 515.3616 220.754586)">chicago_police</text>
   </g>
   <g id="text_6">
    <text style="fill: #262626; font: 10px 'Arial', 'Liberation Sans', 'DejaVu Sans', 'Bitstream Vera Sans', sans-serif; text-anchor: middle" x="448.8336" y="220.750655" transform="rotate(-0 448.8336 220.750655)">0.0%</text>
   </g>
   <g id="text_7">
    <text style="fill: #262626; font: 12px 'Arial', 'Liberation Sans', 'DejaVu Sans', 'Bitstream Vera Sans', sans-serif; text-anchor: middle" x="369" y="45.84" transform="rotate(-0 369 45.84)">Incidents by Source</text>
   </g>
  </g>
 </g>
</svg>
