<?xml version="1.0" encoding="utf-8" standalone="no"?>
<!DOCTYPE svg PUBLIC "-//W3C//DTD SVG 1.1//EN"
  "http://www.w3.org/Graphics/SVG/1.1/DTD/svg11.dtd">
<svg xmlns:xlink="http://www.w3.org/1999/xlink" width="720pt" height="432pt" viewBox="0 0 720 432" xmlns="http://www.w3.org/2000/svg" version="1.1">
 <metadata>
  <rdf:RDF xmlns:dc="http://purl.org/dc/elements/1.1/" xmlns:cc="http://creativecommons.org/ns#" xmlns:rdf="http://www.w3.org/1999/02/22-rdf-syntax-ns#">
   <cc:Work>
    <dc:type rdf:resource="http://purl.org/dc/dcmitype/StillImage"/>
    <dc:date>2025-02-28T12:40:15.269303</dc:date>
    <dc:format>image/svg+xml</dc:format>
    <dc:creator>
     <cc:Agent>
      <dc:title>Matplotlib v3.7.5, https://matplotlib.org/</dc:title>
     </cc:Agent>
    </dc:creator>
   </cc:Work>
  </rdf:RDF>
 </metadata>
 <defs>
  <style type="text/css">*{stroke-linejoin: round; stroke-linecap: butt}</style>
 </defs>
 <g id="figure_1">
  <g id="patch_1">
   <path d="M 0 432 
L 720 432 
L 720 0 
L 0 0 
z
" style="fill: #ffffff"/>
  </g>
  <g id="axes_1">
   <g id="matplotlib.axis_1"/>
   <g id="matplotlib.axis_2"/>
   <g id="patch_2">
    <path d="M 502.056 218.16 
C 502.056 200.789448 498.654394 183.585829 492.043621 167.5224 
C 485.432848 151.458971 475.739967 136.844475 463.513333 124.505694 
C 451.2867 112.166914 436.761311 102.341003 420.75891 95.583842 
C 404.756509 88.826681 387.584664 85.268144 370.214836 85.109546 
C 352.845008 84.950948 335.611048 88.195339 319.487931 94.659173 
C 303.364814 101.123008 288.662428 110.68205 276.212529 122.795518 
C 263.762631 134.908985 253.804509 149.344056 246.901524 165.284095 
C 239.998539 181.224135 236.283366 198.362774 235.966184 215.730429 
C 235.649001 233.098085 238.735906 250.360949 245.052263 266.54241 
C 251.36862 282.723872 260.793027 297.512922 272.792319 310.0729 
C 284.791611 322.632879 299.13516 332.722382 315.011508 339.770616 
C 330.887857 346.81885 347.991861 350.690349 365.355897 351.166089 
C 382.719933 351.641829 400.010261 348.712667 416.248719 342.544315 
C 432.487176 336.375962 447.361657 327.086975 460.030668 315.20286 
C 472.69968 303.318744 482.919722 289.067913 490.112618 273.256578 
C 497.305514 257.445243 501.333015 240.3773 501.967273 223.018331 
L 369 218.16 
z
" style="fill: #f77189"/>
   </g>
   <g id="patch_3">
    <path d="M 501.967273 223.018331 
C 501.996553 222.216973 502.018588 221.415367 502.033375 220.613611 
C 502.048162 219.811854 502.055701 219.009981 502.055991 218.208088 
L 369 218.16 
z
" style="fill: #bb9832"/>
   </g>
   <g id="patch_4">
    <path d="M 502.055991 218.208088 
C 502.055994 218.200069 502.055996 218.192051 502.055998 218.184032 
C 502.055999 218.176013 502.056 218.167994 502.056 218.159975 
L 369 218.16 
z
" style="fill: #50b131"/>
   </g>
   <g id="text_1">
    <text style="fill: #262626; font: 10px 'Arial', 'Liberation Sans', 'DejaVu Sans', 'Bitstream Vera Sans', sans-serif; text-anchor: end" x="222.662802" y="218.07341" transform="rotate(-0 222.662802 218.07341)">newsapi</text>
   </g>
   <g id="text_2">
    <text style="fill: #262626; font: 10px 'Arial', 'Liberation Sans', 'DejaVu Sans', 'Bitstream Vera Sans', sans-serif; text-anchor: middle" x="289.17971" y="219.288195" transform="rotate(-0 289.17971 219.288195)">99.4%</text>
   </g>
   <g id="text_3">
    <text style="fill: #262626; font: 10px 'Arial', 'Liberation Sans', 'DejaVu Sans', 'Bitstream Vera Sans', sans-serif; text-anchor: start" x="515.336713" y="223.444909" transform="rotate(-0 515.336713 223.444909)">chicago_pd</text>
   </g>
   <g id="text_4">
    <text style="fill: #262626; font: 10px 'Arial', 'Liberation Sans', 'DejaVu Sans', 'Bitstream Vera Sans', sans-serif; text-anchor: middle" x="448.820025" y="222.218104" transform="rotate(-0 448.820025 222.218104)">0.6%</text>
   </g>
   <g id="text_5">
    <text style="fill: #262626; font: 10px 'Arial', 'Liberation Sans', 'DejaVu Sans', 'Bitstream Vera Sans', sans-serif; text-anchor: start" x="515.361598" y="220.772372" transform="rotate(-0 515.361598 220.772372)">chicago_police</text>
   </g>
   <g id="text_6">
    <text style="fill: #262626; font: 10px 'Arial', 'Liberation Sans', 'DejaVu Sans', 'Bitstream Vera Sans', sans-serif; text-anchor: middle" x="448.833599" y="220.760357" transform="rotate(-0 448.833599 220.760357)">0.0%</text>
   </g>
   <g id="text_7">
    <text style="fill: #262626; font: 12px 'Arial', 'Liberation Sans', 'DejaVu Sans', 'Bitstream Vera Sans', sans-serif; text-anchor: middle" x="369" y="45.84" transform="rotate(-0 369 45.84)">Incidents by Source</text>
   </g>
  </g>
 </g>
</svg>
