<?xml version="1.0" encoding="utf-8" standalone="no"?>
<!DOCTYPE svg PUBLIC "-//W3C//DTD SVG 1.1//EN"
  "http://www.w3.org/Graphics/SVG/1.1/DTD/svg11.dtd">
<svg xmlns:xlink="http://www.w3.org/1999/xlink" width="720pt" height="432pt" viewBox="0 0 720 432" xmlns="http://www.w3.org/2000/svg" version="1.1">
 <metadata>
  <rdf:RDF xmlns:dc="http://purl.org/dc/elements/1.1/" xmlns:cc="http://creativecommons.org/ns#" xmlns:rdf="http://www.w3.org/1999/02/22-rdf-syntax-ns#">
   <cc:Work>
    <dc:type rdf:resource="http://purl.org/dc/dcmitype/StillImage"/>
    <dc:date>2025-11-19T01:08:23.000322</dc:date>
    <dc:format>image/svg+xml</dc:format>
    <dc:creator>
     <cc:Agent>
      <dc:title>Matplotlib v3.7.5, https://matplotlib.org/</dc:title>
     </cc:Agent>
    </dc:creator>
   </cc:Work>
  </rdf:RDF>
 </metadata>
 <defs>
  <style type="text/css">*{stroke-linejoin: round; stroke-linecap: butt}</style>
 </defs>
 <g id="figure_1">
  <g id="patch_1">
   <path d="M 0 432 
L 720 432 
L 720 0 
L 0 0 
z
" style="fill: #ffffff"/>
  </g>
  <g id="axes_1">
   <g id="matplotlib.axis_1"/>
   <g id="matplotlib.axis_2"/>
   <g id="patch_2">
    <path d="M 502.056 218.16 
C 502.056 200.712145 498.624051 183.433464 491.95601 167.310038 
C 485.28797 151.186611 475.513145 136.531104 463.189378 124.179894 
C 450.86561 111.828684 436.231881 102.021286 420.123326 95.317399 
C 404.014771 88.613512 386.743767 85.143138 369.295955 85.104329 
C 351.848143 85.06552 334.561872 88.459028 318.423653 95.091189 
C 302.285435 101.723349 287.608222 111.465552 275.229631 123.761816 
C 262.85104 136.058081 253.011116 150.669959 246.271416 166.763563 
C 239.531715 182.857167 236.022935 200.120409 235.945317 217.568091 
C 235.867699 235.015774 239.222749 252.309551 245.818997 268.462481 
C 252.415245 284.615411 262.124777 299.314257 274.393478 311.720168 
C 286.662178 324.126079 301.252133 333.99848 317.330706 340.77396 
C 333.409279 347.549441 350.664674 351.096611 368.112141 351.213038 
C 385.559607 351.329464 402.860804 348.012889 419.028366 341.452586 
C 435.195928 334.892283 449.916335 325.215469 462.349504 312.974393 
C 474.782674 300.733317 484.687502 286.165357 491.498729 270.101895 
C 498.309957 254.038432 501.895499 236.79097 502.050734 219.343805 
L 369 218.16 
z
" style="fill: #f77189"/>
   </g>
   <g id="patch_3">
    <path d="M 502.050734 219.343805 
C 502.052472 219.148462 502.05378 218.953115 502.054657 218.757767 
C 502.055535 218.562418 502.055982 218.367067 502.055999 218.171716 
L 369 218.16 
z
" style="fill: #bb9832"/>
   </g>
   <g id="patch_4">
    <path d="M 502.055999 218.171716 
C 502.056 218.169763 502.056 218.167809 502.056 218.165856 
C 502.056 218.163902 502.056 218.161949 502.056 218.159995 
L 369 218.16 
z
" style="fill: #50b131"/>
   </g>
   <g id="text_1">
    <text style="fill: #262626; font: 10px 'Arial', 'Liberation Sans', 'DejaVu Sans', 'Bitstream Vera Sans', sans-serif; text-anchor: end" x="222.639848" y="220.094838" transform="rotate(-0 222.639848 220.094838)">newsapi</text>
   </g>
   <g id="text_2">
    <text style="fill: #262626; font: 10px 'Arial', 'Liberation Sans', 'DejaVu Sans', 'Bitstream Vera Sans', sans-serif; text-anchor: middle" x="289.16719" y="220.390792" transform="rotate(-0 289.16719 220.390792)">99.9%</text>
   </g>
   <g id="text_3">
    <text style="fill: #262626; font: 10px 'Arial', 'Liberation Sans', 'DejaVu Sans', 'Bitstream Vera Sans', sans-serif; text-anchor: start" x="515.360123" y="221.403481" transform="rotate(-0 515.360123 221.403481)">chicago_pd</text>
   </g>
   <g id="text_4">
    <text style="fill: #262626; font: 10px 'Arial', 'Liberation Sans', 'DejaVu Sans', 'Bitstream Vera Sans', sans-serif; text-anchor: middle" x="448.832794" y="221.104597" transform="rotate(-0 448.832794 221.104597)">0.1%</text>
   </g>
   <g id="text_5">
    <text style="fill: #262626; font: 10px 'Arial', 'Liberation Sans', 'DejaVu Sans', 'Bitstream Vera Sans', sans-serif; text-anchor: start" x="515.3616" y="220.752379" transform="rotate(-0 515.3616 220.752379)">chicago_police</text>
   </g>
   <g id="text_6">
    <text style="fill: #262626; font: 10px 'Arial', 'Liberation Sans', 'DejaVu Sans', 'Bitstream Vera Sans', sans-serif; text-anchor: middle" x="448.8336" y="220.749451" transform="rotate(-0 448.8336 220.749451)">0.0%</text>
   </g>
   <g id="text_7">
    <text style="fill: #262626; font: 12px 'Arial', 'Liberation Sans', 'DejaVu Sans', 'Bitstream Vera Sans', sans-serif; text-anchor: middle" x="369" y="45.84" transform="rotate(-0 369 45.84)">Incidents by Source</text>
   </g>
  </g>
 </g>
</svg>
