<?xml version="1.0" encoding="utf-8" standalone="no"?>
<!DOCTYPE svg PUBLIC "-//W3C//DTD SVG 1.1//EN"
  "http://www.w3.org/Graphics/SVG/1.1/DTD/svg11.dtd">
<svg xmlns:xlink="http://www.w3.org/1999/xlink" width="720pt" height="432pt" viewBox="0 0 720 432" xmlns="http://www.w3.org/2000/svg" version="1.1">
 <metadata>
  <rdf:RDF xmlns:dc="http://purl.org/dc/elements/1.1/" xmlns:cc="http://creativecommons.org/ns#" xmlns:rdf="http://www.w3.org/1999/02/22-rdf-syntax-ns#">
   <cc:Work>
    <dc:type rdf:resource="http://purl.org/dc/dcmitype/StillImage"/>
    <dc:date>2025-11-26T12:53:14.906045</dc:date>
    <dc:format>image/svg+xml</dc:format>
    <dc:creator>
     <cc:Agent>
      <dc:title>Matplotlib v3.7.5, https://matplotlib.org/</dc:title>
     </cc:Agent>
    </dc:creator>
   </cc:Work>
  </rdf:RDF>
 </metadata>
 <defs>
  <style type="text/css">*{stroke-linejoin: round; stroke-linecap: butt}</style>
 </defs>
 <g id="figure_1">
  <g id="patch_1">
   <path d="M 0 432 
L 720 432 
L 720 0 
L 0 0 
z
" style="fill: #ffffff"/>
  </g>
  <g id="axes_1">
   <g id="matplotlib.axis_1"/>
   <g id="matplotlib.axis_2"/>
   <g id="patch_2">
    <path d="M 502.056 218.16 
C 502.056 200.711672 498.623865 183.432533 491.955474 167.30874 
C 485.287082 151.184947 475.511756 136.52919 463.187393 124.177906 
C 450.863031 111.826621 436.228639 102.019338 420.119436 95.31578 
C 404.010232 88.612221 386.738623 85.14239 369.290337 85.104317 
C 351.842051 85.066243 334.555463 88.460666 318.417158 95.093858 
C 302.278852 101.727051 287.6018 111.470374 275.223652 123.767756 
C 262.845505 136.065138 253.006312 150.678094 246.267618 166.772632 
C 239.528924 182.86717 236.021414 200.131167 235.945267 217.579328 
C 235.869121 235.02749 239.225815 252.321443 245.823776 268.474184 
C 252.421738 284.626925 262.133012 299.325203 274.403355 311.730155 
C 286.673697 324.135106 301.26515 334.006162 317.344945 340.779959 
C 333.42474 347.553756 350.681042 351.09893 368.128996 351.213149 
C 385.576949 351.327368 402.878186 348.008418 419.045286 341.445719 
C 435.212385 334.88302 449.931819 325.203841 462.363516 312.960596 
C 474.795213 300.717351 484.698085 286.147473 491.506953 270.082497 
C 498.315821 254.017521 501.89864 236.768996 502.050932 219.321333 
L 369 218.16 
z
" style="fill: #f77189"/>
   </g>
   <g id="patch_3">
    <path d="M 502.050932 219.321333 
C 502.052604 219.129697 502.053863 218.938058 502.054708 218.746417 
C 502.055552 218.554776 502.055983 218.363133 502.056 218.17149 
L 369 218.16 
z
" style="fill: #bb9832"/>
   </g>
   <g id="patch_4">
    <path d="M 502.056 218.17149 
C 502.056 218.169573 502.056 218.167657 502.056 218.165741 
C 502.056 218.163824 502.056 218.161908 502.056 218.159991 
L 369 218.16 
z
" style="fill: #50b131"/>
   </g>
   <g id="text_1">
    <text style="fill: #262626; font: 10px 'Arial', 'Liberation Sans', 'DejaVu Sans', 'Bitstream Vera Sans', sans-serif; text-anchor: end" x="222.639794" y="220.107198" transform="rotate(-0 222.639794 220.107198)">newsapi</text>
   </g>
   <g id="text_2">
    <text style="fill: #262626; font: 10px 'Arial', 'Liberation Sans', 'DejaVu Sans', 'Bitstream Vera Sans', sans-serif; text-anchor: middle" x="289.16716" y="220.397534" transform="rotate(-0 289.16716 220.397534)">99.9%</text>
   </g>
   <g id="text_3">
    <text style="fill: #262626; font: 10px 'Arial', 'Liberation Sans', 'DejaVu Sans', 'Bitstream Vera Sans', sans-serif; text-anchor: start" x="515.360179" y="221.390996" transform="rotate(-0 515.360179 221.390996)">chicago_pd</text>
   </g>
   <g id="text_4">
    <text style="fill: #262626; font: 10px 'Arial', 'Liberation Sans', 'DejaVu Sans', 'Bitstream Vera Sans', sans-serif; text-anchor: middle" x="448.832825" y="221.097788" transform="rotate(-0 448.832825 221.097788)">0.1%</text>
   </g>
   <g id="text_5">
    <text style="fill: #262626; font: 10px 'Arial', 'Liberation Sans', 'DejaVu Sans', 'Bitstream Vera Sans', sans-serif; text-anchor: start" x="515.3616" y="220.752252" transform="rotate(-0 515.3616 220.752252)">chicago_police</text>
   </g>
   <g id="text_6">
    <text style="fill: #262626; font: 10px 'Arial', 'Liberation Sans', 'DejaVu Sans', 'Bitstream Vera Sans', sans-serif; text-anchor: middle" x="448.8336" y="220.749382" transform="rotate(-0 448.8336 220.749382)">0.0%</text>
   </g>
   <g id="text_7">
    <text style="fill: #262626; font: 12px 'Arial', 'Liberation Sans', 'DejaVu Sans', 'Bitstream Vera Sans', sans-serif; text-anchor: middle" x="369" y="45.84" transform="rotate(-0 369 45.84)">Incidents by Source</text>
   </g>
  </g>
 </g>
</svg>
