<?xml version="1.0" encoding="utf-8" standalone="no"?>
<!DOCTYPE svg PUBLIC "-//W3C//DTD SVG 1.1//EN"
  "http://www.w3.org/Graphics/SVG/1.1/DTD/svg11.dtd">
<svg xmlns:xlink="http://www.w3.org/1999/xlink" width="720pt" height="432pt" viewBox="0 0 720 432" xmlns="http://www.w3.org/2000/svg" version="1.1">
 <metadata>
  <rdf:RDF xmlns:dc="http://purl.org/dc/elements/1.1/" xmlns:cc="http://creativecommons.org/ns#" xmlns:rdf="http://www.w3.org/1999/02/22-rdf-syntax-ns#">
   <cc:Work>
    <dc:type rdf:resource="http://purl.org/dc/dcmitype/StillImage"/>
    <dc:date>2025-12-29T18:23:48.465704</dc:date>
    <dc:format>image/svg+xml</dc:format>
    <dc:creator>
     <cc:Agent>
      <dc:title>Matplotlib v3.7.5, https://matplotlib.org/</dc:title>
     </cc:Agent>
    </dc:creator>
   </cc:Work>
  </rdf:RDF>
 </metadata>
 <defs>
  <style type="text/css">*{stroke-linejoin: round; stroke-linecap: butt}</style>
 </defs>
 <g id="figure_1">
  <g id="patch_1">
   <path d="M 0 432 
L 720 432 
L 720 0 
L 0 0 
z
" style="fill: #ffffff"/>
  </g>
  <g id="axes_1">
   <g id="matplotlib.axis_1"/>
   <g id="matplotlib.axis_2"/>
   <g id="patch_2">
    <path d="M 502.056 218.16 
C 502.056 200.709625 498.623059 183.428497 491.953148 167.303116 
C 485.283236 151.177736 475.505735 136.520897 463.178796 124.16929 
C 450.851857 111.817684 436.214594 102.010901 420.10258 95.308767 
C 403.990566 88.606632 386.716335 85.139151 369.265995 85.104266 
C 351.815654 85.069381 334.527698 88.467768 318.389016 95.105429 
C 302.250334 101.743091 287.573978 111.491272 275.197753 123.793494 
C 262.821528 136.095715 252.985503 150.713345 246.251172 166.811928 
C 239.516842 182.910512 236.014834 200.177776 235.945064 217.628012 
C 235.875293 235.078248 239.239113 252.372963 245.844498 268.524883 
C 252.449883 284.676802 262.168705 299.372616 274.44616 311.77341 
C 286.723616 324.174204 301.321553 334.039431 317.406642 340.805931 
C 333.49173 347.572432 350.751959 351.108952 368.202021 351.213607 
C 385.652082 351.318263 402.953488 347.989024 419.11858 341.415941 
C 435.283672 334.842859 449.998886 325.153435 462.424199 312.900795 
C 474.849512 300.648154 484.743902 286.069968 491.542545 269.998439 
C 498.341188 253.926909 501.912206 236.673785 502.051746 219.223968 
L 369 218.16 
z
" style="fill: #f77189"/>
   </g>
   <g id="patch_3">
    <path d="M 502.051746 219.223968 
C 502.05315 219.048403 502.054206 218.872836 502.054915 218.697267 
C 502.055624 218.521698 502.055986 218.346129 502.056 218.170558 
L 369 218.16 
z
" style="fill: #bb9832"/>
   </g>
   <g id="patch_4">
    <path d="M 502.056 218.170558 
C 502.056 218.168803 502.056 218.167047 502.056 218.165291 
C 502.056 218.163536 502.056 218.16178 502.056 218.160024 
L 369 218.16 
z
" style="fill: #50b131"/>
   </g>
   <g id="text_1">
    <text style="fill: #262626; font: 10px 'Arial', 'Liberation Sans', 'DejaVu Sans', 'Bitstream Vera Sans', sans-serif; text-anchor: end" x="222.63957" y="220.160751" transform="rotate(-0 222.63957 220.160751)">newsapi</text>
   </g>
   <g id="text_2">
    <text style="fill: #262626; font: 10px 'Arial', 'Liberation Sans', 'DejaVu Sans', 'Bitstream Vera Sans', sans-serif; text-anchor: middle" x="289.167038" y="220.426745" transform="rotate(-0 289.167038 220.426745)">99.9%</text>
   </g>
   <g id="text_3">
    <text style="fill: #262626; font: 10px 'Arial', 'Liberation Sans', 'DejaVu Sans', 'Bitstream Vera Sans', sans-serif; text-anchor: start" x="515.360407" y="221.336931" transform="rotate(-0 515.360407 221.336931)">chicago_pd</text>
   </g>
   <g id="text_4">
    <text style="fill: #262626; font: 10px 'Arial', 'Liberation Sans', 'DejaVu Sans', 'Bitstream Vera Sans', sans-serif; text-anchor: middle" x="448.832949" y="221.068298" transform="rotate(-0 448.832949 221.068298)">0.1%</text>
   </g>
   <g id="text_5">
    <text style="fill: #262626; font: 10px 'Arial', 'Liberation Sans', 'DejaVu Sans', 'Bitstream Vera Sans', sans-serif; text-anchor: start" x="515.3616" y="220.751758" transform="rotate(-0 515.3616 220.751758)">chicago_police</text>
   </g>
   <g id="text_6">
    <text style="fill: #262626; font: 10px 'Arial', 'Liberation Sans', 'DejaVu Sans', 'Bitstream Vera Sans', sans-serif; text-anchor: middle" x="448.8336" y="220.749112" transform="rotate(-0 448.8336 220.749112)">0.0%</text>
   </g>
   <g id="text_7">
    <text style="fill: #262626; font: 12px 'Arial', 'Liberation Sans', 'DejaVu Sans', 'Bitstream Vera Sans', sans-serif; text-anchor: middle" x="369" y="45.84" transform="rotate(-0 369 45.84)">Incidents by Source</text>
   </g>
  </g>
 </g>
</svg>
