<?xml version="1.0" encoding="utf-8" standalone="no"?>
<!DOCTYPE svg PUBLIC "-//W3C//DTD SVG 1.1//EN"
  "http://www.w3.org/Graphics/SVG/1.1/DTD/svg11.dtd">
<svg xmlns:xlink="http://www.w3.org/1999/xlink" width="720pt" height="432pt" viewBox="0 0 720 432" xmlns="http://www.w3.org/2000/svg" version="1.1">
 <metadata>
  <rdf:RDF xmlns:dc="http://purl.org/dc/elements/1.1/" xmlns:cc="http://creativecommons.org/ns#" xmlns:rdf="http://www.w3.org/1999/02/22-rdf-syntax-ns#">
   <cc:Work>
    <dc:type rdf:resource="http://purl.org/dc/dcmitype/StillImage"/>
    <dc:date>2026-02-03T01:43:21.177458</dc:date>
    <dc:format>image/svg+xml</dc:format>
    <dc:creator>
     <cc:Agent>
      <dc:title>Matplotlib v3.7.5, https://matplotlib.org/</dc:title>
     </cc:Agent>
    </dc:creator>
   </cc:Work>
  </rdf:RDF>
 </metadata>
 <defs>
  <style type="text/css">*{stroke-linejoin: round; stroke-linecap: butt}</style>
 </defs>
 <g id="figure_1">
  <g id="patch_1">
   <path d="M 0 432 
L 720 432 
L 720 0 
L 0 0 
z
" style="fill: #ffffff"/>
  </g>
  <g id="axes_1">
   <g id="matplotlib.axis_1"/>
   <g id="matplotlib.axis_2"/>
   <g id="patch_2">
    <path d="M 502.056 218.16 
C 502.056 200.707751 498.622322 183.424803 491.951019 167.297971 
C 485.279717 151.171138 475.500225 136.513309 463.170929 124.161408 
C 450.841632 111.809507 436.201741 102.003183 420.087155 95.302352 
C 403.972569 88.601521 386.69594 85.136191 369.24372 85.104223 
C 351.7915 85.072256 334.502292 88.474271 318.363267 95.116022 
C 302.224241 101.757774 287.548524 111.5104 275.17406 123.817051 
C 262.799596 136.123702 252.966472 150.745606 246.236135 166.847891 
C 239.505798 182.950175 236.008828 200.220428 235.944893 217.67256 
C 235.880958 235.124692 239.251299 252.420103 245.863477 268.571267 
C 252.475655 284.722431 262.201383 299.415988 274.485347 311.812974 
C 286.769311 324.209959 301.373179 334.06985 317.463109 340.82967 
C 333.553038 347.589491 350.816856 351.118089 368.268842 351.213991 
C 385.720828 351.309893 403.022383 347.971238 419.185632 341.388655 
C 435.34888 334.806072 450.060228 325.107275 462.479693 312.84604 
C 474.899158 300.584805 484.785782 285.999021 491.575064 269.9215 
C 498.364345 253.84398 501.92456 236.586654 502.052429 219.134873 
L 369 218.16 
z
" style="fill: #f77189"/>
   </g>
   <g id="patch_3">
    <path d="M 502.052429 219.134873 
C 502.053607 218.974008 502.054494 218.81314 502.055089 218.652271 
C 502.055685 218.491402 502.055988 218.330532 502.056 218.169662 
L 369 218.16 
z
" style="fill: #bb9832"/>
   </g>
   <g id="patch_4">
    <path d="M 502.056 218.169662 
C 502.056 218.168054 502.056 218.166445 502.056 218.164836 
C 502.056 218.163227 502.056 218.161619 502.056 218.16001 
L 369 218.16 
z
" style="fill: #50b131"/>
   </g>
   <g id="text_1">
    <text style="fill: #262626; font: 10px 'Arial', 'Liberation Sans', 'DejaVu Sans', 'Bitstream Vera Sans', sans-serif; text-anchor: end" x="222.639382" y="220.209754" transform="rotate(-0 222.639382 220.209754)">newsapi</text>
   </g>
   <g id="text_2">
    <text style="fill: #262626; font: 10px 'Arial', 'Liberation Sans', 'DejaVu Sans', 'Bitstream Vera Sans', sans-serif; text-anchor: middle" x="289.166936" y="220.453474" transform="rotate(-0 289.166936 220.453474)">99.9%</text>
   </g>
   <g id="text_3">
    <text style="fill: #262626; font: 10px 'Arial', 'Liberation Sans', 'DejaVu Sans', 'Bitstream Vera Sans', sans-serif; text-anchor: start" x="515.360598" y="221.287436" transform="rotate(-0 515.360598 221.287436)">chicago_pd</text>
   </g>
   <g id="text_4">
    <text style="fill: #262626; font: 10px 'Arial', 'Liberation Sans', 'DejaVu Sans', 'Bitstream Vera Sans', sans-serif; text-anchor: middle" x="448.833054" y="221.0413" transform="rotate(-0 448.833054 221.0413)">0.1%</text>
   </g>
   <g id="text_5">
    <text style="fill: #262626; font: 10px 'Arial', 'Liberation Sans', 'DejaVu Sans', 'Bitstream Vera Sans', sans-serif; text-anchor: start" x="515.3616" y="220.751257" transform="rotate(-0 515.3616 220.751257)">chicago_police</text>
   </g>
   <g id="text_6">
    <text style="fill: #262626; font: 10px 'Arial', 'Liberation Sans', 'DejaVu Sans', 'Bitstream Vera Sans', sans-serif; text-anchor: middle" x="448.8336" y="220.748839" transform="rotate(-0 448.8336 220.748839)">0.0%</text>
   </g>
   <g id="text_7">
    <text style="fill: #262626; font: 12px 'Arial', 'Liberation Sans', 'DejaVu Sans', 'Bitstream Vera Sans', sans-serif; text-anchor: middle" x="369" y="45.84" transform="rotate(-0 369 45.84)">Incidents by Source</text>
   </g>
  </g>
 </g>
</svg>
