<?xml version="1.0" encoding="utf-8" standalone="no"?>
<!DOCTYPE svg PUBLIC "-//W3C//DTD SVG 1.1//EN"
  "http://www.w3.org/Graphics/SVG/1.1/DTD/svg11.dtd">
<svg xmlns:xlink="http://www.w3.org/1999/xlink" width="720pt" height="432pt" viewBox="0 0 720 432" xmlns="http://www.w3.org/2000/svg" version="1.1">
 <metadata>
  <rdf:RDF xmlns:dc="http://purl.org/dc/elements/1.1/" xmlns:cc="http://creativecommons.org/ns#" xmlns:rdf="http://www.w3.org/1999/02/22-rdf-syntax-ns#">
   <cc:Work>
    <dc:type rdf:resource="http://purl.org/dc/dcmitype/StillImage"/>
    <dc:date>2025-02-03T06:17:51.688958</dc:date>
    <dc:format>image/svg+xml</dc:format>
    <dc:creator>
     <cc:Agent>
      <dc:title>Matplotlib v3.7.5, https://matplotlib.org/</dc:title>
     </cc:Agent>
    </dc:creator>
   </cc:Work>
  </rdf:RDF>
 </metadata>
 <defs>
  <style type="text/css">*{stroke-linejoin: round; stroke-linecap: butt}</style>
 </defs>
 <g id="figure_1">
  <g id="patch_1">
   <path d="M 0 432 
L 720 432 
L 720 0 
L 0 0 
z
" style="fill: #ffffff"/>
  </g>
  <g id="axes_1">
   <g id="matplotlib.axis_1"/>
   <g id="matplotlib.axis_2"/>
   <g id="patch_2">
    <path d="M 502.056 218.16 
C 502.056 200.826769 498.668995 183.659394 492.085789 167.624985 
C 485.502582 151.590575 475.84916 136.995987 463.669339 124.663394 
C 451.489518 112.330801 437.016388 102.496216 421.065279 95.713662 
C 405.114171 88.931107 387.990347 85.330384 370.658462 85.114336 
C 353.326578 84.898288 336.11832 88.071049 320.0031 94.453885 
C 303.88788 100.83672 289.174102 110.30748 276.690653 122.332637 
C 264.207204 134.357793 254.192984 148.707217 247.212136 164.572546 
C 240.231288 180.437874 236.417406 197.515487 235.985343 214.843333 
C 235.553281 232.171178 238.511305 249.417646 244.692778 265.611172 
C 250.874251 281.804698 260.160877 296.63538 272.029501 309.267746 
C 283.898125 321.900112 298.121612 332.092411 313.898697 339.270468 
C 329.675781 346.448526 346.704529 350.474973 364.025643 351.122983 
C 381.346757 351.770994 398.628755 349.028166 414.898071 343.049016 
C 431.167388 337.069865 446.11267 327.968816 458.89199 316.258569 
C 471.67131 304.548322 482.040104 290.45298 489.414255 274.766592 
C 496.788407 259.080203 501.026795 242.102965 501.890652 224.791274 
L 369 218.16 
z
" style="fill: #f77189"/>
   </g>
   <g id="patch_3">
    <path d="M 501.890652 224.791274 
C 501.945211 223.6979 501.986275 222.603896 502.013834 221.509509 
C 502.041392 220.415122 502.055443 219.320437 502.055984 218.225704 
L 369 218.16 
z
" style="fill: #bb9832"/>
   </g>
   <g id="patch_4">
    <path d="M 502.055984 218.225704 
C 502.055989 218.214757 502.055993 218.203809 502.055996 218.192862 
C 502.055999 218.181915 502.056 218.170968 502.056 218.160021 
L 369 218.16 
z
" style="fill: #50b131"/>
   </g>
   <g id="text_1">
    <text style="fill: #262626; font: 10px 'Arial', 'Liberation Sans', 'DejaVu Sans', 'Bitstream Vera Sans', sans-serif; text-anchor: end" x="222.683878" y="217.097603" transform="rotate(-0 222.683878 217.097603)">newsapi</text>
   </g>
   <g id="text_2">
    <text style="fill: #262626; font: 10px 'Arial', 'Liberation Sans', 'DejaVu Sans', 'Bitstream Vera Sans', sans-serif; text-anchor: middle" x="289.191206" y="218.755937" transform="rotate(-0 289.191206 218.755937)">99.2%</text>
   </g>
   <g id="text_3">
    <text style="fill: #262626; font: 10px 'Arial', 'Liberation Sans', 'DejaVu Sans', 'Bitstream Vera Sans', sans-serif; text-anchor: start" x="515.315217" y="224.430397" transform="rotate(-0 515.315217 224.430397)">chicago_pd</text>
   </g>
   <g id="text_4">
    <text style="fill: #262626; font: 10px 'Arial', 'Liberation Sans', 'DejaVu Sans', 'Bitstream Vera Sans', sans-serif; text-anchor: middle" x="448.8083" y="222.755643" transform="rotate(-0 448.8083 222.755643)">0.8%</text>
   </g>
   <g id="text_5">
    <text style="fill: #262626; font: 10px 'Arial', 'Liberation Sans', 'DejaVu Sans', 'Bitstream Vera Sans', sans-serif; text-anchor: start" x="515.361596" y="220.782086" transform="rotate(-0 515.361596 220.782086)">chicago_police</text>
   </g>
   <g id="text_6">
    <text style="fill: #262626; font: 10px 'Arial', 'Liberation Sans', 'DejaVu Sans', 'Bitstream Vera Sans', sans-serif; text-anchor: middle" x="448.833598" y="220.765655" transform="rotate(-0 448.833598 220.765655)">0.0%</text>
   </g>
   <g id="text_7">
    <text style="fill: #262626; font: 12px 'Arial', 'Liberation Sans', 'DejaVu Sans', 'Bitstream Vera Sans', sans-serif; text-anchor: middle" x="369" y="45.84" transform="rotate(-0 369 45.84)">Incidents by Source</text>
   </g>
  </g>
 </g>
</svg>
