<?xml version="1.0" encoding="utf-8" standalone="no"?>
<!DOCTYPE svg PUBLIC "-//W3C//DTD SVG 1.1//EN"
  "http://www.w3.org/Graphics/SVG/1.1/DTD/svg11.dtd">
<svg xmlns:xlink="http://www.w3.org/1999/xlink" width="720pt" height="432pt" viewBox="0 0 720 432" xmlns="http://www.w3.org/2000/svg" version="1.1">
 <metadata>
  <rdf:RDF xmlns:dc="http://purl.org/dc/elements/1.1/" xmlns:cc="http://creativecommons.org/ns#" xmlns:rdf="http://www.w3.org/1999/02/22-rdf-syntax-ns#">
   <cc:Work>
    <dc:type rdf:resource="http://purl.org/dc/dcmitype/StillImage"/>
    <dc:date>2025-03-25T18:18:22.650327</dc:date>
    <dc:format>image/svg+xml</dc:format>
    <dc:creator>
     <cc:Agent>
      <dc:title>Matplotlib v3.7.5, https://matplotlib.org/</dc:title>
     </cc:Agent>
    </dc:creator>
   </cc:Work>
  </rdf:RDF>
 </metadata>
 <defs>
  <style type="text/css">*{stroke-linejoin: round; stroke-linecap: butt}</style>
 </defs>
 <g id="figure_1">
  <g id="patch_1">
   <path d="M 0 432 
L 720 432 
L 720 0 
L 0 0 
z
" style="fill: #ffffff"/>
  </g>
  <g id="axes_1">
   <g id="matplotlib.axis_1"/>
   <g id="matplotlib.axis_2"/>
   <g id="patch_2">
    <path d="M 502.056 218.16 
C 502.056 200.766573 498.645429 183.54074 492.017733 167.459541 
C 485.390037 151.378343 475.672937 136.751678 463.417584 124.409166 
C 451.162231 112.066653 436.604795 102.246144 420.570969 95.504652 
C 404.537142 88.763161 387.335911 85.230602 369.94292 85.107341 
C 352.54993 84.98408 335.30036 88.272492 319.172597 94.78606 
C 303.044834 101.299628 288.349675 110.91283 275.920623 123.080408 
C 263.491572 135.247987 253.568145 149.735462 246.713197 165.721112 
C 239.858249 181.706761 236.20388 198.882527 235.957364 216.274206 
C 235.710848 233.665886 238.876936 250.938328 245.276049 267.111845 
C 251.675162 283.285362 261.183982 298.048277 273.263175 310.563244 
C 285.342368 323.078211 299.759156 333.104056 315.695825 340.072116 
C 331.632495 347.040177 348.781932 350.816173 366.171428 351.185931 
C 383.560924 351.555689 400.855369 348.512084 417.073828 342.227748 
C 433.292287 335.943412 448.122217 326.53945 460.722471 314.54925 
C 473.322725 302.559049 483.450484 288.213673 490.531307 272.326784 
C 497.61213 256.439895 501.509563 239.317647 502.002546 221.931208 
L 369 218.16 
z
" style="fill: #f77189"/>
   </g>
   <g id="patch_3">
    <path d="M 502.002546 221.931208 
C 502.020186 221.309059 502.033461 220.686794 502.04237 220.064459 
C 502.051278 219.442123 502.05582 218.819733 502.055995 218.197334 
L 369 218.16 
z
" style="fill: #bb9832"/>
   </g>
   <g id="patch_4">
    <path d="M 502.055995 218.197334 
C 502.055997 218.19111 502.055998 218.184886 502.055999 218.178662 
C 502.056 218.172438 502.056 218.166214 502.056 218.15999 
L 369 218.16 
z
" style="fill: #50b131"/>
   </g>
   <g id="text_1">
    <text style="fill: #262626; font: 10px 'Arial', 'Liberation Sans', 'DejaVu Sans', 'Bitstream Vera Sans', sans-serif; text-anchor: end" x="222.653101" y="218.671565" transform="rotate(-0 222.653101 218.671565)">newsapi</text>
   </g>
   <g id="text_2">
    <text style="fill: #262626; font: 10px 'Arial', 'Liberation Sans', 'DejaVu Sans', 'Bitstream Vera Sans', sans-serif; text-anchor: middle" x="289.174419" y="219.614461" transform="rotate(-0 289.174419 219.614461)">99.5%</text>
   </g>
   <g id="text_3">
    <text style="fill: #262626; font: 10px 'Arial', 'Liberation Sans', 'DejaVu Sans', 'Bitstream Vera Sans', sans-serif; text-anchor: start" x="515.346607" y="222.840842" transform="rotate(-0 515.346607 222.840842)">chicago_pd</text>
   </g>
   <g id="text_4">
    <text style="fill: #262626; font: 10px 'Arial', 'Liberation Sans', 'DejaVu Sans', 'Bitstream Vera Sans', sans-serif; text-anchor: middle" x="448.825422" y="221.888613" transform="rotate(-0 448.825422 221.888613)">0.4%</text>
   </g>
   <g id="text_5">
    <text style="fill: #262626; font: 10px 'Arial', 'Liberation Sans', 'DejaVu Sans', 'Bitstream Vera Sans', sans-serif; text-anchor: start" x="515.361599" y="220.766466" transform="rotate(-0 515.361599 220.766466)">chicago_police</text>
   </g>
   <g id="text_6">
    <text style="fill: #262626; font: 10px 'Arial', 'Liberation Sans', 'DejaVu Sans', 'Bitstream Vera Sans', sans-serif; text-anchor: middle" x="448.833599" y="220.757135" transform="rotate(-0 448.833599 220.757135)">0.0%</text>
   </g>
   <g id="text_7">
    <text style="fill: #262626; font: 12px 'Arial', 'Liberation Sans', 'DejaVu Sans', 'Bitstream Vera Sans', sans-serif; text-anchor: middle" x="369" y="45.84" transform="rotate(-0 369 45.84)">Incidents by Source</text>
   </g>
  </g>
 </g>
</svg>
