<?xml version="1.0" encoding="utf-8" standalone="no"?>
<!DOCTYPE svg PUBLIC "-//W3C//DTD SVG 1.1//EN"
  "http://www.w3.org/Graphics/SVG/1.1/DTD/svg11.dtd">
<svg xmlns:xlink="http://www.w3.org/1999/xlink" width="720pt" height="432pt" viewBox="0 0 720 432" xmlns="http://www.w3.org/2000/svg" version="1.1">
 <metadata>
  <rdf:RDF xmlns:dc="http://purl.org/dc/elements/1.1/" xmlns:cc="http://creativecommons.org/ns#" xmlns:rdf="http://www.w3.org/1999/02/22-rdf-syntax-ns#">
   <cc:Work>
    <dc:type rdf:resource="http://purl.org/dc/dcmitype/StillImage"/>
    <dc:date>2025-09-20T12:25:15.209872</dc:date>
    <dc:format>image/svg+xml</dc:format>
    <dc:creator>
     <cc:Agent>
      <dc:title>Matplotlib v3.7.5, https://matplotlib.org/</dc:title>
     </cc:Agent>
    </dc:creator>
   </cc:Work>
  </rdf:RDF>
 </metadata>
 <defs>
  <style type="text/css">*{stroke-linejoin: round; stroke-linecap: butt}</style>
 </defs>
 <g id="figure_1">
  <g id="patch_1">
   <path d="M 0 432 
L 720 432 
L 720 0 
L 0 0 
z
" style="fill: #ffffff"/>
  </g>
  <g id="axes_1">
   <g id="matplotlib.axis_1"/>
   <g id="matplotlib.axis_2"/>
   <g id="patch_2">
    <path d="M 502.056 218.16 
C 502.056 200.717072 498.625989 183.443175 491.961605 167.323568 
C 485.297221 151.203961 475.527628 136.551058 463.210058 124.200625 
C 450.892487 111.850191 436.265667 102.041591 420.163874 95.334282 
C 404.062081 88.626972 386.797384 85.150948 369.354518 85.104472 
C 351.911652 85.057997 334.628677 88.441971 318.49137 95.063382 
C 302.354064 101.684792 287.675183 111.415309 275.291974 123.699929 
C 262.908765 135.984549 253.061228 150.585183 246.31104 166.669047 
C 239.560852 182.752912 236.03884 200.008286 235.945889 217.450966 
C 235.852939 234.893647 239.190852 252.185577 245.769242 268.340468 
C 252.347632 284.49536 262.039004 299.200115 274.290586 311.616011 
C 286.542168 324.031908 301.116512 333.918313 317.182334 340.711331 
C 333.248156 347.504349 350.494085 351.072324 367.936456 351.211749 
C 385.378827 351.351174 402.679589 348.059346 418.851951 341.524023 
C 435.024313 334.988699 449.754838 325.336542 462.203333 313.118085 
C 474.651829 300.899627 484.577031 286.351677 491.412831 270.304011 
C 498.248631 254.256345 501.862545 237.019984 502.048443 219.578047 
L 369 218.16 
z
" style="fill: #f77189"/>
   </g>
   <g id="patch_3">
    <path d="M 502.048443 219.578047 
C 502.050937 219.344055 502.052814 219.110057 502.054073 218.876055 
C 502.055333 218.642054 502.055975 218.408049 502.055999 218.174044 
L 369 218.16 
z
" style="fill: #bb9832"/>
   </g>
   <g id="patch_4">
    <path d="M 502.055999 218.174044 
C 502.056 218.171704 502.056 218.169364 502.056 218.167024 
C 502.056 218.164684 502.056 218.162344 502.056 218.160004 
L 369 218.16 
z
" style="fill: #50b131"/>
   </g>
   <g id="text_1">
    <text style="fill: #262626; font: 10px 'Arial', 'Liberation Sans', 'DejaVu Sans', 'Bitstream Vera Sans', sans-serif; text-anchor: end" x="222.640478" y="219.966001" transform="rotate(-0 222.640478 219.966001)">newsapi</text>
   </g>
   <g id="text_2">
    <text style="fill: #262626; font: 10px 'Arial', 'Liberation Sans', 'DejaVu Sans', 'Bitstream Vera Sans', sans-serif; text-anchor: middle" x="289.167534" y="220.320517" transform="rotate(-0 289.167534 220.320517)">99.8%</text>
   </g>
   <g id="text_3">
    <text style="fill: #262626; font: 10px 'Arial', 'Liberation Sans', 'DejaVu Sans', 'Bitstream Vera Sans', sans-serif; text-anchor: start" x="515.359481" y="221.533598" transform="rotate(-0 515.359481 221.533598)">chicago_pd</text>
   </g>
   <g id="text_4">
    <text style="fill: #262626; font: 10px 'Arial', 'Liberation Sans', 'DejaVu Sans', 'Bitstream Vera Sans', sans-serif; text-anchor: middle" x="448.832444" y="221.175571" transform="rotate(-0 448.832444 221.175571)">0.2%</text>
   </g>
   <g id="text_5">
    <text style="fill: #262626; font: 10px 'Arial', 'Liberation Sans', 'DejaVu Sans', 'Bitstream Vera Sans', sans-serif; text-anchor: start" x="515.3616" y="220.753664" transform="rotate(-0 515.3616 220.753664)">chicago_police</text>
   </g>
   <g id="text_6">
    <text style="fill: #262626; font: 10px 'Arial', 'Liberation Sans', 'DejaVu Sans', 'Bitstream Vera Sans', sans-serif; text-anchor: middle" x="448.8336" y="220.750152" transform="rotate(-0 448.8336 220.750152)">0.0%</text>
   </g>
   <g id="text_7">
    <text style="fill: #262626; font: 12px 'Arial', 'Liberation Sans', 'DejaVu Sans', 'Bitstream Vera Sans', sans-serif; text-anchor: middle" x="369" y="45.84" transform="rotate(-0 369 45.84)">Incidents by Source</text>
   </g>
  </g>
 </g>
</svg>
