<?xml version="1.0" encoding="utf-8" standalone="no"?>
<!DOCTYPE svg PUBLIC "-//W3C//DTD SVG 1.1//EN"
  "http://www.w3.org/Graphics/SVG/1.1/DTD/svg11.dtd">
<svg xmlns:xlink="http://www.w3.org/1999/xlink" width="720pt" height="432pt" viewBox="0 0 720 432" xmlns="http://www.w3.org/2000/svg" version="1.1">
 <metadata>
  <rdf:RDF xmlns:dc="http://purl.org/dc/elements/1.1/" xmlns:cc="http://creativecommons.org/ns#" xmlns:rdf="http://www.w3.org/1999/02/22-rdf-syntax-ns#">
   <cc:Work>
    <dc:type rdf:resource="http://purl.org/dc/dcmitype/StillImage"/>
    <dc:date>2025-11-14T01:54:12.138532</dc:date>
    <dc:format>image/svg+xml</dc:format>
    <dc:creator>
     <cc:Agent>
      <dc:title>Matplotlib v3.7.5, https://matplotlib.org/</dc:title>
     </cc:Agent>
    </dc:creator>
   </cc:Work>
  </rdf:RDF>
 </metadata>
 <defs>
  <style type="text/css">*{stroke-linejoin: round; stroke-linecap: butt}</style>
 </defs>
 <g id="figure_1">
  <g id="patch_1">
   <path d="M 0 432 
L 720 432 
L 720 0 
L 0 0 
z
" style="fill: #ffffff"/>
  </g>
  <g id="axes_1">
   <g id="matplotlib.axis_1"/>
   <g id="matplotlib.axis_2"/>
   <g id="patch_2">
    <path d="M 502.056 218.16 
C 502.056 200.712456 498.624173 183.434078 491.956364 167.310893 
C 485.288555 151.187707 475.514061 136.532365 463.190684 124.181204 
C 450.867308 111.830043 436.234016 102.022568 420.125888 95.318465 
C 404.01776 88.614362 386.747154 85.143631 369.299655 85.104337 
C 351.852156 85.065044 334.566092 88.45795 318.427931 95.089431 
C 302.28977 101.720912 287.612452 111.462376 275.233569 123.757905 
C 262.854686 136.053434 253.01428 150.664602 246.273917 166.757591 
C 239.533554 182.850579 236.023937 200.113325 235.94535 217.560692 
C 235.866763 235.008058 239.22073 252.301719 245.81585 268.454774 
C 252.41097 284.607828 262.119354 299.307049 274.386974 311.713591 
C 286.654593 324.120133 301.243562 333.993419 317.32133 340.770009 
C 333.399098 347.546598 350.653896 351.095083 368.101041 351.212963 
C 385.548187 351.330843 402.849357 348.015831 419.017224 341.457106 
C 435.18509 334.898382 449.906137 325.223126 462.340276 312.983478 
C 474.774415 300.743831 484.680532 286.177134 491.493312 270.114668 
C 498.306093 254.052203 501.893429 236.80544 502.050601 219.358604 
L 369 218.16 
z
" style="fill: #f77189"/>
   </g>
   <g id="patch_3">
    <path d="M 502.050601 219.358604 
C 502.052383 219.160824 502.053724 218.96304 502.054623 218.765254 
C 502.055523 218.567467 502.055982 218.369679 502.055999 218.171891 
L 369 218.16 
z
" style="fill: #bb9832"/>
   </g>
   <g id="patch_4">
    <path d="M 502.055999 218.171891 
C 502.056 218.169913 502.056 218.167935 502.056 218.165957 
C 502.056 218.163979 502.056 218.162001 502.056 218.160024 
L 369 218.16 
z
" style="fill: #50b131"/>
   </g>
   <g id="text_1">
    <text style="fill: #262626; font: 10px 'Arial', 'Liberation Sans', 'DejaVu Sans', 'Bitstream Vera Sans', sans-serif; text-anchor: end" x="222.639885" y="220.086698" transform="rotate(-0 222.639885 220.086698)">newsapi</text>
   </g>
   <g id="text_2">
    <text style="fill: #262626; font: 10px 'Arial', 'Liberation Sans', 'DejaVu Sans', 'Bitstream Vera Sans', sans-serif; text-anchor: middle" x="289.16721" y="220.386353" transform="rotate(-0 289.16721 220.386353)">99.9%</text>
   </g>
   <g id="text_3">
    <text style="fill: #262626; font: 10px 'Arial', 'Liberation Sans', 'DejaVu Sans', 'Bitstream Vera Sans', sans-serif; text-anchor: start" x="515.360086" y="221.411717" transform="rotate(-0 515.360086 221.411717)">chicago_pd</text>
   </g>
   <g id="text_4">
    <text style="fill: #262626; font: 10px 'Arial', 'Liberation Sans', 'DejaVu Sans', 'Bitstream Vera Sans', sans-serif; text-anchor: middle" x="448.832774" y="221.10909" transform="rotate(-0 448.832774 221.10909)">0.1%</text>
   </g>
   <g id="text_5">
    <text style="fill: #262626; font: 10px 'Arial', 'Liberation Sans', 'DejaVu Sans', 'Bitstream Vera Sans', sans-serif; text-anchor: start" x="515.3616" y="220.75249" transform="rotate(-0 515.3616 220.75249)">chicago_police</text>
   </g>
   <g id="text_6">
    <text style="fill: #262626; font: 10px 'Arial', 'Liberation Sans', 'DejaVu Sans', 'Bitstream Vera Sans', sans-serif; text-anchor: middle" x="448.8336" y="220.749512" transform="rotate(-0 448.8336 220.749512)">0.0%</text>
   </g>
   <g id="text_7">
    <text style="fill: #262626; font: 12px 'Arial', 'Liberation Sans', 'DejaVu Sans', 'Bitstream Vera Sans', sans-serif; text-anchor: middle" x="369" y="45.84" transform="rotate(-0 369 45.84)">Incidents by Source</text>
   </g>
  </g>
 </g>
</svg>
