<?xml version="1.0" encoding="utf-8" standalone="no"?>
<!DOCTYPE svg PUBLIC "-//W3C//DTD SVG 1.1//EN"
  "http://www.w3.org/Graphics/SVG/1.1/DTD/svg11.dtd">
<svg xmlns:xlink="http://www.w3.org/1999/xlink" width="720pt" height="432pt" viewBox="0 0 720 432" xmlns="http://www.w3.org/2000/svg" version="1.1">
 <metadata>
  <rdf:RDF xmlns:dc="http://purl.org/dc/elements/1.1/" xmlns:cc="http://creativecommons.org/ns#" xmlns:rdf="http://www.w3.org/1999/02/22-rdf-syntax-ns#">
   <cc:Work>
    <dc:type rdf:resource="http://purl.org/dc/dcmitype/StillImage"/>
    <dc:date>2025-11-26T01:54:41.543864</dc:date>
    <dc:format>image/svg+xml</dc:format>
    <dc:creator>
     <cc:Agent>
      <dc:title>Matplotlib v3.7.5, https://matplotlib.org/</dc:title>
     </cc:Agent>
    </dc:creator>
   </cc:Work>
  </rdf:RDF>
 </metadata>
 <defs>
  <style type="text/css">*{stroke-linejoin: round; stroke-linecap: butt}</style>
 </defs>
 <g id="figure_1">
  <g id="patch_1">
   <path d="M 0 432 
L 720 432 
L 720 0 
L 0 0 
z
" style="fill: #ffffff"/>
  </g>
  <g id="axes_1">
   <g id="matplotlib.axis_1"/>
   <g id="matplotlib.axis_2"/>
   <g id="patch_2">
    <path d="M 502.056 218.16 
C 502.056 200.7117 498.623875 183.432586 491.955505 167.308815 
C 485.287134 151.185043 475.511836 136.5293 463.187508 124.17802 
C 450.86318 111.82674 436.228826 102.01945 420.11966 95.315873 
C 404.010494 88.612296 386.738919 85.142433 369.290661 85.104317 
C 351.842402 85.066202 334.555832 88.460572 318.417532 95.093705 
C 302.279232 101.726837 287.60217 111.470096 275.223997 123.767413 
C 262.845824 136.064731 253.006589 150.677625 246.267837 166.772109 
C 239.529085 182.866593 236.021501 200.130547 235.94527 217.57868 
C 235.869039 235.026814 239.225638 252.320757 245.823501 268.473509 
C 252.421364 284.626261 262.132537 299.324572 274.402785 311.729579 
C 286.673033 324.134586 301.264399 334.005719 317.344124 340.779613 
C 333.423848 347.553507 350.680098 351.098796 368.128024 351.213143 
C 385.57595 351.327489 402.877184 348.008676 419.04431 341.446115 
C 435.211437 334.883554 449.930926 325.204512 462.362708 312.961392 
C 474.79449 300.718272 484.697475 286.148504 491.506479 270.083615 
C 498.315483 254.018727 501.898459 236.770262 502.05092 219.322628 
L 369 218.16 
z
" style="fill: #f77189"/>
   </g>
   <g id="patch_3">
    <path d="M 502.05092 219.322628 
C 502.052597 219.130779 502.053858 218.938926 502.054705 218.747071 
C 502.055551 218.555216 502.055983 218.36336 502.056 218.171503 
L 369 218.16 
z
" style="fill: #bb9832"/>
   </g>
   <g id="patch_4">
    <path d="M 502.056 218.171503 
C 502.056 218.169584 502.056 218.167666 502.056 218.165747 
C 502.056 218.163829 502.056 218.16191 502.056 218.159992 
L 369 218.16 
z
" style="fill: #50b131"/>
   </g>
   <g id="text_1">
    <text style="fill: #262626; font: 10px 'Arial', 'Liberation Sans', 'DejaVu Sans', 'Bitstream Vera Sans', sans-serif; text-anchor: end" x="222.639797" y="220.106486" transform="rotate(-0 222.639797 220.106486)">newsapi</text>
   </g>
   <g id="text_2">
    <text style="fill: #262626; font: 10px 'Arial', 'Liberation Sans', 'DejaVu Sans', 'Bitstream Vera Sans', sans-serif; text-anchor: middle" x="289.167162" y="220.397146" transform="rotate(-0 289.167162 220.397146)">99.9%</text>
   </g>
   <g id="text_3">
    <text style="fill: #262626; font: 10px 'Arial', 'Liberation Sans', 'DejaVu Sans', 'Bitstream Vera Sans', sans-serif; text-anchor: start" x="515.360175" y="221.391716" transform="rotate(-0 515.360175 221.391716)">chicago_pd</text>
   </g>
   <g id="text_4">
    <text style="fill: #262626; font: 10px 'Arial', 'Liberation Sans', 'DejaVu Sans', 'Bitstream Vera Sans', sans-serif; text-anchor: middle" x="448.832823" y="221.09818" transform="rotate(-0 448.832823 221.09818)">0.1%</text>
   </g>
   <g id="text_5">
    <text style="fill: #262626; font: 10px 'Arial', 'Liberation Sans', 'DejaVu Sans', 'Bitstream Vera Sans', sans-serif; text-anchor: start" x="515.3616" y="220.752259" transform="rotate(-0 515.3616 220.752259)">chicago_police</text>
   </g>
   <g id="text_6">
    <text style="fill: #262626; font: 10px 'Arial', 'Liberation Sans', 'DejaVu Sans', 'Bitstream Vera Sans', sans-serif; text-anchor: middle" x="448.8336" y="220.749386" transform="rotate(-0 448.8336 220.749386)">0.0%</text>
   </g>
   <g id="text_7">
    <text style="fill: #262626; font: 12px 'Arial', 'Liberation Sans', 'DejaVu Sans', 'Bitstream Vera Sans', sans-serif; text-anchor: middle" x="369" y="45.84" transform="rotate(-0 369 45.84)">Incidents by Source</text>
   </g>
  </g>
 </g>
</svg>
