<?xml version="1.0" encoding="utf-8" standalone="no"?>
<!DOCTYPE svg PUBLIC "-//W3C//DTD SVG 1.1//EN"
  "http://www.w3.org/Graphics/SVG/1.1/DTD/svg11.dtd">
<svg xmlns:xlink="http://www.w3.org/1999/xlink" width="720pt" height="432pt" viewBox="0 0 720 432" xmlns="http://www.w3.org/2000/svg" version="1.1">
 <metadata>
  <rdf:RDF xmlns:dc="http://purl.org/dc/elements/1.1/" xmlns:cc="http://creativecommons.org/ns#" xmlns:rdf="http://www.w3.org/1999/02/22-rdf-syntax-ns#">
   <cc:Work>
    <dc:type rdf:resource="http://purl.org/dc/dcmitype/StillImage"/>
    <dc:date>2025-11-28T18:21:24.595310</dc:date>
    <dc:format>image/svg+xml</dc:format>
    <dc:creator>
     <cc:Agent>
      <dc:title>Matplotlib v3.7.5, https://matplotlib.org/</dc:title>
     </cc:Agent>
    </dc:creator>
   </cc:Work>
  </rdf:RDF>
 </metadata>
 <defs>
  <style type="text/css">*{stroke-linejoin: round; stroke-linecap: butt}</style>
 </defs>
 <g id="figure_1">
  <g id="patch_1">
   <path d="M 0 432 
L 720 432 
L 720 0 
L 0 0 
z
" style="fill: #ffffff"/>
  </g>
  <g id="axes_1">
   <g id="matplotlib.axis_1"/>
   <g id="matplotlib.axis_2"/>
   <g id="patch_2">
    <path d="M 502.056 218.16 
C 502.056 200.711494 498.623795 183.432182 491.955271 167.308251 
C 485.286748 151.18432 475.511232 136.528469 463.186646 124.177156 
C 450.862059 111.825844 436.227417 102.018604 420.117969 95.31517 
C 404.008521 88.611735 386.736684 85.142108 369.288219 85.104312 
C 351.839754 85.066516 334.553047 88.461284 318.414709 95.094865 
C 302.276371 101.728446 287.599379 111.472192 275.221399 123.769995 
C 262.843418 136.067798 253.004501 150.681161 246.266187 166.776051 
C 239.527873 182.87094 236.020841 200.135222 235.945249 217.583564 
C 235.869657 235.031906 239.226971 252.325925 245.825578 268.478595 
C 252.424186 284.631265 262.136117 299.329329 274.407078 311.733919 
C 286.67804 324.138509 301.270056 334.009058 317.350312 340.78222 
C 333.430568 347.555382 350.687212 351.099803 368.135349 351.213191 
C 385.583486 351.326578 402.884738 348.006733 419.051663 341.44313 
C 435.218588 334.879527 449.937655 325.199457 462.368797 312.955395 
C 474.799939 300.711332 484.702073 286.140731 491.510052 270.075185 
C 498.31803 254.009638 501.899823 236.760713 502.051005 219.312862 
L 369 218.16 
z
" style="fill: #f77189"/>
   </g>
   <g id="patch_3">
    <path d="M 502.051005 219.312862 
C 502.052654 219.122628 502.053894 218.932392 502.054726 218.742153 
C 502.055559 218.551914 502.055983 218.361674 502.056 218.171434 
L 369 218.16 
z
" style="fill: #bb9832"/>
   </g>
   <g id="patch_4">
    <path d="M 502.056 218.171434 
C 502.056 218.169531 502.056 218.167629 502.056 218.165726 
C 502.056 218.163824 502.056 218.161922 502.056 218.160019 
L 369 218.16 
z
" style="fill: #50b131"/>
   </g>
   <g id="text_1">
    <text style="fill: #262626; font: 10px 'Arial', 'Liberation Sans', 'DejaVu Sans', 'Bitstream Vera Sans', sans-serif; text-anchor: end" x="222.639774" y="220.111858" transform="rotate(-0 222.639774 220.111858)">newsapi</text>
   </g>
   <g id="text_2">
    <text style="fill: #262626; font: 10px 'Arial', 'Liberation Sans', 'DejaVu Sans', 'Bitstream Vera Sans', sans-serif; text-anchor: middle" x="289.167149" y="220.400076" transform="rotate(-0 289.167149 220.400076)">99.9%</text>
   </g>
   <g id="text_3">
    <text style="fill: #262626; font: 10px 'Arial', 'Liberation Sans', 'DejaVu Sans', 'Bitstream Vera Sans', sans-serif; text-anchor: start" x="515.360199" y="221.386306" transform="rotate(-0 515.360199 221.386306)">chicago_pd</text>
   </g>
   <g id="text_4">
    <text style="fill: #262626; font: 10px 'Arial', 'Liberation Sans', 'DejaVu Sans', 'Bitstream Vera Sans', sans-serif; text-anchor: middle" x="448.832836" y="221.095229" transform="rotate(-0 448.832836 221.095229)">0.1%</text>
   </g>
   <g id="text_5">
    <text style="fill: #262626; font: 10px 'Arial', 'Liberation Sans', 'DejaVu Sans', 'Bitstream Vera Sans', sans-serif; text-anchor: start" x="515.3616" y="220.752236" transform="rotate(-0 515.3616 220.752236)">chicago_police</text>
   </g>
   <g id="text_6">
    <text style="fill: #262626; font: 10px 'Arial', 'Liberation Sans', 'DejaVu Sans', 'Bitstream Vera Sans', sans-serif; text-anchor: middle" x="448.8336" y="220.749373" transform="rotate(-0 448.8336 220.749373)">0.0%</text>
   </g>
   <g id="text_7">
    <text style="fill: #262626; font: 12px 'Arial', 'Liberation Sans', 'DejaVu Sans', 'Bitstream Vera Sans', sans-serif; text-anchor: middle" x="369" y="45.84" transform="rotate(-0 369 45.84)">Incidents by Source</text>
   </g>
  </g>
 </g>
</svg>
