<?xml version="1.0" encoding="utf-8" standalone="no"?>
<!DOCTYPE svg PUBLIC "-//W3C//DTD SVG 1.1//EN"
  "http://www.w3.org/Graphics/SVG/1.1/DTD/svg11.dtd">
<svg xmlns:xlink="http://www.w3.org/1999/xlink" width="720pt" height="432pt" viewBox="0 0 720 432" xmlns="http://www.w3.org/2000/svg" version="1.1">
 <metadata>
  <rdf:RDF xmlns:dc="http://purl.org/dc/elements/1.1/" xmlns:cc="http://creativecommons.org/ns#" xmlns:rdf="http://www.w3.org/1999/02/22-rdf-syntax-ns#">
   <cc:Work>
    <dc:type rdf:resource="http://purl.org/dc/dcmitype/StillImage"/>
    <dc:date>2026-01-20T13:01:12.276333</dc:date>
    <dc:format>image/svg+xml</dc:format>
    <dc:creator>
     <cc:Agent>
      <dc:title>Matplotlib v3.7.5, https://matplotlib.org/</dc:title>
     </cc:Agent>
    </dc:creator>
   </cc:Work>
  </rdf:RDF>
 </metadata>
 <defs>
  <style type="text/css">*{stroke-linejoin: round; stroke-linecap: butt}</style>
 </defs>
 <g id="figure_1">
  <g id="patch_1">
   <path d="M 0 432 
L 720 432 
L 720 0 
L 0 0 
z
" style="fill: #ffffff"/>
  </g>
  <g id="axes_1">
   <g id="matplotlib.axis_1"/>
   <g id="matplotlib.axis_2"/>
   <g id="patch_2">
    <path d="M 502.056 218.16 
C 502.056 200.708481 498.622609 183.426243 491.951849 167.299977 
C 485.281089 151.17371 475.502373 136.516267 463.173996 124.164481 
C 450.845618 111.812694 436.206751 102.006191 420.093168 95.304852 
C 403.979585 88.603513 386.703891 85.137344 369.252403 85.104239 
C 351.800916 85.071134 334.512196 88.471735 318.373304 95.111892 
C 302.234412 101.752049 287.558445 111.502943 275.183295 123.807867 
C 262.808144 136.112791 252.97389 150.733029 246.241996 166.833871 
C 239.510101 182.934713 236.011168 200.203801 235.944958 217.655194 
C 235.878748 235.106588 239.246546 252.401727 245.856076 268.553186 
C 252.465607 284.704645 262.188642 299.399083 274.470069 311.797553 
C 286.751496 324.196023 301.353053 334.057995 317.441095 340.820419 
C 333.529138 347.582844 350.791557 351.114531 368.242794 351.213845 
C 385.69403 351.31316 402.995527 347.978176 419.159495 341.399296 
C 435.323463 334.820417 450.036318 325.125273 462.458064 312.867388 
C 474.87981 300.609503 484.769462 286.026681 491.562393 269.951495 
C 498.355324 253.876309 501.919751 236.620621 502.05217 219.169604 
L 369 218.16 
z
" style="fill: #f77189"/>
   </g>
   <g id="patch_3">
    <path d="M 502.05217 219.169604 
C 502.053434 219.003007 502.054385 218.836407 502.055023 218.669807 
C 502.055662 218.503206 502.055987 218.336604 502.056 218.170002 
L 369 218.16 
z
" style="fill: #bb9832"/>
   </g>
   <g id="patch_4">
    <path d="M 502.056 218.170002 
C 502.056 218.168336 502.056 218.16667 502.056 218.165004 
C 502.056 218.163338 502.056 218.161672 502.056 218.160006 
L 369 218.16 
z
" style="fill: #50b131"/>
   </g>
   <g id="text_1">
    <text style="fill: #262626; font: 10px 'Arial', 'Liberation Sans', 'DejaVu Sans', 'Bitstream Vera Sans', sans-serif; text-anchor: end" x="222.639453" y="220.190651" transform="rotate(-0 222.639453 220.190651)">newsapi</text>
   </g>
   <g id="text_2">
    <text style="fill: #262626; font: 10px 'Arial', 'Liberation Sans', 'DejaVu Sans', 'Bitstream Vera Sans', sans-serif; text-anchor: middle" x="289.166975" y="220.443054" transform="rotate(-0 289.166975 220.443054)">99.9%</text>
   </g>
   <g id="text_3">
    <text style="fill: #262626; font: 10px 'Arial', 'Liberation Sans', 'DejaVu Sans', 'Bitstream Vera Sans', sans-serif; text-anchor: start" x="515.360526" y="221.306725" transform="rotate(-0 515.360526 221.306725)">chicago_pd</text>
   </g>
   <g id="text_4">
    <text style="fill: #262626; font: 10px 'Arial', 'Liberation Sans', 'DejaVu Sans', 'Bitstream Vera Sans', sans-serif; text-anchor: middle" x="448.833014" y="221.051821" transform="rotate(-0 448.833014 221.051821)">0.1%</text>
   </g>
   <g id="text_5">
    <text style="fill: #262626; font: 10px 'Arial', 'Liberation Sans', 'DejaVu Sans', 'Bitstream Vera Sans', sans-serif; text-anchor: start" x="515.3616" y="220.751442" transform="rotate(-0 515.3616 220.751442)">chicago_police</text>
   </g>
   <g id="text_6">
    <text style="fill: #262626; font: 10px 'Arial', 'Liberation Sans', 'DejaVu Sans', 'Bitstream Vera Sans', sans-serif; text-anchor: middle" x="448.8336" y="220.74894" transform="rotate(-0 448.8336 220.74894)">0.0%</text>
   </g>
   <g id="text_7">
    <text style="fill: #262626; font: 12px 'Arial', 'Liberation Sans', 'DejaVu Sans', 'Bitstream Vera Sans', sans-serif; text-anchor: middle" x="369" y="45.84" transform="rotate(-0 369 45.84)">Incidents by Source</text>
   </g>
  </g>
 </g>
</svg>
