<?xml version="1.0" encoding="utf-8" standalone="no"?>
<!DOCTYPE svg PUBLIC "-//W3C//DTD SVG 1.1//EN"
  "http://www.w3.org/Graphics/SVG/1.1/DTD/svg11.dtd">
<svg xmlns:xlink="http://www.w3.org/1999/xlink" width="720pt" height="432pt" viewBox="0 0 720 432" xmlns="http://www.w3.org/2000/svg" version="1.1">
 <metadata>
  <rdf:RDF xmlns:dc="http://purl.org/dc/elements/1.1/" xmlns:cc="http://creativecommons.org/ns#" xmlns:rdf="http://www.w3.org/1999/02/22-rdf-syntax-ns#">
   <cc:Work>
    <dc:type rdf:resource="http://purl.org/dc/dcmitype/StillImage"/>
    <dc:date>2024-12-18T01:42:48.649654</dc:date>
    <dc:format>image/svg+xml</dc:format>
    <dc:creator>
     <cc:Agent>
      <dc:title>Matplotlib v3.7.5, https://matplotlib.org/</dc:title>
     </cc:Agent>
    </dc:creator>
   </cc:Work>
  </rdf:RDF>
 </metadata>
 <defs>
  <style type="text/css">*{stroke-linejoin: round; stroke-linecap: butt}</style>
 </defs>
 <g id="figure_1">
  <g id="patch_1">
   <path d="M 0 432 
L 720 432 
L 720 0 
L 0 0 
z
" style="fill: #ffffff"/>
  </g>
  <g id="axes_1">
   <g id="matplotlib.axis_1"/>
   <g id="matplotlib.axis_2"/>
   <g id="patch_2">
    <path d="M 502.056 218.16 
C 502.056 201.340912 498.866948 184.673334 492.658158 169.042191 
C 486.449368 153.411048 477.332701 139.097956 465.792184 126.862835 
C 454.251667 114.627715 440.495219 104.690997 425.253205 97.58025 
C 410.011191 90.469503 393.558218 86.312836 376.767816 85.330936 
C 359.977415 84.349037 343.152087 86.559596 327.185135 91.84525 
C 311.218182 97.130903 296.397271 105.396422 283.509282 116.202969 
C 270.621293 127.009515 259.898421 140.162395 251.909972 154.963287 
C 243.921523 169.764178 238.81142 185.946424 236.850971 202.650865 
C 234.890522 219.355306 236.115047 236.280989 240.459534 252.529285 
C 244.804021 268.777582 252.190197 284.055757 262.225911 297.552651 
C 272.261625 311.049545 284.76607 322.521994 299.075351 331.360895 
C 313.384633 340.199796 329.24095 346.245904 345.802449 349.178215 
C 362.363949 352.110527 379.332252 351.876212 395.806467 348.487712 
C 412.280683 345.099211 427.964005 338.617574 442.023764 329.386926 
C 456.083524 320.156278 468.266416 308.342922 477.925618 294.574062 
C 487.58482 280.805201 494.546309 265.3289 498.44048 248.966836 
L 369 218.16 
z
" style="fill: #f77189"/>
   </g>
   <g id="patch_3">
    <path d="M 498.44048 248.966836 
C 499.628619 243.974659 500.52696 238.917925 501.131001 233.821982 
C 501.735042 228.726039 502.043772 223.599416 502.055644 218.467811 
L 369 218.16 
z
" style="fill: #bb9832"/>
   </g>
   <g id="patch_4">
    <path d="M 502.055644 218.467811 
C 502.055763 218.41651 502.055852 218.365208 502.055911 218.313906 
C 502.05597 218.262604 502.056 218.211302 502.056 218.16 
L 369 218.16 
z
" style="fill: #50b131"/>
   </g>
   <g id="text_1">
    <text style="fill: #262626; font: 10px 'Arial', 'Liberation Sans', 'DejaVu Sans', 'Bitstream Vera Sans', sans-serif; text-anchor: end" x="223.636068" y="203.685889" transform="rotate(-0 223.636068 203.685889)">newsapi</text>
   </g>
   <g id="text_2">
    <text style="fill: #262626; font: 10px 'Arial', 'Liberation Sans', 'DejaVu Sans', 'Bitstream Vera Sans', sans-serif; text-anchor: middle" x="289.710583" y="211.440456" transform="rotate(-0 289.710583 211.440456)">96.3%</text>
   </g>
   <g id="text_3">
    <text style="fill: #262626; font: 10px 'Arial', 'Liberation Sans', 'DejaVu Sans', 'Bitstream Vera Sans', sans-serif; text-anchor: start" x="514.344101" y="237.974117" transform="rotate(-0 514.344101 237.974117)">chicago_pd</text>
   </g>
   <g id="text_4">
    <text style="fill: #262626; font: 10px 'Arial', 'Liberation Sans', 'DejaVu Sans', 'Bitstream Vera Sans', sans-serif; text-anchor: middle" x="448.278601" y="230.143127" transform="rotate(-0 448.278601 230.143127)">3.7%</text>
   </g>
   <g id="text_5">
    <text style="fill: #262626; font: 10px 'Arial', 'Liberation Sans', 'DejaVu Sans', 'Bitstream Vera Sans', sans-serif; text-anchor: start" x="515.361502" y="220.915234" transform="rotate(-0 515.361502 220.915234)">chicago_police</text>
   </g>
   <g id="text_6">
    <text style="fill: #262626; font: 10px 'Arial', 'Liberation Sans', 'DejaVu Sans', 'Bitstream Vera Sans', sans-serif; text-anchor: middle" x="448.833547" y="220.838281" transform="rotate(-0 448.833547 220.838281)">0.0%</text>
   </g>
   <g id="text_7">
    <text style="fill: #262626; font: 12px 'Arial', 'Liberation Sans', 'DejaVu Sans', 'Bitstream Vera Sans', sans-serif; text-anchor: middle" x="369" y="45.84" transform="rotate(-0 369 45.84)">Incidents by Source</text>
   </g>
  </g>
 </g>
</svg>
