<?xml version="1.0" encoding="utf-8" standalone="no"?>
<!DOCTYPE svg PUBLIC "-//W3C//DTD SVG 1.1//EN"
  "http://www.w3.org/Graphics/SVG/1.1/DTD/svg11.dtd">
<svg xmlns:xlink="http://www.w3.org/1999/xlink" width="720pt" height="432pt" viewBox="0 0 720 432" xmlns="http://www.w3.org/2000/svg" version="1.1">
 <metadata>
  <rdf:RDF xmlns:dc="http://purl.org/dc/elements/1.1/" xmlns:cc="http://creativecommons.org/ns#" xmlns:rdf="http://www.w3.org/1999/02/22-rdf-syntax-ns#">
   <cc:Work>
    <dc:type rdf:resource="http://purl.org/dc/dcmitype/StillImage"/>
    <dc:date>2026-06-15T11:53:48.792581</dc:date>
    <dc:format>image/svg+xml</dc:format>
    <dc:creator>
     <cc:Agent>
      <dc:title>Matplotlib v3.7.5, https://matplotlib.org/</dc:title>
     </cc:Agent>
    </dc:creator>
   </cc:Work>
  </rdf:RDF>
 </metadata>
 <defs>
  <style type="text/css">*{stroke-linejoin: round; stroke-linecap: butt}</style>
 </defs>
 <g id="figure_1">
  <g id="patch_1">
   <path d="M 0 432 
L 720 432 
L 720 0 
L 0 0 
z
" style="fill: #ffffff"/>
  </g>
  <g id="axes_1">
   <g id="matplotlib.axis_1"/>
   <g id="matplotlib.axis_2"/>
   <g id="patch_2">
    <path d="M 502.056 218.16 
C 502.056 200.703158 498.620514 183.415752 491.945802 167.28536 
C 485.271089 151.154968 475.486719 136.494713 463.151644 124.142092 
C 450.816569 111.789471 436.170237 101.984272 420.049349 95.286638 
C 403.928461 88.589004 386.645956 85.128948 369.189131 85.104134 
C 351.732307 85.079321 334.440035 88.49023 318.300172 95.142007 
C 302.160308 101.793785 287.48616 111.557306 275.116018 123.87481 
C 262.745876 136.192314 252.919868 150.824694 246.199326 166.936046 
C 239.478783 183.047397 235.994165 200.324966 235.944538 217.781738 
C 235.89491 235.238509 239.281236 252.535612 245.910065 268.684914 
C 252.538894 284.834216 262.281546 299.522228 274.581455 311.909866 
C 286.881363 324.297505 301.499761 334.144302 317.601543 340.887739 
C 333.703326 347.631175 350.975925 351.140349 368.432608 351.21479 
C 385.889291 351.289232 403.19119 347.927496 419.349898 341.321629 
C 435.508607 334.715762 450.210452 324.993997 462.615561 312.71171 
C 475.020671 300.429422 484.888237 285.825035 491.654555 269.732855 
C 498.420872 253.640674 501.954594 236.373081 502.053849 218.916521 
L 369 218.16 
z
" style="fill: #f77189"/>
   </g>
   <g id="patch_3">
    <path d="M 502.053849 218.916521 
C 502.054559 218.791684 502.055093 218.666845 502.055452 218.542006 
C 502.05581 218.417167 502.055993 218.292328 502.056 218.167488 
L 369 218.16 
z
" style="fill: #bb9832"/>
   </g>
   <g id="patch_4">
    <path d="M 502.056 218.167488 
C 502.056 218.16624 502.056 218.164991 502.056 218.163743 
C 502.056 218.162494 502.056 218.161246 502.056 218.159998 
L 369 218.16 
z
" style="fill: #50b131"/>
   </g>
   <g id="text_1">
    <text style="fill: #262626; font: 10px 'Arial', 'Liberation Sans', 'DejaVu Sans', 'Bitstream Vera Sans', sans-serif; text-anchor: end" x="222.638991" y="220.329849" transform="rotate(-0 222.638991 220.329849)">newsapi</text>
   </g>
   <g id="text_2">
    <text style="fill: #262626; font: 10px 'Arial', 'Liberation Sans', 'DejaVu Sans', 'Bitstream Vera Sans', sans-serif; text-anchor: middle" x="289.166723" y="220.51898" transform="rotate(-0 289.166723 220.51898)">99.9%</text>
   </g>
   <g id="text_3">
    <text style="fill: #262626; font: 10px 'Arial', 'Liberation Sans', 'DejaVu Sans', 'Bitstream Vera Sans', sans-serif; text-anchor: start" x="515.360997" y="221.166144" transform="rotate(-0 515.360997 221.166144)">chicago_pd</text>
   </g>
   <g id="text_4">
    <text style="fill: #262626; font: 10px 'Arial', 'Liberation Sans', 'DejaVu Sans', 'Bitstream Vera Sans', sans-serif; text-anchor: middle" x="448.833271" y="220.975141" transform="rotate(-0 448.833271 220.975141)">0.1%</text>
   </g>
   <g id="text_5">
    <text style="fill: #262626; font: 10px 'Arial', 'Liberation Sans', 'DejaVu Sans', 'Bitstream Vera Sans', sans-serif; text-anchor: start" x="515.3616" y="220.750055" transform="rotate(-0 515.3616 220.750055)">chicago_police</text>
   </g>
   <g id="text_6">
    <text style="fill: #262626; font: 10px 'Arial', 'Liberation Sans', 'DejaVu Sans', 'Bitstream Vera Sans', sans-serif; text-anchor: middle" x="448.8336" y="220.748183" transform="rotate(-0 448.8336 220.748183)">0.0%</text>
   </g>
   <g id="text_7">
    <text style="fill: #262626; font: 12px 'Arial', 'Liberation Sans', 'DejaVu Sans', 'Bitstream Vera Sans', sans-serif; text-anchor: middle" x="369" y="45.84" transform="rotate(-0 369 45.84)">Incidents by Source</text>
   </g>
  </g>
 </g>
</svg>
