<?xml version="1.0" encoding="utf-8" standalone="no"?>
<!DOCTYPE svg PUBLIC "-//W3C//DTD SVG 1.1//EN"
  "http://www.w3.org/Graphics/SVG/1.1/DTD/svg11.dtd">
<svg xmlns:xlink="http://www.w3.org/1999/xlink" width="720pt" height="432pt" viewBox="0 0 720 432" xmlns="http://www.w3.org/2000/svg" version="1.1">
 <metadata>
  <rdf:RDF xmlns:dc="http://purl.org/dc/elements/1.1/" xmlns:cc="http://creativecommons.org/ns#" xmlns:rdf="http://www.w3.org/1999/02/22-rdf-syntax-ns#">
   <cc:Work>
    <dc:type rdf:resource="http://purl.org/dc/dcmitype/StillImage"/>
    <dc:date>2025-03-25T12:25:55.059669</dc:date>
    <dc:format>image/svg+xml</dc:format>
    <dc:creator>
     <cc:Agent>
      <dc:title>Matplotlib v3.7.5, https://matplotlib.org/</dc:title>
     </cc:Agent>
    </dc:creator>
   </cc:Work>
  </rdf:RDF>
 </metadata>
 <defs>
  <style type="text/css">*{stroke-linejoin: round; stroke-linecap: butt}</style>
 </defs>
 <g id="figure_1">
  <g id="patch_1">
   <path d="M 0 432 
L 720 432 
L 720 0 
L 0 0 
z
" style="fill: #ffffff"/>
  </g>
  <g id="axes_1">
   <g id="matplotlib.axis_1"/>
   <g id="matplotlib.axis_2"/>
   <g id="patch_2">
    <path d="M 502.056 218.16 
C 502.056 200.766912 498.645562 183.541407 492.018116 167.460471 
C 485.390671 151.379536 475.67393 136.753051 463.419002 124.410593 
C 451.164074 112.068136 436.607112 102.247546 420.573751 95.505822 
C 404.540389 88.764098 387.339592 85.231154 369.946944 85.10737 
C 352.554296 84.983585 335.304956 88.271345 319.177261 94.784177 
C 303.049566 101.297008 288.354299 110.909408 275.924937 123.076186 
C 263.495575 135.242964 253.571633 149.729665 246.715973 165.71464 
C 239.860312 181.699615 236.205042 198.874833 235.957479 216.26616 
C 235.709916 233.657486 238.874831 250.929788 245.272718 267.103426 
C 251.670606 283.277064 261.178178 298.040369 273.256189 310.556006 
C 285.334201 323.071642 299.749907 333.098433 315.685687 340.067683 
C 331.621467 347.036933 348.770235 350.814345 366.159359 351.185674 
C 383.548484 351.557003 400.842873 348.515092 417.061634 342.232473 
C 433.280395 335.949853 448.110991 326.547591 460.712268 314.558957 
C 473.313546 302.570324 483.442677 288.226343 490.525164 272.340566 
C 497.607651 256.454789 501.507013 239.333338 502.002088 221.947297 
L 369 218.16 
z
" style="fill: #f77189"/>
   </g>
   <g id="patch_3">
    <path d="M 502.002088 221.947297 
C 502.01988 221.322499 502.033268 220.697583 502.042253 220.072596 
C 502.051238 219.447609 502.055818 218.822566 502.055995 218.197515 
L 369 218.16 
z
" style="fill: #bb9832"/>
   </g>
   <g id="patch_4">
    <path d="M 502.055995 218.197515 
C 502.055996 218.191264 502.055998 218.185014 502.055999 218.178763 
C 502.056 218.172513 502.056 218.166262 502.056 218.160012 
L 369 218.16 
z
" style="fill: #50b131"/>
   </g>
   <g id="text_1">
    <text style="fill: #262626; font: 10px 'Arial', 'Liberation Sans', 'DejaVu Sans', 'Bitstream Vera Sans', sans-serif; text-anchor: end" x="222.653226" y="218.662713" transform="rotate(-0 222.653226 218.662713)">newsapi</text>
   </g>
   <g id="text_2">
    <text style="fill: #262626; font: 10px 'Arial', 'Liberation Sans', 'DejaVu Sans', 'Bitstream Vera Sans', sans-serif; text-anchor: middle" x="289.174487" y="219.609633" transform="rotate(-0 289.174487 219.609633)">99.5%</text>
   </g>
   <g id="text_3">
    <text style="fill: #262626; font: 10px 'Arial', 'Liberation Sans', 'DejaVu Sans', 'Bitstream Vera Sans', sans-serif; text-anchor: start" x="515.346478" y="222.849793" transform="rotate(-0 515.346478 222.849793)">chicago_pd</text>
   </g>
   <g id="text_4">
    <text style="fill: #262626; font: 10px 'Arial', 'Liberation Sans', 'DejaVu Sans', 'Bitstream Vera Sans', sans-serif; text-anchor: middle" x="448.825352" y="221.893495" transform="rotate(-0 448.825352 221.893495)">0.4%</text>
   </g>
   <g id="text_5">
    <text style="fill: #262626; font: 10px 'Arial', 'Liberation Sans', 'DejaVu Sans', 'Bitstream Vera Sans', sans-serif; text-anchor: start" x="515.361599" y="220.766577" transform="rotate(-0 515.361599 220.766577)">chicago_police</text>
   </g>
   <g id="text_6">
    <text style="fill: #262626; font: 10px 'Arial', 'Liberation Sans', 'DejaVu Sans', 'Bitstream Vera Sans', sans-serif; text-anchor: middle" x="448.833599" y="220.757196" transform="rotate(-0 448.833599 220.757196)">0.0%</text>
   </g>
   <g id="text_7">
    <text style="fill: #262626; font: 12px 'Arial', 'Liberation Sans', 'DejaVu Sans', 'Bitstream Vera Sans', sans-serif; text-anchor: middle" x="369" y="45.84" transform="rotate(-0 369 45.84)">Incidents by Source</text>
   </g>
  </g>
 </g>
</svg>
