<?xml version="1.0" encoding="utf-8" standalone="no"?>
<!DOCTYPE svg PUBLIC "-//W3C//DTD SVG 1.1//EN"
  "http://www.w3.org/Graphics/SVG/1.1/DTD/svg11.dtd">
<svg xmlns:xlink="http://www.w3.org/1999/xlink" width="720pt" height="432pt" viewBox="0 0 720 432" xmlns="http://www.w3.org/2000/svg" version="1.1">
 <metadata>
  <rdf:RDF xmlns:dc="http://purl.org/dc/elements/1.1/" xmlns:cc="http://creativecommons.org/ns#" xmlns:rdf="http://www.w3.org/1999/02/22-rdf-syntax-ns#">
   <cc:Work>
    <dc:type rdf:resource="http://purl.org/dc/dcmitype/StillImage"/>
    <dc:date>2025-11-11T01:54:22.625900</dc:date>
    <dc:format>image/svg+xml</dc:format>
    <dc:creator>
     <cc:Agent>
      <dc:title>Matplotlib v3.7.5, https://matplotlib.org/</dc:title>
     </cc:Agent>
    </dc:creator>
   </cc:Work>
  </rdf:RDF>
 </metadata>
 <defs>
  <style type="text/css">*{stroke-linejoin: round; stroke-linecap: butt}</style>
 </defs>
 <g id="figure_1">
  <g id="patch_1">
   <path d="M 0 432 
L 720 432 
L 720 0 
L 0 0 
z
" style="fill: #ffffff"/>
  </g>
  <g id="axes_1">
   <g id="matplotlib.axis_1"/>
   <g id="matplotlib.axis_2"/>
   <g id="patch_2">
    <path d="M 502.056 218.16 
C 502.056 200.712675 498.624259 183.434509 491.956613 167.311494 
C 485.288966 151.188479 475.514704 136.533252 463.191604 124.182125 
C 450.868503 111.830999 436.235518 102.023471 420.127691 95.319215 
C 404.019864 88.61496 386.749538 85.143978 369.302259 85.104343 
C 351.854979 85.064709 334.569062 88.457191 318.430941 95.088194 
C 302.292821 101.719197 287.615428 111.460142 275.23634 123.755153 
C 262.857251 136.050164 253.016507 150.660832 246.275677 166.753388 
C 239.534848 182.845944 236.024642 200.10834 235.945373 217.555484 
C 235.866105 235.002629 239.21931 252.296208 245.813636 268.44935 
C 252.407961 284.602492 262.115539 299.301976 274.382397 311.708962 
C 286.649256 324.115949 301.237531 333.989858 317.314732 340.767228 
C 333.391934 347.544597 350.646311 351.094008 368.093231 351.21291 
C 385.54015 351.331813 402.841302 348.017901 419.009383 341.460287 
C 435.177463 334.902673 449.898961 325.228513 462.333782 312.989871 
C 474.768603 300.751228 484.675626 286.185421 491.4895 270.123657 
C 498.303373 254.061893 501.891971 236.815623 502.050507 219.369019 
L 369 218.16 
z
" style="fill: #f77189"/>
   </g>
   <g id="patch_3">
    <path d="M 502.050507 219.369019 
C 502.05232 219.169517 502.053684 218.970011 502.054599 218.770502 
C 502.055515 218.570994 502.055982 218.371484 502.055999 218.171974 
L 369 218.16 
z
" style="fill: #bb9832"/>
   </g>
   <g id="patch_4">
    <path d="M 502.055999 218.171974 
C 502.056 218.169979 502.056 218.167984 502.056 218.165989 
C 502.056 218.163994 502.056 218.161999 502.056 218.160003 
L 369 218.16 
z
" style="fill: #50b131"/>
   </g>
   <g id="text_1">
    <text style="fill: #262626; font: 10px 'Arial', 'Liberation Sans', 'DejaVu Sans', 'Bitstream Vera Sans', sans-serif; text-anchor: end" x="222.639911" y="220.08097" transform="rotate(-0 222.639911 220.08097)">newsapi</text>
   </g>
   <g id="text_2">
    <text style="fill: #262626; font: 10px 'Arial', 'Liberation Sans', 'DejaVu Sans', 'Bitstream Vera Sans', sans-serif; text-anchor: middle" x="289.167224" y="220.383228" transform="rotate(-0 289.167224 220.383228)">99.9%</text>
   </g>
   <g id="text_3">
    <text style="fill: #262626; font: 10px 'Arial', 'Liberation Sans', 'DejaVu Sans', 'Bitstream Vera Sans', sans-serif; text-anchor: start" x="515.360059" y="221.41749" transform="rotate(-0 515.360059 221.41749)">chicago_pd</text>
   </g>
   <g id="text_4">
    <text style="fill: #262626; font: 10px 'Arial', 'Liberation Sans', 'DejaVu Sans', 'Bitstream Vera Sans', sans-serif; text-anchor: middle" x="448.83276" y="221.112239" transform="rotate(-0 448.83276 221.112239)">0.1%</text>
   </g>
   <g id="text_5">
    <text style="fill: #262626; font: 10px 'Arial', 'Liberation Sans', 'DejaVu Sans', 'Bitstream Vera Sans', sans-serif; text-anchor: start" x="515.3616" y="220.752525" transform="rotate(-0 515.3616 220.752525)">chicago_police</text>
   </g>
   <g id="text_6">
    <text style="fill: #262626; font: 10px 'Arial', 'Liberation Sans', 'DejaVu Sans', 'Bitstream Vera Sans', sans-serif; text-anchor: middle" x="448.8336" y="220.749531" transform="rotate(-0 448.8336 220.749531)">0.0%</text>
   </g>
   <g id="text_7">
    <text style="fill: #262626; font: 12px 'Arial', 'Liberation Sans', 'DejaVu Sans', 'Bitstream Vera Sans', sans-serif; text-anchor: middle" x="369" y="45.84" transform="rotate(-0 369 45.84)">Incidents by Source</text>
   </g>
  </g>
 </g>
</svg>
