<?xml version="1.0" encoding="utf-8" standalone="no"?>
<!DOCTYPE svg PUBLIC "-//W3C//DTD SVG 1.1//EN"
  "http://www.w3.org/Graphics/SVG/1.1/DTD/svg11.dtd">
<svg xmlns:xlink="http://www.w3.org/1999/xlink" width="720pt" height="432pt" viewBox="0 0 720 432" xmlns="http://www.w3.org/2000/svg" version="1.1">
 <metadata>
  <rdf:RDF xmlns:dc="http://purl.org/dc/elements/1.1/" xmlns:cc="http://creativecommons.org/ns#" xmlns:rdf="http://www.w3.org/1999/02/22-rdf-syntax-ns#">
   <cc:Work>
    <dc:type rdf:resource="http://purl.org/dc/dcmitype/StillImage"/>
    <dc:date>2025-04-08T18:18:22.060875</dc:date>
    <dc:format>image/svg+xml</dc:format>
    <dc:creator>
     <cc:Agent>
      <dc:title>Matplotlib v3.7.5, https://matplotlib.org/</dc:title>
     </cc:Agent>
    </dc:creator>
   </cc:Work>
  </rdf:RDF>
 </metadata>
 <defs>
  <style type="text/css">*{stroke-linejoin: round; stroke-linecap: butt}</style>
 </defs>
 <g id="figure_1">
  <g id="patch_1">
   <path d="M 0 432 
L 720 432 
L 720 0 
L 0 0 
z
" style="fill: #ffffff"/>
  </g>
  <g id="axes_1">
   <g id="matplotlib.axis_1"/>
   <g id="matplotlib.axis_2"/>
   <g id="patch_2">
    <path d="M 502.056 218.16 
C 502.056 200.758339 498.642199 183.52451 492.008407 167.436918 
C 485.374614 151.349327 475.648791 136.718289 463.383095 124.374444 
C 451.117399 112.030599 436.548425 102.21205 420.503289 95.476218 
C 404.458154 88.740387 387.246353 85.217202 369.845043 85.106683 
C 352.443733 84.996165 335.18857 88.300444 319.059172 94.83193 
C 302.929773 101.363416 288.237261 110.996121 275.815766 123.183173 
C 263.39427 135.370226 253.48339 149.876548 246.645792 165.87858 
C 239.808193 181.880613 236.175766 199.06969 235.954734 216.469948 
C 235.733701 233.870205 238.928326 251.146005 245.357241 267.31656 
C 251.786157 283.487115 261.325355 298.240508 273.433272 310.739154 
C 285.54119 323.237799 299.984275 333.240609 315.942559 340.1797 
C 331.900843 347.11879 349.066504 350.860312 366.465007 351.191849 
C 383.863509 351.523387 401.15925 348.438546 417.370309 342.11246 
C 433.581368 335.786374 448.395048 326.341067 460.970339 314.312774 
C 473.54563 302.28448 483.639967 287.905214 490.680269 271.991322 
C 497.720571 256.077431 501.571037 238.935878 502.013067 221.539832 
L 369 218.16 
z
" style="fill: #f77189"/>
   </g>
   <g id="patch_3">
    <path d="M 502.013067 221.539832 
C 502.027235 220.982221 502.037898 220.424525 502.045053 219.866779 
C 502.052208 219.309033 502.055856 218.751248 502.055996 218.193456 
L 369 218.16 
z
" style="fill: #bb9832"/>
   </g>
   <g id="patch_4">
    <path d="M 502.055996 218.193456 
C 502.055997 218.187879 502.055998 218.182301 502.055999 218.176723 
C 502.056 218.171145 502.056 218.165567 502.056 218.159989 
L 369 218.16 
z
" style="fill: #50b131"/>
   </g>
   <g id="text_1">
    <text style="fill: #262626; font: 10px 'Arial', 'Liberation Sans', 'DejaVu Sans', 'Bitstream Vera Sans', sans-serif; text-anchor: end" x="222.650207" y="218.88688" transform="rotate(-0 222.650207 218.88688)">newsapi</text>
   </g>
   <g id="text_2">
    <text style="fill: #262626; font: 10px 'Arial', 'Liberation Sans', 'DejaVu Sans', 'Bitstream Vera Sans', sans-serif; text-anchor: middle" x="289.17284" y="219.731906" transform="rotate(-0 289.17284 219.731906)">99.6%</text>
   </g>
   <g id="text_3">
    <text style="fill: #262626; font: 10px 'Arial', 'Liberation Sans', 'DejaVu Sans', 'Bitstream Vera Sans', sans-serif; text-anchor: start" x="515.349558" y="222.623395" transform="rotate(-0 515.349558 222.623395)">chicago_pd</text>
   </g>
   <g id="text_4">
    <text style="fill: #262626; font: 10px 'Arial', 'Liberation Sans', 'DejaVu Sans', 'Bitstream Vera Sans', sans-serif; text-anchor: middle" x="448.827032" y="221.770005" transform="rotate(-0 448.827032 221.770005)">0.4%</text>
   </g>
   <g id="text_5">
    <text style="fill: #262626; font: 10px 'Arial', 'Liberation Sans', 'DejaVu Sans', 'Bitstream Vera Sans', sans-serif; text-anchor: start" x="515.361599" y="220.764333" transform="rotate(-0 515.361599 220.764333)">chicago_police</text>
   </g>
   <g id="text_6">
    <text style="fill: #262626; font: 10px 'Arial', 'Liberation Sans', 'DejaVu Sans', 'Bitstream Vera Sans', sans-serif; text-anchor: middle" x="448.833599" y="220.755971" transform="rotate(-0 448.833599 220.755971)">0.0%</text>
   </g>
   <g id="text_7">
    <text style="fill: #262626; font: 12px 'Arial', 'Liberation Sans', 'DejaVu Sans', 'Bitstream Vera Sans', sans-serif; text-anchor: middle" x="369" y="45.84" transform="rotate(-0 369 45.84)">Incidents by Source</text>
   </g>
  </g>
 </g>
</svg>
