<?xml version="1.0" encoding="utf-8" standalone="no"?>
<!DOCTYPE svg PUBLIC "-//W3C//DTD SVG 1.1//EN"
  "http://www.w3.org/Graphics/SVG/1.1/DTD/svg11.dtd">
<svg xmlns:xlink="http://www.w3.org/1999/xlink" width="720pt" height="432pt" viewBox="0 0 720 432" xmlns="http://www.w3.org/2000/svg" version="1.1">
 <metadata>
  <rdf:RDF xmlns:dc="http://purl.org/dc/elements/1.1/" xmlns:cc="http://creativecommons.org/ns#" xmlns:rdf="http://www.w3.org/1999/02/22-rdf-syntax-ns#">
   <cc:Work>
    <dc:type rdf:resource="http://purl.org/dc/dcmitype/StillImage"/>
    <dc:date>2026-07-19T03:21:25.579696</dc:date>
    <dc:format>image/svg+xml</dc:format>
    <dc:creator>
     <cc:Agent>
      <dc:title>Matplotlib v3.7.5, https://matplotlib.org/</dc:title>
     </cc:Agent>
    </dc:creator>
   </cc:Work>
  </rdf:RDF>
 </metadata>
 <defs>
  <style type="text/css">*{stroke-linejoin: round; stroke-linecap: butt}</style>
 </defs>
 <g id="figure_1">
  <g id="patch_1">
   <path d="M 0 432 
L 720 432 
L 720 0 
L 0 0 
z
" style="fill: #ffffff"/>
  </g>
  <g id="axes_1">
   <g id="matplotlib.axis_1"/>
   <g id="matplotlib.axis_2"/>
   <g id="patch_2">
    <path d="M 502.056 218.16 
C 502.056 200.702176 498.620128 183.413817 491.944686 167.282664 
C 485.269244 151.151511 475.483831 136.490737 463.14752 124.137962 
C 450.811209 111.785187 436.1635 101.980229 420.041264 95.283279 
C 403.919029 88.586329 386.635267 85.127402 369.177458 85.104118 
C 351.71965 85.080835 334.426724 88.493646 318.286682 95.147568 
C 302.14664 101.801489 287.472829 111.56734 275.103611 123.887165 
C 262.734394 136.20699 252.90991 150.84161 246.191463 166.954899 
C 239.473016 183.068188 235.991041 200.347321 235.944473 217.805083 
C 235.897906 235.262845 239.287651 252.560308 245.92004 268.70921 
C 252.55243 284.858112 262.298701 299.544935 274.602018 311.930572 
C 286.905335 324.316209 301.526839 334.160204 317.631153 340.900135 
C 333.735468 347.640066 351.009942 351.145084 368.467626 351.214935 
C 385.92531 351.284786 403.227278 347.918114 419.385012 341.307269 
C 435.542745 334.696423 450.242554 324.969748 462.644589 312.682961 
C 475.046624 300.396174 484.910111 285.787812 491.671515 269.692501 
C 498.432918 253.59719 501.960972 236.327406 502.054107 218.869831 
L 369 218.16 
z
" style="fill: #f77189"/>
   </g>
   <g id="patch_3">
    <path d="M 502.054107 218.869831 
C 502.054731 218.752696 502.055202 218.635561 502.055517 218.518425 
C 502.055833 218.401289 502.055994 218.284153 502.056 218.167017 
L 369 218.16 
z
" style="fill: #bb9832"/>
   </g>
   <g id="patch_4">
    <path d="M 502.056 218.167017 
C 502.056 218.165845 502.056 218.164674 502.056 218.163503 
C 502.056 218.162331 502.056 218.16116 502.056 218.159988 
L 369 218.16 
z
" style="fill: #50b131"/>
   </g>
   <g id="text_1">
    <text style="fill: #262626; font: 10px 'Arial', 'Liberation Sans', 'DejaVu Sans', 'Bitstream Vera Sans', sans-serif; text-anchor: end" x="222.638921" y="220.355529" transform="rotate(-0 222.638921 220.355529)">newsapi</text>
   </g>
   <g id="text_2">
    <text style="fill: #262626; font: 10px 'Arial', 'Liberation Sans', 'DejaVu Sans', 'Bitstream Vera Sans', sans-serif; text-anchor: middle" x="289.166684" y="220.532988" transform="rotate(-0 289.166684 220.532988)">99.9%</text>
   </g>
   <g id="text_3">
    <text style="fill: #262626; font: 10px 'Arial', 'Liberation Sans', 'DejaVu Sans', 'Bitstream Vera Sans', sans-serif; text-anchor: start" x="515.361069" y="221.140205" transform="rotate(-0 515.361069 221.140205)">chicago_pd</text>
   </g>
   <g id="text_4">
    <text style="fill: #262626; font: 10px 'Arial', 'Liberation Sans', 'DejaVu Sans', 'Bitstream Vera Sans', sans-serif; text-anchor: middle" x="448.83331" y="220.960992" transform="rotate(-0 448.83331 220.960992)">0.1%</text>
   </g>
   <g id="text_5">
    <text style="fill: #262626; font: 10px 'Arial', 'Liberation Sans', 'DejaVu Sans', 'Bitstream Vera Sans', sans-serif; text-anchor: start" x="515.3616" y="220.74979" transform="rotate(-0 515.3616 220.74979)">chicago_police</text>
   </g>
   <g id="text_6">
    <text style="fill: #262626; font: 10px 'Arial', 'Liberation Sans', 'DejaVu Sans', 'Bitstream Vera Sans', sans-serif; text-anchor: middle" x="448.8336" y="220.748039" transform="rotate(-0 448.8336 220.748039)">0.0%</text>
   </g>
   <g id="text_7">
    <text style="fill: #262626; font: 12px 'Arial', 'Liberation Sans', 'DejaVu Sans', 'Bitstream Vera Sans', sans-serif; text-anchor: middle" x="369" y="45.84" transform="rotate(-0 369 45.84)">Incidents by Source</text>
   </g>
  </g>
 </g>
</svg>
