<?xml version="1.0" encoding="utf-8" standalone="no"?>
<!DOCTYPE svg PUBLIC "-//W3C//DTD SVG 1.1//EN"
  "http://www.w3.org/Graphics/SVG/1.1/DTD/svg11.dtd">
<svg xmlns:xlink="http://www.w3.org/1999/xlink" width="720pt" height="432pt" viewBox="0 0 720 432" xmlns="http://www.w3.org/2000/svg" version="1.1">
 <metadata>
  <rdf:RDF xmlns:dc="http://purl.org/dc/elements/1.1/" xmlns:cc="http://creativecommons.org/ns#" xmlns:rdf="http://www.w3.org/1999/02/22-rdf-syntax-ns#">
   <cc:Work>
    <dc:type rdf:resource="http://purl.org/dc/dcmitype/StillImage"/>
    <dc:date>2026-03-23T01:48:27.676567</dc:date>
    <dc:format>image/svg+xml</dc:format>
    <dc:creator>
     <cc:Agent>
      <dc:title>Matplotlib v3.7.5, https://matplotlib.org/</dc:title>
     </cc:Agent>
    </dc:creator>
   </cc:Work>
  </rdf:RDF>
 </metadata>
 <defs>
  <style type="text/css">*{stroke-linejoin: round; stroke-linecap: butt}</style>
 </defs>
 <g id="figure_1">
  <g id="patch_1">
   <path d="M 0 432 
L 720 432 
L 720 0 
L 0 0 
z
" style="fill: #ffffff"/>
  </g>
  <g id="axes_1">
   <g id="matplotlib.axis_1"/>
   <g id="matplotlib.axis_2"/>
   <g id="patch_2">
    <path d="M 502.056 218.16 
C 502.056 200.705892 498.62159 183.421141 491.948908 167.292868 
C 485.276226 151.164595 475.494761 136.505785 463.163126 124.153592 
C 450.831492 111.801399 436.188994 101.99553 420.071859 95.295992 
C 403.954723 88.596454 386.675716 85.133258 369.221633 85.104185 
C 351.76755 85.075111 334.477102 88.480724 318.337736 95.126532 
C 302.198371 101.77234 287.523287 111.529374 275.150571 123.840417 
C 262.777855 136.151459 252.947609 150.777602 246.221234 166.883556 
C 239.494859 182.98951 236.002885 200.262724 235.944738 217.716734 
C 235.886591 235.170745 239.263399 252.466842 245.882314 268.617255 
C 252.501229 284.767668 262.233805 299.458983 274.524221 311.852189 
C 286.814637 324.245395 301.424386 334.09999 317.519113 340.853184 
C 333.61384 347.606378 350.881214 351.127118 368.335103 351.214339 
C 385.788993 351.301559 403.090691 347.953566 419.252106 341.361562 
C 435.413522 334.769558 450.121029 325.061467 462.53469 312.791712 
C 474.948351 300.521957 484.827268 285.928643 491.607261 269.845187 
C 498.387255 253.761731 501.936753 236.500246 502.053047 219.046526 
L 369 218.16 
z
" style="fill: #f77189"/>
   </g>
   <g id="patch_3">
    <path d="M 502.053047 219.046526 
C 502.054021 218.90024 502.054755 218.753953 502.055247 218.607665 
C 502.055739 218.461377 502.05599 218.315088 502.056 218.168799 
L 369 218.16 
z
" style="fill: #bb9832"/>
   </g>
   <g id="patch_4">
    <path d="M 502.056 218.168799 
C 502.056 218.167336 502.056 218.165873 502.056 218.16441 
C 502.056 218.162947 502.056 218.161484 502.056 218.160021 
L 369 218.16 
z
" style="fill: #50b131"/>
   </g>
   <g id="text_1">
    <text style="fill: #262626; font: 10px 'Arial', 'Liberation Sans', 'DejaVu Sans', 'Bitstream Vera Sans', sans-serif; text-anchor: end" x="222.639212" y="220.258345" transform="rotate(-0 222.639212 220.258345)">newsapi</text>
   </g>
   <g id="text_2">
    <text style="fill: #262626; font: 10px 'Arial', 'Liberation Sans', 'DejaVu Sans', 'Bitstream Vera Sans', sans-serif; text-anchor: middle" x="289.166843" y="220.479978" transform="rotate(-0 289.166843 220.479978)">99.9%</text>
   </g>
   <g id="text_3">
    <text style="fill: #262626; font: 10px 'Arial', 'Liberation Sans', 'DejaVu Sans', 'Bitstream Vera Sans', sans-serif; text-anchor: start" x="515.360772" y="221.238369" transform="rotate(-0 515.360772 221.238369)">chicago_pd</text>
   </g>
   <g id="text_4">
    <text style="fill: #262626; font: 10px 'Arial', 'Liberation Sans', 'DejaVu Sans', 'Bitstream Vera Sans', sans-serif; text-anchor: middle" x="448.833148" y="221.014536" transform="rotate(-0 448.833148 221.014536)">0.1%</text>
   </g>
   <g id="text_5">
    <text style="fill: #262626; font: 10px 'Arial', 'Liberation Sans', 'DejaVu Sans', 'Bitstream Vera Sans', sans-serif; text-anchor: start" x="515.3616" y="220.750788" transform="rotate(-0 515.3616 220.750788)">chicago_police</text>
   </g>
   <g id="text_6">
    <text style="fill: #262626; font: 10px 'Arial', 'Liberation Sans', 'DejaVu Sans', 'Bitstream Vera Sans', sans-serif; text-anchor: middle" x="448.8336" y="220.748583" transform="rotate(-0 448.8336 220.748583)">0.0%</text>
   </g>
   <g id="text_7">
    <text style="fill: #262626; font: 12px 'Arial', 'Liberation Sans', 'DejaVu Sans', 'Bitstream Vera Sans', sans-serif; text-anchor: middle" x="369" y="45.84" transform="rotate(-0 369 45.84)">Incidents by Source</text>
   </g>
  </g>
 </g>
</svg>
