<?xml version="1.0" encoding="utf-8" standalone="no"?>
<!DOCTYPE svg PUBLIC "-//W3C//DTD SVG 1.1//EN"
  "http://www.w3.org/Graphics/SVG/1.1/DTD/svg11.dtd">
<svg xmlns:xlink="http://www.w3.org/1999/xlink" width="720pt" height="432pt" viewBox="0 0 720 432" xmlns="http://www.w3.org/2000/svg" version="1.1">
 <metadata>
  <rdf:RDF xmlns:dc="http://purl.org/dc/elements/1.1/" xmlns:cc="http://creativecommons.org/ns#" xmlns:rdf="http://www.w3.org/1999/02/22-rdf-syntax-ns#">
   <cc:Work>
    <dc:type rdf:resource="http://purl.org/dc/dcmitype/StillImage"/>
    <dc:date>2026-03-07T06:33:26.415437</dc:date>
    <dc:format>image/svg+xml</dc:format>
    <dc:creator>
     <cc:Agent>
      <dc:title>Matplotlib v3.7.5, https://matplotlib.org/</dc:title>
     </cc:Agent>
    </dc:creator>
   </cc:Work>
  </rdf:RDF>
 </metadata>
 <defs>
  <style type="text/css">*{stroke-linejoin: round; stroke-linecap: butt}</style>
 </defs>
 <g id="figure_1">
  <g id="patch_1">
   <path d="M 0 432 
L 720 432 
L 720 0 
L 0 0 
z
" style="fill: #ffffff"/>
  </g>
  <g id="axes_1">
   <g id="matplotlib.axis_1"/>
   <g id="matplotlib.axis_2"/>
   <g id="patch_2">
    <path d="M 502.056 218.16 
C 502.056 200.706377 498.621781 183.422095 491.949458 167.294198 
C 485.277136 151.1663 475.496185 136.507745 463.16516 124.155628 
C 450.834134 111.803512 436.192316 101.997524 420.075845 95.297649 
C 403.959373 88.597774 386.680986 85.134022 369.227388 85.104194 
C 351.773791 85.074367 334.483666 88.479042 318.344389 95.123793 
C 302.205112 101.768544 287.529863 111.52443 275.156691 123.834327 
C 262.783519 136.144225 252.952523 150.769264 246.225116 166.874262 
C 239.497708 182.97926 236.004432 200.251702 235.944777 217.705224 
C 235.885122 235.158745 239.260244 252.454663 245.877404 268.605272 
C 252.494564 284.755881 262.225355 299.447781 274.51409 311.841972 
C 286.802825 324.236163 301.411041 334.092139 317.504519 340.847059 
C 333.597996 347.60198 350.864443 351.124769 368.317837 351.214251 
C 385.771231 351.303734 403.072892 347.958175 419.234786 341.368626 
C 435.39668 334.779077 450.105188 325.073407 462.520362 312.805872 
C 474.935536 300.538336 484.816462 285.946985 491.598876 269.865075 
C 498.38129 253.783165 501.933581 236.522763 502.052891 219.069547 
L 369 218.16 
z
" style="fill: #f77189"/>
   </g>
   <g id="patch_3">
    <path d="M 502.052891 219.069547 
C 502.053917 218.919463 502.054689 218.769376 502.055207 218.619289 
C 502.055725 218.469201 502.05599 218.319113 502.056 218.169025 
L 369 218.16 
z
" style="fill: #bb9832"/>
   </g>
   <g id="patch_4">
    <path d="M 502.056 218.169025 
C 502.056 218.167524 502.056 218.166023 502.056 218.164522 
C 502.056 218.163021 502.056 218.161521 502.056 218.16002 
L 369 218.16 
z
" style="fill: #50b131"/>
   </g>
   <g id="text_1">
    <text style="fill: #262626; font: 10px 'Arial', 'Liberation Sans', 'DejaVu Sans', 'Bitstream Vera Sans', sans-serif; text-anchor: end" x="222.639255" y="220.245684" transform="rotate(-0 222.639255 220.245684)">newsapi</text>
   </g>
   <g id="text_2">
    <text style="fill: #262626; font: 10px 'Arial', 'Liberation Sans', 'DejaVu Sans', 'Bitstream Vera Sans', sans-serif; text-anchor: middle" x="289.166866" y="220.473072" transform="rotate(-0 289.166866 220.473072)">99.9%</text>
   </g>
   <g id="text_3">
    <text style="fill: #262626; font: 10px 'Arial', 'Liberation Sans', 'DejaVu Sans', 'Bitstream Vera Sans', sans-serif; text-anchor: start" x="515.360728" y="221.251155" transform="rotate(-0 515.360728 221.251155)">chicago_pd</text>
   </g>
   <g id="text_4">
    <text style="fill: #262626; font: 10px 'Arial', 'Liberation Sans', 'DejaVu Sans', 'Bitstream Vera Sans', sans-serif; text-anchor: middle" x="448.833124" y="221.021511" transform="rotate(-0 448.833124 221.021511)">0.1%</text>
   </g>
   <g id="text_5">
    <text style="fill: #262626; font: 10px 'Arial', 'Liberation Sans', 'DejaVu Sans', 'Bitstream Vera Sans', sans-serif; text-anchor: start" x="515.3616" y="220.750912" transform="rotate(-0 515.3616 220.750912)">chicago_police</text>
   </g>
   <g id="text_6">
    <text style="fill: #262626; font: 10px 'Arial', 'Liberation Sans', 'DejaVu Sans', 'Bitstream Vera Sans', sans-serif; text-anchor: middle" x="448.8336" y="220.748651" transform="rotate(-0 448.8336 220.748651)">0.0%</text>
   </g>
   <g id="text_7">
    <text style="fill: #262626; font: 12px 'Arial', 'Liberation Sans', 'DejaVu Sans', 'Bitstream Vera Sans', sans-serif; text-anchor: middle" x="369" y="45.84" transform="rotate(-0 369 45.84)">Incidents by Source</text>
   </g>
  </g>
 </g>
</svg>
