<?xml version="1.0" encoding="utf-8" standalone="no"?>
<!DOCTYPE svg PUBLIC "-//W3C//DTD SVG 1.1//EN"
  "http://www.w3.org/Graphics/SVG/1.1/DTD/svg11.dtd">
<svg xmlns:xlink="http://www.w3.org/1999/xlink" width="720pt" height="432pt" viewBox="0 0 720 432" xmlns="http://www.w3.org/2000/svg" version="1.1">
 <metadata>
  <rdf:RDF xmlns:dc="http://purl.org/dc/elements/1.1/" xmlns:cc="http://creativecommons.org/ns#" xmlns:rdf="http://www.w3.org/1999/02/22-rdf-syntax-ns#">
   <cc:Work>
    <dc:type rdf:resource="http://purl.org/dc/dcmitype/StillImage"/>
    <dc:date>2026-02-23T06:58:43.836586</dc:date>
    <dc:format>image/svg+xml</dc:format>
    <dc:creator>
     <cc:Agent>
      <dc:title>Matplotlib v3.7.5, https://matplotlib.org/</dc:title>
     </cc:Agent>
    </dc:creator>
   </cc:Work>
  </rdf:RDF>
 </metadata>
 <defs>
  <style type="text/css">*{stroke-linejoin: round; stroke-linecap: butt}</style>
 </defs>
 <g id="figure_1">
  <g id="patch_1">
   <path d="M 0 432 
L 720 432 
L 720 0 
L 0 0 
z
" style="fill: #ffffff"/>
  </g>
  <g id="axes_1">
   <g id="matplotlib.axis_1"/>
   <g id="matplotlib.axis_2"/>
   <g id="patch_2">
    <path d="M 502.056 218.16 
C 502.056 200.706811 498.621952 183.422951 491.949951 167.295389 
C 485.277951 151.167828 475.497461 136.509502 463.166981 124.157453 
C 450.836502 111.805405 436.195292 101.999311 420.079416 95.299134 
C 403.963541 88.598957 386.685709 85.134707 369.232546 85.104203 
C 351.779383 85.0737 334.489548 88.477535 318.35035 95.121339 
C 302.211153 101.765143 287.535756 111.519999 275.162175 123.828871 
C 262.788595 136.137744 252.956928 150.761793 246.228595 166.865934 
C 239.500262 182.970075 236.00582 200.241826 235.944813 217.694909 
C 235.883806 235.147992 239.257418 252.44375 245.873005 268.594534 
C 252.488592 284.745319 262.217784 299.437742 274.505012 311.832816 
C 286.79224 324.22789 301.399084 334.085101 317.491441 340.84157 
C 333.583798 347.598038 350.849415 351.122661 368.302365 351.214171 
C 385.755315 351.305681 403.056942 347.962302 419.219264 341.374953 
C 435.381586 334.787604 450.090992 325.084104 462.507521 312.818558 
C 474.924051 300.553012 484.806776 285.963419 491.591359 269.882894 
C 498.375942 253.80237 501.930736 236.54294 502.052749 219.090177 
L 369 218.16 
z
" style="fill: #f77189"/>
   </g>
   <g id="patch_3">
    <path d="M 502.052749 219.090177 
C 502.053822 218.936684 502.054629 218.78319 502.055171 218.629695 
C 502.055713 218.4762 502.055989 218.322705 502.056 218.169209 
L 369 218.16 
z
" style="fill: #bb9832"/>
   </g>
   <g id="patch_4">
    <path d="M 502.056 218.169209 
C 502.056 218.167674 502.056 218.166139 502.056 218.164604 
C 502.056 218.163069 502.056 218.161534 502.056 218.159999 
L 369 218.16 
z
" style="fill: #50b131"/>
   </g>
   <g id="text_1">
    <text style="fill: #262626; font: 10px 'Arial', 'Liberation Sans', 'DejaVu Sans', 'Bitstream Vera Sans', sans-serif; text-anchor: end" x="222.639294" y="220.234337" transform="rotate(-0 222.639294 220.234337)">newsapi</text>
   </g>
   <g id="text_2">
    <text style="fill: #262626; font: 10px 'Arial', 'Liberation Sans', 'DejaVu Sans', 'Bitstream Vera Sans', sans-serif; text-anchor: middle" x="289.166888" y="220.466883" transform="rotate(-0 289.166888 220.466883)">99.9%</text>
   </g>
   <g id="text_3">
    <text style="fill: #262626; font: 10px 'Arial', 'Liberation Sans', 'DejaVu Sans', 'Bitstream Vera Sans', sans-serif; text-anchor: start" x="515.360688" y="221.262603" transform="rotate(-0 515.360688 221.262603)">chicago_pd</text>
   </g>
   <g id="text_4">
    <text style="fill: #262626; font: 10px 'Arial', 'Liberation Sans', 'DejaVu Sans', 'Bitstream Vera Sans', sans-serif; text-anchor: middle" x="448.833103" y="221.027755" transform="rotate(-0 448.833103 221.027755)">0.1%</text>
   </g>
   <g id="text_5">
    <text style="fill: #262626; font: 10px 'Arial', 'Liberation Sans', 'DejaVu Sans', 'Bitstream Vera Sans', sans-serif; text-anchor: start" x="515.3616" y="220.751002" transform="rotate(-0 515.3616 220.751002)">chicago_police</text>
   </g>
   <g id="text_6">
    <text style="fill: #262626; font: 10px 'Arial', 'Liberation Sans', 'DejaVu Sans', 'Bitstream Vera Sans', sans-serif; text-anchor: middle" x="448.8336" y="220.7487" transform="rotate(-0 448.8336 220.7487)">0.0%</text>
   </g>
   <g id="text_7">
    <text style="fill: #262626; font: 12px 'Arial', 'Liberation Sans', 'DejaVu Sans', 'Bitstream Vera Sans', sans-serif; text-anchor: middle" x="369" y="45.84" transform="rotate(-0 369 45.84)">Incidents by Source</text>
   </g>
  </g>
 </g>
</svg>
