<?xml version="1.0" encoding="utf-8" standalone="no"?>
<!DOCTYPE svg PUBLIC "-//W3C//DTD SVG 1.1//EN"
  "http://www.w3.org/Graphics/SVG/1.1/DTD/svg11.dtd">
<svg xmlns:xlink="http://www.w3.org/1999/xlink" width="720pt" height="432pt" viewBox="0 0 720 432" xmlns="http://www.w3.org/2000/svg" version="1.1">
 <metadata>
  <rdf:RDF xmlns:dc="http://purl.org/dc/elements/1.1/" xmlns:cc="http://creativecommons.org/ns#" xmlns:rdf="http://www.w3.org/1999/02/22-rdf-syntax-ns#">
   <cc:Work>
    <dc:type rdf:resource="http://purl.org/dc/dcmitype/StillImage"/>
    <dc:date>2025-11-10T01:11:28.681839</dc:date>
    <dc:format>image/svg+xml</dc:format>
    <dc:creator>
     <cc:Agent>
      <dc:title>Matplotlib v3.7.5, https://matplotlib.org/</dc:title>
     </cc:Agent>
    </dc:creator>
   </cc:Work>
  </rdf:RDF>
 </metadata>
 <defs>
  <style type="text/css">*{stroke-linejoin: round; stroke-linecap: butt}</style>
 </defs>
 <g id="figure_1">
  <g id="patch_1">
   <path d="M 0 432 
L 720 432 
L 720 0 
L 0 0 
z
" style="fill: #ffffff"/>
  </g>
  <g id="axes_1">
   <g id="matplotlib.axis_1"/>
   <g id="matplotlib.axis_2"/>
   <g id="patch_2">
    <path d="M 502.056 218.16 
C 502.056 200.712714 498.624274 183.434586 491.956657 167.311601 
C 485.289039 151.188615 475.514818 136.533409 463.191767 124.182289 
C 450.868715 111.831168 436.235784 102.023631 420.12801 95.319348 
C 404.020236 88.615066 386.74996 85.144039 369.302719 85.104344 
C 351.855479 85.06465 334.569588 88.457056 318.431474 95.087975 
C 302.293361 101.718894 287.615955 111.459746 275.23683 123.754666 
C 262.857705 136.049585 253.016901 150.660165 246.275989 166.752644 
C 239.535077 182.845123 236.024767 200.107457 235.945377 217.554563 
C 235.865988 235.001668 239.219058 252.295232 245.813244 268.44839 
C 252.407429 284.601548 262.114863 299.301078 274.381587 311.708143 
C 286.648311 324.115208 301.236463 333.989228 317.313564 340.766735 
C 333.390665 347.544242 350.644968 351.093817 368.091848 351.212901 
C 385.538727 351.331984 402.839876 348.018268 419.007994 341.46085 
C 435.176113 334.903432 449.89769 325.229466 462.332632 312.991002 
C 474.767573 300.752538 484.674757 286.186888 491.488825 270.125248 
C 498.302892 254.063608 501.891713 236.817425 502.05049 219.370862 
L 369 218.16 
z
" style="fill: #f77189"/>
   </g>
   <g id="patch_3">
    <path d="M 502.05049 219.370862 
C 502.052309 219.171057 502.053677 218.971248 502.054595 218.771436 
C 502.055513 218.571625 502.055981 218.371812 502.055999 218.171998 
L 369 218.16 
z
" style="fill: #bb9832"/>
   </g>
   <g id="patch_4">
    <path d="M 502.055999 218.171998 
C 502.056 218.17 502.056 218.168002 502.056 218.166004 
C 502.056 218.164006 502.056 218.162007 502.056 218.160009 
L 369 218.16 
z
" style="fill: #50b131"/>
   </g>
   <g id="text_1">
    <text style="fill: #262626; font: 10px 'Arial', 'Liberation Sans', 'DejaVu Sans', 'Bitstream Vera Sans', sans-serif; text-anchor: end" x="222.639915" y="220.079956" transform="rotate(-0 222.639915 220.079956)">newsapi</text>
   </g>
   <g id="text_2">
    <text style="fill: #262626; font: 10px 'Arial', 'Liberation Sans', 'DejaVu Sans', 'Bitstream Vera Sans', sans-serif; text-anchor: middle" x="289.167226" y="220.382675" transform="rotate(-0 289.167226 220.382675)">99.9%</text>
   </g>
   <g id="text_3">
    <text style="fill: #262626; font: 10px 'Arial', 'Liberation Sans', 'DejaVu Sans', 'Bitstream Vera Sans', sans-serif; text-anchor: start" x="515.360055" y="221.418517" transform="rotate(-0 515.360055 221.418517)">chicago_pd</text>
   </g>
   <g id="text_4">
    <text style="fill: #262626; font: 10px 'Arial', 'Liberation Sans', 'DejaVu Sans', 'Bitstream Vera Sans', sans-serif; text-anchor: middle" x="448.832757" y="221.112799" transform="rotate(-0 448.832757 221.112799)">0.1%</text>
   </g>
   <g id="text_5">
    <text style="fill: #262626; font: 10px 'Arial', 'Liberation Sans', 'DejaVu Sans', 'Bitstream Vera Sans', sans-serif; text-anchor: start" x="515.3616" y="220.752542" transform="rotate(-0 515.3616 220.752542)">chicago_police</text>
   </g>
   <g id="text_6">
    <text style="fill: #262626; font: 10px 'Arial', 'Liberation Sans', 'DejaVu Sans', 'Bitstream Vera Sans', sans-serif; text-anchor: middle" x="448.8336" y="220.74954" transform="rotate(-0 448.8336 220.74954)">0.0%</text>
   </g>
   <g id="text_7">
    <text style="fill: #262626; font: 12px 'Arial', 'Liberation Sans', 'DejaVu Sans', 'Bitstream Vera Sans', sans-serif; text-anchor: middle" x="369" y="45.84" transform="rotate(-0 369 45.84)">Incidents by Source</text>
   </g>
  </g>
 </g>
</svg>
