<?xml version="1.0" encoding="utf-8" standalone="no"?>
<!DOCTYPE svg PUBLIC "-//W3C//DTD SVG 1.1//EN"
  "http://www.w3.org/Graphics/SVG/1.1/DTD/svg11.dtd">
<svg xmlns:xlink="http://www.w3.org/1999/xlink" width="720pt" height="432pt" viewBox="0 0 720 432" xmlns="http://www.w3.org/2000/svg" version="1.1">
 <metadata>
  <rdf:RDF xmlns:dc="http://purl.org/dc/elements/1.1/" xmlns:cc="http://creativecommons.org/ns#" xmlns:rdf="http://www.w3.org/1999/02/22-rdf-syntax-ns#">
   <cc:Work>
    <dc:type rdf:resource="http://purl.org/dc/dcmitype/StillImage"/>
    <dc:date>2025-06-28T01:53:42.927535</dc:date>
    <dc:format>image/svg+xml</dc:format>
    <dc:creator>
     <cc:Agent>
      <dc:title>Matplotlib v3.7.5, https://matplotlib.org/</dc:title>
     </cc:Agent>
    </dc:creator>
   </cc:Work>
  </rdf:RDF>
 </metadata>
 <defs>
  <style type="text/css">*{stroke-linejoin: round; stroke-linecap: butt}</style>
 </defs>
 <g id="figure_1">
  <g id="patch_1">
   <path d="M 0 432 
L 720 432 
L 720 0 
L 0 0 
z
" style="fill: #ffffff"/>
  </g>
  <g id="axes_1">
   <g id="matplotlib.axis_1"/>
   <g id="matplotlib.axis_2"/>
   <g id="patch_2">
    <path d="M 502.056 218.16 
C 502.056 200.73015 498.63113 183.468951 491.976449 167.359486 
C 485.321767 151.250021 475.566054 136.604038 463.264931 124.255677 
C 450.963808 111.907316 436.355325 102.095539 420.271484 95.379162 
C 404.187643 88.662785 386.939697 85.171782 369.509976 85.104977 
C 352.080254 85.038172 334.806055 88.396859 318.671202 94.989747 
C 302.536349 101.582636 287.853082 111.282142 275.457664 123.535846 
C 263.062246 135.78955 253.194551 150.36032 246.416577 166.4183 
C 239.638603 182.47628 236.081518 199.710719 235.947909 217.140056 
C 235.8143 234.569394 239.106753 251.856339 245.637752 268.016343 
C 252.168751 284.176346 261.811908 298.896681 274.018013 311.338974 
C 286.224118 323.781267 300.75696 333.704737 316.788843 340.544208 
C 332.820727 347.383678 350.041406 351.006793 367.470103 351.207204 
C 384.8988 351.407615 402.198239 348.181443 418.383155 341.712431 
C 434.568072 335.243418 449.325259 325.656751 461.814244 313.498425 
C 474.303229 301.340098 484.282327 286.845398 491.183194 270.839846 
C 498.084061 254.834294 501.773153 237.627629 502.040363 220.199827 
L 369 218.16 
z
" style="fill: #f77189"/>
   </g>
   <g id="patch_3">
    <path d="M 502.040363 220.199827 
C 502.045524 219.86325 502.049407 219.526653 502.052013 219.190046 
C 502.054619 218.853438 502.055947 218.516822 502.055998 218.180205 
L 369 218.16 
z
" style="fill: #bb9832"/>
   </g>
   <g id="patch_4">
    <path d="M 502.055998 218.180205 
C 502.055999 218.176839 502.055999 218.173472 502.056 218.170106 
C 502.056 218.16674 502.056 218.163374 502.056 218.160008 
L 369 218.16 
z
" style="fill: #50b131"/>
   </g>
   <g id="text_1">
    <text style="fill: #262626; font: 10px 'Arial', 'Liberation Sans', 'DejaVu Sans', 'Bitstream Vera Sans', sans-serif; text-anchor: end" x="222.6427" y="219.623999" transform="rotate(-0 222.6427 219.623999)">newsapi</text>
   </g>
   <g id="text_2">
    <text style="fill: #262626; font: 10px 'Arial', 'Liberation Sans', 'DejaVu Sans', 'Bitstream Vera Sans', sans-serif; text-anchor: middle" x="289.168746" y="220.133971" transform="rotate(-0 289.168746 220.133971)">99.8%</text>
   </g>
   <g id="text_3">
    <text style="fill: #262626; font: 10px 'Arial', 'Liberation Sans', 'DejaVu Sans', 'Bitstream Vera Sans', sans-serif; text-anchor: start" x="515.357214" y="221.878988" transform="rotate(-0 515.357214 221.878988)">chicago_pd</text>
   </g>
   <g id="text_4">
    <text style="fill: #262626; font: 10px 'Arial', 'Liberation Sans', 'DejaVu Sans', 'Bitstream Vera Sans', sans-serif; text-anchor: middle" x="448.831208" y="221.363965" transform="rotate(-0 448.831208 221.363965)">0.2%</text>
   </g>
   <g id="text_5">
    <text style="fill: #262626; font: 10px 'Arial', 'Liberation Sans', 'DejaVu Sans', 'Bitstream Vera Sans', sans-serif; text-anchor: start" x="515.3616" y="220.757054" transform="rotate(-0 515.3616 220.757054)">chicago_police</text>
   </g>
   <g id="text_6">
    <text style="fill: #262626; font: 10px 'Arial', 'Liberation Sans', 'DejaVu Sans', 'Bitstream Vera Sans', sans-serif; text-anchor: middle" x="448.8336" y="220.752001" transform="rotate(-0 448.8336 220.752001)">0.0%</text>
   </g>
   <g id="text_7">
    <text style="fill: #262626; font: 12px 'Arial', 'Liberation Sans', 'DejaVu Sans', 'Bitstream Vera Sans', sans-serif; text-anchor: middle" x="369" y="45.84" transform="rotate(-0 369 45.84)">Incidents by Source</text>
   </g>
  </g>
 </g>
</svg>
