<?xml version="1.0" encoding="utf-8" standalone="no"?>
<!DOCTYPE svg PUBLIC "-//W3C//DTD SVG 1.1//EN"
  "http://www.w3.org/Graphics/SVG/1.1/DTD/svg11.dtd">
<svg xmlns:xlink="http://www.w3.org/1999/xlink" width="720pt" height="432pt" viewBox="0 0 720 432" xmlns="http://www.w3.org/2000/svg" version="1.1">
 <metadata>
  <rdf:RDF xmlns:dc="http://purl.org/dc/elements/1.1/" xmlns:cc="http://creativecommons.org/ns#" xmlns:rdf="http://www.w3.org/1999/02/22-rdf-syntax-ns#">
   <cc:Work>
    <dc:type rdf:resource="http://purl.org/dc/dcmitype/StillImage"/>
    <dc:date>2025-07-05T12:43:56.971526</dc:date>
    <dc:format>image/svg+xml</dc:format>
    <dc:creator>
     <cc:Agent>
      <dc:title>Matplotlib v3.7.5, https://matplotlib.org/</dc:title>
     </cc:Agent>
    </dc:creator>
   </cc:Work>
  </rdf:RDF>
 </metadata>
 <defs>
  <style type="text/css">*{stroke-linejoin: round; stroke-linecap: butt}</style>
 </defs>
 <g id="figure_1">
  <g id="patch_1">
   <path d="M 0 432 
L 720 432 
L 720 0 
L 0 0 
z
" style="fill: #ffffff"/>
  </g>
  <g id="axes_1">
   <g id="matplotlib.axis_1"/>
   <g id="matplotlib.axis_2"/>
   <g id="patch_2">
    <path d="M 502.056 218.16 
C 502.056 200.728644 498.630538 183.465983 491.97474 167.35535 
C 485.318941 151.244716 475.56163 136.597936 463.258614 124.249336 
C 450.955597 111.900735 436.345002 102.089323 420.259094 95.373989 
C 404.173186 88.658655 386.92331 85.169375 369.492074 85.10491 
C 352.060838 85.040444 334.785626 88.402041 318.650488 94.998213 
C 302.51535 101.594385 287.832586 111.297462 275.43857 123.554726 
C 263.044554 135.81199 253.179176 150.3862 246.404398 166.447163 
C 239.62962 182.508126 236.07657 199.74498 235.94764 217.175858 
C 235.81871 234.606737 239.116395 251.894263 245.65285 268.053685 
C 252.189305 284.213106 261.838015 298.931655 274.049359 311.370917 
C 286.260704 323.810178 300.798329 333.729388 316.834128 340.563517 
C 332.869926 347.397646 350.093522 351.014418 367.523804 351.207811 
C 384.954087 351.401204 402.25369 348.167474 418.437175 341.690826 
C 434.62066 335.214177 449.374791 325.619966 461.859128 313.454708 
C 474.343465 301.289451 484.316371 286.788609 491.209757 270.778194 
C 498.103144 254.767779 501.783589 237.557678 502.041442 220.128229 
L 369 218.16 
z
" style="fill: #f77189"/>
   </g>
   <g id="patch_3">
    <path d="M 502.041442 220.128229 
C 502.046246 219.803465 502.049862 219.478683 502.052288 219.153892 
C 502.054714 218.829101 502.055951 218.504302 502.055999 218.179502 
L 369 218.16 
z
" style="fill: #bb9832"/>
   </g>
   <g id="patch_4">
    <path d="M 502.055999 218.179502 
C 502.055999 218.176254 502.055999 218.173006 502.056 218.169758 
C 502.056 218.16651 502.056 218.163262 502.056 218.160014 
L 369 218.16 
z
" style="fill: #50b131"/>
   </g>
   <g id="text_1">
    <text style="fill: #262626; font: 10px 'Arial', 'Liberation Sans', 'DejaVu Sans', 'Bitstream Vera Sans', sans-serif; text-anchor: end" x="222.642404" y="219.663382" transform="rotate(-0 222.642404 219.663382)">newsapi</text>
   </g>
   <g id="text_2">
    <text style="fill: #262626; font: 10px 'Arial', 'Liberation Sans', 'DejaVu Sans', 'Bitstream Vera Sans', sans-serif; text-anchor: middle" x="289.168584" y="220.155453" transform="rotate(-0 289.168584 220.155453)">99.8%</text>
   </g>
   <g id="text_3">
    <text style="fill: #262626; font: 10px 'Arial', 'Liberation Sans', 'DejaVu Sans', 'Bitstream Vera Sans', sans-serif; text-anchor: start" x="515.357517" y="221.839219" transform="rotate(-0 515.357517 221.839219)">chicago_pd</text>
   </g>
   <g id="text_4">
    <text style="fill: #262626; font: 10px 'Arial', 'Liberation Sans', 'DejaVu Sans', 'Bitstream Vera Sans', sans-serif; text-anchor: middle" x="448.831373" y="221.342273" transform="rotate(-0 448.831373 221.342273)">0.2%</text>
   </g>
   <g id="text_5">
    <text style="fill: #262626; font: 10px 'Arial', 'Liberation Sans', 'DejaVu Sans', 'Bitstream Vera Sans', sans-serif; text-anchor: start" x="515.3616" y="220.756671" transform="rotate(-0 515.3616 220.756671)">chicago_police</text>
   </g>
   <g id="text_6">
    <text style="fill: #262626; font: 10px 'Arial', 'Liberation Sans', 'DejaVu Sans', 'Bitstream Vera Sans', sans-serif; text-anchor: middle" x="448.8336" y="220.751792" transform="rotate(-0 448.8336 220.751792)">0.0%</text>
   </g>
   <g id="text_7">
    <text style="fill: #262626; font: 12px 'Arial', 'Liberation Sans', 'DejaVu Sans', 'Bitstream Vera Sans', sans-serif; text-anchor: middle" x="369" y="45.84" transform="rotate(-0 369 45.84)">Incidents by Source</text>
   </g>
  </g>
 </g>
</svg>
