<?xml version="1.0" encoding="utf-8" standalone="no"?>
<!DOCTYPE svg PUBLIC "-//W3C//DTD SVG 1.1//EN"
  "http://www.w3.org/Graphics/SVG/1.1/DTD/svg11.dtd">
<svg xmlns:xlink="http://www.w3.org/1999/xlink" width="720pt" height="432pt" viewBox="0 0 720 432" xmlns="http://www.w3.org/2000/svg" version="1.1">
 <metadata>
  <rdf:RDF xmlns:dc="http://purl.org/dc/elements/1.1/" xmlns:cc="http://creativecommons.org/ns#" xmlns:rdf="http://www.w3.org/1999/02/22-rdf-syntax-ns#">
   <cc:Work>
    <dc:type rdf:resource="http://purl.org/dc/dcmitype/StillImage"/>
    <dc:date>2025-05-26T12:27:38.149987</dc:date>
    <dc:format>image/svg+xml</dc:format>
    <dc:creator>
     <cc:Agent>
      <dc:title>Matplotlib v3.7.5, https://matplotlib.org/</dc:title>
     </cc:Agent>
    </dc:creator>
   </cc:Work>
  </rdf:RDF>
 </metadata>
 <defs>
  <style type="text/css">*{stroke-linejoin: round; stroke-linecap: butt}</style>
 </defs>
 <g id="figure_1">
  <g id="patch_1">
   <path d="M 0 432 
L 720 432 
L 720 0 
L 0 0 
z
" style="fill: #ffffff"/>
  </g>
  <g id="axes_1">
   <g id="matplotlib.axis_1"/>
   <g id="matplotlib.axis_2"/>
   <g id="patch_2">
    <path d="M 502.056 218.16 
C 502.056 200.73862 498.634458 183.485643 491.986055 167.382748 
C 485.337653 151.279852 475.590924 136.638355 463.300448 124.291344 
C 451.009972 111.944332 436.413361 102.130511 420.341147 95.408276 
C 404.268934 88.686041 387.031841 85.185355 369.610645 85.105401 
C 352.189448 85.025448 334.92095 88.367774 318.787712 94.942204 
C 302.654474 101.516634 287.9684 111.196065 275.565113 123.429746 
C 263.161826 135.663427 253.281118 150.214845 246.485193 166.256039 
C 239.689267 182.297233 236.10951 199.518077 235.949605 216.938724 
C 235.7897 234.35937 239.052739 251.643025 245.553058 267.806266 
C 252.053377 283.969506 261.665306 298.699848 273.841935 311.15915 
C 286.018564 323.618451 300.524483 333.565837 316.534319 340.43531 
C 332.544154 347.304783 349.748389 350.963536 367.168118 351.203389 
C 384.587847 351.443242 401.886295 348.259559 418.079198 341.833487 
C 434.272101 335.407416 449.0464 325.863191 461.561454 313.743871 
C 474.076508 301.624551 484.090361 287.164437 491.033237 271.186297 
C 497.976113 255.208156 501.713784 238.020895 502.033581 220.60245 
L 369 218.16 
z
" style="fill: #f77189"/>
   </g>
   <g id="patch_3">
    <path d="M 502.033581 220.60245 
C 502.04098 220.199451 502.046547 219.79642 502.050283 219.393371 
C 502.05402 218.990321 502.055925 218.587257 502.055998 218.18419 
L 369 218.16 
z
" style="fill: #bb9832"/>
   </g>
   <g id="patch_4">
    <path d="M 502.055998 218.18419 
C 502.055999 218.18016 502.055999 218.176129 502.055999 218.172098 
C 502.056 218.168068 502.056 218.164037 502.056 218.160006 
L 369 218.16 
z
" style="fill: #50b131"/>
   </g>
   <g id="text_1">
    <text style="fill: #262626; font: 10px 'Arial', 'Liberation Sans', 'DejaVu Sans', 'Bitstream Vera Sans', sans-serif; text-anchor: end" x="222.644565" y="219.402534" transform="rotate(-0 222.644565 219.402534)">newsapi</text>
   </g>
   <g id="text_2">
    <text style="fill: #262626; font: 10px 'Arial', 'Liberation Sans', 'DejaVu Sans', 'Bitstream Vera Sans', sans-serif; text-anchor: middle" x="289.169763" y="220.013172" transform="rotate(-0 289.169763 220.013172)">99.7%</text>
   </g>
   <g id="text_3">
    <text style="fill: #262626; font: 10px 'Arial', 'Liberation Sans', 'DejaVu Sans', 'Bitstream Vera Sans', sans-serif; text-anchor: start" x="515.355312" y="222.102646" transform="rotate(-0 515.355312 222.102646)">chicago_pd</text>
   </g>
   <g id="text_4">
    <text style="fill: #262626; font: 10px 'Arial', 'Liberation Sans', 'DejaVu Sans', 'Bitstream Vera Sans', sans-serif; text-anchor: middle" x="448.83017" y="221.48596" transform="rotate(-0 448.83017 221.48596)">0.3%</text>
   </g>
   <g id="text_5">
    <text style="fill: #262626; font: 10px 'Arial', 'Liberation Sans', 'DejaVu Sans', 'Bitstream Vera Sans', sans-serif; text-anchor: start" x="515.361599" y="220.759246" transform="rotate(-0 515.361599 220.759246)">chicago_police</text>
   </g>
   <g id="text_6">
    <text style="fill: #262626; font: 10px 'Arial', 'Liberation Sans', 'DejaVu Sans', 'Bitstream Vera Sans', sans-serif; text-anchor: middle" x="448.8336" y="220.753197" transform="rotate(-0 448.8336 220.753197)">0.0%</text>
   </g>
   <g id="text_7">
    <text style="fill: #262626; font: 12px 'Arial', 'Liberation Sans', 'DejaVu Sans', 'Bitstream Vera Sans', sans-serif; text-anchor: middle" x="369" y="45.84" transform="rotate(-0 369 45.84)">Incidents by Source</text>
   </g>
  </g>
 </g>
</svg>
