<?xml version="1.0" encoding="utf-8" standalone="no"?>
<!DOCTYPE svg PUBLIC "-//W3C//DTD SVG 1.1//EN"
  "http://www.w3.org/Graphics/SVG/1.1/DTD/svg11.dtd">
<svg xmlns:xlink="http://www.w3.org/1999/xlink" width="720pt" height="432pt" viewBox="0 0 720 432" xmlns="http://www.w3.org/2000/svg" version="1.1">
 <metadata>
  <rdf:RDF xmlns:dc="http://purl.org/dc/elements/1.1/" xmlns:cc="http://creativecommons.org/ns#" xmlns:rdf="http://www.w3.org/1999/02/22-rdf-syntax-ns#">
   <cc:Work>
    <dc:type rdf:resource="http://purl.org/dc/dcmitype/StillImage"/>
    <dc:date>2025-10-10T01:45:26.970791</dc:date>
    <dc:format>image/svg+xml</dc:format>
    <dc:creator>
     <cc:Agent>
      <dc:title>Matplotlib v3.7.5, https://matplotlib.org/</dc:title>
     </cc:Agent>
    </dc:creator>
   </cc:Work>
  </rdf:RDF>
 </metadata>
 <defs>
  <style type="text/css">*{stroke-linejoin: round; stroke-linecap: butt}</style>
 </defs>
 <g id="figure_1">
  <g id="patch_1">
   <path d="M 0 432 
L 720 432 
L 720 0 
L 0 0 
z
" style="fill: #ffffff"/>
  </g>
  <g id="axes_1">
   <g id="matplotlib.axis_1"/>
   <g id="matplotlib.axis_2"/>
   <g id="patch_2">
    <path d="M 502.056 218.16 
C 502.056 200.715168 498.62524 183.439421 491.959443 167.318338 
C 485.293646 151.197255 475.522031 136.543345 463.202065 124.192612 
C 450.8821 111.841878 436.252609 102.033742 420.148202 95.327755 
C 404.043796 88.621767 386.776661 85.147927 369.331883 85.104414 
C 351.887105 85.060901 334.602855 88.44856 318.465195 95.074125 
C 302.327535 101.69969 287.649298 111.434724 275.267873 123.723844 
C 262.886448 136.012965 253.041852 150.617946 246.295716 166.705575 
C 239.54958 182.793205 236.032681 200.051622 235.945656 217.496237 
C 235.85863 234.940852 239.203166 252.233498 245.788459 268.387634 
C 252.373751 284.541769 262.072142 299.244243 274.330341 311.656283 
C 286.588541 324.068322 301.16892 333.949317 317.239673 340.735559 
C 333.310426 347.521801 350.560016 351.081738 368.00436 351.212275 
C 385.448704 351.342812 402.749639 348.04142 418.92015 341.496441 
C 435.090661 334.951463 449.81728 325.289774 462.259857 313.062573 
C 474.702433 300.835371 484.619765 286.279683 491.446072 270.225907 
C 498.272378 254.172131 501.875329 236.931474 502.049378 219.48751 
L 369 218.16 
z
" style="fill: #f77189"/>
   </g>
   <g id="patch_3">
    <path d="M 502.049378 219.48751 
C 502.051563 219.268453 502.053208 219.049391 502.054311 218.830325 
C 502.055415 218.61126 502.055978 218.392193 502.055999 218.173125 
L 369 218.16 
z
" style="fill: #bb9832"/>
   </g>
   <g id="patch_4">
    <path d="M 502.055999 218.173125 
C 502.056 218.170934 502.056 218.168743 502.056 218.166553 
C 502.056 218.164362 502.056 218.162171 502.056 218.159981 
L 369 218.16 
z
" style="fill: #50b131"/>
   </g>
   <g id="text_1">
    <text style="fill: #262626; font: 10px 'Arial', 'Liberation Sans', 'DejaVu Sans', 'Bitstream Vera Sans', sans-serif; text-anchor: end" x="222.640221" y="220.015798" transform="rotate(-0 222.640221 220.015798)">newsapi</text>
   </g>
   <g id="text_2">
    <text style="fill: #262626; font: 10px 'Arial', 'Liberation Sans', 'DejaVu Sans', 'Bitstream Vera Sans', sans-serif; text-anchor: middle" x="289.167393" y="220.34768" transform="rotate(-0 289.167393 220.34768)">99.8%</text>
   </g>
   <g id="text_3">
    <text style="fill: #262626; font: 10px 'Arial', 'Liberation Sans', 'DejaVu Sans', 'Bitstream Vera Sans', sans-serif; text-anchor: start" x="515.359743" y="221.483296" transform="rotate(-0 515.359743 221.483296)">chicago_pd</text>
   </g>
   <g id="text_4">
    <text style="fill: #262626; font: 10px 'Arial', 'Liberation Sans', 'DejaVu Sans', 'Bitstream Vera Sans', sans-serif; text-anchor: middle" x="448.832587" y="221.148133" transform="rotate(-0 448.832587 221.148133)">0.2%</text>
   </g>
   <g id="text_5">
    <text style="fill: #262626; font: 10px 'Arial', 'Liberation Sans', 'DejaVu Sans', 'Bitstream Vera Sans', sans-serif; text-anchor: start" x="515.3616" y="220.753146" transform="rotate(-0 515.3616 220.753146)">chicago_police</text>
   </g>
   <g id="text_6">
    <text style="fill: #262626; font: 10px 'Arial', 'Liberation Sans', 'DejaVu Sans', 'Bitstream Vera Sans', sans-serif; text-anchor: middle" x="448.8336" y="220.749869" transform="rotate(-0 448.8336 220.749869)">0.0%</text>
   </g>
   <g id="text_7">
    <text style="fill: #262626; font: 12px 'Arial', 'Liberation Sans', 'DejaVu Sans', 'Bitstream Vera Sans', sans-serif; text-anchor: middle" x="369" y="45.84" transform="rotate(-0 369 45.84)">Incidents by Source</text>
   </g>
  </g>
 </g>
</svg>
