<?xml version="1.0" encoding="utf-8" standalone="no"?>
<!DOCTYPE svg PUBLIC "-//W3C//DTD SVG 1.1//EN"
  "http://www.w3.org/Graphics/SVG/1.1/DTD/svg11.dtd">
<svg xmlns:xlink="http://www.w3.org/1999/xlink" width="720pt" height="432pt" viewBox="0 0 720 432" xmlns="http://www.w3.org/2000/svg" version="1.1">
 <metadata>
  <rdf:RDF xmlns:dc="http://purl.org/dc/elements/1.1/" xmlns:cc="http://creativecommons.org/ns#" xmlns:rdf="http://www.w3.org/1999/02/22-rdf-syntax-ns#">
   <cc:Work>
    <dc:type rdf:resource="http://purl.org/dc/dcmitype/StillImage"/>
    <dc:date>2026-05-28T04:03:15.058429</dc:date>
    <dc:format>image/svg+xml</dc:format>
    <dc:creator>
     <cc:Agent>
      <dc:title>Matplotlib v3.7.5, https://matplotlib.org/</dc:title>
     </cc:Agent>
    </dc:creator>
   </cc:Work>
  </rdf:RDF>
 </metadata>
 <defs>
  <style type="text/css">*{stroke-linejoin: round; stroke-linecap: butt}</style>
 </defs>
 <g id="figure_1">
  <g id="patch_1">
   <path d="M 0 432 
L 720 432 
L 720 0 
L 0 0 
z
" style="fill: #ffffff"/>
  </g>
  <g id="axes_1">
   <g id="matplotlib.axis_1"/>
   <g id="matplotlib.axis_2"/>
   <g id="patch_2">
    <path d="M 502.056 218.16 
C 502.056 200.703784 498.62076 183.416985 491.946513 167.287078 
C 485.272265 151.157171 475.48856 136.497246 463.154272 124.144723 
C 450.819984 111.7922 436.174529 101.986848 420.0545 95.288778 
C 403.93447 88.590708 386.652766 85.129934 369.196568 85.104145 
C 351.740371 85.078357 334.448517 88.488054 318.308767 95.138465 
C 302.169017 101.788877 287.494655 111.550913 275.123923 123.866939 
C 262.753192 136.182965 252.926214 150.813917 246.204337 166.924034 
C 239.482459 183.03415 235.996158 200.310723 235.944581 217.766864 
C 235.893003 235.223004 239.277151 252.519877 245.903711 268.669434 
C 252.530272 284.81899 262.270619 299.507759 274.568355 311.896672 
C 286.866092 324.285585 301.482511 334.134166 317.582679 340.879837 
C 333.682848 347.625507 350.954252 351.137327 368.410296 351.214693 
C 385.866341 351.292059 403.168195 347.933468 419.327524 341.330774 
C 435.486853 334.728079 450.189995 325.009443 462.597062 312.730022 
C 475.00413 300.450602 484.874294 285.848748 491.643742 269.758563 
C 498.41319 253.668378 501.950523 236.402181 502.053677 218.946269 
L 369 218.16 
z
" style="fill: #f77189"/>
   </g>
   <g id="patch_3">
    <path d="M 502.053677 218.946269 
C 502.054444 218.816525 502.05502 218.68678 502.055408 218.557034 
C 502.055795 218.427289 502.055992 218.297542 502.056 218.167796 
L 369 218.16 
z
" style="fill: #bb9832"/>
   </g>
   <g id="patch_4">
    <path d="M 502.056 218.167796 
C 502.056 218.166498 502.056 218.165201 502.056 218.163903 
C 502.056 218.162606 502.056 218.161309 502.056 218.160011 
L 369 218.16 
z
" style="fill: #50b131"/>
   </g>
   <g id="text_1">
    <text style="fill: #262626; font: 10px 'Arial', 'Liberation Sans', 'DejaVu Sans', 'Bitstream Vera Sans', sans-serif; text-anchor: end" x="222.639039" y="220.313487" transform="rotate(-0 222.639039 220.313487)">newsapi</text>
   </g>
   <g id="text_2">
    <text style="fill: #262626; font: 10px 'Arial', 'Liberation Sans', 'DejaVu Sans', 'Bitstream Vera Sans', sans-serif; text-anchor: middle" x="289.166748" y="220.510056" transform="rotate(-0 289.166748 220.510056)">99.9%</text>
   </g>
   <g id="text_3">
    <text style="fill: #262626; font: 10px 'Arial', 'Liberation Sans', 'DejaVu Sans', 'Bitstream Vera Sans', sans-serif; text-anchor: start" x="515.360948" y="221.182675" transform="rotate(-0 515.360948 221.182675)">chicago_pd</text>
   </g>
   <g id="text_4">
    <text style="fill: #262626; font: 10px 'Arial', 'Liberation Sans', 'DejaVu Sans', 'Bitstream Vera Sans', sans-serif; text-anchor: middle" x="448.833245" y="220.984158" transform="rotate(-0 448.833245 220.984158)">0.1%</text>
   </g>
   <g id="text_5">
    <text style="fill: #262626; font: 10px 'Arial', 'Liberation Sans', 'DejaVu Sans', 'Bitstream Vera Sans', sans-serif; text-anchor: start" x="515.3616" y="220.750231" transform="rotate(-0 515.3616 220.750231)">chicago_police</text>
   </g>
   <g id="text_6">
    <text style="fill: #262626; font: 10px 'Arial', 'Liberation Sans', 'DejaVu Sans', 'Bitstream Vera Sans', sans-serif; text-anchor: middle" x="448.8336" y="220.74828" transform="rotate(-0 448.8336 220.74828)">0.0%</text>
   </g>
   <g id="text_7">
    <text style="fill: #262626; font: 12px 'Arial', 'Liberation Sans', 'DejaVu Sans', 'Bitstream Vera Sans', sans-serif; text-anchor: middle" x="369" y="45.84" transform="rotate(-0 369 45.84)">Incidents by Source</text>
   </g>
  </g>
 </g>
</svg>
