<?xml version="1.0" encoding="utf-8" standalone="no"?>
<!DOCTYPE svg PUBLIC "-//W3C//DTD SVG 1.1//EN"
  "http://www.w3.org/Graphics/SVG/1.1/DTD/svg11.dtd">
<svg xmlns:xlink="http://www.w3.org/1999/xlink" width="720pt" height="432pt" viewBox="0 0 720 432" xmlns="http://www.w3.org/2000/svg" version="1.1">
 <metadata>
  <rdf:RDF xmlns:dc="http://purl.org/dc/elements/1.1/" xmlns:cc="http://creativecommons.org/ns#" xmlns:rdf="http://www.w3.org/1999/02/22-rdf-syntax-ns#">
   <cc:Work>
    <dc:type rdf:resource="http://purl.org/dc/dcmitype/StillImage"/>
    <dc:date>2026-04-19T13:12:59.691366</dc:date>
    <dc:format>image/svg+xml</dc:format>
    <dc:creator>
     <cc:Agent>
      <dc:title>Matplotlib v3.7.5, https://matplotlib.org/</dc:title>
     </cc:Agent>
    </dc:creator>
   </cc:Work>
  </rdf:RDF>
 </metadata>
 <defs>
  <style type="text/css">*{stroke-linejoin: round; stroke-linecap: butt}</style>
 </defs>
 <g id="figure_1">
  <g id="patch_1">
   <path d="M 0 432 
L 720 432 
L 720 0 
L 0 0 
z
" style="fill: #ffffff"/>
  </g>
  <g id="axes_1">
   <g id="matplotlib.axis_1"/>
   <g id="matplotlib.axis_2"/>
   <g id="patch_2">
    <path d="M 502.056 218.16 
C 502.056 200.705065 498.621265 183.419511 491.947969 167.290598 
C 485.274673 151.161684 475.492329 136.502436 463.159654 124.150114 
C 450.826979 111.797792 436.183322 101.992125 420.065052 95.293163 
C 403.946781 88.594201 386.666716 85.131954 369.211804 85.104169 
C 351.756892 85.076383 334.465892 88.483598 318.326376 95.131211 
C 302.18686 101.778824 287.512059 111.53782 275.14012 123.850816 
C 262.768182 136.163813 252.939218 150.791842 246.214606 166.899429 
C 239.489995 183.007015 236.000245 200.281546 235.944674 217.736392 
C 235.889103 235.191238 239.268789 252.48764 245.890702 268.637718 
C 252.512615 284.787795 262.248239 299.478112 274.541526 311.869635 
C 286.834812 324.261158 301.447177 334.113396 317.544039 340.86364 
C 333.6409 347.613883 350.909854 351.131127 368.36459 351.214483 
C 385.819325 351.297839 403.121085 347.94569 419.281683 341.349494 
C 435.442281 334.753298 450.148078 325.041071 462.559154 312.767525 
C 474.97023 300.49398 484.845716 285.897317 491.621574 269.811221 
C 498.397433 253.725125 501.942161 236.461792 502.053303 219.007211 
L 369 218.16 
z
" style="fill: #f77189"/>
   </g>
   <g id="patch_3">
    <path d="M 502.053303 219.007211 
C 502.054193 218.867408 502.054863 218.727604 502.055312 218.587799 
C 502.055762 218.447994 502.055991 218.308188 502.056 218.168383 
L 369 218.16 
z
" style="fill: #bb9832"/>
   </g>
   <g id="patch_4">
    <path d="M 502.056 218.168383 
C 502.056 218.166985 502.056 218.165586 502.056 218.164188 
C 502.056 218.16279 502.056 218.161392 502.056 218.159994 
L 369 218.16 
z
" style="fill: #50b131"/>
   </g>
   <g id="text_1">
    <text style="fill: #262626; font: 10px 'Arial', 'Liberation Sans', 'DejaVu Sans', 'Bitstream Vera Sans', sans-serif; text-anchor: end" x="222.639142" y="220.279969" transform="rotate(-0 222.639142 220.279969)">newsapi</text>
   </g>
   <g id="text_2">
    <text style="fill: #262626; font: 10px 'Arial', 'Liberation Sans', 'DejaVu Sans', 'Bitstream Vera Sans', sans-serif; text-anchor: middle" x="289.166805" y="220.491773" transform="rotate(-0 289.166805 220.491773)">99.9%</text>
   </g>
   <g id="text_3">
    <text style="fill: #262626; font: 10px 'Arial', 'Liberation Sans', 'DejaVu Sans', 'Bitstream Vera Sans', sans-serif; text-anchor: start" x="515.360844" y="221.216516" transform="rotate(-0 515.360844 221.216516)">chicago_pd</text>
   </g>
   <g id="text_4">
    <text style="fill: #262626; font: 10px 'Arial', 'Liberation Sans', 'DejaVu Sans', 'Bitstream Vera Sans', sans-serif; text-anchor: middle" x="448.833187" y="221.002617" transform="rotate(-0 448.833187 221.002617)">0.1%</text>
   </g>
   <g id="text_5">
    <text style="fill: #262626; font: 10px 'Arial', 'Liberation Sans', 'DejaVu Sans', 'Bitstream Vera Sans', sans-serif; text-anchor: start" x="515.3616" y="220.750545" transform="rotate(-0 515.3616 220.750545)">chicago_police</text>
   </g>
   <g id="text_6">
    <text style="fill: #262626; font: 10px 'Arial', 'Liberation Sans', 'DejaVu Sans', 'Bitstream Vera Sans', sans-serif; text-anchor: middle" x="448.8336" y="220.748451" transform="rotate(-0 448.8336 220.748451)">0.0%</text>
   </g>
   <g id="text_7">
    <text style="fill: #262626; font: 12px 'Arial', 'Liberation Sans', 'DejaVu Sans', 'Bitstream Vera Sans', sans-serif; text-anchor: middle" x="369" y="45.84" transform="rotate(-0 369 45.84)">Incidents by Source</text>
   </g>
  </g>
 </g>
</svg>
