<?xml version="1.0" encoding="utf-8" standalone="no"?>
<!DOCTYPE svg PUBLIC "-//W3C//DTD SVG 1.1//EN"
  "http://www.w3.org/Graphics/SVG/1.1/DTD/svg11.dtd">
<svg xmlns:xlink="http://www.w3.org/1999/xlink" width="720pt" height="432pt" viewBox="0 0 720 432" xmlns="http://www.w3.org/2000/svg" version="1.1">
 <metadata>
  <rdf:RDF xmlns:dc="http://purl.org/dc/elements/1.1/" xmlns:cc="http://creativecommons.org/ns#" xmlns:rdf="http://www.w3.org/1999/02/22-rdf-syntax-ns#">
   <cc:Work>
    <dc:type rdf:resource="http://purl.org/dc/dcmitype/StillImage"/>
    <dc:date>2025-08-31T18:17:52.656071</dc:date>
    <dc:format>image/svg+xml</dc:format>
    <dc:creator>
     <cc:Agent>
      <dc:title>Matplotlib v3.7.5, https://matplotlib.org/</dc:title>
     </cc:Agent>
    </dc:creator>
   </cc:Work>
  </rdf:RDF>
 </metadata>
 <defs>
  <style type="text/css">*{stroke-linejoin: round; stroke-linecap: butt}</style>
 </defs>
 <g id="figure_1">
  <g id="patch_1">
   <path d="M 0 432 
L 720 432 
L 720 0 
L 0 0 
z
" style="fill: #ffffff"/>
  </g>
  <g id="axes_1">
   <g id="matplotlib.axis_1"/>
   <g id="matplotlib.axis_2"/>
   <g id="patch_2">
    <path d="M 502.056 218.16 
C 502.056 200.719538 498.626958 183.448035 491.964405 167.33034 
C 485.301851 151.212645 475.534875 136.561046 463.220407 124.211003 
C 450.905938 111.860959 436.282576 102.051758 420.184168 95.342737 
C 404.08576 88.633716 386.82422 85.154865 369.383831 85.104554 
C 351.943441 85.054243 334.662118 88.433446 318.52527 95.049477 
C 302.388423 101.665508 287.70871 111.390177 275.323194 123.668968 
C 262.937678 135.947758 253.086333 150.542763 246.3309 166.621751 
C 239.575468 182.700738 236.046836 199.95217 235.946214 217.392342 
C 235.845593 234.832514 239.174931 252.123513 245.744384 268.279379 
C 252.313836 284.435245 261.996118 299.142949 274.239129 311.563835 
C 286.482139 323.984721 301.048665 333.878127 317.108098 340.679915 
C 333.167531 347.481704 350.408712 351.060086 367.848521 351.211017 
C 385.28833 351.361949 402.588861 348.082505 418.763611 341.559685 
C 434.938361 335.036864 449.673935 325.397051 462.130087 313.189922 
C 474.586239 300.982793 484.521624 286.444868 491.369711 270.405123 
C 498.217798 254.365378 501.845902 237.134591 502.047142 219.695291 
L 369 218.16 
z
" style="fill: #f77189"/>
   </g>
   <g id="patch_3">
    <path d="M 502.047142 219.695291 
C 502.050065 219.441951 502.052265 219.188603 502.053741 218.935251 
C 502.055218 218.681899 502.05597 218.428543 502.055999 218.175186 
L 369 218.16 
z
" style="fill: #bb9832"/>
   </g>
   <g id="patch_4">
    <path d="M 502.055999 218.175186 
C 502.055999 218.172652 502.056 218.170119 502.056 218.167585 
C 502.056 218.165052 502.056 218.162518 502.056 218.159985 
L 369 218.16 
z
" style="fill: #50b131"/>
   </g>
   <g id="text_1">
    <text style="fill: #262626; font: 10px 'Arial', 'Liberation Sans', 'DejaVu Sans', 'Bitstream Vera Sans', sans-serif; text-anchor: end" x="222.640836" y="219.901514" transform="rotate(-0 222.640836 219.901514)">newsapi</text>
   </g>
   <g id="text_2">
    <text style="fill: #262626; font: 10px 'Arial', 'Liberation Sans', 'DejaVu Sans', 'Bitstream Vera Sans', sans-serif; text-anchor: middle" x="289.167729" y="220.285343" transform="rotate(-0 289.167729 220.285343)">99.8%</text>
   </g>
   <g id="text_3">
    <text style="fill: #262626; font: 10px 'Arial', 'Liberation Sans', 'DejaVu Sans', 'Bitstream Vera Sans', sans-serif; text-anchor: start" x="515.359116" y="221.598713" transform="rotate(-0 515.359116 221.598713)">chicago_pd</text>
   </g>
   <g id="text_4">
    <text style="fill: #262626; font: 10px 'Arial', 'Liberation Sans', 'DejaVu Sans', 'Bitstream Vera Sans', sans-serif; text-anchor: middle" x="448.832245" y="221.211088" transform="rotate(-0 448.832245 221.211088)">0.2%</text>
   </g>
   <g id="text_5">
    <text style="fill: #262626; font: 10px 'Arial', 'Liberation Sans', 'DejaVu Sans', 'Bitstream Vera Sans', sans-serif; text-anchor: start" x="515.3616" y="220.754281" transform="rotate(-0 515.3616 220.754281)">chicago_police</text>
   </g>
   <g id="text_6">
    <text style="fill: #262626; font: 10px 'Arial', 'Liberation Sans', 'DejaVu Sans', 'Bitstream Vera Sans', sans-serif; text-anchor: middle" x="448.8336" y="220.750489" transform="rotate(-0 448.8336 220.750489)">0.0%</text>
   </g>
   <g id="text_7">
    <text style="fill: #262626; font: 12px 'Arial', 'Liberation Sans', 'DejaVu Sans', 'Bitstream Vera Sans', sans-serif; text-anchor: middle" x="369" y="45.84" transform="rotate(-0 369 45.84)">Incidents by Source</text>
   </g>
  </g>
 </g>
</svg>
