<?xml version="1.0" encoding="utf-8" standalone="no"?>
<!DOCTYPE svg PUBLIC "-//W3C//DTD SVG 1.1//EN"
  "http://www.w3.org/Graphics/SVG/1.1/DTD/svg11.dtd">
<svg xmlns:xlink="http://www.w3.org/1999/xlink" width="720pt" height="432pt" viewBox="0 0 720 432" xmlns="http://www.w3.org/2000/svg" version="1.1">
 <metadata>
  <rdf:RDF xmlns:dc="http://purl.org/dc/elements/1.1/" xmlns:cc="http://creativecommons.org/ns#" xmlns:rdf="http://www.w3.org/1999/02/22-rdf-syntax-ns#">
   <cc:Work>
    <dc:type rdf:resource="http://purl.org/dc/dcmitype/StillImage"/>
    <dc:date>2025-07-11T06:22:13.260690</dc:date>
    <dc:format>image/svg+xml</dc:format>
    <dc:creator>
     <cc:Agent>
      <dc:title>Matplotlib v3.7.5, https://matplotlib.org/</dc:title>
     </cc:Agent>
    </dc:creator>
   </cc:Work>
  </rdf:RDF>
 </metadata>
 <defs>
  <style type="text/css">*{stroke-linejoin: round; stroke-linecap: butt}</style>
 </defs>
 <g id="figure_1">
  <g id="patch_1">
   <path d="M 0 432 
L 720 432 
L 720 0 
L 0 0 
z
" style="fill: #ffffff"/>
  </g>
  <g id="axes_1">
   <g id="matplotlib.axis_1"/>
   <g id="matplotlib.axis_2"/>
   <g id="patch_2">
    <path d="M 502.056 218.16 
C 502.056 200.727712 498.630172 183.464144 491.973681 167.352788 
C 485.317191 151.241431 475.55889 136.594157 463.254701 124.245409 
C 450.950512 111.89666 436.338609 102.085474 420.25142 95.370786 
C 404.164232 88.656098 386.913161 85.167886 369.480987 85.104869 
C 352.048813 85.041853 334.772974 88.405253 318.63766 95.003458 
C 302.502346 101.601664 287.819892 111.306952 275.426746 123.566421 
C 263.033599 135.82589 253.169656 150.402231 246.396858 166.465041 
C 239.62406 182.527852 236.073509 199.7662 235.947477 217.198032 
C 235.821446 234.629865 239.122372 251.917749 245.662207 268.07681 
C 252.202041 284.23587 261.85419 298.953312 274.068779 311.390695 
C 286.283368 323.828078 300.823956 333.744648 316.862178 340.575467 
C 332.900401 347.406287 350.125801 351.01913 367.557064 351.208176 
C 384.988327 351.397222 402.288031 348.158811 418.470627 341.677433 
C 434.653223 335.196055 449.40546 325.597171 461.886917 313.427622 
C 474.368373 301.258073 484.337442 286.753428 491.226193 270.740003 
C 498.114945 254.726579 501.790033 237.514351 502.04209 220.083885 
L 369 218.16 
z
" style="fill: #f77189"/>
   </g>
   <g id="patch_3">
    <path d="M 502.04209 220.083885 
C 502.046681 219.76643 502.050135 219.448959 502.052453 219.13148 
C 502.054772 218.814 502.055953 218.496513 502.055999 218.179025 
L 369 218.16 
z
" style="fill: #bb9832"/>
   </g>
   <g id="patch_4">
    <path d="M 502.055999 218.179025 
C 502.055999 218.17585 502.055999 218.172675 502.056 218.1695 
C 502.056 218.166325 502.056 218.16315 502.056 218.159975 
L 369 218.16 
z
" style="fill: #50b131"/>
   </g>
   <g id="text_1">
    <text style="fill: #262626; font: 10px 'Arial', 'Liberation Sans', 'DejaVu Sans', 'Bitstream Vera Sans', sans-serif; text-anchor: end" x="222.642225" y="219.687773" transform="rotate(-0 222.642225 219.687773)">newsapi</text>
   </g>
   <g id="text_2">
    <text style="fill: #262626; font: 10px 'Arial', 'Liberation Sans', 'DejaVu Sans', 'Bitstream Vera Sans', sans-serif; text-anchor: middle" x="289.168486" y="220.168757" transform="rotate(-0 289.168486 220.168757)">99.8%</text>
   </g>
   <g id="text_3">
    <text style="fill: #262626; font: 10px 'Arial', 'Liberation Sans', 'DejaVu Sans', 'Bitstream Vera Sans', sans-serif; text-anchor: start" x="515.357699" y="221.814565" transform="rotate(-0 515.357699 221.814565)">chicago_pd</text>
   </g>
   <g id="text_4">
    <text style="fill: #262626; font: 10px 'Arial', 'Liberation Sans', 'DejaVu Sans', 'Bitstream Vera Sans', sans-serif; text-anchor: middle" x="448.831472" y="221.328825" transform="rotate(-0 448.831472 221.328825)">0.2%</text>
   </g>
   <g id="text_5">
    <text style="fill: #262626; font: 10px 'Arial', 'Liberation Sans', 'DejaVu Sans', 'Bitstream Vera Sans', sans-serif; text-anchor: start" x="515.3616" y="220.756387" transform="rotate(-0 515.3616 220.756387)">chicago_police</text>
   </g>
   <g id="text_6">
    <text style="fill: #262626; font: 10px 'Arial', 'Liberation Sans', 'DejaVu Sans', 'Bitstream Vera Sans', sans-serif; text-anchor: middle" x="448.8336" y="220.751637" transform="rotate(-0 448.8336 220.751637)">0.0%</text>
   </g>
   <g id="text_7">
    <text style="fill: #262626; font: 12px 'Arial', 'Liberation Sans', 'DejaVu Sans', 'Bitstream Vera Sans', sans-serif; text-anchor: middle" x="369" y="45.84" transform="rotate(-0 369 45.84)">Incidents by Source</text>
   </g>
  </g>
 </g>
</svg>
