<?xml version="1.0" encoding="utf-8" standalone="no"?>
<!DOCTYPE svg PUBLIC "-//W3C//DTD SVG 1.1//EN"
  "http://www.w3.org/Graphics/SVG/1.1/DTD/svg11.dtd">
<svg xmlns:xlink="http://www.w3.org/1999/xlink" width="720pt" height="432pt" viewBox="0 0 720 432" xmlns="http://www.w3.org/2000/svg" version="1.1">
 <metadata>
  <rdf:RDF xmlns:dc="http://purl.org/dc/elements/1.1/" xmlns:cc="http://creativecommons.org/ns#" xmlns:rdf="http://www.w3.org/1999/02/22-rdf-syntax-ns#">
   <cc:Work>
    <dc:type rdf:resource="http://purl.org/dc/dcmitype/StillImage"/>
    <dc:date>2026-04-01T13:48:12.674630</dc:date>
    <dc:format>image/svg+xml</dc:format>
    <dc:creator>
     <cc:Agent>
      <dc:title>Matplotlib v3.7.5, https://matplotlib.org/</dc:title>
     </cc:Agent>
    </dc:creator>
   </cc:Work>
  </rdf:RDF>
 </metadata>
 <defs>
  <style type="text/css">*{stroke-linejoin: round; stroke-linecap: butt}</style>
 </defs>
 <g id="figure_1">
  <g id="patch_1">
   <path d="M 0 432 
L 720 432 
L 720 0 
L 0 0 
z
" style="fill: #ffffff"/>
  </g>
  <g id="axes_1">
   <g id="matplotlib.axis_1"/>
   <g id="matplotlib.axis_2"/>
   <g id="patch_2">
    <path d="M 502.056 218.16 
C 502.056 200.705597 498.621474 183.420559 491.948572 167.292057 
C 485.275671 151.163555 475.493892 136.504588 463.161885 124.152349 
C 450.829879 111.80011 436.186967 101.994313 420.069426 95.294981 
C 403.951885 88.595649 386.6725 85.132792 369.21812 85.104179 
C 351.76374 85.075566 334.473095 88.481751 318.333676 95.128204 
C 302.194257 101.774657 287.519274 111.532393 275.146836 123.844133 
C 262.774397 136.155874 252.94461 150.782692 246.218865 166.889229 
C 239.49312 182.995766 236.001941 200.269451 235.944715 217.72376 
C 235.887489 235.17807 239.265325 252.474276 245.885312 268.624569 
C 252.505298 284.774862 262.238964 299.465821 274.530406 311.858425 
C 286.821848 324.25103 301.432531 334.104782 317.528021 340.856922 
C 333.623512 347.609061 350.89145 351.128552 368.345642 351.214391 
C 385.799834 351.30023 403.101554 347.950752 419.262678 341.35725 
C 435.423801 334.763747 450.130697 325.054178 462.543434 312.783068 
C 474.956172 300.511958 484.833862 285.917447 491.612378 269.833048 
C 498.390894 253.748648 501.938688 236.486502 502.053139 219.032474 
L 369 218.16 
z
" style="fill: #f77189"/>
   </g>
   <g id="patch_3">
    <path d="M 502.053139 219.032474 
C 502.054084 218.888501 502.054794 218.744527 502.055271 218.600551 
C 502.055747 218.456575 502.05599 218.312599 502.056 218.168623 
L 369 218.16 
z
" style="fill: #bb9832"/>
   </g>
   <g id="patch_4">
    <path d="M 502.056 218.168623 
C 502.056 218.167183 502.056 218.165743 502.056 218.164304 
C 502.056 218.162864 502.056 218.161424 502.056 218.159984 
L 369 218.16 
z
" style="fill: #50b131"/>
   </g>
   <g id="text_1">
    <text style="fill: #262626; font: 10px 'Arial', 'Liberation Sans', 'DejaVu Sans', 'Bitstream Vera Sans', sans-serif; text-anchor: end" x="222.639187" y="220.266074" transform="rotate(-0 222.639187 220.266074)">newsapi</text>
   </g>
   <g id="text_2">
    <text style="fill: #262626; font: 10px 'Arial', 'Liberation Sans', 'DejaVu Sans', 'Bitstream Vera Sans', sans-serif; text-anchor: middle" x="289.166829" y="220.484194" transform="rotate(-0 289.166829 220.484194)">99.9%</text>
   </g>
   <g id="text_3">
    <text style="fill: #262626; font: 10px 'Arial', 'Liberation Sans', 'DejaVu Sans', 'Bitstream Vera Sans', sans-serif; text-anchor: start" x="515.360798" y="221.230544" transform="rotate(-0 515.360798 221.230544)">chicago_pd</text>
   </g>
   <g id="text_4">
    <text style="fill: #262626; font: 10px 'Arial', 'Liberation Sans', 'DejaVu Sans', 'Bitstream Vera Sans', sans-serif; text-anchor: middle" x="448.833162" y="221.010268" transform="rotate(-0 448.833162 221.010268)">0.1%</text>
   </g>
   <g id="text_5">
    <text style="fill: #262626; font: 10px 'Arial', 'Liberation Sans', 'DejaVu Sans', 'Bitstream Vera Sans', sans-serif; text-anchor: start" x="515.3616" y="220.750672" transform="rotate(-0 515.3616 220.750672)">chicago_police</text>
   </g>
   <g id="text_6">
    <text style="fill: #262626; font: 10px 'Arial', 'Liberation Sans', 'DejaVu Sans', 'Bitstream Vera Sans', sans-serif; text-anchor: middle" x="448.8336" y="220.74852" transform="rotate(-0 448.8336 220.74852)">0.0%</text>
   </g>
   <g id="text_7">
    <text style="fill: #262626; font: 12px 'Arial', 'Liberation Sans', 'DejaVu Sans', 'Bitstream Vera Sans', sans-serif; text-anchor: middle" x="369" y="45.84" transform="rotate(-0 369 45.84)">Incidents by Source</text>
   </g>
  </g>
 </g>
</svg>
