<?xml version="1.0" encoding="utf-8" standalone="no"?>
<!DOCTYPE svg PUBLIC "-//W3C//DTD SVG 1.1//EN"
  "http://www.w3.org/Graphics/SVG/1.1/DTD/svg11.dtd">
<svg xmlns:xlink="http://www.w3.org/1999/xlink" width="720pt" height="432pt" viewBox="0 0 720 432" xmlns="http://www.w3.org/2000/svg" version="1.1">
 <metadata>
  <rdf:RDF xmlns:dc="http://purl.org/dc/elements/1.1/" xmlns:cc="http://creativecommons.org/ns#" xmlns:rdf="http://www.w3.org/1999/02/22-rdf-syntax-ns#">
   <cc:Work>
    <dc:type rdf:resource="http://purl.org/dc/dcmitype/StillImage"/>
    <dc:date>2025-10-05T01:09:26.656093</dc:date>
    <dc:format>image/svg+xml</dc:format>
    <dc:creator>
     <cc:Agent>
      <dc:title>Matplotlib v3.7.5, https://matplotlib.org/</dc:title>
     </cc:Agent>
    </dc:creator>
   </cc:Work>
  </rdf:RDF>
 </metadata>
 <defs>
  <style type="text/css">*{stroke-linejoin: round; stroke-linecap: butt}</style>
 </defs>
 <g id="figure_1">
  <g id="patch_1">
   <path d="M 0 432 
L 720 432 
L 720 0 
L 0 0 
z
" style="fill: #ffffff"/>
  </g>
  <g id="axes_1">
   <g id="matplotlib.axis_1"/>
   <g id="matplotlib.axis_2"/>
   <g id="patch_2">
    <path d="M 502.056 218.16 
C 502.056 200.715601 498.62541 183.440274 491.959934 167.319527 
C 485.294459 151.198779 475.523303 136.545098 463.203882 124.194433 
C 450.884461 111.843767 436.255577 102.035526 420.151765 95.329238 
C 404.047952 88.62295 386.781371 85.148613 369.337028 85.104427 
C 351.892684 85.060241 334.608724 88.447062 318.471144 95.071683 
C 302.333565 101.696303 287.655181 111.43031 275.27335 123.718408 
C 262.89152 136.006506 253.046255 150.610498 246.299198 166.697272 
C 239.552141 182.784046 236.03408 200.041771 235.945707 217.485947 
C 235.857335 234.930123 239.200366 252.222606 245.784089 268.376914 
C 252.367813 284.531222 262.064608 299.234214 274.321304 311.647131 
C 286.577999 324.060047 301.157007 333.942272 317.226639 340.730054 
C 333.296271 347.517837 350.54503 351.079601 367.988926 351.212158 
C 385.432822 351.344716 402.733718 348.045498 418.90465 341.502714 
C 435.075582 334.95993 449.803089 325.300408 462.247012 313.075193 
C 474.690934 300.849979 484.610056 286.296049 491.438521 270.243662 
C 498.266985 254.191274 501.872428 236.951593 502.049171 219.508089 
L 369 218.16 
z
" style="fill: #f77189"/>
   </g>
   <g id="patch_3">
    <path d="M 502.049171 219.508089 
C 502.051424 219.285643 502.05312 219.063192 502.054259 218.840738 
C 502.055397 218.618284 502.055977 218.395827 502.055999 218.17337 
L 369 218.16 
z
" style="fill: #bb9832"/>
   </g>
   <g id="patch_4">
    <path d="M 502.055999 218.17337 
C 502.056 218.171145 502.056 218.168921 502.056 218.166696 
C 502.056 218.164472 502.056 218.162247 502.056 218.160023 
L 369 218.16 
z
" style="fill: #50b131"/>
   </g>
   <g id="text_1">
    <text style="fill: #262626; font: 10px 'Arial', 'Liberation Sans', 'DejaVu Sans', 'Bitstream Vera Sans', sans-serif; text-anchor: end" x="222.640278" y="220.004479" transform="rotate(-0 222.640278 220.004479)">newsapi</text>
   </g>
   <g id="text_2">
    <text style="fill: #262626; font: 10px 'Arial', 'Liberation Sans', 'DejaVu Sans', 'Bitstream Vera Sans', sans-serif; text-anchor: middle" x="289.167424" y="220.341506" transform="rotate(-0 289.167424 220.341506)">99.8%</text>
   </g>
   <g id="text_3">
    <text style="fill: #262626; font: 10px 'Arial', 'Liberation Sans', 'DejaVu Sans', 'Bitstream Vera Sans', sans-serif; text-anchor: start" x="515.359684" y="221.494749" transform="rotate(-0 515.359684 221.494749)">chicago_pd</text>
   </g>
   <g id="text_4">
    <text style="fill: #262626; font: 10px 'Arial', 'Liberation Sans', 'DejaVu Sans', 'Bitstream Vera Sans', sans-serif; text-anchor: middle" x="448.832555" y="221.15438" transform="rotate(-0 448.832555 221.15438)">0.2%</text>
   </g>
   <g id="text_5">
    <text style="fill: #262626; font: 10px 'Arial', 'Liberation Sans', 'DejaVu Sans', 'Bitstream Vera Sans', sans-serif; text-anchor: start" x="515.3616" y="220.753303" transform="rotate(-0 515.3616 220.753303)">chicago_police</text>
   </g>
   <g id="text_6">
    <text style="fill: #262626; font: 10px 'Arial', 'Liberation Sans', 'DejaVu Sans', 'Bitstream Vera Sans', sans-serif; text-anchor: middle" x="448.8336" y="220.749955" transform="rotate(-0 448.8336 220.749955)">0.0%</text>
   </g>
   <g id="text_7">
    <text style="fill: #262626; font: 12px 'Arial', 'Liberation Sans', 'DejaVu Sans', 'Bitstream Vera Sans', sans-serif; text-anchor: middle" x="369" y="45.84" transform="rotate(-0 369 45.84)">Incidents by Source</text>
   </g>
  </g>
 </g>
</svg>
