<?xml version="1.0" encoding="utf-8" standalone="no"?>
<!DOCTYPE svg PUBLIC "-//W3C//DTD SVG 1.1//EN"
  "http://www.w3.org/Graphics/SVG/1.1/DTD/svg11.dtd">
<svg xmlns:xlink="http://www.w3.org/1999/xlink" width="720pt" height="432pt" viewBox="0 0 720 432" xmlns="http://www.w3.org/2000/svg" version="1.1">
 <metadata>
  <rdf:RDF xmlns:dc="http://purl.org/dc/elements/1.1/" xmlns:cc="http://creativecommons.org/ns#" xmlns:rdf="http://www.w3.org/1999/02/22-rdf-syntax-ns#">
   <cc:Work>
    <dc:type rdf:resource="http://purl.org/dc/dcmitype/StillImage"/>
    <dc:date>2026-01-31T02:25:47.577621</dc:date>
    <dc:format>image/svg+xml</dc:format>
    <dc:creator>
     <cc:Agent>
      <dc:title>Matplotlib v3.7.5, https://matplotlib.org/</dc:title>
     </cc:Agent>
    </dc:creator>
   </cc:Work>
  </rdf:RDF>
 </metadata>
 <defs>
  <style type="text/css">*{stroke-linejoin: round; stroke-linecap: butt}</style>
 </defs>
 <g id="figure_1">
  <g id="patch_1">
   <path d="M 0 432 
L 720 432 
L 720 0 
L 0 0 
z
" style="fill: #ffffff"/>
  </g>
  <g id="axes_1">
   <g id="matplotlib.axis_1"/>
   <g id="matplotlib.axis_2"/>
   <g id="patch_2">
    <path d="M 502.056 218.16 
C 502.056 200.707873 498.62237 183.425045 491.951158 167.298307 
C 485.279947 151.17157 475.500586 136.513805 463.171443 124.161924 
C 450.842301 111.810042 436.202582 102.003688 420.088164 95.302771 
C 403.973747 88.601855 386.697275 85.136384 369.245178 85.104226 
C 351.793081 85.072067 334.503955 88.473845 318.364952 95.115329 
C 302.225949 101.756813 287.550189 111.509148 275.17561 123.815509 
C 262.801031 136.12187 252.967717 150.743495 246.237119 166.845537 
C 239.50652 182.94758 236.00922 200.217637 235.944904 217.669645 
C 235.880587 235.121653 239.250501 252.417018 245.862234 268.568232 
C 252.473968 284.719446 262.199245 299.413151 274.482782 311.810385 
C 286.76632 324.20762 301.3698 334.06786 317.459413 340.828118 
C 333.549026 347.588375 350.812609 351.117492 368.26447 351.213967 
C 385.71633 351.310442 403.017875 347.972403 419.181244 341.390442 
C 435.344614 334.808481 450.056215 325.110297 462.476063 312.849624 
C 474.895911 300.588951 484.783043 286.003664 491.572937 269.926536 
C 498.362831 253.849407 501.923753 236.592356 502.052386 219.140703 
L 369 218.16 
z
" style="fill: #f77189"/>
   </g>
   <g id="patch_3">
    <path d="M 502.052386 219.140703 
C 502.053579 218.978872 502.054476 218.817038 502.055078 218.655203 
C 502.055681 218.493368 502.055988 218.331532 502.056 218.169696 
L 369 218.16 
z
" style="fill: #bb9832"/>
   </g>
   <g id="patch_4">
    <path d="M 502.056 218.169696 
C 502.056 218.168078 502.056 218.16646 502.056 218.164841 
C 502.056 218.163223 502.056 218.161605 502.056 218.159986 
L 369 218.16 
z
" style="fill: #50b131"/>
   </g>
   <g id="text_1">
    <text style="fill: #262626; font: 10px 'Arial', 'Liberation Sans', 'DejaVu Sans', 'Bitstream Vera Sans', sans-serif; text-anchor: end" x="222.639394" y="220.206547" transform="rotate(-0 222.639394 220.206547)">newsapi</text>
   </g>
   <g id="text_2">
    <text style="fill: #262626; font: 10px 'Arial', 'Liberation Sans', 'DejaVu Sans', 'Bitstream Vera Sans', sans-serif; text-anchor: middle" x="289.166942" y="220.451724" transform="rotate(-0 289.166942 220.451724)">99.9%</text>
   </g>
   <g id="text_3">
    <text style="fill: #262626; font: 10px 'Arial', 'Liberation Sans', 'DejaVu Sans', 'Bitstream Vera Sans', sans-serif; text-anchor: start" x="515.360586" y="221.290661" transform="rotate(-0 515.360586 221.290661)">chicago_pd</text>
   </g>
   <g id="text_4">
    <text style="fill: #262626; font: 10px 'Arial', 'Liberation Sans', 'DejaVu Sans', 'Bitstream Vera Sans', sans-serif; text-anchor: middle" x="448.833047" y="221.043059" transform="rotate(-0 448.833047 221.043059)">0.1%</text>
   </g>
   <g id="text_5">
    <text style="fill: #262626; font: 10px 'Arial', 'Liberation Sans', 'DejaVu Sans', 'Bitstream Vera Sans', sans-serif; text-anchor: start" x="515.3616" y="220.751263" transform="rotate(-0 515.3616 220.751263)">chicago_police</text>
   </g>
   <g id="text_6">
    <text style="fill: #262626; font: 10px 'Arial', 'Liberation Sans', 'DejaVu Sans', 'Bitstream Vera Sans', sans-serif; text-anchor: middle" x="448.8336" y="220.748842" transform="rotate(-0 448.8336 220.748842)">0.0%</text>
   </g>
   <g id="text_7">
    <text style="fill: #262626; font: 12px 'Arial', 'Liberation Sans', 'DejaVu Sans', 'Bitstream Vera Sans', sans-serif; text-anchor: middle" x="369" y="45.84" transform="rotate(-0 369 45.84)">Incidents by Source</text>
   </g>
  </g>
 </g>
</svg>
