<?xml version="1.0" encoding="utf-8" standalone="no"?>
<!DOCTYPE svg PUBLIC "-//W3C//DTD SVG 1.1//EN"
  "http://www.w3.org/Graphics/SVG/1.1/DTD/svg11.dtd">
<svg xmlns:xlink="http://www.w3.org/1999/xlink" width="720pt" height="432pt" viewBox="0 0 720 432" xmlns="http://www.w3.org/2000/svg" version="1.1">
 <metadata>
  <rdf:RDF xmlns:dc="http://purl.org/dc/elements/1.1/" xmlns:cc="http://creativecommons.org/ns#" xmlns:rdf="http://www.w3.org/1999/02/22-rdf-syntax-ns#">
   <cc:Work>
    <dc:type rdf:resource="http://purl.org/dc/dcmitype/StillImage"/>
    <dc:date>2026-01-30T01:26:45.924973</dc:date>
    <dc:format>image/svg+xml</dc:format>
    <dc:creator>
     <cc:Agent>
      <dc:title>Matplotlib v3.7.5, https://matplotlib.org/</dc:title>
     </cc:Agent>
    </dc:creator>
   </cc:Work>
  </rdf:RDF>
 </metadata>
 <defs>
  <style type="text/css">*{stroke-linejoin: round; stroke-linecap: butt}</style>
 </defs>
 <g id="figure_1">
  <g id="patch_1">
   <path d="M 0 432 
L 720 432 
L 720 0 
L 0 0 
z
" style="fill: #ffffff"/>
  </g>
  <g id="axes_1">
   <g id="matplotlib.axis_1"/>
   <g id="matplotlib.axis_2"/>
   <g id="patch_2">
    <path d="M 502.056 218.16 
C 502.056 200.70794 498.622396 183.425177 491.951235 167.298492 
C 485.280073 151.171806 475.500783 136.514077 463.171725 124.162206 
C 450.842667 111.810335 436.203042 102.003964 420.088716 95.303001 
C 403.974391 88.602038 386.698005 85.13649 369.245975 85.104227 
C 351.793945 85.071964 334.504864 88.473612 318.365873 95.11495 
C 302.226883 101.756287 287.5511 111.508464 275.176458 123.814666 
C 262.801816 136.120868 252.968398 150.74234 246.237657 166.84425 
C 239.506915 182.94616 236.009435 200.21611 235.944909 217.66805 
C 235.880384 235.119991 239.250064 252.415331 245.861555 268.566572 
C 252.473046 284.717812 262.198075 299.411598 274.481379 311.80897 
C 286.764684 324.206341 301.367952 334.066771 317.457392 340.827268 
C 333.546832 347.587765 350.810286 351.117165 368.262078 351.213954 
C 385.713869 351.310742 403.015409 347.97304 419.178845 341.391419 
C 435.34228 334.809798 450.054019 325.111949 462.474077 312.851584 
C 474.894134 300.591219 484.781545 286.006204 491.571774 269.92929 
C 498.362003 253.852376 501.923312 236.595475 502.052362 219.143892 
L 369 218.16 
z
" style="fill: #f77189"/>
   </g>
   <g id="patch_3">
    <path d="M 502.052362 219.143892 
C 502.053563 218.981538 502.054466 218.819182 502.055072 218.656825 
C 502.055679 218.494468 502.055988 218.33211 502.056 218.169751 
L 369 218.16 
z
" style="fill: #bb9832"/>
   </g>
   <g id="patch_4">
    <path d="M 502.056 218.169751 
C 502.056 218.168128 502.056 218.166504 502.056 218.164881 
C 502.056 218.163257 502.056 218.161633 502.056 218.16001 
L 369 218.16 
z
" style="fill: #50b131"/>
   </g>
   <g id="text_1">
    <text style="fill: #262626; font: 10px 'Arial', 'Liberation Sans', 'DejaVu Sans', 'Bitstream Vera Sans', sans-serif; text-anchor: end" x="222.6394" y="220.204793" transform="rotate(-0 222.6394 220.204793)">newsapi</text>
   </g>
   <g id="text_2">
    <text style="fill: #262626; font: 10px 'Arial', 'Liberation Sans', 'DejaVu Sans', 'Bitstream Vera Sans', sans-serif; text-anchor: middle" x="289.166946" y="220.450768" transform="rotate(-0 289.166946 220.450768)">99.9%</text>
   </g>
   <g id="text_3">
    <text style="fill: #262626; font: 10px 'Arial', 'Liberation Sans', 'DejaVu Sans', 'Bitstream Vera Sans', sans-serif; text-anchor: start" x="515.36058" y="221.292445" transform="rotate(-0 515.36058 221.292445)">chicago_pd</text>
   </g>
   <g id="text_4">
    <text style="fill: #262626; font: 10px 'Arial', 'Liberation Sans', 'DejaVu Sans', 'Bitstream Vera Sans', sans-serif; text-anchor: middle" x="448.833043" y="221.044033" transform="rotate(-0 448.833043 221.044033)">0.1%</text>
   </g>
   <g id="text_5">
    <text style="fill: #262626; font: 10px 'Arial', 'Liberation Sans', 'DejaVu Sans', 'Bitstream Vera Sans', sans-serif; text-anchor: start" x="515.3616" y="220.751306" transform="rotate(-0 515.3616 220.751306)">chicago_police</text>
   </g>
   <g id="text_6">
    <text style="fill: #262626; font: 10px 'Arial', 'Liberation Sans', 'DejaVu Sans', 'Bitstream Vera Sans', sans-serif; text-anchor: middle" x="448.8336" y="220.748866" transform="rotate(-0 448.8336 220.748866)">0.0%</text>
   </g>
   <g id="text_7">
    <text style="fill: #262626; font: 12px 'Arial', 'Liberation Sans', 'DejaVu Sans', 'Bitstream Vera Sans', sans-serif; text-anchor: middle" x="369" y="45.84" transform="rotate(-0 369 45.84)">Incidents by Source</text>
   </g>
  </g>
 </g>
</svg>
