<?xml version="1.0" encoding="utf-8" standalone="no"?>
<!DOCTYPE svg PUBLIC "-//W3C//DTD SVG 1.1//EN"
  "http://www.w3.org/Graphics/SVG/1.1/DTD/svg11.dtd">
<svg xmlns:xlink="http://www.w3.org/1999/xlink" width="720pt" height="432pt" viewBox="0 0 720 432" xmlns="http://www.w3.org/2000/svg" version="1.1">
 <metadata>
  <rdf:RDF xmlns:dc="http://purl.org/dc/elements/1.1/" xmlns:cc="http://creativecommons.org/ns#" xmlns:rdf="http://www.w3.org/1999/02/22-rdf-syntax-ns#">
   <cc:Work>
    <dc:type rdf:resource="http://purl.org/dc/dcmitype/StillImage"/>
    <dc:date>2026-01-18T18:21:25.779911</dc:date>
    <dc:format>image/svg+xml</dc:format>
    <dc:creator>
     <cc:Agent>
      <dc:title>Matplotlib v3.7.5, https://matplotlib.org/</dc:title>
     </cc:Agent>
    </dc:creator>
   </cc:Work>
  </rdf:RDF>
 </metadata>
 <defs>
  <style type="text/css">*{stroke-linejoin: round; stroke-linecap: butt}</style>
 </defs>
 <g id="figure_1">
  <g id="patch_1">
   <path d="M 0 432 
L 720 432 
L 720 0 
L 0 0 
z
" style="fill: #ffffff"/>
  </g>
  <g id="axes_1">
   <g id="matplotlib.axis_1"/>
   <g id="matplotlib.axis_2"/>
   <g id="patch_2">
    <path d="M 502.056 218.16 
C 502.056 200.708545 498.622634 183.426369 491.951922 167.300152 
C 485.281209 151.173935 475.502561 136.516526 463.174264 124.164749 
C 450.845967 111.812973 436.20719 102.006455 420.093694 95.305071 
C 403.980199 88.603687 386.704587 85.137445 369.253163 85.104241 
C 351.80174 85.071036 334.513063 88.471513 318.374183 95.111531 
C 302.235303 101.751548 287.559314 111.50229 275.184103 123.807063 
C 262.808893 136.111837 252.974539 150.731929 246.242509 166.832644 
C 239.510478 182.93336 236.011372 200.202346 235.944963 217.653674 
C 235.878554 235.105003 239.24613 252.400119 245.855429 268.551604 
C 252.464727 284.703088 262.187528 299.397603 274.468732 311.796203 
C 286.749937 324.194804 301.351291 334.056957 317.439169 340.81961 
C 333.527047 347.582262 350.789343 351.114219 368.240514 351.213832 
C 385.691685 351.313446 402.993177 347.978783 419.157208 341.400227 
C 435.321238 334.821672 450.034226 325.126848 462.456171 312.869256 
C 474.878116 300.611664 484.768033 286.029101 491.561284 269.95412 
C 498.354534 253.879139 501.919329 236.623593 502.052147 219.172644 
L 369 218.16 
z
" style="fill: #f77189"/>
   </g>
   <g id="patch_3">
    <path d="M 502.052147 219.172644 
C 502.053418 219.005541 502.054375 218.838436 502.055017 218.67133 
C 502.05566 218.504223 502.055987 218.337116 502.056 218.170008 
L 369 218.16 
z
" style="fill: #bb9832"/>
   </g>
   <g id="patch_4">
    <path d="M 502.056 218.170008 
C 502.056 218.168337 502.056 218.166666 502.056 218.164995 
C 502.056 218.163324 502.056 218.161653 502.056 218.159982 
L 369 218.16 
z
" style="fill: #50b131"/>
   </g>
   <g id="text_1">
    <text style="fill: #262626; font: 10px 'Arial', 'Liberation Sans', 'DejaVu Sans', 'Bitstream Vera Sans', sans-serif; text-anchor: end" x="222.63946" y="220.188979" transform="rotate(-0 222.63946 220.188979)">newsapi</text>
   </g>
   <g id="text_2">
    <text style="fill: #262626; font: 10px 'Arial', 'Liberation Sans', 'DejaVu Sans', 'Bitstream Vera Sans', sans-serif; text-anchor: middle" x="289.166978" y="220.442142" transform="rotate(-0 289.166978 220.442142)">99.9%</text>
   </g>
   <g id="text_3">
    <text style="fill: #262626; font: 10px 'Arial', 'Liberation Sans', 'DejaVu Sans', 'Bitstream Vera Sans', sans-serif; text-anchor: start" x="515.360519" y="221.3084" transform="rotate(-0 515.360519 221.3084)">chicago_pd</text>
   </g>
   <g id="text_4">
    <text style="fill: #262626; font: 10px 'Arial', 'Liberation Sans', 'DejaVu Sans', 'Bitstream Vera Sans', sans-serif; text-anchor: middle" x="448.83301" y="221.052735" transform="rotate(-0 448.83301 221.052735)">0.1%</text>
   </g>
   <g id="text_5">
    <text style="fill: #262626; font: 10px 'Arial', 'Liberation Sans', 'DejaVu Sans', 'Bitstream Vera Sans', sans-serif; text-anchor: start" x="515.3616" y="220.751432" transform="rotate(-0 515.3616 220.751432)">chicago_police</text>
   </g>
   <g id="text_6">
    <text style="fill: #262626; font: 10px 'Arial', 'Liberation Sans', 'DejaVu Sans', 'Bitstream Vera Sans', sans-serif; text-anchor: middle" x="448.8336" y="220.748935" transform="rotate(-0 448.8336 220.748935)">0.0%</text>
   </g>
   <g id="text_7">
    <text style="fill: #262626; font: 12px 'Arial', 'Liberation Sans', 'DejaVu Sans', 'Bitstream Vera Sans', sans-serif; text-anchor: middle" x="369" y="45.84" transform="rotate(-0 369 45.84)">Incidents by Source</text>
   </g>
  </g>
 </g>
</svg>
