<?xml version="1.0" encoding="utf-8" standalone="no"?>
<!DOCTYPE svg PUBLIC "-//W3C//DTD SVG 1.1//EN"
  "http://www.w3.org/Graphics/SVG/1.1/DTD/svg11.dtd">
<svg xmlns:xlink="http://www.w3.org/1999/xlink" width="720pt" height="432pt" viewBox="0 0 720 432" xmlns="http://www.w3.org/2000/svg" version="1.1">
 <metadata>
  <rdf:RDF xmlns:dc="http://purl.org/dc/elements/1.1/" xmlns:cc="http://creativecommons.org/ns#" xmlns:rdf="http://www.w3.org/1999/02/22-rdf-syntax-ns#">
   <cc:Work>
    <dc:type rdf:resource="http://purl.org/dc/dcmitype/StillImage"/>
    <dc:date>2026-01-15T18:30:01.717493</dc:date>
    <dc:format>image/svg+xml</dc:format>
    <dc:creator>
     <cc:Agent>
      <dc:title>Matplotlib v3.7.5, https://matplotlib.org/</dc:title>
     </cc:Agent>
    </dc:creator>
   </cc:Work>
  </rdf:RDF>
 </metadata>
 <defs>
  <style type="text/css">*{stroke-linejoin: round; stroke-linecap: butt}</style>
 </defs>
 <g id="figure_1">
  <g id="patch_1">
   <path d="M 0 432 
L 720 432 
L 720 0 
L 0 0 
z
" style="fill: #ffffff"/>
  </g>
  <g id="axes_1">
   <g id="matplotlib.axis_1"/>
   <g id="matplotlib.axis_2"/>
   <g id="patch_2">
    <path d="M 502.056 218.16 
C 502.056 200.708718 498.622702 183.42671 491.952118 167.300627 
C 485.281534 151.174544 475.503069 136.517226 463.17499 124.165477 
C 450.846911 111.813728 436.208376 102.007167 420.095118 95.305663 
C 403.981859 88.604159 386.706469 85.137719 369.255219 85.104245 
C 351.803969 85.070771 334.515407 88.470913 318.376559 95.110553 
C 302.23771 101.750193 287.561663 111.500525 275.18629 123.804889 
C 262.810917 136.109254 252.976295 150.728952 246.243896 166.829326 
C 239.511497 182.9297 236.011927 200.19841 235.944979 217.649563 
C 235.878032 235.100717 239.245006 252.395769 245.853677 268.547323 
C 252.462349 284.698878 262.184512 299.393601 274.465116 311.792552 
C 286.74572 324.191504 301.346527 334.05415 317.433958 340.817419 
C 333.521389 347.580688 350.783354 351.113376 368.234348 351.213797 
C 385.685341 351.314218 402.986819 347.980424 419.15102 341.402746 
C 435.315221 334.825067 450.028565 325.131108 462.45105 312.874309 
C 474.873535 300.617511 484.764168 286.035649 491.558283 269.96122 
C 498.352398 253.886792 501.91819 236.631634 502.052084 219.180866 
L 369 218.16 
z
" style="fill: #f77189"/>
   </g>
   <g id="patch_3">
    <path d="M 502.052084 219.180866 
C 502.053376 219.012407 502.054349 218.843947 502.055001 218.675485 
C 502.055654 218.507023 502.055987 218.33856 502.056 218.170096 
L 369 218.16 
z
" style="fill: #bb9832"/>
   </g>
   <g id="patch_4">
    <path d="M 502.056 218.170096 
C 502.056 218.168412 502.056 218.166727 502.056 218.165042 
C 502.056 218.163358 502.056 218.161673 502.056 218.159989 
L 369 218.16 
z
" style="fill: #50b131"/>
   </g>
   <g id="text_1">
    <text style="fill: #262626; font: 10px 'Arial', 'Liberation Sans', 'DejaVu Sans', 'Bitstream Vera Sans', sans-serif; text-anchor: end" x="222.639477" y="220.184457" transform="rotate(-0 222.639477 220.184457)">newsapi</text>
   </g>
   <g id="text_2">
    <text style="fill: #262626; font: 10px 'Arial', 'Liberation Sans', 'DejaVu Sans', 'Bitstream Vera Sans', sans-serif; text-anchor: middle" x="289.166987" y="220.439676" transform="rotate(-0 289.166987 220.439676)">99.9%</text>
   </g>
   <g id="text_3">
    <text style="fill: #262626; font: 10px 'Arial', 'Liberation Sans', 'DejaVu Sans', 'Bitstream Vera Sans', sans-serif; text-anchor: start" x="515.360502" y="221.312971" transform="rotate(-0 515.360502 221.312971)">chicago_pd</text>
   </g>
   <g id="text_4">
    <text style="fill: #262626; font: 10px 'Arial', 'Liberation Sans', 'DejaVu Sans', 'Bitstream Vera Sans', sans-serif; text-anchor: middle" x="448.833001" y="221.055228" transform="rotate(-0 448.833001 221.055228)">0.1%</text>
   </g>
   <g id="text_5">
    <text style="fill: #262626; font: 10px 'Arial', 'Liberation Sans', 'DejaVu Sans', 'Bitstream Vera Sans', sans-serif; text-anchor: start" x="515.3616" y="220.751484" transform="rotate(-0 515.3616 220.751484)">chicago_police</text>
   </g>
   <g id="text_6">
    <text style="fill: #262626; font: 10px 'Arial', 'Liberation Sans', 'DejaVu Sans', 'Bitstream Vera Sans', sans-serif; text-anchor: middle" x="448.8336" y="220.748963" transform="rotate(-0 448.8336 220.748963)">0.0%</text>
   </g>
   <g id="text_7">
    <text style="fill: #262626; font: 12px 'Arial', 'Liberation Sans', 'DejaVu Sans', 'Bitstream Vera Sans', sans-serif; text-anchor: middle" x="369" y="45.84" transform="rotate(-0 369 45.84)">Incidents by Source</text>
   </g>
  </g>
 </g>
</svg>
