<?xml version="1.0" encoding="utf-8" standalone="no"?>
<!DOCTYPE svg PUBLIC "-//W3C//DTD SVG 1.1//EN"
  "http://www.w3.org/Graphics/SVG/1.1/DTD/svg11.dtd">
<svg xmlns:xlink="http://www.w3.org/1999/xlink" width="720pt" height="432pt" viewBox="0 0 720 432" xmlns="http://www.w3.org/2000/svg" version="1.1">
 <metadata>
  <rdf:RDF xmlns:dc="http://purl.org/dc/elements/1.1/" xmlns:cc="http://creativecommons.org/ns#" xmlns:rdf="http://www.w3.org/1999/02/22-rdf-syntax-ns#">
   <cc:Work>
    <dc:type rdf:resource="http://purl.org/dc/dcmitype/StillImage"/>
    <dc:date>2025-06-04T01:09:44.726824</dc:date>
    <dc:format>image/svg+xml</dc:format>
    <dc:creator>
     <cc:Agent>
      <dc:title>Matplotlib v3.7.5, https://matplotlib.org/</dc:title>
     </cc:Agent>
    </dc:creator>
   </cc:Work>
  </rdf:RDF>
 </metadata>
 <defs>
  <style type="text/css">*{stroke-linejoin: round; stroke-linecap: butt}</style>
 </defs>
 <g id="figure_1">
  <g id="patch_1">
   <path d="M 0 432 
L 720 432 
L 720 0 
L 0 0 
z
" style="fill: #ffffff"/>
  </g>
  <g id="axes_1">
   <g id="matplotlib.axis_1"/>
   <g id="matplotlib.axis_2"/>
   <g id="patch_2">
    <path d="M 502.056 218.16 
C 502.056 200.73619 498.633503 183.480855 491.9833 167.376075 
C 485.333097 151.271295 475.583791 136.628511 463.290262 124.281112 
C 450.996732 111.933712 436.396715 102.120476 420.321166 95.399921 
C 404.245617 88.679365 387.005411 85.181455 369.581768 85.105272 
C 352.158125 85.029089 334.88799 88.376106 318.754287 94.95583 
C 302.620584 101.535554 287.935313 111.220743 275.534279 123.460168 
C 263.133246 135.699593 253.256268 150.256563 246.465489 166.302574 
C 239.674709 182.348584 236.101452 199.573331 235.949087 216.996475 
C 235.796723 234.419618 239.068197 251.704222 245.577316 267.86654 
C 252.086434 284.028858 261.707321 298.756336 273.892408 311.210766 
C 286.077494 323.665195 300.591139 333.605728 316.607305 340.466601 
C 332.62347 347.327474 349.832429 350.97601 367.25474 351.204553 
C 384.677051 351.433097 401.975794 348.237228 418.166417 341.798839 
C 434.357041 335.36045 449.126444 325.804049 461.634032 313.673534 
C 474.14162 301.54302 484.145516 287.072977 491.076352 271.086962 
C 498.007188 255.100948 501.730933 237.908106 502.035651 220.486961 
L 369 218.16 
z
" style="fill: #f77189"/>
   </g>
   <g id="patch_3">
    <path d="M 502.035651 220.486961 
C 502.042367 220.103015 502.04742 219.719042 502.050811 219.335052 
C 502.054203 218.951062 502.055931 218.56706 502.055998 218.183055 
L 369 218.16 
z
" style="fill: #bb9832"/>
   </g>
   <g id="patch_4">
    <path d="M 502.055998 218.183055 
C 502.055999 218.179215 502.055999 218.175375 502.056 218.171535 
C 502.056 218.167695 502.056 218.163855 502.056 218.160015 
L 369 218.16 
z
" style="fill: #50b131"/>
   </g>
   <g id="text_1">
    <text style="fill: #262626; font: 10px 'Arial', 'Liberation Sans', 'DejaVu Sans', 'Bitstream Vera Sans', sans-serif; text-anchor: end" x="222.643996" y="219.46606" transform="rotate(-0 222.643996 219.46606)">newsapi</text>
   </g>
   <g id="text_2">
    <text style="fill: #262626; font: 10px 'Arial', 'Liberation Sans', 'DejaVu Sans', 'Bitstream Vera Sans', sans-serif; text-anchor: middle" x="289.169452" y="220.047822" transform="rotate(-0 289.169452 220.047822)">99.7%</text>
   </g>
   <g id="text_3">
    <text style="fill: #262626; font: 10px 'Arial', 'Liberation Sans', 'DejaVu Sans', 'Bitstream Vera Sans', sans-serif; text-anchor: start" x="515.355892" y="222.038495" transform="rotate(-0 515.355892 222.038495)">chicago_pd</text>
   </g>
   <g id="text_4">
    <text style="fill: #262626; font: 10px 'Arial', 'Liberation Sans', 'DejaVu Sans', 'Bitstream Vera Sans', sans-serif; text-anchor: middle" x="448.830487" y="221.450969" transform="rotate(-0 448.830487 221.450969)">0.3%</text>
   </g>
   <g id="text_5">
    <text style="fill: #262626; font: 10px 'Arial', 'Liberation Sans', 'DejaVu Sans', 'Bitstream Vera Sans', sans-serif; text-anchor: start" x="515.361599" y="220.758626" transform="rotate(-0 515.361599 220.758626)">chicago_police</text>
   </g>
   <g id="text_6">
    <text style="fill: #262626; font: 10px 'Arial', 'Liberation Sans', 'DejaVu Sans', 'Bitstream Vera Sans', sans-serif; text-anchor: middle" x="448.8336" y="220.752858" transform="rotate(-0 448.8336 220.752858)">0.0%</text>
   </g>
   <g id="text_7">
    <text style="fill: #262626; font: 12px 'Arial', 'Liberation Sans', 'DejaVu Sans', 'Bitstream Vera Sans', sans-serif; text-anchor: middle" x="369" y="45.84" transform="rotate(-0 369 45.84)">Incidents by Source</text>
   </g>
  </g>
 </g>
</svg>
