<?xml version="1.0" encoding="utf-8" standalone="no"?>
<!DOCTYPE svg PUBLIC "-//W3C//DTD SVG 1.1//EN"
  "http://www.w3.org/Graphics/SVG/1.1/DTD/svg11.dtd">
<svg xmlns:xlink="http://www.w3.org/1999/xlink" width="720pt" height="432pt" viewBox="0 0 720 432" xmlns="http://www.w3.org/2000/svg" version="1.1">
 <metadata>
  <rdf:RDF xmlns:dc="http://purl.org/dc/elements/1.1/" xmlns:cc="http://creativecommons.org/ns#" xmlns:rdf="http://www.w3.org/1999/02/22-rdf-syntax-ns#">
   <cc:Work>
    <dc:type rdf:resource="http://purl.org/dc/dcmitype/StillImage"/>
    <dc:date>2025-12-25T01:13:20.728217</dc:date>
    <dc:format>image/svg+xml</dc:format>
    <dc:creator>
     <cc:Agent>
      <dc:title>Matplotlib v3.7.5, https://matplotlib.org/</dc:title>
     </cc:Agent>
    </dc:creator>
   </cc:Work>
  </rdf:RDF>
 </metadata>
 <defs>
  <style type="text/css">*{stroke-linejoin: round; stroke-linecap: butt}</style>
 </defs>
 <g id="figure_1">
  <g id="patch_1">
   <path d="M 0 432 
L 720 432 
L 720 0 
L 0 0 
z
" style="fill: #ffffff"/>
  </g>
  <g id="axes_1">
   <g id="matplotlib.axis_1"/>
   <g id="matplotlib.axis_2"/>
   <g id="patch_2">
    <path d="M 502.056 218.16 
C 502.056 200.7098 498.623128 183.428842 491.953346 167.303597 
C 485.283565 151.178352 475.50625 136.521606 463.179531 124.170027 
C 450.852812 111.818448 436.215794 102.011622 420.10402 95.309366 
C 403.992247 88.60711 386.71824 85.139428 369.268075 85.10427 
C 351.81791 85.069112 334.530071 88.467161 318.391421 95.10444 
C 302.252771 101.741719 287.576355 111.489485 275.199966 123.791294 
C 262.823577 136.093102 252.987281 150.710332 246.252577 166.80857 
C 239.517874 182.906807 236.015396 200.173792 235.94508 217.623851 
C 235.874765 235.07391 239.237975 252.36856 245.842726 268.52055 
C 252.447477 284.672539 262.165653 299.368565 274.442501 311.769714 
C 286.719349 324.170863 301.316732 334.036589 317.401368 340.803713 
C 333.486004 347.570837 350.745898 351.108097 368.195779 351.21357 
C 385.645661 351.319042 402.947053 347.990683 419.112316 341.418488 
C 435.27758 334.846293 449.993155 325.157745 462.419014 312.905907 
C 474.844873 300.65407 484.739989 286.076594 491.539506 270.005624 
C 498.339023 253.934654 501.911049 236.681923 502.051679 219.232289 
L 369 218.16 
z
" style="fill: #f77189"/>
   </g>
   <g id="patch_3">
    <path d="M 502.051679 219.232289 
C 502.053105 219.055344 502.054178 218.878397 502.054898 218.701448 
C 502.055618 218.5245 502.055985 218.347549 502.056 218.170599 
L 369 218.16 
z
" style="fill: #bb9832"/>
   </g>
   <g id="patch_4">
    <path d="M 502.056 218.170599 
C 502.056 218.16883 502.056 218.16706 502.056 218.165291 
C 502.056 218.163521 502.056 218.161752 502.056 218.159982 
L 369 218.16 
z
" style="fill: #50b131"/>
   </g>
   <g id="text_1">
    <text style="fill: #262626; font: 10px 'Arial', 'Liberation Sans', 'DejaVu Sans', 'Bitstream Vera Sans', sans-serif; text-anchor: end" x="222.639588" y="220.156174" transform="rotate(-0 222.639588 220.156174)">newsapi</text>
   </g>
   <g id="text_2">
    <text style="fill: #262626; font: 10px 'Arial', 'Liberation Sans', 'DejaVu Sans', 'Bitstream Vera Sans', sans-serif; text-anchor: middle" x="289.167048" y="220.424248" transform="rotate(-0 289.167048 220.424248)">99.9%</text>
   </g>
   <g id="text_3">
    <text style="fill: #262626; font: 10px 'Arial', 'Liberation Sans', 'DejaVu Sans', 'Bitstream Vera Sans', sans-serif; text-anchor: start" x="515.360388" y="221.341531" transform="rotate(-0 515.360388 221.341531)">chicago_pd</text>
   </g>
   <g id="text_4">
    <text style="fill: #262626; font: 10px 'Arial', 'Liberation Sans', 'DejaVu Sans', 'Bitstream Vera Sans', sans-serif; text-anchor: middle" x="448.832939" y="221.070807" transform="rotate(-0 448.832939 221.070807)">0.1%</text>
   </g>
   <g id="text_5">
    <text style="fill: #262626; font: 10px 'Arial', 'Liberation Sans', 'DejaVu Sans', 'Bitstream Vera Sans', sans-serif; text-anchor: start" x="515.3616" y="220.751757" transform="rotate(-0 515.3616 220.751757)">chicago_police</text>
   </g>
   <g id="text_6">
    <text style="fill: #262626; font: 10px 'Arial', 'Liberation Sans', 'DejaVu Sans', 'Bitstream Vera Sans', sans-serif; text-anchor: middle" x="448.8336" y="220.749112" transform="rotate(-0 448.8336 220.749112)">0.0%</text>
   </g>
   <g id="text_7">
    <text style="fill: #262626; font: 12px 'Arial', 'Liberation Sans', 'DejaVu Sans', 'Bitstream Vera Sans', sans-serif; text-anchor: middle" x="369" y="45.84" transform="rotate(-0 369 45.84)">Incidents by Source</text>
   </g>
  </g>
 </g>
</svg>
