<?xml version="1.0" encoding="utf-8" standalone="no"?>
<!DOCTYPE svg PUBLIC "-//W3C//DTD SVG 1.1//EN"
  "http://www.w3.org/Graphics/SVG/1.1/DTD/svg11.dtd">
<svg xmlns:xlink="http://www.w3.org/1999/xlink" width="720pt" height="432pt" viewBox="0 0 720 432" xmlns="http://www.w3.org/2000/svg" version="1.1">
 <metadata>
  <rdf:RDF xmlns:dc="http://purl.org/dc/elements/1.1/" xmlns:cc="http://creativecommons.org/ns#" xmlns:rdf="http://www.w3.org/1999/02/22-rdf-syntax-ns#">
   <cc:Work>
    <dc:type rdf:resource="http://purl.org/dc/dcmitype/StillImage"/>
    <dc:date>2025-07-20T12:48:18.051025</dc:date>
    <dc:format>image/svg+xml</dc:format>
    <dc:creator>
     <cc:Agent>
      <dc:title>Matplotlib v3.7.5, https://matplotlib.org/</dc:title>
     </cc:Agent>
    </dc:creator>
   </cc:Work>
  </rdf:RDF>
 </metadata>
 <defs>
  <style type="text/css">*{stroke-linejoin: round; stroke-linecap: butt}</style>
 </defs>
 <g id="figure_1">
  <g id="patch_1">
   <path d="M 0 432 
L 720 432 
L 720 0 
L 0 0 
z
" style="fill: #ffffff"/>
  </g>
  <g id="axes_1">
   <g id="matplotlib.axis_1"/>
   <g id="matplotlib.axis_2"/>
   <g id="patch_2">
    <path d="M 502.056 218.16 
C 502.056 200.726061 498.629523 183.460891 491.971808 167.348254 
C 485.314094 151.235618 475.554041 136.58747 463.247776 124.238459 
C 450.941511 111.889449 436.327295 102.078663 420.23784 95.365119 
C 404.148386 88.651574 386.8952 85.165251 369.461366 85.1048 
C 352.027532 85.044348 334.750585 88.410939 318.61496 95.012743 
C 302.479334 101.614548 287.797432 111.32375 275.405824 123.587121 
C 263.014216 135.850492 253.152816 150.430603 246.383522 166.496682 
C 239.614228 182.56276 236.068102 199.803753 235.9472 217.237273 
C 235.826297 234.670793 239.13296 251.95931 245.678775 268.117729 
C 252.224591 284.276149 261.882825 298.991629 274.103156 311.425685 
C 286.323486 323.859742 300.869314 333.771639 316.911824 340.5966 
C 332.954334 347.421562 350.182927 351.02745 367.615923 351.208801 
C 385.048919 351.390153 402.348798 348.143457 418.529818 341.65371 
C 434.710838 335.163962 449.459719 325.556811 461.936074 313.379669 
C 474.412429 301.202527 484.374703 286.691155 491.255251 270.672406 
C 498.135798 254.653658 501.801403 237.437672 502.043202 220.00541 
L 369 218.16 
z
" style="fill: #f77189"/>
   </g>
   <g id="patch_3">
    <path d="M 502.043202 220.00541 
C 502.047426 219.700906 502.050604 219.396389 502.052737 219.091863 
C 502.05487 218.787338 502.055957 218.482806 502.055999 218.178273 
L 369 218.16 
z
" style="fill: #bb9832"/>
   </g>
   <g id="patch_4">
    <path d="M 502.055999 218.178273 
C 502.055999 218.175227 502.055999 218.172182 502.056 218.169137 
C 502.056 218.166091 502.056 218.163046 502.056 218.160001 
L 369 218.16 
z
" style="fill: #50b131"/>
   </g>
   <g id="text_1">
    <text style="fill: #262626; font: 10px 'Arial', 'Liberation Sans', 'DejaVu Sans', 'Bitstream Vera Sans', sans-serif; text-anchor: end" x="222.641919" y="219.730938" transform="rotate(-0 222.641919 219.730938)">newsapi</text>
   </g>
   <g id="text_2">
    <text style="fill: #262626; font: 10px 'Arial', 'Liberation Sans', 'DejaVu Sans', 'Bitstream Vera Sans', sans-serif; text-anchor: middle" x="289.16832" y="220.192301" transform="rotate(-0 289.16832 220.192301)">99.8%</text>
   </g>
   <g id="text_3">
    <text style="fill: #262626; font: 10px 'Arial', 'Liberation Sans', 'DejaVu Sans', 'Bitstream Vera Sans', sans-serif; text-anchor: start" x="515.35801" y="221.770987" transform="rotate(-0 515.35801 221.770987)">chicago_pd</text>
   </g>
   <g id="text_4">
    <text style="fill: #262626; font: 10px 'Arial', 'Liberation Sans', 'DejaVu Sans', 'Bitstream Vera Sans', sans-serif; text-anchor: middle" x="448.831642" y="221.305055" transform="rotate(-0 448.831642 221.305055)">0.2%</text>
   </g>
   <g id="text_5">
    <text style="fill: #262626; font: 10px 'Arial', 'Liberation Sans', 'DejaVu Sans', 'Bitstream Vera Sans', sans-serif; text-anchor: start" x="515.3616" y="220.755988" transform="rotate(-0 515.3616 220.755988)">chicago_police</text>
   </g>
   <g id="text_6">
    <text style="fill: #262626; font: 10px 'Arial', 'Liberation Sans', 'DejaVu Sans', 'Bitstream Vera Sans', sans-serif; text-anchor: middle" x="448.8336" y="220.751419" transform="rotate(-0 448.8336 220.751419)">0.0%</text>
   </g>
   <g id="text_7">
    <text style="fill: #262626; font: 12px 'Arial', 'Liberation Sans', 'DejaVu Sans', 'Bitstream Vera Sans', sans-serif; text-anchor: middle" x="369" y="45.84" transform="rotate(-0 369 45.84)">Incidents by Source</text>
   </g>
  </g>
 </g>
</svg>
