<?xml version="1.0" encoding="utf-8" standalone="no"?>
<!DOCTYPE svg PUBLIC "-//W3C//DTD SVG 1.1//EN"
  "http://www.w3.org/Graphics/SVG/1.1/DTD/svg11.dtd">
<svg xmlns:xlink="http://www.w3.org/1999/xlink" width="720pt" height="432pt" viewBox="0 0 720 432" xmlns="http://www.w3.org/2000/svg" version="1.1">
 <metadata>
  <rdf:RDF xmlns:dc="http://purl.org/dc/elements/1.1/" xmlns:cc="http://creativecommons.org/ns#" xmlns:rdf="http://www.w3.org/1999/02/22-rdf-syntax-ns#">
   <cc:Work>
    <dc:type rdf:resource="http://purl.org/dc/dcmitype/StillImage"/>
    <dc:date>2025-07-26T12:48:20.925680</dc:date>
    <dc:format>image/svg+xml</dc:format>
    <dc:creator>
     <cc:Agent>
      <dc:title>Matplotlib v3.7.5, https://matplotlib.org/</dc:title>
     </cc:Agent>
    </dc:creator>
   </cc:Work>
  </rdf:RDF>
 </metadata>
 <defs>
  <style type="text/css">*{stroke-linejoin: round; stroke-linecap: butt}</style>
 </defs>
 <g id="figure_1">
  <g id="patch_1">
   <path d="M 0 432 
L 720 432 
L 720 0 
L 0 0 
z
" style="fill: #ffffff"/>
  </g>
  <g id="axes_1">
   <g id="matplotlib.axis_1"/>
   <g id="matplotlib.axis_2"/>
   <g id="patch_2">
    <path d="M 502.056 218.16 
C 502.056 200.725065 498.629131 183.458929 491.970678 167.34552 
C 485.312225 151.232111 475.551116 136.583437 463.243599 124.234268 
C 450.936082 111.885099 436.32047 102.074555 420.229648 95.361701 
C 404.138827 88.648846 386.884367 85.163664 369.449532 85.104759 
C 352.014697 85.045855 334.737081 88.41437 318.601268 95.018346 
C 302.465456 101.622322 287.783887 111.333884 275.393208 123.599609 
C 263.002528 135.865334 253.142661 150.447718 246.375482 166.515768 
C 239.608303 182.583818 236.064845 199.826405 235.947037 217.260942 
C 235.82923 234.695478 239.139353 251.984376 245.688776 268.142408 
C 252.238199 284.30044 261.900104 299.014736 274.123897 311.446785 
C 286.34769 323.878833 300.896679 333.787911 316.941774 340.609337 
C 332.986869 347.430764 350.217386 351.032456 367.651425 351.209166 
C 385.085464 351.385876 402.385447 348.134182 418.565514 341.639387 
C 434.745581 335.144591 449.492436 325.532454 461.965712 313.350733 
C 474.438988 301.169011 484.397163 286.653583 491.272759 270.631626 
C 498.148356 254.609668 501.80824 237.391418 502.04385 219.958076 
L 369 218.16 
z
" style="fill: #f77189"/>
   </g>
   <g id="patch_3">
    <path d="M 502.04385 219.958076 
C 502.04786 219.661378 502.050877 219.364667 502.052902 219.067949 
C 502.054927 218.771232 502.055959 218.474508 502.055999 218.177783 
L 369 218.16 
z
" style="fill: #bb9832"/>
   </g>
   <g id="patch_4">
    <path d="M 502.055999 218.177783 
C 502.055999 218.174816 502.056 218.171848 502.056 218.168881 
C 502.056 218.165914 502.056 218.162947 502.056 218.159979 
L 369 218.16 
z
" style="fill: #50b131"/>
   </g>
   <g id="text_1">
    <text style="fill: #262626; font: 10px 'Arial', 'Liberation Sans', 'DejaVu Sans', 'Bitstream Vera Sans', sans-serif; text-anchor: end" x="222.641741" y="219.756973" transform="rotate(-0 222.641741 219.756973)">newsapi</text>
   </g>
   <g id="text_2">
    <text style="fill: #262626; font: 10px 'Arial', 'Liberation Sans', 'DejaVu Sans', 'Bitstream Vera Sans', sans-serif; text-anchor: middle" x="289.168222" y="220.206503" transform="rotate(-0 289.168222 220.206503)">99.8%</text>
   </g>
   <g id="text_3">
    <text style="fill: #262626; font: 10px 'Arial', 'Liberation Sans', 'DejaVu Sans', 'Bitstream Vera Sans', sans-serif; text-anchor: start" x="515.358192" y="221.744682" transform="rotate(-0 515.358192 221.744682)">chicago_pd</text>
   </g>
   <g id="text_4">
    <text style="fill: #262626; font: 10px 'Arial', 'Liberation Sans', 'DejaVu Sans', 'Bitstream Vera Sans', sans-serif; text-anchor: middle" x="448.831741" y="221.290707" transform="rotate(-0 448.831741 221.290707)">0.2%</text>
   </g>
   <g id="text_5">
    <text style="fill: #262626; font: 10px 'Arial', 'Liberation Sans', 'DejaVu Sans', 'Bitstream Vera Sans', sans-serif; text-anchor: start" x="515.3616" y="220.755707" transform="rotate(-0 515.3616 220.755707)">chicago_police</text>
   </g>
   <g id="text_6">
    <text style="fill: #262626; font: 10px 'Arial', 'Liberation Sans', 'DejaVu Sans', 'Bitstream Vera Sans', sans-serif; text-anchor: middle" x="448.8336" y="220.751266" transform="rotate(-0 448.8336 220.751266)">0.0%</text>
   </g>
   <g id="text_7">
    <text style="fill: #262626; font: 12px 'Arial', 'Liberation Sans', 'DejaVu Sans', 'Bitstream Vera Sans', sans-serif; text-anchor: middle" x="369" y="45.84" transform="rotate(-0 369 45.84)">Incidents by Source</text>
   </g>
  </g>
 </g>
</svg>
