<?xml version="1.0" encoding="utf-8" standalone="no"?>
<!DOCTYPE svg PUBLIC "-//W3C//DTD SVG 1.1//EN"
  "http://www.w3.org/Graphics/SVG/1.1/DTD/svg11.dtd">
<svg xmlns:xlink="http://www.w3.org/1999/xlink" width="720pt" height="432pt" viewBox="0 0 720 432" xmlns="http://www.w3.org/2000/svg" version="1.1">
 <metadata>
  <rdf:RDF xmlns:dc="http://purl.org/dc/elements/1.1/" xmlns:cc="http://creativecommons.org/ns#" xmlns:rdf="http://www.w3.org/1999/02/22-rdf-syntax-ns#">
   <cc:Work>
    <dc:type rdf:resource="http://purl.org/dc/dcmitype/StillImage"/>
    <dc:date>2025-07-17T06:22:33.723077</dc:date>
    <dc:format>image/svg+xml</dc:format>
    <dc:creator>
     <cc:Agent>
      <dc:title>Matplotlib v3.7.5, https://matplotlib.org/</dc:title>
     </cc:Agent>
    </dc:creator>
   </cc:Work>
  </rdf:RDF>
 </metadata>
 <defs>
  <style type="text/css">*{stroke-linejoin: round; stroke-linecap: butt}</style>
 </defs>
 <g id="figure_1">
  <g id="patch_1">
   <path d="M 0 432 
L 720 432 
L 720 0 
L 0 0 
z
" style="fill: #ffffff"/>
  </g>
  <g id="axes_1">
   <g id="matplotlib.axis_1"/>
   <g id="matplotlib.axis_2"/>
   <g id="patch_2">
    <path d="M 502.056 218.16 
C 502.056 200.726664 498.62976 183.462079 491.972492 167.349909 
C 485.315225 151.23774 475.555812 136.589912 463.250304 124.240996 
C 450.944797 111.892081 436.331425 102.08115 420.242798 95.367188 
C 404.154171 88.653226 386.901758 85.166213 369.468529 85.104825 
C 352.035301 85.043437 334.758759 88.408862 318.623247 95.009353 
C 302.487735 101.609844 287.805632 111.317617 275.413462 123.579563 
C 263.021292 135.84151 253.158963 150.420244 246.38839 166.48513 
C 239.617817 182.550016 236.070075 199.790043 235.9473 217.222947 
C 235.824525 234.655851 239.129093 251.944137 245.672725 268.102791 
C 252.216357 284.261445 261.87237 298.977641 274.090604 311.412912 
C 286.308838 323.848183 300.852754 333.761787 316.893699 340.588887 
C 332.934644 347.415988 350.162071 351.024415 367.594435 351.208576 
C 385.026799 351.392737 402.326614 348.149066 418.50821 341.662374 
C 434.689806 335.175682 449.439912 325.571549 461.91813 313.397179 
C 474.396348 301.222808 484.361104 286.713892 491.244647 270.697087 
C 498.12819 254.680281 501.797257 237.465667 502.042802 220.03406 
L 369 218.16 
z
" style="fill: #f77189"/>
   </g>
   <g id="patch_3">
    <path d="M 502.042802 220.03406 
C 502.047157 219.724826 502.050435 219.415578 502.052635 219.106321 
C 502.054834 218.797064 502.055956 218.487801 502.055999 218.178536 
L 369 218.16 
z
" style="fill: #bb9832"/>
   </g>
   <g id="patch_4">
    <path d="M 502.055999 218.178536 
C 502.055999 218.175443 502.055999 218.172351 502.056 218.169258 
C 502.056 218.166166 502.056 218.163073 502.056 218.15998 
L 369 218.16 
z
" style="fill: #50b131"/>
   </g>
   <g id="text_1">
    <text style="fill: #262626; font: 10px 'Arial', 'Liberation Sans', 'DejaVu Sans', 'Bitstream Vera Sans', sans-serif; text-anchor: end" x="222.64203" y="219.715179" transform="rotate(-0 222.64203 219.715179)">newsapi</text>
   </g>
   <g id="text_2">
    <text style="fill: #262626; font: 10px 'Arial', 'Liberation Sans', 'DejaVu Sans', 'Bitstream Vera Sans', sans-serif; text-anchor: middle" x="289.16838" y="220.183706" transform="rotate(-0 289.16838 220.183706)">99.8%</text>
   </g>
   <g id="text_3">
    <text style="fill: #262626; font: 10px 'Arial', 'Liberation Sans', 'DejaVu Sans', 'Bitstream Vera Sans', sans-serif; text-anchor: start" x="515.357898" y="221.78689" transform="rotate(-0 515.357898 221.78689)">chicago_pd</text>
   </g>
   <g id="text_4">
    <text style="fill: #262626; font: 10px 'Arial', 'Liberation Sans', 'DejaVu Sans', 'Bitstream Vera Sans', sans-serif; text-anchor: middle" x="448.831581" y="221.31373" transform="rotate(-0 448.831581 221.31373)">0.2%</text>
   </g>
   <g id="text_5">
    <text style="fill: #262626; font: 10px 'Arial', 'Liberation Sans', 'DejaVu Sans', 'Bitstream Vera Sans', sans-serif; text-anchor: start" x="515.3616" y="220.756122" transform="rotate(-0 515.3616 220.756122)">chicago_police</text>
   </g>
   <g id="text_6">
    <text style="fill: #262626; font: 10px 'Arial', 'Liberation Sans', 'DejaVu Sans', 'Bitstream Vera Sans', sans-serif; text-anchor: middle" x="448.8336" y="220.751492" transform="rotate(-0 448.8336 220.751492)">0.0%</text>
   </g>
   <g id="text_7">
    <text style="fill: #262626; font: 12px 'Arial', 'Liberation Sans', 'DejaVu Sans', 'Bitstream Vera Sans', sans-serif; text-anchor: middle" x="369" y="45.84" transform="rotate(-0 369 45.84)">Incidents by Source</text>
   </g>
  </g>
 </g>
</svg>
