<?xml version="1.0" encoding="utf-8" standalone="no"?>
<!DOCTYPE svg PUBLIC "-//W3C//DTD SVG 1.1//EN"
  "http://www.w3.org/Graphics/SVG/1.1/DTD/svg11.dtd">
<svg xmlns:xlink="http://www.w3.org/1999/xlink" width="720pt" height="432pt" viewBox="0 0 720 432" xmlns="http://www.w3.org/2000/svg" version="1.1">
 <metadata>
  <rdf:RDF xmlns:dc="http://purl.org/dc/elements/1.1/" xmlns:cc="http://creativecommons.org/ns#" xmlns:rdf="http://www.w3.org/1999/02/22-rdf-syntax-ns#">
   <cc:Work>
    <dc:type rdf:resource="http://purl.org/dc/dcmitype/StillImage"/>
    <dc:date>2025-05-10T18:16:57.949042</dc:date>
    <dc:format>image/svg+xml</dc:format>
    <dc:creator>
     <cc:Agent>
      <dc:title>Matplotlib v3.7.5, https://matplotlib.org/</dc:title>
     </cc:Agent>
    </dc:creator>
   </cc:Work>
  </rdf:RDF>
 </metadata>
 <defs>
  <style type="text/css">*{stroke-linejoin: round; stroke-linecap: butt}</style>
 </defs>
 <g id="figure_1">
  <g id="patch_1">
   <path d="M 0 432 
L 720 432 
L 720 0 
L 0 0 
z
" style="fill: #ffffff"/>
  </g>
  <g id="axes_1">
   <g id="matplotlib.axis_1"/>
   <g id="matplotlib.axis_2"/>
   <g id="patch_2">
    <path d="M 502.056 218.16 
C 502.056 200.743552 498.636395 183.495364 491.991648 167.396295 
C 485.346901 151.297226 475.605402 136.658344 463.321126 124.312121 
C 451.036849 111.965898 436.447151 102.15089 420.381709 95.425249 
C 404.316266 88.699608 387.085497 85.193288 369.669269 85.105683 
C 352.253041 85.018079 334.987871 88.350883 318.855583 94.914568 
C 302.723295 101.478252 288.035598 111.145994 275.627742 123.368014 
C 263.219885 135.590035 253.331615 150.130179 246.52525 166.161588 
C 239.718886 182.192997 236.125939 199.405911 235.950733 216.821478 
C 235.775526 234.237045 239.021445 251.518761 245.503901 267.68386 
C 251.986358 283.848959 261.580099 298.585099 273.739553 311.054275 
C 285.899007 323.523451 300.389229 333.484733 316.3862 340.371649 
C 332.38317 347.258565 349.577794 350.938047 366.99226 351.200851 
C 384.406725 351.463656 401.704549 348.304705 417.90205 341.903641 
C 434.099552 335.502576 448.883762 325.983079 461.413941 313.886499 
C 473.944121 301.789918 483.978163 287.349984 490.945456 271.387857 
C 497.91275 255.42573 501.678674 238.249831 502.029069 220.836908 
L 369 218.16 
z
" style="fill: #f77189"/>
   </g>
   <g id="patch_3">
    <path d="M 502.029069 220.836908 
C 502.037957 220.395235 502.044645 219.953521 502.049133 219.511782 
C 502.053621 219.070042 502.055909 218.628283 502.055997 218.186521 
L 369 218.16 
z
" style="fill: #bb9832"/>
   </g>
   <g id="patch_4">
    <path d="M 502.055997 218.186521 
C 502.055998 218.182104 502.055999 218.177686 502.055999 218.173268 
C 502.056 218.168851 502.056 218.164433 502.056 218.160016 
L 369 218.16 
z
" style="fill: #50b131"/>
   </g>
   <g id="text_1">
    <text style="fill: #262626; font: 10px 'Arial', 'Liberation Sans', 'DejaVu Sans', 'Bitstream Vera Sans', sans-serif; text-anchor: end" x="222.645806" y="219.273563" transform="rotate(-0 222.645806 219.273563)">newsapi</text>
   </g>
   <g id="text_2">
    <text style="fill: #262626; font: 10px 'Arial', 'Liberation Sans', 'DejaVu Sans', 'Bitstream Vera Sans', sans-serif; text-anchor: middle" x="289.17044" y="219.942824" transform="rotate(-0 289.17044 219.942824)">99.7%</text>
   </g>
   <g id="text_3">
    <text style="fill: #262626; font: 10px 'Arial', 'Liberation Sans', 'DejaVu Sans', 'Bitstream Vera Sans', sans-serif; text-anchor: start" x="515.354046" y="222.232897" transform="rotate(-0 515.354046 222.232897)">chicago_pd</text>
   </g>
   <g id="text_4">
    <text style="fill: #262626; font: 10px 'Arial', 'Liberation Sans', 'DejaVu Sans', 'Bitstream Vera Sans', sans-serif; text-anchor: middle" x="448.82948" y="221.557007" transform="rotate(-0 448.82948 221.557007)">0.3%</text>
   </g>
   <g id="text_5">
    <text style="fill: #262626; font: 10px 'Arial', 'Liberation Sans', 'DejaVu Sans', 'Bitstream Vera Sans', sans-serif; text-anchor: start" x="515.361599" y="220.760533" transform="rotate(-0 515.361599 220.760533)">chicago_police</text>
   </g>
   <g id="text_6">
    <text style="fill: #262626; font: 10px 'Arial', 'Liberation Sans', 'DejaVu Sans', 'Bitstream Vera Sans', sans-serif; text-anchor: middle" x="448.8336" y="220.753899" transform="rotate(-0 448.8336 220.753899)">0.0%</text>
   </g>
   <g id="text_7">
    <text style="fill: #262626; font: 12px 'Arial', 'Liberation Sans', 'DejaVu Sans', 'Bitstream Vera Sans', sans-serif; text-anchor: middle" x="369" y="45.84" transform="rotate(-0 369 45.84)">Incidents by Source</text>
   </g>
  </g>
 </g>
</svg>
