<?xml version="1.0" encoding="utf-8" standalone="no"?>
<!DOCTYPE svg PUBLIC "-//W3C//DTD SVG 1.1//EN"
  "http://www.w3.org/Graphics/SVG/1.1/DTD/svg11.dtd">
<svg xmlns:xlink="http://www.w3.org/1999/xlink" width="720pt" height="432pt" viewBox="0 0 720 432" xmlns="http://www.w3.org/2000/svg" version="1.1">
 <metadata>
  <rdf:RDF xmlns:dc="http://purl.org/dc/elements/1.1/" xmlns:cc="http://creativecommons.org/ns#" xmlns:rdf="http://www.w3.org/1999/02/22-rdf-syntax-ns#">
   <cc:Work>
    <dc:type rdf:resource="http://purl.org/dc/dcmitype/StillImage"/>
    <dc:date>2025-01-27T12:23:47.972367</dc:date>
    <dc:format>image/svg+xml</dc:format>
    <dc:creator>
     <cc:Agent>
      <dc:title>Matplotlib v3.7.5, https://matplotlib.org/</dc:title>
     </cc:Agent>
    </dc:creator>
   </cc:Work>
  </rdf:RDF>
 </metadata>
 <defs>
  <style type="text/css">*{stroke-linejoin: round; stroke-linecap: butt}</style>
 </defs>
 <g id="figure_1">
  <g id="patch_1">
   <path d="M 0 432 
L 720 432 
L 720 0 
L 0 0 
z
" style="fill: #ffffff"/>
  </g>
  <g id="axes_1">
   <g id="matplotlib.axis_1"/>
   <g id="matplotlib.axis_2"/>
   <g id="patch_2">
    <path d="M 502.056 218.16 
C 502.056 200.842966 498.675322 183.691322 492.104063 167.669517 
C 485.532804 151.647712 475.896485 137.061787 463.736964 124.731916 
C 451.577442 112.402045 437.126982 102.563749 421.198142 95.770241 
C 405.269303 88.976733 388.166349 85.357779 370.85099 85.116876 
C 353.535632 84.875972 336.338618 88.01772 320.226948 94.365458 
C 304.115279 100.713196 289.39671 110.145672 276.898877 122.132492 
C 264.401044 134.119312 254.362675 148.431509 247.348232 164.2643 
C 240.333789 180.097091 236.47726 197.148046 235.9955 214.458377 
C 235.513739 231.768709 238.41595 249.007765 244.538938 265.206181 
C 250.661926 281.404598 259.888734 296.25296 271.700532 308.916337 
C 283.51233 321.579713 297.683495 331.816214 313.417174 339.050233 
C 329.150852 346.284253 346.146507 350.377611 363.448462 351.100135 
C 380.750416 351.822659 398.028177 349.160549 414.310205 343.263495 
C 430.592233 337.366441 445.567517 328.347087 458.393986 316.712597 
C 471.220456 305.078107 481.653106 291.050717 489.105302 275.419196 
C 496.557499 259.787675 500.886893 242.850609 501.850041 225.56038 
L 369 218.16 
z
" style="fill: #f77189"/>
   </g>
   <g id="patch_3">
    <path d="M 501.850041 225.56038 
C 501.917998 224.340436 501.969148 223.119613 502.003476 221.89826 
C 502.037804 220.676907 502.055307 219.455139 502.05598 218.233304 
L 369 218.16 
z
" style="fill: #bb9832"/>
   </g>
   <g id="patch_4">
    <path d="M 502.05598 218.233304 
C 502.055987 218.221085 502.055992 218.208867 502.055995 218.196649 
C 502.055998 218.184431 502.056 218.172213 502.056 218.159995 
L 369 218.16 
z
" style="fill: #50b131"/>
   </g>
   <g id="text_1">
    <text style="fill: #262626; font: 10px 'Arial', 'Liberation Sans', 'DejaVu Sans', 'Bitstream Vera Sans', sans-serif; text-anchor: end" x="222.69505" y="216.674153" transform="rotate(-0 222.69505 216.674153)">newsapi</text>
   </g>
   <g id="text_2">
    <text style="fill: #262626; font: 10px 'Arial', 'Liberation Sans', 'DejaVu Sans', 'Bitstream Vera Sans', sans-serif; text-anchor: middle" x="289.1973" y="218.524964" transform="rotate(-0 289.1973 218.524964)">99.1%</text>
   </g>
   <g id="text_3">
    <text style="fill: #262626; font: 10px 'Arial', 'Liberation Sans', 'DejaVu Sans', 'Bitstream Vera Sans', sans-serif; text-anchor: start" x="515.303823" y="224.858024" transform="rotate(-0 515.303823 224.858024)">chicago_pd</text>
   </g>
   <g id="text_4">
    <text style="fill: #262626; font: 10px 'Arial', 'Liberation Sans', 'DejaVu Sans', 'Bitstream Vera Sans', sans-serif; text-anchor: middle" x="448.802085" y="222.988894" transform="rotate(-0 448.802085 222.988894)">0.9%</text>
   </g>
   <g id="text_5">
    <text style="fill: #262626; font: 10px 'Arial', 'Liberation Sans', 'DejaVu Sans', 'Bitstream Vera Sans', sans-serif; text-anchor: start" x="515.361594" y="220.786252" transform="rotate(-0 515.361594 220.786252)">chicago_police</text>
   </g>
   <g id="text_6">
    <text style="fill: #262626; font: 10px 'Arial', 'Liberation Sans', 'DejaVu Sans', 'Bitstream Vera Sans', sans-serif; text-anchor: middle" x="448.833597" y="220.767927" transform="rotate(-0 448.833597 220.767927)">0.0%</text>
   </g>
   <g id="text_7">
    <text style="fill: #262626; font: 12px 'Arial', 'Liberation Sans', 'DejaVu Sans', 'Bitstream Vera Sans', sans-serif; text-anchor: middle" x="369" y="45.84" transform="rotate(-0 369 45.84)">Incidents by Source</text>
   </g>
  </g>
 </g>
</svg>
