<?xml version="1.0" encoding="utf-8" standalone="no"?>
<!DOCTYPE svg PUBLIC "-//W3C//DTD SVG 1.1//EN"
  "http://www.w3.org/Graphics/SVG/1.1/DTD/svg11.dtd">
<svg xmlns:xlink="http://www.w3.org/1999/xlink" width="720pt" height="432pt" viewBox="0 0 720 432" xmlns="http://www.w3.org/2000/svg" version="1.1">
 <metadata>
  <rdf:RDF xmlns:dc="http://purl.org/dc/elements/1.1/" xmlns:cc="http://creativecommons.org/ns#" xmlns:rdf="http://www.w3.org/1999/02/22-rdf-syntax-ns#">
   <cc:Work>
    <dc:type rdf:resource="http://purl.org/dc/dcmitype/StillImage"/>
    <dc:date>2026-06-02T20:40:47.590901</dc:date>
    <dc:format>image/svg+xml</dc:format>
    <dc:creator>
     <cc:Agent>
      <dc:title>Matplotlib v3.7.5, https://matplotlib.org/</dc:title>
     </cc:Agent>
    </dc:creator>
   </cc:Work>
  </rdf:RDF>
 </metadata>
 <defs>
  <style type="text/css">*{stroke-linejoin: round; stroke-linecap: butt}</style>
 </defs>
 <g id="figure_1">
  <g id="patch_1">
   <path d="M 0 432 
L 720 432 
L 720 0 
L 0 0 
z
" style="fill: #ffffff"/>
  </g>
  <g id="axes_1">
   <g id="matplotlib.axis_1"/>
   <g id="matplotlib.axis_2"/>
   <g id="patch_2">
    <path d="M 502.056 218.16 
C 502.056 200.703598 498.620687 183.41662 491.946302 167.286569 
C 485.271916 151.156518 475.488014 136.496495 463.153493 124.143943 
C 450.818971 111.791391 436.173256 101.986084 420.052973 95.288143 
C 403.932689 88.590203 386.650747 85.129642 369.194363 85.104142 
C 351.73798 85.078642 334.446002 88.488699 318.306219 95.139515 
C 302.166435 101.790332 287.492136 111.552809 275.121579 123.869273 
C 262.751022 136.185736 252.924332 150.817113 246.202851 166.927595 
C 239.481369 183.038078 235.995567 200.314946 235.944568 217.771274 
C 235.893569 235.227601 239.278362 252.524542 245.905595 268.674023 
C 252.532828 284.823505 262.273859 299.512049 274.572239 311.900584 
C 286.870619 324.289119 301.487625 334.137172 317.588272 340.88218 
C 333.688919 347.627188 350.960677 351.138224 368.416911 351.214722 
C 385.873146 351.291221 403.175013 347.931698 419.334158 341.328063 
C 435.493303 334.724428 450.19606 325.004864 462.602547 312.724593 
C 475.009034 300.444323 484.878428 285.841718 491.646948 269.750941 
C 498.415468 253.660164 501.95173 236.393553 502.053729 218.93745 
L 369 218.16 
z
" style="fill: #f77189"/>
   </g>
   <g id="patch_3">
    <path d="M 502.053729 218.93745 
C 502.054478 218.809157 502.055042 218.680863 502.055421 218.552569 
C 502.055799 218.424275 502.055992 218.29598 502.056 218.167685 
L 369 218.16 
z
" style="fill: #bb9832"/>
   </g>
   <g id="patch_4">
    <path d="M 502.056 218.167685 
C 502.056 218.166402 502.056 218.165119 502.056 218.163836 
C 502.056 218.162553 502.056 218.16127 502.056 218.159987 
L 369 218.16 
z
" style="fill: #50b131"/>
   </g>
   <g id="text_1">
    <text style="fill: #262626; font: 10px 'Arial', 'Liberation Sans', 'DejaVu Sans', 'Bitstream Vera Sans', sans-serif; text-anchor: end" x="222.639025" y="220.318338" transform="rotate(-0 222.639025 220.318338)">newsapi</text>
   </g>
   <g id="text_2">
    <text style="fill: #262626; font: 10px 'Arial', 'Liberation Sans', 'DejaVu Sans', 'Bitstream Vera Sans', sans-serif; text-anchor: middle" x="289.166741" y="220.512702" transform="rotate(-0 289.166741 220.512702)">99.9%</text>
   </g>
   <g id="text_3">
    <text style="fill: #262626; font: 10px 'Arial', 'Liberation Sans', 'DejaVu Sans', 'Bitstream Vera Sans', sans-serif; text-anchor: start" x="515.360963" y="221.177763" transform="rotate(-0 515.360963 221.177763)">chicago_pd</text>
   </g>
   <g id="text_4">
    <text style="fill: #262626; font: 10px 'Arial', 'Liberation Sans', 'DejaVu Sans', 'Bitstream Vera Sans', sans-serif; text-anchor: middle" x="448.833253" y="220.981479" transform="rotate(-0 448.833253 220.981479)">0.1%</text>
   </g>
   <g id="text_5">
    <text style="fill: #262626; font: 10px 'Arial', 'Liberation Sans', 'DejaVu Sans', 'Bitstream Vera Sans', sans-serif; text-anchor: start" x="515.3616" y="220.750157" transform="rotate(-0 515.3616 220.750157)">chicago_police</text>
   </g>
   <g id="text_6">
    <text style="fill: #262626; font: 10px 'Arial', 'Liberation Sans', 'DejaVu Sans', 'Bitstream Vera Sans', sans-serif; text-anchor: middle" x="448.8336" y="220.748239" transform="rotate(-0 448.8336 220.748239)">0.0%</text>
   </g>
   <g id="text_7">
    <text style="fill: #262626; font: 12px 'Arial', 'Liberation Sans', 'DejaVu Sans', 'Bitstream Vera Sans', sans-serif; text-anchor: middle" x="369" y="45.84" transform="rotate(-0 369 45.84)">Incidents by Source</text>
   </g>
  </g>
 </g>
</svg>
