<?xml version="1.0" encoding="utf-8" standalone="no"?>
<!DOCTYPE svg PUBLIC "-//W3C//DTD SVG 1.1//EN"
  "http://www.w3.org/Graphics/SVG/1.1/DTD/svg11.dtd">
<svg xmlns:xlink="http://www.w3.org/1999/xlink" width="720pt" height="432pt" viewBox="0 0 720 432" xmlns="http://www.w3.org/2000/svg" version="1.1">
 <metadata>
  <rdf:RDF xmlns:dc="http://purl.org/dc/elements/1.1/" xmlns:cc="http://creativecommons.org/ns#" xmlns:rdf="http://www.w3.org/1999/02/22-rdf-syntax-ns#">
   <cc:Work>
    <dc:type rdf:resource="http://purl.org/dc/dcmitype/StillImage"/>
    <dc:date>2026-03-30T01:58:00.200348</dc:date>
    <dc:format>image/svg+xml</dc:format>
    <dc:creator>
     <cc:Agent>
      <dc:title>Matplotlib v3.7.5, https://matplotlib.org/</dc:title>
     </cc:Agent>
    </dc:creator>
   </cc:Work>
  </rdf:RDF>
 </metadata>
 <defs>
  <style type="text/css">*{stroke-linejoin: round; stroke-linecap: butt}</style>
 </defs>
 <g id="figure_1">
  <g id="patch_1">
   <path d="M 0 432 
L 720 432 
L 720 0 
L 0 0 
z
" style="fill: #ffffff"/>
  </g>
  <g id="axes_1">
   <g id="matplotlib.axis_1"/>
   <g id="matplotlib.axis_2"/>
   <g id="patch_2">
    <path d="M 502.056 218.16 
C 502.056 200.705662 498.6215 183.420687 491.948646 167.292235 
C 485.275793 151.163784 475.494083 136.504851 463.162158 124.152622 
C 450.830234 111.800393 436.187413 101.994581 420.069961 95.295203 
C 403.952509 88.595826 386.673207 85.132894 369.218892 85.10418 
C 351.764578 85.075466 334.473976 88.481526 318.334569 95.127837 
C 302.195161 101.774148 287.520156 111.531729 275.147657 123.843316 
C 262.775157 136.154903 252.945269 150.781573 246.219386 166.887982 
C 239.493502 182.994391 236.002149 200.267972 235.94472 217.722216 
C 235.887291 235.176459 239.264902 252.472641 245.884653 268.622961 
C 252.504404 284.77328 262.23783 299.464318 274.529046 311.857054 
C 286.820262 324.249791 301.43074 334.103729 317.526063 340.8561 
C 333.621385 347.608471 350.8892 351.128237 368.343325 351.21438 
C 385.797451 351.300522 403.099166 347.951371 419.260354 341.358198 
C 435.421541 334.765025 450.128571 325.055781 462.541512 312.784969 
C 474.954452 300.514156 484.832413 285.919909 491.611253 269.835717 
C 498.390094 253.751525 501.938262 236.489524 502.053119 219.035564 
L 369 218.16 
z
" style="fill: #f77189"/>
   </g>
   <g id="patch_3">
    <path d="M 502.053119 219.035564 
C 502.05407 218.891081 502.054785 218.746598 502.055265 218.602113 
C 502.055746 218.457629 502.05599 218.313143 502.056 218.168658 
L 369 218.16 
z
" style="fill: #bb9832"/>
   </g>
   <g id="patch_4">
    <path d="M 502.056 218.168658 
C 502.056 218.167213 502.056 218.165768 502.056 218.164323 
C 502.056 218.162878 502.056 218.161434 502.056 218.159989 
L 369 218.16 
z
" style="fill: #50b131"/>
   </g>
   <g id="text_1">
    <text style="fill: #262626; font: 10px 'Arial', 'Liberation Sans', 'DejaVu Sans', 'Bitstream Vera Sans', sans-serif; text-anchor: end" x="222.639192" y="220.264375" transform="rotate(-0 222.639192 220.264375)">newsapi</text>
   </g>
   <g id="text_2">
    <text style="fill: #262626; font: 10px 'Arial', 'Liberation Sans', 'DejaVu Sans', 'Bitstream Vera Sans', sans-serif; text-anchor: middle" x="289.166832" y="220.483267" transform="rotate(-0 289.166832 220.483267)">99.9%</text>
   </g>
   <g id="text_3">
    <text style="fill: #262626; font: 10px 'Arial', 'Liberation Sans', 'DejaVu Sans', 'Bitstream Vera Sans', sans-serif; text-anchor: start" x="515.360792" y="221.232262" transform="rotate(-0 515.360792 221.232262)">chicago_pd</text>
   </g>
   <g id="text_4">
    <text style="fill: #262626; font: 10px 'Arial', 'Liberation Sans', 'DejaVu Sans', 'Bitstream Vera Sans', sans-serif; text-anchor: middle" x="448.833159" y="221.011205" transform="rotate(-0 448.833159 221.011205)">0.1%</text>
   </g>
   <g id="text_5">
    <text style="fill: #262626; font: 10px 'Arial', 'Liberation Sans', 'DejaVu Sans', 'Bitstream Vera Sans', sans-serif; text-anchor: start" x="515.3616" y="220.750693" transform="rotate(-0 515.3616 220.750693)">chicago_police</text>
   </g>
   <g id="text_6">
    <text style="fill: #262626; font: 10px 'Arial', 'Liberation Sans', 'DejaVu Sans', 'Bitstream Vera Sans', sans-serif; text-anchor: middle" x="448.8336" y="220.748531" transform="rotate(-0 448.8336 220.748531)">0.0%</text>
   </g>
   <g id="text_7">
    <text style="fill: #262626; font: 12px 'Arial', 'Liberation Sans', 'DejaVu Sans', 'Bitstream Vera Sans', sans-serif; text-anchor: middle" x="369" y="45.84" transform="rotate(-0 369 45.84)">Incidents by Source</text>
   </g>
  </g>
 </g>
</svg>
