<?xml version="1.0" encoding="utf-8" standalone="no"?>
<!DOCTYPE svg PUBLIC "-//W3C//DTD SVG 1.1//EN"
  "http://www.w3.org/Graphics/SVG/1.1/DTD/svg11.dtd">
<svg xmlns:xlink="http://www.w3.org/1999/xlink" width="720pt" height="432pt" viewBox="0 0 720 432" xmlns="http://www.w3.org/2000/svg" version="1.1">
 <metadata>
  <rdf:RDF xmlns:dc="http://purl.org/dc/elements/1.1/" xmlns:cc="http://creativecommons.org/ns#" xmlns:rdf="http://www.w3.org/1999/02/22-rdf-syntax-ns#">
   <cc:Work>
    <dc:type rdf:resource="http://purl.org/dc/dcmitype/StillImage"/>
    <dc:date>2026-03-01T02:46:22.512333</dc:date>
    <dc:format>image/svg+xml</dc:format>
    <dc:creator>
     <cc:Agent>
      <dc:title>Matplotlib v3.7.5, https://matplotlib.org/</dc:title>
     </cc:Agent>
    </dc:creator>
   </cc:Work>
  </rdf:RDF>
 </metadata>
 <defs>
  <style type="text/css">*{stroke-linejoin: round; stroke-linecap: butt}</style>
 </defs>
 <g id="figure_1">
  <g id="patch_1">
   <path d="M 0 432 
L 720 432 
L 720 0 
L 0 0 
z
" style="fill: #ffffff"/>
  </g>
  <g id="axes_1">
   <g id="matplotlib.axis_1"/>
   <g id="matplotlib.axis_2"/>
   <g id="patch_2">
    <path d="M 502.056 218.16 
C 502.056 200.706566 498.621856 183.422469 491.949674 167.294719 
C 485.277492 151.166968 475.496743 136.508513 463.165956 124.156426 
C 450.835169 111.804339 436.193617 101.998305 420.077406 95.298298 
C 403.961195 88.598292 386.683051 85.134321 369.229643 85.104198 
C 351.776236 85.074075 334.486237 88.478383 318.346995 95.12272 
C 302.207753 101.767057 287.532439 111.522492 275.159089 123.831942 
C 262.785738 136.141392 252.954449 150.765998 246.226637 166.870621 
C 239.498825 182.975244 236.005039 200.247384 235.944793 217.700714 
C 235.884547 235.154044 239.259009 252.449892 245.875481 268.600578 
C 252.491952 284.751263 262.222045 299.443392 274.510121 311.837969 
C 286.798197 324.232546 301.405813 334.089062 317.498801 340.844659 
C 333.591789 347.600257 350.857873 351.123847 368.311073 351.214216 
C 385.764273 351.304586 403.065919 347.959979 419.228 341.371392 
C 435.390081 334.782805 450.098982 325.078084 462.514748 312.811418 
C 474.930515 300.544753 484.812228 285.95417 491.59559 269.872866 
C 498.378952 253.791561 501.932338 236.531584 502.052829 219.078566 
L 369 218.16 
z
" style="fill: #f77189"/>
   </g>
   <g id="patch_3">
    <path d="M 502.052829 219.078566 
C 502.053876 218.926989 502.054663 218.775411 502.055192 218.623831 
C 502.05572 218.472251 502.055989 218.320671 502.056 218.16909 
L 369 218.16 
z
" style="fill: #bb9832"/>
   </g>
   <g id="patch_4">
    <path d="M 502.056 218.16909 
C 502.056 218.167574 502.056 218.166059 502.056 218.164543 
C 502.056 218.163027 502.056 218.161511 502.056 218.159995 
L 369 218.16 
z
" style="fill: #50b131"/>
   </g>
   <g id="text_1">
    <text style="fill: #262626; font: 10px 'Arial', 'Liberation Sans', 'DejaVu Sans', 'Bitstream Vera Sans', sans-serif; text-anchor: end" x="222.639272" y="220.240723" transform="rotate(-0 222.639272 220.240723)">newsapi</text>
   </g>
   <g id="text_2">
    <text style="fill: #262626; font: 10px 'Arial', 'Liberation Sans', 'DejaVu Sans', 'Bitstream Vera Sans', sans-serif; text-anchor: middle" x="289.166876" y="220.470366" transform="rotate(-0 289.166876 220.470366)">99.9%</text>
   </g>
   <g id="text_3">
    <text style="fill: #262626; font: 10px 'Arial', 'Liberation Sans', 'DejaVu Sans', 'Bitstream Vera Sans', sans-serif; text-anchor: start" x="515.360711" y="221.256152" transform="rotate(-0 515.360711 221.256152)">chicago_pd</text>
   </g>
   <g id="text_4">
    <text style="fill: #262626; font: 10px 'Arial', 'Liberation Sans', 'DejaVu Sans', 'Bitstream Vera Sans', sans-serif; text-anchor: middle" x="448.833115" y="221.024236" transform="rotate(-0 448.833115 221.024236)">0.1%</text>
   </g>
   <g id="text_5">
    <text style="fill: #262626; font: 10px 'Arial', 'Liberation Sans', 'DejaVu Sans', 'Bitstream Vera Sans', sans-serif; text-anchor: start" x="515.3616" y="220.750935" transform="rotate(-0 515.3616 220.750935)">chicago_police</text>
   </g>
   <g id="text_6">
    <text style="fill: #262626; font: 10px 'Arial', 'Liberation Sans', 'DejaVu Sans', 'Bitstream Vera Sans', sans-serif; text-anchor: middle" x="448.8336" y="220.748663" transform="rotate(-0 448.8336 220.748663)">0.0%</text>
   </g>
   <g id="text_7">
    <text style="fill: #262626; font: 12px 'Arial', 'Liberation Sans', 'DejaVu Sans', 'Bitstream Vera Sans', sans-serif; text-anchor: middle" x="369" y="45.84" transform="rotate(-0 369 45.84)">Incidents by Source</text>
   </g>
  </g>
 </g>
</svg>
