<?xml version="1.0" encoding="utf-8" standalone="no"?>
<!DOCTYPE svg PUBLIC "-//W3C//DTD SVG 1.1//EN"
  "http://www.w3.org/Graphics/SVG/1.1/DTD/svg11.dtd">
<svg xmlns:xlink="http://www.w3.org/1999/xlink" width="720pt" height="432pt" viewBox="0 0 720 432" xmlns="http://www.w3.org/2000/svg" version="1.1">
 <metadata>
  <rdf:RDF xmlns:dc="http://purl.org/dc/elements/1.1/" xmlns:cc="http://creativecommons.org/ns#" xmlns:rdf="http://www.w3.org/1999/02/22-rdf-syntax-ns#">
   <cc:Work>
    <dc:type rdf:resource="http://purl.org/dc/dcmitype/StillImage"/>
    <dc:date>2025-01-23T06:17:21.844514</dc:date>
    <dc:format>image/svg+xml</dc:format>
    <dc:creator>
     <cc:Agent>
      <dc:title>Matplotlib v3.7.5, https://matplotlib.org/</dc:title>
     </cc:Agent>
    </dc:creator>
   </cc:Work>
  </rdf:RDF>
 </metadata>
 <defs>
  <style type="text/css">*{stroke-linejoin: round; stroke-linecap: butt}</style>
 </defs>
 <g id="figure_1">
  <g id="patch_1">
   <path d="M 0 432 
L 720 432 
L 720 0 
L 0 0 
z
" style="fill: #ffffff"/>
  </g>
  <g id="axes_1">
   <g id="matplotlib.axis_1"/>
   <g id="matplotlib.axis_2"/>
   <g id="patch_2">
    <path d="M 502.056 218.16 
C 502.056 200.856937 498.680775 183.718865 492.119814 167.707938 
C 485.558853 151.697011 475.937279 137.118569 463.795259 124.791065 
C 451.65324 112.463562 437.222332 102.62209 421.312706 95.819165 
C 405.403081 89.01624 388.318145 85.381597 371.01707 85.11929 
C 353.715996 84.856983 336.528726 87.972015 320.420178 94.289503 
C 304.311629 100.606991 289.589004 110.006457 277.078849 121.960202 
C 264.568694 133.913947 254.509588 148.194004 247.466261 163.998672 
C 240.422934 179.80334 236.529709 196.831214 236.005156 214.126323 
C 235.480603 231.421433 238.334725 248.653951 244.407289 264.856418 
C 250.479853 281.058886 259.65505 295.922311 271.417773 308.612242 
C 283.180495 321.302172 297.30642 331.576603 313.002498 338.858711 
C 328.698577 346.14082 345.665473 350.291733 362.950644 351.078413 
C 380.235814 351.865092 397.509619 349.272535 413.802282 343.446291 
C 430.094945 337.620047 445.095754 328.671227 457.962544 317.10223 
C 470.829334 305.533233 481.316727 291.564687 488.835944 275.980806 
C 496.355162 260.396925 500.762809 243.494904 501.811433 226.223645 
L 369 218.16 
z
" style="fill: #f77189"/>
   </g>
   <g id="patch_3">
    <path d="M 501.811433 226.223645 
C 501.892125 224.894621 501.952863 223.56446 501.993627 222.233612 
C 502.034391 220.902764 502.055176 219.571379 502.055976 218.239908 
L 369 218.16 
z
" style="fill: #bb9832"/>
   </g>
   <g id="patch_4">
    <path d="M 502.055976 218.239908 
C 502.055984 218.226593 502.05599 218.213279 502.055994 218.199964 
C 502.055998 218.18665 502.056 218.173335 502.056 218.160021 
L 369 218.16 
z
" style="fill: #50b131"/>
   </g>
   <g id="text_1">
    <text style="fill: #262626; font: 10px 'Arial', 'Liberation Sans', 'DejaVu Sans', 'Bitstream Vera Sans', sans-serif; text-anchor: end" x="222.705671" y="216.308893" transform="rotate(-0 222.705671 216.308893)">newsapi</text>
   </g>
   <g id="text_2">
    <text style="fill: #262626; font: 10px 'Arial', 'Liberation Sans', 'DejaVu Sans', 'Bitstream Vera Sans', sans-serif; text-anchor: middle" x="289.203093" y="218.325732" transform="rotate(-0 289.203093 218.325732)">99.0%</text>
   </g>
   <g id="text_3">
    <text style="fill: #262626; font: 10px 'Arial', 'Liberation Sans', 'DejaVu Sans', 'Bitstream Vera Sans', sans-serif; text-anchor: start" x="515.29299" y="225.226911" transform="rotate(-0 515.29299 225.226911)">chicago_pd</text>
   </g>
   <g id="text_4">
    <text style="fill: #262626; font: 10px 'Arial', 'Liberation Sans', 'DejaVu Sans', 'Bitstream Vera Sans', sans-serif; text-anchor: middle" x="448.796176" y="223.190105" transform="rotate(-0 448.796176 223.190105)">1.0%</text>
   </g>
   <g id="text_5">
    <text style="fill: #262626; font: 10px 'Arial', 'Liberation Sans', 'DejaVu Sans', 'Bitstream Vera Sans', sans-serif; text-anchor: start" x="515.361593" y="220.789898" transform="rotate(-0 515.361593 220.789898)">chicago_police</text>
   </g>
   <g id="text_6">
    <text style="fill: #262626; font: 10px 'Arial', 'Liberation Sans', 'DejaVu Sans', 'Bitstream Vera Sans', sans-serif; text-anchor: middle" x="448.833596" y="220.769916" transform="rotate(-0 448.833596 220.769916)">0.0%</text>
   </g>
   <g id="text_7">
    <text style="fill: #262626; font: 12px 'Arial', 'Liberation Sans', 'DejaVu Sans', 'Bitstream Vera Sans', sans-serif; text-anchor: middle" x="369" y="45.84" transform="rotate(-0 369 45.84)">Incidents by Source</text>
   </g>
  </g>
 </g>
</svg>
