<?xml version="1.0" encoding="utf-8" standalone="no"?>
<!DOCTYPE svg PUBLIC "-//W3C//DTD SVG 1.1//EN"
  "http://www.w3.org/Graphics/SVG/1.1/DTD/svg11.dtd">
<svg xmlns:xlink="http://www.w3.org/1999/xlink" width="720pt" height="432pt" viewBox="0 0 720 432" xmlns="http://www.w3.org/2000/svg" version="1.1">
 <metadata>
  <rdf:RDF xmlns:dc="http://purl.org/dc/elements/1.1/" xmlns:cc="http://creativecommons.org/ns#" xmlns:rdf="http://www.w3.org/1999/02/22-rdf-syntax-ns#">
   <cc:Work>
    <dc:type rdf:resource="http://purl.org/dc/dcmitype/StillImage"/>
    <dc:date>2024-12-13T18:18:13.011216</dc:date>
    <dc:format>image/svg+xml</dc:format>
    <dc:creator>
     <cc:Agent>
      <dc:title>Matplotlib v3.7.5, https://matplotlib.org/</dc:title>
     </cc:Agent>
    </dc:creator>
   </cc:Work>
  </rdf:RDF>
 </metadata>
 <defs>
  <style type="text/css">*{stroke-linejoin: round; stroke-linecap: butt}</style>
 </defs>
 <g id="figure_1">
  <g id="patch_1">
   <path d="M 0 432 
L 720 432 
L 720 0 
L 0 0 
z
" style="fill: #ffffff"/>
  </g>
  <g id="axes_1">
   <g id="matplotlib.axis_1"/>
   <g id="matplotlib.axis_2"/>
   <g id="patch_2">
    <path d="M 502.056 218.16 
C 502.056 201.713788 499.006781 185.409216 493.063241 170.074542 
C 487.119701 154.739868 478.384216 140.639226 467.300539 128.488917 
C 456.216863 116.338608 442.975908 106.347916 428.250304 99.02436 
C 413.524699 91.700804 397.568089 87.17053 381.191054 85.66367 
C 364.814019 84.156811 348.298649 85.699322 332.483909 90.212846 
C 316.669168 94.72637 301.827463 102.133161 288.712736 112.056963 
C 275.598009 121.980765 264.436159 134.250643 255.794197 148.243298 
C 247.152235 162.235952 241.179015 177.710365 238.177974 193.88045 
C 235.176932 210.050535 235.199759 226.637767 238.245296 242.799531 
C 241.290833 258.961295 247.306621 274.419208 255.987064 288.388024 
C 264.667506 302.35684 275.863086 314.595949 289.005077 324.483616 
C 302.147068 334.371284 317.009104 341.737198 332.836207 346.207176 
C 348.66331 350.677154 365.182864 352.174203 381.555689 350.622273 
C 397.928515 349.070344 413.872595 344.496168 428.577987 337.132109 
C 443.283378 329.76805 456.496784 319.740952 467.546977 307.560182 
C 478.597169 295.379412 487.293811 281.254781 493.195121 265.903806 
L 369 218.16 
z
" style="fill: #f77189"/>
   </g>
   <g id="patch_3">
    <path d="M 493.195121 265.903806 
C 496.117565 258.301703 498.335849 250.447302 499.822024 242.439561 
C 501.3082 234.431819 502.055999 226.304507 502.056 218.160022 
L 369 218.16 
z
" style="fill: #bb9832"/>
   </g>
   <g id="text_1">
    <text style="fill: #262626; font: 10px 'Arial', 'Liberation Sans', 'DejaVu Sans', 'Bitstream Vera Sans', sans-serif; text-anchor: end" x="225.095771" y="194.038433" transform="rotate(-0 225.095771 194.038433)">newsapi</text>
   </g>
   <g id="text_2">
    <text style="fill: #262626; font: 10px 'Arial', 'Liberation Sans', 'DejaVu Sans', 'Bitstream Vera Sans', sans-serif; text-anchor: middle" x="290.506784" y="206.178208" transform="rotate(-0 290.506784 206.178208)">94.2%</text>
   </g>
   <g id="text_3">
    <text style="fill: #262626; font: 10px 'Arial', 'Liberation Sans', 'DejaVu Sans', 'Bitstream Vera Sans', sans-serif; text-anchor: start" x="512.904227" y="247.453454" transform="rotate(-0 512.904227 247.453454)">chicago_pd</text>
   </g>
   <g id="text_4">
    <text style="fill: #262626; font: 10px 'Arial', 'Liberation Sans', 'DejaVu Sans', 'Bitstream Vera Sans', sans-serif; text-anchor: middle" x="447.493215" y="235.313674" transform="rotate(-0 447.493215 235.313674)">5.8%</text>
   </g>
   <g id="text_5">
    <text style="fill: #262626; font: 12px 'Arial', 'Liberation Sans', 'DejaVu Sans', 'Bitstream Vera Sans', sans-serif; text-anchor: middle" x="369" y="45.84" transform="rotate(-0 369 45.84)">Incidents by Source</text>
   </g>
  </g>
 </g>
</svg>
