<?xml version="1.0" encoding="utf-8" standalone="no"?>
<!DOCTYPE svg PUBLIC "-//W3C//DTD SVG 1.1//EN"
  "http://www.w3.org/Graphics/SVG/1.1/DTD/svg11.dtd">
<svg xmlns:xlink="http://www.w3.org/1999/xlink" width="720pt" height="432pt" viewBox="0 0 720 432" xmlns="http://www.w3.org/2000/svg" version="1.1">
 <metadata>
  <rdf:RDF xmlns:dc="http://purl.org/dc/elements/1.1/" xmlns:cc="http://creativecommons.org/ns#" xmlns:rdf="http://www.w3.org/1999/02/22-rdf-syntax-ns#">
   <cc:Work>
    <dc:type rdf:resource="http://purl.org/dc/dcmitype/StillImage"/>
    <dc:date>2026-01-22T13:01:27.613451</dc:date>
    <dc:format>image/svg+xml</dc:format>
    <dc:creator>
     <cc:Agent>
      <dc:title>Matplotlib v3.7.5, https://matplotlib.org/</dc:title>
     </cc:Agent>
    </dc:creator>
   </cc:Work>
  </rdf:RDF>
 </metadata>
 <defs>
  <style type="text/css">*{stroke-linejoin: round; stroke-linecap: butt}</style>
 </defs>
 <g id="figure_1">
  <g id="patch_1">
   <path d="M 0 432 
L 720 432 
L 720 0 
L 0 0 
z
" style="fill: #ffffff"/>
  </g>
  <g id="axes_1">
   <g id="matplotlib.axis_1"/>
   <g id="matplotlib.axis_2"/>
   <g id="patch_2">
    <path d="M 502.056 218.16 
C 502.056 200.708372 498.622566 183.426028 491.951725 167.299677 
C 485.280884 151.173326 475.502053 136.515825 463.173538 124.164022 
C 450.845023 111.812219 436.206004 102.005743 420.092271 95.304479 
C 403.978538 88.603216 386.702705 85.137172 369.251108 85.104237 
C 351.799511 85.071302 334.510718 88.472114 318.371806 95.112509 
C 302.232895 101.752904 287.556965 111.504055 275.181917 123.809237 
C 262.806869 136.114419 252.972783 150.734906 246.241121 166.835963 
C 239.509459 182.93702 236.010818 200.206282 235.944948 217.657785 
C 235.879077 235.109289 239.247255 252.404469 245.85718 268.555884 
C 252.467106 284.707299 262.190543 299.401605 274.472349 311.799854 
C 286.754154 324.198103 301.356056 334.059764 317.44438 340.8218 
C 333.532704 347.583836 350.795332 351.115062 368.24668 351.213867 
C 385.698029 351.312673 402.999534 347.977141 419.163395 341.397709 
C 435.327256 334.818277 450.039886 325.122588 462.461292 312.864203 
C 474.882697 300.605818 484.771897 286.022554 491.564284 269.94702 
C 498.356671 253.871486 501.920469 236.615553 502.052209 219.164422 
L 369 218.16 
z
" style="fill: #f77189"/>
   </g>
   <g id="patch_3">
    <path d="M 502.052209 219.164422 
C 502.05346 218.998677 502.054402 218.83293 502.055033 218.667181 
C 502.055665 218.501432 502.055987 218.335683 502.056 218.169933 
L 369 218.16 
z
" style="fill: #bb9832"/>
   </g>
   <g id="patch_4">
    <path d="M 502.056 218.169933 
C 502.056 218.168275 502.056 218.166618 502.056 218.16496 
C 502.056 218.163303 502.056 218.161645 502.056 218.159988 
L 369 218.16 
z
" style="fill: #50b131"/>
   </g>
   <g id="text_1">
    <text style="fill: #262626; font: 10px 'Arial', 'Liberation Sans', 'DejaVu Sans', 'Bitstream Vera Sans', sans-serif; text-anchor: end" x="222.639443" y="220.193501" transform="rotate(-0 222.639443 220.193501)">newsapi</text>
   </g>
   <g id="text_2">
    <text style="fill: #262626; font: 10px 'Arial', 'Liberation Sans', 'DejaVu Sans', 'Bitstream Vera Sans', sans-serif; text-anchor: middle" x="289.166969" y="220.444609" transform="rotate(-0 289.166969 220.444609)">99.9%</text>
   </g>
   <g id="text_3">
    <text style="fill: #262626; font: 10px 'Arial', 'Liberation Sans', 'DejaVu Sans', 'Bitstream Vera Sans', sans-serif; text-anchor: start" x="515.360537" y="221.303836" transform="rotate(-0 515.360537 221.303836)">chicago_pd</text>
   </g>
   <g id="text_4">
    <text style="fill: #262626; font: 10px 'Arial', 'Liberation Sans', 'DejaVu Sans', 'Bitstream Vera Sans', sans-serif; text-anchor: middle" x="448.83302" y="221.050246" transform="rotate(-0 448.83302 221.050246)">0.1%</text>
   </g>
   <g id="text_5">
    <text style="fill: #262626; font: 10px 'Arial', 'Liberation Sans', 'DejaVu Sans', 'Bitstream Vera Sans', sans-serif; text-anchor: start" x="515.3616" y="220.751394" transform="rotate(-0 515.3616 220.751394)">chicago_police</text>
   </g>
   <g id="text_6">
    <text style="fill: #262626; font: 10px 'Arial', 'Liberation Sans', 'DejaVu Sans', 'Bitstream Vera Sans', sans-serif; text-anchor: middle" x="448.8336" y="220.748914" transform="rotate(-0 448.8336 220.748914)">0.0%</text>
   </g>
   <g id="text_7">
    <text style="fill: #262626; font: 12px 'Arial', 'Liberation Sans', 'DejaVu Sans', 'Bitstream Vera Sans', sans-serif; text-anchor: middle" x="369" y="45.84" transform="rotate(-0 369 45.84)">Incidents by Source</text>
   </g>
  </g>
 </g>
</svg>
