<?xml version="1.0" encoding="utf-8" standalone="no"?>
<!DOCTYPE svg PUBLIC "-//W3C//DTD SVG 1.1//EN"
  "http://www.w3.org/Graphics/SVG/1.1/DTD/svg11.dtd">
<svg xmlns:xlink="http://www.w3.org/1999/xlink" width="720pt" height="432pt" viewBox="0 0 720 432" xmlns="http://www.w3.org/2000/svg" version="1.1">
 <metadata>
  <rdf:RDF xmlns:dc="http://purl.org/dc/elements/1.1/" xmlns:cc="http://creativecommons.org/ns#" xmlns:rdf="http://www.w3.org/1999/02/22-rdf-syntax-ns#">
   <cc:Work>
    <dc:type rdf:resource="http://purl.org/dc/dcmitype/StillImage"/>
    <dc:date>2026-06-06T02:36:32.487534</dc:date>
    <dc:format>image/svg+xml</dc:format>
    <dc:creator>
     <cc:Agent>
      <dc:title>Matplotlib v3.7.5, https://matplotlib.org/</dc:title>
     </cc:Agent>
    </dc:creator>
   </cc:Work>
  </rdf:RDF>
 </metadata>
 <defs>
  <style type="text/css">*{stroke-linejoin: round; stroke-linecap: butt}</style>
 </defs>
 <g id="figure_1">
  <g id="patch_1">
   <path d="M 0 432 
L 720 432 
L 720 0 
L 0 0 
z
" style="fill: #ffffff"/>
  </g>
  <g id="axes_1">
   <g id="matplotlib.axis_1"/>
   <g id="matplotlib.axis_2"/>
   <g id="patch_2">
    <path d="M 502.056 218.16 
C 502.056 200.703472 498.620638 183.416372 491.946159 167.286223 
C 485.27168 151.156075 475.487644 136.495986 463.152965 124.143414 
C 450.818285 111.790842 436.172394 101.985566 420.051937 95.287713 
C 403.931481 88.58986 386.649378 85.129444 369.192869 85.10414 
C 351.736359 85.078836 334.444297 88.489136 318.304491 95.140227 
C 302.164685 101.791318 287.490429 111.554093 275.11999 123.870855 
C 262.749552 136.187616 252.923057 150.819279 246.201844 166.93001 
C 239.48063 183.04074 235.995167 200.317809 235.944559 217.774263 
C 235.893952 235.230718 239.279183 252.527705 245.906872 268.677135 
C 252.534561 284.826565 262.276055 299.514957 274.574872 311.903236 
C 286.873689 324.291515 301.491093 334.139209 317.592064 340.883768 
C 333.693035 347.628327 350.965034 351.138831 368.421396 351.214742 
C 385.877759 351.290653 403.179635 347.930498 419.338655 341.326225 
C 435.497675 334.721952 450.200172 325.001759 462.606266 312.720912 
C 475.012359 300.440066 484.881231 285.836952 491.649122 269.745774 
C 498.417013 253.654596 501.952549 236.387704 502.053763 218.93147 
L 369 218.16 
z
" style="fill: #f77189"/>
   </g>
   <g id="patch_3">
    <path d="M 502.053763 218.93147 
C 502.054502 218.804168 502.055057 218.676865 502.05543 218.549561 
C 502.055802 218.422257 502.055992 218.294952 502.056 218.167648 
L 369 218.16 
z
" style="fill: #bb9832"/>
   </g>
   <g id="patch_4">
    <path d="M 502.056 218.167648 
C 502.056 218.166375 502.056 218.165102 502.056 218.163829 
C 502.056 218.162556 502.056 218.161283 502.056 218.16001 
L 369 218.16 
z
" style="fill: #50b131"/>
   </g>
   <g id="text_1">
    <text style="fill: #262626; font: 10px 'Arial', 'Liberation Sans', 'DejaVu Sans', 'Bitstream Vera Sans', sans-serif; text-anchor: end" x="222.639015" y="220.321627" transform="rotate(-0 222.639015 220.321627)">newsapi</text>
   </g>
   <g id="text_2">
    <text style="fill: #262626; font: 10px 'Arial', 'Liberation Sans', 'DejaVu Sans', 'Bitstream Vera Sans', sans-serif; text-anchor: middle" x="289.166735" y="220.514496" transform="rotate(-0 289.166735 220.514496)">99.9%</text>
   </g>
   <g id="text_3">
    <text style="fill: #262626; font: 10px 'Arial', 'Liberation Sans', 'DejaVu Sans', 'Bitstream Vera Sans', sans-serif; text-anchor: start" x="515.360973" y="221.174454" transform="rotate(-0 515.360973 221.174454)">chicago_pd</text>
   </g>
   <g id="text_4">
    <text style="fill: #262626; font: 10px 'Arial', 'Liberation Sans', 'DejaVu Sans', 'Bitstream Vera Sans', sans-serif; text-anchor: middle" x="448.833258" y="220.979674" transform="rotate(-0 448.833258 220.979674)">0.1%</text>
   </g>
   <g id="text_5">
    <text style="fill: #262626; font: 10px 'Arial', 'Liberation Sans', 'DejaVu Sans', 'Bitstream Vera Sans', sans-serif; text-anchor: start" x="515.3616" y="220.750149" transform="rotate(-0 515.3616 220.750149)">chicago_police</text>
   </g>
   <g id="text_6">
    <text style="fill: #262626; font: 10px 'Arial', 'Liberation Sans', 'DejaVu Sans', 'Bitstream Vera Sans', sans-serif; text-anchor: middle" x="448.8336" y="220.748235" transform="rotate(-0 448.8336 220.748235)">0.0%</text>
   </g>
   <g id="text_7">
    <text style="fill: #262626; font: 12px 'Arial', 'Liberation Sans', 'DejaVu Sans', 'Bitstream Vera Sans', sans-serif; text-anchor: middle" x="369" y="45.84" transform="rotate(-0 369 45.84)">Incidents by Source</text>
   </g>
  </g>
 </g>
</svg>
