<?xml version="1.0" encoding="utf-8" standalone="no"?>
<!DOCTYPE svg PUBLIC "-//W3C//DTD SVG 1.1//EN"
  "http://www.w3.org/Graphics/SVG/1.1/DTD/svg11.dtd">
<svg xmlns:xlink="http://www.w3.org/1999/xlink" width="720pt" height="432pt" viewBox="0 0 720 432" xmlns="http://www.w3.org/2000/svg" version="1.1">
 <metadata>
  <rdf:RDF xmlns:dc="http://purl.org/dc/elements/1.1/" xmlns:cc="http://creativecommons.org/ns#" xmlns:rdf="http://www.w3.org/1999/02/22-rdf-syntax-ns#">
   <cc:Work>
    <dc:type rdf:resource="http://purl.org/dc/dcmitype/StillImage"/>
    <dc:date>2026-06-30T14:29:56.617428</dc:date>
    <dc:format>image/svg+xml</dc:format>
    <dc:creator>
     <cc:Agent>
      <dc:title>Matplotlib v3.7.5, https://matplotlib.org/</dc:title>
     </cc:Agent>
    </dc:creator>
   </cc:Work>
  </rdf:RDF>
 </metadata>
 <defs>
  <style type="text/css">*{stroke-linejoin: round; stroke-linecap: butt}</style>
 </defs>
 <g id="figure_1">
  <g id="patch_1">
   <path d="M 0 432 
L 720 432 
L 720 0 
L 0 0 
z
" style="fill: #ffffff"/>
  </g>
  <g id="axes_1">
   <g id="matplotlib.axis_1"/>
   <g id="matplotlib.axis_2"/>
   <g id="patch_2">
    <path d="M 502.056 218.16 
C 502.056 200.702712 498.620338 183.414872 491.945294 167.284134 
C 485.27025 151.153396 475.485406 136.492905 463.149769 124.140214 
C 450.814132 111.787523 436.167174 101.982434 420.045673 95.285111 
C 403.924172 88.587788 386.641096 85.128245 369.183824 85.104127 
C 351.726553 85.080009 334.433983 88.491783 318.294039 95.144535 
C 302.154094 101.797287 287.480099 111.561868 275.110377 123.880427 
C 262.740655 136.198986 252.91534 150.832385 246.195751 166.944617 
C 239.476161 183.05685 235.992744 200.33513 235.944508 217.792352 
C 235.896272 235.249574 239.284152 252.54684 245.914599 268.69596 
C 252.545047 284.845081 262.289345 299.532552 274.590803 311.919281 
C 286.892261 324.306009 301.512071 334.151532 317.615005 340.893375 
C 333.717939 347.635218 350.99139 351.142503 368.448528 351.214857 
C 385.905667 351.287212 403.207598 347.923232 419.365863 341.315101 
C 435.524128 334.706971 450.225048 324.982974 462.62876 312.69864 
C 475.032472 300.414307 484.898183 285.808113 491.662267 269.714509 
C 498.426351 253.620905 501.957496 236.352316 502.053968 218.895294 
L 369 218.16 
z
" style="fill: #f77189"/>
   </g>
   <g id="patch_3">
    <path d="M 502.053968 218.895294 
C 502.054639 218.77396 502.055143 218.652625 502.055482 218.53129 
C 502.055821 218.409954 502.055993 218.288619 502.056 218.167283 
L 369 218.16 
z
" style="fill: #bb9832"/>
   </g>
   <g id="patch_4">
    <path d="M 502.056 218.167283 
C 502.056 218.16607 502.056 218.164856 502.056 218.163643 
C 502.056 218.162429 502.056 218.161216 502.056 218.160003 
L 369 218.16 
z
" style="fill: #50b131"/>
   </g>
   <g id="text_1">
    <text style="fill: #262626; font: 10px 'Arial', 'Liberation Sans', 'DejaVu Sans', 'Bitstream Vera Sans', sans-serif; text-anchor: end" x="222.638959" y="220.341524" transform="rotate(-0 222.638959 220.341524)">newsapi</text>
   </g>
   <g id="text_2">
    <text style="fill: #262626; font: 10px 'Arial', 'Liberation Sans', 'DejaVu Sans', 'Bitstream Vera Sans', sans-serif; text-anchor: middle" x="289.166705" y="220.525349" transform="rotate(-0 289.166705 220.525349)">99.9%</text>
   </g>
   <g id="text_3">
    <text style="fill: #262626; font: 10px 'Arial', 'Liberation Sans', 'DejaVu Sans', 'Bitstream Vera Sans', sans-serif; text-anchor: start" x="515.36103" y="221.154356" transform="rotate(-0 515.36103 221.154356)">chicago_pd</text>
   </g>
   <g id="text_4">
    <text style="fill: #262626; font: 10px 'Arial', 'Liberation Sans', 'DejaVu Sans', 'Bitstream Vera Sans', sans-serif; text-anchor: middle" x="448.833289" y="220.968711" transform="rotate(-0 448.833289 220.968711)">0.1%</text>
   </g>
   <g id="text_5">
    <text style="fill: #262626; font: 10px 'Arial', 'Liberation Sans', 'DejaVu Sans', 'Bitstream Vera Sans', sans-serif; text-anchor: start" x="515.3616" y="220.749945" transform="rotate(-0 515.3616 220.749945)">chicago_police</text>
   </g>
   <g id="text_6">
    <text style="fill: #262626; font: 10px 'Arial', 'Liberation Sans', 'DejaVu Sans', 'Bitstream Vera Sans', sans-serif; text-anchor: middle" x="448.8336" y="220.748123" transform="rotate(-0 448.8336 220.748123)">0.0%</text>
   </g>
   <g id="text_7">
    <text style="fill: #262626; font: 12px 'Arial', 'Liberation Sans', 'DejaVu Sans', 'Bitstream Vera Sans', sans-serif; text-anchor: middle" x="369" y="45.84" transform="rotate(-0 369 45.84)">Incidents by Source</text>
   </g>
  </g>
 </g>
</svg>
