<?xml version="1.0" encoding="utf-8" standalone="no"?>
<!DOCTYPE svg PUBLIC "-//W3C//DTD SVG 1.1//EN"
  "http://www.w3.org/Graphics/SVG/1.1/DTD/svg11.dtd">
<svg xmlns:xlink="http://www.w3.org/1999/xlink" width="720pt" height="432pt" viewBox="0 0 720 432" xmlns="http://www.w3.org/2000/svg" version="1.1">
 <metadata>
  <rdf:RDF xmlns:dc="http://purl.org/dc/elements/1.1/" xmlns:cc="http://creativecommons.org/ns#" xmlns:rdf="http://www.w3.org/1999/02/22-rdf-syntax-ns#">
   <cc:Work>
    <dc:type rdf:resource="http://purl.org/dc/dcmitype/StillImage"/>
    <dc:date>2026-07-07T03:51:58.876624</dc:date>
    <dc:format>image/svg+xml</dc:format>
    <dc:creator>
     <cc:Agent>
      <dc:title>Matplotlib v3.7.5, https://matplotlib.org/</dc:title>
     </cc:Agent>
    </dc:creator>
   </cc:Work>
  </rdf:RDF>
 </metadata>
 <defs>
  <style type="text/css">*{stroke-linejoin: round; stroke-linecap: butt}</style>
 </defs>
 <g id="figure_1">
  <g id="patch_1">
   <path d="M 0 432 
L 720 432 
L 720 0 
L 0 0 
z
" style="fill: #ffffff"/>
  </g>
  <g id="axes_1">
   <g id="matplotlib.axis_1"/>
   <g id="matplotlib.axis_2"/>
   <g id="patch_2">
    <path d="M 502.056 218.16 
C 502.056 200.702533 498.620268 183.414521 491.945092 167.283645 
C 485.269916 151.152769 475.484882 136.492184 463.149021 124.139465 
C 450.81316 111.786746 436.165951 101.981701 420.044206 95.284501 
C 403.922461 88.587302 386.639157 85.127965 369.181707 85.104124 
C 351.724256 85.080283 334.431568 88.492403 318.291591 95.145544 
C 302.151614 101.798685 287.47768 111.563688 275.108126 123.882669 
C 262.738572 136.201649 252.913533 150.835454 246.194324 166.948038 
C 239.475115 183.060622 235.992177 200.339186 235.944496 217.796587 
C 235.896815 235.253989 239.285316 252.551321 245.916409 268.700368 
C 252.547503 284.849416 262.292458 299.536672 274.594534 311.923037 
C 286.896611 324.309403 301.516984 334.154417 317.620377 340.895624 
C 333.72377 347.636831 350.997562 351.143362 368.454882 351.214883 
C 385.912202 351.286405 403.214145 347.92153 419.372233 341.312496 
C 435.530322 334.703462 450.230872 324.978574 462.634026 312.693424 
C 475.03718 300.408275 484.902152 285.80136 491.665344 269.707188 
C 498.428536 253.613016 501.958653 236.344029 502.054015 218.886823 
L 369 218.16 
z
" style="fill: #f77189"/>
   </g>
   <g id="patch_3">
    <path d="M 502.054015 218.886823 
C 502.05467 218.766887 502.055163 218.646951 502.055494 218.527014 
C 502.055825 218.407077 502.055993 218.28714 502.056 218.167203 
L 369 218.16 
z
" style="fill: #bb9832"/>
   </g>
   <g id="patch_4">
    <path d="M 502.056 218.167203 
C 502.056 218.166003 502.056 218.164804 502.056 218.163605 
C 502.056 218.162405 502.056 218.161206 502.056 218.160006 
L 369 218.16 
z
" style="fill: #50b131"/>
   </g>
   <g id="text_1">
    <text style="fill: #262626; font: 10px 'Arial', 'Liberation Sans', 'DejaVu Sans', 'Bitstream Vera Sans', sans-serif; text-anchor: end" x="222.638946" y="220.346184" transform="rotate(-0 222.638946 220.346184)">newsapi</text>
   </g>
   <g id="text_2">
    <text style="fill: #262626; font: 10px 'Arial', 'Liberation Sans', 'DejaVu Sans', 'Bitstream Vera Sans', sans-serif; text-anchor: middle" x="289.166698" y="220.52789" transform="rotate(-0 289.166698 220.52789)">99.9%</text>
   </g>
   <g id="text_3">
    <text style="fill: #262626; font: 10px 'Arial', 'Liberation Sans', 'DejaVu Sans', 'Bitstream Vera Sans', sans-serif; text-anchor: start" x="515.361043" y="221.149653" transform="rotate(-0 515.361043 221.149653)">chicago_pd</text>
   </g>
   <g id="text_4">
    <text style="fill: #262626; font: 10px 'Arial', 'Liberation Sans', 'DejaVu Sans', 'Bitstream Vera Sans', sans-serif; text-anchor: middle" x="448.833296" y="220.966146" transform="rotate(-0 448.833296 220.966146)">0.1%</text>
   </g>
   <g id="text_5">
    <text style="fill: #262626; font: 10px 'Arial', 'Liberation Sans', 'DejaVu Sans', 'Bitstream Vera Sans', sans-serif; text-anchor: start" x="515.3616" y="220.749903" transform="rotate(-0 515.3616 220.749903)">chicago_police</text>
   </g>
   <g id="text_6">
    <text style="fill: #262626; font: 10px 'Arial', 'Liberation Sans', 'DejaVu Sans', 'Bitstream Vera Sans', sans-serif; text-anchor: middle" x="448.8336" y="220.7481" transform="rotate(-0 448.8336 220.7481)">0.0%</text>
   </g>
   <g id="text_7">
    <text style="fill: #262626; font: 12px 'Arial', 'Liberation Sans', 'DejaVu Sans', 'Bitstream Vera Sans', sans-serif; text-anchor: middle" x="369" y="45.84" transform="rotate(-0 369 45.84)">Incidents by Source</text>
   </g>
  </g>
 </g>
</svg>
