<?xml version="1.0" encoding="utf-8" standalone="no"?>
<!DOCTYPE svg PUBLIC "-//W3C//DTD SVG 1.1//EN"
  "http://www.w3.org/Graphics/SVG/1.1/DTD/svg11.dtd">
<svg xmlns:xlink="http://www.w3.org/1999/xlink" width="720pt" height="432pt" viewBox="0 0 720 432" xmlns="http://www.w3.org/2000/svg" version="1.1">
 <metadata>
  <rdf:RDF xmlns:dc="http://purl.org/dc/elements/1.1/" xmlns:cc="http://creativecommons.org/ns#" xmlns:rdf="http://www.w3.org/1999/02/22-rdf-syntax-ns#">
   <cc:Work>
    <dc:type rdf:resource="http://purl.org/dc/dcmitype/StillImage"/>
    <dc:date>2026-04-04T02:37:40.448728</dc:date>
    <dc:format>image/svg+xml</dc:format>
    <dc:creator>
     <cc:Agent>
      <dc:title>Matplotlib v3.7.5, https://matplotlib.org/</dc:title>
     </cc:Agent>
    </dc:creator>
   </cc:Work>
  </rdf:RDF>
 </metadata>
 <defs>
  <style type="text/css">*{stroke-linejoin: round; stroke-linecap: butt}</style>
 </defs>
 <g id="figure_1">
  <g id="patch_1">
   <path d="M 0 432 
L 720 432 
L 720 0 
L 0 0 
z
" style="fill: #ffffff"/>
  </g>
  <g id="axes_1">
   <g id="matplotlib.axis_1"/>
   <g id="matplotlib.axis_2"/>
   <g id="patch_2">
    <path d="M 502.056 218.16 
C 502.056 200.705507 498.621439 183.420381 491.94847 167.291809 
C 485.275502 151.163237 475.493627 136.504223 463.161507 124.15197 
C 450.829387 111.799717 436.186349 101.993942 420.068684 95.294673 
C 403.951019 88.595403 386.671519 85.13265 369.217049 85.104177 
C 351.762579 85.075704 334.471873 88.482065 318.332438 95.128714 
C 302.193002 101.775364 287.51805 111.533313 275.145697 123.845267 
C 262.773343 136.157221 252.943695 150.784244 246.218142 166.890959 
C 239.49259 182.997674 236.001654 200.271503 235.944708 217.725903 
C 235.887763 235.180304 239.265913 252.476543 245.886226 268.626799 
C 252.506539 284.777056 262.240537 299.467906 274.532292 311.860327 
C 286.824047 324.252748 301.435016 334.106243 317.530738 340.858061 
C 333.626461 347.609879 350.894572 351.128989 368.348856 351.214407 
C 385.80314 351.299825 403.104867 347.949894 419.265902 341.355934 
C 435.426936 334.761975 450.133645 325.051955 462.546101 312.780432 
C 474.958557 300.508909 484.835873 285.914033 491.613938 269.829345 
C 498.392004 253.744658 501.939277 236.482311 502.053168 219.028189 
L 369 218.16 
z
" style="fill: #f77189"/>
   </g>
   <g id="patch_3">
    <path d="M 502.053168 219.028189 
C 502.054102 218.884922 502.054806 218.741653 502.055278 218.598384 
C 502.05575 218.455115 502.05599 218.311845 502.056 218.168575 
L 369 218.16 
z
" style="fill: #bb9832"/>
   </g>
   <g id="patch_4">
    <path d="M 502.056 218.168575 
C 502.056 218.167142 502.056 218.165709 502.056 218.164276 
C 502.056 218.162844 502.056 218.161411 502.056 218.159978 
L 369 218.16 
z
" style="fill: #50b131"/>
   </g>
   <g id="text_1">
    <text style="fill: #262626; font: 10px 'Arial', 'Liberation Sans', 'DejaVu Sans', 'Bitstream Vera Sans', sans-serif; text-anchor: end" x="222.639179" y="220.268431" transform="rotate(-0 222.639179 220.268431)">newsapi</text>
   </g>
   <g id="text_2">
    <text style="fill: #262626; font: 10px 'Arial', 'Liberation Sans', 'DejaVu Sans', 'Bitstream Vera Sans', sans-serif; text-anchor: middle" x="289.166825" y="220.485479" transform="rotate(-0 289.166825 220.485479)">99.9%</text>
   </g>
   <g id="text_3">
    <text style="fill: #262626; font: 10px 'Arial', 'Liberation Sans', 'DejaVu Sans', 'Bitstream Vera Sans', sans-serif; text-anchor: start" x="515.360806" y="221.22816" transform="rotate(-0 515.360806 221.22816)">chicago_pd</text>
   </g>
   <g id="text_4">
    <text style="fill: #262626; font: 10px 'Arial', 'Liberation Sans', 'DejaVu Sans', 'Bitstream Vera Sans', sans-serif; text-anchor: middle" x="448.833167" y="221.008968" transform="rotate(-0 448.833167 221.008968)">0.1%</text>
   </g>
   <g id="text_5">
    <text style="fill: #262626; font: 10px 'Arial', 'Liberation Sans', 'DejaVu Sans', 'Bitstream Vera Sans', sans-serif; text-anchor: start" x="515.3616" y="220.750642" transform="rotate(-0 515.3616 220.750642)">chicago_police</text>
   </g>
   <g id="text_6">
    <text style="fill: #262626; font: 10px 'Arial', 'Liberation Sans', 'DejaVu Sans', 'Bitstream Vera Sans', sans-serif; text-anchor: middle" x="448.8336" y="220.748503" transform="rotate(-0 448.8336 220.748503)">0.0%</text>
   </g>
   <g id="text_7">
    <text style="fill: #262626; font: 12px 'Arial', 'Liberation Sans', 'DejaVu Sans', 'Bitstream Vera Sans', sans-serif; text-anchor: middle" x="369" y="45.84" transform="rotate(-0 369 45.84)">Incidents by Source</text>
   </g>
  </g>
 </g>
</svg>
