<?xml version="1.0" encoding="utf-8" standalone="no"?>
<!DOCTYPE svg PUBLIC "-//W3C//DTD SVG 1.1//EN"
  "http://www.w3.org/Graphics/SVG/1.1/DTD/svg11.dtd">
<svg xmlns:xlink="http://www.w3.org/1999/xlink" width="720pt" height="432pt" viewBox="0 0 720 432" xmlns="http://www.w3.org/2000/svg" version="1.1">
 <metadata>
  <rdf:RDF xmlns:dc="http://purl.org/dc/elements/1.1/" xmlns:cc="http://creativecommons.org/ns#" xmlns:rdf="http://www.w3.org/1999/02/22-rdf-syntax-ns#">
   <cc:Work>
    <dc:type rdf:resource="http://purl.org/dc/dcmitype/StillImage"/>
    <dc:date>2025-04-05T01:02:23.128724</dc:date>
    <dc:format>image/svg+xml</dc:format>
    <dc:creator>
     <cc:Agent>
      <dc:title>Matplotlib v3.7.5, https://matplotlib.org/</dc:title>
     </cc:Agent>
    </dc:creator>
   </cc:Work>
  </rdf:RDF>
 </metadata>
 <defs>
  <style type="text/css">*{stroke-linejoin: round; stroke-linecap: butt}</style>
 </defs>
 <g id="figure_1">
  <g id="patch_1">
   <path d="M 0 432 
L 720 432 
L 720 0 
L 0 0 
z
" style="fill: #ffffff"/>
  </g>
  <g id="axes_1">
   <g id="matplotlib.axis_1"/>
   <g id="matplotlib.axis_2"/>
   <g id="patch_2">
    <path d="M 502.056 218.16 
C 502.056 200.760107 498.642893 183.527995 492.010409 167.441775 
C 485.377926 151.355556 475.653976 136.725457 463.390501 124.381898 
C 451.127026 112.038339 436.56053 102.219368 420.517822 95.48232 
C 404.475115 88.745273 387.265583 85.220074 369.866059 85.106819 
C 352.466534 84.993563 335.212571 88.294435 319.083522 94.822072 
C 302.954473 101.34971 288.261391 110.978227 275.83827 123.161098 
C 263.41515 135.34397 253.501574 149.846246 246.660247 165.844762 
C 239.818921 181.843279 236.181781 199.0295 235.955274 216.427919 
C 235.728768 233.826338 238.917264 251.101421 245.33978 267.272616 
C 251.762296 283.443812 261.294972 298.199255 273.396723 310.70141 
C 285.498474 323.203565 299.935916 333.211327 315.889564 340.156642 
C 331.843211 347.101958 349.005395 350.850886 366.40197 351.190633 
C 383.798546 351.530381 401.094017 348.454395 417.306674 342.137274 
C 433.519331 335.820152 448.336509 326.383721 460.91717 314.363602 
C 473.497831 302.343483 483.599353 287.971488 490.648363 272.063385 
C 497.697373 256.155282 501.55793 239.017864 502.010905 221.623868 
L 369 218.16 
z
" style="fill: #f77189"/>
   </g>
   <g id="patch_3">
    <path d="M 502.010905 221.623868 
C 502.025787 221.052402 502.036986 220.480846 502.044501 219.909235 
C 502.052017 219.337625 502.055848 218.765972 502.055996 218.194312 
L 369 218.16 
z
" style="fill: #bb9832"/>
   </g>
   <g id="patch_4">
    <path d="M 502.055996 218.194312 
C 502.055997 218.188595 502.055998 218.182879 502.055999 218.177162 
C 502.056 218.171445 502.056 218.165729 502.056 218.160012 
L 369 218.16 
z
" style="fill: #50b131"/>
   </g>
   <g id="text_1">
    <text style="fill: #262626; font: 10px 'Arial', 'Liberation Sans', 'DejaVu Sans', 'Bitstream Vera Sans', sans-serif; text-anchor: end" x="222.650802" y="218.840648" transform="rotate(-0 222.650802 218.840648)">newsapi</text>
   </g>
   <g id="text_2">
    <text style="fill: #262626; font: 10px 'Arial', 'Liberation Sans', 'DejaVu Sans', 'Bitstream Vera Sans', sans-serif; text-anchor: middle" x="289.173165" y="219.706689" transform="rotate(-0 289.173165 219.706689)">99.6%</text>
   </g>
   <g id="text_3">
    <text style="fill: #262626; font: 10px 'Arial', 'Liberation Sans', 'DejaVu Sans', 'Bitstream Vera Sans', sans-serif; text-anchor: start" x="515.348951" y="222.670096" transform="rotate(-0 515.348951 222.670096)">chicago_pd</text>
   </g>
   <g id="text_4">
    <text style="fill: #262626; font: 10px 'Arial', 'Liberation Sans', 'DejaVu Sans', 'Bitstream Vera Sans', sans-serif; text-anchor: middle" x="448.826701" y="221.795479" transform="rotate(-0 448.826701 221.795479)">0.4%</text>
   </g>
   <g id="text_5">
    <text style="fill: #262626; font: 10px 'Arial', 'Liberation Sans', 'DejaVu Sans', 'Bitstream Vera Sans', sans-serif; text-anchor: start" x="515.361599" y="220.764816" transform="rotate(-0 515.361599 220.764816)">chicago_police</text>
   </g>
   <g id="text_6">
    <text style="fill: #262626; font: 10px 'Arial', 'Liberation Sans', 'DejaVu Sans', 'Bitstream Vera Sans', sans-serif; text-anchor: middle" x="448.833599" y="220.756235" transform="rotate(-0 448.833599 220.756235)">0.0%</text>
   </g>
   <g id="text_7">
    <text style="fill: #262626; font: 12px 'Arial', 'Liberation Sans', 'DejaVu Sans', 'Bitstream Vera Sans', sans-serif; text-anchor: middle" x="369" y="45.84" transform="rotate(-0 369 45.84)">Incidents by Source</text>
   </g>
  </g>
 </g>
</svg>
