<?xml version="1.0" encoding="utf-8" standalone="no"?>
<!DOCTYPE svg PUBLIC "-//W3C//DTD SVG 1.1//EN"
  "http://www.w3.org/Graphics/SVG/1.1/DTD/svg11.dtd">
<svg xmlns:xlink="http://www.w3.org/1999/xlink" width="720pt" height="432pt" viewBox="0 0 720 432" xmlns="http://www.w3.org/2000/svg" version="1.1">
 <metadata>
  <rdf:RDF xmlns:dc="http://purl.org/dc/elements/1.1/" xmlns:cc="http://creativecommons.org/ns#" xmlns:rdf="http://www.w3.org/1999/02/22-rdf-syntax-ns#">
   <cc:Work>
    <dc:type rdf:resource="http://purl.org/dc/dcmitype/StillImage"/>
    <dc:date>2025-10-16T06:22:00.596932</dc:date>
    <dc:format>image/svg+xml</dc:format>
    <dc:creator>
     <cc:Agent>
      <dc:title>Matplotlib v3.7.5, https://matplotlib.org/</dc:title>
     </cc:Agent>
    </dc:creator>
   </cc:Work>
  </rdf:RDF>
 </metadata>
 <defs>
  <style type="text/css">*{stroke-linejoin: round; stroke-linecap: butt}</style>
 </defs>
 <g id="figure_1">
  <g id="patch_1">
   <path d="M 0 432 
L 720 432 
L 720 0 
L 0 0 
z
" style="fill: #ffffff"/>
  </g>
  <g id="axes_1">
   <g id="matplotlib.axis_1"/>
   <g id="matplotlib.axis_2"/>
   <g id="patch_2">
    <path d="M 502.056 218.16 
C 502.056 200.714647 498.625035 183.438395 491.958851 167.316908 
C 485.292668 151.195421 475.520499 136.541236 463.199879 124.19042 
C 450.879258 111.839604 436.249037 102.031595 420.143916 95.32597 
C 404.038794 88.620344 386.770992 85.147101 369.325691 85.104399 
C 351.88039 85.061696 334.595792 88.450363 318.458036 95.077065 
C 302.32028 101.703766 287.642219 111.440035 275.261282 123.730387 
C 262.880345 136.020739 253.036553 150.626908 246.291526 166.715567 
C 239.5465 182.804227 236.030999 200.063475 235.945594 217.50862 
C 235.86019 234.953764 239.206538 252.246605 245.793718 268.400534 
C 252.380898 284.554462 262.081209 299.256311 274.341219 311.667295 
C 286.601228 324.078279 301.183258 333.957793 317.255359 340.742182 
C 333.32746 347.52657 350.578051 351.084307 368.022934 351.212413 
C 385.467817 351.340518 402.768798 348.03651 418.938802 341.48889 
C 435.108806 334.941271 449.834355 325.276976 462.275312 313.047383 
C 474.716268 300.817789 484.631446 286.259986 491.455155 270.20454 
C 498.278864 254.149094 501.878816 236.907262 502.049622 219.462745 
L 369 218.16 
z
" style="fill: #f77189"/>
   </g>
   <g id="patch_3">
    <path d="M 502.049622 219.462745 
C 502.051727 219.247777 502.053311 219.032805 502.054374 218.817829 
C 502.055437 218.602854 502.055979 218.387876 502.055999 218.172897 
L 369 218.16 
z
" style="fill: #bb9832"/>
   </g>
   <g id="patch_4">
    <path d="M 502.055999 218.172897 
C 502.056 218.170748 502.056 218.168598 502.056 218.166448 
C 502.056 218.164298 502.056 218.162149 502.056 218.159999 
L 369 218.16 
z
" style="fill: #50b131"/>
   </g>
   <g id="text_1">
    <text style="fill: #262626; font: 10px 'Arial', 'Liberation Sans', 'DejaVu Sans', 'Bitstream Vera Sans', sans-serif; text-anchor: end" x="222.640154" y="220.029419" transform="rotate(-0 222.640154 220.029419)">newsapi</text>
   </g>
   <g id="text_2">
    <text style="fill: #262626; font: 10px 'Arial', 'Liberation Sans', 'DejaVu Sans', 'Bitstream Vera Sans', sans-serif; text-anchor: middle" x="289.167357" y="220.355109" transform="rotate(-0 289.167357 220.355109)">99.8%</text>
   </g>
   <g id="text_3">
    <text style="fill: #262626; font: 10px 'Arial', 'Liberation Sans', 'DejaVu Sans', 'Bitstream Vera Sans', sans-serif; text-anchor: start" x="515.359811" y="221.46955" transform="rotate(-0 515.359811 221.46955)">chicago_pd</text>
   </g>
   <g id="text_4">
    <text style="fill: #262626; font: 10px 'Arial', 'Liberation Sans', 'DejaVu Sans', 'Bitstream Vera Sans', sans-serif; text-anchor: middle" x="448.832624" y="221.140635" transform="rotate(-0 448.832624 221.140635)">0.2%</text>
   </g>
   <g id="text_5">
    <text style="fill: #262626; font: 10px 'Arial', 'Liberation Sans', 'DejaVu Sans', 'Bitstream Vera Sans', sans-serif; text-anchor: start" x="515.3616" y="220.75303" transform="rotate(-0 515.3616 220.75303)">chicago_police</text>
   </g>
   <g id="text_6">
    <text style="fill: #262626; font: 10px 'Arial', 'Liberation Sans', 'DejaVu Sans', 'Bitstream Vera Sans', sans-serif; text-anchor: middle" x="448.8336" y="220.749806" transform="rotate(-0 448.8336 220.749806)">0.0%</text>
   </g>
   <g id="text_7">
    <text style="fill: #262626; font: 12px 'Arial', 'Liberation Sans', 'DejaVu Sans', 'Bitstream Vera Sans', sans-serif; text-anchor: middle" x="369" y="45.84" transform="rotate(-0 369 45.84)">Incidents by Source</text>
   </g>
  </g>
 </g>
</svg>
