<?xml version="1.0" encoding="utf-8" standalone="no"?>
<!DOCTYPE svg PUBLIC "-//W3C//DTD SVG 1.1//EN"
  "http://www.w3.org/Graphics/SVG/1.1/DTD/svg11.dtd">
<svg xmlns:xlink="http://www.w3.org/1999/xlink" width="720pt" height="432pt" viewBox="0 0 720 432" xmlns="http://www.w3.org/2000/svg" version="1.1">
 <metadata>
  <rdf:RDF xmlns:dc="http://purl.org/dc/elements/1.1/" xmlns:cc="http://creativecommons.org/ns#" xmlns:rdf="http://www.w3.org/1999/02/22-rdf-syntax-ns#">
   <cc:Work>
    <dc:type rdf:resource="http://purl.org/dc/dcmitype/StillImage"/>
    <dc:date>2025-07-08T12:30:08.000250</dc:date>
    <dc:format>image/svg+xml</dc:format>
    <dc:creator>
     <cc:Agent>
      <dc:title>Matplotlib v3.7.5, https://matplotlib.org/</dc:title>
     </cc:Agent>
    </dc:creator>
   </cc:Work>
  </rdf:RDF>
 </metadata>
 <defs>
  <style type="text/css">*{stroke-linejoin: round; stroke-linecap: butt}</style>
 </defs>
 <g id="figure_1">
  <g id="patch_1">
   <path d="M 0 432 
L 720 432 
L 720 0 
L 0 0 
z
" style="fill: #ffffff"/>
  </g>
  <g id="axes_1">
   <g id="matplotlib.axis_1"/>
   <g id="matplotlib.axis_2"/>
   <g id="patch_2">
    <path d="M 502.056 218.16 
C 502.056 200.728227 498.630374 183.465161 491.974266 167.354204 
C 485.318159 151.243247 475.560405 136.596246 463.256864 124.24758 
C 450.953323 111.898913 436.342143 102.087602 420.255663 95.372557 
C 404.169182 88.657512 386.918772 85.168709 369.487116 85.104892 
C 352.05546 85.041074 334.779968 88.403477 318.644751 95.000558 
C 302.509535 101.59764 287.826909 111.301705 275.433282 123.559956 
C 263.039655 135.818206 253.174919 150.393369 246.401026 166.455158 
C 239.627133 182.516947 236.075201 199.754469 235.947567 217.185774 
C 235.819933 234.61708 239.119068 251.904766 245.657034 268.064026 
C 252.195 284.223287 261.845248 298.94134 274.058043 311.379762 
C 286.270838 323.818183 300.809789 333.736213 316.846671 340.568862 
C 332.883554 347.401511 350.107957 351.016526 367.538678 351.207975 
C 384.969399 351.399424 402.269048 348.163601 418.452135 341.684837 
C 434.635223 335.206074 449.388507 325.609773 461.871556 313.442597 
C 474.354605 301.27542 484.325795 286.772877 491.217109 270.761116 
C 498.108423 254.749355 501.786472 237.538303 502.041734 220.108399 
L 369 218.16 
z
" style="fill: #f77189"/>
   </g>
   <g id="patch_3">
    <path d="M 502.041734 220.108399 
C 502.046442 219.786901 502.049985 219.465387 502.052362 219.143863 
C 502.05474 218.82234 502.055952 218.500809 502.055999 218.179276 
L 369 218.16 
z
" style="fill: #bb9832"/>
   </g>
   <g id="patch_4">
    <path d="M 502.055999 218.179276 
C 502.055999 218.176061 502.055999 218.172846 502.056 218.16963 
C 502.056 218.166415 502.056 218.1632 502.056 218.159984 
L 369 218.16 
z
" style="fill: #50b131"/>
   </g>
   <g id="text_1">
    <text style="fill: #262626; font: 10px 'Arial', 'Liberation Sans', 'DejaVu Sans', 'Bitstream Vera Sans', sans-serif; text-anchor: end" x="222.642323" y="219.674289" transform="rotate(-0 222.642323 219.674289)">newsapi</text>
   </g>
   <g id="text_2">
    <text style="fill: #262626; font: 10px 'Arial', 'Liberation Sans', 'DejaVu Sans', 'Bitstream Vera Sans', sans-serif; text-anchor: middle" x="289.16854" y="220.161402" transform="rotate(-0 289.16854 220.161402)">99.8%</text>
   </g>
   <g id="text_3">
    <text style="fill: #262626; font: 10px 'Arial', 'Liberation Sans', 'DejaVu Sans', 'Bitstream Vera Sans', sans-serif; text-anchor: start" x="515.357599" y="221.828187" transform="rotate(-0 515.357599 221.828187)">chicago_pd</text>
   </g>
   <g id="text_4">
    <text style="fill: #262626; font: 10px 'Arial', 'Liberation Sans', 'DejaVu Sans', 'Bitstream Vera Sans', sans-serif; text-anchor: middle" x="448.831417" y="221.336256" transform="rotate(-0 448.831417 221.336256)">0.2%</text>
   </g>
   <g id="text_5">
    <text style="fill: #262626; font: 10px 'Arial', 'Liberation Sans', 'DejaVu Sans', 'Bitstream Vera Sans', sans-serif; text-anchor: start" x="515.3616" y="220.756531" transform="rotate(-0 515.3616 220.756531)">chicago_police</text>
   </g>
   <g id="text_6">
    <text style="fill: #262626; font: 10px 'Arial', 'Liberation Sans', 'DejaVu Sans', 'Bitstream Vera Sans', sans-serif; text-anchor: middle" x="448.8336" y="220.751716" transform="rotate(-0 448.8336 220.751716)">0.0%</text>
   </g>
   <g id="text_7">
    <text style="fill: #262626; font: 12px 'Arial', 'Liberation Sans', 'DejaVu Sans', 'Bitstream Vera Sans', sans-serif; text-anchor: middle" x="369" y="45.84" transform="rotate(-0 369 45.84)">Incidents by Source</text>
   </g>
  </g>
 </g>
</svg>
