<?xml version="1.0" encoding="utf-8" standalone="no"?>
<!DOCTYPE svg PUBLIC "-//W3C//DTD SVG 1.1//EN"
  "http://www.w3.org/Graphics/SVG/1.1/DTD/svg11.dtd">
<svg xmlns:xlink="http://www.w3.org/1999/xlink" width="720pt" height="432pt" viewBox="0 0 720 432" xmlns="http://www.w3.org/2000/svg" version="1.1">
 <metadata>
  <rdf:RDF xmlns:dc="http://purl.org/dc/elements/1.1/" xmlns:cc="http://creativecommons.org/ns#" xmlns:rdf="http://www.w3.org/1999/02/22-rdf-syntax-ns#">
   <cc:Work>
    <dc:type rdf:resource="http://purl.org/dc/dcmitype/StillImage"/>
    <dc:date>2026-02-02T06:57:02.948373</dc:date>
    <dc:format>image/svg+xml</dc:format>
    <dc:creator>
     <cc:Agent>
      <dc:title>Matplotlib v3.7.5, https://matplotlib.org/</dc:title>
     </cc:Agent>
    </dc:creator>
   </cc:Work>
  </rdf:RDF>
 </metadata>
 <defs>
  <style type="text/css">*{stroke-linejoin: round; stroke-linecap: butt}</style>
 </defs>
 <g id="figure_1">
  <g id="patch_1">
   <path d="M 0 432 
L 720 432 
L 720 0 
L 0 0 
z
" style="fill: #ffffff"/>
  </g>
  <g id="axes_1">
   <g id="matplotlib.axis_1"/>
   <g id="matplotlib.axis_2"/>
   <g id="patch_2">
    <path d="M 502.056 218.16 
C 502.056 200.707776 498.622331 183.424853 491.951048 167.29804 
C 485.279764 151.171227 475.500299 136.513411 463.171034 124.161514 
C 450.841769 111.809617 436.201913 102.003286 420.087362 95.302438 
C 403.972811 88.601589 386.696214 85.13623 369.244019 85.104224 
C 351.791824 85.072217 334.502633 88.474184 318.363613 95.11588 
C 302.224592 101.757577 287.548865 111.510143 275.174378 123.816735 
C 262.79989 136.123326 252.966727 150.745173 246.236337 166.847408 
C 239.505946 182.949643 236.008908 200.219855 235.944895 217.671962 
C 235.880882 235.124069 239.251135 252.41947 245.863222 268.570644 
C 252.475309 284.721819 262.200945 299.415406 274.484821 311.812443 
C 286.768697 324.209479 301.372486 334.069441 317.462351 340.829352 
C 333.552215 347.589262 350.815985 351.117967 368.267945 351.213986 
C 385.719905 351.310006 403.021458 347.971477 419.184732 341.389022 
C 435.348005 334.806567 450.059404 325.107895 462.478948 312.846775 
C 474.898492 300.585655 484.78522 285.999973 491.574627 269.922533 
C 498.364034 253.845093 501.924394 236.587824 502.05242 219.136069 
L 369 218.16 
z
" style="fill: #f77189"/>
   </g>
   <g id="patch_3">
    <path d="M 502.05242 219.136069 
C 502.053601 218.975005 502.054491 218.813938 502.055087 218.65287 
C 502.055684 218.491802 502.055988 218.330733 502.056 218.169664 
L 369 218.16 
z
" style="fill: #bb9832"/>
   </g>
   <g id="patch_4">
    <path d="M 502.056 218.169664 
C 502.056 218.168054 502.056 218.166443 502.056 218.164832 
C 502.056 218.163222 502.056 218.161611 502.056 218.16 
L 369 218.16 
z
" style="fill: #50b131"/>
   </g>
   <g id="text_1">
    <text style="fill: #262626; font: 10px 'Arial', 'Liberation Sans', 'DejaVu Sans', 'Bitstream Vera Sans', sans-serif; text-anchor: end" x="222.639385" y="220.209096" transform="rotate(-0 222.639385 220.209096)">newsapi</text>
   </g>
   <g id="text_2">
    <text style="fill: #262626; font: 10px 'Arial', 'Liberation Sans', 'DejaVu Sans', 'Bitstream Vera Sans', sans-serif; text-anchor: middle" x="289.166937" y="220.453115" transform="rotate(-0 289.166937 220.453115)">99.9%</text>
   </g>
   <g id="text_3">
    <text style="fill: #262626; font: 10px 'Arial', 'Liberation Sans', 'DejaVu Sans', 'Bitstream Vera Sans', sans-serif; text-anchor: start" x="515.360596" y="221.288095" transform="rotate(-0 515.360596 221.288095)">chicago_pd</text>
   </g>
   <g id="text_4">
    <text style="fill: #262626; font: 10px 'Arial', 'Liberation Sans', 'DejaVu Sans', 'Bitstream Vera Sans', sans-serif; text-anchor: middle" x="448.833052" y="221.04166" transform="rotate(-0 448.833052 221.04166)">0.1%</text>
   </g>
   <g id="text_5">
    <text style="fill: #262626; font: 10px 'Arial', 'Liberation Sans', 'DejaVu Sans', 'Bitstream Vera Sans', sans-serif; text-anchor: start" x="515.3616" y="220.751253" transform="rotate(-0 515.3616 220.751253)">chicago_police</text>
   </g>
   <g id="text_6">
    <text style="fill: #262626; font: 10px 'Arial', 'Liberation Sans', 'DejaVu Sans', 'Bitstream Vera Sans', sans-serif; text-anchor: middle" x="448.8336" y="220.748837" transform="rotate(-0 448.8336 220.748837)">0.0%</text>
   </g>
   <g id="text_7">
    <text style="fill: #262626; font: 12px 'Arial', 'Liberation Sans', 'DejaVu Sans', 'Bitstream Vera Sans', sans-serif; text-anchor: middle" x="369" y="45.84" transform="rotate(-0 369 45.84)">Incidents by Source</text>
   </g>
  </g>
 </g>
</svg>
