<?xml version="1.0" encoding="utf-8" standalone="no"?>
<!DOCTYPE svg PUBLIC "-//W3C//DTD SVG 1.1//EN"
  "http://www.w3.org/Graphics/SVG/1.1/DTD/svg11.dtd">
<svg xmlns:xlink="http://www.w3.org/1999/xlink" width="720pt" height="432pt" viewBox="0 0 720 432" xmlns="http://www.w3.org/2000/svg" version="1.1">
 <metadata>
  <rdf:RDF xmlns:dc="http://purl.org/dc/elements/1.1/" xmlns:cc="http://creativecommons.org/ns#" xmlns:rdf="http://www.w3.org/1999/02/22-rdf-syntax-ns#">
   <cc:Work>
    <dc:type rdf:resource="http://purl.org/dc/dcmitype/StillImage"/>
    <dc:date>2025-01-21T18:16:56.955698</dc:date>
    <dc:format>image/svg+xml</dc:format>
    <dc:creator>
     <cc:Agent>
      <dc:title>Matplotlib v3.7.5, https://matplotlib.org/</dc:title>
     </cc:Agent>
    </dc:creator>
   </cc:Work>
  </rdf:RDF>
 </metadata>
 <defs>
  <style type="text/css">*{stroke-linejoin: round; stroke-linecap: butt}</style>
 </defs>
 <g id="figure_1">
  <g id="patch_1">
   <path d="M 0 432 
L 720 432 
L 720 0 
L 0 0 
z
" style="fill: #ffffff"/>
  </g>
  <g id="axes_1">
   <g id="matplotlib.axis_1"/>
   <g id="matplotlib.axis_2"/>
   <g id="patch_2">
    <path d="M 502.056 218.16 
C 502.056 200.861858 498.682694 183.728566 492.125359 167.721471 
C 485.568023 151.714377 475.95164 137.138573 463.815783 124.811907 
C 451.679926 112.485241 437.255903 102.642657 421.353046 95.836422 
C 405.450188 89.030187 388.371601 85.390026 371.075564 85.12019 
C 353.779527 84.850353 336.595698 87.955983 320.488263 94.262823 
C 304.380827 100.569663 289.656789 109.957506 277.142313 121.8996 
C 264.627838 133.841695 254.561448 148.110426 247.50797 163.905177 
C 240.454492 179.699928 236.548362 196.719654 236.008754 214.009377 
C 235.469146 231.2991 238.306345 248.529283 244.361155 264.733141 
C 250.415965 280.936998 259.572983 295.805687 271.318409 308.504927 
C 283.063834 321.204167 297.173802 331.491912 312.856603 338.790917 
C 328.539404 346.089922 345.496126 350.26107 362.775328 351.070318 
C 380.05453 351.879566 397.326875 349.311489 413.62321 343.510182 
C 429.919546 337.708876 444.929268 328.784912 457.810182 317.239013 
C 470.691095 305.693114 481.197692 291.745343 488.740448 276.178309 
C 496.283204 260.611275 500.718356 243.721682 501.797046 226.457206 
L 369 218.16 
z
" style="fill: #f77189"/>
   </g>
   <g id="patch_3">
    <path d="M 501.797046 226.457206 
C 501.882484 225.089777 501.946795 223.721111 501.989958 222.351695 
C 502.03312 220.98228 502.055128 219.61228 502.055975 218.242185 
L 369 218.16 
z
" style="fill: #bb9832"/>
   </g>
   <g id="patch_4">
    <path d="M 502.055975 218.242185 
C 502.055983 218.228484 502.055989 218.214784 502.055994 218.201083 
C 502.055998 218.187382 502.056 218.173682 502.056 218.159981 
L 369 218.16 
z
" style="fill: #50b131"/>
   </g>
   <g id="text_1">
    <text style="fill: #262626; font: 10px 'Arial', 'Liberation Sans', 'DejaVu Sans', 'Bitstream Vera Sans', sans-serif; text-anchor: end" x="222.70963" y="216.180252" transform="rotate(-0 222.70963 216.180252)">newsapi</text>
   </g>
   <g id="text_2">
    <text style="fill: #262626; font: 10px 'Arial', 'Liberation Sans', 'DejaVu Sans', 'Bitstream Vera Sans', sans-serif; text-anchor: middle" x="289.205253" y="218.255564" transform="rotate(-0 289.205253 218.255564)">99.0%</text>
   </g>
   <g id="text_3">
    <text style="fill: #262626; font: 10px 'Arial', 'Liberation Sans', 'DejaVu Sans', 'Bitstream Vera Sans', sans-serif; text-anchor: start" x="515.288953" y="225.356802" transform="rotate(-0 515.288953 225.356802)">chicago_pd</text>
   </g>
   <g id="text_4">
    <text style="fill: #262626; font: 10px 'Arial', 'Liberation Sans', 'DejaVu Sans', 'Bitstream Vera Sans', sans-serif; text-anchor: middle" x="448.793975" y="223.260955" transform="rotate(-0 448.793975 223.260955)">1.0%</text>
   </g>
   <g id="text_5">
    <text style="fill: #262626; font: 10px 'Arial', 'Liberation Sans', 'DejaVu Sans', 'Bitstream Vera Sans', sans-serif; text-anchor: start" x="515.361593" y="220.791129" transform="rotate(-0 515.361593 220.791129)">chicago_police</text>
   </g>
   <g id="text_6">
    <text style="fill: #262626; font: 10px 'Arial', 'Liberation Sans', 'DejaVu Sans', 'Bitstream Vera Sans', sans-serif; text-anchor: middle" x="448.833596" y="220.770587" transform="rotate(-0 448.833596 220.770587)">0.0%</text>
   </g>
   <g id="text_7">
    <text style="fill: #262626; font: 12px 'Arial', 'Liberation Sans', 'DejaVu Sans', 'Bitstream Vera Sans', sans-serif; text-anchor: middle" x="369" y="45.84" transform="rotate(-0 369 45.84)">Incidents by Source</text>
   </g>
  </g>
 </g>
</svg>
