<?xml version="1.0" encoding="utf-8" standalone="no"?>
<!DOCTYPE svg PUBLIC "-//W3C//DTD SVG 1.1//EN"
  "http://www.w3.org/Graphics/SVG/1.1/DTD/svg11.dtd">
<svg xmlns:xlink="http://www.w3.org/1999/xlink" width="720pt" height="432pt" viewBox="0 0 720 432" xmlns="http://www.w3.org/2000/svg" version="1.1">
 <metadata>
  <rdf:RDF xmlns:dc="http://purl.org/dc/elements/1.1/" xmlns:cc="http://creativecommons.org/ns#" xmlns:rdf="http://www.w3.org/1999/02/22-rdf-syntax-ns#">
   <cc:Work>
    <dc:type rdf:resource="http://purl.org/dc/dcmitype/StillImage"/>
    <dc:date>2024-12-17T12:26:13.579783</dc:date>
    <dc:format>image/svg+xml</dc:format>
    <dc:creator>
     <cc:Agent>
      <dc:title>Matplotlib v3.7.5, https://matplotlib.org/</dc:title>
     </cc:Agent>
    </dc:creator>
   </cc:Work>
  </rdf:RDF>
 </metadata>
 <defs>
  <style type="text/css">*{stroke-linejoin: round; stroke-linecap: butt}</style>
 </defs>
 <g id="figure_1">
  <g id="patch_1">
   <path d="M 0 432 
L 720 432 
L 720 0 
L 0 0 
z
" style="fill: #ffffff"/>
  </g>
  <g id="axes_1">
   <g id="matplotlib.axis_1"/>
   <g id="matplotlib.axis_2"/>
   <g id="patch_2">
    <path d="M 502.056 218.16 
C 502.056 201.374026 498.879493 184.738667 492.694473 169.133718 
C 486.509454 153.528768 477.426916 139.234263 465.927207 127.006197 
C 454.427497 114.778131 440.716983 104.83594 425.520771 97.705438 
C 410.324559 90.574935 393.915352 86.384079 377.160982 85.354512 
C 360.406612 84.324946 343.607743 86.475144 327.652815 91.691389 
C 311.697888 96.907635 296.87322 105.09632 283.962842 115.824371 
C 271.052465 126.552422 260.288059 139.627319 252.238923 154.357571 
C 244.189786 169.087823 239.000363 185.20909 236.945107 201.868767 
C 234.88985 218.528444 236.005642 235.427567 240.233472 251.672393 
C 244.461302 267.917219 251.7253 283.216229 261.641295 296.760303 
C 271.55729 310.304378 283.947337 321.850465 298.156162 330.787926 
C 312.364987 339.725387 328.137608 345.893837 344.63986 348.967044 
C 361.142112 352.040251 378.077855 351.963066 394.55141 348.739572 
C 411.024964 345.516077 426.740707 339.204119 440.867478 330.137519 
C 454.99425 321.070918 467.27854 309.412378 477.070672 295.778484 
C 486.862803 282.144589 493.987052 266.780005 498.066638 250.497318 
L 369 218.16 
z
" style="fill: #f77189"/>
   </g>
   <g id="patch_3">
    <path d="M 498.066638 250.497318 
C 499.377043 245.26715 500.368324 239.962162 501.034997 234.611707 
C 501.70167 229.261253 502.042502 223.875218 502.055607 218.483405 
L 369 218.16 
z
" style="fill: #bb9832"/>
   </g>
   <g id="patch_4">
    <path d="M 502.055607 218.483405 
C 502.055738 218.429504 502.055836 218.375602 502.055902 218.3217 
C 502.055967 218.267799 502.056 218.213897 502.056 218.159995 
L 369 218.16 
z
" style="fill: #50b131"/>
   </g>
   <g id="text_1">
    <text style="fill: #262626; font: 10px 'Arial', 'Liberation Sans', 'DejaVu Sans', 'Bitstream Vera Sans', sans-serif; text-anchor: end" x="223.739617" y="202.825581" transform="rotate(-0 223.739617 202.825581)">newsapi</text>
   </g>
   <g id="text_2">
    <text style="fill: #262626; font: 10px 'Arial', 'Liberation Sans', 'DejaVu Sans', 'Bitstream Vera Sans', sans-serif; text-anchor: middle" x="289.767064" y="210.971197" transform="rotate(-0 289.767064 210.971197)">96.1%</text>
   </g>
   <g id="text_3">
    <text style="fill: #262626; font: 10px 'Arial', 'Liberation Sans', 'DejaVu Sans', 'Bitstream Vera Sans', sans-serif; text-anchor: start" x="514.238497" y="238.842816" transform="rotate(-0 514.238497 238.842816)">chicago_pd</text>
   </g>
   <g id="text_4">
    <text style="fill: #262626; font: 10px 'Arial', 'Liberation Sans', 'DejaVu Sans', 'Bitstream Vera Sans', sans-serif; text-anchor: middle" x="448.220998" y="230.616962" transform="rotate(-0 448.220998 230.616962)">3.9%</text>
   </g>
   <g id="text_5">
    <text style="fill: #262626; font: 10px 'Arial', 'Liberation Sans', 'DejaVu Sans', 'Bitstream Vera Sans', sans-serif; text-anchor: start" x="515.361492" y="220.923808" transform="rotate(-0 515.361492 220.923808)">chicago_police</text>
   </g>
   <g id="text_6">
    <text style="fill: #262626; font: 10px 'Arial', 'Liberation Sans', 'DejaVu Sans', 'Bitstream Vera Sans', sans-serif; text-anchor: middle" x="448.833541" y="220.842958" transform="rotate(-0 448.833541 220.842958)">0.0%</text>
   </g>
   <g id="text_7">
    <text style="fill: #262626; font: 12px 'Arial', 'Liberation Sans', 'DejaVu Sans', 'Bitstream Vera Sans', sans-serif; text-anchor: middle" x="369" y="45.84" transform="rotate(-0 369 45.84)">Incidents by Source</text>
   </g>
  </g>
 </g>
</svg>
