<?xml version="1.0" encoding="utf-8" standalone="no"?>
<!DOCTYPE svg PUBLIC "-//W3C//DTD SVG 1.1//EN"
  "http://www.w3.org/Graphics/SVG/1.1/DTD/svg11.dtd">
<svg xmlns:xlink="http://www.w3.org/1999/xlink" width="720pt" height="432pt" viewBox="0 0 720 432" xmlns="http://www.w3.org/2000/svg" version="1.1">
 <metadata>
  <rdf:RDF xmlns:dc="http://purl.org/dc/elements/1.1/" xmlns:cc="http://creativecommons.org/ns#" xmlns:rdf="http://www.w3.org/1999/02/22-rdf-syntax-ns#">
   <cc:Work>
    <dc:type rdf:resource="http://purl.org/dc/dcmitype/StillImage"/>
    <dc:date>2025-06-04T12:50:09.367694</dc:date>
    <dc:format>image/svg+xml</dc:format>
    <dc:creator>
     <cc:Agent>
      <dc:title>Matplotlib v3.7.5, https://matplotlib.org/</dc:title>
     </cc:Agent>
    </dc:creator>
   </cc:Work>
  </rdf:RDF>
 </metadata>
 <defs>
  <style type="text/css">*{stroke-linejoin: round; stroke-linecap: butt}</style>
 </defs>
 <g id="figure_1">
  <g id="patch_1">
   <path d="M 0 432 
L 720 432 
L 720 0 
L 0 0 
z
" style="fill: #ffffff"/>
  </g>
  <g id="axes_1">
   <g id="matplotlib.axis_1"/>
   <g id="matplotlib.axis_2"/>
   <g id="patch_2">
    <path d="M 502.056 218.16 
C 502.056 200.735995 498.633427 183.480471 491.983079 167.37554 
C 485.332731 151.270608 475.583219 136.627721 463.289444 124.280291 
C 450.995669 111.93286 436.39538 102.119671 420.319563 95.399251 
C 404.243746 88.67883 387.00329 85.181142 369.579451 85.105262 
C 352.155612 85.029381 334.885346 88.376775 318.751605 94.956924 
C 302.617865 101.537073 287.932658 111.222723 275.531806 123.462609 
C 263.130954 135.702495 253.254275 150.259911 246.463908 166.306308 
C 239.673542 182.352705 236.100807 199.577765 235.949047 217.001109 
C 235.797287 234.424453 239.069439 251.709133 245.579263 267.871376 
C 252.089088 284.03362 261.710694 298.760868 273.896459 311.214906 
C 286.082224 323.668945 300.596489 333.608927 316.613162 340.46911 
C 332.629836 347.329293 349.839173 350.977009 367.261691 351.204644 
C 384.684208 351.43228 401.982974 348.235434 418.173415 341.796056 
C 434.363855 335.356679 449.132865 325.799301 461.639854 313.667888 
C 474.146842 301.536475 484.149939 287.065636 491.079808 271.07899 
C 498.009678 255.092344 501.732305 237.899055 502.035813 220.477694 
L 369 218.16 
z
" style="fill: #f77189"/>
   </g>
   <g id="patch_3">
    <path d="M 502.035813 220.477694 
C 502.042475 220.095276 502.047488 219.712831 502.050853 219.330369 
C 502.054217 218.947908 502.055932 218.565433 502.055998 218.182957 
L 369 218.16 
z
" style="fill: #bb9832"/>
   </g>
   <g id="patch_4">
    <path d="M 502.055998 218.182957 
C 502.055999 218.179132 502.055999 218.175308 502.056 218.171483 
C 502.056 218.167658 502.056 218.163833 502.056 218.160008 
L 369 218.16 
z
" style="fill: #50b131"/>
   </g>
   <g id="text_1">
    <text style="fill: #262626; font: 10px 'Arial', 'Liberation Sans', 'DejaVu Sans', 'Bitstream Vera Sans', sans-serif; text-anchor: end" x="222.643952" y="219.471157" transform="rotate(-0 222.643952 219.471157)">newsapi</text>
   </g>
   <g id="text_2">
    <text style="fill: #262626; font: 10px 'Arial', 'Liberation Sans', 'DejaVu Sans', 'Bitstream Vera Sans', sans-serif; text-anchor: middle" x="289.169428" y="220.050603" transform="rotate(-0 289.169428 220.050603)">99.7%</text>
   </g>
   <g id="text_3">
    <text style="fill: #262626; font: 10px 'Arial', 'Liberation Sans', 'DejaVu Sans', 'Bitstream Vera Sans', sans-serif; text-anchor: start" x="515.355938" y="222.033344" transform="rotate(-0 515.355938 222.033344)">chicago_pd</text>
   </g>
   <g id="text_4">
    <text style="fill: #262626; font: 10px 'Arial', 'Liberation Sans', 'DejaVu Sans', 'Bitstream Vera Sans', sans-serif; text-anchor: middle" x="448.830512" y="221.448159" transform="rotate(-0 448.830512 221.448159)">0.3%</text>
   </g>
   <g id="text_5">
    <text style="fill: #262626; font: 10px 'Arial', 'Liberation Sans', 'DejaVu Sans', 'Bitstream Vera Sans', sans-serif; text-anchor: start" x="515.361599" y="220.758569" transform="rotate(-0 515.361599 220.758569)">chicago_police</text>
   </g>
   <g id="text_6">
    <text style="fill: #262626; font: 10px 'Arial', 'Liberation Sans', 'DejaVu Sans', 'Bitstream Vera Sans', sans-serif; text-anchor: middle" x="448.8336" y="220.752827" transform="rotate(-0 448.8336 220.752827)">0.0%</text>
   </g>
   <g id="text_7">
    <text style="fill: #262626; font: 12px 'Arial', 'Liberation Sans', 'DejaVu Sans', 'Bitstream Vera Sans', sans-serif; text-anchor: middle" x="369" y="45.84" transform="rotate(-0 369 45.84)">Incidents by Source</text>
   </g>
  </g>
 </g>
</svg>
