<?xml version="1.0" encoding="utf-8" standalone="no"?>
<!DOCTYPE svg PUBLIC "-//W3C//DTD SVG 1.1//EN"
  "http://www.w3.org/Graphics/SVG/1.1/DTD/svg11.dtd">
<svg xmlns:xlink="http://www.w3.org/1999/xlink" width="720pt" height="432pt" viewBox="0 0 720 432" xmlns="http://www.w3.org/2000/svg" version="1.1">
 <metadata>
  <rdf:RDF xmlns:dc="http://purl.org/dc/elements/1.1/" xmlns:cc="http://creativecommons.org/ns#" xmlns:rdf="http://www.w3.org/1999/02/22-rdf-syntax-ns#">
   <cc:Work>
    <dc:type rdf:resource="http://purl.org/dc/dcmitype/StillImage"/>
    <dc:date>2025-05-18T12:24:58.551443</dc:date>
    <dc:format>image/svg+xml</dc:format>
    <dc:creator>
     <cc:Agent>
      <dc:title>Matplotlib v3.7.5, https://matplotlib.org/</dc:title>
     </cc:Agent>
    </dc:creator>
   </cc:Work>
  </rdf:RDF>
 </metadata>
 <defs>
  <style type="text/css">*{stroke-linejoin: round; stroke-linecap: butt}</style>
 </defs>
 <g id="figure_1">
  <g id="patch_1">
   <path d="M 0 432 
L 720 432 
L 720 0 
L 0 0 
z
" style="fill: #ffffff"/>
  </g>
  <g id="axes_1">
   <g id="matplotlib.axis_1"/>
   <g id="matplotlib.axis_2"/>
   <g id="patch_2">
    <path d="M 502.056 218.16 
C 502.056 200.741137 498.635446 183.490605 491.98891 167.389662 
C 485.342373 151.28872 475.598314 136.648557 463.311003 124.301948 
C 451.023691 111.955339 436.430608 102.140911 420.361851 95.416937 
C 404.293093 88.692964 387.059229 85.189401 369.640567 85.105542 
C 352.221906 85.021683 334.955106 88.359148 318.822353 94.928093 
C 302.689599 101.497038 288.002695 111.170503 275.597074 123.398232 
C 263.191454 135.625962 253.306885 150.171626 246.50563 166.207826 
C 239.704375 182.244026 236.117884 199.460824 235.950168 216.87888 
C 235.782451 234.296936 239.036751 251.579603 245.527953 267.743794 
C 252.019154 283.907986 261.6218 298.64129 273.789664 311.105635 
C 285.957527 323.569979 300.455436 333.52446 316.458707 340.402839 
C 332.461979 347.281218 349.661311 350.950553 367.078357 351.202123 
C 384.495403 351.453692 401.793537 348.282634 417.988792 341.869326 
C 434.184047 335.456019 448.96341 325.924414 461.486189 313.816698 
C 474.008969 301.708982 484.033131 287.259165 490.988474 271.289194 
C 497.943818 255.319222 501.695913 238.137755 502.03133 220.722121 
L 369 218.16 
z
" style="fill: #f77189"/>
   </g>
   <g id="patch_3">
    <path d="M 502.03133 220.722121 
C 502.039471 220.299379 502.045598 219.876601 502.04971 219.453801 
C 502.053821 219.031001 502.055917 218.608183 502.055998 218.185363 
L 369 218.16 
z
" style="fill: #bb9832"/>
   </g>
   <g id="patch_4">
    <path d="M 502.055998 218.185363 
C 502.055998 218.181135 502.055999 218.176907 502.055999 218.172678 
C 502.056 218.16845 502.056 218.164222 502.056 218.159994 
L 369 218.16 
z
" style="fill: #50b131"/>
   </g>
   <g id="text_1">
    <text style="fill: #262626; font: 10px 'Arial', 'Liberation Sans', 'DejaVu Sans', 'Bitstream Vera Sans', sans-serif; text-anchor: end" x="222.645185" y="219.336706" transform="rotate(-0 222.645185 219.336706)">newsapi</text>
   </g>
   <g id="text_2">
    <text style="fill: #262626; font: 10px 'Arial', 'Liberation Sans', 'DejaVu Sans', 'Bitstream Vera Sans', sans-serif; text-anchor: middle" x="289.170101" y="219.977266" transform="rotate(-0 289.170101 219.977266)">99.7%</text>
   </g>
   <g id="text_3">
    <text style="fill: #262626; font: 10px 'Arial', 'Liberation Sans', 'DejaVu Sans', 'Bitstream Vera Sans', sans-serif; text-anchor: start" x="515.354681" y="222.169118" transform="rotate(-0 515.354681 222.169118)">chicago_pd</text>
   </g>
   <g id="text_4">
    <text style="fill: #262626; font: 10px 'Arial', 'Liberation Sans', 'DejaVu Sans', 'Bitstream Vera Sans', sans-serif; text-anchor: middle" x="448.829826" y="221.522218" transform="rotate(-0 448.829826 221.522218)">0.3%</text>
   </g>
   <g id="text_5">
    <text style="fill: #262626; font: 10px 'Arial', 'Liberation Sans', 'DejaVu Sans', 'Bitstream Vera Sans', sans-serif; text-anchor: start" x="515.361599" y="220.759884" transform="rotate(-0 515.361599 220.759884)">chicago_police</text>
   </g>
   <g id="text_6">
    <text style="fill: #262626; font: 10px 'Arial', 'Liberation Sans', 'DejaVu Sans', 'Bitstream Vera Sans', sans-serif; text-anchor: middle" x="448.8336" y="220.753544" transform="rotate(-0 448.8336 220.753544)">0.0%</text>
   </g>
   <g id="text_7">
    <text style="fill: #262626; font: 12px 'Arial', 'Liberation Sans', 'DejaVu Sans', 'Bitstream Vera Sans', sans-serif; text-anchor: middle" x="369" y="45.84" transform="rotate(-0 369 45.84)">Incidents by Source</text>
   </g>
  </g>
 </g>
</svg>
