<?xml version="1.0" encoding="utf-8" standalone="no"?>
<!DOCTYPE svg PUBLIC "-//W3C//DTD SVG 1.1//EN"
  "http://www.w3.org/Graphics/SVG/1.1/DTD/svg11.dtd">
<svg xmlns:xlink="http://www.w3.org/1999/xlink" width="720pt" height="432pt" viewBox="0 0 720 432" xmlns="http://www.w3.org/2000/svg" version="1.1">
 <metadata>
  <rdf:RDF xmlns:dc="http://purl.org/dc/elements/1.1/" xmlns:cc="http://creativecommons.org/ns#" xmlns:rdf="http://www.w3.org/1999/02/22-rdf-syntax-ns#">
   <cc:Work>
    <dc:type rdf:resource="http://purl.org/dc/dcmitype/StillImage"/>
    <dc:date>2024-12-14T01:02:04.998148</dc:date>
    <dc:format>image/svg+xml</dc:format>
    <dc:creator>
     <cc:Agent>
      <dc:title>Matplotlib v3.7.5, https://matplotlib.org/</dc:title>
     </cc:Agent>
    </dc:creator>
   </cc:Work>
  </rdf:RDF>
 </metadata>
 <defs>
  <style type="text/css">*{stroke-linejoin: round; stroke-linecap: butt}</style>
 </defs>
 <g id="figure_1">
  <g id="patch_1">
   <path d="M 0 432 
L 720 432 
L 720 0 
L 0 0 
z
" style="fill: #ffffff"/>
  </g>
  <g id="axes_1">
   <g id="matplotlib.axis_1"/>
   <g id="matplotlib.axis_2"/>
   <g id="patch_2">
    <path d="M 502.056 218.16 
C 502.056 201.69902 499.001303 185.380063 493.047359 170.033585 
C 487.093415 154.687106 478.342964 140.57792 467.241308 128.424028 
C 456.139651 116.270137 442.878356 106.281264 428.132276 98.965734 
C 413.386196 91.650204 397.409786 87.13425 381.016068 85.647686 
C 364.62235 84.161122 348.09421 85.7296 332.272749 90.2733 
C 316.451287 94.816999 301.609514 102.257518 288.502713 112.216213 
C 275.395912 122.174909 264.25025 134.479938 255.632918 148.505109 
C 247.015586 162.530281 241.075282 178.033581 238.114303 194.226063 
C 235.153323 210.418544 235.222762 227.020794 238.319086 243.187941 
C 241.41541 259.355088 247.485189 274.808156 256.219538 288.760754 
C 264.953887 302.713352 276.20209 314.924719 289.391735 324.773429 
C 302.581381 334.62214 317.484874 341.938248 333.343789 346.349445 
C 349.202705 350.760641 365.743386 352.190808 382.124096 350.567165 
C 398.504805 348.943521 414.442881 344.294086 429.127252 336.855462 
C 443.811622 329.416839 456.988898 319.317387 467.9885 307.071057 
C 478.988103 294.824726 487.620226 280.642837 493.44559 265.247092 
L 369 218.16 
z
" style="fill: #f77189"/>
   </g>
   <g id="patch_3">
    <path d="M 493.44559 265.247092 
C 496.286296 257.739443 498.441793 249.990107 499.885698 242.093934 
C 501.329603 234.197761 502.056 226.187098 502.056 218.159994 
L 369 218.16 
z
" style="fill: #bb9832"/>
   </g>
   <g id="text_1">
    <text style="fill: #262626; font: 10px 'Arial', 'Liberation Sans', 'DejaVu Sans', 'Bitstream Vera Sans', sans-serif; text-anchor: end" x="225.025733" y="194.418607" transform="rotate(-0 225.025733 194.418607)">newsapi</text>
   </g>
   <g id="text_2">
    <text style="fill: #262626; font: 10px 'Arial', 'Liberation Sans', 'DejaVu Sans', 'Bitstream Vera Sans', sans-serif; text-anchor: middle" x="290.468582" y="206.385575" transform="rotate(-0 290.468582 206.385575)">94.2%</text>
   </g>
   <g id="text_3">
    <text style="fill: #262626; font: 10px 'Arial', 'Liberation Sans', 'DejaVu Sans', 'Bitstream Vera Sans', sans-serif; text-anchor: start" x="512.974268" y="247.073265" transform="rotate(-0 512.974268 247.073265)">chicago_pd</text>
   </g>
   <g id="text_4">
    <text style="fill: #262626; font: 10px 'Arial', 'Liberation Sans', 'DejaVu Sans', 'Bitstream Vera Sans', sans-serif; text-anchor: middle" x="447.531419" y="235.106298" transform="rotate(-0 447.531419 235.106298)">5.8%</text>
   </g>
   <g id="text_5">
    <text style="fill: #262626; font: 12px 'Arial', 'Liberation Sans', 'DejaVu Sans', 'Bitstream Vera Sans', sans-serif; text-anchor: middle" x="369" y="45.84" transform="rotate(-0 369 45.84)">Incidents by Source</text>
   </g>
  </g>
 </g>
</svg>
