<?xml version="1.0" encoding="utf-8" standalone="no"?>
<!DOCTYPE svg PUBLIC "-//W3C//DTD SVG 1.1//EN"
  "http://www.w3.org/Graphics/SVG/1.1/DTD/svg11.dtd">
<svg xmlns:xlink="http://www.w3.org/1999/xlink" width="720pt" height="432pt" viewBox="0 0 720 432" xmlns="http://www.w3.org/2000/svg" version="1.1">
 <metadata>
  <rdf:RDF xmlns:dc="http://purl.org/dc/elements/1.1/" xmlns:cc="http://creativecommons.org/ns#" xmlns:rdf="http://www.w3.org/1999/02/22-rdf-syntax-ns#">
   <cc:Work>
    <dc:type rdf:resource="http://purl.org/dc/dcmitype/StillImage"/>
    <dc:date>2026-01-13T02:01:49.505519</dc:date>
    <dc:format>image/svg+xml</dc:format>
    <dc:creator>
     <cc:Agent>
      <dc:title>Matplotlib v3.7.5, https://matplotlib.org/</dc:title>
     </cc:Agent>
    </dc:creator>
   </cc:Work>
  </rdf:RDF>
 </metadata>
 <defs>
  <style type="text/css">*{stroke-linejoin: round; stroke-linecap: butt}</style>
 </defs>
 <g id="figure_1">
  <g id="patch_1">
   <path d="M 0 432 
L 720 432 
L 720 0 
L 0 0 
z
" style="fill: #ffffff"/>
  </g>
  <g id="axes_1">
   <g id="matplotlib.axis_1"/>
   <g id="matplotlib.axis_2"/>
   <g id="patch_2">
    <path d="M 502.056 218.16 
C 502.056 200.708898 498.622773 183.427065 491.952323 167.301122 
C 485.281872 151.175179 475.5036 136.517956 463.175747 124.166235 
C 450.847894 111.814515 436.209612 102.00791 420.096601 95.30628 
C 403.983591 88.604651 386.708431 85.138003 369.257361 85.104249 
C 351.806292 85.070494 334.517851 88.470288 318.379036 95.109534 
C 302.24022 101.748781 287.564111 111.498685 275.188569 123.802623 
C 262.813026 136.106562 252.978126 150.725848 246.245343 166.825866 
C 239.51256 182.925884 236.012504 200.194307 235.944996 217.645278 
C 235.877487 235.096249 239.243834 252.391234 245.851852 268.542861 
C 252.45987 284.694488 262.181368 299.389428 274.461347 311.788746 
C 286.741325 324.188064 301.341561 334.051224 317.428526 340.815135 
C 333.515491 347.579047 350.777112 351.112497 368.22792 351.21376 
C 385.678728 351.315023 402.980192 347.982135 419.14457 341.40537 
C 435.308948 334.828606 450.022664 325.135549 462.445711 312.879576 
C 474.868759 300.623604 484.76014 286.042473 491.555155 269.968621 
C 498.35017 253.894769 501.917001 236.640016 502.052018 219.189436 
L 369 218.16 
z
" style="fill: #f77189"/>
   </g>
   <g id="patch_3">
    <path d="M 502.052018 219.189436 
C 502.053332 219.019567 502.054321 218.849695 502.054985 218.679822 
C 502.055648 218.509949 502.055987 218.340075 502.056 218.170201 
L 369 218.16 
z
" style="fill: #bb9832"/>
   </g>
   <g id="patch_4">
    <path d="M 502.056 218.170201 
C 502.056 218.168502 502.056 218.166804 502.056 218.165105 
C 502.056 218.163406 502.056 218.161707 502.056 218.160009 
L 369 218.16 
z
" style="fill: #50b131"/>
   </g>
   <g id="text_1">
    <text style="fill: #262626; font: 10px 'Arial', 'Liberation Sans', 'DejaVu Sans', 'Bitstream Vera Sans', sans-serif; text-anchor: end" x="222.639495" y="220.179743" transform="rotate(-0 222.639495 220.179743)">newsapi</text>
   </g>
   <g id="text_2">
    <text style="fill: #262626; font: 10px 'Arial', 'Liberation Sans', 'DejaVu Sans', 'Bitstream Vera Sans', sans-serif; text-anchor: middle" x="289.166997" y="220.437104" transform="rotate(-0 289.166997 220.437104)">99.9%</text>
   </g>
   <g id="text_3">
    <text style="fill: #262626; font: 10px 'Arial', 'Liberation Sans', 'DejaVu Sans', 'Bitstream Vera Sans', sans-serif; text-anchor: start" x="515.360483" y="221.317742" transform="rotate(-0 515.360483 221.317742)">chicago_pd</text>
   </g>
   <g id="text_4">
    <text style="fill: #262626; font: 10px 'Arial', 'Liberation Sans', 'DejaVu Sans', 'Bitstream Vera Sans', sans-serif; text-anchor: middle" x="448.832991" y="221.057831" transform="rotate(-0 448.832991 221.057831)">0.1%</text>
   </g>
   <g id="text_5">
    <text style="fill: #262626; font: 10px 'Arial', 'Liberation Sans', 'DejaVu Sans', 'Bitstream Vera Sans', sans-serif; text-anchor: start" x="515.3616" y="220.751553" transform="rotate(-0 515.3616 220.751553)">chicago_police</text>
   </g>
   <g id="text_6">
    <text style="fill: #262626; font: 10px 'Arial', 'Liberation Sans', 'DejaVu Sans', 'Bitstream Vera Sans', sans-serif; text-anchor: middle" x="448.8336" y="220.749" transform="rotate(-0 448.8336 220.749)">0.0%</text>
   </g>
   <g id="text_7">
    <text style="fill: #262626; font: 12px 'Arial', 'Liberation Sans', 'DejaVu Sans', 'Bitstream Vera Sans', sans-serif; text-anchor: middle" x="369" y="45.84" transform="rotate(-0 369 45.84)">Incidents by Source</text>
   </g>
  </g>
 </g>
</svg>
