<?xml version="1.0" encoding="utf-8" standalone="no"?>
<!DOCTYPE svg PUBLIC "-//W3C//DTD SVG 1.1//EN"
  "http://www.w3.org/Graphics/SVG/1.1/DTD/svg11.dtd">
<svg xmlns:xlink="http://www.w3.org/1999/xlink" width="720pt" height="432pt" viewBox="0 0 720 432" xmlns="http://www.w3.org/2000/svg" version="1.1">
 <metadata>
  <rdf:RDF xmlns:dc="http://purl.org/dc/elements/1.1/" xmlns:cc="http://creativecommons.org/ns#" xmlns:rdf="http://www.w3.org/1999/02/22-rdf-syntax-ns#">
   <cc:Work>
    <dc:type rdf:resource="http://purl.org/dc/dcmitype/StillImage"/>
    <dc:date>2025-03-23T01:49:43.699255</dc:date>
    <dc:format>image/svg+xml</dc:format>
    <dc:creator>
     <cc:Agent>
      <dc:title>Matplotlib v3.7.5, https://matplotlib.org/</dc:title>
     </cc:Agent>
    </dc:creator>
   </cc:Work>
  </rdf:RDF>
 </metadata>
 <defs>
  <style type="text/css">*{stroke-linejoin: round; stroke-linecap: butt}</style>
 </defs>
 <g id="figure_1">
  <g id="patch_1">
   <path d="M 0 432 
L 720 432 
L 720 0 
L 0 0 
z
" style="fill: #ffffff"/>
  </g>
  <g id="axes_1">
   <g id="matplotlib.axis_1"/>
   <g id="matplotlib.axis_2"/>
   <g id="patch_2">
    <path d="M 502.056 218.16 
C 502.056 200.768416 498.646151 183.544371 492.019819 167.464603 
C 485.393487 151.384835 475.678339 136.75915 463.425299 124.416936 
C 451.17226 112.074723 436.617406 102.253776 420.58611 95.511019 
C 404.554814 88.768263 387.355948 85.233609 369.96482 85.107498 
C 352.573693 84.981388 335.325376 88.266251 319.197982 94.775811 
C 303.070588 101.285371 288.37484 110.894209 275.944101 123.05743 
C 263.513362 135.220651 253.587133 149.703909 246.728307 165.68589 
C 239.869481 181.667871 236.210207 198.840654 235.957992 216.23041 
C 235.705778 233.620166 238.865483 250.891849 245.257929 267.066021 
C 251.650374 283.240194 261.152397 298.005231 273.22516 310.523842 
C 285.297923 323.042452 299.708823 333.073442 315.640649 340.047976 
C 331.572475 347.022511 348.718272 350.806213 366.105742 351.184518 
C 383.493211 351.562823 400.787352 348.528442 417.007453 342.253447 
C 433.227553 335.978453 448.061104 326.583744 460.666927 314.602074 
C 473.272751 302.620403 483.407974 288.28262 490.497851 272.401787 
C 497.587727 256.520954 501.495658 239.403043 502.000034 222.018774 
L 369 218.16 
z
" style="fill: #f77189"/>
   </g>
   <g id="patch_3">
    <path d="M 502.000034 222.018774 
C 502.018503 221.382192 502.032402 220.745485 502.041729 220.108702 
C 502.051056 219.47192 502.055812 218.835079 502.055995 218.198229 
L 369 218.16 
z
" style="fill: #bb9832"/>
   </g>
   <g id="patch_4">
    <path d="M 502.055995 218.198229 
C 502.055996 218.19186 502.055998 218.185492 502.055999 218.179123 
C 502.056 218.172755 502.056 218.166386 502.056 218.160018 
L 369 218.16 
z
" style="fill: #50b131"/>
   </g>
   <g id="text_1">
    <text style="fill: #262626; font: 10px 'Arial', 'Liberation Sans', 'DejaVu Sans', 'Bitstream Vera Sans', sans-serif; text-anchor: end" x="222.653792" y="218.623389" transform="rotate(-0 222.653792 218.623389)">newsapi</text>
   </g>
   <g id="text_2">
    <text style="fill: #262626; font: 10px 'Arial', 'Liberation Sans', 'DejaVu Sans', 'Bitstream Vera Sans', sans-serif; text-anchor: middle" x="289.174795" y="219.588184" transform="rotate(-0 289.174795 219.588184)">99.5%</text>
   </g>
   <g id="text_3">
    <text style="fill: #262626; font: 10px 'Arial', 'Liberation Sans', 'DejaVu Sans', 'Bitstream Vera Sans', sans-serif; text-anchor: start" x="515.345902" y="222.88951" transform="rotate(-0 515.345902 222.88951)">chicago_pd</text>
   </g>
   <g id="text_4">
    <text style="fill: #262626; font: 10px 'Arial', 'Liberation Sans', 'DejaVu Sans', 'Bitstream Vera Sans', sans-serif; text-anchor: middle" x="448.825037" y="221.915159" transform="rotate(-0 448.825037 221.915159)">0.5%</text>
   </g>
   <g id="text_5">
    <text style="fill: #262626; font: 10px 'Arial', 'Liberation Sans', 'DejaVu Sans', 'Bitstream Vera Sans', sans-serif; text-anchor: start" x="515.361598" y="220.766973" transform="rotate(-0 515.361598 220.766973)">chicago_police</text>
   </g>
   <g id="text_6">
    <text style="fill: #262626; font: 10px 'Arial', 'Liberation Sans', 'DejaVu Sans', 'Bitstream Vera Sans', sans-serif; text-anchor: middle" x="448.833599" y="220.757412" transform="rotate(-0 448.833599 220.757412)">0.0%</text>
   </g>
   <g id="text_7">
    <text style="fill: #262626; font: 12px 'Arial', 'Liberation Sans', 'DejaVu Sans', 'Bitstream Vera Sans', sans-serif; text-anchor: middle" x="369" y="45.84" transform="rotate(-0 369 45.84)">Incidents by Source</text>
   </g>
  </g>
 </g>
</svg>
