<?xml version="1.0" encoding="utf-8" standalone="no"?>
<!DOCTYPE svg PUBLIC "-//W3C//DTD SVG 1.1//EN"
  "http://www.w3.org/Graphics/SVG/1.1/DTD/svg11.dtd">
<svg xmlns:xlink="http://www.w3.org/1999/xlink" width="720pt" height="432pt" viewBox="0 0 720 432" xmlns="http://www.w3.org/2000/svg" version="1.1">
 <metadata>
  <rdf:RDF xmlns:dc="http://purl.org/dc/elements/1.1/" xmlns:cc="http://creativecommons.org/ns#" xmlns:rdf="http://www.w3.org/1999/02/22-rdf-syntax-ns#">
   <cc:Work>
    <dc:type rdf:resource="http://purl.org/dc/dcmitype/StillImage"/>
    <dc:date>2026-02-28T12:56:34.174379</dc:date>
    <dc:format>image/svg+xml</dc:format>
    <dc:creator>
     <cc:Agent>
      <dc:title>Matplotlib v3.7.5, https://matplotlib.org/</dc:title>
     </cc:Agent>
    </dc:creator>
   </cc:Work>
  </rdf:RDF>
 </metadata>
 <defs>
  <style type="text/css">*{stroke-linejoin: round; stroke-linecap: butt}</style>
 </defs>
 <g id="figure_1">
  <g id="patch_1">
   <path d="M 0 432 
L 720 432 
L 720 0 
L 0 0 
z
" style="fill: #ffffff"/>
  </g>
  <g id="axes_1">
   <g id="matplotlib.axis_1"/>
   <g id="matplotlib.axis_2"/>
   <g id="patch_2">
    <path d="M 502.056 218.16 
C 502.056 200.706583 498.621862 183.422502 491.949693 167.294765 
C 485.277524 151.167027 475.496792 136.508581 463.166026 124.156497 
C 450.835261 111.804413 436.193732 101.998374 420.077544 95.298356 
C 403.961356 88.598337 386.683234 85.134348 369.229843 85.104199 
C 351.776452 85.074049 334.486465 88.478325 318.347225 95.122625 
C 302.207986 101.766925 287.532667 111.522321 275.159301 123.831731 
C 262.785935 136.141141 252.954619 150.765709 246.226771 166.870299 
C 239.498923 182.974889 236.005092 200.247003 235.944794 217.700315 
C 235.884496 235.153628 239.2589 252.44947 245.875311 268.600163 
C 252.491722 284.750855 262.221753 299.443004 274.50977 311.837615 
C 286.797788 324.232226 301.405351 334.08879 317.498296 340.844447 
C 333.59124 347.600104 350.857292 351.123766 368.310475 351.214213 
C 385.763657 351.304661 403.065303 347.960139 419.2274 341.371637 
C 435.389498 334.783134 450.098433 325.078497 462.514252 312.811909 
C 474.930071 300.54532 484.811853 285.954805 491.595299 269.873554 
C 498.378746 253.792304 501.932228 236.532364 502.052824 219.079364 
L 369 218.16 
z
" style="fill: #f77189"/>
   </g>
   <g id="patch_3">
    <path d="M 502.052824 219.079364 
C 502.053872 218.927653 502.054661 218.775941 502.05519 218.624227 
C 502.055719 218.472514 502.055989 218.3208 502.056 218.169085 
L 369 218.16 
z
" style="fill: #bb9832"/>
   </g>
   <g id="patch_4">
    <path d="M 502.056 218.169085 
C 502.056 218.167568 502.056 218.166051 502.056 218.164534 
C 502.056 218.163017 502.056 218.1615 502.056 218.159982 
L 369 218.16 
z
" style="fill: #50b131"/>
   </g>
   <g id="text_1">
    <text style="fill: #262626; font: 10px 'Arial', 'Liberation Sans', 'DejaVu Sans', 'Bitstream Vera Sans', sans-serif; text-anchor: end" x="222.639273" y="220.240284" transform="rotate(-0 222.639273 220.240284)">newsapi</text>
   </g>
   <g id="text_2">
    <text style="fill: #262626; font: 10px 'Arial', 'Liberation Sans', 'DejaVu Sans', 'Bitstream Vera Sans', sans-serif; text-anchor: middle" x="289.166876" y="220.470127" transform="rotate(-0 289.166876 220.470127)">99.9%</text>
   </g>
   <g id="text_3">
    <text style="fill: #262626; font: 10px 'Arial', 'Liberation Sans', 'DejaVu Sans', 'Bitstream Vera Sans', sans-serif; text-anchor: start" x="515.360709" y="221.256587" transform="rotate(-0 515.360709 221.256587)">chicago_pd</text>
   </g>
   <g id="text_4">
    <text style="fill: #262626; font: 10px 'Arial', 'Liberation Sans', 'DejaVu Sans', 'Bitstream Vera Sans', sans-serif; text-anchor: middle" x="448.833114" y="221.024474" transform="rotate(-0 448.833114 221.024474)">0.1%</text>
   </g>
   <g id="text_5">
    <text style="fill: #262626; font: 10px 'Arial', 'Liberation Sans', 'DejaVu Sans', 'Bitstream Vera Sans', sans-serif; text-anchor: start" x="515.3616" y="220.750925" transform="rotate(-0 515.3616 220.750925)">chicago_police</text>
   </g>
   <g id="text_6">
    <text style="fill: #262626; font: 10px 'Arial', 'Liberation Sans', 'DejaVu Sans', 'Bitstream Vera Sans', sans-serif; text-anchor: middle" x="448.8336" y="220.748658" transform="rotate(-0 448.8336 220.748658)">0.0%</text>
   </g>
   <g id="text_7">
    <text style="fill: #262626; font: 12px 'Arial', 'Liberation Sans', 'DejaVu Sans', 'Bitstream Vera Sans', sans-serif; text-anchor: middle" x="369" y="45.84" transform="rotate(-0 369 45.84)">Incidents by Source</text>
   </g>
  </g>
 </g>
</svg>
