<?xml version="1.0" encoding="utf-8" standalone="no"?>
<!DOCTYPE svg PUBLIC "-//W3C//DTD SVG 1.1//EN"
  "http://www.w3.org/Graphics/SVG/1.1/DTD/svg11.dtd">
<svg xmlns:xlink="http://www.w3.org/1999/xlink" width="720pt" height="432pt" viewBox="0 0 720 432" xmlns="http://www.w3.org/2000/svg" version="1.1">
 <metadata>
  <rdf:RDF xmlns:dc="http://purl.org/dc/elements/1.1/" xmlns:cc="http://creativecommons.org/ns#" xmlns:rdf="http://www.w3.org/1999/02/22-rdf-syntax-ns#">
   <cc:Work>
    <dc:type rdf:resource="http://purl.org/dc/dcmitype/StillImage"/>
    <dc:date>2026-04-13T03:27:00.576277</dc:date>
    <dc:format>image/svg+xml</dc:format>
    <dc:creator>
     <cc:Agent>
      <dc:title>Matplotlib v3.7.5, https://matplotlib.org/</dc:title>
     </cc:Agent>
    </dc:creator>
   </cc:Work>
  </rdf:RDF>
 </metadata>
 <defs>
  <style type="text/css">*{stroke-linejoin: round; stroke-linecap: butt}</style>
 </defs>
 <g id="figure_1">
  <g id="patch_1">
   <path d="M 0 432 
L 720 432 
L 720 0 
L 0 0 
z
" style="fill: #ffffff"/>
  </g>
  <g id="axes_1">
   <g id="matplotlib.axis_1"/>
   <g id="matplotlib.axis_2"/>
   <g id="patch_2">
    <path d="M 502.056 218.16 
C 502.056 200.705271 498.621346 183.419916 491.948202 167.291162 
C 485.275059 151.162407 475.492933 136.503268 463.160517 124.150978 
C 450.8281 111.798688 436.184731 101.992971 420.066743 95.293866 
C 403.948754 88.59476 386.668952 85.132278 369.214246 85.104172 
C 351.759539 85.076067 334.468677 88.482884 318.329198 95.130049 
C 302.189719 101.777213 287.514848 111.535722 275.142716 123.848233 
C 262.770585 136.160744 252.941302 150.788305 246.216252 166.895485 
C 239.491203 183.002666 236.000901 200.27687 235.94469 217.731509 
C 235.888479 235.186148 239.26745 252.482474 245.888618 268.632635 
C 252.509787 284.782796 262.244653 299.473361 274.537227 311.865302 
C 286.8298 324.257243 301.441515 334.110066 317.537846 340.861043 
C 333.634178 347.612019 350.90274 351.130131 368.357265 351.214448 
C 385.81179 351.298764 403.113535 347.947648 419.274336 341.352493 
C 435.435138 334.757338 450.141359 325.046139 462.553077 312.773534 
C 474.964796 300.50093 484.841134 285.905099 491.61802 269.819659 
C 498.394906 253.734219 501.940819 236.471344 502.05324 219.016977 
L 369 218.16 
z
" style="fill: #f77189"/>
   </g>
   <g id="patch_3">
    <path d="M 502.05324 219.016977 
C 502.054151 218.875567 502.054836 218.734155 502.055296 218.592743 
C 502.055756 218.45133 502.055991 218.309917 502.056 218.168504 
L 369 218.16 
z
" style="fill: #bb9832"/>
   </g>
   <g id="patch_4">
    <path d="M 502.056 218.168504 
C 502.056 218.16709 502.056 218.165675 502.056 218.164261 
C 502.056 218.162847 502.056 218.161433 502.056 218.160019 
L 369 218.16 
z
" style="fill: #50b131"/>
   </g>
   <g id="text_1">
    <text style="fill: #262626; font: 10px 'Arial', 'Liberation Sans', 'DejaVu Sans', 'Bitstream Vera Sans', sans-serif; text-anchor: end" x="222.639159" y="220.274597" transform="rotate(-0 222.639159 220.274597)">newsapi</text>
   </g>
   <g id="text_2">
    <text style="fill: #262626; font: 10px 'Arial', 'Liberation Sans', 'DejaVu Sans', 'Bitstream Vera Sans', sans-serif; text-anchor: middle" x="289.166814" y="220.488843" transform="rotate(-0 289.166814 220.488843)">99.9%</text>
   </g>
   <g id="text_3">
    <text style="fill: #262626; font: 10px 'Arial', 'Liberation Sans', 'DejaVu Sans', 'Bitstream Vera Sans', sans-serif; text-anchor: start" x="515.360826" y="221.221955" transform="rotate(-0 515.360826 221.221955)">chicago_pd</text>
   </g>
   <g id="text_4">
    <text style="fill: #262626; font: 10px 'Arial', 'Liberation Sans', 'DejaVu Sans', 'Bitstream Vera Sans', sans-serif; text-anchor: middle" x="448.833178" y="221.005583" transform="rotate(-0 448.833178 221.005583)">0.1%</text>
   </g>
   <g id="text_5">
    <text style="fill: #262626; font: 10px 'Arial', 'Liberation Sans', 'DejaVu Sans', 'Bitstream Vera Sans', sans-serif; text-anchor: start" x="515.3616" y="220.750625" transform="rotate(-0 515.3616 220.750625)">chicago_police</text>
   </g>
   <g id="text_6">
    <text style="fill: #262626; font: 10px 'Arial', 'Liberation Sans', 'DejaVu Sans', 'Bitstream Vera Sans', sans-serif; text-anchor: middle" x="448.8336" y="220.748494" transform="rotate(-0 448.8336 220.748494)">0.0%</text>
   </g>
   <g id="text_7">
    <text style="fill: #262626; font: 12px 'Arial', 'Liberation Sans', 'DejaVu Sans', 'Bitstream Vera Sans', sans-serif; text-anchor: middle" x="369" y="45.84" transform="rotate(-0 369 45.84)">Incidents by Source</text>
   </g>
  </g>
 </g>
</svg>
