<?xml version="1.0" encoding="utf-8" standalone="no"?>
<!DOCTYPE svg PUBLIC "-//W3C//DTD SVG 1.1//EN"
  "http://www.w3.org/Graphics/SVG/1.1/DTD/svg11.dtd">
<svg xmlns:xlink="http://www.w3.org/1999/xlink" width="720pt" height="432pt" viewBox="0 0 720 432" xmlns="http://www.w3.org/2000/svg" version="1.1">
 <metadata>
  <rdf:RDF xmlns:dc="http://purl.org/dc/elements/1.1/" xmlns:cc="http://creativecommons.org/ns#" xmlns:rdf="http://www.w3.org/1999/02/22-rdf-syntax-ns#">
   <cc:Work>
    <dc:type rdf:resource="http://purl.org/dc/dcmitype/StillImage"/>
    <dc:date>2025-08-24T02:00:47.414741</dc:date>
    <dc:format>image/svg+xml</dc:format>
    <dc:creator>
     <cc:Agent>
      <dc:title>Matplotlib v3.7.5, https://matplotlib.org/</dc:title>
     </cc:Agent>
    </dc:creator>
   </cc:Work>
  </rdf:RDF>
 </metadata>
 <defs>
  <style type="text/css">*{stroke-linejoin: round; stroke-linecap: butt}</style>
 </defs>
 <g id="figure_1">
  <g id="patch_1">
   <path d="M 0 432 
L 720 432 
L 720 0 
L 0 0 
z
" style="fill: #ffffff"/>
  </g>
  <g id="axes_1">
   <g id="matplotlib.axis_1"/>
   <g id="matplotlib.axis_2"/>
   <g id="patch_2">
    <path d="M 502.056 218.16 
C 502.056 200.720564 498.627362 183.450057 491.965569 167.333158 
C 485.303777 151.216258 475.53789 136.565203 463.224712 124.215321 
C 450.911534 111.86544 436.289611 102.055989 420.192611 95.346256 
C 404.095611 88.636523 386.835385 85.156496 369.396027 85.104589 
C 351.956668 85.052683 334.676032 88.429902 318.539376 95.043695 
C 302.40272 101.657488 287.722662 111.379724 275.336187 123.656089 
C 262.949711 135.932454 253.096783 150.525117 246.339169 166.602074 
C 239.581555 182.679032 236.05017 199.928823 235.946357 217.36795 
C 235.842545 234.807077 239.168315 252.097688 245.73405 268.253958 
C 252.299784 284.410228 261.978283 299.119158 274.217728 311.542118 
C 286.457172 323.965078 301.020443 333.861395 317.077216 340.666831 
C 333.13399 347.472267 350.373194 351.054978 367.811934 351.210696 
C 385.250675 351.366414 402.551108 348.092122 418.726849 341.574503 
C 434.902589 335.056885 449.640261 325.422209 462.099595 313.219794 
C 474.55893 301.01738 484.498549 286.483628 491.351746 270.447182 
C 498.204943 254.410735 501.838949 237.182271 502.04657 219.744071 
L 369 218.16 
z
" style="fill: #f77189"/>
   </g>
   <g id="patch_3">
    <path d="M 502.04657 219.744071 
C 502.049682 219.482686 502.052024 219.221292 502.053596 218.959893 
C 502.055167 218.698494 502.055968 218.437091 502.055999 218.175688 
L 369 218.16 
z
" style="fill: #bb9832"/>
   </g>
   <g id="patch_4">
    <path d="M 502.055999 218.175688 
C 502.055999 218.173073 502.056 218.170459 502.056 218.167845 
C 502.056 218.165231 502.056 218.162617 502.056 218.160003 
L 369 218.16 
z
" style="fill: #50b131"/>
   </g>
   <g id="text_1">
    <text style="fill: #262626; font: 10px 'Arial', 'Liberation Sans', 'DejaVu Sans', 'Bitstream Vera Sans', sans-serif; text-anchor: end" x="222.640993" y="219.874683" transform="rotate(-0 222.640993 219.874683)">newsapi</text>
   </g>
   <g id="text_2">
    <text style="fill: #262626; font: 10px 'Arial', 'Liberation Sans', 'DejaVu Sans', 'Bitstream Vera Sans', sans-serif; text-anchor: middle" x="289.167814" y="220.270708" transform="rotate(-0 289.167814 220.270708)">99.8%</text>
   </g>
   <g id="text_3">
    <text style="fill: #262626; font: 10px 'Arial', 'Liberation Sans', 'DejaVu Sans', 'Bitstream Vera Sans', sans-serif; text-anchor: start" x="515.358955" y="221.62582" transform="rotate(-0 515.358955 221.62582)">chicago_pd</text>
   </g>
   <g id="text_4">
    <text style="fill: #262626; font: 10px 'Arial', 'Liberation Sans', 'DejaVu Sans', 'Bitstream Vera Sans', sans-serif; text-anchor: middle" x="448.832157" y="221.225873" transform="rotate(-0 448.832157 221.225873)">0.2%</text>
   </g>
   <g id="text_5">
    <text style="fill: #262626; font: 10px 'Arial', 'Liberation Sans', 'DejaVu Sans', 'Bitstream Vera Sans', sans-serif; text-anchor: start" x="515.3616" y="220.754567" transform="rotate(-0 515.3616 220.754567)">chicago_police</text>
   </g>
   <g id="text_6">
    <text style="fill: #262626; font: 10px 'Arial', 'Liberation Sans', 'DejaVu Sans', 'Bitstream Vera Sans', sans-serif; text-anchor: middle" x="448.8336" y="220.750645" transform="rotate(-0 448.8336 220.750645)">0.0%</text>
   </g>
   <g id="text_7">
    <text style="fill: #262626; font: 12px 'Arial', 'Liberation Sans', 'DejaVu Sans', 'Bitstream Vera Sans', sans-serif; text-anchor: middle" x="369" y="45.84" transform="rotate(-0 369 45.84)">Incidents by Source</text>
   </g>
  </g>
 </g>
</svg>
