<?xml version="1.0" encoding="utf-8" standalone="no"?>
<!DOCTYPE svg PUBLIC "-//W3C//DTD SVG 1.1//EN"
  "http://www.w3.org/Graphics/SVG/1.1/DTD/svg11.dtd">
<svg xmlns:xlink="http://www.w3.org/1999/xlink" width="720pt" height="432pt" viewBox="0 0 720 432" xmlns="http://www.w3.org/2000/svg" version="1.1">
 <metadata>
  <rdf:RDF xmlns:dc="http://purl.org/dc/elements/1.1/" xmlns:cc="http://creativecommons.org/ns#" xmlns:rdf="http://www.w3.org/1999/02/22-rdf-syntax-ns#">
   <cc:Work>
    <dc:type rdf:resource="http://purl.org/dc/dcmitype/StillImage"/>
    <dc:date>2026-07-12T02:08:23.071102</dc:date>
    <dc:format>image/svg+xml</dc:format>
    <dc:creator>
     <cc:Agent>
      <dc:title>Matplotlib v3.7.5, https://matplotlib.org/</dc:title>
     </cc:Agent>
    </dc:creator>
   </cc:Work>
  </rdf:RDF>
 </metadata>
 <defs>
  <style type="text/css">*{stroke-linejoin: round; stroke-linecap: butt}</style>
 </defs>
 <g id="figure_1">
  <g id="patch_1">
   <path d="M 0 432 
L 720 432 
L 720 0 
L 0 0 
z
" style="fill: #ffffff"/>
  </g>
  <g id="axes_1">
   <g id="matplotlib.axis_1"/>
   <g id="matplotlib.axis_2"/>
   <g id="patch_2">
    <path d="M 502.056 218.16 
C 502.056 200.702373 498.620205 183.414205 491.94491 167.283205 
C 485.269614 151.152204 475.484411 136.491535 463.148347 124.138791 
C 450.812284 111.786046 436.164851 101.981041 420.042886 95.283953 
C 403.920921 88.586866 386.637412 85.127712 369.179801 85.104121 
C 351.722189 85.080531 334.429394 88.492961 318.289388 95.146452 
C 302.149382 101.799943 287.475503 111.565327 275.106101 123.884686 
C 262.736698 136.204046 252.911907 150.838216 246.19304 166.951116 
C 239.474173 183.064017 235.991667 200.342836 235.944486 217.800399 
C 235.897304 235.257963 239.286363 252.555353 245.918038 268.704335 
C 252.549713 284.853318 262.295259 299.540379 274.597892 311.926418 
C 286.900525 324.312457 301.521406 334.157014 317.625212 340.897648 
C 333.729019 347.638283 351.003116 351.144135 368.4606 351.214907 
C 385.918083 351.285679 403.220038 347.919997 419.377967 341.310151 
C 435.535896 334.700304 450.236113 324.974614 462.638766 312.68873 
C 475.041418 300.402845 484.905723 285.795281 491.668113 269.700598 
C 498.430503 253.605915 501.959694 236.336571 502.054056 218.879199 
L 369 218.16 
z
" style="fill: #f77189"/>
   </g>
   <g id="patch_3">
    <path d="M 502.054056 218.879199 
C 502.054698 218.760524 502.05518 218.641848 502.055504 218.523172 
C 502.055828 218.404496 502.055993 218.285819 502.056 218.167142 
L 369 218.16 
z
" style="fill: #bb9832"/>
   </g>
   <g id="patch_4">
    <path d="M 502.056 218.167142 
C 502.056 218.165955 502.056 218.164769 502.056 218.163582 
C 502.056 218.162395 502.056 218.161208 502.056 218.160022 
L 369 218.16 
z
" style="fill: #50b131"/>
   </g>
   <g id="text_1">
    <text style="fill: #262626; font: 10px 'Arial', 'Liberation Sans', 'DejaVu Sans', 'Bitstream Vera Sans', sans-serif; text-anchor: end" x="222.638935" y="220.350377" transform="rotate(-0 222.638935 220.350377)">newsapi</text>
   </g>
   <g id="text_2">
    <text style="fill: #262626; font: 10px 'Arial', 'Liberation Sans', 'DejaVu Sans', 'Bitstream Vera Sans', sans-serif; text-anchor: middle" x="289.166692" y="220.530177" transform="rotate(-0 289.166692 220.530177)">99.9%</text>
   </g>
   <g id="text_3">
    <text style="fill: #262626; font: 10px 'Arial', 'Liberation Sans', 'DejaVu Sans', 'Bitstream Vera Sans', sans-serif; text-anchor: start" x="515.361055" y="221.145426" transform="rotate(-0 515.361055 221.145426)">chicago_pd</text>
   </g>
   <g id="text_4">
    <text style="fill: #262626; font: 10px 'Arial', 'Liberation Sans', 'DejaVu Sans', 'Bitstream Vera Sans', sans-serif; text-anchor: middle" x="448.833303" y="220.963841" transform="rotate(-0 448.833303 220.963841)">0.1%</text>
   </g>
   <g id="text_5">
    <text style="fill: #262626; font: 10px 'Arial', 'Liberation Sans', 'DejaVu Sans', 'Bitstream Vera Sans', sans-serif; text-anchor: start" x="515.3616" y="220.749878" transform="rotate(-0 515.3616 220.749878)">chicago_police</text>
   </g>
   <g id="text_6">
    <text style="fill: #262626; font: 10px 'Arial', 'Liberation Sans', 'DejaVu Sans', 'Bitstream Vera Sans', sans-serif; text-anchor: middle" x="448.8336" y="220.748087" transform="rotate(-0 448.8336 220.748087)">0.0%</text>
   </g>
   <g id="text_7">
    <text style="fill: #262626; font: 12px 'Arial', 'Liberation Sans', 'DejaVu Sans', 'Bitstream Vera Sans', sans-serif; text-anchor: middle" x="369" y="45.84" transform="rotate(-0 369 45.84)">Incidents by Source</text>
   </g>
  </g>
 </g>
</svg>
