<?xml version="1.0" encoding="utf-8" standalone="no"?>
<!DOCTYPE svg PUBLIC "-//W3C//DTD SVG 1.1//EN"
  "http://www.w3.org/Graphics/SVG/1.1/DTD/svg11.dtd">
<svg xmlns:xlink="http://www.w3.org/1999/xlink" width="720pt" height="432pt" viewBox="0 0 720 432" xmlns="http://www.w3.org/2000/svg" version="1.1">
 <metadata>
  <rdf:RDF xmlns:dc="http://purl.org/dc/elements/1.1/" xmlns:cc="http://creativecommons.org/ns#" xmlns:rdf="http://www.w3.org/1999/02/22-rdf-syntax-ns#">
   <cc:Work>
    <dc:type rdf:resource="http://purl.org/dc/dcmitype/StillImage"/>
    <dc:date>2024-12-20T12:39:05.549012</dc:date>
    <dc:format>image/svg+xml</dc:format>
    <dc:creator>
     <cc:Agent>
      <dc:title>Matplotlib v3.7.5, https://matplotlib.org/</dc:title>
     </cc:Agent>
    </dc:creator>
   </cc:Work>
  </rdf:RDF>
 </metadata>
 <defs>
  <style type="text/css">*{stroke-linejoin: round; stroke-linecap: butt}</style>
 </defs>
 <g id="figure_1">
  <g id="patch_1">
   <path d="M 0 432 
L 720 432 
L 720 0 
L 0 0 
z
" style="fill: #ffffff"/>
  </g>
  <g id="axes_1">
   <g id="matplotlib.axis_1"/>
   <g id="matplotlib.axis_2"/>
   <g id="patch_2">
    <path d="M 502.056 218.16 
C 502.056 201.190363 498.809601 184.376346 492.492213 168.626451 
C 486.174825 152.876555 476.902316 138.479652 465.175701 126.213637 
C 453.449087 113.947623 439.483445 104.037471 424.033373 97.018649 
C 408.583301 89.999827 391.932169 86.001068 374.979677 85.238434 
C 358.027185 84.475801 341.08426 86.96328 325.066368 92.566469 
C 309.048475 98.169657 294.249401 106.785785 281.468774 117.949304 
C 268.688146 129.112823 258.160376 142.618981 250.454303 157.73801 
C 242.74823 172.857039 238.005192 189.311638 236.481466 206.212729 
C 234.95774 223.113819 236.681274 240.151416 241.558939 256.404937 
C 246.436605 272.658459 254.378942 287.829799 264.956807 301.099214 
C 275.534672 314.368628 288.554055 325.492743 303.311489 333.870495 
C 318.068923 342.248247 334.293741 347.72598 351.109277 350.00772 
C 367.924813 352.289459 385.022653 351.333354 401.47896 347.191067 
C 417.935268 343.04878 433.448216 335.796284 447.179604 325.825448 
C 460.910992 315.854612 472.608972 303.348312 481.641475 288.982294 
C 490.673977 274.616275 496.875336 258.654026 499.910478 241.958023 
L 369 218.16 
z
" style="fill: #f77189"/>
   </g>
   <g id="patch_3">
    <path d="M 499.910478 241.958023 
C 500.616778 238.072736 501.149762 234.157932 501.507846 230.225237 
C 501.865929 226.292543 502.048758 222.345855 502.055789 218.396898 
L 369 218.16 
z
" style="fill: #bb9832"/>
   </g>
   <g id="patch_4">
    <path d="M 502.055789 218.396898 
C 502.055859 218.357415 502.055912 218.317932 502.055947 218.278449 
C 502.055982 218.238966 502.056 218.199483 502.056 218.16 
L 369 218.16 
z
" style="fill: #50b131"/>
   </g>
   <g id="text_1">
    <text style="fill: #262626; font: 10px 'Arial', 'Liberation Sans', 'DejaVu Sans', 'Bitstream Vera Sans', sans-serif; text-anchor: end" x="223.229613" y="207.603939" transform="rotate(-0 223.229613 207.603939)">newsapi</text>
   </g>
   <g id="text_2">
    <text style="fill: #262626; font: 10px 'Arial', 'Liberation Sans', 'DejaVu Sans', 'Bitstream Vera Sans', sans-serif; text-anchor: middle" x="289.48888" y="213.577575" transform="rotate(-0 289.48888 213.577575)">97.1%</text>
   </g>
   <g id="text_3">
    <text style="fill: #262626; font: 10px 'Arial', 'Liberation Sans', 'DejaVu Sans', 'Bitstream Vera Sans', sans-serif; text-anchor: start" x="514.75863" y="234.017698" transform="rotate(-0 514.75863 234.017698)">chicago_pd</text>
   </g>
   <g id="text_4">
    <text style="fill: #262626; font: 10px 'Arial', 'Liberation Sans', 'DejaVu Sans', 'Bitstream Vera Sans', sans-serif; text-anchor: middle" x="448.504707" y="227.98508" transform="rotate(-0 448.504707 227.98508)">2.8%</text>
   </g>
   <g id="text_5">
    <text style="fill: #262626; font: 10px 'Arial', 'Liberation Sans', 'DejaVu Sans', 'Bitstream Vera Sans', sans-serif; text-anchor: start" x="515.361542" y="220.876231" transform="rotate(-0 515.361542 220.876231)">chicago_police</text>
   </g>
   <g id="text_6">
    <text style="fill: #262626; font: 10px 'Arial', 'Liberation Sans', 'DejaVu Sans', 'Bitstream Vera Sans', sans-serif; text-anchor: middle" x="448.833568" y="220.817007" transform="rotate(-0 448.833568 220.817007)">0.0%</text>
   </g>
   <g id="text_7">
    <text style="fill: #262626; font: 12px 'Arial', 'Liberation Sans', 'DejaVu Sans', 'Bitstream Vera Sans', sans-serif; text-anchor: middle" x="369" y="45.84" transform="rotate(-0 369 45.84)">Incidents by Source</text>
   </g>
  </g>
 </g>
</svg>
