<?xml version="1.0" encoding="utf-8" standalone="no"?>
<!DOCTYPE svg PUBLIC "-//W3C//DTD SVG 1.1//EN"
  "http://www.w3.org/Graphics/SVG/1.1/DTD/svg11.dtd">
<svg xmlns:xlink="http://www.w3.org/1999/xlink" width="720pt" height="432pt" viewBox="0 0 720 432" xmlns="http://www.w3.org/2000/svg" version="1.1">
 <metadata>
  <rdf:RDF xmlns:dc="http://purl.org/dc/elements/1.1/" xmlns:cc="http://creativecommons.org/ns#" xmlns:rdf="http://www.w3.org/1999/02/22-rdf-syntax-ns#">
   <cc:Work>
    <dc:type rdf:resource="http://purl.org/dc/dcmitype/StillImage"/>
    <dc:date>2026-06-18T15:36:51.526829</dc:date>
    <dc:format>image/svg+xml</dc:format>
    <dc:creator>
     <cc:Agent>
      <dc:title>Matplotlib v3.7.5, https://matplotlib.org/</dc:title>
     </cc:Agent>
    </dc:creator>
   </cc:Work>
  </rdf:RDF>
 </metadata>
 <defs>
  <style type="text/css">*{stroke-linejoin: round; stroke-linecap: butt}</style>
 </defs>
 <g id="figure_1">
  <g id="patch_1">
   <path d="M 0 432 
L 720 432 
L 720 0 
L 0 0 
z
" style="fill: #ffffff"/>
  </g>
  <g id="axes_1">
   <g id="matplotlib.axis_1"/>
   <g id="matplotlib.axis_2"/>
   <g id="patch_2">
    <path d="M 502.056 218.16 
C 502.056 200.703055 498.620474 183.41555 491.945685 167.285078 
C 485.270896 151.154606 475.486417 136.494297 463.151213 124.14166 
C 450.816008 111.789023 436.169532 101.983849 420.048503 95.286287 
C 403.927474 88.588724 386.644838 85.128787 369.18791 85.104133 
C 351.730983 85.079479 334.438643 88.490587 318.298761 95.142589 
C 302.158879 101.79459 287.484766 111.558355 275.11472 123.876102 
C 262.744675 136.193849 252.918826 150.826463 246.198503 166.938017 
C 239.47818 183.049572 235.993838 200.327305 235.944531 217.78418 
C 235.895223 235.241055 239.281907 252.538195 245.911108 268.687455 
C 252.540309 284.836716 262.28334 299.524603 274.583605 311.912032 
C 286.88387 324.299461 301.502593 334.145965 317.60464 340.889035 
C 333.706687 347.632106 350.979482 351.140844 368.43627 351.214806 
C 385.893058 351.288767 403.194964 347.926515 419.353571 341.320128 
C 435.512177 334.71374 450.21381 324.991462 462.618598 312.708703 
C 475.023386 300.425945 484.890525 285.821143 491.656329 269.728635 
C 498.422133 253.636126 501.955262 236.368304 502.053877 218.911638 
L 369 218.16 
z
" style="fill: #f77189"/>
   </g>
   <g id="patch_3">
    <path d="M 502.053877 218.911638 
C 502.054578 218.787607 502.055105 218.663575 502.055459 218.539543 
C 502.055812 218.415511 502.055993 218.291478 502.056 218.167445 
L 369 218.16 
z
" style="fill: #bb9832"/>
   </g>
   <g id="patch_4">
    <path d="M 502.056 218.167445 
C 502.056 218.166205 502.056 218.164965 502.056 218.163724 
C 502.056 218.162484 502.056 218.161244 502.056 218.160003 
L 369 218.16 
z
" style="fill: #50b131"/>
   </g>
   <g id="text_1">
    <text style="fill: #262626; font: 10px 'Arial', 'Liberation Sans', 'DejaVu Sans', 'Bitstream Vera Sans', sans-serif; text-anchor: end" x="222.638984" y="220.332535" transform="rotate(-0 222.638984 220.332535)">newsapi</text>
   </g>
   <g id="text_2">
    <text style="fill: #262626; font: 10px 'Arial', 'Liberation Sans', 'DejaVu Sans', 'Bitstream Vera Sans', sans-serif; text-anchor: middle" x="289.166718" y="220.520445" transform="rotate(-0 289.166718 220.520445)">99.9%</text>
   </g>
   <g id="text_3">
    <text style="fill: #262626; font: 10px 'Arial', 'Liberation Sans', 'DejaVu Sans', 'Bitstream Vera Sans', sans-serif; text-anchor: start" x="515.361005" y="221.163435" transform="rotate(-0 515.361005 221.163435)">chicago_pd</text>
   </g>
   <g id="text_4">
    <text style="fill: #262626; font: 10px 'Arial', 'Liberation Sans', 'DejaVu Sans', 'Bitstream Vera Sans', sans-serif; text-anchor: middle" x="448.833275" y="220.973663" transform="rotate(-0 448.833275 220.973663)">0.1%</text>
   </g>
   <g id="text_5">
    <text style="fill: #262626; font: 10px 'Arial', 'Liberation Sans', 'DejaVu Sans', 'Bitstream Vera Sans', sans-serif; text-anchor: start" x="515.3616" y="220.750034" transform="rotate(-0 515.3616 220.750034)">chicago_police</text>
   </g>
   <g id="text_6">
    <text style="fill: #262626; font: 10px 'Arial', 'Liberation Sans', 'DejaVu Sans', 'Bitstream Vera Sans', sans-serif; text-anchor: middle" x="448.8336" y="220.748172" transform="rotate(-0 448.8336 220.748172)">0.0%</text>
   </g>
   <g id="text_7">
    <text style="fill: #262626; font: 12px 'Arial', 'Liberation Sans', 'DejaVu Sans', 'Bitstream Vera Sans', sans-serif; text-anchor: middle" x="369" y="45.84" transform="rotate(-0 369 45.84)">Incidents by Source</text>
   </g>
  </g>
 </g>
</svg>
