<?xml version="1.0" encoding="utf-8" standalone="no"?>
<!DOCTYPE svg PUBLIC "-//W3C//DTD SVG 1.1//EN"
  "http://www.w3.org/Graphics/SVG/1.1/DTD/svg11.dtd">
<svg xmlns:xlink="http://www.w3.org/1999/xlink" width="720pt" height="432pt" viewBox="0 0 720 432" xmlns="http://www.w3.org/2000/svg" version="1.1">
 <metadata>
  <rdf:RDF xmlns:dc="http://purl.org/dc/elements/1.1/" xmlns:cc="http://creativecommons.org/ns#" xmlns:rdf="http://www.w3.org/1999/02/22-rdf-syntax-ns#">
   <cc:Work>
    <dc:type rdf:resource="http://purl.org/dc/dcmitype/StillImage"/>
    <dc:date>2026-02-03T13:12:50.607269</dc:date>
    <dc:format>image/svg+xml</dc:format>
    <dc:creator>
     <cc:Agent>
      <dc:title>Matplotlib v3.7.5, https://matplotlib.org/</dc:title>
     </cc:Agent>
    </dc:creator>
   </cc:Work>
  </rdf:RDF>
 </metadata>
 <defs>
  <style type="text/css">*{stroke-linejoin: round; stroke-linecap: butt}</style>
 </defs>
 <g id="figure_1">
  <g id="patch_1">
   <path d="M 0 432 
L 720 432 
L 720 0 
L 0 0 
z
" style="fill: #ffffff"/>
  </g>
  <g id="axes_1">
   <g id="matplotlib.axis_1"/>
   <g id="matplotlib.axis_2"/>
   <g id="patch_2">
    <path d="M 502.056 218.16 
C 502.056 200.707732 498.622314 183.424766 491.950998 167.297919 
C 485.279681 151.171072 475.50017 136.513232 463.170849 124.161328 
C 450.841529 111.809425 436.201611 102.003105 420.087 95.302287 
C 403.972388 88.601469 386.695735 85.136161 369.243496 85.104223 
C 351.791257 85.072285 334.502037 88.474336 318.363008 95.116129 
C 302.223979 101.757922 287.548267 111.510593 275.173821 123.817288 
C 262.799375 136.123983 252.96628 150.745931 246.235984 166.848253 
C 239.505687 182.950575 236.008767 200.220857 235.944891 217.673009 
C 235.881015 235.12516 239.251421 252.420577 245.863668 268.571734 
C 252.475915 284.72289 262.201713 299.416425 274.485742 311.813372 
C 286.769771 324.210319 301.373699 334.070156 317.463677 340.829909 
C 333.553656 347.589662 350.81751 351.118181 368.269515 351.213995 
C 385.72152 351.309809 403.023076 347.971059 419.186306 341.388381 
C 435.349537 334.805702 450.060845 325.10681 462.480252 312.845488 
C 474.899658 300.584167 484.786204 285.998307 491.575391 269.920726 
C 498.364578 253.843145 501.924684 236.585777 502.052435 219.133976 
L 369 218.16 
z
" style="fill: #f77189"/>
   </g>
   <g id="patch_3">
    <path d="M 502.052435 219.133976 
C 502.053612 218.973255 502.054497 218.812532 502.055091 218.651808 
C 502.055685 218.491084 502.055988 218.330359 502.056 218.169634 
L 369 218.16 
z
" style="fill: #bb9832"/>
   </g>
   <g id="patch_4">
    <path d="M 502.056 218.169634 
C 502.056 218.168026 502.056 218.166419 502.056 218.164812 
C 502.056 218.163205 502.056 218.161597 502.056 218.15999 
L 369 218.16 
z
" style="fill: #50b131"/>
   </g>
   <g id="text_1">
    <text style="fill: #262626; font: 10px 'Arial', 'Liberation Sans', 'DejaVu Sans', 'Bitstream Vera Sans', sans-serif; text-anchor: end" x="222.63938" y="220.210247" transform="rotate(-0 222.63938 220.210247)">newsapi</text>
   </g>
   <g id="text_2">
    <text style="fill: #262626; font: 10px 'Arial', 'Liberation Sans', 'DejaVu Sans', 'Bitstream Vera Sans', sans-serif; text-anchor: middle" x="289.166935" y="220.453743" transform="rotate(-0 289.166935 220.453743)">99.9%</text>
   </g>
   <g id="text_3">
    <text style="fill: #262626; font: 10px 'Arial', 'Liberation Sans', 'DejaVu Sans', 'Bitstream Vera Sans', sans-serif; text-anchor: start" x="515.3606" y="221.286927" transform="rotate(-0 515.3606 221.286927)">chicago_pd</text>
   </g>
   <g id="text_4">
    <text style="fill: #262626; font: 10px 'Arial', 'Liberation Sans', 'DejaVu Sans', 'Bitstream Vera Sans', sans-serif; text-anchor: middle" x="448.833055" y="221.041022" transform="rotate(-0 448.833055 221.041022)">0.1%</text>
   </g>
   <g id="text_5">
    <text style="fill: #262626; font: 10px 'Arial', 'Liberation Sans', 'DejaVu Sans', 'Bitstream Vera Sans', sans-serif; text-anchor: start" x="515.3616" y="220.751231" transform="rotate(-0 515.3616 220.751231)">chicago_police</text>
   </g>
   <g id="text_6">
    <text style="fill: #262626; font: 10px 'Arial', 'Liberation Sans', 'DejaVu Sans', 'Bitstream Vera Sans', sans-serif; text-anchor: middle" x="448.8336" y="220.748825" transform="rotate(-0 448.8336 220.748825)">0.0%</text>
   </g>
   <g id="text_7">
    <text style="fill: #262626; font: 12px 'Arial', 'Liberation Sans', 'DejaVu Sans', 'Bitstream Vera Sans', sans-serif; text-anchor: middle" x="369" y="45.84" transform="rotate(-0 369 45.84)">Incidents by Source</text>
   </g>
  </g>
 </g>
</svg>
