<?xml version="1.0" encoding="utf-8" standalone="no"?>
<!DOCTYPE svg PUBLIC "-//W3C//DTD SVG 1.1//EN"
  "http://www.w3.org/Graphics/SVG/1.1/DTD/svg11.dtd">
<svg xmlns:xlink="http://www.w3.org/1999/xlink" width="720pt" height="432pt" viewBox="0 0 720 432" xmlns="http://www.w3.org/2000/svg" version="1.1">
 <metadata>
  <rdf:RDF xmlns:dc="http://purl.org/dc/elements/1.1/" xmlns:cc="http://creativecommons.org/ns#" xmlns:rdf="http://www.w3.org/1999/02/22-rdf-syntax-ns#">
   <cc:Work>
    <dc:type rdf:resource="http://purl.org/dc/dcmitype/StillImage"/>
    <dc:date>2026-05-18T04:07:10.385293</dc:date>
    <dc:format>image/svg+xml</dc:format>
    <dc:creator>
     <cc:Agent>
      <dc:title>Matplotlib v3.7.5, https://matplotlib.org/</dc:title>
     </cc:Agent>
    </dc:creator>
   </cc:Work>
  </rdf:RDF>
 </metadata>
 <defs>
  <style type="text/css">*{stroke-linejoin: round; stroke-linecap: butt}</style>
 </defs>
 <g id="figure_1">
  <g id="patch_1">
   <path d="M 0 432 
L 720 432 
L 720 0 
L 0 0 
z
" style="fill: #ffffff"/>
  </g>
  <g id="axes_1">
   <g id="matplotlib.axis_1"/>
   <g id="matplotlib.axis_2"/>
   <g id="patch_2">
    <path d="M 502.056 218.16 
C 502.056 200.704095 498.620883 183.417599 491.946866 167.287933 
C 485.272849 151.158267 475.489475 136.498507 463.155579 124.146032 
C 450.821683 111.793558 436.176664 101.988129 420.057062 95.289843 
C 403.93746 88.591556 386.656154 85.130424 369.200268 85.104151 
C 351.744383 85.077877 334.452736 88.486972 318.313043 95.136703 
C 302.17335 101.786435 287.498881 111.547733 275.127856 123.863023 
C 262.756832 136.178313 252.929372 150.808556 246.20683 166.918058 
C 239.484289 183.027561 235.99715 200.303638 235.944603 217.759464 
C 235.892056 235.21529 239.27512 252.512048 245.900552 268.661732 
C 252.525983 284.811415 262.265183 299.50056 274.561839 311.890107 
C 286.858495 324.279654 301.47393 334.129123 317.573295 340.875904 
C 333.672661 347.622685 350.94347 351.135823 368.399197 351.214644 
C 385.854924 351.293464 403.156755 347.936438 419.316392 341.335321 
C 435.47603 334.734205 450.179816 325.017125 462.587858 312.739131 
C 474.995899 300.461137 484.867356 285.860544 491.638361 269.771352 
C 498.409366 253.682159 501.948495 236.416657 502.053589 218.961069 
L 369 218.16 
z
" style="fill: #f77189"/>
   </g>
   <g id="patch_3">
    <path d="M 502.053589 218.961069 
C 502.054384 218.828881 502.054983 218.696693 502.055385 218.564504 
C 502.055787 218.432315 502.055992 218.300125 502.056 218.167935 
L 369 218.16 
z
" style="fill: #bb9832"/>
   </g>
   <g id="patch_4">
    <path d="M 502.056 218.167935 
C 502.056 218.166613 502.056 218.165291 502.056 218.16397 
C 502.056 218.162648 502.056 218.161326 502.056 218.160004 
L 369 218.16 
z
" style="fill: #50b131"/>
   </g>
   <g id="text_1">
    <text style="fill: #262626; font: 10px 'Arial', 'Liberation Sans', 'DejaVu Sans', 'Bitstream Vera Sans', sans-serif; text-anchor: end" x="222.639063" y="220.305348" transform="rotate(-0 222.639063 220.305348)">newsapi</text>
   </g>
   <g id="text_2">
    <text style="fill: #262626; font: 10px 'Arial', 'Liberation Sans', 'DejaVu Sans', 'Bitstream Vera Sans', sans-serif; text-anchor: middle" x="289.166762" y="220.505616" transform="rotate(-0 289.166762 220.505616)">99.9%</text>
   </g>
   <g id="text_3">
    <text style="fill: #262626; font: 10px 'Arial', 'Liberation Sans', 'DejaVu Sans', 'Bitstream Vera Sans', sans-serif; text-anchor: start" x="515.360924" y="221.190892" transform="rotate(-0 515.360924 221.190892)">chicago_pd</text>
   </g>
   <g id="text_4">
    <text style="fill: #262626; font: 10px 'Arial', 'Liberation Sans', 'DejaVu Sans', 'Bitstream Vera Sans', sans-serif; text-anchor: middle" x="448.833231" y="220.98864" transform="rotate(-0 448.833231 220.98864)">0.1%</text>
   </g>
   <g id="text_5">
    <text style="fill: #262626; font: 10px 'Arial', 'Liberation Sans', 'DejaVu Sans', 'Bitstream Vera Sans', sans-serif; text-anchor: start" x="515.3616" y="220.750304" transform="rotate(-0 515.3616 220.750304)">chicago_police</text>
   </g>
   <g id="text_6">
    <text style="fill: #262626; font: 10px 'Arial', 'Liberation Sans', 'DejaVu Sans', 'Bitstream Vera Sans', sans-serif; text-anchor: middle" x="448.8336" y="220.748319" transform="rotate(-0 448.8336 220.748319)">0.0%</text>
   </g>
   <g id="text_7">
    <text style="fill: #262626; font: 12px 'Arial', 'Liberation Sans', 'DejaVu Sans', 'Bitstream Vera Sans', sans-serif; text-anchor: middle" x="369" y="45.84" transform="rotate(-0 369 45.84)">Incidents by Source</text>
   </g>
  </g>
 </g>
</svg>
