<?xml version="1.0" encoding="utf-8" standalone="no"?>
<!DOCTYPE svg PUBLIC "-//W3C//DTD SVG 1.1//EN"
  "http://www.w3.org/Graphics/SVG/1.1/DTD/svg11.dtd">
<svg xmlns:xlink="http://www.w3.org/1999/xlink" width="720pt" height="432pt" viewBox="0 0 720 432" xmlns="http://www.w3.org/2000/svg" version="1.1">
 <metadata>
  <rdf:RDF xmlns:dc="http://purl.org/dc/elements/1.1/" xmlns:cc="http://creativecommons.org/ns#" xmlns:rdf="http://www.w3.org/1999/02/22-rdf-syntax-ns#">
   <cc:Work>
    <dc:type rdf:resource="http://purl.org/dc/dcmitype/StillImage"/>
    <dc:date>2025-06-29T06:20:02.595904</dc:date>
    <dc:format>image/svg+xml</dc:format>
    <dc:creator>
     <cc:Agent>
      <dc:title>Matplotlib v3.7.5, https://matplotlib.org/</dc:title>
     </cc:Agent>
    </dc:creator>
   </cc:Work>
  </rdf:RDF>
 </metadata>
 <defs>
  <style type="text/css">*{stroke-linejoin: round; stroke-linecap: butt}</style>
 </defs>
 <g id="figure_1">
  <g id="patch_1">
   <path d="M 0 432 
L 720 432 
L 720 0 
L 0 0 
z
" style="fill: #ffffff"/>
  </g>
  <g id="axes_1">
   <g id="matplotlib.axis_1"/>
   <g id="matplotlib.axis_2"/>
   <g id="patch_2">
    <path d="M 502.056 218.16 
C 502.056 200.729914 498.631037 183.468484 491.97618 167.358835 
C 485.321323 151.249187 475.565358 136.603078 463.263938 124.25468 
C 450.962517 111.906281 436.353701 102.094562 420.269535 95.378349 
C 404.185369 88.662136 386.93712 85.171404 369.50716 85.104967 
C 352.0772 85.03853 334.802842 88.397673 318.667944 94.991078 
C 302.533046 101.584483 287.849859 111.284551 275.454661 123.538815 
C 263.059463 135.793079 253.192132 150.36439 246.414661 166.422839 
C 239.63719 182.481288 236.080739 199.716107 235.947866 217.145687 
C 235.814993 234.575267 239.108269 251.862304 245.640126 268.022216 
C 252.171983 284.182128 261.816013 298.902182 274.022942 311.343999 
C 286.229871 323.785815 300.763465 333.708615 316.795965 340.547245 
C 332.828464 347.385876 350.049602 351.007994 367.478549 351.207301 
C 384.907496 351.406608 402.20696 348.179248 418.391652 341.709034 
C 434.576343 335.238821 449.33305 325.650968 461.821304 313.491551 
C 474.309559 301.332134 484.287683 286.836467 491.187374 270.830151 
C 498.087065 254.823834 501.774797 237.616628 502.040535 220.188567 
L 369 218.16 
z
" style="fill: #f77189"/>
   </g>
   <g id="patch_3">
    <path d="M 502.040535 220.188567 
C 502.045639 219.853849 502.04948 219.519112 502.052057 219.184364 
C 502.054634 218.849617 502.055948 218.514861 502.055998 218.180103 
L 369 218.16 
z
" style="fill: #bb9832"/>
   </g>
   <g id="patch_4">
    <path d="M 502.055998 218.180103 
C 502.055999 218.176756 502.055999 218.173408 502.056 218.170061 
C 502.056 218.166713 502.056 218.163366 502.056 218.160018 
L 369 218.16 
z
" style="fill: #50b131"/>
   </g>
   <g id="text_1">
    <text style="fill: #262626; font: 10px 'Arial', 'Liberation Sans', 'DejaVu Sans', 'Bitstream Vera Sans', sans-serif; text-anchor: end" x="222.642653" y="219.630193" transform="rotate(-0 222.642653 219.630193)">newsapi</text>
   </g>
   <g id="text_2">
    <text style="fill: #262626; font: 10px 'Arial', 'Liberation Sans', 'DejaVu Sans', 'Bitstream Vera Sans', sans-serif; text-anchor: middle" x="289.16872" y="220.13735" transform="rotate(-0 289.16872 220.13735)">99.8%</text>
   </g>
   <g id="text_3">
    <text style="fill: #262626; font: 10px 'Arial', 'Liberation Sans', 'DejaVu Sans', 'Bitstream Vera Sans', sans-serif; text-anchor: start" x="515.357262" y="221.872738" transform="rotate(-0 515.357262 221.872738)">chicago_pd</text>
   </g>
   <g id="text_4">
    <text style="fill: #262626; font: 10px 'Arial', 'Liberation Sans', 'DejaVu Sans', 'Bitstream Vera Sans', sans-serif; text-anchor: middle" x="448.831234" y="221.360556" transform="rotate(-0 448.831234 221.360556)">0.2%</text>
   </g>
   <g id="text_5">
    <text style="fill: #262626; font: 10px 'Arial', 'Liberation Sans', 'DejaVu Sans', 'Bitstream Vera Sans', sans-serif; text-anchor: start" x="515.3616" y="220.757004" transform="rotate(-0 515.3616 220.757004)">chicago_police</text>
   </g>
   <g id="text_6">
    <text style="fill: #262626; font: 10px 'Arial', 'Liberation Sans', 'DejaVu Sans', 'Bitstream Vera Sans', sans-serif; text-anchor: middle" x="448.8336" y="220.751974" transform="rotate(-0 448.8336 220.751974)">0.0%</text>
   </g>
   <g id="text_7">
    <text style="fill: #262626; font: 12px 'Arial', 'Liberation Sans', 'DejaVu Sans', 'Bitstream Vera Sans', sans-serif; text-anchor: middle" x="369" y="45.84" transform="rotate(-0 369 45.84)">Incidents by Source</text>
   </g>
  </g>
 </g>
</svg>
