<?xml version="1.0" encoding="utf-8" standalone="no"?>
<!DOCTYPE svg PUBLIC "-//W3C//DTD SVG 1.1//EN"
  "http://www.w3.org/Graphics/SVG/1.1/DTD/svg11.dtd">
<svg xmlns:xlink="http://www.w3.org/1999/xlink" width="720pt" height="432pt" viewBox="0 0 720 432" xmlns="http://www.w3.org/2000/svg" version="1.1">
 <metadata>
  <rdf:RDF xmlns:dc="http://purl.org/dc/elements/1.1/" xmlns:cc="http://creativecommons.org/ns#" xmlns:rdf="http://www.w3.org/1999/02/22-rdf-syntax-ns#">
   <cc:Work>
    <dc:type rdf:resource="http://purl.org/dc/dcmitype/StillImage"/>
    <dc:date>2026-04-24T07:54:15.323437</dc:date>
    <dc:format>image/svg+xml</dc:format>
    <dc:creator>
     <cc:Agent>
      <dc:title>Matplotlib v3.7.5, https://matplotlib.org/</dc:title>
     </cc:Agent>
    </dc:creator>
   </cc:Work>
  </rdf:RDF>
 </metadata>
 <defs>
  <style type="text/css">*{stroke-linejoin: round; stroke-linecap: butt}</style>
 </defs>
 <g id="figure_1">
  <g id="patch_1">
   <path d="M 0 432 
L 720 432 
L 720 0 
L 0 0 
z
" style="fill: #ffffff"/>
  </g>
  <g id="axes_1">
   <g id="matplotlib.axis_1"/>
   <g id="matplotlib.axis_2"/>
   <g id="patch_2">
    <path d="M 502.056 218.16 
C 502.056 200.704907 498.621203 183.419199 491.947789 167.290163 
C 485.274375 151.161127 475.491864 136.501796 463.15899 124.149448 
C 450.826115 111.797101 436.182236 101.991474 420.063749 95.292622 
C 403.945261 88.593769 386.664994 85.131705 369.209923 85.104166 
C 351.754852 85.076627 334.463747 88.484148 318.324202 95.132106 
C 302.184657 101.780065 287.50991 111.539436 275.13812 123.852807 
C 262.766331 136.166177 252.937612 150.794568 246.213338 166.902466 
C 239.489064 183.010365 235.99974 200.285149 235.944662 217.740155 
C 235.889585 235.19516 239.269821 252.49162 245.892308 268.641634 
C 252.514795 284.791647 262.251002 299.481773 274.544838 311.872974 
C 286.838674 324.264175 301.451539 334.115961 317.548809 340.86564 
C 333.646079 347.615319 350.915336 351.131893 368.370233 351.21451 
C 385.82513 351.297126 403.126902 347.944182 419.287343 341.347184 
C 435.447785 334.750185 450.153254 325.037167 462.563835 312.762896 
C 474.974417 300.488625 484.849245 285.891321 491.624313 269.80472 
C 498.39938 253.718119 501.943195 236.454432 502.05335 218.999687 
L 369 218.16 
z
" style="fill: #f77189"/>
   </g>
   <g id="patch_3">
    <path d="M 502.05335 218.999687 
C 502.054225 218.861125 502.054883 218.722563 502.055324 218.583999 
C 502.055766 218.445436 502.055991 218.306872 502.056 218.168307 
L 369 218.16 
z
" style="fill: #bb9832"/>
   </g>
   <g id="patch_4">
    <path d="M 502.056 218.168307 
C 502.056 218.166922 502.056 218.165536 502.056 218.164151 
C 502.056 218.162765 502.056 218.161379 502.056 218.159994 
L 369 218.16 
z
" style="fill: #50b131"/>
   </g>
   <g id="text_1">
    <text style="fill: #262626; font: 10px 'Arial', 'Liberation Sans', 'DejaVu Sans', 'Bitstream Vera Sans', sans-serif; text-anchor: end" x="222.639129" y="220.284108" transform="rotate(-0 222.639129 220.284108)">newsapi</text>
   </g>
   <g id="text_2">
    <text style="fill: #262626; font: 10px 'Arial', 'Liberation Sans', 'DejaVu Sans', 'Bitstream Vera Sans', sans-serif; text-anchor: middle" x="289.166797" y="220.49403" transform="rotate(-0 289.166797 220.49403)">99.9%</text>
   </g>
   <g id="text_3">
    <text style="fill: #262626; font: 10px 'Arial', 'Liberation Sans', 'DejaVu Sans', 'Bitstream Vera Sans', sans-serif; text-anchor: start" x="515.360857" y="221.212337" transform="rotate(-0 515.360857 221.212337)">chicago_pd</text>
   </g>
   <g id="text_4">
    <text style="fill: #262626; font: 10px 'Arial', 'Liberation Sans', 'DejaVu Sans', 'Bitstream Vera Sans', sans-serif; text-anchor: middle" x="448.833195" y="221.000337" transform="rotate(-0 448.833195 221.000337)">0.1%</text>
   </g>
   <g id="text_5">
    <text style="fill: #262626; font: 10px 'Arial', 'Liberation Sans', 'DejaVu Sans', 'Bitstream Vera Sans', sans-serif; text-anchor: start" x="515.3616" y="220.750503" transform="rotate(-0 515.3616 220.750503)">chicago_police</text>
   </g>
   <g id="text_6">
    <text style="fill: #262626; font: 10px 'Arial', 'Liberation Sans', 'DejaVu Sans', 'Bitstream Vera Sans', sans-serif; text-anchor: middle" x="448.8336" y="220.748428" transform="rotate(-0 448.8336 220.748428)">0.0%</text>
   </g>
   <g id="text_7">
    <text style="fill: #262626; font: 12px 'Arial', 'Liberation Sans', 'DejaVu Sans', 'Bitstream Vera Sans', sans-serif; text-anchor: middle" x="369" y="45.84" transform="rotate(-0 369 45.84)">Incidents by Source</text>
   </g>
  </g>
 </g>
</svg>
