<?xml version="1.0" encoding="utf-8" standalone="no"?>
<!DOCTYPE svg PUBLIC "-//W3C//DTD SVG 1.1//EN"
  "http://www.w3.org/Graphics/SVG/1.1/DTD/svg11.dtd">
<svg xmlns:xlink="http://www.w3.org/1999/xlink" width="720pt" height="432pt" viewBox="0 0 720 432" xmlns="http://www.w3.org/2000/svg" version="1.1">
 <metadata>
  <rdf:RDF xmlns:dc="http://purl.org/dc/elements/1.1/" xmlns:cc="http://creativecommons.org/ns#" xmlns:rdf="http://www.w3.org/1999/02/22-rdf-syntax-ns#">
   <cc:Work>
    <dc:type rdf:resource="http://purl.org/dc/dcmitype/StillImage"/>
    <dc:date>2026-01-12T12:36:06.847675</dc:date>
    <dc:format>image/svg+xml</dc:format>
    <dc:creator>
     <cc:Agent>
      <dc:title>Matplotlib v3.7.5, https://matplotlib.org/</dc:title>
     </cc:Agent>
    </dc:creator>
   </cc:Work>
  </rdf:RDF>
 </metadata>
 <defs>
  <style type="text/css">*{stroke-linejoin: round; stroke-linecap: butt}</style>
 </defs>
 <g id="figure_1">
  <g id="patch_1">
   <path d="M 0 432 
L 720 432 
L 720 0 
L 0 0 
z
" style="fill: #ffffff"/>
  </g>
  <g id="axes_1">
   <g id="matplotlib.axis_1"/>
   <g id="matplotlib.axis_2"/>
   <g id="patch_2">
    <path d="M 502.056 218.16 
C 502.056 200.708923 498.622783 183.427115 491.952351 167.301191 
C 485.281919 151.175267 475.503673 136.518058 463.175853 124.166341 
C 450.848032 111.814624 436.209785 102.008013 420.096809 95.306366 
C 403.983832 88.60472 386.708704 85.138043 369.25766 85.104249 
C 351.806617 85.070456 334.518192 88.4702 318.379381 95.109392 
C 302.240571 101.748584 287.564453 111.498428 275.188887 123.802307 
C 262.813321 136.106186 252.978381 150.725415 246.245545 166.825384 
C 239.512708 182.925352 236.012585 200.193734 235.944998 217.64468 
C 235.877411 235.095626 239.24367 252.390602 245.851597 268.542239 
C 252.459524 284.693876 262.18093 299.388846 274.460821 311.788215 
C 286.740711 324.187584 301.340868 334.050815 317.427768 340.814817 
C 333.514668 347.578818 350.77624 351.112374 368.227023 351.213755 
C 385.677805 351.315135 402.979267 347.982373 419.14367 341.405736 
C 435.308073 334.829099 450.021841 325.136168 462.444966 312.880311 
C 474.868092 300.624455 484.759577 286.043426 491.554718 269.969654 
C 498.349859 253.895882 501.916835 236.641185 502.052008 219.190632 
L 369 218.16 
z
" style="fill: #f77189"/>
   </g>
   <g id="patch_3">
    <path d="M 502.052008 219.190632 
C 502.053326 219.020562 502.054317 218.850489 502.054982 218.680415 
C 502.055647 218.510341 502.055987 218.340266 502.056 218.17019 
L 369 218.16 
z
" style="fill: #bb9832"/>
   </g>
   <g id="patch_4">
    <path d="M 502.056 218.17019 
C 502.056 218.16849 502.056 218.166789 502.056 218.165088 
C 502.056 218.163387 502.056 218.161687 502.056 218.159986 
L 369 218.16 
z
" style="fill: #50b131"/>
   </g>
   <g id="text_1">
    <text style="fill: #262626; font: 10px 'Arial', 'Liberation Sans', 'DejaVu Sans', 'Bitstream Vera Sans', sans-serif; text-anchor: end" x="222.639498" y="220.179086" transform="rotate(-0 222.639498 220.179086)">newsapi</text>
   </g>
   <g id="text_2">
    <text style="fill: #262626; font: 10px 'Arial', 'Liberation Sans', 'DejaVu Sans', 'Bitstream Vera Sans', sans-serif; text-anchor: middle" x="289.166999" y="220.436746" transform="rotate(-0 289.166999 220.436746)">99.9%</text>
   </g>
   <g id="text_3">
    <text style="fill: #262626; font: 10px 'Arial', 'Liberation Sans', 'DejaVu Sans', 'Bitstream Vera Sans', sans-serif; text-anchor: start" x="515.36048" y="221.318394" transform="rotate(-0 515.36048 221.318394)">chicago_pd</text>
   </g>
   <g id="text_4">
    <text style="fill: #262626; font: 10px 'Arial', 'Liberation Sans', 'DejaVu Sans', 'Bitstream Vera Sans', sans-serif; text-anchor: middle" x="448.832989" y="221.058186" transform="rotate(-0 448.832989 221.058186)">0.1%</text>
   </g>
   <g id="text_5">
    <text style="fill: #262626; font: 10px 'Arial', 'Liberation Sans', 'DejaVu Sans', 'Bitstream Vera Sans', sans-serif; text-anchor: start" x="515.3616" y="220.751534" transform="rotate(-0 515.3616 220.751534)">chicago_police</text>
   </g>
   <g id="text_6">
    <text style="fill: #262626; font: 10px 'Arial', 'Liberation Sans', 'DejaVu Sans', 'Bitstream Vera Sans', sans-serif; text-anchor: middle" x="448.8336" y="220.74899" transform="rotate(-0 448.8336 220.74899)">0.0%</text>
   </g>
   <g id="text_7">
    <text style="fill: #262626; font: 12px 'Arial', 'Liberation Sans', 'DejaVu Sans', 'Bitstream Vera Sans', sans-serif; text-anchor: middle" x="369" y="45.84" transform="rotate(-0 369 45.84)">Incidents by Source</text>
   </g>
  </g>
 </g>
</svg>
