<?xml version="1.0" encoding="utf-8" standalone="no"?>
<!DOCTYPE svg PUBLIC "-//W3C//DTD SVG 1.1//EN"
  "http://www.w3.org/Graphics/SVG/1.1/DTD/svg11.dtd">
<svg xmlns:xlink="http://www.w3.org/1999/xlink" width="720pt" height="432pt" viewBox="0 0 720 432" xmlns="http://www.w3.org/2000/svg" version="1.1">
 <metadata>
  <rdf:RDF xmlns:dc="http://purl.org/dc/elements/1.1/" xmlns:cc="http://creativecommons.org/ns#" xmlns:rdf="http://www.w3.org/1999/02/22-rdf-syntax-ns#">
   <cc:Work>
    <dc:type rdf:resource="http://purl.org/dc/dcmitype/StillImage"/>
    <dc:date>2025-04-28T18:19:47.564010</dc:date>
    <dc:format>image/svg+xml</dc:format>
    <dc:creator>
     <cc:Agent>
      <dc:title>Matplotlib v3.7.5, https://matplotlib.org/</dc:title>
     </cc:Agent>
    </dc:creator>
   </cc:Work>
  </rdf:RDF>
 </metadata>
 <defs>
  <style type="text/css">*{stroke-linejoin: round; stroke-linecap: butt}</style>
 </defs>
 <g id="figure_1">
  <g id="patch_1">
   <path d="M 0 432 
L 720 432 
L 720 0 
L 0 0 
z
" style="fill: #ffffff"/>
  </g>
  <g id="axes_1">
   <g id="matplotlib.axis_1"/>
   <g id="matplotlib.axis_2"/>
   <g id="patch_2">
    <path d="M 502.056 218.16 
C 502.056 200.748389 498.638294 183.504899 491.997132 167.409584 
C 485.35597 151.31427 475.6196 136.677952 463.341403 124.332505 
C 451.063206 111.987058 436.480288 102.170888 420.421489 95.44191 
C 404.362689 88.712931 387.138124 85.20109 369.726773 85.105985 
C 352.315422 85.01088 335.053521 88.334348 318.922171 94.887496 
C 302.790821 101.440644 288.101541 111.096922 275.689212 123.307504 
C 263.276884 135.518085 253.381206 150.047168 246.564613 166.068973 
C 239.748019 182.090778 236.142147 199.295904 235.951939 216.706476 
C 235.761732 234.117048 238.990864 251.396845 245.455802 267.563748 
C 251.920741 283.730651 261.496639 298.472457 273.639241 310.951296 
C 285.781842 323.430136 300.256656 333.405026 316.240989 340.309031 
C 332.225321 347.213037 349.410495 350.912833 366.819768 351.198136 
C 384.229041 351.48344 401.526219 348.348742 417.728193 341.972206 
C 433.930168 335.59567 448.724059 326.100436 461.269037 314.026178 
C 473.814014 301.951919 483.86782 287.531805 490.859031 271.585422 
C 497.850243 255.639038 501.643851 238.47433 502.024243 221.066875 
L 369 218.16 
z
" style="fill: #f77189"/>
   </g>
   <g id="patch_3">
    <path d="M 502.024243 221.066875 
C 502.034724 220.587264 502.04261 220.1076 502.047903 219.627903 
C 502.053195 219.148207 502.055893 218.668486 502.055997 218.18876 
L 369 218.16 
z
" style="fill: #bb9832"/>
   </g>
   <g id="patch_4">
    <path d="M 502.055997 218.18876 
C 502.055998 218.183963 502.055999 218.179166 502.055999 218.174369 
C 502.056 218.169571 502.056 218.164774 502.056 218.159977 
L 369 218.16 
z
" style="fill: #50b131"/>
   </g>
   <g id="text_1">
    <text style="fill: #262626; font: 10px 'Arial', 'Liberation Sans', 'DejaVu Sans', 'Bitstream Vera Sans', sans-serif; text-anchor: end" x="222.647133" y="219.147061" transform="rotate(-0 222.647133 219.147061)">newsapi</text>
   </g>
   <g id="text_2">
    <text style="fill: #262626; font: 10px 'Arial', 'Liberation Sans', 'DejaVu Sans', 'Bitstream Vera Sans', sans-serif; text-anchor: middle" x="289.171164" y="219.873823" transform="rotate(-0 289.171164 219.873823)">99.7%</text>
   </g>
   <g id="text_3">
    <text style="fill: #262626; font: 10px 'Arial', 'Liberation Sans', 'DejaVu Sans', 'Bitstream Vera Sans', sans-serif; text-anchor: start" x="515.352693" y="222.360631" transform="rotate(-0 515.352693 222.360631)">chicago_pd</text>
   </g>
   <g id="text_4">
    <text style="fill: #262626; font: 10px 'Arial', 'Liberation Sans', 'DejaVu Sans', 'Bitstream Vera Sans', sans-serif; text-anchor: middle" x="448.828742" y="221.62668" transform="rotate(-0 448.828742 221.62668)">0.3%</text>
   </g>
   <g id="text_5">
    <text style="fill: #262626; font: 10px 'Arial', 'Liberation Sans', 'DejaVu Sans', 'Bitstream Vera Sans', sans-serif; text-anchor: start" x="515.361599" y="220.761743" transform="rotate(-0 515.361599 220.761743)">chicago_police</text>
   </g>
   <g id="text_6">
    <text style="fill: #262626; font: 10px 'Arial', 'Liberation Sans', 'DejaVu Sans', 'Bitstream Vera Sans', sans-serif; text-anchor: middle" x="448.8336" y="220.754559" transform="rotate(-0 448.8336 220.754559)">0.0%</text>
   </g>
   <g id="text_7">
    <text style="fill: #262626; font: 12px 'Arial', 'Liberation Sans', 'DejaVu Sans', 'Bitstream Vera Sans', sans-serif; text-anchor: middle" x="369" y="45.84" transform="rotate(-0 369 45.84)">Incidents by Source</text>
   </g>
  </g>
 </g>
</svg>
