<?xml version="1.0" encoding="utf-8" standalone="no"?>
<!DOCTYPE svg PUBLIC "-//W3C//DTD SVG 1.1//EN"
  "http://www.w3.org/Graphics/SVG/1.1/DTD/svg11.dtd">
<svg xmlns:xlink="http://www.w3.org/1999/xlink" width="720pt" height="432pt" viewBox="0 0 720 432" xmlns="http://www.w3.org/2000/svg" version="1.1">
 <metadata>
  <rdf:RDF xmlns:dc="http://purl.org/dc/elements/1.1/" xmlns:cc="http://creativecommons.org/ns#" xmlns:rdf="http://www.w3.org/1999/02/22-rdf-syntax-ns#">
   <cc:Work>
    <dc:type rdf:resource="http://purl.org/dc/dcmitype/StillImage"/>
    <dc:date>2026-03-10T02:29:23.088367</dc:date>
    <dc:format>image/svg+xml</dc:format>
    <dc:creator>
     <cc:Agent>
      <dc:title>Matplotlib v3.7.5, https://matplotlib.org/</dc:title>
     </cc:Agent>
    </dc:creator>
   </cc:Work>
  </rdf:RDF>
 </metadata>
 <defs>
  <style type="text/css">*{stroke-linejoin: round; stroke-linecap: butt}</style>
 </defs>
 <g id="figure_1">
  <g id="patch_1">
   <path d="M 0 432 
L 720 432 
L 720 0 
L 0 0 
z
" style="fill: #ffffff"/>
  </g>
  <g id="axes_1">
   <g id="matplotlib.axis_1"/>
   <g id="matplotlib.axis_2"/>
   <g id="patch_2">
    <path d="M 502.056 218.16 
C 502.056 200.706305 498.621753 183.421955 491.949377 167.294002 
C 485.277002 151.166049 475.495975 136.507457 463.16486 124.155329 
C 450.833745 111.803201 436.191827 101.997231 420.075258 95.297405 
C 403.958689 88.59758 386.680211 85.13391 369.226541 85.104193 
C 351.772872 85.074476 334.482699 88.47929 318.34341 95.124196 
C 302.20412 101.769103 287.528895 111.525157 275.15579 123.835224 
C 262.782685 136.14529 252.9518 150.770491 246.224544 166.87563 
C 239.497289 182.980769 236.004205 200.253324 235.944771 217.706918 
C 235.885338 235.160511 239.260709 252.456456 245.878127 268.607036 
C 252.495545 284.757616 262.226599 299.44943 274.515581 311.843476 
C 286.804563 324.237522 301.413005 334.093294 317.506667 340.847961 
C 333.600328 347.602627 350.866912 351.125115 368.320378 351.214264 
C 385.773845 351.303414 403.075512 347.957496 419.237335 341.367586 
C 435.399159 334.777676 450.10752 325.07165 462.522471 312.803788 
C 474.937422 300.535926 484.818053 285.944285 491.60011 269.862148 
C 498.382168 253.78001 501.934048 236.519449 502.052914 219.066159 
L 369 218.16 
z
" style="fill: #f77189"/>
   </g>
   <g id="patch_3">
    <path d="M 502.052914 219.066159 
C 502.053933 218.916631 502.054699 218.767102 502.055213 218.617572 
C 502.055727 218.468042 502.05599 218.318511 502.056 218.16898 
L 369 218.16 
z
" style="fill: #bb9832"/>
   </g>
   <g id="patch_4">
    <path d="M 502.056 218.16898 
C 502.056 218.167485 502.056 218.16599 502.056 218.164494 
C 502.056 218.162999 502.056 218.161504 502.056 218.160009 
L 369 218.16 
z
" style="fill: #50b131"/>
   </g>
   <g id="text_1">
    <text style="fill: #262626; font: 10px 'Arial', 'Liberation Sans', 'DejaVu Sans', 'Bitstream Vera Sans', sans-serif; text-anchor: end" x="222.639249" y="220.247547" transform="rotate(-0 222.639249 220.247547)">newsapi</text>
   </g>
   <g id="text_2">
    <text style="fill: #262626; font: 10px 'Arial', 'Liberation Sans', 'DejaVu Sans', 'Bitstream Vera Sans', sans-serif; text-anchor: middle" x="289.166863" y="220.474088" transform="rotate(-0 289.166863 220.474088)">99.9%</text>
   </g>
   <g id="text_3">
    <text style="fill: #262626; font: 10px 'Arial', 'Liberation Sans', 'DejaVu Sans', 'Bitstream Vera Sans', sans-serif; text-anchor: start" x="515.360735" y="221.249267" transform="rotate(-0 515.360735 221.249267)">chicago_pd</text>
   </g>
   <g id="text_4">
    <text style="fill: #262626; font: 10px 'Arial', 'Liberation Sans', 'DejaVu Sans', 'Bitstream Vera Sans', sans-serif; text-anchor: middle" x="448.833128" y="221.020481" transform="rotate(-0 448.833128 221.020481)">0.1%</text>
   </g>
   <g id="text_5">
    <text style="fill: #262626; font: 10px 'Arial', 'Liberation Sans', 'DejaVu Sans', 'Bitstream Vera Sans', sans-serif; text-anchor: start" x="515.3616" y="220.750881" transform="rotate(-0 515.3616 220.750881)">chicago_police</text>
   </g>
   <g id="text_6">
    <text style="fill: #262626; font: 10px 'Arial', 'Liberation Sans', 'DejaVu Sans', 'Bitstream Vera Sans', sans-serif; text-anchor: middle" x="448.8336" y="220.748634" transform="rotate(-0 448.8336 220.748634)">0.0%</text>
   </g>
   <g id="text_7">
    <text style="fill: #262626; font: 12px 'Arial', 'Liberation Sans', 'DejaVu Sans', 'Bitstream Vera Sans', sans-serif; text-anchor: middle" x="369" y="45.84" transform="rotate(-0 369 45.84)">Incidents by Source</text>
   </g>
  </g>
 </g>
</svg>
