<?xml version="1.0" encoding="utf-8" standalone="no"?>
<!DOCTYPE svg PUBLIC "-//W3C//DTD SVG 1.1//EN"
  "http://www.w3.org/Graphics/SVG/1.1/DTD/svg11.dtd">
<svg xmlns:xlink="http://www.w3.org/1999/xlink" width="720pt" height="432pt" viewBox="0 0 720 432" xmlns="http://www.w3.org/2000/svg" version="1.1">
 <metadata>
  <rdf:RDF xmlns:dc="http://purl.org/dc/elements/1.1/" xmlns:cc="http://creativecommons.org/ns#" xmlns:rdf="http://www.w3.org/1999/02/22-rdf-syntax-ns#">
   <cc:Work>
    <dc:type rdf:resource="http://purl.org/dc/dcmitype/StillImage"/>
    <dc:date>2026-04-02T07:06:33.759913</dc:date>
    <dc:format>image/svg+xml</dc:format>
    <dc:creator>
     <cc:Agent>
      <dc:title>Matplotlib v3.7.5, https://matplotlib.org/</dc:title>
     </cc:Agent>
    </dc:creator>
   </cc:Work>
  </rdf:RDF>
 </metadata>
 <defs>
  <style type="text/css">*{stroke-linejoin: round; stroke-linecap: butt}</style>
 </defs>
 <g id="figure_1">
  <g id="patch_1">
   <path d="M 0 432 
L 720 432 
L 720 0 
L 0 0 
z
" style="fill: #ffffff"/>
  </g>
  <g id="axes_1">
   <g id="matplotlib.axis_1"/>
   <g id="matplotlib.axis_2"/>
   <g id="patch_2">
    <path d="M 502.056 218.16 
C 502.056 200.705579 498.621467 183.420523 491.948552 167.292008 
C 485.275637 151.163492 475.493839 136.504516 463.161811 124.152274 
C 450.829782 111.800032 436.186845 101.99424 420.069279 95.29492 
C 403.951713 88.5956 386.672306 85.132764 369.217908 85.104178 
C 351.763511 85.075593 334.472854 88.481813 318.333431 95.128305 
C 302.194009 101.774797 287.519032 111.532575 275.146611 123.844358 
C 262.774189 136.15614 252.944429 150.782998 246.218722 166.889571 
C 239.493015 182.996143 236.001885 200.269857 235.944714 217.724184 
C 235.887543 235.178511 239.265441 252.474724 245.885493 268.62501 
C 252.505544 284.775296 262.239275 299.466233 274.530779 311.858801 
C 286.822282 324.251369 301.433022 334.105071 317.528559 340.857147 
C 333.624095 347.609223 350.892067 351.128638 368.346278 351.214394 
C 385.800488 351.30015 403.102209 347.950582 419.263315 341.35699 
C 435.424421 334.763397 450.13128 325.053739 462.543962 312.782547 
C 474.956643 300.511355 484.83426 285.916772 491.612687 269.832316 
C 498.391113 253.747859 501.938804 236.485674 502.053145 219.031627 
L 369 218.16 
z
" style="fill: #f77189"/>
   </g>
   <g id="patch_3">
    <path d="M 502.053145 219.031627 
C 502.054087 218.887797 502.054796 218.743965 502.055272 218.600132 
C 502.055748 218.456299 502.05599 218.312466 502.056 218.168632 
L 369 218.16 
z
" style="fill: #bb9832"/>
   </g>
   <g id="patch_4">
    <path d="M 502.056 218.168632 
C 502.056 218.167194 502.056 218.165755 502.056 218.164317 
C 502.056 218.162879 502.056 218.16144 502.056 218.160002 
L 369 218.16 
z
" style="fill: #50b131"/>
   </g>
   <g id="text_1">
    <text style="fill: #262626; font: 10px 'Arial', 'Liberation Sans', 'DejaVu Sans', 'Bitstream Vera Sans', sans-serif; text-anchor: end" x="222.639185" y="220.26654" transform="rotate(-0 222.639185 220.26654)">newsapi</text>
   </g>
   <g id="text_2">
    <text style="fill: #262626; font: 10px 'Arial', 'Liberation Sans', 'DejaVu Sans', 'Bitstream Vera Sans', sans-serif; text-anchor: middle" x="289.166828" y="220.484448" transform="rotate(-0 289.166828 220.484448)">99.9%</text>
   </g>
   <g id="text_3">
    <text style="fill: #262626; font: 10px 'Arial', 'Liberation Sans', 'DejaVu Sans', 'Bitstream Vera Sans', sans-serif; text-anchor: start" x="515.360799" y="221.230083" transform="rotate(-0 515.360799 221.230083)">chicago_pd</text>
   </g>
   <g id="text_4">
    <text style="fill: #262626; font: 10px 'Arial', 'Liberation Sans', 'DejaVu Sans', 'Bitstream Vera Sans', sans-serif; text-anchor: middle" x="448.833163" y="221.010017" transform="rotate(-0 448.833163 221.010017)">0.1%</text>
   </g>
   <g id="text_5">
    <text style="fill: #262626; font: 10px 'Arial', 'Liberation Sans', 'DejaVu Sans', 'Bitstream Vera Sans', sans-serif; text-anchor: start" x="515.3616" y="220.750686" transform="rotate(-0 515.3616 220.750686)">chicago_police</text>
   </g>
   <g id="text_6">
    <text style="fill: #262626; font: 10px 'Arial', 'Liberation Sans', 'DejaVu Sans', 'Bitstream Vera Sans', sans-serif; text-anchor: middle" x="448.8336" y="220.748528" transform="rotate(-0 448.8336 220.748528)">0.0%</text>
   </g>
   <g id="text_7">
    <text style="fill: #262626; font: 12px 'Arial', 'Liberation Sans', 'DejaVu Sans', 'Bitstream Vera Sans', sans-serif; text-anchor: middle" x="369" y="45.84" transform="rotate(-0 369 45.84)">Incidents by Source</text>
   </g>
  </g>
 </g>
</svg>
