<?xml version="1.0" encoding="utf-8" standalone="no"?>
<!DOCTYPE svg PUBLIC "-//W3C//DTD SVG 1.1//EN"
  "http://www.w3.org/Graphics/SVG/1.1/DTD/svg11.dtd">
<svg xmlns:xlink="http://www.w3.org/1999/xlink" width="720pt" height="432pt" viewBox="0 0 720 432" xmlns="http://www.w3.org/2000/svg" version="1.1">
 <metadata>
  <rdf:RDF xmlns:dc="http://purl.org/dc/elements/1.1/" xmlns:cc="http://creativecommons.org/ns#" xmlns:rdf="http://www.w3.org/1999/02/22-rdf-syntax-ns#">
   <cc:Work>
    <dc:type rdf:resource="http://purl.org/dc/dcmitype/StillImage"/>
    <dc:date>2025-01-05T01:44:20.334597</dc:date>
    <dc:format>image/svg+xml</dc:format>
    <dc:creator>
     <cc:Agent>
      <dc:title>Matplotlib v3.7.5, https://matplotlib.org/</dc:title>
     </cc:Agent>
    </dc:creator>
   </cc:Work>
  </rdf:RDF>
 </metadata>
 <defs>
  <style type="text/css">*{stroke-linejoin: round; stroke-linecap: butt}</style>
 </defs>
 <g id="figure_1">
  <g id="patch_1">
   <path d="M 0 432 
L 720 432 
L 720 0 
L 0 0 
z
" style="fill: #ffffff"/>
  </g>
  <g id="axes_1">
   <g id="matplotlib.axis_1"/>
   <g id="matplotlib.axis_2"/>
   <g id="patch_2">
    <path d="M 502.056 218.16 
C 502.056 200.951687 498.717638 183.905665 492.226321 167.968637 
C 485.735004 152.03161 476.21317 137.50418 464.189645 125.193174 
C 452.166119 112.882168 437.867688 103.019795 422.088459 96.153793 
C 406.309231 89.28779 389.346832 85.547664 372.143321 85.141134 
C 354.939811 84.734604 337.81968 87.669338 321.733749 93.782347 
C 305.647819 99.895355 290.899499 109.071335 278.307885 120.800669 
C 265.71627 132.530003 255.518863 146.591455 248.282007 162.204077 
C 241.045152 177.816699 236.905349 194.686007 236.092516 211.875112 
C 235.279683 229.064218 237.809151 246.248901 243.540439 262.474756 
C 249.271726 278.700611 258.09673 293.661589 269.525326 306.526783 
C 280.953922 319.391978 294.770545 329.918728 310.207846 337.522397 
C 325.645147 345.126066 342.411948 349.663234 359.577054 350.881917 
C 376.74216 352.100599 393.981803 349.977809 410.338526 344.631441 
C 426.695249 339.285073 441.860533 330.815971 454.992127 319.694493 
C 468.123721 308.573014 478.973937 295.008932 486.940176 279.755569 
C 494.906414 264.502206 499.838416 247.84727 501.462268 230.715745 
L 369 218.16 
z
" style="fill: #f77189"/>
   </g>
   <g id="patch_3">
    <path d="M 501.462268 230.715745 
C 501.658082 228.649915 501.805543 226.579787 501.90453 224.50706 
C 502.003516 222.434332 502.054 220.359573 502.055942 218.284484 
L 369 218.16 
z
" style="fill: #bb9832"/>
   </g>
   <g id="patch_4">
    <path d="M 502.055942 218.284484 
C 502.055961 218.263734 502.055976 218.242984 502.055985 218.222234 
C 502.055995 218.201484 502.056 218.180734 502.056 218.159984 
L 369 218.16 
z
" style="fill: #50b131"/>
   </g>
   <g id="text_1">
    <text style="fill: #262626; font: 10px 'Arial', 'Liberation Sans', 'DejaVu Sans', 'Bitstream Vera Sans', sans-serif; text-anchor: end" x="222.801768" y="213.832561" transform="rotate(-0 222.801768 213.832561)">newsapi</text>
   </g>
   <g id="text_2">
    <text style="fill: #262626; font: 10px 'Arial', 'Liberation Sans', 'DejaVu Sans', 'Bitstream Vera Sans', sans-serif; text-anchor: middle" x="289.25551" y="216.975005" transform="rotate(-0 289.25551 216.975005)">98.5%</text>
   </g>
   <g id="text_3">
    <text style="fill: #262626; font: 10px 'Arial', 'Liberation Sans', 'DejaVu Sans', 'Bitstream Vera Sans', sans-serif; text-anchor: start" x="515.194982" y="227.727703" transform="rotate(-0 515.194982 227.727703)">chicago_pd</text>
   </g>
   <g id="text_4">
    <text style="fill: #262626; font: 10px 'Arial', 'Liberation Sans', 'DejaVu Sans', 'Bitstream Vera Sans', sans-serif; text-anchor: middle" x="448.742718" y="224.554173" transform="rotate(-0 448.742718 224.554173)">1.5%</text>
   </g>
   <g id="text_5">
    <text style="fill: #262626; font: 10px 'Arial', 'Liberation Sans', 'DejaVu Sans', 'Bitstream Vera Sans', sans-serif; text-anchor: start" x="515.361584" y="220.814395" transform="rotate(-0 515.361584 220.814395)">chicago_police</text>
   </g>
   <g id="text_6">
    <text style="fill: #262626; font: 10px 'Arial', 'Liberation Sans', 'DejaVu Sans', 'Bitstream Vera Sans', sans-serif; text-anchor: middle" x="448.833591" y="220.783278" transform="rotate(-0 448.833591 220.783278)">0.0%</text>
   </g>
   <g id="text_7">
    <text style="fill: #262626; font: 12px 'Arial', 'Liberation Sans', 'DejaVu Sans', 'Bitstream Vera Sans', sans-serif; text-anchor: middle" x="369" y="45.84" transform="rotate(-0 369 45.84)">Incidents by Source</text>
   </g>
  </g>
 </g>
</svg>
