<?xml version="1.0" encoding="utf-8" standalone="no"?>
<!DOCTYPE svg PUBLIC "-//W3C//DTD SVG 1.1//EN"
  "http://www.w3.org/Graphics/SVG/1.1/DTD/svg11.dtd">
<svg xmlns:xlink="http://www.w3.org/1999/xlink" width="720pt" height="432pt" viewBox="0 0 720 432" xmlns="http://www.w3.org/2000/svg" version="1.1">
 <metadata>
  <rdf:RDF xmlns:dc="http://purl.org/dc/elements/1.1/" xmlns:cc="http://creativecommons.org/ns#" xmlns:rdf="http://www.w3.org/1999/02/22-rdf-syntax-ns#">
   <cc:Work>
    <dc:type rdf:resource="http://purl.org/dc/dcmitype/StillImage"/>
    <dc:date>2025-02-06T12:24:08.097043</dc:date>
    <dc:format>image/svg+xml</dc:format>
    <dc:creator>
     <cc:Agent>
      <dc:title>Matplotlib v3.7.5, https://matplotlib.org/</dc:title>
     </cc:Agent>
    </dc:creator>
   </cc:Work>
  </rdf:RDF>
 </metadata>
 <defs>
  <style type="text/css">*{stroke-linejoin: round; stroke-linecap: butt}</style>
 </defs>
 <g id="figure_1">
  <g id="patch_1">
   <path d="M 0 432 
L 720 432 
L 720 0 
L 0 0 
z
" style="fill: #ffffff"/>
  </g>
  <g id="axes_1">
   <g id="matplotlib.axis_1"/>
   <g id="matplotlib.axis_2"/>
   <g id="patch_2">
    <path d="M 502.056 218.16 
C 502.056 200.820209 498.666431 183.646463 492.078383 167.60695 
C 485.490335 151.567437 475.829981 136.969344 463.641936 124.635655 
C 451.45389 112.301965 436.971576 102.468893 421.01145 95.690787 
C 405.051323 88.912681 387.919051 85.319355 370.580484 85.113387 
C 353.241916 84.907419 336.029119 88.092754 319.912483 94.489815 
C 303.795846 100.886875 289.084035 110.373146 276.606441 122.413828 
C 264.128848 134.45451 254.124444 148.819002 247.157236 164.697489 
C 240.190029 180.575977 236.393454 197.664358 235.981547 214.999256 
C 235.56964 232.334154 238.550291 249.583573 244.755461 265.775058 
C 250.960632 281.966544 260.271481 296.789999 272.163101 309.409735 
C 284.054721 322.029471 298.299363 332.203796 314.093972 339.359122 
C 329.888581 346.514448 346.930659 350.513737 364.259441 351.131524 
C 381.588223 351.749311 398.87183 348.973766 415.135881 342.961361 
C 431.399932 336.948956 446.332938 327.814841 459.093036 316.073962 
C 471.853135 304.333083 482.195945 290.210299 489.538379 274.501798 
C 496.880814 258.793297 501.082252 241.799926 501.905833 224.479705 
L 369 218.16 
z
" style="fill: #f77189"/>
   </g>
   <g id="patch_3">
    <path d="M 501.905833 224.479705 
C 501.955384 223.437624 501.992678 222.394997 502.017706 221.35204 
C 502.042734 220.309082 502.055494 219.265866 502.055985 218.222608 
L 369 218.16 
z
" style="fill: #bb9832"/>
   </g>
   <g id="patch_4">
    <path d="M 502.055985 218.222608 
C 502.05599 218.212176 502.055994 218.201743 502.055996 218.191311 
C 502.055999 218.180879 502.056 218.170446 502.056 218.160014 
L 369 218.16 
z
" style="fill: #50b131"/>
   </g>
   <g id="text_1">
    <text style="fill: #262626; font: 10px 'Arial', 'Liberation Sans', 'DejaVu Sans', 'Bitstream Vera Sans', sans-serif; text-anchor: end" x="222.679702" y="217.269119" transform="rotate(-0 222.679702 217.269119)">newsapi</text>
   </g>
   <g id="text_2">
    <text style="fill: #262626; font: 10px 'Arial', 'Liberation Sans', 'DejaVu Sans', 'Bitstream Vera Sans', sans-serif; text-anchor: middle" x="289.188928" y="218.849491" transform="rotate(-0 289.188928 218.849491)">99.2%</text>
   </g>
   <g id="text_3">
    <text style="fill: #262626; font: 10px 'Arial', 'Liberation Sans', 'DejaVu Sans', 'Bitstream Vera Sans', sans-serif; text-anchor: start" x="515.319476" y="224.257181" transform="rotate(-0 515.319476 224.257181)">chicago_pd</text>
   </g>
   <g id="text_4">
    <text style="fill: #262626; font: 10px 'Arial', 'Liberation Sans', 'DejaVu Sans', 'Bitstream Vera Sans', sans-serif; text-anchor: middle" x="448.810623" y="222.661161" transform="rotate(-0 448.810623 222.661161)">0.7%</text>
   </g>
   <g id="text_5">
    <text style="fill: #262626; font: 10px 'Arial', 'Liberation Sans', 'DejaVu Sans', 'Bitstream Vera Sans', sans-serif; text-anchor: start" x="515.361596" y="220.78038" transform="rotate(-0 515.361596 220.78038)">chicago_police</text>
   </g>
   <g id="text_6">
    <text style="fill: #262626; font: 10px 'Arial', 'Liberation Sans', 'DejaVu Sans', 'Bitstream Vera Sans', sans-serif; text-anchor: middle" x="448.833598" y="220.764724" transform="rotate(-0 448.833598 220.764724)">0.0%</text>
   </g>
   <g id="text_7">
    <text style="fill: #262626; font: 12px 'Arial', 'Liberation Sans', 'DejaVu Sans', 'Bitstream Vera Sans', sans-serif; text-anchor: middle" x="369" y="45.84" transform="rotate(-0 369 45.84)">Incidents by Source</text>
   </g>
  </g>
 </g>
</svg>
