<?xml version="1.0" encoding="utf-8" standalone="no"?>
<!DOCTYPE svg PUBLIC "-//W3C//DTD SVG 1.1//EN"
  "http://www.w3.org/Graphics/SVG/1.1/DTD/svg11.dtd">
<svg xmlns:xlink="http://www.w3.org/1999/xlink" width="720pt" height="432pt" viewBox="0 0 720 432" xmlns="http://www.w3.org/2000/svg" version="1.1">
 <metadata>
  <rdf:RDF xmlns:dc="http://purl.org/dc/elements/1.1/" xmlns:cc="http://creativecommons.org/ns#" xmlns:rdf="http://www.w3.org/1999/02/22-rdf-syntax-ns#">
   <cc:Work>
    <dc:type rdf:resource="http://purl.org/dc/dcmitype/StillImage"/>
    <dc:date>2026-03-18T06:56:32.019276</dc:date>
    <dc:format>image/svg+xml</dc:format>
    <dc:creator>
     <cc:Agent>
      <dc:title>Matplotlib v3.7.5, https://matplotlib.org/</dc:title>
     </cc:Agent>
    </dc:creator>
   </cc:Work>
  </rdf:RDF>
 </metadata>
 <defs>
  <style type="text/css">*{stroke-linejoin: round; stroke-linecap: butt}</style>
 </defs>
 <g id="figure_1">
  <g id="patch_1">
   <path d="M 0 432 
L 720 432 
L 720 0 
L 0 0 
z
" style="fill: #ffffff"/>
  </g>
  <g id="axes_1">
   <g id="matplotlib.axis_1"/>
   <g id="matplotlib.axis_2"/>
   <g id="patch_2">
    <path d="M 502.056 218.16 
C 502.056 200.706033 498.621646 183.421418 491.949068 167.293254 
C 485.27649 151.16509 475.495174 136.506353 463.163716 124.154183 
C 450.832258 111.802012 436.189958 101.996109 420.073015 95.296473 
C 403.956072 88.596837 386.677245 85.13348 369.223302 85.104187 
C 351.76936 85.074895 334.479005 88.480237 318.339666 95.125738 
C 302.200326 101.771239 287.525195 111.52794 275.152346 123.83865 
C 262.779498 136.149361 252.949034 150.775184 246.22236 166.88086 
C 239.495685 182.986537 236.003334 200.259527 235.94475 217.713396 
C 235.886165 235.167265 239.262484 252.46331 245.88089 268.613779 
C 252.499296 284.764249 262.231354 299.455734 274.521283 311.849226 
C 286.811211 324.242718 301.420515 334.097713 317.51488 340.851408 
C 333.609245 347.605102 350.876349 351.126437 368.330095 351.214314 
C 385.783841 351.30219 403.085528 347.954903 419.247083 341.363611 
C 435.408637 334.772319 450.116435 325.06493 462.530534 312.795819 
C 474.944634 300.526708 484.824134 285.933963 491.60483 269.850956 
C 498.385525 253.767948 501.935834 236.506777 502.053002 219.053203 
L 369 218.16 
z
" style="fill: #f77189"/>
   </g>
   <g id="patch_3">
    <path d="M 502.053002 219.053203 
C 502.053991 218.905814 502.054736 218.758424 502.055236 218.611032 
C 502.055735 218.46364 502.05599 218.316248 502.056 218.168856 
L 369 218.16 
z
" style="fill: #bb9832"/>
   </g>
   <g id="patch_4">
    <path d="M 502.056 218.168856 
C 502.056 218.167382 502.056 218.165908 502.056 218.164434 
C 502.056 218.16296 502.056 218.161486 502.056 218.160012 
L 369 218.16 
z
" style="fill: #50b131"/>
   </g>
   <g id="text_1">
    <text style="fill: #262626; font: 10px 'Arial', 'Liberation Sans', 'DejaVu Sans', 'Bitstream Vera Sans', sans-serif; text-anchor: end" x="222.639224" y="220.254673" transform="rotate(-0 222.639224 220.254673)">newsapi</text>
   </g>
   <g id="text_2">
    <text style="fill: #262626; font: 10px 'Arial', 'Liberation Sans', 'DejaVu Sans', 'Bitstream Vera Sans', sans-serif; text-anchor: middle" x="289.16685" y="220.477975" transform="rotate(-0 289.16685 220.477975)">99.9%</text>
   </g>
   <g id="text_3">
    <text style="fill: #262626; font: 10px 'Arial', 'Liberation Sans', 'DejaVu Sans', 'Bitstream Vera Sans', sans-serif; text-anchor: start" x="515.360759" y="221.242073" transform="rotate(-0 515.360759 221.242073)">chicago_pd</text>
   </g>
   <g id="text_4">
    <text style="fill: #262626; font: 10px 'Arial', 'Liberation Sans', 'DejaVu Sans', 'Bitstream Vera Sans', sans-serif; text-anchor: middle" x="448.833141" y="221.016557" transform="rotate(-0 448.833141 221.016557)">0.1%</text>
   </g>
   <g id="text_5">
    <text style="fill: #262626; font: 10px 'Arial', 'Liberation Sans', 'DejaVu Sans', 'Bitstream Vera Sans', sans-serif; text-anchor: start" x="515.3616" y="220.750815" transform="rotate(-0 515.3616 220.750815)">chicago_police</text>
   </g>
   <g id="text_6">
    <text style="fill: #262626; font: 10px 'Arial', 'Liberation Sans', 'DejaVu Sans', 'Bitstream Vera Sans', sans-serif; text-anchor: middle" x="448.8336" y="220.748598" transform="rotate(-0 448.8336 220.748598)">0.0%</text>
   </g>
   <g id="text_7">
    <text style="fill: #262626; font: 12px 'Arial', 'Liberation Sans', 'DejaVu Sans', 'Bitstream Vera Sans', sans-serif; text-anchor: middle" x="369" y="45.84" transform="rotate(-0 369 45.84)">Incidents by Source</text>
   </g>
  </g>
 </g>
</svg>
