<?xml version="1.0" encoding="utf-8" standalone="no"?>
<!DOCTYPE svg PUBLIC "-//W3C//DTD SVG 1.1//EN"
  "http://www.w3.org/Graphics/SVG/1.1/DTD/svg11.dtd">
<svg xmlns:xlink="http://www.w3.org/1999/xlink" width="720pt" height="432pt" viewBox="0 0 720 432" xmlns="http://www.w3.org/2000/svg" version="1.1">
 <metadata>
  <rdf:RDF xmlns:dc="http://purl.org/dc/elements/1.1/" xmlns:cc="http://creativecommons.org/ns#" xmlns:rdf="http://www.w3.org/1999/02/22-rdf-syntax-ns#">
   <cc:Work>
    <dc:type rdf:resource="http://purl.org/dc/dcmitype/StillImage"/>
    <dc:date>2026-05-08T13:19:31.216863</dc:date>
    <dc:format>image/svg+xml</dc:format>
    <dc:creator>
     <cc:Agent>
      <dc:title>Matplotlib v3.7.5, https://matplotlib.org/</dc:title>
     </cc:Agent>
    </dc:creator>
   </cc:Work>
  </rdf:RDF>
 </metadata>
 <defs>
  <style type="text/css">*{stroke-linejoin: round; stroke-linecap: butt}</style>
 </defs>
 <g id="figure_1">
  <g id="patch_1">
   <path d="M 0 432 
L 720 432 
L 720 0 
L 0 0 
z
" style="fill: #ffffff"/>
  </g>
  <g id="axes_1">
   <g id="matplotlib.axis_1"/>
   <g id="matplotlib.axis_2"/>
   <g id="patch_2">
    <path d="M 502.056 218.16 
C 502.056 200.704379 498.620995 183.418158 491.947189 167.288713 
C 485.273383 151.159267 475.49031 136.499657 463.156771 124.147227 
C 450.823233 111.794797 436.178613 101.989299 420.0594 95.290814 
C 403.940188 88.59233 386.659245 85.130872 369.203644 85.104156 
C 351.748044 85.07744 334.456586 88.485984 318.316945 95.135096 
C 302.177304 101.784207 287.502738 111.544832 275.131445 123.859451 
C 262.760153 136.174069 252.932253 150.803665 246.209106 166.912606 
C 239.485958 183.021548 235.998056 200.297173 235.944623 217.752712 
C 235.891191 235.208251 239.273267 252.504905 245.897669 268.654704 
C 252.522071 284.804503 262.260224 299.493991 274.555894 311.884116 
C 286.851564 324.274242 301.4661 334.124521 317.564733 340.872316 
C 333.663365 347.62011 350.933632 351.134449 368.389069 351.214597 
C 385.844506 351.294746 403.146316 347.939147 419.306235 341.33947 
C 435.466154 334.739794 450.170529 325.024134 462.579458 312.747442 
C 474.988388 300.47075 484.861024 285.871306 491.633449 269.78302 
C 498.405875 253.694734 501.946643 236.429866 502.053507 218.974573 
L 369 218.16 
z
" style="fill: #f77189"/>
   </g>
   <g id="patch_3">
    <path d="M 502.053507 218.974573 
C 502.054329 218.840152 502.054949 218.705731 502.055364 218.571309 
C 502.05578 218.436887 502.055992 218.302464 502.056 218.168041 
L 369 218.16 
z
" style="fill: #bb9832"/>
   </g>
   <g id="patch_4">
    <path d="M 502.056 218.168041 
C 502.056 218.166697 502.056 218.165353 502.056 218.164008 
C 502.056 218.162664 502.056 218.16132 502.056 218.159976 
L 369 218.16 
z
" style="fill: #50b131"/>
   </g>
   <g id="text_1">
    <text style="fill: #262626; font: 10px 'Arial', 'Liberation Sans', 'DejaVu Sans', 'Bitstream Vera Sans', sans-serif; text-anchor: end" x="222.639086" y="220.29792" transform="rotate(-0 222.639086 220.29792)">newsapi</text>
   </g>
   <g id="text_2">
    <text style="fill: #262626; font: 10px 'Arial', 'Liberation Sans', 'DejaVu Sans', 'Bitstream Vera Sans', sans-serif; text-anchor: middle" x="289.166774" y="220.501565" transform="rotate(-0 289.166774 220.501565)">99.9%</text>
   </g>
   <g id="text_3">
    <text style="fill: #262626; font: 10px 'Arial', 'Liberation Sans', 'DejaVu Sans', 'Bitstream Vera Sans', sans-serif; text-anchor: start" x="515.360901" y="221.198377" transform="rotate(-0 515.360901 221.198377)">chicago_pd</text>
   </g>
   <g id="text_4">
    <text style="fill: #262626; font: 10px 'Arial', 'Liberation Sans', 'DejaVu Sans', 'Bitstream Vera Sans', sans-serif; text-anchor: middle" x="448.833219" y="220.992723" transform="rotate(-0 448.833219 220.992723)">0.1%</text>
   </g>
   <g id="text_5">
    <text style="fill: #262626; font: 10px 'Arial', 'Liberation Sans', 'DejaVu Sans', 'Bitstream Vera Sans', sans-serif; text-anchor: start" x="515.3616" y="220.750347" transform="rotate(-0 515.3616 220.750347)">chicago_police</text>
   </g>
   <g id="text_6">
    <text style="fill: #262626; font: 10px 'Arial', 'Liberation Sans', 'DejaVu Sans', 'Bitstream Vera Sans', sans-serif; text-anchor: middle" x="448.8336" y="220.748343" transform="rotate(-0 448.8336 220.748343)">0.0%</text>
   </g>
   <g id="text_7">
    <text style="fill: #262626; font: 12px 'Arial', 'Liberation Sans', 'DejaVu Sans', 'Bitstream Vera Sans', sans-serif; text-anchor: middle" x="369" y="45.84" transform="rotate(-0 369 45.84)">Incidents by Source</text>
   </g>
  </g>
 </g>
</svg>
