<?xml version="1.0" encoding="utf-8" standalone="no"?>
<!DOCTYPE svg PUBLIC "-//W3C//DTD SVG 1.1//EN"
  "http://www.w3.org/Graphics/SVG/1.1/DTD/svg11.dtd">
<svg xmlns:xlink="http://www.w3.org/1999/xlink" width="720pt" height="432pt" viewBox="0 0 720 432" xmlns="http://www.w3.org/2000/svg" version="1.1">
 <metadata>
  <rdf:RDF xmlns:dc="http://purl.org/dc/elements/1.1/" xmlns:cc="http://creativecommons.org/ns#" xmlns:rdf="http://www.w3.org/1999/02/22-rdf-syntax-ns#">
   <cc:Work>
    <dc:type rdf:resource="http://purl.org/dc/dcmitype/StillImage"/>
    <dc:date>2025-02-18T06:17:35.620474</dc:date>
    <dc:format>image/svg+xml</dc:format>
    <dc:creator>
     <cc:Agent>
      <dc:title>Matplotlib v3.7.5, https://matplotlib.org/</dc:title>
     </cc:Agent>
    </dc:creator>
   </cc:Work>
  </rdf:RDF>
 </metadata>
 <defs>
  <style type="text/css">*{stroke-linejoin: round; stroke-linecap: butt}</style>
 </defs>
 <g id="figure_1">
  <g id="patch_1">
   <path d="M 0 432 
L 720 432 
L 720 0 
L 0 0 
z
" style="fill: #ffffff"/>
  </g>
  <g id="axes_1">
   <g id="matplotlib.axis_1"/>
   <g id="matplotlib.axis_2"/>
   <g id="patch_2">
    <path d="M 502.056 218.16 
C 502.056 200.801974 498.659298 183.610518 492.057782 167.556824 
C 485.456267 151.503131 475.776636 136.895308 463.565719 124.558591 
C 451.354803 112.221873 436.846956 102.393032 420.861766 95.627325 
C 404.876576 88.861618 387.720837 85.288895 370.363722 85.110989 
C 353.006608 84.933082 335.781241 88.153407 319.66073 94.590038 
C 303.54022 101.026668 288.833955 110.556071 276.372733 122.639905 
C 263.911511 134.723738 253.934492 149.130085 247.005305 165.045092 
C 240.076117 180.960099 236.327749 198.078319 235.971954 215.432699 
C 235.61616 232.787078 238.659769 250.044546 244.930838 266.23018 
C 251.201908 282.415815 260.580083 297.218976 272.535563 309.803394 
C 284.491044 322.387811 298.794377 332.51196 314.637529 339.6039 
C 330.480681 346.695841 347.559585 350.619461 364.909406 351.153106 
C 382.259228 351.68675 399.546984 348.820178 415.796042 342.715328 
C 432.0451 336.610478 446.943602 327.384517 459.649893 315.558645 
C 472.356184 303.732773 482.6264 289.533955 489.880348 273.764322 
C 497.134296 257.99469 501.232756 240.956897 501.944195 223.613456 
L 369 218.16 
z
" style="fill: #f77189"/>
   </g>
   <g id="patch_3">
    <path d="M 501.944195 223.613456 
C 501.981089 222.714044 502.008856 221.814281 502.027489 220.914305 
C 502.046123 220.014329 502.055624 219.114187 502.055989 218.214018 
L 369 218.16 
z
" style="fill: #bb9832"/>
   </g>
   <g id="patch_4">
    <path d="M 502.055989 218.214018 
C 502.055993 218.205017 502.055995 218.196015 502.055997 218.187014 
C 502.055999 218.178012 502.056 218.16901 502.056 218.160009 
L 369 218.16 
z
" style="fill: #50b131"/>
   </g>
   <g id="text_1">
    <text style="fill: #262626; font: 10px 'Arial', 'Liberation Sans', 'DejaVu Sans', 'Bitstream Vera Sans', sans-serif; text-anchor: end" x="222.66915" y="217.745906" transform="rotate(-0 222.66915 217.745906)">newsapi</text>
   </g>
   <g id="text_2">
    <text style="fill: #262626; font: 10px 'Arial', 'Liberation Sans', 'DejaVu Sans', 'Bitstream Vera Sans', sans-serif; text-anchor: middle" x="289.183173" y="219.109557" transform="rotate(-0 289.183173 219.109557)">99.3%</text>
   </g>
   <g id="text_3">
    <text style="fill: #262626; font: 10px 'Arial', 'Liberation Sans', 'DejaVu Sans', 'Bitstream Vera Sans', sans-serif; text-anchor: start" x="515.330238" y="223.775673" transform="rotate(-0 515.330238 223.775673)">chicago_pd</text>
   </g>
   <g id="text_4">
    <text style="fill: #262626; font: 10px 'Arial', 'Liberation Sans', 'DejaVu Sans', 'Bitstream Vera Sans', sans-serif; text-anchor: middle" x="448.816494" y="222.39852" transform="rotate(-0 448.816494 222.39852)">0.6%</text>
   </g>
   <g id="text_5">
    <text style="fill: #262626; font: 10px 'Arial', 'Liberation Sans', 'DejaVu Sans', 'Bitstream Vera Sans', sans-serif; text-anchor: start" x="515.361597" y="220.775653" transform="rotate(-0 515.361597 220.775653)">chicago_police</text>
   </g>
   <g id="text_6">
    <text style="fill: #262626; font: 10px 'Arial', 'Liberation Sans', 'DejaVu Sans', 'Bitstream Vera Sans', sans-serif; text-anchor: middle" x="448.833598" y="220.762146" transform="rotate(-0 448.833598 220.762146)">0.0%</text>
   </g>
   <g id="text_7">
    <text style="fill: #262626; font: 12px 'Arial', 'Liberation Sans', 'DejaVu Sans', 'Bitstream Vera Sans', sans-serif; text-anchor: middle" x="369" y="45.84" transform="rotate(-0 369 45.84)">Incidents by Source</text>
   </g>
  </g>
 </g>
</svg>
