<?xml version="1.0" encoding="utf-8" standalone="no"?>
<!DOCTYPE svg PUBLIC "-//W3C//DTD SVG 1.1//EN"
  "http://www.w3.org/Graphics/SVG/1.1/DTD/svg11.dtd">
<svg xmlns:xlink="http://www.w3.org/1999/xlink" width="720pt" height="432pt" viewBox="0 0 720 432" xmlns="http://www.w3.org/2000/svg" version="1.1">
 <metadata>
  <rdf:RDF xmlns:dc="http://purl.org/dc/elements/1.1/" xmlns:cc="http://creativecommons.org/ns#" xmlns:rdf="http://www.w3.org/1999/02/22-rdf-syntax-ns#">
   <cc:Work>
    <dc:type rdf:resource="http://purl.org/dc/dcmitype/StillImage"/>
    <dc:date>2025-04-08T01:46:05.092528</dc:date>
    <dc:format>image/svg+xml</dc:format>
    <dc:creator>
     <cc:Agent>
      <dc:title>Matplotlib v3.7.5, https://matplotlib.org/</dc:title>
     </cc:Agent>
    </dc:creator>
   </cc:Work>
  </rdf:RDF>
 </metadata>
 <defs>
  <style type="text/css">*{stroke-linejoin: round; stroke-linecap: butt}</style>
 </defs>
 <g id="figure_1">
  <g id="patch_1">
   <path d="M 0 432 
L 720 432 
L 720 0 
L 0 0 
z
" style="fill: #ffffff"/>
  </g>
  <g id="axes_1">
   <g id="matplotlib.axis_1"/>
   <g id="matplotlib.axis_2"/>
   <g id="patch_2">
    <path d="M 502.056 218.16 
C 502.056 200.758887 498.642414 183.52559 492.009028 167.438424 
C 485.375641 151.351258 475.650399 136.720511 463.385391 124.376755 
C 451.120384 112.032998 436.552178 102.214318 420.507795 95.47811 
C 404.463412 88.741901 387.252315 85.218092 369.851558 85.106725 
C 352.450802 84.995358 335.196011 88.298581 319.066721 94.828874 
C 302.93743 101.359166 288.244742 110.990573 275.822742 123.176329 
C 263.400742 135.362085 253.489027 149.867153 246.650272 165.868096 
C 239.811518 181.869038 236.17763 199.057231 235.9549 216.456918 
C 235.73217 233.856605 238.924895 251.132184 245.351826 267.302937 
C 251.778758 283.473691 261.315934 298.22772 273.42194 310.727454 
C 285.527946 323.227188 299.969281 333.231533 315.926128 340.172554 
C 331.882975 347.113574 349.047559 350.857392 366.445464 351.191476 
C 383.84337 351.525559 401.139028 348.443463 417.350583 342.120156 
C 433.562138 335.796849 448.376902 326.354294 460.953859 314.328534 
C 473.530815 302.302775 483.62738 287.925763 490.670382 272.013665 
C 497.713384 256.101568 501.566979 238.961296 502.012402 221.565885 
L 369 218.16 
z
" style="fill: #f77189"/>
   </g>
   <g id="patch_3">
    <path d="M 502.012402 221.565885 
C 502.02679 221.00398 502.037617 220.441989 502.044883 219.879946 
C 502.052149 219.317903 502.055853 218.75582 502.055996 218.193731 
L 369 218.16 
z
" style="fill: #bb9832"/>
   </g>
   <g id="patch_4">
    <path d="M 502.055996 218.193731 
C 502.055997 218.18811 502.055998 218.182489 502.055999 218.176868 
C 502.056 218.171247 502.056 218.165627 502.056 218.160006 
L 369 218.16 
z
" style="fill: #50b131"/>
   </g>
   <g id="text_1">
    <text style="fill: #262626; font: 10px 'Arial', 'Liberation Sans', 'DejaVu Sans', 'Bitstream Vera Sans', sans-serif; text-anchor: end" x="222.65039" y="218.872547" transform="rotate(-0 222.65039 218.872547)">newsapi</text>
   </g>
   <g id="text_2">
    <text style="fill: #262626; font: 10px 'Arial', 'Liberation Sans', 'DejaVu Sans', 'Bitstream Vera Sans', sans-serif; text-anchor: middle" x="289.17294" y="219.724088" transform="rotate(-0 289.17294 219.724088)">99.6%</text>
   </g>
   <g id="text_3">
    <text style="fill: #262626; font: 10px 'Arial', 'Liberation Sans', 'DejaVu Sans', 'Bitstream Vera Sans', sans-serif; text-anchor: start" x="515.349371" y="222.637878" transform="rotate(-0 515.349371 222.637878)">chicago_pd</text>
   </g>
   <g id="text_4">
    <text style="fill: #262626; font: 10px 'Arial', 'Liberation Sans', 'DejaVu Sans', 'Bitstream Vera Sans', sans-serif; text-anchor: middle" x="448.82693" y="221.777905" transform="rotate(-0 448.82693 221.777905)">0.4%</text>
   </g>
   <g id="text_5">
    <text style="fill: #262626; font: 10px 'Arial', 'Liberation Sans', 'DejaVu Sans', 'Bitstream Vera Sans', sans-serif; text-anchor: start" x="515.361599" y="220.764493" transform="rotate(-0 515.361599 220.764493)">chicago_police</text>
   </g>
   <g id="text_6">
    <text style="fill: #262626; font: 10px 'Arial', 'Liberation Sans', 'DejaVu Sans', 'Bitstream Vera Sans', sans-serif; text-anchor: middle" x="448.833599" y="220.756058" transform="rotate(-0 448.833599 220.756058)">0.0%</text>
   </g>
   <g id="text_7">
    <text style="fill: #262626; font: 12px 'Arial', 'Liberation Sans', 'DejaVu Sans', 'Bitstream Vera Sans', sans-serif; text-anchor: middle" x="369" y="45.84" transform="rotate(-0 369 45.84)">Incidents by Source</text>
   </g>
  </g>
 </g>
</svg>
