<?xml version="1.0" encoding="utf-8" standalone="no"?>
<!DOCTYPE svg PUBLIC "-//W3C//DTD SVG 1.1//EN"
  "http://www.w3.org/Graphics/SVG/1.1/DTD/svg11.dtd">
<svg xmlns:xlink="http://www.w3.org/1999/xlink" width="720pt" height="432pt" viewBox="0 0 720 432" xmlns="http://www.w3.org/2000/svg" version="1.1">
 <metadata>
  <rdf:RDF xmlns:dc="http://purl.org/dc/elements/1.1/" xmlns:cc="http://creativecommons.org/ns#" xmlns:rdf="http://www.w3.org/1999/02/22-rdf-syntax-ns#">
   <cc:Work>
    <dc:type rdf:resource="http://purl.org/dc/dcmitype/StillImage"/>
    <dc:date>2026-04-06T13:22:07.180920</dc:date>
    <dc:format>image/svg+xml</dc:format>
    <dc:creator>
     <cc:Agent>
      <dc:title>Matplotlib v3.7.5, https://matplotlib.org/</dc:title>
     </cc:Agent>
    </dc:creator>
   </cc:Work>
  </rdf:RDF>
 </metadata>
 <defs>
  <style type="text/css">*{stroke-linejoin: round; stroke-linecap: butt}</style>
 </defs>
 <g id="figure_1">
  <g id="patch_1">
   <path d="M 0 432 
L 720 432 
L 720 0 
L 0 0 
z
" style="fill: #ffffff"/>
  </g>
  <g id="axes_1">
   <g id="matplotlib.axis_1"/>
   <g id="matplotlib.axis_2"/>
   <g id="patch_2">
    <path d="M 502.056 218.16 
C 502.056 200.705455 498.621418 183.42028 491.948412 167.291668 
C 485.275405 151.163057 475.493476 136.504015 463.161291 124.151754 
C 450.829107 111.799493 436.185997 101.993731 420.068261 95.294497 
C 403.950526 88.595263 386.67096 85.132569 369.216438 85.104176 
C 351.761917 85.075783 334.471177 88.482243 318.331732 95.129005 
C 302.192287 101.775767 287.517353 111.533838 275.145048 123.845913 
C 262.772742 136.157988 252.943174 150.785128 246.217731 166.891945 
C 239.492288 182.998761 236.00149 200.272672 235.944704 217.727124 
C 235.887919 235.181576 239.266248 252.477834 245.886747 268.62807 
C 252.507247 284.778306 262.241433 299.469094 274.533367 311.86141 
C 286.8253 324.253727 301.436431 334.107076 317.532286 340.858711 
C 333.628142 347.610345 350.896351 351.129238 368.350687 351.214416 
C 385.805024 351.299594 403.106755 347.949405 419.267739 341.355185 
C 435.428722 334.760965 450.135325 325.050688 462.54762 312.77893 
C 474.959915 300.507171 484.837019 285.912087 491.614827 269.827236 
C 498.392636 253.742385 501.939613 236.479923 502.053183 219.025747 
L 369 218.16 
z
" style="fill: #f77189"/>
   </g>
   <g id="patch_3">
    <path d="M 502.053183 219.025747 
C 502.054113 218.882887 502.054812 218.740026 502.055282 218.597163 
C 502.055751 218.454301 502.055991 218.311437 502.056 218.168574 
L 369 218.16 
z
" style="fill: #bb9832"/>
   </g>
   <g id="patch_4">
    <path d="M 502.056 218.168574 
C 502.056 218.167146 502.056 218.165717 502.056 218.164288 
C 502.056 218.16286 502.056 218.161431 502.056 218.160002 
L 369 218.16 
z
" style="fill: #50b131"/>
   </g>
   <g id="text_1">
    <text style="fill: #262626; font: 10px 'Arial', 'Liberation Sans', 'DejaVu Sans', 'Bitstream Vera Sans', sans-serif; text-anchor: end" x="222.639175" y="220.269774" transform="rotate(-0 222.639175 220.269774)">newsapi</text>
   </g>
   <g id="text_2">
    <text style="fill: #262626; font: 10px 'Arial', 'Liberation Sans', 'DejaVu Sans', 'Bitstream Vera Sans', sans-serif; text-anchor: middle" x="289.166822" y="220.486212" transform="rotate(-0 289.166822 220.486212)">99.9%</text>
   </g>
   <g id="text_3">
    <text style="fill: #262626; font: 10px 'Arial', 'Liberation Sans', 'DejaVu Sans', 'Bitstream Vera Sans', sans-serif; text-anchor: start" x="515.36081" y="221.226817" transform="rotate(-0 515.36081 221.226817)">chicago_pd</text>
   </g>
   <g id="text_4">
    <text style="fill: #262626; font: 10px 'Arial', 'Liberation Sans', 'DejaVu Sans', 'Bitstream Vera Sans', sans-serif; text-anchor: middle" x="448.833169" y="221.008235" transform="rotate(-0 448.833169 221.008235)">0.1%</text>
   </g>
   <g id="text_5">
    <text style="fill: #262626; font: 10px 'Arial', 'Liberation Sans', 'DejaVu Sans', 'Bitstream Vera Sans', sans-serif; text-anchor: start" x="515.3616" y="220.750655" transform="rotate(-0 515.3616 220.750655)">chicago_police</text>
   </g>
   <g id="text_6">
    <text style="fill: #262626; font: 10px 'Arial', 'Liberation Sans', 'DejaVu Sans', 'Bitstream Vera Sans', sans-serif; text-anchor: middle" x="448.8336" y="220.748511" transform="rotate(-0 448.8336 220.748511)">0.0%</text>
   </g>
   <g id="text_7">
    <text style="fill: #262626; font: 12px 'Arial', 'Liberation Sans', 'DejaVu Sans', 'Bitstream Vera Sans', sans-serif; text-anchor: middle" x="369" y="45.84" transform="rotate(-0 369 45.84)">Incidents by Source</text>
   </g>
  </g>
 </g>
</svg>
