<?xml version="1.0" encoding="utf-8" standalone="no"?>
<!DOCTYPE svg PUBLIC "-//W3C//DTD SVG 1.1//EN"
  "http://www.w3.org/Graphics/SVG/1.1/DTD/svg11.dtd">
<svg xmlns:xlink="http://www.w3.org/1999/xlink" width="720pt" height="432pt" viewBox="0 0 720 432" xmlns="http://www.w3.org/2000/svg" version="1.1">
 <metadata>
  <rdf:RDF xmlns:dc="http://purl.org/dc/elements/1.1/" xmlns:cc="http://creativecommons.org/ns#" xmlns:rdf="http://www.w3.org/1999/02/22-rdf-syntax-ns#">
   <cc:Work>
    <dc:type rdf:resource="http://purl.org/dc/dcmitype/StillImage"/>
    <dc:date>2026-06-28T02:52:53.695795</dc:date>
    <dc:format>image/svg+xml</dc:format>
    <dc:creator>
     <cc:Agent>
      <dc:title>Matplotlib v3.7.5, https://matplotlib.org/</dc:title>
     </cc:Agent>
    </dc:creator>
   </cc:Work>
  </rdf:RDF>
 </metadata>
 <defs>
  <style type="text/css">*{stroke-linejoin: round; stroke-linecap: butt}</style>
 </defs>
 <g id="figure_1">
  <g id="patch_1">
   <path d="M 0 432 
L 720 432 
L 720 0 
L 0 0 
z
" style="fill: #ffffff"/>
  </g>
  <g id="axes_1">
   <g id="matplotlib.axis_1"/>
   <g id="matplotlib.axis_2"/>
   <g id="patch_2">
    <path d="M 502.056 218.16 
C 502.056 200.702766 498.62036 183.41498 491.945356 167.284284 
C 485.270353 151.153588 475.485566 136.493126 463.149998 124.140443 
C 450.81443 111.787761 436.167548 101.982658 420.046122 95.285297 
C 403.924696 88.587936 386.641689 85.128331 369.184472 85.104128 
C 351.727255 85.079925 334.434722 88.491593 318.294787 95.144227 
C 302.154853 101.79686 287.480839 111.561311 275.111066 123.879741 
C 262.741293 136.198172 252.915893 150.831446 246.196187 166.943571 
C 239.476481 183.055696 235.992918 200.333889 235.944512 217.791056 
C 235.896105 235.248223 239.283796 252.54547 245.914046 268.694612 
C 252.544296 284.843754 262.288393 299.531292 274.589662 311.918132 
C 286.890931 324.304971 301.510569 334.15065 317.613362 340.892687 
C 333.716155 347.634725 350.989502 351.14224 368.446585 351.214849 
C 385.903668 351.287458 403.205595 347.923752 419.363914 341.315898 
C 435.522233 334.708044 450.223266 324.984319 462.627149 312.700236 
C 475.031031 300.416152 484.896969 285.810179 491.661326 269.716748 
C 498.425682 253.623318 501.957142 236.35485 502.053954 218.897885 
L 369 218.16 
z
" style="fill: #f77189"/>
   </g>
   <g id="patch_3">
    <path d="M 502.053954 218.897885 
C 502.054629 218.776119 502.055137 218.654353 502.055478 218.532586 
C 502.055819 218.410819 502.055993 218.289052 502.056 218.167285 
L 369 218.16 
z
" style="fill: #bb9832"/>
   </g>
   <g id="patch_4">
    <path d="M 502.056 218.167285 
C 502.056 218.166067 502.056 218.164849 502.056 218.163632 
C 502.056 218.162414 502.056 218.161196 502.056 218.159979 
L 369 218.16 
z
" style="fill: #50b131"/>
   </g>
   <g id="text_1">
    <text style="fill: #262626; font: 10px 'Arial', 'Liberation Sans', 'DejaVu Sans', 'Bitstream Vera Sans', sans-serif; text-anchor: end" x="222.638963" y="220.340099" transform="rotate(-0 222.638963 220.340099)">newsapi</text>
   </g>
   <g id="text_2">
    <text style="fill: #262626; font: 10px 'Arial', 'Liberation Sans', 'DejaVu Sans', 'Bitstream Vera Sans', sans-serif; text-anchor: middle" x="289.166707" y="220.524571" transform="rotate(-0 289.166707 220.524571)">99.9%</text>
   </g>
   <g id="text_3">
    <text style="fill: #262626; font: 10px 'Arial', 'Liberation Sans', 'DejaVu Sans', 'Bitstream Vera Sans', sans-serif; text-anchor: start" x="515.361026" y="221.155782" transform="rotate(-0 515.361026 221.155782)">chicago_pd</text>
   </g>
   <g id="text_4">
    <text style="fill: #262626; font: 10px 'Arial', 'Liberation Sans', 'DejaVu Sans', 'Bitstream Vera Sans', sans-serif; text-anchor: middle" x="448.833287" y="220.969489" transform="rotate(-0 448.833287 220.969489)">0.1%</text>
   </g>
   <g id="text_5">
    <text style="fill: #262626; font: 10px 'Arial', 'Liberation Sans', 'DejaVu Sans', 'Bitstream Vera Sans', sans-serif; text-anchor: start" x="515.3616" y="220.749932" transform="rotate(-0 515.3616 220.749932)">chicago_police</text>
   </g>
   <g id="text_6">
    <text style="fill: #262626; font: 10px 'Arial', 'Liberation Sans', 'DejaVu Sans', 'Bitstream Vera Sans', sans-serif; text-anchor: middle" x="448.8336" y="220.748117" transform="rotate(-0 448.8336 220.748117)">0.0%</text>
   </g>
   <g id="text_7">
    <text style="fill: #262626; font: 12px 'Arial', 'Liberation Sans', 'DejaVu Sans', 'Bitstream Vera Sans', sans-serif; text-anchor: middle" x="369" y="45.84" transform="rotate(-0 369 45.84)">Incidents by Source</text>
   </g>
  </g>
 </g>
</svg>
