<?xml version="1.0" encoding="utf-8" standalone="no"?>
<!DOCTYPE svg PUBLIC "-//W3C//DTD SVG 1.1//EN"
  "http://www.w3.org/Graphics/SVG/1.1/DTD/svg11.dtd">
<svg xmlns:xlink="http://www.w3.org/1999/xlink" width="720pt" height="432pt" viewBox="0 0 720 432" xmlns="http://www.w3.org/2000/svg" version="1.1">
 <metadata>
  <rdf:RDF xmlns:dc="http://purl.org/dc/elements/1.1/" xmlns:cc="http://creativecommons.org/ns#" xmlns:rdf="http://www.w3.org/1999/02/22-rdf-syntax-ns#">
   <cc:Work>
    <dc:type rdf:resource="http://purl.org/dc/dcmitype/StillImage"/>
    <dc:date>2025-04-30T01:06:06.275043</dc:date>
    <dc:format>image/svg+xml</dc:format>
    <dc:creator>
     <cc:Agent>
      <dc:title>Matplotlib v3.7.5, https://matplotlib.org/</dc:title>
     </cc:Agent>
    </dc:creator>
   </cc:Work>
  </rdf:RDF>
 </metadata>
 <defs>
  <style type="text/css">*{stroke-linejoin: round; stroke-linecap: butt}</style>
 </defs>
 <g id="figure_1">
  <g id="patch_1">
   <path d="M 0 432 
L 720 432 
L 720 0 
L 0 0 
z
" style="fill: #ffffff"/>
  </g>
  <g id="axes_1">
   <g id="matplotlib.axis_1"/>
   <g id="matplotlib.axis_2"/>
   <g id="patch_2">
    <path d="M 502.056 218.16 
C 502.056 200.747812 498.638067 183.503761 491.996477 167.407998 
C 485.354887 151.312235 475.617906 136.675611 463.338983 124.330072 
C 451.06006 111.984532 436.476333 102.168501 420.41674 95.43992 
C 404.357148 88.71134 387.131842 85.200157 369.719909 85.105948 
C 352.307975 85.011738 335.045684 88.33632 318.914222 94.890726 
C 302.78276 101.445131 288.093668 111.102778 275.681873 123.314725 
C 263.270078 135.526672 253.375284 150.057075 246.559911 166.080027 
C 239.744537 182.102978 236.140207 199.309035 235.95179 216.720203 
C 235.763373 234.131372 238.994508 251.411399 245.461538 267.578088 
C 251.928567 283.744777 261.506596 298.485908 273.651209 310.963594 
C 285.795822 323.441281 300.272476 333.414548 316.258318 340.316515 
C 332.24416 347.218482 349.430463 350.915854 366.840358 351.198472 
C 384.250252 351.481091 401.547509 348.343498 417.748951 341.964034 
C 433.950394 335.584571 448.743131 326.08644 461.286345 314.009516 
C 473.829558 301.932592 483.881006 287.510111 490.869364 271.561846 
C 497.857723 255.613582 501.648028 238.447535 502.02484 221.039425 
L 369 218.16 
z
" style="fill: #f77189"/>
   </g>
   <g id="patch_3">
    <path d="M 502.02484 221.039425 
C 502.035123 220.564342 502.042862 220.089208 502.048055 219.614043 
C 502.053248 219.138878 502.055895 218.663689 502.055997 218.188495 
L 369 218.16 
z
" style="fill: #bb9832"/>
   </g>
   <g id="patch_4">
    <path d="M 502.055997 218.188495 
C 502.055998 218.183743 502.055999 218.178991 502.055999 218.174239 
C 502.056 218.169487 502.056 218.164735 502.056 218.159983 
L 369 218.16 
z
" style="fill: #50b131"/>
   </g>
   <g id="text_1">
    <text style="fill: #262626; font: 10px 'Arial', 'Liberation Sans', 'DejaVu Sans', 'Bitstream Vera Sans', sans-serif; text-anchor: end" x="222.646969" y="219.162161" transform="rotate(-0 222.646969 219.162161)">newsapi</text>
   </g>
   <g id="text_2">
    <text style="fill: #262626; font: 10px 'Arial', 'Liberation Sans', 'DejaVu Sans', 'Bitstream Vera Sans', sans-serif; text-anchor: middle" x="289.171074" y="219.88206" transform="rotate(-0 289.171074 219.88206)">99.7%</text>
   </g>
   <g id="text_3">
    <text style="fill: #262626; font: 10px 'Arial', 'Liberation Sans', 'DejaVu Sans', 'Bitstream Vera Sans', sans-serif; text-anchor: start" x="515.35286" y="222.345385" transform="rotate(-0 515.35286 222.345385)">chicago_pd</text>
   </g>
   <g id="text_4">
    <text style="fill: #262626; font: 10px 'Arial', 'Liberation Sans', 'DejaVu Sans', 'Bitstream Vera Sans', sans-serif; text-anchor: middle" x="448.828833" y="221.618363" transform="rotate(-0 448.828833 221.618363)">0.3%</text>
   </g>
   <g id="text_5">
    <text style="fill: #262626; font: 10px 'Arial', 'Liberation Sans', 'DejaVu Sans', 'Bitstream Vera Sans', sans-serif; text-anchor: start" x="515.361599" y="220.761601" transform="rotate(-0 515.361599 220.761601)">chicago_police</text>
   </g>
   <g id="text_6">
    <text style="fill: #262626; font: 10px 'Arial', 'Liberation Sans', 'DejaVu Sans', 'Bitstream Vera Sans', sans-serif; text-anchor: middle" x="448.8336" y="220.754481" transform="rotate(-0 448.8336 220.754481)">0.0%</text>
   </g>
   <g id="text_7">
    <text style="fill: #262626; font: 12px 'Arial', 'Liberation Sans', 'DejaVu Sans', 'Bitstream Vera Sans', sans-serif; text-anchor: middle" x="369" y="45.84" transform="rotate(-0 369 45.84)">Incidents by Source</text>
   </g>
  </g>
 </g>
</svg>
