<?xml version="1.0" encoding="utf-8" standalone="no"?>
<!DOCTYPE svg PUBLIC "-//W3C//DTD SVG 1.1//EN"
  "http://www.w3.org/Graphics/SVG/1.1/DTD/svg11.dtd">
<svg xmlns:xlink="http://www.w3.org/1999/xlink" width="720pt" height="432pt" viewBox="0 0 720 432" xmlns="http://www.w3.org/2000/svg" version="1.1">
 <metadata>
  <rdf:RDF xmlns:dc="http://purl.org/dc/elements/1.1/" xmlns:cc="http://creativecommons.org/ns#" xmlns:rdf="http://www.w3.org/1999/02/22-rdf-syntax-ns#">
   <cc:Work>
    <dc:type rdf:resource="http://purl.org/dc/dcmitype/StillImage"/>
    <dc:date>2026-06-09T03:58:50.338878</dc:date>
    <dc:format>image/svg+xml</dc:format>
    <dc:creator>
     <cc:Agent>
      <dc:title>Matplotlib v3.7.5, https://matplotlib.org/</dc:title>
     </cc:Agent>
    </dc:creator>
   </cc:Work>
  </rdf:RDF>
 </metadata>
 <defs>
  <style type="text/css">*{stroke-linejoin: round; stroke-linecap: butt}</style>
 </defs>
 <g id="figure_1">
  <g id="patch_1">
   <path d="M 0 432 
L 720 432 
L 720 0 
L 0 0 
z
" style="fill: #ffffff"/>
  </g>
  <g id="axes_1">
   <g id="matplotlib.axis_1"/>
   <g id="matplotlib.axis_2"/>
   <g id="patch_2">
    <path d="M 502.056 218.16 
C 502.056 200.70338 498.620602 183.41619 491.946054 167.28597 
C 485.271507 151.15575 475.487373 136.495613 463.152577 124.143026 
C 450.817782 111.79044 436.171761 101.985187 420.051178 95.287398 
C 403.930595 88.589609 386.648374 85.129298 369.191772 85.104138 
C 351.735171 85.078978 334.443047 88.489457 318.303224 95.140749 
C 302.163401 101.792042 287.489177 111.555036 275.118825 123.872015 
C 262.748473 136.188994 252.922121 150.820867 246.201105 166.93178 
C 239.480089 183.042693 235.994873 200.319909 235.944553 217.776456 
C 235.894233 235.233003 239.279785 252.530024 245.907808 268.679417 
C 252.535832 284.82881 262.277666 299.51709 274.576803 311.905181 
C 286.87594 324.293272 301.493635 334.140703 317.594845 340.884933 
C 333.696054 347.629163 350.968228 351.139276 368.424685 351.214756 
C 385.881141 351.290236 403.183024 347.929617 419.341953 341.324877 
C 435.500882 334.720137 450.203188 324.999483 462.608993 312.718213 
C 475.014797 300.436944 484.883286 285.833456 491.650716 269.741984 
C 498.418145 253.650512 501.953149 236.383415 502.053789 218.927085 
L 369 218.16 
z
" style="fill: #f77189"/>
   </g>
   <g id="patch_3">
    <path d="M 502.053789 218.927085 
C 502.054519 218.800502 502.055068 218.673918 502.055436 218.547334 
C 502.055805 218.420749 502.055993 218.294164 502.056 218.167579 
L 369 218.16 
z
" style="fill: #bb9832"/>
   </g>
   <g id="patch_4">
    <path d="M 502.056 218.167579 
C 502.056 218.166313 502.056 218.165048 502.056 218.163782 
C 502.056 218.162516 502.056 218.16125 502.056 218.159984 
L 369 218.16 
z
" style="fill: #50b131"/>
   </g>
   <g id="text_1">
    <text style="fill: #262626; font: 10px 'Arial', 'Liberation Sans', 'DejaVu Sans', 'Bitstream Vera Sans', sans-serif; text-anchor: end" x="222.639008" y="220.324039" transform="rotate(-0 222.639008 220.324039)">newsapi</text>
   </g>
   <g id="text_2">
    <text style="fill: #262626; font: 10px 'Arial', 'Liberation Sans', 'DejaVu Sans', 'Bitstream Vera Sans', sans-serif; text-anchor: middle" x="289.166732" y="220.515811" transform="rotate(-0 289.166732 220.515811)">99.9%</text>
   </g>
   <g id="text_3">
    <text style="fill: #262626; font: 10px 'Arial', 'Liberation Sans', 'DejaVu Sans', 'Bitstream Vera Sans', sans-serif; text-anchor: start" x="515.36098" y="221.172005" transform="rotate(-0 515.36098 221.172005)">chicago_pd</text>
   </g>
   <g id="text_4">
    <text style="fill: #262626; font: 10px 'Arial', 'Liberation Sans', 'DejaVu Sans', 'Bitstream Vera Sans', sans-serif; text-anchor: middle" x="448.833262" y="220.978338" transform="rotate(-0 448.833262 220.978338)">0.1%</text>
   </g>
   <g id="text_5">
    <text style="fill: #262626; font: 10px 'Arial', 'Liberation Sans', 'DejaVu Sans', 'Bitstream Vera Sans', sans-serif; text-anchor: start" x="515.3616" y="220.750097" transform="rotate(-0 515.3616 220.750097)">chicago_police</text>
   </g>
   <g id="text_6">
    <text style="fill: #262626; font: 10px 'Arial', 'Liberation Sans', 'DejaVu Sans', 'Bitstream Vera Sans', sans-serif; text-anchor: middle" x="448.8336" y="220.748207" transform="rotate(-0 448.8336 220.748207)">0.0%</text>
   </g>
   <g id="text_7">
    <text style="fill: #262626; font: 12px 'Arial', 'Liberation Sans', 'DejaVu Sans', 'Bitstream Vera Sans', sans-serif; text-anchor: middle" x="369" y="45.84" transform="rotate(-0 369 45.84)">Incidents by Source</text>
   </g>
  </g>
 </g>
</svg>
