<?xml version="1.0" encoding="utf-8" standalone="no"?>
<!DOCTYPE svg PUBLIC "-//W3C//DTD SVG 1.1//EN"
  "http://www.w3.org/Graphics/SVG/1.1/DTD/svg11.dtd">
<svg xmlns:xlink="http://www.w3.org/1999/xlink" width="720pt" height="432pt" viewBox="0 0 720 432" xmlns="http://www.w3.org/2000/svg" version="1.1">
 <metadata>
  <rdf:RDF xmlns:dc="http://purl.org/dc/elements/1.1/" xmlns:cc="http://creativecommons.org/ns#" xmlns:rdf="http://www.w3.org/1999/02/22-rdf-syntax-ns#">
   <cc:Work>
    <dc:type rdf:resource="http://purl.org/dc/dcmitype/StillImage"/>
    <dc:date>2025-01-20T01:36:58.682082</dc:date>
    <dc:format>image/svg+xml</dc:format>
    <dc:creator>
     <cc:Agent>
      <dc:title>Matplotlib v3.7.5, https://matplotlib.org/</dc:title>
     </cc:Agent>
    </dc:creator>
   </cc:Work>
  </rdf:RDF>
 </metadata>
 <defs>
  <style type="text/css">*{stroke-linejoin: round; stroke-linecap: butt}</style>
 </defs>
 <g id="figure_1">
  <g id="patch_1">
   <path d="M 0 432 
L 720 432 
L 720 0 
L 0 0 
z
" style="fill: #ffffff"/>
  </g>
  <g id="axes_1">
   <g id="matplotlib.axis_1"/>
   <g id="matplotlib.axis_2"/>
   <g id="patch_2">
    <path d="M 502.056 218.16 
C 502.056 200.868654 498.685344 183.741962 492.133014 167.740162 
C 485.580683 151.738361 475.971466 137.166202 463.844118 124.840696 
C 451.71677 112.51519 437.302254 102.671075 421.408744 95.860275 
C 405.515233 89.049475 388.445417 85.401702 371.156341 85.121474 
C 353.867266 84.841246 336.688198 87.9339 320.58231 94.22604 
C 304.476422 100.518181 289.750447 109.889976 277.230021 121.81598 
C 264.709595 133.741985 254.633166 147.995072 247.565687 163.776117 
C 240.498207 179.557162 236.574275 196.56562 236.013892 213.847884 
C 235.45351 231.130147 238.267348 248.357079 244.297646 264.562824 
C 250.327944 280.768569 259.459855 295.644492 271.181384 308.35655 
C 282.902914 321.068608 296.990827 331.374702 312.655262 338.697005 
C 328.319697 346.019309 345.262329 350.218369 362.533241 351.058759 
C 379.804153 351.899149 397.074425 349.364864 413.37577 343.597993 
C 429.677115 337.831122 444.699079 328.941493 457.599429 317.427519 
C 470.49978 305.913544 481.032833 291.994504 488.608037 276.450793 
C 496.183241 260.907082 500.656326 244.034727 501.776503 226.779703 
L 369 218.16 
z
" style="fill: #f77189"/>
   </g>
   <g id="patch_3">
    <path d="M 501.776503 226.779703 
C 501.868716 225.359269 501.93813 223.937448 501.984717 222.514787 
C 502.031304 221.092126 502.055059 219.66881 502.055973 218.245387 
L 369 218.16 
z
" style="fill: #bb9832"/>
   </g>
   <g id="patch_4">
    <path d="M 502.055973 218.245387 
C 502.055982 218.231153 502.055989 218.216919 502.055993 218.202685 
C 502.055998 218.188451 502.056 218.174217 502.056 218.159983 
L 369 218.16 
z
" style="fill: #50b131"/>
   </g>
   <g id="text_1">
    <text style="fill: #262626; font: 10px 'Arial', 'Liberation Sans', 'DejaVu Sans', 'Bitstream Vera Sans', sans-serif; text-anchor: end" x="222.715282" y="216.002609" transform="rotate(-0 222.715282 216.002609)">newsapi</text>
   </g>
   <g id="text_2">
    <text style="fill: #262626; font: 10px 'Arial', 'Liberation Sans', 'DejaVu Sans', 'Bitstream Vera Sans', sans-serif; text-anchor: middle" x="289.208335" y="218.158668" transform="rotate(-0 289.208335 218.158668)">99.0%</text>
   </g>
   <g id="text_3">
    <text style="fill: #262626; font: 10px 'Arial', 'Liberation Sans', 'DejaVu Sans', 'Bitstream Vera Sans', sans-serif; text-anchor: start" x="515.283189" y="225.536203" transform="rotate(-0 515.283189 225.536203)">chicago_pd</text>
   </g>
   <g id="text_4">
    <text style="fill: #262626; font: 10px 'Arial', 'Liberation Sans', 'DejaVu Sans', 'Bitstream Vera Sans', sans-serif; text-anchor: middle" x="448.79083" y="223.35881" transform="rotate(-0 448.79083 223.35881)">1.0%</text>
   </g>
   <g id="text_5">
    <text style="fill: #262626; font: 10px 'Arial', 'Liberation Sans', 'DejaVu Sans', 'Bitstream Vera Sans', sans-serif; text-anchor: start" x="515.361592" y="220.792891" transform="rotate(-0 515.361592 220.792891)">chicago_police</text>
   </g>
   <g id="text_6">
    <text style="fill: #262626; font: 10px 'Arial', 'Liberation Sans', 'DejaVu Sans', 'Bitstream Vera Sans', sans-serif; text-anchor: middle" x="448.833596" y="220.771548" transform="rotate(-0 448.833596 220.771548)">0.0%</text>
   </g>
   <g id="text_7">
    <text style="fill: #262626; font: 12px 'Arial', 'Liberation Sans', 'DejaVu Sans', 'Bitstream Vera Sans', sans-serif; text-anchor: middle" x="369" y="45.84" transform="rotate(-0 369 45.84)">Incidents by Source</text>
   </g>
  </g>
 </g>
</svg>
