<?xml version="1.0" encoding="utf-8" standalone="no"?>
<!DOCTYPE svg PUBLIC "-//W3C//DTD SVG 1.1//EN"
  "http://www.w3.org/Graphics/SVG/1.1/DTD/svg11.dtd">
<svg xmlns:xlink="http://www.w3.org/1999/xlink" width="720pt" height="432pt" viewBox="0 0 720 432" xmlns="http://www.w3.org/2000/svg" version="1.1">
 <metadata>
  <rdf:RDF xmlns:dc="http://purl.org/dc/elements/1.1/" xmlns:cc="http://creativecommons.org/ns#" xmlns:rdf="http://www.w3.org/1999/02/22-rdf-syntax-ns#">
   <cc:Work>
    <dc:type rdf:resource="http://purl.org/dc/dcmitype/StillImage"/>
    <dc:date>2025-02-14T01:37:22.193033</dc:date>
    <dc:format>image/svg+xml</dc:format>
    <dc:creator>
     <cc:Agent>
      <dc:title>Matplotlib v3.7.5, https://matplotlib.org/</dc:title>
     </cc:Agent>
    </dc:creator>
   </cc:Work>
  </rdf:RDF>
 </metadata>
 <defs>
  <style type="text/css">*{stroke-linejoin: round; stroke-linecap: butt}</style>
 </defs>
 <g id="figure_1">
  <g id="patch_1">
   <path d="M 0 432 
L 720 432 
L 720 0 
L 0 0 
z
" style="fill: #ffffff"/>
  </g>
  <g id="axes_1">
   <g id="matplotlib.axis_1"/>
   <g id="matplotlib.axis_2"/>
   <g id="patch_2">
    <path d="M 502.056 218.16 
C 502.056 200.807635 498.661513 183.621677 492.06418 167.572385 
C 485.466846 151.523092 475.793202 136.918288 463.589387 124.582508 
C 451.385572 112.246727 436.885652 102.416568 420.908242 95.647007 
C 404.930833 88.877445 387.782376 85.29832 370.431015 85.111695 
C 353.079653 84.925071 335.858181 88.134527 319.738863 94.558869 
C 303.619545 100.983211 288.911546 110.499222 276.445227 122.56966 
C 263.978908 134.640098 253.993371 149.033456 247.052365 164.937135 
C 240.111358 180.840814 236.348008 197.949785 235.974781 215.298137 
C 235.601554 232.646488 238.625608 249.901481 244.876215 266.08896 
C 251.126823 282.27644 260.484099 297.085933 272.419764 309.681348 
C 284.355429 322.276763 298.64056 332.416523 314.468669 339.528172 
C 330.296778 346.639821 347.364285 350.586959 364.707619 351.146746 
C 382.050952 351.706533 399.337471 348.868231 415.59124 342.792081 
C 431.845008 336.715931 446.754282 327.518472 459.477336 315.71896 
C 472.200391 303.919449 482.4932 289.744197 489.774669 273.993489 
C 497.056138 258.242781 501.186609 241.218713 501.93289 223.882403 
L 369 218.16 
z
" style="fill: #f77189"/>
   </g>
   <g id="patch_3">
    <path d="M 501.93289 223.882403 
C 501.973515 222.938682 502.004089 221.994555 502.024607 221.050182 
C 502.045125 220.10581 502.055586 219.161246 502.055988 218.216651 
L 369 218.16 
z
" style="fill: #bb9832"/>
   </g>
   <g id="patch_4">
    <path d="M 502.055988 218.216651 
C 502.055992 218.207205 502.055995 218.197759 502.055997 218.188313 
C 502.055999 218.178867 502.056 218.169422 502.056 218.159976 
L 369 218.16 
z
" style="fill: #50b131"/>
   </g>
   <g id="text_1">
    <text style="fill: #262626; font: 10px 'Arial', 'Liberation Sans', 'DejaVu Sans', 'Bitstream Vera Sans', sans-serif; text-anchor: end" x="222.672259" y="217.597888" transform="rotate(-0 222.672259 217.597888)">newsapi</text>
   </g>
   <g id="text_2">
    <text style="fill: #262626; font: 10px 'Arial', 'Liberation Sans', 'DejaVu Sans', 'Bitstream Vera Sans', sans-serif; text-anchor: middle" x="289.184869" y="219.028819" transform="rotate(-0 289.184869 219.028819)">99.3%</text>
   </g>
   <g id="text_3">
    <text style="fill: #262626; font: 10px 'Arial', 'Liberation Sans', 'DejaVu Sans', 'Bitstream Vera Sans', sans-serif; text-anchor: start" x="515.327067" y="223.925138" transform="rotate(-0 515.327067 223.925138)">chicago_pd</text>
   </g>
   <g id="text_4">
    <text style="fill: #262626; font: 10px 'Arial', 'Liberation Sans', 'DejaVu Sans', 'Bitstream Vera Sans', sans-serif; text-anchor: middle" x="448.814764" y="222.480047" transform="rotate(-0 448.814764 222.480047)">0.7%</text>
   </g>
   <g id="text_5">
    <text style="fill: #262626; font: 10px 'Arial', 'Liberation Sans', 'DejaVu Sans', 'Bitstream Vera Sans', sans-serif; text-anchor: start" x="515.361597" y="220.777082" transform="rotate(-0 515.361597 220.777082)">chicago_police</text>
   </g>
   <g id="text_6">
    <text style="fill: #262626; font: 10px 'Arial', 'Liberation Sans', 'DejaVu Sans', 'Bitstream Vera Sans', sans-serif; text-anchor: middle" x="448.833598" y="220.762926" transform="rotate(-0 448.833598 220.762926)">0.0%</text>
   </g>
   <g id="text_7">
    <text style="fill: #262626; font: 12px 'Arial', 'Liberation Sans', 'DejaVu Sans', 'Bitstream Vera Sans', sans-serif; text-anchor: middle" x="369" y="45.84" transform="rotate(-0 369 45.84)">Incidents by Source</text>
   </g>
  </g>
 </g>
</svg>
