<?xml version="1.0" encoding="utf-8" standalone="no"?>
<!DOCTYPE svg PUBLIC "-//W3C//DTD SVG 1.1//EN"
  "http://www.w3.org/Graphics/SVG/1.1/DTD/svg11.dtd">
<svg xmlns:xlink="http://www.w3.org/1999/xlink" width="720pt" height="432pt" viewBox="0 0 720 432" xmlns="http://www.w3.org/2000/svg" version="1.1">
 <metadata>
  <rdf:RDF xmlns:dc="http://purl.org/dc/elements/1.1/" xmlns:cc="http://creativecommons.org/ns#" xmlns:rdf="http://www.w3.org/1999/02/22-rdf-syntax-ns#">
   <cc:Work>
    <dc:type rdf:resource="http://purl.org/dc/dcmitype/StillImage"/>
    <dc:date>2026-01-08T18:21:56.378006</dc:date>
    <dc:format>image/svg+xml</dc:format>
    <dc:creator>
     <cc:Agent>
      <dc:title>Matplotlib v3.7.5, https://matplotlib.org/</dc:title>
     </cc:Agent>
    </dc:creator>
   </cc:Work>
  </rdf:RDF>
 </metadata>
 <defs>
  <style type="text/css">*{stroke-linejoin: round; stroke-linecap: butt}</style>
 </defs>
 <g id="figure_1">
  <g id="patch_1">
   <path d="M 0 432 
L 720 432 
L 720 0 
L 0 0 
z
" style="fill: #ffffff"/>
  </g>
  <g id="axes_1">
   <g id="matplotlib.axis_1"/>
   <g id="matplotlib.axis_2"/>
   <g id="patch_2">
    <path d="M 502.056 218.16 
C 502.056 200.709176 498.622882 183.427613 491.952638 167.301885 
C 485.282394 151.176157 475.504416 136.51908 463.176913 124.167403 
C 450.84941 111.815726 436.211517 102.009054 420.098888 95.307231 
C 403.986258 88.605409 386.711453 85.138442 369.260663 85.104255 
C 351.809872 85.070068 334.521616 88.469324 318.382852 95.107964 
C 302.244088 101.746605 287.567884 111.49585 275.192081 123.799132 
C 262.816277 136.102414 252.980947 150.721067 246.247572 166.820536 
C 239.514197 182.920006 236.013395 200.187986 235.945021 217.638676 
C 235.876648 235.089366 239.242028 252.384248 245.849039 268.535986 
C 252.45605 284.687725 262.176526 299.383 274.455539 311.782882 
C 286.734553 324.182765 301.33391 334.046715 317.420157 340.811616 
C 333.506405 347.576518 350.767493 351.111142 368.218016 351.213702 
C 385.668539 351.316262 402.96998 347.98477 419.134632 341.409413 
C 435.299283 334.834057 450.013572 325.142389 462.437486 312.887691 
C 474.861399 300.632993 484.753931 286.052988 491.550334 269.980024 
C 498.346736 253.90706 501.915168 236.652929 502.051915 219.202641 
L 369 218.16 
z
" style="fill: #f77189"/>
   </g>
   <g id="patch_3">
    <path d="M 502.051915 219.202641 
C 502.053263 219.03059 502.054278 218.858537 502.054958 218.686483 
C 502.055639 218.514428 502.055986 218.342373 502.056 218.170317 
L 369 218.16 
z
" style="fill: #bb9832"/>
   </g>
   <g id="patch_4">
    <path d="M 502.056 218.170317 
C 502.056 218.168596 502.056 218.166876 502.056 218.165155 
C 502.056 218.163435 502.056 218.161714 502.056 218.159993 
L 369 218.16 
z
" style="fill: #50b131"/>
   </g>
   <g id="text_1">
    <text style="fill: #262626; font: 10px 'Arial', 'Liberation Sans', 'DejaVu Sans', 'Bitstream Vera Sans', sans-serif; text-anchor: end" x="222.639523" y="220.172481" transform="rotate(-0 222.639523 220.172481)">newsapi</text>
   </g>
   <g id="text_2">
    <text style="fill: #262626; font: 10px 'Arial', 'Liberation Sans', 'DejaVu Sans', 'Bitstream Vera Sans', sans-serif; text-anchor: middle" x="289.167013" y="220.433143" transform="rotate(-0 289.167013 220.433143)">99.9%</text>
   </g>
   <g id="text_3">
    <text style="fill: #262626; font: 10px 'Arial', 'Liberation Sans', 'DejaVu Sans', 'Bitstream Vera Sans', sans-serif; text-anchor: start" x="515.360454" y="221.325069" transform="rotate(-0 515.360454 221.325069)">chicago_pd</text>
   </g>
   <g id="text_4">
    <text style="fill: #262626; font: 10px 'Arial', 'Liberation Sans', 'DejaVu Sans', 'Bitstream Vera Sans', sans-serif; text-anchor: middle" x="448.832975" y="221.061827" transform="rotate(-0 448.832975 221.061827)">0.1%</text>
   </g>
   <g id="text_5">
    <text style="fill: #262626; font: 10px 'Arial', 'Liberation Sans', 'DejaVu Sans', 'Bitstream Vera Sans', sans-serif; text-anchor: start" x="515.3616" y="220.751608" transform="rotate(-0 515.3616 220.751608)">chicago_police</text>
   </g>
   <g id="text_6">
    <text style="fill: #262626; font: 10px 'Arial', 'Liberation Sans', 'DejaVu Sans', 'Bitstream Vera Sans', sans-serif; text-anchor: middle" x="448.8336" y="220.749031" transform="rotate(-0 448.8336 220.749031)">0.0%</text>
   </g>
   <g id="text_7">
    <text style="fill: #262626; font: 12px 'Arial', 'Liberation Sans', 'DejaVu Sans', 'Bitstream Vera Sans', sans-serif; text-anchor: middle" x="369" y="45.84" transform="rotate(-0 369 45.84)">Incidents by Source</text>
   </g>
  </g>
 </g>
</svg>
