<?xml version="1.0" encoding="utf-8" standalone="no"?>
<!DOCTYPE svg PUBLIC "-//W3C//DTD SVG 1.1//EN"
  "http://www.w3.org/Graphics/SVG/1.1/DTD/svg11.dtd">
<svg xmlns:xlink="http://www.w3.org/1999/xlink" width="720pt" height="432pt" viewBox="0 0 720 432" xmlns="http://www.w3.org/2000/svg" version="1.1">
 <metadata>
  <rdf:RDF xmlns:dc="http://purl.org/dc/elements/1.1/" xmlns:cc="http://creativecommons.org/ns#" xmlns:rdf="http://www.w3.org/1999/02/22-rdf-syntax-ns#">
   <cc:Work>
    <dc:type rdf:resource="http://purl.org/dc/dcmitype/StillImage"/>
    <dc:date>2026-03-22T18:29:59.172370</dc:date>
    <dc:format>image/svg+xml</dc:format>
    <dc:creator>
     <cc:Agent>
      <dc:title>Matplotlib v3.7.5, https://matplotlib.org/</dc:title>
     </cc:Agent>
    </dc:creator>
   </cc:Work>
  </rdf:RDF>
 </metadata>
 <defs>
  <style type="text/css">*{stroke-linejoin: round; stroke-linecap: butt}</style>
 </defs>
 <g id="figure_1">
  <g id="patch_1">
   <path d="M 0 432 
L 720 432 
L 720 0 
L 0 0 
z
" style="fill: #ffffff"/>
  </g>
  <g id="axes_1">
   <g id="matplotlib.axis_1"/>
   <g id="matplotlib.axis_2"/>
   <g id="patch_2">
    <path d="M 502.056 218.16 
C 502.056 200.705893 498.621591 183.421143 491.948909 167.292871 
C 485.276228 151.164599 475.494764 136.505789 463.163131 124.153596 
C 450.831498 111.801404 436.189002 101.995535 420.071867 95.295996 
C 403.954733 88.596457 386.675728 85.13326 369.221646 85.104185 
C 351.767563 85.075109 334.477116 88.480721 318.337751 95.126526 
C 302.198386 101.772332 287.523302 111.529364 275.150584 123.840403 
C 262.777867 136.151443 252.94762 150.777584 246.221242 166.883536 
C 239.494865 182.989488 236.002889 200.2627 235.944738 217.71671 
C 235.886588 235.170719 239.263392 252.466816 245.882304 268.617229 
C 252.501215 284.767642 262.233787 299.458959 274.524199 311.852167 
C 286.814611 324.245375 301.424357 334.099973 317.519081 340.853171 
C 333.613806 347.606368 350.881177 351.127113 368.335066 351.214339 
C 385.788954 351.301564 403.090652 347.953576 419.252069 341.361578 
C 435.413485 334.769579 450.120995 325.061493 462.534659 312.791743 
C 474.948323 300.521992 484.827244 285.928683 491.607243 269.84523 
C 498.387242 253.761778 501.936746 236.500295 502.053046 219.046576 
L 369 218.16 
z
" style="fill: #f77189"/>
   </g>
   <g id="patch_3">
    <path d="M 502.053046 219.046576 
C 502.054021 218.900281 502.054755 218.753984 502.055247 218.607687 
C 502.055739 218.46139 502.05599 218.315091 502.056 218.168793 
L 369 218.16 
z
" style="fill: #bb9832"/>
   </g>
   <g id="patch_4">
    <path d="M 502.056 218.168793 
C 502.056 218.16733 502.056 218.165867 502.056 218.164404 
C 502.056 218.162941 502.056 218.161478 502.056 218.160015 
L 369 218.16 
z
" style="fill: #50b131"/>
   </g>
   <g id="text_1">
    <text style="fill: #262626; font: 10px 'Arial', 'Liberation Sans', 'DejaVu Sans', 'Bitstream Vera Sans', sans-serif; text-anchor: end" x="222.639212" y="220.258318" transform="rotate(-0 222.639212 220.258318)">newsapi</text>
   </g>
   <g id="text_2">
    <text style="fill: #262626; font: 10px 'Arial', 'Liberation Sans', 'DejaVu Sans', 'Bitstream Vera Sans', sans-serif; text-anchor: middle" x="289.166843" y="220.479963" transform="rotate(-0 289.166843 220.479963)">99.9%</text>
   </g>
   <g id="text_3">
    <text style="fill: #262626; font: 10px 'Arial', 'Liberation Sans', 'DejaVu Sans', 'Bitstream Vera Sans', sans-serif; text-anchor: start" x="515.360772" y="221.238393" transform="rotate(-0 515.360772 221.238393)">chicago_pd</text>
   </g>
   <g id="text_4">
    <text style="fill: #262626; font: 10px 'Arial', 'Liberation Sans', 'DejaVu Sans', 'Bitstream Vera Sans', sans-serif; text-anchor: middle" x="448.833148" y="221.01455" transform="rotate(-0 448.833148 221.01455)">0.1%</text>
   </g>
   <g id="text_5">
    <text style="fill: #262626; font: 10px 'Arial', 'Liberation Sans', 'DejaVu Sans', 'Bitstream Vera Sans', sans-serif; text-anchor: start" x="515.3616" y="220.750782" transform="rotate(-0 515.3616 220.750782)">chicago_police</text>
   </g>
   <g id="text_6">
    <text style="fill: #262626; font: 10px 'Arial', 'Liberation Sans', 'DejaVu Sans', 'Bitstream Vera Sans', sans-serif; text-anchor: middle" x="448.8336" y="220.74858" transform="rotate(-0 448.8336 220.74858)">0.0%</text>
   </g>
   <g id="text_7">
    <text style="fill: #262626; font: 12px 'Arial', 'Liberation Sans', 'DejaVu Sans', 'Bitstream Vera Sans', sans-serif; text-anchor: middle" x="369" y="45.84" transform="rotate(-0 369 45.84)">Incidents by Source</text>
   </g>
  </g>
 </g>
</svg>
