<?xml version="1.0" encoding="utf-8" standalone="no"?>
<!DOCTYPE svg PUBLIC "-//W3C//DTD SVG 1.1//EN"
  "http://www.w3.org/Graphics/SVG/1.1/DTD/svg11.dtd">
<svg xmlns:xlink="http://www.w3.org/1999/xlink" width="720pt" height="432pt" viewBox="0 0 720 432" xmlns="http://www.w3.org/2000/svg" version="1.1">
 <metadata>
  <rdf:RDF xmlns:dc="http://purl.org/dc/elements/1.1/" xmlns:cc="http://creativecommons.org/ns#" xmlns:rdf="http://www.w3.org/1999/02/22-rdf-syntax-ns#">
   <cc:Work>
    <dc:type rdf:resource="http://purl.org/dc/dcmitype/StillImage"/>
    <dc:date>2025-01-10T01:40:25.476129</dc:date>
    <dc:format>image/svg+xml</dc:format>
    <dc:creator>
     <cc:Agent>
      <dc:title>Matplotlib v3.7.5, https://matplotlib.org/</dc:title>
     </cc:Agent>
    </dc:creator>
   </cc:Work>
  </rdf:RDF>
 </metadata>
 <defs>
  <style type="text/css">*{stroke-linejoin: round; stroke-linecap: butt}</style>
 </defs>
 <g id="figure_1">
  <g id="patch_1">
   <path d="M 0 432 
L 720 432 
L 720 0 
L 0 0 
z
" style="fill: #ffffff"/>
  </g>
  <g id="axes_1">
   <g id="matplotlib.axis_1"/>
   <g id="matplotlib.axis_2"/>
   <g id="patch_2">
    <path d="M 502.056 218.16 
C 502.056 200.916909 498.704131 183.837097 492.187291 167.872919 
C 485.67045 151.908741 476.112057 137.362534 464.045079 125.045382 
C 451.978102 112.728231 437.631068 102.873402 421.803959 96.030392 
C 405.976849 89.187383 388.969403 85.485789 371.729942 85.132008 
C 354.490481 84.778228 337.345492 87.778961 321.250967 93.966888 
C 305.156443 100.154816 290.417186 109.412749 277.855046 121.224473 
C 265.292906 133.036197 255.14579 147.178016 247.979492 162.861394 
C 240.813195 178.544773 236.763434 195.472692 236.056022 212.701266 
C 235.348609 229.929839 237.996943 247.132786 243.853353 263.350882 
C 249.709763 279.568978 258.663338 294.495079 270.214835 307.296919 
C 281.766332 320.098758 295.696984 330.53389 311.230028 338.020458 
C 326.763073 345.507027 343.604339 349.903249 360.814772 350.963995 
C 378.025204 352.024741 395.278866 349.729923 411.613705 344.207496 
C 427.948545 338.685069 443.055207 330.039621 456.091357 318.753214 
C 469.127506 307.466807 479.84626 293.753188 487.649947 278.377017 
C 495.453635 263.000846 500.194468 246.253323 501.608102 229.068277 
L 369 218.16 
z
" style="fill: #f77189"/>
   </g>
   <g id="patch_3">
    <path d="M 501.608102 229.068277 
C 501.755845 227.272213 501.867084 225.473333 501.941749 223.67275 
C 502.016415 221.872167 502.054492 220.070253 502.055956 218.268123 
L 369 218.16 
z
" style="fill: #bb9832"/>
   </g>
   <g id="patch_4">
    <path d="M 502.055956 218.268123 
C 502.055971 218.250103 502.055982 218.232082 502.055989 218.214061 
C 502.055996 218.196041 502.056 218.17802 502.056 218.159999 
L 369 218.16 
z
" style="fill: #50b131"/>
   </g>
   <g id="text_1">
    <text style="fill: #262626; font: 10px 'Arial', 'Liberation Sans', 'DejaVu Sans', 'Bitstream Vera Sans', sans-serif; text-anchor: end" x="222.761624" y="214.74133" transform="rotate(-0 222.761624 214.74133)">newsapi</text>
   </g>
   <g id="text_2">
    <text style="fill: #262626; font: 10px 'Arial', 'Liberation Sans', 'DejaVu Sans', 'Bitstream Vera Sans', sans-serif; text-anchor: middle" x="289.233613" y="217.470697" transform="rotate(-0 289.233613 217.470697)">98.7%</text>
   </g>
   <g id="text_3">
    <text style="fill: #262626; font: 10px 'Arial', 'Liberation Sans', 'DejaVu Sans', 'Bitstream Vera Sans', sans-serif; text-anchor: start" x="515.235924" y="226.809962" transform="rotate(-0 515.235924 226.809962)">chicago_pd</text>
   </g>
   <g id="text_4">
    <text style="fill: #262626; font: 10px 'Arial', 'Liberation Sans', 'DejaVu Sans', 'Bitstream Vera Sans', sans-serif; text-anchor: middle" x="448.76505" y="224.053587" transform="rotate(-0 448.76505 224.053587)">1.3%</text>
   </g>
   <g id="text_5">
    <text style="fill: #262626; font: 10px 'Arial', 'Liberation Sans', 'DejaVu Sans', 'Bitstream Vera Sans', sans-serif; text-anchor: start" x="515.361588" y="220.805405" transform="rotate(-0 515.361588 220.805405)">chicago_police</text>
   </g>
   <g id="text_6">
    <text style="fill: #262626; font: 10px 'Arial', 'Liberation Sans', 'DejaVu Sans', 'Bitstream Vera Sans', sans-serif; text-anchor: middle" x="448.833593" y="220.778374" transform="rotate(-0 448.833593 220.778374)">0.0%</text>
   </g>
   <g id="text_7">
    <text style="fill: #262626; font: 12px 'Arial', 'Liberation Sans', 'DejaVu Sans', 'Bitstream Vera Sans', sans-serif; text-anchor: middle" x="369" y="45.84" transform="rotate(-0 369 45.84)">Incidents by Source</text>
   </g>
  </g>
 </g>
</svg>
