<?xml version="1.0" encoding="utf-8" standalone="no"?>
<!DOCTYPE svg PUBLIC "-//W3C//DTD SVG 1.1//EN"
  "http://www.w3.org/Graphics/SVG/1.1/DTD/svg11.dtd">
<svg xmlns:xlink="http://www.w3.org/1999/xlink" width="720pt" height="432pt" viewBox="0 0 720 432" xmlns="http://www.w3.org/2000/svg" version="1.1">
 <metadata>
  <rdf:RDF xmlns:dc="http://purl.org/dc/elements/1.1/" xmlns:cc="http://creativecommons.org/ns#" xmlns:rdf="http://www.w3.org/1999/02/22-rdf-syntax-ns#">
   <cc:Work>
    <dc:type rdf:resource="http://purl.org/dc/dcmitype/StillImage"/>
    <dc:date>2026-03-09T01:30:33.527694</dc:date>
    <dc:format>image/svg+xml</dc:format>
    <dc:creator>
     <cc:Agent>
      <dc:title>Matplotlib v3.7.5, https://matplotlib.org/</dc:title>
     </cc:Agent>
    </dc:creator>
   </cc:Work>
  </rdf:RDF>
 </metadata>
 <defs>
  <style type="text/css">*{stroke-linejoin: round; stroke-linecap: butt}</style>
 </defs>
 <g id="figure_1">
  <g id="patch_1">
   <path d="M 0 432 
L 720 432 
L 720 0 
L 0 0 
z
" style="fill: #ffffff"/>
  </g>
  <g id="axes_1">
   <g id="matplotlib.axis_1"/>
   <g id="matplotlib.axis_2"/>
   <g id="patch_2">
    <path d="M 502.056 218.16 
C 502.056 200.706324 498.62176 183.421992 491.949399 167.294054 
C 485.277037 151.166116 475.496031 136.507533 463.164939 124.155408 
C 450.833848 111.803283 436.191956 101.997308 420.075413 95.29747 
C 403.95887 88.597631 386.680416 85.133939 369.226766 85.104193 
C 351.773115 85.074447 334.482955 88.479224 318.343669 95.12409 
C 302.204382 101.768955 287.529151 111.524965 275.156029 123.834986 
C 262.782906 136.145008 252.951991 150.770167 246.224696 166.875268 
C 239.4974 182.980369 236.004265 200.252895 235.944773 217.706469 
C 235.885281 235.160044 239.260586 252.455981 245.877935 268.606569 
C 252.495285 284.757157 262.22627 299.448994 274.515186 311.843078 
C 286.804103 324.237163 301.412485 334.092988 317.506098 340.847722 
C 333.599711 347.602456 350.866258 351.125023 368.319706 351.214261 
C 385.773153 351.303499 403.074818 347.957676 419.23666 341.367861 
C 435.398503 334.778047 450.106903 325.072115 462.521913 312.804339 
C 474.936923 300.536564 484.817631 285.945 491.599784 269.862922 
C 498.381936 253.780845 501.933925 236.520326 502.052908 219.067056 
L 369 218.16 
z
" style="fill: #f77189"/>
   </g>
   <g id="patch_3">
    <path d="M 502.052908 219.067056 
C 502.053929 218.917382 502.054696 218.767707 502.055212 218.618031 
C 502.055727 218.468354 502.05599 218.318677 502.056 218.169 
L 369 218.16 
z
" style="fill: #bb9832"/>
   </g>
   <g id="patch_4">
    <path d="M 502.056 218.169 
C 502.056 218.167503 502.056 218.166007 502.056 218.16451 
C 502.056 218.163013 502.056 218.161516 502.056 218.16002 
L 369 218.16 
z
" style="fill: #50b131"/>
   </g>
   <g id="text_1">
    <text style="fill: #262626; font: 10px 'Arial', 'Liberation Sans', 'DejaVu Sans', 'Bitstream Vera Sans', sans-serif; text-anchor: end" x="222.63925" y="220.247054" transform="rotate(-0 222.63925 220.247054)">newsapi</text>
   </g>
   <g id="text_2">
    <text style="fill: #262626; font: 10px 'Arial', 'Liberation Sans', 'DejaVu Sans', 'Bitstream Vera Sans', sans-serif; text-anchor: middle" x="289.166864" y="220.473819" transform="rotate(-0 289.166864 220.473819)">99.9%</text>
   </g>
   <g id="text_3">
    <text style="fill: #262626; font: 10px 'Arial', 'Liberation Sans', 'DejaVu Sans', 'Bitstream Vera Sans', sans-serif; text-anchor: start" x="515.360733" y="221.249771" transform="rotate(-0 515.360733 221.249771)">chicago_pd</text>
   </g>
   <g id="text_4">
    <text style="fill: #262626; font: 10px 'Arial', 'Liberation Sans', 'DejaVu Sans', 'Bitstream Vera Sans', sans-serif; text-anchor: middle" x="448.833127" y="221.020756" transform="rotate(-0 448.833127 221.020756)">0.1%</text>
   </g>
   <g id="text_5">
    <text style="fill: #262626; font: 10px 'Arial', 'Liberation Sans', 'DejaVu Sans', 'Bitstream Vera Sans', sans-serif; text-anchor: start" x="515.3616" y="220.750898" transform="rotate(-0 515.3616 220.750898)">chicago_police</text>
   </g>
   <g id="text_6">
    <text style="fill: #262626; font: 10px 'Arial', 'Liberation Sans', 'DejaVu Sans', 'Bitstream Vera Sans', sans-serif; text-anchor: middle" x="448.8336" y="220.748643" transform="rotate(-0 448.8336 220.748643)">0.0%</text>
   </g>
   <g id="text_7">
    <text style="fill: #262626; font: 12px 'Arial', 'Liberation Sans', 'DejaVu Sans', 'Bitstream Vera Sans', sans-serif; text-anchor: middle" x="369" y="45.84" transform="rotate(-0 369 45.84)">Incidents by Source</text>
   </g>
  </g>
 </g>
</svg>
