<?xml version="1.0" encoding="utf-8" standalone="no"?>
<!DOCTYPE svg PUBLIC "-//W3C//DTD SVG 1.1//EN"
  "http://www.w3.org/Graphics/SVG/1.1/DTD/svg11.dtd">
<svg xmlns:xlink="http://www.w3.org/1999/xlink" width="720pt" height="432pt" viewBox="0 0 720 432" xmlns="http://www.w3.org/2000/svg" version="1.1">
 <metadata>
  <rdf:RDF xmlns:dc="http://purl.org/dc/elements/1.1/" xmlns:cc="http://creativecommons.org/ns#" xmlns:rdf="http://www.w3.org/1999/02/22-rdf-syntax-ns#">
   <cc:Work>
    <dc:type rdf:resource="http://purl.org/dc/dcmitype/StillImage"/>
    <dc:date>2026-03-14T18:30:24.118463</dc:date>
    <dc:format>image/svg+xml</dc:format>
    <dc:creator>
     <cc:Agent>
      <dc:title>Matplotlib v3.7.5, https://matplotlib.org/</dc:title>
     </cc:Agent>
    </dc:creator>
   </cc:Work>
  </rdf:RDF>
 </metadata>
 <defs>
  <style type="text/css">*{stroke-linejoin: round; stroke-linecap: butt}</style>
 </defs>
 <g id="figure_1">
  <g id="patch_1">
   <path d="M 0 432 
L 720 432 
L 720 0 
L 0 0 
z
" style="fill: #ffffff"/>
  </g>
  <g id="axes_1">
   <g id="matplotlib.axis_1"/>
   <g id="matplotlib.axis_2"/>
   <g id="patch_2">
    <path d="M 502.056 218.16 
C 502.056 200.706117 498.621679 183.421583 491.949163 167.293484 
C 485.276647 151.165385 475.49542 136.506693 463.164068 124.154535 
C 450.832716 111.802378 436.190533 101.996454 420.073705 95.29676 
C 403.956877 88.597066 386.678158 85.133612 369.224299 85.104189 
C 351.770441 85.074766 334.480142 88.479945 318.340818 95.125263 
C 302.201493 101.770582 287.526333 111.527084 275.153406 123.837596 
C 262.780478 136.148108 252.949885 150.77374 246.223032 166.879251 
C 239.496178 182.984762 236.003602 200.257618 235.944756 217.711403 
C 235.885911 235.165187 239.261938 252.461201 245.88004 268.611705 
C 252.498142 284.762208 262.229891 299.453795 274.519528 311.847457 
C 286.809165 324.241119 301.418204 334.096354 317.512353 340.850347 
C 333.606501 347.604341 350.873445 351.12603 368.327106 351.214298 
C 385.780766 351.302567 403.082446 347.955701 419.244084 341.364834 
C 435.405721 334.773968 450.113692 325.066998 462.528053 312.798271 
C 474.942415 300.529544 484.822263 285.937139 491.603378 269.854399 
C 498.384492 253.771659 501.935284 236.510676 502.052975 219.05719 
L 369 218.16 
z
" style="fill: #f77189"/>
   </g>
   <g id="patch_3">
    <path d="M 502.052975 219.05719 
C 502.053973 218.909138 502.054725 218.761085 502.055229 218.613031 
C 502.055733 218.464977 502.05599 218.316922 502.056 218.168867 
L 369 218.16 
z
" style="fill: #bb9832"/>
   </g>
   <g id="patch_4">
    <path d="M 502.056 218.168867 
C 502.056 218.167387 502.056 218.165906 502.056 218.164426 
C 502.056 218.162945 502.056 218.161465 502.056 218.159984 
L 369 218.16 
z
" style="fill: #50b131"/>
   </g>
   <g id="text_1">
    <text style="fill: #262626; font: 10px 'Arial', 'Liberation Sans', 'DejaVu Sans', 'Bitstream Vera Sans', sans-serif; text-anchor: end" x="222.639232" y="220.25248" transform="rotate(-0 222.639232 220.25248)">newsapi</text>
   </g>
   <g id="text_2">
    <text style="fill: #262626; font: 10px 'Arial', 'Liberation Sans', 'DejaVu Sans', 'Bitstream Vera Sans', sans-serif; text-anchor: middle" x="289.166854" y="220.476779" transform="rotate(-0 289.166854 220.476779)">99.9%</text>
   </g>
   <g id="text_3">
    <text style="fill: #262626; font: 10px 'Arial', 'Liberation Sans', 'DejaVu Sans', 'Bitstream Vera Sans', sans-serif; text-anchor: start" x="515.360752" y="221.244272" transform="rotate(-0 515.360752 221.244272)">chicago_pd</text>
   </g>
   <g id="text_4">
    <text style="fill: #262626; font: 10px 'Arial', 'Liberation Sans', 'DejaVu Sans', 'Bitstream Vera Sans', sans-serif; text-anchor: middle" x="448.833137" y="221.017756" transform="rotate(-0 448.833137 221.017756)">0.1%</text>
   </g>
   <g id="text_5">
    <text style="fill: #262626; font: 10px 'Arial', 'Liberation Sans', 'DejaVu Sans', 'Bitstream Vera Sans', sans-serif; text-anchor: start" x="515.3616" y="220.750806" transform="rotate(-0 515.3616 220.750806)">chicago_police</text>
   </g>
   <g id="text_6">
    <text style="fill: #262626; font: 10px 'Arial', 'Liberation Sans', 'DejaVu Sans', 'Bitstream Vera Sans', sans-serif; text-anchor: middle" x="448.8336" y="220.748593" transform="rotate(-0 448.8336 220.748593)">0.0%</text>
   </g>
   <g id="text_7">
    <text style="fill: #262626; font: 12px 'Arial', 'Liberation Sans', 'DejaVu Sans', 'Bitstream Vera Sans', sans-serif; text-anchor: middle" x="369" y="45.84" transform="rotate(-0 369 45.84)">Incidents by Source</text>
   </g>
  </g>
 </g>
</svg>
