<?xml version="1.0" encoding="utf-8" standalone="no"?>
<!DOCTYPE svg PUBLIC "-//W3C//DTD SVG 1.1//EN"
  "http://www.w3.org/Graphics/SVG/1.1/DTD/svg11.dtd">
<svg xmlns:xlink="http://www.w3.org/1999/xlink" width="720pt" height="432pt" viewBox="0 0 720 432" xmlns="http://www.w3.org/2000/svg" version="1.1">
 <metadata>
  <rdf:RDF xmlns:dc="http://purl.org/dc/elements/1.1/" xmlns:cc="http://creativecommons.org/ns#" xmlns:rdf="http://www.w3.org/1999/02/22-rdf-syntax-ns#">
   <cc:Work>
    <dc:type rdf:resource="http://purl.org/dc/dcmitype/StillImage"/>
    <dc:date>2025-05-18T18:17:55.560428</dc:date>
    <dc:format>image/svg+xml</dc:format>
    <dc:creator>
     <cc:Agent>
      <dc:title>Matplotlib v3.7.5, https://matplotlib.org/</dc:title>
     </cc:Agent>
    </dc:creator>
   </cc:Work>
  </rdf:RDF>
 </metadata>
 <defs>
  <style type="text/css">*{stroke-linejoin: round; stroke-linecap: butt}</style>
 </defs>
 <g id="figure_1">
  <g id="patch_1">
   <path d="M 0 432 
L 720 432 
L 720 0 
L 0 0 
z
" style="fill: #ffffff"/>
  </g>
  <g id="axes_1">
   <g id="matplotlib.axis_1"/>
   <g id="matplotlib.axis_2"/>
   <g id="patch_2">
    <path d="M 502.056 218.16 
C 502.056 200.741046 498.635411 183.490425 491.988807 167.389412 
C 485.342202 151.288399 475.598047 136.648188 463.31062 124.301564 
C 451.023194 111.95494 436.429984 102.140534 420.361101 95.416624 
C 404.292218 88.692713 387.058237 85.189254 369.639484 85.105537 
C 352.220731 85.021819 334.953869 88.35946 318.821098 94.928604 
C 302.688326 101.497748 288.001453 111.171428 275.595917 123.399374 
C 263.19038 135.627319 253.305951 150.173191 246.504889 166.209572 
C 239.703827 182.245953 236.11758 199.462898 235.950147 216.881048 
C 235.782714 234.299197 239.03733 251.5819 245.528861 267.746057 
C 252.020393 283.910215 261.623375 298.643411 273.791556 311.107573 
C 285.959738 323.571735 300.457936 333.52596 316.461446 340.404016 
C 332.464955 347.282072 349.664465 350.951024 367.081608 351.20217 
C 384.498752 351.453315 401.796897 348.281799 417.992067 341.868029 
C 434.187237 335.454259 448.966417 325.922198 461.488916 313.814062 
C 474.011416 301.705925 484.035205 287.255735 490.990097 271.285468 
C 497.944989 255.3152 501.696562 238.133522 502.031413 220.717787 
L 369 218.16 
z
" style="fill: #f77189"/>
   </g>
   <g id="patch_3">
    <path d="M 502.031413 220.717787 
C 502.039527 220.295762 502.045633 219.873701 502.049731 219.451618 
C 502.053828 219.029534 502.055917 218.607434 502.055998 218.185331 
L 369 218.16 
z
" style="fill: #bb9832"/>
   </g>
   <g id="patch_4">
    <path d="M 502.055998 218.185331 
C 502.055998 218.18111 502.055999 218.176889 502.055999 218.172668 
C 502.056 218.168447 502.056 218.164226 502.056 218.160005 
L 369 218.16 
z
" style="fill: #50b131"/>
   </g>
   <g id="text_1">
    <text style="fill: #262626; font: 10px 'Arial', 'Liberation Sans', 'DejaVu Sans', 'Bitstream Vera Sans', sans-serif; text-anchor: end" x="222.645162" y="219.33909" transform="rotate(-0 222.645162 219.33909)">newsapi</text>
   </g>
   <g id="text_2">
    <text style="fill: #262626; font: 10px 'Arial', 'Liberation Sans', 'DejaVu Sans', 'Bitstream Vera Sans', sans-serif; text-anchor: middle" x="289.170088" y="219.978566" transform="rotate(-0 289.170088 219.978566)">99.7%</text>
   </g>
   <g id="text_3">
    <text style="fill: #262626; font: 10px 'Arial', 'Liberation Sans', 'DejaVu Sans', 'Bitstream Vera Sans', sans-serif; text-anchor: start" x="515.354704" y="222.166717" transform="rotate(-0 515.354704 222.166717)">chicago_pd</text>
   </g>
   <g id="text_4">
    <text style="fill: #262626; font: 10px 'Arial', 'Liberation Sans', 'DejaVu Sans', 'Bitstream Vera Sans', sans-serif; text-anchor: middle" x="448.829838" y="221.520908" transform="rotate(-0 448.829838 221.520908)">0.3%</text>
   </g>
   <g id="text_5">
    <text style="fill: #262626; font: 10px 'Arial', 'Liberation Sans', 'DejaVu Sans', 'Bitstream Vera Sans', sans-serif; text-anchor: start" x="515.361599" y="220.759873" transform="rotate(-0 515.361599 220.759873)">chicago_police</text>
   </g>
   <g id="text_6">
    <text style="fill: #262626; font: 10px 'Arial', 'Liberation Sans', 'DejaVu Sans', 'Bitstream Vera Sans', sans-serif; text-anchor: middle" x="448.8336" y="220.753538" transform="rotate(-0 448.8336 220.753538)">0.0%</text>
   </g>
   <g id="text_7">
    <text style="fill: #262626; font: 12px 'Arial', 'Liberation Sans', 'DejaVu Sans', 'Bitstream Vera Sans', sans-serif; text-anchor: middle" x="369" y="45.84" transform="rotate(-0 369 45.84)">Incidents by Source</text>
   </g>
  </g>
 </g>
</svg>
