<?xml version="1.0" encoding="utf-8" standalone="no"?>
<!DOCTYPE svg PUBLIC "-//W3C//DTD SVG 1.1//EN"
  "http://www.w3.org/Graphics/SVG/1.1/DTD/svg11.dtd">
<svg xmlns:xlink="http://www.w3.org/1999/xlink" width="720pt" height="432pt" viewBox="0 0 720 432" xmlns="http://www.w3.org/2000/svg" version="1.1">
 <metadata>
  <rdf:RDF xmlns:dc="http://purl.org/dc/elements/1.1/" xmlns:cc="http://creativecommons.org/ns#" xmlns:rdf="http://www.w3.org/1999/02/22-rdf-syntax-ns#">
   <cc:Work>
    <dc:type rdf:resource="http://purl.org/dc/dcmitype/StillImage"/>
    <dc:date>2026-02-28T18:25:44.377226</dc:date>
    <dc:format>image/svg+xml</dc:format>
    <dc:creator>
     <cc:Agent>
      <dc:title>Matplotlib v3.7.5, https://matplotlib.org/</dc:title>
     </cc:Agent>
    </dc:creator>
   </cc:Work>
  </rdf:RDF>
 </metadata>
 <defs>
  <style type="text/css">*{stroke-linejoin: round; stroke-linecap: butt}</style>
 </defs>
 <g id="figure_1">
  <g id="patch_1">
   <path d="M 0 432 
L 720 432 
L 720 0 
L 0 0 
z
" style="fill: #ffffff"/>
  </g>
  <g id="axes_1">
   <g id="matplotlib.axis_1"/>
   <g id="matplotlib.axis_2"/>
   <g id="patch_2">
    <path d="M 502.056 218.16 
C 502.056 200.70657 498.621857 183.422478 491.949679 167.29473 
C 485.2775 151.166983 475.496755 136.50853 463.165974 124.156444 
C 450.835192 111.804358 436.193646 101.998323 420.077441 95.298313 
C 403.961236 88.598303 386.683097 85.134328 369.229693 85.104198 
C 351.77629 85.074069 334.486294 88.478369 318.347053 95.122696 
C 302.207811 101.767024 287.532496 111.52245 275.159142 123.831889 
C 262.785787 136.141329 252.954491 150.765926 246.22667 166.870541 
C 239.498849 182.975156 236.005052 200.247289 235.944793 217.700614 
C 235.884534 235.15394 239.258982 252.449786 245.875438 268.600474 
C 252.491895 284.751161 262.221972 299.443295 274.510033 311.837881 
C 286.798095 324.232466 301.405698 334.088994 317.498675 340.844606 
C 333.591652 347.600219 350.857728 351.123827 368.310923 351.214216 
C 385.764119 351.304604 403.065765 347.960019 419.22785 341.371453 
C 435.389935 334.782887 450.098844 325.078187 462.514624 312.811541 
C 474.930404 300.544895 484.812134 285.954328 491.595517 269.873038 
C 498.378901 253.791747 501.93231 236.531779 502.052828 219.078766 
L 369 218.16 
z
" style="fill: #f77189"/>
   </g>
   <g id="patch_3">
    <path d="M 502.052828 219.078766 
C 502.053875 218.927157 502.054663 218.775547 502.055191 218.623936 
C 502.05572 218.472325 502.055989 218.320713 502.056 218.169101 
L 369 218.16 
z
" style="fill: #bb9832"/>
   </g>
   <g id="patch_4">
    <path d="M 502.056 218.169101 
C 502.056 218.167585 502.056 218.166069 502.056 218.164553 
C 502.056 218.163037 502.056 218.161521 502.056 218.160005 
L 369 218.16 
z
" style="fill: #50b131"/>
   </g>
   <g id="text_1">
    <text style="fill: #262626; font: 10px 'Arial', 'Liberation Sans', 'DejaVu Sans', 'Bitstream Vera Sans', sans-serif; text-anchor: end" x="222.639272" y="220.240613" transform="rotate(-0 222.639272 220.240613)">newsapi</text>
   </g>
   <g id="text_2">
    <text style="fill: #262626; font: 10px 'Arial', 'Liberation Sans', 'DejaVu Sans', 'Bitstream Vera Sans', sans-serif; text-anchor: middle" x="289.166876" y="220.470306" transform="rotate(-0 289.166876 220.470306)">99.9%</text>
   </g>
   <g id="text_3">
    <text style="fill: #262626; font: 10px 'Arial', 'Liberation Sans', 'DejaVu Sans', 'Bitstream Vera Sans', sans-serif; text-anchor: start" x="515.36071" y="221.256267" transform="rotate(-0 515.36071 221.256267)">chicago_pd</text>
   </g>
   <g id="text_4">
    <text style="fill: #262626; font: 10px 'Arial', 'Liberation Sans', 'DejaVu Sans', 'Bitstream Vera Sans', sans-serif; text-anchor: middle" x="448.833115" y="221.024299" transform="rotate(-0 448.833115 221.024299)">0.1%</text>
   </g>
   <g id="text_5">
    <text style="fill: #262626; font: 10px 'Arial', 'Liberation Sans', 'DejaVu Sans', 'Bitstream Vera Sans', sans-serif; text-anchor: start" x="515.3616" y="220.750946" transform="rotate(-0 515.3616 220.750946)">chicago_police</text>
   </g>
   <g id="text_6">
    <text style="fill: #262626; font: 10px 'Arial', 'Liberation Sans', 'DejaVu Sans', 'Bitstream Vera Sans', sans-serif; text-anchor: middle" x="448.8336" y="220.748669" transform="rotate(-0 448.8336 220.748669)">0.0%</text>
   </g>
   <g id="text_7">
    <text style="fill: #262626; font: 12px 'Arial', 'Liberation Sans', 'DejaVu Sans', 'Bitstream Vera Sans', sans-serif; text-anchor: middle" x="369" y="45.84" transform="rotate(-0 369 45.84)">Incidents by Source</text>
   </g>
  </g>
 </g>
</svg>
