<?xml version="1.0" encoding="utf-8" standalone="no"?>
<!DOCTYPE svg PUBLIC "-//W3C//DTD SVG 1.1//EN"
  "http://www.w3.org/Graphics/SVG/1.1/DTD/svg11.dtd">
<svg xmlns:xlink="http://www.w3.org/1999/xlink" width="720pt" height="432pt" viewBox="0 0 720 432" xmlns="http://www.w3.org/2000/svg" version="1.1">
 <metadata>
  <rdf:RDF xmlns:dc="http://purl.org/dc/elements/1.1/" xmlns:cc="http://creativecommons.org/ns#" xmlns:rdf="http://www.w3.org/1999/02/22-rdf-syntax-ns#">
   <cc:Work>
    <dc:type rdf:resource="http://purl.org/dc/dcmitype/StillImage"/>
    <dc:date>2026-02-02T12:44:37.585613</dc:date>
    <dc:format>image/svg+xml</dc:format>
    <dc:creator>
     <cc:Agent>
      <dc:title>Matplotlib v3.7.5, https://matplotlib.org/</dc:title>
     </cc:Agent>
    </dc:creator>
   </cc:Work>
  </rdf:RDF>
 </metadata>
 <defs>
  <style type="text/css">*{stroke-linejoin: round; stroke-linecap: butt}</style>
 </defs>
 <g id="figure_1">
  <g id="patch_1">
   <path d="M 0 432 
L 720 432 
L 720 0 
L 0 0 
z
" style="fill: #ffffff"/>
  </g>
  <g id="axes_1">
   <g id="matplotlib.axis_1"/>
   <g id="matplotlib.axis_2"/>
   <g id="patch_2">
    <path d="M 502.056 218.16 
C 502.056 200.707768 498.622329 183.424838 491.951039 167.29802 
C 485.27975 151.171201 475.500277 136.513381 463.171003 124.161483 
C 450.841729 111.809585 436.201863 102.003256 420.087302 95.302413 
C 403.97274 88.601569 386.696134 85.136219 369.243932 85.104224 
C 351.79173 85.072228 334.502534 88.474209 318.363512 95.115922 
C 302.224489 101.757634 287.548766 111.510218 275.174285 123.816827 
C 262.799804 136.123435 252.966653 150.745299 246.236278 166.847549 
C 239.505903 182.949798 236.008885 200.220022 235.944894 217.672136 
C 235.880904 235.124251 239.251183 252.419654 245.863296 268.570826 
C 252.47541 284.721997 262.201073 299.415576 274.484974 311.812598 
C 286.768876 324.209619 301.372688 334.069561 317.462572 340.829445 
C 333.552455 347.589329 350.816239 351.118002 368.268207 351.213988 
C 385.720174 351.309973 403.021728 347.971408 419.184994 341.388915 
C 435.34826 334.806422 450.059645 325.107714 462.479166 312.846561 
C 474.898686 300.585407 484.785384 285.999696 491.574755 269.922232 
C 498.364125 253.844768 501.924442 236.587483 502.052422 219.13572 
L 369 218.16 
z
" style="fill: #f77189"/>
   </g>
   <g id="patch_3">
    <path d="M 502.052422 219.13572 
C 502.053603 218.974717 502.054492 218.813712 502.055088 218.652705 
C 502.055684 218.491699 502.055988 218.330692 502.056 218.169684 
L 369 218.16 
z
" style="fill: #bb9832"/>
   </g>
   <g id="patch_4">
    <path d="M 502.056 218.169684 
C 502.056 218.168074 502.056 218.166464 502.056 218.164854 
C 502.056 218.163244 502.056 218.161634 502.056 218.160024 
L 369 218.16 
z
" style="fill: #50b131"/>
   </g>
   <g id="text_1">
    <text style="fill: #262626; font: 10px 'Arial', 'Liberation Sans', 'DejaVu Sans', 'Bitstream Vera Sans', sans-serif; text-anchor: end" x="222.639384" y="220.209288" transform="rotate(-0 222.639384 220.209288)">newsapi</text>
   </g>
   <g id="text_2">
    <text style="fill: #262626; font: 10px 'Arial', 'Liberation Sans', 'DejaVu Sans', 'Bitstream Vera Sans', sans-serif; text-anchor: middle" x="289.166937" y="220.453219" transform="rotate(-0 289.166937 220.453219)">99.9%</text>
   </g>
   <g id="text_3">
    <text style="fill: #262626; font: 10px 'Arial', 'Liberation Sans', 'DejaVu Sans', 'Bitstream Vera Sans', sans-serif; text-anchor: start" x="515.360597" y="221.287914" transform="rotate(-0 515.360597 221.287914)">chicago_pd</text>
   </g>
   <g id="text_4">
    <text style="fill: #262626; font: 10px 'Arial', 'Liberation Sans', 'DejaVu Sans', 'Bitstream Vera Sans', sans-serif; text-anchor: middle" x="448.833053" y="221.041561" transform="rotate(-0 448.833053 221.041561)">0.1%</text>
   </g>
   <g id="text_5">
    <text style="fill: #262626; font: 10px 'Arial', 'Liberation Sans', 'DejaVu Sans', 'Bitstream Vera Sans', sans-serif; text-anchor: start" x="515.3616" y="220.751277" transform="rotate(-0 515.3616 220.751277)">chicago_police</text>
   </g>
   <g id="text_6">
    <text style="fill: #262626; font: 10px 'Arial', 'Liberation Sans', 'DejaVu Sans', 'Bitstream Vera Sans', sans-serif; text-anchor: middle" x="448.8336" y="220.74885" transform="rotate(-0 448.8336 220.74885)">0.0%</text>
   </g>
   <g id="text_7">
    <text style="fill: #262626; font: 12px 'Arial', 'Liberation Sans', 'DejaVu Sans', 'Bitstream Vera Sans', sans-serif; text-anchor: middle" x="369" y="45.84" transform="rotate(-0 369 45.84)">Incidents by Source</text>
   </g>
  </g>
 </g>
</svg>
