<?xml version="1.0" encoding="utf-8" standalone="no"?>
<!DOCTYPE svg PUBLIC "-//W3C//DTD SVG 1.1//EN"
  "http://www.w3.org/Graphics/SVG/1.1/DTD/svg11.dtd">
<svg xmlns:xlink="http://www.w3.org/1999/xlink" width="720pt" height="432pt" viewBox="0 0 720 432" xmlns="http://www.w3.org/2000/svg" version="1.1">
 <metadata>
  <rdf:RDF xmlns:dc="http://purl.org/dc/elements/1.1/" xmlns:cc="http://creativecommons.org/ns#" xmlns:rdf="http://www.w3.org/1999/02/22-rdf-syntax-ns#">
   <cc:Work>
    <dc:type rdf:resource="http://purl.org/dc/dcmitype/StillImage"/>
    <dc:date>2026-01-16T18:25:10.027872</dc:date>
    <dc:format>image/svg+xml</dc:format>
    <dc:creator>
     <cc:Agent>
      <dc:title>Matplotlib v3.7.5, https://matplotlib.org/</dc:title>
     </cc:Agent>
    </dc:creator>
   </cc:Work>
  </rdf:RDF>
 </metadata>
 <defs>
  <style type="text/css">*{stroke-linejoin: round; stroke-linecap: butt}</style>
 </defs>
 <g id="figure_1">
  <g id="patch_1">
   <path d="M 0 432 
L 720 432 
L 720 0 
L 0 0 
z
" style="fill: #ffffff"/>
  </g>
  <g id="axes_1">
   <g id="matplotlib.axis_1"/>
   <g id="matplotlib.axis_2"/>
   <g id="patch_2">
    <path d="M 502.056 218.16 
C 502.056 200.708651 498.622676 183.426578 491.952042 167.300443 
C 485.281408 151.174308 475.502872 136.516954 463.174708 124.165195 
C 450.846545 111.813435 436.207916 102.006891 420.094566 95.305434 
C 403.981215 88.603976 386.705739 85.137613 369.254421 85.104243 
C 351.803104 85.070874 334.514498 88.471146 318.375637 95.110933 
C 302.236776 101.750719 287.560752 111.50121 275.185442 123.805733 
C 262.810132 136.110256 252.975614 150.730106 246.243358 166.830613 
C 239.511102 182.93112 236.011712 200.199937 235.944973 217.651158 
C 235.878234 235.10238 239.245442 252.397456 245.854357 268.548984 
C 252.463271 284.700511 262.185682 299.395153 274.466519 311.793968 
C 286.747356 324.192784 301.348375 334.055239 317.435979 340.818269 
C 333.523583 347.581299 350.785677 351.113703 368.236739 351.213811 
C 385.687801 351.313918 402.989285 347.979787 419.15342 341.401769 
C 435.317555 334.82375 450.030761 325.129456 462.453036 312.87235 
C 474.875312 300.615243 484.765668 286.033109 491.559447 269.958466 
C 498.353226 253.883823 501.918632 236.628515 502.052108 219.177676 
L 369 218.16 
z
" style="fill: #f77189"/>
   </g>
   <g id="patch_3">
    <path d="M 502.052108 219.177676 
C 502.053393 219.009746 502.054359 218.841813 502.055008 218.673879 
C 502.055656 218.505945 502.055987 218.33801 502.056 218.170075 
L 369 218.16 
z
" style="fill: #bb9832"/>
   </g>
   <g id="patch_4">
    <path d="M 502.056 218.170075 
C 502.056 218.168395 502.056 218.166716 502.056 218.165037 
C 502.056 218.163357 502.056 218.161678 502.056 218.159998 
L 369 218.16 
z
" style="fill: #50b131"/>
   </g>
   <g id="text_1">
    <text style="fill: #262626; font: 10px 'Arial', 'Liberation Sans', 'DejaVu Sans', 'Bitstream Vera Sans', sans-serif; text-anchor: end" x="222.63947" y="220.186211" transform="rotate(-0 222.63947 220.186211)">newsapi</text>
   </g>
   <g id="text_2">
    <text style="fill: #262626; font: 10px 'Arial', 'Liberation Sans', 'DejaVu Sans', 'Bitstream Vera Sans', sans-serif; text-anchor: middle" x="289.166984" y="220.440632" transform="rotate(-0 289.166984 220.440632)">99.9%</text>
   </g>
   <g id="text_3">
    <text style="fill: #262626; font: 10px 'Arial', 'Liberation Sans', 'DejaVu Sans', 'Bitstream Vera Sans', sans-serif; text-anchor: start" x="515.360508" y="221.311205" transform="rotate(-0 515.360508 221.311205)">chicago_pd</text>
   </g>
   <g id="text_4">
    <text style="fill: #262626; font: 10px 'Arial', 'Liberation Sans', 'DejaVu Sans', 'Bitstream Vera Sans', sans-serif; text-anchor: middle" x="448.833005" y="221.054265" transform="rotate(-0 448.833005 221.054265)">0.1%</text>
   </g>
   <g id="text_5">
    <text style="fill: #262626; font: 10px 'Arial', 'Liberation Sans', 'DejaVu Sans', 'Bitstream Vera Sans', sans-serif; text-anchor: start" x="515.3616" y="220.751478" transform="rotate(-0 515.3616 220.751478)">chicago_police</text>
   </g>
   <g id="text_6">
    <text style="fill: #262626; font: 10px 'Arial', 'Liberation Sans', 'DejaVu Sans', 'Bitstream Vera Sans', sans-serif; text-anchor: middle" x="448.8336" y="220.748959" transform="rotate(-0 448.8336 220.748959)">0.0%</text>
   </g>
   <g id="text_7">
    <text style="fill: #262626; font: 12px 'Arial', 'Liberation Sans', 'DejaVu Sans', 'Bitstream Vera Sans', sans-serif; text-anchor: middle" x="369" y="45.84" transform="rotate(-0 369 45.84)">Incidents by Source</text>
   </g>
  </g>
 </g>
</svg>
