<?xml version="1.0" encoding="utf-8" standalone="no"?>
<!DOCTYPE svg PUBLIC "-//W3C//DTD SVG 1.1//EN"
  "http://www.w3.org/Graphics/SVG/1.1/DTD/svg11.dtd">
<svg xmlns:xlink="http://www.w3.org/1999/xlink" width="720pt" height="432pt" viewBox="0 0 720 432" xmlns="http://www.w3.org/2000/svg" version="1.1">
 <metadata>
  <rdf:RDF xmlns:dc="http://purl.org/dc/elements/1.1/" xmlns:cc="http://creativecommons.org/ns#" xmlns:rdf="http://www.w3.org/1999/02/22-rdf-syntax-ns#">
   <cc:Work>
    <dc:type rdf:resource="http://purl.org/dc/dcmitype/StillImage"/>
    <dc:date>2025-02-06T00:58:29.079253</dc:date>
    <dc:format>image/svg+xml</dc:format>
    <dc:creator>
     <cc:Agent>
      <dc:title>Matplotlib v3.7.5, https://matplotlib.org/</dc:title>
     </cc:Agent>
    </dc:creator>
   </cc:Work>
  </rdf:RDF>
 </metadata>
 <defs>
  <style type="text/css">*{stroke-linejoin: round; stroke-linecap: butt}</style>
 </defs>
 <g id="figure_1">
  <g id="patch_1">
   <path d="M 0 432 
L 720 432 
L 720 0 
L 0 0 
z
" style="fill: #ffffff"/>
  </g>
  <g id="axes_1">
   <g id="matplotlib.axis_1"/>
   <g id="matplotlib.axis_2"/>
   <g id="patch_2">
    <path d="M 502.056 218.16 
C 502.056 200.821658 498.666997 183.64932 492.080019 167.610934 
C 485.493041 151.572549 475.834219 136.97523 463.647991 124.641782 
C 451.461762 112.308335 436.981477 102.474928 421.023343 95.695838 
C 405.065209 88.916749 387.934803 85.321788 370.597711 85.113593 
C 353.26062 84.905397 336.048825 88.087954 319.9325 94.481871 
C 303.816176 100.875788 289.103928 110.358632 276.62504 122.395884 
C 264.146152 134.433136 254.139577 148.7943 247.169354 164.669881 
C 240.199131 180.545463 236.398731 197.631466 235.98237 214.964808 
C 235.566009 232.29815 238.54166 249.546919 244.741594 265.738859 
C 250.941529 281.930798 260.247027 296.755853 272.133567 309.378383 
C 284.020108 322.000913 298.260078 332.179212 314.050818 339.339563 
C 329.841558 346.499915 346.880695 350.505206 364.207788 351.129673 
C 381.53488 351.754139 398.818137 348.985823 415.083357 342.980765 
C 431.348577 336.975707 446.284301 327.848896 459.048652 316.114782 
C 471.813004 304.380668 482.16156 290.263943 489.511007 274.560321 
C 496.860455 258.8567 501.07006 241.866887 501.902542 224.548542 
L 369 218.16 
z
" style="fill: #f77189"/>
   </g>
   <g id="patch_3">
    <path d="M 501.902542 224.548542 
C 501.953179 223.495129 501.99129 222.441152 502.016866 221.386833 
C 502.042443 220.332515 502.055483 219.277929 502.055985 218.223301 
L 369 218.16 
z
" style="fill: #bb9832"/>
   </g>
   <g id="patch_4">
    <path d="M 502.055985 218.223301 
C 502.05599 218.212754 502.055994 218.202208 502.055996 218.191662 
C 502.055999 218.181116 502.056 218.17057 502.056 218.160024 
L 369 218.16 
z
" style="fill: #50b131"/>
   </g>
   <g id="text_1">
    <text style="fill: #262626; font: 10px 'Arial', 'Liberation Sans', 'DejaVu Sans', 'Bitstream Vera Sans', sans-serif; text-anchor: end" x="222.680607" y="217.231226" transform="rotate(-0 222.680607 217.231226)">newsapi</text>
   </g>
   <g id="text_2">
    <text style="fill: #262626; font: 10px 'Arial', 'Liberation Sans', 'DejaVu Sans', 'Bitstream Vera Sans', sans-serif; text-anchor: middle" x="289.189422" y="218.828822" transform="rotate(-0 289.189422 218.828822)">99.2%</text>
   </g>
   <g id="text_3">
    <text style="fill: #262626; font: 10px 'Arial', 'Liberation Sans', 'DejaVu Sans', 'Bitstream Vera Sans', sans-serif; text-anchor: start" x="515.318553" y="224.295454" transform="rotate(-0 515.318553 224.295454)">chicago_pd</text>
   </g>
   <g id="text_4">
    <text style="fill: #262626; font: 10px 'Arial', 'Liberation Sans', 'DejaVu Sans', 'Bitstream Vera Sans', sans-serif; text-anchor: middle" x="448.81012" y="222.682037" transform="rotate(-0 448.81012 222.682037)">0.8%</text>
   </g>
   <g id="text_5">
    <text style="fill: #262626; font: 10px 'Arial', 'Liberation Sans', 'DejaVu Sans', 'Bitstream Vera Sans', sans-serif; text-anchor: start" x="515.361596" y="220.780766" transform="rotate(-0 515.361596 220.780766)">chicago_police</text>
   </g>
   <g id="text_6">
    <text style="fill: #262626; font: 10px 'Arial', 'Liberation Sans', 'DejaVu Sans', 'Bitstream Vera Sans', sans-serif; text-anchor: middle" x="448.833598" y="220.764935" transform="rotate(-0 448.833598 220.764935)">0.0%</text>
   </g>
   <g id="text_7">
    <text style="fill: #262626; font: 12px 'Arial', 'Liberation Sans', 'DejaVu Sans', 'Bitstream Vera Sans', sans-serif; text-anchor: middle" x="369" y="45.84" transform="rotate(-0 369 45.84)">Incidents by Source</text>
   </g>
  </g>
 </g>
</svg>
