<?xml version="1.0" encoding="utf-8" standalone="no"?>
<!DOCTYPE svg PUBLIC "-//W3C//DTD SVG 1.1//EN"
  "http://www.w3.org/Graphics/SVG/1.1/DTD/svg11.dtd">
<svg xmlns:xlink="http://www.w3.org/1999/xlink" width="720pt" height="432pt" viewBox="0 0 720 432" xmlns="http://www.w3.org/2000/svg" version="1.1">
 <metadata>
  <rdf:RDF xmlns:dc="http://purl.org/dc/elements/1.1/" xmlns:cc="http://creativecommons.org/ns#" xmlns:rdf="http://www.w3.org/1999/02/22-rdf-syntax-ns#">
   <cc:Work>
    <dc:type rdf:resource="http://purl.org/dc/dcmitype/StillImage"/>
    <dc:date>2025-12-23T01:13:10.050463</dc:date>
    <dc:format>image/svg+xml</dc:format>
    <dc:creator>
     <cc:Agent>
      <dc:title>Matplotlib v3.7.5, https://matplotlib.org/</dc:title>
     </cc:Agent>
    </dc:creator>
   </cc:Work>
  </rdf:RDF>
 </metadata>
 <defs>
  <style type="text/css">*{stroke-linejoin: round; stroke-linecap: butt}</style>
 </defs>
 <g id="figure_1">
  <g id="patch_1">
   <path d="M 0 432 
L 720 432 
L 720 0 
L 0 0 
z
" style="fill: #ffffff"/>
  </g>
  <g id="axes_1">
   <g id="matplotlib.axis_1"/>
   <g id="matplotlib.axis_2"/>
   <g id="patch_2">
    <path d="M 502.056 218.16 
C 502.056 200.709921 498.623176 183.429081 491.953485 167.303931 
C 485.283793 151.17878 475.506607 136.522098 463.180041 124.170538 
C 450.853476 111.818978 436.216628 102.012123 420.105021 95.309782 
C 403.993414 88.607442 386.719563 85.13962 369.26952 85.104273 
C 351.819477 85.068926 334.531719 88.466739 318.393091 95.103753 
C 302.254464 101.740767 287.578007 111.488245 275.201503 123.789766 
C 262.825 136.091286 252.988516 150.708239 246.253553 166.806237 
C 239.518591 182.904234 236.015786 200.171025 235.945092 217.620961 
C 235.874398 235.070897 239.237186 252.365502 245.841495 268.51754 
C 252.445805 284.669579 262.163534 299.36575 274.43996 311.767147 
C 286.716385 324.168543 301.313383 334.034614 317.397705 340.802172 
C 333.482027 347.569729 350.741688 351.107502 368.191444 351.213543 
C 385.641201 351.319584 402.942583 347.991835 419.107966 341.420257 
C 435.273349 334.848678 449.989175 325.160738 462.415412 312.909458 
C 474.84165 300.658178 484.73727 286.081195 491.537394 270.010615 
C 498.337518 253.940034 501.910245 236.687575 502.051632 219.238069 
L 369 218.16 
z
" style="fill: #f77189"/>
   </g>
   <g id="patch_3">
    <path d="M 502.051632 219.238069 
C 502.053074 219.060171 502.054159 218.882271 502.054886 218.704368 
C 502.055614 218.526466 502.055985 218.348563 502.056 218.170659 
L 369 218.16 
z
" style="fill: #bb9832"/>
   </g>
   <g id="patch_4">
    <path d="M 502.056 218.170659 
C 502.056 218.16888 502.056 218.167101 502.056 218.165322 
C 502.056 218.163543 502.056 218.161764 502.056 218.159985 
L 369 218.16 
z
" style="fill: #50b131"/>
   </g>
   <g id="text_1">
    <text style="fill: #262626; font: 10px 'Arial', 'Liberation Sans', 'DejaVu Sans', 'Bitstream Vera Sans', sans-serif; text-anchor: end" x="222.639601" y="220.152995" transform="rotate(-0 222.639601 220.152995)">newsapi</text>
   </g>
   <g id="text_2">
    <text style="fill: #262626; font: 10px 'Arial', 'Liberation Sans', 'DejaVu Sans', 'Bitstream Vera Sans', sans-serif; text-anchor: middle" x="289.167055" y="220.422514" transform="rotate(-0 289.167055 220.422514)">99.9%</text>
   </g>
   <g id="text_3">
    <text style="fill: #262626; font: 10px 'Arial', 'Liberation Sans', 'DejaVu Sans', 'Bitstream Vera Sans', sans-serif; text-anchor: start" x="515.360375" y="221.344743" transform="rotate(-0 515.360375 221.344743)">chicago_pd</text>
   </g>
   <g id="text_4">
    <text style="fill: #262626; font: 10px 'Arial', 'Liberation Sans', 'DejaVu Sans', 'Bitstream Vera Sans', sans-serif; text-anchor: middle" x="448.832932" y="221.072559" transform="rotate(-0 448.832932 221.072559)">0.1%</text>
   </g>
   <g id="text_5">
    <text style="fill: #262626; font: 10px 'Arial', 'Liberation Sans', 'DejaVu Sans', 'Bitstream Vera Sans', sans-serif; text-anchor: start" x="515.3616" y="220.751792" transform="rotate(-0 515.3616 220.751792)">chicago_police</text>
   </g>
   <g id="text_6">
    <text style="fill: #262626; font: 10px 'Arial', 'Liberation Sans', 'DejaVu Sans', 'Bitstream Vera Sans', sans-serif; text-anchor: middle" x="448.8336" y="220.749131" transform="rotate(-0 448.8336 220.749131)">0.0%</text>
   </g>
   <g id="text_7">
    <text style="fill: #262626; font: 12px 'Arial', 'Liberation Sans', 'DejaVu Sans', 'Bitstream Vera Sans', sans-serif; text-anchor: middle" x="369" y="45.84" transform="rotate(-0 369 45.84)">Incidents by Source</text>
   </g>
  </g>
 </g>
</svg>
