<?xml version="1.0" encoding="utf-8" standalone="no"?>
<!DOCTYPE svg PUBLIC "-//W3C//DTD SVG 1.1//EN"
  "http://www.w3.org/Graphics/SVG/1.1/DTD/svg11.dtd">
<svg xmlns:xlink="http://www.w3.org/1999/xlink" width="720pt" height="432pt" viewBox="0 0 720 432" xmlns="http://www.w3.org/2000/svg" version="1.1">
 <metadata>
  <rdf:RDF xmlns:dc="http://purl.org/dc/elements/1.1/" xmlns:cc="http://creativecommons.org/ns#" xmlns:rdf="http://www.w3.org/1999/02/22-rdf-syntax-ns#">
   <cc:Work>
    <dc:type rdf:resource="http://purl.org/dc/dcmitype/StillImage"/>
    <dc:date>2025-06-25T01:57:53.153410</dc:date>
    <dc:format>image/svg+xml</dc:format>
    <dc:creator>
     <cc:Agent>
      <dc:title>Matplotlib v3.7.5, https://matplotlib.org/</dc:title>
     </cc:Agent>
    </dc:creator>
   </cc:Work>
  </rdf:RDF>
 </metadata>
 <defs>
  <style type="text/css">*{stroke-linejoin: round; stroke-linecap: butt}</style>
 </defs>
 <g id="figure_1">
  <g id="patch_1">
   <path d="M 0 432 
L 720 432 
L 720 0 
L 0 0 
z
" style="fill: #ffffff"/>
  </g>
  <g id="axes_1">
   <g id="matplotlib.axis_1"/>
   <g id="matplotlib.axis_2"/>
   <g id="patch_2">
    <path d="M 502.056 218.16 
C 502.056 200.730841 498.631402 183.470312 491.977232 167.361383 
C 485.323063 151.252453 475.568083 136.606836 463.267828 124.258585 
C 450.967573 111.910333 436.360058 102.09839 420.277165 95.381535 
C 404.194273 88.66468 386.947212 85.172887 369.518185 85.105009 
C 352.089158 85.037131 334.815423 88.394483 318.680701 94.985866 
C 302.54598 101.577249 287.862483 111.275118 275.466422 123.527189 
C 263.070361 135.77926 253.201603 150.348452 246.422165 166.405064 
C 239.642726 182.461676 236.08379 199.695008 235.948036 217.123638 
C 235.812282 234.552268 239.102336 251.838947 245.630832 267.999217 
C 252.159328 284.159486 261.799939 298.88064 274.003641 311.324322 
C 286.207343 323.768005 300.737991 333.693427 316.768079 340.535347 
C 332.798166 347.377266 350.017507 351.00329 367.445476 351.206919 
C 384.873445 351.410548 402.172807 348.187842 418.358379 341.722331 
C 434.543951 335.25682 449.302538 325.673614 461.793653 313.518466 
C 474.284769 301.363318 484.266705 286.871435 491.171002 270.868115 
C 498.075299 254.864794 501.768355 237.659706 502.039856 220.232662 
L 369 218.16 
z
" style="fill: #f77189"/>
   </g>
   <g id="patch_3">
    <path d="M 502.039856 220.232662 
C 502.045184 219.890665 502.049193 219.548649 502.051884 219.206622 
C 502.054574 218.864594 502.055946 218.522557 502.055998 218.180519 
L 369 218.16 
z
" style="fill: #bb9832"/>
   </g>
   <g id="patch_4">
    <path d="M 502.055998 218.180519 
C 502.055999 218.177099 502.055999 218.173678 502.056 218.170258 
C 502.056 218.166838 502.056 218.163417 502.056 218.159997 
L 369 218.16 
z
" style="fill: #50b131"/>
   </g>
   <g id="text_1">
    <text style="fill: #262626; font: 10px 'Arial', 'Liberation Sans', 'DejaVu Sans', 'Bitstream Vera Sans', sans-serif; text-anchor: end" x="222.64284" y="219.605939" transform="rotate(-0 222.64284 219.605939)">newsapi</text>
   </g>
   <g id="text_2">
    <text style="fill: #262626; font: 10px 'Arial', 'Liberation Sans', 'DejaVu Sans', 'Bitstream Vera Sans', sans-serif; text-anchor: middle" x="289.168822" y="220.12412" transform="rotate(-0 289.168822 220.12412)">99.8%</text>
   </g>
   <g id="text_3">
    <text style="fill: #262626; font: 10px 'Arial', 'Liberation Sans', 'DejaVu Sans', 'Bitstream Vera Sans', sans-serif; text-anchor: start" x="515.357072" y="221.897221" transform="rotate(-0 515.357072 221.897221)">chicago_pd</text>
   </g>
   <g id="text_4">
    <text style="fill: #262626; font: 10px 'Arial', 'Liberation Sans', 'DejaVu Sans', 'Bitstream Vera Sans', sans-serif; text-anchor: middle" x="448.83113" y="221.37391" transform="rotate(-0 448.83113 221.37391)">0.2%</text>
   </g>
   <g id="text_5">
    <text style="fill: #262626; font: 10px 'Arial', 'Liberation Sans', 'DejaVu Sans', 'Bitstream Vera Sans', sans-serif; text-anchor: start" x="515.3616" y="220.757221" transform="rotate(-0 515.3616 220.757221)">chicago_police</text>
   </g>
   <g id="text_6">
    <text style="fill: #262626; font: 10px 'Arial', 'Liberation Sans', 'DejaVu Sans', 'Bitstream Vera Sans', sans-serif; text-anchor: middle" x="448.8336" y="220.752092" transform="rotate(-0 448.8336 220.752092)">0.0%</text>
   </g>
   <g id="text_7">
    <text style="fill: #262626; font: 12px 'Arial', 'Liberation Sans', 'DejaVu Sans', 'Bitstream Vera Sans', sans-serif; text-anchor: middle" x="369" y="45.84" transform="rotate(-0 369 45.84)">Incidents by Source</text>
   </g>
  </g>
 </g>
</svg>
