<?xml version="1.0" encoding="utf-8" standalone="no"?>
<!DOCTYPE svg PUBLIC "-//W3C//DTD SVG 1.1//EN"
  "http://www.w3.org/Graphics/SVG/1.1/DTD/svg11.dtd">
<svg xmlns:xlink="http://www.w3.org/1999/xlink" width="720pt" height="432pt" viewBox="0 0 720 432" xmlns="http://www.w3.org/2000/svg" version="1.1">
 <metadata>
  <rdf:RDF xmlns:dc="http://purl.org/dc/elements/1.1/" xmlns:cc="http://creativecommons.org/ns#" xmlns:rdf="http://www.w3.org/1999/02/22-rdf-syntax-ns#">
   <cc:Work>
    <dc:type rdf:resource="http://purl.org/dc/dcmitype/StillImage"/>
    <dc:date>2025-09-17T12:46:50.526303</dc:date>
    <dc:format>image/svg+xml</dc:format>
    <dc:creator>
     <cc:Agent>
      <dc:title>Matplotlib v3.7.5, https://matplotlib.org/</dc:title>
     </cc:Agent>
    </dc:creator>
   </cc:Work>
  </rdf:RDF>
 </metadata>
 <defs>
  <style type="text/css">*{stroke-linejoin: round; stroke-linecap: butt}</style>
 </defs>
 <g id="figure_1">
  <g id="patch_1">
   <path d="M 0 432 
L 720 432 
L 720 0 
L 0 0 
z
" style="fill: #ffffff"/>
  </g>
  <g id="axes_1">
   <g id="matplotlib.axis_1"/>
   <g id="matplotlib.axis_2"/>
   <g id="patch_2">
    <path d="M 502.056 218.16 
C 502.056 200.717471 498.626146 183.443962 491.962058 167.324664 
C 485.297971 151.205367 475.528801 136.552675 463.211733 124.202305 
C 450.894665 111.851935 436.268405 102.043237 420.16716 95.33565 
C 404.065915 88.628064 386.801729 85.151582 369.359264 85.104485 
C 351.916799 85.057388 334.634091 88.44059 318.496859 95.06113 
C 302.359627 101.681669 287.680611 111.411239 275.297029 123.694915 
C 262.913446 135.978591 253.065292 150.578313 246.314255 166.661388 
C 239.563217 182.744463 236.040133 199.9992 235.94594 217.441474 
C 235.851747 234.883748 239.188272 252.175528 245.765215 268.330578 
C 252.342158 284.485627 262.032058 299.19086 274.282252 311.607565 
C 286.532446 324.024269 301.105525 333.911808 317.170313 340.706247 
C 333.2351 347.500685 350.480261 351.070347 367.922217 351.211635 
C 385.364174 351.352923 402.6649 348.0631 418.837649 341.529801 
C 435.010398 334.996503 449.741741 325.346343 462.191477 313.12972 
C 474.641213 300.913097 484.568065 286.366769 491.405855 270.320386 
C 498.243645 254.274002 501.859857 237.038543 502.04824 219.597031 
L 369 218.16 
z
" style="fill: #f77189"/>
   </g>
   <g id="patch_3">
    <path d="M 502.04824 219.597031 
C 502.050801 219.359906 502.052728 219.122774 502.054021 218.885638 
C 502.055315 218.648502 502.055974 218.411363 502.055999 218.174224 
L 369 218.16 
z
" style="fill: #bb9832"/>
   </g>
   <g id="patch_4">
    <path d="M 502.055999 218.174224 
C 502.055999 218.171852 502.056 218.169481 502.056 218.167109 
C 502.056 218.164738 502.056 218.162367 502.056 218.159995 
L 369 218.16 
z
" style="fill: #50b131"/>
   </g>
   <g id="text_1">
    <text style="fill: #262626; font: 10px 'Arial', 'Liberation Sans', 'DejaVu Sans', 'Bitstream Vera Sans', sans-serif; text-anchor: end" x="222.640534" y="219.955559" transform="rotate(-0 222.640534 219.955559)">newsapi</text>
   </g>
   <g id="text_2">
    <text style="fill: #262626; font: 10px 'Arial', 'Liberation Sans', 'DejaVu Sans', 'Bitstream Vera Sans', sans-serif; text-anchor: middle" x="289.167564" y="220.314822" transform="rotate(-0 289.167564 220.314822)">99.8%</text>
   </g>
   <g id="text_3">
    <text style="fill: #262626; font: 10px 'Arial', 'Liberation Sans', 'DejaVu Sans', 'Bitstream Vera Sans', sans-serif; text-anchor: start" x="515.359423" y="221.544139" transform="rotate(-0 515.359423 221.544139)">chicago_pd</text>
   </g>
   <g id="text_4">
    <text style="fill: #262626; font: 10px 'Arial', 'Liberation Sans', 'DejaVu Sans', 'Bitstream Vera Sans', sans-serif; text-anchor: middle" x="448.832413" y="221.18132" transform="rotate(-0 448.832413 221.18132)">0.2%</text>
   </g>
   <g id="text_5">
    <text style="fill: #262626; font: 10px 'Arial', 'Liberation Sans', 'DejaVu Sans', 'Bitstream Vera Sans', sans-serif; text-anchor: start" x="515.3616" y="220.753758" transform="rotate(-0 515.3616 220.753758)">chicago_police</text>
   </g>
   <g id="text_6">
    <text style="fill: #262626; font: 10px 'Arial', 'Liberation Sans', 'DejaVu Sans', 'Bitstream Vera Sans', sans-serif; text-anchor: middle" x="448.8336" y="220.750203" transform="rotate(-0 448.8336 220.750203)">0.0%</text>
   </g>
   <g id="text_7">
    <text style="fill: #262626; font: 12px 'Arial', 'Liberation Sans', 'DejaVu Sans', 'Bitstream Vera Sans', sans-serif; text-anchor: middle" x="369" y="45.84" transform="rotate(-0 369 45.84)">Incidents by Source</text>
   </g>
  </g>
 </g>
</svg>
