<?xml version="1.0" encoding="utf-8" standalone="no"?>
<!DOCTYPE svg PUBLIC "-//W3C//DTD SVG 1.1//EN"
  "http://www.w3.org/Graphics/SVG/1.1/DTD/svg11.dtd">
<svg xmlns:xlink="http://www.w3.org/1999/xlink" width="720pt" height="432pt" viewBox="0 0 720 432" xmlns="http://www.w3.org/2000/svg" version="1.1">
 <metadata>
  <rdf:RDF xmlns:dc="http://purl.org/dc/elements/1.1/" xmlns:cc="http://creativecommons.org/ns#" xmlns:rdf="http://www.w3.org/1999/02/22-rdf-syntax-ns#">
   <cc:Work>
    <dc:type rdf:resource="http://purl.org/dc/dcmitype/StillImage"/>
    <dc:date>2026-03-10T18:40:22.068800</dc:date>
    <dc:format>image/svg+xml</dc:format>
    <dc:creator>
     <cc:Agent>
      <dc:title>Matplotlib v3.7.5, https://matplotlib.org/</dc:title>
     </cc:Agent>
    </dc:creator>
   </cc:Work>
  </rdf:RDF>
 </metadata>
 <defs>
  <style type="text/css">*{stroke-linejoin: round; stroke-linecap: butt}</style>
 </defs>
 <g id="figure_1">
  <g id="patch_1">
   <path d="M 0 432 
L 720 432 
L 720 0 
L 0 0 
z
" style="fill: #ffffff"/>
  </g>
  <g id="axes_1">
   <g id="matplotlib.axis_1"/>
   <g id="matplotlib.axis_2"/>
   <g id="patch_2">
    <path d="M 502.056 218.16 
C 502.056 200.706267 498.621738 183.421878 491.949333 167.293896 
C 485.276929 151.165913 475.495861 136.5073 463.164697 124.155166 
C 450.833534 111.803032 436.191561 101.997071 420.074939 95.297273 
C 403.958317 88.597474 386.679789 85.133848 369.22608 85.104192 
C 351.772372 85.074536 334.482174 88.479425 318.342877 95.124416 
C 302.20358 101.769407 287.528369 111.525553 275.1553 123.835711 
C 262.782232 136.145869 252.951406 150.771159 246.224233 166.876374 
C 239.49706 182.981589 236.004081 200.254207 235.944768 217.70784 
C 235.885456 235.161472 239.260961 252.457431 245.87852 268.607996 
C 252.496078 284.75856 262.227276 299.450327 274.516392 311.844295 
C 286.805509 324.238262 301.414074 334.093923 317.507835 340.848451 
C 333.601597 347.60298 350.868255 351.125303 368.321761 351.214271 
C 385.775268 351.30324 403.076937 347.957127 419.238722 341.367021 
C 435.400508 334.776914 450.108788 325.070694 462.523619 312.802654 
C 474.938449 300.534614 484.818918 285.942816 491.600782 269.860555 
C 498.382646 253.778293 501.934303 236.517646 502.052927 219.064315 
L 369 218.16 
z
" style="fill: #f77189"/>
   </g>
   <g id="patch_3">
    <path d="M 502.052927 219.064315 
C 502.053941 218.91509 502.054704 218.765864 502.055216 218.616637 
C 502.055729 218.467409 502.05599 218.318181 502.056 218.168953 
L 369 218.16 
z
" style="fill: #bb9832"/>
   </g>
   <g id="patch_4">
    <path d="M 502.056 218.168953 
C 502.056 218.16746 502.056 218.165968 502.056 218.164476 
C 502.056 218.162984 502.056 218.161491 502.056 218.159999 
L 369 218.16 
z
" style="fill: #50b131"/>
   </g>
   <g id="text_1">
    <text style="fill: #262626; font: 10px 'Arial', 'Liberation Sans', 'DejaVu Sans', 'Bitstream Vera Sans', sans-serif; text-anchor: end" x="222.639245" y="220.248561" transform="rotate(-0 222.639245 220.248561)">newsapi</text>
   </g>
   <g id="text_2">
    <text style="fill: #262626; font: 10px 'Arial', 'Liberation Sans', 'DejaVu Sans', 'Bitstream Vera Sans', sans-serif; text-anchor: middle" x="289.166861" y="220.474641" transform="rotate(-0 289.166861 220.474641)">99.9%</text>
   </g>
   <g id="text_3">
    <text style="fill: #262626; font: 10px 'Arial', 'Liberation Sans', 'DejaVu Sans', 'Bitstream Vera Sans', sans-serif; text-anchor: start" x="515.360738" y="221.248238" transform="rotate(-0 515.360738 221.248238)">chicago_pd</text>
   </g>
   <g id="text_4">
    <text style="fill: #262626; font: 10px 'Arial', 'Liberation Sans', 'DejaVu Sans', 'Bitstream Vera Sans', sans-serif; text-anchor: middle" x="448.83313" y="221.019919" transform="rotate(-0 448.83313 221.019919)">0.1%</text>
   </g>
   <g id="text_5">
    <text style="fill: #262626; font: 10px 'Arial', 'Liberation Sans', 'DejaVu Sans', 'Bitstream Vera Sans', sans-serif; text-anchor: start" x="515.3616" y="220.750861" transform="rotate(-0 515.3616 220.750861)">chicago_police</text>
   </g>
   <g id="text_6">
    <text style="fill: #262626; font: 10px 'Arial', 'Liberation Sans', 'DejaVu Sans', 'Bitstream Vera Sans', sans-serif; text-anchor: middle" x="448.8336" y="220.748623" transform="rotate(-0 448.8336 220.748623)">0.0%</text>
   </g>
   <g id="text_7">
    <text style="fill: #262626; font: 12px 'Arial', 'Liberation Sans', 'DejaVu Sans', 'Bitstream Vera Sans', sans-serif; text-anchor: middle" x="369" y="45.84" transform="rotate(-0 369 45.84)">Incidents by Source</text>
   </g>
  </g>
 </g>
</svg>
