<?xml version="1.0" encoding="utf-8" standalone="no"?>
<!DOCTYPE svg PUBLIC "-//W3C//DTD SVG 1.1//EN"
  "http://www.w3.org/Graphics/SVG/1.1/DTD/svg11.dtd">
<svg xmlns:xlink="http://www.w3.org/1999/xlink" width="720pt" height="432pt" viewBox="0 0 720 432" xmlns="http://www.w3.org/2000/svg" version="1.1">
 <metadata>
  <rdf:RDF xmlns:dc="http://purl.org/dc/elements/1.1/" xmlns:cc="http://creativecommons.org/ns#" xmlns:rdf="http://www.w3.org/1999/02/22-rdf-syntax-ns#">
   <cc:Work>
    <dc:type rdf:resource="http://purl.org/dc/dcmitype/StillImage"/>
    <dc:date>2025-10-01T12:50:00.401461</dc:date>
    <dc:format>image/svg+xml</dc:format>
    <dc:creator>
     <cc:Agent>
      <dc:title>Matplotlib v3.7.5, https://matplotlib.org/</dc:title>
     </cc:Agent>
    </dc:creator>
   </cc:Work>
  </rdf:RDF>
 </metadata>
 <defs>
  <style type="text/css">*{stroke-linejoin: round; stroke-linecap: butt}</style>
 </defs>
 <g id="figure_1">
  <g id="patch_1">
   <path d="M 0 432 
L 720 432 
L 720 0 
L 0 0 
z
" style="fill: #ffffff"/>
  </g>
  <g id="axes_1">
   <g id="matplotlib.axis_1"/>
   <g id="matplotlib.axis_2"/>
   <g id="patch_2">
    <path d="M 502.056 218.16 
C 502.056 200.715964 498.625553 183.440991 491.960347 167.320525 
C 485.295141 151.20006 475.524372 136.546571 463.205408 124.195963 
C 450.886445 111.845355 436.258071 102.037025 420.154758 95.330484 
C 404.051444 88.623944 386.785329 85.14919 369.34135 85.104438 
C 351.897372 85.059686 334.613655 88.445803 318.476143 95.069631 
C 302.338631 101.693458 287.660124 111.426602 275.277953 123.713841 
C 262.895782 136.001079 253.049955 150.604241 246.302124 166.690296 
C 239.554294 182.776351 236.035255 200.033495 235.945751 217.477302 
C 235.856248 234.921108 239.198013 252.213455 245.780419 268.367907 
C 252.362824 284.522359 262.058279 299.225787 274.313711 311.63944 
C 286.569142 324.053093 301.146998 333.936352 317.215688 340.725428 
C 333.284379 347.514505 350.532439 351.077804 367.975958 351.212059 
C 385.419477 351.346314 402.72034 348.048922 418.891626 341.507982 
C 435.062912 334.967042 449.791165 325.30934 462.236218 313.085796 
C 474.681272 300.862251 484.601896 286.309799 491.432174 270.258578 
C 498.262452 254.207358 501.869989 236.968496 502.048994 219.525379 
L 369 218.16 
z
" style="fill: #f77189"/>
   </g>
   <g id="patch_3">
    <path d="M 502.048994 219.525379 
C 502.051306 219.300078 502.053046 219.074771 502.054214 218.84946 
C 502.055381 218.62415 502.055976 218.398837 502.055999 218.173524 
L 369 218.16 
z
" style="fill: #bb9832"/>
   </g>
   <g id="patch_4">
    <path d="M 502.055999 218.173524 
C 502.056 218.171271 502.056 218.169018 502.056 218.166765 
C 502.056 218.164511 502.056 218.162258 502.056 218.160005 
L 369 218.16 
z
" style="fill: #50b131"/>
   </g>
   <g id="text_1">
    <text style="fill: #262626; font: 10px 'Arial', 'Liberation Sans', 'DejaVu Sans', 'Bitstream Vera Sans', sans-serif; text-anchor: end" x="222.640327" y="219.994969" transform="rotate(-0 222.640327 219.994969)">newsapi</text>
   </g>
   <g id="text_2">
    <text style="fill: #262626; font: 10px 'Arial', 'Liberation Sans', 'DejaVu Sans', 'Bitstream Vera Sans', sans-serif; text-anchor: middle" x="289.167451" y="220.336318" transform="rotate(-0 289.167451 220.336318)">99.8%</text>
   </g>
   <g id="text_3">
    <text style="fill: #262626; font: 10px 'Arial', 'Liberation Sans', 'DejaVu Sans', 'Bitstream Vera Sans', sans-serif; text-anchor: start" x="515.359635" y="221.504344" transform="rotate(-0 515.359635 221.504344)">chicago_pd</text>
   </g>
   <g id="text_4">
    <text style="fill: #262626; font: 10px 'Arial', 'Liberation Sans', 'DejaVu Sans', 'Bitstream Vera Sans', sans-serif; text-anchor: middle" x="448.832528" y="221.159614" transform="rotate(-0 448.832528 221.159614)">0.2%</text>
   </g>
   <g id="text_5">
    <text style="fill: #262626; font: 10px 'Arial', 'Liberation Sans', 'DejaVu Sans', 'Bitstream Vera Sans', sans-serif; text-anchor: start" x="515.3616" y="220.753379" transform="rotate(-0 515.3616 220.753379)">chicago_police</text>
   </g>
   <g id="text_6">
    <text style="fill: #262626; font: 10px 'Arial', 'Liberation Sans', 'DejaVu Sans', 'Bitstream Vera Sans', sans-serif; text-anchor: middle" x="448.8336" y="220.749996" transform="rotate(-0 448.8336 220.749996)">0.0%</text>
   </g>
   <g id="text_7">
    <text style="fill: #262626; font: 12px 'Arial', 'Liberation Sans', 'DejaVu Sans', 'Bitstream Vera Sans', sans-serif; text-anchor: middle" x="369" y="45.84" transform="rotate(-0 369 45.84)">Incidents by Source</text>
   </g>
  </g>
 </g>
</svg>
