<?xml version="1.0" encoding="utf-8" standalone="no"?>
<!DOCTYPE svg PUBLIC "-//W3C//DTD SVG 1.1//EN"
  "http://www.w3.org/Graphics/SVG/1.1/DTD/svg11.dtd">
<svg xmlns:xlink="http://www.w3.org/1999/xlink" width="720pt" height="432pt" viewBox="0 0 720 432" xmlns="http://www.w3.org/2000/svg" version="1.1">
 <metadata>
  <rdf:RDF xmlns:dc="http://purl.org/dc/elements/1.1/" xmlns:cc="http://creativecommons.org/ns#" xmlns:rdf="http://www.w3.org/1999/02/22-rdf-syntax-ns#">
   <cc:Work>
    <dc:type rdf:resource="http://purl.org/dc/dcmitype/StillImage"/>
    <dc:date>2025-01-07T12:40:17.918259</dc:date>
    <dc:format>image/svg+xml</dc:format>
    <dc:creator>
     <cc:Agent>
      <dc:title>Matplotlib v3.7.5, https://matplotlib.org/</dc:title>
     </cc:Agent>
    </dc:creator>
   </cc:Work>
  </rdf:RDF>
 </metadata>
 <defs>
  <style type="text/css">*{stroke-linejoin: round; stroke-linecap: butt}</style>
 </defs>
 <g id="figure_1">
  <g id="patch_1">
   <path d="M 0 432 
L 720 432 
L 720 0 
L 0 0 
z
" style="fill: #ffffff"/>
  </g>
  <g id="axes_1">
   <g id="matplotlib.axis_1"/>
   <g id="matplotlib.axis_2"/>
   <g id="patch_2">
    <path d="M 502.056 218.16 
C 502.056 200.936403 498.711705 183.87553 492.209177 167.926567 
C 485.706649 151.977603 476.168755 137.441914 464.126138 125.128194 
C 452.083522 112.814474 437.763735 102.955398 421.96346 96.099478 
C 406.163186 89.243558 389.18098 85.52034 371.96165 85.136965 
C 354.74232 84.753591 337.611234 87.717304 321.521485 93.863219 
C 305.431735 100.009134 290.687346 109.221119 278.108625 120.986665 
C 265.529903 132.752211 255.35453 146.849001 248.148616 162.492756 
C 240.942701 178.136512 236.842404 195.031637 236.075845 212.238168 
C 235.309286 229.444698 237.89095 246.637508 243.677206 262.860071 
C 249.463461 279.082634 258.344974 294.028417 269.827619 306.865907 
C 281.310264 319.703398 295.177071 330.190025 310.656557 337.742364 
C 326.136043 345.294703 342.935715 349.770047 360.12092 350.91941 
C 377.306125 352.068774 394.552139 349.870439 410.899477 344.446709 
C 427.246815 339.02298 442.386586 330.476341 455.476484 319.282286 
C 468.566383 308.088232 479.359069 294.458279 487.254089 279.150733 
C 495.14911 263.843187 499.997284 247.147292 501.528882 229.991929 
L 369 218.16 
z
" style="fill: #f77189"/>
   </g>
   <g id="patch_3">
    <path d="M 501.528882 229.991929 
C 501.70274 228.044552 501.833655 226.09358 501.921532 224.140433 
C 502.009408 222.187287 502.054224 220.232441 502.055948 218.277319 
L 369 218.16 
z
" style="fill: #bb9832"/>
   </g>
   <g id="patch_4">
    <path d="M 502.055948 218.277319 
C 502.055966 218.257769 502.055978 218.238219 502.055987 218.218668 
C 502.055996 218.199118 502.056 218.179567 502.056 218.160017 
L 369 218.16 
z
" style="fill: #50b131"/>
   </g>
   <g id="text_1">
    <text style="fill: #262626; font: 10px 'Arial', 'Liberation Sans', 'DejaVu Sans', 'Bitstream Vera Sans', sans-serif; text-anchor: end" x="222.783429" y="214.231922" transform="rotate(-0 222.783429 214.231922)">newsapi</text>
   </g>
   <g id="text_2">
    <text style="fill: #262626; font: 10px 'Arial', 'Liberation Sans', 'DejaVu Sans', 'Bitstream Vera Sans', sans-serif; text-anchor: middle" x="289.245507" y="217.192838" transform="rotate(-0 289.245507 217.192838)">98.6%</text>
   </g>
   <g id="text_3">
    <text style="fill: #262626; font: 10px 'Arial', 'Liberation Sans', 'DejaVu Sans', 'Bitstream Vera Sans', sans-serif; text-anchor: start" x="515.213685" y="227.324414" transform="rotate(-0 515.213685 227.324414)">chicago_pd</text>
   </g>
   <g id="text_4">
    <text style="fill: #262626; font: 10px 'Arial', 'Liberation Sans', 'DejaVu Sans', 'Bitstream Vera Sans', sans-serif; text-anchor: middle" x="448.752919" y="224.334197" transform="rotate(-0 448.752919 224.334197)">1.4%</text>
   </g>
   <g id="text_5">
    <text style="fill: #262626; font: 10px 'Arial', 'Liberation Sans', 'DejaVu Sans', 'Bitstream Vera Sans', sans-serif; text-anchor: start" x="515.361586" y="220.810472" transform="rotate(-0 515.361586 220.810472)">chicago_police</text>
   </g>
   <g id="text_6">
    <text style="fill: #262626; font: 10px 'Arial', 'Liberation Sans', 'DejaVu Sans', 'Bitstream Vera Sans', sans-serif; text-anchor: middle" x="448.833592" y="220.781138" transform="rotate(-0 448.833592 220.781138)">0.0%</text>
   </g>
   <g id="text_7">
    <text style="fill: #262626; font: 12px 'Arial', 'Liberation Sans', 'DejaVu Sans', 'Bitstream Vera Sans', sans-serif; text-anchor: middle" x="369" y="45.84" transform="rotate(-0 369 45.84)">Incidents by Source</text>
   </g>
  </g>
 </g>
</svg>
