<?xml version="1.0" encoding="utf-8" standalone="no"?>
<!DOCTYPE svg PUBLIC "-//W3C//DTD SVG 1.1//EN"
  "http://www.w3.org/Graphics/SVG/1.1/DTD/svg11.dtd">
<svg xmlns:xlink="http://www.w3.org/1999/xlink" width="720pt" height="432pt" viewBox="0 0 720 432" xmlns="http://www.w3.org/2000/svg" version="1.1">
 <metadata>
  <rdf:RDF xmlns:dc="http://purl.org/dc/elements/1.1/" xmlns:cc="http://creativecommons.org/ns#" xmlns:rdf="http://www.w3.org/1999/02/22-rdf-syntax-ns#">
   <cc:Work>
    <dc:type rdf:resource="http://purl.org/dc/dcmitype/StillImage"/>
    <dc:date>2025-12-13T12:48:03.432212</dc:date>
    <dc:format>image/svg+xml</dc:format>
    <dc:creator>
     <cc:Agent>
      <dc:title>Matplotlib v3.7.5, https://matplotlib.org/</dc:title>
     </cc:Agent>
    </dc:creator>
   </cc:Work>
  </rdf:RDF>
 </metadata>
 <defs>
  <style type="text/css">*{stroke-linejoin: round; stroke-linecap: butt}</style>
 </defs>
 <g id="figure_1">
  <g id="patch_1">
   <path d="M 0 432 
L 720 432 
L 720 0 
L 0 0 
z
" style="fill: #ffffff"/>
  </g>
  <g id="axes_1">
   <g id="matplotlib.axis_1"/>
   <g id="matplotlib.axis_2"/>
   <g id="patch_2">
    <path d="M 502.056 218.16 
C 502.056 200.710626 498.623453 183.430471 491.954286 167.305868 
C 485.285118 151.181264 475.508681 136.524954 463.183003 124.173505 
C 450.857324 111.822056 436.221466 102.015029 420.110827 95.312198 
C 404.000188 88.609367 386.727239 85.140735 369.277904 85.10429 
C 351.828569 85.067845 334.541282 88.464293 318.402784 95.099767 
C 302.264286 101.735242 287.587589 111.481047 275.210423 123.7809 
C 262.833258 136.080754 252.995683 150.696098 246.259217 166.792702 
C 239.522751 182.889306 236.018051 200.154972 235.945161 217.604193 
C 235.872271 235.053415 239.232604 252.347758 245.834357 268.500079 
C 252.43611 284.652401 262.151239 299.349421 274.425215 311.75225 
C 286.699191 324.155078 301.293955 334.023158 317.376455 340.793228 
C 333.458954 347.563299 350.717262 351.104053 368.166293 351.213388 
C 385.615324 351.322723 402.916648 347.998518 419.082723 341.430516 
C 435.248798 334.862513 449.966077 325.178102 462.394514 312.930058 
C 474.822952 300.682013 484.721492 286.107892 491.525139 270.039568 
C 498.328785 253.971244 501.905577 236.720368 502.051357 219.271604 
L 369 218.16 
z
" style="fill: #f77189"/>
   </g>
   <g id="patch_3">
    <path d="M 502.051357 219.271604 
C 502.052889 219.088172 502.054042 218.904737 502.054816 218.721301 
C 502.05559 218.537864 502.055984 218.354426 502.056 218.170988 
L 369 218.16 
z
" style="fill: #bb9832"/>
   </g>
   <g id="patch_4">
    <path d="M 502.056 218.170988 
C 502.056 218.169154 502.056 218.167319 502.056 218.165485 
C 502.056 218.163651 502.056 218.161816 502.056 218.159982 
L 369 218.16 
z
" style="fill: #50b131"/>
   </g>
   <g id="text_1">
    <text style="fill: #262626; font: 10px 'Arial', 'Liberation Sans', 'DejaVu Sans', 'Bitstream Vera Sans', sans-serif; text-anchor: end" x="222.639677" y="220.13455" transform="rotate(-0 222.639677 220.13455)">newsapi</text>
   </g>
   <g id="text_2">
    <text style="fill: #262626; font: 10px 'Arial', 'Liberation Sans', 'DejaVu Sans', 'Bitstream Vera Sans', sans-serif; text-anchor: middle" x="289.167097" y="220.412453" transform="rotate(-0 289.167097 220.412453)">99.9%</text>
   </g>
   <g id="text_3">
    <text style="fill: #262626; font: 10px 'Arial', 'Liberation Sans', 'DejaVu Sans', 'Bitstream Vera Sans', sans-serif; text-anchor: start" x="515.360298" y="221.363368" transform="rotate(-0 515.360298 221.363368)">chicago_pd</text>
   </g>
   <g id="text_4">
    <text style="fill: #262626; font: 10px 'Arial', 'Liberation Sans', 'DejaVu Sans', 'Bitstream Vera Sans', sans-serif; text-anchor: middle" x="448.83289" y="221.082718" transform="rotate(-0 448.83289 221.082718)">0.1%</text>
   </g>
   <g id="text_5">
    <text style="fill: #262626; font: 10px 'Arial', 'Liberation Sans', 'DejaVu Sans', 'Bitstream Vera Sans', sans-serif; text-anchor: start" x="515.3616" y="220.751971" transform="rotate(-0 515.3616 220.751971)">chicago_police</text>
   </g>
   <g id="text_6">
    <text style="fill: #262626; font: 10px 'Arial', 'Liberation Sans', 'DejaVu Sans', 'Bitstream Vera Sans', sans-serif; text-anchor: middle" x="448.8336" y="220.749228" transform="rotate(-0 448.8336 220.749228)">0.0%</text>
   </g>
   <g id="text_7">
    <text style="fill: #262626; font: 12px 'Arial', 'Liberation Sans', 'DejaVu Sans', 'Bitstream Vera Sans', sans-serif; text-anchor: middle" x="369" y="45.84" transform="rotate(-0 369 45.84)">Incidents by Source</text>
   </g>
  </g>
 </g>
</svg>
