<?xml version="1.0" encoding="utf-8" standalone="no"?>
<!DOCTYPE svg PUBLIC "-//W3C//DTD SVG 1.1//EN"
  "http://www.w3.org/Graphics/SVG/1.1/DTD/svg11.dtd">
<svg xmlns:xlink="http://www.w3.org/1999/xlink" width="720pt" height="432pt" viewBox="0 0 720 432" xmlns="http://www.w3.org/2000/svg" version="1.1">
 <metadata>
  <rdf:RDF xmlns:dc="http://purl.org/dc/elements/1.1/" xmlns:cc="http://creativecommons.org/ns#" xmlns:rdf="http://www.w3.org/1999/02/22-rdf-syntax-ns#">
   <cc:Work>
    <dc:type rdf:resource="http://purl.org/dc/dcmitype/StillImage"/>
    <dc:date>2025-08-04T12:33:16.937521</dc:date>
    <dc:format>image/svg+xml</dc:format>
    <dc:creator>
     <cc:Agent>
      <dc:title>Matplotlib v3.7.5, https://matplotlib.org/</dc:title>
     </cc:Agent>
    </dc:creator>
   </cc:Work>
  </rdf:RDF>
 </metadata>
 <defs>
  <style type="text/css">*{stroke-linejoin: round; stroke-linecap: butt}</style>
 </defs>
 <g id="figure_1">
  <g id="patch_1">
   <path d="M 0 432 
L 720 432 
L 720 0 
L 0 0 
z
" style="fill: #ffffff"/>
  </g>
  <g id="axes_1">
   <g id="matplotlib.axis_1"/>
   <g id="matplotlib.axis_2"/>
   <g id="patch_2">
    <path d="M 502.056 218.16 
C 502.056 200.723597 498.628554 183.456035 491.969012 167.341487 
C 485.30947 151.22694 475.546802 136.577489 463.237439 124.228087 
C 450.928075 111.878686 436.310404 102.068498 420.217567 95.356662 
C 404.124731 88.644825 386.86839 85.161324 369.432079 85.104702 
C 351.995768 85.04808 334.717166 88.419433 318.581078 95.026611 
C 302.44499 101.633789 287.763913 111.348833 275.374604 123.618029 
C 262.985295 135.887224 253.12769 150.472962 246.36363 166.543918 
C 239.59957 182.614874 236.06005 199.859812 235.946806 217.295847 
C 235.833563 234.731882 239.148789 252.02134 245.703533 268.1788 
C 252.258276 284.336259 261.925594 299.048806 274.154493 311.477892 
C 286.383392 323.906978 300.937041 333.811895 316.985947 340.628108 
C 333.034854 347.44432 350.268207 351.039822 367.703782 351.209686 
C 385.139358 351.37955 402.43949 348.120485 418.61815 341.618245 
C 434.796809 335.116005 449.540672 325.496515 462.009404 313.308042 
C 474.478136 301.119569 484.430262 286.598162 491.298555 270.571475 
C 498.166848 254.544788 501.818293 237.323201 502.044775 219.888269 
L 369 218.16 
z
" style="fill: #f77189"/>
   </g>
   <g id="patch_3">
    <path d="M 502.044775 219.888269 
C 502.04848 219.60309 502.051267 219.3179 502.053138 219.032703 
C 502.055009 218.747506 502.055962 218.462303 502.055999 218.1771 
L 369 218.16 
z
" style="fill: #bb9832"/>
   </g>
   <g id="patch_4">
    <path d="M 502.055999 218.1771 
C 502.055999 218.174248 502.056 218.171396 502.056 218.168544 
C 502.056 218.165692 502.056 218.16284 502.056 218.159988 
L 369 218.16 
z
" style="fill: #50b131"/>
   </g>
   <g id="text_1">
    <text style="fill: #262626; font: 10px 'Arial', 'Liberation Sans', 'DejaVu Sans', 'Bitstream Vera Sans', sans-serif; text-anchor: end" x="222.641487" y="219.795369" transform="rotate(-0 222.641487 219.795369)">newsapi</text>
   </g>
   <g id="text_2">
    <text style="fill: #262626; font: 10px 'Arial', 'Liberation Sans', 'DejaVu Sans', 'Bitstream Vera Sans', sans-serif; text-anchor: middle" x="289.168084" y="220.227446" transform="rotate(-0 289.168084 220.227446)">99.8%</text>
   </g>
   <g id="text_3">
    <text style="fill: #262626; font: 10px 'Arial', 'Liberation Sans', 'DejaVu Sans', 'Bitstream Vera Sans', sans-serif; text-anchor: start" x="515.358452" y="221.70591" transform="rotate(-0 515.358452 221.70591)">chicago_pd</text>
   </g>
   <g id="text_4">
    <text style="fill: #262626; font: 10px 'Arial', 'Liberation Sans', 'DejaVu Sans', 'Bitstream Vera Sans', sans-serif; text-anchor: middle" x="448.831883" y="221.269559" transform="rotate(-0 448.831883 221.269559)">0.2%</text>
   </g>
   <g id="text_5">
    <text style="fill: #262626; font: 10px 'Arial', 'Liberation Sans', 'DejaVu Sans', 'Bitstream Vera Sans', sans-serif; text-anchor: start" x="515.3616" y="220.755336" transform="rotate(-0 515.3616 220.755336)">chicago_police</text>
   </g>
   <g id="text_6">
    <text style="fill: #262626; font: 10px 'Arial', 'Liberation Sans', 'DejaVu Sans', 'Bitstream Vera Sans', sans-serif; text-anchor: middle" x="448.8336" y="220.751064" transform="rotate(-0 448.8336 220.751064)">0.0%</text>
   </g>
   <g id="text_7">
    <text style="fill: #262626; font: 12px 'Arial', 'Liberation Sans', 'DejaVu Sans', 'Bitstream Vera Sans', sans-serif; text-anchor: middle" x="369" y="45.84" transform="rotate(-0 369 45.84)">Incidents by Source</text>
   </g>
  </g>
 </g>
</svg>
