<?xml version="1.0" encoding="utf-8" standalone="no"?>
<!DOCTYPE svg PUBLIC "-//W3C//DTD SVG 1.1//EN"
  "http://www.w3.org/Graphics/SVG/1.1/DTD/svg11.dtd">
<svg xmlns:xlink="http://www.w3.org/1999/xlink" width="720pt" height="432pt" viewBox="0 0 720 432" xmlns="http://www.w3.org/2000/svg" version="1.1">
 <metadata>
  <rdf:RDF xmlns:dc="http://purl.org/dc/elements/1.1/" xmlns:cc="http://creativecommons.org/ns#" xmlns:rdf="http://www.w3.org/1999/02/22-rdf-syntax-ns#">
   <cc:Work>
    <dc:type rdf:resource="http://purl.org/dc/dcmitype/StillImage"/>
    <dc:date>2026-05-16T07:57:07.532829</dc:date>
    <dc:format>image/svg+xml</dc:format>
    <dc:creator>
     <cc:Agent>
      <dc:title>Matplotlib v3.7.5, https://matplotlib.org/</dc:title>
     </cc:Agent>
    </dc:creator>
   </cc:Work>
  </rdf:RDF>
 </metadata>
 <defs>
  <style type="text/css">*{stroke-linejoin: round; stroke-linecap: butt}</style>
 </defs>
 <g id="figure_1">
  <g id="patch_1">
   <path d="M 0 432 
L 720 432 
L 720 0 
L 0 0 
z
" style="fill: #ffffff"/>
  </g>
  <g id="axes_1">
   <g id="matplotlib.axis_1"/>
   <g id="matplotlib.axis_2"/>
   <g id="patch_2">
    <path d="M 502.056 218.16 
C 502.056 200.704139 498.6209 183.417685 491.946916 167.288054 
C 485.272932 151.158422 475.489604 136.498685 463.155764 124.146217 
C 450.821923 111.79375 436.176966 101.988311 420.057425 95.289993 
C 403.937883 88.591676 386.656633 85.130494 369.200792 85.104152 
C 351.74495 85.077809 334.453333 88.486819 318.313648 95.136454 
C 302.173963 101.78609 287.499479 111.547284 275.128413 123.86247 
C 262.757346 136.177656 252.929818 150.807798 246.207183 166.917213 
C 239.484548 183.026629 235.99729 200.302636 235.944606 217.758417 
C 235.891922 235.214199 239.274833 252.510941 245.900105 268.660643 
C 252.525377 284.810344 262.264415 299.499542 274.560918 311.889178 
C 286.857421 324.278815 301.472716 334.12841 317.571968 340.875348 
C 333.67122 347.622286 350.941945 351.13561 368.397627 351.214636 
C 385.853309 351.293663 403.155137 347.936858 419.314818 341.335964 
C 435.474499 334.735071 450.178377 325.018211 462.586556 312.740419 
C 474.994735 300.462627 484.866374 285.862212 491.6376 269.77316 
C 498.408825 253.684108 501.948208 236.418705 502.053576 218.963162 
L 369 218.16 
z
" style="fill: #f77189"/>
   </g>
   <g id="patch_3">
    <path d="M 502.053576 218.963162 
C 502.054376 218.830631 502.054978 218.698099 502.055382 218.565567 
C 502.055786 218.433034 502.055992 218.300502 502.056 218.167969 
L 369 218.16 
z
" style="fill: #bb9832"/>
   </g>
   <g id="patch_4">
    <path d="M 502.056 218.167969 
C 502.056 218.166643 502.056 218.165318 502.056 218.163993 
C 502.056 218.162667 502.056 218.161342 502.056 218.160017 
L 369 218.16 
z
" style="fill: #50b131"/>
   </g>
   <g id="text_1">
    <text style="fill: #262626; font: 10px 'Arial', 'Liberation Sans', 'DejaVu Sans', 'Bitstream Vera Sans', sans-serif; text-anchor: end" x="222.639067" y="220.304197" transform="rotate(-0 222.639067 220.304197)">newsapi</text>
   </g>
   <g id="text_2">
    <text style="fill: #262626; font: 10px 'Arial', 'Liberation Sans', 'DejaVu Sans', 'Bitstream Vera Sans', sans-serif; text-anchor: middle" x="289.166764" y="220.504988" transform="rotate(-0 289.166764 220.504988)">99.9%</text>
   </g>
   <g id="text_3">
    <text style="fill: #262626; font: 10px 'Arial', 'Liberation Sans', 'DejaVu Sans', 'Bitstream Vera Sans', sans-serif; text-anchor: start" x="515.36092" y="221.192061" transform="rotate(-0 515.36092 221.192061)">chicago_pd</text>
   </g>
   <g id="text_4">
    <text style="fill: #262626; font: 10px 'Arial', 'Liberation Sans', 'DejaVu Sans', 'Bitstream Vera Sans', sans-serif; text-anchor: middle" x="448.833229" y="220.989278" transform="rotate(-0 448.833229 220.989278)">0.1%</text>
   </g>
   <g id="text_5">
    <text style="fill: #262626; font: 10px 'Arial', 'Liberation Sans', 'DejaVu Sans', 'Bitstream Vera Sans', sans-serif; text-anchor: start" x="515.3616" y="220.750329" transform="rotate(-0 515.3616 220.750329)">chicago_police</text>
   </g>
   <g id="text_6">
    <text style="fill: #262626; font: 10px 'Arial', 'Liberation Sans', 'DejaVu Sans', 'Bitstream Vera Sans', sans-serif; text-anchor: middle" x="448.8336" y="220.748333" transform="rotate(-0 448.8336 220.748333)">0.0%</text>
   </g>
   <g id="text_7">
    <text style="fill: #262626; font: 12px 'Arial', 'Liberation Sans', 'DejaVu Sans', 'Bitstream Vera Sans', sans-serif; text-anchor: middle" x="369" y="45.84" transform="rotate(-0 369 45.84)">Incidents by Source</text>
   </g>
  </g>
 </g>
</svg>
