<?xml version="1.0" encoding="utf-8" standalone="no"?>
<!DOCTYPE svg PUBLIC "-//W3C//DTD SVG 1.1//EN"
  "http://www.w3.org/Graphics/SVG/1.1/DTD/svg11.dtd">
<svg xmlns:xlink="http://www.w3.org/1999/xlink" width="720pt" height="432pt" viewBox="0 0 720 432" xmlns="http://www.w3.org/2000/svg" version="1.1">
 <metadata>
  <rdf:RDF xmlns:dc="http://purl.org/dc/elements/1.1/" xmlns:cc="http://creativecommons.org/ns#" xmlns:rdf="http://www.w3.org/1999/02/22-rdf-syntax-ns#">
   <cc:Work>
    <dc:type rdf:resource="http://purl.org/dc/dcmitype/StillImage"/>
    <dc:date>2026-05-12T14:07:36.253336</dc:date>
    <dc:format>image/svg+xml</dc:format>
    <dc:creator>
     <cc:Agent>
      <dc:title>Matplotlib v3.7.5, https://matplotlib.org/</dc:title>
     </cc:Agent>
    </dc:creator>
   </cc:Work>
  </rdf:RDF>
 </metadata>
 <defs>
  <style type="text/css">*{stroke-linejoin: round; stroke-linecap: butt}</style>
 </defs>
 <g id="figure_1">
  <g id="patch_1">
   <path d="M 0 432 
L 720 432 
L 720 0 
L 0 0 
z
" style="fill: #ffffff"/>
  </g>
  <g id="axes_1">
   <g id="matplotlib.axis_1"/>
   <g id="matplotlib.axis_2"/>
   <g id="patch_2">
    <path d="M 502.056 218.16 
C 502.056 200.704275 498.620954 183.417954 491.947071 167.288428 
C 485.273188 151.158902 475.490005 136.499237 463.156336 124.14679 
C 450.822666 111.794344 436.177901 101.988872 420.058546 95.290459 
C 403.939191 88.592047 386.658116 85.130708 369.202411 85.104154 
C 351.746706 85.077599 334.45518 88.486345 318.315519 95.135683 
C 302.175859 101.785021 287.501329 111.545892 275.130134 123.860756 
C 262.75894 136.17562 252.9312 150.805452 246.208274 166.914598 
C 239.485348 183.023744 235.997725 200.299534 235.944616 217.755178 
C 235.891507 235.210822 239.273944 252.507515 245.898722 268.657271 
C 252.5235 284.807028 262.262036 299.496391 274.558066 311.886305 
C 286.854096 324.276219 301.46896 334.126203 317.567861 340.873627 
C 333.666761 347.621051 350.937226 351.134951 368.392769 351.214614 
C 385.848312 351.294278 403.15013 347.938157 419.309946 341.337955 
C 435.469762 334.737752 450.173922 325.021574 462.582527 312.744406 
C 474.991132 300.467238 484.863337 285.867375 491.635244 269.778758 
C 498.40715 253.69014 501.947319 236.425041 502.053537 218.969639 
L 369 218.16 
z
" style="fill: #f77189"/>
   </g>
   <g id="patch_3">
    <path d="M 502.053537 218.969639 
C 502.05435 218.836038 502.054961 218.702435 502.055372 218.568831 
C 502.055782 218.435227 502.055992 218.301623 502.056 218.168019 
L 369 218.16 
z
" style="fill: #bb9832"/>
   </g>
   <g id="patch_4">
    <path d="M 502.056 218.168019 
C 502.056 218.166683 502.056 218.165347 502.056 218.164011 
C 502.056 218.162675 502.056 218.161338 502.056 218.160002 
L 369 218.16 
z
" style="fill: #50b131"/>
   </g>
   <g id="text_1">
    <text style="fill: #262626; font: 10px 'Arial', 'Liberation Sans', 'DejaVu Sans', 'Bitstream Vera Sans', sans-serif; text-anchor: end" x="222.639077" y="220.300634" transform="rotate(-0 222.639077 220.300634)">newsapi</text>
   </g>
   <g id="text_2">
    <text style="fill: #262626; font: 10px 'Arial', 'Liberation Sans', 'DejaVu Sans', 'Bitstream Vera Sans', sans-serif; text-anchor: middle" x="289.16677" y="220.503045" transform="rotate(-0 289.16677 220.503045)">99.9%</text>
   </g>
   <g id="text_3">
    <text style="fill: #262626; font: 10px 'Arial', 'Liberation Sans', 'DejaVu Sans', 'Bitstream Vera Sans', sans-serif; text-anchor: start" x="515.360909" y="221.195652" transform="rotate(-0 515.360909 221.195652)">chicago_pd</text>
   </g>
   <g id="text_4">
    <text style="fill: #262626; font: 10px 'Arial', 'Liberation Sans', 'DejaVu Sans', 'Bitstream Vera Sans', sans-serif; text-anchor: middle" x="448.833223" y="220.991236" transform="rotate(-0 448.833223 220.991236)">0.1%</text>
   </g>
   <g id="text_5">
    <text style="fill: #262626; font: 10px 'Arial', 'Liberation Sans', 'DejaVu Sans', 'Bitstream Vera Sans', sans-serif; text-anchor: start" x="515.3616" y="220.750349" transform="rotate(-0 515.3616 220.750349)">chicago_police</text>
   </g>
   <g id="text_6">
    <text style="fill: #262626; font: 10px 'Arial', 'Liberation Sans', 'DejaVu Sans', 'Bitstream Vera Sans', sans-serif; text-anchor: middle" x="448.8336" y="220.748344" transform="rotate(-0 448.8336 220.748344)">0.0%</text>
   </g>
   <g id="text_7">
    <text style="fill: #262626; font: 12px 'Arial', 'Liberation Sans', 'DejaVu Sans', 'Bitstream Vera Sans', sans-serif; text-anchor: middle" x="369" y="45.84" transform="rotate(-0 369 45.84)">Incidents by Source</text>
   </g>
  </g>
 </g>
</svg>
