<?xml version="1.0" encoding="utf-8" standalone="no"?>
<!DOCTYPE svg PUBLIC "-//W3C//DTD SVG 1.1//EN"
  "http://www.w3.org/Graphics/SVG/1.1/DTD/svg11.dtd">
<svg xmlns:xlink="http://www.w3.org/1999/xlink" width="720pt" height="432pt" viewBox="0 0 720 432" xmlns="http://www.w3.org/2000/svg" version="1.1">
 <metadata>
  <rdf:RDF xmlns:dc="http://purl.org/dc/elements/1.1/" xmlns:cc="http://creativecommons.org/ns#" xmlns:rdf="http://www.w3.org/1999/02/22-rdf-syntax-ns#">
   <cc:Work>
    <dc:type rdf:resource="http://purl.org/dc/dcmitype/StillImage"/>
    <dc:date>2025-12-12T02:00:17.146070</dc:date>
    <dc:format>image/svg+xml</dc:format>
    <dc:creator>
     <cc:Agent>
      <dc:title>Matplotlib v3.7.5, https://matplotlib.org/</dc:title>
     </cc:Agent>
    </dc:creator>
   </cc:Work>
  </rdf:RDF>
 </metadata>
 <defs>
  <style type="text/css">*{stroke-linejoin: round; stroke-linecap: butt}</style>
 </defs>
 <g id="figure_1">
  <g id="patch_1">
   <path d="M 0 432 
L 720 432 
L 720 0 
L 0 0 
z
" style="fill: #ffffff"/>
  </g>
  <g id="axes_1">
   <g id="matplotlib.axis_1"/>
   <g id="matplotlib.axis_2"/>
   <g id="patch_2">
    <path d="M 502.056 218.16 
C 502.056 200.710728 498.623493 183.430672 491.954401 167.306147 
C 485.285309 151.181622 475.50898 136.525366 463.183429 124.173933 
C 450.857879 111.8225 436.222163 102.015448 420.111663 95.312546 
C 404.001164 88.609644 386.728346 85.140896 369.279112 85.104293 
C 351.829879 85.067689 334.54266 88.46394 318.404181 95.099193 
C 302.265702 101.734446 287.58897 111.480009 275.211709 123.779623 
C 262.834448 136.079236 252.996716 150.694348 246.260033 166.790751 
C 239.523351 182.887155 236.018378 200.152658 235.945171 217.601777 
C 235.871964 235.050895 239.231944 252.3452 245.833329 268.497562 
C 252.434713 284.649925 262.149468 299.347067 274.42309 311.750102 
C 286.696713 324.153137 301.291155 334.021506 317.373392 340.791939 
C 333.455628 347.562372 350.713741 351.103556 368.162668 351.213365 
C 385.611594 351.323175 402.91291 347.999481 419.079084 341.431994 
C 435.245259 334.864507 449.962748 325.180604 462.391502 312.933026 
C 474.820256 300.685448 484.719218 286.111739 491.523372 270.04374 
C 498.327526 253.975742 501.904904 236.725095 502.051316 219.276437 
L 369 218.16 
z
" style="fill: #f77189"/>
   </g>
   <g id="patch_3">
    <path d="M 502.051316 219.276437 
C 502.052862 219.092208 502.054025 218.907975 502.054806 218.72374 
C 502.055586 218.539506 502.055984 218.35527 502.056 218.171034 
L 369 218.16 
z
" style="fill: #bb9832"/>
   </g>
   <g id="patch_4">
    <path d="M 502.056 218.171034 
C 502.056 218.169191 502.056 218.167349 502.056 218.165507 
C 502.056 218.163664 502.056 218.161822 502.056 218.15998 
L 369 218.16 
z
" style="fill: #50b131"/>
   </g>
   <g id="text_1">
    <text style="fill: #262626; font: 10px 'Arial', 'Liberation Sans', 'DejaVu Sans', 'Bitstream Vera Sans', sans-serif; text-anchor: end" x="222.639688" y="220.131892" transform="rotate(-0 222.639688 220.131892)">newsapi</text>
   </g>
   <g id="text_2">
    <text style="fill: #262626; font: 10px 'Arial', 'Liberation Sans', 'DejaVu Sans', 'Bitstream Vera Sans', sans-serif; text-anchor: middle" x="289.167103" y="220.411003" transform="rotate(-0 289.167103 220.411003)">99.9%</text>
   </g>
   <g id="text_3">
    <text style="fill: #262626; font: 10px 'Arial', 'Liberation Sans', 'DejaVu Sans', 'Bitstream Vera Sans', sans-serif; text-anchor: start" x="515.360286" y="221.366052" transform="rotate(-0 515.360286 221.366052)">chicago_pd</text>
   </g>
   <g id="text_4">
    <text style="fill: #262626; font: 10px 'Arial', 'Liberation Sans', 'DejaVu Sans', 'Bitstream Vera Sans', sans-serif; text-anchor: middle" x="448.832883" y="221.084182" transform="rotate(-0 448.832883 221.084182)">0.1%</text>
   </g>
   <g id="text_5">
    <text style="fill: #262626; font: 10px 'Arial', 'Liberation Sans', 'DejaVu Sans', 'Bitstream Vera Sans', sans-serif; text-anchor: start" x="515.3616" y="220.751995" transform="rotate(-0 515.3616 220.751995)">chicago_police</text>
   </g>
   <g id="text_6">
    <text style="fill: #262626; font: 10px 'Arial', 'Liberation Sans', 'DejaVu Sans', 'Bitstream Vera Sans', sans-serif; text-anchor: middle" x="448.8336" y="220.749241" transform="rotate(-0 448.8336 220.749241)">0.0%</text>
   </g>
   <g id="text_7">
    <text style="fill: #262626; font: 12px 'Arial', 'Liberation Sans', 'DejaVu Sans', 'Bitstream Vera Sans', sans-serif; text-anchor: middle" x="369" y="45.84" transform="rotate(-0 369 45.84)">Incidents by Source</text>
   </g>
  </g>
 </g>
</svg>
