<?xml version="1.0" encoding="utf-8" standalone="no"?>
<!DOCTYPE svg PUBLIC "-//W3C//DTD SVG 1.1//EN"
  "http://www.w3.org/Graphics/SVG/1.1/DTD/svg11.dtd">
<svg xmlns:xlink="http://www.w3.org/1999/xlink" width="720pt" height="432pt" viewBox="0 0 720 432" xmlns="http://www.w3.org/2000/svg" version="1.1">
 <metadata>
  <rdf:RDF xmlns:dc="http://purl.org/dc/elements/1.1/" xmlns:cc="http://creativecommons.org/ns#" xmlns:rdf="http://www.w3.org/1999/02/22-rdf-syntax-ns#">
   <cc:Work>
    <dc:type rdf:resource="http://purl.org/dc/dcmitype/StillImage"/>
    <dc:date>2026-01-09T18:25:00.833577</dc:date>
    <dc:format>image/svg+xml</dc:format>
    <dc:creator>
     <cc:Agent>
      <dc:title>Matplotlib v3.7.5, https://matplotlib.org/</dc:title>
     </cc:Agent>
    </dc:creator>
   </cc:Work>
  </rdf:RDF>
 </metadata>
 <defs>
  <style type="text/css">*{stroke-linejoin: round; stroke-linecap: butt}</style>
 </defs>
 <g id="figure_1">
  <g id="patch_1">
   <path d="M 0 432 
L 720 432 
L 720 0 
L 0 0 
z
" style="fill: #ffffff"/>
  </g>
  <g id="axes_1">
   <g id="matplotlib.axis_1"/>
   <g id="matplotlib.axis_2"/>
   <g id="patch_2">
    <path d="M 502.056 218.16 
C 502.056 200.709094 498.62285 183.427451 491.952545 167.30166 
C 485.28224 151.175869 475.504176 136.518749 463.17657 124.16706 
C 450.848964 111.81537 436.210957 102.008717 420.098215 95.306951 
C 403.985473 88.605186 386.710564 85.138313 369.259691 85.104253 
C 351.808818 85.070194 334.520508 88.469608 318.381729 95.108426 
C 302.242949 101.747245 287.566774 111.496684 275.191047 123.80016 
C 262.81532 136.103635 252.980117 150.722474 246.246916 166.822105 
C 239.513715 182.921736 236.013133 200.189846 235.945014 217.640619 
C 235.876894 235.091392 239.24256 252.386304 245.849867 268.53801 
C 252.457175 284.689716 262.177951 299.384892 274.457248 311.784608 
C 286.736546 324.184325 301.336162 334.048042 317.422621 340.812652 
C 333.509079 347.577262 350.770324 351.111541 368.220931 351.213719 
C 385.671538 351.315898 402.972986 347.983994 419.137557 341.408223 
C 435.302128 334.832452 450.016248 325.140376 462.439907 312.885303 
C 474.863566 300.630229 484.755759 286.049893 491.551753 269.976668 
C 498.347747 253.903442 501.915708 236.649128 502.051945 219.198754 
L 369 218.16 
z
" style="fill: #f77189"/>
   </g>
   <g id="patch_3">
    <path d="M 502.051945 219.198754 
C 502.053283 219.027349 502.05429 218.855942 502.054966 218.684533 
C 502.055642 218.513124 502.055986 218.341714 502.056 218.170304 
L 369 218.16 
z
" style="fill: #bb9832"/>
   </g>
   <g id="patch_4">
    <path d="M 502.056 218.170304 
C 502.056 218.168589 502.056 218.166875 502.056 218.165161 
C 502.056 218.163447 502.056 218.161733 502.056 218.160019 
L 369 218.16 
z
" style="fill: #50b131"/>
   </g>
   <g id="text_1">
    <text style="fill: #262626; font: 10px 'Arial', 'Liberation Sans', 'DejaVu Sans', 'Bitstream Vera Sans', sans-serif; text-anchor: end" x="222.639515" y="220.174618" transform="rotate(-0 222.639515 220.174618)">newsapi</text>
   </g>
   <g id="text_2">
    <text style="fill: #262626; font: 10px 'Arial', 'Liberation Sans', 'DejaVu Sans', 'Bitstream Vera Sans', sans-serif; text-anchor: middle" x="289.167008" y="220.434309" transform="rotate(-0 289.167008 220.434309)">99.9%</text>
   </g>
   <g id="text_3">
    <text style="fill: #262626; font: 10px 'Arial', 'Liberation Sans', 'DejaVu Sans', 'Bitstream Vera Sans', sans-serif; text-anchor: start" x="515.360463" y="221.322924" transform="rotate(-0 515.360463 221.322924)">chicago_pd</text>
   </g>
   <g id="text_4">
    <text style="fill: #262626; font: 10px 'Arial', 'Liberation Sans', 'DejaVu Sans', 'Bitstream Vera Sans', sans-serif; text-anchor: middle" x="448.83298" y="221.060657" transform="rotate(-0 448.83298 221.060657)">0.1%</text>
   </g>
   <g id="text_5">
    <text style="fill: #262626; font: 10px 'Arial', 'Liberation Sans', 'DejaVu Sans', 'Bitstream Vera Sans', sans-serif; text-anchor: start" x="515.3616" y="220.751615" transform="rotate(-0 515.3616 220.751615)">chicago_police</text>
   </g>
   <g id="text_6">
    <text style="fill: #262626; font: 10px 'Arial', 'Liberation Sans', 'DejaVu Sans', 'Bitstream Vera Sans', sans-serif; text-anchor: middle" x="448.8336" y="220.749034" transform="rotate(-0 448.8336 220.749034)">0.0%</text>
   </g>
   <g id="text_7">
    <text style="fill: #262626; font: 12px 'Arial', 'Liberation Sans', 'DejaVu Sans', 'Bitstream Vera Sans', sans-serif; text-anchor: middle" x="369" y="45.84" transform="rotate(-0 369 45.84)">Incidents by Source</text>
   </g>
  </g>
 </g>
</svg>
