<?xml version="1.0" encoding="utf-8" standalone="no"?>
<!DOCTYPE svg PUBLIC "-//W3C//DTD SVG 1.1//EN"
  "http://www.w3.org/Graphics/SVG/1.1/DTD/svg11.dtd">
<svg xmlns:xlink="http://www.w3.org/1999/xlink" width="720pt" height="432pt" viewBox="0 0 720 432" xmlns="http://www.w3.org/2000/svg" version="1.1">
 <metadata>
  <rdf:RDF xmlns:dc="http://purl.org/dc/elements/1.1/" xmlns:cc="http://creativecommons.org/ns#" xmlns:rdf="http://www.w3.org/1999/02/22-rdf-syntax-ns#">
   <cc:Work>
    <dc:type rdf:resource="http://purl.org/dc/dcmitype/StillImage"/>
    <dc:date>2025-02-04T12:39:26.303791</dc:date>
    <dc:format>image/svg+xml</dc:format>
    <dc:creator>
     <cc:Agent>
      <dc:title>Matplotlib v3.7.5, https://matplotlib.org/</dc:title>
     </cc:Agent>
    </dc:creator>
   </cc:Work>
  </rdf:RDF>
 </metadata>
 <defs>
  <style type="text/css">*{stroke-linejoin: round; stroke-linecap: butt}</style>
 </defs>
 <g id="figure_1">
  <g id="patch_1">
   <path d="M 0 432 
L 720 432 
L 720 0 
L 0 0 
z
" style="fill: #ffffff"/>
  </g>
  <g id="axes_1">
   <g id="matplotlib.axis_1"/>
   <g id="matplotlib.axis_2"/>
   <g id="patch_2">
    <path d="M 502.056 218.16 
C 502.056 200.824919 498.668272 183.655748 492.083701 167.6199 
C 485.499129 151.584051 475.843753 136.988475 463.661614 124.655572 
C 451.479474 112.322669 437.003754 102.48851 421.050103 95.70721 
C 405.096452 88.925909 387.970246 85.327271 370.636477 85.114064 
C 353.302707 84.900857 336.093168 88.077163 319.977548 94.464008 
C 303.861928 100.850854 289.148702 110.325987 276.666902 122.355521 
C 264.185102 134.385055 254.173648 148.738728 247.196644 164.607768 
C 240.21964 180.476808 236.410636 197.557458 235.984255 214.887295 
C 235.557873 232.217131 238.522275 249.464433 244.71043 265.657388 
C 250.898584 281.850342 260.192039 296.678991 272.067148 309.3078 
C 283.942257 321.936608 298.171711 332.123844 313.95374 339.295496 
C 329.735768 346.467148 346.768279 350.485941 364.091561 351.125433 
C 381.414842 351.764925 398.6973 349.012874 414.965138 343.024347 
C 431.232977 337.035821 446.174805 327.925448 458.948713 316.206561 
C 471.722621 304.487674 482.084096 290.384591 489.449311 274.691961 
C 496.814526 258.999331 501.042501 242.017536 501.895006 224.703431 
L 369 218.16 
z
" style="fill: #f77189"/>
   </g>
   <g id="patch_3">
    <path d="M 501.895006 224.703431 
C 501.948129 223.624517 501.988112 222.544997 502.014944 221.46511 
C 502.041777 220.385222 502.055458 219.305049 502.055984 218.224828 
L 369 218.16 
z
" style="fill: #bb9832"/>
   </g>
   <g id="patch_4">
    <path d="M 502.055984 218.224828 
C 502.055989 218.214026 502.055993 218.203224 502.055996 218.192422 
C 502.055999 218.18162 502.056 218.170818 502.056 218.160016 
L 369 218.16 
z
" style="fill: #50b131"/>
   </g>
   <g id="text_1">
    <text style="fill: #262626; font: 10px 'Arial', 'Liberation Sans', 'DejaVu Sans', 'Bitstream Vera Sans', sans-serif; text-anchor: end" x="222.68268" y="217.145961" transform="rotate(-0 222.68268 217.145961)">newsapi</text>
   </g>
   <g id="text_2">
    <text style="fill: #262626; font: 10px 'Arial', 'Liberation Sans', 'DejaVu Sans', 'Bitstream Vera Sans', sans-serif; text-anchor: middle" x="289.190553" y="218.782314" transform="rotate(-0 289.190553 218.782314)">99.2%</text>
   </g>
   <g id="text_3">
    <text style="fill: #262626; font: 10px 'Arial', 'Liberation Sans', 'DejaVu Sans', 'Bitstream Vera Sans', sans-serif; text-anchor: start" x="515.316439" y="224.381558" transform="rotate(-0 515.316439 224.381558)">chicago_pd</text>
   </g>
   <g id="text_4">
    <text style="fill: #262626; font: 10px 'Arial', 'Liberation Sans', 'DejaVu Sans', 'Bitstream Vera Sans', sans-serif; text-anchor: middle" x="448.808967" y="222.729003" transform="rotate(-0 448.808967 222.729003)">0.8%</text>
   </g>
   <g id="text_5">
    <text style="fill: #262626; font: 10px 'Arial', 'Liberation Sans', 'DejaVu Sans', 'Bitstream Vera Sans', sans-serif; text-anchor: start" x="515.361596" y="220.781602" transform="rotate(-0 515.361596 220.781602)">chicago_police</text>
   </g>
   <g id="text_6">
    <text style="fill: #262626; font: 10px 'Arial', 'Liberation Sans', 'DejaVu Sans', 'Bitstream Vera Sans', sans-serif; text-anchor: middle" x="448.833598" y="220.765391" transform="rotate(-0 448.833598 220.765391)">0.0%</text>
   </g>
   <g id="text_7">
    <text style="fill: #262626; font: 12px 'Arial', 'Liberation Sans', 'DejaVu Sans', 'Bitstream Vera Sans', sans-serif; text-anchor: middle" x="369" y="45.84" transform="rotate(-0 369 45.84)">Incidents by Source</text>
   </g>
  </g>
 </g>
</svg>
