<?xml version="1.0" encoding="utf-8" standalone="no"?>
<!DOCTYPE svg PUBLIC "-//W3C//DTD SVG 1.1//EN"
  "http://www.w3.org/Graphics/SVG/1.1/DTD/svg11.dtd">
<svg xmlns:xlink="http://www.w3.org/1999/xlink" width="720pt" height="432pt" viewBox="0 0 720 432" xmlns="http://www.w3.org/2000/svg" version="1.1">
 <metadata>
  <rdf:RDF xmlns:dc="http://purl.org/dc/elements/1.1/" xmlns:cc="http://creativecommons.org/ns#" xmlns:rdf="http://www.w3.org/1999/02/22-rdf-syntax-ns#">
   <cc:Work>
    <dc:type rdf:resource="http://purl.org/dc/dcmitype/StillImage"/>
    <dc:date>2025-03-09T12:30:34.769089</dc:date>
    <dc:format>image/svg+xml</dc:format>
    <dc:creator>
     <cc:Agent>
      <dc:title>Matplotlib v3.7.5, https://matplotlib.org/</dc:title>
     </cc:Agent>
    </dc:creator>
   </cc:Work>
  </rdf:RDF>
 </metadata>
 <defs>
  <style type="text/css">*{stroke-linejoin: round; stroke-linecap: butt}</style>
 </defs>
 <g id="figure_1">
  <g id="patch_1">
   <path d="M 0 432 
L 720 432 
L 720 0 
L 0 0 
z
" style="fill: #ffffff"/>
  </g>
  <g id="axes_1">
   <g id="matplotlib.axis_1"/>
   <g id="matplotlib.axis_2"/>
   <g id="patch_2">
    <path d="M 502.056 218.16 
C 502.056 200.780714 498.650972 183.568611 492.033739 167.498396 
C 485.416506 151.42818 475.714381 136.809034 463.476783 124.468823 
C 451.239186 112.128613 436.701561 102.304757 420.687159 95.55357 
C 404.672757 88.802383 387.489686 85.253754 370.111006 85.108638 
C 352.732325 84.963523 335.492391 88.224713 319.367483 94.70753 
C 303.242574 101.190347 288.542926 110.770066 276.100962 122.904197 
C 263.658999 135.038329 253.714098 149.493418 246.829427 165.45089 
C 239.944757 181.408362 236.252774 198.561203 235.962554 215.938066 
C 235.672333 233.314929 238.789457 250.581492 245.137406 266.75997 
C 251.485356 282.938447 260.942 297.717573 272.971819 310.260422 
C 285.001638 322.80327 299.373185 332.868523 315.272614 339.886197 
C 331.172043 346.903871 348.293458 350.73895 365.667292 351.174256 
C 383.041126 351.609562 400.333116 348.636721 416.564034 342.424081 
C 432.794952 336.211441 447.652525 326.878531 460.295384 314.953863 
C 472.938243 303.029195 483.123147 288.742194 490.273335 272.901916 
C 497.423523 257.061638 501.40143 239.972842 501.981791 222.603249 
L 369 218.16 
z
" style="fill: #f77189"/>
   </g>
   <g id="patch_3">
    <path d="M 501.981791 222.603249 
C 502.00628 221.870307 502.02471 221.137175 502.037077 220.403928 
C 502.049445 219.670681 502.05575 218.937344 502.055993 218.203993 
L 369 218.16 
z
" style="fill: #bb9832"/>
   </g>
   <g id="patch_4">
    <path d="M 502.055993 218.203993 
C 502.055995 218.19666 502.055997 218.189326 502.055998 218.181993 
C 502.055999 218.174659 502.056 218.167326 502.056 218.159992 
L 369 218.16 
z
" style="fill: #50b131"/>
   </g>
   <g id="text_1">
    <text style="fill: #262626; font: 10px 'Arial', 'Liberation Sans', 'DejaVu Sans', 'Bitstream Vera Sans', sans-serif; text-anchor: end" x="222.658809" y="218.30181" transform="rotate(-0 222.658809 218.30181)">newsapi</text>
   </g>
   <g id="text_2">
    <text style="fill: #262626; font: 10px 'Arial', 'Liberation Sans', 'DejaVu Sans', 'Bitstream Vera Sans', sans-serif; text-anchor: middle" x="289.177532" y="219.412777" transform="rotate(-0 289.177532 219.412777)">99.5%</text>
   </g>
   <g id="text_3">
    <text style="fill: #262626; font: 10px 'Arial', 'Liberation Sans', 'DejaVu Sans', 'Bitstream Vera Sans', sans-serif; text-anchor: start" x="515.340785" y="223.214258" transform="rotate(-0 515.340785 223.214258)">chicago_pd</text>
   </g>
   <g id="text_4">
    <text style="fill: #262626; font: 10px 'Arial', 'Liberation Sans', 'DejaVu Sans', 'Bitstream Vera Sans', sans-serif; text-anchor: middle" x="448.822246" y="222.092294" transform="rotate(-0 448.822246 222.092294)">0.5%</text>
   </g>
   <g id="text_5">
    <text style="fill: #262626; font: 10px 'Arial', 'Liberation Sans', 'DejaVu Sans', 'Bitstream Vera Sans', sans-serif; text-anchor: start" x="515.361598" y="220.77013" transform="rotate(-0 515.361598 220.77013)">chicago_police</text>
   </g>
   <g id="text_6">
    <text style="fill: #262626; font: 10px 'Arial', 'Liberation Sans', 'DejaVu Sans', 'Bitstream Vera Sans', sans-serif; text-anchor: middle" x="448.833599" y="220.759133" transform="rotate(-0 448.833599 220.759133)">0.0%</text>
   </g>
   <g id="text_7">
    <text style="fill: #262626; font: 12px 'Arial', 'Liberation Sans', 'DejaVu Sans', 'Bitstream Vera Sans', sans-serif; text-anchor: middle" x="369" y="45.84" transform="rotate(-0 369 45.84)">Incidents by Source</text>
   </g>
  </g>
 </g>
</svg>
