<?xml version="1.0" encoding="utf-8" standalone="no"?>
<!DOCTYPE svg PUBLIC "-//W3C//DTD SVG 1.1//EN"
  "http://www.w3.org/Graphics/SVG/1.1/DTD/svg11.dtd">
<svg xmlns:xlink="http://www.w3.org/1999/xlink" width="720pt" height="432pt" viewBox="0 0 720 432" xmlns="http://www.w3.org/2000/svg" version="1.1">
 <metadata>
  <rdf:RDF xmlns:dc="http://purl.org/dc/elements/1.1/" xmlns:cc="http://creativecommons.org/ns#" xmlns:rdf="http://www.w3.org/1999/02/22-rdf-syntax-ns#">
   <cc:Work>
    <dc:type rdf:resource="http://purl.org/dc/dcmitype/StillImage"/>
    <dc:date>2025-09-10T12:45:35.590673</dc:date>
    <dc:format>image/svg+xml</dc:format>
    <dc:creator>
     <cc:Agent>
      <dc:title>Matplotlib v3.7.5, https://matplotlib.org/</dc:title>
     </cc:Agent>
    </dc:creator>
   </cc:Work>
  </rdf:RDF>
 </metadata>
 <defs>
  <style type="text/css">*{stroke-linejoin: round; stroke-linecap: butt}</style>
 </defs>
 <g id="figure_1">
  <g id="patch_1">
   <path d="M 0 432 
L 720 432 
L 720 0 
L 0 0 
z
" style="fill: #ffffff"/>
  </g>
  <g id="axes_1">
   <g id="matplotlib.axis_1"/>
   <g id="matplotlib.axis_2"/>
   <g id="patch_2">
    <path d="M 502.056 218.16 
C 502.056 200.718403 498.626512 183.445798 491.963116 167.327223 
C 485.29972 151.208648 475.53154 136.556449 463.215644 124.206226 
C 450.899748 111.856003 436.274794 102.047078 420.174828 95.338845 
C 404.074861 88.630611 386.811869 85.153061 369.370339 85.104515 
C 351.92881 85.05597 334.646726 88.437369 318.509667 95.055876 
C 302.372608 101.674383 287.693278 111.401743 275.308823 123.683217 
C 262.924369 135.96469 253.074776 150.562286 246.321757 166.643519 
C 239.568738 182.724751 236.043153 199.977998 235.946062 217.419325 
C 235.84897 234.860651 239.182255 252.15208 245.755821 268.307498 
C 252.329388 284.462916 262.015853 299.169263 274.262809 311.587853 
C 286.509765 324.006443 301.079889 333.896628 317.142264 340.69438 
C 333.204638 347.492133 350.448005 351.065726 367.888994 351.211362 
C 385.329983 351.356997 402.630622 348.071854 418.804274 341.543279 
C 434.977926 335.014704 449.711177 325.369208 462.163806 313.156865 
C 474.616436 300.944521 484.547135 286.401981 491.389568 270.358589 
C 498.232001 254.315198 501.853575 237.081844 502.047754 219.641328 
L 369 218.16 
z
" style="fill: #f77189"/>
   </g>
   <g id="patch_3">
    <path d="M 502.047754 219.641328 
C 502.050475 219.396898 502.052523 219.152461 502.053897 218.90802 
C 502.055272 218.663579 502.055972 218.419135 502.055999 218.17469 
L 369 218.16 
z
" style="fill: #bb9832"/>
   </g>
   <g id="patch_4">
    <path d="M 502.055999 218.17469 
C 502.055999 218.172246 502.056 218.169801 502.056 218.167357 
C 502.056 218.164912 502.056 218.162468 502.056 218.160024 
L 369 218.16 
z
" style="fill: #50b131"/>
   </g>
   <g id="text_1">
    <text style="fill: #262626; font: 10px 'Arial', 'Liberation Sans', 'DejaVu Sans', 'Bitstream Vera Sans', sans-serif; text-anchor: end" x="222.640668" y="219.931195" transform="rotate(-0 222.640668 219.931195)">newsapi</text>
   </g>
   <g id="text_2">
    <text style="fill: #262626; font: 10px 'Arial', 'Liberation Sans', 'DejaVu Sans', 'Bitstream Vera Sans', sans-serif; text-anchor: middle" x="289.167637" y="220.301532" transform="rotate(-0 289.167637 220.301532)">99.8%</text>
   </g>
   <g id="text_3">
    <text style="fill: #262626; font: 10px 'Arial', 'Liberation Sans', 'DejaVu Sans', 'Bitstream Vera Sans', sans-serif; text-anchor: start" x="515.359287" y="221.56876" transform="rotate(-0 515.359287 221.56876)">chicago_pd</text>
   </g>
   <g id="text_4">
    <text style="fill: #262626; font: 10px 'Arial', 'Liberation Sans', 'DejaVu Sans', 'Bitstream Vera Sans', sans-serif; text-anchor: middle" x="448.832338" y="221.19475" transform="rotate(-0 448.832338 221.19475)">0.2%</text>
   </g>
   <g id="text_5">
    <text style="fill: #262626; font: 10px 'Arial', 'Liberation Sans', 'DejaVu Sans', 'Bitstream Vera Sans', sans-serif; text-anchor: start" x="515.3616" y="220.75403" transform="rotate(-0 515.3616 220.75403)">chicago_police</text>
   </g>
   <g id="text_6">
    <text style="fill: #262626; font: 10px 'Arial', 'Liberation Sans', 'DejaVu Sans', 'Bitstream Vera Sans', sans-serif; text-anchor: middle" x="448.8336" y="220.750352" transform="rotate(-0 448.8336 220.750352)">0.0%</text>
   </g>
   <g id="text_7">
    <text style="fill: #262626; font: 12px 'Arial', 'Liberation Sans', 'DejaVu Sans', 'Bitstream Vera Sans', sans-serif; text-anchor: middle" x="369" y="45.84" transform="rotate(-0 369 45.84)">Incidents by Source</text>
   </g>
  </g>
 </g>
</svg>
