<?xml version="1.0" encoding="utf-8" standalone="no"?>
<!DOCTYPE svg PUBLIC "-//W3C//DTD SVG 1.1//EN"
  "http://www.w3.org/Graphics/SVG/1.1/DTD/svg11.dtd">
<svg xmlns:xlink="http://www.w3.org/1999/xlink" width="720pt" height="432pt" viewBox="0 0 720 432" xmlns="http://www.w3.org/2000/svg" version="1.1">
 <metadata>
  <rdf:RDF xmlns:dc="http://purl.org/dc/elements/1.1/" xmlns:cc="http://creativecommons.org/ns#" xmlns:rdf="http://www.w3.org/1999/02/22-rdf-syntax-ns#">
   <cc:Work>
    <dc:type rdf:resource="http://purl.org/dc/dcmitype/StillImage"/>
    <dc:date>2026-07-23T03:20:28.533164</dc:date>
    <dc:format>image/svg+xml</dc:format>
    <dc:creator>
     <cc:Agent>
      <dc:title>Matplotlib v3.7.5, https://matplotlib.org/</dc:title>
     </cc:Agent>
    </dc:creator>
   </cc:Work>
  </rdf:RDF>
 </metadata>
 <defs>
  <style type="text/css">*{stroke-linejoin: round; stroke-linecap: butt}</style>
 </defs>
 <g id="figure_1">
  <g id="patch_1">
   <path d="M 0 432 
L 720 432 
L 720 0 
L 0 0 
z
" style="fill: #ffffff"/>
  </g>
  <g id="axes_1">
   <g id="matplotlib.axis_1"/>
   <g id="matplotlib.axis_2"/>
   <g id="patch_2">
    <path d="M 502.056 218.16 
C 502.056 200.702086 498.620092 183.413639 491.944583 167.282416 
C 485.269075 151.151193 475.483566 136.490372 463.147141 124.137583 
C 450.810717 111.784794 436.162881 101.979858 420.040522 95.282971 
C 403.918163 88.586084 386.634286 85.12726 369.176387 85.104117 
C 351.718488 85.080974 334.425502 88.49396 318.285444 95.148078 
C 302.145386 101.802197 287.471605 111.568261 275.102473 123.888299 
C 262.733341 136.208337 252.908996 150.843162 246.190741 166.95663 
C 239.472487 183.070097 235.990754 200.349373 235.944468 217.807226 
C 235.898181 235.265079 239.28824 252.562575 245.920956 268.71144 
C 252.553672 284.860305 262.300276 299.547019 274.603906 311.932472 
C 286.907536 324.317926 301.529324 334.161663 317.633871 340.901272 
C 333.738418 347.640882 351.013064 351.145518 368.47084 351.214948 
C 385.928616 351.284377 403.230591 347.917252 419.388234 341.30595 
C 435.545878 334.694647 450.2455 324.967522 462.647253 312.680322 
C 475.049006 300.393121 484.912118 285.784395 491.67307 269.688797 
C 498.434023 253.593199 501.961557 236.323214 502.054129 218.865545 
L 369 218.16 
z
" style="fill: #f77189"/>
   </g>
   <g id="patch_3">
    <path d="M 502.054129 218.865545 
C 502.054747 218.74912 502.055211 218.632695 502.055523 218.516268 
C 502.055835 218.399842 502.055994 218.283416 502.056 218.166989 
L 369 218.16 
z
" style="fill: #bb9832"/>
   </g>
   <g id="patch_4">
    <path d="M 502.056 218.166989 
C 502.056 218.165825 502.056 218.16466 502.056 218.163496 
C 502.056 218.162332 502.056 218.161168 502.056 218.160003 
L 369 218.16 
z
" style="fill: #50b131"/>
   </g>
   <g id="text_1">
    <text style="fill: #262626; font: 10px 'Arial', 'Liberation Sans', 'DejaVu Sans', 'Bitstream Vera Sans', sans-serif; text-anchor: end" x="222.638914" y="220.357886" transform="rotate(-0 222.638914 220.357886)">newsapi</text>
   </g>
   <g id="text_2">
    <text style="fill: #262626; font: 10px 'Arial', 'Liberation Sans', 'DejaVu Sans', 'Bitstream Vera Sans', sans-serif; text-anchor: middle" x="289.166681" y="220.534273" transform="rotate(-0 289.166681 220.534273)">99.9%</text>
   </g>
   <g id="text_3">
    <text style="fill: #262626; font: 10px 'Arial', 'Liberation Sans', 'DejaVu Sans', 'Bitstream Vera Sans', sans-serif; text-anchor: start" x="515.361075" y="221.137833" transform="rotate(-0 515.361075 221.137833)">chicago_pd</text>
   </g>
   <g id="text_4">
    <text style="fill: #262626; font: 10px 'Arial', 'Liberation Sans', 'DejaVu Sans', 'Bitstream Vera Sans', sans-serif; text-anchor: middle" x="448.833314" y="220.959699" transform="rotate(-0 448.833314 220.959699)">0.1%</text>
   </g>
   <g id="text_5">
    <text style="fill: #262626; font: 10px 'Arial', 'Liberation Sans', 'DejaVu Sans', 'Bitstream Vera Sans', sans-serif; text-anchor: start" x="515.3616" y="220.749783" transform="rotate(-0 515.3616 220.749783)">chicago_police</text>
   </g>
   <g id="text_6">
    <text style="fill: #262626; font: 10px 'Arial', 'Liberation Sans', 'DejaVu Sans', 'Bitstream Vera Sans', sans-serif; text-anchor: middle" x="448.8336" y="220.748035" transform="rotate(-0 448.8336 220.748035)">0.0%</text>
   </g>
   <g id="text_7">
    <text style="fill: #262626; font: 12px 'Arial', 'Liberation Sans', 'DejaVu Sans', 'Bitstream Vera Sans', sans-serif; text-anchor: middle" x="369" y="45.84" transform="rotate(-0 369 45.84)">Incidents by Source</text>
   </g>
  </g>
 </g>
</svg>
