<?xml version="1.0" encoding="utf-8" standalone="no"?>
<!DOCTYPE svg PUBLIC "-//W3C//DTD SVG 1.1//EN"
  "http://www.w3.org/Graphics/SVG/1.1/DTD/svg11.dtd">
<svg xmlns:xlink="http://www.w3.org/1999/xlink" width="720pt" height="432pt" viewBox="0 0 720 432" xmlns="http://www.w3.org/2000/svg" version="1.1">
 <metadata>
  <rdf:RDF xmlns:dc="http://purl.org/dc/elements/1.1/" xmlns:cc="http://creativecommons.org/ns#" xmlns:rdf="http://www.w3.org/1999/02/22-rdf-syntax-ns#">
   <cc:Work>
    <dc:type rdf:resource="http://purl.org/dc/dcmitype/StillImage"/>
    <dc:date>2025-12-06T06:21:20.492906</dc:date>
    <dc:format>image/svg+xml</dc:format>
    <dc:creator>
     <cc:Agent>
      <dc:title>Matplotlib v3.7.5, https://matplotlib.org/</dc:title>
     </cc:Agent>
    </dc:creator>
   </cc:Work>
  </rdf:RDF>
 </metadata>
 <defs>
  <style type="text/css">*{stroke-linejoin: round; stroke-linecap: butt}</style>
 </defs>
 <g id="figure_1">
  <g id="patch_1">
   <path d="M 0 432 
L 720 432 
L 720 0 
L 0 0 
z
" style="fill: #ffffff"/>
  </g>
  <g id="axes_1">
   <g id="matplotlib.axis_1"/>
   <g id="matplotlib.axis_2"/>
   <g id="patch_2">
    <path d="M 502.056 218.16 
C 502.056 200.711064 498.623625 183.431333 491.954782 167.307068 
C 485.285939 151.182803 475.509966 136.526724 463.184837 124.175344 
C 450.859709 111.823964 436.224463 102.016829 420.114424 95.313694 
C 404.004385 88.610559 386.731996 85.141427 369.283099 85.104301 
C 351.834202 85.067176 334.547207 88.462777 318.40879 95.097298 
C 302.270372 101.731819 287.593527 111.476587 275.215951 123.775408 
C 262.838375 136.074229 253.000124 150.688575 246.262727 166.784316 
C 239.52533 182.880057 236.019456 200.145025 235.945205 217.593804 
C 235.870954 235.042582 239.229767 252.336763 245.829936 268.489259 
C 252.430104 284.641756 262.143623 299.339302 274.41608 311.743018 
C 286.688538 324.146734 301.281919 334.016057 317.363288 340.787685 
C 333.444658 347.559313 350.702128 351.101914 368.150709 351.213289 
C 385.59929 351.324665 402.900577 348.002656 419.067081 341.43687 
C 435.233584 334.871083 449.951764 325.188858 462.381563 312.942819 
C 474.811363 300.69678 484.711713 286.124431 491.517542 270.057506 
C 498.32337 253.990581 501.902681 236.740687 502.051181 219.292382 
L 369 218.16 
z
" style="fill: #f77189"/>
   </g>
   <g id="patch_3">
    <path d="M 502.051181 219.292382 
C 502.052772 219.105526 502.053968 218.918668 502.054771 218.731807 
C 502.055574 218.544946 502.055984 218.358083 502.056 218.171221 
L 369 218.16 
z
" style="fill: #bb9832"/>
   </g>
   <g id="patch_4">
    <path d="M 502.056 218.171221 
C 502.056 218.169352 502.056 218.167484 502.056 218.165615 
C 502.056 218.163746 502.056 218.161878 502.056 218.160009 
L 369 218.16 
z
" style="fill: #50b131"/>
   </g>
   <g id="text_1">
    <text style="fill: #262626; font: 10px 'Arial', 'Liberation Sans', 'DejaVu Sans', 'Bitstream Vera Sans', sans-serif; text-anchor: end" x="222.639725" y="220.123122" transform="rotate(-0 222.639725 220.123122)">newsapi</text>
   </g>
   <g id="text_2">
    <text style="fill: #262626; font: 10px 'Arial', 'Liberation Sans', 'DejaVu Sans', 'Bitstream Vera Sans', sans-serif; text-anchor: middle" x="289.167123" y="220.40622" transform="rotate(-0 289.167123 220.40622)">99.9%</text>
   </g>
   <g id="text_3">
    <text style="fill: #262626; font: 10px 'Arial', 'Liberation Sans', 'DejaVu Sans', 'Bitstream Vera Sans', sans-serif; text-anchor: start" x="515.360248" y="221.374925" transform="rotate(-0 515.360248 221.374925)">chicago_pd</text>
   </g>
   <g id="text_4">
    <text style="fill: #262626; font: 10px 'Arial', 'Liberation Sans', 'DejaVu Sans', 'Bitstream Vera Sans', sans-serif; text-anchor: middle" x="448.832863" y="221.089021" transform="rotate(-0 448.832863 221.089021)">0.1%</text>
   </g>
   <g id="text_5">
    <text style="fill: #262626; font: 10px 'Arial', 'Liberation Sans', 'DejaVu Sans', 'Bitstream Vera Sans', sans-serif; text-anchor: start" x="515.3616" y="220.752114" transform="rotate(-0 515.3616 220.752114)">chicago_police</text>
   </g>
   <g id="text_6">
    <text style="fill: #262626; font: 10px 'Arial', 'Liberation Sans', 'DejaVu Sans', 'Bitstream Vera Sans', sans-serif; text-anchor: middle" x="448.8336" y="220.749306" transform="rotate(-0 448.8336 220.749306)">0.0%</text>
   </g>
   <g id="text_7">
    <text style="fill: #262626; font: 12px 'Arial', 'Liberation Sans', 'DejaVu Sans', 'Bitstream Vera Sans', sans-serif; text-anchor: middle" x="369" y="45.84" transform="rotate(-0 369 45.84)">Incidents by Source</text>
   </g>
  </g>
 </g>
</svg>
