<?xml version="1.0" encoding="utf-8" standalone="no"?>
<!DOCTYPE svg PUBLIC "-//W3C//DTD SVG 1.1//EN"
  "http://www.w3.org/Graphics/SVG/1.1/DTD/svg11.dtd">
<svg xmlns:xlink="http://www.w3.org/1999/xlink" width="720pt" height="432pt" viewBox="0 0 720 432" xmlns="http://www.w3.org/2000/svg" version="1.1">
 <metadata>
  <rdf:RDF xmlns:dc="http://purl.org/dc/elements/1.1/" xmlns:cc="http://creativecommons.org/ns#" xmlns:rdf="http://www.w3.org/1999/02/22-rdf-syntax-ns#">
   <cc:Work>
    <dc:type rdf:resource="http://purl.org/dc/dcmitype/StillImage"/>
    <dc:date>2025-05-29T06:21:03.978385</dc:date>
    <dc:format>image/svg+xml</dc:format>
    <dc:creator>
     <cc:Agent>
      <dc:title>Matplotlib v3.7.5, https://matplotlib.org/</dc:title>
     </cc:Agent>
    </dc:creator>
   </cc:Work>
  </rdf:RDF>
 </metadata>
 <defs>
  <style type="text/css">*{stroke-linejoin: round; stroke-linecap: butt}</style>
 </defs>
 <g id="figure_1">
  <g id="patch_1">
   <path d="M 0 432 
L 720 432 
L 720 0 
L 0 0 
z
" style="fill: #ffffff"/>
  </g>
  <g id="axes_1">
   <g id="matplotlib.axis_1"/>
   <g id="matplotlib.axis_2"/>
   <g id="patch_2">
    <path d="M 502.056 218.16 
C 502.056 200.737784 498.63413 183.483997 491.985108 167.380453 
C 485.336086 151.27691 475.588472 136.634971 463.296946 124.287826 
C 451.00542 111.940681 436.407638 102.12706 420.334277 95.405403 
C 404.260917 88.683746 387.022754 85.184013 369.600716 85.105356 
C 352.178678 85.026699 334.909617 88.370638 318.776219 94.946888 
C 302.642821 101.523138 287.957023 111.204549 275.55451 123.440205 
C 263.151998 135.675861 253.272572 150.229188 246.478416 166.272038 
C 239.68426 182.314888 236.106737 199.537075 235.949424 216.95858 
C 235.792112 234.380086 239.058051 251.664067 245.561395 267.826991 
C 252.06474 283.989915 261.679749 298.719273 273.859286 311.1769 
C 286.038823 323.634527 300.547399 333.579557 316.559411 340.446074 
C 332.571424 347.31259 349.777283 350.967831 367.197901 351.203796 
C 384.618519 351.439761 401.917069 348.251888 418.109189 341.821581 
C 434.301309 335.391275 449.073927 325.842863 461.586415 313.719693 
C 474.098902 301.596523 484.109334 287.132995 491.048071 271.152146 
C 497.986808 255.171298 501.719691 237.982116 502.034304 220.562741 
L 369 218.16 
z
" style="fill: #f77189"/>
   </g>
   <g id="patch_3">
    <path d="M 502.034304 220.562741 
C 502.041464 220.166289 502.046852 219.769806 502.050468 219.373306 
C 502.054084 218.976805 502.055927 218.58029 502.055998 218.183773 
L 369 218.16 
z
" style="fill: #bb9832"/>
   </g>
   <g id="patch_4">
    <path d="M 502.055998 218.183773 
C 502.055999 218.179808 502.055999 218.175842 502.055999 218.171877 
C 502.056 218.167912 502.056 218.163947 502.056 218.159982 
L 369 218.16 
z
" style="fill: #50b131"/>
   </g>
   <g id="text_1">
    <text style="fill: #262626; font: 10px 'Arial', 'Liberation Sans', 'DejaVu Sans', 'Bitstream Vera Sans', sans-serif; text-anchor: end" x="222.644367" y="219.424376" transform="rotate(-0 222.644367 219.424376)">newsapi</text>
   </g>
   <g id="text_2">
    <text style="fill: #262626; font: 10px 'Arial', 'Liberation Sans', 'DejaVu Sans', 'Bitstream Vera Sans', sans-serif; text-anchor: middle" x="289.169655" y="220.025086" transform="rotate(-0 289.169655 220.025086)">99.7%</text>
   </g>
   <g id="text_3">
    <text style="fill: #262626; font: 10px 'Arial', 'Liberation Sans', 'DejaVu Sans', 'Bitstream Vera Sans', sans-serif; text-anchor: start" x="515.355515" y="222.080574" transform="rotate(-0 515.355515 222.080574)">chicago_pd</text>
   </g>
   <g id="text_4">
    <text style="fill: #262626; font: 10px 'Arial', 'Liberation Sans', 'DejaVu Sans', 'Bitstream Vera Sans', sans-serif; text-anchor: middle" x="448.830281" y="221.473921" transform="rotate(-0 448.830281 221.473921)">0.3%</text>
   </g>
   <g id="text_5">
    <text style="fill: #262626; font: 10px 'Arial', 'Liberation Sans', 'DejaVu Sans', 'Bitstream Vera Sans', sans-serif; text-anchor: start" x="515.361599" y="220.759003" transform="rotate(-0 515.361599 220.759003)">chicago_police</text>
   </g>
   <g id="text_6">
    <text style="fill: #262626; font: 10px 'Arial', 'Liberation Sans', 'DejaVu Sans', 'Bitstream Vera Sans', sans-serif; text-anchor: middle" x="448.8336" y="220.753064" transform="rotate(-0 448.8336 220.753064)">0.0%</text>
   </g>
   <g id="text_7">
    <text style="fill: #262626; font: 12px 'Arial', 'Liberation Sans', 'DejaVu Sans', 'Bitstream Vera Sans', sans-serif; text-anchor: middle" x="369" y="45.84" transform="rotate(-0 369 45.84)">Incidents by Source</text>
   </g>
  </g>
 </g>
</svg>
