<?xml version="1.0" encoding="utf-8" standalone="no"?>
<!DOCTYPE svg PUBLIC "-//W3C//DTD SVG 1.1//EN"
  "http://www.w3.org/Graphics/SVG/1.1/DTD/svg11.dtd">
<svg xmlns:xlink="http://www.w3.org/1999/xlink" width="720pt" height="432pt" viewBox="0 0 720 432" xmlns="http://www.w3.org/2000/svg" version="1.1">
 <metadata>
  <rdf:RDF xmlns:dc="http://purl.org/dc/elements/1.1/" xmlns:cc="http://creativecommons.org/ns#" xmlns:rdf="http://www.w3.org/1999/02/22-rdf-syntax-ns#">
   <cc:Work>
    <dc:type rdf:resource="http://purl.org/dc/dcmitype/StillImage"/>
    <dc:date>2026-05-05T19:11:42.614125</dc:date>
    <dc:format>image/svg+xml</dc:format>
    <dc:creator>
     <cc:Agent>
      <dc:title>Matplotlib v3.7.5, https://matplotlib.org/</dc:title>
     </cc:Agent>
    </dc:creator>
   </cc:Work>
  </rdf:RDF>
 </metadata>
 <defs>
  <style type="text/css">*{stroke-linejoin: round; stroke-linecap: butt}</style>
 </defs>
 <g id="figure_1">
  <g id="patch_1">
   <path d="M 0 432 
L 720 432 
L 720 0 
L 0 0 
z
" style="fill: #ffffff"/>
  </g>
  <g id="axes_1">
   <g id="matplotlib.axis_1"/>
   <g id="matplotlib.axis_2"/>
   <g id="patch_2">
    <path d="M 502.056 218.16 
C 502.056 200.704485 498.621036 183.418367 491.947309 167.289003 
C 485.273582 151.15964 475.490622 136.500085 463.157216 124.147672 
C 450.82381 111.795259 436.179339 101.989735 420.060272 95.291177 
C 403.941205 88.592618 386.660397 85.131039 369.204903 85.104158 
C 351.749408 85.077277 334.458021 88.485616 318.318399 95.134497 
C 302.178777 101.783377 287.504175 111.543751 275.132783 123.858119 
C 262.761391 136.172488 252.933327 150.801842 246.209954 166.910574 
C 239.486581 183.019307 235.998393 200.294763 235.944631 217.750195 
C 235.890869 235.205628 239.272576 252.502243 245.896594 268.652085 
C 252.520612 284.801927 262.258376 299.491542 274.553678 311.881883 
C 286.848981 324.272224 301.463182 334.122806 317.561542 340.870978 
C 333.659901 347.61915 350.929965 351.133937 368.385294 351.21458 
C 385.840623 351.295223 403.142426 347.940156 419.302449 341.341016 
C 435.462473 334.741876 450.167067 325.026746 462.576328 312.750539 
C 474.985588 300.474332 484.858664 285.875317 491.631619 269.787369 
C 498.404574 253.69942 501.945952 236.434789 502.053476 218.979605 
L 369 218.16 
z
" style="fill: #f77189"/>
   </g>
   <g id="patch_3">
    <path d="M 502.053476 218.979605 
C 502.054309 218.844361 502.054936 218.709114 502.055356 218.573868 
C 502.055777 218.438621 502.055991 218.303374 502.056 218.168126 
L 369 218.16 
z
" style="fill: #bb9832"/>
   </g>
   <g id="patch_4">
    <path d="M 502.056 218.168126 
C 502.056 218.166774 502.056 218.165421 502.056 218.164069 
C 502.056 218.162716 502.056 218.161364 502.056 218.160011 
L 369 218.16 
z
" style="fill: #50b131"/>
   </g>
   <g id="text_1">
    <text style="fill: #262626; font: 10px 'Arial', 'Liberation Sans', 'DejaVu Sans', 'Bitstream Vera Sans', sans-serif; text-anchor: end" x="222.639094" y="220.295152" transform="rotate(-0 222.639094 220.295152)">newsapi</text>
   </g>
   <g id="text_2">
    <text style="fill: #262626; font: 10px 'Arial', 'Liberation Sans', 'DejaVu Sans', 'Bitstream Vera Sans', sans-serif; text-anchor: middle" x="289.166779" y="220.500055" transform="rotate(-0 289.166779 220.500055)">99.9%</text>
   </g>
   <g id="text_3">
    <text style="fill: #262626; font: 10px 'Arial', 'Liberation Sans', 'DejaVu Sans', 'Bitstream Vera Sans', sans-serif; text-anchor: start" x="515.360892" y="221.201192" transform="rotate(-0 515.360892 221.201192)">chicago_pd</text>
   </g>
   <g id="text_4">
    <text style="fill: #262626; font: 10px 'Arial', 'Liberation Sans', 'DejaVu Sans', 'Bitstream Vera Sans', sans-serif; text-anchor: middle" x="448.833214" y="220.994258" transform="rotate(-0 448.833214 220.994258)">0.1%</text>
   </g>
   <g id="text_5">
    <text style="fill: #262626; font: 10px 'Arial', 'Liberation Sans', 'DejaVu Sans', 'Bitstream Vera Sans', sans-serif; text-anchor: start" x="515.3616" y="220.750413" transform="rotate(-0 515.3616 220.750413)">chicago_police</text>
   </g>
   <g id="text_6">
    <text style="fill: #262626; font: 10px 'Arial', 'Liberation Sans', 'DejaVu Sans', 'Bitstream Vera Sans', sans-serif; text-anchor: middle" x="448.8336" y="220.748379" transform="rotate(-0 448.8336 220.748379)">0.0%</text>
   </g>
   <g id="text_7">
    <text style="fill: #262626; font: 12px 'Arial', 'Liberation Sans', 'DejaVu Sans', 'Bitstream Vera Sans', sans-serif; text-anchor: middle" x="369" y="45.84" transform="rotate(-0 369 45.84)">Incidents by Source</text>
   </g>
  </g>
 </g>
</svg>
