<?xml version="1.0" encoding="utf-8" standalone="no"?>
<!DOCTYPE svg PUBLIC "-//W3C//DTD SVG 1.1//EN"
  "http://www.w3.org/Graphics/SVG/1.1/DTD/svg11.dtd">
<svg xmlns:xlink="http://www.w3.org/1999/xlink" width="720pt" height="432pt" viewBox="0 0 720 432" xmlns="http://www.w3.org/2000/svg" version="1.1">
 <metadata>
  <rdf:RDF xmlns:dc="http://purl.org/dc/elements/1.1/" xmlns:cc="http://creativecommons.org/ns#" xmlns:rdf="http://www.w3.org/1999/02/22-rdf-syntax-ns#">
   <cc:Work>
    <dc:type rdf:resource="http://purl.org/dc/dcmitype/StillImage"/>
    <dc:date>2025-11-21T12:49:26.623956</dc:date>
    <dc:format>image/svg+xml</dc:format>
    <dc:creator>
     <cc:Agent>
      <dc:title>Matplotlib v3.7.5, https://matplotlib.org/</dc:title>
     </cc:Agent>
    </dc:creator>
   </cc:Work>
  </rdf:RDF>
 </metadata>
 <defs>
  <style type="text/css">*{stroke-linejoin: round; stroke-linecap: butt}</style>
 </defs>
 <g id="figure_1">
  <g id="patch_1">
   <path d="M 0 432 
L 720 432 
L 720 0 
L 0 0 
z
" style="fill: #ffffff"/>
  </g>
  <g id="axes_1">
   <g id="matplotlib.axis_1"/>
   <g id="matplotlib.axis_2"/>
   <g id="patch_2">
    <path d="M 502.056 218.16 
C 502.056 200.711951 498.623974 183.433082 491.95579 167.309505 
C 485.287606 151.185929 475.512575 136.530319 463.188564 124.179079 
C 450.864552 111.827838 436.230551 102.020487 420.12173 95.316735 
C 404.012909 88.612983 386.741657 85.142831 369.29365 85.104324 
C 351.845644 85.065817 334.559243 88.4597 318.420989 95.092284 
C 302.282735 101.724868 287.605588 111.46753 275.227179 123.764253 
C 262.848769 136.060976 253.009145 150.673296 246.269858 166.767283 
C 239.53057 182.86127 236.022311 200.124822 235.945296 217.572701 
C 235.868282 235.02058 239.224006 252.314429 245.820957 268.467282 
C 252.417908 284.620134 262.128155 299.318747 274.397529 311.724265 
C 286.666903 324.129782 301.257473 334.001631 317.336547 340.776421 
C 333.415621 347.551211 350.671388 351.097563 368.119055 351.213084 
C 385.566721 351.328605 402.867934 348.011055 419.035307 341.449769 
C 435.202679 334.888483 449.922687 325.2107 462.355252 312.968734 
C 474.787817 300.726768 484.691843 286.158021 491.502103 270.093938 
C 498.312362 254.029855 501.896788 236.781956 502.050815 219.334587 
L 369 218.16 
z
" style="fill: #f77189"/>
   </g>
   <g id="patch_3">
    <path d="M 502.050815 219.334587 
C 502.052527 219.140763 502.053814 218.946935 502.054678 218.753105 
C 502.055542 218.559275 502.055983 218.365444 502.055999 218.171612 
L 369 218.16 
z
" style="fill: #bb9832"/>
   </g>
   <g id="patch_4">
    <path d="M 502.055999 218.171612 
C 502.056 218.169674 502.056 218.167736 502.056 218.165797 
C 502.056 218.163859 502.056 218.161921 502.056 218.159982 
L 369 218.16 
z
" style="fill: #50b131"/>
   </g>
   <g id="text_1">
    <text style="fill: #262626; font: 10px 'Arial', 'Liberation Sans', 'DejaVu Sans', 'Bitstream Vera Sans', sans-serif; text-anchor: end" x="222.639826" y="220.099908" transform="rotate(-0 222.639826 220.099908)">newsapi</text>
   </g>
   <g id="text_2">
    <text style="fill: #262626; font: 10px 'Arial', 'Liberation Sans', 'DejaVu Sans', 'Bitstream Vera Sans', sans-serif; text-anchor: middle" x="289.167178" y="220.393558" transform="rotate(-0 289.167178 220.393558)">99.9%</text>
   </g>
   <g id="text_3">
    <text style="fill: #262626; font: 10px 'Arial', 'Liberation Sans', 'DejaVu Sans', 'Bitstream Vera Sans', sans-serif; text-anchor: start" x="515.360146" y="221.398353" transform="rotate(-0 515.360146 221.398353)">chicago_pd</text>
   </g>
   <g id="text_4">
    <text style="fill: #262626; font: 10px 'Arial', 'Liberation Sans', 'DejaVu Sans', 'Bitstream Vera Sans', sans-serif; text-anchor: middle" x="448.832807" y="221.101801" transform="rotate(-0 448.832807 221.101801)">0.1%</text>
   </g>
   <g id="text_5">
    <text style="fill: #262626; font: 10px 'Arial', 'Liberation Sans', 'DejaVu Sans', 'Bitstream Vera Sans', sans-serif; text-anchor: start" x="515.3616" y="220.752314" transform="rotate(-0 515.3616 220.752314)">chicago_police</text>
   </g>
   <g id="text_6">
    <text style="fill: #262626; font: 10px 'Arial', 'Liberation Sans', 'DejaVu Sans', 'Bitstream Vera Sans', sans-serif; text-anchor: middle" x="448.8336" y="220.749416" transform="rotate(-0 448.8336 220.749416)">0.0%</text>
   </g>
   <g id="text_7">
    <text style="fill: #262626; font: 12px 'Arial', 'Liberation Sans', 'DejaVu Sans', 'Bitstream Vera Sans', sans-serif; text-anchor: middle" x="369" y="45.84" transform="rotate(-0 369 45.84)">Incidents by Source</text>
   </g>
  </g>
 </g>
</svg>
