<?xml version="1.0" encoding="utf-8" standalone="no"?>
<!DOCTYPE svg PUBLIC "-//W3C//DTD SVG 1.1//EN"
  "http://www.w3.org/Graphics/SVG/1.1/DTD/svg11.dtd">
<svg xmlns:xlink="http://www.w3.org/1999/xlink" width="720pt" height="432pt" viewBox="0 0 720 432" xmlns="http://www.w3.org/2000/svg" version="1.1">
 <metadata>
  <rdf:RDF xmlns:dc="http://purl.org/dc/elements/1.1/" xmlns:cc="http://creativecommons.org/ns#" xmlns:rdf="http://www.w3.org/1999/02/22-rdf-syntax-ns#">
   <cc:Work>
    <dc:type rdf:resource="http://purl.org/dc/dcmitype/StillImage"/>
    <dc:date>2026-06-18T20:17:38.813425</dc:date>
    <dc:format>image/svg+xml</dc:format>
    <dc:creator>
     <cc:Agent>
      <dc:title>Matplotlib v3.7.5, https://matplotlib.org/</dc:title>
     </cc:Agent>
    </dc:creator>
   </cc:Work>
  </rdf:RDF>
 </metadata>
 <defs>
  <style type="text/css">*{stroke-linejoin: round; stroke-linecap: butt}</style>
 </defs>
 <g id="figure_1">
  <g id="patch_1">
   <path d="M 0 432 
L 720 432 
L 720 0 
L 0 0 
z
" style="fill: #ffffff"/>
  </g>
  <g id="axes_1">
   <g id="matplotlib.axis_1"/>
   <g id="matplotlib.axis_2"/>
   <g id="patch_2">
    <path d="M 502.056 218.16 
C 502.056 200.703042 498.620468 183.415523 491.945669 167.285041 
C 485.270871 151.154559 475.486377 136.494242 463.151156 124.141603 
C 450.815934 111.788963 436.169439 101.983793 420.048391 95.28624 
C 403.927343 88.588687 386.644689 85.128765 369.187748 85.104132 
C 351.730808 85.0795 334.438458 88.490634 318.298574 95.142666 
C 302.158689 101.794697 287.484581 111.558495 275.114548 123.876274 
C 262.744515 136.194053 252.918688 150.826698 246.198394 166.938279 
C 239.4781 183.04986 235.993795 200.327615 235.94453 217.784503 
C 235.895265 235.241392 239.281996 252.538538 245.911246 268.687793 
C 252.540497 284.837047 262.283578 299.524918 274.583891 311.91232 
C 286.884203 324.299721 301.502969 334.146186 317.605051 340.889207 
C 333.707133 347.632229 350.979954 351.14091 368.436756 351.214808 
C 385.893558 351.288705 403.195465 347.926385 419.354058 341.319928 
C 435.512651 334.713472 450.214255 324.991125 462.619001 312.708304 
C 475.023746 300.425484 484.890829 285.820626 491.656564 269.728075 
C 498.4223 253.635523 501.955351 236.36767 502.053881 218.91099 
L 369 218.16 
z
" style="fill: #f77189"/>
   </g>
   <g id="patch_3">
    <path d="M 502.053881 218.91099 
C 502.05458 218.787064 502.055106 218.663137 502.05546 218.53921 
C 502.055813 218.415282 502.055993 218.291354 502.056 218.167426 
L 369 218.16 
z
" style="fill: #bb9832"/>
   </g>
   <g id="patch_4">
    <path d="M 502.056 218.167426 
C 502.056 218.166187 502.056 218.164948 502.056 218.163708 
C 502.056 218.162469 502.056 218.16123 502.056 218.159991 
L 369 218.16 
z
" style="fill: #50b131"/>
   </g>
   <g id="text_1">
    <text style="fill: #262626; font: 10px 'Arial', 'Liberation Sans', 'DejaVu Sans', 'Bitstream Vera Sans', sans-serif; text-anchor: end" x="222.638983" y="220.332891" transform="rotate(-0 222.638983 220.332891)">newsapi</text>
   </g>
   <g id="text_2">
    <text style="fill: #262626; font: 10px 'Arial', 'Liberation Sans', 'DejaVu Sans', 'Bitstream Vera Sans', sans-serif; text-anchor: middle" x="289.166718" y="220.52064" transform="rotate(-0 289.166718 220.52064)">99.9%</text>
   </g>
   <g id="text_3">
    <text style="fill: #262626; font: 10px 'Arial', 'Liberation Sans', 'DejaVu Sans', 'Bitstream Vera Sans', sans-serif; text-anchor: start" x="515.361006" y="221.163068" transform="rotate(-0 515.361006 221.163068)">chicago_pd</text>
   </g>
   <g id="text_4">
    <text style="fill: #262626; font: 10px 'Arial', 'Liberation Sans', 'DejaVu Sans', 'Bitstream Vera Sans', sans-serif; text-anchor: middle" x="448.833276" y="220.973463" transform="rotate(-0 448.833276 220.973463)">0.1%</text>
   </g>
   <g id="text_5">
    <text style="fill: #262626; font: 10px 'Arial', 'Liberation Sans', 'DejaVu Sans', 'Bitstream Vera Sans', sans-serif; text-anchor: start" x="515.3616" y="220.750017" transform="rotate(-0 515.3616 220.750017)">chicago_police</text>
   </g>
   <g id="text_6">
    <text style="fill: #262626; font: 10px 'Arial', 'Liberation Sans', 'DejaVu Sans', 'Bitstream Vera Sans', sans-serif; text-anchor: middle" x="448.8336" y="220.748163" transform="rotate(-0 448.8336 220.748163)">0.0%</text>
   </g>
   <g id="text_7">
    <text style="fill: #262626; font: 12px 'Arial', 'Liberation Sans', 'DejaVu Sans', 'Bitstream Vera Sans', sans-serif; text-anchor: middle" x="369" y="45.84" transform="rotate(-0 369 45.84)">Incidents by Source</text>
   </g>
  </g>
 </g>
</svg>
