<?xml version="1.0" encoding="utf-8" standalone="no"?>
<!DOCTYPE svg PUBLIC "-//W3C//DTD SVG 1.1//EN"
  "http://www.w3.org/Graphics/SVG/1.1/DTD/svg11.dtd">
<svg xmlns:xlink="http://www.w3.org/1999/xlink" width="720pt" height="432pt" viewBox="0 0 720 432" xmlns="http://www.w3.org/2000/svg" version="1.1">
 <metadata>
  <rdf:RDF xmlns:dc="http://purl.org/dc/elements/1.1/" xmlns:cc="http://creativecommons.org/ns#" xmlns:rdf="http://www.w3.org/1999/02/22-rdf-syntax-ns#">
   <cc:Work>
    <dc:type rdf:resource="http://purl.org/dc/dcmitype/StillImage"/>
    <dc:date>2026-06-05T15:15:15.445690</dc:date>
    <dc:format>image/svg+xml</dc:format>
    <dc:creator>
     <cc:Agent>
      <dc:title>Matplotlib v3.7.5, https://matplotlib.org/</dc:title>
     </cc:Agent>
    </dc:creator>
   </cc:Work>
  </rdf:RDF>
 </metadata>
 <defs>
  <style type="text/css">*{stroke-linejoin: round; stroke-linecap: butt}</style>
 </defs>
 <g id="figure_1">
  <g id="patch_1">
   <path d="M 0 432 
L 720 432 
L 720 0 
L 0 0 
z
" style="fill: #ffffff"/>
  </g>
  <g id="axes_1">
   <g id="matplotlib.axis_1"/>
   <g id="matplotlib.axis_2"/>
   <g id="patch_2">
    <path d="M 502.056 218.16 
C 502.056 200.703491 498.620645 183.416409 491.94618 167.286275 
C 485.271715 151.156142 475.4877 136.496063 463.153044 124.143494 
C 450.818388 111.790924 436.172523 101.985644 420.052092 95.287778 
C 403.931662 88.589912 386.649583 85.129473 369.193093 85.10414 
C 351.736602 85.078807 334.444553 88.489071 318.30475 95.14012 
C 302.164947 101.79117 287.490685 111.553901 275.120229 123.870617 
C 262.749772 136.187334 252.923248 150.818954 246.201995 166.929647 
C 239.480741 183.040341 235.995227 200.31738 235.94456 217.773815 
C 235.893894 235.23025 239.27906 252.527231 245.90668 268.676668 
C 252.534301 284.826106 262.275726 299.514521 274.574477 311.902838 
C 286.873228 324.291156 301.490572 334.138903 317.591495 340.88353 
C 333.692418 347.628156 350.96438 351.13874 368.420723 351.214739 
C 385.877067 351.290738 403.178941 347.930678 419.33798 341.326501 
C 435.497019 334.722323 450.199555 325.002225 462.605708 312.721465 
C 475.01186 300.440704 484.880811 285.837667 491.648796 269.746549 
C 498.416781 253.655431 501.952426 236.388582 502.053758 218.932367 
L 369 218.16 
z
" style="fill: #f77189"/>
   </g>
   <g id="patch_3">
    <path d="M 502.053758 218.932367 
C 502.054498 218.804919 502.055055 218.67747 502.055428 218.550021 
C 502.055802 218.422572 502.055992 218.295122 502.056 218.167672 
L 369 218.16 
z
" style="fill: #bb9832"/>
   </g>
   <g id="patch_4">
    <path d="M 502.056 218.167672 
C 502.056 218.166397 502.056 218.165123 502.056 218.163848 
C 502.056 218.162574 502.056 218.161299 502.056 218.160025 
L 369 218.16 
z
" style="fill: #50b131"/>
   </g>
   <g id="text_1">
    <text style="fill: #262626; font: 10px 'Arial', 'Liberation Sans', 'DejaVu Sans', 'Bitstream Vera Sans', sans-serif; text-anchor: end" x="222.639016" y="220.321134" transform="rotate(-0 222.639016 220.321134)">newsapi</text>
   </g>
   <g id="text_2">
    <text style="fill: #262626; font: 10px 'Arial', 'Liberation Sans', 'DejaVu Sans', 'Bitstream Vera Sans', sans-serif; text-anchor: middle" x="289.166736" y="220.514226" transform="rotate(-0 289.166736 220.514226)">99.9%</text>
   </g>
   <g id="text_3">
    <text style="fill: #262626; font: 10px 'Arial', 'Liberation Sans', 'DejaVu Sans', 'Bitstream Vera Sans', sans-serif; text-anchor: start" x="515.360971" y="221.174961" transform="rotate(-0 515.360971 221.174961)">chicago_pd</text>
   </g>
   <g id="text_4">
    <text style="fill: #262626; font: 10px 'Arial', 'Liberation Sans', 'DejaVu Sans', 'Bitstream Vera Sans', sans-serif; text-anchor: middle" x="448.833257" y="220.97995" transform="rotate(-0 448.833257 220.97995)">0.1%</text>
   </g>
   <g id="text_5">
    <text style="fill: #262626; font: 10px 'Arial', 'Liberation Sans', 'DejaVu Sans', 'Bitstream Vera Sans', sans-serif; text-anchor: start" x="515.3616" y="220.750171" transform="rotate(-0 515.3616 220.750171)">chicago_police</text>
   </g>
   <g id="text_6">
    <text style="fill: #262626; font: 10px 'Arial', 'Liberation Sans', 'DejaVu Sans', 'Bitstream Vera Sans', sans-serif; text-anchor: middle" x="448.8336" y="220.748246" transform="rotate(-0 448.8336 220.748246)">0.0%</text>
   </g>
   <g id="text_7">
    <text style="fill: #262626; font: 12px 'Arial', 'Liberation Sans', 'DejaVu Sans', 'Bitstream Vera Sans', sans-serif; text-anchor: middle" x="369" y="45.84" transform="rotate(-0 369 45.84)">Incidents by Source</text>
   </g>
  </g>
 </g>
</svg>
