<?xml version="1.0" encoding="utf-8" standalone="no"?>
<!DOCTYPE svg PUBLIC "-//W3C//DTD SVG 1.1//EN"
  "http://www.w3.org/Graphics/SVG/1.1/DTD/svg11.dtd">
<svg xmlns:xlink="http://www.w3.org/1999/xlink" width="720pt" height="432pt" viewBox="0 0 720 432" xmlns="http://www.w3.org/2000/svg" version="1.1">
 <metadata>
  <rdf:RDF xmlns:dc="http://purl.org/dc/elements/1.1/" xmlns:cc="http://creativecommons.org/ns#" xmlns:rdf="http://www.w3.org/1999/02/22-rdf-syntax-ns#">
   <cc:Work>
    <dc:type rdf:resource="http://purl.org/dc/dcmitype/StillImage"/>
    <dc:date>2025-12-21T01:17:55.137695</dc:date>
    <dc:format>image/svg+xml</dc:format>
    <dc:creator>
     <cc:Agent>
      <dc:title>Matplotlib v3.7.5, https://matplotlib.org/</dc:title>
     </cc:Agent>
    </dc:creator>
   </cc:Work>
  </rdf:RDF>
 </metadata>
 <defs>
  <style type="text/css">*{stroke-linejoin: round; stroke-linecap: butt}</style>
 </defs>
 <g id="figure_1">
  <g id="patch_1">
   <path d="M 0 432 
L 720 432 
L 720 0 
L 0 0 
z
" style="fill: #ffffff"/>
  </g>
  <g id="axes_1">
   <g id="matplotlib.axis_1"/>
   <g id="matplotlib.axis_2"/>
   <g id="patch_2">
    <path d="M 502.056 218.16 
C 502.056 200.710014 498.623212 183.429265 491.95359 167.304187 
C 485.283969 151.179109 475.506881 136.522476 463.180433 124.170931 
C 450.853985 111.819385 436.217268 102.012507 420.105789 95.310102 
C 403.99431 88.607696 386.720578 85.139768 369.270629 85.104275 
C 351.820679 85.068783 334.532983 88.466415 318.394373 95.103226 
C 302.255763 101.740036 287.579274 111.487293 275.202683 123.788593 
C 262.826092 136.089894 252.989464 150.706633 246.254302 166.804447 
C 239.519141 182.90226 236.016085 200.168902 235.945101 217.618744 
C 235.874116 235.068585 239.23658 252.363155 245.840551 268.515231 
C 252.444523 284.667307 262.161908 299.363591 274.43801 311.765177 
C 286.714111 324.166762 301.310814 334.0331 317.394895 340.800989 
C 333.478976 347.568879 350.738457 351.107047 368.188118 351.213523 
C 385.637779 351.319999 402.939153 347.992719 419.104627 341.421614 
C 435.270102 334.850508 449.98612 325.163035 462.412649 312.912183 
C 474.839178 300.661331 484.735184 286.084726 491.535774 270.014444 
C 498.336364 253.944161 501.909629 236.691912 502.051596 219.242504 
L 369 218.16 
z
" style="fill: #f77189"/>
   </g>
   <g id="patch_3">
    <path d="M 502.051596 219.242504 
C 502.05305 219.063874 502.054143 218.885241 502.054877 218.706607 
C 502.055611 218.527972 502.055985 218.349337 502.056 218.170701 
L 369 218.16 
z
" style="fill: #bb9832"/>
   </g>
   <g id="patch_4">
    <path d="M 502.056 218.170701 
C 502.056 218.168915 502.056 218.167128 502.056 218.165342 
C 502.056 218.163556 502.056 218.161769 502.056 218.159983 
L 369 218.16 
z
" style="fill: #50b131"/>
   </g>
   <g id="text_1">
    <text style="fill: #262626; font: 10px 'Arial', 'Liberation Sans', 'DejaVu Sans', 'Bitstream Vera Sans', sans-serif; text-anchor: end" x="222.639611" y="220.150555" transform="rotate(-0 222.639611 220.150555)">newsapi</text>
   </g>
   <g id="text_2">
    <text style="fill: #262626; font: 10px 'Arial', 'Liberation Sans', 'DejaVu Sans', 'Bitstream Vera Sans', sans-serif; text-anchor: middle" x="289.167061" y="220.421184" transform="rotate(-0 289.167061 220.421184)">99.9%</text>
   </g>
   <g id="text_3">
    <text style="fill: #262626; font: 10px 'Arial', 'Liberation Sans', 'DejaVu Sans', 'Bitstream Vera Sans', sans-serif; text-anchor: start" x="515.360365" y="221.347205" transform="rotate(-0 515.360365 221.347205)">chicago_pd</text>
   </g>
   <g id="text_4">
    <text style="fill: #262626; font: 10px 'Arial', 'Liberation Sans', 'DejaVu Sans', 'Bitstream Vera Sans', sans-serif; text-anchor: middle" x="448.832926" y="221.073902" transform="rotate(-0 448.832926 221.073902)">0.1%</text>
   </g>
   <g id="text_5">
    <text style="fill: #262626; font: 10px 'Arial', 'Liberation Sans', 'DejaVu Sans', 'Bitstream Vera Sans', sans-serif; text-anchor: start" x="515.3616" y="220.751814" transform="rotate(-0 515.3616 220.751814)">chicago_police</text>
   </g>
   <g id="text_6">
    <text style="fill: #262626; font: 10px 'Arial', 'Liberation Sans', 'DejaVu Sans', 'Bitstream Vera Sans', sans-serif; text-anchor: middle" x="448.8336" y="220.749143" transform="rotate(-0 448.8336 220.749143)">0.0%</text>
   </g>
   <g id="text_7">
    <text style="fill: #262626; font: 12px 'Arial', 'Liberation Sans', 'DejaVu Sans', 'Bitstream Vera Sans', sans-serif; text-anchor: middle" x="369" y="45.84" transform="rotate(-0 369 45.84)">Incidents by Source</text>
   </g>
  </g>
 </g>
</svg>
