<?xml version="1.0" encoding="utf-8" standalone="no"?>
<!DOCTYPE svg PUBLIC "-//W3C//DTD SVG 1.1//EN"
  "http://www.w3.org/Graphics/SVG/1.1/DTD/svg11.dtd">
<svg xmlns:xlink="http://www.w3.org/1999/xlink" width="720pt" height="432pt" viewBox="0 0 720 432" xmlns="http://www.w3.org/2000/svg" version="1.1">
 <metadata>
  <rdf:RDF xmlns:dc="http://purl.org/dc/elements/1.1/" xmlns:cc="http://creativecommons.org/ns#" xmlns:rdf="http://www.w3.org/1999/02/22-rdf-syntax-ns#">
   <cc:Work>
    <dc:type rdf:resource="http://purl.org/dc/dcmitype/StillImage"/>
    <dc:date>2025-01-20T18:15:58.439373</dc:date>
    <dc:format>image/svg+xml</dc:format>
    <dc:creator>
     <cc:Agent>
      <dc:title>Matplotlib v3.7.5, https://matplotlib.org/</dc:title>
     </cc:Agent>
    </dc:creator>
   </cc:Work>
  </rdf:RDF>
 </metadata>
 <defs>
  <style type="text/css">*{stroke-linejoin: round; stroke-linecap: butt}</style>
 </defs>
 <g id="figure_1">
  <g id="patch_1">
   <path d="M 0 432 
L 720 432 
L 720 0 
L 0 0 
z
" style="fill: #ffffff"/>
  </g>
  <g id="axes_1">
   <g id="matplotlib.axis_1"/>
   <g id="matplotlib.axis_2"/>
   <g id="patch_2">
    <path d="M 502.056 218.16 
C 502.056 200.866403 498.684467 183.737525 492.130478 167.733971 
C 485.57649 151.730417 475.9649 137.15705 463.834733 124.831159 
C 451.704567 112.505269 437.286903 102.66166 421.390296 95.852371 
C 405.49369 89.043083 388.420968 85.397831 371.129586 85.121043 
C 353.838204 84.844256 336.657558 87.941207 320.551156 94.238216 
C 304.444754 100.535224 289.719419 109.912335 277.200962 121.843669 
C 264.682504 133.775003 254.609399 148.033272 247.546554 163.818858 
C 240.48371 179.604445 236.565672 196.616637 236.012169 213.901374 
C 235.458665 231.186111 238.28024 248.414123 244.318656 264.619247 
C 250.357072 280.824371 259.4973 295.697902 271.226745 308.405719 
C 282.956191 321.113536 297.051412 331.413558 312.721934 338.728148 
C 328.392456 346.042739 345.33976 350.232558 362.613424 351.062636 
C 379.887089 351.892715 397.158054 349.347239 413.457748 343.568962 
C 429.757442 337.790685 444.775359 328.889682 457.66928 317.36513 
C 470.563201 305.840578 481.0875 291.912016 488.651964 276.360573 
C 496.216427 260.809129 500.676955 243.931055 501.783395 226.672889 
L 369 218.16 
z
" style="fill: #f77189"/>
   </g>
   <g id="patch_3">
    <path d="M 501.783395 226.672889 
C 501.873335 225.27001 501.941037 223.865794 501.986475 222.46077 
C 502.031913 221.055745 502.055082 219.650089 502.055973 218.24433 
L 369 218.16 
z
" style="fill: #bb9832"/>
   </g>
   <g id="patch_4">
    <path d="M 502.055973 218.24433 
C 502.055982 218.230273 502.055989 218.216216 502.055993 218.202158 
C 502.055998 218.188101 502.056 218.174044 502.056 218.159986 
L 369 218.16 
z
" style="fill: #50b131"/>
   </g>
   <g id="text_1">
    <text style="fill: #262626; font: 10px 'Arial', 'Liberation Sans', 'DejaVu Sans', 'Bitstream Vera Sans', sans-serif; text-anchor: end" x="222.713386" y="216.061449" transform="rotate(-0 222.713386 216.061449)">newsapi</text>
   </g>
   <g id="text_2">
    <text style="fill: #262626; font: 10px 'Arial', 'Liberation Sans', 'DejaVu Sans', 'Bitstream Vera Sans', sans-serif; text-anchor: middle" x="289.207301" y="218.190762" transform="rotate(-0 289.207301 218.190762)">99.0%</text>
   </g>
   <g id="text_3">
    <text style="fill: #262626; font: 10px 'Arial', 'Liberation Sans', 'DejaVu Sans', 'Bitstream Vera Sans', sans-serif; text-anchor: start" x="515.285122" y="225.476784" transform="rotate(-0 515.285122 225.476784)">chicago_pd</text>
   </g>
   <g id="text_4">
    <text style="fill: #262626; font: 10px 'Arial', 'Liberation Sans', 'DejaVu Sans', 'Bitstream Vera Sans', sans-serif; text-anchor: middle" x="448.791885" y="223.326399" transform="rotate(-0 448.791885 223.326399)">1.0%</text>
   </g>
   <g id="text_5">
    <text style="fill: #262626; font: 10px 'Arial', 'Liberation Sans', 'DejaVu Sans', 'Bitstream Vera Sans', sans-serif; text-anchor: start" x="515.361593" y="220.792312" transform="rotate(-0 515.361593 220.792312)">chicago_police</text>
   </g>
   <g id="text_6">
    <text style="fill: #262626; font: 10px 'Arial', 'Liberation Sans', 'DejaVu Sans', 'Bitstream Vera Sans', sans-serif; text-anchor: middle" x="448.833596" y="220.771232" transform="rotate(-0 448.833596 220.771232)">0.0%</text>
   </g>
   <g id="text_7">
    <text style="fill: #262626; font: 12px 'Arial', 'Liberation Sans', 'DejaVu Sans', 'Bitstream Vera Sans', sans-serif; text-anchor: middle" x="369" y="45.84" transform="rotate(-0 369 45.84)">Incidents by Source</text>
   </g>
  </g>
 </g>
</svg>
