<?xml version="1.0" encoding="utf-8" standalone="no"?>
<!DOCTYPE svg PUBLIC "-//W3C//DTD SVG 1.1//EN"
  "http://www.w3.org/Graphics/SVG/1.1/DTD/svg11.dtd">
<svg xmlns:xlink="http://www.w3.org/1999/xlink" width="720pt" height="432pt" viewBox="0 0 720 432" xmlns="http://www.w3.org/2000/svg" version="1.1">
 <metadata>
  <rdf:RDF xmlns:dc="http://purl.org/dc/elements/1.1/" xmlns:cc="http://creativecommons.org/ns#" xmlns:rdf="http://www.w3.org/1999/02/22-rdf-syntax-ns#">
   <cc:Work>
    <dc:type rdf:resource="http://purl.org/dc/dcmitype/StillImage"/>
    <dc:date>2025-10-25T18:18:40.906523</dc:date>
    <dc:format>image/svg+xml</dc:format>
    <dc:creator>
     <cc:Agent>
      <dc:title>Matplotlib v3.7.5, https://matplotlib.org/</dc:title>
     </cc:Agent>
    </dc:creator>
   </cc:Work>
  </rdf:RDF>
 </metadata>
 <defs>
  <style type="text/css">*{stroke-linejoin: round; stroke-linecap: butt}</style>
 </defs>
 <g id="figure_1">
  <g id="patch_1">
   <path d="M 0 432 
L 720 432 
L 720 0 
L 0 0 
z
" style="fill: #ffffff"/>
  </g>
  <g id="axes_1">
   <g id="matplotlib.axis_1"/>
   <g id="matplotlib.axis_2"/>
   <g id="patch_2">
    <path d="M 502.056 218.16 
C 502.056 200.713814 498.624707 183.436753 491.957905 167.31462 
C 485.291103 151.192487 475.51805 136.537861 463.196381 124.186914 
C 450.874713 111.835967 436.243323 102.028161 420.137058 95.323115 
C 404.030793 88.618068 386.761925 85.145781 369.315787 85.104375 
C 351.86965 85.062969 334.584494 88.453248 318.446584 95.081768 
C 302.308674 101.710287 287.630895 111.448532 275.250739 123.740854 
C 262.870583 136.033175 253.02808 150.641245 246.284826 166.731552 
C 239.541573 182.821858 236.02831 200.082437 235.945499 217.528427 
C 235.862688 234.974417 239.211933 252.26757 245.802134 268.421167 
C 252.392334 284.574763 262.095716 299.275613 274.35862 311.684908 
C 286.621525 324.094203 301.206194 333.971349 317.280451 340.752771 
C 333.354708 347.534193 350.606901 351.088411 368.052645 351.212627 
C 385.498389 351.336844 402.799443 348.02865 418.968634 341.476806 
C 435.137826 334.924963 449.861664 325.256498 462.300028 313.02308 
C 474.738392 300.789662 484.650125 286.228475 491.469677 270.170358 
C 498.28923 254.112241 501.884383 236.868532 502.050004 219.423132 
L 369 218.16 
z
" style="fill: #f77189"/>
   </g>
   <g id="patch_3">
    <path d="M 502.050004 219.423132 
C 502.051983 219.214701 502.053472 219.006266 502.054471 218.797828 
C 502.05547 218.589391 502.05598 218.380951 502.055999 218.172511 
L 369 218.16 
z
" style="fill: #bb9832"/>
   </g>
   <g id="patch_4">
    <path d="M 502.055999 218.172511 
C 502.056 218.170426 502.056 218.168342 502.056 218.166258 
C 502.056 218.164173 502.056 218.162089 502.056 218.160004 
L 369 218.16 
z
" style="fill: #50b131"/>
   </g>
   <g id="text_1">
    <text style="fill: #262626; font: 10px 'Arial', 'Liberation Sans', 'DejaVu Sans', 'Bitstream Vera Sans', sans-serif; text-anchor: end" x="222.640049" y="220.051207" transform="rotate(-0 222.640049 220.051207)">newsapi</text>
   </g>
   <g id="text_2">
    <text style="fill: #262626; font: 10px 'Arial', 'Liberation Sans', 'DejaVu Sans', 'Bitstream Vera Sans', sans-serif; text-anchor: middle" x="289.167299" y="220.366994" transform="rotate(-0 289.167299 220.366994)">99.8%</text>
   </g>
   <g id="text_3">
    <text style="fill: #262626; font: 10px 'Arial', 'Liberation Sans', 'DejaVu Sans', 'Bitstream Vera Sans', sans-serif; text-anchor: start" x="515.359918" y="221.447549" transform="rotate(-0 515.359918 221.447549)">chicago_pd</text>
   </g>
   <g id="text_4">
    <text style="fill: #262626; font: 10px 'Arial', 'Liberation Sans', 'DejaVu Sans', 'Bitstream Vera Sans', sans-serif; text-anchor: middle" x="448.832683" y="221.128635" transform="rotate(-0 448.832683 221.128635)">0.1%</text>
   </g>
   <g id="text_5">
    <text style="fill: #262626; font: 10px 'Arial', 'Liberation Sans', 'DejaVu Sans', 'Bitstream Vera Sans', sans-serif; text-anchor: start" x="515.3616" y="220.752821" transform="rotate(-0 515.3616 220.752821)">chicago_police</text>
   </g>
   <g id="text_6">
    <text style="fill: #262626; font: 10px 'Arial', 'Liberation Sans', 'DejaVu Sans', 'Bitstream Vera Sans', sans-serif; text-anchor: middle" x="448.8336" y="220.749692" transform="rotate(-0 448.8336 220.749692)">0.0%</text>
   </g>
   <g id="text_7">
    <text style="fill: #262626; font: 12px 'Arial', 'Liberation Sans', 'DejaVu Sans', 'Bitstream Vera Sans', sans-serif; text-anchor: middle" x="369" y="45.84" transform="rotate(-0 369 45.84)">Incidents by Source</text>
   </g>
  </g>
 </g>
</svg>
