<?xml version="1.0" encoding="utf-8" standalone="no"?>
<!DOCTYPE svg PUBLIC "-//W3C//DTD SVG 1.1//EN"
  "http://www.w3.org/Graphics/SVG/1.1/DTD/svg11.dtd">
<svg xmlns:xlink="http://www.w3.org/1999/xlink" width="720pt" height="432pt" viewBox="0 0 720 432" xmlns="http://www.w3.org/2000/svg" version="1.1">
 <metadata>
  <rdf:RDF xmlns:dc="http://purl.org/dc/elements/1.1/" xmlns:cc="http://creativecommons.org/ns#" xmlns:rdf="http://www.w3.org/1999/02/22-rdf-syntax-ns#">
   <cc:Work>
    <dc:type rdf:resource="http://purl.org/dc/dcmitype/StillImage"/>
    <dc:date>2025-03-21T18:17:55.400011</dc:date>
    <dc:format>image/svg+xml</dc:format>
    <dc:creator>
     <cc:Agent>
      <dc:title>Matplotlib v3.7.5, https://matplotlib.org/</dc:title>
     </cc:Agent>
    </dc:creator>
   </cc:Work>
  </rdf:RDF>
 </metadata>
 <defs>
  <style type="text/css">*{stroke-linejoin: round; stroke-linecap: butt}</style>
 </defs>
 <g id="figure_1">
  <g id="patch_1">
   <path d="M 0 432 
L 720 432 
L 720 0 
L 0 0 
z
" style="fill: #ffffff"/>
  </g>
  <g id="axes_1">
   <g id="matplotlib.axis_1"/>
   <g id="matplotlib.axis_2"/>
   <g id="patch_2">
    <path d="M 502.056 218.16 
C 502.056 200.769445 498.646555 183.546399 492.020984 167.467431 
C 485.395414 151.388462 475.681356 136.763324 463.429609 124.421277 
C 451.177862 112.079231 436.624449 102.25804 420.594567 95.514577 
C 404.564685 88.771114 387.36714 85.235289 369.977053 85.107587 
C 352.586967 84.979886 335.33935 88.262767 319.212162 94.770088 
C 303.084974 101.27741 288.388898 110.883811 275.957218 123.044598 
C 263.525537 135.205385 253.597743 149.686286 246.736752 165.666217 
C 239.87576 181.646149 236.213746 198.817266 235.958349 216.205946 
C 235.702952 233.594626 238.859093 250.865885 245.247814 267.040422 
C 251.636535 283.214959 261.134762 297.981181 273.203933 310.501825 
C 285.273104 323.022469 299.680713 333.056332 315.609832 340.034481 
C 331.538952 347.012631 348.682715 350.800637 366.069051 351.183715 
C 383.455386 351.566793 400.749355 348.537563 416.97037 342.267787 
C 433.191385 335.99801 448.026956 326.608471 460.635888 314.631567 
C 473.244821 302.654662 483.38421 288.321122 490.479142 272.443674 
C 497.574074 256.566226 501.487867 239.450741 501.998606 222.067687 
L 369 218.16 
z
" style="fill: #f77189"/>
   </g>
   <g id="patch_3">
    <path d="M 501.998606 222.067687 
C 502.017546 221.423038 502.0318 220.778259 502.041365 220.133403 
C 502.05093 219.488547 502.055807 218.843629 502.055994 218.198702 
L 369 218.16 
z
" style="fill: #bb9832"/>
   </g>
   <g id="patch_4">
    <path d="M 502.055994 218.198702 
C 502.055996 218.192253 502.055998 218.185804 502.055999 218.179355 
C 502.056 218.172905 502.056 218.166456 502.056 218.160007 
L 369 218.16 
z
" style="fill: #50b131"/>
   </g>
   <g id="text_1">
    <text style="fill: #262626; font: 10px 'Arial', 'Liberation Sans', 'DejaVu Sans', 'Bitstream Vera Sans', sans-serif; text-anchor: end" x="222.654184" y="218.596478" transform="rotate(-0 222.654184 218.596478)">newsapi</text>
   </g>
   <g id="text_2">
    <text style="fill: #262626; font: 10px 'Arial', 'Liberation Sans', 'DejaVu Sans', 'Bitstream Vera Sans', sans-serif; text-anchor: middle" x="289.17501" y="219.573505" transform="rotate(-0 289.17501 219.573505)">99.5%</text>
   </g>
   <g id="text_3">
    <text style="fill: #262626; font: 10px 'Arial', 'Liberation Sans', 'DejaVu Sans', 'Bitstream Vera Sans', sans-serif; text-anchor: start" x="515.345502" y="222.916681" transform="rotate(-0 515.345502 222.916681)">chicago_pd</text>
   </g>
   <g id="text_4">
    <text style="fill: #262626; font: 10px 'Arial', 'Liberation Sans', 'DejaVu Sans', 'Bitstream Vera Sans', sans-serif; text-anchor: middle" x="448.824819" y="221.929979" transform="rotate(-0 448.824819 221.929979)">0.5%</text>
   </g>
   <g id="text_5">
    <text style="fill: #262626; font: 10px 'Arial', 'Liberation Sans', 'DejaVu Sans', 'Bitstream Vera Sans', sans-serif; text-anchor: start" x="515.361598" y="220.767227" transform="rotate(-0 515.361598 220.767227)">chicago_police</text>
   </g>
   <g id="text_6">
    <text style="fill: #262626; font: 10px 'Arial', 'Liberation Sans', 'DejaVu Sans', 'Bitstream Vera Sans', sans-serif; text-anchor: middle" x="448.833599" y="220.75755" transform="rotate(-0 448.833599 220.75755)">0.0%</text>
   </g>
   <g id="text_7">
    <text style="fill: #262626; font: 12px 'Arial', 'Liberation Sans', 'DejaVu Sans', 'Bitstream Vera Sans', sans-serif; text-anchor: middle" x="369" y="45.84" transform="rotate(-0 369 45.84)">Incidents by Source</text>
   </g>
  </g>
 </g>
</svg>
