<?xml version="1.0" encoding="utf-8" standalone="no"?>
<!DOCTYPE svg PUBLIC "-//W3C//DTD SVG 1.1//EN"
  "http://www.w3.org/Graphics/SVG/1.1/DTD/svg11.dtd">
<svg xmlns:xlink="http://www.w3.org/1999/xlink" width="720pt" height="432pt" viewBox="0 0 720 432" xmlns="http://www.w3.org/2000/svg" version="1.1">
 <metadata>
  <rdf:RDF xmlns:dc="http://purl.org/dc/elements/1.1/" xmlns:cc="http://creativecommons.org/ns#" xmlns:rdf="http://www.w3.org/1999/02/22-rdf-syntax-ns#">
   <cc:Work>
    <dc:type rdf:resource="http://purl.org/dc/dcmitype/StillImage"/>
    <dc:date>2025-06-07T06:18:57.489279</dc:date>
    <dc:format>image/svg+xml</dc:format>
    <dc:creator>
     <cc:Agent>
      <dc:title>Matplotlib v3.7.5, https://matplotlib.org/</dc:title>
     </cc:Agent>
    </dc:creator>
   </cc:Work>
  </rdf:RDF>
 </metadata>
 <defs>
  <style type="text/css">*{stroke-linejoin: round; stroke-linecap: butt}</style>
 </defs>
 <g id="figure_1">
  <g id="patch_1">
   <path d="M 0 432 
L 720 432 
L 720 0 
L 0 0 
z
" style="fill: #ffffff"/>
  </g>
  <g id="axes_1">
   <g id="matplotlib.axis_1"/>
   <g id="matplotlib.axis_2"/>
   <g id="patch_2">
    <path d="M 502.056 218.16 
C 502.056 200.735255 498.633136 183.479013 491.98224 167.373507 
C 485.331343 151.268002 475.581046 136.624723 463.286341 124.277174 
C 450.991637 111.929626 436.39031 102.116616 420.313477 95.396707 
C 404.236644 88.676797 386.99524 85.179956 369.570656 85.105224 
C 352.146072 85.030492 334.875307 88.379315 318.741426 94.961076 
C 302.607544 101.542837 287.922582 111.230242 275.522417 123.471877 
C 263.122252 135.713512 253.246709 150.272619 246.457911 166.320483 
C 239.669113 182.368347 236.098357 199.594595 235.948895 217.018698 
C 235.799432 234.442802 239.074153 251.72777 245.586658 267.889731 
C 252.099163 284.051693 261.723497 298.778068 273.911838 311.230621 
C 286.100178 323.683174 300.616795 333.621068 316.635396 340.478631 
C 332.653996 347.336193 349.864772 350.980796 367.288074 351.204987 
C 384.711376 351.429177 402.01023 348.228619 418.199974 341.78549 
C 434.389718 335.342361 449.157234 325.781274 461.661947 313.646453 
C 474.16666 301.511632 484.166721 287.03777 491.092922 271.048728 
C 498.019123 255.059686 501.737507 237.8647 502.036421 220.442519 
L 369 218.16 
z
" style="fill: #f77189"/>
   </g>
   <g id="patch_3">
    <path d="M 502.036421 220.442519 
C 502.042882 220.065899 502.047745 219.689253 502.051008 219.312591 
C 502.054271 218.93593 502.055934 218.559256 502.055998 218.18258 
L 369 218.16 
z
" style="fill: #bb9832"/>
   </g>
   <g id="patch_4">
    <path d="M 502.055998 218.18258 
C 502.055999 218.178813 502.055999 218.175047 502.056 218.17128 
C 502.056 218.167513 502.056 218.163746 502.056 218.15998 
L 369 218.16 
z
" style="fill: #50b131"/>
   </g>
   <g id="text_1">
    <text style="fill: #262626; font: 10px 'Arial', 'Liberation Sans', 'DejaVu Sans', 'Bitstream Vera Sans', sans-serif; text-anchor: end" x="222.643784" y="219.490506" transform="rotate(-0 222.643784 219.490506)">newsapi</text>
   </g>
   <g id="text_2">
    <text style="fill: #262626; font: 10px 'Arial', 'Liberation Sans', 'DejaVu Sans', 'Bitstream Vera Sans', sans-serif; text-anchor: middle" x="289.169337" y="220.061157" transform="rotate(-0 289.169337 220.061157)">99.7%</text>
   </g>
   <g id="text_3">
    <text style="fill: #262626; font: 10px 'Arial', 'Liberation Sans', 'DejaVu Sans', 'Bitstream Vera Sans', sans-serif; text-anchor: start" x="515.356109" y="222.013788" transform="rotate(-0 515.356109 222.013788)">chicago_pd</text>
   </g>
   <g id="text_4">
    <text style="fill: #262626; font: 10px 'Arial', 'Liberation Sans', 'DejaVu Sans', 'Bitstream Vera Sans', sans-serif; text-anchor: middle" x="448.830605" y="221.437492" transform="rotate(-0 448.830605 221.437492)">0.3%</text>
   </g>
   <g id="text_5">
    <text style="fill: #262626; font: 10px 'Arial', 'Liberation Sans', 'DejaVu Sans', 'Bitstream Vera Sans', sans-serif; text-anchor: start" x="515.361599" y="220.758345" transform="rotate(-0 515.361599 220.758345)">chicago_police</text>
   </g>
   <g id="text_6">
    <text style="fill: #262626; font: 10px 'Arial', 'Liberation Sans', 'DejaVu Sans', 'Bitstream Vera Sans', sans-serif; text-anchor: middle" x="448.8336" y="220.752705" transform="rotate(-0 448.8336 220.752705)">0.0%</text>
   </g>
   <g id="text_7">
    <text style="fill: #262626; font: 12px 'Arial', 'Liberation Sans', 'DejaVu Sans', 'Bitstream Vera Sans', sans-serif; text-anchor: middle" x="369" y="45.84" transform="rotate(-0 369 45.84)">Incidents by Source</text>
   </g>
  </g>
 </g>
</svg>
