<?xml version="1.0" encoding="utf-8" standalone="no"?>
<!DOCTYPE svg PUBLIC "-//W3C//DTD SVG 1.1//EN"
  "http://www.w3.org/Graphics/SVG/1.1/DTD/svg11.dtd">
<svg xmlns:xlink="http://www.w3.org/1999/xlink" width="720pt" height="432pt" viewBox="0 0 720 432" xmlns="http://www.w3.org/2000/svg" version="1.1">
 <metadata>
  <rdf:RDF xmlns:dc="http://purl.org/dc/elements/1.1/" xmlns:cc="http://creativecommons.org/ns#" xmlns:rdf="http://www.w3.org/1999/02/22-rdf-syntax-ns#">
   <cc:Work>
    <dc:type rdf:resource="http://purl.org/dc/dcmitype/StillImage"/>
    <dc:date>2026-07-11T18:54:20.497274</dc:date>
    <dc:format>image/svg+xml</dc:format>
    <dc:creator>
     <cc:Agent>
      <dc:title>Matplotlib v3.7.5, https://matplotlib.org/</dc:title>
     </cc:Agent>
    </dc:creator>
   </cc:Work>
  </rdf:RDF>
 </metadata>
 <defs>
  <style type="text/css">*{stroke-linejoin: round; stroke-linecap: butt}</style>
 </defs>
 <g id="figure_1">
  <g id="patch_1">
   <path d="M 0 432 
L 720 432 
L 720 0 
L 0 0 
z
" style="fill: #ffffff"/>
  </g>
  <g id="axes_1">
   <g id="matplotlib.axis_1"/>
   <g id="matplotlib.axis_2"/>
   <g id="patch_2">
    <path d="M 502.056 218.16 
C 502.056 200.702374 498.620206 183.414207 491.944911 167.283208 
C 485.269616 151.152208 475.484414 136.491539 463.148352 124.138795 
C 450.81229 111.786051 436.164858 101.981045 420.042895 95.283957 
C 403.920931 88.586868 386.637423 85.127714 369.179813 85.104122 
C 351.722203 85.080529 334.429409 88.492957 318.289403 95.146446 
C 302.149397 101.799935 287.475518 111.565316 275.106114 123.884673 
C 262.73671 136.20403 252.911918 150.838198 246.193049 166.951096 
C 239.474179 183.063995 235.991671 200.342812 235.944486 217.800374 
C 235.897301 235.257937 239.286356 252.555327 245.918028 268.704309 
C 252.549699 284.853292 262.295241 299.540355 274.59787 311.926396 
C 286.9005 324.312437 301.521377 334.156997 317.625181 340.897635 
C 333.728984 347.638273 351.00308 351.14413 368.460562 351.214906 
C 385.918045 351.285683 403.219999 347.920007 419.377929 341.310166 
C 435.535859 334.700325 450.236079 324.97464 462.638735 312.68876 
C 475.04139 300.402881 484.9057 285.795321 491.668095 269.700641 
C 498.43049 253.605961 501.959687 236.336619 502.054056 218.879249 
L 369 218.16 
z
" style="fill: #f77189"/>
   </g>
   <g id="patch_3">
    <path d="M 502.054056 218.879249 
C 502.054698 218.760558 502.05518 218.641868 502.055504 218.523176 
C 502.055828 218.404485 502.055993 218.285793 502.056 218.167101 
L 369 218.16 
z
" style="fill: #bb9832"/>
   </g>
   <g id="patch_4">
    <path d="M 502.056 218.167101 
C 502.056 218.165914 502.056 218.164727 502.056 218.16354 
C 502.056 218.162353 502.056 218.161166 502.056 218.15998 
L 369 218.16 
z
" style="fill: #50b131"/>
   </g>
   <g id="text_1">
    <text style="fill: #262626; font: 10px 'Arial', 'Liberation Sans', 'DejaVu Sans', 'Bitstream Vera Sans', sans-serif; text-anchor: end" x="222.638935" y="220.350349" transform="rotate(-0 222.638935 220.350349)">newsapi</text>
   </g>
   <g id="text_2">
    <text style="fill: #262626; font: 10px 'Arial', 'Liberation Sans', 'DejaVu Sans', 'Bitstream Vera Sans', sans-serif; text-anchor: middle" x="289.166692" y="220.530162" transform="rotate(-0 289.166692 220.530162)">99.9%</text>
   </g>
   <g id="text_3">
    <text style="fill: #262626; font: 10px 'Arial', 'Liberation Sans', 'DejaVu Sans', 'Bitstream Vera Sans', sans-serif; text-anchor: start" x="515.361055" y="221.145431" transform="rotate(-0 515.361055 221.145431)">chicago_pd</text>
   </g>
   <g id="text_4">
    <text style="fill: #262626; font: 10px 'Arial', 'Liberation Sans', 'DejaVu Sans', 'Bitstream Vera Sans', sans-serif; text-anchor: middle" x="448.833303" y="220.963843" transform="rotate(-0 448.833303 220.963843)">0.1%</text>
   </g>
   <g id="text_5">
    <text style="fill: #262626; font: 10px 'Arial', 'Liberation Sans', 'DejaVu Sans', 'Bitstream Vera Sans', sans-serif; text-anchor: start" x="515.3616" y="220.749832" transform="rotate(-0 515.3616 220.749832)">chicago_police</text>
   </g>
   <g id="text_6">
    <text style="fill: #262626; font: 10px 'Arial', 'Liberation Sans', 'DejaVu Sans', 'Bitstream Vera Sans', sans-serif; text-anchor: middle" x="448.8336" y="220.748062" transform="rotate(-0 448.8336 220.748062)">0.0%</text>
   </g>
   <g id="text_7">
    <text style="fill: #262626; font: 12px 'Arial', 'Liberation Sans', 'DejaVu Sans', 'Bitstream Vera Sans', sans-serif; text-anchor: middle" x="369" y="45.84" transform="rotate(-0 369 45.84)">Incidents by Source</text>
   </g>
  </g>
 </g>
</svg>
