<?xml version="1.0" encoding="utf-8" standalone="no"?>
<!DOCTYPE svg PUBLIC "-//W3C//DTD SVG 1.1//EN"
  "http://www.w3.org/Graphics/SVG/1.1/DTD/svg11.dtd">
<svg xmlns:xlink="http://www.w3.org/1999/xlink" width="720pt" height="432pt" viewBox="0 0 720 432" xmlns="http://www.w3.org/2000/svg" version="1.1">
 <metadata>
  <rdf:RDF xmlns:dc="http://purl.org/dc/elements/1.1/" xmlns:cc="http://creativecommons.org/ns#" xmlns:rdf="http://www.w3.org/1999/02/22-rdf-syntax-ns#">
   <cc:Work>
    <dc:type rdf:resource="http://purl.org/dc/dcmitype/StillImage"/>
    <dc:date>2025-07-07T12:50:20.446182</dc:date>
    <dc:format>image/svg+xml</dc:format>
    <dc:creator>
     <cc:Agent>
      <dc:title>Matplotlib v3.7.5, https://matplotlib.org/</dc:title>
     </cc:Agent>
    </dc:creator>
   </cc:Work>
  </rdf:RDF>
 </metadata>
 <defs>
  <style type="text/css">*{stroke-linejoin: round; stroke-linecap: butt}</style>
 </defs>
 <g id="figure_1">
  <g id="patch_1">
   <path d="M 0 432 
L 720 432 
L 720 0 
L 0 0 
z
" style="fill: #ffffff"/>
  </g>
  <g id="axes_1">
   <g id="matplotlib.axis_1"/>
   <g id="matplotlib.axis_2"/>
   <g id="patch_2">
    <path d="M 502.056 218.16 
C 502.056 200.728369 498.63043 183.465439 491.974427 167.354593 
C 485.318424 151.243746 475.560821 136.59682 463.257458 124.248175 
C 450.954094 111.899531 436.343113 102.088186 420.256827 95.373043 
C 404.17054 88.6579 386.920311 85.168935 369.488798 85.104898 
C 352.057284 85.040861 334.781887 88.40299 318.646697 94.999763 
C 302.511507 101.596536 287.828835 111.300266 275.435075 123.558182 
C 263.041316 135.816098 253.176363 150.390937 246.40217 166.452446 
C 239.627977 182.513955 236.075665 199.75125 235.947591 217.182411 
C 235.819518 234.613572 239.118161 251.901203 245.655615 268.060518 
C 252.193068 284.219834 261.842794 298.938055 274.055098 311.376762 
C 286.267401 323.815468 300.805902 333.733898 316.842417 340.567049 
C 332.878931 347.4002 350.10306 351.015811 367.533633 351.20792 
C 384.964205 351.400028 402.263839 348.164915 418.447061 341.686869 
C 434.630283 335.208823 449.383855 325.613231 461.867341 313.446705 
C 474.350827 301.28018 484.322598 286.778213 491.214616 270.766909 
C 498.106633 254.755605 501.785494 237.544875 502.041635 220.115125 
L 369 218.16 
z
" style="fill: #f77189"/>
   </g>
   <g id="patch_3">
    <path d="M 502.041635 220.115125 
C 502.046376 219.792518 502.049943 219.469895 502.052337 219.147262 
C 502.054731 218.82463 502.055952 218.501989 502.055999 218.179347 
L 369 218.16 
z
" style="fill: #bb9832"/>
   </g>
   <g id="patch_4">
    <path d="M 502.055999 218.179347 
C 502.055999 218.176121 502.055999 218.172894 502.056 218.169668 
C 502.056 218.166442 502.056 218.163215 502.056 218.159989 
L 369 218.16 
z
" style="fill: #50b131"/>
   </g>
   <g id="text_1">
    <text style="fill: #262626; font: 10px 'Arial', 'Liberation Sans', 'DejaVu Sans', 'Bitstream Vera Sans', sans-serif; text-anchor: end" x="222.64235" y="219.67059" transform="rotate(-0 222.64235 219.67059)">newsapi</text>
   </g>
   <g id="text_2">
    <text style="fill: #262626; font: 10px 'Arial', 'Liberation Sans', 'DejaVu Sans', 'Bitstream Vera Sans', sans-serif; text-anchor: middle" x="289.168555" y="220.159384" transform="rotate(-0 289.168555 220.159384)">99.8%</text>
   </g>
   <g id="text_3">
    <text style="fill: #262626; font: 10px 'Arial', 'Liberation Sans', 'DejaVu Sans', 'Bitstream Vera Sans', sans-serif; text-anchor: start" x="515.357571" y="221.831926" transform="rotate(-0 515.357571 221.831926)">chicago_pd</text>
   </g>
   <g id="text_4">
    <text style="fill: #262626; font: 10px 'Arial', 'Liberation Sans', 'DejaVu Sans', 'Bitstream Vera Sans', sans-serif; text-anchor: middle" x="448.831402" y="221.338295" transform="rotate(-0 448.831402 221.338295)">0.2%</text>
   </g>
   <g id="text_5">
    <text style="fill: #262626; font: 10px 'Arial', 'Liberation Sans', 'DejaVu Sans', 'Bitstream Vera Sans', sans-serif; text-anchor: start" x="515.3616" y="220.756572" transform="rotate(-0 515.3616 220.756572)">chicago_police</text>
   </g>
   <g id="text_6">
    <text style="fill: #262626; font: 10px 'Arial', 'Liberation Sans', 'DejaVu Sans', 'Bitstream Vera Sans', sans-serif; text-anchor: middle" x="448.8336" y="220.751738" transform="rotate(-0 448.8336 220.751738)">0.0%</text>
   </g>
   <g id="text_7">
    <text style="fill: #262626; font: 12px 'Arial', 'Liberation Sans', 'DejaVu Sans', 'Bitstream Vera Sans', sans-serif; text-anchor: middle" x="369" y="45.84" transform="rotate(-0 369 45.84)">Incidents by Source</text>
   </g>
  </g>
 </g>
</svg>
