<?xml version="1.0" encoding="utf-8" standalone="no"?>
<!DOCTYPE svg PUBLIC "-//W3C//DTD SVG 1.1//EN"
  "http://www.w3.org/Graphics/SVG/1.1/DTD/svg11.dtd">
<svg xmlns:xlink="http://www.w3.org/1999/xlink" width="720pt" height="432pt" viewBox="0 0 720 432" xmlns="http://www.w3.org/2000/svg" version="1.1">
 <metadata>
  <rdf:RDF xmlns:dc="http://purl.org/dc/elements/1.1/" xmlns:cc="http://creativecommons.org/ns#" xmlns:rdf="http://www.w3.org/1999/02/22-rdf-syntax-ns#">
   <cc:Work>
    <dc:type rdf:resource="http://purl.org/dc/dcmitype/StillImage"/>
    <dc:date>2024-12-22T01:44:20.419686</dc:date>
    <dc:format>image/svg+xml</dc:format>
    <dc:creator>
     <cc:Agent>
      <dc:title>Matplotlib v3.7.5, https://matplotlib.org/</dc:title>
     </cc:Agent>
    </dc:creator>
   </cc:Work>
  </rdf:RDF>
 </metadata>
 <defs>
  <style type="text/css">*{stroke-linejoin: round; stroke-linecap: butt}</style>
 </defs>
 <g id="figure_1">
  <g id="patch_1">
   <path d="M 0 432 
L 720 432 
L 720 0 
L 0 0 
z
" style="fill: #ffffff"/>
  </g>
  <g id="axes_1">
   <g id="matplotlib.axis_1"/>
   <g id="matplotlib.axis_2"/>
   <g id="patch_2">
    <path d="M 502.056 218.16 
C 502.056 201.142047 498.791089 184.281051 492.438666 168.493162 
C 486.086244 152.705273 476.763487 138.281714 464.976954 126.006196 
C 453.19042 113.730679 439.157522 103.829637 423.640746 96.841048 
C 408.12397 89.85246 391.409537 85.905236 374.405634 85.213852 
C 357.401732 84.522468 340.422013 87.099676 324.38908 92.805443 
C 308.356148 98.51121 293.565743 107.240287 280.821512 118.518375 
C 268.077281 129.796464 257.614302 143.415528 250.001087 158.63557 
C 242.387872 173.855612 237.764854 190.395882 236.383227 207.357657 
C 235.0016 224.319432 236.886849 241.389836 241.936539 257.641339 
C 246.986229 273.892842 255.107214 289.025669 265.858234 302.217571 
C 276.609254 315.409473 289.791998 326.417112 304.690173 334.642382 
C 319.588349 342.867652 335.927146 348.158831 352.818786 350.22842 
C 369.710426 352.298008 386.843328 351.10783 403.286566 346.722555 
C 419.729804 342.33728 435.180067 334.837798 448.797856 324.631598 
C 462.415646 314.425398 473.949769 301.700743 482.773513 287.149034 
C 491.597258 272.597324 497.54786 256.486981 500.301993 239.693367 
L 369 218.16 
z
" style="fill: #f77189"/>
   </g>
   <g id="patch_3">
    <path d="M 500.301993 239.693367 
C 500.879675 236.170886 501.315376 232.626584 501.608037 229.069065 
C 501.900698 225.511546 502.050082 221.943691 502.055828 218.374159 
L 369 218.16 
z
" style="fill: #bb9832"/>
   </g>
   <g id="patch_4">
    <path d="M 502.055828 218.374159 
C 502.055885 218.338468 502.055928 218.302778 502.055957 218.267087 
C 502.055986 218.231396 502.056 218.195706 502.056 218.160015 
L 369 218.16 
z
" style="fill: #50b131"/>
   </g>
   <g id="text_1">
    <text style="fill: #262626; font: 10px 'Arial', 'Liberation Sans', 'DejaVu Sans', 'Bitstream Vera Sans', sans-serif; text-anchor: end" x="223.121549" y="208.863361" transform="rotate(-0 223.121549 208.863361)">newsapi</text>
   </g>
   <g id="text_2">
    <text style="fill: #262626; font: 10px 'Arial', 'Liberation Sans', 'DejaVu Sans', 'Bitstream Vera Sans', sans-serif; text-anchor: middle" x="289.429936" y="214.264532" transform="rotate(-0 289.429936 214.264532)">97.4%</text>
   </g>
   <g id="text_3">
    <text style="fill: #262626; font: 10px 'Arial', 'Liberation Sans', 'DejaVu Sans', 'Bitstream Vera Sans', sans-serif; text-anchor: start" x="514.868841" y="232.745909" transform="rotate(-0 514.868841 232.745909)">chicago_pd</text>
   </g>
   <g id="text_4">
    <text style="fill: #262626; font: 10px 'Arial', 'Liberation Sans', 'DejaVu Sans', 'Bitstream Vera Sans', sans-serif; text-anchor: middle" x="448.564822" y="227.291376" transform="rotate(-0 448.564822 227.291376)">2.6%</text>
   </g>
   <g id="text_5">
    <text style="fill: #262626; font: 10px 'Arial', 'Liberation Sans', 'DejaVu Sans', 'Bitstream Vera Sans', sans-serif; text-anchor: start" x="515.361553" y="220.863733" transform="rotate(-0 515.361553 220.863733)">chicago_police</text>
   </g>
   <g id="text_6">
    <text style="fill: #262626; font: 10px 'Arial', 'Liberation Sans', 'DejaVu Sans', 'Bitstream Vera Sans', sans-serif; text-anchor: middle" x="448.833574" y="220.81019" transform="rotate(-0 448.833574 220.81019)">0.0%</text>
   </g>
   <g id="text_7">
    <text style="fill: #262626; font: 12px 'Arial', 'Liberation Sans', 'DejaVu Sans', 'Bitstream Vera Sans', sans-serif; text-anchor: middle" x="369" y="45.84" transform="rotate(-0 369 45.84)">Incidents by Source</text>
   </g>
  </g>
 </g>
</svg>
