<?xml version="1.0" encoding="utf-8" standalone="no"?>
<!DOCTYPE svg PUBLIC "-//W3C//DTD SVG 1.1//EN"
  "http://www.w3.org/Graphics/SVG/1.1/DTD/svg11.dtd">
<svg xmlns:xlink="http://www.w3.org/1999/xlink" width="720pt" height="432pt" viewBox="0 0 720 432" xmlns="http://www.w3.org/2000/svg" version="1.1">
 <metadata>
  <rdf:RDF xmlns:dc="http://purl.org/dc/elements/1.1/" xmlns:cc="http://creativecommons.org/ns#" xmlns:rdf="http://www.w3.org/1999/02/22-rdf-syntax-ns#">
   <cc:Work>
    <dc:type rdf:resource="http://purl.org/dc/dcmitype/StillImage"/>
    <dc:date>2025-01-02T12:23:29.515064</dc:date>
    <dc:format>image/svg+xml</dc:format>
    <dc:creator>
     <cc:Agent>
      <dc:title>Matplotlib v3.7.5, https://matplotlib.org/</dc:title>
     </cc:Agent>
    </dc:creator>
   </cc:Work>
  </rdf:RDF>
 </metadata>
 <defs>
  <style type="text/css">*{stroke-linejoin: round; stroke-linecap: butt}</style>
 </defs>
 <g id="figure_1">
  <g id="patch_1">
   <path d="M 0 432 
L 720 432 
L 720 0 
L 0 0 
z
" style="fill: #ffffff"/>
  </g>
  <g id="axes_1">
   <g id="matplotlib.axis_1"/>
   <g id="matplotlib.axis_2"/>
   <g id="patch_2">
    <path d="M 502.056 218.16 
C 502.056 200.978966 498.728214 183.95945 492.256885 168.04374 
C 485.785555 152.128029 476.292357 137.615371 464.302881 125.309259 
C 452.313404 113.003147 438.053076 103.13496 422.31142 96.251052 
C 406.569763 89.367143 389.642753 85.596944 372.467555 85.149191 
C 355.292356 84.701439 338.191896 87.584551 322.112943 93.638905 
C 306.033989 99.69326 291.278859 108.805021 278.664471 120.469718 
C 266.050082 132.134414 255.813611 146.132725 248.521799 161.689634 
C 241.229987 177.246544 237.019936 194.06955 236.124735 211.227246 
C 235.229534 228.384943 237.666014 245.554731 243.299281 261.786005 
C 248.932547 278.017279 257.656683 293.004858 268.988675 305.918954 
C 280.320668 318.833051 294.047453 329.430853 309.409048 337.125615 
C 324.770642 344.820377 341.478217 349.46742 358.606757 350.809461 
C 375.735296 352.151503 392.962749 350.163309 409.335318 344.954957 
C 425.707887 339.746605 440.917734 331.416022 454.122766 320.424431 
C 467.327798 309.43284 478.279733 295.986904 486.372217 280.831059 
C 494.464702 265.675215 499.545581 249.09442 501.333551 232.006673 
L 369 218.16 
z
" style="fill: #f77189"/>
   </g>
   <g id="patch_3">
    <path d="M 501.333551 232.006673 
C 501.57178 229.729902 501.751213 227.447362 501.871669 225.161333 
C 501.992126 222.875303 502.053566 220.586546 502.055929 218.297347 
L 369 218.16 
z
" style="fill: #bb9832"/>
   </g>
   <g id="patch_4">
    <path d="M 502.055929 218.297347 
C 502.055953 218.274456 502.05597 218.251565 502.055982 218.228674 
C 502.055994 218.205784 502.056 218.182893 502.056 218.160002 
L 369 218.16 
z
" style="fill: #50b131"/>
   </g>
   <g id="text_1">
    <text style="fill: #262626; font: 10px 'Arial', 'Liberation Sans', 'DejaVu Sans', 'Bitstream Vera Sans', sans-serif; text-anchor: end" x="222.837208" y="213.119908" transform="rotate(-0 222.837208 213.119908)">newsapi</text>
   </g>
   <g id="text_2">
    <text style="fill: #262626; font: 10px 'Arial', 'Liberation Sans', 'DejaVu Sans', 'Bitstream Vera Sans', sans-serif; text-anchor: middle" x="289.274841" y="216.586285" transform="rotate(-0 289.274841 216.586285)">98.3%</text>
   </g>
   <g id="text_3">
    <text style="fill: #262626; font: 10px 'Arial', 'Liberation Sans', 'DejaVu Sans', 'Bitstream Vera Sans', sans-serif; text-anchor: start" x="515.158836" y="228.447404" transform="rotate(-0 515.158836 228.447404)">chicago_pd</text>
   </g>
   <g id="text_4">
    <text style="fill: #262626; font: 10px 'Arial', 'Liberation Sans', 'DejaVu Sans', 'Bitstream Vera Sans', sans-serif; text-anchor: middle" x="448.723002" y="224.946737" transform="rotate(-0 448.723002 224.946737)">1.6%</text>
   </g>
   <g id="text_5">
    <text style="fill: #262626; font: 10px 'Arial', 'Liberation Sans', 'DejaVu Sans', 'Bitstream Vera Sans', sans-serif; text-anchor: start" x="515.361581" y="220.821479" transform="rotate(-0 515.361581 220.821479)">chicago_police</text>
   </g>
   <g id="text_6">
    <text style="fill: #262626; font: 10px 'Arial', 'Liberation Sans', 'DejaVu Sans', 'Bitstream Vera Sans', sans-serif; text-anchor: middle" x="448.833589" y="220.787142" transform="rotate(-0 448.833589 220.787142)">0.0%</text>
   </g>
   <g id="text_7">
    <text style="fill: #262626; font: 12px 'Arial', 'Liberation Sans', 'DejaVu Sans', 'Bitstream Vera Sans', sans-serif; text-anchor: middle" x="369" y="45.84" transform="rotate(-0 369 45.84)">Incidents by Source</text>
   </g>
  </g>
 </g>
</svg>
