<?xml version="1.0" encoding="utf-8" standalone="no"?>
<!DOCTYPE svg PUBLIC "-//W3C//DTD SVG 1.1//EN"
  "http://www.w3.org/Graphics/SVG/1.1/DTD/svg11.dtd">
<svg xmlns:xlink="http://www.w3.org/1999/xlink" width="720pt" height="432pt" viewBox="0 0 720 432" xmlns="http://www.w3.org/2000/svg" version="1.1">
 <metadata>
  <rdf:RDF xmlns:dc="http://purl.org/dc/elements/1.1/" xmlns:cc="http://creativecommons.org/ns#" xmlns:rdf="http://www.w3.org/1999/02/22-rdf-syntax-ns#">
   <cc:Work>
    <dc:type rdf:resource="http://purl.org/dc/dcmitype/StillImage"/>
    <dc:date>2025-10-10T12:29:01.459161</dc:date>
    <dc:format>image/svg+xml</dc:format>
    <dc:creator>
     <cc:Agent>
      <dc:title>Matplotlib v3.7.5, https://matplotlib.org/</dc:title>
     </cc:Agent>
    </dc:creator>
   </cc:Work>
  </rdf:RDF>
 </metadata>
 <defs>
  <style type="text/css">*{stroke-linejoin: round; stroke-linecap: butt}</style>
 </defs>
 <g id="figure_1">
  <g id="patch_1">
   <path d="M 0 432 
L 720 432 
L 720 0 
L 0 0 
z
" style="fill: #ffffff"/>
  </g>
  <g id="axes_1">
   <g id="matplotlib.axis_1"/>
   <g id="matplotlib.axis_2"/>
   <g id="patch_2">
    <path d="M 502.056 218.16 
C 502.056 200.715111 498.625217 183.43931 491.959378 167.318183 
C 485.29354 151.197056 475.521864 136.543116 463.201827 124.192373 
C 450.881791 111.841631 436.252221 102.033508 420.147737 95.327561 
C 404.043252 88.621613 386.776045 85.147837 369.33121 85.104412 
C 351.886375 85.060988 334.602087 88.448756 318.464417 95.074444 
C 302.326747 101.700133 287.648529 111.435301 275.267157 123.724555 
C 262.885785 136.01381 253.041276 150.618919 246.295261 166.706661 
C 239.549246 182.794402 236.032498 200.05291 235.945649 217.497582 
C 235.8588 234.942255 239.203533 252.234922 245.78903 268.389035 
C 252.374527 284.543149 262.073127 299.245555 274.331523 311.657479 
C 286.589919 324.069404 301.170478 333.950238 317.241377 340.736279 
C 333.312276 347.522319 350.561976 351.082017 368.006378 351.21229 
C 385.450781 351.342563 402.751721 348.040886 418.922177 341.495621 
C 435.092633 334.950356 449.819135 325.288384 462.261536 313.060922 
C 474.703936 300.833461 484.621035 286.277543 491.447059 270.223586 
C 498.273083 254.169628 501.875708 236.928843 502.049404 219.484819 
L 369 218.16 
z
" style="fill: #f77189"/>
   </g>
   <g id="patch_3">
    <path d="M 502.049404 219.484819 
C 502.051581 219.266205 502.053219 219.047587 502.054318 218.828965 
C 502.055417 218.610343 502.055978 218.391719 502.055999 218.173094 
L 369 218.16 
z
" style="fill: #bb9832"/>
   </g>
   <g id="patch_4">
    <path d="M 502.055999 218.173094 
C 502.056 218.170908 502.056 218.168722 502.056 218.166536 
C 502.056 218.164349 502.056 218.162163 502.056 218.159977 
L 369 218.16 
z
" style="fill: #50b131"/>
   </g>
   <g id="text_1">
    <text style="fill: #262626; font: 10px 'Arial', 'Liberation Sans', 'DejaVu Sans', 'Bitstream Vera Sans', sans-serif; text-anchor: end" x="222.640214" y="220.017278" transform="rotate(-0 222.640214 220.017278)">newsapi</text>
   </g>
   <g id="text_2">
    <text style="fill: #262626; font: 10px 'Arial', 'Liberation Sans', 'DejaVu Sans', 'Bitstream Vera Sans', sans-serif; text-anchor: middle" x="289.167389" y="220.348487" transform="rotate(-0 289.167389 220.348487)">99.8%</text>
   </g>
   <g id="text_3">
    <text style="fill: #262626; font: 10px 'Arial', 'Liberation Sans', 'DejaVu Sans', 'Bitstream Vera Sans', sans-serif; text-anchor: start" x="515.35975" y="221.481799" transform="rotate(-0 515.35975 221.481799)">chicago_pd</text>
   </g>
   <g id="text_4">
    <text style="fill: #262626; font: 10px 'Arial', 'Liberation Sans', 'DejaVu Sans', 'Bitstream Vera Sans', sans-serif; text-anchor: middle" x="448.832591" y="221.147316" transform="rotate(-0 448.832591 221.147316)">0.2%</text>
   </g>
   <g id="text_5">
    <text style="fill: #262626; font: 10px 'Arial', 'Liberation Sans', 'DejaVu Sans', 'Bitstream Vera Sans', sans-serif; text-anchor: start" x="515.3616" y="220.753127" transform="rotate(-0 515.3616 220.753127)">chicago_police</text>
   </g>
   <g id="text_6">
    <text style="fill: #262626; font: 10px 'Arial', 'Liberation Sans', 'DejaVu Sans', 'Bitstream Vera Sans', sans-serif; text-anchor: middle" x="448.8336" y="220.749859" transform="rotate(-0 448.8336 220.749859)">0.0%</text>
   </g>
   <g id="text_7">
    <text style="fill: #262626; font: 12px 'Arial', 'Liberation Sans', 'DejaVu Sans', 'Bitstream Vera Sans', sans-serif; text-anchor: middle" x="369" y="45.84" transform="rotate(-0 369 45.84)">Incidents by Source</text>
   </g>
  </g>
 </g>
</svg>
