<?xml version="1.0" encoding="utf-8" standalone="no"?>
<!DOCTYPE svg PUBLIC "-//W3C//DTD SVG 1.1//EN"
  "http://www.w3.org/Graphics/SVG/1.1/DTD/svg11.dtd">
<svg xmlns:xlink="http://www.w3.org/1999/xlink" width="720pt" height="432pt" viewBox="0 0 720 432" xmlns="http://www.w3.org/2000/svg" version="1.1">
 <metadata>
  <rdf:RDF xmlns:dc="http://purl.org/dc/elements/1.1/" xmlns:cc="http://creativecommons.org/ns#" xmlns:rdf="http://www.w3.org/1999/02/22-rdf-syntax-ns#">
   <cc:Work>
    <dc:type rdf:resource="http://purl.org/dc/dcmitype/StillImage"/>
    <dc:date>2025-09-01T18:19:14.976269</dc:date>
    <dc:format>image/svg+xml</dc:format>
    <dc:creator>
     <cc:Agent>
      <dc:title>Matplotlib v3.7.5, https://matplotlib.org/</dc:title>
     </cc:Agent>
    </dc:creator>
   </cc:Work>
  </rdf:RDF>
 </metadata>
 <defs>
  <style type="text/css">*{stroke-linejoin: round; stroke-linecap: butt}</style>
 </defs>
 <g id="figure_1">
  <g id="patch_1">
   <path d="M 0 432 
L 720 432 
L 720 0 
L 0 0 
z
" style="fill: #ffffff"/>
  </g>
  <g id="axes_1">
   <g id="matplotlib.axis_1"/>
   <g id="matplotlib.axis_2"/>
   <g id="patch_2">
    <path d="M 502.056 218.16 
C 502.056 200.719433 498.626917 183.447828 491.964286 167.330052 
C 485.301654 151.212276 475.534567 136.560622 463.219967 124.210562 
C 450.905367 111.860501 436.281857 102.051326 420.183305 95.342378 
C 404.084753 88.633429 386.82308 85.154698 369.382585 85.10455 
C 351.94209 85.054402 334.660697 88.433809 318.52383 95.050068 
C 302.386963 101.666327 287.707285 111.391245 275.321867 123.670283 
C 262.936449 135.949322 253.085266 150.544566 246.330056 166.623761 
C 239.574846 182.702955 236.046496 199.954555 235.9462 217.394833 
C 235.845904 234.835112 239.175607 252.126151 245.745439 268.281975 
C 252.315272 284.4378 261.99794 299.145379 274.241315 311.566053 
C 286.48469 323.986727 301.051548 333.879836 317.111252 340.681251 
C 333.170957 347.482667 350.41234 351.060607 367.852258 351.21105 
C 385.292176 351.361492 402.592718 348.081522 418.767366 341.55817 
C 434.942014 335.034819 449.677374 325.39448 462.133201 313.18687 
C 474.589028 300.97926 484.52398 286.440908 491.371546 270.400827 
C 498.219111 254.360745 501.846611 237.129721 502.047199 219.690308 
L 369 218.16 
z
" style="fill: #f77189"/>
   </g>
   <g id="patch_3">
    <path d="M 502.047199 219.690308 
C 502.050104 219.43779 502.05229 219.185264 502.053756 218.932734 
C 502.055223 218.680203 502.05597 218.427669 502.055999 218.175135 
L 369 218.16 
z
" style="fill: #bb9832"/>
   </g>
   <g id="patch_4">
    <path d="M 502.055999 218.175135 
C 502.055999 218.172609 502.056 218.170084 502.056 218.167558 
C 502.056 218.165033 502.056 218.162508 502.056 218.159982 
L 369 218.16 
z
" style="fill: #50b131"/>
   </g>
   <g id="text_1">
    <text style="fill: #262626; font: 10px 'Arial', 'Liberation Sans', 'DejaVu Sans', 'Bitstream Vera Sans', sans-serif; text-anchor: end" x="222.64082" y="219.904254" transform="rotate(-0 222.64082 219.904254)">newsapi</text>
   </g>
   <g id="text_2">
    <text style="fill: #262626; font: 10px 'Arial', 'Liberation Sans', 'DejaVu Sans', 'Bitstream Vera Sans', sans-serif; text-anchor: middle" x="289.16772" y="220.286838" transform="rotate(-0 289.16772 220.286838)">99.8%</text>
   </g>
   <g id="text_3">
    <text style="fill: #262626; font: 10px 'Arial', 'Liberation Sans', 'DejaVu Sans', 'Bitstream Vera Sans', sans-serif; text-anchor: start" x="515.359132" y="221.595945" transform="rotate(-0 515.359132 221.595945)">chicago_pd</text>
   </g>
   <g id="text_4">
    <text style="fill: #262626; font: 10px 'Arial', 'Liberation Sans', 'DejaVu Sans', 'Bitstream Vera Sans', sans-serif; text-anchor: middle" x="448.832254" y="221.209578" transform="rotate(-0 448.832254 221.209578)">0.2%</text>
   </g>
   <g id="text_5">
    <text style="fill: #262626; font: 10px 'Arial', 'Liberation Sans', 'DejaVu Sans', 'Bitstream Vera Sans', sans-serif; text-anchor: start" x="515.3616" y="220.754252" transform="rotate(-0 515.3616 220.754252)">chicago_police</text>
   </g>
   <g id="text_6">
    <text style="fill: #262626; font: 10px 'Arial', 'Liberation Sans', 'DejaVu Sans', 'Bitstream Vera Sans', sans-serif; text-anchor: middle" x="448.8336" y="220.750473" transform="rotate(-0 448.8336 220.750473)">0.0%</text>
   </g>
   <g id="text_7">
    <text style="fill: #262626; font: 12px 'Arial', 'Liberation Sans', 'DejaVu Sans', 'Bitstream Vera Sans', sans-serif; text-anchor: middle" x="369" y="45.84" transform="rotate(-0 369 45.84)">Incidents by Source</text>
   </g>
  </g>
 </g>
</svg>
