<?xml version="1.0" encoding="utf-8" standalone="no"?>
<!DOCTYPE svg PUBLIC "-//W3C//DTD SVG 1.1//EN"
  "http://www.w3.org/Graphics/SVG/1.1/DTD/svg11.dtd">
<svg xmlns:xlink="http://www.w3.org/1999/xlink" width="720pt" height="432pt" viewBox="0 0 720 432" xmlns="http://www.w3.org/2000/svg" version="1.1">
 <metadata>
  <rdf:RDF xmlns:dc="http://purl.org/dc/elements/1.1/" xmlns:cc="http://creativecommons.org/ns#" xmlns:rdf="http://www.w3.org/1999/02/22-rdf-syntax-ns#">
   <cc:Work>
    <dc:type rdf:resource="http://purl.org/dc/dcmitype/StillImage"/>
    <dc:date>2025-04-28T06:27:12.729718</dc:date>
    <dc:format>image/svg+xml</dc:format>
    <dc:creator>
     <cc:Agent>
      <dc:title>Matplotlib v3.7.5, https://matplotlib.org/</dc:title>
     </cc:Agent>
    </dc:creator>
   </cc:Work>
  </rdf:RDF>
 </metadata>
 <defs>
  <style type="text/css">*{stroke-linejoin: round; stroke-linecap: butt}</style>
 </defs>
 <g id="figure_1">
  <g id="patch_1">
   <path d="M 0 432 
L 720 432 
L 720 0 
L 0 0 
z
" style="fill: #ffffff"/>
  </g>
  <g id="axes_1">
   <g id="matplotlib.axis_1"/>
   <g id="matplotlib.axis_2"/>
   <g id="patch_2">
    <path d="M 502.056 218.16 
C 502.056 200.748648 498.638396 183.505409 491.997425 167.410295 
C 485.356455 151.315181 475.62036 136.679001 463.342488 124.333596 
C 451.064616 111.98819 436.482061 102.171959 420.423617 95.442802 
C 404.365173 88.713645 387.14094 85.201508 369.72985 85.106002 
C 352.31876 85.010496 335.057034 88.333464 318.925734 94.886049 
C 302.794435 101.438633 288.10507 111.094298 275.692503 123.304267 
C 263.279935 135.514236 253.383862 150.042727 246.566721 166.064018 
C 239.74958 182.085309 236.143016 199.290018 235.952007 216.700322 
C 235.760997 234.110626 238.989231 251.39032 245.453232 267.55732 
C 251.917233 283.724319 261.492177 298.466427 273.633876 310.945783 
C 285.775575 323.425139 300.249564 333.400756 316.233221 340.305676 
C 332.216877 347.210595 349.401544 350.911478 366.810538 351.197985 
C 384.219533 351.484492 401.516675 348.351091 417.718888 341.975868 
C 433.9211 335.600645 448.715508 326.106709 461.261277 314.033646 
C 473.807045 301.960582 483.861907 287.541529 490.854397 271.595989 
C 497.846888 255.650449 501.641977 238.486341 502.023973 221.07918 
L 369 218.16 
z
" style="fill: #f77189"/>
   </g>
   <g id="patch_3">
    <path d="M 502.023973 221.07918 
C 502.034543 220.597547 502.042496 220.11586 502.047834 219.634141 
C 502.053171 219.152421 502.055892 218.670676 502.055997 218.188927 
L 369 218.16 
z
" style="fill: #bb9832"/>
   </g>
   <g id="patch_4">
    <path d="M 502.055997 218.188927 
C 502.055998 218.18411 502.055999 218.179292 502.055999 218.174475 
C 502.056 218.169657 502.056 218.16484 502.056 218.160022 
L 369 218.16 
z
" style="fill: #50b131"/>
   </g>
   <g id="text_1">
    <text style="fill: #262626; font: 10px 'Arial', 'Liberation Sans', 'DejaVu Sans', 'Bitstream Vera Sans', sans-serif; text-anchor: end" x="222.647208" y="219.140292" transform="rotate(-0 222.647208 219.140292)">newsapi</text>
   </g>
   <g id="text_2">
    <text style="fill: #262626; font: 10px 'Arial', 'Liberation Sans', 'DejaVu Sans', 'Bitstream Vera Sans', sans-serif; text-anchor: middle" x="289.171204" y="219.870131" transform="rotate(-0 289.171204 219.870131)">99.7%</text>
   </g>
   <g id="text_3">
    <text style="fill: #262626; font: 10px 'Arial', 'Liberation Sans', 'DejaVu Sans', 'Bitstream Vera Sans', sans-serif; text-anchor: start" x="515.352617" y="222.367492" transform="rotate(-0 515.352617 222.367492)">chicago_pd</text>
   </g>
   <g id="text_4">
    <text style="fill: #262626; font: 10px 'Arial', 'Liberation Sans', 'DejaVu Sans', 'Bitstream Vera Sans', sans-serif; text-anchor: middle" x="448.8287" y="221.630422" transform="rotate(-0 448.8287 221.630422)">0.3%</text>
   </g>
   <g id="text_5">
    <text style="fill: #262626; font: 10px 'Arial', 'Liberation Sans', 'DejaVu Sans', 'Bitstream Vera Sans', sans-serif; text-anchor: start" x="515.361599" y="220.76186" transform="rotate(-0 515.361599 220.76186)">chicago_police</text>
   </g>
   <g id="text_6">
    <text style="fill: #262626; font: 10px 'Arial', 'Liberation Sans', 'DejaVu Sans', 'Bitstream Vera Sans', sans-serif; text-anchor: middle" x="448.8336" y="220.754622" transform="rotate(-0 448.8336 220.754622)">0.0%</text>
   </g>
   <g id="text_7">
    <text style="fill: #262626; font: 12px 'Arial', 'Liberation Sans', 'DejaVu Sans', 'Bitstream Vera Sans', sans-serif; text-anchor: middle" x="369" y="45.84" transform="rotate(-0 369 45.84)">Incidents by Source</text>
   </g>
  </g>
 </g>
</svg>
