<?xml version="1.0" encoding="utf-8" standalone="no"?>
<!DOCTYPE svg PUBLIC "-//W3C//DTD SVG 1.1//EN"
  "http://www.w3.org/Graphics/SVG/1.1/DTD/svg11.dtd">
<svg xmlns:xlink="http://www.w3.org/1999/xlink" width="720pt" height="432pt" viewBox="0 0 720 432" xmlns="http://www.w3.org/2000/svg" version="1.1">
 <metadata>
  <rdf:RDF xmlns:dc="http://purl.org/dc/elements/1.1/" xmlns:cc="http://creativecommons.org/ns#" xmlns:rdf="http://www.w3.org/1999/02/22-rdf-syntax-ns#">
   <cc:Work>
    <dc:type rdf:resource="http://purl.org/dc/dcmitype/StillImage"/>
    <dc:date>2026-05-19T14:47:44.083841</dc:date>
    <dc:format>image/svg+xml</dc:format>
    <dc:creator>
     <cc:Agent>
      <dc:title>Matplotlib v3.7.5, https://matplotlib.org/</dc:title>
     </cc:Agent>
    </dc:creator>
   </cc:Work>
  </rdf:RDF>
 </metadata>
 <defs>
  <style type="text/css">*{stroke-linejoin: round; stroke-linecap: butt}</style>
 </defs>
 <g id="figure_1">
  <g id="patch_1">
   <path d="M 0 432 
L 720 432 
L 720 0 
L 0 0 
z
" style="fill: #ffffff"/>
  </g>
  <g id="axes_1">
   <g id="matplotlib.axis_1"/>
   <g id="matplotlib.axis_2"/>
   <g id="patch_2">
    <path d="M 502.056 218.16 
C 502.056 200.704058 498.620869 183.417526 491.946825 167.287832 
C 485.272781 151.158138 475.489367 136.498358 463.155425 124.145878 
C 450.821482 111.793398 436.176413 101.987978 420.05676 95.289717 
C 403.937108 88.591456 386.655754 85.130367 369.199832 85.10415 
C 351.74391 85.077934 334.452239 88.487099 318.312539 95.136911 
C 302.17284 101.786723 287.498383 111.548108 275.127393 123.863485 
C 262.756403 136.178861 252.928999 150.809188 246.206536 166.918763 
C 239.484073 183.028337 235.997033 200.304473 235.9446 217.760336 
C 235.892167 235.216199 239.275359 252.512971 245.900924 268.662639 
C 252.526489 284.812308 262.265824 299.501408 274.562607 311.89088 
C 286.85939 324.280353 301.474941 334.129718 317.574401 340.876368 
C 333.673861 347.623018 350.94474 351.136 368.400505 351.214649 
C 385.856269 351.293299 403.158103 347.936088 419.317704 341.334786 
C 435.477305 334.733483 450.181016 325.01622 462.588942 312.738058 
C 474.996869 300.459896 484.868173 285.859154 491.638995 269.769845 
C 498.409817 253.680535 501.948734 236.414951 502.053599 218.959325 
L 369 218.16 
z
" style="fill: #f77189"/>
   </g>
   <g id="patch_3">
    <path d="M 502.053599 218.959325 
C 502.054391 218.827428 502.054988 218.69553 502.055388 218.563631 
C 502.055788 218.431732 502.055992 218.299832 502.056 218.167933 
L 369 218.16 
z
" style="fill: #bb9832"/>
   </g>
   <g id="patch_4">
    <path d="M 502.056 218.167933 
C 502.056 218.166614 502.056 218.165295 502.056 218.163976 
C 502.056 218.162657 502.056 218.161338 502.056 218.160019 
L 369 218.16 
z
" style="fill: #50b131"/>
   </g>
   <g id="text_1">
    <text style="fill: #262626; font: 10px 'Arial', 'Liberation Sans', 'DejaVu Sans', 'Bitstream Vera Sans', sans-serif; text-anchor: end" x="222.63906" y="220.306307" transform="rotate(-0 222.63906 220.306307)">newsapi</text>
   </g>
   <g id="text_2">
    <text style="fill: #262626; font: 10px 'Arial', 'Liberation Sans', 'DejaVu Sans', 'Bitstream Vera Sans', sans-serif; text-anchor: middle" x="289.16676" y="220.506139" transform="rotate(-0 289.16676 220.506139)">99.9%</text>
   </g>
   <g id="text_3">
    <text style="fill: #262626; font: 10px 'Arial', 'Liberation Sans', 'DejaVu Sans', 'Bitstream Vera Sans', sans-serif; text-anchor: start" x="515.360927" y="221.189931" transform="rotate(-0 515.360927 221.189931)">chicago_pd</text>
   </g>
   <g id="text_4">
    <text style="fill: #262626; font: 10px 'Arial', 'Liberation Sans', 'DejaVu Sans', 'Bitstream Vera Sans', sans-serif; text-anchor: middle" x="448.833233" y="220.988116" transform="rotate(-0 448.833233 220.988116)">0.1%</text>
   </g>
   <g id="text_5">
    <text style="fill: #262626; font: 10px 'Arial', 'Liberation Sans', 'DejaVu Sans', 'Bitstream Vera Sans', sans-serif; text-anchor: start" x="515.3616" y="220.750311" transform="rotate(-0 515.3616 220.750311)">chicago_police</text>
   </g>
   <g id="text_6">
    <text style="fill: #262626; font: 10px 'Arial', 'Liberation Sans', 'DejaVu Sans', 'Bitstream Vera Sans', sans-serif; text-anchor: middle" x="448.8336" y="220.748323" transform="rotate(-0 448.8336 220.748323)">0.0%</text>
   </g>
   <g id="text_7">
    <text style="fill: #262626; font: 12px 'Arial', 'Liberation Sans', 'DejaVu Sans', 'Bitstream Vera Sans', sans-serif; text-anchor: middle" x="369" y="45.84" transform="rotate(-0 369 45.84)">Incidents by Source</text>
   </g>
  </g>
 </g>
</svg>
