<?xml version="1.0" encoding="utf-8" standalone="no"?>
<!DOCTYPE svg PUBLIC "-//W3C//DTD SVG 1.1//EN"
  "http://www.w3.org/Graphics/SVG/1.1/DTD/svg11.dtd">
<svg xmlns:xlink="http://www.w3.org/1999/xlink" width="720pt" height="432pt" viewBox="0 0 720 432" xmlns="http://www.w3.org/2000/svg" version="1.1">
 <metadata>
  <rdf:RDF xmlns:dc="http://purl.org/dc/elements/1.1/" xmlns:cc="http://creativecommons.org/ns#" xmlns:rdf="http://www.w3.org/1999/02/22-rdf-syntax-ns#">
   <cc:Work>
    <dc:type rdf:resource="http://purl.org/dc/dcmitype/StillImage"/>
    <dc:date>2026-04-02T12:59:58.901173</dc:date>
    <dc:format>image/svg+xml</dc:format>
    <dc:creator>
     <cc:Agent>
      <dc:title>Matplotlib v3.7.5, https://matplotlib.org/</dc:title>
     </cc:Agent>
    </dc:creator>
   </cc:Work>
  </rdf:RDF>
 </metadata>
 <defs>
  <style type="text/css">*{stroke-linejoin: round; stroke-linecap: butt}</style>
 </defs>
 <g id="figure_1">
  <g id="patch_1">
   <path d="M 0 432 
L 720 432 
L 720 0 
L 0 0 
z
" style="fill: #ffffff"/>
  </g>
  <g id="axes_1">
   <g id="matplotlib.axis_1"/>
   <g id="matplotlib.axis_2"/>
   <g id="patch_2">
    <path d="M 502.056 218.16 
C 502.056 200.70557 498.621463 183.420505 491.948542 167.291982 
C 485.27562 151.163459 475.493812 136.504477 463.161771 124.152234 
C 450.82973 111.799991 436.18678 101.994201 420.069201 95.294888 
C 403.951623 88.595575 386.672203 85.132749 369.217796 85.104178 
C 351.763389 85.075608 334.472726 88.481846 318.333302 95.128359 
C 302.193877 101.774871 287.518904 111.532671 275.146491 123.844476 
C 262.774079 136.156281 252.944333 150.783161 246.218646 166.889752 
C 239.49296 182.996343 236.001854 200.270071 235.944713 217.724408 
C 235.887572 235.178745 239.265503 252.474961 245.885588 268.625243 
C 252.505674 284.775525 262.239439 299.466451 274.530976 311.859 
C 286.822512 324.251549 301.433282 334.105224 317.528843 340.857266 
C 333.624403 347.609308 350.892394 351.128684 368.346614 351.214396 
C 385.800834 351.300108 403.102556 347.950493 419.263652 341.356852 
C 435.424749 334.763212 450.131588 325.053506 462.544241 312.782271 
C 474.956893 300.511036 484.83447 285.916415 491.61285 269.831928 
C 498.391229 253.747442 501.938866 236.485235 502.053148 219.031179 
L 369 218.16 
z
" style="fill: #f77189"/>
   </g>
   <g id="patch_3">
    <path d="M 502.053148 219.031179 
C 502.054089 218.887425 502.054797 218.743671 502.055273 218.599915 
C 502.055748 218.456159 502.05599 218.312403 502.056 218.168646 
L 369 218.16 
z
" style="fill: #bb9832"/>
   </g>
   <g id="patch_4">
    <path d="M 502.056 218.168646 
C 502.056 218.167209 502.056 218.165771 502.056 218.164334 
C 502.056 218.162896 502.056 218.161459 502.056 218.160021 
L 369 218.16 
z
" style="fill: #50b131"/>
   </g>
   <g id="text_1">
    <text style="fill: #262626; font: 10px 'Arial', 'Liberation Sans', 'DejaVu Sans', 'Bitstream Vera Sans', sans-serif; text-anchor: end" x="222.639184" y="220.266787" transform="rotate(-0 222.639184 220.266787)">newsapi</text>
   </g>
   <g id="text_2">
    <text style="fill: #262626; font: 10px 'Arial', 'Liberation Sans', 'DejaVu Sans', 'Bitstream Vera Sans', sans-serif; text-anchor: middle" x="289.166828" y="220.484582" transform="rotate(-0 289.166828 220.484582)">99.9%</text>
   </g>
   <g id="text_3">
    <text style="fill: #262626; font: 10px 'Arial', 'Liberation Sans', 'DejaVu Sans', 'Bitstream Vera Sans', sans-serif; text-anchor: start" x="515.3608" y="221.229844" transform="rotate(-0 515.3608 221.229844)">chicago_pd</text>
   </g>
   <g id="text_4">
    <text style="fill: #262626; font: 10px 'Arial', 'Liberation Sans', 'DejaVu Sans', 'Bitstream Vera Sans', sans-serif; text-anchor: middle" x="448.833164" y="221.009886" transform="rotate(-0 448.833164 221.009886)">0.1%</text>
   </g>
   <g id="text_5">
    <text style="fill: #262626; font: 10px 'Arial', 'Liberation Sans', 'DejaVu Sans', 'Bitstream Vera Sans', sans-serif; text-anchor: start" x="515.3616" y="220.750705" transform="rotate(-0 515.3616 220.750705)">chicago_police</text>
   </g>
   <g id="text_6">
    <text style="fill: #262626; font: 10px 'Arial', 'Liberation Sans', 'DejaVu Sans', 'Bitstream Vera Sans', sans-serif; text-anchor: middle" x="448.8336" y="220.748538" transform="rotate(-0 448.8336 220.748538)">0.0%</text>
   </g>
   <g id="text_7">
    <text style="fill: #262626; font: 12px 'Arial', 'Liberation Sans', 'DejaVu Sans', 'Bitstream Vera Sans', sans-serif; text-anchor: middle" x="369" y="45.84" transform="rotate(-0 369 45.84)">Incidents by Source</text>
   </g>
  </g>
 </g>
</svg>
