<?xml version="1.0" encoding="utf-8" standalone="no"?>
<!DOCTYPE svg PUBLIC "-//W3C//DTD SVG 1.1//EN"
  "http://www.w3.org/Graphics/SVG/1.1/DTD/svg11.dtd">
<svg xmlns:xlink="http://www.w3.org/1999/xlink" width="720pt" height="432pt" viewBox="0 0 720 432" xmlns="http://www.w3.org/2000/svg" version="1.1">
 <metadata>
  <rdf:RDF xmlns:dc="http://purl.org/dc/elements/1.1/" xmlns:cc="http://creativecommons.org/ns#" xmlns:rdf="http://www.w3.org/1999/02/22-rdf-syntax-ns#">
   <cc:Work>
    <dc:type rdf:resource="http://purl.org/dc/dcmitype/StillImage"/>
    <dc:date>2026-01-27T12:36:53.243236</dc:date>
    <dc:format>image/svg+xml</dc:format>
    <dc:creator>
     <cc:Agent>
      <dc:title>Matplotlib v3.7.5, https://matplotlib.org/</dc:title>
     </cc:Agent>
    </dc:creator>
   </cc:Work>
  </rdf:RDF>
 </metadata>
 <defs>
  <style type="text/css">*{stroke-linejoin: round; stroke-linecap: butt}</style>
 </defs>
 <g id="figure_1">
  <g id="patch_1">
   <path d="M 0 432 
L 720 432 
L 720 0 
L 0 0 
z
" style="fill: #ffffff"/>
  </g>
  <g id="axes_1">
   <g id="matplotlib.axis_1"/>
   <g id="matplotlib.axis_2"/>
   <g id="patch_2">
    <path d="M 502.056 218.16 
C 502.056 200.708094 498.622457 183.425481 491.95141 167.298915 
C 485.280362 151.172348 475.501236 136.514701 463.172372 124.162854 
C 450.843508 111.811007 436.204099 102.004599 420.089985 95.303528 
C 403.975871 88.602458 386.699682 85.136734 369.247806 85.104231 
C 351.795931 85.071728 334.506953 88.473078 318.36799 95.114079 
C 302.229028 101.75508 287.553193 111.506891 275.178406 123.812729 
C 262.803618 136.118567 252.969962 150.739688 246.238893 166.841293 
C 239.507823 182.942899 236.009929 200.212603 235.944923 217.664388 
C 235.879918 235.116172 239.249062 252.411456 245.859994 268.562758 
C 252.470926 284.714061 262.195387 299.408033 274.478157 311.805717 
C 286.760927 324.203402 301.363708 334.064271 317.452749 340.825317 
C 333.541791 347.586363 350.804951 351.116415 368.256584 351.213923 
C 385.708217 351.311431 403.009745 347.974504 419.173332 341.393664 
C 435.33692 334.812824 450.048977 325.115746 462.469515 312.856087 
C 474.890054 300.596428 484.778103 286.012038 491.569102 269.935616 
C 498.360101 253.859194 501.922298 236.602639 502.052308 219.151217 
L 369 218.16 
z
" style="fill: #f77189"/>
   </g>
   <g id="patch_3">
    <path d="M 502.052308 219.151217 
C 502.053526 218.987649 502.054443 218.824079 502.055059 218.660508 
C 502.055674 218.496937 502.055988 218.333364 502.056 218.169792 
L 369 218.16 
z
" style="fill: #bb9832"/>
   </g>
   <g id="patch_4">
    <path d="M 502.056 218.169792 
C 502.056 218.168156 502.056 218.16652 502.056 218.164885 
C 502.056 218.163249 502.056 218.161613 502.056 218.159977 
L 369 218.16 
z
" style="fill: #50b131"/>
   </g>
   <g id="text_1">
    <text style="fill: #262626; font: 10px 'Arial', 'Liberation Sans', 'DejaVu Sans', 'Bitstream Vera Sans', sans-serif; text-anchor: end" x="222.639415" y="220.200764" transform="rotate(-0 222.639415 220.200764)">newsapi</text>
   </g>
   <g id="text_2">
    <text style="fill: #262626; font: 10px 'Arial', 'Liberation Sans', 'DejaVu Sans', 'Bitstream Vera Sans', sans-serif; text-anchor: middle" x="289.166954" y="220.44857" transform="rotate(-0 289.166954 220.44857)">99.9%</text>
   </g>
   <g id="text_3">
    <text style="fill: #262626; font: 10px 'Arial', 'Liberation Sans', 'DejaVu Sans', 'Bitstream Vera Sans', sans-serif; text-anchor: start" x="515.360564" y="221.296496" transform="rotate(-0 515.360564 221.296496)">chicago_pd</text>
   </g>
   <g id="text_4">
    <text style="fill: #262626; font: 10px 'Arial', 'Liberation Sans', 'DejaVu Sans', 'Bitstream Vera Sans', sans-serif; text-anchor: middle" x="448.833035" y="221.046242" transform="rotate(-0 448.833035 221.046242)">0.1%</text>
   </g>
   <g id="text_5">
    <text style="fill: #262626; font: 10px 'Arial', 'Liberation Sans', 'DejaVu Sans', 'Bitstream Vera Sans', sans-serif; text-anchor: start" x="515.3616" y="220.751311" transform="rotate(-0 515.3616 220.751311)">chicago_police</text>
   </g>
   <g id="text_6">
    <text style="fill: #262626; font: 10px 'Arial', 'Liberation Sans', 'DejaVu Sans', 'Bitstream Vera Sans', sans-serif; text-anchor: middle" x="448.8336" y="220.748868" transform="rotate(-0 448.8336 220.748868)">0.0%</text>
   </g>
   <g id="text_7">
    <text style="fill: #262626; font: 12px 'Arial', 'Liberation Sans', 'DejaVu Sans', 'Bitstream Vera Sans', sans-serif; text-anchor: middle" x="369" y="45.84" transform="rotate(-0 369 45.84)">Incidents by Source</text>
   </g>
  </g>
 </g>
</svg>
