<?xml version="1.0" encoding="utf-8" standalone="no"?>
<!DOCTYPE svg PUBLIC "-//W3C//DTD SVG 1.1//EN"
  "http://www.w3.org/Graphics/SVG/1.1/DTD/svg11.dtd">
<svg xmlns:xlink="http://www.w3.org/1999/xlink" width="720pt" height="432pt" viewBox="0 0 720 432" xmlns="http://www.w3.org/2000/svg" version="1.1">
 <metadata>
  <rdf:RDF xmlns:dc="http://purl.org/dc/elements/1.1/" xmlns:cc="http://creativecommons.org/ns#" xmlns:rdf="http://www.w3.org/1999/02/22-rdf-syntax-ns#">
   <cc:Work>
    <dc:type rdf:resource="http://purl.org/dc/dcmitype/StillImage"/>
    <dc:date>2025-05-24T01:05:20.826770</dc:date>
    <dc:format>image/svg+xml</dc:format>
    <dc:creator>
     <cc:Agent>
      <dc:title>Matplotlib v3.7.5, https://matplotlib.org/</dc:title>
     </cc:Agent>
    </dc:creator>
   </cc:Work>
  </rdf:RDF>
 </metadata>
 <defs>
  <style type="text/css">*{stroke-linejoin: round; stroke-linecap: butt}</style>
 </defs>
 <g id="figure_1">
  <g id="patch_1">
   <path d="M 0 432 
L 720 432 
L 720 0 
L 0 0 
z
" style="fill: #ffffff"/>
  </g>
  <g id="axes_1">
   <g id="matplotlib.axis_1"/>
   <g id="matplotlib.axis_2"/>
   <g id="patch_2">
    <path d="M 502.056 218.16 
C 502.056 200.739355 498.634747 183.487093 491.98689 167.384769 
C 485.339033 151.282444 475.593084 136.641337 463.303533 124.294443 
C 451.013982 111.947549 436.418402 102.13355 420.347198 95.410807 
C 404.275995 88.688064 387.039846 85.186537 369.61939 85.105442 
C 352.198934 85.024347 334.930932 88.365252 318.797836 94.938079 
C 302.664739 101.510906 287.978422 111.188593 275.574453 123.420535 
C 263.170483 135.652477 253.288647 150.202213 246.491164 166.241948 
C 239.69368 182.281682 236.111955 199.501344 235.949767 216.921234 
C 235.787579 234.341124 239.048063 251.62449 245.545718 267.788009 
C 252.043372 283.951528 261.652588 298.682737 273.826655 311.143513 
C 286.000723 323.604289 300.504301 333.553749 316.512219 340.425825 
C 332.520136 347.297901 349.722939 350.959747 367.141885 351.203025 
C 384.56083 351.446303 401.859188 348.26631 418.052779 341.843968 
C 434.24637 335.421627 449.022151 325.881091 461.539463 313.765161 
C 474.056776 301.649232 484.073644 287.192127 491.020164 271.216373 
C 497.966684 255.240619 501.708572 238.055049 502.032934 220.637425 
L 369 218.16 
z
" style="fill: #f77189"/>
   </g>
   <g id="patch_3">
    <path d="M 502.032934 220.637425 
C 502.040546 220.228657 502.046275 219.819857 502.050119 219.411037 
C 502.053963 219.002217 502.055922 218.593381 502.055998 218.184543 
L 369 218.16 
z
" style="fill: #bb9832"/>
   </g>
   <g id="patch_4">
    <path d="M 502.055998 218.184543 
C 502.055998 218.180454 502.055999 218.176366 502.055999 218.172278 
C 502.056 218.168189 502.056 218.164101 502.056 218.160012 
L 369 218.16 
z
" style="fill: #50b131"/>
   </g>
   <g id="text_1">
    <text style="fill: #262626; font: 10px 'Arial', 'Liberation Sans', 'DejaVu Sans', 'Bitstream Vera Sans', sans-serif; text-anchor: end" x="222.644743" y="219.383295" transform="rotate(-0 222.644743 219.383295)">newsapi</text>
   </g>
   <g id="text_2">
    <text style="fill: #262626; font: 10px 'Arial', 'Liberation Sans', 'DejaVu Sans', 'Bitstream Vera Sans', sans-serif; text-anchor: middle" x="289.16986" y="220.002678" transform="rotate(-0 289.16986 220.002678)">99.7%</text>
   </g>
   <g id="text_3">
    <text style="fill: #262626; font: 10px 'Arial', 'Liberation Sans', 'DejaVu Sans', 'Bitstream Vera Sans', sans-serif; text-anchor: start" x="515.35513" y="222.122078" transform="rotate(-0 515.35513 222.122078)">chicago_pd</text>
   </g>
   <g id="text_4">
    <text style="fill: #262626; font: 10px 'Arial', 'Liberation Sans', 'DejaVu Sans', 'Bitstream Vera Sans', sans-serif; text-anchor: middle" x="448.830071" y="221.49656" transform="rotate(-0 448.830071 221.49656)">0.3%</text>
   </g>
   <g id="text_5">
    <text style="fill: #262626; font: 10px 'Arial', 'Liberation Sans', 'DejaVu Sans', 'Bitstream Vera Sans', sans-serif; text-anchor: start" x="515.361599" y="220.759443" transform="rotate(-0 515.361599 220.759443)">chicago_police</text>
   </g>
   <g id="text_6">
    <text style="fill: #262626; font: 10px 'Arial', 'Liberation Sans', 'DejaVu Sans', 'Bitstream Vera Sans', sans-serif; text-anchor: middle" x="448.8336" y="220.753304" transform="rotate(-0 448.8336 220.753304)">0.0%</text>
   </g>
   <g id="text_7">
    <text style="fill: #262626; font: 12px 'Arial', 'Liberation Sans', 'DejaVu Sans', 'Bitstream Vera Sans', sans-serif; text-anchor: middle" x="369" y="45.84" transform="rotate(-0 369 45.84)">Incidents by Source</text>
   </g>
  </g>
 </g>
</svg>
