<?xml version="1.0" encoding="utf-8" standalone="no"?>
<!DOCTYPE svg PUBLIC "-//W3C//DTD SVG 1.1//EN"
  "http://www.w3.org/Graphics/SVG/1.1/DTD/svg11.dtd">
<svg xmlns:xlink="http://www.w3.org/1999/xlink" width="720pt" height="432pt" viewBox="0 0 720 432" xmlns="http://www.w3.org/2000/svg" version="1.1">
 <metadata>
  <rdf:RDF xmlns:dc="http://purl.org/dc/elements/1.1/" xmlns:cc="http://creativecommons.org/ns#" xmlns:rdf="http://www.w3.org/1999/02/22-rdf-syntax-ns#">
   <cc:Work>
    <dc:type rdf:resource="http://purl.org/dc/dcmitype/StillImage"/>
    <dc:date>2026-04-04T13:07:33.056777</dc:date>
    <dc:format>image/svg+xml</dc:format>
    <dc:creator>
     <cc:Agent>
      <dc:title>Matplotlib v3.7.5, https://matplotlib.org/</dc:title>
     </cc:Agent>
    </dc:creator>
   </cc:Work>
  </rdf:RDF>
 </metadata>
 <defs>
  <style type="text/css">*{stroke-linejoin: round; stroke-linecap: butt}</style>
 </defs>
 <g id="figure_1">
  <g id="patch_1">
   <path d="M 0 432 
L 720 432 
L 720 0 
L 0 0 
z
" style="fill: #ffffff"/>
  </g>
  <g id="axes_1">
   <g id="matplotlib.axis_1"/>
   <g id="matplotlib.axis_2"/>
   <g id="patch_2">
    <path d="M 502.056 218.16 
C 502.056 200.705494 498.621434 183.420356 491.948456 167.291775 
C 485.275478 151.163193 475.49359 136.504172 463.161454 124.151917 
C 450.829318 111.799662 436.186263 101.99389 420.06858 95.29463 
C 403.950898 88.595369 386.671382 85.13263 369.216899 85.104177 
C 351.762417 85.075724 334.471703 88.482108 318.332265 95.128785 
C 302.192827 101.775463 287.517879 111.533442 275.145538 123.845425 
C 262.773196 136.157409 252.943567 150.78446 246.218042 166.8912 
C 239.492516 182.997941 236.001613 200.271789 235.944707 217.726202 
C 235.887801 235.180615 239.265995 252.476859 245.886354 268.62711 
C 252.506713 284.777362 262.240757 299.468197 274.532555 311.860592 
C 286.824354 324.252988 301.435362 334.106447 317.531117 340.85822 
C 333.626873 347.609993 350.895008 351.12905 368.349305 351.214409 
C 385.803602 351.299768 403.105329 347.949774 419.266352 341.355751 
C 435.427374 334.761728 450.134057 325.051645 462.546473 312.780064 
C 474.958889 300.508483 484.836154 285.913556 491.614156 269.828829 
C 498.392158 253.744101 501.939359 236.481726 502.053171 219.027591 
L 369 218.16 
z
" style="fill: #f77189"/>
   </g>
   <g id="patch_3">
    <path d="M 502.053171 219.027591 
C 502.054105 218.88443 502.054807 218.741267 502.055279 218.598104 
C 502.05575 218.454941 502.05599 218.311777 502.056 218.168612 
L 369 218.16 
z
" style="fill: #bb9832"/>
   </g>
   <g id="patch_4">
    <path d="M 502.056 218.168612 
C 502.056 218.167181 502.056 218.165749 502.056 218.164318 
C 502.056 218.162886 502.056 218.161454 502.056 218.160023 
L 369 218.16 
z
" style="fill: #50b131"/>
   </g>
   <g id="text_1">
    <text style="fill: #262626; font: 10px 'Arial', 'Liberation Sans', 'DejaVu Sans', 'Bitstream Vera Sans', sans-serif; text-anchor: end" x="222.639178" y="220.26876" transform="rotate(-0 222.639178 220.26876)">newsapi</text>
   </g>
   <g id="text_2">
    <text style="fill: #262626; font: 10px 'Arial', 'Liberation Sans', 'DejaVu Sans', 'Bitstream Vera Sans', sans-serif; text-anchor: middle" x="289.166824" y="220.485659" transform="rotate(-0 289.166824 220.485659)">99.9%</text>
   </g>
   <g id="text_3">
    <text style="fill: #262626; font: 10px 'Arial', 'Liberation Sans', 'DejaVu Sans', 'Bitstream Vera Sans', sans-serif; text-anchor: start" x="515.360807" y="221.227852" transform="rotate(-0 515.360807 221.227852)">chicago_pd</text>
   </g>
   <g id="text_4">
    <text style="fill: #262626; font: 10px 'Arial', 'Liberation Sans', 'DejaVu Sans', 'Bitstream Vera Sans', sans-serif; text-anchor: middle" x="448.833167" y="221.0088" transform="rotate(-0 448.833167 221.0088)">0.1%</text>
   </g>
   <g id="text_5">
    <text style="fill: #262626; font: 10px 'Arial', 'Liberation Sans', 'DejaVu Sans', 'Bitstream Vera Sans', sans-serif; text-anchor: start" x="515.3616" y="220.750687" transform="rotate(-0 515.3616 220.750687)">chicago_police</text>
   </g>
   <g id="text_6">
    <text style="fill: #262626; font: 10px 'Arial', 'Liberation Sans', 'DejaVu Sans', 'Bitstream Vera Sans', sans-serif; text-anchor: middle" x="448.8336" y="220.748528" transform="rotate(-0 448.8336 220.748528)">0.0%</text>
   </g>
   <g id="text_7">
    <text style="fill: #262626; font: 12px 'Arial', 'Liberation Sans', 'DejaVu Sans', 'Bitstream Vera Sans', sans-serif; text-anchor: middle" x="369" y="45.84" transform="rotate(-0 369 45.84)">Incidents by Source</text>
   </g>
  </g>
 </g>
</svg>
