<?xml version="1.0" encoding="utf-8" standalone="no"?>
<!DOCTYPE svg PUBLIC "-//W3C//DTD SVG 1.1//EN"
  "http://www.w3.org/Graphics/SVG/1.1/DTD/svg11.dtd">
<svg xmlns:xlink="http://www.w3.org/1999/xlink" width="720pt" height="432pt" viewBox="0 0 720 432" xmlns="http://www.w3.org/2000/svg" version="1.1">
 <metadata>
  <rdf:RDF xmlns:dc="http://purl.org/dc/elements/1.1/" xmlns:cc="http://creativecommons.org/ns#" xmlns:rdf="http://www.w3.org/1999/02/22-rdf-syntax-ns#">
   <cc:Work>
    <dc:type rdf:resource="http://purl.org/dc/dcmitype/StillImage"/>
    <dc:date>2026-07-19T19:00:25.463543</dc:date>
    <dc:format>image/svg+xml</dc:format>
    <dc:creator>
     <cc:Agent>
      <dc:title>Matplotlib v3.7.5, https://matplotlib.org/</dc:title>
     </cc:Agent>
    </dc:creator>
   </cc:Work>
  </rdf:RDF>
 </metadata>
 <defs>
  <style type="text/css">*{stroke-linejoin: round; stroke-linecap: butt}</style>
 </defs>
 <g id="figure_1">
  <g id="patch_1">
   <path d="M 0 432 
L 720 432 
L 720 0 
L 0 0 
z
" style="fill: #ffffff"/>
  </g>
  <g id="axes_1">
   <g id="matplotlib.axis_1"/>
   <g id="matplotlib.axis_2"/>
   <g id="patch_2">
    <path d="M 502.056 218.16 
C 502.056 200.702162 498.620122 183.41379 491.94467 167.282626 
C 485.269218 151.151463 475.483791 136.490682 463.147463 124.137905 
C 450.811135 111.785128 436.163406 101.980173 420.041152 95.283233 
C 403.918898 88.586292 386.635119 85.127381 369.177297 85.104118 
C 351.719474 85.080856 334.426539 88.493694 318.286495 95.147645 
C 302.14645 101.801596 287.472644 111.56748 275.103439 123.887337 
C 262.734235 136.207194 252.909771 150.841844 246.191354 166.955161 
C 239.472936 183.068477 235.990997 200.347632 235.944472 217.805407 
C 235.897948 235.263183 239.28774 252.560651 245.920179 268.709547 
C 252.552617 284.858443 262.298939 299.54525 274.602304 311.930859 
C 286.905668 324.316469 301.527215 334.160424 317.631564 340.900307 
C 333.735914 347.640189 351.010413 351.14515 368.468112 351.214937 
C 385.92581 351.284724 403.227779 347.917984 419.385499 341.307069 
C 435.543218 334.696155 450.242999 324.969411 462.644992 312.682562 
C 475.046984 300.395712 484.910414 285.787296 491.67175 269.691941 
C 498.433085 253.596587 501.96106 236.326773 502.05411 218.869183 
L 369 218.16 
z
" style="fill: #f77189"/>
   </g>
   <g id="patch_3">
    <path d="M 502.05411 218.869183 
C 502.054734 218.752157 502.055203 218.635129 502.055518 218.518102 
C 502.055833 218.401074 502.055994 218.284046 502.056 218.167018 
L 369 218.16 
z
" style="fill: #bb9832"/>
   </g>
   <g id="patch_4">
    <path d="M 502.056 218.167018 
C 502.056 218.165848 502.056 218.164678 502.056 218.163507 
C 502.056 218.162337 502.056 218.161167 502.056 218.159996 
L 369 218.16 
z
" style="fill: #50b131"/>
   </g>
   <g id="text_1">
    <text style="fill: #262626; font: 10px 'Arial', 'Liberation Sans', 'DejaVu Sans', 'Bitstream Vera Sans', sans-serif; text-anchor: end" x="222.63892" y="220.355885" transform="rotate(-0 222.63892 220.355885)">newsapi</text>
   </g>
   <g id="text_2">
    <text style="fill: #262626; font: 10px 'Arial', 'Liberation Sans', 'DejaVu Sans', 'Bitstream Vera Sans', sans-serif; text-anchor: middle" x="289.166683" y="220.533182" transform="rotate(-0 289.166683 220.533182)">99.9%</text>
   </g>
   <g id="text_3">
    <text style="fill: #262626; font: 10px 'Arial', 'Liberation Sans', 'DejaVu Sans', 'Bitstream Vera Sans', sans-serif; text-anchor: start" x="515.36107" y="221.13985" transform="rotate(-0 515.36107 221.13985)">chicago_pd</text>
   </g>
   <g id="text_4">
    <text style="fill: #262626; font: 10px 'Arial', 'Liberation Sans', 'DejaVu Sans', 'Bitstream Vera Sans', sans-serif; text-anchor: middle" x="448.833311" y="220.960799" transform="rotate(-0 448.833311 220.960799)">0.1%</text>
   </g>
   <g id="text_5">
    <text style="fill: #262626; font: 10px 'Arial', 'Liberation Sans', 'DejaVu Sans', 'Bitstream Vera Sans', sans-serif; text-anchor: start" x="515.3616" y="220.749796" transform="rotate(-0 515.3616 220.749796)">chicago_police</text>
   </g>
   <g id="text_6">
    <text style="fill: #262626; font: 10px 'Arial', 'Liberation Sans', 'DejaVu Sans', 'Bitstream Vera Sans', sans-serif; text-anchor: middle" x="448.8336" y="220.748042" transform="rotate(-0 448.8336 220.748042)">0.0%</text>
   </g>
   <g id="text_7">
    <text style="fill: #262626; font: 12px 'Arial', 'Liberation Sans', 'DejaVu Sans', 'Bitstream Vera Sans', sans-serif; text-anchor: middle" x="369" y="45.84" transform="rotate(-0 369 45.84)">Incidents by Source</text>
   </g>
  </g>
 </g>
</svg>
