<?xml version="1.0" encoding="utf-8" standalone="no"?>
<!DOCTYPE svg PUBLIC "-//W3C//DTD SVG 1.1//EN"
  "http://www.w3.org/Graphics/SVG/1.1/DTD/svg11.dtd">
<svg xmlns:xlink="http://www.w3.org/1999/xlink" width="720pt" height="432pt" viewBox="0 0 720 432" xmlns="http://www.w3.org/2000/svg" version="1.1">
 <metadata>
  <rdf:RDF xmlns:dc="http://purl.org/dc/elements/1.1/" xmlns:cc="http://creativecommons.org/ns#" xmlns:rdf="http://www.w3.org/1999/02/22-rdf-syntax-ns#">
   <cc:Work>
    <dc:type rdf:resource="http://purl.org/dc/dcmitype/StillImage"/>
    <dc:date>2025-04-23T01:05:39.132275</dc:date>
    <dc:format>image/svg+xml</dc:format>
    <dc:creator>
     <cc:Agent>
      <dc:title>Matplotlib v3.7.5, https://matplotlib.org/</dc:title>
     </cc:Agent>
    </dc:creator>
   </cc:Work>
  </rdf:RDF>
 </metadata>
 <defs>
  <style type="text/css">*{stroke-linejoin: round; stroke-linecap: butt}</style>
 </defs>
 <g id="figure_1">
  <g id="patch_1">
   <path d="M 0 432 
L 720 432 
L 720 0 
L 0 0 
z
" style="fill: #ffffff"/>
  </g>
  <g id="axes_1">
   <g id="matplotlib.axis_1"/>
   <g id="matplotlib.axis_2"/>
   <g id="patch_2">
    <path d="M 502.056 218.16 
C 502.056 200.751016 498.639325 183.510075 492.000108 167.416799 
C 485.360892 151.323523 475.627307 136.688598 463.35241 124.343573 
C 451.077512 111.998548 436.498276 102.181749 420.443083 95.45096 
C 404.38789 88.720172 387.166693 85.205334 369.757991 85.106159 
C 352.349289 85.006984 335.089165 88.325386 318.958327 94.872814 
C 302.82749 101.420243 288.137353 111.070299 275.722601 123.27467 
C 263.307849 135.479041 253.408154 150.002117 246.586012 166.018705 
C 239.763869 182.035294 236.150983 199.236188 235.952636 216.644042 
C 235.754289 234.051897 238.97431 251.330646 245.429738 267.49852 
C 251.885167 283.666395 261.451379 298.411268 273.584828 310.895345 
C 285.718277 323.379421 300.184721 333.361689 316.162186 340.274964 
C 332.13965 347.188239 349.319683 350.899056 366.726125 351.196569 
C 384.132567 351.494082 401.429379 348.372546 417.633767 342.009327 
C 433.838155 335.646108 448.637285 326.16405 461.19028 314.101917 
C 473.743275 302.039784 483.807794 287.630441 490.811977 271.692619 
C 497.81616 255.754798 501.624788 238.596183 502.021456 221.191719 
L 369 218.16 
z
" style="fill: #f77189"/>
   </g>
   <g id="patch_3">
    <path d="M 502.021456 221.191719 
C 502.032856 220.691521 502.041435 220.191262 502.047192 219.690968 
C 502.052949 219.190673 502.055884 218.69035 502.055997 218.190022 
L 369 218.16 
z
" style="fill: #bb9832"/>
   </g>
   <g id="patch_4">
    <path d="M 502.055997 218.190022 
C 502.055998 218.185019 502.055999 218.180016 502.055999 218.175012 
C 502.056 218.170009 502.056 218.165006 502.056 218.160003 
L 369 218.16 
z
" style="fill: #50b131"/>
   </g>
   <g id="text_1">
    <text style="fill: #262626; font: 10px 'Arial', 'Liberation Sans', 'DejaVu Sans', 'Bitstream Vera Sans', sans-serif; text-anchor: end" x="222.6479" y="219.078384" transform="rotate(-0 222.6479 219.078384)">newsapi</text>
   </g>
   <g id="text_2">
    <text style="fill: #262626; font: 10px 'Arial', 'Liberation Sans', 'DejaVu Sans', 'Bitstream Vera Sans', sans-serif; text-anchor: middle" x="289.171582" y="219.836363" transform="rotate(-0 289.171582 219.836363)">99.6%</text>
   </g>
   <g id="text_3">
    <text style="fill: #262626; font: 10px 'Arial', 'Liberation Sans', 'DejaVu Sans', 'Bitstream Vera Sans', sans-serif; text-anchor: start" x="515.351911" y="222.430002" transform="rotate(-0 515.351911 222.430002)">chicago_pd</text>
   </g>
   <g id="text_4">
    <text style="fill: #262626; font: 10px 'Arial', 'Liberation Sans', 'DejaVu Sans', 'Bitstream Vera Sans', sans-serif; text-anchor: middle" x="448.828315" y="221.664518" transform="rotate(-0 448.828315 221.664518)">0.4%</text>
   </g>
   <g id="text_5">
    <text style="fill: #262626; font: 10px 'Arial', 'Liberation Sans', 'DejaVu Sans', 'Bitstream Vera Sans', sans-serif; text-anchor: start" x="515.361599" y="220.762451" transform="rotate(-0 515.361599 220.762451)">chicago_police</text>
   </g>
   <g id="text_6">
    <text style="fill: #262626; font: 10px 'Arial', 'Liberation Sans', 'DejaVu Sans', 'Bitstream Vera Sans', sans-serif; text-anchor: middle" x="448.833599" y="220.754945" transform="rotate(-0 448.833599 220.754945)">0.0%</text>
   </g>
   <g id="text_7">
    <text style="fill: #262626; font: 12px 'Arial', 'Liberation Sans', 'DejaVu Sans', 'Bitstream Vera Sans', sans-serif; text-anchor: middle" x="369" y="45.84" transform="rotate(-0 369 45.84)">Incidents by Source</text>
   </g>
  </g>
 </g>
</svg>
