<?xml version="1.0" encoding="utf-8" standalone="no"?>
<!DOCTYPE svg PUBLIC "-//W3C//DTD SVG 1.1//EN"
  "http://www.w3.org/Graphics/SVG/1.1/DTD/svg11.dtd">
<svg xmlns:xlink="http://www.w3.org/1999/xlink" width="720pt" height="432pt" viewBox="0 0 720 432" xmlns="http://www.w3.org/2000/svg" version="1.1">
 <metadata>
  <rdf:RDF xmlns:dc="http://purl.org/dc/elements/1.1/" xmlns:cc="http://creativecommons.org/ns#" xmlns:rdf="http://www.w3.org/1999/02/22-rdf-syntax-ns#">
   <cc:Work>
    <dc:type rdf:resource="http://purl.org/dc/dcmitype/StillImage"/>
    <dc:date>2026-02-06T02:33:11.711182</dc:date>
    <dc:format>image/svg+xml</dc:format>
    <dc:creator>
     <cc:Agent>
      <dc:title>Matplotlib v3.7.5, https://matplotlib.org/</dc:title>
     </cc:Agent>
    </dc:creator>
   </cc:Work>
  </rdf:RDF>
 </metadata>
 <defs>
  <style type="text/css">*{stroke-linejoin: round; stroke-linecap: butt}</style>
 </defs>
 <g id="figure_1">
  <g id="patch_1">
   <path d="M 0 432 
L 720 432 
L 720 0 
L 0 0 
z
" style="fill: #ffffff"/>
  </g>
  <g id="axes_1">
   <g id="matplotlib.axis_1"/>
   <g id="matplotlib.axis_2"/>
   <g id="patch_2">
    <path d="M 502.056 218.16 
C 502.056 200.707605 498.622264 183.424516 491.950854 167.297571 
C 485.279443 151.170625 475.499797 136.512719 463.170317 124.160795 
C 450.840837 111.808871 436.200741 102.002583 420.085956 95.301853 
C 403.97117 88.601123 386.694355 85.135961 369.241989 85.10422 
C 351.789623 85.072479 334.500318 88.474777 318.361265 95.116846 
C 302.222213 101.758916 287.546545 111.511888 275.172218 123.818883 
C 262.797891 136.125877 252.964993 150.748114 246.234966 166.850687 
C 239.50494 182.953259 236.008361 200.223744 235.94488 217.676023 
C 235.881399 235.128303 239.252247 252.423767 245.864953 268.574873 
C 252.47766 284.725978 262.203925 299.41936 274.488394 311.816049 
C 286.772864 324.212738 301.377193 334.072213 317.467499 340.831515 
C 333.557805 347.590816 350.821902 351.118798 368.274037 351.21402 
C 385.726172 351.309241 403.027738 347.969854 419.190844 341.386533 
C 435.353949 334.803211 450.064995 325.103685 462.484006 312.841782 
C 474.903016 300.579878 484.789036 285.993504 491.57759 269.915518 
C 498.366143 253.837532 501.925518 236.57988 502.052479 219.127947 
L 369 218.16 
z
" style="fill: #f77189"/>
   </g>
   <g id="patch_3">
    <path d="M 502.052479 219.127947 
C 502.053641 218.968223 502.054516 218.808497 502.055102 218.648769 
C 502.055689 218.489042 502.055988 218.329313 502.056 218.169585 
L 369 218.16 
z
" style="fill: #bb9832"/>
   </g>
   <g id="patch_4">
    <path d="M 502.056 218.169585 
C 502.056 218.167988 502.056 218.16639 502.056 218.164793 
C 502.056 218.163196 502.056 218.161599 502.056 218.160001 
L 369 218.16 
z
" style="fill: #50b131"/>
   </g>
   <g id="text_1">
    <text style="fill: #262626; font: 10px 'Arial', 'Liberation Sans', 'DejaVu Sans', 'Bitstream Vera Sans', sans-serif; text-anchor: end" x="222.639368" y="220.213563" transform="rotate(-0 222.639368 220.213563)">newsapi</text>
   </g>
   <g id="text_2">
    <text style="fill: #262626; font: 10px 'Arial', 'Liberation Sans', 'DejaVu Sans', 'Bitstream Vera Sans', sans-serif; text-anchor: middle" x="289.166928" y="220.455551" transform="rotate(-0 289.166928 220.455551)">99.9%</text>
   </g>
   <g id="text_3">
    <text style="fill: #262626; font: 10px 'Arial', 'Liberation Sans', 'DejaVu Sans', 'Bitstream Vera Sans', sans-serif; text-anchor: start" x="515.360612" y="221.283584" transform="rotate(-0 515.360612 221.283584)">chicago_pd</text>
   </g>
   <g id="text_4">
    <text style="fill: #262626; font: 10px 'Arial', 'Liberation Sans', 'DejaVu Sans', 'Bitstream Vera Sans', sans-serif; text-anchor: middle" x="448.833061" y="221.039199" transform="rotate(-0 448.833061 221.039199)">0.1%</text>
   </g>
   <g id="text_5">
    <text style="fill: #262626; font: 10px 'Arial', 'Liberation Sans', 'DejaVu Sans', 'Bitstream Vera Sans', sans-serif; text-anchor: start" x="515.3616" y="220.75121" transform="rotate(-0 515.3616 220.75121)">chicago_police</text>
   </g>
   <g id="text_6">
    <text style="fill: #262626; font: 10px 'Arial', 'Liberation Sans', 'DejaVu Sans', 'Bitstream Vera Sans', sans-serif; text-anchor: middle" x="448.8336" y="220.748813" transform="rotate(-0 448.8336 220.748813)">0.0%</text>
   </g>
   <g id="text_7">
    <text style="fill: #262626; font: 12px 'Arial', 'Liberation Sans', 'DejaVu Sans', 'Bitstream Vera Sans', sans-serif; text-anchor: middle" x="369" y="45.84" transform="rotate(-0 369 45.84)">Incidents by Source</text>
   </g>
  </g>
 </g>
</svg>
