<?xml version="1.0" encoding="utf-8" standalone="no"?>
<!DOCTYPE svg PUBLIC "-//W3C//DTD SVG 1.1//EN"
  "http://www.w3.org/Graphics/SVG/1.1/DTD/svg11.dtd">
<svg xmlns:xlink="http://www.w3.org/1999/xlink" width="720pt" height="432pt" viewBox="0 0 720 432" xmlns="http://www.w3.org/2000/svg" version="1.1">
 <metadata>
  <rdf:RDF xmlns:dc="http://purl.org/dc/elements/1.1/" xmlns:cc="http://creativecommons.org/ns#" xmlns:rdf="http://www.w3.org/1999/02/22-rdf-syntax-ns#">
   <cc:Work>
    <dc:type rdf:resource="http://purl.org/dc/dcmitype/StillImage"/>
    <dc:date>2026-03-08T06:36:47.340929</dc:date>
    <dc:format>image/svg+xml</dc:format>
    <dc:creator>
     <cc:Agent>
      <dc:title>Matplotlib v3.7.5, https://matplotlib.org/</dc:title>
     </cc:Agent>
    </dc:creator>
   </cc:Work>
  </rdf:RDF>
 </metadata>
 <defs>
  <style type="text/css">*{stroke-linejoin: round; stroke-linecap: butt}</style>
 </defs>
 <g id="figure_1">
  <g id="patch_1">
   <path d="M 0 432 
L 720 432 
L 720 0 
L 0 0 
z
" style="fill: #ffffff"/>
  </g>
  <g id="axes_1">
   <g id="matplotlib.axis_1"/>
   <g id="matplotlib.axis_2"/>
   <g id="patch_2">
    <path d="M 502.056 218.16 
C 502.056 200.706344 498.621768 183.422031 491.949421 167.294109 
C 485.277075 151.166186 475.496089 136.507614 463.165023 124.155492 
C 450.833957 111.80337 436.192093 101.99739 420.075577 95.297538 
C 403.959061 88.597686 386.680633 85.133971 369.227002 85.104194 
C 351.773372 85.074417 334.483225 88.479155 318.343942 95.123977 
C 302.20466 101.768799 287.529422 111.524761 275.15628 123.834736 
C 262.783139 136.144711 252.952194 150.769824 246.224855 166.874886 
C 239.497517 182.979948 236.004329 200.252442 235.944775 217.705996 
C 235.88522 235.15955 239.260456 252.455481 245.877733 268.606076 
C 252.495011 284.756672 262.225922 299.448533 274.51477 311.842658 
C 286.803617 324.236783 301.411937 334.092665 317.505498 340.84747 
C 333.599059 347.602275 350.865568 351.124926 368.318996 351.214257 
C 385.772423 351.303588 403.074086 347.957865 419.235948 341.368152 
C 435.39781 334.778438 450.106251 325.072606 462.521324 312.804922 
C 474.936396 300.537237 484.817187 285.945754 491.599439 269.86374 
C 498.381691 253.781726 501.933794 236.521252 502.052902 219.068003 
L 369 218.16 
z
" style="fill: #f77189"/>
   </g>
   <g id="patch_3">
    <path d="M 502.052902 219.068003 
C 502.053924 218.918171 502.054694 218.768338 502.05521 218.618504 
C 502.055726 218.46867 502.05599 218.318835 502.056 218.169001 
L 369 218.16 
z
" style="fill: #bb9832"/>
   </g>
   <g id="patch_4">
    <path d="M 502.056 218.169001 
C 502.056 218.167502 502.056 218.166004 502.056 218.164506 
C 502.056 218.163007 502.056 218.161509 502.056 218.160011 
L 369 218.16 
z
" style="fill: #50b131"/>
   </g>
   <g id="text_1">
    <text style="fill: #262626; font: 10px 'Arial', 'Liberation Sans', 'DejaVu Sans', 'Bitstream Vera Sans', sans-serif; text-anchor: end" x="222.639252" y="220.246533" transform="rotate(-0 222.639252 220.246533)">newsapi</text>
   </g>
   <g id="text_2">
    <text style="fill: #262626; font: 10px 'Arial', 'Liberation Sans', 'DejaVu Sans', 'Bitstream Vera Sans', sans-serif; text-anchor: middle" x="289.166865" y="220.473535" transform="rotate(-0 289.166865 220.473535)">99.9%</text>
   </g>
   <g id="text_3">
    <text style="fill: #262626; font: 10px 'Arial', 'Liberation Sans', 'DejaVu Sans', 'Bitstream Vera Sans', sans-serif; text-anchor: start" x="515.360731" y="221.250292" transform="rotate(-0 515.360731 221.250292)">chicago_pd</text>
   </g>
   <g id="text_4">
    <text style="fill: #262626; font: 10px 'Arial', 'Liberation Sans', 'DejaVu Sans', 'Bitstream Vera Sans', sans-serif; text-anchor: middle" x="448.833126" y="221.02104" transform="rotate(-0 448.833126 221.02104)">0.1%</text>
   </g>
   <g id="text_5">
    <text style="fill: #262626; font: 10px 'Arial', 'Liberation Sans', 'DejaVu Sans', 'Bitstream Vera Sans', sans-serif; text-anchor: start" x="515.3616" y="220.750894" transform="rotate(-0 515.3616 220.750894)">chicago_police</text>
   </g>
   <g id="text_6">
    <text style="fill: #262626; font: 10px 'Arial', 'Liberation Sans', 'DejaVu Sans', 'Bitstream Vera Sans', sans-serif; text-anchor: middle" x="448.8336" y="220.748641" transform="rotate(-0 448.8336 220.748641)">0.0%</text>
   </g>
   <g id="text_7">
    <text style="fill: #262626; font: 12px 'Arial', 'Liberation Sans', 'DejaVu Sans', 'Bitstream Vera Sans', sans-serif; text-anchor: middle" x="369" y="45.84" transform="rotate(-0 369 45.84)">Incidents by Source</text>
   </g>
  </g>
 </g>
</svg>
