<?xml version="1.0" encoding="utf-8" standalone="no"?>
<!DOCTYPE svg PUBLIC "-//W3C//DTD SVG 1.1//EN"
  "http://www.w3.org/Graphics/SVG/1.1/DTD/svg11.dtd">
<svg xmlns:xlink="http://www.w3.org/1999/xlink" width="720pt" height="432pt" viewBox="0 0 720 432" xmlns="http://www.w3.org/2000/svg" version="1.1">
 <metadata>
  <rdf:RDF xmlns:dc="http://purl.org/dc/elements/1.1/" xmlns:cc="http://creativecommons.org/ns#" xmlns:rdf="http://www.w3.org/1999/02/22-rdf-syntax-ns#">
   <cc:Work>
    <dc:type rdf:resource="http://purl.org/dc/dcmitype/StillImage"/>
    <dc:date>2026-05-17T03:55:13.271693</dc:date>
    <dc:format>image/svg+xml</dc:format>
    <dc:creator>
     <cc:Agent>
      <dc:title>Matplotlib v3.7.5, https://matplotlib.org/</dc:title>
     </cc:Agent>
    </dc:creator>
   </cc:Work>
  </rdf:RDF>
 </metadata>
 <defs>
  <style type="text/css">*{stroke-linejoin: round; stroke-linecap: butt}</style>
 </defs>
 <g id="figure_1">
  <g id="patch_1">
   <path d="M 0 432 
L 720 432 
L 720 0 
L 0 0 
z
" style="fill: #ffffff"/>
  </g>
  <g id="axes_1">
   <g id="matplotlib.axis_1"/>
   <g id="matplotlib.axis_2"/>
   <g id="patch_2">
    <path d="M 502.056 218.16 
C 502.056 200.704115 498.620891 183.417638 491.946889 167.287987 
C 485.272887 151.158337 475.489534 136.498587 463.155662 124.146116 
C 450.821791 111.793645 436.176801 101.988211 420.057226 95.289911 
C 403.937651 88.59161 386.65637 85.130456 369.200505 85.104151 
C 351.74464 85.077846 334.453006 88.486902 318.313317 95.136591 
C 302.173627 101.786279 287.499152 111.54753 275.128108 123.862773 
C 262.757065 136.178016 252.929574 150.808213 246.20699 166.917676 
C 239.484406 183.027139 235.997214 200.303185 235.944604 217.75899 
C 235.891995 235.214796 239.27499 252.511548 245.900349 268.661239 
C 252.525709 284.810931 262.264836 299.500099 274.561422 311.889687 
C 286.858009 324.279274 301.473381 334.128801 317.572695 340.875653 
C 333.672009 347.622505 350.94278 351.135727 368.398487 351.21464 
C 385.854193 351.293554 403.156023 347.936628 419.31568 341.335612 
C 435.475337 334.734597 450.179165 325.017616 462.587269 312.739714 
C 474.995372 300.461811 484.866912 285.861299 491.638016 269.77217 
C 498.409121 253.683041 501.948365 236.417584 502.053583 218.962016 
L 369 218.16 
z
" style="fill: #f77189"/>
   </g>
   <g id="patch_3">
    <path d="M 502.053583 218.962016 
C 502.054381 218.82967 502.054981 218.697323 502.055384 218.564976 
C 502.055787 218.432629 502.055992 218.300281 502.056 218.167933 
L 369 218.16 
z
" style="fill: #bb9832"/>
   </g>
   <g id="patch_4">
    <path d="M 502.056 218.167933 
C 502.056 218.166609 502.056 218.165286 502.056 218.163962 
C 502.056 218.162639 502.056 218.161315 502.056 218.159992 
L 369 218.16 
z
" style="fill: #50b131"/>
   </g>
   <g id="text_1">
    <text style="fill: #262626; font: 10px 'Arial', 'Liberation Sans', 'DejaVu Sans', 'Bitstream Vera Sans', sans-serif; text-anchor: end" x="222.639065" y="220.304827" transform="rotate(-0 222.639065 220.304827)">newsapi</text>
   </g>
   <g id="text_2">
    <text style="fill: #262626; font: 10px 'Arial', 'Liberation Sans', 'DejaVu Sans', 'Bitstream Vera Sans', sans-serif; text-anchor: middle" x="289.166763" y="220.505332" transform="rotate(-0 289.166763 220.505332)">99.9%</text>
   </g>
   <g id="text_3">
    <text style="fill: #262626; font: 10px 'Arial', 'Liberation Sans', 'DejaVu Sans', 'Bitstream Vera Sans', sans-serif; text-anchor: start" x="515.360922" y="221.191411" transform="rotate(-0 515.360922 221.191411)">chicago_pd</text>
   </g>
   <g id="text_4">
    <text style="fill: #262626; font: 10px 'Arial', 'Liberation Sans', 'DejaVu Sans', 'Bitstream Vera Sans', sans-serif; text-anchor: middle" x="448.83323" y="220.988923" transform="rotate(-0 448.83323 220.988923)">0.1%</text>
   </g>
   <g id="text_5">
    <text style="fill: #262626; font: 10px 'Arial', 'Liberation Sans', 'DejaVu Sans', 'Bitstream Vera Sans', sans-serif; text-anchor: start" x="515.3616" y="220.750296" transform="rotate(-0 515.3616 220.750296)">chicago_police</text>
   </g>
   <g id="text_6">
    <text style="fill: #262626; font: 10px 'Arial', 'Liberation Sans', 'DejaVu Sans', 'Bitstream Vera Sans', sans-serif; text-anchor: middle" x="448.8336" y="220.748315" transform="rotate(-0 448.8336 220.748315)">0.0%</text>
   </g>
   <g id="text_7">
    <text style="fill: #262626; font: 12px 'Arial', 'Liberation Sans', 'DejaVu Sans', 'Bitstream Vera Sans', sans-serif; text-anchor: middle" x="369" y="45.84" transform="rotate(-0 369 45.84)">Incidents by Source</text>
   </g>
  </g>
 </g>
</svg>
