<?xml version="1.0" encoding="utf-8" standalone="no"?>
<!DOCTYPE svg PUBLIC "-//W3C//DTD SVG 1.1//EN"
  "http://www.w3.org/Graphics/SVG/1.1/DTD/svg11.dtd">
<svg xmlns:xlink="http://www.w3.org/1999/xlink" width="720pt" height="432pt" viewBox="0 0 720 432" xmlns="http://www.w3.org/2000/svg" version="1.1">
 <metadata>
  <rdf:RDF xmlns:dc="http://purl.org/dc/elements/1.1/" xmlns:cc="http://creativecommons.org/ns#" xmlns:rdf="http://www.w3.org/1999/02/22-rdf-syntax-ns#">
   <cc:Work>
    <dc:type rdf:resource="http://purl.org/dc/dcmitype/StillImage"/>
    <dc:date>2026-04-06T02:56:47.414642</dc:date>
    <dc:format>image/svg+xml</dc:format>
    <dc:creator>
     <cc:Agent>
      <dc:title>Matplotlib v3.7.5, https://matplotlib.org/</dc:title>
     </cc:Agent>
    </dc:creator>
   </cc:Work>
  </rdf:RDF>
 </metadata>
 <defs>
  <style type="text/css">*{stroke-linejoin: round; stroke-linecap: butt}</style>
 </defs>
 <g id="figure_1">
  <g id="patch_1">
   <path d="M 0 432 
L 720 432 
L 720 0 
L 0 0 
z
" style="fill: #ffffff"/>
  </g>
  <g id="axes_1">
   <g id="matplotlib.axis_1"/>
   <g id="matplotlib.axis_2"/>
   <g id="patch_2">
    <path d="M 502.056 218.16 
C 502.056 200.705462 498.621421 183.420292 491.948419 167.291685 
C 485.275417 151.163079 475.493494 136.50404 463.161318 124.15178 
C 450.829141 111.79952 436.18604 101.993757 420.068313 95.294518 
C 403.950586 88.59528 386.671028 85.132579 369.216513 85.104176 
C 351.761998 85.075774 334.471262 88.482221 318.331818 95.128969 
C 302.192375 101.775717 287.517438 111.533774 275.145127 123.845834 
C 262.772816 136.157894 252.943238 150.78502 246.217781 166.891824 
C 239.492325 182.998628 236.00151 200.272529 235.944705 217.726975 
C 235.8879 235.18142 239.266207 252.477676 245.886683 268.627914 
C 252.50716 284.778153 262.241324 299.468948 274.533235 311.861278 
C 286.825146 324.253607 301.436258 334.106974 317.532097 340.858631 
C 333.627936 347.610288 350.896133 351.129207 368.350463 351.214415 
C 385.804794 351.299622 403.106524 347.949464 419.267514 341.355277 
C 435.428504 334.761089 450.13512 325.050844 462.547434 312.779114 
C 474.959749 300.507384 484.836879 285.912326 491.614718 269.827494 
C 498.392558 253.742663 501.939572 236.480215 502.053181 219.026046 
L 369 218.16 
z
" style="fill: #f77189"/>
   </g>
   <g id="patch_3">
    <path d="M 502.053181 219.026046 
C 502.054112 218.883138 502.054812 218.740228 502.055281 218.597317 
C 502.055751 218.454406 502.055991 218.311495 502.056 218.168583 
L 369 218.16 
z
" style="fill: #bb9832"/>
   </g>
   <g id="patch_4">
    <path d="M 502.056 218.168583 
C 502.056 218.167154 502.056 218.165725 502.056 218.164296 
C 502.056 218.162867 502.056 218.161438 502.056 218.160008 
L 369 218.16 
z
" style="fill: #50b131"/>
   </g>
   <g id="text_1">
    <text style="fill: #262626; font: 10px 'Arial', 'Liberation Sans', 'DejaVu Sans', 'Bitstream Vera Sans', sans-serif; text-anchor: end" x="222.639175" y="220.269609" transform="rotate(-0 222.639175 220.269609)">newsapi</text>
   </g>
   <g id="text_2">
    <text style="fill: #262626; font: 10px 'Arial', 'Liberation Sans', 'DejaVu Sans', 'Bitstream Vera Sans', sans-serif; text-anchor: middle" x="289.166823" y="220.486122" transform="rotate(-0 289.166823 220.486122)">99.9%</text>
   </g>
   <g id="text_3">
    <text style="fill: #262626; font: 10px 'Arial', 'Liberation Sans', 'DejaVu Sans', 'Bitstream Vera Sans', sans-serif; text-anchor: start" x="515.360809" y="221.226986" transform="rotate(-0 515.360809 221.226986)">chicago_pd</text>
   </g>
   <g id="text_4">
    <text style="fill: #262626; font: 10px 'Arial', 'Liberation Sans', 'DejaVu Sans', 'Bitstream Vera Sans', sans-serif; text-anchor: middle" x="448.833169" y="221.008328" transform="rotate(-0 448.833169 221.008328)">0.1%</text>
   </g>
   <g id="text_5">
    <text style="fill: #262626; font: 10px 'Arial', 'Liberation Sans', 'DejaVu Sans', 'Bitstream Vera Sans', sans-serif; text-anchor: start" x="515.3616" y="220.750663" transform="rotate(-0 515.3616 220.750663)">chicago_police</text>
   </g>
   <g id="text_6">
    <text style="fill: #262626; font: 10px 'Arial', 'Liberation Sans', 'DejaVu Sans', 'Bitstream Vera Sans', sans-serif; text-anchor: middle" x="448.8336" y="220.748515" transform="rotate(-0 448.8336 220.748515)">0.0%</text>
   </g>
   <g id="text_7">
    <text style="fill: #262626; font: 12px 'Arial', 'Liberation Sans', 'DejaVu Sans', 'Bitstream Vera Sans', sans-serif; text-anchor: middle" x="369" y="45.84" transform="rotate(-0 369 45.84)">Incidents by Source</text>
   </g>
  </g>
 </g>
</svg>
