<?xml version="1.0" encoding="utf-8" standalone="no"?>
<!DOCTYPE svg PUBLIC "-//W3C//DTD SVG 1.1//EN"
  "http://www.w3.org/Graphics/SVG/1.1/DTD/svg11.dtd">
<svg xmlns:xlink="http://www.w3.org/1999/xlink" width="720pt" height="432pt" viewBox="0 0 720 432" xmlns="http://www.w3.org/2000/svg" version="1.1">
 <metadata>
  <rdf:RDF xmlns:dc="http://purl.org/dc/elements/1.1/" xmlns:cc="http://creativecommons.org/ns#" xmlns:rdf="http://www.w3.org/1999/02/22-rdf-syntax-ns#">
   <cc:Work>
    <dc:type rdf:resource="http://purl.org/dc/dcmitype/StillImage"/>
    <dc:date>2026-05-29T09:43:38.871068</dc:date>
    <dc:format>image/svg+xml</dc:format>
    <dc:creator>
     <cc:Agent>
      <dc:title>Matplotlib v3.7.5, https://matplotlib.org/</dc:title>
     </cc:Agent>
    </dc:creator>
   </cc:Work>
  </rdf:RDF>
 </metadata>
 <defs>
  <style type="text/css">*{stroke-linejoin: round; stroke-linecap: butt}</style>
 </defs>
 <g id="figure_1">
  <g id="patch_1">
   <path d="M 0 432 
L 720 432 
L 720 0 
L 0 0 
z
" style="fill: #ffffff"/>
  </g>
  <g id="axes_1">
   <g id="matplotlib.axis_1"/>
   <g id="matplotlib.axis_2"/>
   <g id="patch_2">
    <path d="M 502.056 218.16 
C 502.056 200.703741 498.620744 183.4169 491.946464 167.28696 
C 485.272184 151.15702 475.488433 136.497072 463.154091 124.144543 
C 450.819749 111.792013 436.174234 101.986671 420.054146 95.288631 
C 403.934058 88.590591 386.652298 85.129866 369.196058 85.104144 
C 351.739817 85.078423 334.447934 88.488203 318.308177 95.138708 
C 302.168419 101.789214 287.494072 111.551352 275.12338 123.867479 
C 262.752689 136.183607 252.925778 150.814658 246.203993 166.924859 
C 239.482207 183.03506 235.996021 200.311702 235.944578 217.767885 
C 235.893134 235.224069 239.277432 252.520957 245.904148 268.670497 
C 252.530864 284.820036 262.271369 299.508752 274.569255 311.897578 
C 286.86714 324.286403 301.483696 334.134863 317.583975 340.880379 
C 333.684254 347.625896 350.95574 351.137535 368.411829 351.2147 
C 385.867917 351.291865 403.169774 347.933058 419.329061 341.330146 
C 435.488347 334.727233 450.1914 325.008382 462.598333 312.728765 
C 475.005266 300.449147 484.875252 285.84712 491.644485 269.756797 
C 498.413718 253.666475 501.950802 236.400182 502.053689 218.944226 
L 369 218.16 
z
" style="fill: #f77189"/>
   </g>
   <g id="patch_3">
    <path d="M 502.053689 218.944226 
C 502.054452 218.814815 502.055026 218.685402 502.055411 218.555989 
C 502.055796 218.426576 502.055992 218.297162 502.056 218.167748 
L 369 218.16 
z
" style="fill: #bb9832"/>
   </g>
   <g id="patch_4">
    <path d="M 502.056 218.167748 
C 502.056 218.166454 502.056 218.16516 502.056 218.163866 
C 502.056 218.162572 502.056 218.161278 502.056 218.159984 
L 369 218.16 
z
" style="fill: #50b131"/>
   </g>
   <g id="text_1">
    <text style="fill: #262626; font: 10px 'Arial', 'Liberation Sans', 'DejaVu Sans', 'Bitstream Vera Sans', sans-serif; text-anchor: end" x="222.639036" y="220.314611" transform="rotate(-0 222.639036 220.314611)">newsapi</text>
   </g>
   <g id="text_2">
    <text style="fill: #262626; font: 10px 'Arial', 'Liberation Sans', 'DejaVu Sans', 'Bitstream Vera Sans', sans-serif; text-anchor: middle" x="289.166747" y="220.510669" transform="rotate(-0 289.166747 220.510669)">99.9%</text>
   </g>
   <g id="text_3">
    <text style="fill: #262626; font: 10px 'Arial', 'Liberation Sans', 'DejaVu Sans', 'Bitstream Vera Sans', sans-serif; text-anchor: start" x="515.360952" y="221.181525" transform="rotate(-0 515.360952 221.181525)">chicago_pd</text>
   </g>
   <g id="text_4">
    <text style="fill: #262626; font: 10px 'Arial', 'Liberation Sans', 'DejaVu Sans', 'Bitstream Vera Sans', sans-serif; text-anchor: middle" x="448.833246" y="220.983531" transform="rotate(-0 448.833246 220.983531)">0.1%</text>
   </g>
   <g id="text_5">
    <text style="fill: #262626; font: 10px 'Arial', 'Liberation Sans', 'DejaVu Sans', 'Bitstream Vera Sans', sans-serif; text-anchor: start" x="515.3616" y="220.75019" transform="rotate(-0 515.3616 220.75019)">chicago_police</text>
   </g>
   <g id="text_6">
    <text style="fill: #262626; font: 10px 'Arial', 'Liberation Sans', 'DejaVu Sans', 'Bitstream Vera Sans', sans-serif; text-anchor: middle" x="448.8336" y="220.748257" transform="rotate(-0 448.8336 220.748257)">0.0%</text>
   </g>
   <g id="text_7">
    <text style="fill: #262626; font: 12px 'Arial', 'Liberation Sans', 'DejaVu Sans', 'Bitstream Vera Sans', sans-serif; text-anchor: middle" x="369" y="45.84" transform="rotate(-0 369 45.84)">Incidents by Source</text>
   </g>
  </g>
 </g>
</svg>
