<?xml version="1.0" encoding="utf-8" standalone="no"?>
<!DOCTYPE svg PUBLIC "-//W3C//DTD SVG 1.1//EN"
  "http://www.w3.org/Graphics/SVG/1.1/DTD/svg11.dtd">
<svg xmlns:xlink="http://www.w3.org/1999/xlink" width="720pt" height="432pt" viewBox="0 0 720 432" xmlns="http://www.w3.org/2000/svg" version="1.1">
 <metadata>
  <rdf:RDF xmlns:dc="http://purl.org/dc/elements/1.1/" xmlns:cc="http://creativecommons.org/ns#" xmlns:rdf="http://www.w3.org/1999/02/22-rdf-syntax-ns#">
   <cc:Work>
    <dc:type rdf:resource="http://purl.org/dc/dcmitype/StillImage"/>
    <dc:date>2026-04-23T13:57:41.561759</dc:date>
    <dc:format>image/svg+xml</dc:format>
    <dc:creator>
     <cc:Agent>
      <dc:title>Matplotlib v3.7.5, https://matplotlib.org/</dc:title>
     </cc:Agent>
    </dc:creator>
   </cc:Work>
  </rdf:RDF>
 </metadata>
 <defs>
  <style type="text/css">*{stroke-linejoin: round; stroke-linecap: butt}</style>
 </defs>
 <g id="figure_1">
  <g id="patch_1">
   <path d="M 0 432 
L 720 432 
L 720 0 
L 0 0 
z
" style="fill: #ffffff"/>
  </g>
  <g id="axes_1">
   <g id="matplotlib.axis_1"/>
   <g id="matplotlib.axis_2"/>
   <g id="patch_2">
    <path d="M 502.056 218.16 
C 502.056 200.704929 498.621211 183.419243 491.947814 167.290224 
C 485.274417 151.161204 475.491928 136.501885 463.159082 124.149541 
C 450.826236 111.797197 436.182387 101.991564 420.06393 95.292697 
C 403.945473 88.593829 386.665234 85.131739 369.210185 85.104166 
C 351.755136 85.076593 334.464045 88.484071 318.324504 95.131982 
C 302.184963 101.779892 287.510209 111.539212 275.138399 123.85253 
C 262.766588 136.165848 252.937835 150.794189 246.213514 166.902044 
C 239.489193 183.009899 235.99981 200.284648 235.944664 217.739631 
C 235.889518 235.194615 239.269678 252.491067 245.892085 268.641089 
C 252.514492 284.791111 262.250618 299.481264 274.544377 311.87251 
C 286.838137 324.263755 301.450933 334.115604 317.548146 340.865362 
C 333.645359 347.61512 350.914574 351.131786 368.369448 351.214506 
C 385.824323 351.297225 403.126093 347.944392 419.286556 341.347505 
C 435.44702 334.750618 450.152534 325.03771 462.563184 312.76354 
C 474.973834 300.489369 484.848754 285.892155 491.623932 269.805624 
C 498.399109 253.719093 501.943052 236.455455 502.053344 219.000733 
L 369 218.16 
z
" style="fill: #f77189"/>
   </g>
   <g id="patch_3">
    <path d="M 502.053344 219.000733 
C 502.05422 218.861996 502.05488 218.723259 502.055323 218.58452 
C 502.055765 218.445781 502.055991 218.307042 502.056 218.168303 
L 369 218.16 
z
" style="fill: #bb9832"/>
   </g>
   <g id="patch_4">
    <path d="M 502.056 218.168303 
C 502.056 218.166915 502.056 218.165528 502.056 218.16414 
C 502.056 218.162753 502.056 218.161366 502.056 218.159978 
L 369 218.16 
z
" style="fill: #50b131"/>
   </g>
   <g id="text_1">
    <text style="fill: #262626; font: 10px 'Arial', 'Liberation Sans', 'DejaVu Sans', 'Bitstream Vera Sans', sans-serif; text-anchor: end" x="222.63913" y="220.283532" transform="rotate(-0 222.63913 220.283532)">newsapi</text>
   </g>
   <g id="text_2">
    <text style="fill: #262626; font: 10px 'Arial', 'Liberation Sans', 'DejaVu Sans', 'Bitstream Vera Sans', sans-serif; text-anchor: middle" x="289.166798" y="220.493716" transform="rotate(-0 289.166798 220.493716)">99.9%</text>
   </g>
   <g id="text_3">
    <text style="fill: #262626; font: 10px 'Arial', 'Liberation Sans', 'DejaVu Sans', 'Bitstream Vera Sans', sans-serif; text-anchor: start" x="515.360855" y="221.212909" transform="rotate(-0 515.360855 221.212909)">chicago_pd</text>
   </g>
   <g id="text_4">
    <text style="fill: #262626; font: 10px 'Arial', 'Liberation Sans', 'DejaVu Sans', 'Bitstream Vera Sans', sans-serif; text-anchor: middle" x="448.833194" y="221.000649" transform="rotate(-0 448.833194 221.000649)">0.1%</text>
   </g>
   <g id="text_5">
    <text style="fill: #262626; font: 10px 'Arial', 'Liberation Sans', 'DejaVu Sans', 'Bitstream Vera Sans', sans-serif; text-anchor: start" x="515.3616" y="220.750492" transform="rotate(-0 515.3616 220.750492)">chicago_police</text>
   </g>
   <g id="text_6">
    <text style="fill: #262626; font: 10px 'Arial', 'Liberation Sans', 'DejaVu Sans', 'Bitstream Vera Sans', sans-serif; text-anchor: middle" x="448.8336" y="220.748422" transform="rotate(-0 448.8336 220.748422)">0.0%</text>
   </g>
   <g id="text_7">
    <text style="fill: #262626; font: 12px 'Arial', 'Liberation Sans', 'DejaVu Sans', 'Bitstream Vera Sans', sans-serif; text-anchor: middle" x="369" y="45.84" transform="rotate(-0 369 45.84)">Incidents by Source</text>
   </g>
  </g>
 </g>
</svg>
