<?xml version="1.0" encoding="utf-8" standalone="no"?>
<!DOCTYPE svg PUBLIC "-//W3C//DTD SVG 1.1//EN"
  "http://www.w3.org/Graphics/SVG/1.1/DTD/svg11.dtd">
<svg xmlns:xlink="http://www.w3.org/1999/xlink" width="720pt" height="432pt" viewBox="0 0 720 432" xmlns="http://www.w3.org/2000/svg" version="1.1">
 <metadata>
  <rdf:RDF xmlns:dc="http://purl.org/dc/elements/1.1/" xmlns:cc="http://creativecommons.org/ns#" xmlns:rdf="http://www.w3.org/1999/02/22-rdf-syntax-ns#">
   <cc:Work>
    <dc:type rdf:resource="http://purl.org/dc/dcmitype/StillImage"/>
    <dc:date>2025-11-12T06:22:44.337129</dc:date>
    <dc:format>image/svg+xml</dc:format>
    <dc:creator>
     <cc:Agent>
      <dc:title>Matplotlib v3.7.5, https://matplotlib.org/</dc:title>
     </cc:Agent>
    </dc:creator>
   </cc:Work>
  </rdf:RDF>
 </metadata>
 <defs>
  <style type="text/css">*{stroke-linejoin: round; stroke-linecap: butt}</style>
 </defs>
 <g id="figure_1">
  <g id="patch_1">
   <path d="M 0 432 
L 720 432 
L 720 0 
L 0 0 
z
" style="fill: #ffffff"/>
  </g>
  <g id="axes_1">
   <g id="matplotlib.axis_1"/>
   <g id="matplotlib.axis_2"/>
   <g id="patch_2">
    <path d="M 502.056 218.16 
C 502.056 200.712592 498.624226 183.434344 491.956517 167.311264 
C 485.288809 151.188184 475.514458 136.532912 463.191252 124.181773 
C 450.868046 111.830633 436.234943 102.023125 420.127001 95.318928 
C 404.019059 88.614731 386.748626 85.143845 369.301262 85.104341 
C 351.853898 85.064837 334.567925 88.457481 318.429789 95.088667 
C 302.291653 101.719854 287.614289 111.460997 275.235279 123.756207 
C 262.856269 136.051416 253.015655 150.662275 246.275003 166.754997 
C 239.534352 182.847718 236.024372 200.110248 235.945364 217.557478 
C 235.866356 235.004707 239.219853 252.298318 245.814483 268.451426 
C 252.409113 284.604535 262.116999 299.303917 274.384149 311.710734 
C 286.651299 324.117551 301.23984 333.991221 317.317258 340.768292 
C 333.394676 347.545363 350.649214 351.094419 368.09622 351.212931 
C 385.543226 351.331442 402.844385 348.017109 419.012384 341.45907 
C 435.180383 334.90103 449.901708 325.226451 462.336268 312.987424 
C 474.770827 300.748397 484.677504 286.182249 491.490959 270.120216 
C 498.304414 254.058184 501.892529 236.811725 502.050543 219.365032 
L 369 218.16 
z
" style="fill: #f77189"/>
   </g>
   <g id="patch_3">
    <path d="M 502.050543 219.365032 
C 502.052344 219.166185 502.053699 218.967334 502.054609 218.768481 
C 502.055518 218.569627 502.055982 218.370772 502.055999 218.171917 
L 369 218.16 
z
" style="fill: #bb9832"/>
   </g>
   <g id="patch_4">
    <path d="M 502.055999 218.171917 
C 502.056 218.169928 502.056 218.16794 502.056 218.165951 
C 502.056 218.163963 502.056 218.161974 502.056 218.159986 
L 369 218.16 
z
" style="fill: #50b131"/>
   </g>
   <g id="text_1">
    <text style="fill: #262626; font: 10px 'Arial', 'Liberation Sans', 'DejaVu Sans', 'Bitstream Vera Sans', sans-serif; text-anchor: end" x="222.639901" y="220.083163" transform="rotate(-0 222.639901 220.083163)">newsapi</text>
   </g>
   <g id="text_2">
    <text style="fill: #262626; font: 10px 'Arial', 'Liberation Sans', 'DejaVu Sans', 'Bitstream Vera Sans', sans-serif; text-anchor: middle" x="289.167219" y="220.384424" transform="rotate(-0 289.167219 220.384424)">99.9%</text>
   </g>
   <g id="text_3">
    <text style="fill: #262626; font: 10px 'Arial', 'Liberation Sans', 'DejaVu Sans', 'Bitstream Vera Sans', sans-serif; text-anchor: start" x="515.36007" y="221.415266" transform="rotate(-0 515.36007 221.415266)">chicago_pd</text>
   </g>
   <g id="text_4">
    <text style="fill: #262626; font: 10px 'Arial', 'Liberation Sans', 'DejaVu Sans', 'Bitstream Vera Sans', sans-serif; text-anchor: middle" x="448.832765" y="221.111026" transform="rotate(-0 448.832765 221.111026)">0.1%</text>
   </g>
   <g id="text_5">
    <text style="fill: #262626; font: 10px 'Arial', 'Liberation Sans', 'DejaVu Sans', 'Bitstream Vera Sans', sans-serif; text-anchor: start" x="515.3616" y="220.752484" transform="rotate(-0 515.3616 220.752484)">chicago_police</text>
   </g>
   <g id="text_6">
    <text style="fill: #262626; font: 10px 'Arial', 'Liberation Sans', 'DejaVu Sans', 'Bitstream Vera Sans', sans-serif; text-anchor: middle" x="448.8336" y="220.749508" transform="rotate(-0 448.8336 220.749508)">0.0%</text>
   </g>
   <g id="text_7">
    <text style="fill: #262626; font: 12px 'Arial', 'Liberation Sans', 'DejaVu Sans', 'Bitstream Vera Sans', sans-serif; text-anchor: middle" x="369" y="45.84" transform="rotate(-0 369 45.84)">Incidents by Source</text>
   </g>
  </g>
 </g>
</svg>
