<?xml version="1.0" encoding="utf-8" standalone="no"?>
<!DOCTYPE svg PUBLIC "-//W3C//DTD SVG 1.1//EN"
  "http://www.w3.org/Graphics/SVG/1.1/DTD/svg11.dtd">
<svg xmlns:xlink="http://www.w3.org/1999/xlink" width="720pt" height="432pt" viewBox="0 0 720 432" xmlns="http://www.w3.org/2000/svg" version="1.1">
 <metadata>
  <rdf:RDF xmlns:dc="http://purl.org/dc/elements/1.1/" xmlns:cc="http://creativecommons.org/ns#" xmlns:rdf="http://www.w3.org/1999/02/22-rdf-syntax-ns#">
   <cc:Work>
    <dc:type rdf:resource="http://purl.org/dc/dcmitype/StillImage"/>
    <dc:date>2025-04-19T12:39:11.234212</dc:date>
    <dc:format>image/svg+xml</dc:format>
    <dc:creator>
     <cc:Agent>
      <dc:title>Matplotlib v3.7.5, https://matplotlib.org/</dc:title>
     </cc:Agent>
    </dc:creator>
   </cc:Work>
  </rdf:RDF>
 </metadata>
 <defs>
  <style type="text/css">*{stroke-linejoin: round; stroke-linecap: butt}</style>
 </defs>
 <g id="figure_1">
  <g id="patch_1">
   <path d="M 0 432 
L 720 432 
L 720 0 
L 0 0 
z
" style="fill: #ffffff"/>
  </g>
  <g id="axes_1">
   <g id="matplotlib.axis_1"/>
   <g id="matplotlib.axis_2"/>
   <g id="patch_2">
    <path d="M 502.056 218.16 
C 502.056 200.752388 498.639864 183.512781 492.001664 167.42057 
C 485.363465 151.32836 475.631335 136.694164 463.358163 124.34936 
C 451.084991 112.004556 436.507678 102.187428 420.45437 95.455693 
C 404.401063 88.723958 387.181627 85.207555 369.77431 85.106253 
C 352.366994 85.004951 335.107798 88.320704 318.977229 94.865144 
C 302.846661 101.409583 288.156077 111.056386 275.740059 123.25751 
C 263.324041 135.458635 253.422248 149.978571 246.597206 165.992432 
C 239.772164 182.006293 236.155613 199.204973 235.953012 216.611406 
C 235.750411 234.017838 238.965669 251.296037 245.416127 267.464418 
C 251.866586 283.632798 261.427734 298.379272 273.556397 310.866083 
C 285.685061 323.352894 300.147128 333.339018 316.121 340.257136 
C 332.094872 347.175253 349.272215 350.89183 366.677174 351.195723 
C 384.082133 351.499617 401.37875 348.384962 417.584395 342.028704 
C 433.79004 335.672446 448.591904 326.197275 461.149086 314.141483 
C 473.706268 302.085691 483.776383 287.681982 490.787342 271.74864 
C 497.798302 255.815298 501.614778 238.659875 502.019953 221.256979 
L 369 218.16 
z
" style="fill: #f77189"/>
   </g>
   <g id="patch_3">
    <path d="M 502.019953 221.256979 
C 502.031849 220.746017 502.040801 220.23499 502.046809 219.723925 
C 502.052816 219.212859 502.055879 218.701763 502.055996 218.190662 
L 369 218.16 
z
" style="fill: #bb9832"/>
   </g>
   <g id="patch_4">
    <path d="M 502.055996 218.190662 
C 502.055998 218.185551 502.055999 218.18044 502.055999 218.175329 
C 502.056 218.170218 502.056 218.165107 502.056 218.159996 
L 369 218.16 
z
" style="fill: #50b131"/>
   </g>
   <g id="text_1">
    <text style="fill: #262626; font: 10px 'Arial', 'Liberation Sans', 'DejaVu Sans', 'Bitstream Vera Sans', sans-serif; text-anchor: end" x="222.648313" y="219.042484" transform="rotate(-0 222.648313 219.042484)">newsapi</text>
   </g>
   <g id="text_2">
    <text style="fill: #262626; font: 10px 'Arial', 'Liberation Sans', 'DejaVu Sans', 'Bitstream Vera Sans', sans-serif; text-anchor: middle" x="289.171807" y="219.816781" transform="rotate(-0 289.171807 219.816781)">99.6%</text>
   </g>
   <g id="text_3">
    <text style="fill: #262626; font: 10px 'Arial', 'Liberation Sans', 'DejaVu Sans', 'Bitstream Vera Sans', sans-serif; text-anchor: start" x="515.351489" y="222.466255" transform="rotate(-0 515.351489 222.466255)">chicago_pd</text>
   </g>
   <g id="text_4">
    <text style="fill: #262626; font: 10px 'Arial', 'Liberation Sans', 'DejaVu Sans', 'Bitstream Vera Sans', sans-serif; text-anchor: middle" x="448.828085" y="221.684292" transform="rotate(-0 448.828085 221.684292)">0.4%</text>
   </g>
   <g id="text_5">
    <text style="fill: #262626; font: 10px 'Arial', 'Liberation Sans', 'DejaVu Sans', 'Bitstream Vera Sans', sans-serif; text-anchor: start" x="515.361599" y="220.7628" transform="rotate(-0 515.361599 220.7628)">chicago_police</text>
   </g>
   <g id="text_6">
    <text style="fill: #262626; font: 10px 'Arial', 'Liberation Sans', 'DejaVu Sans', 'Bitstream Vera Sans', sans-serif; text-anchor: middle" x="448.833599" y="220.755135" transform="rotate(-0 448.833599 220.755135)">0.0%</text>
   </g>
   <g id="text_7">
    <text style="fill: #262626; font: 12px 'Arial', 'Liberation Sans', 'DejaVu Sans', 'Bitstream Vera Sans', sans-serif; text-anchor: middle" x="369" y="45.84" transform="rotate(-0 369 45.84)">Incidents by Source</text>
   </g>
  </g>
 </g>
</svg>
