<?xml version="1.0" encoding="utf-8" standalone="no"?>
<!DOCTYPE svg PUBLIC "-//W3C//DTD SVG 1.1//EN"
  "http://www.w3.org/Graphics/SVG/1.1/DTD/svg11.dtd">
<svg xmlns:xlink="http://www.w3.org/1999/xlink" width="720pt" height="432pt" viewBox="0 0 720 432" xmlns="http://www.w3.org/2000/svg" version="1.1">
 <metadata>
  <rdf:RDF xmlns:dc="http://purl.org/dc/elements/1.1/" xmlns:cc="http://creativecommons.org/ns#" xmlns:rdf="http://www.w3.org/1999/02/22-rdf-syntax-ns#">
   <cc:Work>
    <dc:type rdf:resource="http://purl.org/dc/dcmitype/StillImage"/>
    <dc:date>2025-09-13T00:59:04.992188</dc:date>
    <dc:format>image/svg+xml</dc:format>
    <dc:creator>
     <cc:Agent>
      <dc:title>Matplotlib v3.7.5, https://matplotlib.org/</dc:title>
     </cc:Agent>
    </dc:creator>
   </cc:Work>
  </rdf:RDF>
 </metadata>
 <defs>
  <style type="text/css">*{stroke-linejoin: round; stroke-linecap: butt}</style>
 </defs>
 <g id="figure_1">
  <g id="patch_1">
   <path d="M 0 432 
L 720 432 
L 720 0 
L 0 0 
z
" style="fill: #ffffff"/>
  </g>
  <g id="axes_1">
   <g id="matplotlib.axis_1"/>
   <g id="matplotlib.axis_2"/>
   <g id="patch_2">
    <path d="M 502.056 218.16 
C 502.056 200.718055 498.626375 183.445112 491.962721 167.326267 
C 485.299067 151.207423 475.530517 136.55504 463.214183 124.204762 
C 450.89785 111.854484 436.272408 102.045644 420.171964 95.337652 
C 404.07152 88.62966 386.808082 85.152509 369.366203 85.104504 
C 351.924324 85.056499 334.642008 88.438572 318.504884 95.057838 
C 302.36776 101.677103 287.688547 111.405289 275.304418 123.687585 
C 262.92029 135.969881 253.071234 150.568271 246.318955 166.650192 
C 239.566676 182.732113 236.042025 199.985916 235.946016 217.427596 
C 235.850007 234.869277 239.184501 252.160837 245.759329 268.316117 
C 252.334156 284.471398 262.021904 299.177329 274.27007 311.595215 
C 286.518235 324.013101 301.089463 333.902298 317.152738 340.698813 
C 333.216014 347.495327 350.460051 351.067452 367.901401 351.211465 
C 385.342752 351.355477 402.643423 348.068586 418.816738 341.538247 
C 434.990053 335.007907 449.722592 325.36067 462.174141 313.146729 
C 474.62569 300.932787 484.554953 286.388832 491.395652 270.344323 
C 498.236351 254.299813 501.855922 237.065673 502.047937 219.624785 
L 369 218.16 
z
" style="fill: #f77189"/>
   </g>
   <g id="patch_3">
    <path d="M 502.047937 219.624785 
C 502.050598 219.383082 502.0526 219.141371 502.053944 218.899657 
C 502.055288 218.657942 502.055973 218.416225 502.055999 218.174507 
L 369 218.16 
z
" style="fill: #bb9832"/>
   </g>
   <g id="patch_4">
    <path d="M 502.055999 218.174507 
C 502.055999 218.17209 502.056 218.169672 502.056 218.167255 
C 502.056 218.164838 502.056 218.162421 502.056 218.160004 
L 369 218.16 
z
" style="fill: #50b131"/>
   </g>
   <g id="text_1">
    <text style="fill: #262626; font: 10px 'Arial', 'Liberation Sans', 'DejaVu Sans', 'Bitstream Vera Sans', sans-serif; text-anchor: end" x="222.640617" y="219.940294" transform="rotate(-0 222.640617 219.940294)">newsapi</text>
   </g>
   <g id="text_2">
    <text style="fill: #262626; font: 10px 'Arial', 'Liberation Sans', 'DejaVu Sans', 'Bitstream Vera Sans', sans-serif; text-anchor: middle" x="289.167609" y="220.306495" transform="rotate(-0 289.167609 220.306495)">99.8%</text>
   </g>
   <g id="text_3">
    <text style="fill: #262626; font: 10px 'Arial', 'Liberation Sans', 'DejaVu Sans', 'Bitstream Vera Sans', sans-serif; text-anchor: start" x="515.359339" y="221.55956" transform="rotate(-0 515.359339 221.55956)">chicago_pd</text>
   </g>
   <g id="text_4">
    <text style="fill: #262626; font: 10px 'Arial', 'Liberation Sans', 'DejaVu Sans', 'Bitstream Vera Sans', sans-serif; text-anchor: middle" x="448.832366" y="221.189732" transform="rotate(-0 448.832366 221.189732)">0.2%</text>
   </g>
   <g id="text_5">
    <text style="fill: #262626; font: 10px 'Arial', 'Liberation Sans', 'DejaVu Sans', 'Bitstream Vera Sans', sans-serif; text-anchor: start" x="515.3616" y="220.753918" transform="rotate(-0 515.3616 220.753918)">chicago_police</text>
   </g>
   <g id="text_6">
    <text style="fill: #262626; font: 10px 'Arial', 'Liberation Sans', 'DejaVu Sans', 'Bitstream Vera Sans', sans-serif; text-anchor: middle" x="448.8336" y="220.750291" transform="rotate(-0 448.8336 220.750291)">0.0%</text>
   </g>
   <g id="text_7">
    <text style="fill: #262626; font: 12px 'Arial', 'Liberation Sans', 'DejaVu Sans', 'Bitstream Vera Sans', sans-serif; text-anchor: middle" x="369" y="45.84" transform="rotate(-0 369 45.84)">Incidents by Source</text>
   </g>
  </g>
 </g>
</svg>
