<?xml version="1.0" encoding="utf-8" standalone="no"?>
<!DOCTYPE svg PUBLIC "-//W3C//DTD SVG 1.1//EN"
  "http://www.w3.org/Graphics/SVG/1.1/DTD/svg11.dtd">
<svg xmlns:xlink="http://www.w3.org/1999/xlink" width="720pt" height="432pt" viewBox="0 0 720 432" xmlns="http://www.w3.org/2000/svg" version="1.1">
 <metadata>
  <rdf:RDF xmlns:dc="http://purl.org/dc/elements/1.1/" xmlns:cc="http://creativecommons.org/ns#" xmlns:rdf="http://www.w3.org/1999/02/22-rdf-syntax-ns#">
   <cc:Work>
    <dc:type rdf:resource="http://purl.org/dc/dcmitype/StillImage"/>
    <dc:date>2025-10-31T12:29:56.040966</dc:date>
    <dc:format>image/svg+xml</dc:format>
    <dc:creator>
     <cc:Agent>
      <dc:title>Matplotlib v3.7.5, https://matplotlib.org/</dc:title>
     </cc:Agent>
    </dc:creator>
   </cc:Work>
  </rdf:RDF>
 </metadata>
 <defs>
  <style type="text/css">*{stroke-linejoin: round; stroke-linecap: butt}</style>
 </defs>
 <g id="figure_1">
  <g id="patch_1">
   <path d="M 0 432 
L 720 432 
L 720 0 
L 0 0 
z
" style="fill: #ffffff"/>
  </g>
  <g id="axes_1">
   <g id="matplotlib.axis_1"/>
   <g id="matplotlib.axis_2"/>
   <g id="patch_2">
    <path d="M 502.056 218.16 
C 502.056 200.7134 498.624544 183.435937 491.957435 167.313483 
C 485.290326 151.191029 475.516833 136.536185 463.194644 124.185172 
C 450.872454 111.83416 436.240484 102.026455 420.133651 95.321696 
C 404.026818 88.616938 386.757419 85.145125 369.310867 85.104363 
C 351.864314 85.063602 334.578881 88.454682 318.440894 95.084105 
C 302.302908 101.713528 287.625269 111.452755 275.245501 123.746054 
C 262.865734 136.039354 253.02387 150.648369 246.281498 166.739494 
C 239.539126 182.830618 236.026975 200.091858 235.945453 217.538268 
C 235.86393 234.984678 239.214616 252.277987 245.806316 268.431418 
C 252.398017 284.584849 262.102925 299.285202 274.367268 311.693658 
C 286.63161 324.102113 301.217592 333.978082 317.29292 340.75803 
C 333.368248 347.537978 350.621235 351.090448 368.067407 351.212732 
C 385.513578 351.335015 402.814668 348.024742 418.983456 341.470799 
C 435.152244 334.916857 449.875231 325.246321 462.312306 313.011002 
C 474.749382 300.775684 484.659402 286.212816 491.476889 270.153372 
C 498.294376 254.093929 501.887146 236.849288 502.05019 219.40345 
L 369 218.16 
z
" style="fill: #f77189"/>
   </g>
   <g id="patch_3">
    <path d="M 502.05019 219.40345 
C 502.052107 219.198263 502.05355 218.993073 502.054519 218.787879 
C 502.055487 218.582686 502.05598 218.377491 502.055999 218.172295 
L 369 218.16 
z
" style="fill: #bb9832"/>
   </g>
   <g id="patch_4">
    <path d="M 502.055999 218.172295 
C 502.056 218.170243 502.056 218.168191 502.056 218.166139 
C 502.056 218.164087 502.056 218.162035 502.056 218.159984 
L 369 218.16 
z
" style="fill: #50b131"/>
   </g>
   <g id="text_1">
    <text style="fill: #262626; font: 10px 'Arial', 'Liberation Sans', 'DejaVu Sans', 'Bitstream Vera Sans', sans-serif; text-anchor: end" x="222.639998" y="220.062033" transform="rotate(-0 222.639998 220.062033)">newsapi</text>
   </g>
   <g id="text_2">
    <text style="fill: #262626; font: 10px 'Arial', 'Liberation Sans', 'DejaVu Sans', 'Bitstream Vera Sans', sans-serif; text-anchor: middle" x="289.167272" y="220.372898" transform="rotate(-0 289.167272 220.372898)">99.9%</text>
   </g>
   <g id="text_3">
    <text style="fill: #262626; font: 10px 'Arial', 'Liberation Sans', 'DejaVu Sans', 'Bitstream Vera Sans', sans-serif; text-anchor: start" x="515.35997" y="221.436605" transform="rotate(-0 515.35997 221.436605)">chicago_pd</text>
   </g>
   <g id="text_4">
    <text style="fill: #262626; font: 10px 'Arial', 'Liberation Sans', 'DejaVu Sans', 'Bitstream Vera Sans', sans-serif; text-anchor: middle" x="448.832711" y="221.122665" transform="rotate(-0 448.832711 221.122665)">0.1%</text>
   </g>
   <g id="text_5">
    <text style="fill: #262626; font: 10px 'Arial', 'Liberation Sans', 'DejaVu Sans', 'Bitstream Vera Sans', sans-serif; text-anchor: start" x="515.3616" y="220.752691" transform="rotate(-0 515.3616 220.752691)">chicago_police</text>
   </g>
   <g id="text_6">
    <text style="fill: #262626; font: 10px 'Arial', 'Liberation Sans', 'DejaVu Sans', 'Bitstream Vera Sans', sans-serif; text-anchor: middle" x="448.8336" y="220.749621" transform="rotate(-0 448.8336 220.749621)">0.0%</text>
   </g>
   <g id="text_7">
    <text style="fill: #262626; font: 12px 'Arial', 'Liberation Sans', 'DejaVu Sans', 'Bitstream Vera Sans', sans-serif; text-anchor: middle" x="369" y="45.84" transform="rotate(-0 369 45.84)">Incidents by Source</text>
   </g>
  </g>
 </g>
</svg>
