<?xml version="1.0" encoding="utf-8" standalone="no"?>
<!DOCTYPE svg PUBLIC "-//W3C//DTD SVG 1.1//EN"
  "http://www.w3.org/Graphics/SVG/1.1/DTD/svg11.dtd">
<svg xmlns:xlink="http://www.w3.org/1999/xlink" width="720pt" height="432pt" viewBox="0 0 720 432" xmlns="http://www.w3.org/2000/svg" version="1.1">
 <metadata>
  <rdf:RDF xmlns:dc="http://purl.org/dc/elements/1.1/" xmlns:cc="http://creativecommons.org/ns#" xmlns:rdf="http://www.w3.org/1999/02/22-rdf-syntax-ns#">
   <cc:Work>
    <dc:type rdf:resource="http://purl.org/dc/dcmitype/StillImage"/>
    <dc:date>2026-01-30T18:34:26.338732</dc:date>
    <dc:format>image/svg+xml</dc:format>
    <dc:creator>
     <cc:Agent>
      <dc:title>Matplotlib v3.7.5, https://matplotlib.org/</dc:title>
     </cc:Agent>
    </dc:creator>
   </cc:Work>
  </rdf:RDF>
 </metadata>
 <defs>
  <style type="text/css">*{stroke-linejoin: round; stroke-linecap: butt}</style>
 </defs>
 <g id="figure_1">
  <g id="patch_1">
   <path d="M 0 432 
L 720 432 
L 720 0 
L 0 0 
z
" style="fill: #ffffff"/>
  </g>
  <g id="axes_1">
   <g id="matplotlib.axis_1"/>
   <g id="matplotlib.axis_2"/>
   <g id="patch_2">
    <path d="M 502.056 218.16 
C 502.056 200.707883 498.622374 183.425064 491.951169 167.298333 
C 485.279965 151.171603 475.500613 136.513843 463.171483 124.161963 
C 450.842353 111.810083 436.202646 102.003727 420.088242 95.302804 
C 403.973837 88.601881 386.697378 85.136399 369.24529 85.104226 
C 351.793202 85.072053 334.504083 88.473813 318.365081 95.115276 
C 302.22608 101.756739 287.550317 111.509052 275.175729 123.815391 
C 262.801141 136.121729 252.967813 150.743332 246.237194 166.845356 
C 239.506576 182.94738 236.009251 200.217422 235.944904 217.669421 
C 235.880558 235.121419 239.250439 252.416781 245.862139 268.567998 
C 252.473839 284.719216 262.19908 299.412932 274.482585 311.810186 
C 286.76609 324.20744 301.369541 334.067707 317.459129 340.827998 
C 333.548718 347.588289 350.812283 351.117446 368.264133 351.213965 
C 385.715984 351.310484 403.017528 347.972493 419.180907 341.390579 
C 435.344286 334.808666 450.055906 325.110529 462.475783 312.849899 
C 474.895661 300.58927 484.782832 286.004021 491.572774 269.926923 
C 498.362715 253.849824 501.923691 236.592795 502.052382 219.141152 
L 369 218.16 
z
" style="fill: #f77189"/>
   </g>
   <g id="patch_3">
    <path d="M 502.052382 219.141152 
C 502.053576 218.979245 502.054475 218.817336 502.055078 218.655426 
C 502.055681 218.493516 502.055988 218.331605 502.056 218.169694 
L 369 218.16 
z
" style="fill: #bb9832"/>
   </g>
   <g id="patch_4">
    <path d="M 502.056 218.169694 
C 502.056 218.168074 502.056 218.166455 502.056 218.164836 
C 502.056 218.163217 502.056 218.161598 502.056 218.159979 
L 369 218.16 
z
" style="fill: #50b131"/>
   </g>
   <g id="text_1">
    <text style="fill: #262626; font: 10px 'Arial', 'Liberation Sans', 'DejaVu Sans', 'Bitstream Vera Sans', sans-serif; text-anchor: end" x="222.639395" y="220.2063" transform="rotate(-0 222.639395 220.2063)">newsapi</text>
   </g>
   <g id="text_2">
    <text style="fill: #262626; font: 10px 'Arial', 'Liberation Sans', 'DejaVu Sans', 'Bitstream Vera Sans', sans-serif; text-anchor: middle" x="289.166943" y="220.45159" transform="rotate(-0 289.166943 220.45159)">99.9%</text>
   </g>
   <g id="text_3">
    <text style="fill: #262626; font: 10px 'Arial', 'Liberation Sans', 'DejaVu Sans', 'Bitstream Vera Sans', sans-serif; text-anchor: start" x="515.360585" y="221.290906" transform="rotate(-0 515.360585 221.290906)">chicago_pd</text>
   </g>
   <g id="text_4">
    <text style="fill: #262626; font: 10px 'Arial', 'Liberation Sans', 'DejaVu Sans', 'Bitstream Vera Sans', sans-serif; text-anchor: middle" x="448.833047" y="221.043193" transform="rotate(-0 448.833047 221.043193)">0.1%</text>
   </g>
   <g id="text_5">
    <text style="fill: #262626; font: 10px 'Arial', 'Liberation Sans', 'DejaVu Sans', 'Bitstream Vera Sans', sans-serif; text-anchor: start" x="515.3616" y="220.751257" transform="rotate(-0 515.3616 220.751257)">chicago_police</text>
   </g>
   <g id="text_6">
    <text style="fill: #262626; font: 10px 'Arial', 'Liberation Sans', 'DejaVu Sans', 'Bitstream Vera Sans', sans-serif; text-anchor: middle" x="448.8336" y="220.748839" transform="rotate(-0 448.8336 220.748839)">0.0%</text>
   </g>
   <g id="text_7">
    <text style="fill: #262626; font: 12px 'Arial', 'Liberation Sans', 'DejaVu Sans', 'Bitstream Vera Sans', sans-serif; text-anchor: middle" x="369" y="45.84" transform="rotate(-0 369 45.84)">Incidents by Source</text>
   </g>
  </g>
 </g>
</svg>
