<?xml version="1.0" encoding="utf-8" standalone="no"?>
<!DOCTYPE svg PUBLIC "-//W3C//DTD SVG 1.1//EN"
  "http://www.w3.org/Graphics/SVG/1.1/DTD/svg11.dtd">
<svg xmlns:xlink="http://www.w3.org/1999/xlink" width="720pt" height="432pt" viewBox="0 0 720 432" xmlns="http://www.w3.org/2000/svg" version="1.1">
 <metadata>
  <rdf:RDF xmlns:dc="http://purl.org/dc/elements/1.1/" xmlns:cc="http://creativecommons.org/ns#" xmlns:rdf="http://www.w3.org/1999/02/22-rdf-syntax-ns#">
   <cc:Work>
    <dc:type rdf:resource="http://purl.org/dc/dcmitype/StillImage"/>
    <dc:date>2026-09-18T20:17:29.738605</dc:date>
    <dc:format>image/svg+xml</dc:format>
    <dc:creator>
     <cc:Agent>
      <dc:title>Matplotlib v3.7.5, https://matplotlib.org/</dc:title>
     </cc:Agent>
    </dc:creator>
   </cc:Work>
  </rdf:RDF>
 </metadata>
 <defs>
  <style type="text/css">*{stroke-linejoin: round; stroke-linecap: butt}</style>
 </defs>
 <g id="figure_1">
  <g id="patch_1">
   <path d="M 0 432 
L 720 432 
L 720 0 
L 0 0 
z
" style="fill: #ffffff"/>
  </g>
  <g id="axes_1">
   <g id="matplotlib.axis_1"/>
   <g id="matplotlib.axis_2"/>
   <g id="patch_2">
    <path d="M 502.056 218.16 
C 502.056 200.700592 498.619504 183.410696 491.942886 167.278315 
C 485.266268 151.145935 475.479173 136.484326 463.140869 124.131303 
C 450.802565 111.77828 436.152635 101.973711 420.028226 95.277864 
C 403.903818 88.582017 386.61803 85.12491 369.158635 85.104095 
C 351.69924 85.083279 334.405258 88.499158 318.264929 95.156538 
C 302.124601 101.813917 287.451333 111.583525 275.083608 123.907093 
C 262.715884 136.23066 252.893856 150.868891 246.17879 166.985305 
C 239.463723 183.101719 235.98601 200.383372 235.944378 217.84273 
C 235.902747 235.302088 239.298005 252.60013 245.936137 268.748385 
C 252.574268 284.896639 262.326375 299.581544 274.635189 311.963952 
C 286.944002 324.346361 301.570512 334.185834 317.678908 340.92011 
C 333.787305 347.654387 351.0648 351.152701 368.524096 351.215149 
C 385.983392 351.277596 403.285469 347.902964 419.441627 341.28409 
C 435.597784 334.665215 450.294306 324.930623 462.69138 312.636581 
C 475.088455 300.34254 484.945359 285.727771 491.698836 269.627415 
C 498.452312 253.527059 501.971224 236.253747 502.054487 218.794538 
L 369 218.16 
z
" style="fill: #f77189"/>
   </g>
   <g id="patch_3">
    <path d="M 502.054487 218.794538 
C 502.054986 218.689834 502.055362 218.585129 502.055614 218.480423 
C 502.055866 218.375718 502.055995 218.271012 502.056 218.166307 
L 369 218.16 
z
" style="fill: #bb9832"/>
   </g>
   <g id="patch_4">
    <path d="M 502.056 218.166307 
C 502.056 218.16526 502.056 218.164213 502.056 218.163166 
C 502.056 218.162119 502.056 218.161072 502.056 218.160025 
L 369 218.16 
z
" style="fill: #50b131"/>
   </g>
   <g id="text_1">
    <text style="fill: #262626; font: 10px 'Arial', 'Liberation Sans', 'DejaVu Sans', 'Bitstream Vera Sans', sans-serif; text-anchor: end" x="222.638816" y="220.396941" transform="rotate(-0 222.638816 220.396941)">newsapi</text>
   </g>
   <g id="text_2">
    <text style="fill: #262626; font: 10px 'Arial', 'Liberation Sans', 'DejaVu Sans', 'Bitstream Vera Sans', sans-serif; text-anchor: middle" x="289.166627" y="220.555576" transform="rotate(-0 289.166627 220.555576)">99.9%</text>
   </g>
   <g id="text_3">
    <text style="fill: #262626; font: 10px 'Arial', 'Liberation Sans', 'DejaVu Sans', 'Bitstream Vera Sans', sans-serif; text-anchor: start" x="515.361176" y="221.098403" transform="rotate(-0 515.361176 221.098403)">chicago_pd</text>
   </g>
   <g id="text_4">
    <text style="fill: #262626; font: 10px 'Arial', 'Liberation Sans', 'DejaVu Sans', 'Bitstream Vera Sans', sans-serif; text-anchor: middle" x="448.833369" y="220.938191" transform="rotate(-0 448.833369 220.938191)">0.1%</text>
   </g>
   <g id="text_5">
    <text style="fill: #262626; font: 10px 'Arial', 'Liberation Sans', 'DejaVu Sans', 'Bitstream Vera Sans', sans-serif; text-anchor: start" x="515.3616" y="220.74942" transform="rotate(-0 515.3616 220.74942)">chicago_police</text>
   </g>
   <g id="text_6">
    <text style="fill: #262626; font: 10px 'Arial', 'Liberation Sans', 'DejaVu Sans', 'Bitstream Vera Sans', sans-serif; text-anchor: middle" x="448.8336" y="220.747837" transform="rotate(-0 448.8336 220.747837)">0.0%</text>
   </g>
   <g id="text_7">
    <text style="fill: #262626; font: 12px 'Arial', 'Liberation Sans', 'DejaVu Sans', 'Bitstream Vera Sans', sans-serif; text-anchor: middle" x="369" y="45.84" transform="rotate(-0 369 45.84)">Incidents by Source</text>
   </g>
  </g>
 </g>
</svg>
