<?xml version="1.0" encoding="utf-8" standalone="no"?>
<!DOCTYPE svg PUBLIC "-//W3C//DTD SVG 1.1//EN"
  "http://www.w3.org/Graphics/SVG/1.1/DTD/svg11.dtd">
<svg xmlns:xlink="http://www.w3.org/1999/xlink" width="720pt" height="432pt" viewBox="0 0 720 432" xmlns="http://www.w3.org/2000/svg" version="1.1">
 <metadata>
  <rdf:RDF xmlns:dc="http://purl.org/dc/elements/1.1/" xmlns:cc="http://creativecommons.org/ns#" xmlns:rdf="http://www.w3.org/1999/02/22-rdf-syntax-ns#">
   <cc:Work>
    <dc:type rdf:resource="http://purl.org/dc/dcmitype/StillImage"/>
    <dc:date>2025-12-03T18:24:27.435502</dc:date>
    <dc:format>image/svg+xml</dc:format>
    <dc:creator>
     <cc:Agent>
      <dc:title>Matplotlib v3.7.5, https://matplotlib.org/</dc:title>
     </cc:Agent>
    </dc:creator>
   </cc:Work>
  </rdf:RDF>
 </metadata>
 <defs>
  <style type="text/css">*{stroke-linejoin: round; stroke-linecap: butt}</style>
 </defs>
 <g id="figure_1">
  <g id="patch_1">
   <path d="M 0 432 
L 720 432 
L 720 0 
L 0 0 
z
" style="fill: #ffffff"/>
  </g>
  <g id="axes_1">
   <g id="matplotlib.axis_1"/>
   <g id="matplotlib.axis_2"/>
   <g id="patch_2">
    <path d="M 502.056 218.16 
C 502.056 200.711222 498.623687 183.431644 491.954962 167.307502 
C 485.286236 151.18336 475.510431 136.527365 463.185502 124.17601 
C 450.860572 111.824654 436.225549 102.017481 420.115726 95.314236 
C 404.005904 88.610991 386.733718 85.141677 369.28498 85.104305 
C 351.836242 85.066933 334.549353 88.462229 318.410964 95.096404 
C 302.272576 101.73058 287.595677 111.474972 275.217952 123.773419 
C 262.840228 136.071866 253.001732 150.685851 246.263998 166.781279 
C 239.526264 182.876707 236.019964 200.141423 235.945221 217.590042 
C 235.870477 235.03866 239.22874 252.332781 245.828335 268.485341 
C 252.42793 284.637902 262.140865 299.335638 274.412773 311.739675 
C 286.684681 324.143712 301.27756 334.013486 317.358521 340.785677 
C 333.439481 347.557869 350.696648 351.101138 368.145066 351.213253 
C 385.593484 351.325368 402.894758 348.004154 419.061416 341.43917 
C 435.228075 334.874186 449.946581 325.192752 462.376873 312.94744 
C 474.807166 300.702127 484.708172 286.13042 491.51479 270.064001 
C 498.321408 253.997582 501.901631 236.748044 502.051117 219.299906 
L 369 218.16 
z
" style="fill: #f77189"/>
   </g>
   <g id="patch_3">
    <path d="M 502.051117 219.299906 
C 502.052729 219.111805 502.053941 218.923699 502.054755 218.735592 
C 502.055569 218.547485 502.055984 218.359377 502.056 218.171268 
L 369 218.16 
z
" style="fill: #bb9832"/>
   </g>
   <g id="patch_4">
    <path d="M 502.056 218.171268 
C 502.056 218.169387 502.056 218.167506 502.056 218.165625 
C 502.056 218.163744 502.056 218.161862 502.056 218.159981 
L 369 218.16 
z
" style="fill: #50b131"/>
   </g>
   <g id="text_1">
    <text style="fill: #262626; font: 10px 'Arial', 'Liberation Sans', 'DejaVu Sans', 'Bitstream Vera Sans', sans-serif; text-anchor: end" x="222.639743" y="220.118983" transform="rotate(-0 222.639743 220.118983)">newsapi</text>
   </g>
   <g id="text_2">
    <text style="fill: #262626; font: 10px 'Arial', 'Liberation Sans', 'DejaVu Sans', 'Bitstream Vera Sans', sans-serif; text-anchor: middle" x="289.167132" y="220.403962" transform="rotate(-0 289.167132 220.403962)">99.9%</text>
   </g>
   <g id="text_3">
    <text style="fill: #262626; font: 10px 'Arial', 'Liberation Sans', 'DejaVu Sans', 'Bitstream Vera Sans', sans-serif; text-anchor: start" x="515.360231" y="221.379089" transform="rotate(-0 515.360231 221.379089)">chicago_pd</text>
   </g>
   <g id="text_4">
    <text style="fill: #262626; font: 10px 'Arial', 'Liberation Sans', 'DejaVu Sans', 'Bitstream Vera Sans', sans-serif; text-anchor: middle" x="448.832853" y="221.091293" transform="rotate(-0 448.832853 221.091293)">0.1%</text>
   </g>
   <g id="text_5">
    <text style="fill: #262626; font: 10px 'Arial', 'Liberation Sans', 'DejaVu Sans', 'Bitstream Vera Sans', sans-serif; text-anchor: start" x="515.3616" y="220.752125" transform="rotate(-0 515.3616 220.752125)">chicago_police</text>
   </g>
   <g id="text_6">
    <text style="fill: #262626; font: 10px 'Arial', 'Liberation Sans', 'DejaVu Sans', 'Bitstream Vera Sans', sans-serif; text-anchor: middle" x="448.8336" y="220.749312" transform="rotate(-0 448.8336 220.749312)">0.0%</text>
   </g>
   <g id="text_7">
    <text style="fill: #262626; font: 12px 'Arial', 'Liberation Sans', 'DejaVu Sans', 'Bitstream Vera Sans', sans-serif; text-anchor: middle" x="369" y="45.84" transform="rotate(-0 369 45.84)">Incidents by Source</text>
   </g>
  </g>
 </g>
</svg>
