<?xml version="1.0" encoding="utf-8" standalone="no"?>
<!DOCTYPE svg PUBLIC "-//W3C//DTD SVG 1.1//EN"
  "http://www.w3.org/Graphics/SVG/1.1/DTD/svg11.dtd">
<svg xmlns:xlink="http://www.w3.org/1999/xlink" width="720pt" height="432pt" viewBox="0 0 720 432" xmlns="http://www.w3.org/2000/svg" version="1.1">
 <metadata>
  <rdf:RDF xmlns:dc="http://purl.org/dc/elements/1.1/" xmlns:cc="http://creativecommons.org/ns#" xmlns:rdf="http://www.w3.org/1999/02/22-rdf-syntax-ns#">
   <cc:Work>
    <dc:type rdf:resource="http://purl.org/dc/dcmitype/StillImage"/>
    <dc:date>2026-06-25T02:43:28.961052</dc:date>
    <dc:format>image/svg+xml</dc:format>
    <dc:creator>
     <cc:Agent>
      <dc:title>Matplotlib v3.7.5, https://matplotlib.org/</dc:title>
     </cc:Agent>
    </dc:creator>
   </cc:Work>
  </rdf:RDF>
 </metadata>
 <defs>
  <style type="text/css">*{stroke-linejoin: round; stroke-linecap: butt}</style>
 </defs>
 <g id="figure_1">
  <g id="patch_1">
   <path d="M 0 432 
L 720 432 
L 720 0 
L 0 0 
z
" style="fill: #ffffff"/>
  </g>
  <g id="axes_1">
   <g id="matplotlib.axis_1"/>
   <g id="matplotlib.axis_2"/>
   <g id="patch_2">
    <path d="M 502.056 218.16 
C 502.056 200.702869 498.6204 183.415182 491.945473 167.284566 
C 485.270546 151.15395 475.485869 136.493542 463.150429 124.140875 
C 450.81499 111.788209 436.168252 101.983081 420.046967 95.285648 
C 403.925682 88.588216 386.642807 85.128493 369.185693 85.10413 
C 351.728579 85.079766 334.436114 88.491236 318.296198 95.143645 
C 302.156282 101.796054 287.482233 111.560261 275.112363 123.878449 
C 262.742493 136.196637 252.916934 150.829677 246.197009 166.941599 
C 239.477084 183.053521 235.993245 200.331551 235.944518 217.788614 
C 235.895792 235.245678 239.283125 252.542887 245.913003 268.692071 
C 252.54288 284.841255 262.286599 299.528917 274.587511 311.915966 
C 286.888424 324.303015 301.507737 334.148986 317.610265 340.891391 
C 333.712793 347.633795 350.985944 351.141744 368.442923 351.214834 
C 385.899901 351.287923 403.20182 347.924733 419.360242 341.3174 
C 435.518663 334.710067 450.219908 324.986855 462.624113 312.703242 
C 475.028317 300.419629 484.894681 285.814072 491.659552 269.720969 
C 498.424422 253.627866 501.956475 236.359627 502.053927 218.902768 
L 369 218.16 
z
" style="fill: #f77189"/>
   </g>
   <g id="patch_3">
    <path d="M 502.053927 218.902768 
C 502.054611 218.780199 502.055126 218.65763 502.055471 218.535059 
C 502.055817 218.412489 502.055993 218.289919 502.056 218.167348 
L 369 218.16 
z
" style="fill: #bb9832"/>
   </g>
   <g id="patch_4">
    <path d="M 502.056 218.167348 
C 502.056 218.166122 502.056 218.164896 502.056 218.163671 
C 502.056 218.162445 502.056 218.161219 502.056 218.159994 
L 369 218.16 
z
" style="fill: #50b131"/>
   </g>
   <g id="text_1">
    <text style="fill: #262626; font: 10px 'Arial', 'Liberation Sans', 'DejaVu Sans', 'Bitstream Vera Sans', sans-serif; text-anchor: end" x="222.63897" y="220.337413" transform="rotate(-0 222.63897 220.337413)">newsapi</text>
   </g>
   <g id="text_2">
    <text style="fill: #262626; font: 10px 'Arial', 'Liberation Sans', 'DejaVu Sans', 'Bitstream Vera Sans', sans-serif; text-anchor: middle" x="289.166711" y="220.523106" transform="rotate(-0 289.166711 220.523106)">99.9%</text>
   </g>
   <g id="text_3">
    <text style="fill: #262626; font: 10px 'Arial', 'Liberation Sans', 'DejaVu Sans', 'Bitstream Vera Sans', sans-serif; text-anchor: start" x="515.361019" y="221.158503" transform="rotate(-0 515.361019 221.158503)">chicago_pd</text>
   </g>
   <g id="text_4">
    <text style="fill: #262626; font: 10px 'Arial', 'Liberation Sans', 'DejaVu Sans', 'Bitstream Vera Sans', sans-serif; text-anchor: middle" x="448.833283" y="220.970973" transform="rotate(-0 448.833283 220.970973)">0.1%</text>
   </g>
   <g id="text_5">
    <text style="fill: #262626; font: 10px 'Arial', 'Liberation Sans', 'DejaVu Sans', 'Bitstream Vera Sans', sans-serif; text-anchor: start" x="515.3616" y="220.749975" transform="rotate(-0 515.3616 220.749975)">chicago_police</text>
   </g>
   <g id="text_6">
    <text style="fill: #262626; font: 10px 'Arial', 'Liberation Sans', 'DejaVu Sans', 'Bitstream Vera Sans', sans-serif; text-anchor: middle" x="448.8336" y="220.74814" transform="rotate(-0 448.8336 220.74814)">0.0%</text>
   </g>
   <g id="text_7">
    <text style="fill: #262626; font: 12px 'Arial', 'Liberation Sans', 'DejaVu Sans', 'Bitstream Vera Sans', sans-serif; text-anchor: middle" x="369" y="45.84" transform="rotate(-0 369 45.84)">Incidents by Source</text>
   </g>
  </g>
 </g>
</svg>
