<?xml version="1.0" encoding="utf-8" standalone="no"?>
<!DOCTYPE svg PUBLIC "-//W3C//DTD SVG 1.1//EN"
  "http://www.w3.org/Graphics/SVG/1.1/DTD/svg11.dtd">
<svg xmlns:xlink="http://www.w3.org/1999/xlink" width="720pt" height="432pt" viewBox="0 0 720 432" xmlns="http://www.w3.org/2000/svg" version="1.1">
 <metadata>
  <rdf:RDF xmlns:dc="http://purl.org/dc/elements/1.1/" xmlns:cc="http://creativecommons.org/ns#" xmlns:rdf="http://www.w3.org/1999/02/22-rdf-syntax-ns#">
   <cc:Work>
    <dc:type rdf:resource="http://purl.org/dc/dcmitype/StillImage"/>
    <dc:date>2026-04-25T13:16:32.189502</dc:date>
    <dc:format>image/svg+xml</dc:format>
    <dc:creator>
     <cc:Agent>
      <dc:title>Matplotlib v3.7.5, https://matplotlib.org/</dc:title>
     </cc:Agent>
    </dc:creator>
   </cc:Work>
  </rdf:RDF>
 </metadata>
 <defs>
  <style type="text/css">*{stroke-linejoin: round; stroke-linecap: butt}</style>
 </defs>
 <g id="figure_1">
  <g id="patch_1">
   <path d="M 0 432 
L 720 432 
L 720 0 
L 0 0 
z
" style="fill: #ffffff"/>
  </g>
  <g id="axes_1">
   <g id="matplotlib.axis_1"/>
   <g id="matplotlib.axis_2"/>
   <g id="patch_2">
    <path d="M 502.056 218.16 
C 502.056 200.704854 498.621182 183.419094 491.947728 167.290016 
C 485.274275 151.160939 475.491707 136.501579 463.158765 124.149224 
C 450.825824 111.796868 436.18187 101.991254 420.063309 95.292439 
C 403.944748 88.593624 386.664412 85.13162 369.209288 85.104165 
C 351.754163 85.076709 334.463022 88.484334 318.323467 95.132409 
C 302.183913 101.780484 287.509184 111.539982 275.137445 123.853479 
C 262.765706 136.166976 252.93707 150.795488 246.21291 166.903492 
C 239.48875 183.011497 235.99957 200.286365 235.944658 217.741425 
C 235.889747 235.196485 239.27017 252.492965 245.892851 268.642956 
C 252.515531 284.792948 262.251935 299.483009 274.545957 311.874102 
C 286.839978 324.265194 301.453013 334.116827 317.55042 340.866316 
C 333.647828 347.615804 350.917187 351.132152 368.372139 351.214519 
C 385.827091 351.296885 403.128866 347.943673 419.289255 341.346403 
C 435.449644 334.749134 450.155002 325.035848 462.565416 312.761332 
C 474.97583 300.486816 484.850437 285.889296 491.625237 269.802524 
C 498.400038 253.715753 501.943544 236.451946 502.053366 218.997145 
L 369 218.16 
z
" style="fill: #f77189"/>
   </g>
   <g id="patch_3">
    <path d="M 502.053366 218.997145 
C 502.054236 218.859003 502.05489 218.720859 502.055329 218.582715 
C 502.055767 218.44457 502.055991 218.306425 502.056 218.16828 
L 369 218.16 
z
" style="fill: #bb9832"/>
   </g>
   <g id="patch_4">
    <path d="M 502.056 218.16828 
C 502.056 218.166899 502.056 218.165517 502.056 218.164136 
C 502.056 218.162754 502.056 218.161373 502.056 218.159992 
L 369 218.16 
z
" style="fill: #50b131"/>
   </g>
   <g id="text_1">
    <text style="fill: #262626; font: 10px 'Arial', 'Liberation Sans', 'DejaVu Sans', 'Bitstream Vera Sans', sans-serif; text-anchor: end" x="222.639124" y="220.285505" transform="rotate(-0 222.639124 220.285505)">newsapi</text>
   </g>
   <g id="text_2">
    <text style="fill: #262626; font: 10px 'Arial', 'Liberation Sans', 'DejaVu Sans', 'Bitstream Vera Sans', sans-serif; text-anchor: middle" x="289.166795" y="220.494793" transform="rotate(-0 289.166795 220.494793)">99.9%</text>
   </g>
   <g id="text_3">
    <text style="fill: #262626; font: 10px 'Arial', 'Liberation Sans', 'DejaVu Sans', 'Bitstream Vera Sans', sans-serif; text-anchor: start" x="515.360861" y="221.210924" transform="rotate(-0 515.360861 221.210924)">chicago_pd</text>
   </g>
   <g id="text_4">
    <text style="fill: #262626; font: 10px 'Arial', 'Liberation Sans', 'DejaVu Sans', 'Bitstream Vera Sans', sans-serif; text-anchor: middle" x="448.833197" y="220.999566" transform="rotate(-0 448.833197 220.999566)">0.1%</text>
   </g>
   <g id="text_5">
    <text style="fill: #262626; font: 10px 'Arial', 'Liberation Sans', 'DejaVu Sans', 'Bitstream Vera Sans', sans-serif; text-anchor: start" x="515.3616" y="220.750487" transform="rotate(-0 515.3616 220.750487)">chicago_police</text>
   </g>
   <g id="text_6">
    <text style="fill: #262626; font: 10px 'Arial', 'Liberation Sans', 'DejaVu Sans', 'Bitstream Vera Sans', sans-serif; text-anchor: middle" x="448.8336" y="220.748419" transform="rotate(-0 448.8336 220.748419)">0.0%</text>
   </g>
   <g id="text_7">
    <text style="fill: #262626; font: 12px 'Arial', 'Liberation Sans', 'DejaVu Sans', 'Bitstream Vera Sans', sans-serif; text-anchor: middle" x="369" y="45.84" transform="rotate(-0 369 45.84)">Incidents by Source</text>
   </g>
  </g>
 </g>
</svg>
