<?xml version="1.0" encoding="utf-8" standalone="no"?>
<!DOCTYPE svg PUBLIC "-//W3C//DTD SVG 1.1//EN"
  "http://www.w3.org/Graphics/SVG/1.1/DTD/svg11.dtd">
<svg xmlns:xlink="http://www.w3.org/1999/xlink" width="720pt" height="432pt" viewBox="0 0 720 432" xmlns="http://www.w3.org/2000/svg" version="1.1">
 <metadata>
  <rdf:RDF xmlns:dc="http://purl.org/dc/elements/1.1/" xmlns:cc="http://creativecommons.org/ns#" xmlns:rdf="http://www.w3.org/1999/02/22-rdf-syntax-ns#">
   <cc:Work>
    <dc:type rdf:resource="http://purl.org/dc/dcmitype/StillImage"/>
    <dc:date>2025-01-20T12:23:33.179890</dc:date>
    <dc:format>image/svg+xml</dc:format>
    <dc:creator>
     <cc:Agent>
      <dc:title>Matplotlib v3.7.5, https://matplotlib.org/</dc:title>
     </cc:Agent>
    </dc:creator>
   </cc:Work>
  </rdf:RDF>
 </metadata>
 <defs>
  <style type="text/css">*{stroke-linejoin: round; stroke-linecap: butt}</style>
 </defs>
 <g id="figure_1">
  <g id="patch_1">
   <path d="M 0 432 
L 720 432 
L 720 0 
L 0 0 
z
" style="fill: #ffffff"/>
  </g>
  <g id="axes_1">
   <g id="matplotlib.axis_1"/>
   <g id="matplotlib.axis_2"/>
   <g id="patch_2">
    <path d="M 502.056 218.16 
C 502.056 200.867385 498.684849 183.739461 492.131584 167.736671 
C 485.578319 151.733882 475.967764 137.161042 463.838827 124.835319 
C 451.70989 112.509597 437.293599 102.665767 421.398343 95.855819 
C 405.503088 89.045871 388.431633 85.399519 371.141257 85.121231 
C 353.850881 84.842942 336.670924 87.938018 320.564746 94.232903 
C 304.458568 100.527788 289.732953 109.90258 277.213637 121.831589 
C 264.69432 133.760599 254.619765 148.016607 247.554899 163.800213 
C 240.490032 179.583818 236.569423 196.594382 236.012918 213.87804 
C 235.456413 231.161699 238.274613 248.38924 244.309488 264.594635 
C 250.344363 280.800031 259.480962 295.674606 271.206955 308.384273 
C 282.932947 321.093941 297.024981 331.396612 312.692848 338.714568 
C 328.360716 346.032523 345.305982 350.226374 362.578447 351.060951 
C 379.850911 351.895528 397.121575 349.354934 413.42199 343.581633 
C 429.722405 337.808331 444.742089 328.91229 457.638815 317.392351 
C 470.535542 305.872413 481.063661 291.948004 488.632811 276.399933 
C 496.20196 260.851862 500.667966 243.976281 501.780399 226.719484 
L 369 218.16 
z
" style="fill: #f77189"/>
   </g>
   <g id="patch_3">
    <path d="M 501.780399 226.719484 
C 501.871327 225.308952 501.939773 223.89706 501.98571 222.484347 
C 502.031648 221.071634 502.055072 219.658279 502.055973 218.244819 
L 369 218.16 
z
" style="fill: #bb9832"/>
   </g>
   <g id="patch_4">
    <path d="M 502.055973 218.244819 
C 502.055982 218.230685 502.055989 218.216551 502.055993 218.202416 
C 502.055998 218.188282 502.056 218.174148 502.056 218.160013 
L 369 218.16 
z
" style="fill: #50b131"/>
   </g>
   <g id="text_1">
    <text style="fill: #262626; font: 10px 'Arial', 'Liberation Sans', 'DejaVu Sans', 'Bitstream Vera Sans', sans-serif; text-anchor: end" x="222.71421" y="216.035782" transform="rotate(-0 222.71421 216.035782)">newsapi</text>
   </g>
   <g id="text_2">
    <text style="fill: #262626; font: 10px 'Arial', 'Liberation Sans', 'DejaVu Sans', 'Bitstream Vera Sans', sans-serif; text-anchor: middle" x="289.207751" y="218.176762" transform="rotate(-0 289.207751 218.176762)">99.0%</text>
   </g>
   <g id="text_3">
    <text style="fill: #262626; font: 10px 'Arial', 'Liberation Sans', 'DejaVu Sans', 'Bitstream Vera Sans', sans-serif; text-anchor: start" x="515.284281" y="225.502719" transform="rotate(-0 515.284281 225.502719)">chicago_pd</text>
   </g>
   <g id="text_4">
    <text style="fill: #262626; font: 10px 'Arial', 'Liberation Sans', 'DejaVu Sans', 'Bitstream Vera Sans', sans-serif; text-anchor: middle" x="448.791426" y="223.340546" transform="rotate(-0 448.791426 223.340546)">1.0%</text>
   </g>
   <g id="text_5">
    <text style="fill: #262626; font: 10px 'Arial', 'Liberation Sans', 'DejaVu Sans', 'Bitstream Vera Sans', sans-serif; text-anchor: start" x="515.361593" y="220.792595" transform="rotate(-0 515.361593 220.792595)">chicago_police</text>
   </g>
   <g id="text_6">
    <text style="fill: #262626; font: 10px 'Arial', 'Liberation Sans', 'DejaVu Sans', 'Bitstream Vera Sans', sans-serif; text-anchor: middle" x="448.833596" y="220.771387" transform="rotate(-0 448.833596 220.771387)">0.0%</text>
   </g>
   <g id="text_7">
    <text style="fill: #262626; font: 12px 'Arial', 'Liberation Sans', 'DejaVu Sans', 'Bitstream Vera Sans', sans-serif; text-anchor: middle" x="369" y="45.84" transform="rotate(-0 369 45.84)">Incidents by Source</text>
   </g>
  </g>
 </g>
</svg>
