<?xml version="1.0" encoding="utf-8" standalone="no"?>
<!DOCTYPE svg PUBLIC "-//W3C//DTD SVG 1.1//EN"
  "http://www.w3.org/Graphics/SVG/1.1/DTD/svg11.dtd">
<svg xmlns:xlink="http://www.w3.org/1999/xlink" width="720pt" height="432pt" viewBox="0 0 720 432" xmlns="http://www.w3.org/2000/svg" version="1.1">
 <metadata>
  <rdf:RDF xmlns:dc="http://purl.org/dc/elements/1.1/" xmlns:cc="http://creativecommons.org/ns#" xmlns:rdf="http://www.w3.org/1999/02/22-rdf-syntax-ns#">
   <cc:Work>
    <dc:type rdf:resource="http://purl.org/dc/dcmitype/StillImage"/>
    <dc:date>2026-04-12T02:01:36.442427</dc:date>
    <dc:format>image/svg+xml</dc:format>
    <dc:creator>
     <cc:Agent>
      <dc:title>Matplotlib v3.7.5, https://matplotlib.org/</dc:title>
     </cc:Agent>
    </dc:creator>
   </cc:Work>
  </rdf:RDF>
 </metadata>
 <defs>
  <style type="text/css">*{stroke-linejoin: round; stroke-linecap: butt}</style>
 </defs>
 <g id="figure_1">
  <g id="patch_1">
   <path d="M 0 432 
L 720 432 
L 720 0 
L 0 0 
z
" style="fill: #ffffff"/>
  </g>
  <g id="axes_1">
   <g id="matplotlib.axis_1"/>
   <g id="matplotlib.axis_2"/>
   <g id="patch_2">
    <path d="M 502.056 218.16 
C 502.056 200.70529 498.621353 183.419953 491.948224 167.291213 
C 485.275094 151.162474 475.492989 136.503344 463.160596 124.151057 
C 450.828203 111.79877 436.184861 101.993049 420.066898 95.29393 
C 403.948935 88.594812 386.669158 85.132308 369.21447 85.104173 
C 351.759782 85.076038 334.468932 88.482818 318.329457 95.129942 
C 302.189982 101.777065 287.515104 111.535529 275.142955 123.847995 
C 262.770805 136.160462 252.941493 150.78798 246.216404 166.895123 
C 239.491314 183.002267 236.000961 200.276441 235.944691 217.731061 
C 235.888422 235.18568 239.267327 252.481999 245.888427 268.632168 
C 252.509527 284.782336 262.244324 299.472924 274.536832 311.864904 
C 286.82934 324.256883 301.440995 334.10976 317.537278 340.860804 
C 333.63356 347.611848 350.902086 351.13004 368.356592 351.214444 
C 385.811098 351.298849 403.112841 347.947827 419.273661 341.352768 
C 435.434481 334.757709 450.140742 325.046604 462.552519 312.774086 
C 474.964297 300.501568 484.840713 285.905814 491.617693 269.820434 
C 498.394674 253.735054 501.940696 236.472222 502.053234 219.017874 
L 369 218.16 
z
" style="fill: #f77189"/>
   </g>
   <g id="patch_3">
    <path d="M 502.053234 219.017874 
C 502.054147 218.876313 502.054834 218.734751 502.055295 218.593187 
C 502.055756 218.451624 502.055991 218.31006 502.056 218.168496 
L 369 218.16 
z
" style="fill: #bb9832"/>
   </g>
   <g id="patch_4">
    <path d="M 502.056 218.168496 
C 502.056 218.16708 502.056 218.165664 502.056 218.164249 
C 502.056 218.162833 502.056 218.161417 502.056 218.160002 
L 369 218.16 
z
" style="fill: #50b131"/>
   </g>
   <g id="text_1">
    <text style="fill: #262626; font: 10px 'Arial', 'Liberation Sans', 'DejaVu Sans', 'Bitstream Vera Sans', sans-serif; text-anchor: end" x="222.639161" y="220.274104" transform="rotate(-0 222.639161 220.274104)">newsapi</text>
   </g>
   <g id="text_2">
    <text style="fill: #262626; font: 10px 'Arial', 'Liberation Sans', 'DejaVu Sans', 'Bitstream Vera Sans', sans-serif; text-anchor: middle" x="289.166815" y="220.488574" transform="rotate(-0 289.166815 220.488574)">99.9%</text>
   </g>
   <g id="text_3">
    <text style="fill: #262626; font: 10px 'Arial', 'Liberation Sans', 'DejaVu Sans', 'Bitstream Vera Sans', sans-serif; text-anchor: start" x="515.360824" y="221.222443" transform="rotate(-0 515.360824 221.222443)">chicago_pd</text>
   </g>
   <g id="text_4">
    <text style="fill: #262626; font: 10px 'Arial', 'Liberation Sans', 'DejaVu Sans', 'Bitstream Vera Sans', sans-serif; text-anchor: middle" x="448.833177" y="221.00585" transform="rotate(-0 448.833177 221.00585)">0.1%</text>
   </g>
   <g id="text_5">
    <text style="fill: #262626; font: 10px 'Arial', 'Liberation Sans', 'DejaVu Sans', 'Bitstream Vera Sans', sans-serif; text-anchor: start" x="515.3616" y="220.750611" transform="rotate(-0 515.3616 220.750611)">chicago_police</text>
   </g>
   <g id="text_6">
    <text style="fill: #262626; font: 10px 'Arial', 'Liberation Sans', 'DejaVu Sans', 'Bitstream Vera Sans', sans-serif; text-anchor: middle" x="448.8336" y="220.748487" transform="rotate(-0 448.8336 220.748487)">0.0%</text>
   </g>
   <g id="text_7">
    <text style="fill: #262626; font: 12px 'Arial', 'Liberation Sans', 'DejaVu Sans', 'Bitstream Vera Sans', sans-serif; text-anchor: middle" x="369" y="45.84" transform="rotate(-0 369 45.84)">Incidents by Source</text>
   </g>
  </g>
 </g>
</svg>
