<?xml version="1.0" encoding="utf-8" standalone="no"?>
<!DOCTYPE svg PUBLIC "-//W3C//DTD SVG 1.1//EN"
  "http://www.w3.org/Graphics/SVG/1.1/DTD/svg11.dtd">
<svg xmlns:xlink="http://www.w3.org/1999/xlink" width="720pt" height="432pt" viewBox="0 0 720 432" xmlns="http://www.w3.org/2000/svg" version="1.1">
 <metadata>
  <rdf:RDF xmlns:dc="http://purl.org/dc/elements/1.1/" xmlns:cc="http://creativecommons.org/ns#" xmlns:rdf="http://www.w3.org/1999/02/22-rdf-syntax-ns#">
   <cc:Work>
    <dc:type rdf:resource="http://purl.org/dc/dcmitype/StillImage"/>
    <dc:date>2025-09-21T12:24:46.138093</dc:date>
    <dc:format>image/svg+xml</dc:format>
    <dc:creator>
     <cc:Agent>
      <dc:title>Matplotlib v3.7.5, https://matplotlib.org/</dc:title>
     </cc:Agent>
    </dc:creator>
   </cc:Work>
  </rdf:RDF>
 </metadata>
 <defs>
  <style type="text/css">*{stroke-linejoin: round; stroke-linecap: butt}</style>
 </defs>
 <g id="figure_1">
  <g id="patch_1">
   <path d="M 0 432 
L 720 432 
L 720 0 
L 0 0 
z
" style="fill: #ffffff"/>
  </g>
  <g id="axes_1">
   <g id="matplotlib.axis_1"/>
   <g id="matplotlib.axis_2"/>
   <g id="patch_2">
    <path d="M 502.056 218.16 
C 502.056 200.71697 498.625949 183.442974 491.961489 167.323288 
C 485.29703 151.203603 475.527329 136.550646 463.209631 124.200197 
C 450.891933 111.849748 436.26497 102.041172 420.163038 95.333933 
C 404.061105 88.626694 386.796278 85.150786 369.35331 85.104469 
C 351.910341 85.058152 334.627298 88.442323 318.489973 95.063955 
C 302.352647 101.685587 287.673801 111.416346 275.290687 123.701206 
C 262.907574 135.986065 253.060193 150.586931 246.310222 166.670997 
C 239.56025 182.755063 236.038511 200.0106 235.945876 217.453383 
C 235.853242 234.896167 239.191509 252.188135 245.770267 268.342987 
C 252.349026 284.497838 262.040773 299.202471 274.292708 311.618162 
C 286.544643 324.033852 301.119309 333.919968 317.185395 340.712625 
C 333.25148 347.505281 350.497605 351.072828 367.940081 351.211778 
C 385.382557 351.350729 402.683329 348.05839 418.855592 341.522551 
C 435.027855 334.986712 449.758172 325.334046 462.206352 313.115122 
C 474.654531 300.896198 484.579314 286.347834 491.414607 270.299842 
C 498.249901 254.25185 501.863229 237.015259 502.048495 219.573214 
L 369 218.16 
z
" style="fill: #f77189"/>
   </g>
   <g id="patch_3">
    <path d="M 502.048495 219.573214 
C 502.050972 219.340017 502.052836 219.106814 502.054086 218.873607 
C 502.055337 218.6404 502.055975 218.407191 502.055999 218.173981 
L 369 218.16 
z
" style="fill: #bb9832"/>
   </g>
   <g id="patch_4">
    <path d="M 502.055999 218.173981 
C 502.056 218.171649 502.056 218.169317 502.056 218.166985 
C 502.056 218.164652 502.056 218.16232 502.056 218.159988 
L 369 218.16 
z
" style="fill: #50b131"/>
   </g>
   <g id="text_1">
    <text style="fill: #262626; font: 10px 'Arial', 'Liberation Sans', 'DejaVu Sans', 'Bitstream Vera Sans', sans-serif; text-anchor: end" x="222.640464" y="219.968659" transform="rotate(-0 222.640464 219.968659)">newsapi</text>
   </g>
   <g id="text_2">
    <text style="fill: #262626; font: 10px 'Arial', 'Liberation Sans', 'DejaVu Sans', 'Bitstream Vera Sans', sans-serif; text-anchor: middle" x="289.167526" y="220.321967" transform="rotate(-0 289.167526 220.321967)">99.8%</text>
   </g>
   <g id="text_3">
    <text style="fill: #262626; font: 10px 'Arial', 'Liberation Sans', 'DejaVu Sans', 'Bitstream Vera Sans', sans-serif; text-anchor: start" x="515.359495" y="221.530905" transform="rotate(-0 515.359495 221.530905)">chicago_pd</text>
   </g>
   <g id="text_4">
    <text style="fill: #262626; font: 10px 'Arial', 'Liberation Sans', 'DejaVu Sans', 'Bitstream Vera Sans', sans-serif; text-anchor: middle" x="448.832452" y="221.174102" transform="rotate(-0 448.832452 221.174102)">0.2%</text>
   </g>
   <g id="text_5">
    <text style="fill: #262626; font: 10px 'Arial', 'Liberation Sans', 'DejaVu Sans', 'Bitstream Vera Sans', sans-serif; text-anchor: start" x="515.3616" y="220.75362" transform="rotate(-0 515.3616 220.75362)">chicago_police</text>
   </g>
   <g id="text_6">
    <text style="fill: #262626; font: 10px 'Arial', 'Liberation Sans', 'DejaVu Sans', 'Bitstream Vera Sans', sans-serif; text-anchor: middle" x="448.8336" y="220.750128" transform="rotate(-0 448.8336 220.750128)">0.0%</text>
   </g>
   <g id="text_7">
    <text style="fill: #262626; font: 12px 'Arial', 'Liberation Sans', 'DejaVu Sans', 'Bitstream Vera Sans', sans-serif; text-anchor: middle" x="369" y="45.84" transform="rotate(-0 369 45.84)">Incidents by Source</text>
   </g>
  </g>
 </g>
</svg>
