<?xml version="1.0" encoding="utf-8" standalone="no"?>
<!DOCTYPE svg PUBLIC "-//W3C//DTD SVG 1.1//EN"
  "http://www.w3.org/Graphics/SVG/1.1/DTD/svg11.dtd">
<svg xmlns:xlink="http://www.w3.org/1999/xlink" width="720pt" height="432pt" viewBox="0 0 720 432" xmlns="http://www.w3.org/2000/svg" version="1.1">
 <metadata>
  <rdf:RDF xmlns:dc="http://purl.org/dc/elements/1.1/" xmlns:cc="http://creativecommons.org/ns#" xmlns:rdf="http://www.w3.org/1999/02/22-rdf-syntax-ns#">
   <cc:Work>
    <dc:type rdf:resource="http://purl.org/dc/dcmitype/StillImage"/>
    <dc:date>2026-04-03T02:47:16.807897</dc:date>
    <dc:format>image/svg+xml</dc:format>
    <dc:creator>
     <cc:Agent>
      <dc:title>Matplotlib v3.7.5, https://matplotlib.org/</dc:title>
     </cc:Agent>
    </dc:creator>
   </cc:Work>
  </rdf:RDF>
 </metadata>
 <defs>
  <style type="text/css">*{stroke-linejoin: round; stroke-linecap: butt}</style>
 </defs>
 <g id="figure_1">
  <g id="patch_1">
   <path d="M 0 432 
L 720 432 
L 720 0 
L 0 0 
z
" style="fill: #ffffff"/>
  </g>
  <g id="axes_1">
   <g id="matplotlib.axis_1"/>
   <g id="matplotlib.axis_2"/>
   <g id="patch_2">
    <path d="M 502.056 218.16 
C 502.056 200.705549 498.621455 183.420464 491.948518 167.291924 
C 485.27558 151.163385 475.49375 136.504393 463.161683 124.152146 
C 450.829616 111.7999 436.186636 101.994115 420.069029 95.294816 
C 403.951421 88.595517 386.671975 85.132716 369.217547 85.104178 
C 351.763119 85.07564 334.472442 88.481919 318.333014 95.128477 
C 302.193586 101.775035 287.518619 111.532885 275.146226 123.84474 
C 262.773833 136.156594 252.94412 150.783522 246.218478 166.890154 
C 239.492836 182.996787 236.001787 200.270549 235.944711 217.724907 
C 235.887635 235.179265 239.26564 252.475488 245.885801 268.625762 
C 252.505962 284.776035 262.239805 299.466936 274.531415 311.859442 
C 286.823024 324.251949 301.43386 334.105564 317.529475 340.857531 
C 333.625089 347.609499 350.89312 351.128785 368.347361 351.214399 
C 385.801603 351.300013 403.103326 347.950293 419.264402 341.356546 
C 435.425478 334.7628 450.132274 325.052989 462.544861 312.781658 
C 474.957447 300.510327 484.834938 285.915621 491.613213 269.831067 
C 498.391488 253.746514 501.939003 236.48426 502.053154 219.030182 
L 369 218.16 
z
" style="fill: #f77189"/>
   </g>
   <g id="patch_3">
    <path d="M 502.053154 219.030182 
C 502.054094 218.88659 502.0548 218.742997 502.055274 218.599403 
C 502.055749 218.455809 502.05599 218.312214 502.056 218.168619 
L 369 218.16 
z
" style="fill: #bb9832"/>
   </g>
   <g id="patch_4">
    <path d="M 502.056 218.168619 
C 502.056 218.167183 502.056 218.165747 502.056 218.164311 
C 502.056 218.162875 502.056 218.161439 502.056 218.160003 
L 369 218.16 
z
" style="fill: #50b131"/>
   </g>
   <g id="text_1">
    <text style="fill: #262626; font: 10px 'Arial', 'Liberation Sans', 'DejaVu Sans', 'Bitstream Vera Sans', sans-serif; text-anchor: end" x="222.639183" y="220.267335" transform="rotate(-0 222.639183 220.267335)">newsapi</text>
   </g>
   <g id="text_2">
    <text style="fill: #262626; font: 10px 'Arial', 'Liberation Sans', 'DejaVu Sans', 'Bitstream Vera Sans', sans-serif; text-anchor: middle" x="289.166827" y="220.484881" transform="rotate(-0 289.166827 220.484881)">99.9%</text>
   </g>
   <g id="text_3">
    <text style="fill: #262626; font: 10px 'Arial', 'Liberation Sans', 'DejaVu Sans', 'Bitstream Vera Sans', sans-serif; text-anchor: start" x="515.360802" y="221.229281" transform="rotate(-0 515.360802 221.229281)">chicago_pd</text>
   </g>
   <g id="text_4">
    <text style="fill: #262626; font: 10px 'Arial', 'Liberation Sans', 'DejaVu Sans', 'Bitstream Vera Sans', sans-serif; text-anchor: middle" x="448.833165" y="221.009579" transform="rotate(-0 448.833165 221.009579)">0.1%</text>
   </g>
   <g id="text_5">
    <text style="fill: #262626; font: 10px 'Arial', 'Liberation Sans', 'DejaVu Sans', 'Bitstream Vera Sans', sans-serif; text-anchor: start" x="515.3616" y="220.750679" transform="rotate(-0 515.3616 220.750679)">chicago_police</text>
   </g>
   <g id="text_6">
    <text style="fill: #262626; font: 10px 'Arial', 'Liberation Sans', 'DejaVu Sans', 'Bitstream Vera Sans', sans-serif; text-anchor: middle" x="448.8336" y="220.748524" transform="rotate(-0 448.8336 220.748524)">0.0%</text>
   </g>
   <g id="text_7">
    <text style="fill: #262626; font: 12px 'Arial', 'Liberation Sans', 'DejaVu Sans', 'Bitstream Vera Sans', sans-serif; text-anchor: middle" x="369" y="45.84" transform="rotate(-0 369 45.84)">Incidents by Source</text>
   </g>
  </g>
 </g>
</svg>
