<?xml version="1.0" encoding="utf-8" standalone="no"?>
<!DOCTYPE svg PUBLIC "-//W3C//DTD SVG 1.1//EN"
  "http://www.w3.org/Graphics/SVG/1.1/DTD/svg11.dtd">
<svg xmlns:xlink="http://www.w3.org/1999/xlink" width="720pt" height="432pt" viewBox="0 0 720 432" xmlns="http://www.w3.org/2000/svg" version="1.1">
 <metadata>
  <rdf:RDF xmlns:dc="http://purl.org/dc/elements/1.1/" xmlns:cc="http://creativecommons.org/ns#" xmlns:rdf="http://www.w3.org/1999/02/22-rdf-syntax-ns#">
   <cc:Work>
    <dc:type rdf:resource="http://purl.org/dc/dcmitype/StillImage"/>
    <dc:date>2026-02-15T13:02:38.393992</dc:date>
    <dc:format>image/svg+xml</dc:format>
    <dc:creator>
     <cc:Agent>
      <dc:title>Matplotlib v3.7.5, https://matplotlib.org/</dc:title>
     </cc:Agent>
    </dc:creator>
   </cc:Work>
  </rdf:RDF>
 </metadata>
 <defs>
  <style type="text/css">*{stroke-linejoin: round; stroke-linecap: butt}</style>
 </defs>
 <g id="figure_1">
  <g id="patch_1">
   <path d="M 0 432 
L 720 432 
L 720 0 
L 0 0 
z
" style="fill: #ffffff"/>
  </g>
  <g id="axes_1">
   <g id="matplotlib.axis_1"/>
   <g id="matplotlib.axis_2"/>
   <g id="patch_2">
    <path d="M 502.056 218.16 
C 502.056 200.707129 498.622077 183.423578 491.950313 167.296264 
C 485.278549 151.16895 475.498398 136.510792 463.168319 124.158794 
C 450.838241 111.806795 436.197478 102.000623 420.082039 95.300225 
C 403.9666 88.599826 386.689176 85.13521 369.236333 85.10421 
C 351.78349 85.07321 334.493867 88.476429 318.354728 95.119537 
C 302.215588 101.762645 287.540083 111.516746 275.166203 123.824865 
C 262.792323 136.132985 252.960162 150.756307 246.23115 166.859819 
C 239.502138 182.963331 236.006839 200.234574 235.94484 217.687335 
C 235.88284 235.140095 239.255344 252.435736 245.869775 268.586649 
C 252.484207 284.737562 262.212225 299.43037 274.498347 311.826092 
C 286.784469 324.221813 301.390304 334.079933 317.481839 340.837537 
C 333.573373 347.595142 350.838381 351.121112 368.291004 351.214111 
C 385.743627 351.30711 403.04523 347.965332 419.207866 341.379598 
C 435.370503 334.793864 450.080566 325.091958 462.498091 312.827873 
C 474.915616 300.563788 484.799662 285.975485 491.585838 269.895979 
C 498.372013 253.816473 501.928644 236.557755 502.052642 219.105325 
L 369 218.16 
z
" style="fill: #f77189"/>
   </g>
   <g id="patch_3">
    <path d="M 502.052642 219.105325 
C 502.05375 218.949334 502.054584 218.793342 502.055144 218.637348 
C 502.055703 218.481354 502.055989 218.32536 502.056 218.169365 
L 369 218.16 
z
" style="fill: #bb9832"/>
   </g>
   <g id="patch_4">
    <path d="M 502.056 218.169365 
C 502.056 218.167805 502.056 218.166245 502.056 218.164685 
C 502.056 218.163125 502.056 218.161565 502.056 218.160006 
L 369 218.16 
z
" style="fill: #50b131"/>
   </g>
   <g id="text_1">
    <text style="fill: #262626; font: 10px 'Arial', 'Liberation Sans', 'DejaVu Sans', 'Bitstream Vera Sans', sans-serif; text-anchor: end" x="222.639324" y="220.226006" transform="rotate(-0 222.639324 220.226006)">newsapi</text>
   </g>
   <g id="text_2">
    <text style="fill: #262626; font: 10px 'Arial', 'Liberation Sans', 'DejaVu Sans', 'Bitstream Vera Sans', sans-serif; text-anchor: middle" x="289.166904" y="220.462338" transform="rotate(-0 289.166904 220.462338)">99.9%</text>
   </g>
   <g id="text_3">
    <text style="fill: #262626; font: 10px 'Arial', 'Liberation Sans', 'DejaVu Sans', 'Bitstream Vera Sans', sans-serif; text-anchor: start" x="515.360658" y="221.27102" transform="rotate(-0 515.360658 221.27102)">chicago_pd</text>
   </g>
   <g id="text_4">
    <text style="fill: #262626; font: 10px 'Arial', 'Liberation Sans', 'DejaVu Sans', 'Bitstream Vera Sans', sans-serif; text-anchor: middle" x="448.833086" y="221.032346" transform="rotate(-0 448.833086 221.032346)">0.1%</text>
   </g>
   <g id="text_5">
    <text style="fill: #262626; font: 10px 'Arial', 'Liberation Sans', 'DejaVu Sans', 'Bitstream Vera Sans', sans-serif; text-anchor: start" x="515.3616" y="220.751091" transform="rotate(-0 515.3616 220.751091)">chicago_police</text>
   </g>
   <g id="text_6">
    <text style="fill: #262626; font: 10px 'Arial', 'Liberation Sans', 'DejaVu Sans', 'Bitstream Vera Sans', sans-serif; text-anchor: middle" x="448.8336" y="220.748749" transform="rotate(-0 448.8336 220.748749)">0.0%</text>
   </g>
   <g id="text_7">
    <text style="fill: #262626; font: 12px 'Arial', 'Liberation Sans', 'DejaVu Sans', 'Bitstream Vera Sans', sans-serif; text-anchor: middle" x="369" y="45.84" transform="rotate(-0 369 45.84)">Incidents by Source</text>
   </g>
  </g>
 </g>
</svg>
