<?xml version="1.0" encoding="utf-8" standalone="no"?>
<!DOCTYPE svg PUBLIC "-//W3C//DTD SVG 1.1//EN"
  "http://www.w3.org/Graphics/SVG/1.1/DTD/svg11.dtd">
<svg xmlns:xlink="http://www.w3.org/1999/xlink" width="720pt" height="432pt" viewBox="0 0 720 432" xmlns="http://www.w3.org/2000/svg" version="1.1">
 <metadata>
  <rdf:RDF xmlns:dc="http://purl.org/dc/elements/1.1/" xmlns:cc="http://creativecommons.org/ns#" xmlns:rdf="http://www.w3.org/1999/02/22-rdf-syntax-ns#">
   <cc:Work>
    <dc:type rdf:resource="http://purl.org/dc/dcmitype/StillImage"/>
    <dc:date>2026-03-18T13:24:50.080748</dc:date>
    <dc:format>image/svg+xml</dc:format>
    <dc:creator>
     <cc:Agent>
      <dc:title>Matplotlib v3.7.5, https://matplotlib.org/</dc:title>
     </cc:Agent>
    </dc:creator>
   </cc:Work>
  </rdf:RDF>
 </metadata>
 <defs>
  <style type="text/css">*{stroke-linejoin: round; stroke-linecap: butt}</style>
 </defs>
 <g id="figure_1">
  <g id="patch_1">
   <path d="M 0 432 
L 720 432 
L 720 0 
L 0 0 
z
" style="fill: #ffffff"/>
  </g>
  <g id="axes_1">
   <g id="matplotlib.axis_1"/>
   <g id="matplotlib.axis_2"/>
   <g id="patch_2">
    <path d="M 502.056 218.16 
C 502.056 200.706022 498.621642 183.421397 491.949056 167.293225 
C 485.27647 151.165053 475.495143 136.506311 463.163672 124.154139 
C 450.832201 111.801966 436.189886 101.996065 420.072929 95.296437 
C 403.955971 88.596809 386.677131 85.133463 369.223178 85.104187 
C 351.769225 85.074911 334.478863 88.480273 318.339522 95.125797 
C 302.20018 101.771321 287.525052 111.528047 275.152214 123.838782 
C 262.779375 136.149517 252.948928 150.775364 246.222276 166.881061 
C 239.495623 182.986759 236.003301 200.259766 235.944749 217.713645 
C 235.886197 235.167524 239.262552 252.463573 245.880996 268.614039 
C 252.49944 284.764504 262.231537 299.455977 274.521502 311.849447 
C 286.811466 324.242918 301.420804 334.097883 317.515196 340.85154 
C 333.609588 347.605198 350.876712 351.126488 368.330469 351.214315 
C 385.784226 351.302143 403.085914 347.954803 419.247458 341.363458 
C 435.409002 334.772113 450.116777 325.064672 462.530845 312.795513 
C 474.944912 300.526353 484.824368 285.933566 491.605011 269.850525 
C 498.385654 253.767484 501.935902 236.50629 502.053005 219.052705 
L 369 218.16 
z
" style="fill: #f77189"/>
   </g>
   <g id="patch_3">
    <path d="M 502.053005 219.052705 
C 502.053994 218.905399 502.054737 218.75809 502.055236 218.610781 
C 502.055735 218.463473 502.05599 218.316163 502.056 218.168853 
L 369 218.16 
z
" style="fill: #bb9832"/>
   </g>
   <g id="patch_4">
    <path d="M 502.056 218.168853 
C 502.056 218.16738 502.056 218.165907 502.056 218.164434 
C 502.056 218.162961 502.056 218.161487 502.056 218.160014 
L 369 218.16 
z
" style="fill: #50b131"/>
   </g>
   <g id="text_1">
    <text style="fill: #262626; font: 10px 'Arial', 'Liberation Sans', 'DejaVu Sans', 'Bitstream Vera Sans', sans-serif; text-anchor: end" x="222.639224" y="220.254947" transform="rotate(-0 222.639224 220.254947)">newsapi</text>
   </g>
   <g id="text_2">
    <text style="fill: #262626; font: 10px 'Arial', 'Liberation Sans', 'DejaVu Sans', 'Bitstream Vera Sans', sans-serif; text-anchor: middle" x="289.166849" y="220.478124" transform="rotate(-0 289.166849 220.478124)">99.9%</text>
   </g>
   <g id="text_3">
    <text style="fill: #262626; font: 10px 'Arial', 'Liberation Sans', 'DejaVu Sans', 'Bitstream Vera Sans', sans-serif; text-anchor: start" x="515.36076" y="221.241797" transform="rotate(-0 515.36076 221.241797)">chicago_pd</text>
   </g>
   <g id="text_4">
    <text style="fill: #262626; font: 10px 'Arial', 'Liberation Sans', 'DejaVu Sans', 'Bitstream Vera Sans', sans-serif; text-anchor: middle" x="448.833142" y="221.016406" transform="rotate(-0 448.833142 221.016406)">0.1%</text>
   </g>
   <g id="text_5">
    <text style="fill: #262626; font: 10px 'Arial', 'Liberation Sans', 'DejaVu Sans', 'Bitstream Vera Sans', sans-serif; text-anchor: start" x="515.3616" y="220.750815" transform="rotate(-0 515.3616 220.750815)">chicago_police</text>
   </g>
   <g id="text_6">
    <text style="fill: #262626; font: 10px 'Arial', 'Liberation Sans', 'DejaVu Sans', 'Bitstream Vera Sans', sans-serif; text-anchor: middle" x="448.8336" y="220.748598" transform="rotate(-0 448.8336 220.748598)">0.0%</text>
   </g>
   <g id="text_7">
    <text style="fill: #262626; font: 12px 'Arial', 'Liberation Sans', 'DejaVu Sans', 'Bitstream Vera Sans', sans-serif; text-anchor: middle" x="369" y="45.84" transform="rotate(-0 369 45.84)">Incidents by Source</text>
   </g>
  </g>
 </g>
</svg>
