<?xml version="1.0" encoding="utf-8" standalone="no"?>
<!DOCTYPE svg PUBLIC "-//W3C//DTD SVG 1.1//EN"
  "http://www.w3.org/Graphics/SVG/1.1/DTD/svg11.dtd">
<svg xmlns:xlink="http://www.w3.org/1999/xlink" width="720pt" height="432pt" viewBox="0 0 720 432" xmlns="http://www.w3.org/2000/svg" version="1.1">
 <metadata>
  <rdf:RDF xmlns:dc="http://purl.org/dc/elements/1.1/" xmlns:cc="http://creativecommons.org/ns#" xmlns:rdf="http://www.w3.org/1999/02/22-rdf-syntax-ns#">
   <cc:Work>
    <dc:type rdf:resource="http://purl.org/dc/dcmitype/StillImage"/>
    <dc:date>2025-01-21T12:39:21.259223</dc:date>
    <dc:format>image/svg+xml</dc:format>
    <dc:creator>
     <cc:Agent>
      <dc:title>Matplotlib v3.7.5, https://matplotlib.org/</dc:title>
     </cc:Agent>
    </dc:creator>
   </cc:Work>
  </rdf:RDF>
 </metadata>
 <defs>
  <style type="text/css">*{stroke-linejoin: round; stroke-linecap: butt}</style>
 </defs>
 <g id="figure_1">
  <g id="patch_1">
   <path d="M 0 432 
L 720 432 
L 720 0 
L 0 0 
z
" style="fill: #ffffff"/>
  </g>
  <g id="axes_1">
   <g id="matplotlib.axis_1"/>
   <g id="matplotlib.axis_2"/>
   <g id="patch_2">
    <path d="M 502.056 218.16 
C 502.056 200.863435 498.683309 183.731675 492.127136 167.725809 
C 485.570962 151.719943 475.956241 137.144985 463.822359 124.818588 
C 451.688478 112.49219 437.266661 102.64925 421.365973 95.841955 
C 405.465284 89.03466 388.388733 85.392732 371.09431 85.120483 
C 353.799888 84.848234 336.617164 87.950852 320.510086 94.25428 
C 304.403009 100.557708 289.678519 109.941827 277.162661 121.880187 
C 264.646803 133.818548 254.578082 148.083649 247.521352 163.87522 
C 240.464623 179.666792 236.55436 196.683904 236.009929 213.971898 
C 235.465498 231.259892 238.297275 248.489324 244.346395 264.693622 
C 250.395516 280.897921 259.546708 295.768293 271.286589 308.470511 
C 283.02647 321.172729 297.131321 331.464737 312.809863 338.769152 
C 328.488405 346.073568 345.441861 350.251197 362.719144 351.067675 
C 379.996428 351.884152 397.268297 349.323919 413.565801 343.530605 
C 429.863306 337.73729 444.875876 328.821293 457.761307 317.2828 
C 470.646739 305.744307 481.159482 291.803199 488.709774 276.241572 
C 496.260067 260.679945 500.704027 243.794345 501.792349 226.532054 
L 369 218.16 
z
" style="fill: #f77189"/>
   </g>
   <g id="patch_3">
    <path d="M 501.792349 226.532054 
C 501.879335 225.152327 501.944813 223.771328 501.988759 222.389561 
C 502.032704 221.007794 502.055112 219.625426 502.055974 218.24296 
L 369 218.16 
z
" style="fill: #bb9832"/>
   </g>
   <g id="patch_4">
    <path d="M 502.055974 218.24296 
C 502.055983 218.229135 502.055989 218.215311 502.055994 218.201487 
C 502.055998 218.187662 502.056 218.173838 502.056 218.160014 
L 369 218.16 
z
" style="fill: #50b131"/>
   </g>
   <g id="text_1">
    <text style="fill: #262626; font: 10px 'Arial', 'Liberation Sans', 'DejaVu Sans', 'Bitstream Vera Sans', sans-serif; text-anchor: end" x="222.710922" y="216.139025" transform="rotate(-0 222.710922 216.139025)">newsapi</text>
   </g>
   <g id="text_2">
    <text style="fill: #262626; font: 10px 'Arial', 'Liberation Sans', 'DejaVu Sans', 'Bitstream Vera Sans', sans-serif; text-anchor: middle" x="289.205958" y="218.233076" transform="rotate(-0 289.205958 218.233076)">99.0%</text>
   </g>
   <g id="text_3">
    <text style="fill: #262626; font: 10px 'Arial', 'Liberation Sans', 'DejaVu Sans', 'Bitstream Vera Sans', sans-serif; text-anchor: start" x="515.287635" y="225.398455" transform="rotate(-0 515.287635 225.398455)">chicago_pd</text>
   </g>
   <g id="text_4">
    <text style="fill: #262626; font: 10px 'Arial', 'Liberation Sans', 'DejaVu Sans', 'Bitstream Vera Sans', sans-serif; text-anchor: middle" x="448.793255" y="223.283674" transform="rotate(-0 448.793255 223.283674)">1.0%</text>
   </g>
   <g id="text_5">
    <text style="fill: #262626; font: 10px 'Arial', 'Liberation Sans', 'DejaVu Sans', 'Bitstream Vera Sans', sans-serif; text-anchor: start" x="515.361593" y="220.791573" transform="rotate(-0 515.361593 220.791573)">chicago_police</text>
   </g>
   <g id="text_6">
    <text style="fill: #262626; font: 10px 'Arial', 'Liberation Sans', 'DejaVu Sans', 'Bitstream Vera Sans', sans-serif; text-anchor: middle" x="448.833596" y="220.77083" transform="rotate(-0 448.833596 220.77083)">0.0%</text>
   </g>
   <g id="text_7">
    <text style="fill: #262626; font: 12px 'Arial', 'Liberation Sans', 'DejaVu Sans', 'Bitstream Vera Sans', sans-serif; text-anchor: middle" x="369" y="45.84" transform="rotate(-0 369 45.84)">Incidents by Source</text>
   </g>
  </g>
 </g>
</svg>
