<?xml version="1.0" encoding="utf-8" standalone="no"?>
<!DOCTYPE svg PUBLIC "-//W3C//DTD SVG 1.1//EN"
  "http://www.w3.org/Graphics/SVG/1.1/DTD/svg11.dtd">
<svg xmlns:xlink="http://www.w3.org/1999/xlink" width="720pt" height="432pt" viewBox="0 0 720 432" xmlns="http://www.w3.org/2000/svg" version="1.1">
 <metadata>
  <rdf:RDF xmlns:dc="http://purl.org/dc/elements/1.1/" xmlns:cc="http://creativecommons.org/ns#" xmlns:rdf="http://www.w3.org/1999/02/22-rdf-syntax-ns#">
   <cc:Work>
    <dc:type rdf:resource="http://purl.org/dc/dcmitype/StillImage"/>
    <dc:date>2026-01-12T06:29:26.875104</dc:date>
    <dc:format>image/svg+xml</dc:format>
    <dc:creator>
     <cc:Agent>
      <dc:title>Matplotlib v3.7.5, https://matplotlib.org/</dc:title>
     </cc:Agent>
    </dc:creator>
   </cc:Work>
  </rdf:RDF>
 </metadata>
 <defs>
  <style type="text/css">*{stroke-linejoin: round; stroke-linecap: butt}</style>
 </defs>
 <g id="figure_1">
  <g id="patch_1">
   <path d="M 0 432 
L 720 432 
L 720 0 
L 0 0 
z
" style="fill: #ffffff"/>
  </g>
  <g id="axes_1">
   <g id="matplotlib.axis_1"/>
   <g id="matplotlib.axis_2"/>
   <g id="patch_2">
    <path d="M 502.056 218.16 
C 502.056 200.708933 498.622787 183.427133 491.952362 167.301217 
C 485.281937 151.175301 475.503701 136.518096 463.175892 124.166381 
C 450.848083 111.814665 436.209849 102.008052 420.096886 95.306399 
C 403.983923 88.604745 386.708807 85.138058 369.257773 85.10425 
C 351.806738 85.070441 334.51832 88.470168 318.379511 95.109339 
C 302.240702 101.74851 287.564581 111.498332 275.189006 123.802189 
C 262.813431 136.106045 252.978477 150.725253 246.24562 166.825203 
C 239.512764 182.925152 236.012615 200.19352 235.944999 217.644456 
C 235.877382 235.095392 239.243609 252.390364 245.851501 268.542005 
C 252.459394 284.693646 262.180765 299.388628 274.460623 311.788016 
C 286.740481 324.187404 301.340608 334.050662 317.427484 340.814697 
C 333.51436 347.578732 350.775914 351.112328 368.226686 351.213753 
C 385.677459 351.315177 402.97892 347.982463 419.143332 341.405874 
C 435.307744 334.829284 450.021532 325.1364 462.444687 312.880587 
C 474.867842 300.624774 484.759366 286.043783 491.554554 269.970041 
C 498.349742 253.8963 501.916773 236.641624 502.052005 219.19108 
L 369 218.16 
z
" style="fill: #f77189"/>
   </g>
   <g id="patch_3">
    <path d="M 502.052005 219.19108 
C 502.053323 219.020935 502.054316 218.850788 502.054981 218.680639 
C 502.055647 218.51049 502.055987 218.34034 502.056 218.17019 
L 369 218.16 
z
" style="fill: #bb9832"/>
   </g>
   <g id="patch_4">
    <path d="M 502.056 218.17019 
C 502.056 218.168489 502.056 218.166787 502.056 218.165086 
C 502.056 218.163384 502.056 218.161683 502.056 218.159981 
L 369 218.16 
z
" style="fill: #50b131"/>
   </g>
   <g id="text_1">
    <text style="fill: #262626; font: 10px 'Arial', 'Liberation Sans', 'DejaVu Sans', 'Bitstream Vera Sans', sans-serif; text-anchor: end" x="222.639499" y="220.178839" transform="rotate(-0 222.639499 220.178839)">newsapi</text>
   </g>
   <g id="text_2">
    <text style="fill: #262626; font: 10px 'Arial', 'Liberation Sans', 'DejaVu Sans', 'Bitstream Vera Sans', sans-serif; text-anchor: middle" x="289.166999" y="220.436611" transform="rotate(-0 289.166999 220.436611)">99.9%</text>
   </g>
   <g id="text_3">
    <text style="fill: #262626; font: 10px 'Arial', 'Liberation Sans', 'DejaVu Sans', 'Bitstream Vera Sans', sans-serif; text-anchor: start" x="515.36048" y="221.318641" transform="rotate(-0 515.36048 221.318641)">chicago_pd</text>
   </g>
   <g id="text_4">
    <text style="fill: #262626; font: 10px 'Arial', 'Liberation Sans', 'DejaVu Sans', 'Bitstream Vera Sans', sans-serif; text-anchor: middle" x="448.832989" y="221.058321" transform="rotate(-0 448.832989 221.058321)">0.1%</text>
   </g>
   <g id="text_5">
    <text style="fill: #262626; font: 10px 'Arial', 'Liberation Sans', 'DejaVu Sans', 'Bitstream Vera Sans', sans-serif; text-anchor: start" x="515.3616" y="220.751532" transform="rotate(-0 515.3616 220.751532)">chicago_police</text>
   </g>
   <g id="text_6">
    <text style="fill: #262626; font: 10px 'Arial', 'Liberation Sans', 'DejaVu Sans', 'Bitstream Vera Sans', sans-serif; text-anchor: middle" x="448.8336" y="220.748989" transform="rotate(-0 448.8336 220.748989)">0.0%</text>
   </g>
   <g id="text_7">
    <text style="fill: #262626; font: 12px 'Arial', 'Liberation Sans', 'DejaVu Sans', 'Bitstream Vera Sans', sans-serif; text-anchor: middle" x="369" y="45.84" transform="rotate(-0 369 45.84)">Incidents by Source</text>
   </g>
  </g>
 </g>
</svg>
