<?xml version="1.0" encoding="utf-8" standalone="no"?>
<!DOCTYPE svg PUBLIC "-//W3C//DTD SVG 1.1//EN"
  "http://www.w3.org/Graphics/SVG/1.1/DTD/svg11.dtd">
<svg xmlns:xlink="http://www.w3.org/1999/xlink" width="720pt" height="432pt" viewBox="0 0 720 432" xmlns="http://www.w3.org/2000/svg" version="1.1">
 <metadata>
  <rdf:RDF xmlns:dc="http://purl.org/dc/elements/1.1/" xmlns:cc="http://creativecommons.org/ns#" xmlns:rdf="http://www.w3.org/1999/02/22-rdf-syntax-ns#">
   <cc:Work>
    <dc:type rdf:resource="http://purl.org/dc/dcmitype/StillImage"/>
    <dc:date>2025-01-30T12:38:36.615499</dc:date>
    <dc:format>image/svg+xml</dc:format>
    <dc:creator>
     <cc:Agent>
      <dc:title>Matplotlib v3.7.5, https://matplotlib.org/</dc:title>
     </cc:Agent>
    </dc:creator>
   </cc:Work>
  </rdf:RDF>
 </metadata>
 <defs>
  <style type="text/css">*{stroke-linejoin: round; stroke-linecap: butt}</style>
 </defs>
 <g id="figure_1">
  <g id="patch_1">
   <path d="M 0 432 
L 720 432 
L 720 0 
L 0 0 
z
" style="fill: #ffffff"/>
  </g>
  <g id="axes_1">
   <g id="matplotlib.axis_1"/>
   <g id="matplotlib.axis_2"/>
   <g id="patch_2">
    <path d="M 502.056 218.16 
C 502.056 200.834399 498.671976 183.674435 492.094399 167.645962 
C 485.516822 151.617489 475.871459 137.026981 463.701202 124.695667 
C 451.530944 112.364354 437.068495 102.528016 421.127876 95.740297 
C 405.187258 88.952578 388.073263 85.343261 370.749159 85.115498 
C 353.425055 84.887735 336.222087 88.045881 320.108531 94.412178 
C 303.994974 100.778476 289.278927 110.231199 276.788689 122.238296 
C 264.29845 134.245394 254.272839 148.577285 247.276151 164.427295 
C 240.279462 180.277304 236.445476 197.342372 235.989989 214.661985 
C 235.534502 231.981597 238.466225 249.224596 244.620143 265.420451 
C 250.774061 281.616307 260.032509 296.455348 271.874372 309.102353 
C 283.716235 321.749358 297.915091 331.96251 313.671752 339.166959 
C 329.428413 346.371408 346.441604 350.429401 363.753733 351.112532 
C 381.065861 351.795664 398.34591 349.090872 414.621266 343.150397 
C 430.896621 337.209922 445.856092 328.147348 458.657677 316.472766 
C 471.459263 304.798185 481.858191 290.734818 489.269155 275.074229 
C 496.680119 259.413639 500.961418 242.455265 501.872076 225.153613 
L 369 218.16 
z
" style="fill: #f77189"/>
   </g>
   <g id="patch_3">
    <path d="M 501.872076 225.153613 
C 501.932764 224.000602 501.978441 222.846851 502.009096 221.692652 
C 502.039751 220.538453 502.055381 219.383903 502.055982 218.229297 
L 369 218.16 
z
" style="fill: #bb9832"/>
   </g>
   <g id="patch_4">
    <path d="M 502.055982 218.229297 
C 502.055988 218.217751 502.055992 218.206205 502.055995 218.194659 
C 502.055998 218.183113 502.056 218.171567 502.056 218.160022 
L 369 218.16 
z
" style="fill: #50b131"/>
   </g>
   <g id="text_1">
    <text style="fill: #262626; font: 10px 'Arial', 'Liberation Sans', 'DejaVu Sans', 'Bitstream Vera Sans', sans-serif; text-anchor: end" x="222.688988" y="216.898121" transform="rotate(-0 222.688988 216.898121)">newsapi</text>
   </g>
   <g id="text_2">
    <text style="fill: #262626; font: 10px 'Arial', 'Liberation Sans', 'DejaVu Sans', 'Bitstream Vera Sans', sans-serif; text-anchor: middle" x="289.193993" y="218.647128" transform="rotate(-0 289.193993 218.647128)">99.2%</text>
   </g>
   <g id="text_3">
    <text style="fill: #262626; font: 10px 'Arial', 'Liberation Sans', 'DejaVu Sans', 'Bitstream Vera Sans', sans-serif; text-anchor: start" x="515.310005" y="224.631854" transform="rotate(-0 515.310005 224.631854)">chicago_pd</text>
   </g>
   <g id="text_4">
    <text style="fill: #262626; font: 10px 'Arial', 'Liberation Sans', 'DejaVu Sans', 'Bitstream Vera Sans', sans-serif; text-anchor: middle" x="448.805457" y="222.865529" transform="rotate(-0 448.805457 222.865529)">0.8%</text>
   </g>
   <g id="text_5">
    <text style="fill: #262626; font: 10px 'Arial', 'Liberation Sans', 'DejaVu Sans', 'Bitstream Vera Sans', sans-serif; text-anchor: start" x="515.361595" y="220.784063" transform="rotate(-0 515.361595 220.784063)">chicago_police</text>
   </g>
   <g id="text_6">
    <text style="fill: #262626; font: 10px 'Arial', 'Liberation Sans', 'DejaVu Sans', 'Bitstream Vera Sans', sans-serif; text-anchor: middle" x="448.833597" y="220.766733" transform="rotate(-0 448.833597 220.766733)">0.0%</text>
   </g>
   <g id="text_7">
    <text style="fill: #262626; font: 12px 'Arial', 'Liberation Sans', 'DejaVu Sans', 'Bitstream Vera Sans', sans-serif; text-anchor: middle" x="369" y="45.84" transform="rotate(-0 369 45.84)">Incidents by Source</text>
   </g>
  </g>
 </g>
</svg>
