<?xml version="1.0" encoding="utf-8" standalone="no"?>
<!DOCTYPE svg PUBLIC "-//W3C//DTD SVG 1.1//EN"
  "http://www.w3.org/Graphics/SVG/1.1/DTD/svg11.dtd">
<svg xmlns:xlink="http://www.w3.org/1999/xlink" width="720pt" height="432pt" viewBox="0 0 720 432" xmlns="http://www.w3.org/2000/svg" version="1.1">
 <metadata>
  <rdf:RDF xmlns:dc="http://purl.org/dc/elements/1.1/" xmlns:cc="http://creativecommons.org/ns#" xmlns:rdf="http://www.w3.org/1999/02/22-rdf-syntax-ns#">
   <cc:Work>
    <dc:type rdf:resource="http://purl.org/dc/dcmitype/StillImage"/>
    <dc:date>2025-03-23T12:23:03.102201</dc:date>
    <dc:format>image/svg+xml</dc:format>
    <dc:creator>
     <cc:Agent>
      <dc:title>Matplotlib v3.7.5, https://matplotlib.org/</dc:title>
     </cc:Agent>
    </dc:creator>
   </cc:Work>
  </rdf:RDF>
 </metadata>
 <defs>
  <style type="text/css">*{stroke-linejoin: round; stroke-linecap: butt}</style>
 </defs>
 <g id="figure_1">
  <g id="patch_1">
   <path d="M 0 432 
L 720 432 
L 720 0 
L 0 0 
z
" style="fill: #ffffff"/>
  </g>
  <g id="axes_1">
   <g id="matplotlib.axis_1"/>
   <g id="matplotlib.axis_2"/>
   <g id="patch_2">
    <path d="M 502.056 218.16 
C 502.056 200.768189 498.646063 183.543925 492.019563 167.463981 
C 485.393063 151.384038 475.677675 136.758232 463.424351 124.415981 
C 451.171028 112.073731 436.615856 102.252838 420.584249 95.510237 
C 404.552643 88.767636 387.353486 85.233239 369.96213 85.107479 
C 352.570773 84.981718 335.322302 88.267018 319.194863 94.77707 
C 303.067423 101.287122 288.371748 110.896497 275.941216 123.060253 
C 263.510684 135.22401 253.584799 149.707785 246.72645 165.690217 
C 239.868101 181.672649 236.209429 198.845799 235.957914 216.235791 
C 235.7064 233.625783 238.86689 250.89756 245.260154 267.071652 
C 251.653419 283.245744 261.156277 298.010521 273.22983 310.528684 
C 285.303383 323.046847 299.715006 333.077204 315.647428 340.050944 
C 331.579849 347.024683 348.726094 350.807439 366.113813 351.184693 
C 383.501531 351.561948 400.79571 348.526434 417.015609 342.250292 
C 433.235508 335.974149 448.068614 326.578303 460.673753 314.595585 
C 473.278893 302.612867 483.413199 288.27415 490.501964 272.392573 
C 497.590728 256.510995 501.49737 239.392551 502.000346 222.008015 
L 369 218.16 
z
" style="fill: #f77189"/>
   </g>
   <g id="patch_3">
    <path d="M 502.000346 222.008015 
C 502.018712 221.373201 502.032534 220.738263 502.041809 220.103251 
C 502.051084 219.468239 502.055813 218.833169 502.055995 218.198089 
L 369 218.16 
z
" style="fill: #bb9832"/>
   </g>
   <g id="patch_4">
    <path d="M 502.055995 218.198089 
C 502.055996 218.191738 502.055998 218.185388 502.055999 218.179037 
C 502.056 218.172686 502.056 218.166335 502.056 218.159984 
L 369 218.16 
z
" style="fill: #50b131"/>
   </g>
   <g id="text_1">
    <text style="fill: #262626; font: 10px 'Arial', 'Liberation Sans', 'DejaVu Sans', 'Bitstream Vera Sans', sans-serif; text-anchor: end" x="222.653706" y="218.629308" transform="rotate(-0 222.653706 218.629308)">newsapi</text>
   </g>
   <g id="text_2">
    <text style="fill: #262626; font: 10px 'Arial', 'Liberation Sans', 'DejaVu Sans', 'Bitstream Vera Sans', sans-serif; text-anchor: middle" x="289.174749" y="219.591412" transform="rotate(-0 289.174749 219.591412)">99.5%</text>
   </g>
   <g id="text_3">
    <text style="fill: #262626; font: 10px 'Arial', 'Liberation Sans', 'DejaVu Sans', 'Bitstream Vera Sans', sans-serif; text-anchor: start" x="515.34599" y="222.883514" transform="rotate(-0 515.34599 222.883514)">chicago_pd</text>
   </g>
   <g id="text_4">
    <text style="fill: #262626; font: 10px 'Arial', 'Liberation Sans', 'DejaVu Sans', 'Bitstream Vera Sans', sans-serif; text-anchor: middle" x="448.825085" y="221.911888" transform="rotate(-0 448.825085 221.911888)">0.5%</text>
   </g>
   <g id="text_5">
    <text style="fill: #262626; font: 10px 'Arial', 'Liberation Sans', 'DejaVu Sans', 'Bitstream Vera Sans', sans-serif; text-anchor: start" x="515.361599" y="220.766878" transform="rotate(-0 515.361599 220.766878)">chicago_police</text>
   </g>
   <g id="text_6">
    <text style="fill: #262626; font: 10px 'Arial', 'Liberation Sans', 'DejaVu Sans', 'Bitstream Vera Sans', sans-serif; text-anchor: middle" x="448.833599" y="220.75736" transform="rotate(-0 448.833599 220.75736)">0.0%</text>
   </g>
   <g id="text_7">
    <text style="fill: #262626; font: 12px 'Arial', 'Liberation Sans', 'DejaVu Sans', 'Bitstream Vera Sans', sans-serif; text-anchor: middle" x="369" y="45.84" transform="rotate(-0 369 45.84)">Incidents by Source</text>
   </g>
  </g>
 </g>
</svg>
