<?xml version="1.0" encoding="utf-8" standalone="no"?>
<!DOCTYPE svg PUBLIC "-//W3C//DTD SVG 1.1//EN"
  "http://www.w3.org/Graphics/SVG/1.1/DTD/svg11.dtd">
<svg xmlns:xlink="http://www.w3.org/1999/xlink" width="720pt" height="432pt" viewBox="0 0 720 432" xmlns="http://www.w3.org/2000/svg" version="1.1">
 <metadata>
  <rdf:RDF xmlns:dc="http://purl.org/dc/elements/1.1/" xmlns:cc="http://creativecommons.org/ns#" xmlns:rdf="http://www.w3.org/1999/02/22-rdf-syntax-ns#">
   <cc:Work>
    <dc:type rdf:resource="http://purl.org/dc/dcmitype/StillImage"/>
    <dc:date>2025-12-20T12:28:51.007797</dc:date>
    <dc:format>image/svg+xml</dc:format>
    <dc:creator>
     <cc:Agent>
      <dc:title>Matplotlib v3.7.5, https://matplotlib.org/</dc:title>
     </cc:Agent>
    </dc:creator>
   </cc:Work>
  </rdf:RDF>
 </metadata>
 <defs>
  <style type="text/css">*{stroke-linejoin: round; stroke-linecap: butt}</style>
 </defs>
 <g id="figure_1">
  <g id="patch_1">
   <path d="M 0 432 
L 720 432 
L 720 0 
L 0 0 
z
" style="fill: #ffffff"/>
  </g>
  <g id="axes_1">
   <g id="matplotlib.axis_1"/>
   <g id="matplotlib.axis_2"/>
   <g id="patch_2">
    <path d="M 502.056 218.16 
C 502.056 200.710052 498.623227 183.429339 491.953633 167.304291 
C 485.28404 151.179242 475.506992 136.522629 463.180591 124.171089 
C 450.854191 111.81955 436.217527 102.012663 420.106099 95.310231 
C 403.994672 88.607799 386.720989 85.139827 369.271077 85.104276 
C 351.821166 85.068725 334.533495 88.466284 318.394892 95.103013 
C 302.256288 101.739741 287.579786 111.486908 275.20316 123.788119 
C 262.826534 136.08933 252.989847 150.705984 246.254605 166.803723 
C 239.519363 182.901462 236.016207 200.168044 235.945105 217.617847 
C 235.874003 235.06765 239.236334 252.362206 245.840169 268.514297 
C 252.444004 284.666388 262.16125 299.362718 274.437221 311.76438 
C 286.713191 324.166042 301.309774 334.032487 317.393758 340.800511 
C 333.477742 347.568535 350.737151 351.106862 368.186773 351.213515 
C 385.636395 351.320167 402.937766 347.993077 419.103277 341.422163 
C 435.268789 334.851248 449.984885 325.163964 462.411531 312.913285 
C 474.838178 300.662606 484.73434 286.086154 491.535118 270.015992 
C 498.335897 253.945831 501.909379 236.693666 502.051582 219.244298 
L 369 218.16 
z
" style="fill: #f77189"/>
   </g>
   <g id="patch_3">
    <path d="M 502.051582 219.244298 
C 502.05304 219.065374 502.054137 218.886448 502.054873 218.70752 
C 502.05561 218.528592 502.055985 218.349663 502.056 218.170733 
L 369 218.16 
z
" style="fill: #bb9832"/>
   </g>
   <g id="patch_4">
    <path d="M 502.056 218.170733 
C 502.056 218.168944 502.056 218.167155 502.056 218.165365 
C 502.056 218.163576 502.056 218.161787 502.056 218.159997 
L 369 218.16 
z
" style="fill: #50b131"/>
   </g>
   <g id="text_1">
    <text style="fill: #262626; font: 10px 'Arial', 'Liberation Sans', 'DejaVu Sans', 'Bitstream Vera Sans', sans-serif; text-anchor: end" x="222.639615" y="220.149569" transform="rotate(-0 222.639615 220.149569)">newsapi</text>
   </g>
   <g id="text_2">
    <text style="fill: #262626; font: 10px 'Arial', 'Liberation Sans', 'DejaVu Sans', 'Bitstream Vera Sans', sans-serif; text-anchor: middle" x="289.167063" y="220.420646" transform="rotate(-0 289.167063 220.420646)">99.9%</text>
   </g>
   <g id="text_3">
    <text style="fill: #262626; font: 10px 'Arial', 'Liberation Sans', 'DejaVu Sans', 'Bitstream Vera Sans', sans-serif; text-anchor: start" x="515.360361" y="221.348209" transform="rotate(-0 515.360361 221.348209)">chicago_pd</text>
   </g>
   <g id="text_4">
    <text style="fill: #262626; font: 10px 'Arial', 'Liberation Sans', 'DejaVu Sans', 'Bitstream Vera Sans', sans-serif; text-anchor: middle" x="448.832924" y="221.074449" transform="rotate(-0 448.832924 221.074449)">0.1%</text>
   </g>
   <g id="text_5">
    <text style="fill: #262626; font: 10px 'Arial', 'Liberation Sans', 'DejaVu Sans', 'Bitstream Vera Sans', sans-serif; text-anchor: start" x="515.3616" y="220.751839" transform="rotate(-0 515.3616 220.751839)">chicago_police</text>
   </g>
   <g id="text_6">
    <text style="fill: #262626; font: 10px 'Arial', 'Liberation Sans', 'DejaVu Sans', 'Bitstream Vera Sans', sans-serif; text-anchor: middle" x="448.8336" y="220.749157" transform="rotate(-0 448.8336 220.749157)">0.0%</text>
   </g>
   <g id="text_7">
    <text style="fill: #262626; font: 12px 'Arial', 'Liberation Sans', 'DejaVu Sans', 'Bitstream Vera Sans', sans-serif; text-anchor: middle" x="369" y="45.84" transform="rotate(-0 369 45.84)">Incidents by Source</text>
   </g>
  </g>
 </g>
</svg>
