<?xml version="1.0" encoding="utf-8" standalone="no"?>
<!DOCTYPE svg PUBLIC "-//W3C//DTD SVG 1.1//EN"
  "http://www.w3.org/Graphics/SVG/1.1/DTD/svg11.dtd">
<svg xmlns:xlink="http://www.w3.org/1999/xlink" width="720pt" height="432pt" viewBox="0 0 720 432" xmlns="http://www.w3.org/2000/svg" version="1.1">
 <metadata>
  <rdf:RDF xmlns:dc="http://purl.org/dc/elements/1.1/" xmlns:cc="http://creativecommons.org/ns#" xmlns:rdf="http://www.w3.org/1999/02/22-rdf-syntax-ns#">
   <cc:Work>
    <dc:type rdf:resource="http://purl.org/dc/dcmitype/StillImage"/>
    <dc:date>2025-07-20T02:19:16.885887</dc:date>
    <dc:format>image/svg+xml</dc:format>
    <dc:creator>
     <cc:Agent>
      <dc:title>Matplotlib v3.7.5, https://matplotlib.org/</dc:title>
     </cc:Agent>
    </dc:creator>
   </cc:Work>
  </rdf:RDF>
 </metadata>
 <defs>
  <style type="text/css">*{stroke-linejoin: round; stroke-linecap: butt}</style>
 </defs>
 <g id="figure_1">
  <g id="patch_1">
   <path d="M 0 432 
L 720 432 
L 720 0 
L 0 0 
z
" style="fill: #ffffff"/>
  </g>
  <g id="axes_1">
   <g id="matplotlib.axis_1"/>
   <g id="matplotlib.axis_2"/>
   <g id="patch_2">
    <path d="M 502.056 218.16 
C 502.056 200.726119 498.629546 183.461005 491.971874 167.348413 
C 485.314202 151.235821 475.554211 136.587704 463.248018 124.238702 
C 450.941826 111.8897 436.32769 102.078901 420.238314 95.365317 
C 404.148939 88.651732 386.895828 85.165343 369.462052 85.104802 
C 352.028275 85.044261 334.751367 88.41074 318.615752 95.012419 
C 302.480138 101.614098 287.798217 111.323163 275.406555 123.586398 
C 263.014893 135.849633 253.153404 150.429612 246.383988 166.495577 
C 239.614572 182.561541 236.06829 199.802442 235.947209 217.235903 
C 235.826128 234.669363 239.13259 251.957858 245.678197 268.1163 
C 252.223803 284.274743 261.881825 298.990291 274.101955 311.424464 
C 286.322085 323.858636 300.86773 333.770697 316.910091 340.595863 
C 332.952451 347.421029 350.180932 351.027159 367.613868 351.20878 
C 385.046803 351.3904 402.346676 348.143994 418.527751 341.654538 
C 434.708826 335.165083 449.457824 325.558221 461.934357 313.381344 
C 474.410891 301.204467 484.373403 286.69333 491.254237 270.674767 
C 498.13507 254.656205 501.801007 237.44035 502.043164 220.00815 
L 369 218.16 
z
" style="fill: #f77189"/>
   </g>
   <g id="patch_3">
    <path d="M 502.043164 220.00815 
C 502.0474 219.703193 502.050588 219.398223 502.052727 219.093244 
C 502.054866 218.788265 502.055957 218.48328 502.055999 218.178294 
L 369 218.16 
z
" style="fill: #bb9832"/>
   </g>
   <g id="patch_4">
    <path d="M 502.055999 218.178294 
C 502.055999 218.175244 502.055999 218.172194 502.056 218.169144 
C 502.056 218.166094 502.056 218.163044 502.056 218.159994 
L 369 218.16 
z
" style="fill: #50b131"/>
   </g>
   <g id="text_1">
    <text style="fill: #262626; font: 10px 'Arial', 'Liberation Sans', 'DejaVu Sans', 'Bitstream Vera Sans', sans-serif; text-anchor: end" x="222.64193" y="219.72943" transform="rotate(-0 222.64193 219.72943)">newsapi</text>
   </g>
   <g id="text_2">
    <text style="fill: #262626; font: 10px 'Arial', 'Liberation Sans', 'DejaVu Sans', 'Bitstream Vera Sans', sans-serif; text-anchor: middle" x="289.168325" y="220.191479" transform="rotate(-0 289.168325 220.191479)">99.8%</text>
   </g>
   <g id="text_3">
    <text style="fill: #262626; font: 10px 'Arial', 'Liberation Sans', 'DejaVu Sans', 'Bitstream Vera Sans', sans-serif; text-anchor: start" x="515.358" y="221.772506" transform="rotate(-0 515.358 221.772506)">chicago_pd</text>
   </g>
   <g id="text_4">
    <text style="fill: #262626; font: 10px 'Arial', 'Liberation Sans', 'DejaVu Sans', 'Bitstream Vera Sans', sans-serif; text-anchor: middle" x="448.831636" y="221.305884" transform="rotate(-0 448.831636 221.305884)">0.2%</text>
   </g>
   <g id="text_5">
    <text style="fill: #262626; font: 10px 'Arial', 'Liberation Sans', 'DejaVu Sans', 'Bitstream Vera Sans', sans-serif; text-anchor: start" x="515.3616" y="220.755996" transform="rotate(-0 515.3616 220.755996)">chicago_police</text>
   </g>
   <g id="text_6">
    <text style="fill: #262626; font: 10px 'Arial', 'Liberation Sans', 'DejaVu Sans', 'Bitstream Vera Sans', sans-serif; text-anchor: middle" x="448.8336" y="220.751424" transform="rotate(-0 448.8336 220.751424)">0.0%</text>
   </g>
   <g id="text_7">
    <text style="fill: #262626; font: 12px 'Arial', 'Liberation Sans', 'DejaVu Sans', 'Bitstream Vera Sans', sans-serif; text-anchor: middle" x="369" y="45.84" transform="rotate(-0 369 45.84)">Incidents by Source</text>
   </g>
  </g>
 </g>
</svg>
