<?xml version="1.0" encoding="utf-8" standalone="no"?>
<!DOCTYPE svg PUBLIC "-//W3C//DTD SVG 1.1//EN"
  "http://www.w3.org/Graphics/SVG/1.1/DTD/svg11.dtd">
<svg xmlns:xlink="http://www.w3.org/1999/xlink" width="720pt" height="432pt" viewBox="0 0 720 432" xmlns="http://www.w3.org/2000/svg" version="1.1">
 <metadata>
  <rdf:RDF xmlns:dc="http://purl.org/dc/elements/1.1/" xmlns:cc="http://creativecommons.org/ns#" xmlns:rdf="http://www.w3.org/1999/02/22-rdf-syntax-ns#">
   <cc:Work>
    <dc:type rdf:resource="http://purl.org/dc/dcmitype/StillImage"/>
    <dc:date>2025-10-09T18:20:18.337403</dc:date>
    <dc:format>image/svg+xml</dc:format>
    <dc:creator>
     <cc:Agent>
      <dc:title>Matplotlib v3.7.5, https://matplotlib.org/</dc:title>
     </cc:Agent>
    </dc:creator>
   </cc:Work>
  </rdf:RDF>
 </metadata>
 <defs>
  <style type="text/css">*{stroke-linejoin: round; stroke-linecap: butt}</style>
 </defs>
 <g id="figure_1">
  <g id="patch_1">
   <path d="M 0 432 
L 720 432 
L 720 0 
L 0 0 
z
" style="fill: #ffffff"/>
  </g>
  <g id="axes_1">
   <g id="matplotlib.axis_1"/>
   <g id="matplotlib.axis_2"/>
   <g id="patch_2">
    <path d="M 502.056 218.16 
C 502.056 200.715179 498.625244 183.439444 491.959456 167.31837 
C 485.293667 151.197295 475.522064 136.543392 463.202113 124.19266 
C 450.882162 111.841928 436.252688 102.033789 420.148297 95.327794 
C 404.043907 88.621799 386.776786 85.147945 369.33202 85.104414 
C 351.887253 85.060884 334.603011 88.44852 318.465353 95.07406 
C 302.327696 101.6996 287.649455 111.434606 275.268019 123.7237 
C 262.886583 136.012793 253.041969 150.617747 246.295809 166.705354 
C 239.549649 182.792961 236.032718 200.051359 235.945657 217.495963 
C 235.858596 234.940566 239.203092 252.233208 245.788342 268.387348 
C 252.373593 284.541489 262.071941 299.243976 274.330101 311.656039 
C 286.58826 324.068102 301.168603 333.949129 317.239326 340.735412 
C 333.310049 347.521696 350.559617 351.081681 368.003949 351.212272 
C 385.448281 351.342863 402.749215 348.041528 418.919737 341.496608 
C 435.09026 334.951688 449.816902 325.290058 462.259514 313.062909 
C 474.702127 300.83576 484.619507 286.280119 491.445871 270.22638 
C 498.272234 254.172641 501.875252 236.93201 502.049372 219.488058 
L 369 218.16 
z
" style="fill: #f77189"/>
   </g>
   <g id="patch_3">
    <path d="M 502.049372 219.488058 
C 502.051559 219.268911 502.053206 219.04976 502.05431 218.830605 
C 502.055415 218.61145 502.055978 218.392293 502.055999 218.173135 
L 369 218.16 
z
" style="fill: #bb9832"/>
   </g>
   <g id="patch_4">
    <path d="M 502.055999 218.173135 
C 502.056 218.170944 502.056 218.168752 502.056 218.166561 
C 502.056 218.164369 502.056 218.162178 502.056 218.159986 
L 369 218.16 
z
" style="fill: #50b131"/>
   </g>
   <g id="text_1">
    <text style="fill: #262626; font: 10px 'Arial', 'Liberation Sans', 'DejaVu Sans', 'Bitstream Vera Sans', sans-serif; text-anchor: end" x="222.640223" y="220.015497" transform="rotate(-0 222.640223 220.015497)">newsapi</text>
   </g>
   <g id="text_2">
    <text style="fill: #262626; font: 10px 'Arial', 'Liberation Sans', 'DejaVu Sans', 'Bitstream Vera Sans', sans-serif; text-anchor: middle" x="289.167394" y="220.347515" transform="rotate(-0 289.167394 220.347515)">99.8%</text>
   </g>
   <g id="text_3">
    <text style="fill: #262626; font: 10px 'Arial', 'Liberation Sans', 'DejaVu Sans', 'Bitstream Vera Sans', sans-serif; text-anchor: start" x="515.359741" y="221.483603" transform="rotate(-0 515.359741 221.483603)">chicago_pd</text>
   </g>
   <g id="text_4">
    <text style="fill: #262626; font: 10px 'Arial', 'Liberation Sans', 'DejaVu Sans', 'Bitstream Vera Sans', sans-serif; text-anchor: middle" x="448.832586" y="221.1483" transform="rotate(-0 448.832586 221.1483)">0.2%</text>
   </g>
   <g id="text_5">
    <text style="fill: #262626; font: 10px 'Arial', 'Liberation Sans', 'DejaVu Sans', 'Bitstream Vera Sans', sans-serif; text-anchor: start" x="515.3616" y="220.753154" transform="rotate(-0 515.3616 220.753154)">chicago_police</text>
   </g>
   <g id="text_6">
    <text style="fill: #262626; font: 10px 'Arial', 'Liberation Sans', 'DejaVu Sans', 'Bitstream Vera Sans', sans-serif; text-anchor: middle" x="448.8336" y="220.749874" transform="rotate(-0 448.8336 220.749874)">0.0%</text>
   </g>
   <g id="text_7">
    <text style="fill: #262626; font: 12px 'Arial', 'Liberation Sans', 'DejaVu Sans', 'Bitstream Vera Sans', sans-serif; text-anchor: middle" x="369" y="45.84" transform="rotate(-0 369 45.84)">Incidents by Source</text>
   </g>
  </g>
 </g>
</svg>
