<?xml version="1.0" encoding="utf-8" standalone="no"?>
<!DOCTYPE svg PUBLIC "-//W3C//DTD SVG 1.1//EN"
  "http://www.w3.org/Graphics/SVG/1.1/DTD/svg11.dtd">
<svg xmlns:xlink="http://www.w3.org/1999/xlink" width="720pt" height="432pt" viewBox="0 0 720 432" xmlns="http://www.w3.org/2000/svg" version="1.1">
 <metadata>
  <rdf:RDF xmlns:dc="http://purl.org/dc/elements/1.1/" xmlns:cc="http://creativecommons.org/ns#" xmlns:rdf="http://www.w3.org/1999/02/22-rdf-syntax-ns#">
   <cc:Work>
    <dc:type rdf:resource="http://purl.org/dc/dcmitype/StillImage"/>
    <dc:date>2026-04-22T13:15:07.718039</dc:date>
    <dc:format>image/svg+xml</dc:format>
    <dc:creator>
     <cc:Agent>
      <dc:title>Matplotlib v3.7.5, https://matplotlib.org/</dc:title>
     </cc:Agent>
    </dc:creator>
   </cc:Work>
  </rdf:RDF>
 </metadata>
 <defs>
  <style type="text/css">*{stroke-linejoin: round; stroke-linecap: butt}</style>
 </defs>
 <g id="figure_1">
  <g id="patch_1">
   <path d="M 0 432 
L 720 432 
L 720 0 
L 0 0 
z
" style="fill: #ffffff"/>
  </g>
  <g id="axes_1">
   <g id="matplotlib.axis_1"/>
   <g id="matplotlib.axis_2"/>
   <g id="patch_2">
    <path d="M 502.056 218.16 
C 502.056 200.704969 498.621227 183.419321 491.947859 167.290333 
C 485.274492 151.161344 475.492046 136.502046 463.159249 124.149708 
C 450.826453 111.797371 436.182661 101.991728 420.064258 95.292833 
C 403.945855 88.593938 386.665667 85.131802 369.210658 85.104167 
C 351.755649 85.076531 334.464585 88.483933 318.325051 95.131757 
C 302.185517 101.77958 287.510749 111.538805 275.138902 123.852029 
C 262.767054 136.165253 252.938239 150.793503 246.213833 166.901279 
C 239.489428 183.009056 235.999938 200.283741 235.944667 217.738685 
C 235.889397 235.193628 239.269418 252.490065 245.891681 268.640104 
C 252.513943 284.790142 262.249922 299.480343 274.543544 311.87167 
C 286.837165 324.262996 301.449835 334.114959 317.546945 340.864858 
C 333.644055 347.614758 350.913194 351.131594 368.368028 351.214499 
C 385.822862 351.297405 403.124629 347.944772 419.285132 341.348086 
C 435.445635 334.751401 450.151231 325.038693 462.562006 312.764705 
C 474.972781 300.490717 484.847866 285.893663 491.623243 269.80726 
C 498.398619 253.720857 501.942791 236.457307 502.053332 219.002627 
L 369 218.16 
z
" style="fill: #f77189"/>
   </g>
   <g id="patch_3">
    <path d="M 502.053332 219.002627 
C 502.054212 218.863578 502.054875 218.724529 502.05532 218.585479 
C 502.055764 218.446429 502.055991 218.307378 502.056 218.168327 
L 369 218.16 
z
" style="fill: #bb9832"/>
   </g>
   <g id="patch_4">
    <path d="M 502.056 218.168327 
C 502.056 218.166937 502.056 218.165546 502.056 218.164156 
C 502.056 218.162765 502.056 218.161374 502.056 218.159984 
L 369 218.16 
z
" style="fill: #50b131"/>
   </g>
   <g id="text_1">
    <text style="fill: #262626; font: 10px 'Arial', 'Liberation Sans', 'DejaVu Sans', 'Bitstream Vera Sans', sans-serif; text-anchor: end" x="222.639134" y="220.282491" transform="rotate(-0 222.639134 220.282491)">newsapi</text>
   </g>
   <g id="text_2">
    <text style="fill: #262626; font: 10px 'Arial', 'Liberation Sans', 'DejaVu Sans', 'Bitstream Vera Sans', sans-serif; text-anchor: middle" x="289.1668" y="220.493148" transform="rotate(-0 289.1668 220.493148)">99.9%</text>
   </g>
   <g id="text_3">
    <text style="fill: #262626; font: 10px 'Arial', 'Liberation Sans', 'DejaVu Sans', 'Bitstream Vera Sans', sans-serif; text-anchor: start" x="515.360852" y="221.213964" transform="rotate(-0 515.360852 221.213964)">chicago_pd</text>
   </g>
   <g id="text_4">
    <text style="fill: #262626; font: 10px 'Arial', 'Liberation Sans', 'DejaVu Sans', 'Bitstream Vera Sans', sans-serif; text-anchor: middle" x="448.833192" y="221.001225" transform="rotate(-0 448.833192 221.001225)">0.1%</text>
   </g>
   <g id="text_5">
    <text style="fill: #262626; font: 10px 'Arial', 'Liberation Sans', 'DejaVu Sans', 'Bitstream Vera Sans', sans-serif; text-anchor: start" x="515.3616" y="220.750509" transform="rotate(-0 515.3616 220.750509)">chicago_police</text>
   </g>
   <g id="text_6">
    <text style="fill: #262626; font: 10px 'Arial', 'Liberation Sans', 'DejaVu Sans', 'Bitstream Vera Sans', sans-serif; text-anchor: middle" x="448.8336" y="220.748431" transform="rotate(-0 448.8336 220.748431)">0.0%</text>
   </g>
   <g id="text_7">
    <text style="fill: #262626; font: 12px 'Arial', 'Liberation Sans', 'DejaVu Sans', 'Bitstream Vera Sans', sans-serif; text-anchor: middle" x="369" y="45.84" transform="rotate(-0 369 45.84)">Incidents by Source</text>
   </g>
  </g>
 </g>
</svg>
