<?xml version="1.0" encoding="utf-8" standalone="no"?>
<!DOCTYPE svg PUBLIC "-//W3C//DTD SVG 1.1//EN"
  "http://www.w3.org/Graphics/SVG/1.1/DTD/svg11.dtd">
<svg xmlns:xlink="http://www.w3.org/1999/xlink" width="720pt" height="432pt" viewBox="0 0 720 432" xmlns="http://www.w3.org/2000/svg" version="1.1">
 <metadata>
  <rdf:RDF xmlns:dc="http://purl.org/dc/elements/1.1/" xmlns:cc="http://creativecommons.org/ns#" xmlns:rdf="http://www.w3.org/1999/02/22-rdf-syntax-ns#">
   <cc:Work>
    <dc:type rdf:resource="http://purl.org/dc/dcmitype/StillImage"/>
    <dc:date>2026-03-27T02:49:25.023038</dc:date>
    <dc:format>image/svg+xml</dc:format>
    <dc:creator>
     <cc:Agent>
      <dc:title>Matplotlib v3.7.5, https://matplotlib.org/</dc:title>
     </cc:Agent>
    </dc:creator>
   </cc:Work>
  </rdf:RDF>
 </metadata>
 <defs>
  <style type="text/css">*{stroke-linejoin: round; stroke-linecap: butt}</style>
 </defs>
 <g id="figure_1">
  <g id="patch_1">
   <path d="M 0 432 
L 720 432 
L 720 0 
L 0 0 
z
" style="fill: #ffffff"/>
  </g>
  <g id="axes_1">
   <g id="matplotlib.axis_1"/>
   <g id="matplotlib.axis_2"/>
   <g id="patch_2">
    <path d="M 502.056 218.16 
C 502.056 200.705748 498.621533 183.420856 491.948744 167.292471 
C 485.275954 151.164086 475.494336 136.505199 463.162519 124.152984 
C 450.830703 111.800768 436.188002 101.994935 420.070668 95.295497 
C 403.953334 88.59606 386.674142 85.13303 369.219914 85.104182 
C 351.765686 85.075333 334.475141 88.481227 318.335749 95.127351 
C 302.196358 101.773474 287.521323 111.530851 275.148743 123.842235 
C 262.776163 136.153619 252.946141 150.780093 246.220074 166.886332 
C 239.494008 182.992571 236.002423 200.266016 235.944727 217.720173 
C 235.887031 235.17433 239.264342 252.47048 245.883781 268.620834 
C 252.50322 284.771188 262.23633 299.462329 274.527248 311.855241 
C 286.818165 324.248153 301.428372 334.102335 317.523472 340.855013 
C 333.618573 347.607691 350.886223 351.12782 368.340261 351.214364 
C 385.794298 351.300909 403.096007 347.952189 419.25728 341.359452 
C 435.418552 334.766715 450.12576 325.0579 462.538969 312.787482 
C 474.952178 300.517064 484.830495 285.923165 491.609765 269.839247 
C 498.389036 253.755329 501.9377 236.493521 502.053092 219.03965 
L 369 218.16 
z
" style="fill: #f77189"/>
   </g>
   <g id="patch_3">
    <path d="M 502.053092 219.03965 
C 502.054052 218.894493 502.054774 218.749335 502.055259 218.604176 
C 502.055743 218.459017 502.05599 218.313858 502.056 218.168698 
L 369 218.16 
z
" style="fill: #bb9832"/>
   </g>
   <g id="patch_4">
    <path d="M 502.056 218.168698 
C 502.056 218.167246 502.056 218.165795 502.056 218.164343 
C 502.056 218.162891 502.056 218.16144 502.056 218.159988 
L 369 218.16 
z
" style="fill: #50b131"/>
   </g>
   <g id="text_1">
    <text style="fill: #262626; font: 10px 'Arial', 'Liberation Sans', 'DejaVu Sans', 'Bitstream Vera Sans', sans-serif; text-anchor: end" x="222.6392" y="220.262127" transform="rotate(-0 222.6392 220.262127)">newsapi</text>
   </g>
   <g id="text_2">
    <text style="fill: #262626; font: 10px 'Arial', 'Liberation Sans', 'DejaVu Sans', 'Bitstream Vera Sans', sans-serif; text-anchor: middle" x="289.166836" y="220.482041" transform="rotate(-0 289.166836 220.482041)">99.9%</text>
   </g>
   <g id="text_3">
    <text style="fill: #262626; font: 10px 'Arial', 'Liberation Sans', 'DejaVu Sans', 'Bitstream Vera Sans', sans-serif; text-anchor: start" x="515.360784" y="221.234531" transform="rotate(-0 515.360784 221.234531)">chicago_pd</text>
   </g>
   <g id="text_4">
    <text style="fill: #262626; font: 10px 'Arial', 'Liberation Sans', 'DejaVu Sans', 'Bitstream Vera Sans', sans-serif; text-anchor: middle" x="448.833155" y="221.012443" transform="rotate(-0 448.833155 221.012443)">0.1%</text>
   </g>
   <g id="text_5">
    <text style="fill: #262626; font: 10px 'Arial', 'Liberation Sans', 'DejaVu Sans', 'Bitstream Vera Sans', sans-serif; text-anchor: start" x="515.3616" y="220.750715" transform="rotate(-0 515.3616 220.750715)">chicago_police</text>
   </g>
   <g id="text_6">
    <text style="fill: #262626; font: 10px 'Arial', 'Liberation Sans', 'DejaVu Sans', 'Bitstream Vera Sans', sans-serif; text-anchor: middle" x="448.8336" y="220.748543" transform="rotate(-0 448.8336 220.748543)">0.0%</text>
   </g>
   <g id="text_7">
    <text style="fill: #262626; font: 12px 'Arial', 'Liberation Sans', 'DejaVu Sans', 'Bitstream Vera Sans', sans-serif; text-anchor: middle" x="369" y="45.84" transform="rotate(-0 369 45.84)">Incidents by Source</text>
   </g>
  </g>
 </g>
</svg>
