<?xml version="1.0" encoding="utf-8" standalone="no"?>
<!DOCTYPE svg PUBLIC "-//W3C//DTD SVG 1.1//EN"
  "http://www.w3.org/Graphics/SVG/1.1/DTD/svg11.dtd">
<svg xmlns:xlink="http://www.w3.org/1999/xlink" width="720pt" height="432pt" viewBox="0 0 720 432" xmlns="http://www.w3.org/2000/svg" version="1.1">
 <metadata>
  <rdf:RDF xmlns:dc="http://purl.org/dc/elements/1.1/" xmlns:cc="http://creativecommons.org/ns#" xmlns:rdf="http://www.w3.org/1999/02/22-rdf-syntax-ns#">
   <cc:Work>
    <dc:type rdf:resource="http://purl.org/dc/dcmitype/StillImage"/>
    <dc:date>2026-05-19T02:43:41.748146</dc:date>
    <dc:format>image/svg+xml</dc:format>
    <dc:creator>
     <cc:Agent>
      <dc:title>Matplotlib v3.7.5, https://matplotlib.org/</dc:title>
     </cc:Agent>
    </dc:creator>
   </cc:Work>
  </rdf:RDF>
 </metadata>
 <defs>
  <style type="text/css">*{stroke-linejoin: round; stroke-linecap: butt}</style>
 </defs>
 <g id="figure_1">
  <g id="patch_1">
   <path d="M 0 432 
L 720 432 
L 720 0 
L 0 0 
z
" style="fill: #ffffff"/>
  </g>
  <g id="axes_1">
   <g id="matplotlib.axis_1"/>
   <g id="matplotlib.axis_2"/>
   <g id="patch_2">
    <path d="M 502.056 218.16 
C 502.056 200.704076 498.620876 183.417561 491.946845 167.287881 
C 485.272814 151.158201 475.48942 136.49843 463.1555 124.145953 
C 450.82158 111.793476 436.176535 101.988052 420.056907 95.289778 
C 403.937279 88.591505 386.655948 85.130395 369.200044 85.10415 
C 351.74414 85.077906 334.45248 88.487037 318.312784 95.13681 
C 302.173088 101.786583 287.498625 111.547926 275.127618 123.863261 
C 262.756611 136.178595 252.92918 150.808881 246.206679 166.918421 
C 239.484178 183.02796 235.99709 200.304067 235.944602 217.759912 
C 235.892113 235.215757 239.275243 252.512523 245.900743 268.662199 
C 252.526243 284.811874 262.265513 299.500996 274.562234 311.890505 
C 286.858955 324.280013 301.47445 334.129429 317.573864 340.876143 
C 333.673278 347.622856 350.944123 351.135914 368.39987 351.214647 
C 385.855616 351.293379 403.157448 347.936258 419.317067 341.335046 
C 435.476686 334.733834 450.180433 325.016659 462.588416 312.738579 
C 474.996398 300.460499 484.867776 285.859829 491.638687 269.770577 
C 498.409598 253.681324 501.948618 236.41578 502.053594 218.960172 
L 369 218.16 
z
" style="fill: #f77189"/>
   </g>
   <g id="patch_3">
    <path d="M 502.053594 218.960172 
C 502.054388 218.828135 502.054986 218.696097 502.055386 218.564058 
C 502.055787 218.432019 502.055992 218.29998 502.056 218.16794 
L 369 218.16 
z
" style="fill: #bb9832"/>
   </g>
   <g id="patch_4">
    <path d="M 502.056 218.16794 
C 502.056 218.16662 502.056 218.165299 502.056 218.163979 
C 502.056 218.162659 502.056 218.161338 502.056 218.160018 
L 369 218.16 
z
" style="fill: #50b131"/>
   </g>
   <g id="text_1">
    <text style="fill: #262626; font: 10px 'Arial', 'Liberation Sans', 'DejaVu Sans', 'Bitstream Vera Sans', sans-serif; text-anchor: end" x="222.639062" y="220.305841" transform="rotate(-0 222.639062 220.305841)">newsapi</text>
   </g>
   <g id="text_2">
    <text style="fill: #262626; font: 10px 'Arial', 'Liberation Sans', 'DejaVu Sans', 'Bitstream Vera Sans', sans-serif; text-anchor: middle" x="289.166761" y="220.505885" transform="rotate(-0 289.166761 220.505885)">99.9%</text>
   </g>
   <g id="text_3">
    <text style="fill: #262626; font: 10px 'Arial', 'Liberation Sans', 'DejaVu Sans', 'Bitstream Vera Sans', sans-serif; text-anchor: start" x="515.360925" y="221.190401" transform="rotate(-0 515.360925 221.190401)">chicago_pd</text>
   </g>
   <g id="text_4">
    <text style="fill: #262626; font: 10px 'Arial', 'Liberation Sans', 'DejaVu Sans', 'Bitstream Vera Sans', sans-serif; text-anchor: middle" x="448.833232" y="220.988372" transform="rotate(-0 448.833232 220.988372)">0.1%</text>
   </g>
   <g id="text_5">
    <text style="fill: #262626; font: 10px 'Arial', 'Liberation Sans', 'DejaVu Sans', 'Bitstream Vera Sans', sans-serif; text-anchor: start" x="515.3616" y="220.750314" transform="rotate(-0 515.3616 220.750314)">chicago_police</text>
   </g>
   <g id="text_6">
    <text style="fill: #262626; font: 10px 'Arial', 'Liberation Sans', 'DejaVu Sans', 'Bitstream Vera Sans', sans-serif; text-anchor: middle" x="448.8336" y="220.748325" transform="rotate(-0 448.8336 220.748325)">0.0%</text>
   </g>
   <g id="text_7">
    <text style="fill: #262626; font: 12px 'Arial', 'Liberation Sans', 'DejaVu Sans', 'Bitstream Vera Sans', sans-serif; text-anchor: middle" x="369" y="45.84" transform="rotate(-0 369 45.84)">Incidents by Source</text>
   </g>
  </g>
 </g>
</svg>
