<?xml version="1.0" encoding="utf-8" standalone="no"?>
<!DOCTYPE svg PUBLIC "-//W3C//DTD SVG 1.1//EN"
  "http://www.w3.org/Graphics/SVG/1.1/DTD/svg11.dtd">
<svg xmlns:xlink="http://www.w3.org/1999/xlink" width="720pt" height="432pt" viewBox="0 0 720 432" xmlns="http://www.w3.org/2000/svg" version="1.1">
 <metadata>
  <rdf:RDF xmlns:dc="http://purl.org/dc/elements/1.1/" xmlns:cc="http://creativecommons.org/ns#" xmlns:rdf="http://www.w3.org/1999/02/22-rdf-syntax-ns#">
   <cc:Work>
    <dc:type rdf:resource="http://purl.org/dc/dcmitype/StillImage"/>
    <dc:date>2025-01-28T12:23:00.878891</dc:date>
    <dc:format>image/svg+xml</dc:format>
    <dc:creator>
     <cc:Agent>
      <dc:title>Matplotlib v3.7.5, https://matplotlib.org/</dc:title>
     </cc:Agent>
    </dc:creator>
   </cc:Work>
  </rdf:RDF>
 </metadata>
 <defs>
  <style type="text/css">*{stroke-linejoin: round; stroke-linecap: butt}</style>
 </defs>
 <g id="figure_1">
  <g id="patch_1">
   <path d="M 0 432 
L 720 432 
L 720 0 
L 0 0 
z
" style="fill: #ffffff"/>
  </g>
  <g id="axes_1">
   <g id="matplotlib.axis_1"/>
   <g id="matplotlib.axis_2"/>
   <g id="patch_2">
    <path d="M 502.056 218.16 
C 502.056 200.840878 498.674507 183.687207 492.101708 167.663777 
C 485.52891 151.640347 475.890388 137.053305 463.728251 124.723082 
C 451.566113 112.392859 437.112732 102.55504 421.181022 95.762941 
C 405.249312 88.970842 388.143668 85.354235 370.826177 85.116533 
C 353.508687 84.87883 336.310221 88.024573 320.198089 94.376832 
C 304.085958 100.729092 289.368002 110.1665 276.872016 122.158262 
C 264.376031 134.150023 254.340767 148.46702 247.330648 164.304008 
C 240.320528 180.140997 236.469489 197.195392 235.994128 214.50799 
C 235.518767 231.820587 238.428167 249.060607 244.558691 265.258405 
C 250.689215 281.456203 259.923733 296.3023 271.742859 308.961694 
C 283.561985 321.621088 297.7399 331.851905 313.479184 339.078725 
C 329.218468 346.305545 346.218402 350.390291 363.522844 351.103221 
C 380.827286 351.81615 398.105614 349.143641 414.386027 343.236008 
C 430.66644 337.328374 445.637882 328.298487 458.458299 316.654223 
C 471.278716 305.009959 481.70316 290.973795 489.145319 275.335181 
C 496.587479 259.696567 500.905162 242.754297 501.855525 225.461269 
L 369 218.16 
z
" style="fill: #f77189"/>
   </g>
   <g id="patch_3">
    <path d="M 501.855525 225.461269 
C 501.921673 224.257635 501.97146 223.053157 502.004874 221.848169 
C 502.038288 220.643181 502.055325 219.437795 502.05598 218.232344 
L 369 218.16 
z
" style="fill: #bb9832"/>
   </g>
   <g id="patch_4">
    <path d="M 502.05598 218.232344 
C 502.055987 218.22029 502.055992 218.208236 502.055995 218.196181 
C 502.055998 218.184127 502.056 218.172073 502.056 218.160018 
L 369 218.16 
z
" style="fill: #50b131"/>
   </g>
   <g id="text_1">
    <text style="fill: #262626; font: 10px 'Arial', 'Liberation Sans', 'DejaVu Sans', 'Bitstream Vera Sans', sans-serif; text-anchor: end" x="222.693541" y="216.728726" transform="rotate(-0 222.693541 216.728726)">newsapi</text>
   </g>
   <g id="text_2">
    <text style="fill: #262626; font: 10px 'Arial', 'Liberation Sans', 'DejaVu Sans', 'Bitstream Vera Sans', sans-serif; text-anchor: middle" x="289.196477" y="218.554731" transform="rotate(-0 289.196477 218.554731)">99.1%</text>
   </g>
   <g id="text_3">
    <text style="fill: #262626; font: 10px 'Arial', 'Liberation Sans', 'DejaVu Sans', 'Bitstream Vera Sans', sans-serif; text-anchor: start" x="515.305362" y="224.802923" transform="rotate(-0 515.305362 224.802923)">chicago_pd</text>
   </g>
   <g id="text_4">
    <text style="fill: #262626; font: 10px 'Arial', 'Liberation Sans', 'DejaVu Sans', 'Bitstream Vera Sans', sans-serif; text-anchor: middle" x="448.802924" y="222.958839" transform="rotate(-0 448.802924 222.958839)">0.9%</text>
   </g>
   <g id="text_5">
    <text style="fill: #262626; font: 10px 'Arial', 'Liberation Sans', 'DejaVu Sans', 'Bitstream Vera Sans', sans-serif; text-anchor: start" x="515.361595" y="220.785737" transform="rotate(-0 515.361595 220.785737)">chicago_police</text>
   </g>
   <g id="text_6">
    <text style="fill: #262626; font: 10px 'Arial', 'Liberation Sans', 'DejaVu Sans', 'Bitstream Vera Sans', sans-serif; text-anchor: middle" x="448.833597" y="220.767646" transform="rotate(-0 448.833597 220.767646)">0.0%</text>
   </g>
   <g id="text_7">
    <text style="fill: #262626; font: 12px 'Arial', 'Liberation Sans', 'DejaVu Sans', 'Bitstream Vera Sans', sans-serif; text-anchor: middle" x="369" y="45.84" transform="rotate(-0 369 45.84)">Incidents by Source</text>
   </g>
  </g>
 </g>
</svg>
