<?xml version="1.0" encoding="utf-8" standalone="no"?>
<!DOCTYPE svg PUBLIC "-//W3C//DTD SVG 1.1//EN"
  "http://www.w3.org/Graphics/SVG/1.1/DTD/svg11.dtd">
<svg xmlns:xlink="http://www.w3.org/1999/xlink" width="720pt" height="432pt" viewBox="0 0 720 432" xmlns="http://www.w3.org/2000/svg" version="1.1">
 <metadata>
  <rdf:RDF xmlns:dc="http://purl.org/dc/elements/1.1/" xmlns:cc="http://creativecommons.org/ns#" xmlns:rdf="http://www.w3.org/1999/02/22-rdf-syntax-ns#">
   <cc:Work>
    <dc:type rdf:resource="http://purl.org/dc/dcmitype/StillImage"/>
    <dc:date>2025-10-20T12:49:57.904616</dc:date>
    <dc:format>image/svg+xml</dc:format>
    <dc:creator>
     <cc:Agent>
      <dc:title>Matplotlib v3.7.5, https://matplotlib.org/</dc:title>
     </cc:Agent>
    </dc:creator>
   </cc:Work>
  </rdf:RDF>
 </metadata>
 <defs>
  <style type="text/css">*{stroke-linejoin: round; stroke-linecap: butt}</style>
 </defs>
 <g id="figure_1">
  <g id="patch_1">
   <path d="M 0 432 
L 720 432 
L 720 0 
L 0 0 
z
" style="fill: #ffffff"/>
  </g>
  <g id="axes_1">
   <g id="matplotlib.axis_1"/>
   <g id="matplotlib.axis_2"/>
   <g id="patch_2">
    <path d="M 502.056 218.16 
C 502.056 200.714288 498.624894 183.437688 491.958444 167.315923 
C 485.291995 151.194158 475.519446 136.539784 463.198374 124.188912 
C 450.877303 111.838039 436.246579 102.030118 420.140966 95.324741 
C 404.035352 88.619365 386.767091 85.146533 369.321431 85.104388 
C 351.87577 85.062244 334.590932 88.451604 318.453109 95.079088 
C 302.315287 101.706571 287.637347 111.44369 275.256746 123.734889 
C 262.876145 136.026088 253.032908 150.633076 246.288644 166.722444 
C 239.54438 182.811811 236.029842 200.071632 235.945553 217.51714 
C 235.861264 234.962648 239.208859 252.255624 245.797338 268.40941 
C 252.385817 284.563196 262.08745 299.264615 274.348704 311.674872 
C 286.609959 324.08513 301.193125 333.963625 317.266153 340.746738 
C 333.339181 347.52985 350.590462 351.086073 368.035715 351.212506 
C 385.480969 351.338938 402.781981 348.033129 418.951636 341.483693 
C 435.121291 334.934256 449.846104 325.268167 462.285945 313.036929 
C 474.725786 300.80569 484.639483 286.246431 491.461404 270.189836 
C 498.283324 254.13324 501.881212 236.890601 502.049788 219.445704 
L 369 218.16 
z
" style="fill: #f77189"/>
   </g>
   <g id="patch_3">
    <path d="M 502.049788 219.445704 
C 502.051838 219.233548 502.053381 219.021387 502.054416 218.809223 
C 502.055451 218.597059 502.055979 218.384893 502.055999 218.172727 
L 369 218.16 
z
" style="fill: #bb9832"/>
   </g>
   <g id="patch_4">
    <path d="M 502.055999 218.172727 
C 502.056 218.170605 502.056 218.168484 502.056 218.166362 
C 502.056 218.16424 502.056 218.162119 502.056 218.159997 
L 369 218.16 
z
" style="fill: #50b131"/>
   </g>
   <g id="text_1">
    <text style="fill: #262626; font: 10px 'Arial', 'Liberation Sans', 'DejaVu Sans', 'Bitstream Vera Sans', sans-serif; text-anchor: end" x="222.640108" y="220.038792" transform="rotate(-0 222.640108 220.038792)">newsapi</text>
   </g>
   <g id="text_2">
    <text style="fill: #262626; font: 10px 'Arial', 'Liberation Sans', 'DejaVu Sans', 'Bitstream Vera Sans', sans-serif; text-anchor: middle" x="289.167332" y="220.360222" transform="rotate(-0 289.167332 220.360222)">99.8%</text>
   </g>
   <g id="text_3">
    <text style="fill: #262626; font: 10px 'Arial', 'Liberation Sans', 'DejaVu Sans', 'Bitstream Vera Sans', sans-serif; text-anchor: start" x="515.359858" y="221.460083" transform="rotate(-0 515.359858 221.460083)">chicago_pd</text>
   </g>
   <g id="text_4">
    <text style="fill: #262626; font: 10px 'Arial', 'Liberation Sans', 'DejaVu Sans', 'Bitstream Vera Sans', sans-serif; text-anchor: middle" x="448.83265" y="221.135471" transform="rotate(-0 448.83265 221.135471)">0.2%</text>
   </g>
   <g id="text_5">
    <text style="fill: #262626; font: 10px 'Arial', 'Liberation Sans', 'DejaVu Sans', 'Bitstream Vera Sans', sans-serif; text-anchor: start" x="515.3616" y="220.752936" transform="rotate(-0 515.3616 220.752936)">chicago_police</text>
   </g>
   <g id="text_6">
    <text style="fill: #262626; font: 10px 'Arial', 'Liberation Sans', 'DejaVu Sans', 'Bitstream Vera Sans', sans-serif; text-anchor: middle" x="448.8336" y="220.749755" transform="rotate(-0 448.8336 220.749755)">0.0%</text>
   </g>
   <g id="text_7">
    <text style="fill: #262626; font: 12px 'Arial', 'Liberation Sans', 'DejaVu Sans', 'Bitstream Vera Sans', sans-serif; text-anchor: middle" x="369" y="45.84" transform="rotate(-0 369 45.84)">Incidents by Source</text>
   </g>
  </g>
 </g>
</svg>
