<?xml version="1.0" encoding="utf-8" standalone="no"?>
<!DOCTYPE svg PUBLIC "-//W3C//DTD SVG 1.1//EN"
  "http://www.w3.org/Graphics/SVG/1.1/DTD/svg11.dtd">
<svg xmlns:xlink="http://www.w3.org/1999/xlink" width="720pt" height="432pt" viewBox="0 0 720 432" xmlns="http://www.w3.org/2000/svg" version="1.1">
 <metadata>
  <rdf:RDF xmlns:dc="http://purl.org/dc/elements/1.1/" xmlns:cc="http://creativecommons.org/ns#" xmlns:rdf="http://www.w3.org/1999/02/22-rdf-syntax-ns#">
   <cc:Work>
    <dc:type rdf:resource="http://purl.org/dc/dcmitype/StillImage"/>
    <dc:date>2025-12-16T01:14:14.223812</dc:date>
    <dc:format>image/svg+xml</dc:format>
    <dc:creator>
     <cc:Agent>
      <dc:title>Matplotlib v3.7.5, https://matplotlib.org/</dc:title>
     </cc:Agent>
    </dc:creator>
   </cc:Work>
  </rdf:RDF>
 </metadata>
 <defs>
  <style type="text/css">*{stroke-linejoin: round; stroke-linecap: butt}</style>
 </defs>
 <g id="figure_1">
  <g id="patch_1">
   <path d="M 0 432 
L 720 432 
L 720 0 
L 0 0 
z
" style="fill: #ffffff"/>
  </g>
  <g id="axes_1">
   <g id="matplotlib.axis_1"/>
   <g id="matplotlib.axis_2"/>
   <g id="patch_2">
    <path d="M 502.056 218.16 
C 502.056 200.710473 498.623393 183.43017 491.954112 167.305447 
C 485.284831 151.180725 475.508231 136.524335 463.18236 124.172862 
C 450.856489 111.821389 436.220416 102.014399 420.109567 95.311674 
C 403.998718 88.608949 386.725574 85.140493 369.276085 85.104286 
C 351.826596 85.068079 334.539207 88.464823 318.400681 95.100632 
C 302.262155 101.736441 287.58551 111.482608 275.208488 123.782824 
C 262.831466 136.083039 252.994128 150.698732 246.257988 166.795638 
C 239.521849 182.892545 236.01756 200.158455 235.945146 217.607831 
C 235.872732 235.057207 239.233598 252.351607 245.835906 268.503867 
C 252.438213 284.656128 262.153906 299.352964 274.428414 311.755482 
C 286.702921 324.157999 301.29817 334.025643 317.381065 340.795169 
C 333.463959 347.564694 350.722561 351.104802 368.171749 351.213422 
C 385.620938 351.322042 402.922274 347.997069 419.088199 341.428291 
C 435.254124 334.859512 449.971088 325.174335 462.399048 312.925589 
C 474.827009 300.676843 484.724916 286.1021 491.527798 270.033287 
C 498.33068 253.964473 501.906591 236.713254 502.051417 219.264329 
L 369 218.16 
z
" style="fill: #f77189"/>
   </g>
   <g id="patch_3">
    <path d="M 502.051417 219.264329 
C 502.05293 219.082099 502.054068 218.899866 502.054831 218.717631 
C 502.055595 218.535397 502.055985 218.353161 502.056 218.170925 
L 369 218.16 
z
" style="fill: #bb9832"/>
   </g>
   <g id="patch_4">
    <path d="M 502.056 218.170925 
C 502.056 218.169102 502.056 218.16728 502.056 218.165458 
C 502.056 218.163635 502.056 218.161813 502.056 218.159991 
L 369 218.16 
z
" style="fill: #50b131"/>
   </g>
   <g id="text_1">
    <text style="fill: #262626; font: 10px 'Arial', 'Liberation Sans', 'DejaVu Sans', 'Bitstream Vera Sans', sans-serif; text-anchor: end" x="222.63966" y="220.138551" transform="rotate(-0 222.63966 220.138551)">newsapi</text>
   </g>
   <g id="text_2">
    <text style="fill: #262626; font: 10px 'Arial', 'Liberation Sans', 'DejaVu Sans', 'Bitstream Vera Sans', sans-serif; text-anchor: middle" x="289.167087" y="220.414636" transform="rotate(-0 289.167087 220.414636)">99.9%</text>
   </g>
   <g id="text_3">
    <text style="fill: #262626; font: 10px 'Arial', 'Liberation Sans', 'DejaVu Sans', 'Bitstream Vera Sans', sans-serif; text-anchor: start" x="515.360315" y="221.359332" transform="rotate(-0 515.360315 221.359332)">chicago_pd</text>
   </g>
   <g id="text_4">
    <text style="fill: #262626; font: 10px 'Arial', 'Liberation Sans', 'DejaVu Sans', 'Bitstream Vera Sans', sans-serif; text-anchor: middle" x="448.832899" y="221.080516" transform="rotate(-0 448.832899 221.080516)">0.1%</text>
   </g>
   <g id="text_5">
    <text style="fill: #262626; font: 10px 'Arial', 'Liberation Sans', 'DejaVu Sans', 'Bitstream Vera Sans', sans-serif; text-anchor: start" x="515.3616" y="220.751941" transform="rotate(-0 515.3616 220.751941)">chicago_police</text>
   </g>
   <g id="text_6">
    <text style="fill: #262626; font: 10px 'Arial', 'Liberation Sans', 'DejaVu Sans', 'Bitstream Vera Sans', sans-serif; text-anchor: middle" x="448.8336" y="220.749212" transform="rotate(-0 448.8336 220.749212)">0.0%</text>
   </g>
   <g id="text_7">
    <text style="fill: #262626; font: 12px 'Arial', 'Liberation Sans', 'DejaVu Sans', 'Bitstream Vera Sans', sans-serif; text-anchor: middle" x="369" y="45.84" transform="rotate(-0 369 45.84)">Incidents by Source</text>
   </g>
  </g>
 </g>
</svg>
