<?xml version="1.0" encoding="utf-8" standalone="no"?>
<!DOCTYPE svg PUBLIC "-//W3C//DTD SVG 1.1//EN"
  "http://www.w3.org/Graphics/SVG/1.1/DTD/svg11.dtd">
<svg xmlns:xlink="http://www.w3.org/1999/xlink" width="720pt" height="432pt" viewBox="0 0 720 432" xmlns="http://www.w3.org/2000/svg" version="1.1">
 <metadata>
  <rdf:RDF xmlns:dc="http://purl.org/dc/elements/1.1/" xmlns:cc="http://creativecommons.org/ns#" xmlns:rdf="http://www.w3.org/1999/02/22-rdf-syntax-ns#">
   <cc:Work>
    <dc:type rdf:resource="http://purl.org/dc/dcmitype/StillImage"/>
    <dc:date>2025-08-21T12:28:50.876949</dc:date>
    <dc:format>image/svg+xml</dc:format>
    <dc:creator>
     <cc:Agent>
      <dc:title>Matplotlib v3.7.5, https://matplotlib.org/</dc:title>
     </cc:Agent>
    </dc:creator>
   </cc:Work>
  </rdf:RDF>
 </metadata>
 <defs>
  <style type="text/css">*{stroke-linejoin: round; stroke-linecap: butt}</style>
 </defs>
 <g id="figure_1">
  <g id="patch_1">
   <path d="M 0 432 
L 720 432 
L 720 0 
L 0 0 
z
" style="fill: #ffffff"/>
  </g>
  <g id="axes_1">
   <g id="matplotlib.axis_1"/>
   <g id="matplotlib.axis_2"/>
   <g id="patch_2">
    <path d="M 502.056 218.16 
C 502.056 200.720945 498.627511 183.450807 491.966001 167.334202 
C 485.304491 151.217598 475.539008 136.566744 463.226309 124.216922 
C 450.913609 111.867101 436.292219 102.057558 420.195741 95.347561 
C 404.099263 88.637564 386.839525 85.157101 369.400549 85.104603 
C 351.961572 85.052105 334.681192 88.428588 318.544607 95.041551 
C 302.408022 101.654514 287.727836 111.375848 275.341005 123.651314 
C 262.954173 135.92678 253.100659 150.518574 246.342236 166.594779 
C 239.583813 182.670984 236.051407 199.920167 235.946412 217.358906 
C 235.841416 234.797646 239.165864 252.088112 245.730219 268.244532 
C 252.294575 284.400951 261.971672 299.110335 274.209794 311.534064 
C 286.447915 323.957793 301.00998 333.85519 317.065767 340.661978 
C 333.121554 347.468766 350.360024 351.053081 367.798369 351.210574 
C 385.236713 351.368066 402.537109 348.095685 418.713216 341.579995 
C 434.889324 335.064306 449.627773 325.431534 462.088287 313.230868 
C 474.548801 301.030202 484.48999 286.497998 491.345081 270.462775 
C 498.200172 254.427552 501.836366 237.19995 502.046354 219.762158 
L 369 218.16 
z
" style="fill: #f77189"/>
   </g>
   <g id="patch_3">
    <path d="M 502.046354 219.762158 
C 502.049537 219.497788 502.051933 219.233408 502.05354 218.969024 
C 502.055148 218.704639 502.055968 218.44025 502.055999 218.17586 
L 369 218.16 
z
" style="fill: #bb9832"/>
   </g>
   <g id="patch_4">
    <path d="M 502.055999 218.17586 
C 502.055999 218.173216 502.056 218.170572 502.056 218.167928 
C 502.056 218.165284 502.056 218.162641 502.056 218.159997 
L 369 218.16 
z
" style="fill: #50b131"/>
   </g>
   <g id="text_1">
    <text style="fill: #262626; font: 10px 'Arial', 'Liberation Sans', 'DejaVu Sans', 'Bitstream Vera Sans', sans-serif; text-anchor: end" x="222.641053" y="219.864734" transform="rotate(-0 222.641053 219.864734)">newsapi</text>
   </g>
   <g id="text_2">
    <text style="fill: #262626; font: 10px 'Arial', 'Liberation Sans', 'DejaVu Sans', 'Bitstream Vera Sans', sans-serif; text-anchor: middle" x="289.167847" y="220.265281" transform="rotate(-0 289.167847 220.265281)">99.8%</text>
   </g>
   <g id="text_3">
    <text style="fill: #262626; font: 10px 'Arial', 'Liberation Sans', 'DejaVu Sans', 'Bitstream Vera Sans', sans-serif; text-anchor: start" x="515.358894" y="221.635863" transform="rotate(-0 515.358894 221.635863)">chicago_pd</text>
   </g>
   <g id="text_4">
    <text style="fill: #262626; font: 10px 'Arial', 'Liberation Sans', 'DejaVu Sans', 'Bitstream Vera Sans', sans-serif; text-anchor: middle" x="448.832124" y="221.231352" transform="rotate(-0 448.832124 221.231352)">0.2%</text>
   </g>
   <g id="text_5">
    <text style="fill: #262626; font: 10px 'Arial', 'Liberation Sans', 'DejaVu Sans', 'Bitstream Vera Sans', sans-serif; text-anchor: start" x="515.3616" y="220.754659" transform="rotate(-0 515.3616 220.754659)">chicago_police</text>
   </g>
   <g id="text_6">
    <text style="fill: #262626; font: 10px 'Arial', 'Liberation Sans', 'DejaVu Sans', 'Bitstream Vera Sans', sans-serif; text-anchor: middle" x="448.8336" y="220.750694" transform="rotate(-0 448.8336 220.750694)">0.0%</text>
   </g>
   <g id="text_7">
    <text style="fill: #262626; font: 12px 'Arial', 'Liberation Sans', 'DejaVu Sans', 'Bitstream Vera Sans', sans-serif; text-anchor: middle" x="369" y="45.84" transform="rotate(-0 369 45.84)">Incidents by Source</text>
   </g>
  </g>
 </g>
</svg>
