<?xml version="1.0" encoding="utf-8" standalone="no"?>
<!DOCTYPE svg PUBLIC "-//W3C//DTD SVG 1.1//EN"
  "http://www.w3.org/Graphics/SVG/1.1/DTD/svg11.dtd">
<svg xmlns:xlink="http://www.w3.org/1999/xlink" width="720pt" height="432pt" viewBox="0 0 720 432" xmlns="http://www.w3.org/2000/svg" version="1.1">
 <metadata>
  <rdf:RDF xmlns:dc="http://purl.org/dc/elements/1.1/" xmlns:cc="http://creativecommons.org/ns#" xmlns:rdf="http://www.w3.org/1999/02/22-rdf-syntax-ns#">
   <cc:Work>
    <dc:type rdf:resource="http://purl.org/dc/dcmitype/StillImage"/>
    <dc:date>2026-04-26T13:17:42.509544</dc:date>
    <dc:format>image/svg+xml</dc:format>
    <dc:creator>
     <cc:Agent>
      <dc:title>Matplotlib v3.7.5, https://matplotlib.org/</dc:title>
     </cc:Agent>
    </dc:creator>
   </cc:Work>
  </rdf:RDF>
 </metadata>
 <defs>
  <style type="text/css">*{stroke-linejoin: round; stroke-linecap: butt}</style>
 </defs>
 <g id="figure_1">
  <g id="patch_1">
   <path d="M 0 432 
L 720 432 
L 720 0 
L 0 0 
z
" style="fill: #ffffff"/>
  </g>
  <g id="axes_1">
   <g id="matplotlib.axis_1"/>
   <g id="matplotlib.axis_2"/>
   <g id="patch_2">
    <path d="M 502.056 218.16 
C 502.056 200.704824 498.62117 183.419036 491.947695 167.289936 
C 485.27422 151.160835 475.49162 136.50146 463.158642 124.1491 
C 450.825664 111.79674 436.181668 101.991133 420.063067 95.292338 
C 403.944466 88.593544 386.664093 85.131574 369.208939 85.104164 
C 351.753785 85.076754 334.462624 88.484436 318.323064 95.132575 
C 302.183504 101.780714 287.508786 111.540282 275.137074 123.853848 
C 262.765363 136.167414 252.936772 150.795994 246.212674 166.904056 
C 239.488577 183.012118 235.999476 200.287033 235.944656 217.742123 
C 235.889836 235.197212 239.270361 252.493703 245.893148 268.643683 
C 252.515935 284.793662 262.252447 299.483688 274.546571 311.874721 
C 286.840694 324.265753 301.453822 334.117303 317.551305 340.866687 
C 333.648789 347.61607 350.918204 351.132294 368.373186 351.214524 
C 385.828168 351.296753 403.129945 347.943393 419.290305 341.345975 
C 435.450664 334.748556 450.155962 325.035124 462.566284 312.760474 
C 474.976607 300.485823 484.851092 285.888184 491.625745 269.801319 
C 498.400398 253.714454 501.943736 236.450581 502.053375 218.99575 
L 369 218.16 
z
" style="fill: #f77189"/>
   </g>
   <g id="patch_3">
    <path d="M 502.053375 218.99575 
C 502.054241 218.85784 502.054893 218.719929 502.055331 218.582017 
C 502.055768 218.444105 502.055991 218.306192 502.056 218.16828 
L 369 218.16 
z
" style="fill: #bb9832"/>
   </g>
   <g id="patch_4">
    <path d="M 502.056 218.16828 
C 502.056 218.166901 502.056 218.165521 502.056 218.164142 
C 502.056 218.162763 502.056 218.161384 502.056 218.160005 
L 369 218.16 
z
" style="fill: #50b131"/>
   </g>
   <g id="text_1">
    <text style="fill: #262626; font: 10px 'Arial', 'Liberation Sans', 'DejaVu Sans', 'Bitstream Vera Sans', sans-serif; text-anchor: end" x="222.639122" y="220.286273" transform="rotate(-0 222.639122 220.286273)">newsapi</text>
   </g>
   <g id="text_2">
    <text style="fill: #262626; font: 10px 'Arial', 'Liberation Sans', 'DejaVu Sans', 'Bitstream Vera Sans', sans-serif; text-anchor: middle" x="289.166794" y="220.495211" transform="rotate(-0 289.166794 220.495211)">99.9%</text>
   </g>
   <g id="text_3">
    <text style="fill: #262626; font: 10px 'Arial', 'Liberation Sans', 'DejaVu Sans', 'Bitstream Vera Sans', sans-serif; text-anchor: start" x="515.360864" y="221.210156" transform="rotate(-0 515.360864 221.210156)">chicago_pd</text>
   </g>
   <g id="text_4">
    <text style="fill: #262626; font: 10px 'Arial', 'Liberation Sans', 'DejaVu Sans', 'Bitstream Vera Sans', sans-serif; text-anchor: middle" x="448.833198" y="220.999148" transform="rotate(-0 448.833198 220.999148)">0.1%</text>
   </g>
   <g id="text_5">
    <text style="fill: #262626; font: 10px 'Arial', 'Liberation Sans', 'DejaVu Sans', 'Bitstream Vera Sans', sans-serif; text-anchor: start" x="515.3616" y="220.750494" transform="rotate(-0 515.3616 220.750494)">chicago_police</text>
   </g>
   <g id="text_6">
    <text style="fill: #262626; font: 10px 'Arial', 'Liberation Sans', 'DejaVu Sans', 'Bitstream Vera Sans', sans-serif; text-anchor: middle" x="448.8336" y="220.748423" transform="rotate(-0 448.8336 220.748423)">0.0%</text>
   </g>
   <g id="text_7">
    <text style="fill: #262626; font: 12px 'Arial', 'Liberation Sans', 'DejaVu Sans', 'Bitstream Vera Sans', sans-serif; text-anchor: middle" x="369" y="45.84" transform="rotate(-0 369 45.84)">Incidents by Source</text>
   </g>
  </g>
 </g>
</svg>
